<svg width="975" height="72" viewBox="0 0 975 72" fill="none" xmlns="http://www.w3.org/2000/svg">
<rect width="975" height="72" fill="white"/>
<path d="M40.8496 25L44.5316 14.78H46.8556L50.6496 25H49.2356L45.8056 15.676L46.4776 16.012H44.8256L45.5396 15.676L42.2216 25H40.8496ZM43.0476 21.948L43.5096 20.716H47.9196L48.3816 21.948H43.0476ZM53.2236 25V14.724H54.5956V25H53.2236ZM59.5376 25L56.1496 20.45H57.7596L61.2036 25H59.5376ZM54.0776 21.304V20.086H56.8216C57.251 20.086 57.6196 19.9973 57.9276 19.82C58.2356 19.6427 58.4736 19.4 58.6416 19.092C58.8096 18.7747 58.8936 18.4153 58.8936 18.014C58.8936 17.6127 58.8096 17.258 58.6416 16.95C58.4736 16.6327 58.2356 16.3853 57.9276 16.208C57.6196 16.0213 57.251 15.928 56.8216 15.928H54.0776V14.724H56.5696C57.3163 14.724 57.9696 14.836 58.5296 15.06C59.0896 15.284 59.5236 15.6293 59.8316 16.096C60.1396 16.5627 60.2936 17.1647 60.2936 17.902V18.126C60.2936 18.8633 60.135 19.4653 59.8176 19.932C59.5096 20.3987 59.0756 20.744 58.5156 20.968C57.965 21.192 57.3163 21.304 56.5696 21.304H54.0776Z" fill="#FFA54B"/>
<path d="M118.634 25V14.78H120.874L126.068 23.768H126.516L126.236 24.02V14.78H127.552V25H125.284L120.09 16.012H119.642L119.922 15.76V25H118.634ZM133.203 25L134.715 17.776H136.535L138.299 25H137.151L135.387 17.804H135.835L134.309 25H133.203ZM132.517 25V23.936H134.071V25H132.517ZM132.209 25L130.095 17.524H131.383L133.441 25H132.209ZM137.431 25V23.936H138.985V25H137.431ZM138.061 25L139.853 17.524H141.071L139.237 25H138.061ZM148.053 25V22.76H147.829V20.17C147.829 19.6567 147.694 19.2693 147.423 19.008C147.162 18.7467 146.775 18.616 146.261 18.616C145.972 18.616 145.673 18.6207 145.365 18.63C145.057 18.6393 144.763 18.6487 144.483 18.658C144.203 18.6673 143.961 18.6813 143.755 18.7V17.524C143.961 17.5053 144.175 17.4913 144.399 17.482C144.633 17.4633 144.871 17.454 145.113 17.454C145.356 17.4447 145.589 17.44 145.813 17.44C146.579 17.44 147.204 17.5333 147.689 17.72C148.175 17.8973 148.534 18.1913 148.767 18.602C149.001 19.0127 149.117 19.568 149.117 20.268V25H148.053ZM145.603 25.196C145.043 25.196 144.558 25.1027 144.147 24.916C143.746 24.72 143.433 24.44 143.209 24.076C142.995 23.712 142.887 23.2733 142.887 22.76C142.887 22.228 143.004 21.7847 143.237 21.43C143.48 21.0753 143.83 20.8093 144.287 20.632C144.745 20.4453 145.295 20.352 145.939 20.352H147.969V21.36H145.883C145.342 21.36 144.927 21.4907 144.637 21.752C144.348 22.0133 144.203 22.3493 144.203 22.76C144.203 23.1707 144.348 23.502 144.637 23.754C144.927 24.006 145.342 24.132 145.883 24.132C146.201 24.132 146.504 24.076 146.793 23.964C147.083 23.8427 147.321 23.6467 147.507 23.376C147.703 23.096 147.811 22.7133 147.829 22.228L148.193 22.76C148.147 23.292 148.016 23.74 147.801 24.104C147.596 24.4587 147.307 24.7293 146.933 24.916C146.569 25.1027 146.126 25.196 145.603 25.196ZM155.798 25.252C154.949 25.252 154.225 25.112 153.628 24.832C153.031 24.552 152.573 24.1647 152.256 23.67C151.939 23.1753 151.78 22.6153 151.78 21.99H153.152C153.152 22.298 153.231 22.606 153.39 22.914C153.558 23.222 153.833 23.4787 154.216 23.684C154.608 23.8893 155.135 23.992 155.798 23.992C156.414 23.992 156.918 23.9033 157.31 23.726C157.702 23.5393 157.991 23.3013 158.178 23.012C158.365 22.7133 158.458 22.3913 158.458 22.046C158.458 21.626 158.276 21.2807 157.912 21.01C157.548 20.73 157.016 20.5573 156.316 20.492L155.182 20.394C154.277 20.3193 153.553 20.0393 153.012 19.554C152.471 19.0687 152.2 18.4293 152.2 17.636C152.2 17.0107 152.349 16.4647 152.648 15.998C152.956 15.5313 153.381 15.1673 153.922 14.906C154.463 14.6353 155.093 14.5 155.812 14.5C156.521 14.5 157.147 14.6307 157.688 14.892C158.229 15.1533 158.649 15.522 158.948 15.998C159.256 16.4647 159.41 17.0247 159.41 17.678H158.038C158.038 17.3513 157.959 17.0433 157.8 16.754C157.651 16.4647 157.413 16.2267 157.086 16.04C156.759 15.8533 156.335 15.76 155.812 15.76C155.308 15.76 154.888 15.8487 154.552 16.026C154.225 16.2033 153.978 16.4367 153.81 16.726C153.651 17.006 153.572 17.3093 153.572 17.636C153.572 18.0093 153.717 18.3407 154.006 18.63C154.295 18.9193 154.725 19.0873 155.294 19.134L156.428 19.232C157.128 19.288 157.73 19.4373 158.234 19.68C158.747 19.9133 159.139 20.2307 159.41 20.632C159.69 21.024 159.83 21.4953 159.83 22.046C159.83 22.6713 159.662 23.2267 159.326 23.712C158.99 24.1973 158.519 24.5753 157.912 24.846C157.305 25.1167 156.601 25.252 155.798 25.252ZM162.832 25V14.78H164.652L167.676 21.598H167.9L170.91 14.78H172.744V25H171.372V16.278L171.47 16.306L168.572 22.886H166.892L163.98 16.306L164.092 16.278V25H162.832ZM180.975 25.252C180.182 25.252 179.463 25.1213 178.819 24.86C178.175 24.5987 177.62 24.23 177.153 23.754C176.696 23.278 176.341 22.718 176.089 22.074C175.837 21.4207 175.711 20.7113 175.711 19.946V19.638C175.711 18.9847 175.823 18.3547 176.047 17.748C176.281 17.132 176.612 16.5813 177.041 16.096C177.48 15.6013 178.012 15.214 178.637 14.934C179.263 14.6447 179.967 14.5 180.751 14.5C181.601 14.5 182.357 14.6633 183.019 14.99C183.682 15.3073 184.214 15.7553 184.615 16.334C185.017 16.9033 185.25 17.566 185.315 18.322H183.915C183.85 17.7527 183.663 17.2813 183.355 16.908C183.047 16.5253 182.665 16.2407 182.207 16.054C181.759 15.858 181.274 15.76 180.751 15.76C180.219 15.76 179.729 15.858 179.281 16.054C178.833 16.2407 178.446 16.5113 178.119 16.866C177.802 17.2207 177.555 17.6453 177.377 18.14C177.2 18.6347 177.111 19.19 177.111 19.806C177.111 20.506 177.205 21.122 177.391 21.654C177.587 22.1767 177.858 22.6153 178.203 22.97C178.549 23.3153 178.955 23.5767 179.421 23.754C179.897 23.9313 180.415 24.02 180.975 24.02C181.769 24.02 182.464 23.8613 183.061 23.544C183.668 23.2173 184.125 22.7973 184.433 22.284L183.929 23.95V20.912H185.217V23.348C184.76 23.9453 184.172 24.412 183.453 24.748C182.735 25.084 181.909 25.252 180.975 25.252ZM180.611 21.192V20.044H186.085V21.192H180.611ZM193.129 25.252C192.196 25.252 191.398 25.0887 190.735 24.762C190.082 24.4353 189.555 24.0107 189.153 23.488C188.752 22.9653 188.458 22.4007 188.271 21.794C188.085 21.178 187.991 20.5853 187.991 20.016V19.708C187.991 19.092 188.085 18.476 188.271 17.86C188.467 17.244 188.766 16.684 189.167 16.18C189.569 15.676 190.091 15.27 190.735 14.962C191.379 14.654 192.149 14.5 193.045 14.5C193.96 14.5 194.744 14.6587 195.397 14.976C196.051 15.2933 196.569 15.7367 196.951 16.306C197.334 16.8753 197.567 17.5473 197.651 18.322H196.251C196.177 17.7433 195.99 17.2673 195.691 16.894C195.393 16.5113 195.015 16.2267 194.557 16.04C194.109 15.8533 193.605 15.76 193.045 15.76C192.439 15.76 191.907 15.8673 191.449 16.082C190.992 16.2873 190.609 16.5813 190.301 16.964C190.003 17.3373 189.774 17.7713 189.615 18.266C189.466 18.7607 189.391 19.2973 189.391 19.876C189.391 20.4267 189.466 20.9493 189.615 21.444C189.774 21.9387 190.007 22.3773 190.315 22.76C190.633 23.1427 191.025 23.446 191.491 23.67C191.958 23.8847 192.504 23.992 193.129 23.992C194.007 23.992 194.744 23.7727 195.341 23.334C195.939 22.8953 196.303 22.2607 196.433 21.43H197.833C197.74 22.13 197.502 22.7693 197.119 23.348C196.746 23.9267 196.223 24.3887 195.551 24.734C194.889 25.0793 194.081 25.252 193.129 25.252ZM203.446 25.252C202.914 25.252 202.424 25.154 201.976 24.958C201.528 24.762 201.136 24.4867 200.8 24.132C200.474 23.7773 200.217 23.3667 200.03 22.9C199.853 22.4333 199.764 21.9293 199.764 21.388V21.136C199.764 20.604 199.853 20.1047 200.03 19.638C200.208 19.1713 200.455 18.7607 200.772 18.406C201.099 18.0513 201.482 17.776 201.92 17.58C202.368 17.3747 202.863 17.272 203.404 17.272C203.974 17.272 204.492 17.3933 204.958 17.636C205.425 17.8693 205.808 18.238 206.106 18.742C206.405 19.246 206.573 19.8993 206.61 20.702L206.05 19.806V14.78H207.394V25H206.33V21.682H206.722C206.685 22.5313 206.508 23.222 206.19 23.754C205.873 24.2767 205.472 24.6593 204.986 24.902C204.51 25.1353 203.997 25.252 203.446 25.252ZM203.628 24.076C204.086 24.076 204.501 23.9733 204.874 23.768C205.248 23.5627 205.546 23.2687 205.77 22.886C205.994 22.494 206.106 22.0367 206.106 21.514V20.87C206.106 20.3567 205.99 19.9227 205.756 19.568C205.532 19.204 205.229 18.9287 204.846 18.742C204.473 18.546 204.062 18.448 203.614 18.448C203.12 18.448 202.681 18.5647 202.298 18.798C201.925 19.0313 201.631 19.358 201.416 19.778C201.211 20.198 201.108 20.6927 201.108 21.262C201.108 21.8313 201.216 22.3307 201.43 22.76C201.645 23.18 201.944 23.5067 202.326 23.74C202.709 23.964 203.143 24.076 203.628 24.076ZM210.201 25V23.502L214.275 18.616V18.84L214.051 18.504L214.233 18.588H210.145V17.524H215.465V19.022L211.391 23.908V23.712L211.643 24.062L211.447 23.936H215.689V25H210.201ZM221.811 25.28C221.064 25.28 220.439 25.1493 219.935 24.888C219.44 24.6267 219.043 24.272 218.745 23.824C218.455 23.3667 218.245 22.844 218.115 22.256C217.993 21.668 217.933 21.052 217.933 20.408V19.736C217.933 18.1213 218.334 16.88 219.137 16.012C219.939 15.1347 221.101 14.696 222.623 14.696C222.987 14.696 223.295 14.7053 223.547 14.724C223.799 14.7427 224.074 14.7707 224.373 14.808V15.956C224.065 15.9187 223.78 15.8907 223.519 15.872C223.257 15.8533 222.94 15.844 222.567 15.844C221.717 15.844 221.045 16.0027 220.551 16.32C220.056 16.6373 219.701 17.0947 219.487 17.692C219.272 18.28 219.165 18.994 219.165 19.834V20.464L218.829 21.71C218.838 20.9727 218.978 20.3613 219.249 19.876C219.529 19.3907 219.907 19.0267 220.383 18.784C220.868 18.5413 221.423 18.42 222.049 18.42C222.777 18.42 223.393 18.5693 223.897 18.868C224.401 19.1573 224.779 19.5587 225.031 20.072C225.292 20.5853 225.423 21.1687 225.423 21.822C225.423 22.4847 225.287 23.0773 225.017 23.6C224.746 24.1227 224.34 24.5333 223.799 24.832C223.267 25.1307 222.604 25.28 221.811 25.28ZM221.811 24.104C222.324 24.104 222.753 24.006 223.099 23.81C223.444 23.614 223.701 23.348 223.869 23.012C224.046 22.6667 224.135 22.27 224.135 21.822C224.135 21.374 224.051 20.9773 223.883 20.632C223.715 20.2867 223.463 20.0207 223.127 19.834C222.8 19.638 222.394 19.54 221.909 19.54C221.433 19.54 221.003 19.6287 220.621 19.806C220.247 19.9833 219.953 20.2447 219.739 20.59C219.524 20.926 219.417 21.3413 219.417 21.836C219.417 22.2467 219.501 22.6247 219.669 22.97C219.837 23.3153 220.098 23.5907 220.453 23.796C220.807 24.0013 221.26 24.104 221.811 24.104ZM230.325 21.024L227.077 14.78H228.505L231.249 20.128L230.717 19.974H232.369L231.809 20.128L234.385 14.78H235.729L232.677 21.024H230.325ZM230.829 25V20.744H232.173V25H230.829ZM240.113 25.224C239.226 25.224 238.545 24.9347 238.069 24.356C237.593 23.7773 237.355 22.942 237.355 21.85V17.51H238.699V22.116C238.699 22.704 238.857 23.166 239.175 23.502C239.492 23.8287 239.921 23.992 240.463 23.992C241.023 23.992 241.48 23.8147 241.835 23.46C242.189 23.096 242.367 22.6013 242.367 21.976V17.51H243.711V25H242.647V21.794H242.815C242.815 22.5313 242.717 23.1567 242.521 23.67C242.325 24.174 242.031 24.5613 241.639 24.832C241.256 25.0933 240.766 25.224 240.169 25.224H240.113ZM250.15 25.252C249.366 25.252 248.703 25.0933 248.162 24.776C247.62 24.4493 247.21 24.0247 246.93 23.502C246.65 22.9793 246.51 22.424 246.51 21.836H247.826C247.826 22.2653 247.919 22.648 248.106 22.984C248.302 23.32 248.572 23.586 248.918 23.782C249.263 23.978 249.674 24.076 250.15 24.076C250.616 24.076 251.022 23.9827 251.368 23.796C251.722 23.6 251.998 23.334 252.194 22.998C252.39 22.6527 252.488 22.2653 252.488 21.836C252.488 21.4067 252.39 21.0193 252.194 20.674C252.007 20.3287 251.736 20.0533 251.382 19.848C251.036 19.6427 250.626 19.54 250.15 19.54C249.804 19.54 249.454 19.6007 249.1 19.722C248.745 19.834 248.46 19.9973 248.246 20.212H247.014L247.532 14.78H252.894V15.928H248.316L248.652 15.466L248.26 19.428L247.896 19.302C248.166 19.0313 248.493 18.8167 248.876 18.658C249.268 18.4993 249.711 18.42 250.206 18.42C250.99 18.42 251.648 18.5833 252.18 18.91C252.712 19.2273 253.113 19.6427 253.384 20.156C253.664 20.66 253.804 21.1873 253.804 21.738V21.934C253.804 22.4847 253.664 23.0167 253.384 23.53C253.104 24.034 252.688 24.4493 252.138 24.776C251.596 25.0933 250.934 25.252 250.15 25.252ZM258.998 25L255.456 14.78H256.87L260.048 24.104L259.376 23.768H261.056L260.342 24.104L263.268 14.78H264.64L261.35 25H258.998ZM267.245 25V14.78H269.485L274.679 23.768H275.127L274.847 24.02V14.78H276.163V25H273.895L268.701 16.012H268.253L268.533 15.76V25H267.245ZM278.313 27.856V26.652H279.097C279.452 26.652 279.723 26.554 279.909 26.358C280.105 26.162 280.203 25.8913 280.203 25.546V17.524H281.491V25.35C281.491 25.9753 281.403 26.47 281.225 26.834C281.057 27.198 280.782 27.4593 280.399 27.618C280.026 27.7767 279.527 27.856 278.901 27.856H278.313ZM279.027 18.588V17.524H281.491V18.588H279.027ZM280.525 16.208C280.227 16.208 280.003 16.1287 279.853 15.97C279.713 15.8113 279.643 15.6107 279.643 15.368C279.643 15.1253 279.713 14.9247 279.853 14.766C280.003 14.6073 280.227 14.528 280.525 14.528C280.824 14.528 281.043 14.6073 281.183 14.766C281.333 14.9247 281.407 15.1253 281.407 15.368C281.407 15.6107 281.333 15.8113 281.183 15.97C281.043 16.1287 280.824 16.208 280.525 16.208ZM284.857 25V14.78H286.201V25H284.857ZM283.821 15.844V14.78H286.201V15.844H283.821ZM289.675 25V14.78H291.495L294.519 21.598H294.743L297.753 14.78H299.587V25H298.215V16.278L298.313 16.306L295.415 22.886H293.735L290.823 16.306L290.935 16.278V25H289.675ZM305.97 25.084C305.41 25.084 304.924 25.0047 304.514 24.846C304.112 24.6873 303.8 24.4167 303.576 24.034C303.361 23.642 303.254 23.1147 303.254 22.452V15.256H304.542V22.62C304.542 23.0213 304.649 23.334 304.864 23.558C305.088 23.7727 305.4 23.88 305.802 23.88H307.118V25.084H305.97ZM301.966 18.532V17.524H307.118V18.532H301.966ZM314.352 25.252C313.419 25.252 312.621 25.0887 311.958 24.762C311.305 24.4353 310.778 24.0107 310.376 23.488C309.975 22.9653 309.681 22.4007 309.494 21.794C309.308 21.178 309.214 20.5853 309.214 20.016V19.708C309.214 19.092 309.308 18.476 309.494 17.86C309.69 17.244 309.989 16.684 310.39 16.18C310.792 15.676 311.314 15.27 311.958 14.962C312.602 14.654 313.372 14.5 314.268 14.5C315.183 14.5 315.967 14.6587 316.62 14.976C317.274 15.2933 317.792 15.7367 318.174 16.306C318.557 16.8753 318.79 17.5473 318.874 18.322H317.474C317.4 17.7433 317.213 17.2673 316.914 16.894C316.616 16.5113 316.238 16.2267 315.78 16.04C315.332 15.8533 314.828 15.76 314.268 15.76C313.662 15.76 313.13 15.8673 312.672 16.082C312.215 16.2873 311.832 16.5813 311.524 16.964C311.226 17.3373 310.997 17.7713 310.838 18.266C310.689 18.7607 310.614 19.2973 310.614 19.876C310.614 20.4267 310.689 20.9493 310.838 21.444C310.997 21.9387 311.23 22.3773 311.538 22.76C311.856 23.1427 312.248 23.446 312.714 23.67C313.181 23.8847 313.727 23.992 314.352 23.992C315.23 23.992 315.967 23.7727 316.564 23.334C317.162 22.8953 317.526 22.2607 317.656 21.43H319.056C318.963 22.13 318.725 22.7693 318.342 23.348C317.969 23.9267 317.446 24.3887 316.774 24.734C316.112 25.0793 315.304 25.252 314.352 25.252ZM321.743 25V14.78H323.983L329.177 23.768H329.625L329.345 24.02V14.78H330.661V25H328.393L323.199 16.012H322.751L323.031 15.76V25H321.743ZM335.416 25.056V23.852H338.272C338.823 23.852 339.248 23.698 339.546 23.39C339.854 23.0727 340.008 22.6527 340.008 22.13C340.008 21.598 339.859 21.1827 339.56 20.884C339.262 20.576 338.832 20.422 338.272 20.422H335.416V19.526H338.076C338.73 19.526 339.304 19.6053 339.798 19.764C340.302 19.9227 340.694 20.1887 340.974 20.562C341.264 20.926 341.408 21.4253 341.408 22.06V22.256C341.408 22.8533 341.287 23.362 341.044 23.782C340.802 24.1927 340.433 24.51 339.938 24.734C339.444 24.9487 338.823 25.056 338.076 25.056H335.416ZM334.324 25.056V14.724H335.696V25.056H334.324ZM335.416 20.17V19.274H337.894C338.473 19.274 338.898 19.12 339.168 18.812C339.448 18.4947 339.588 18.0933 339.588 17.608C339.588 17.1133 339.448 16.712 339.168 16.404C338.898 16.0867 338.473 15.928 337.894 15.928H335.416V14.724H337.656C338.776 14.724 339.612 14.962 340.162 15.438C340.713 15.9047 340.988 16.5813 340.988 17.468V17.664C340.988 18.2893 340.848 18.7887 340.568 19.162C340.288 19.526 339.896 19.7873 339.392 19.946C338.898 20.0953 338.319 20.17 337.656 20.17H335.416ZM344.344 25V17.524H345.408V20.73H345.24C345.24 20.002 345.333 19.386 345.52 18.882C345.716 18.3687 346.005 17.9767 346.388 17.706C346.771 17.4353 347.256 17.3 347.844 17.3H347.9C348.488 17.3 348.973 17.4353 349.356 17.706C349.748 17.9767 350.037 18.3687 350.224 18.882C350.411 19.386 350.504 20.002 350.504 20.73H350.112C350.112 20.002 350.21 19.386 350.406 18.882C350.602 18.3687 350.891 17.9767 351.274 17.706C351.666 17.4353 352.156 17.3 352.744 17.3H352.8C353.388 17.3 353.878 17.4353 354.27 17.706C354.662 17.9767 354.951 18.3687 355.138 18.882C355.334 19.386 355.432 20.002 355.432 20.73V25H354.088V20.436C354.088 19.8293 353.939 19.3627 353.64 19.036C353.341 18.7 352.926 18.532 352.394 18.532C351.843 18.532 351.4 18.7093 351.064 19.064C350.728 19.4093 350.56 19.8947 350.56 20.52V25H349.216V20.436C349.216 19.8293 349.067 19.3627 348.768 19.036C348.469 18.7 348.054 18.532 347.522 18.532C346.971 18.532 346.528 18.7093 346.192 19.064C345.856 19.4093 345.688 19.8947 345.688 20.52V25H344.344ZM358.789 25V17.146C358.789 16.3153 359.008 15.704 359.447 15.312C359.885 14.92 360.529 14.724 361.379 14.724H362.303V15.844H361.155C360.809 15.844 360.543 15.942 360.357 16.138C360.17 16.3247 360.077 16.586 360.077 16.922V25H358.789ZM357.753 18.616V17.608H362.443V18.616H357.753ZM364.793 25V14.78H366.165V25H364.793ZM365.885 25V23.768H370.841V25H365.885ZM365.885 20.422V19.19H370.407V20.422H365.885ZM365.885 16.012V14.78H370.701V16.012H365.885ZM372.376 27.856V26.652H373.16C373.515 26.652 373.785 26.554 373.972 26.358C374.168 26.162 374.266 25.8913 374.266 25.546V17.524H375.554V25.35C375.554 25.9753 375.465 26.47 375.288 26.834C375.12 27.198 374.845 27.4593 374.462 27.618C374.089 27.7767 373.589 27.856 372.964 27.856H372.376ZM373.09 18.588V17.524H375.554V18.588H373.09ZM374.588 16.208C374.289 16.208 374.065 16.1287 373.916 15.97C373.776 15.8113 373.706 15.6107 373.706 15.368C373.706 15.1253 373.776 14.9247 373.916 14.766C374.065 14.6073 374.289 14.528 374.588 14.528C374.887 14.528 375.106 14.6073 375.246 14.766C375.395 14.9247 375.47 15.1253 375.47 15.368C375.47 15.6107 375.395 15.8113 375.246 15.97C375.106 16.1287 374.887 16.208 374.588 16.208ZM381.019 21.024L377.771 14.78H379.199L381.943 20.128L381.411 19.974H383.063L382.503 20.128L385.079 14.78H386.423L383.371 21.024H381.019ZM381.523 25V20.744H382.867V25H381.523ZM388.782 25V17.146C388.782 16.3153 389.001 15.704 389.44 15.312C389.879 14.92 390.523 14.724 391.372 14.724H392.296V15.844H391.148C390.803 15.844 390.537 15.942 390.35 16.138C390.163 16.3247 390.07 16.586 390.07 16.922V25H388.782ZM387.746 18.616V17.608H392.436V18.616H387.746ZM396.775 25V15.732H398.147V25H396.775ZM393.667 16.012V14.78H401.255V16.012H393.667ZM402.433 21.682V20.534H407.641V21.682H402.433ZM413.673 25.252C413.141 25.252 412.651 25.154 412.203 24.958C411.755 24.762 411.363 24.4867 411.027 24.132C410.701 23.7773 410.444 23.3667 410.257 22.9C410.08 22.4333 409.991 21.9293 409.991 21.388V21.136C409.991 20.604 410.08 20.1047 410.257 19.638C410.435 19.1713 410.682 18.7607 410.999 18.406C411.326 18.0513 411.709 17.776 412.147 17.58C412.595 17.3747 413.09 17.272 413.631 17.272C414.201 17.272 414.719 17.3933 415.185 17.636C415.652 17.8693 416.035 18.238 416.333 18.742C416.632 19.246 416.8 19.8993 416.837 20.702L416.277 19.806V14.78H417.621V25H416.557V21.682H416.949C416.912 22.5313 416.735 23.222 416.417 23.754C416.1 24.2767 415.699 24.6593 415.213 24.902C414.737 25.1353 414.224 25.252 413.673 25.252ZM413.855 24.076C414.313 24.076 414.728 23.9733 415.101 23.768C415.475 23.5627 415.773 23.2687 415.997 22.886C416.221 22.494 416.333 22.0367 416.333 21.514V20.87C416.333 20.3567 416.217 19.9227 415.983 19.568C415.759 19.204 415.456 18.9287 415.073 18.742C414.7 18.546 414.289 18.448 413.841 18.448C413.347 18.448 412.908 18.5647 412.525 18.798C412.152 19.0313 411.858 19.358 411.643 19.778C411.438 20.198 411.335 20.6927 411.335 21.262C411.335 21.8313 411.443 22.3307 411.657 22.76C411.872 23.18 412.171 23.5067 412.553 23.74C412.936 23.964 413.37 24.076 413.855 24.076ZM421.1 25V17.146C421.1 16.3153 421.319 15.704 421.758 15.312C422.196 14.92 422.84 14.724 423.69 14.724H424.614V15.844H423.466C423.12 15.844 422.854 15.942 422.668 16.138C422.481 16.3247 422.388 16.586 422.388 16.922V25H421.1ZM420.064 18.616V17.608H424.754V18.616H420.064ZM429.092 21.024L425.844 14.78H427.272L430.016 20.128L429.484 19.974H431.136L430.576 20.128L433.152 14.78H434.496L431.444 21.024H429.092ZM429.596 25V20.744H430.94V25H429.596ZM441.893 25L439.079 21.514H437.847L441.277 17.524H442.691L439.583 21.122L439.681 20.408L443.447 25H441.893ZM436.741 25V14.78H438.085V25H436.741ZM449.414 25.252C448.798 25.252 448.248 25.1167 447.762 24.846C447.286 24.5753 446.908 24.1833 446.628 23.67C446.348 23.1473 446.194 22.522 446.166 21.794H446.53V25H445.466V14.78H446.81V19.75L446.334 20.772C446.372 19.96 446.535 19.2973 446.824 18.784C447.114 18.2707 447.492 17.8927 447.958 17.65C448.434 17.398 448.957 17.272 449.526 17.272C450.058 17.272 450.544 17.3747 450.982 17.58C451.421 17.776 451.799 18.0513 452.116 18.406C452.434 18.7513 452.676 19.1573 452.844 19.624C453.012 20.0813 453.096 20.576 453.096 21.108V21.36C453.096 21.892 453.008 22.3913 452.83 22.858C452.662 23.3247 452.415 23.74 452.088 24.104C451.762 24.4587 451.37 24.7387 450.912 24.944C450.464 25.1493 449.965 25.252 449.414 25.252ZM449.26 24.076C449.764 24.076 450.203 23.9547 450.576 23.712C450.95 23.4693 451.239 23.138 451.444 22.718C451.65 22.2887 451.752 21.794 451.752 21.234C451.752 20.674 451.645 20.184 451.43 19.764C451.225 19.344 450.936 19.022 450.562 18.798C450.189 18.5647 449.755 18.448 449.26 18.448C448.812 18.448 448.397 18.5507 448.014 18.756C447.632 18.952 447.324 19.2413 447.09 19.624C446.866 19.9973 446.754 20.45 446.754 20.982V21.626C446.754 22.1393 446.871 22.578 447.104 22.942C447.338 23.306 447.646 23.586 448.028 23.782C448.411 23.978 448.822 24.076 449.26 24.076ZM462.483 27.954C461.979 27.954 461.54 27.8793 461.167 27.73C460.794 27.59 460.504 27.3427 460.299 26.988C460.094 26.6333 459.991 26.148 459.991 25.532V24.3H461.251V25.742C461.251 26.05 461.34 26.2927 461.517 26.47C461.704 26.6473 461.946 26.736 462.245 26.736H463.981V27.954H462.483ZM460.593 25.252C459.678 25.252 458.89 25.0887 458.227 24.762C457.564 24.4353 457.018 24.006 456.589 23.474C456.16 22.942 455.838 22.3727 455.623 21.766C455.418 21.1593 455.315 20.576 455.315 20.016V19.708C455.315 19.1013 455.422 18.49 455.637 17.874C455.852 17.258 456.178 16.698 456.617 16.194C457.056 15.6807 457.602 15.27 458.255 14.962C458.918 14.654 459.697 14.5 460.593 14.5C461.489 14.5 462.264 14.654 462.917 14.962C463.58 15.27 464.13 15.6807 464.569 16.194C465.008 16.698 465.334 17.258 465.549 17.874C465.764 18.49 465.871 19.1013 465.871 19.708V20.016C465.871 20.576 465.764 21.1593 465.549 21.766C465.344 22.3727 465.026 22.942 464.597 23.474C464.168 24.006 463.622 24.4353 462.959 24.762C462.296 25.0887 461.508 25.252 460.593 25.252ZM460.593 23.992C461.19 23.992 461.727 23.88 462.203 23.656C462.688 23.432 463.099 23.1287 463.435 22.746C463.771 22.354 464.028 21.9153 464.205 21.43C464.382 20.9353 464.471 20.4173 464.471 19.876C464.471 19.3067 464.382 18.7747 464.205 18.28C464.028 17.7853 463.771 17.3513 463.435 16.978C463.099 16.5953 462.688 16.2967 462.203 16.082C461.727 15.8673 461.19 15.76 460.593 15.76C459.996 15.76 459.454 15.8673 458.969 16.082C458.493 16.2967 458.087 16.5953 457.751 16.978C457.415 17.3513 457.158 17.7853 456.981 18.28C456.804 18.7747 456.715 19.3067 456.715 19.876C456.715 20.4173 456.804 20.9353 456.981 21.43C457.158 21.9153 457.415 22.354 457.751 22.746C458.087 23.1287 458.493 23.432 458.969 23.656C459.454 23.88 459.996 23.992 460.593 23.992ZM475.296 27.954C474.792 27.954 474.353 27.8793 473.98 27.73C473.607 27.59 473.317 27.3427 473.112 26.988C472.907 26.6333 472.804 26.148 472.804 25.532V24.3H474.064V25.742C474.064 26.05 474.153 26.2927 474.33 26.47C474.517 26.6473 474.759 26.736 475.058 26.736H476.794V27.954H475.296ZM473.406 25.252C472.491 25.252 471.703 25.0887 471.04 24.762C470.377 24.4353 469.831 24.006 469.402 23.474C468.973 22.942 468.651 22.3727 468.436 21.766C468.231 21.1593 468.128 20.576 468.128 20.016V19.708C468.128 19.1013 468.235 18.49 468.45 17.874C468.665 17.258 468.991 16.698 469.43 16.194C469.869 15.6807 470.415 15.27 471.068 14.962C471.731 14.654 472.51 14.5 473.406 14.5C474.302 14.5 475.077 14.654 475.73 14.962C476.393 15.27 476.943 15.6807 477.382 16.194C477.821 16.698 478.147 17.258 478.362 17.874C478.577 18.49 478.684 19.1013 478.684 19.708V20.016C478.684 20.576 478.577 21.1593 478.362 21.766C478.157 22.3727 477.839 22.942 477.41 23.474C476.981 24.006 476.435 24.4353 475.772 24.762C475.109 25.0887 474.321 25.252 473.406 25.252ZM473.406 23.992C474.003 23.992 474.54 23.88 475.016 23.656C475.501 23.432 475.912 23.1287 476.248 22.746C476.584 22.354 476.841 21.9153 477.018 21.43C477.195 20.9353 477.284 20.4173 477.284 19.876C477.284 19.3067 477.195 18.7747 477.018 18.28C476.841 17.7853 476.584 17.3513 476.248 16.978C475.912 16.5953 475.501 16.2967 475.016 16.082C474.54 15.8673 474.003 15.76 473.406 15.76C472.809 15.76 472.267 15.8673 471.782 16.082C471.306 16.2967 470.9 16.5953 470.564 16.978C470.228 17.3513 469.971 17.7853 469.794 18.28C469.617 18.7747 469.528 19.3067 469.528 19.876C469.528 20.4173 469.617 20.9353 469.794 21.43C469.971 21.9153 470.228 22.354 470.564 22.746C470.9 23.1287 471.306 23.432 471.782 23.656C472.267 23.88 472.809 23.992 473.406 23.992ZM482.733 25.056V23.796H485.281C485.897 23.796 486.443 23.698 486.919 23.502C487.405 23.2967 487.815 23.0167 488.151 22.662C488.497 22.3073 488.758 21.892 488.935 21.416C489.113 20.94 489.201 20.4267 489.201 19.876C489.201 19.2973 489.113 18.7747 488.935 18.308C488.758 17.832 488.497 17.4213 488.151 17.076C487.815 16.7213 487.405 16.4507 486.919 16.264C486.443 16.0773 485.897 15.984 485.281 15.984H482.733V14.724H485.141C486.065 14.724 486.868 14.8687 487.549 15.158C488.231 15.438 488.795 15.8207 489.243 16.306C489.701 16.782 490.041 17.3187 490.265 17.916C490.489 18.504 490.601 19.106 490.601 19.722V20.03C490.601 20.6273 490.489 21.2247 490.265 21.822C490.041 22.4193 489.701 22.9607 489.243 23.446C488.795 23.9313 488.231 24.3233 487.549 24.622C486.868 24.9113 486.065 25.056 485.141 25.056H482.733ZM481.641 25.056V14.724H483.013V25.056H481.641ZM497.98 25.252C497.186 25.252 496.468 25.1213 495.824 24.86C495.18 24.5987 494.624 24.23 494.158 23.754C493.7 23.278 493.346 22.718 493.094 22.074C492.842 21.4207 492.716 20.7113 492.716 19.946V19.638C492.716 18.9847 492.828 18.3547 493.052 17.748C493.285 17.132 493.616 16.5813 494.046 16.096C494.484 15.6013 495.016 15.214 495.642 14.934C496.267 14.6447 496.972 14.5 497.756 14.5C498.605 14.5 499.361 14.6633 500.024 14.99C500.686 15.3073 501.218 15.7553 501.62 16.334C502.021 16.9033 502.254 17.566 502.32 18.322H500.92C500.854 17.7527 500.668 17.2813 500.36 16.908C500.052 16.5253 499.669 16.2407 499.212 16.054C498.764 15.858 498.278 15.76 497.756 15.76C497.224 15.76 496.734 15.858 496.286 16.054C495.838 16.2407 495.45 16.5113 495.124 16.866C494.806 17.2207 494.559 17.6453 494.382 18.14C494.204 18.6347 494.116 19.19 494.116 19.806C494.116 20.506 494.209 21.122 494.396 21.654C494.592 22.1767 494.862 22.6153 495.208 22.97C495.553 23.3153 495.959 23.5767 496.426 23.754C496.902 23.9313 497.42 24.02 497.98 24.02C498.773 24.02 499.468 23.8613 500.066 23.544C500.672 23.2173 501.13 22.7973 501.438 22.284L500.934 23.95V20.912H502.222V23.348C501.764 23.9453 501.176 24.412 500.458 24.748C499.739 25.084 498.913 25.252 497.98 25.252ZM497.616 21.192V20.044H503.09V21.192H497.616ZM505.554 25V17.524H506.618V20.73H506.45C506.45 19.9927 506.548 19.372 506.744 18.868C506.95 18.3547 507.258 17.9673 507.668 17.706C508.079 17.4353 508.597 17.3 509.222 17.3H509.278C510.221 17.3 510.916 17.594 511.364 18.182C511.822 18.77 512.05 19.6193 512.05 20.73V25H510.706V20.45C510.706 19.8713 510.543 19.4093 510.216 19.064C509.89 18.7093 509.442 18.532 508.872 18.532C508.284 18.532 507.808 18.714 507.444 19.078C507.08 19.442 506.898 19.9273 506.898 20.534V25H505.554ZM518.345 25.252C517.561 25.252 516.899 25.0933 516.357 24.776C515.816 24.4493 515.405 24.0247 515.125 23.502C514.845 22.9793 514.705 22.424 514.705 21.836H516.021C516.021 22.2653 516.115 22.648 516.301 22.984C516.497 23.32 516.768 23.586 517.113 23.782C517.459 23.978 517.869 24.076 518.345 24.076C518.812 24.076 519.218 23.9827 519.563 23.796C519.918 23.6 520.193 23.334 520.389 22.998C520.585 22.6527 520.683 22.2653 520.683 21.836C520.683 21.4067 520.585 21.0193 520.389 20.674C520.203 20.3287 519.932 20.0533 519.577 19.848C519.232 19.6427 518.821 19.54 518.345 19.54C518 19.54 517.65 19.6007 517.295 19.722C516.941 19.834 516.656 19.9973 516.441 20.212H515.209L515.727 14.78H521.089V15.928H516.511L516.847 15.466L516.455 19.428L516.091 19.302C516.362 19.0313 516.689 18.8167 517.071 18.658C517.463 18.4993 517.907 18.42 518.401 18.42C519.185 18.42 519.843 18.5833 520.375 18.91C520.907 19.2273 521.309 19.6427 521.579 20.156C521.859 20.66 521.999 21.1873 521.999 21.738V21.934C521.999 22.4847 521.859 23.0167 521.579 23.53C521.299 24.034 520.884 24.4493 520.333 24.776C519.792 25.0933 519.129 25.252 518.345 25.252ZM527.082 25.224C526.102 25.224 525.341 25.014 524.8 24.594C524.268 24.174 523.993 23.6 523.974 22.872H525.234C525.253 23.1613 525.397 23.4367 525.668 23.698C525.948 23.95 526.419 24.076 527.082 24.076C527.679 24.076 528.137 23.9593 528.454 23.726C528.771 23.4833 528.93 23.1893 528.93 22.844C528.93 22.536 528.813 22.298 528.58 22.13C528.347 21.9527 527.969 21.836 527.446 21.78L526.634 21.696C525.925 21.6213 525.346 21.4113 524.898 21.066C524.45 20.7113 524.226 20.2167 524.226 19.582C524.226 19.106 524.347 18.7 524.59 18.364C524.833 18.0187 525.169 17.7573 525.598 17.58C526.027 17.3933 526.522 17.3 527.082 17.3C527.922 17.3 528.603 17.4867 529.126 17.86C529.649 18.2333 529.919 18.7887 529.938 19.526H528.678C528.669 19.2273 528.529 18.9753 528.258 18.77C527.997 18.5553 527.605 18.448 527.082 18.448C526.559 18.448 526.163 18.5553 525.892 18.77C525.621 18.9847 525.486 19.2553 525.486 19.582C525.486 19.862 525.579 20.086 525.766 20.254C525.962 20.422 526.279 20.5293 526.718 20.576L527.53 20.66C528.333 20.744 528.977 20.968 529.462 21.332C529.947 21.6867 530.19 22.1907 530.19 22.844C530.19 23.3107 530.055 23.726 529.784 24.09C529.523 24.4447 529.159 24.7247 528.692 24.93C528.225 25.126 527.689 25.224 527.082 25.224Z" fill="#087980"/>
<path d="M546.918 25V22.76H549.102V25H546.918ZM546.918 20.17V17.93H549.102V20.17H546.918Z" fill="#171753"/>
<path d="M99.9181 25V22.76H102.102V25H99.9181ZM99.9181 20.17V17.93H102.102V20.17H99.9181Z" fill="#171753"/>
<path d="M564.007 21.682V20.534H569.215V21.682H564.007ZM572.21 25V14.78H573.554V25H572.21ZM571.174 15.844V14.78H573.554V15.844H571.174ZM577.196 25V17.524H578.54V25H577.196ZM576.048 18.588V17.524H578.54V18.588H576.048ZM577.574 16.32C577.275 16.32 577.051 16.2407 576.902 16.082C576.762 15.9233 576.692 15.7227 576.692 15.48C576.692 15.2373 576.762 15.0367 576.902 14.878C577.051 14.7193 577.275 14.64 577.574 14.64C577.872 14.64 578.092 14.7193 578.232 14.878C578.381 15.0367 578.456 15.2373 578.456 15.48C578.456 15.7227 578.381 15.9233 578.232 16.082C578.092 16.2407 577.872 16.32 577.574 16.32ZM584.736 25.252C583.971 25.252 583.322 25.1027 582.79 24.804C582.258 24.5053 581.852 24.1087 581.572 23.614C581.302 23.1193 581.166 22.5827 581.166 22.004H582.482C582.482 22.6387 582.683 23.1427 583.084 23.516C583.495 23.8893 584.046 24.076 584.736 24.076C585.194 24.076 585.59 23.992 585.926 23.824C586.262 23.656 586.524 23.418 586.71 23.11C586.897 22.7927 586.99 22.424 586.99 22.004C586.99 21.3693 586.785 20.856 586.374 20.464C585.973 20.072 585.432 19.876 584.75 19.876C584.461 19.876 584.209 19.9133 583.994 19.988C583.789 20.0533 583.607 20.1373 583.448 20.24L582.776 19.036L586.682 16.18L586.542 15.928H581.572V14.78H587.802V16.642L584.568 18.994L583.588 19.036C583.747 18.98 583.92 18.9333 584.106 18.896C584.302 18.8587 584.531 18.84 584.792 18.84C585.539 18.84 586.174 18.98 586.696 19.26C587.219 19.54 587.616 19.9133 587.886 20.38C588.166 20.8467 588.306 21.3553 588.306 21.906V22.102C588.306 22.6433 588.166 23.1567 587.886 23.642C587.616 24.118 587.214 24.5053 586.682 24.804C586.16 25.1027 585.511 25.252 584.736 25.252ZM591.334 25V14.78H592.706V25H591.334ZM592.426 20.45V19.218L596.808 19.204V20.436L592.426 20.45ZM592.426 16.012V14.78H597.046V16.012H592.426ZM603.948 25V22.76H603.724V20.17C603.724 19.6567 603.589 19.2693 603.318 19.008C603.057 18.7467 602.669 18.616 602.156 18.616C601.867 18.616 601.568 18.6207 601.26 18.63C600.952 18.6393 600.658 18.6487 600.378 18.658C600.098 18.6673 599.855 18.6813 599.65 18.7V17.524C599.855 17.5053 600.07 17.4913 600.294 17.482C600.527 17.4633 600.765 17.454 601.008 17.454C601.251 17.4447 601.484 17.44 601.708 17.44C602.473 17.44 603.099 17.5333 603.584 17.72C604.069 17.8973 604.429 18.1913 604.662 18.602C604.895 19.0127 605.012 19.568 605.012 20.268V25H603.948ZM601.498 25.196C600.938 25.196 600.453 25.1027 600.042 24.916C599.641 24.72 599.328 24.44 599.104 24.076C598.889 23.712 598.782 23.2733 598.782 22.76C598.782 22.228 598.899 21.7847 599.132 21.43C599.375 21.0753 599.725 20.8093 600.182 20.632C600.639 20.4453 601.19 20.352 601.834 20.352H603.864V21.36H601.778C601.237 21.36 600.821 21.4907 600.532 21.752C600.243 22.0133 600.098 22.3493 600.098 22.76C600.098 23.1707 600.243 23.502 600.532 23.754C600.821 24.006 601.237 24.132 601.778 24.132C602.095 24.132 602.399 24.076 602.688 23.964C602.977 23.8427 603.215 23.6467 603.402 23.376C603.598 23.096 603.705 22.7133 603.724 22.228L604.088 22.76C604.041 23.292 603.911 23.74 603.696 24.104C603.491 24.4587 603.201 24.7293 602.828 24.916C602.464 25.1027 602.021 25.196 601.498 25.196ZM612.953 25.252C612.038 25.252 611.249 25.0887 610.587 24.762C609.924 24.4353 609.378 24.006 608.949 23.474C608.519 22.942 608.197 22.3727 607.983 21.766C607.777 21.1593 607.675 20.576 607.675 20.016V19.708C607.675 19.1013 607.782 18.49 607.997 17.874C608.211 17.258 608.538 16.698 608.977 16.194C609.415 15.6807 609.961 15.27 610.615 14.962C611.277 14.654 612.057 14.5 612.953 14.5C613.849 14.5 614.623 14.654 615.277 14.962C615.939 15.27 616.49 15.6807 616.929 16.194C617.367 16.698 617.694 17.258 617.909 17.874C618.123 18.49 618.231 19.1013 618.231 19.708V20.016C618.231 20.576 618.123 21.1593 617.909 21.766C617.703 22.3727 617.386 22.942 616.957 23.474C616.527 24.006 615.981 24.4353 615.319 24.762C614.656 25.0887 613.867 25.252 612.953 25.252ZM612.953 23.992C613.55 23.992 614.087 23.88 614.563 23.656C615.048 23.432 615.459 23.1287 615.795 22.746C616.131 22.354 616.387 21.9153 616.565 21.43C616.742 20.9353 616.831 20.4173 616.831 19.876C616.831 19.3067 616.742 18.7747 616.565 18.28C616.387 17.7853 616.131 17.3513 615.795 16.978C615.459 16.5953 615.048 16.2967 614.563 16.082C614.087 15.8673 613.55 15.76 612.953 15.76C612.355 15.76 611.814 15.8673 611.329 16.082C610.853 16.2967 610.447 16.5953 610.111 16.978C609.775 17.3513 609.518 17.7853 609.341 18.28C609.163 18.7747 609.075 19.3067 609.075 19.876C609.075 20.4173 609.163 20.9353 609.341 21.43C609.518 21.9153 609.775 22.354 610.111 22.746C610.447 23.1287 610.853 23.432 611.329 23.656C611.814 23.88 612.355 23.992 612.953 23.992ZM620.992 25V14.78H622.336V20.884H622C622 20.1467 622.093 19.512 622.28 18.98C622.476 18.4387 622.775 18.0233 623.176 17.734C623.577 17.4447 624.091 17.3 624.716 17.3H624.772C625.668 17.3 626.345 17.5987 626.802 18.196C627.259 18.784 627.488 19.6287 627.488 20.73V25H626.144V20.45C626.144 19.8433 625.971 19.372 625.626 19.036C625.29 18.7 624.851 18.532 624.31 18.532C623.713 18.532 623.232 18.7327 622.868 19.134C622.513 19.526 622.336 20.044 622.336 20.688V25H620.992ZM635.799 25L632.985 21.514H631.753L635.183 17.524H636.597L633.489 21.122L633.587 20.408L637.353 25H635.799ZM630.647 25V14.78H631.991V25H630.647ZM641.713 25.224C640.733 25.224 639.972 25.014 639.431 24.594C638.899 24.174 638.624 23.6 638.605 22.872H639.865C639.884 23.1613 640.028 23.4367 640.299 23.698C640.579 23.95 641.05 24.076 641.713 24.076C642.31 24.076 642.768 23.9593 643.085 23.726C643.402 23.4833 643.561 23.1893 643.561 22.844C643.561 22.536 643.444 22.298 643.211 22.13C642.978 21.9527 642.6 21.836 642.077 21.78L641.265 21.696C640.556 21.6213 639.977 21.4113 639.529 21.066C639.081 20.7113 638.857 20.2167 638.857 19.582C638.857 19.106 638.978 18.7 639.221 18.364C639.464 18.0187 639.8 17.7573 640.229 17.58C640.658 17.3933 641.153 17.3 641.713 17.3C642.553 17.3 643.234 17.4867 643.757 17.86C644.28 18.2333 644.55 18.7887 644.569 19.526H643.309C643.3 19.2273 643.16 18.9753 642.889 18.77C642.628 18.5553 642.236 18.448 641.713 18.448C641.19 18.448 640.794 18.5553 640.523 18.77C640.252 18.9847 640.117 19.2553 640.117 19.582C640.117 19.862 640.21 20.086 640.397 20.254C640.593 20.422 640.91 20.5293 641.349 20.576L642.161 20.66C642.964 20.744 643.608 20.968 644.093 21.332C644.578 21.6867 644.821 22.1907 644.821 22.844C644.821 23.3107 644.686 23.726 644.415 24.09C644.154 24.4447 643.79 24.7247 643.323 24.93C642.856 25.126 642.32 25.224 641.713 25.224ZM647.665 25V17.146C647.665 16.3153 647.884 15.704 648.323 15.312C648.762 14.92 649.406 14.724 650.255 14.724H651.179V15.844H650.031C649.686 15.844 649.42 15.942 649.233 16.138C649.046 16.3247 648.953 16.586 648.953 16.922V25H647.665ZM646.629 18.616V17.608H651.319V18.616H646.629ZM656.526 14.5C657.272 14.5 657.893 14.6307 658.388 14.892C658.892 15.1533 659.288 15.5127 659.578 15.97C659.876 16.418 660.086 16.936 660.208 17.524C660.338 18.112 660.404 18.728 660.404 19.372V20.044C660.404 21.6587 660.002 22.9047 659.2 23.782C658.397 24.65 657.235 25.084 655.714 25.084C655.35 25.084 655.042 25.0747 654.79 25.056C654.538 25.0373 654.262 25.0093 653.964 24.972V23.824C654.272 23.8613 654.556 23.8893 654.818 23.908C655.079 23.9267 655.396 23.936 655.77 23.936C656.619 23.936 657.291 23.7773 657.786 23.46C658.28 23.1427 658.635 22.69 658.85 22.102C659.064 21.5047 659.172 20.786 659.172 19.946V19.316L659.508 18.07C659.498 18.8073 659.354 19.4187 659.074 19.904C658.803 20.3893 658.425 20.7533 657.94 20.996C657.464 21.2387 656.913 21.36 656.288 21.36C655.56 21.36 654.944 21.2153 654.44 20.926C653.936 20.6273 653.553 20.2213 653.292 19.708C653.04 19.1947 652.914 18.6113 652.914 17.958C652.914 17.2953 653.049 16.7027 653.32 16.18C653.59 15.6573 653.992 15.2467 654.524 14.948C655.065 14.6493 655.732 14.5 656.526 14.5ZM656.526 15.676C656.012 15.676 655.583 15.774 655.238 15.97C654.892 16.166 654.631 16.4367 654.454 16.782C654.286 17.118 654.202 17.51 654.202 17.958C654.202 18.406 654.286 18.8027 654.454 19.148C654.622 19.4933 654.869 19.764 655.196 19.96C655.532 20.1467 655.942 20.24 656.428 20.24C656.904 20.24 657.328 20.1513 657.702 19.974C658.084 19.7967 658.383 19.54 658.598 19.204C658.812 18.8587 658.92 18.4387 658.92 17.944C658.92 17.5333 658.836 17.1553 658.668 16.81C658.5 16.4647 658.238 16.1893 657.884 15.984C657.529 15.7787 657.076 15.676 656.526 15.676ZM664.97 25V15.452L665.586 15.928H662.702V14.78H666.314V25H664.97ZM670.177 25V14.78H671.549V25H670.177ZM671.269 25V23.768H676.225V25H671.269ZM671.269 20.422V19.19H675.791V20.422H671.269ZM671.269 16.012V14.78H676.085V16.012H671.269ZM677.788 26.848V25.84H685.852V26.848H677.788ZM689.41 25V15.452L690.026 15.928H687.142V14.78H690.754V25H689.41ZM693.105 27.856V26.652H693.889C694.243 26.652 694.514 26.554 694.701 26.358C694.897 26.162 694.995 25.8913 694.995 25.546V17.524H696.283V25.35C696.283 25.9753 696.194 26.47 696.017 26.834C695.849 27.198 695.573 27.4593 695.191 27.618C694.817 27.7767 694.318 27.856 693.693 27.856H693.105ZM693.819 18.588V17.524H696.283V18.588H693.819ZM695.317 16.208C695.018 16.208 694.794 16.1287 694.645 15.97C694.505 15.8113 694.435 15.6107 694.435 15.368C694.435 15.1253 694.505 14.9247 694.645 14.766C694.794 14.6073 695.018 14.528 695.317 14.528C695.615 14.528 695.835 14.6073 695.975 14.766C696.124 14.9247 696.199 15.1253 696.199 15.368C696.199 15.6107 696.124 15.8113 695.975 15.97C695.835 16.1287 695.615 16.208 695.317 16.208ZM698.276 26.848V25.84H706.34V26.848H698.276ZM711.056 25.252C710.524 25.252 710.034 25.154 709.586 24.958C709.138 24.762 708.746 24.4867 708.41 24.132C708.083 23.7773 707.827 23.3667 707.64 22.9C707.463 22.4333 707.374 21.9293 707.374 21.388V21.136C707.374 20.604 707.463 20.1047 707.64 19.638C707.817 19.1713 708.065 18.7607 708.382 18.406C708.709 18.0513 709.091 17.776 709.53 17.58C709.978 17.3747 710.473 17.272 711.014 17.272C711.583 17.272 712.101 17.3933 712.568 17.636C713.035 17.8693 713.417 18.238 713.716 18.742C714.015 19.246 714.183 19.8993 714.22 20.702L713.66 19.806V14.78H715.004V25H713.94V21.682H714.332C714.295 22.5313 714.117 23.222 713.8 23.754C713.483 24.2767 713.081 24.6593 712.596 24.902C712.12 25.1353 711.607 25.252 711.056 25.252ZM711.238 24.076C711.695 24.076 712.111 23.9733 712.484 23.768C712.857 23.5627 713.156 23.2687 713.38 22.886C713.604 22.494 713.716 22.0367 713.716 21.514V20.87C713.716 20.3567 713.599 19.9227 713.366 19.568C713.142 19.204 712.839 18.9287 712.456 18.742C712.083 18.546 711.672 18.448 711.224 18.448C710.729 18.448 710.291 18.5647 709.908 18.798C709.535 19.0313 709.241 19.358 709.026 19.778C708.821 20.198 708.718 20.6927 708.718 21.262C708.718 21.8313 708.825 22.3307 709.04 22.76C709.255 23.18 709.553 23.5067 709.936 23.74C710.319 23.964 710.753 24.076 711.238 24.076ZM722.92 25.252C721.987 25.252 721.189 25.0887 720.526 24.762C719.873 24.4353 719.346 24.0107 718.944 23.488C718.543 22.9653 718.249 22.4007 718.062 21.794C717.876 21.178 717.782 20.5853 717.782 20.016V19.708C717.782 19.092 717.876 18.476 718.062 17.86C718.258 17.244 718.557 16.684 718.958 16.18C719.36 15.676 719.882 15.27 720.526 14.962C721.17 14.654 721.94 14.5 722.836 14.5C723.751 14.5 724.535 14.6587 725.188 14.976C725.842 15.2933 726.36 15.7367 726.742 16.306C727.125 16.8753 727.358 17.5473 727.442 18.322H726.042C725.968 17.7433 725.781 17.2673 725.482 16.894C725.184 16.5113 724.806 16.2267 724.348 16.04C723.9 15.8533 723.396 15.76 722.836 15.76C722.23 15.76 721.698 15.8673 721.24 16.082C720.783 16.2873 720.4 16.5813 720.092 16.964C719.794 17.3373 719.565 17.7713 719.406 18.266C719.257 18.7607 719.182 19.2973 719.182 19.876C719.182 20.4267 719.257 20.9493 719.406 21.444C719.565 21.9387 719.798 22.3773 720.106 22.76C720.424 23.1427 720.816 23.446 721.282 23.67C721.749 23.8847 722.295 23.992 722.92 23.992C723.798 23.992 724.535 23.7727 725.132 23.334C725.73 22.8953 726.094 22.2607 726.224 21.43H727.624C727.531 22.13 727.293 22.7693 726.91 23.348C726.537 23.9267 726.014 24.3887 725.342 24.734C724.68 25.0793 723.872 25.252 722.92 25.252ZM734.875 25.252C734.082 25.252 733.363 25.1213 732.719 24.86C732.075 24.5987 731.52 24.23 731.053 23.754C730.596 23.278 730.241 22.718 729.989 22.074C729.737 21.4207 729.611 20.7113 729.611 19.946V19.638C729.611 18.9847 729.723 18.3547 729.947 17.748C730.181 17.132 730.512 16.5813 730.941 16.096C731.38 15.6013 731.912 15.214 732.537 14.934C733.163 14.6447 733.867 14.5 734.651 14.5C735.501 14.5 736.257 14.6633 736.919 14.99C737.582 15.3073 738.114 15.7553 738.515 16.334C738.917 16.9033 739.15 17.566 739.215 18.322H737.815C737.75 17.7527 737.563 17.2813 737.255 16.908C736.947 16.5253 736.565 16.2407 736.107 16.054C735.659 15.858 735.174 15.76 734.651 15.76C734.119 15.76 733.629 15.858 733.181 16.054C732.733 16.2407 732.346 16.5113 732.019 16.866C731.702 17.2207 731.455 17.6453 731.277 18.14C731.1 18.6347 731.011 19.19 731.011 19.806C731.011 20.506 731.105 21.122 731.291 21.654C731.487 22.1767 731.758 22.6153 732.103 22.97C732.449 23.3153 732.855 23.5767 733.321 23.754C733.797 23.9313 734.315 24.02 734.875 24.02C735.669 24.02 736.364 23.8613 736.961 23.544C737.568 23.2173 738.025 22.7973 738.333 22.284L737.829 23.95V20.912H739.117V23.348C738.66 23.9453 738.072 24.412 737.353 24.748C736.635 25.084 735.809 25.252 734.875 25.252ZM734.511 21.192V20.044H739.985V21.192H734.511ZM742.646 25V14.78H744.466L747.49 21.598H747.714L750.724 14.78H752.558V25H751.186V16.278L751.284 16.306L748.386 22.886H746.706L743.794 16.306L743.906 16.278V25H742.646ZM755.609 25V23.32L761.909 15.942L761.895 16.278L761.531 15.774L761.769 15.928H755.735V14.78H763.071V16.46L756.757 23.838L756.743 23.446L757.191 24.076L756.841 23.852H763.253V25H755.609ZM765.469 25V23.32L771.769 15.942L771.755 16.278L771.391 15.774L771.629 15.928H765.595V14.78H772.931V16.46L766.617 23.838L766.603 23.446L767.051 24.076L766.701 23.852H773.113V25H765.469ZM775.722 25V17.524H776.786V20.73H776.618C776.618 19.9927 776.716 19.372 776.912 18.868C777.117 18.3547 777.425 17.9673 777.836 17.706C778.247 17.4353 778.765 17.3 779.39 17.3H779.446C780.389 17.3 781.084 17.594 781.532 18.182C781.989 18.77 782.218 19.6193 782.218 20.73V25H780.874V20.45C780.874 19.8713 780.711 19.4093 780.384 19.064C780.057 18.7093 779.609 18.532 779.04 18.532C778.452 18.532 777.976 18.714 777.612 19.078C777.248 19.442 777.066 19.9273 777.066 20.534V25H775.722ZM784.481 25L788.163 14.78H790.487L794.281 25H792.867L789.437 15.676L790.109 16.012H788.457L789.171 15.676L785.853 25H784.481ZM786.679 21.948L787.141 20.716H791.551L792.013 21.948H786.679ZM797.947 21.444V20.24H800.229C800.714 20.24 801.116 20.1467 801.433 19.96C801.75 19.764 801.988 19.5027 802.147 19.176C802.315 18.8493 802.399 18.4853 802.399 18.084C802.399 17.6733 802.315 17.3047 802.147 16.978C801.988 16.6513 801.75 16.3947 801.433 16.208C801.116 16.0213 800.714 15.928 800.229 15.928H797.947V14.724H799.977C800.817 14.724 801.517 14.8593 802.077 15.13C802.646 15.3913 803.076 15.7647 803.365 16.25C803.654 16.7353 803.799 17.3093 803.799 17.972V18.196C803.799 18.8493 803.654 19.4233 803.365 19.918C803.076 20.4033 802.646 20.7813 802.077 21.052C801.517 21.3133 800.817 21.444 799.977 21.444H797.947ZM796.855 25V14.724H798.227V25H796.855ZM805.552 25V23.32L811.852 15.942L811.838 16.278L811.474 15.774L811.712 15.928H805.678V14.78H813.014V16.46L806.7 23.838L806.686 23.446L807.134 24.076L806.784 23.852H813.196V25H805.552ZM815.805 25V17.524H816.869V20.73H816.701C816.701 19.9927 816.799 19.372 816.995 18.868C817.201 18.3547 817.509 17.9673 817.919 17.706C818.33 17.4353 818.848 17.3 819.473 17.3H819.529C820.472 17.3 821.167 17.594 821.615 18.182C822.073 18.77 822.301 19.6193 822.301 20.73V25H820.957V20.45C820.957 19.8713 820.794 19.4093 820.467 19.064C820.141 18.7093 819.693 18.532 819.123 18.532C818.535 18.532 818.059 18.714 817.695 19.078C817.331 19.442 817.149 19.9273 817.149 20.534V25H815.805ZM828.582 25.252C828.05 25.252 827.56 25.154 827.112 24.958C826.664 24.762 826.272 24.4867 825.936 24.132C825.61 23.7773 825.353 23.3667 825.166 22.9C824.989 22.4333 824.9 21.9293 824.9 21.388V21.136C824.9 20.604 824.989 20.1047 825.166 19.638C825.344 19.1713 825.591 18.7607 825.908 18.406C826.235 18.0513 826.618 17.776 827.056 17.58C827.504 17.3747 827.999 17.272 828.54 17.272C829.11 17.272 829.628 17.3933 830.094 17.636C830.561 17.8693 830.944 18.238 831.242 18.742C831.541 19.246 831.709 19.8993 831.746 20.702L831.186 19.806V14.78H832.53V25H831.466V21.682H831.858C831.821 22.5313 831.644 23.222 831.326 23.754C831.009 24.2767 830.608 24.6593 830.122 24.902C829.646 25.1353 829.133 25.252 828.582 25.252ZM828.764 24.076C829.222 24.076 829.637 23.9733 830.01 23.768C830.384 23.5627 830.682 23.2687 830.906 22.886C831.13 22.494 831.242 22.0367 831.242 21.514V20.87C831.242 20.3567 831.126 19.9227 830.892 19.568C830.668 19.204 830.365 18.9287 829.982 18.742C829.609 18.546 829.198 18.448 828.75 18.448C828.256 18.448 827.817 18.5647 827.434 18.798C827.061 19.0313 826.767 19.358 826.552 19.778C826.347 20.198 826.244 20.6927 826.244 21.262C826.244 21.8313 826.352 22.3307 826.566 22.76C826.781 23.18 827.08 23.5067 827.462 23.74C827.845 23.964 828.279 24.076 828.764 24.076ZM836.009 25V14.78H837.381V25H836.009ZM837.101 20.45V19.218L841.483 19.204V20.436L837.101 20.45ZM837.101 16.012V14.78H841.721V16.012H837.101ZM844.123 25V23.32C844.123 22.9093 844.179 22.5593 844.291 22.27C844.412 21.9807 844.617 21.7193 844.907 21.486C845.196 21.2433 845.588 21.01 846.083 20.786L848.001 19.904C848.467 19.6893 848.836 19.414 849.107 19.078C849.377 18.7327 849.513 18.2893 849.513 17.748C849.513 17.0947 849.331 16.586 848.967 16.222C848.603 15.858 848.089 15.676 847.427 15.676C846.773 15.676 846.26 15.858 845.887 16.222C845.513 16.586 845.327 17.0947 845.327 17.748H844.011C844.011 17.16 844.132 16.6187 844.375 16.124C844.627 15.6293 845.005 15.2373 845.509 14.948C846.013 14.6493 846.652 14.5 847.427 14.5C848.201 14.5 848.836 14.6493 849.331 14.948C849.835 15.2373 850.208 15.62 850.451 16.096C850.703 16.572 850.829 17.09 850.829 17.65V17.846C850.829 18.5833 850.614 19.204 850.185 19.708C849.765 20.212 849.195 20.6273 848.477 20.954L846.559 21.836C846.129 22.032 845.84 22.228 845.691 22.424C845.541 22.62 845.467 22.8813 845.467 23.208V24.496L845.103 23.852H850.955V25H844.123ZM854.989 25.056V23.796H857.537C858.153 23.796 858.699 23.698 859.175 23.502C859.66 23.2967 860.071 23.0167 860.407 22.662C860.752 22.3073 861.014 21.892 861.191 21.416C861.368 20.94 861.457 20.4267 861.457 19.876C861.457 19.2973 861.368 18.7747 861.191 18.308C861.014 17.832 860.752 17.4213 860.407 17.076C860.071 16.7213 859.66 16.4507 859.175 16.264C858.699 16.0773 858.153 15.984 857.537 15.984H854.989V14.724H857.397C858.321 14.724 859.124 14.8687 859.805 15.158C860.486 15.438 861.051 15.8207 861.499 16.306C861.956 16.782 862.297 17.3187 862.521 17.916C862.745 18.504 862.857 19.106 862.857 19.722V20.03C862.857 20.6273 862.745 21.2247 862.521 21.822C862.297 22.4193 861.956 22.9607 861.499 23.446C861.051 23.9313 860.486 24.3233 859.805 24.622C859.124 24.9113 858.321 25.056 857.397 25.056H854.989ZM853.897 25.056V14.724H855.269V25.056H853.897ZM867.317 21.024L864.069 14.78H865.497L868.241 20.128L867.709 19.974H869.361L868.801 20.128L871.377 14.78H872.721L869.669 21.024H867.317ZM867.821 25V20.744H869.165V25H867.821ZM876.931 25L878.443 17.776H880.263L882.027 25H880.879L879.115 17.804H879.563L878.037 25H876.931ZM876.245 25V23.936H877.799V25H876.245ZM875.937 25L873.823 17.524H875.111L877.169 25H875.937ZM881.159 25V23.936H882.713V25H881.159ZM881.789 25L883.581 17.524H884.799L882.965 25H881.789ZM890.115 25.252C889.452 25.252 888.85 25.112 888.309 24.832C887.767 24.552 887.338 24.1367 887.021 23.586C886.713 23.0353 886.559 22.3493 886.559 21.528V21.178H887.931V21.78C887.931 22.48 888.136 23.026 888.547 23.418C888.957 23.8007 889.48 23.992 890.115 23.992C890.749 23.992 891.272 23.8007 891.683 23.418C892.093 23.026 892.299 22.48 892.299 21.78V15.732H893.671V21.528C893.671 22.3493 893.512 23.0353 893.195 23.586C892.887 24.1367 892.462 24.552 891.921 24.832C891.389 25.112 890.787 25.252 890.115 25.252ZM887.903 16.012V14.78H893.671V16.012H887.903ZM897.166 25V14.78H898.538V25H897.166ZM898.258 25V23.768H902.934V25H898.258ZM904.221 25L908.029 19.54V19.792L904.557 14.78H906.111L908.785 18.7H909.009L911.725 14.78H913.209L909.639 19.848L909.625 19.596L913.489 25H911.935L908.883 20.702H908.659L905.705 25H904.221ZM915.817 25V14.78H917.161V25H915.817ZM914.781 15.844V14.78H917.161V15.844H914.781ZM922.889 25.224C921.909 25.224 921.148 25.014 920.607 24.594C920.075 24.174 919.799 23.6 919.781 22.872H921.041C921.059 23.1613 921.204 23.4367 921.475 23.698C921.755 23.95 922.226 24.076 922.889 24.076C923.486 24.076 923.943 23.9593 924.261 23.726C924.578 23.4833 924.737 23.1893 924.737 22.844C924.737 22.536 924.62 22.298 924.387 22.13C924.153 21.9527 923.775 21.836 923.253 21.78L922.441 21.696C921.731 21.6213 921.153 21.4113 920.705 21.066C920.257 20.7113 920.033 20.2167 920.033 19.582C920.033 19.106 920.154 18.7 920.397 18.364C920.639 18.0187 920.975 17.7573 921.405 17.58C921.834 17.3933 922.329 17.3 922.889 17.3C923.729 17.3 924.41 17.4867 924.933 17.86C925.455 18.2333 925.726 18.7887 925.745 19.526H924.485C924.475 19.2273 924.335 18.9753 924.065 18.77C923.803 18.5553 923.411 18.448 922.889 18.448C922.366 18.448 921.969 18.5553 921.699 18.77C921.428 18.9847 921.293 19.2553 921.293 19.582C921.293 19.862 921.386 20.086 921.573 20.254C921.769 20.422 922.086 20.5293 922.525 20.576L923.337 20.66C924.139 20.744 924.783 20.968 925.269 21.332C925.754 21.6867 925.997 22.1907 925.997 22.844C925.997 23.3107 925.861 23.726 925.591 24.09C925.329 24.4447 924.965 24.7247 924.499 24.93C924.032 25.126 923.495 25.224 922.889 25.224ZM930.186 25L927.638 17.524H929.038L931.53 25H930.186ZM930.522 25V23.936H932.146V25H930.522ZM931.166 25L933.336 17.524H934.652L932.44 25H931.166ZM938.398 25.056V23.852H941.254C941.805 23.852 942.23 23.698 942.528 23.39C942.836 23.0727 942.99 22.6527 942.99 22.13C942.99 21.598 942.841 21.1827 942.542 20.884C942.244 20.576 941.814 20.422 941.254 20.422H938.398V19.526H941.058C941.712 19.526 942.286 19.6053 942.78 19.764C943.284 19.9227 943.676 20.1887 943.956 20.562C944.246 20.926 944.39 21.4253 944.39 22.06V22.256C944.39 22.8533 944.269 23.362 944.026 23.782C943.784 24.1927 943.415 24.51 942.92 24.734C942.426 24.9487 941.805 25.056 941.058 25.056H938.398ZM937.306 25.056V14.724H938.678V25.056H937.306ZM938.398 20.17V19.274H940.876C941.455 19.274 941.88 19.12 942.15 18.812C942.43 18.4947 942.57 18.0933 942.57 17.608C942.57 17.1133 942.43 16.712 942.15 16.404C941.88 16.0867 941.455 15.928 940.876 15.928H938.398V14.724H940.638C941.758 14.724 942.594 14.962 943.144 15.438C943.695 15.9047 943.97 16.5813 943.97 17.468V17.664C943.97 18.2893 943.83 18.7887 943.55 19.162C943.27 19.526 942.878 19.7873 942.374 19.946C941.88 20.0953 941.301 20.17 940.638 20.17H938.398ZM947.522 25V14.78H949.342L952.366 21.598H952.59L955.6 14.78H957.434V25H956.062V16.278L956.16 16.306L953.262 22.886H951.582L948.67 16.306L948.782 16.278V25H947.522Z" fill="#6B5FA5"/>
<path d="M18.5438 58V47.78H21.8058L26.1038 56.348H26.5658L26.2858 56.6V47.78H28.1618V58H24.8858L20.5878 49.432H20.1118L20.3918 49.18V58H18.5438ZM34.6324 58.266C33.9791 58.266 33.4051 58.154 32.9104 57.93C32.4251 57.706 32.0191 57.4073 31.6924 57.034C31.3751 56.6513 31.1324 56.2267 30.9644 55.76C30.8057 55.2933 30.7264 54.8173 30.7264 54.332V54.066C30.7264 53.562 30.8057 53.0767 30.9644 52.61C31.1324 52.134 31.3751 51.714 31.6924 51.35C32.0191 50.9767 32.4204 50.6827 32.8964 50.468C33.3724 50.244 33.9231 50.132 34.5484 50.132C35.3697 50.132 36.0557 50.314 36.6064 50.678C37.1664 51.0327 37.5864 51.504 37.8664 52.092C38.1464 52.6707 38.2864 53.296 38.2864 53.968V54.668H31.5524V53.478H37.0684L36.4664 54.066C36.4664 53.5807 36.3964 53.1653 36.2564 52.82C36.1164 52.4747 35.9017 52.2087 35.6124 52.022C35.3324 51.8353 34.9777 51.742 34.5484 51.742C34.1191 51.742 33.7551 51.84 33.4564 52.036C33.1577 52.232 32.9291 52.5167 32.7704 52.89C32.6211 53.254 32.5464 53.6927 32.5464 54.206C32.5464 54.682 32.6211 55.1067 32.7704 55.48C32.9197 55.844 33.1484 56.1333 33.4564 56.348C33.7644 56.5533 34.1564 56.656 34.6324 56.656C35.1084 56.656 35.4957 56.5627 35.7944 56.376C36.0931 56.18 36.2844 55.942 36.3684 55.662H38.1604C38.0484 56.1847 37.8337 56.642 37.5164 57.034C37.1991 57.426 36.7931 57.7293 36.2984 57.944C35.8131 58.1587 35.2577 58.266 34.6324 58.266ZM43.9161 58.098C43.2161 58.098 42.6374 58.0093 42.1801 57.832C41.7321 57.6453 41.3961 57.3373 41.1721 56.908C40.9481 56.4693 40.8361 55.8813 40.8361 55.144L40.8501 48.256H42.6701L42.6561 55.27C42.6561 55.6433 42.7541 55.9327 42.9501 56.138C43.1554 56.334 43.4447 56.432 43.8181 56.432H45.0081V58.098H43.9161ZM39.6321 51.826V50.398H45.0081V51.826H39.6321ZM49.9454 58L51.3874 50.65H53.6274L55.2934 58H53.7534L52.0594 50.692H52.8714L51.3734 58H49.9454ZM49.3714 58L49.3574 56.404H50.9114V58H49.3714ZM48.5874 58L46.5154 50.398H48.4054L50.3794 58H48.5874ZM54.2434 58V56.404H55.7974L55.7834 58H54.2434ZM54.8594 58L56.6094 50.398H58.3734L56.5394 58H54.8594ZM64.0957 58.266C63.4237 58.266 62.8311 58.1587 62.3177 57.944C61.8044 57.7293 61.3704 57.44 61.0157 57.076C60.6611 56.7027 60.3904 56.2827 60.2037 55.816C60.0264 55.3493 59.9377 54.864 59.9377 54.36V54.066C59.9377 53.5433 60.0311 53.0487 60.2177 52.582C60.4137 52.106 60.6891 51.686 61.0437 51.322C61.4077 50.9487 61.8464 50.6593 62.3597 50.454C62.8731 50.2393 63.4517 50.132 64.0957 50.132C64.7397 50.132 65.3184 50.2393 65.8317 50.454C66.3451 50.6593 66.7791 50.9487 67.1337 51.322C67.4977 51.686 67.7731 52.106 67.9597 52.582C68.1464 53.0487 68.2397 53.5433 68.2397 54.066V54.36C68.2397 54.864 68.1464 55.3493 67.9597 55.816C67.7824 56.2827 67.5164 56.7027 67.1617 57.076C66.8071 57.44 66.3731 57.7293 65.8597 57.944C65.3464 58.1587 64.7584 58.266 64.0957 58.266ZM64.0957 56.6C64.5717 56.6 64.9731 56.4973 65.2997 56.292C65.6264 56.0773 65.8737 55.7927 66.0417 55.438C66.2097 55.074 66.2937 54.6633 66.2937 54.206C66.2937 53.7393 66.2051 53.3287 66.0277 52.974C65.8597 52.61 65.6077 52.3253 65.2717 52.12C64.9451 51.9053 64.5531 51.798 64.0957 51.798C63.6384 51.798 63.2417 51.9053 62.9057 52.12C62.5791 52.3253 62.3271 52.61 62.1497 52.974C61.9724 53.3287 61.8837 53.7393 61.8837 54.206C61.8837 54.6633 61.9677 55.074 62.1357 55.438C62.3131 55.7927 62.5651 56.0773 62.8917 56.292C63.2184 56.4973 63.6197 56.6 64.0957 56.6ZM70.6437 58V50.398H72.1837V53.618H72.1417C72.1417 52.526 72.375 51.7 72.8417 51.14C73.3084 50.58 73.9944 50.3 74.8997 50.3H75.1797V51.994H74.6477C73.9944 51.994 73.4857 52.1713 73.1217 52.526C72.767 52.8713 72.5897 53.3753 72.5897 54.038V58H70.6437ZM82.5016 58L79.9536 54.444H78.8196L82.0536 50.398H84.0836L81.1016 54.136L81.1436 53.156L84.6996 58H82.5016ZM77.1816 58V47.78H79.1276V58H77.1816Z" fill="#FFA54B"/>
<path d="M262.539 58L266.025 47.78H269.273L272.857 58H270.813L267.775 49.138L268.489 49.446H266.739L267.467 49.138L264.527 58H262.539ZM264.975 55.284L265.605 53.604H269.749L270.365 55.284H264.975ZM274.922 60.8V50.398H276.462V53.674L276.224 53.66C276.261 52.8853 276.42 52.2367 276.7 51.714C276.989 51.1913 277.372 50.804 277.848 50.552C278.324 50.2907 278.856 50.16 279.444 50.16C279.985 50.16 280.47 50.258 280.9 50.454C281.338 50.65 281.712 50.9253 282.02 51.28C282.337 51.6347 282.58 52.05 282.748 52.526C282.916 52.9927 283 53.4967 283 54.038V54.332C283 54.8827 282.916 55.396 282.748 55.872C282.589 56.3387 282.351 56.754 282.034 57.118C281.726 57.4727 281.352 57.7527 280.914 57.958C280.475 58.154 279.985 58.252 279.444 58.252C278.874 58.252 278.352 58.1353 277.876 57.902C277.409 57.6593 277.031 57.2907 276.742 56.796C276.452 56.292 276.289 55.6433 276.252 54.85L276.868 55.788V60.8H274.922ZM278.954 56.614C279.374 56.614 279.738 56.5113 280.046 56.306C280.363 56.1007 280.61 55.816 280.788 55.452C280.965 55.0787 281.054 54.6587 281.054 54.192C281.054 53.7067 280.965 53.2867 280.788 52.932C280.61 52.5773 280.363 52.302 280.046 52.106C279.738 51.9007 279.374 51.798 278.954 51.798C278.571 51.798 278.216 51.882 277.89 52.05C277.572 52.218 277.311 52.4653 277.106 52.792C276.91 53.1187 276.812 53.5107 276.812 53.968V54.528C276.812 54.9667 276.914 55.34 277.12 55.648C277.325 55.956 277.591 56.194 277.918 56.362C278.244 56.53 278.59 56.614 278.954 56.614ZM285.411 60.8V50.398H286.951V53.674L286.713 53.66C286.75 52.8853 286.909 52.2367 287.189 51.714C287.478 51.1913 287.861 50.804 288.337 50.552C288.813 50.2907 289.345 50.16 289.933 50.16C290.474 50.16 290.959 50.258 291.389 50.454C291.827 50.65 292.201 50.9253 292.509 51.28C292.826 51.6347 293.069 52.05 293.237 52.526C293.405 52.9927 293.489 53.4967 293.489 54.038V54.332C293.489 54.8827 293.405 55.396 293.237 55.872C293.078 56.3387 292.84 56.754 292.523 57.118C292.215 57.4727 291.841 57.7527 291.403 57.958C290.964 58.154 290.474 58.252 289.933 58.252C289.363 58.252 288.841 58.1353 288.365 57.902C287.898 57.6593 287.52 57.2907 287.231 56.796C286.941 56.292 286.778 55.6433 286.741 54.85L287.357 55.788V60.8H285.411ZM289.443 56.614C289.863 56.614 290.227 56.5113 290.535 56.306C290.852 56.1007 291.099 55.816 291.277 55.452C291.454 55.0787 291.543 54.6587 291.543 54.192C291.543 53.7067 291.454 53.2867 291.277 52.932C291.099 52.5773 290.852 52.302 290.535 52.106C290.227 51.9007 289.863 51.798 289.443 51.798C289.06 51.798 288.705 51.882 288.379 52.05C288.061 52.218 287.8 52.4653 287.595 52.792C287.399 53.1187 287.301 53.5107 287.301 53.968V54.528C287.301 54.9667 287.403 55.34 287.609 55.648C287.814 55.956 288.08 56.194 288.407 56.362C288.733 56.53 289.079 56.614 289.443 56.614ZM295.998 58V47.78H297.944V58H295.998ZM295.046 49.236V47.78H297.944V49.236H295.046ZM301.229 58V50.398H303.175V58H301.229ZM300.165 51.854V50.398H303.175V51.854H300.165ZM301.943 49.488C301.561 49.488 301.276 49.39 301.089 49.194C300.912 48.9887 300.823 48.7367 300.823 48.438C300.823 48.1207 300.912 47.864 301.089 47.668C301.276 47.472 301.561 47.374 301.943 47.374C302.326 47.374 302.606 47.472 302.783 47.668C302.961 47.864 303.049 48.1207 303.049 48.438C303.049 48.7367 302.961 48.9887 302.783 49.194C302.606 49.39 302.326 49.488 301.943 49.488ZM309.492 58.266C308.829 58.266 308.255 58.154 307.77 57.93C307.294 57.706 306.893 57.4073 306.566 57.034C306.249 56.6607 306.011 56.2407 305.852 55.774C305.693 55.3073 305.614 54.8313 305.614 54.346V54.08C305.614 53.5667 305.693 53.0767 305.852 52.61C306.02 52.134 306.267 51.714 306.594 51.35C306.921 50.9767 307.322 50.6827 307.798 50.468C308.283 50.244 308.843 50.132 309.478 50.132C310.141 50.132 310.733 50.2627 311.256 50.524C311.779 50.776 312.194 51.1307 312.502 51.588C312.819 52.0453 312.997 52.5773 313.034 53.184H311.144C311.097 52.792 310.929 52.4653 310.64 52.204C310.36 51.9427 309.973 51.812 309.478 51.812C309.049 51.812 308.689 51.9147 308.4 52.12C308.12 52.3253 307.91 52.61 307.77 52.974C307.63 53.3287 307.56 53.7393 307.56 54.206C307.56 54.654 307.625 55.06 307.756 55.424C307.896 55.788 308.106 56.0727 308.386 56.278C308.675 56.4833 309.044 56.586 309.492 56.586C309.828 56.586 310.117 56.5253 310.36 56.404C310.603 56.2827 310.794 56.1147 310.934 55.9C311.083 55.6853 311.177 55.4427 311.214 55.172H313.104C313.067 55.788 312.885 56.3293 312.558 56.796C312.241 57.2533 311.816 57.6127 311.284 57.874C310.761 58.1353 310.164 58.266 309.492 58.266ZM319.969 58V55.746H319.647V53.24C319.647 52.8013 319.54 52.4747 319.325 52.26C319.11 52.0453 318.779 51.938 318.331 51.938C318.098 51.938 317.818 51.9427 317.491 51.952C317.164 51.9613 316.833 51.9753 316.497 51.994C316.17 52.0033 315.876 52.0173 315.615 52.036V50.384C315.83 50.3653 316.072 50.3467 316.343 50.328C316.614 50.3093 316.889 50.3 317.169 50.3C317.458 50.2907 317.729 50.286 317.981 50.286C318.765 50.286 319.414 50.3887 319.927 50.594C320.45 50.7993 320.842 51.1213 321.103 51.56C321.374 51.9987 321.509 52.5727 321.509 53.282V58H319.969ZM317.519 58.196C316.968 58.196 316.483 58.098 316.063 57.902C315.652 57.706 315.33 57.426 315.097 57.062C314.873 56.698 314.761 56.2593 314.761 55.746C314.761 55.186 314.896 54.7287 315.167 54.374C315.447 54.0193 315.834 53.7533 316.329 53.576C316.833 53.3987 317.421 53.31 318.093 53.31H319.857V54.472H318.065C317.617 54.472 317.272 54.584 317.029 54.808C316.796 55.0227 316.679 55.3027 316.679 55.648C316.679 55.9933 316.796 56.2733 317.029 56.488C317.272 56.7027 317.617 56.81 318.065 56.81C318.336 56.81 318.583 56.7633 318.807 56.67C319.04 56.5673 319.232 56.3993 319.381 56.166C319.54 55.9233 319.628 55.5967 319.647 55.186L320.123 55.732C320.076 56.264 319.946 56.712 319.731 57.076C319.526 57.44 319.236 57.72 318.863 57.916C318.499 58.1027 318.051 58.196 317.519 58.196ZM327.598 58.098C326.898 58.098 326.319 58.0093 325.862 57.832C325.414 57.6453 325.078 57.3373 324.854 56.908C324.63 56.4693 324.518 55.8813 324.518 55.144L324.532 48.256H326.352L326.338 55.27C326.338 55.6433 326.436 55.9327 326.632 56.138C326.837 56.334 327.126 56.432 327.5 56.432H328.69V58.098H327.598ZM323.314 51.826V50.398H328.69V51.826H323.314ZM331.387 58V50.398H333.333V58H331.387ZM330.323 51.854V50.398H333.333V51.854H330.323ZM332.101 49.488C331.718 49.488 331.433 49.39 331.247 49.194C331.069 48.9887 330.981 48.7367 330.981 48.438C330.981 48.1207 331.069 47.864 331.247 47.668C331.433 47.472 331.718 47.374 332.101 47.374C332.483 47.374 332.763 47.472 332.941 47.668C333.118 47.864 333.207 48.1207 333.207 48.438C333.207 48.7367 333.118 48.9887 332.941 49.194C332.763 49.39 332.483 49.488 332.101 49.488ZM339.93 58.266C339.258 58.266 338.665 58.1587 338.152 57.944C337.638 57.7293 337.204 57.44 336.85 57.076C336.495 56.7027 336.224 56.2827 336.038 55.816C335.86 55.3493 335.772 54.864 335.772 54.36V54.066C335.772 53.5433 335.865 53.0487 336.052 52.582C336.248 52.106 336.523 51.686 336.878 51.322C337.242 50.9487 337.68 50.6593 338.194 50.454C338.707 50.2393 339.286 50.132 339.93 50.132C340.574 50.132 341.152 50.2393 341.666 50.454C342.179 50.6593 342.613 50.9487 342.968 51.322C343.332 51.686 343.607 52.106 343.794 52.582C343.98 53.0487 344.074 53.5433 344.074 54.066V54.36C344.074 54.864 343.98 55.3493 343.794 55.816C343.616 56.2827 343.35 56.7027 342.996 57.076C342.641 57.44 342.207 57.7293 341.694 57.944C341.18 58.1587 340.592 58.266 339.93 58.266ZM339.93 56.6C340.406 56.6 340.807 56.4973 341.134 56.292C341.46 56.0773 341.708 55.7927 341.876 55.438C342.044 55.074 342.128 54.6633 342.128 54.206C342.128 53.7393 342.039 53.3287 341.862 52.974C341.694 52.61 341.442 52.3253 341.106 52.12C340.779 51.9053 340.387 51.798 339.93 51.798C339.472 51.798 339.076 51.9053 338.74 52.12C338.413 52.3253 338.161 52.61 337.984 52.974C337.806 53.3287 337.718 53.7393 337.718 54.206C337.718 54.6633 337.802 55.074 337.97 55.438C338.147 55.7927 338.399 56.0773 338.726 56.292C339.052 56.4973 339.454 56.6 339.93 56.6ZM346.477 58V50.398H348.017V53.66H347.877C347.877 52.8853 347.98 52.2413 348.185 51.728C348.391 51.2053 348.694 50.8133 349.095 50.552C349.506 50.2907 350.015 50.16 350.621 50.16H350.705C351.611 50.16 352.297 50.454 352.763 51.042C353.23 51.6207 353.463 52.4887 353.463 53.646V58H351.517V53.478C351.517 53.0113 351.382 52.6333 351.111 52.344C350.85 52.0547 350.486 51.91 350.019 51.91C349.543 51.91 349.156 52.0593 348.857 52.358C348.568 52.6473 348.423 53.0393 348.423 53.534V58H346.477ZM366.753 58L363.015 53.226H361.573L366.011 47.78H368.293L364.289 52.68L364.233 51.7L369.175 58H366.753ZM360.131 58V47.78H362.119V58H360.131ZM374.046 58.266C373.393 58.266 372.819 58.154 372.324 57.93C371.839 57.706 371.433 57.4073 371.106 57.034C370.789 56.6513 370.546 56.2267 370.378 55.76C370.219 55.2933 370.14 54.8173 370.14 54.332V54.066C370.14 53.562 370.219 53.0767 370.378 52.61C370.546 52.134 370.789 51.714 371.106 51.35C371.433 50.9767 371.834 50.6827 372.31 50.468C372.786 50.244 373.337 50.132 373.962 50.132C374.783 50.132 375.469 50.314 376.02 50.678C376.58 51.0327 377 51.504 377.28 52.092C377.56 52.6707 377.7 53.296 377.7 53.968V54.668H370.966V53.478H376.482L375.88 54.066C375.88 53.5807 375.81 53.1653 375.67 52.82C375.53 52.4747 375.315 52.2087 375.026 52.022C374.746 51.8353 374.391 51.742 373.962 51.742C373.533 51.742 373.169 51.84 372.87 52.036C372.571 52.232 372.343 52.5167 372.184 52.89C372.035 53.254 371.96 53.6927 371.96 54.206C371.96 54.682 372.035 55.1067 372.184 55.48C372.333 55.844 372.562 56.1333 372.87 56.348C373.178 56.5533 373.57 56.656 374.046 56.656C374.522 56.656 374.909 56.5627 375.208 56.376C375.507 56.18 375.698 55.942 375.782 55.662H377.574C377.462 56.1847 377.247 56.642 376.93 57.034C376.613 57.426 376.207 57.7293 375.712 57.944C375.227 58.1587 374.671 58.266 374.046 58.266ZM379.733 60.996V59.33H381.161C381.432 59.33 381.656 59.2927 381.833 59.218C382.02 59.1527 382.174 59.0407 382.295 58.882C382.417 58.7327 382.51 58.5227 382.575 58.252L384.619 50.398H386.481L384.227 58.672C384.078 59.2413 383.868 59.694 383.597 60.03C383.327 60.3753 382.977 60.6227 382.547 60.772C382.127 60.9213 381.605 60.996 380.979 60.996H379.733ZM382.099 57.832V56.292H383.723V57.832H382.099ZM381.441 57.832L378.977 50.398H380.937L383.275 57.832H381.441Z" fill="#087980"/>
<path d="M725.155 58.266C724.231 58.266 723.438 58.1027 722.775 57.776C722.113 57.4493 721.571 57.0247 721.151 56.502C720.741 55.9793 720.437 55.41 720.241 54.794C720.045 54.178 719.947 53.5853 719.947 53.016V52.708C719.947 52.0733 720.045 51.448 720.241 50.832C720.447 50.216 720.759 49.656 721.179 49.152C721.599 48.648 722.131 48.2467 722.775 47.948C723.429 47.64 724.199 47.486 725.085 47.486C726.009 47.486 726.812 47.654 727.493 47.99C728.184 48.3167 728.735 48.7833 729.145 49.39C729.556 49.9873 729.803 50.6873 729.887 51.49H727.885C727.811 51.0233 727.643 50.6313 727.381 50.314C727.129 49.9873 726.807 49.7447 726.415 49.586C726.023 49.418 725.58 49.334 725.085 49.334C724.581 49.334 724.133 49.4227 723.741 49.6C723.349 49.768 723.023 50.0107 722.761 50.328C722.5 50.6453 722.299 51.0187 722.159 51.448C722.029 51.8773 721.963 52.3533 721.963 52.876C721.963 53.38 722.029 53.8467 722.159 54.276C722.299 54.7053 722.505 55.0833 722.775 55.41C723.046 55.7273 723.377 55.9747 723.769 56.152C724.171 56.3293 724.633 56.418 725.155 56.418C725.921 56.418 726.565 56.2313 727.087 55.858C727.619 55.4753 727.941 54.9433 728.053 54.262H730.055C729.962 54.99 729.715 55.6573 729.313 56.264C728.912 56.8707 728.361 57.356 727.661 57.72C726.961 58.084 726.126 58.266 725.155 58.266ZM735.933 58.266C735.261 58.266 734.668 58.1587 734.155 57.944C733.642 57.7293 733.208 57.44 732.853 57.076C732.498 56.7027 732.228 56.2827 732.041 55.816C731.864 55.3493 731.775 54.864 731.775 54.36V54.066C731.775 53.5433 731.868 53.0487 732.055 52.582C732.251 52.106 732.526 51.686 732.881 51.322C733.245 50.9487 733.684 50.6593 734.197 50.454C734.71 50.2393 735.289 50.132 735.933 50.132C736.577 50.132 737.156 50.2393 737.669 50.454C738.182 50.6593 738.616 50.9487 738.971 51.322C739.335 51.686 739.61 52.106 739.797 52.582C739.984 53.0487 740.077 53.5433 740.077 54.066V54.36C740.077 54.864 739.984 55.3493 739.797 55.816C739.62 56.2827 739.354 56.7027 738.999 57.076C738.644 57.44 738.21 57.7293 737.697 57.944C737.184 58.1587 736.596 58.266 735.933 58.266ZM735.933 56.6C736.409 56.6 736.81 56.4973 737.137 56.292C737.464 56.0773 737.711 55.7927 737.879 55.438C738.047 55.074 738.131 54.6633 738.131 54.206C738.131 53.7393 738.042 53.3287 737.865 52.974C737.697 52.61 737.445 52.3253 737.109 52.12C736.782 51.9053 736.39 51.798 735.933 51.798C735.476 51.798 735.079 51.9053 734.743 52.12C734.416 52.3253 734.164 52.61 733.987 52.974C733.81 53.3287 733.721 53.7393 733.721 54.206C733.721 54.6633 733.805 55.074 733.973 55.438C734.15 55.7927 734.402 56.0773 734.729 56.292C735.056 56.4973 735.457 56.6 735.933 56.6ZM742.481 58V50.398H744.021V53.66H743.881C743.881 52.8853 743.984 52.2413 744.189 51.728C744.394 51.2053 744.698 50.8133 745.099 50.552C745.51 50.2907 746.018 50.16 746.625 50.16H746.709C747.614 50.16 748.3 50.454 748.767 51.042C749.234 51.6207 749.467 52.4887 749.467 53.646V58H747.521V53.478C747.521 53.0113 747.386 52.6333 747.115 52.344C746.854 52.0547 746.49 51.91 746.023 51.91C745.547 51.91 745.16 52.0593 744.861 52.358C744.572 52.6473 744.427 53.0393 744.427 53.534V58H742.481ZM755.563 58.098C754.863 58.098 754.284 58.0093 753.827 57.832C753.379 57.6453 753.043 57.3373 752.819 56.908C752.595 56.4693 752.483 55.8813 752.483 55.144L752.497 48.256H754.317L754.303 55.27C754.303 55.6433 754.401 55.9327 754.597 56.138C754.802 56.334 755.092 56.432 755.465 56.432H756.655V58.098H755.563ZM751.279 51.826V50.398H756.655V51.826H751.279ZM762.349 58.266C761.696 58.266 761.122 58.154 760.627 57.93C760.142 57.706 759.736 57.4073 759.409 57.034C759.092 56.6513 758.849 56.2267 758.681 55.76C758.523 55.2933 758.443 54.8173 758.443 54.332V54.066C758.443 53.562 758.523 53.0767 758.681 52.61C758.849 52.134 759.092 51.714 759.409 51.35C759.736 50.9767 760.137 50.6827 760.613 50.468C761.089 50.244 761.64 50.132 762.265 50.132C763.087 50.132 763.773 50.314 764.323 50.678C764.883 51.0327 765.303 51.504 765.583 52.092C765.863 52.6707 766.003 53.296 766.003 53.968V54.668H759.269V53.478H764.785L764.183 54.066C764.183 53.5807 764.113 53.1653 763.973 52.82C763.833 52.4747 763.619 52.2087 763.329 52.022C763.049 51.8353 762.695 51.742 762.265 51.742C761.836 51.742 761.472 51.84 761.173 52.036C760.875 52.232 760.646 52.5167 760.487 52.89C760.338 53.254 760.263 53.6927 760.263 54.206C760.263 54.682 760.338 55.1067 760.487 55.48C760.637 55.844 760.865 56.1333 761.173 56.348C761.481 56.5533 761.873 56.656 762.349 56.656C762.825 56.656 763.213 56.5627 763.511 56.376C763.81 56.18 764.001 55.942 764.085 55.662H765.877C765.765 56.1847 765.551 56.642 765.233 57.034C764.916 57.426 764.51 57.7293 764.015 57.944C763.53 58.1587 762.975 58.266 762.349 58.266ZM768.329 58V50.398H769.869V53.66H769.729C769.729 52.8853 769.832 52.2413 770.037 51.728C770.242 51.2053 770.546 50.8133 770.947 50.552C771.358 50.2907 771.866 50.16 772.473 50.16H772.557C773.462 50.16 774.148 50.454 774.615 51.042C775.082 51.6207 775.315 52.4887 775.315 53.646V58H773.369V53.478C773.369 53.0113 773.234 52.6333 772.963 52.344C772.702 52.0547 772.338 51.91 771.871 51.91C771.395 51.91 771.008 52.0593 770.709 52.358C770.42 52.6473 770.275 53.0393 770.275 53.534V58H768.329ZM781.411 58.098C780.711 58.098 780.133 58.0093 779.675 57.832C779.227 57.6453 778.891 57.3373 778.667 56.908C778.443 56.4693 778.331 55.8813 778.331 55.144L778.345 48.256H780.165L780.151 55.27C780.151 55.6433 780.249 55.9327 780.445 56.138C780.651 56.334 780.94 56.432 781.313 56.432H782.503V58.098H781.411ZM777.127 51.826V50.398H782.503V51.826H777.127ZM788.74 58V47.78H790.728V58H788.74ZM795.686 58.056V56.208H797.8C798.332 56.208 798.804 56.1287 799.214 55.97C799.634 55.802 799.989 55.5687 800.278 55.27C800.568 54.9713 800.787 54.6213 800.936 54.22C801.095 53.8093 801.174 53.3567 801.174 52.862C801.174 52.3487 801.095 51.8913 800.936 51.49C800.787 51.0793 800.568 50.7293 800.278 50.44C799.989 50.1507 799.634 49.9313 799.214 49.782C798.804 49.6327 798.332 49.558 797.8 49.558H795.686V47.71H797.674C798.598 47.71 799.406 47.8453 800.096 48.116C800.787 48.3867 801.361 48.76 801.818 49.236C802.276 49.7027 802.616 50.2393 802.84 50.846C803.074 51.4433 803.19 52.064 803.19 52.708V53.016C803.19 53.632 803.074 54.2387 802.84 54.836C802.616 55.4333 802.276 55.9747 801.818 56.46C801.361 56.9453 800.787 57.3327 800.096 57.622C799.406 57.9113 798.598 58.056 797.674 58.056H795.686ZM793.978 58.056V47.71H795.966V58.056H793.978Z" fill="#6B5FA5"/>
<line x1="14" y1="36" x2="88" y2="36" stroke="#FFA54B" stroke-width="2"/>
<line x1="114" y1="36" x2="535" y2="36" stroke="#087980" stroke-width="2"/>
<line x1="560" y1="36" x2="963" y2="36" stroke="#6B5FA5" stroke-width="2"/>
</svg>
