<svg width="237" height="136" viewBox="0 0 237 136" fill="none" xmlns="http://www.w3.org/2000/svg">
<g opacity="0.3" filter="url(#filter0_d_140_6173)">
<rect x="4" y="55" width="229" height="72.0552" rx="16" fill="#5ED9D1"/>
</g>
<path d="M74.283 86.08V83.44H77.303C78.063 83.44 78.7363 83.3267 79.323 83.1C79.923 82.86 80.4296 82.5267 80.843 82.1C81.2563 81.6733 81.5696 81.1733 81.783 80.6C82.0096 80.0133 82.123 79.3667 82.123 78.66C82.123 77.9267 82.0096 77.2733 81.783 76.7C81.5696 76.1133 81.2563 75.6133 80.843 75.2C80.4296 74.7867 79.923 74.4733 79.323 74.26C78.7363 74.0467 78.063 73.94 77.303 73.94H74.283V71.3H77.123C78.443 71.3 79.5963 71.4933 80.583 71.88C81.5696 72.2667 82.3896 72.8 83.043 73.48C83.6963 74.1467 84.183 74.9133 84.503 75.78C84.8363 76.6333 85.003 77.52 85.003 78.44V78.88C85.003 79.76 84.8363 80.6267 84.503 81.48C84.183 82.3333 83.6963 83.1067 83.043 83.8C82.3896 84.4933 81.5696 85.0467 80.583 85.46C79.5963 85.8733 78.443 86.08 77.123 86.08H74.283ZM71.843 86.08V71.3H74.683V86.08H71.843ZM93.9061 86V82.78H93.4461V79.2C93.4461 78.5733 93.2928 78.1067 92.9861 77.8C92.6794 77.4933 92.2061 77.34 91.5661 77.34C91.2328 77.34 90.8328 77.3467 90.3661 77.36C89.8994 77.3733 89.4261 77.3933 88.9461 77.42C88.4794 77.4333 88.0594 77.4533 87.6861 77.48V75.12C87.9928 75.0933 88.3394 75.0667 88.7261 75.04C89.1128 75.0133 89.5061 75 89.9061 75C90.3194 74.9867 90.7061 74.98 91.0661 74.98C92.1861 74.98 93.1128 75.1267 93.8461 75.42C94.5928 75.7133 95.1528 76.1733 95.5261 76.8C95.9128 77.4267 96.1061 78.2467 96.1061 79.26V86H93.9061ZM90.4061 86.28C89.6194 86.28 88.9261 86.14 88.3261 85.86C87.7394 85.58 87.2794 85.18 86.9461 84.66C86.6261 84.14 86.4661 83.5133 86.4661 82.78C86.4661 81.98 86.6594 81.3267 87.0461 80.82C87.4461 80.3133 87.9994 79.9333 88.7061 79.68C89.4261 79.4267 90.2661 79.3 91.2261 79.3H93.7461V80.96H91.1861C90.5461 80.96 90.0528 81.12 89.7061 81.44C89.3728 81.7467 89.2061 82.1467 89.2061 82.64C89.2061 83.1333 89.3728 83.5333 89.7061 83.84C90.0528 84.1467 90.5461 84.3 91.1861 84.3C91.5728 84.3 91.9261 84.2333 92.2461 84.1C92.5794 83.9533 92.8528 83.7133 93.0661 83.38C93.2928 83.0333 93.4194 82.5667 93.4461 81.98L94.1261 82.76C94.0594 83.52 93.8728 84.16 93.5661 84.68C93.2728 85.2 92.8594 85.6 92.3261 85.88C91.8061 86.1467 91.1661 86.28 90.4061 86.28ZM103.804 86.14C102.804 86.14 101.977 86.0133 101.324 85.76C100.684 85.4933 100.204 85.0533 99.8839 84.44C99.5639 83.8133 99.4039 82.9733 99.4039 81.92L99.4239 72.08H102.024L102.004 82.1C102.004 82.6333 102.144 83.0467 102.424 83.34C102.717 83.62 103.131 83.76 103.664 83.76H105.364V86.14H103.804ZM97.6839 77.18V75.14H105.364V77.18H97.6839ZM114.238 86V82.78H113.778V79.2C113.778 78.5733 113.625 78.1067 113.318 77.8C113.011 77.4933 112.538 77.34 111.898 77.34C111.565 77.34 111.165 77.3467 110.698 77.36C110.231 77.3733 109.758 77.3933 109.278 77.42C108.811 77.4333 108.391 77.4533 108.018 77.48V75.12C108.325 75.0933 108.671 75.0667 109.058 75.04C109.445 75.0133 109.838 75 110.238 75C110.651 74.9867 111.038 74.98 111.398 74.98C112.518 74.98 113.445 75.1267 114.178 75.42C114.925 75.7133 115.485 76.1733 115.858 76.8C116.245 77.4267 116.438 78.2467 116.438 79.26V86H114.238ZM110.738 86.28C109.951 86.28 109.258 86.14 108.658 85.86C108.071 85.58 107.611 85.18 107.278 84.66C106.958 84.14 106.798 83.5133 106.798 82.78C106.798 81.98 106.991 81.3267 107.378 80.82C107.778 80.3133 108.331 79.9333 109.038 79.68C109.758 79.4267 110.598 79.3 111.558 79.3H114.078V80.96H111.518C110.878 80.96 110.385 81.12 110.038 81.44C109.705 81.7467 109.538 82.1467 109.538 82.64C109.538 83.1333 109.705 83.5333 110.038 83.84C110.385 84.1467 110.878 84.3 111.518 84.3C111.905 84.3 112.258 84.2333 112.578 84.1C112.911 83.9533 113.185 83.7133 113.398 83.38C113.625 83.0333 113.751 82.5667 113.778 81.98L114.458 82.76C114.391 83.52 114.205 84.16 113.898 84.68C113.605 85.2 113.191 85.6 112.658 85.88C112.138 86.1467 111.498 86.28 110.738 86.28ZM125.796 86.36C124.903 86.36 124.116 86.1733 123.436 85.8C122.756 85.4133 122.223 84.8533 121.836 84.12C121.449 83.3867 121.236 82.5 121.196 81.46H121.616V86H119.416V71.4H122.196V78.7L121.456 79.84C121.509 78.72 121.729 77.7867 122.116 77.04C122.516 76.2933 123.049 75.7333 123.716 75.36C124.383 74.9867 125.136 74.8 125.976 74.8C126.723 74.8 127.403 74.94 128.016 75.22C128.629 75.5 129.156 75.8933 129.596 76.4C130.036 76.8933 130.369 77.4733 130.596 78.14C130.836 78.8067 130.956 79.5333 130.956 80.32V80.74C130.956 81.5267 130.836 82.26 130.596 82.94C130.356 83.62 130.009 84.22 129.556 84.74C129.103 85.2467 128.556 85.6467 127.916 85.94C127.289 86.22 126.583 86.36 125.796 86.36ZM125.176 84.02C125.776 84.02 126.296 83.8733 126.736 83.58C127.189 83.2733 127.543 82.86 127.796 82.34C128.049 81.82 128.176 81.22 128.176 80.54C128.176 79.8467 128.049 79.2467 127.796 78.74C127.543 78.2333 127.189 77.84 126.736 77.56C126.296 77.28 125.776 77.14 125.176 77.14C124.629 77.14 124.123 77.26 123.656 77.5C123.203 77.74 122.829 78.0933 122.536 78.56C122.256 79.0267 122.116 79.5867 122.116 80.24V81.04C122.116 81.6667 122.263 82.2 122.556 82.64C122.849 83.08 123.229 83.42 123.696 83.66C124.163 83.9 124.656 84.02 125.176 84.02ZM139.98 86V82.78H139.52V79.2C139.52 78.5733 139.367 78.1067 139.06 77.8C138.754 77.4933 138.28 77.34 137.64 77.34C137.307 77.34 136.907 77.3467 136.44 77.36C135.974 77.3733 135.5 77.3933 135.02 77.42C134.554 77.4333 134.134 77.4533 133.76 77.48V75.12C134.067 75.0933 134.414 75.0667 134.8 75.04C135.187 75.0133 135.58 75 135.98 75C136.394 74.9867 136.78 74.98 137.14 74.98C138.26 74.98 139.187 75.1267 139.92 75.42C140.667 75.7133 141.227 76.1733 141.6 76.8C141.987 77.4267 142.18 78.2467 142.18 79.26V86H139.98ZM136.48 86.28C135.694 86.28 135 86.14 134.4 85.86C133.814 85.58 133.354 85.18 133.02 84.66C132.7 84.14 132.54 83.5133 132.54 82.78C132.54 81.98 132.734 81.3267 133.12 80.82C133.52 80.3133 134.074 79.9333 134.78 79.68C135.5 79.4267 136.34 79.3 137.3 79.3H139.82V80.96H137.26C136.62 80.96 136.127 81.12 135.78 81.44C135.447 81.7467 135.28 82.1467 135.28 82.64C135.28 83.1333 135.447 83.5333 135.78 83.84C136.127 84.1467 136.62 84.3 137.26 84.3C137.647 84.3 138 84.2333 138.32 84.1C138.654 83.9533 138.927 83.7133 139.14 83.38C139.367 83.0333 139.494 82.5667 139.52 81.98L140.2 82.76C140.134 83.52 139.947 84.16 139.64 84.68C139.347 85.2 138.934 85.6 138.4 85.88C137.88 86.1467 137.24 86.28 136.48 86.28ZM149.098 86.34C147.605 86.34 146.431 86.0267 145.578 85.4C144.738 84.76 144.298 83.88 144.258 82.76H146.758C146.798 83.1333 147.005 83.4733 147.378 83.78C147.751 84.0867 148.338 84.24 149.138 84.24C149.805 84.24 150.331 84.12 150.718 83.88C151.118 83.64 151.318 83.3133 151.318 82.9C151.318 82.54 151.165 82.2533 150.858 82.04C150.565 81.8267 150.058 81.6867 149.338 81.62L148.378 81.52C147.165 81.3867 146.231 81.04 145.578 80.48C144.925 79.92 144.598 79.1733 144.598 78.24C144.598 77.4933 144.785 76.8667 145.158 76.36C145.531 75.8533 146.045 75.4733 146.698 75.22C147.365 74.9533 148.125 74.82 148.978 74.82C150.311 74.82 151.391 75.1133 152.218 75.7C153.045 76.2867 153.478 77.1467 153.518 78.28H151.018C150.991 77.9067 150.805 77.5867 150.458 77.32C150.111 77.0533 149.611 76.92 148.958 76.92C148.371 76.92 147.918 77.0333 147.598 77.26C147.278 77.4867 147.118 77.78 147.118 78.14C147.118 78.4867 147.245 78.7533 147.498 78.94C147.765 79.1267 148.191 79.2533 148.778 79.32L149.738 79.42C151.018 79.5533 152.018 79.9067 152.738 80.48C153.471 81.0533 153.838 81.8267 153.838 82.8C153.838 83.52 153.638 84.1467 153.238 84.68C152.851 85.2 152.305 85.6067 151.598 85.9C150.891 86.1933 150.058 86.34 149.098 86.34ZM160.995 86.38C160.061 86.38 159.241 86.22 158.535 85.9C157.841 85.58 157.261 85.1533 156.795 84.62C156.341 84.0733 155.995 83.4667 155.755 82.8C155.528 82.1333 155.415 81.4533 155.415 80.76V80.38C155.415 79.66 155.528 78.9667 155.755 78.3C155.995 77.62 156.341 77.02 156.795 76.5C157.261 75.9667 157.835 75.5467 158.515 75.24C159.195 74.92 159.981 74.76 160.875 74.76C162.048 74.76 163.028 75.02 163.815 75.54C164.615 76.0467 165.215 76.72 165.615 77.56C166.015 78.3867 166.215 79.28 166.215 80.24V81.24H156.595V79.54H164.475L163.615 80.38C163.615 79.6867 163.515 79.0933 163.315 78.6C163.115 78.1067 162.808 77.7267 162.395 77.46C161.995 77.1933 161.488 77.06 160.875 77.06C160.261 77.06 159.741 77.2 159.315 77.48C158.888 77.76 158.561 78.1667 158.335 78.7C158.121 79.22 158.015 79.8467 158.015 80.58C158.015 81.26 158.121 81.8667 158.335 82.4C158.548 82.92 158.875 83.3333 159.315 83.64C159.755 83.9333 160.315 84.08 160.995 84.08C161.675 84.08 162.228 83.9467 162.655 83.68C163.081 83.4 163.355 83.06 163.475 82.66H166.035C165.875 83.4067 165.568 84.06 165.115 84.62C164.661 85.18 164.081 85.6133 163.375 85.92C162.681 86.2267 161.888 86.38 160.995 86.38ZM78.4929 110.38C77.1996 110.38 76.1062 110.173 75.2129 109.76C74.3329 109.347 73.6596 108.78 73.1929 108.06C72.7262 107.327 72.4929 106.5 72.4929 105.58H75.2729C75.2729 105.967 75.3796 106.347 75.5929 106.72C75.8062 107.08 76.1462 107.373 76.6129 107.6C77.0929 107.827 77.7196 107.94 78.4929 107.94C79.1862 107.94 79.7662 107.84 80.2329 107.64C80.6996 107.44 81.0462 107.18 81.2729 106.86C81.4996 106.527 81.6129 106.153 81.6129 105.74C81.6129 105.22 81.3929 104.807 80.9529 104.5C80.5129 104.18 79.8329 103.98 78.9129 103.9L77.6329 103.8C76.2329 103.68 75.1129 103.247 74.2729 102.5C73.4462 101.74 73.0329 100.74 73.0329 99.5C73.0329 98.5667 73.2529 97.7667 73.6929 97.1C74.1329 96.42 74.7462 95.9 75.5329 95.54C76.3329 95.1667 77.2662 94.98 78.3329 94.98C79.4396 94.98 80.3929 95.1733 81.1929 95.56C81.9929 95.9467 82.6129 96.4933 83.0529 97.2C83.4929 97.8933 83.7129 98.7133 83.7129 99.66H80.9329C80.9329 99.26 80.8329 98.8933 80.6329 98.56C80.4462 98.2133 80.1596 97.94 79.7729 97.74C79.3996 97.5267 78.9196 97.42 78.3329 97.42C77.7729 97.42 77.3062 97.5133 76.9329 97.7C76.5596 97.8867 76.2796 98.14 76.0929 98.46C75.9062 98.78 75.8129 99.1267 75.8129 99.5C75.8129 99.9533 75.9796 100.353 76.3129 100.7C76.6462 101.033 77.1729 101.227 77.8929 101.28L79.1729 101.4C80.2129 101.48 81.1262 101.7 81.9129 102.06C82.6996 102.42 83.3062 102.907 83.7329 103.52C84.1729 104.133 84.3929 104.873 84.3929 105.74C84.3929 106.66 84.1529 107.473 83.6729 108.18C83.1929 108.873 82.5062 109.413 81.6129 109.8C80.7329 110.187 79.6929 110.38 78.4929 110.38ZM86.7695 110V95.4H89.5495V103.92H89.0695C89.0695 102.827 89.2095 101.9 89.4895 101.14C89.7695 100.38 90.1828 99.8 90.7295 99.4C91.2895 99 91.9961 98.8 92.8495 98.8H92.9695C94.2095 98.8 95.1495 99.2267 95.7895 100.08C96.4295 100.933 96.7495 102.173 96.7495 103.8V110H93.9695V103.54C93.9695 102.847 93.7695 102.3 93.3695 101.9C92.9828 101.5 92.4695 101.3 91.8295 101.3C91.1495 101.3 90.5961 101.527 90.1695 101.98C89.7561 102.42 89.5495 103 89.5495 103.72V110H86.7695ZM106.318 110V106.78H105.858V103.2C105.858 102.573 105.705 102.107 105.398 101.8C105.092 101.493 104.618 101.34 103.978 101.34C103.645 101.34 103.245 101.347 102.778 101.36C102.312 101.373 101.838 101.393 101.358 101.42C100.892 101.433 100.472 101.453 100.098 101.48V99.12C100.405 99.0933 100.752 99.0667 101.138 99.04C101.525 99.0133 101.918 99 102.318 99C102.732 98.9867 103.118 98.98 103.478 98.98C104.598 98.98 105.525 99.1267 106.258 99.42C107.005 99.7133 107.565 100.173 107.938 100.8C108.325 101.427 108.518 102.247 108.518 103.26V110H106.318ZM102.818 110.28C102.032 110.28 101.338 110.14 100.738 109.86C100.152 109.58 99.6915 109.18 99.3582 108.66C99.0382 108.14 98.8782 107.513 98.8782 106.78C98.8782 105.98 99.0715 105.327 99.4582 104.82C99.8582 104.313 100.412 103.933 101.118 103.68C101.838 103.427 102.678 103.3 103.638 103.3H106.158V104.96H103.598C102.958 104.96 102.465 105.12 102.118 105.44C101.785 105.747 101.618 106.147 101.618 106.64C101.618 107.133 101.785 107.533 102.118 107.84C102.465 108.147 102.958 108.3 103.598 108.3C103.985 108.3 104.338 108.233 104.658 108.1C104.992 107.953 105.265 107.713 105.478 107.38C105.705 107.033 105.832 106.567 105.858 105.98L106.538 106.76C106.472 107.52 106.285 108.16 105.978 108.68C105.685 109.2 105.272 109.6 104.738 109.88C104.218 110.147 103.578 110.28 102.818 110.28ZM111.496 110V99.14H113.696V103.74H113.636C113.636 102.18 113.969 101 114.636 100.2C115.303 99.4 116.283 99 117.576 99H117.976V101.42H117.216C116.283 101.42 115.556 101.673 115.036 102.18C114.529 102.673 114.276 103.393 114.276 104.34V110H111.496ZM124.258 110.36C123.498 110.36 122.798 110.22 122.158 109.94C121.518 109.66 120.964 109.267 120.498 108.76C120.031 108.253 119.671 107.667 119.418 107C119.164 106.32 119.038 105.587 119.038 104.8V104.38C119.038 103.607 119.158 102.88 119.398 102.2C119.651 101.52 119.998 100.927 120.438 100.42C120.891 99.9133 121.431 99.52 122.058 99.24C122.698 98.9467 123.404 98.8 124.178 98.8C125.031 98.8 125.778 98.9867 126.418 99.36C127.071 99.72 127.591 100.267 127.978 101C128.364 101.733 128.578 102.653 128.618 103.76L127.798 102.8V95.4H130.578V110H128.378V105.38H128.858C128.818 106.487 128.591 107.413 128.178 108.16C127.764 108.893 127.218 109.447 126.538 109.82C125.871 110.18 125.111 110.36 124.258 110.36ZM124.878 108.02C125.424 108.02 125.924 107.9 126.378 107.66C126.831 107.407 127.191 107.047 127.458 106.58C127.738 106.1 127.878 105.54 127.878 104.9V104.1C127.878 103.46 127.738 102.927 127.458 102.5C127.178 102.06 126.811 101.727 126.358 101.5C125.904 101.26 125.411 101.14 124.878 101.14C124.278 101.14 123.744 101.287 123.278 101.58C122.824 101.86 122.464 102.26 122.198 102.78C121.944 103.3 121.818 103.907 121.818 104.6C121.818 105.293 121.951 105.9 122.218 106.42C122.484 106.927 122.844 107.32 123.298 107.6C123.764 107.88 124.291 108.02 124.878 108.02ZM134.262 110V99.14H137.042V110H134.262ZM132.742 101.22V99.14H137.042V101.22H132.742ZM135.282 97.84C134.735 97.84 134.329 97.7 134.062 97.42C133.809 97.1267 133.682 96.7667 133.682 96.34C133.682 95.8867 133.809 95.52 134.062 95.24C134.329 94.96 134.735 94.82 135.282 94.82C135.829 94.82 136.229 94.96 136.482 95.24C136.735 95.52 136.862 95.8867 136.862 96.34C136.862 96.7667 136.735 97.1267 136.482 97.42C136.229 97.7 135.829 97.84 135.282 97.84ZM140.246 110V99.14H142.446V103.8H142.246C142.246 102.693 142.393 101.773 142.686 101.04C142.979 100.293 143.413 99.7333 143.986 99.36C144.573 98.9867 145.299 98.8 146.166 98.8H146.286C147.579 98.8 148.559 99.22 149.226 100.06C149.893 100.887 150.226 102.127 150.226 103.78V110H147.446V103.54C147.446 102.873 147.253 102.333 146.866 101.92C146.493 101.507 145.973 101.3 145.306 101.3C144.626 101.3 144.073 101.513 143.646 101.94C143.233 102.353 143.026 102.913 143.026 103.62V110H140.246ZM157.455 114.28C156.935 114.28 156.401 114.26 155.855 114.22C155.321 114.18 154.821 114.127 154.355 114.06V111.74C154.835 111.793 155.348 111.84 155.895 111.88C156.441 111.933 156.955 111.96 157.435 111.96C158.328 111.96 159.048 111.853 159.595 111.64C160.155 111.427 160.561 111.087 160.815 110.62C161.081 110.167 161.215 109.587 161.215 108.88V106.74L161.815 105.38C161.775 106.38 161.568 107.233 161.195 107.94C160.821 108.633 160.315 109.167 159.675 109.54C159.035 109.9 158.295 110.08 157.455 110.08C156.708 110.08 156.028 109.94 155.415 109.66C154.815 109.38 154.295 108.993 153.855 108.5C153.428 108.007 153.095 107.427 152.855 106.76C152.615 106.093 152.495 105.38 152.495 104.62V104.2C152.495 103.44 152.615 102.733 152.855 102.08C153.108 101.413 153.461 100.833 153.915 100.34C154.368 99.8467 154.908 99.4667 155.535 99.2C156.161 98.9333 156.855 98.8 157.615 98.8C158.508 98.8 159.281 98.9933 159.935 99.38C160.601 99.7667 161.121 100.327 161.495 101.06C161.868 101.793 162.075 102.693 162.115 103.76L161.635 103.84V99.14H163.835V108.72C163.835 110.04 163.608 111.107 163.155 111.92C162.701 112.733 162.001 113.327 161.055 113.7C160.121 114.087 158.921 114.28 157.455 114.28ZM158.255 107.7C158.788 107.7 159.275 107.58 159.715 107.34C160.155 107.1 160.508 106.753 160.775 106.3C161.041 105.847 161.175 105.3 161.175 104.66V103.96C161.175 103.347 161.035 102.827 160.755 102.4C160.488 101.973 160.135 101.653 159.695 101.44C159.255 101.213 158.775 101.1 158.255 101.1C157.668 101.1 157.148 101.24 156.695 101.52C156.255 101.787 155.908 102.167 155.655 102.66C155.401 103.153 155.275 103.74 155.275 104.42C155.275 105.087 155.401 105.667 155.655 106.16C155.908 106.653 156.255 107.033 156.695 107.3C157.148 107.567 157.668 107.7 158.255 107.7Z" fill="#171753"/>
<path d="M100.48 51.7104L114.535 59.9751C116.85 61.2975 120.819 61.4628 123.134 60.1404L137.354 52.2063C138.511 51.5451 139.173 50.5534 139.173 49.7269V43.2804C139.173 43.2804 139.173 43.2804 139.008 43.2804L133.22 46.2557L128.094 36.5034C125.779 34.8504 113.378 33.8587 110.897 35.181L104.779 45.7598L98.8265 42.6192H98.6611V49.0657C98.6611 50.0575 99.3225 50.8839 100.48 51.7104ZM127.763 47.4128L124.622 49.0657V50.3881L112.055 49.5616V48.2392L110.236 47.2475L116.85 43.611C118.173 42.9498 120.323 42.9498 121.48 43.611L127.763 47.4128Z" fill="#5ED9D1"/>
<path d="M137.685 52.7022L123.465 60.6363C120.819 62.1239 116.685 61.9586 114.205 60.471L100.15 52.2063C98.6614 51.3798 98 50.388 98 49.0657V42.6192V42.1233L98.6614 41.7927L104.283 44.768L110.236 34.6851L110.402 34.5198C113.047 33.0322 125.78 34.1892 128.26 35.6769L128.425 35.8422L133.386 45.0986L138.677 42.4539L139.008 42.2886L139.669 42.7845V49.5616C139.669 50.2227 139.504 50.8839 139.008 51.5451C138.842 51.8757 138.346 52.3716 137.685 52.7022ZM133.551 46.5863L133.22 46.7516L132.724 46.5863L127.598 36.8339C125.118 35.6769 113.874 34.6851 111.394 35.6769L105.276 46.2557L104.614 46.421L99.4882 43.7763V49.231C99.4882 49.8922 99.9843 50.5533 100.811 51.0492L114.866 59.3139C117.016 60.6363 120.654 60.6363 122.803 59.4792L137.024 51.5451C138.016 51.0492 138.512 50.388 138.512 49.5616V44.1069L133.551 46.5863ZM125.283 49.5616C125.283 49.7269 125.283 49.7269 125.283 49.8922C125.283 50.8839 125.283 50.8839 124.953 51.0492L124.787 51.2145L111.89 50.388C111.228 50.2227 111.228 49.7269 111.228 48.9004V48.7351L108.583 47.4127L116.189 43.1151C117.677 42.2886 120.157 42.2886 121.646 43.1151L128.094 46.9169L128.425 47.2474V48.0739L125.283 49.5616ZM112.22 47.578C112.717 47.7433 112.717 48.0739 112.717 48.9004C112.717 48.9004 112.717 48.9004 112.717 49.0657L123.961 49.8922C123.961 48.9004 123.961 48.7351 124.291 48.5698L126.441 47.578L120.984 44.4374C119.827 43.7763 118.008 43.7763 117.016 44.4374L111.559 47.578H112.22Z" fill="#171753"/>
<path d="M114.866 32.2055L100.645 40.3049C98.3305 41.6273 98.1651 43.7761 100.645 45.2638L114.701 53.5285C117.016 54.8508 120.819 55.0161 123.299 53.6938L137.519 45.5944C139.834 44.272 140 42.1232 137.519 40.6355L123.464 32.3708C120.984 30.8832 117.181 30.8832 114.866 32.2055ZM116.685 36.9991C118.008 36.3379 119.992 36.3379 121.315 36.9991L129.086 41.6273C130.409 42.4538 130.409 43.6108 129.086 44.272L121.149 48.7349C119.827 49.3961 117.842 49.3961 116.519 48.7349L108.748 44.1067C107.59 43.4455 107.59 42.1232 108.913 41.462L116.685 36.9991Z" fill="#ECFFFE"/>
<path d="M137.685 46.2555L123.465 54.355C120.819 55.8426 116.85 55.8426 114.205 54.1897L100.15 45.925C98.8268 44.9332 98 43.9414 98 42.6191C98 41.462 98.8268 40.305 100.15 39.6438L114.535 31.5444C117.181 30.0567 121.15 30.0567 123.795 31.7097L137.85 39.9744C139.173 40.8008 140 41.9579 140 43.115C140 43.7761 139.835 44.4373 139.339 44.9332C138.842 45.4291 138.346 45.925 137.685 46.2555ZM122.968 32.8667C120.819 31.5444 117.181 31.5444 115.031 32.7014L100.976 40.8008C99.9842 41.2967 99.4882 41.9579 99.4882 42.7844C99.4882 43.4455 99.9842 44.1067 100.811 44.6026L114.866 52.8673C117.016 54.1897 120.654 54.1897 122.803 53.0326L137.024 44.9332C138.016 44.4373 138.512 43.7761 138.512 43.115C138.512 42.4538 138.016 41.7926 137.189 41.2967L122.968 32.8667ZM129.417 44.9332L121.48 49.3961C119.992 50.2226 117.677 50.2226 116.189 49.3961L108.417 44.7679C107.591 44.272 107.094 43.6108 107.26 42.7844C107.26 41.9579 107.756 41.2967 108.583 40.8008L116.52 36.3379C118.008 35.5114 120.323 35.5114 121.811 36.3379L129.583 40.9661C130.409 41.462 130.905 42.1232 130.905 42.9497C130.905 43.4455 130.74 43.7761 130.409 44.1067C130.079 44.6026 129.913 44.7679 129.417 44.9332ZM109.244 42.1232C108.748 42.2885 108.583 42.6191 108.583 42.7844C108.583 42.9497 108.748 43.2803 109.244 43.4455L117.016 48.0738C118.008 48.735 119.827 48.735 120.984 48.0738L128.756 43.7761C129.252 43.6108 129.417 43.2803 129.417 43.115C129.417 42.9497 129.252 42.6191 128.756 42.4538L120.984 37.8255C119.992 37.1644 118.173 37.1644 117.016 37.8255L109.244 42.1232Z" fill="#171753"/>
<path d="M118.199 54.6502L118.135 61.0967L119.458 61.1097L119.522 54.6632L118.199 54.6502Z" fill="#171753"/>
<path d="M118.319 36.4442L118.256 42.8906L119.579 42.9036L119.642 36.4572L118.319 36.4442Z" fill="#171753"/>
<path d="M135.328 46.2901L135.265 52.7366L136.587 52.7497L136.651 46.3032L135.328 46.2901Z" fill="#171753"/>
<path d="M102.453 46.5032L102.389 52.9497L103.712 52.9627L103.776 46.5163L102.453 46.5032Z" fill="#171753"/>
<path d="M130.079 43.6108C130.079 43.6108 126.772 45.7596 126.606 45.9249C126.441 46.0902 121.315 43.2802 121.315 43.2802L119.166 42.6191V36.5032L122.307 37.6602C122.307 37.6602 129.583 41.6273 129.583 41.7926C129.583 41.9579 130.079 43.6108 130.079 43.6108Z" fill="#171753"/>
<path d="M95.48 36.4862L109.535 44.7509C111.85 46.0732 115.819 46.2385 118.134 44.9162L132.354 36.9821C133.511 36.3209 134.173 35.3291 134.173 34.5026V28.0562C134.173 28.0562 134.173 28.0562 134.008 28.0562L128.22 31.0315L123.094 21.2791C120.779 19.6262 108.378 18.6344 105.897 19.9568L99.7792 30.5356L93.8265 27.395H93.6611V33.8415C93.6611 34.8332 94.3225 35.6597 95.48 36.4862ZM122.763 32.1885L119.622 33.8415V35.1638L107.055 34.3374V33.015L105.236 32.0232L111.85 28.3868C113.173 27.7256 115.323 27.7256 116.48 28.3868L122.763 32.1885Z" fill="#5ED9D1"/>
<path d="M132.685 37.4779L118.465 45.412C115.819 46.8997 111.685 46.7344 109.205 45.2467L95.1496 36.982C93.6614 36.1556 93 35.1638 93 33.8414V27.395V26.8991L93.6614 26.5685L99.2835 29.5438L105.236 19.4609L105.402 19.2956C108.047 17.8079 120.78 18.965 123.26 20.4526L123.425 20.6179L128.386 29.8744L133.677 27.2297L134.008 27.0644L134.669 27.5603V34.3373C134.669 34.9985 134.504 35.6597 134.008 36.3209C133.842 36.6514 133.346 37.1473 132.685 37.4779ZM128.551 31.362L128.22 31.5273L127.724 31.362L122.598 21.6097C120.118 20.4526 108.874 19.4609 106.394 20.4526L100.276 31.0314L99.6142 31.1967L94.4882 28.552V34.0067C94.4882 34.6679 94.9843 35.3291 95.811 35.825L109.866 44.0897C112.016 45.412 115.654 45.412 117.803 44.255L132.024 36.3209C133.016 35.825 133.512 35.1638 133.512 34.3373V28.8826L128.551 31.362ZM120.283 34.3373C120.283 34.5026 120.283 34.5026 120.283 34.6679C120.283 35.6597 120.283 35.6597 119.953 35.825L119.787 35.9903L106.89 35.1638C106.228 34.9985 106.228 34.5026 106.228 33.6761V33.5109L103.583 32.1885L111.189 27.8909C112.677 27.0644 115.157 27.0644 116.646 27.8909L123.094 31.6926L123.425 32.0232V32.8497L120.283 34.3373ZM107.22 32.3538C107.717 32.5191 107.717 32.8497 107.717 33.6761C107.717 33.6761 107.717 33.6761 107.717 33.8414L118.961 34.6679C118.961 33.6761 118.961 33.5109 119.291 33.3456L121.441 32.3538L115.984 29.2132C114.827 28.552 113.008 28.552 112.016 29.2132L106.559 32.3538H107.22Z" fill="#171753"/>
<path d="M109.866 16.9813L95.6454 25.0807C93.3305 26.4031 93.1651 28.5519 95.6454 30.0395L109.701 38.3042C112.016 39.6266 115.819 39.7919 118.299 38.4695L132.519 30.3701C134.834 29.0478 135 26.8989 132.519 25.4113L118.464 17.1466C115.984 15.6589 112.181 15.6589 109.866 16.9813ZM111.685 21.7748C113.008 21.1136 114.992 21.1136 116.315 21.7748L124.086 26.4031C125.409 27.2295 125.409 28.3866 124.086 29.0478L116.149 33.5107C114.827 34.1719 112.842 34.1719 111.519 33.5107L103.748 28.8825C102.59 28.2213 102.59 26.8989 103.913 26.2378L111.685 21.7748Z" fill="#ECFFFE"/>
<path d="M132.685 31.0313L118.465 39.1307C115.819 40.6184 111.85 40.6184 109.205 38.9654L95.1496 30.7007C93.8268 29.709 93 28.7172 93 27.3948C93 26.2378 93.8268 25.0807 95.1496 24.4195L109.535 16.3201C112.181 14.8325 116.15 14.8325 118.795 16.4854L132.85 24.7501C134.173 25.5766 135 26.7337 135 27.8907C135 28.5519 134.835 29.2131 134.339 29.709C133.842 30.2048 133.346 30.7007 132.685 31.0313ZM117.968 17.6425C115.819 16.3201 112.181 16.3201 110.031 17.4772L95.9764 25.5766C94.9842 26.0725 94.4882 26.7337 94.4882 27.5601C94.4882 28.2213 94.9842 28.8825 95.811 29.3784L109.866 37.6431C112.016 38.9654 115.654 38.9654 117.803 37.8084L132.024 29.709C133.016 29.2131 133.512 28.5519 133.512 27.8907C133.512 27.2295 133.016 26.5684 132.189 26.0725L117.968 17.6425ZM124.417 29.709L116.48 34.1719C114.992 34.9984 112.677 34.9984 111.189 34.1719L103.417 29.5437C102.591 29.0478 102.094 28.3866 102.26 27.5601C102.26 26.7337 102.756 26.0725 103.583 25.5766L111.52 21.1137C113.008 20.2872 115.323 20.2872 116.811 21.1137L124.583 25.7419C125.409 26.2378 125.905 26.899 125.905 27.7254C125.905 28.2213 125.74 28.5519 125.409 28.8825C125.079 29.3784 124.913 29.5437 124.417 29.709ZM104.244 26.899C103.748 27.0642 103.583 27.3948 103.583 27.5601C103.583 27.7254 103.748 28.056 104.244 28.2213L112.016 32.8495C113.008 33.5107 114.827 33.5107 115.984 32.8495L123.756 28.5519C124.252 28.3866 124.417 28.056 124.417 27.8907C124.417 27.7254 124.252 27.3948 123.756 27.2295L115.984 22.6013C114.992 21.9401 113.173 21.9401 112.016 22.6013L104.244 26.899Z" fill="#171753"/>
<path d="M113.199 39.426L113.135 45.8724L114.458 45.8855L114.522 39.439L113.199 39.426Z" fill="#171753"/>
<path d="M113.319 21.2199L113.256 27.6664L114.579 27.6794L114.642 21.2329L113.319 21.2199Z" fill="#171753"/>
<path d="M130.328 31.0659L130.265 37.5123L131.587 37.5254L131.651 31.079L130.328 31.0659Z" fill="#171753"/>
<path d="M97.4527 31.279L97.3892 37.7255L98.712 37.7385L98.7755 31.292L97.4527 31.279Z" fill="#171753"/>
<path d="M125.079 28.3866C125.079 28.3866 121.772 30.5354 121.606 30.7007C121.441 30.866 116.315 28.056 116.315 28.056L114.166 27.3948V21.2789L117.307 22.436C117.307 22.436 124.583 26.403 124.583 26.5683C124.583 26.7336 125.079 28.3866 125.079 28.3866Z" fill="#171753"/>
<path d="M100.48 21.2619L114.535 29.5266C116.85 30.849 120.819 31.0143 123.134 29.6919L137.354 21.7578C138.511 21.0966 139.173 20.1049 139.173 19.2784V12.8319C139.173 12.8319 139.173 12.8319 139.008 12.8319L133.22 15.8072L128.094 6.05488C125.779 4.40194 113.378 3.41017 110.897 4.73252L104.779 15.3113L98.8265 12.1708H98.6611V18.6172C98.6611 19.609 99.3225 20.4355 100.48 21.2619ZM127.763 16.9643L124.622 18.6172V19.9396L112.055 19.1131V17.7908L110.236 16.799L116.85 13.1625C118.173 12.5013 120.323 12.5013 121.48 13.1625L127.763 16.9643Z" fill="#5ED9D1"/>
<path d="M137.685 22.2537L123.465 30.1878C120.819 31.6754 116.685 31.5101 114.205 30.0225L100.15 21.7578C98.6614 20.9313 98 19.9395 98 18.6172V12.1707V11.6748L98.6614 11.3443L104.283 14.3195L110.236 4.23661L110.402 4.07132C113.047 2.58367 125.78 3.74073 128.26 5.22837L128.425 5.39367L133.386 14.6501L138.677 12.0054L139.008 11.8401L139.669 12.336V19.1131C139.669 19.7743 139.504 20.4354 139.008 21.0966C138.842 21.4272 138.346 21.9231 137.685 22.2537ZM133.551 16.1378L133.22 16.3031L132.724 16.1378L127.598 6.38543C125.118 5.22837 113.874 4.23661 111.394 5.22837L105.276 15.8072L104.614 15.9725L99.4882 13.3278V18.7825C99.4882 19.4437 99.9843 20.1048 100.811 20.6007L114.866 28.8654C117.016 30.1878 120.654 30.1878 122.803 29.0307L137.024 21.0966C138.016 20.6007 138.512 19.9395 138.512 19.1131V13.6584L133.551 16.1378ZM125.283 19.1131C125.283 19.2784 125.283 19.2784 125.283 19.4437C125.283 20.4354 125.283 20.4354 124.953 20.6007L124.787 20.766L111.89 19.9395C111.228 19.7743 111.228 19.2784 111.228 18.4519V18.2866L108.583 16.9643L116.189 12.6666C117.677 11.8401 120.157 11.8401 121.646 12.6666L128.094 16.4684L128.425 16.799V17.6254L125.283 19.1131ZM112.22 17.1296C112.717 17.2948 112.717 17.6254 112.717 18.4519C112.717 18.4519 112.717 18.4519 112.717 18.6172L123.961 19.4437C123.961 18.4519 123.961 18.2866 124.291 18.1213L126.441 17.1296L120.984 13.989C119.827 13.3278 118.008 13.3278 117.016 13.989L111.559 17.1296H112.22Z" fill="#171753"/>
<path d="M114.866 1.75705L100.645 9.85646C98.3305 11.1788 98.1651 13.3276 100.645 14.8153L114.701 23.08C117.016 24.4023 120.819 24.5676 123.299 23.2453L137.519 15.1459C139.834 13.8235 140 11.6747 137.519 10.187L123.464 1.92234C120.984 0.434696 117.181 0.434696 114.866 1.75705ZM116.685 6.55058C118.008 5.8894 119.992 5.8894 121.315 6.55058L129.086 11.1788C130.409 12.0053 130.409 13.1623 129.086 13.8235L121.149 18.2865C119.827 18.9476 117.842 18.9476 116.519 18.2865L108.748 13.6582C107.59 12.997 107.59 11.6747 108.913 11.0135L116.685 6.55058Z" fill="#ECFFFE"/>
<path d="M137.685 15.8071L123.465 23.9065C120.819 25.3941 116.85 25.3941 114.205 23.7412L100.15 15.4765C98.8268 14.4847 98 13.4929 98 12.1706C98 11.0135 98.8268 9.85647 100.15 9.1953L114.535 1.09589C117.181 -0.391757 121.15 -0.391757 123.795 1.26118L137.85 9.52589C139.173 10.3524 140 11.5094 140 12.6665C140 13.3276 139.835 13.9888 139.339 14.4847C138.842 14.9806 138.346 15.4765 137.685 15.8071ZM122.968 2.41824C120.819 1.09589 117.181 1.09589 115.031 2.25295L100.976 10.3524C99.9842 10.8482 99.4882 11.5094 99.4882 12.3359C99.4882 12.9971 99.9842 13.6582 100.811 14.1541L114.866 22.4188C117.016 23.7412 120.654 23.7412 122.803 22.5841L137.024 14.4847C138.016 13.9888 138.512 13.3276 138.512 12.6665C138.512 12.0053 138.016 11.3441 137.189 10.8482L122.968 2.41824ZM129.417 14.4847L121.48 18.9476C119.992 19.7741 117.677 19.7741 116.189 18.9476L108.417 14.3194C107.591 13.8235 107.094 13.1624 107.26 12.3359C107.26 11.5094 107.756 10.8482 108.583 10.3524L116.52 5.88942C118.008 5.06295 120.323 5.06295 121.811 5.88942L129.583 10.5177C130.409 11.0135 130.905 11.6747 130.905 12.5012C130.905 12.9971 130.74 13.3276 130.409 13.6582C130.079 14.1541 129.913 14.3194 129.417 14.4847ZM109.244 11.6747C108.748 11.84 108.583 12.1706 108.583 12.3359C108.583 12.5012 108.748 12.8318 109.244 12.9971L117.016 17.6253C118.008 18.2865 119.827 18.2865 120.984 17.6253L128.756 13.3276C129.252 13.1624 129.417 12.8318 129.417 12.6665C129.417 12.5012 129.252 12.1706 128.756 12.0053L120.984 7.37706C119.992 6.71589 118.173 6.71589 117.016 7.37706L109.244 11.6747Z" fill="#171753"/>
<path d="M118.199 24.2017L118.135 30.6482L119.458 30.6612L119.522 24.2147L118.199 24.2017Z" fill="#171753"/>
<path d="M118.319 5.99567L118.256 12.4421L119.579 12.4552L119.642 6.0087L118.319 5.99567Z" fill="#171753"/>
<path d="M135.328 15.8416L135.265 22.2881L136.587 22.3012L136.651 15.8547L135.328 15.8416Z" fill="#171753"/>
<path d="M102.453 16.0548L102.389 22.5012L103.712 22.5142L103.776 16.0678L102.453 16.0548Z" fill="#171753"/>
<path d="M130.079 13.1623C130.079 13.1623 126.772 15.3112 126.606 15.4764C126.441 15.6417 121.315 12.8317 121.315 12.8317L119.166 12.1706V6.05469L122.307 7.21175C122.307 7.21175 129.583 11.1788 129.583 11.3441C129.583 11.5094 130.079 13.1623 130.079 13.1623Z" fill="#171753"/>
<defs>
<filter id="filter0_d_140_6173" x="0" y="55" width="237" height="80.0552" filterUnits="userSpaceOnUse" color-interpolation-filters="sRGB">
<feFlood flood-opacity="0" result="BackgroundImageFix"/>
<feColorMatrix in="SourceAlpha" type="matrix" values="0 0 0 0 0 0 0 0 0 0 0 0 0 0 0 0 0 0 127 0" result="hardAlpha"/>
<feOffset dy="4"/>
<feGaussianBlur stdDeviation="2"/>
<feComposite in2="hardAlpha" operator="out"/>
<feColorMatrix type="matrix" values="0 0 0 0 0.0901961 0 0 0 0 0.0901961 0 0 0 0 0.32549 0 0 0 0.25 0"/>
<feBlend mode="normal" in2="BackgroundImageFix" result="effect1_dropShadow_140_6173"/>
<feBlend mode="normal" in="SourceGraphic" in2="effect1_dropShadow_140_6173" result="shape"/>
</filter>
</defs>
</svg>
