<svg width="237" height="136" viewBox="0 0 237 136" fill="none" xmlns="http://www.w3.org/2000/svg">
<g opacity="0.3" filter="url(#filter0_d_140_6184)">
<rect x="4" y="55" width="229" height="72.0552" rx="16" fill="#FFC78F"/>
</g>
<path d="M89.0988 98V83.4H91.9388V98H89.0988ZM91.5388 91.92V89.52L97.3788 89.5V91.9L91.5388 91.92ZM91.5388 85.8V83.4H97.6588V85.8H91.5388ZM100.454 98V87.14H103.234V98H100.454ZM98.9335 89.22V87.14H103.234V89.22H98.9335ZM101.474 85.84C100.927 85.84 100.52 85.7 100.254 85.42C100 85.1267 99.8735 84.7667 99.8735 84.34C99.8735 83.8867 100 83.52 100.254 83.24C100.52 82.96 100.927 82.82 101.474 82.82C102.02 82.82 102.42 82.96 102.674 83.24C102.927 83.52 103.054 83.8867 103.054 84.34C103.054 84.7667 102.927 85.1267 102.674 85.42C102.42 85.7 102.02 85.84 101.474 85.84ZM106.437 98V87.14H108.637V91.8H108.437C108.437 90.6933 108.584 89.7733 108.877 89.04C109.171 88.2933 109.604 87.7333 110.177 87.36C110.764 86.9867 111.491 86.8 112.357 86.8H112.477C113.771 86.8 114.751 87.22 115.417 88.06C116.084 88.8867 116.417 90.1267 116.417 91.78V98H113.637V91.54C113.637 90.8733 113.444 90.3333 113.057 89.92C112.684 89.5067 112.164 89.3 111.497 89.3C110.817 89.3 110.264 89.5133 109.837 89.94C109.424 90.3533 109.217 90.9133 109.217 91.62V98H106.437ZM119.406 98V87.14H121.606V91.8H121.406C121.406 90.6933 121.553 89.7733 121.846 89.04C122.14 88.2933 122.573 87.7333 123.146 87.36C123.733 86.9867 124.46 86.8 125.326 86.8H125.446C126.74 86.8 127.72 87.22 128.386 88.06C129.053 88.8867 129.386 90.1267 129.386 91.78V98H126.606V91.54C126.606 90.8733 126.413 90.3333 126.026 89.92C125.653 89.5067 125.133 89.3 124.466 89.3C123.786 89.3 123.233 89.5133 122.806 89.94C122.393 90.3533 122.186 90.9133 122.186 91.62V98H119.406ZM132.895 98V87.14H135.675V98H132.895ZM131.375 89.22V87.14H135.675V89.22H131.375ZM133.915 85.84C133.368 85.84 132.962 85.7 132.695 85.42C132.442 85.1267 132.315 84.7667 132.315 84.34C132.315 83.8867 132.442 83.52 132.695 83.24C132.962 82.96 133.368 82.82 133.915 82.82C134.462 82.82 134.862 82.96 135.115 83.24C135.368 83.52 135.495 83.8867 135.495 84.34C135.495 84.7667 135.368 85.1267 135.115 85.42C134.862 85.7 134.462 85.84 133.915 85.84ZM143.739 98.38C142.805 98.38 141.985 98.22 141.279 97.9C140.585 97.58 140.005 97.1533 139.539 96.62C139.085 96.0733 138.739 95.4667 138.499 94.8C138.272 94.1333 138.159 93.4533 138.159 92.76V92.38C138.159 91.66 138.272 90.9667 138.499 90.3C138.739 89.62 139.085 89.02 139.539 88.5C140.005 87.9667 140.579 87.5467 141.259 87.24C141.939 86.92 142.725 86.76 143.619 86.76C144.792 86.76 145.772 87.02 146.559 87.54C147.359 88.0467 147.959 88.72 148.359 89.56C148.759 90.3867 148.959 91.28 148.959 92.24V93.24H139.339V91.54H147.219L146.359 92.38C146.359 91.6867 146.259 91.0933 146.059 90.6C145.859 90.1067 145.552 89.7267 145.139 89.46C144.739 89.1933 144.232 89.06 143.619 89.06C143.005 89.06 142.485 89.2 142.059 89.48C141.632 89.76 141.305 90.1667 141.079 90.7C140.865 91.22 140.759 91.8467 140.759 92.58C140.759 93.26 140.865 93.8667 141.079 94.4C141.292 94.92 141.619 95.3333 142.059 95.64C142.499 95.9333 143.059 96.08 143.739 96.08C144.419 96.08 144.972 95.9467 145.399 95.68C145.825 95.4 146.099 95.06 146.219 94.66H148.779C148.619 95.4067 148.312 96.06 147.859 96.62C147.405 97.18 146.825 97.6133 146.119 97.92C145.425 98.2267 144.632 98.38 143.739 98.38Z" fill="#171753"/>
<path d="M137.552 31.8689C137.552 31.8689 139.234 32.1763 139.234 34.4447L139.234 39.5679L137.114 39.5679L137.552 31.8689Z" fill="#171753" stroke="#171753" stroke-width="0.11136" stroke-miterlimit="10"/>
<path d="M138.619 33.2749C138.424 33.0512 138.192 32.8634 137.933 32.7201L130.513 28.4307L131.047 27.5015L138.467 31.7944C138.836 31.9997 139.166 32.2689 139.442 32.5894L138.619 33.2749Z" fill="#171753"/>
<path d="M134.779 19.2904L107.131 3.3235C105.689 2.57749 104.055 2.28787 102.445 2.49318C101.604 2.57133 100.782 2.79614 100.018 3.15744C99.2126 3.5567 98.6684 4.07962 98.4918 4.63081C98.2586 5.3622 98.7355 6.15366 99.7637 6.75079L127.429 22.7177C128.172 23.1492 128.788 23.7678 129.216 24.5118C129.645 25.2558 129.87 26.0992 129.871 26.9577L129.871 49.5531L129.037 49.016L128.426 51.613L135.157 55.4996L135.337 55.6021C135.456 55.6696 135.59 55.7046 135.727 55.7037C135.864 55.7027 135.998 55.6659 136.116 55.5969C136.234 55.5278 136.332 55.429 136.4 55.3102C136.468 55.1914 136.503 55.0569 136.503 54.9202L136.503 22.2902C136.503 21.6831 136.343 21.0867 136.041 20.5603C135.738 20.034 135.303 19.5961 134.779 19.2904Z" fill="#171753" stroke="#171753" stroke-width="0.11136" stroke-miterlimit="10"/>
<path d="M132.902 54.6087L132.902 21.8763L102.611 5.37231L101.834 5.89171L130.213 54.0964L132.005 55.1281L132.902 54.6087Z" fill="#171753" stroke="#171753" stroke-width="0.311808" stroke-miterlimit="10"/>
<path d="M131.175 22.8732L131.175 55.6091L130.274 56.1285L100.813 39.1193L100.813 5.63428L131.175 22.8732Z" fill="#171753" stroke="#171753" stroke-width="0.11136" stroke-miterlimit="10"/>
<path d="M100.213 37.2531C100.619 37.0281 101.057 36.8671 101.513 36.7761C101.658 37.0023 101.795 37.2355 101.919 37.4828C101.635 37.5391 101.36 37.6392 101.106 37.7796C100.629 38.0587 100.4 38.4403 100.456 38.8396C100.5 39.0088 100.58 39.1665 100.69 39.3019C100.8 39.4374 100.939 39.5472 101.096 39.624L129.998 56.3082L129.101 56.8276L100.198 40.1434C99.952 40.0244 99.7346 39.853 99.5612 39.6412C99.3879 39.4295 99.2629 39.1824 99.195 38.9173C99.0925 38.2848 99.4635 37.6877 100.213 37.2531Z" fill="#FFA54B" stroke="#171753" stroke-width="0.11136" stroke-miterlimit="10"/>
<path d="M130.001 56.2875L129.1 56.8069L99.1802 38.5858L99.1802 5.63428L101.774 7.76839" stroke="#171753" stroke-width="0.311808" stroke-miterlimit="10"/>
<path d="M129.998 23.5513L129.1 24.0707L100.212 7.36879C99.9656 7.24978 99.7482 7.07841 99.5748 6.86664C99.4015 6.65488 99.2766 6.40782 99.2087 6.14273C99.1062 5.53501 99.4771 4.93788 100.226 4.50682C101.094 4.04837 102.074 3.84387 103.053 3.91676C103.794 3.94632 104.519 4.14448 105.173 4.49622L134.075 21.184L133.174 21.7033L129.998 23.5513Z" fill="white" stroke="#171753" stroke-width="0.311808" stroke-miterlimit="10"/>
<path d="M137.937 22.2865L137.937 54.2521C137.937 54.9164 137.584 55.1637 137.012 55.4923C136.733 55.6567 136.415 55.7434 136.091 55.7434C135.768 55.7434 135.45 55.6567 135.171 55.4923L132.111 53.869L132.104 52.226L135.888 54.2627C135.95 54.3016 136.022 54.3223 136.095 54.3223C136.168 54.3223 136.24 54.3016 136.302 54.2627C136.365 54.2273 136.417 54.176 136.454 54.1141C136.491 54.0522 136.512 53.9816 136.514 53.9094L136.514 22.2865C136.513 21.6801 136.352 21.0846 136.049 20.5594C135.746 20.0343 135.31 19.5979 134.786 19.2937L107.131 3.32327C105.689 2.57975 104.055 2.29145 102.446 2.49648C101.602 2.56847 100.778 2.79355 100.015 3.16073L100.001 3.16073C99.185 3.57349 98.6575 4.08095 98.4813 4.63057C98.2481 5.36196 98.7251 6.15342 99.7533 6.75055L127.419 22.7175C128.161 23.1486 128.777 23.7667 129.205 24.51C129.633 25.2533 129.859 26.096 129.86 26.9539L129.86 58.5486C129.86 59.6419 129.582 59.7949 129.102 60.0582C129.049 60.0868 128.995 60.1167 128.938 60.1492C128.657 60.3134 128.338 60.4 128.013 60.4C127.687 60.4 127.368 60.3134 127.087 60.1492L113.738 51.5432C113.809 51.0309 113.869 51.4149 113.925 50.899L127.804 58.9125C127.867 58.9516 127.94 58.9724 128.014 58.9724C128.089 58.9724 128.161 58.9516 128.225 58.9125C128.287 58.8774 128.34 58.8262 128.377 58.7641C128.413 58.702 128.433 58.6313 128.433 58.5592L128.433 26.9539C128.433 26.3464 128.273 25.7497 127.969 25.2237C127.665 24.6978 127.228 24.2611 126.702 23.9577L99.0431 7.98367C98.5328 7.70016 98.0798 7.3239 97.7075 6.87421C97.3888 6.51528 97.1678 6.08039 97.0657 5.61136C96.9636 5.14233 96.9838 4.65492 97.1245 4.19598C97.4226 3.26655 98.1908 2.47289 99.3494 1.8945L99.3575 1.88168C100.274 1.44884 101.257 1.17408 102.265 1.06903C104.184 0.836666 106.127 1.19407 107.837 2.09368L135.507 18.0642C136.244 18.4962 136.855 19.1128 137.282 19.8532C137.708 20.5935 137.934 21.4322 137.937 22.2865Z" fill="#FFA54B" stroke="#171753" stroke-width="0.5" stroke-miterlimit="10"/>
<path d="M134.075 53.9342L129.999 56.3403L129.999 25.8726L129.099 23.946L134.075 21.1982L134.075 53.9342Z" fill="#FFC78F" stroke="#171753" stroke-width="0.311808" stroke-miterlimit="10"/>
<path d="M126.701 23.9577L99.0423 7.98369C98.8118 7.85145 98.5921 7.70141 98.385 7.53495C98.2826 7.45369 98.1871 7.36889 98.0953 7.28409L98.0175 7.21342C97.907 7.1019 97.8032 6.98392 97.7067 6.86009C97.2939 6.37775 97.0463 5.77604 97 5.14292L97 5.12524L97 41.0942C97.0495 42.1789 97.7738 43.2141 99.0423 43.9561L127.107 60.1563C128.058 60.6757 128.432 60.0079 128.432 59.3259L128.432 26.9539C128.432 26.3465 128.272 25.7497 127.968 25.2237C127.664 24.6978 127.227 24.2611 126.701 23.9577Z" fill="#FFC78F" stroke="#171753" stroke-miterlimit="10"/>
<path d="M122.691 39.1009C122.691 46.392 117.572 49.3473 111.258 45.7018C104.944 42.0562 99.8251 33.1903 99.8251 25.8992C99.8251 18.6081 104.944 15.6528 111.258 19.2984C117.572 22.9439 122.691 31.8098 122.691 39.1009Z" fill="#FFA54B" stroke="#171753"/>
<path d="M119.619 39.7577C119.64 39.5401 119.649 39.313 119.651 39.0795C119.651 34.9596 116.837 28.6591 113.131 26.5149C112.873 26.3659 112.605 26.2354 112.329 26.1242C111.863 25.5223 111.411 24.8949 110.962 24.293C110.789 24.0532 110.564 23.7037 110.339 23.5735C109.927 23.3353 109.561 23.672 109.799 24.2406C109.731 24.1598 109.651 24.0911 109.561 24.0373C109.136 23.7895 108.8 24.2231 109.136 24.8584C109.085 24.7956 109.024 24.7419 108.955 24.6996C108.684 24.5407 108.465 24.7552 108.494 25.0839C108.523 25.4127 108.786 25.913 108.97 26.283C108.083 26.8294 107.437 27.7553 106.896 28.7623C106.408 29.6787 105.988 30.6539 105.55 31.6211C105.324 32.1135 104.916 33.5 104.168 33.0696C104.023 32.9787 103.896 32.8619 103.794 32.7249C103.033 31.772 102.638 30.1361 102.535 29.1371C102.486 28.5892 102.47 27.8665 102.817 27.6616C103.033 27.5457 103.35 27.6426 103.699 27.8427C104.59 28.3589 105.676 29.5596 105.714 29.5898C105.132 28.8052 103.803 27.0581 102.825 26.4927C102.321 26.2005 101.911 26.2243 101.744 26.8548C101.682 27.1149 101.652 27.3815 101.654 27.6489C101.68 28.5452 101.832 29.4334 102.106 30.287C102.423 31.3464 102.863 32.5105 103.572 33.4349C103.76 33.699 103.997 33.9248 104.269 34.1004C105.379 34.7357 105.926 32.8695 106.338 32.1167C107.053 30.7714 107.838 29.4452 108.97 28.6606C109.393 28.3642 109.884 28.1797 110.397 28.1241C110.91 28.0686 111.429 28.1439 111.905 28.343C112.135 28.4294 112.357 28.5356 112.568 28.6606C112.876 28.8405 113.165 29.0507 113.432 29.288C114.851 30.53 116.097 32.5296 116.856 34.3894C117.58 36.1667 118.061 38.2441 117.847 39.7196C117.76 40.4089 117.53 41.0966 116.94 41.149C116.599 41.1966 116.189 41.0457 115.776 40.8075C115.404 40.5836 115.051 40.3286 114.721 40.0451C113.864 39.2867 113.054 38.4773 112.294 37.6215C111.533 36.8004 108.418 33.1585 107.638 32.1484C109.004 34.1178 110.353 36.0984 111.842 37.9391C111.721 38.0224 111.611 38.1194 111.512 38.2282C111.401 38.3537 111.512 38.7047 111.682 38.8095C111.703 38.8224 111.727 38.8306 111.751 38.8336C111.776 38.8367 111.801 38.8344 111.825 38.827C111.783 38.9458 111.782 39.0752 111.823 39.1945C111.863 39.3137 111.943 39.4158 112.048 39.4845C112.07 39.4976 112.093 39.5083 112.118 39.5163C112.007 39.6894 112.178 40.0261 112.375 40.1389C112.421 40.1697 112.478 40.1827 112.533 40.1754L113.594 39.9308C114.283 40.6667 115.066 41.3076 115.924 41.8367C116.529 42.1877 117.13 42.4005 117.685 42.3926C118.623 42.356 119.197 41.6493 119.462 40.663C119.544 40.3659 119.597 40.0617 119.621 39.7545L119.619 39.7577ZM113.976 33.878C113.994 34.2023 114.089 34.5177 114.251 34.799C114.413 35.0803 114.638 35.3197 114.909 35.498C115.429 35.7982 115.846 35.56 115.848 34.9612C115.832 34.6365 115.739 34.3203 115.577 34.0386C115.415 33.757 115.188 33.5179 114.916 33.3412C114.394 33.041 113.977 33.2792 113.976 33.878Z" fill="#171753"/>
<path d="M139.454 34.5688L138.929 35.7719C138.791 35.8731 138.649 35.9672 138.502 36.0536L133.509 38.964C131.686 40.034 128.817 40.034 126.979 38.964L125.374 38.2212L124.617 37.7718C124.352 37.6149 124.045 37.565 123.854 37.9038C123.854 37.9216 123.833 37.9502 123.822 37.9716C123.8 38.0263 123.782 38.0823 123.766 38.1392C123.721 38.2798 123.697 38.4265 123.695 38.5743L123.695 38.8133L123.695 45.2333C123.696 45.7648 123.835 46.2869 124.098 46.7474C124.36 47.208 124.738 47.591 125.193 47.8583L126.979 48.7117C127.988 49.2572 129.118 49.5334 130.262 49.5142C131.394 49.5343 132.511 49.2617 133.509 48.7224L138.502 45.812C138.873 45.6273 139.198 45.361 139.454 45.0326C139.709 44.7042 139.889 44.3222 139.978 43.9146C139.993 43.8105 140 43.7057 140 43.6007L140 33.9707L139.454 34.5688Z" fill="#171753"/>
<path d="M139.965 34.3419C139.979 34.2589 139.987 34.1751 139.99 34.091C140.004 33.5392 139.808 33.0025 139.442 32.5894L138.619 33.2713C138.729 33.3882 138.811 33.5282 138.86 33.681C138.909 33.8338 138.923 33.9956 138.901 34.1546C138.83 34.3947 138.708 34.6168 138.544 34.8063C138.38 34.9957 138.178 35.1481 137.951 35.2534L132.958 38.1331C131.489 38.9952 129.5 39.0001 127.503 38.1331L125.793 37.5195C125.569 37.3878 125.314 37.3183 125.055 37.3183C124.795 37.3183 124.54 37.3878 124.316 37.5195C124.066 37.6596 123.863 37.8729 123.737 38.1308C123.928 37.7951 124.235 37.8446 124.5 38.0001L126.973 39.0623C129.5 40.0001 131.679 40.1223 133.502 39.0623L138.495 36.1792C138.642 36.0935 138.785 36.0004 138.923 35.9C139.452 35.5288 139.824 34.9731 139.965 34.3419Z" fill="#FFA54B"/>
<defs>
<filter id="filter0_d_140_6184" x="0" y="55" width="237" height="80.0552" filterUnits="userSpaceOnUse" color-interpolation-filters="sRGB">
<feFlood flood-opacity="0" result="BackgroundImageFix"/>
<feColorMatrix in="SourceAlpha" type="matrix" values="0 0 0 0 0 0 0 0 0 0 0 0 0 0 0 0 0 0 127 0" result="hardAlpha"/>
<feOffset dy="4"/>
<feGaussianBlur stdDeviation="2"/>
<feComposite in2="hardAlpha" operator="out"/>
<feColorMatrix type="matrix" values="0 0 0 0 0.0901961 0 0 0 0 0.0901961 0 0 0 0 0.32549 0 0 0 0.25 0"/>
<feBlend mode="normal" in2="BackgroundImageFix" result="effect1_dropShadow_140_6184"/>
<feBlend mode="normal" in="SourceGraphic" in2="effect1_dropShadow_140_6184" result="shape"/>
</filter>
</defs>
</svg>
