<svg width="237" height="135" viewBox="0 0 237 135" fill="none" xmlns="http://www.w3.org/2000/svg">
<g opacity="0.3" filter="url(#filter0_d_140_6181)">
<rect x="4" y="54" width="229" height="72.0552" rx="16" fill="#8989C7"/>
</g>
<path d="M86.4555 85.38C85.2021 85.38 84.0955 85.1733 83.1355 84.76C82.1888 84.3333 81.3888 83.7667 80.7355 83.06C80.0955 82.34 79.6088 81.5333 79.2755 80.64C78.9555 79.7333 78.7955 78.7933 78.7955 77.82V77.38C78.7955 76.46 78.9555 75.56 79.2755 74.68C79.5955 73.8 80.0621 73.0067 80.6755 72.3C81.3021 71.5933 82.0688 71.0333 82.9755 70.62C83.8955 70.1933 84.9488 69.98 86.1355 69.98C87.4155 69.98 88.5488 70.22 89.5355 70.7C90.5221 71.1667 91.3155 71.8267 91.9155 72.68C92.5155 73.52 92.8688 74.5 92.9755 75.62H90.1155C90.0221 74.9933 89.7888 74.46 89.4155 74.02C89.0421 73.5667 88.5688 73.22 87.9955 72.98C87.4355 72.74 86.8155 72.62 86.1355 72.62C85.4555 72.62 84.8355 72.74 84.2755 72.98C83.7288 73.22 83.2621 73.56 82.8755 74C82.4888 74.44 82.1888 74.9667 81.9755 75.58C81.7755 76.1933 81.6755 76.8733 81.6755 77.62C81.6755 78.4333 81.7888 79.16 82.0155 79.8C82.2421 80.44 82.5621 80.9867 82.9755 81.44C83.3888 81.88 83.8888 82.22 84.4755 82.46C85.0621 82.6867 85.7221 82.8 86.4555 82.8C87.4288 82.8 88.2821 82.6 89.0155 82.2C89.7488 81.7867 90.2821 81.2533 90.6155 80.6L90.1155 82.9V79.14H92.7355V82.38C92.1088 83.3267 91.2555 84.0667 90.1755 84.6C89.0955 85.12 87.8555 85.38 86.4555 85.38ZM85.9955 79.7V77.58H93.9555V79.7H85.9955ZM96.0761 85V74.14H98.2761V78.74H98.2161C98.2161 77.18 98.5494 76 99.2161 75.2C99.8828 74.4 100.863 74 102.156 74H102.556V76.42H101.796C100.863 76.42 100.136 76.6733 99.6161 77.18C99.1094 77.6733 98.8561 78.3933 98.8561 79.34V85H96.0761ZM110.937 85V81.78H110.477V78.2C110.477 77.5733 110.324 77.1067 110.017 76.8C109.711 76.4933 109.237 76.34 108.597 76.34C108.264 76.34 107.864 76.3467 107.397 76.36C106.931 76.3733 106.457 76.3933 105.977 76.42C105.511 76.4333 105.091 76.4533 104.717 76.48V74.12C105.024 74.0933 105.371 74.0667 105.757 74.04C106.144 74.0133 106.537 74 106.937 74C107.351 73.9867 107.737 73.98 108.097 73.98C109.217 73.98 110.144 74.1267 110.877 74.42C111.624 74.7133 112.184 75.1733 112.557 75.8C112.944 76.4267 113.137 77.2467 113.137 78.26V85H110.937ZM107.437 85.28C106.651 85.28 105.957 85.14 105.357 84.86C104.771 84.58 104.311 84.18 103.977 83.66C103.657 83.14 103.497 82.5133 103.497 81.78C103.497 80.98 103.691 80.3267 104.077 79.82C104.477 79.3133 105.031 78.9333 105.737 78.68C106.457 78.4267 107.297 78.3 108.257 78.3H110.777V79.96H108.217C107.577 79.96 107.084 80.12 106.737 80.44C106.404 80.7467 106.237 81.1467 106.237 81.64C106.237 82.1333 106.404 82.5333 106.737 82.84C107.084 83.1467 107.577 83.3 108.217 83.3C108.604 83.3 108.957 83.2333 109.277 83.1C109.611 82.9533 109.884 82.7133 110.097 82.38C110.324 82.0333 110.451 81.5667 110.477 80.98L111.157 81.76C111.091 82.52 110.904 83.16 110.597 83.68C110.304 84.2 109.891 84.6 109.357 84.88C108.837 85.1467 108.197 85.28 107.437 85.28ZM120.615 85.36C119.855 85.36 119.155 85.22 118.515 84.94C117.875 84.66 117.322 84.2667 116.855 83.76C116.388 83.2533 116.028 82.6667 115.775 82C115.522 81.32 115.395 80.5867 115.395 79.8V79.38C115.395 78.6067 115.515 77.88 115.755 77.2C116.008 76.52 116.355 75.9267 116.795 75.42C117.248 74.9133 117.788 74.52 118.415 74.24C119.055 73.9467 119.762 73.8 120.535 73.8C121.388 73.8 122.135 73.9867 122.775 74.36C123.428 74.72 123.948 75.2667 124.335 76C124.722 76.7333 124.935 77.6533 124.975 78.76L124.155 77.8V70.4H126.935V85H124.735V80.38H125.215C125.175 81.4867 124.948 82.4133 124.535 83.16C124.122 83.8933 123.575 84.4467 122.895 84.82C122.228 85.18 121.468 85.36 120.615 85.36ZM121.235 83.02C121.782 83.02 122.282 82.9 122.735 82.66C123.188 82.4067 123.548 82.0467 123.815 81.58C124.095 81.1 124.235 80.54 124.235 79.9V79.1C124.235 78.46 124.095 77.9267 123.815 77.5C123.535 77.06 123.168 76.7267 122.715 76.5C122.262 76.26 121.768 76.14 121.235 76.14C120.635 76.14 120.102 76.2867 119.635 76.58C119.182 76.86 118.822 77.26 118.555 77.78C118.302 78.3 118.175 78.9067 118.175 79.6C118.175 80.2933 118.308 80.9 118.575 81.42C118.842 81.9267 119.202 82.32 119.655 82.6C120.122 82.88 120.648 83.02 121.235 83.02ZM133.8 85.34C132.546 85.34 131.573 84.9267 130.88 84.1C130.2 83.2733 129.86 82.0467 129.86 80.42V74.12H132.64V80.66C132.64 81.3267 132.826 81.86 133.2 82.26C133.573 82.6467 134.08 82.84 134.72 82.84C135.36 82.84 135.88 82.6333 136.28 82.22C136.693 81.8067 136.9 81.2467 136.9 80.54V74.12H139.68V85H137.48V80.38H137.7C137.7 81.4733 137.56 82.3867 137.28 83.12C137 83.8533 136.58 84.4067 136.02 84.78C135.46 85.1533 134.76 85.34 133.92 85.34H133.8ZM149.453 85V81.78H148.993V78.2C148.993 77.5733 148.84 77.1067 148.533 76.8C148.226 76.4933 147.753 76.34 147.113 76.34C146.78 76.34 146.38 76.3467 145.913 76.36C145.446 76.3733 144.973 76.3933 144.493 76.42C144.026 76.4333 143.606 76.4533 143.233 76.48V74.12C143.54 74.0933 143.886 74.0667 144.273 74.04C144.66 74.0133 145.053 74 145.453 74C145.866 73.9867 146.253 73.98 146.613 73.98C147.733 73.98 148.66 74.1267 149.393 74.42C150.14 74.7133 150.7 75.1733 151.073 75.8C151.46 76.4267 151.653 77.2467 151.653 78.26V85H149.453ZM145.953 85.28C145.166 85.28 144.473 85.14 143.873 84.86C143.286 84.58 142.826 84.18 142.493 83.66C142.173 83.14 142.013 82.5133 142.013 81.78C142.013 80.98 142.206 80.3267 142.593 79.82C142.993 79.3133 143.546 78.9333 144.253 78.68C144.973 78.4267 145.813 78.3 146.773 78.3H149.293V79.96H146.733C146.093 79.96 145.6 80.12 145.253 80.44C144.92 80.7467 144.753 81.1467 144.753 81.64C144.753 82.1333 144.92 82.5333 145.253 82.84C145.6 83.1467 146.093 83.3 146.733 83.3C147.12 83.3 147.473 83.2333 147.793 83.1C148.126 82.9533 148.4 82.7133 148.613 82.38C148.84 82.0333 148.966 81.5667 148.993 80.98L149.673 81.76C149.606 82.52 149.42 83.16 149.113 83.68C148.82 84.2 148.406 84.6 147.873 84.88C147.353 85.1467 146.713 85.28 145.953 85.28ZM154.771 85V70.4H157.551V85H154.771ZM153.411 72.48V70.4H157.551V72.48H153.411ZM70.0831 109.38C68.7631 109.38 67.6298 109.147 66.6831 108.68C65.7365 108.213 64.9631 107.607 64.3631 106.86C63.7765 106.113 63.3431 105.3 63.0631 104.42C62.7831 103.54 62.6431 102.693 62.6431 101.88V101.44C62.6431 100.533 62.7831 99.64 63.0631 98.76C63.3565 97.88 63.8031 97.08 64.4031 96.36C65.0031 95.64 65.7631 95.0667 66.6831 94.64C67.6165 94.2 68.7165 93.98 69.9831 93.98C71.3031 93.98 72.4498 94.22 73.4231 94.7C74.4098 95.1667 75.1965 95.8333 75.7831 96.7C76.3698 97.5533 76.7231 98.5533 76.8431 99.7H73.9831C73.8765 99.0333 73.6365 98.4733 73.2631 98.02C72.9031 97.5533 72.4431 97.2067 71.8831 96.98C71.3231 96.74 70.6898 96.62 69.9831 96.62C69.2631 96.62 68.6231 96.7467 68.0631 97C67.5031 97.24 67.0365 97.5867 66.6631 98.04C66.2898 98.4933 66.0031 99.0267 65.8031 99.64C65.6165 100.253 65.5231 100.933 65.5231 101.68C65.5231 102.4 65.6165 103.067 65.8031 103.68C66.0031 104.293 66.2965 104.833 66.6831 105.3C67.0698 105.753 67.5431 106.107 68.1031 106.36C68.6765 106.613 69.3365 106.74 70.0831 106.74C71.1765 106.74 72.0965 106.473 72.8431 105.94C73.6031 105.393 74.0631 104.633 74.2231 103.66H77.0831C76.9498 104.7 76.5965 105.653 76.0231 106.52C75.4498 107.387 74.6631 108.08 73.6631 108.6C72.6631 109.12 71.4698 109.38 70.0831 109.38ZM84.4797 109.38C83.5197 109.38 82.673 109.227 81.9397 108.92C81.2064 108.613 80.5864 108.2 80.0797 107.68C79.573 107.147 79.1864 106.547 78.9197 105.88C78.6664 105.213 78.5397 104.52 78.5397 103.8V103.38C78.5397 102.633 78.673 101.927 78.9397 101.26C79.2197 100.58 79.613 99.98 80.1197 99.46C80.6397 98.9267 81.2664 98.5133 81.9997 98.22C82.733 97.9133 83.5597 97.76 84.4797 97.76C85.3997 97.76 86.2264 97.9133 86.9597 98.22C87.693 98.5133 88.313 98.9267 88.8197 99.46C89.3397 99.98 89.733 100.58 89.9997 101.26C90.2664 101.927 90.3997 102.633 90.3997 103.38V103.8C90.3997 104.52 90.2664 105.213 89.9997 105.88C89.7464 106.547 89.3664 107.147 88.8597 107.68C88.353 108.2 87.733 108.613 86.9997 108.92C86.2664 109.227 85.4264 109.38 84.4797 109.38ZM84.4797 107C85.1597 107 85.733 106.853 86.1997 106.56C86.6664 106.253 87.0197 105.847 87.2597 105.34C87.4997 104.82 87.6197 104.233 87.6197 103.58C87.6197 102.913 87.493 102.327 87.2397 101.82C86.9997 101.3 86.6397 100.893 86.1597 100.6C85.693 100.293 85.133 100.14 84.4797 100.14C83.8264 100.14 83.2597 100.293 82.7797 100.6C82.313 100.893 81.953 101.3 81.6997 101.82C81.4464 102.327 81.3197 102.913 81.3197 103.58C81.3197 104.233 81.4397 104.82 81.6797 105.34C81.933 105.847 82.293 106.253 82.7597 106.56C83.2264 106.853 83.7997 107 84.4797 107ZM92.8339 109V98.14H95.0339V102.8H94.8339C94.8339 101.693 94.9806 100.773 95.2739 100.04C95.5672 99.2933 96.0006 98.7333 96.5739 98.36C97.1606 97.9867 97.8872 97.8 98.7539 97.8H98.8739C100.167 97.8 101.147 98.22 101.814 99.06C102.481 99.8867 102.814 101.127 102.814 102.78V109H100.034V102.54C100.034 101.873 99.8406 101.333 99.4539 100.92C99.0806 100.507 98.5606 100.3 97.8939 100.3C97.2139 100.3 96.6606 100.513 96.2339 100.94C95.8206 101.353 95.6139 101.913 95.6139 102.62V109H92.8339ZM109.743 109.34C108.249 109.34 107.076 109.027 106.223 108.4C105.383 107.76 104.943 106.88 104.903 105.76H107.403C107.443 106.133 107.649 106.473 108.023 106.78C108.396 107.087 108.983 107.24 109.783 107.24C110.449 107.24 110.976 107.12 111.363 106.88C111.763 106.64 111.963 106.313 111.963 105.9C111.963 105.54 111.809 105.253 111.503 105.04C111.209 104.827 110.703 104.687 109.983 104.62L109.023 104.52C107.809 104.387 106.876 104.04 106.223 103.48C105.569 102.92 105.243 102.173 105.243 101.24C105.243 100.493 105.429 99.8667 105.803 99.36C106.176 98.8533 106.689 98.4733 107.343 98.22C108.009 97.9533 108.769 97.82 109.623 97.82C110.956 97.82 112.036 98.1133 112.863 98.7C113.689 99.2867 114.123 100.147 114.163 101.28H111.663C111.636 100.907 111.449 100.587 111.103 100.32C110.756 100.053 110.256 99.92 109.603 99.92C109.016 99.92 108.563 100.033 108.243 100.26C107.923 100.487 107.763 100.78 107.763 101.14C107.763 101.487 107.889 101.753 108.143 101.94C108.409 102.127 108.836 102.253 109.423 102.32L110.383 102.42C111.663 102.553 112.663 102.907 113.383 103.48C114.116 104.053 114.483 104.827 114.483 105.8C114.483 106.52 114.283 107.147 113.883 107.68C113.496 108.2 112.949 108.607 112.243 108.9C111.536 109.193 110.703 109.34 109.743 109.34ZM121.639 109.38C120.706 109.38 119.886 109.22 119.179 108.9C118.486 108.58 117.906 108.153 117.439 107.62C116.986 107.073 116.639 106.467 116.399 105.8C116.173 105.133 116.059 104.453 116.059 103.76V103.38C116.059 102.66 116.173 101.967 116.399 101.3C116.639 100.62 116.986 100.02 117.439 99.5C117.906 98.9667 118.479 98.5467 119.159 98.24C119.839 97.92 120.626 97.76 121.519 97.76C122.693 97.76 123.673 98.02 124.459 98.54C125.259 99.0467 125.859 99.72 126.259 100.56C126.659 101.387 126.859 102.28 126.859 103.24V104.24H117.239V102.54H125.119L124.259 103.38C124.259 102.687 124.159 102.093 123.959 101.6C123.759 101.107 123.453 100.727 123.039 100.46C122.639 100.193 122.133 100.06 121.519 100.06C120.906 100.06 120.386 100.2 119.959 100.48C119.533 100.76 119.206 101.167 118.979 101.7C118.766 102.22 118.659 102.847 118.659 103.58C118.659 104.26 118.766 104.867 118.979 105.4C119.193 105.92 119.519 106.333 119.959 106.64C120.399 106.933 120.959 107.08 121.639 107.08C122.319 107.08 122.873 106.947 123.299 106.68C123.726 106.4 123.999 106.06 124.119 105.66H126.679C126.519 106.407 126.213 107.06 125.759 107.62C125.306 108.18 124.726 108.613 124.019 108.92C123.326 109.227 122.533 109.38 121.639 109.38ZM129.182 109V98.14H131.382V102.8H131.182C131.182 101.693 131.328 100.773 131.622 100.04C131.915 99.2933 132.348 98.7333 132.922 98.36C133.508 97.9867 134.235 97.8 135.102 97.8H135.222C136.515 97.8 137.495 98.22 138.162 99.06C138.828 99.8867 139.162 101.127 139.162 102.78V109H136.382V102.54C136.382 101.873 136.188 101.333 135.802 100.92C135.428 100.507 134.908 100.3 134.242 100.3C133.562 100.3 133.008 100.513 132.582 100.94C132.168 101.353 131.962 101.913 131.962 102.62V109H129.182ZM146.09 109.34C144.597 109.34 143.424 109.027 142.57 108.4C141.73 107.76 141.29 106.88 141.25 105.76H143.75C143.79 106.133 143.997 106.473 144.37 106.78C144.744 107.087 145.33 107.24 146.13 107.24C146.797 107.24 147.324 107.12 147.71 106.88C148.11 106.64 148.31 106.313 148.31 105.9C148.31 105.54 148.157 105.253 147.85 105.04C147.557 104.827 147.05 104.687 146.33 104.62L145.37 104.52C144.157 104.387 143.224 104.04 142.57 103.48C141.917 102.92 141.59 102.173 141.59 101.24C141.59 100.493 141.777 99.8667 142.15 99.36C142.524 98.8533 143.037 98.4733 143.69 98.22C144.357 97.9533 145.117 97.82 145.97 97.82C147.304 97.82 148.384 98.1133 149.21 98.7C150.037 99.2867 150.47 100.147 150.51 101.28H148.01C147.984 100.907 147.797 100.587 147.45 100.32C147.104 100.053 146.604 99.92 145.95 99.92C145.364 99.92 144.91 100.033 144.59 100.26C144.27 100.487 144.11 100.78 144.11 101.14C144.11 101.487 144.237 101.753 144.49 101.94C144.757 102.127 145.184 102.253 145.77 102.32L146.73 102.42C148.01 102.553 149.01 102.907 149.73 103.48C150.464 104.053 150.83 104.827 150.83 105.8C150.83 106.52 150.63 107.147 150.23 107.68C149.844 108.2 149.297 108.607 148.59 108.9C147.884 109.193 147.05 109.34 146.09 109.34ZM156.827 109.34C155.574 109.34 154.6 108.927 153.907 108.1C153.227 107.273 152.887 106.047 152.887 104.42V98.12H155.667V104.66C155.667 105.327 155.854 105.86 156.227 106.26C156.6 106.647 157.107 106.84 157.747 106.84C158.387 106.84 158.907 106.633 159.307 106.22C159.72 105.807 159.927 105.247 159.927 104.54V98.12H162.707V109H160.507V104.38H160.727C160.727 105.473 160.587 106.387 160.307 107.12C160.027 107.853 159.607 108.407 159.047 108.78C158.487 109.153 157.787 109.34 156.947 109.34H156.827ZM169.84 109.34C168.347 109.34 167.174 109.027 166.32 108.4C165.48 107.76 165.04 106.88 165 105.76H167.5C167.54 106.133 167.747 106.473 168.12 106.78C168.494 107.087 169.08 107.24 169.88 107.24C170.547 107.24 171.074 107.12 171.46 106.88C171.86 106.64 172.06 106.313 172.06 105.9C172.06 105.54 171.907 105.253 171.6 105.04C171.307 104.827 170.8 104.687 170.08 104.62L169.12 104.52C167.907 104.387 166.974 104.04 166.32 103.48C165.667 102.92 165.34 102.173 165.34 101.24C165.34 100.493 165.527 99.8667 165.9 99.36C166.274 98.8533 166.787 98.4733 167.44 98.22C168.107 97.9533 168.867 97.82 169.72 97.82C171.054 97.82 172.134 98.1133 172.96 98.7C173.787 99.2867 174.22 100.147 174.26 101.28H171.76C171.734 100.907 171.547 100.587 171.2 100.32C170.854 100.053 170.354 99.92 169.7 99.92C169.114 99.92 168.66 100.033 168.34 100.26C168.02 100.487 167.86 100.78 167.86 101.14C167.86 101.487 167.987 101.753 168.24 101.94C168.507 102.127 168.934 102.253 169.52 102.32L170.48 102.42C171.76 102.553 172.76 102.907 173.48 103.48C174.214 104.053 174.58 104.827 174.58 105.8C174.58 106.52 174.38 107.147 173.98 107.68C173.594 108.2 173.047 108.607 172.34 108.9C171.634 109.193 170.8 109.34 169.84 109.34Z" fill="#171753"/>
<path d="M133.144 24.9357V29.7636L114.209 40.6935L95.2925 29.7636V24.9357C105.738 18.9054 122.698 18.8875 133.144 24.9357Z" fill="#8989C7" stroke="#171753" stroke-width="0.6"/>
<path d="M114.209 41.1061C114.281 41.1061 114.353 41.0882 114.424 41.0523L133.359 30.1223C133.484 30.0505 133.574 29.9069 133.574 29.7634V24.9355C133.574 24.7919 133.502 24.6484 133.359 24.5766C128.244 21.6332 121.46 20 114.245 20C107.012 20 100.21 21.6332 95.0771 24.5945C94.9515 24.6663 94.8617 24.8099 94.8617 24.9535V29.7813C94.8617 29.9249 94.9335 30.0685 95.0771 30.1403L113.994 41.0523C114.065 41.0882 114.137 41.1061 114.209 41.1061ZM132.731 29.5121L114.209 40.2087L95.7053 29.5301V25.1868C100.677 22.369 107.245 20.8256 114.245 20.8256C121.226 20.8256 127.777 22.3691 132.731 25.1688V29.5121V29.5121Z" fill="#171753" stroke="#171753" stroke-width="0.6"/>
<path d="M95.2746 24.9355C105.738 18.8873 122.68 18.8873 133.144 24.9176L114.209 35.8475L95.2746 24.9355Z" fill="#E3E0EB" stroke="#171753" stroke-width="0.6"/>
<path d="M114.209 36.2783C114.281 36.2783 114.353 36.2603 114.424 36.2244L133.359 25.2945C133.484 25.2227 133.574 25.0791 133.574 24.9355C133.574 24.7919 133.502 24.6484 133.359 24.5766C128.244 21.6332 121.46 20 114.245 20C107.012 20 100.21 21.6332 95.0771 24.5945C94.9515 24.6663 94.8617 24.8099 94.8617 24.9535C94.8617 25.097 94.9335 25.2406 95.0771 25.3124L113.994 36.2244C114.065 36.2603 114.137 36.2783 114.209 36.2783ZM132.3 24.9355L114.209 35.3809L96.136 24.9535C101.054 22.2973 107.443 20.8256 114.245 20.8256C121.011 20.8256 127.382 22.2793 132.3 24.9355Z" fill="#171753" stroke="#171753" stroke-width="0.6"/>
<path d="M114.208 35.8656V40.6935L95.274 29.7635V24.9357L114.208 35.8656Z" fill="#171753" stroke="#171753" stroke-width="0.6"/>
<path d="M114.208 41.1063C114.28 41.1063 114.352 41.0884 114.424 41.0525C114.549 40.9807 114.639 40.8371 114.639 40.6935V35.8657C114.639 35.7221 114.567 35.5785 114.424 35.5067L95.5073 24.5768C95.3816 24.505 95.2201 24.505 95.0945 24.5768C94.9688 24.6486 94.8791 24.7922 94.8791 24.9357V29.7636C94.8791 29.9072 94.9509 30.0507 95.0945 30.1225L113.993 41.0525C114.065 41.0884 114.137 41.1063 114.208 41.1063ZM113.778 36.099V39.9577L95.6867 29.5123V25.6536L113.778 36.099Z" fill="#171753" stroke="#171753" stroke-width="0.6"/>
<path d="M87.4312 43.5831V39.7423C87.4312 35.7939 90.0515 31.8455 95.2742 28.8124L114.191 39.7423L133.143 28.7944C138.366 31.8096 140.986 35.758 140.968 39.7244V43.5651C140.968 47.5135 138.348 51.4799 133.107 54.4951C122.644 60.5254 105.702 60.5433 95.2383 54.513C90.0335 51.4979 87.4132 47.5315 87.4312 43.5831Z" fill="#E3E0EB" stroke="#171753" stroke-width="0.6"/>
<path d="M114.173 59.4663C121.406 59.4663 128.208 57.8331 133.341 54.8718C138.545 51.8746 141.399 47.8544 141.399 43.565V39.7242C141.399 35.4348 138.545 31.4325 133.359 28.4174C133.233 28.3456 133.071 28.3456 132.946 28.4174L114.209 39.2396L95.4895 28.4353C95.3639 28.3635 95.2024 28.3635 95.0768 28.4353C89.89 31.4325 87.0184 35.4348 87.0184 39.7242V43.5829C87.0004 47.8723 89.8541 51.8925 95.0588 54.8897C100.156 57.8331 106.958 59.4663 114.173 59.4663ZM133.143 29.2789C137.935 32.0966 140.555 35.8117 140.555 39.7242V43.565C140.555 47.5313 137.845 51.3003 132.91 54.136C127.903 57.0255 121.262 58.6049 114.173 58.6049C107.101 58.6049 100.461 57.0255 95.4716 54.136C90.554 51.3003 87.844 47.5313 87.844 43.547V39.7063C87.844 35.7758 90.4822 32.0786 95.2742 29.2609L113.993 40.0832C114.119 40.1549 114.28 40.1549 114.406 40.0832L133.143 29.2789Z" fill="#171753" stroke="#171753" stroke-width="0.6"/>
<path d="M95.2739 28.7944L96.0815 29.2611V54.9438C95.8123 54.8002 95.5252 54.6745 95.256 54.513C90.0153 51.4979 87.413 47.5315 87.4309 43.5651V39.7244C87.4309 35.776 90.0512 31.8096 95.2739 28.7944Z" fill="#171753" stroke="#171753" stroke-width="0.6"/>
<path d="M96.0814 55.3744C96.1531 55.3744 96.2249 55.3565 96.2967 55.3206C96.4224 55.2488 96.4941 55.1052 96.4941 54.9616V29.261C96.4941 29.1174 96.4223 28.9739 96.2788 28.9021L95.4711 28.4354C95.3455 28.3636 95.184 28.3636 95.0584 28.4354C89.8716 31.4326 87 35.4349 87 39.7243V43.583C86.982 47.8724 89.8357 51.8926 95.0404 54.8899C95.2019 54.9796 95.3814 55.0693 95.5609 55.1591L95.866 55.3206C95.9557 55.3565 96.0096 55.3744 96.0814 55.3744ZM95.6686 29.5123V54.2797C95.5968 54.2438 95.5429 54.2079 95.4711 54.172C90.5536 51.3363 87.8435 47.5673 87.8435 43.583V39.7423C87.8435 35.8118 90.4818 32.1146 95.2737 29.2969L95.6686 29.5123Z" fill="#171753" stroke="#171753" stroke-width="0.6"/>
<path d="M95.2744 28.7944L114.191 39.7244L133.143 28.7944C143.589 34.8248 143.589 44.6061 133.125 50.6543C122.662 56.6846 105.72 56.7026 95.2564 50.6723C84.811 44.624 84.811 34.8427 95.2744 28.7944Z" fill="#8989C7" stroke="#171753" stroke-width="0.6"/>
<path d="M114.173 55.6076C121.406 55.6076 128.208 53.9744 133.341 51.0131C138.545 48.0159 141.399 43.9957 141.399 39.7063C141.399 35.4168 138.545 31.4146 133.359 28.4174C133.233 28.3456 133.071 28.3456 132.946 28.4174L114.209 39.2396L95.4895 28.4353C95.3639 28.3635 95.2024 28.3635 95.0768 28.4353C89.872 31.4325 87.0184 35.4527 87.0184 39.7422C87.0184 44.0316 89.872 48.0339 95.0588 51.0131C100.156 53.9744 106.958 55.6076 114.173 55.6076ZM133.143 29.2789C137.917 32.0966 140.555 35.7937 140.555 39.7063C140.555 43.6906 137.845 47.4416 132.91 50.2773C127.903 53.1668 121.262 54.7641 114.173 54.7641C107.101 54.7641 100.461 53.1847 95.4716 50.2952C90.554 47.4595 87.844 43.7085 87.844 39.7422C87.844 35.8296 90.4822 32.1145 95.2742 29.2789L113.993 40.0832C114.119 40.155 114.28 40.155 114.406 40.0832L133.143 29.2789Z" fill="#171753" stroke="#171753" stroke-width="0.6"/>
<path fill-rule="evenodd" clip-rule="evenodd" d="M113.123 6.84441L116.946 5.93094C119.447 5.33315 122.343 6.38671 125.037 9.23433C130.433 14.9349 132.993 25.651 130.756 33.1682C129.641 36.9259 127.534 39.175 125.032 39.7728L121.21 40.6863L120.889 39.3441C119.568 38.7907 118.232 37.8322 116.941 36.4694C111.545 30.7689 108.985 20.0527 111.222 12.5356C111.758 10.7362 112.524 9.28273 113.444 8.18656L113.123 6.84441ZM120.426 12.8172C118.599 10.8916 116.658 9.9812 114.895 10.0312C113.301 10.7909 111.979 12.4734 111.22 15.0169C109.426 21.0615 111.485 29.6765 115.818 34.2568C117.645 36.1824 119.586 37.0928 121.349 37.0428C122.95 36.2815 124.264 34.6006 125.023 32.0571C126.818 26.0126 124.759 17.3975 120.426 12.8172Z" fill="#6B5FA5" stroke="#171753" stroke-width="0.6"/>
<path d="M131.045 20.4481C132.136 25.0156 132.131 29.563 131.036 33.2491C129.925 36.9911 127.812 39.4049 125.1 40.053L121.277 40.9665C121.123 41.0034 120.966 40.9072 120.929 40.7526L120.642 39.551C119.297 38.9587 117.981 37.9882 116.729 36.6679C114.086 33.8751 112.025 29.8214 110.934 25.2539C109.842 20.6864 109.848 16.139 110.943 12.4529C111.462 10.7095 112.198 9.24865 113.129 8.11231L112.842 6.9107C112.805 6.75611 112.902 6.5994 113.056 6.56245L116.879 5.64898C119.591 5.00082 122.568 6.20592 125.25 9.03414C127.893 11.8269 129.954 15.8806 131.045 20.4481ZM121.424 40.3372L124.966 39.4909C127.474 38.8914 129.427 36.6197 130.484 33.0839C132.692 25.6628 130.157 15.0521 124.832 9.43108C122.298 6.75335 119.522 5.61168 117.013 6.21114L113.472 7.05745L113.725 8.11852C113.747 8.20987 113.725 8.30426 113.666 8.37025C112.739 9.46107 112.01 10.8904 111.502 12.6165C109.294 20.0375 111.829 30.6483 117.154 36.2693C118.386 37.5718 119.682 38.5176 121.004 39.0781C121.088 39.1175 121.149 39.1848 121.171 39.2761L121.424 40.3372Z" fill="#171753" stroke="#171753" stroke-width="0.6"/>
<path fill-rule="evenodd" clip-rule="evenodd" d="M113.123 6.84347C118.517 5.55441 124.701 12.0852 126.934 21.4304C129.167 30.7755 126.604 39.3963 121.21 40.6854C115.815 41.9744 109.632 35.4436 107.399 26.0985C105.166 16.7533 107.729 8.13253 113.123 6.84347ZM120.426 12.8165C118.599 10.8909 116.658 9.98044 114.895 10.0304C113.301 10.7901 111.98 12.4726 111.221 15.0162C109.426 21.0607 111.485 29.6758 115.818 34.256C117.645 36.1816 119.586 37.0921 121.349 37.0421C122.95 36.2807 124.265 34.5999 125.024 32.0563C126.818 26.0118 124.759 17.3967 120.426 12.8165Z" fill="#E3E0EB" stroke="#171753" stroke-width="0.6"/>
<path d="M127.222 21.3617C128.313 25.9292 128.308 30.4766 127.213 34.1627C126.101 37.9047 123.989 40.3185 121.277 40.9666C118.564 41.6148 115.587 40.4097 112.906 37.5815C110.263 34.7887 108.202 30.735 107.111 26.1675C106.019 21.5999 106.024 17.0526 107.12 13.3665C108.231 9.62451 110.343 7.21072 113.056 6.56256C115.768 5.9144 118.745 7.1195 121.426 9.94772C124.07 12.7405 126.13 16.7942 127.222 21.3617ZM107.68 26.0315C108.702 30.3109 110.668 34.3723 113.331 37.1828C115.865 39.8606 118.641 41.0022 121.142 40.4045C123.651 39.805 125.604 37.5332 126.661 33.9974C128.869 26.5764 126.333 15.9657 121.009 10.3447C118.475 7.66693 115.699 6.52525 113.197 7.12304C110.688 7.7225 108.735 9.99426 107.679 13.53C106.574 17.2406 106.657 21.752 107.68 26.0315Z" fill="#171753" stroke="#171753" stroke-width="0.6"/>
<path d="M109.399 26C107.799 16 111 11.3333 113 10.5C109 16.5 110.399 25 114.399 32C117.599 37.6 120.732 38 121.899 37.5C120.899 38.5 111.399 38.5 109.399 26Z" fill="#8989C7"/>
<path d="M125.304 21.8201C126.184 25.5023 126.182 29.1647 125.296 32.1398C124.539 34.6903 123.213 36.478 121.471 37.3027C120.304 37.8566 118.992 37.9323 117.664 37.5364C116.296 37.1279 114.963 36.2431 113.702 34.9104C111.566 32.6574 109.909 29.3912 109.029 25.7091C108.149 22.027 108.151 18.3645 109.037 15.3895C109.56 13.6303 110.349 12.2384 111.384 11.2555C112.389 10.3022 113.595 9.78381 114.885 9.74292C116.812 9.69114 118.803 10.6862 120.631 12.6188C122.767 14.8718 124.424 18.138 125.304 21.8201ZM109.591 25.5748C110.412 29.011 111.984 32.2604 114.119 34.5135C116.456 36.9859 119.044 37.8084 121.221 36.7831C122.809 36.0322 124.03 34.3661 124.737 31.9762C126.502 26.0278 124.47 17.5252 120.207 13.0175C118.489 11.2069 116.655 10.2783 114.897 10.3196C112.49 10.3821 110.555 12.2931 109.589 15.5547C108.71 18.5281 108.772 22.1456 109.591 25.5748Z" fill="#171753" stroke="#171753" stroke-width="0.6"/>
<path opacity="0.7" d="M114.894 10.0302C116.657 9.98019 118.598 10.8906 120.425 12.8162C124.758 17.3965 126.817 26.0116 125.023 32.0561C124.264 34.5996 122.95 36.2805 121.349 37.0418C119.585 37.0918 117.644 36.1814 115.817 34.2558C111.484 29.6755 109.426 21.0605 111.22 15.0159C111.979 12.4724 113.3 10.7899 114.894 10.0302Z" stroke="#171753" stroke-width="0.6"/>
<path d="M125.304 21.8201C126.184 25.5022 126.182 29.1647 125.296 32.1397C124.539 34.6903 123.213 36.4779 121.471 37.3027C121.438 37.3181 121.396 37.3282 121.359 37.3295C119.433 37.3813 117.442 36.3863 115.613 34.4536C113.478 32.2006 111.821 28.9344 110.941 25.2523C110.061 21.5702 110.062 17.9077 110.948 14.9327C111.706 12.3821 113.032 10.5945 114.773 9.76975C114.807 9.75432 114.849 9.74425 114.886 9.74288C116.812 9.6911 118.803 10.6862 120.632 12.6188C122.767 14.8718 124.424 18.138 125.304 21.8201ZM121.281 36.7539C122.843 35.9869 124.04 34.3416 124.744 31.9745C126.51 26.0261 124.478 17.5234 120.214 13.0157C118.517 11.2299 116.704 10.2963 114.964 10.3185C113.401 11.0855 112.205 12.7308 111.5 15.0979C109.735 21.0463 111.767 29.549 116.031 34.0567C117.721 35.8442 119.54 36.7761 121.281 36.7539Z" fill="#171753" stroke="#171753" stroke-width="0.6"/>
<path d="M129.401 31.2334C129.394 31.2351 129.394 31.2351 129.387 31.2368C129.38 31.2385 129.373 31.2402 129.359 31.2435C129.352 31.2452 129.338 31.2486 129.331 31.2502C129.324 31.2519 129.317 31.2536 129.31 31.2553C129.303 31.257 129.289 31.2603 129.282 31.262C129.275 31.2637 129.268 31.2654 129.261 31.267C129.247 31.2704 129.233 31.2737 129.22 31.2841C129.213 31.2858 129.206 31.2875 129.199 31.2892L129.192 31.2908C129.171 31.2959 129.145 31.3096 129.124 31.3147L129.117 31.3163C129.096 31.3214 129.076 31.3334 129.055 31.3385C129.048 31.3402 129.048 31.3402 129.041 31.3418C129.034 31.3435 129.022 31.3539 129.015 31.3556C129.001 31.3589 128.995 31.3677 128.981 31.371C128.974 31.3727 128.967 31.3744 128.962 31.3831C128.955 31.3848 128.942 31.3951 128.935 31.3968C128.928 31.3985 128.923 31.4072 128.916 31.4089C128.909 31.4106 128.897 31.4209 128.889 31.4226C128.882 31.4243 128.87 31.4347 128.863 31.4364C128.856 31.4381 128.856 31.438 128.851 31.4468C128.838 31.4571 128.824 31.4605 128.812 31.4709C128.805 31.4726 128.792 31.4829 128.785 31.4846L128.778 31.4863C128.759 31.4984 128.733 31.5121 128.713 31.5242L128.706 31.5259C128.687 31.5379 128.667 31.55 128.648 31.5621C128.648 31.5621 128.641 31.5637 128.643 31.5708C128.636 31.5724 128.63 31.5811 128.623 31.5828C128.611 31.5932 128.604 31.5949 128.591 31.6053C128.584 31.607 128.579 31.6157 128.572 31.6173C128.567 31.626 128.553 31.6294 128.547 31.6381C128.54 31.6398 128.535 31.6485 128.528 31.6502C128.516 31.6606 128.503 31.6709 128.489 31.6743C128.482 31.676 128.477 31.6847 128.47 31.6864L128.463 31.688C128.443 31.7001 128.419 31.7209 128.399 31.7329C128.392 31.7346 128.387 31.7433 128.38 31.745C128.367 31.7554 128.348 31.7675 128.337 31.7849C128.337 31.7849 128.33 31.7866 128.332 31.7936C128.32 31.804 128.307 31.8143 128.295 31.8247C128.282 31.8351 128.277 31.8438 128.265 31.8542L128.259 31.8629C128.254 31.8716 128.247 31.8733 128.242 31.882C128.222 31.8941 128.211 31.9115 128.194 31.9306C128.188 31.9393 128.181 31.941 128.176 31.9497C128.169 31.9514 128.171 31.9584 128.164 31.9601C128.158 31.9688 128.146 31.9791 128.139 31.9808C128.127 31.9912 128.116 32.0086 128.103 32.019C128.091 32.0294 128.079 32.0398 128.068 32.0572C128.056 32.0676 128.045 32.085 128.033 32.0954C128.026 32.0971 128.027 32.1041 128.02 32.1058C128.008 32.1161 128.002 32.1248 127.99 32.1352C127.985 32.1439 127.978 32.1456 127.972 32.1543C127.955 32.1734 127.932 32.2012 127.914 32.2203C127.891 32.2481 127.875 32.2742 127.85 32.295C127.832 32.3141 127.822 32.3315 127.804 32.3506C127.797 32.3523 127.799 32.3593 127.791 32.361C127.775 32.3871 127.758 32.4062 127.742 32.4323C127.736 32.441 127.731 32.4497 127.724 32.4514C127.713 32.4688 127.701 32.4792 127.69 32.4966L127.685 32.5053C127.68 32.514 127.674 32.5227 127.662 32.5331C127.656 32.5418 127.646 32.5592 127.64 32.5679L127.635 32.5766C127.63 32.5853 127.619 32.6028 127.614 32.6115C127.608 32.6202 127.603 32.6289 127.598 32.6376C127.592 32.6463 127.592 32.6463 127.587 32.655C127.582 32.6637 127.571 32.6811 127.566 32.6898C127.56 32.6985 127.555 32.7072 127.549 32.7159C127.544 32.7246 127.546 32.7317 127.539 32.7334C127.533 32.7421 127.53 32.7578 127.517 32.7682C127.512 32.7769 127.514 32.7839 127.508 32.7926C127.503 32.8013 127.498 32.81 127.499 32.8171C127.494 32.8258 127.49 32.8415 127.485 32.8502C127.48 32.8589 127.48 32.8589 127.474 32.8676C127.469 32.8763 127.464 32.885 127.46 32.9008C127.455 32.9095 127.451 32.9252 127.446 32.9339C127.447 32.9409 127.44 32.9426 127.442 32.9496C127.438 32.9654 127.433 32.9741 127.429 32.9898C127.424 32.9985 127.419 33.0072 127.42 33.0142C127.42 33.0142 127.422 33.0213 127.415 33.023C127.406 33.0474 127.397 33.0718 127.388 33.0963C127.388 33.0963 127.388 33.0963 127.389 33.1033C127.38 33.1277 127.377 33.1435 127.368 33.1679C127.369 33.1749 127.362 33.1766 127.364 33.1836C127.36 33.1994 127.357 33.2151 127.346 33.2325C127.348 33.2395 127.342 33.2483 127.342 33.2483C127.337 33.257 127.339 33.264 127.333 33.2727C127.335 33.2797 127.33 33.2884 127.331 33.2955C127.326 33.3042 127.329 33.3182 127.324 33.3269C127.326 33.3339 127.32 33.3427 127.322 33.3497C127.322 33.3497 127.324 33.3567 127.317 33.3584C127.315 33.3811 127.311 33.3969 127.309 33.4196C127.307 33.4424 127.303 33.4581 127.301 33.4809L127.303 33.4879C127.305 33.4949 127.299 33.5037 127.301 33.5107C127.303 33.5177 127.299 33.5334 127.301 33.5405C127.302 33.5475 127.302 33.5475 127.297 33.5562C127.299 33.5632 127.293 33.5719 127.297 33.586C127.299 33.593 127.293 33.6017 127.295 33.6087C127.297 33.6158 127.298 33.6228 127.293 33.6315C127.295 33.6385 127.289 33.6472 127.293 33.6613C127.294 33.6683 127.294 33.6683 127.296 33.6753C127.298 33.6824 127.299 33.6894 127.294 33.6981C127.296 33.7051 127.299 33.7192 127.294 33.7279L127.295 33.7349C127.297 33.7419 127.299 33.749 127.3 33.756C127.302 33.763 127.305 33.7771 127.307 33.7841L127.309 33.7911C127.31 33.7982 127.312 33.8052 127.314 33.8122C127.317 33.8263 127.319 33.8333 127.322 33.8474L127.324 33.8544C127.327 33.8684 127.331 33.8825 127.334 33.8965C127.334 33.8965 127.334 33.8965 127.336 33.9036C127.337 33.9106 127.341 33.9246 127.342 33.9317C127.344 33.9387 127.346 33.9457 127.347 33.9528C127.349 33.9598 127.349 33.9598 127.351 33.9668C127.354 33.9809 127.366 34.0003 127.369 34.0143C127.371 34.0213 127.371 34.0213 127.373 34.0284C127.376 34.0424 127.387 34.0548 127.39 34.0689C127.392 34.0759 127.4 34.0812 127.402 34.0883C127.404 34.0953 127.412 34.1006 127.416 34.1147C127.416 34.1147 127.417 34.1217 127.424 34.12L127.426 34.1271C127.437 34.1394 127.447 34.1518 127.457 34.1642L127.459 34.1712C127.469 34.1836 127.48 34.196 127.49 34.2083L140.085 47.4368C140.075 47.4244 140.064 47.412 140.054 47.3996L140.052 47.3926C140.042 47.3802 140.031 47.3678 140.021 47.3555L140.019 47.3484C140.009 47.3361 140.007 47.329 139.997 47.3167C139.995 47.3096 139.987 47.3043 139.985 47.2973C139.974 47.2849 139.971 47.2708 139.968 47.2568C139.966 47.2498 139.966 47.2498 139.964 47.2427C139.961 47.2287 139.949 47.2093 139.946 47.1952C139.944 47.1882 139.944 47.1882 139.942 47.1812C139.939 47.1671 139.934 47.146 139.923 47.1337C139.923 47.1337 139.923 47.1337 139.922 47.1266C139.918 47.1126 139.913 47.0915 139.91 47.0774C139.907 47.0634 139.905 47.0564 139.902 47.0423C139.9 47.0353 139.897 47.0212 139.895 47.0142C139.893 47.0072 139.89 46.9931 139.888 46.9861C139.885 46.972 139.883 46.965 139.887 46.9493C139.885 46.9423 139.882 46.9282 139.887 46.9195C139.884 46.9054 139.889 46.8967 139.886 46.8827C139.884 46.8757 139.889 46.8669 139.886 46.8529C139.883 46.8388 139.886 46.8231 139.883 46.8091C139.881 46.802 139.887 46.7933 139.883 46.7793C139.887 46.7635 139.884 46.7495 139.887 46.7337C139.886 46.7267 139.891 46.718 139.889 46.711C139.893 46.6655 139.904 46.6183 139.908 46.5727C139.907 46.5657 139.912 46.557 139.91 46.55C139.914 46.5343 139.918 46.5185 139.92 46.4958C139.925 46.4871 139.923 46.48 139.929 46.4713C139.938 46.4469 139.94 46.4241 139.949 46.3997C139.958 46.3752 139.965 46.3438 139.974 46.3193C139.974 46.3193 139.974 46.3193 139.972 46.3123C139.981 46.2879 139.99 46.2634 139.999 46.239C140.005 46.2303 140.01 46.2216 140.008 46.2145C140.012 46.1988 140.023 46.1814 140.033 46.164C140.039 46.1553 140.042 46.1396 140.048 46.1308C140.051 46.1151 140.062 46.0977 140.066 46.082C140.071 46.0733 140.075 46.0575 140.08 46.0488C140.084 46.0331 140.095 46.0157 140.1 46.007C140.105 45.9983 140.109 45.9825 140.121 45.9721C140.132 45.9547 140.137 45.946 140.148 45.9286C140.153 45.9199 140.164 45.9025 140.169 45.8938C140.18 45.8764 140.186 45.8677 140.196 45.8503C140.202 45.8416 140.205 45.8258 140.218 45.8154C140.228 45.798 140.239 45.7806 140.244 45.7719C140.25 45.7632 140.255 45.7545 140.267 45.7441C140.278 45.7267 140.289 45.7093 140.307 45.6902C140.312 45.6815 140.317 45.6728 140.324 45.6711C140.34 45.645 140.356 45.6189 140.381 45.5981C140.388 45.5964 140.386 45.5894 140.393 45.5877C140.411 45.5686 140.427 45.5425 140.438 45.5251C140.461 45.4973 140.477 45.4712 140.5 45.4434C140.518 45.4243 140.541 45.3965 140.559 45.3774C140.564 45.3687 140.569 45.36 140.576 45.3583C140.587 45.3409 140.606 45.3288 140.617 45.3114C140.629 45.301 140.64 45.2836 140.653 45.2732C140.665 45.2628 140.677 45.2525 140.688 45.235C140.7 45.2247 140.711 45.2072 140.723 45.1969C140.736 45.1865 140.748 45.1761 140.759 45.1587C140.764 45.15 140.771 45.1483 140.777 45.1396C140.794 45.1205 140.807 45.1101 140.824 45.091C140.83 45.0823 140.837 45.0806 140.842 45.0719C140.855 45.0615 140.867 45.0512 140.879 45.0408C140.892 45.0304 140.904 45.02 140.916 45.0096C140.936 44.9976 140.954 44.9785 140.973 44.9664C140.98 44.9647 140.985 44.956 140.992 44.9543C141.017 44.9336 141.036 44.9215 141.061 44.9007C141.068 44.899 141.074 44.8903 141.081 44.8887C141.1 44.8766 141.119 44.8645 141.13 44.8471C141.135 44.8384 141.15 44.8351 141.155 44.8263C141.174 44.8143 141.187 44.8039 141.206 44.7918C141.213 44.7902 141.218 44.7814 141.225 44.7798C141.252 44.766 141.27 44.7469 141.296 44.7332L141.303 44.7315C141.33 44.7178 141.354 44.697 141.381 44.6833C141.388 44.6816 141.393 44.6729 141.407 44.6695C141.427 44.6574 141.439 44.6471 141.46 44.642C141.467 44.6403 141.479 44.63 141.486 44.6283C141.506 44.6162 141.52 44.6129 141.539 44.6008C141.546 44.5991 141.559 44.5887 141.566 44.587C141.585 44.575 141.599 44.5716 141.619 44.5596C141.626 44.5579 141.638 44.5475 141.645 44.5458C141.664 44.5338 141.692 44.527 141.712 44.515L141.719 44.5133C141.745 44.4995 141.773 44.4928 141.793 44.4808C141.8 44.4791 141.807 44.4774 141.814 44.4757C141.835 44.4707 141.847 44.4603 141.868 44.4553C141.875 44.4536 141.89 44.4502 141.897 44.4486C141.918 44.4435 141.932 44.4402 141.953 44.4351C141.96 44.4334 141.967 44.4318 141.981 44.4284C142.009 44.4217 142.03 44.4166 142.058 44.4099C142.086 44.4032 142.107 44.3982 142.135 44.3915C142.143 44.3898 142.15 44.3881 142.157 44.3864C142.171 44.3831 142.192 44.378 142.207 44.3817C142.214 44.38 142.229 44.3767 142.236 44.375C142.25 44.3716 142.264 44.3683 142.279 44.3719C142.286 44.3703 142.3 44.3669 142.309 44.3722C142.323 44.3689 142.339 44.3726 142.353 44.3692C142.367 44.3658 142.376 44.3712 142.39 44.3678C142.404 44.3645 142.413 44.3698 142.427 44.3665C142.441 44.3631 142.456 44.3668 142.47 44.3634C142.478 44.3617 142.493 44.3654 142.5 44.3637C142.516 44.3674 142.53 44.364 142.546 44.3677C142.553 44.366 142.569 44.3697 142.576 44.368C142.583 44.3663 142.584 44.3734 142.591 44.3717C142.607 44.3753 142.623 44.379 142.639 44.3827C142.639 44.3827 142.646 44.381 142.647 44.388C142.67 44.39 142.687 44.4007 142.71 44.4027C142.726 44.4064 142.75 44.4154 142.766 44.4191L142.775 44.4244C142.791 44.4281 142.799 44.4334 142.815 44.4371C142.822 44.4354 142.824 44.4424 142.831 44.4408C142.839 44.4461 142.855 44.4498 142.864 44.4551C142.871 44.4534 142.873 44.4605 142.88 44.4588C142.897 44.4695 142.913 44.4732 142.923 44.4855C142.923 44.4855 142.925 44.4926 142.932 44.4909C142.942 44.5033 142.958 44.5069 142.968 44.5193C142.97 44.5263 142.977 44.5246 142.979 44.5317C142.987 44.537 142.998 44.5494 143.006 44.5547C143.008 44.5618 143.015 44.5601 143.017 44.5671C143.027 44.5795 143.045 44.5902 143.055 44.6026L130.46 31.3742C130.45 31.3618 130.439 31.3494 130.422 31.3387C130.42 31.3317 130.413 31.3334 130.412 31.3263C130.403 31.321 130.392 31.3086 130.384 31.3033C130.382 31.2962 130.375 31.2979 130.373 31.2909C130.363 31.2785 130.347 31.2748 130.337 31.2625C130.337 31.2625 130.335 31.2554 130.328 31.2571C130.311 31.2464 130.302 31.2411 130.285 31.2304C130.278 31.2321 130.276 31.225 130.269 31.2267C130.26 31.2214 130.244 31.2177 130.236 31.2123C130.229 31.214 130.227 31.207 130.22 31.2087C130.204 31.205 130.196 31.1997 130.18 31.196L130.171 31.1906C130.155 31.187 130.138 31.1763 130.115 31.1743C130.1 31.1706 130.077 31.1686 130.059 31.1579C130.059 31.1579 130.052 31.1596 130.051 31.1526C130.035 31.1489 130.019 31.1453 130.003 31.1416C129.996 31.1433 129.995 31.1362 129.988 31.1379C129.988 31.1379 129.981 31.1396 129.979 31.1326C129.972 31.1342 129.963 31.1289 129.956 31.1306C129.94 31.1269 129.926 31.1303 129.911 31.1266C129.904 31.1283 129.904 31.1283 129.895 31.1229C129.888 31.1246 129.881 31.1263 129.872 31.1209C129.856 31.1173 129.842 31.1206 129.828 31.124C129.821 31.1257 129.821 31.1257 129.813 31.1203C129.806 31.122 129.799 31.1237 129.79 31.1183C129.776 31.1217 129.767 31.1163 129.753 31.1197C129.746 31.1214 129.739 31.1231 129.739 31.1231C129.732 31.1247 129.725 31.1264 129.718 31.1281C129.711 31.1298 129.697 31.1331 129.688 31.1278C129.681 31.1295 129.681 31.1295 129.674 31.1311C129.667 31.1328 129.653 31.1362 129.646 31.1379C129.639 31.1395 129.625 31.1429 129.618 31.1446C129.611 31.1463 129.611 31.1463 129.604 31.1479C129.59 31.1513 129.576 31.1547 129.562 31.158C129.555 31.1597 129.548 31.1614 129.541 31.1631C129.541 31.1631 129.541 31.1631 129.534 31.1647C129.512 31.1698 129.491 31.1748 129.463 31.1815C129.463 31.1815 129.463 31.1815 129.456 31.1832C129.444 31.2234 129.422 31.2284 129.401 31.2334Z" fill="#E3E0EB" stroke="#171753" stroke-width="0.6"/>
<path d="M143.354 44.5756C143.377 44.674 143.35 44.7771 143.272 44.8551C143.157 44.9643 142.971 44.9641 142.862 44.8491C142.854 44.8437 142.852 44.8367 142.843 44.8314L142.834 44.826C142.826 44.8207 142.824 44.8137 142.815 44.8083L142.822 44.8066L142.814 44.8013L142.808 44.81C142.8 44.8046 142.791 44.7993 142.789 44.7923L142.781 44.7869C142.772 44.7816 142.763 44.7762 142.756 44.7779L142.747 44.7725C142.739 44.7672 142.732 44.7689 142.723 44.7635L142.714 44.7582C142.706 44.7528 142.697 44.7475 142.69 44.7492L142.681 44.7438C142.672 44.7385 142.657 44.7348 142.641 44.7311C142.625 44.7275 142.616 44.7221 142.601 44.7185L142.594 44.7201C142.578 44.7165 142.571 44.7181 142.555 44.7145L142.524 44.7071C142.508 44.7035 142.501 44.7051 142.485 44.7015L142.462 44.6995C142.455 44.7012 142.44 44.6975 142.433 44.6992C142.426 44.7009 142.41 44.6972 142.403 44.6989C142.396 44.7005 142.387 44.6952 142.373 44.6986C142.359 44.7019 142.35 44.6966 142.336 44.6999L142.314 44.6979C142.299 44.7013 142.292 44.703 142.277 44.6993L142.256 44.7043C142.242 44.7077 142.228 44.7111 142.213 44.7144L142.199 44.7178C142.171 44.7245 142.15 44.7295 142.129 44.7346C142.108 44.7396 142.087 44.7446 142.066 44.7497L142.045 44.7547C142.024 44.7598 142.01 44.7631 141.996 44.7665L141.968 44.7732C141.953 44.7765 141.939 44.7799 141.92 44.792L141.899 44.797C141.871 44.8037 141.851 44.8158 141.83 44.8208L141.823 44.8225C141.802 44.8275 141.783 44.8396 141.763 44.8517L141.737 44.8654C141.723 44.8688 141.704 44.8808 141.69 44.8842L141.663 44.8979C141.651 44.9083 141.63 44.9134 141.617 44.9237L141.591 44.9375C141.578 44.9479 141.557 44.9529 141.545 44.9633L141.538 44.965L141.526 44.9754C141.499 44.9891 141.48 45.0012 141.453 45.0149C141.427 45.0287 141.409 45.0477 141.383 45.0615L141.363 45.0736C141.351 45.0839 141.332 45.096 141.319 45.1064L141.3 45.1185C141.28 45.1305 141.268 45.1409 141.249 45.153L141.242 45.1547L141.229 45.165C141.211 45.1841 141.185 45.1979 141.167 45.217L141.148 45.229C141.136 45.2394 141.116 45.2515 141.098 45.2706C141.086 45.281 141.074 45.2913 141.068 45.3L141.014 45.3503C141.001 45.3607 140.983 45.3798 140.971 45.3902L140.821 45.5375C140.808 45.5479 140.797 45.5653 140.785 45.5757L140.767 45.5948C140.75 45.6139 140.732 45.633 140.714 45.6521C140.714 45.6521 140.707 45.6538 140.709 45.6608C140.691 45.6799 140.668 45.7077 140.652 45.7338C140.634 45.7529 140.624 45.7703 140.606 45.7894L140.601 45.7981C140.584 45.8242 140.567 45.8433 140.551 45.8694L140.54 45.8868C140.529 45.9043 140.519 45.9217 140.508 45.9391L140.492 45.9652C140.481 45.9826 140.476 45.9913 140.465 46.0087L140.449 46.0348C140.438 46.0523 140.433 46.061 140.422 46.0784L140.401 46.1132C140.396 46.1219 140.385 46.1393 140.381 46.1551L140.367 46.1882C140.363 46.2039 140.351 46.2143 140.347 46.2301L140.333 46.2632C140.329 46.2789 140.317 46.2893 140.313 46.305L140.297 46.3312C140.293 46.3469 140.283 46.3643 140.279 46.38L140.27 46.4045C140.261 46.4289 140.25 46.4463 140.248 46.4691C140.239 46.4935 140.23 46.518 140.228 46.5407C140.225 46.5565 140.216 46.5809 140.214 46.6037L140.212 46.6264C140.208 46.6422 140.204 46.6579 140.201 46.6736L140.197 46.6894C140.191 46.7279 140.186 46.7663 140.18 46.8048L140.176 46.8206C140.173 46.8363 140.174 46.8433 140.178 46.8574L140.176 46.8801C140.179 46.8942 140.174 46.9029 140.175 46.9099L140.173 46.9327C140.175 46.9397 140.171 46.9555 140.173 46.9625L140.178 46.9836C140.18 46.9906 140.181 46.9976 140.183 47.0046L140.185 47.0117L140.192 47.0398C140.197 47.0609 140.198 47.0679 140.202 47.0819C140.203 47.089 140.205 47.096 140.207 47.103C140.21 47.1171 140.212 47.1241 140.215 47.1382L140.218 47.1522C140.22 47.1592 140.223 47.1733 140.232 47.1786L140.234 47.1857C140.236 47.1927 140.237 47.1997 140.246 47.2051L140.256 47.2174C140.258 47.2245 140.267 47.2298 140.268 47.2368C140.279 47.2492 140.28 47.2562 140.291 47.2686C140.301 47.281 140.31 47.2863 140.312 47.2934C140.421 47.4084 140.421 47.5942 140.306 47.7034C140.191 47.8126 140.005 47.8124 139.896 47.6973L127.301 34.4689C127.282 34.4512 127.269 34.4318 127.25 34.4141L127.242 34.4087C127.23 34.3893 127.211 34.3716 127.198 34.3522L127.185 34.3258C127.183 34.3188 127.173 34.3064 127.171 34.2993L127.416 34.1442L127.168 34.2853C127.166 34.2783 127.157 34.2729 127.156 34.2659C127.144 34.2465 127.14 34.2324 127.128 34.213C127.128 34.213 127.126 34.206 127.125 34.199C127.123 34.192 127.123 34.192 127.121 34.1849C127.109 34.1655 127.104 34.1444 127.099 34.1234L127.096 34.1093C127.093 34.0953 127.091 34.0882 127.089 34.0812C127.086 34.0672 127.082 34.0531 127.079 34.039L127.077 34.032C127.074 34.018 127.069 33.9969 127.066 33.9828C127.064 33.9758 127.062 33.9688 127.062 33.9688C127.059 33.9547 127.056 33.9407 127.052 33.9266C127.049 33.9126 127.047 33.9055 127.045 33.8985C127.044 33.8915 127.042 33.8844 127.04 33.8774C127.039 33.8704 127.037 33.8634 127.034 33.8493L127.032 33.8423C127.03 33.8353 127.027 33.8212 127.025 33.8142C127.024 33.8072 127.022 33.8001 127.022 33.8001C127.02 33.7931 127.019 33.7861 127.022 33.7703C127.019 33.7563 127.024 33.7476 127.023 33.7405L127.025 33.7178C127.023 33.7108 127.027 33.695 127.025 33.688C127.023 33.681 127.027 33.6652 127.025 33.6582L127.027 33.6355C127.031 33.6197 127.028 33.6057 127.026 33.5986C127.024 33.5916 127.022 33.5846 127.028 33.5759C127.026 33.5689 127.031 33.5602 127.028 33.5461L127.032 33.5006C127.034 33.4778 127.034 33.448 127.043 33.4236C127.045 33.4008 127.054 33.3764 127.055 33.3466C127.055 33.3466 127.06 33.3379 127.058 33.3309L127.091 33.1893C127.095 33.1735 127.104 33.1491 127.108 33.1334L127.111 33.1176C127.12 33.0932 127.129 33.0688 127.139 33.0443C127.139 33.0443 127.137 33.0373 127.144 33.0356C127.153 33.0112 127.162 32.9867 127.169 32.9553L127.175 32.9466L127.187 32.9064C127.193 32.8977 127.196 32.8819 127.202 32.8732L127.225 32.8157C127.23 32.8069 127.236 32.7982 127.234 32.7912L127.284 32.6901C127.295 32.6727 127.298 32.657 127.311 32.6466L127.47 32.3784C127.48 32.3609 127.486 32.3522 127.496 32.3348L127.518 32.3L127.523 32.2913C127.539 32.2652 127.555 32.2391 127.58 32.2183L127.585 32.2096L127.591 32.2009C127.608 32.1818 127.624 32.1557 127.642 32.1366C127.642 32.1366 127.649 32.1349 127.647 32.1279C127.671 32.1001 127.694 32.0723 127.717 32.0445C127.74 32.0167 127.757 31.9976 127.781 31.9698L127.839 31.9038C127.857 31.8847 127.869 31.8743 127.88 31.8569L127.915 31.8187C127.928 31.8084 127.938 31.7909 127.958 31.7789L128.013 31.7286C128.037 31.7079 128.055 31.6888 128.074 31.6767L128.136 31.6248C128.149 31.6144 128.161 31.604 128.181 31.5919L128.186 31.5832C128.205 31.5712 128.216 31.5538 128.235 31.5417L128.255 31.5296C128.28 31.5089 128.299 31.4968 128.324 31.476C128.324 31.476 128.329 31.4673 128.336 31.4656L128.527 31.3309C128.546 31.3189 128.566 31.3068 128.592 31.2931L128.599 31.2914C128.625 31.2776 128.652 31.2639 128.67 31.2448L128.677 31.2431L128.84 31.152L128.848 31.1503L128.981 31.0886C129.001 31.0765 129.022 31.0715 129.048 31.0577L129.055 31.0561C129.062 31.0544 129.062 31.0544 129.069 31.0527C129.09 31.0477 129.117 31.0339 129.138 31.0289L129.145 31.0272L129.159 31.0238L129.166 31.0222L129.359 30.9611C129.388 30.9544 129.409 30.9493 129.437 30.9426C129.465 30.9359 129.493 30.9292 129.521 30.9225L129.528 30.9208L129.563 30.9124C129.577 30.909 129.591 30.9057 129.605 30.9023L129.619 30.899L129.705 30.8858C129.719 30.8825 129.735 30.8862 129.749 30.8828C129.756 30.8811 129.77 30.8778 129.779 30.8831C129.786 30.8814 129.793 30.8798 129.802 30.8851C129.816 30.8817 129.832 30.8854 129.846 30.8821C129.853 30.8804 129.86 30.8787 129.868 30.884C129.875 30.8824 129.882 30.8807 129.891 30.886C129.907 30.8897 129.928 30.8847 129.944 30.8883C129.951 30.8867 129.959 30.892 129.966 30.8903C129.974 30.8886 129.982 30.894 129.982 30.894C130.005 30.896 130.021 30.8996 130.035 30.8963C130.042 30.8946 130.05 30.9 130.058 30.8983C130.058 30.8983 130.066 30.9036 130.073 30.9019L130.089 30.9056C130.112 30.9076 130.135 30.9096 130.152 30.9203L130.161 30.9256C130.161 30.9256 130.168 30.924 130.169 30.931C130.192 30.933 130.217 30.942 130.241 30.951C130.265 30.96 130.288 30.962 130.313 30.971L130.321 30.9764L130.33 30.9817C130.346 30.9854 130.37 30.9944 130.388 31.0051L130.412 31.0141C130.429 31.0248 130.445 31.0285 130.463 31.0392L130.48 31.0499C130.504 31.0589 130.524 31.0766 130.541 31.0873L130.55 31.0927C130.567 31.1034 130.584 31.1141 130.595 31.1264L130.612 31.1371C130.63 31.1478 130.64 31.1602 130.658 31.1709L130.677 31.1886C130.696 31.2063 130.715 31.2241 130.725 31.2364L143.284 44.4364C143.316 44.4806 143.342 44.5264 143.354 44.5756ZM140.278 45.2883C140.301 45.2605 140.324 45.2327 140.342 45.2136L140.36 45.1945C140.37 45.1771 140.39 45.1651 140.401 45.1476C140.413 45.1373 140.424 45.1198 140.443 45.1078L140.581 44.9708C140.599 44.9517 140.618 44.9396 140.636 44.9205L140.654 44.9014C140.666 44.8911 140.678 44.8807 140.691 44.8703L140.698 44.8686C140.71 44.8582 140.723 44.8478 140.742 44.8358C140.76 44.8167 140.779 44.8046 140.797 44.7855L140.816 44.7735C140.841 44.7527 140.866 44.7319 140.89 44.7111L140.91 44.6991C140.935 44.6783 140.954 44.6662 140.973 44.6542L140.998 44.6334C141.018 44.6213 141.037 44.6093 141.056 44.5972L141.083 44.5835C141.109 44.5697 141.134 44.549 141.16 44.5352L141.167 44.5335C141.194 44.5198 141.226 44.4973 141.252 44.4836L141.271 44.4715C141.298 44.4578 141.317 44.4457 141.337 44.4337L141.37 44.4182C141.39 44.4062 141.411 44.4011 141.423 44.3908L141.456 44.3753C141.476 44.3633 141.497 44.3582 141.516 44.3462L141.543 44.3324C141.569 44.3187 141.59 44.3136 141.617 44.2999L141.631 44.2965C141.657 44.2828 141.692 44.2744 141.719 44.2607L141.733 44.2573L141.74 44.2556C141.761 44.2506 141.78 44.2385 141.801 44.2335L141.837 44.2251C141.858 44.22 141.879 44.215 141.898 44.2029C141.905 44.2013 141.919 44.1979 141.926 44.1962C141.954 44.1895 141.982 44.1828 142.011 44.1761C142.039 44.1694 142.074 44.161 142.102 44.1542L142.123 44.1492C142.151 44.1425 142.172 44.1375 142.188 44.1411L142.195 44.1394L130.266 31.6137C130.257 31.6083 130.255 31.6013 130.247 31.5959L130.238 31.5906C130.229 31.5852 130.227 31.5782 130.22 31.5799L130.212 31.5745C130.203 31.5692 130.194 31.5638 130.193 31.5568C130.193 31.5568 130.193 31.5568 130.184 31.5515C130.175 31.5461 130.166 31.5408 130.158 31.5354L130.149 31.5301C130.14 31.5247 130.133 31.5264 130.125 31.5211L130.116 31.5157C130.107 31.5104 130.099 31.505 130.091 31.5067L130.083 31.5014C130.067 31.4977 130.058 31.4923 130.051 31.494C130.043 31.4887 130.027 31.485 130.013 31.4884C130.013 31.4884 130.006 31.49 130.004 31.483C129.988 31.4793 129.973 31.4757 129.966 31.4774L129.95 31.4737C129.95 31.4737 129.95 31.4737 129.943 31.4754L129.927 31.4717C129.918 31.4663 129.904 31.4697 129.889 31.466L129.882 31.4677L129.868 31.4711C129.854 31.4744 129.845 31.4691 129.831 31.4724L129.801 31.4721C129.794 31.4738 129.787 31.4755 129.771 31.4718L129.655 31.4846C129.655 31.4846 129.648 31.4863 129.641 31.488L129.599 31.4981C129.599 31.4981 129.592 31.4998 129.585 31.5014C129.571 31.5048 129.55 31.5098 129.529 31.5149C129.508 31.5199 129.487 31.5249 129.473 31.5283L129.459 31.5317L129.3 31.5843C129.3 31.5843 129.293 31.586 129.286 31.5877C129.272 31.591 129.253 31.6031 129.232 31.6081L129.225 31.6098C129.211 31.6132 129.191 31.6252 129.177 31.6286L129.11 31.6595L129.103 31.6611L129.005 31.7144L128.998 31.7161L128.939 31.7523L128.932 31.754C128.913 31.766 128.894 31.7781 128.874 31.7902L128.867 31.7919C128.848 31.8039 128.835 31.8143 128.816 31.8264L128.65 31.9403L128.643 31.942C128.624 31.954 128.606 31.9731 128.586 31.9852L128.567 31.9973C128.555 32.0076 128.535 32.0197 128.523 32.0301C128.523 32.0301 128.516 32.0318 128.518 32.0388L128.456 32.0907C128.456 32.0907 128.45 32.0994 128.443 32.1011L128.424 32.1132C128.412 32.1236 128.394 32.1427 128.381 32.153L128.334 32.2016C128.321 32.212 128.309 32.2224 128.298 32.2398L128.179 32.3647C128.162 32.3838 128.144 32.4029 128.128 32.429C128.112 32.4551 128.087 32.4759 128.071 32.502L128.066 32.5107C128.055 32.5281 128.044 32.5456 128.027 32.5647L128.021 32.5734C128.021 32.5734 128.014 32.575 128.016 32.5821C127.998 32.6012 127.988 32.6186 127.972 32.6447L127.911 32.7334L127.906 32.7421L127.883 32.7699L127.877 32.7786L127.722 33.0609L127.706 33.087L127.7 33.0957L127.677 33.1533L127.672 33.162C127.668 33.1778 127.657 33.1952 127.655 33.2179C127.655 33.2179 127.655 33.2179 127.657 33.225C127.648 33.2494 127.644 33.2651 127.641 33.2809L127.637 33.2966C127.633 33.3123 127.63 33.3281 127.624 33.3368L127.606 33.4154L127.608 33.4225L127.604 33.4382C127.604 33.4382 127.606 33.4452 127.599 33.4469C127.595 33.4626 127.591 33.4784 127.588 33.4941C127.584 33.5098 127.58 33.5256 127.585 33.5466L127.581 33.5922C127.581 33.5922 127.583 33.5992 127.585 33.6062L127.587 33.6798C127.587 33.6798 127.589 33.6869 127.591 33.6939L127.592 33.7307L127.594 33.7377L127.595 33.7746L127.597 33.7816L127.6 33.7956C127.602 33.8027 127.605 33.8167 127.609 33.8308C127.61 33.8378 127.612 33.8448 127.614 33.8519L127.615 33.8589L127.619 33.8729C127.619 33.8729 127.62 33.88 127.622 33.887L127.351 33.9963L127.624 33.894C127.625 33.901 127.629 33.9151 127.638 33.9204L127.641 33.9345C127.643 33.9415 127.651 33.9469 127.655 33.9609L127.665 33.9733L127.668 33.9874L127.67 33.9944C127.68 34.0068 127.682 34.0138 127.693 34.0262C127.703 34.0385 127.712 34.0439 127.713 34.0509L139.625 46.566C139.625 46.566 139.625 46.566 139.624 46.559L139.626 46.5362C139.635 46.5118 139.637 46.489 139.639 46.4662L139.646 46.4348C139.655 46.4103 139.662 46.3789 139.671 46.3544C139.679 46.323 139.688 46.2985 139.702 46.2654C139.702 46.2654 139.7 46.2584 139.707 46.2567C139.716 46.2322 139.731 46.1991 139.738 46.1676L139.752 46.1345C139.763 46.1171 139.765 46.0943 139.776 46.0769L139.79 46.0438C139.799 46.0193 139.81 46.0019 139.814 45.9862L139.833 45.9443C139.844 45.9269 139.848 45.9112 139.858 45.8938C139.862 45.878 139.874 45.8676 139.878 45.8519C139.889 45.8345 139.892 45.8188 139.903 45.8014L139.923 45.7595C139.933 45.7421 139.944 45.7247 139.955 45.7073L139.976 45.6724C139.987 45.655 139.998 45.6376 140.008 45.6202L140.03 45.5854C140.04 45.568 140.058 45.5489 140.067 45.5244L140.083 45.4983C140.099 45.4722 140.122 45.4444 140.145 45.4166L140.158 45.4062C140.175 45.3871 140.192 45.361 140.209 45.3419C140.232 45.3439 140.255 45.3161 140.278 45.2883Z" fill="#171753" stroke="#171753" stroke-width="0.6"/>
<path d="M139.953 46.4428C140.215 45.5483 141.167 44.6522 142.068 44.4443C142.968 44.2294 143.486 44.7815 143.217 45.6777C142.955 46.5722 142.01 47.4666 141.102 47.6761C140.201 47.8841 139.685 47.3389 139.953 46.4428Z" fill="#E3E0EB" stroke="#171753" stroke-width="0.6"/>
<path d="M136.989 35.1515L133.904 35.9196L134.943 37.7307L134.839 38.0916C134.055 40.8332 135.266 44.9767 137.554 47.3479L144.661 54.7212L147.166 59.1007L150.44 58.2855L150.438 58.2785C151.245 58.0181 151.897 57.2898 152.231 56.1196L152.442 55.3821C153.226 52.6405 152.016 48.497 149.728 46.1258L140.616 36.6829C139.361 35.3798 138.046 34.8809 136.989 35.1515Z" fill="#6B5FA5" stroke="#171753" stroke-width="0.6"/>
<path d="M152.643 51.0137C153.035 52.5912 153.094 54.17 152.721 55.4541L152.51 56.1916C152.167 57.3863 151.486 58.211 150.582 58.5256C150.563 58.5378 150.536 58.5518 150.508 58.5588L147.234 59.374C147.108 59.4054 146.975 59.3492 146.917 59.237L144.426 54.8838L137.343 47.5491C134.996 45.1182 133.743 40.8362 134.559 38.0123L134.626 37.7723L133.65 36.0647C133.608 35.9858 133.599 35.8912 133.638 35.8071C133.676 35.723 133.743 35.6618 133.834 35.6391L136.919 34.871C138.125 34.5707 139.551 35.1538 140.827 36.4815L149.938 45.9243C151.215 47.252 152.173 49.1279 152.643 51.0137ZM150.314 58.0189C150.328 58.0154 150.334 58.0067 150.348 58.0032C151.098 57.7568 151.652 57.0827 151.951 56.0404L152.162 55.3029C152.925 52.6559 151.735 48.6263 149.518 46.327L140.406 36.8841C139.273 35.7143 138.054 35.184 137.052 35.4336L134.331 36.1109L135.176 37.5906C135.215 37.6555 135.229 37.7414 135.202 37.8149L135.099 38.1758C134.336 40.8228 135.525 44.8524 137.743 47.1517L144.872 54.5197C144.891 54.5373 144.903 54.5566 144.915 54.5758L147.314 58.766L150.314 58.0189Z" fill="#171753" stroke="#171753" stroke-width="0.6"/>
<path d="M149.35 56.1528L149.139 56.8903C148.355 59.6319 145.862 59.9327 143.574 57.5615L134.455 48.1204C132.167 45.7491 130.949 41.6074 131.741 38.864L131.952 38.1265C132.736 35.385 135.229 35.0842 137.517 37.4554L146.629 46.8982C148.922 49.2607 150.142 53.4095 149.35 56.1528Z" fill="#E3E0EB" stroke="#171753" stroke-width="0.6"/>
<path d="M149.551 51.7832C149.943 53.3606 150.001 54.9395 149.629 56.2236L149.418 56.9611C149.043 58.2679 148.28 59.1206 147.264 59.3737C146.058 59.6739 144.639 59.0891 143.363 57.7614L134.251 48.3186C131.904 45.8877 130.651 41.6057 131.467 38.7818L131.678 38.0443C132.047 36.7462 132.817 35.8918 133.827 35.6405C135.033 35.3402 136.452 35.9251 137.728 37.2527L146.839 46.6956C148.123 48.0215 149.081 49.8973 149.551 51.7832ZM149.07 56.0723C149.833 53.4254 148.643 49.3958 146.425 47.0964L137.314 37.6536C136.181 36.4838 134.962 35.9534 133.967 36.2013C133.16 36.4021 132.548 37.1129 132.232 38.2043L132.021 38.9418C131.258 41.5888 132.447 45.6184 134.665 47.9177L143.777 57.3605C144.909 58.5304 146.129 59.0607 147.124 58.8128C147.93 58.6121 148.543 57.9012 148.859 56.8099L149.07 56.0723Z" fill="#171753" stroke="#171753" stroke-width="0.6"/>
<path d="M127.07 33.9506L129.298 36.1793C127.872 39.3886 124.247 40.191 122.612 40.191C124.752 39.4778 126.475 35.7335 127.07 33.9506Z" fill="#171753"/>
<path d="M152.012 49.1825L148.891 50.074C151.031 55.0663 149.189 57.8002 148 58.5431H149.337L151.566 57.6516C153.706 55.512 152.755 51.114 152.012 49.1825Z" fill="#171753"/>
<defs>
<filter id="filter0_d_140_6181" x="0" y="54" width="237" height="80.0552" filterUnits="userSpaceOnUse" color-interpolation-filters="sRGB">
<feFlood flood-opacity="0" result="BackgroundImageFix"/>
<feColorMatrix in="SourceAlpha" type="matrix" values="0 0 0 0 0 0 0 0 0 0 0 0 0 0 0 0 0 0 127 0" result="hardAlpha"/>
<feOffset dy="4"/>
<feGaussianBlur stdDeviation="2"/>
<feComposite in2="hardAlpha" operator="out"/>
<feColorMatrix type="matrix" values="0 0 0 0 0.0901961 0 0 0 0 0.0901961 0 0 0 0 0.32549 0 0 0 0.25 0"/>
<feBlend mode="normal" in2="BackgroundImageFix" result="effect1_dropShadow_140_6181"/>
<feBlend mode="normal" in="SourceGraphic" in2="effect1_dropShadow_140_6181" result="shape"/>
</filter>
</defs>
</svg>
