<?xml version="1.0"?>
<svg width="143" height="183" xmlns="http://www.w3.org/2000/svg" xmlns:svg="http://www.w3.org/2000/svg">

 <g class="layer">
  <title>Layer 1</title>
  <path d="m4.91,17.43l-3.69,2.19l0,76.93c0,3.63 2.46,8.03 5.54,9.87l126.15,74.99c1.54,0.92 2.94,0.99 3.93,0.39l3.66,-2.18c1,-0.6 1.61,-1.87 1.61,-3.7l0,-76.94l-137.2,-81.55z" fill="white" id="svg_1"/>
  <path d="m135.37,183c-0.92,0 -1.88,-0.28 -2.87,-0.88l-126.15,-75c-3.32,-1.97 -5.92,-6.62 -5.92,-10.57l0,-76.93c0,-0.28 0.14,-0.57 0.41,-0.71l3.7,-2.18c0.24,-0.14 0.55,-0.14 0.79,0l137.19,81.55c0.24,0.14 0.41,0.42 0.41,0.7l0,76.94c0,2.08 -0.71,3.63 -2.02,4.4l-3.66,2.19c-0.03,0 -0.06,0.03 -0.06,0.03c-0.55,0.32 -1.17,0.46 -1.82,0.46zm-133.33,-162.92l0,76.47c0,3.35 2.29,7.47 5.13,9.13l126.15,75.03c1.2,0.7 2.36,0.85 3.15,0.39c0.03,0 0.06,-0.04 0.06,-0.04l3.6,-2.11c0.78,-0.46 1.23,-1.52 1.23,-2.96l0,-76.51l-136.45,-81.09l-2.87,1.69z" fill="#171753" id="svg_2"/>
  <path d="m1.22,19.62l0,76.93c0,3.63 2.46,8.03 5.54,9.87l126.15,74.99c3.04,1.84 5.54,0.36 5.54,-3.27l0,-76.97l-137.23,-81.55z" fill="white" id="svg_3"/>
  <path d="m135.37,183c-0.92,0 -1.88,-0.32 -2.87,-0.88l-126.15,-75c-3.32,-1.97 -5.92,-6.62 -5.92,-10.57l0,-76.93c0,-0.28 0.14,-0.57 0.41,-0.71c0.24,-0.14 0.55,-0.14 0.79,0l137.2,81.55c0.24,0.15 0.41,0.43 0.41,0.71l0,76.93c0,1.45 -0.34,2.65 -1.03,3.49c-0.68,0.92 -1.68,1.41 -2.84,1.41zm-133.33,-161.97l0,75.52c0,3.35 2.29,7.47 5.13,9.13l126.15,75.03c0.75,0.42 1.47,0.67 2.09,0.67c0.65,0 1.19,-0.25 1.57,-0.74c0.45,-0.56 0.68,-1.41 0.68,-2.47l0,-76.51l-135.62,-80.63z" fill="#171753" id="svg_4"/>
  <path d="m136.6,76.58l-126.14,-75c-1.54,-0.91 -2.95,-0.98 -3.94,-0.38l-3.66,2.18c-1.02,0.6 -1.64,1.87 -1.64,3.66l0,12.58l137.2,81.55l3.69,-2.19l0,-12.57c0,-3.59 -2.46,-8 -5.51,-9.83z" fill="#49CE8B" id="svg_5"/>
  <path d="m138.45,102.01c-0.14,0 -0.27,-0.03 -0.41,-0.1l-137.2,-81.59c-0.24,-0.14 -0.41,-0.42 -0.41,-0.7l0,-12.58c0,-2.04 0.72,-3.59 2.02,-4.37l3.66,-2.18c0.04,-0.03 0.07,-0.03 0.1,-0.03c1.27,-0.74 2.95,-0.57 4.66,0.42l126.14,75c3.32,1.97 5.92,6.62 5.92,10.56l0,12.58c0,0.28 -0.13,0.56 -0.41,0.7l-3.69,2.19c-0.11,0.07 -0.24,0.1 -0.38,0.1zm-136.41,-82.85l136.41,81.09l2.87,-1.72l0,-12.09c0,-3.34 -2.29,-7.46 -5.13,-9.12l-126.14,-75.03c-1.2,-0.71 -2.36,-0.85 -3.15,-0.39c-0.04,0.03 -0.07,0.03 -0.1,0.07l-3.56,2.11c-0.79,0.5 -1.2,1.52 -1.2,2.96l0,12.12z" fill="#171753" id="svg_6"/>
  <path d="m122.1,91.48l16.32,9.69l3.69,-2.19l0,-12.57c0,-1.87 -0.68,-3.98 -1.74,-5.81l-18.27,10.88z" fill="#171753" id="svg_7"/>
  <path d="m138.45,102.01c-0.14,0 -0.27,-0.03 -0.41,-0.1l-16.32,-9.69c-0.24,-0.14 -0.41,-0.42 -0.41,-0.7c0,-0.29 0.14,-0.57 0.41,-0.71l18.27,-10.85c0.38,-0.21 0.85,-0.1 1.1,0.28c1.19,2.05 1.88,4.27 1.88,6.24l0,12.57c0,0.29 -0.14,0.57 -0.41,0.71l-3.7,2.18c-0.14,0.04 -0.27,0.07 -0.41,0.07zm-14.75,-10.53l14.75,8.77l2.87,-1.72l0,-12.09c0,-1.44 -0.44,-3.1 -1.26,-4.68l-16.36,9.72z" fill="#171753" id="svg_8"/>
  <path d="m138.45,101.17l0,-12.58c0,-3.63 -2.46,-8.03 -5.54,-9.86l-126.15,-74.96c-3.04,-1.8 -5.54,-0.32 -5.54,3.27l0,12.58l137.23,81.55z" fill="#49CE8B" id="svg_9"/>
  <path d="m138.45,102.01c-0.14,0 -0.27,-0.03 -0.41,-0.1l-137.2,-81.59c-0.24,-0.14 -0.41,-0.42 -0.41,-0.7l0,-12.58c0,-2.96 1.51,-4.86 3.87,-4.86c0.92,0 1.88,0.28 2.87,0.88l126.15,75c3.32,1.97 5.92,6.62 5.92,10.57l0,12.57c0,0.28 -0.14,0.57 -0.41,0.71c-0.1,0.07 -0.24,0.1 -0.38,0.1zm-136.41,-82.85l135.59,80.6l0,-11.13c0,-3.35 -2.29,-7.47 -5.13,-9.13l-126.15,-74.99c-0.75,-0.43 -1.44,-0.67 -2.09,-0.67c-1.4,0 -2.25,1.19 -2.25,3.24l0,12.08l0.03,0z" fill="#171753" id="svg_10"/>
  <path d="m128.8,88.17c-1.06,-0.63 -1.91,-2.15 -1.91,-3.42c0,-1.27 0.85,-1.76 1.91,-1.12c1.06,0.63 1.92,2.14 1.92,3.41c0,1.27 -0.86,1.76 -1.92,1.13zm-9.13,-7.71c0,-1.27 -0.86,-2.79 -1.92,-3.42c-1.06,-0.64 -1.91,-0.11 -1.91,1.13c0,1.23 0.85,2.78 1.91,3.41c1.06,0.64 1.92,0.14 1.92,-1.12zm-11.05,-6.56c0,-1.27 -0.86,-2.78 -1.92,-3.41c-1.06,-0.64 -1.91,-0.11 -1.91,1.12c0,1.27 0.85,2.79 1.91,3.42c1.03,0.63 1.92,0.11 1.92,-1.13z" fill="#171753" id="svg_11"/>
  <path d="m129.66,89.26c-0.41,0 -0.82,-0.14 -1.27,-0.39c-1.3,-0.77 -2.32,-2.6 -2.32,-4.12c0,-1.79 1.57,-2.78 3.11,-1.86c1.3,0.77 2.33,2.6 2.33,4.15c0,0.64 -0.17,1.16 -0.48,1.55c-0.31,0.43 -0.82,0.67 -1.37,0.67zm-1.71,-5.11c-0.24,0 -0.28,0.43 -0.28,0.6c0,0.95 0.72,2.22 1.54,2.72c0.52,0.31 0.55,0.14 0.62,0.1c0.03,-0.03 0.1,-0.18 0.1,-0.53c0,-0.95 -0.72,-2.22 -1.54,-2.71c-0.24,-0.14 -0.37,-0.18 -0.44,-0.18zm-9.34,-1.48c-0.41,0 -0.82,-0.14 -1.27,-0.38c-1.3,-0.78 -2.32,-2.61 -2.32,-4.12c0,-1.8 1.57,-2.79 3.11,-1.87c1.3,0.77 2.32,2.61 2.32,4.15c0,0.64 -0.17,1.17 -0.47,1.55c-0.31,0.46 -0.82,0.67 -1.37,0.67zm-1.75,-5.1c-0.24,0 -0.27,0.42 -0.27,0.6c0,0.95 0.72,2.21 1.54,2.71c0.24,0.14 0.37,0.17 0.44,0.17c0.11,0 0.14,-0.03 0.14,-0.07c0.03,-0.03 0.1,-0.17 0.1,-0.53c0,-0.95 -0.72,-2.21 -1.54,-2.71c-0.17,-0.14 -0.3,-0.17 -0.41,-0.17zm-9.34,-1.45c-0.41,0 -0.82,-0.14 -1.26,-0.39c-1.3,-0.77 -2.33,-2.6 -2.33,-4.15c0,-1.8 1.57,-2.78 3.11,-1.87c1.3,0.78 2.33,2.61 2.33,4.16c0.03,1.34 -0.72,2.25 -1.85,2.25zm-1.71,-5.11c-0.24,0 -0.27,0.43 -0.27,0.6c0,0.95 0.72,2.22 1.54,2.72c0.24,0.14 0.37,0.17 0.44,0.17c0.24,0 0.28,-0.42 0.28,-0.6c0,-0.95 -0.72,-2.22 -1.54,-2.71c-0.21,-0.18 -0.38,-0.18 -0.45,-0.18z" fill="#171753" id="svg_12"/>
  <path d="m138.3,114.26l-135.88,-80.98l0,13.04l135.88,80.98l0,-13.04z" fill="#9BE7C4" id="svg_13" stroke="#171753" stroke-width="1.71"/>
  <path d="m29.2,66.01l106.13,62.6l0,8.44l-106.13,-62.6l0,-8.44z" fill="#49CE8B" id="svg_14"/>
  <path d="m29.2,79.93l106.13,62.6l0,8.45l-106.13,-62.61l0,-8.44z" fill="#49CE8B" id="svg_15"/>
  <path d="m29.2,93.21l106.13,62.6l0,8.44l-106.13,-62.6l0,-8.44z" fill="#49CE8B" id="svg_16"/>
  <path d="m29.2,106.48l106.13,62.61l0,8.44l-106.13,-62.6l0,-8.45z" fill="#49CE8B" id="svg_17"/>
  <path d="m2.42,20.42l135.88,80.99l0,12.98l-135.88,-80.98l0,-12.99z" fill="#BEF0ED" id="svg_18" stroke="#171753" stroke-width="1.71"/>
  <path d="m23.64,37.24l-15.66,-9.31c-0.33,-0.2 -0.6,-0.04 -0.6,0.35l0,3.6c0,0.39 0.27,0.87 0.6,1.07l15.66,9.31c0.34,0.2 0.61,0.04 0.61,-0.35l0,-3.6c0,-0.39 -0.27,-0.87 -0.61,-1.07z" fill="#171753" id="svg_19"/>
  <path d="m23.05,63.05l-16.46,-9.78c-0.44,-0.26 -0.79,-0.05 -0.79,0.46l0,11.51c0,0.51 0.35,1.14 0.79,1.4l16.46,9.78c0.43,0.26 0.79,0.06 0.79,-0.46l0,-11.5c0,-0.52 -0.36,-1.15 -0.79,-1.41z" fill="#9BE7C4" id="svg_20" stroke="#171753" stroke-width="0.95"/>
  <path d="m23.05,83.48l-16.46,-9.79c-0.44,-0.26 -0.79,-0.05 -0.79,0.47l0,11.5c0,0.52 0.35,1.15 0.79,1.41l16.46,9.78c0.43,0.26 0.79,0.05 0.79,-0.46l0,-11.51c0,-0.51 -0.36,-1.14 -0.79,-1.4z" fill="#9BE7C4" id="svg_21" stroke="#171753" stroke-width="0.95"/>
  <path d="m23.05,101.94l-16.46,-9.78c-0.44,-0.26 -0.79,-0.05 -0.79,0.46l0,7.34c0,0.51 0.35,1.14 0.79,1.4l16.46,9.79c0.43,0.26 0.79,0.05 0.79,-0.46l0,-7.34c0,-0.52 -0.36,-1.15 -0.79,-1.41z" fill="#9BE7C4" id="svg_22" stroke="#171753" stroke-width="0.95"/>
  <path d="m85.18,58.74l-40.42,-24.06c-2.32,-1.41 -4.37,-1.55 -6.01,-0.7l-6.55,4.36c0,0 -0.14,0.14 0,0.14c0.55,1.27 6.01,13.08 6.55,15.19c0.28,0.99 1.91,9.99 3.96,20.4l0,5.34c0,2.96 1.1,6.19 2.73,9.15c2.05,11.11 3.83,20.53 3.83,20.53l6,14.77l5.19,-3.23c0.41,-0.28 0.55,-0.71 0.41,-0.99l-0.82,-2.39l8.06,-4.78c-0.27,-1.41 -0.41,-2.95 -0.55,-4.64l17.48,20.11l6.15,-4.08l0.13,-0.14c1.5,-0.98 2.46,-2.95 2.46,-5.77l0,-43.6c0.14,-5.77 -3.69,-12.8 -8.6,-15.61z" fill="#FFA54B" id="svg_23"/>
  <path d="m85.04,128.65l-16.52,-18.99c0.14,0.84 0.27,1.68 0.41,2.53l0.14,0.42l-8.06,4.64l0.68,1.83c0.28,0.7 0,1.55 -0.68,1.83l-5.87,3.66l-6.42,-15.62c0,0 -1.77,-9.42 -3.82,-20.53c-1.78,-3.1 -2.73,-6.47 -2.73,-9.43l0,-5.2c-3.01,-15.9 -3.83,-19.84 -3.96,-20.4c-0.41,-1.69 -4.23,-10.27 -6.56,-15.05c-0.13,-0.42 0,-0.84 0.28,-1.13l6.96,-4.5c1.78,-0.7 3.96,-0.42 6.15,0.99l40.55,24.33c5.05,2.96 9.01,10.27 9.01,16.18l0,43.6c0,2.96 -0.96,5.21 -2.73,6.33c-0.14,0 -0.14,0.15 -0.27,0.15l-6.56,4.36zm-18.16,-22.79l18.43,21.1l5.88,-3.94c1.36,-0.99 2.18,-2.81 2.18,-5.21l0,-43.6c0,-5.49 -3.82,-12.24 -8.33,-14.91l-40.41,-24.06c-2.05,-1.26 -3.96,-1.4 -5.33,-0.7l-0.14,0l-6,3.94c1.36,2.95 5.87,12.8 6.41,14.91c0.14,0.84 1.51,7.74 3.96,20.54l0,0.14l0,5.34c0,2.68 0.96,5.91 2.6,8.72l0.13,0.29c2.05,10.55 3.69,19.69 3.83,20.53l5.73,13.93l4.64,-2.81c0.14,0 0.14,-0.15 0.14,-0.29l-0.95,-2.95l8.19,-4.78c-0.28,-1.41 -0.41,-2.82 -0.55,-4.22l-0.41,-1.97z" fill="#171753" id="svg_24"/>
  <path d="m85.18,58.59l-39.05,-23.21l-12.43,8.3l41.78,22.79l8.47,1.41l6.42,-3.94c-1.51,-2.25 -3.28,-4.08 -5.19,-5.35z" fill="white" id="svg_25"/>
  <path d="m84.08,68.44l-9.01,-1.55l-42.73,-23.21l13.65,-9.14l39.46,23.49c1.91,1.13 3.82,3.1 5.46,5.49l0.41,0.56l-7.24,4.36zm-8.46,-2.67l8.19,1.26l5.6,-3.37c-1.37,-1.97 -3,-3.38 -4.64,-4.36l-38.64,-23.07l-11.06,7.31l40.55,22.23z" fill="#171753" id="svg_26"/>
  <path d="m87.23,74.91c0,0 -16.39,3.94 -17.34,4.36c-0.82,0.28 -16.94,13.65 -22.4,19.84c1.1,5.91 1.91,9.84 1.91,9.84l6.01,14.77l5.46,-3.23c0.41,-0.28 0.55,-0.71 0.41,-0.99l-0.82,-2.39l7.79,-4.78c-0.28,-1.41 -8.33,1.69 -8.47,0.14l25.4,15.33l6.14,-4.08l0.14,-0.14c1.5,-0.98 2.46,-2.95 2.46,-5.77l0,-43.46c0,-1.13 -0.14,-2.11 -0.41,-3.24l-6.28,3.8z" fill="#171753" id="svg_27"/>
  <path d="m92.31,77.4l-3,1.96l0.73,1.19l3,-1.96l-0.73,-1.19z" fill="#FFA54B" id="svg_28"/>
  <path d="m92.33,117.62l-3,1.95l0.73,1.19l3,-1.95l-0.73,-1.19z" fill="#FFA54B" id="svg_29"/>
  <path d="m58.92,117.12l-3,1.96l0.73,1.19l3,-1.96l-0.73,-1.19z" fill="#FFA54B" id="svg_30"/>
  <path d="m78.9,62.82l-40.42,-24.06c-4.78,-2.81 -8.74,-0.56 -8.74,5.21l0,43.6c0,5.77 3.96,12.66 8.74,15.62l4.64,2.67c0.82,0.56 1.51,1.55 1.64,2.67c0.55,3.24 2.32,10.13 8.88,15.19c1.23,0.99 2.32,0.14 1.91,-1.54c-0.41,-2.11 -0.96,-4.79 -0.96,-7.32c0,-1.12 0.82,-1.55 1.78,-0.98l22.53,13.36c4.78,2.81 8.74,0.56 8.74,-5.21l0,-43.6c0,-5.77 -3.96,-12.66 -8.74,-15.61z" fill="#FFA54B" id="svg_31"/>
  <path d="m82.86,129.21c-1.37,0 -2.73,-0.42 -4.24,-1.27l-22.52,-13.36c-0.28,-0.14 -0.55,-0.14 -0.55,-0.14c-0.14,0 -0.14,0.28 -0.14,0.56c0,2.53 0.55,5.35 0.96,7.17c0.27,1.13 0,2.11 -0.68,2.54c-0.69,0.42 -1.51,0.28 -2.33,-0.28c-6.69,-5.07 -8.6,-11.96 -9.14,-15.62c-0.14,-0.84 -0.69,-1.83 -1.37,-2.25l-4.64,-2.67c-5.05,-2.95 -9.01,-10.27 -9.01,-16.18l0,-43.6c0,-3.1 1.09,-5.35 2.86,-6.47c1.92,-1.13 4.24,-0.85 6.83,0.56l40.42,24.05c5.05,2.96 9.01,10.27 9.01,16.18l0,43.6c0,3.1 -1.09,5.35 -2.87,6.47c-0.82,0.43 -1.77,0.71 -2.59,0.71zm-27.31,-16.32c0.41,0 0.68,0.14 1.09,0.28l22.53,13.37c2.05,1.26 4.1,1.54 5.46,0.56c1.37,-0.85 2.19,-2.67 2.19,-5.21l0,-43.6c0,-5.49 -3.83,-12.24 -8.33,-14.91l-40.42,-24.06c-2.05,-1.26 -4.09,-1.54 -5.46,-0.56c-1.36,0.85 -2.18,2.67 -2.18,5.21l0,43.6c0,5.49 3.82,12.24 8.32,14.91l4.65,2.68c0.95,0.56 1.77,1.82 2.04,3.09c0.55,3.38 2.33,9.85 8.61,14.63c0.41,0.28 0.68,0.28 0.82,0.28c0.13,-0.14 0.27,-0.42 0.13,-1.13c-0.41,-1.96 -0.95,-4.78 -0.95,-7.45c0,-0.84 0.27,-1.41 0.82,-1.69c0.13,0.14 0.41,0 0.68,0z" fill="#171753" id="svg_32"/>
  <path d="m70.92,87.73l-3.29,2.02l0.49,0.84l3.29,-2.01l-0.49,-0.85z" fill="#FFA54B" id="svg_42" transform="matrix(1, 0, 0, 1, 0, 0)"/>
 </g>
</svg>