<svg width="143" height="183" viewBox="0 0 143 183" fill="none" xmlns="http://www.w3.org/2000/svg">
<path d="M4.91496 17.4346L1.21973 19.6186V96.5537C1.21973 100.182 3.6832 104.585 6.76255 106.417L132.909 181.415C134.449 182.331 135.851 182.401 136.843 181.802L140.504 179.618C141.497 179.019 142.113 177.751 142.113 175.919V98.9843L4.91496 17.4346Z" fill="white"/>
<path d="M135.372 183C134.448 183 133.491 182.718 132.499 182.119L6.352 107.122C3.03281 105.149 0.432129 100.499 0.432129 96.5537V19.6186C0.432129 19.3368 0.569333 19.055 0.842724 18.9141L4.53793 16.73C4.77776 16.5891 5.0857 16.5891 5.32554 16.73L142.523 98.2798C142.762 98.4207 142.934 98.7025 142.934 98.9843V175.919C142.934 177.998 142.215 179.548 140.915 180.323L137.254 182.507C137.219 182.507 137.186 182.542 137.186 182.542C136.638 182.859 136.022 183 135.372 183ZM2.0409 20.0765V96.5537C2.0409 99.9002 4.33265 104.022 7.17316 105.677L133.32 180.71C134.517 181.415 135.68 181.556 136.467 181.098C136.501 181.098 136.535 181.062 136.535 181.062L140.128 178.949C140.915 178.491 141.36 177.434 141.36 175.99V99.4775L4.91497 18.3857L2.0409 20.0765Z" fill="#171753"/>
<path d="M1.21973 19.6185V96.5536C1.21973 100.182 3.6832 104.585 6.76255 106.417L132.909 181.415C135.954 183.246 138.452 181.767 138.452 178.139V101.168L1.21973 19.6185Z" fill="white"/>
<path d="M135.372 183C134.448 183 133.491 182.683 132.499 182.119L6.352 107.122C3.03281 105.149 0.432129 100.499 0.432129 96.5537V19.6187C0.432129 19.3369 0.569333 19.055 0.842724 18.9141C1.08256 18.7732 1.3905 18.7732 1.63033 18.9141L138.828 100.464C139.067 100.605 139.239 100.887 139.239 101.168V178.103C139.239 179.548 138.896 180.745 138.212 181.591C137.527 182.507 136.535 183 135.372 183ZM2.0409 21.0277V96.5537C2.0409 99.9003 4.33265 104.022 7.17316 105.677L133.32 180.71C134.072 181.133 134.79 181.38 135.406 181.38C136.057 181.38 136.604 181.133 136.981 180.64C137.425 180.076 137.664 179.231 137.664 178.174V101.662L2.0409 21.0277Z" fill="#171753"/>
<path d="M136.603 76.5802L10.4568 1.58257C8.91712 0.666679 7.51464 0.596226 6.52274 1.19508L2.86205 3.37913C1.8356 3.97799 1.21973 5.24615 1.21973 7.04271V19.6186L138.418 101.168L142.113 98.9843V86.4084C142.113 82.8153 139.649 78.412 136.603 76.5802Z" fill="#49CE8B"/>
<path d="M138.451 102.014C138.314 102.014 138.178 101.979 138.041 101.908L0.842724 20.3232C0.603877 20.1823 0.432129 19.9005 0.432129 19.6187V7.04273C0.432129 4.99958 1.15066 3.44961 2.4505 2.67462L6.11215 0.490566C6.14571 0.45534 6.18026 0.45534 6.2148 0.45534C7.4801 -0.28442 9.15695 -0.108287 10.8674 0.87806L137.014 75.8757C140.333 77.8484 142.933 82.4983 142.933 86.4437V99.0196C142.933 99.3014 142.797 99.5832 142.522 99.7241L138.827 101.908C138.724 101.979 138.588 102.014 138.451 102.014ZM2.0399 19.1607L138.451 100.253L141.325 98.5264V86.4437C141.325 83.0971 139.032 78.9756 136.193 77.32L10.0462 2.28713C8.84901 1.58259 7.68538 1.44169 6.89876 1.89963C6.86422 1.93486 6.83066 1.93486 6.79611 1.97009L3.2381 4.08369C2.4505 4.57686 2.0399 5.59843 2.0399 7.04273V19.1607Z" fill="#171753"/>
<path d="M122.097 91.481L138.417 101.168L142.113 98.9843V86.4084C142.113 84.5414 141.428 82.4278 140.368 80.596L122.097 91.481Z" fill="#171753"/>
<path d="M138.451 102.014C138.314 102.014 138.178 101.979 138.04 101.908L121.72 92.2208C121.481 92.0799 121.309 91.7981 121.309 91.5163C121.309 91.2345 121.447 90.9527 121.72 90.8118L139.991 79.9619C140.367 79.7506 140.845 79.8563 141.085 80.2438C142.282 82.2869 142.967 84.5062 142.967 86.4789V99.0548C142.967 99.3366 142.83 99.6184 142.557 99.7593L138.862 101.943C138.724 101.979 138.588 102.014 138.451 102.014ZM123.705 91.4811L138.451 100.253L141.325 98.5264V86.4436C141.325 84.9994 140.88 83.3437 140.059 81.7585L123.705 91.4811Z" fill="#171753"/>
<path d="M138.452 101.168V88.5924C138.452 84.9641 135.989 80.5607 132.909 78.729L6.76255 3.76658C3.71775 1.97002 1.21973 3.44954 1.21973 7.04266V19.6186L138.452 101.168Z" fill="#49CE8B"/>
<path d="M138.451 102.014C138.315 102.014 138.178 101.979 138.041 101.908L0.842724 20.3231C0.603877 20.1822 0.432129 19.9004 0.432129 19.6186V7.04265C0.432129 4.08361 1.93825 2.18137 4.29908 2.18137C5.22288 2.18137 6.18026 2.46318 7.17316 3.06204L133.32 78.0597C136.638 80.0323 139.239 84.6823 139.239 88.6277V101.204C139.239 101.485 139.102 101.767 138.828 101.908C138.726 101.979 138.588 102.014 138.451 102.014ZM2.0409 19.1606L137.63 99.7593V88.6277C137.63 85.2811 135.338 81.1596 132.499 79.5039L6.352 4.50633C5.59894 4.08361 4.91495 3.83703 4.26453 3.83703C2.86205 3.83703 2.00635 5.03473 2.00635 7.07788V19.1606H2.0409Z" fill="#171753"/>
<path d="M128.803 88.1697C127.742 87.5357 126.888 86.0209 126.888 84.7527C126.888 83.4846 127.742 82.9914 128.803 83.6255C129.864 84.2596 130.719 85.7743 130.719 87.0425C130.719 88.3106 129.864 88.8038 128.803 88.1697ZM119.668 80.4551C119.668 79.1869 118.813 77.6722 117.752 77.0381C116.691 76.404 115.837 76.9324 115.837 78.1654C115.837 79.3983 116.691 80.9483 117.752 81.5823C118.813 82.2164 119.668 81.7232 119.668 80.4551ZM108.617 73.9029C108.617 72.6348 107.762 71.12 106.701 70.4859C105.64 69.8519 104.786 70.3803 104.786 71.6132C104.786 72.8814 105.64 74.3961 106.701 75.0302C107.728 75.6643 108.617 75.1359 108.617 73.9029Z" fill="#171753"/>
<path d="M129.659 89.2617C129.249 89.2617 128.838 89.1208 128.393 88.8742C127.093 88.0992 126.067 86.2674 126.067 84.7527C126.067 82.9561 127.64 81.9698 129.179 82.8857C130.479 83.6607 131.506 85.4924 131.506 87.0424C131.506 87.6765 131.335 88.2049 131.027 88.5924C130.719 89.0151 130.206 89.2617 129.659 89.2617ZM127.948 84.1538C127.709 84.1538 127.674 84.5766 127.674 84.7527C127.674 85.7038 128.393 86.972 129.214 87.4651C129.727 87.7822 129.762 87.6061 129.83 87.5708C129.864 87.5356 129.933 87.3947 129.933 87.0424C129.933 86.0913 129.214 84.8231 128.393 84.33C128.153 84.1891 128.017 84.1538 127.948 84.1538ZM118.608 82.6743C118.197 82.6743 117.787 82.5334 117.342 82.2868C116.042 81.5118 115.015 79.68 115.015 78.1653C115.015 76.3687 116.589 75.3824 118.128 76.2983C119.429 77.0733 120.455 78.9051 120.455 80.455C120.455 81.0891 120.284 81.6175 119.976 82.005C119.668 82.463 119.155 82.6743 118.608 82.6743ZM116.863 77.5664C116.623 77.5664 116.589 77.9892 116.589 78.1653C116.589 79.1164 117.307 80.3846 118.128 80.8778C118.368 81.0187 118.505 81.0539 118.573 81.0539C118.676 81.0539 118.711 81.0187 118.711 80.9834C118.744 80.9482 118.813 80.8073 118.813 80.455C118.813 79.5039 118.095 78.2357 117.274 77.7426C117.102 77.6017 116.966 77.5664 116.863 77.5664ZM107.522 76.1222C107.112 76.1222 106.701 75.9812 106.256 75.7347C104.956 74.9597 103.93 73.1279 103.93 71.5779C103.93 69.7813 105.504 68.795 107.044 69.7109C108.344 70.4859 109.37 72.3177 109.37 73.8676C109.404 75.2063 108.651 76.1222 107.522 76.1222ZM105.812 71.0143C105.572 71.0143 105.538 71.437 105.538 71.6131C105.538 72.5643 106.256 73.8324 107.077 74.3256C107.317 74.4665 107.454 74.5017 107.522 74.5017C107.762 74.5017 107.796 74.079 107.796 73.9029C107.796 72.9517 107.077 71.6836 106.256 71.1904C106.051 71.0143 105.88 71.0143 105.812 71.0143Z" fill="#171753"/>
<path d="M138.303 114.262L2.41589 33.2782V46.3158L138.303 127.299V114.262Z" fill="#9BE7C4" stroke="#171753" stroke-width="1.71306"/>
<path d="M29.1974 66.0082L135.328 128.61V137.051L29.1974 74.45V66.0082Z" fill="#49CE8B"/>
<path d="M29.1974 79.933L135.328 142.534V150.976L29.1974 88.3749V79.933Z" fill="#49CE8B"/>
<path d="M29.1974 93.2091L135.328 155.811V164.252L29.1974 101.651V93.2091Z" fill="#49CE8B"/>
<path d="M29.1974 106.485L135.328 169.087V177.529L29.1974 114.927V106.485Z" fill="#49CE8B"/>
<path d="M2.41589 20.4248L138.304 101.406V114.393L2.41589 33.4116V20.4248Z" fill="#BEF0ED" stroke="#171753" stroke-width="1.7125"/>
<path d="M23.642 37.2429L7.98028 27.933C7.64626 27.7344 7.37549 27.8916 7.37549 28.2839V31.8775C7.37549 32.2699 7.64626 32.7489 7.98028 32.9475L23.642 42.2574C23.976 42.456 24.2468 42.2989 24.2468 41.9065V38.3129C24.2468 37.9205 23.976 37.4415 23.642 37.2429Z" fill="#171753"/>
<path d="M23.0465 63.053L6.58902 53.27C6.15079 53.0095 5.79553 53.2157 5.79553 53.7305V65.2368C5.79553 65.7516 6.15079 66.3801 6.58902 66.6406L23.0465 76.4236C23.4847 76.6841 23.8399 76.4779 23.8399 75.9632V64.4568C23.8399 63.942 23.4847 63.3135 23.0465 63.053Z" fill="#9BE7C4" stroke="#171753" stroke-width="0.949544"/>
<path d="M23.0465 83.4779L6.58902 73.6949C6.15079 73.4344 5.79553 73.6406 5.79553 74.1554V85.6617C5.79553 86.1765 6.15079 86.805 6.58902 87.0655L23.0465 96.8485C23.4847 97.109 23.8399 96.9028 23.8399 96.3881V84.8817C23.8399 84.3669 23.4847 83.7384 23.0465 83.4779Z" fill="#9BE7C4" stroke="#171753" stroke-width="0.949544"/>
<path d="M23.0465 101.945L6.58902 92.162C6.15079 91.9015 5.79553 92.1077 5.79553 92.6225V99.9591C5.79553 100.474 6.15079 101.102 6.58902 101.363L23.0465 111.146C23.4847 111.406 23.8399 111.2 23.8399 110.685V103.349C23.8399 102.834 23.4847 102.205 23.0465 101.945Z" fill="#9BE7C4" stroke="#171753" stroke-width="0.949544"/>
<path d="M85.1773 58.7353L44.7609 34.6816C42.4395 33.275 40.3916 33.1343 38.7532 33.9783L32.1987 38.3389C32.1987 38.3389 32.0625 38.4796 32.1987 38.4796C32.7455 39.7455 38.2064 51.5614 38.7532 53.6714C39.0266 54.656 40.665 63.6586 42.7129 74.0678V79.413C42.7129 82.367 43.8055 85.6023 45.4439 88.5563C47.4918 99.6688 49.2664 109.093 49.2664 109.093L55.2741 123.863L60.4626 120.628C60.8722 120.347 61.0094 119.925 60.8722 119.643L60.053 117.252L68.1097 112.469C67.8363 111.063 67.7 109.515 67.5629 107.827L85.0402 127.942L91.185 123.863L91.3212 123.722C92.8234 122.738 93.7788 120.769 93.7788 117.955V74.3491C93.9159 68.5818 90.0925 61.5486 85.1773 58.7353Z" fill="#FFA54B"/>
<path d="M85.0412 128.646L68.5203 109.656C68.6565 110.5 68.7937 111.344 68.9299 112.188L69.0661 112.61L61.0105 117.252L61.6934 119.081C61.9658 119.784 61.6935 120.628 61.0105 120.91L55.139 124.567L48.7217 108.953C48.7217 108.953 46.9471 99.5285 44.8982 88.416C43.1236 85.3214 42.1682 81.9454 42.1682 78.9914V73.7868C39.1639 57.8917 38.3447 53.9531 38.2085 53.3904C37.7989 51.7025 33.9754 43.1219 31.654 38.3393C31.5178 37.9173 31.654 37.4953 31.9274 37.214L38.8905 32.7127C40.666 32.0094 42.8502 32.2907 45.0354 33.6973L85.588 58.0324C90.6403 60.9863 94.5991 68.3009 94.5991 74.2088V117.815C94.5991 120.769 93.6436 123.02 91.8691 124.145C91.7319 124.145 91.7319 124.286 91.5957 124.286L85.0412 128.646ZM66.8819 105.858L85.3146 126.958L91.1861 123.02C92.5511 122.035 93.3702 120.206 93.3702 117.815V74.2088C93.3702 68.7229 89.5477 61.971 85.0412 59.2984L44.6258 35.2447C42.5778 33.9787 40.666 33.838 39.3001 34.5413H39.1639L33.1562 38.48C34.5212 41.4339 39.0277 51.2805 39.5735 53.3904C39.7097 54.2344 41.0756 61.127 43.5332 73.9275V74.0682V79.4134C43.5332 82.0861 44.4886 85.3214 46.1279 88.1347L46.2641 88.416C48.3121 98.9659 49.9505 108.109 50.0877 108.953L55.8219 122.879L60.4647 120.066C60.6009 120.066 60.6009 119.925 60.6009 119.784L59.6455 116.83L67.8373 112.048C67.564 110.641 67.4277 109.234 67.2915 107.828L66.8819 105.858Z" fill="#171753"/>
<path d="M85.1774 58.5942L46.1269 35.3845L33.7019 43.6837L75.4833 66.4715L83.9486 67.8781L90.3659 63.9395C88.8637 61.6888 87.0891 59.8602 85.1774 58.5942Z" fill="white"/>
<path d="M84.0848 68.4412L75.0728 66.8939L32.3359 43.6841L45.9897 34.5409L85.4498 58.032C87.3615 59.1573 89.2733 61.1266 90.9117 63.5179L91.3212 64.0806L84.0848 68.4412ZM75.6195 65.7685L83.8114 67.0345L89.4095 63.6586C88.0445 61.6893 86.4062 60.2826 84.7678 59.2979L46.1269 36.2289L35.0669 43.5435L75.6195 65.7685Z" fill="#171753"/>
<path d="M87.2263 74.9123C87.2263 74.9123 70.8416 78.851 69.8862 79.273C69.067 79.5543 52.9548 92.9174 47.4929 99.1067C48.5854 105.015 49.4046 108.953 49.4046 108.953L55.4123 123.723L60.8742 120.488C61.2838 120.206 61.42 119.784 61.2838 119.503L60.4646 117.112L68.2479 112.329C67.9745 110.923 59.9188 114.017 59.7816 112.47L85.1783 127.802L91.3232 123.723L91.4594 123.582C92.9616 122.598 93.917 120.628 93.917 117.815V74.3497C93.917 73.2244 93.7808 72.2397 93.5074 71.1144L87.2263 74.9123Z" fill="#171753"/>
<path d="M92.3141 77.4048L89.3127 79.3567L90.0411 80.5457L93.0425 78.5938L92.3141 77.4048Z" fill="#FFA54B"/>
<path d="M92.3281 117.62L89.3267 119.573L90.056 120.762L93.0564 118.809L92.3281 117.62Z" fill="#FFA54B"/>
<path d="M58.9181 117.123L55.9177 119.076L56.6461 120.265L59.6465 118.312L58.9181 117.123Z" fill="#FFA54B"/>
<path d="M78.8973 62.8152L38.4808 38.7615C33.7019 35.9482 29.7422 38.1989 29.7422 43.9661V87.5722C29.7422 93.3395 33.7019 100.232 38.4808 103.186L43.1235 105.859C43.9427 106.421 44.6257 107.406 44.7619 108.531C45.3077 111.767 47.0833 118.659 53.6367 123.723C54.8655 124.708 55.9581 123.864 55.5485 122.176C55.1389 120.066 54.5931 117.393 54.5931 114.861C54.5931 113.736 55.4123 113.314 56.3677 113.877L78.8973 127.24C83.6762 130.053 87.6359 127.802 87.6359 122.035V78.429C87.6359 72.6618 83.6762 65.7692 78.8973 62.8152Z" fill="#FFA54B"/>
<path d="M82.857 129.209C81.492 129.209 80.1261 128.787 78.6249 127.943L56.0953 114.58C55.8219 114.439 55.5495 114.439 55.5495 114.439C55.4123 114.439 55.4123 114.72 55.4123 115.002C55.4123 117.534 55.9591 120.347 56.3687 122.175C56.6411 123.301 56.3687 124.285 55.6857 124.707C55.0027 125.129 54.1835 124.989 53.3644 124.426C46.6737 119.362 44.7629 112.47 44.2161 108.812C44.0799 107.968 43.5331 106.984 42.8511 106.562L38.2084 103.889C33.1561 100.935 29.1964 93.6205 29.1964 87.7126V44.1065C29.1964 41.0119 30.289 38.7612 32.0646 37.6359C33.9753 36.5106 36.2967 36.7919 38.8914 38.1985L79.3069 62.2523C84.3592 65.2062 88.3189 72.5208 88.3189 78.4287V122.035C88.3189 125.129 87.2264 127.38 85.4518 128.505C84.6326 128.927 83.6762 129.209 82.857 129.209ZM55.5495 112.892C55.9591 112.892 56.2315 113.032 56.6411 113.173L79.1707 126.536C81.2187 127.802 83.2666 128.083 84.6326 127.099C85.9976 126.255 86.8168 124.426 86.8168 121.894V78.288C86.8168 72.8021 82.9942 66.0502 78.4877 63.3776L38.0722 39.3239C36.0243 38.0579 33.9753 37.7766 32.6103 38.7612C31.2453 39.6052 30.4252 41.4338 30.4252 43.9658V87.5719C30.4252 93.0579 34.2487 99.8098 38.7542 102.482L43.3969 105.155C44.3523 105.718 45.1725 106.984 45.4449 108.25C45.9917 111.626 47.7663 118.096 54.0473 122.879C54.4569 123.16 54.7303 123.16 54.8665 123.16C55.0027 123.019 55.1399 122.738 55.0027 122.035C54.5931 120.066 54.0473 117.252 54.0473 114.58C54.0473 113.736 54.3207 113.173 54.8665 112.892C55.0027 113.032 55.2761 112.892 55.5495 112.892Z" fill="#171753"/>
<path d="M71.3874 86.1657L56.7773 67.8793C55.6847 66.4726 54.4559 66.0506 53.6368 66.4726L53.3634 66.6133L48.4482 69.7079C48.4482 69.7079 48.312 69.8486 48.4482 69.8486L50.7696 75.4752L51.725 77.8665L52.8176 76.6005V87.5724C52.8176 90.1043 55.1389 93.0583 56.9135 92.9176L64.1509 92.4956C64.1509 92.4956 64.1509 92.4956 64.2871 92.4956L67.1543 94.8869H67.2905L72.2066 91.7923C73.2992 90.9483 73.0258 88.2757 71.3874 86.1657Z" fill="#FFA54B"/>
<path d="M66.8809 95.4492C66.7447 95.4492 66.6085 95.4492 66.4713 95.3086L63.7404 93.0579L56.7773 93.4799C55.9581 93.4799 55.0017 93.0579 54.1826 92.3546C52.8176 91.0886 51.9984 89.26 51.9984 87.572V78.1474L51.3154 78.9914L50.0866 75.7561L47.7653 70.1296C47.6291 69.8482 47.7653 69.4262 48.0387 69.2856L53.2272 66.0503C54.4559 65.4876 55.9581 66.0503 57.1869 67.5976L71.797 85.884C73.0258 87.2907 73.5716 89.26 73.2982 90.6666C73.162 91.3699 72.7524 92.0733 72.2066 92.3546L67.2905 95.4492C67.1543 95.4492 67.0181 95.4492 66.8809 95.4492ZM63.8776 91.7919C64.0138 91.7919 64.15 91.7919 64.2871 91.9326L66.8809 94.1832L71.6598 91.2293C71.9332 91.0886 72.0694 90.6666 72.2066 90.3853C72.3428 89.4006 72.0694 87.8533 70.9778 86.5873L56.3677 68.3009C55.4113 67.0349 54.3198 66.7536 53.9102 67.0349L53.773 67.1756L49.2674 69.9889L51.9984 76.8815L53.5006 75.1935V87.7127C53.5006 88.9786 54.1826 90.526 55.2751 91.6513C55.8209 92.2139 56.5039 92.4953 57.0497 92.4953L63.8776 91.7919Z" fill="#171753"/>
<path d="M67.1543 80.8201L56.7773 67.7383C55.6847 66.3316 54.4559 65.9096 53.6368 66.3316L53.3634 66.4723L48.4482 69.5669C48.4482 69.5669 48.312 69.7076 48.4482 69.7076L50.7696 75.3342L51.725 77.7255L52.8176 76.4595V81.2421C52.9538 81.2421 52.9538 81.2421 53.0909 81.2421L52.8176 81.8047V87.2907C52.8176 87.994 52.9538 88.6973 53.3634 89.4006L67.1543 80.8201Z" fill="white"/>
<path d="M52.8176 90.6659L52.5442 90.1032C52.1346 89.2592 51.9984 88.4152 51.9984 87.7119V78.2874L51.3154 79.1314L50.0866 75.8961L47.7653 70.2695C47.6291 69.9881 47.7653 69.5661 48.0387 69.4255L53.2272 66.1902C54.4559 65.6275 55.9581 66.1902 57.1869 67.7375L68.1097 81.382L52.8176 90.6659ZM53.2272 82.226V87.5712C53.2272 87.9932 53.3634 88.4152 53.5006 88.8372L66.3351 80.6787L56.3677 68.1595C55.4113 66.8935 54.3198 66.6122 53.9102 66.8935L53.773 67.0342L49.2674 69.8475L51.9984 76.74L53.5006 75.0521V80.8193H54.1826L53.2272 82.226Z" fill="#171753"/>
<path d="M64.0147 92.4958L66.8819 94.8871H67.0181L71.9342 91.7925C73.163 91.0892 73.0258 88.2759 71.2512 86.1659L69.749 84.1966L64.5605 87.4319C64.5605 87.4319 61.2838 88.4165 60.8742 88.9792C60.6008 89.4012 61.1476 91.9332 61.2838 92.6365L64.0147 92.4958C64.0147 92.3552 64.0147 92.3552 64.0147 92.4958Z" fill="#171753"/>
<path d="M66.8809 95.4494C66.7447 95.4494 66.6084 95.4494 66.4713 95.3087L63.7413 93.0581L60.8732 93.1987L60.737 92.7767C59.9178 89.4008 60.3274 88.9788 60.4636 88.6975C60.8732 88.1348 62.7849 87.4315 64.2871 87.0095L69.8852 83.6335L71.6598 85.8842C72.8895 87.2908 73.4353 89.2601 73.1619 90.6668C73.0257 91.3701 72.6161 92.0734 72.0703 92.3547L67.1542 95.4494C67.1542 95.4494 67.018 95.4494 66.8809 95.4494ZM63.8775 91.7921C64.0137 91.7921 64.1509 91.7921 64.2871 91.9327L66.8809 94.1834L71.6598 91.2294C71.9331 91.0888 72.0703 90.6668 72.2065 90.3854C72.3428 89.4008 72.0704 87.8535 70.9778 86.5875L69.749 85.0402L64.8329 87.9941C63.4679 88.4161 61.9657 88.9788 61.5561 89.2601C61.5561 89.5414 61.6923 90.5261 61.9657 91.9327L63.8775 91.7921Z" fill="#171753"/>
<path d="M47.4929 71.5363V90.948C47.4929 93.48 49.8142 96.434 51.5888 96.2933L66.1989 95.3087C68.1107 95.168 68.1107 91.9327 66.1989 89.5414L51.5888 71.255C49.677 68.723 47.4929 69.0043 47.4929 71.5363Z" fill="white"/>
<path d="M51.4526 96.7156C50.6334 96.7156 49.8132 96.2936 48.994 95.5903C47.629 94.3243 46.8099 92.4957 46.8099 90.8077V71.5366C46.8099 70.2706 47.3557 69.4266 48.1749 69.0046C49.2674 68.5826 50.7696 69.286 51.8622 70.6926L66.4713 88.9791C67.8373 90.667 68.3831 93.0583 67.8373 94.465C67.5639 95.1683 66.8809 95.731 66.0617 95.731L51.4526 96.7156ZM48.994 70.13C48.8578 70.13 48.7216 70.13 48.7216 70.13C48.1748 70.2706 48.0386 71.1146 48.0386 71.5366V90.9484C48.0386 92.2143 48.7216 93.7617 49.8132 94.887C50.36 95.4496 51.043 95.731 51.5888 95.731L66.1989 94.7463C66.6085 94.7463 66.7447 94.6056 66.8809 94.1837C67.2905 93.3397 66.8809 91.511 65.7893 89.9637L51.1792 71.6773C50.36 70.4113 49.5408 70.13 48.994 70.13Z" fill="#171753"/>
<path d="M56.4476 67.3101L51.2097 70.6187L51.7802 71.5781L57.018 68.2694L56.4476 67.3101Z" fill="#171753"/>
<path d="M70.9166 87.7321L67.632 89.7468L68.1205 90.5925L71.4051 88.5778L70.9166 87.7321Z" fill="#FFA54B"/>
</svg>
