<svg width="237" height="136" viewBox="0 0 237 136" fill="none" xmlns="http://www.w3.org/2000/svg">
<g opacity="0.3" filter="url(#filter0_d_140_6186)">
<rect x="4" y="55" width="229" height="72.0552" rx="16" fill="#FFC78F"/>
</g>
<path d="M116.215 98L110.875 91.18H108.815L115.155 83.4H118.415L112.695 90.4L112.615 89L119.675 98H116.215ZM106.755 98V83.4H109.595V98H106.755ZM120.806 98V95.2C120.806 94.5867 120.899 94.0533 121.086 93.6C121.286 93.1467 121.606 92.7467 122.046 92.4C122.499 92.04 123.093 91.7 123.826 91.38L126.306 90.28C126.919 90 127.386 89.66 127.706 89.26C128.039 88.8467 128.206 88.32 128.206 87.68C128.206 86.9733 127.993 86.4133 127.566 86C127.153 85.5733 126.559 85.36 125.786 85.36C125.013 85.36 124.413 85.5733 123.986 86C123.573 86.4267 123.366 87.02 123.366 87.78H120.626C120.626 86.8733 120.819 86.06 121.206 85.34C121.593 84.6067 122.166 84.0333 122.926 83.62C123.686 83.1933 124.639 82.98 125.786 82.98C126.933 82.98 127.886 83.1867 128.646 83.6C129.406 84.0133 129.979 84.5667 130.366 85.26C130.753 85.94 130.946 86.7 130.946 87.54V87.8C130.946 88.8933 130.639 89.8067 130.026 90.54C129.413 91.26 128.513 91.8867 127.326 92.42L124.846 93.52C124.379 93.72 124.053 93.9333 123.866 94.16C123.679 94.3733 123.586 94.6667 123.586 95.04V96.32L122.906 95.58H131.006V98H120.806Z" fill="#171753"/>
<path d="M105.83 35.1522L96 29.4819V40.8225L105.83 46.4928L115.653 40.8225V29.4819L105.83 35.1522Z" fill="#FFA54B"/>
<path d="M115.653 40.8225L105.83 46.4928V35.1522L115.653 29.4819V40.8225Z" fill="#171753" stroke="#171753" stroke-width="0.959957" stroke-miterlimit="10" stroke-linejoin="round"/>
<path d="M105.83 35.1521L96 29.4818L105.83 23.8115L115.653 29.4818L105.83 35.1521Z" fill="#FFC78F" stroke="#171753" stroke-width="0.959957" stroke-linejoin="round"/>
<path d="M105.83 46.4928L96 40.8225V29.4819L105.83 35.1522V46.4928Z" fill="#FFA54B" stroke="#171753" stroke-width="0.959957" stroke-miterlimit="10" stroke-linejoin="round"/>
<path d="M131.922 35.1522L122.092 29.4819V40.8225L131.922 46.4928L141.745 40.8225V29.4819L131.922 35.1522Z" fill="#FFA54B"/>
<path d="M131.922 46.4928L122.092 40.8225V29.4819L131.922 35.1522V46.4928Z" fill="#FFA54B" stroke="#171753" stroke-width="0.959957" stroke-miterlimit="10" stroke-linejoin="round"/>
<path d="M141.745 40.8225L131.921 46.4928V35.1522L141.745 29.4819V40.8225Z" fill="#171753" stroke="#171753" stroke-width="0.959957" stroke-miterlimit="10" stroke-linejoin="round"/>
<path d="M131.922 35.1521L122.092 29.4818L131.922 23.8115L141.745 29.4818L131.922 35.1521Z" fill="#FFC78F" stroke="#171753" stroke-width="0.959957" stroke-miterlimit="10" stroke-linejoin="round"/>
<path d="M119.101 60.6813L109.271 55.011V43.6704L119.101 49.3407V60.6813Z" fill="#FFA54B" stroke="#171753" stroke-width="0.959957" stroke-miterlimit="10" stroke-linejoin="round"/>
<path d="M128.925 55.011L119.102 60.6813V49.3407L128.925 43.6704V55.011Z" fill="#171753" stroke="#171753" stroke-width="0.959957" stroke-miterlimit="10" stroke-linejoin="round"/>
<path d="M119.101 49.3406L109.271 43.6703L119.101 38L128.925 43.6703L119.101 49.3406Z" fill="#FFC78F" stroke="#171753" stroke-width="0.959957" stroke-miterlimit="10" stroke-linejoin="round"/>
<path d="M118.967 12.5619L109.137 6.8916V18.2322L118.967 23.896L128.797 18.2322V6.8916L118.967 12.5619Z" fill="#FFA54B"/>
<path d="M118.967 23.896L109.137 18.2322V6.8916L118.967 12.5619V23.896Z" fill="#FFA54B"/>
<path d="M128.797 18.2322L118.967 23.896V12.5619L128.797 6.8916V18.2322Z" fill="#FFC78F"/>
<path d="M118.967 12.5623L109.137 6.89197L118.967 1.22168L128.797 6.89197L118.967 12.5623Z" fill="#FFA54B"/>
<path d="M118.967 12.562L109.567 7.13281L109.137 7.38048L118.967 13.0508L128.797 7.38048L128.373 7.13281L118.967 12.562Z" fill="#FFC78F"/>
<path d="M131.732 19.8361L121.909 14.1658V25.5064L131.732 31.1767L141.562 25.5064V14.1658L131.732 19.8361Z" fill="#FFA54B"/>
<path d="M131.732 31.1767L121.909 25.5064V14.1658L131.732 19.8361V31.1767Z" fill="#FFA54B"/>
<path d="M141.561 25.5064L131.731 31.1767V19.8361L141.561 14.1658V25.5064Z" fill="#FFC78F"/>
<path d="M131.732 19.8357L121.909 14.1654L131.732 8.49512L141.562 14.1654L131.732 19.8357Z" fill="#FFA54B"/>
<path d="M131.732 19.8355L122.333 14.4128L121.909 14.6605L131.732 20.3308L141.562 14.6605L141.138 14.4128L131.732 19.8355Z" fill="#FFC78F"/>
<path d="M106.202 20.3312L96.3721 14.6609V26.0015L106.202 31.6718L116.032 26.0015V14.6609L106.202 20.3312Z" fill="#FFA54B"/>
<path d="M106.202 31.6718L96.3721 26.0015V14.6609L106.202 20.3312V31.6718Z" fill="#FFA54B"/>
<path d="M116.032 26.0015L106.202 31.6718V20.3312L116.032 14.6609V26.0015Z" fill="#FFC78F"/>
<path d="M106.202 20.3313L96.3721 14.661L106.202 8.99072L116.032 14.661L106.202 20.3313Z" fill="#FFA54B"/>
<path d="M106.202 20.3311L96.7961 14.9084L96.3721 15.1496L106.202 20.8199L116.032 15.1496L115.602 14.9084L106.202 20.3311Z" fill="#FFC78F"/>
<path d="M118.967 27.6112L109.137 21.9409V33.275L118.967 38.9453L128.797 33.275V21.9409L118.967 27.6112Z" fill="#FFA54B"/>
<path d="M118.967 38.9453L109.137 33.275V21.9409L118.967 27.6112V38.9453Z" fill="#FFA54B"/>
<path d="M128.797 33.275L118.967 38.9453V27.6112L128.797 21.9409V33.275Z" fill="#FFC78F"/>
<path d="M118.967 27.6111L109.137 21.9408L118.967 16.2705L128.797 21.9408L118.967 27.6111Z" fill="#FFA54B"/>
<path d="M118.967 27.6113L109.567 22.1821L109.137 22.4298L118.967 28.1001L128.797 22.4298L128.373 22.1821L118.967 27.6113Z" fill="#FFC78F"/>
<path opacity="0.7" d="M106.201 33.5292L99.4956 29.6642L106.201 25.7993L112.907 29.6642L106.201 33.5292Z" fill="#FFA54B"/>
<path opacity="0.7" d="M131.732 33.0403L125.027 29.1689L131.732 25.304L138.438 29.1689L131.732 33.0403Z" fill="#FFA54B"/>
<path d="M118.967 12.5619L109.137 6.8916V18.2322L118.967 23.896L128.797 18.2322V6.8916L118.967 12.5619Z" fill="#FFA54B"/>
<path d="M118.967 23.896L109.137 18.2322V6.8916L118.967 12.5619V23.896Z" fill="#FFA54B"/>
<path d="M128.797 18.2322L118.967 23.896V12.5619L128.797 6.8916V18.2322Z" fill="#FFC78F"/>
<path d="M118.967 12.5623L109.137 6.89197L118.967 1.22168L128.797 6.89197L118.967 12.5623Z" fill="#FFA54B"/>
<path d="M118.967 12.562L109.567 7.13281L109.137 7.38048L118.967 13.0508L128.797 7.38048L128.373 7.13933L118.967 12.562Z" fill="#FFC78F"/>
<path d="M118.875 12.3405L109.045 6.67017V18.0108L118.875 23.681L128.699 18.0108V6.67017L118.875 12.3405Z" fill="#FFA54B"/>
<path d="M118.875 23.681L109.045 18.0108V6.67017L118.875 12.3405V23.681Z" fill="#FFA54B" stroke="#171753" stroke-width="0.959957" stroke-miterlimit="10" stroke-linejoin="round"/>
<path d="M128.698 18.0108L118.875 23.681V12.3405L128.698 6.67017V18.0108Z" fill="#171753" stroke="#171753" stroke-width="0.959957" stroke-miterlimit="10" stroke-linejoin="round"/>
<path d="M118.875 12.3406L109.045 6.6703L118.875 1L128.699 6.6703L118.875 12.3406Z" fill="#FFC78F" stroke="#171753" stroke-width="0.959957" stroke-miterlimit="10" stroke-linejoin="round"/>
<path d="M131.922 20.1615L122.092 14.4912V25.8318L131.922 31.5021L141.745 25.8318V14.4912L131.922 20.1615Z" fill="#FFA54B"/>
<path d="M131.922 31.5021L122.092 25.8318V14.4912L131.922 20.1615V31.5021Z" fill="#FFA54B" stroke="#171753" stroke-width="0.959957" stroke-miterlimit="10" stroke-linejoin="round"/>
<path d="M141.745 25.8318L131.921 31.5021V20.1615L141.745 14.4912V25.8318Z" fill="#171753" stroke="#171753" stroke-width="0.959957" stroke-miterlimit="10" stroke-linejoin="round"/>
<path d="M131.922 20.1616L122.092 14.4913L131.922 8.82104L141.745 14.4913L131.922 20.1616Z" fill="#FFC78F" stroke="#171753" stroke-width="0.959957" stroke-miterlimit="10" stroke-linejoin="round"/>
<path d="M105.83 20.1615L96 14.4912V25.8318L105.83 31.5021L115.653 25.8318V14.4912L105.83 20.1615Z" fill="#FFA54B"/>
<path d="M105.83 31.5021L96 25.8318V14.4912L105.83 20.1615V31.5021Z" fill="#FFA54B" stroke="#171753" stroke-width="0.959957" stroke-miterlimit="10" stroke-linejoin="round"/>
<path d="M115.653 25.8318L105.83 31.5021V20.1615L115.653 14.4912V25.8318Z" fill="#171753" stroke="#171753" stroke-width="0.959957" stroke-miterlimit="10" stroke-linejoin="round"/>
<path d="M105.83 20.1616L96 14.4913L105.83 8.82104L115.653 14.4913L105.83 20.1616Z" fill="#FFC78F" stroke="#171753" stroke-width="0.959957" stroke-miterlimit="10" stroke-linejoin="round"/>
<path d="M118.875 27.9828L109.045 22.3125V33.6531L118.875 39.3234L128.699 33.6531V22.3125L118.875 27.9828Z" fill="#FFA54B"/>
<path d="M118.875 39.3234L109.045 33.6531V22.3125L118.875 27.9828V39.3234Z" fill="#FFA54B" stroke="#171753" stroke-width="0.959957" stroke-miterlimit="10" stroke-linejoin="round"/>
<path d="M128.698 33.6531L118.875 39.3234V27.9828L128.698 22.3125V33.6531Z" fill="#171753" stroke="#171753" stroke-width="0.959957" stroke-miterlimit="10" stroke-linejoin="round"/>
<path d="M118.875 27.9827L109.045 22.3124L118.875 16.6421L128.699 22.3124L118.875 27.9827Z" fill="#FFC78F" stroke="#171753" stroke-width="0.959957" stroke-miterlimit="10" stroke-linejoin="round"/>
<defs>
<filter id="filter0_d_140_6186" x="0" y="55" width="237" height="80.0552" filterUnits="userSpaceOnUse" color-interpolation-filters="sRGB">
<feFlood flood-opacity="0" result="BackgroundImageFix"/>
<feColorMatrix in="SourceAlpha" type="matrix" values="0 0 0 0 0 0 0 0 0 0 0 0 0 0 0 0 0 0 127 0" result="hardAlpha"/>
<feOffset dy="4"/>
<feGaussianBlur stdDeviation="2"/>
<feComposite in2="hardAlpha" operator="out"/>
<feColorMatrix type="matrix" values="0 0 0 0 0.0901961 0 0 0 0 0.0901961 0 0 0 0 0.32549 0 0 0 0.25 0"/>
<feBlend mode="normal" in2="BackgroundImageFix" result="effect1_dropShadow_140_6186"/>
<feBlend mode="normal" in="SourceGraphic" in2="effect1_dropShadow_140_6186" result="shape"/>
</filter>
</defs>
</svg>
