<svg width="237" height="135" viewBox="0 0 237 135" fill="none" xmlns="http://www.w3.org/2000/svg">
<g opacity="0.3" filter="url(#filter0_d_140_6174)">
<rect x="4" y="54" width="229" height="72.0552" rx="16" fill="#5ED9D1"/>
</g>
<path d="M77.925 85V70.4H82.585L88.725 82.64H89.385L88.985 83V70.4H91.665V85H86.985L80.845 72.76H80.165L80.565 72.4V85H77.925ZM100.269 85.38C99.3088 85.38 98.4621 85.2267 97.7288 84.92C96.9954 84.6133 96.3754 84.2 95.8688 83.68C95.3621 83.1467 94.9754 82.5467 94.7088 81.88C94.4554 81.2133 94.3288 80.52 94.3288 79.8V79.38C94.3288 78.6333 94.4621 77.9267 94.7288 77.26C95.0088 76.58 95.4021 75.98 95.9088 75.46C96.4288 74.9267 97.0554 74.5133 97.7888 74.22C98.5221 73.9133 99.3488 73.76 100.269 73.76C101.189 73.76 102.015 73.9133 102.749 74.22C103.482 74.5133 104.102 74.9267 104.609 75.46C105.129 75.98 105.522 76.58 105.789 77.26C106.055 77.9267 106.189 78.6333 106.189 79.38V79.8C106.189 80.52 106.055 81.2133 105.789 81.88C105.535 82.5467 105.155 83.1467 104.649 83.68C104.142 84.2 103.522 84.6133 102.789 84.92C102.055 85.2267 101.215 85.38 100.269 85.38ZM100.269 83C100.949 83 101.522 82.8533 101.989 82.56C102.455 82.2533 102.809 81.8467 103.049 81.34C103.289 80.82 103.409 80.2333 103.409 79.58C103.409 78.9133 103.282 78.3267 103.029 77.82C102.789 77.3 102.429 76.8933 101.949 76.6C101.482 76.2933 100.922 76.14 100.269 76.14C99.6154 76.14 99.0488 76.2933 98.5688 76.6C98.1021 76.8933 97.7421 77.3 97.4888 77.82C97.2354 78.3267 97.1088 78.9133 97.1088 79.58C97.1088 80.2333 97.2288 80.82 97.4688 81.34C97.7221 81.8467 98.0821 82.2533 98.5488 82.56C99.0154 82.8533 99.5888 83 100.269 83ZM113.123 85.36C112.363 85.36 111.663 85.22 111.023 84.94C110.383 84.66 109.83 84.2667 109.363 83.76C108.896 83.2533 108.536 82.6667 108.283 82C108.03 81.32 107.903 80.5867 107.903 79.8V79.38C107.903 78.6067 108.023 77.88 108.263 77.2C108.516 76.52 108.863 75.9267 109.303 75.42C109.756 74.9133 110.296 74.52 110.923 74.24C111.563 73.9467 112.27 73.8 113.043 73.8C113.896 73.8 114.643 73.9867 115.283 74.36C115.936 74.72 116.456 75.2667 116.843 76C117.23 76.7333 117.443 77.6533 117.483 78.76L116.663 77.8V70.4H119.443V85H117.243V80.38H117.723C117.683 81.4867 117.456 82.4133 117.043 83.16C116.63 83.8933 116.083 84.4467 115.403 84.82C114.736 85.18 113.976 85.36 113.123 85.36ZM113.743 83.02C114.29 83.02 114.79 82.9 115.243 82.66C115.696 82.4067 116.056 82.0467 116.323 81.58C116.603 81.1 116.743 80.54 116.743 79.9V79.1C116.743 78.46 116.603 77.9267 116.323 77.5C116.043 77.06 115.676 76.7267 115.223 76.5C114.77 76.26 114.276 76.14 113.743 76.14C113.143 76.14 112.61 76.2867 112.143 76.58C111.69 76.86 111.33 77.26 111.063 77.78C110.81 78.3 110.683 78.9067 110.683 79.6C110.683 80.2933 110.816 80.9 111.083 81.42C111.35 81.9267 111.71 82.32 112.163 82.6C112.63 82.88 113.156 83.02 113.743 83.02ZM127.467 85.38C126.534 85.38 125.714 85.22 125.007 84.9C124.314 84.58 123.734 84.1533 123.267 83.62C122.814 83.0733 122.467 82.4667 122.227 81.8C122.001 81.1333 121.887 80.4533 121.887 79.76V79.38C121.887 78.66 122.001 77.9667 122.227 77.3C122.467 76.62 122.814 76.02 123.267 75.5C123.734 74.9667 124.307 74.5467 124.987 74.24C125.667 73.92 126.454 73.76 127.347 73.76C128.521 73.76 129.501 74.02 130.287 74.54C131.087 75.0467 131.687 75.72 132.087 76.56C132.487 77.3867 132.687 78.28 132.687 79.24V80.24H123.067V78.54H130.947L130.087 79.38C130.087 78.6867 129.987 78.0933 129.787 77.6C129.587 77.1067 129.281 76.7267 128.867 76.46C128.467 76.1933 127.961 76.06 127.347 76.06C126.734 76.06 126.214 76.2 125.787 76.48C125.361 76.76 125.034 77.1667 124.807 77.7C124.594 78.22 124.487 78.8467 124.487 79.58C124.487 80.26 124.594 80.8667 124.807 81.4C125.021 81.92 125.347 82.3333 125.787 82.64C126.227 82.9333 126.787 83.08 127.467 83.08C128.147 83.08 128.701 82.9467 129.127 82.68C129.554 82.4 129.827 82.06 129.947 81.66H132.507C132.347 82.4067 132.041 83.06 131.587 83.62C131.134 84.18 130.554 84.6133 129.847 84.92C129.154 85.2267 128.361 85.38 127.467 85.38ZM144.046 85.14C143.046 85.14 142.219 85.0133 141.566 84.76C140.926 84.4933 140.446 84.0533 140.126 83.44C139.806 82.8133 139.646 81.9733 139.646 80.92L139.666 71.08H142.266L142.246 81.1C142.246 81.6333 142.386 82.0467 142.666 82.34C142.959 82.62 143.373 82.76 143.906 82.76H145.606V85.14H144.046ZM137.926 76.18V74.14H145.606V76.18H137.926ZM153.101 85.38C152.141 85.38 151.294 85.2267 150.561 84.92C149.827 84.6133 149.207 84.2 148.701 83.68C148.194 83.1467 147.807 82.5467 147.541 81.88C147.287 81.2133 147.161 80.52 147.161 79.8V79.38C147.161 78.6333 147.294 77.9267 147.561 77.26C147.841 76.58 148.234 75.98 148.741 75.46C149.261 74.9267 149.887 74.5133 150.621 74.22C151.354 73.9133 152.181 73.76 153.101 73.76C154.021 73.76 154.847 73.9133 155.581 74.22C156.314 74.5133 156.934 74.9267 157.441 75.46C157.961 75.98 158.354 76.58 158.621 77.26C158.887 77.9267 159.021 78.6333 159.021 79.38V79.8C159.021 80.52 158.887 81.2133 158.621 81.88C158.367 82.5467 157.987 83.1467 157.481 83.68C156.974 84.2 156.354 84.6133 155.621 84.92C154.887 85.2267 154.047 85.38 153.101 85.38ZM153.101 83C153.781 83 154.354 82.8533 154.821 82.56C155.287 82.2533 155.641 81.8467 155.881 81.34C156.121 80.82 156.241 80.2333 156.241 79.58C156.241 78.9133 156.114 78.3267 155.861 77.82C155.621 77.3 155.261 76.8933 154.781 76.6C154.314 76.2933 153.754 76.14 153.101 76.14C152.447 76.14 151.881 76.2933 151.401 76.6C150.934 76.8933 150.574 77.3 150.321 77.82C150.067 78.3267 149.941 78.9133 149.941 79.58C149.941 80.2333 150.061 80.82 150.301 81.34C150.554 81.8467 150.914 82.2533 151.381 82.56C151.847 82.8533 152.421 83 153.101 83ZM64.048 109V94.4H68.708L74.848 106.64H75.508L75.108 107V94.4H77.788V109H73.108L66.968 96.76H66.288L66.688 96.4V109H64.048ZM86.3918 109.38C85.4318 109.38 84.5851 109.227 83.8518 108.92C83.1185 108.613 82.4985 108.2 81.9918 107.68C81.4851 107.147 81.0985 106.547 80.8318 105.88C80.5785 105.213 80.4518 104.52 80.4518 103.8V103.38C80.4518 102.633 80.5851 101.927 80.8518 101.26C81.1318 100.58 81.5251 99.98 82.0318 99.46C82.5518 98.9267 83.1785 98.5133 83.9118 98.22C84.6451 97.9133 85.4718 97.76 86.3918 97.76C87.3118 97.76 88.1385 97.9133 88.8718 98.22C89.6051 98.5133 90.2251 98.9267 90.7318 99.46C91.2518 99.98 91.6451 100.58 91.9118 101.26C92.1785 101.927 92.3118 102.633 92.3118 103.38V103.8C92.3118 104.52 92.1785 105.213 91.9118 105.88C91.6585 106.547 91.2785 107.147 90.7718 107.68C90.2651 108.2 89.6451 108.613 88.9118 108.92C88.1785 109.227 87.3385 109.38 86.3918 109.38ZM86.3918 107C87.0718 107 87.6451 106.853 88.1118 106.56C88.5785 106.253 88.9318 105.847 89.1718 105.34C89.4118 104.82 89.5318 104.233 89.5318 103.58C89.5318 102.913 89.4051 102.327 89.1518 101.82C88.9118 101.3 88.5518 100.893 88.0718 100.6C87.6051 100.293 87.0451 100.14 86.3918 100.14C85.7385 100.14 85.1718 100.293 84.6918 100.6C84.2251 100.893 83.8651 101.3 83.6118 101.82C83.3585 102.327 83.2318 102.913 83.2318 103.58C83.2318 104.233 83.3518 104.82 83.5918 105.34C83.8451 105.847 84.2051 106.253 84.6718 106.56C85.1385 106.853 85.7118 107 86.3918 107ZM99.246 109.36C98.486 109.36 97.786 109.22 97.146 108.94C96.506 108.66 95.9527 108.267 95.486 107.76C95.0193 107.253 94.6593 106.667 94.406 106C94.1527 105.32 94.026 104.587 94.026 103.8V103.38C94.026 102.607 94.146 101.88 94.386 101.2C94.6393 100.52 94.986 99.9267 95.426 99.42C95.8793 98.9133 96.4193 98.52 97.046 98.24C97.686 97.9467 98.3927 97.8 99.166 97.8C100.019 97.8 100.766 97.9867 101.406 98.36C102.059 98.72 102.579 99.2667 102.966 100C103.353 100.733 103.566 101.653 103.606 102.76L102.786 101.8V94.4H105.566V109H103.366V104.38H103.846C103.806 105.487 103.579 106.413 103.166 107.16C102.753 107.893 102.206 108.447 101.526 108.82C100.859 109.18 100.099 109.36 99.246 109.36ZM99.866 107.02C100.413 107.02 100.913 106.9 101.366 106.66C101.819 106.407 102.179 106.047 102.446 105.58C102.726 105.1 102.866 104.54 102.866 103.9V103.1C102.866 102.46 102.726 101.927 102.446 101.5C102.166 101.06 101.799 100.727 101.346 100.5C100.893 100.26 100.399 100.14 99.866 100.14C99.266 100.14 98.7327 100.287 98.266 100.58C97.8127 100.86 97.4527 101.26 97.186 101.78C96.9327 102.3 96.806 102.907 96.806 103.6C96.806 104.293 96.9393 104.9 97.206 105.42C97.4727 105.927 97.8327 106.32 98.286 106.6C98.7527 106.88 99.2793 107.02 99.866 107.02ZM113.59 109.38C112.657 109.38 111.837 109.22 111.13 108.9C110.437 108.58 109.857 108.153 109.39 107.62C108.937 107.073 108.59 106.467 108.35 105.8C108.124 105.133 108.01 104.453 108.01 103.76V103.38C108.01 102.66 108.124 101.967 108.35 101.3C108.59 100.62 108.937 100.02 109.39 99.5C109.857 98.9667 110.43 98.5467 111.11 98.24C111.79 97.92 112.577 97.76 113.47 97.76C114.644 97.76 115.624 98.02 116.41 98.54C117.21 99.0467 117.81 99.72 118.21 100.56C118.61 101.387 118.81 102.28 118.81 103.24V104.24H109.19V102.54H117.07L116.21 103.38C116.21 102.687 116.11 102.093 115.91 101.6C115.71 101.107 115.404 100.727 114.99 100.46C114.59 100.193 114.084 100.06 113.47 100.06C112.857 100.06 112.337 100.2 111.91 100.48C111.484 100.76 111.157 101.167 110.93 101.7C110.717 102.22 110.61 102.847 110.61 103.58C110.61 104.26 110.717 104.867 110.93 105.4C111.144 105.92 111.47 106.333 111.91 106.64C112.35 106.933 112.91 107.08 113.59 107.08C114.27 107.08 114.824 106.947 115.25 106.68C115.677 106.4 115.95 106.06 116.07 105.66H118.63C118.47 106.407 118.164 107.06 117.71 107.62C117.257 108.18 116.677 108.613 115.97 108.92C115.277 109.227 114.484 109.38 113.59 109.38ZM130.649 109.38C129.356 109.38 128.262 109.173 127.369 108.76C126.489 108.347 125.816 107.78 125.349 107.06C124.882 106.327 124.649 105.5 124.649 104.58H127.429C127.429 104.967 127.536 105.347 127.749 105.72C127.962 106.08 128.302 106.373 128.769 106.6C129.249 106.827 129.876 106.94 130.649 106.94C131.342 106.94 131.922 106.84 132.389 106.64C132.856 106.44 133.202 106.18 133.429 105.86C133.656 105.527 133.769 105.153 133.769 104.74C133.769 104.22 133.549 103.807 133.109 103.5C132.669 103.18 131.989 102.98 131.069 102.9L129.789 102.8C128.389 102.68 127.269 102.247 126.429 101.5C125.602 100.74 125.189 99.74 125.189 98.5C125.189 97.5667 125.409 96.7667 125.849 96.1C126.289 95.42 126.902 94.9 127.689 94.54C128.489 94.1667 129.422 93.98 130.489 93.98C131.596 93.98 132.549 94.1733 133.349 94.56C134.149 94.9467 134.769 95.4933 135.209 96.2C135.649 96.8933 135.869 97.7133 135.869 98.66H133.089C133.089 98.26 132.989 97.8933 132.789 97.56C132.602 97.2133 132.316 96.94 131.929 96.74C131.556 96.5267 131.076 96.42 130.489 96.42C129.929 96.42 129.462 96.5133 129.089 96.7C128.716 96.8867 128.436 97.14 128.249 97.46C128.062 97.78 127.969 98.1267 127.969 98.5C127.969 98.9533 128.136 99.3533 128.469 99.7C128.802 100.033 129.329 100.227 130.049 100.28L131.329 100.4C132.369 100.48 133.282 100.7 134.069 101.06C134.856 101.42 135.462 101.907 135.889 102.52C136.329 103.133 136.549 103.873 136.549 104.74C136.549 105.66 136.309 106.473 135.829 107.18C135.349 107.873 134.662 108.413 133.769 108.8C132.889 109.187 131.849 109.38 130.649 109.38ZM138.606 113.28V110.9H140.646C141.032 110.9 141.352 110.847 141.606 110.74C141.872 110.647 142.092 110.487 142.266 110.26C142.439 110.047 142.572 109.747 142.666 109.36L145.586 98.14H148.246L145.026 109.96C144.812 110.773 144.512 111.42 144.126 111.9C143.739 112.393 143.239 112.747 142.626 112.96C142.026 113.173 141.279 113.28 140.386 113.28H138.606ZM141.986 108.76V106.56H144.306V108.76H141.986ZM141.046 108.76L137.526 98.14H140.326L143.666 108.76H141.046ZM150.156 109V98.14H152.356V102.8H152.156C152.156 101.693 152.303 100.773 152.596 100.04C152.89 99.2933 153.323 98.7333 153.896 98.36C154.483 97.9867 155.21 97.8 156.076 97.8H156.196C157.49 97.8 158.47 98.22 159.136 99.06C159.803 99.8867 160.136 101.127 160.136 102.78V109H157.356V102.54C157.356 101.873 157.163 101.333 156.776 100.92C156.403 100.507 155.883 100.3 155.216 100.3C154.536 100.3 153.983 100.513 153.556 100.94C153.143 101.353 152.936 101.913 152.936 102.62V109H150.156ZM167.945 109.38C166.998 109.38 166.178 109.22 165.485 108.9C164.805 108.58 164.232 108.153 163.765 107.62C163.312 107.087 162.972 106.487 162.745 105.82C162.518 105.153 162.405 104.473 162.405 103.78V103.4C162.405 102.667 162.518 101.967 162.745 101.3C162.985 100.62 163.338 100.02 163.805 99.5C164.272 98.9667 164.845 98.5467 165.525 98.24C166.218 97.92 167.018 97.76 167.925 97.76C168.872 97.76 169.718 97.9467 170.465 98.32C171.212 98.68 171.805 99.1867 172.245 99.84C172.698 100.493 172.952 101.253 173.005 102.12H170.305C170.238 101.56 169.998 101.093 169.585 100.72C169.185 100.347 168.632 100.16 167.925 100.16C167.312 100.16 166.798 100.307 166.385 100.6C165.985 100.893 165.685 101.3 165.485 101.82C165.285 102.327 165.185 102.913 165.185 103.58C165.185 104.22 165.278 104.8 165.465 105.32C165.665 105.84 165.965 106.247 166.365 106.54C166.778 106.833 167.305 106.98 167.945 106.98C168.425 106.98 168.838 106.893 169.185 106.72C169.532 106.547 169.805 106.307 170.005 106C170.218 105.693 170.352 105.347 170.405 104.96H173.105C173.052 105.84 172.792 106.613 172.325 107.28C171.872 107.933 171.265 108.447 170.505 108.82C169.758 109.193 168.905 109.38 167.945 109.38Z" fill="#171753"/>
<path d="M99.3939 41.061C99.3939 29.9951 107.152 16.5501 116.794 11.0172C121.227 8.47202 125.272 8.02938 128.32 9.41262L128.597 9.57861L131.755 11.3491L133.528 14.3923C135.135 16.4948 134.138 17.1587 134.138 21.0318C134.138 32.0977 126.38 45.5427 116.738 51.0756C113.358 53.0122 114.245 52.9015 111.585 52.5142L107.484 54.0081L104.547 52.3482L104.27 52.1822C101.278 50.301 99.3939 46.4833 99.3939 41.061Z" fill="#BEF0ED"/>
<path d="M107.484 54.3956L111.64 52.9017C111.862 52.9571 112.028 52.9571 112.194 53.0124C113.801 53.289 113.856 53.2337 115.463 52.2931C115.851 52.0718 116.295 51.7952 116.904 51.4632C126.601 45.8196 134.525 32.2086 134.525 21.032C134.525 19.7595 134.636 18.8742 134.747 18.1549C134.858 16.6057 134.969 15.7204 133.805 14.1712L132.032 11.0728L128.485 9.13623C125.161 7.64234 120.949 8.19563 116.572 10.7408C106.93 16.2737 99.0611 29.8847 99.0611 41.0613C99.0611 46.4282 100.89 50.4673 104.159 52.4591L104.436 52.6251L107.484 54.3956ZM111.584 52.1825L107.595 53.621L104.492 51.8505C101.444 49.9693 99.7815 46.1516 99.7815 41.0613C99.7815 30.1061 107.484 16.7717 116.96 11.2941C121.116 8.91491 125.105 8.36162 128.208 9.74485L131.533 11.5707L133.251 14.5585C134.304 15.8864 134.193 16.5504 134.027 18.0443C133.916 18.8189 133.805 19.7595 133.805 21.032C133.805 31.9872 126.103 45.3216 116.627 50.7992C116.018 51.1312 115.574 51.4079 115.186 51.6845C113.746 52.5698 113.746 52.5698 112.36 52.3484C112.139 52.2931 111.917 52.2931 111.695 52.2378L111.584 52.1825Z" fill="#171753"/>
<path d="M125.382 43.3296C122.833 46.4833 119.896 49.1945 116.682 51.0204C113.302 52.9569 114.188 52.8462 111.529 52.4589L107.428 53.9528L104.491 52.2929L104.214 52.1269C101.166 50.2457 99.2823 46.428 99.2823 41.0057C99.2823 36.0261 100.834 30.5485 103.438 25.5688L118.234 33.7023L125.382 43.3296Z" fill="#171753"/>
<path d="M107.167 53.8146C100.382 49.9032 100.378 37.229 107.156 25.506C113.935 13.7829 124.93 7.45032 131.715 11.3617C138.5 15.2731 138.505 27.9473 131.726 39.6703C124.947 51.3933 113.952 57.726 107.167 53.8146Z" fill="#ECFFFE"/>
<path d="M111.695 55.3361C114.133 55.3361 116.848 54.5062 119.619 52.9016C129.316 47.3133 137.185 33.7023 137.185 22.5258C137.185 17.0482 135.301 12.9538 131.921 11.0173C128.541 9.08074 124.052 9.46805 119.287 12.2345C109.589 17.8228 101.721 31.4338 101.721 42.6103C101.721 48.0879 103.605 52.1823 106.985 54.1189C108.426 54.9488 109.977 55.3361 111.695 55.3361ZM127.211 10.5193C128.818 10.5193 130.258 10.9066 131.588 11.6259C134.747 13.4518 136.52 17.3248 136.52 22.5258C136.52 33.481 128.818 46.8154 119.342 52.293C114.798 54.8935 110.587 55.3361 107.428 53.5102C104.27 51.6844 102.496 47.8113 102.496 42.6103C102.496 31.6551 110.199 18.3207 119.675 12.8431C122.334 11.2939 124.883 10.5193 127.211 10.5193Z" fill="#171753"/>
<path d="M108.997 50.648C103.219 47.3172 103.212 36.5295 108.981 26.553C114.749 16.5765 124.11 11.1891 129.887 14.5199C135.665 17.8507 135.672 28.6383 129.903 38.6148C124.134 48.5913 114.774 53.9787 108.997 50.648Z" fill="#5ED9D1"/>
<path d="M112.859 52.0165C114.965 52.0165 117.237 51.2972 119.62 49.9693C127.876 45.211 134.581 33.5918 134.581 24.0752C134.581 19.3722 132.974 15.8865 130.093 14.2266C127.211 12.5667 123.332 12.8987 119.287 15.2778C111.03 20.0362 104.326 31.6553 104.326 41.172C104.326 45.875 105.932 49.3607 108.814 51.0206C110.033 51.6292 111.418 52.0165 112.859 52.0165ZM126.047 13.8393C127.377 13.8393 128.652 14.1712 129.705 14.7799C132.42 16.3291 133.916 19.5935 133.916 24.0199C133.916 33.3152 127.377 44.6577 119.287 49.3054C115.464 51.5186 111.862 51.9059 109.202 50.3566C106.542 48.8074 105.046 45.543 105.046 41.1166C105.046 31.8213 111.585 20.4788 119.675 15.8311C121.947 14.5032 124.108 13.8393 126.047 13.8393Z" fill="#171753"/>
<path d="M108.806 34.7352L121.34 33.4435C121.785 33.3975 122.183 33.7252 122.222 34.1715C122.261 34.609 121.942 34.9966 121.505 35.0416L108.971 36.3334C108.525 36.3793 108.128 36.0517 108.088 35.6054C108.049 35.1679 108.369 34.7803 108.806 34.7352Z" fill="#171753"/>
<path d="M122.897 31.4913L120.973 17.6096C120.879 16.9276 119.878 16.9763 119.85 17.6644L119.208 33.5705C119.189 34.0524 119.744 34.3352 120.122 34.0364L122.688 32.012L123.038 32.4553L122.688 32.012C122.845 31.8879 122.925 31.6898 122.897 31.4913Z" fill="#ECFFFE" stroke="#171753" stroke-width="1.12921"/>
<path d="M119.11 35.3259C119.11 35.9369 119.331 36.2252 119.548 36.3426C119.783 36.4697 120.203 36.5014 120.792 36.2052C121.363 35.9177 121.917 35.3685 122.33 34.6982C122.744 34.0274 122.981 33.2931 122.981 32.6741C122.981 32.0631 122.76 31.7748 122.542 31.6574C122.307 31.5303 121.888 31.4986 121.299 31.7948C120.728 32.0823 120.174 32.6315 119.76 33.3018C119.347 33.9726 119.11 34.7069 119.11 35.3259Z" fill="#ECFFFE" stroke="#171753" stroke-width="1.12921"/>
<path d="M117.454 10.4108L120.152 11.9426L119.796 12.5679L117.098 11.036L117.454 10.4108Z" fill="#171753"/>
<path d="M104.806 23.2816L107.503 24.8135L107.147 25.4387L104.45 23.9069L104.806 23.2816Z" fill="#171753"/>
<path d="M122.596 8.63512L125.293 10.167L124.937 10.7923L122.24 9.26039L122.596 8.63512Z" fill="#171753"/>
<path d="M92.4778 25.0782L112.2 13.6867L117.233 16.5941L119.171 6.2058V0.476074L101.166 1.59821L101.183 7.41295L86.4761 15.897V21.6097L92.4778 25.0782Z" fill="#5ED9D1"/>
<path d="M92.4778 25.5545C92.3928 25.5545 92.3248 25.5375 92.2398 25.4865L86.238 22.0181C86.085 21.9331 86 21.78 86 21.61V15.8973C86 15.7273 86.085 15.5743 86.238 15.4893L100.707 7.1412V1.59849C100.707 1.36046 100.894 1.13944 101.149 1.13944L119.154 0.0172956C119.29 0.000293482 119.409 0.051302 119.511 0.136313C119.613 0.221324 119.664 0.340339 119.664 0.476356V6.18907L117.709 16.6624C117.675 16.8154 117.59 16.9344 117.437 17.0024C117.301 17.0705 117.131 17.0534 117.012 16.9854L112.217 14.2141L92.7158 25.4695C92.6308 25.5205 92.5458 25.5545 92.4778 25.5545ZM86.9351 21.355L92.4608 24.5514L111.962 13.296C112.115 13.211 112.285 13.211 112.438 13.296L116.893 15.8633L118.729 6.12107V0.98642L101.659 2.05755V7.43023C101.659 7.60025 101.574 7.75327 101.421 7.83829L86.9351 16.1693V21.355Z" fill="#171753"/>
<path d="M119.171 0.476074L101.166 1.59821L106.199 4.50559L86.4761 15.897L92.4778 19.3655L112.2 7.97402L117.233 10.8814L119.171 0.476074Z" fill="#ECFFFE"/>
<path d="M92.4778 19.8245C92.3928 19.8245 92.3248 19.8075 92.2398 19.7565L86.238 16.2881C86.085 16.2031 86 16.05 86 15.88C86 15.71 86.085 15.557 86.238 15.472L105.263 4.48857L100.928 1.98925C100.758 1.88724 100.656 1.68321 100.707 1.47919C100.758 1.27516 100.928 1.13915 101.132 1.12214L119.137 0C119.29 0 119.426 0.0510054 119.511 0.153018C119.613 0.255031 119.647 0.408054 119.613 0.544071L117.658 10.9324C117.624 11.0854 117.539 11.2044 117.386 11.2724C117.25 11.3404 117.08 11.3234 116.961 11.2554L112.166 8.48407L92.6648 19.7395C92.6308 19.8075 92.5458 19.8245 92.4778 19.8245ZM87.4112 15.897L92.4778 18.8214L111.979 7.56596C112.098 7.49795 112.217 7.48094 112.353 7.51495C112.404 7.53195 112.438 7.54896 112.489 7.58296L116.91 10.1333L118.627 0.986128L102.747 1.97225L106.437 4.09752C106.573 4.18253 106.675 4.33555 106.675 4.50557C106.675 4.6756 106.59 4.82861 106.437 4.91362L87.4112 15.897Z" fill="#171753"/>
<path d="M106.199 4.5056L101.183 7.41297V1.61523L106.199 4.5056ZM117.233 10.8814L112.2 7.97404V13.6868L117.233 16.5941V10.8814ZM92.4778 25.0782V19.3655L86.4761 15.897V21.6098L92.4778 25.0782Z" fill="#171753"/>
<path d="M92.4778 25.5543C92.3928 25.5543 92.3248 25.5373 92.2398 25.4863L86.238 22.0179C86.085 21.9329 86 21.7798 86 21.6098V15.8971C86 15.7271 86.085 15.574 86.238 15.489C86.3911 15.404 86.5611 15.404 86.7141 15.489L92.7158 18.9575C92.8689 19.0425 92.9539 19.1955 92.9539 19.3655V25.0782C92.9539 25.2483 92.8689 25.4013 92.7158 25.4863C92.6308 25.5203 92.5458 25.5543 92.4778 25.5543ZM86.9351 21.3548L92.0018 24.2791V19.6376L86.9351 16.7132V21.3548ZM117.233 17.0532C117.148 17.0532 117.08 17.0362 116.995 16.9852L111.962 14.0779C111.809 13.9928 111.724 13.8398 111.724 13.6698V7.95708C111.724 7.78706 111.809 7.63404 111.962 7.54903C112.115 7.46402 112.285 7.46402 112.438 7.54903L117.471 10.4564C117.624 10.5414 117.709 10.6944 117.709 10.8644V16.5942C117.709 16.7642 117.624 16.9172 117.471 17.0022C117.386 17.0362 117.301 17.0532 117.233 17.0532ZM112.676 13.4148L116.774 15.7781V11.1365L112.676 8.77318V13.4148ZM101.183 7.87207C101.098 7.87207 101.03 7.85506 100.945 7.80406C100.809 7.71905 100.707 7.56603 100.707 7.39601V1.59827C100.707 1.42825 100.792 1.27523 100.945 1.19022C101.098 1.10521 101.268 1.10521 101.404 1.19022L106.437 4.09759C106.573 4.1826 106.675 4.33563 106.675 4.50565C106.675 4.67567 106.59 4.82868 106.437 4.91369L101.404 7.82107C101.336 7.85507 101.251 7.87207 101.183 7.87207ZM101.642 2.41438V6.59691L105.263 4.50565L101.642 2.41438Z" fill="#171753"/>
<path d="M137.228 57.9177V52.205L137.16 52.1539L151.935 43.6189V37.9061L145.934 34.4547L126.211 45.8462L121.178 42.9388L119.223 53.3271V59.0398L137.228 57.9177Z" fill="#5ED9D1"/>
<path d="M119.223 59.516C119.104 59.516 118.985 59.465 118.9 59.397C118.798 59.3119 118.747 59.1929 118.747 59.0569V53.3442L120.702 42.8709C120.736 42.7178 120.821 42.5988 120.974 42.5308C121.11 42.4628 121.28 42.4798 121.399 42.5478L126.194 45.3192L145.695 34.0638C145.848 33.9787 146.019 33.9787 146.172 34.0638L152.173 37.5322C152.326 37.6172 152.411 37.7702 152.411 37.9402V43.653C152.411 43.823 152.326 43.976 152.173 44.061L137.704 52.4091V57.9178C137.704 58.1728 137.517 58.3768 137.262 58.3938L119.257 59.516C119.24 59.516 119.223 59.516 119.223 59.516ZM121.501 43.67L119.682 53.4122V58.5469L136.752 57.4757V52.3411C136.735 52.2901 136.718 52.2391 136.718 52.171C136.718 52.001 136.769 51.831 136.922 51.746L151.459 43.3469V38.1613L145.934 34.9649L126.449 46.2203C126.313 46.3053 126.126 46.3223 125.973 46.2373L121.501 43.67Z" fill="#171753"/>
<path d="M119.223 53.3271L137.228 52.205L132.196 49.2976L151.918 37.9061L145.934 34.4547L126.211 45.8462L121.178 42.9388L119.223 53.3271Z" fill="#ECFFFE"/>
<path d="M119.223 53.8032C119.087 53.8032 118.968 53.7522 118.866 53.6502C118.764 53.5482 118.73 53.3952 118.764 53.2592L120.719 42.8709C120.753 42.7178 120.838 42.5988 120.991 42.5308C121.128 42.4628 121.298 42.4798 121.417 42.5478L126.211 45.3192L145.713 34.0638C145.866 33.9787 146.036 33.9787 146.189 34.0638L152.19 37.5322C152.343 37.6172 152.428 37.7702 152.428 37.9402C152.428 38.1103 152.343 38.2633 152.19 38.3483L133.131 49.2977L137.45 51.797C137.637 51.899 137.722 52.103 137.671 52.3071C137.62 52.5111 137.45 52.6471 137.246 52.6641L119.24 53.7863C119.24 53.8033 119.24 53.8032 119.223 53.8032ZM121.502 43.67L119.784 52.8171L135.63 51.831L131.941 49.7057C131.788 49.6207 131.703 49.4677 131.703 49.2977C131.703 49.1277 131.788 48.9746 131.941 48.8896L150.983 37.9062L145.917 34.9819L126.432 46.2373C126.296 46.3223 126.109 46.3393 125.956 46.2543L121.502 43.67Z" fill="#171753"/>
<path d="M137.228 57.9177V52.205L119.223 53.3271V59.0398L137.228 57.9177Z" fill="#171753"/>
<path d="M119.223 59.5159C119.104 59.5159 118.985 59.4649 118.9 59.3969C118.798 59.3119 118.747 59.1929 118.747 59.0569V53.3441C118.747 53.0891 118.934 52.8851 119.189 52.8851L137.194 51.7629C137.313 51.7629 137.449 51.7969 137.551 51.882C137.653 51.967 137.704 52.103 137.704 52.222V57.9177C137.704 58.1728 137.517 58.3768 137.262 58.3938L119.257 59.5159C119.24 59.5159 119.223 59.5159 119.223 59.5159ZM119.682 53.7692V58.5468L136.752 57.4757V52.6981L119.682 53.7692Z" fill="#171753"/>
<defs>
<filter id="filter0_d_140_6174" x="0" y="54" width="237" height="80.0552" filterUnits="userSpaceOnUse" color-interpolation-filters="sRGB">
<feFlood flood-opacity="0" result="BackgroundImageFix"/>
<feColorMatrix in="SourceAlpha" type="matrix" values="0 0 0 0 0 0 0 0 0 0 0 0 0 0 0 0 0 0 127 0" result="hardAlpha"/>
<feOffset dy="4"/>
<feGaussianBlur stdDeviation="2"/>
<feComposite in2="hardAlpha" operator="out"/>
<feColorMatrix type="matrix" values="0 0 0 0 0.0901961 0 0 0 0 0.0901961 0 0 0 0 0.32549 0 0 0 0.25 0"/>
<feBlend mode="normal" in2="BackgroundImageFix" result="effect1_dropShadow_140_6174"/>
<feBlend mode="normal" in="SourceGraphic" in2="effect1_dropShadow_140_6174" result="shape"/>
</filter>
</defs>
</svg>
