<svg width="237" height="135" viewBox="0 0 237 135" fill="none" xmlns="http://www.w3.org/2000/svg">
<g opacity="0.3" filter="url(#filter0_d_140_6175)">
<rect x="4" y="54" width="229" height="72.0552" rx="16" fill="#5ED9D1"/>
</g>
<path d="M94.0578 85V70.3H96.8978V85H94.0578ZM102.978 85L98.4978 78.64H101.678L106.298 85H102.978ZM96.0578 80.12V77.82H99.7778C100.298 77.82 100.744 77.7133 101.118 77.5C101.504 77.2867 101.804 76.9867 102.018 76.6C102.231 76.2133 102.338 75.7733 102.338 75.28C102.338 74.7733 102.231 74.3267 102.018 73.94C101.804 73.5533 101.504 73.2533 101.118 73.04C100.744 72.8267 100.298 72.72 99.7778 72.72H96.0578V70.3H99.4778C100.651 70.3 101.664 70.4733 102.518 70.82C103.384 71.1667 104.051 71.6933 104.518 72.4C104.984 73.1067 105.218 73.9933 105.218 75.06V75.38C105.218 76.46 104.978 77.3467 104.498 78.04C104.031 78.7333 103.371 79.2533 102.518 79.6C101.664 79.9467 100.651 80.12 99.4778 80.12H96.0578ZM108.452 85V70.4H111.232V85H108.452ZM110.832 85V82.6H117.452V85H110.832ZM110.832 78.78V76.38H116.932V78.78H110.832ZM110.832 72.8V70.4H117.292V72.8H110.832ZM125.229 85.38C123.936 85.38 122.843 85.1733 121.949 84.76C121.069 84.3467 120.396 83.78 119.929 83.06C119.463 82.3267 119.229 81.5 119.229 80.58H122.009C122.009 80.9667 122.116 81.3467 122.329 81.72C122.543 82.08 122.883 82.3733 123.349 82.6C123.829 82.8267 124.456 82.94 125.229 82.94C125.923 82.94 126.503 82.84 126.969 82.64C127.436 82.44 127.783 82.18 128.009 81.86C128.236 81.5267 128.349 81.1533 128.349 80.74C128.349 80.22 128.129 79.8067 127.689 79.5C127.249 79.18 126.569 78.98 125.649 78.9L124.369 78.8C122.969 78.68 121.849 78.2467 121.009 77.5C120.183 76.74 119.769 75.74 119.769 74.5C119.769 73.5667 119.989 72.7667 120.429 72.1C120.869 71.42 121.483 70.9 122.269 70.54C123.069 70.1667 124.003 69.98 125.069 69.98C126.176 69.98 127.129 70.1733 127.929 70.56C128.729 70.9467 129.349 71.4933 129.789 72.2C130.229 72.8933 130.449 73.7133 130.449 74.66H127.669C127.669 74.26 127.569 73.8933 127.369 73.56C127.183 73.2133 126.896 72.94 126.509 72.74C126.136 72.5267 125.656 72.42 125.069 72.42C124.509 72.42 124.043 72.5133 123.669 72.7C123.296 72.8867 123.016 73.14 122.829 73.46C122.643 73.78 122.549 74.1267 122.549 74.5C122.549 74.9533 122.716 75.3533 123.049 75.7C123.383 76.0333 123.909 76.2267 124.629 76.28L125.909 76.4C126.949 76.48 127.863 76.7 128.649 77.06C129.436 77.42 130.043 77.9067 130.469 78.52C130.909 79.1333 131.129 79.8733 131.129 80.74C131.129 81.66 130.889 82.4733 130.409 83.18C129.929 83.8733 129.243 84.4133 128.349 84.8C127.469 85.1867 126.429 85.38 125.229 85.38ZM136.215 85V72.5H139.055V85H136.215ZM131.995 72.9V70.4H143.275V72.9H131.995ZM95.2936 109L100.274 94.4H104.914L110.034 109H107.114L102.774 96.34L103.794 96.78H101.294L102.334 96.34L98.1336 109H95.2936ZM98.7736 105.12L99.6736 102.72H105.594L106.474 105.12H98.7736ZM114.642 104.52V102.06H117.482C118.056 102.06 118.536 101.947 118.922 101.72C119.322 101.493 119.622 101.18 119.822 100.78C120.036 100.38 120.142 99.92 120.142 99.4C120.142 98.88 120.036 98.42 119.822 98.02C119.622 97.62 119.322 97.3133 118.922 97.1C118.536 96.8733 118.056 96.76 117.482 96.76H114.642V94.3H117.242C118.469 94.3 119.509 94.5 120.362 94.9C121.229 95.3 121.889 95.8733 122.342 96.62C122.796 97.3533 123.022 98.2267 123.022 99.24V99.56C123.022 100.573 122.796 101.453 122.342 102.2C121.889 102.933 121.229 103.507 120.362 103.92C119.509 104.32 118.469 104.52 117.242 104.52H114.642ZM112.202 109V94.3H115.042V109H112.202ZM125.406 109V94.4H128.246V109H125.406ZM135.61 109.34C134.117 109.34 132.943 109.027 132.09 108.4C131.25 107.76 130.81 106.88 130.77 105.76H133.27C133.31 106.133 133.517 106.473 133.89 106.78C134.263 107.087 134.85 107.24 135.65 107.24C136.317 107.24 136.843 107.12 137.23 106.88C137.63 106.64 137.83 106.313 137.83 105.9C137.83 105.54 137.677 105.253 137.37 105.04C137.077 104.827 136.57 104.687 135.85 104.62L134.89 104.52C133.677 104.387 132.743 104.04 132.09 103.48C131.437 102.92 131.11 102.173 131.11 101.24C131.11 100.493 131.297 99.8667 131.67 99.36C132.043 98.8533 132.557 98.4733 133.21 98.22C133.877 97.9533 134.637 97.82 135.49 97.82C136.823 97.82 137.903 98.1133 138.73 98.7C139.557 99.2867 139.99 100.147 140.03 101.28H137.53C137.503 100.907 137.317 100.587 136.97 100.32C136.623 100.053 136.123 99.92 135.47 99.92C134.883 99.92 134.43 100.033 134.11 100.26C133.79 100.487 133.63 100.78 133.63 101.14C133.63 101.487 133.757 101.753 134.01 101.94C134.277 102.127 134.703 102.253 135.29 102.32L136.25 102.42C137.53 102.553 138.53 102.907 139.25 103.48C139.983 104.053 140.35 104.827 140.35 105.8C140.35 106.52 140.15 107.147 139.75 107.68C139.363 108.2 138.817 108.607 138.11 108.9C137.403 109.193 136.57 109.34 135.61 109.34Z" fill="#171753"/>
<path d="M126.607 16.2615V17.4206L127.69 17.0095C129.674 16.2571 131.278 16.4592 132.36 17.2547C133.448 18.0551 134.206 19.6012 134.176 21.9523L134.176 21.9523V21.9622V22.0835C134.176 24.6926 133.22 27.6293 131.639 30.2691C130.059 32.9076 127.899 35.1757 125.575 36.4877L125.511 36.5237L125.455 36.5707L104.481 54.1086L103.949 53.8123L101.599 52.5037C99.816 51.5104 97.8305 50.4041 97.018 49.9496C95.7284 49.2284 94.8 47.619 94.8 45.0078V44.8258C94.8 42.4739 95.5786 39.8453 96.9007 37.4065C98.2214 34.9703 100.055 32.7774 102.104 31.2806L102.416 31.0527L102.432 30.6666C102.581 26.9235 104.025 22.7953 106.294 19.1147C108.561 15.4357 111.613 12.2701 114.91 10.4101C118.272 8.54853 121.158 8.40782 123.148 9.44525L129.355 12.9112L126.973 13.6809L126.357 13.88L126.423 14.5242C126.451 14.7893 126.483 15.0187 126.512 15.2305C126.563 15.5954 126.607 15.9082 126.607 16.2615Z" fill="#5ED9D1" stroke="#171753" stroke-width="1.6"/>
<path d="M135.289 20.628C134.977 13.1685 129.346 10.2575 122.402 14.1388C115.458 18.0202 109.828 27.2384 109.515 35.0617C105.198 38.2153 101.883 44.2193 101.883 49.2529V49.4349C101.883 55.0143 105.887 57.2582 110.891 54.4685L133.913 41.6115C138.855 38.8218 142.859 32.0901 142.859 26.5106V26.3287C142.859 21.2951 139.606 18.9905 135.289 20.628Z" fill="#ECFFFE" stroke="#171753" stroke-width="1.6"/>
<path d="M131.452 59.2764L119.491 52.3769V38.578L131.452 45.4775V59.2764Z" fill="#5ED9D1" stroke="#171753" stroke-width="1.6" stroke-miterlimit="10" stroke-linejoin="round"/>
<path d="M143.406 52.3769L131.453 59.2764V45.4775L143.406 38.578V52.3769Z" fill="#171753" stroke="#171753" stroke-width="1.6" stroke-miterlimit="10" stroke-linejoin="round"/>
<path d="M131.452 45.4775L119.491 38.578L131.452 31.6786L143.405 38.578L131.452 45.4775Z" fill="#BEF0ED" stroke="#171753" stroke-width="1.6" stroke-miterlimit="10" stroke-linejoin="round"/>
<defs>
<filter id="filter0_d_140_6175" x="0" y="54" width="237" height="80.0552" filterUnits="userSpaceOnUse" color-interpolation-filters="sRGB">
<feFlood flood-opacity="0" result="BackgroundImageFix"/>
<feColorMatrix in="SourceAlpha" type="matrix" values="0 0 0 0 0 0 0 0 0 0 0 0 0 0 0 0 0 0 127 0" result="hardAlpha"/>
<feOffset dy="4"/>
<feGaussianBlur stdDeviation="2"/>
<feComposite in2="hardAlpha" operator="out"/>
<feColorMatrix type="matrix" values="0 0 0 0 0.0901961 0 0 0 0 0.0901961 0 0 0 0 0.32549 0 0 0 0.25 0"/>
<feBlend mode="normal" in2="BackgroundImageFix" result="effect1_dropShadow_140_6175"/>
<feBlend mode="normal" in="SourceGraphic" in2="effect1_dropShadow_140_6175" result="shape"/>
</filter>
</defs>
</svg>
