<svg width="237" height="136" viewBox="0 0 237 136" fill="none" xmlns="http://www.w3.org/2000/svg">
<g opacity="0.3" filter="url(#filter0_d_140_6176)">
<rect x="4" y="55" width="229" height="72.0552" rx="16" fill="#9BE7C4"/>
</g>
<path d="M78.9515 86V73.5H81.7915V86H78.9515ZM74.7315 73.9V71.4H86.0115V73.9H74.7315ZM88.0585 86V71.4H90.8385V79.92H90.3585C90.3585 78.8267 90.4985 77.9 90.7785 77.14C91.0585 76.38 91.4718 75.8 92.0185 75.4C92.5785 75 93.2852 74.8 94.1385 74.8H94.2585C95.4985 74.8 96.4385 75.2267 97.0785 76.08C97.7185 76.9333 98.0385 78.1733 98.0385 79.8V86H95.2585V79.54C95.2585 78.8467 95.0585 78.3 94.6585 77.9C94.2718 77.5 93.7585 77.3 93.1185 77.3C92.4385 77.3 91.8852 77.5267 91.4585 77.98C91.0452 78.42 90.8385 79 90.8385 79.72V86H88.0585ZM105.887 86.38C104.954 86.38 104.134 86.22 103.427 85.9C102.734 85.58 102.154 85.1533 101.687 84.62C101.234 84.0733 100.887 83.4667 100.647 82.8C100.421 82.1333 100.307 81.4533 100.307 80.76V80.38C100.307 79.66 100.421 78.9667 100.647 78.3C100.887 77.62 101.234 77.02 101.687 76.5C102.154 75.9667 102.727 75.5467 103.407 75.24C104.087 74.92 104.874 74.76 105.767 74.76C106.941 74.76 107.921 75.02 108.707 75.54C109.507 76.0467 110.107 76.72 110.507 77.56C110.907 78.3867 111.107 79.28 111.107 80.24V81.24H101.487V79.54H109.367L108.507 80.38C108.507 79.6867 108.407 79.0933 108.207 78.6C108.007 78.1067 107.701 77.7267 107.287 77.46C106.887 77.1933 106.381 77.06 105.767 77.06C105.154 77.06 104.634 77.2 104.207 77.48C103.781 77.76 103.454 78.1667 103.227 78.7C103.014 79.22 102.907 79.8467 102.907 80.58C102.907 81.26 103.014 81.8667 103.227 82.4C103.441 82.92 103.767 83.3333 104.207 83.64C104.647 83.9333 105.207 84.08 105.887 84.08C106.567 84.08 107.121 83.9467 107.547 83.68C107.974 83.4 108.247 83.06 108.367 82.66H110.927C110.767 83.4067 110.461 84.06 110.007 84.62C109.554 85.18 108.974 85.6133 108.267 85.92C107.574 86.2267 106.781 86.38 105.887 86.38ZM120.846 86V73.5H123.686V86H120.846ZM116.626 73.9V71.4H127.906V73.9H116.626ZM135.81 86V82.78H135.35V79.2C135.35 78.5733 135.197 78.1067 134.89 77.8C134.584 77.4933 134.11 77.34 133.47 77.34C133.137 77.34 132.737 77.3467 132.27 77.36C131.804 77.3733 131.33 77.3933 130.85 77.42C130.384 77.4333 129.964 77.4533 129.59 77.48V75.12C129.897 75.0933 130.244 75.0667 130.63 75.04C131.017 75.0133 131.41 75 131.81 75C132.224 74.9867 132.61 74.98 132.97 74.98C134.09 74.98 135.017 75.1267 135.75 75.42C136.497 75.7133 137.057 76.1733 137.43 76.8C137.817 77.4267 138.01 78.2467 138.01 79.26V86H135.81ZM132.31 86.28C131.524 86.28 130.83 86.14 130.23 85.86C129.644 85.58 129.184 85.18 128.85 84.66C128.53 84.14 128.37 83.5133 128.37 82.78C128.37 81.98 128.564 81.3267 128.95 80.82C129.35 80.3133 129.904 79.9333 130.61 79.68C131.33 79.4267 132.17 79.3 133.13 79.3H135.65V80.96H133.09C132.45 80.96 131.957 81.12 131.61 81.44C131.277 81.7467 131.11 82.1467 131.11 82.64C131.11 83.1333 131.277 83.5333 131.61 83.84C131.957 84.1467 132.45 84.3 133.09 84.3C133.477 84.3 133.83 84.2333 134.15 84.1C134.484 83.9533 134.757 83.7133 134.97 83.38C135.197 83.0333 135.324 82.5667 135.35 81.98L136.03 82.76C135.964 83.52 135.777 84.16 135.47 84.68C135.177 85.2 134.764 85.6 134.23 85.88C133.71 86.1467 133.07 86.28 132.31 86.28ZM144.928 86.34C143.435 86.34 142.262 86.0267 141.408 85.4C140.568 84.76 140.128 83.88 140.088 82.76H142.588C142.628 83.1333 142.835 83.4733 143.208 83.78C143.582 84.0867 144.168 84.24 144.968 84.24C145.635 84.24 146.162 84.12 146.548 83.88C146.948 83.64 147.148 83.3133 147.148 82.9C147.148 82.54 146.995 82.2533 146.688 82.04C146.395 81.8267 145.888 81.6867 145.168 81.62L144.208 81.52C142.995 81.3867 142.062 81.04 141.408 80.48C140.755 79.92 140.428 79.1733 140.428 78.24C140.428 77.4933 140.615 76.8667 140.988 76.36C141.362 75.8533 141.875 75.4733 142.528 75.22C143.195 74.9533 143.955 74.82 144.808 74.82C146.142 74.82 147.222 75.1133 148.048 75.7C148.875 76.2867 149.308 77.1467 149.348 78.28H146.848C146.822 77.9067 146.635 77.5867 146.288 77.32C145.942 77.0533 145.442 76.92 144.788 76.92C144.202 76.92 143.748 77.0333 143.428 77.26C143.108 77.4867 142.948 77.78 142.948 78.14C142.948 78.4867 143.075 78.7533 143.328 78.94C143.595 79.1267 144.022 79.2533 144.608 79.32L145.568 79.42C146.848 79.5533 147.848 79.9067 148.568 80.48C149.302 81.0533 149.668 81.8267 149.668 82.8C149.668 83.52 149.468 84.1467 149.068 84.68C148.682 85.2 148.135 85.6067 147.428 85.9C146.722 86.1933 145.888 86.34 144.928 86.34ZM159.565 86L155.925 80.92H154.305L158.925 75.14H161.825L157.565 80.48L157.625 79.08L162.705 86H159.565ZM151.965 86V71.4H154.745V86H151.965ZM75.3773 110V97.5H78.2173V110H75.3773ZM71.1573 97.9V95.4H82.4373V97.9H71.1573ZM87.9966 110.38C87.0633 110.38 86.2433 110.22 85.5366 109.9C84.8433 109.58 84.2633 109.153 83.7966 108.62C83.3433 108.073 82.9966 107.467 82.7566 106.8C82.53 106.133 82.4166 105.453 82.4166 104.76V104.38C82.4166 103.66 82.53 102.967 82.7566 102.3C82.9966 101.62 83.3433 101.02 83.7966 100.5C84.2633 99.9667 84.8366 99.5467 85.5166 99.24C86.1966 98.92 86.9833 98.76 87.8766 98.76C89.05 98.76 90.03 99.02 90.8166 99.54C91.6166 100.047 92.2166 100.72 92.6166 101.56C93.0166 102.387 93.2166 103.28 93.2166 104.24V105.24H83.5966V103.54H91.4766L90.6166 104.38C90.6166 103.687 90.5166 103.093 90.3166 102.6C90.1166 102.107 89.81 101.727 89.3966 101.46C88.9966 101.193 88.49 101.06 87.8766 101.06C87.2633 101.06 86.7433 101.2 86.3166 101.48C85.89 101.76 85.5633 102.167 85.3366 102.7C85.1233 103.22 85.0166 103.847 85.0166 104.58C85.0166 105.26 85.1233 105.867 85.3366 106.4C85.55 106.92 85.8766 107.333 86.3166 107.64C86.7566 107.933 87.3166 108.08 87.9966 108.08C88.6766 108.08 89.23 107.947 89.6566 107.68C90.0833 107.4 90.3566 107.06 90.4766 106.66H93.0366C92.8766 107.407 92.57 108.06 92.1166 108.62C91.6633 109.18 91.0833 109.613 90.3766 109.92C89.6833 110.227 88.89 110.38 87.9966 110.38ZM95.539 110V99.14H97.739V103.8H97.539C97.539 102.707 97.679 101.793 97.959 101.06C98.239 100.313 98.6523 99.7533 99.199 99.38C99.759 98.9933 100.452 98.8 101.279 98.8H101.399C102.239 98.8 102.932 98.9933 103.479 99.38C104.039 99.7533 104.452 100.313 104.719 101.06C104.999 101.793 105.139 102.707 105.139 103.8H104.439C104.439 102.707 104.579 101.793 104.859 101.06C105.152 100.313 105.572 99.7533 106.119 99.38C106.679 98.9933 107.372 98.8 108.199 98.8H108.319C109.159 98.8 109.859 98.9933 110.419 99.38C110.979 99.7533 111.399 100.313 111.679 101.06C111.972 101.793 112.119 102.707 112.119 103.8V110H109.339V103.54C109.339 102.86 109.166 102.32 108.819 101.92C108.472 101.507 107.979 101.3 107.339 101.3C106.699 101.3 106.186 101.513 105.799 101.94C105.412 102.353 105.219 102.913 105.219 103.62V110H102.439V103.54C102.439 102.86 102.266 102.32 101.919 101.92C101.572 101.507 101.079 101.3 100.439 101.3C99.799 101.3 99.2857 101.513 98.899 101.94C98.5123 102.353 98.319 102.913 98.319 103.62V110H95.539ZM115.09 114V99.14H117.29V103.82L116.95 103.8C117.003 102.693 117.23 101.767 117.63 101.02C118.043 100.273 118.59 99.72 119.27 99.36C119.95 98.9867 120.71 98.8 121.55 98.8C122.323 98.8 123.016 98.94 123.63 99.22C124.256 99.5 124.79 99.8933 125.23 100.4C125.683 100.907 126.03 101.5 126.27 102.18C126.51 102.847 126.63 103.567 126.63 104.34V104.76C126.63 105.547 126.51 106.28 126.27 106.96C126.043 107.627 125.703 108.22 125.25 108.74C124.81 109.247 124.276 109.647 123.65 109.94C123.023 110.22 122.323 110.36 121.55 110.36C120.736 110.36 119.99 110.193 119.31 109.86C118.643 109.513 118.103 108.987 117.69 108.28C117.276 107.56 117.043 106.633 116.99 105.5L117.87 106.84V114H115.09ZM120.85 108.02C121.45 108.02 121.97 107.873 122.41 107.58C122.863 107.287 123.216 106.88 123.47 106.36C123.723 105.827 123.85 105.227 123.85 104.56C123.85 103.867 123.723 103.267 123.47 102.76C123.216 102.253 122.863 101.86 122.41 101.58C121.97 101.287 121.45 101.14 120.85 101.14C120.303 101.14 119.796 101.26 119.33 101.5C118.876 101.74 118.503 102.093 118.21 102.56C117.93 103.027 117.79 103.587 117.79 104.24V105.04C117.79 105.667 117.936 106.2 118.23 106.64C118.523 107.08 118.903 107.42 119.37 107.66C119.836 107.9 120.33 108.02 120.85 108.02ZM129.214 110V95.4H131.994V110H129.214ZM127.854 97.48V95.4H131.994V97.48H127.854ZM141.748 110V106.78H141.288V103.2C141.288 102.573 141.135 102.107 140.828 101.8C140.521 101.493 140.048 101.34 139.408 101.34C139.075 101.34 138.675 101.347 138.208 101.36C137.741 101.373 137.268 101.393 136.788 101.42C136.321 101.433 135.901 101.453 135.528 101.48V99.12C135.835 99.0933 136.181 99.0667 136.568 99.04C136.955 99.0133 137.348 99 137.748 99C138.161 98.9867 138.548 98.98 138.908 98.98C140.028 98.98 140.955 99.1267 141.688 99.42C142.435 99.7133 142.995 100.173 143.368 100.8C143.755 101.427 143.948 102.247 143.948 103.26V110H141.748ZM138.248 110.28C137.461 110.28 136.768 110.14 136.168 109.86C135.581 109.58 135.121 109.18 134.788 108.66C134.468 108.14 134.308 107.513 134.308 106.78C134.308 105.98 134.501 105.327 134.888 104.82C135.288 104.313 135.841 103.933 136.548 103.68C137.268 103.427 138.108 103.3 139.068 103.3H141.588V104.96H139.028C138.388 104.96 137.895 105.12 137.548 105.44C137.215 105.747 137.048 106.147 137.048 106.64C137.048 107.133 137.215 107.533 137.548 107.84C137.895 108.147 138.388 108.3 139.028 108.3C139.415 108.3 139.768 108.233 140.088 108.1C140.421 107.953 140.695 107.713 140.908 107.38C141.135 107.033 141.261 106.567 141.288 105.98L141.968 106.76C141.901 107.52 141.715 108.16 141.408 108.68C141.115 109.2 140.701 109.6 140.168 109.88C139.648 110.147 139.008 110.28 138.248 110.28ZM151.646 110.14C150.646 110.14 149.819 110.013 149.166 109.76C148.526 109.493 148.046 109.053 147.726 108.44C147.406 107.813 147.246 106.973 147.246 105.92L147.266 96.08H149.866L149.846 106.1C149.846 106.633 149.986 107.047 150.266 107.34C150.559 107.62 150.972 107.76 151.506 107.76H153.206V110.14H151.646ZM145.526 101.18V99.14H153.206V101.18H145.526ZM160.34 110.38C159.407 110.38 158.587 110.22 157.88 109.9C157.187 109.58 156.607 109.153 156.14 108.62C155.687 108.073 155.34 107.467 155.1 106.8C154.874 106.133 154.76 105.453 154.76 104.76V104.38C154.76 103.66 154.874 102.967 155.1 102.3C155.34 101.62 155.687 101.02 156.14 100.5C156.607 99.9667 157.18 99.5467 157.86 99.24C158.54 98.92 159.327 98.76 160.22 98.76C161.394 98.76 162.374 99.02 163.16 99.54C163.96 100.047 164.56 100.72 164.96 101.56C165.36 102.387 165.56 103.28 165.56 104.24V105.24H155.94V103.54H163.82L162.96 104.38C162.96 103.687 162.86 103.093 162.66 102.6C162.46 102.107 162.154 101.727 161.74 101.46C161.34 101.193 160.834 101.06 160.22 101.06C159.607 101.06 159.087 101.2 158.66 101.48C158.234 101.76 157.907 102.167 157.68 102.7C157.467 103.22 157.36 103.847 157.36 104.58C157.36 105.26 157.467 105.867 157.68 106.4C157.894 106.92 158.22 107.333 158.66 107.64C159.1 107.933 159.66 108.08 160.34 108.08C161.02 108.08 161.574 107.947 162 107.68C162.427 107.4 162.7 107.06 162.82 106.66H165.38C165.22 107.407 164.914 108.06 164.46 108.62C164.007 109.18 163.427 109.613 162.72 109.92C162.027 110.227 161.234 110.38 160.34 110.38Z" fill="#171753"/>
<path d="M110.432 33.7674V3.04161C110.432 1.67153 111.269 1.03697 112.311 1.59942L135.859 15.0839C136.432 15.4908 136.9 16.0251 137.226 16.6437C137.553 17.2624 137.728 17.9482 137.738 18.6461V49.3646L110.432 33.7674Z" fill="#ECFFFE" stroke="#171753" stroke-width="1.4"/>
<path d="M134.934 43.3075L113.213 30.8903C112.987 30.7223 112.803 30.5046 112.677 30.2543C112.551 30.004 112.485 29.7279 112.485 29.4481V5.03186C112.485 4.47662 112.827 4.22421 113.213 4.46217L134.934 16.8794C135.161 17.0469 135.344 17.2646 135.471 17.515C135.597 17.7654 135.663 18.0416 135.662 18.3216V42.745C135.684 43.2858 135.349 43.5454 134.934 43.3075Z" fill="#9BE7C4"/>
<path fill-rule="evenodd" clip-rule="evenodd" d="M118.055 16.1295C118.055 14.7449 119.451 14.6344 120.522 15.936L120.524 15.9373L128.096 25.164C129.055 26.3458 129.055 27.8541 128.096 28.0588L128.092 28.0596L120.522 29.5691C119.451 29.7785 118.055 28.2455 118.055 26.8608V16.1295Z" fill="#ECFFFE" stroke="#171753" stroke-width="1.02315" stroke-miterlimit="10" stroke-linecap="round"/>
<path d="M98.8997 45.0344C98.6106 44.8693 98.4321 44.5619 98.4321 44.2289V14.0416C98.4321 12.6715 99.2694 12.037 100.311 12.5994L123.859 26.0839C124.432 26.4908 124.9 27.0251 125.226 27.6437C125.553 28.2624 125.728 28.9482 125.738 29.6461V58.7663C125.738 59.4786 124.969 59.9251 124.35 59.5719L98.8997 45.0344Z" fill="#ECFFFE" stroke="#171753" stroke-width="1.4"/>
<path d="M122.935 54.3075L101.214 41.8903C100.988 41.7223 100.804 41.5046 100.678 41.2543C100.552 41.004 100.486 40.7279 100.486 40.4481V16.0319C100.486 15.4766 100.828 15.2242 101.214 15.4622L122.935 27.8794C123.162 28.0469 123.345 28.2646 123.472 28.515C123.598 28.7654 123.664 29.0416 123.663 29.3216V53.745C123.685 54.2858 123.35 54.5454 122.935 54.3075Z" fill="#49CE8B"/>
<path d="M120.659 44.1629L116.29 34.6589C116.203 34.4787 116.035 34.3633 115.933 34.421L109.889 38.1634C109.569 38.3653 109.03 37.601 109.256 37.2693L111.28 34.32C111.319 34.244 111.34 34.1601 111.34 34.0748C111.34 33.9896 111.319 33.9056 111.28 33.8296L108.63 27.8013C108.397 27.2605 107.902 26.9432 107.618 27.1812C106.431 28.27 103.547 30.902 102.331 31.9981C102.134 32.2051 101.982 32.4504 101.886 32.7186C101.789 32.9867 101.75 33.2717 101.77 33.5556V38.5168C101.785 38.8048 101.868 39.0854 102.012 39.3359C102.156 39.5864 102.358 39.7998 102.6 39.9589L120.295 50.0543C120.761 50.3138 121.132 50.0975 121.132 49.5711V46.2036C121.118 45.4984 120.957 44.8037 120.659 44.1629V44.1629Z" fill="#ECFFFE"/>
<path d="M120.688 50.5879C120.482 50.5863 120.281 50.5289 120.106 50.4221L102.411 40.3268C102.103 40.1353 101.847 39.8724 101.664 39.5608C101.482 39.2493 101.378 38.8984 101.363 38.5385V33.5774C101.343 33.2337 101.398 32.8899 101.523 32.5689C101.649 32.248 101.842 31.9575 102.091 31.7169C103.314 30.6136 106.191 27.9889 107.377 26.9C107.467 26.8185 107.576 26.7605 107.695 26.7315C107.813 26.7026 107.937 26.7035 108.055 26.7341C108.282 26.8029 108.49 26.9217 108.664 27.0816C108.838 27.2414 108.973 27.4382 109.06 27.6572L111.71 33.6927C111.783 33.8282 111.821 33.9792 111.821 34.1326C111.821 34.2859 111.783 34.437 111.71 34.5725L109.693 37.5217C109.73 37.6149 109.785 37.7005 109.853 37.7741L115.802 34.0965C115.87 34.0545 115.946 34.0281 116.026 34.0194C116.105 34.0107 116.186 34.0198 116.261 34.046C116.372 34.0844 116.473 34.1453 116.558 34.2248C116.643 34.3043 116.711 34.4006 116.756 34.5075L121.089 44.0188C121.423 44.7133 121.604 45.4704 121.62 46.2397V49.6072C121.632 49.7834 121.596 49.9594 121.515 50.1168C121.434 50.2741 121.312 50.407 121.161 50.5014C121.016 50.5759 120.851 50.606 120.688 50.5879V50.5879ZM107.873 27.5129C106.664 28.6162 103.831 31.2049 102.623 32.2866C102.471 32.4572 102.356 32.6561 102.283 32.8716C102.211 33.0871 102.183 33.3148 102.2 33.5413V38.5024C102.217 38.7163 102.282 38.9238 102.391 39.1097C102.499 39.2956 102.648 39.4552 102.826 39.5769L120.521 49.6722C120.573 49.7065 120.633 49.7264 120.696 49.7298C120.726 49.6747 120.739 49.6119 120.732 49.5495V46.182C120.713 45.5307 120.559 44.8901 120.28 44.3L115.97 34.9041L110.145 38.5096C109.99 38.5975 109.808 38.6262 109.634 38.5903C109.46 38.5544 109.304 38.4565 109.198 38.3149C109.021 38.157 108.901 37.9461 108.856 37.7144C108.812 37.4826 108.845 37.2428 108.95 37.0314L110.967 34.0821C110.967 34.0821 110.967 34.0821 110.916 33.9884L108.266 27.96C108.192 27.7731 108.053 27.6193 107.873 27.5274V27.5129Z" fill="#171753"/>
<path d="M115.184 29.3372C115.184 30.6496 114.252 31.1832 113.102 30.527C112.498 30.1363 111.995 29.6102 111.635 28.9913C111.274 28.3724 111.066 27.6782 111.026 26.9648C111.026 25.6524 111.958 25.1188 113.102 25.775C113.707 26.1645 114.212 26.6901 114.574 27.3091C114.936 27.9281 115.145 28.623 115.184 29.3372Z" fill="#ECFFFE"/>
<path d="M114.033 31.2193C113.63 31.2097 113.238 31.0926 112.897 30.8804C112.228 30.4561 111.671 29.8792 111.273 29.1979C110.875 28.5167 110.648 27.7509 110.61 26.9648C110.558 26.6345 110.608 26.2964 110.754 25.9947C110.899 25.693 111.133 25.4418 111.425 25.2742C111.718 25.1066 112.054 25.0303 112.391 25.0553C112.727 25.0804 113.048 25.2056 113.312 25.4145C113.981 25.8408 114.537 26.4192 114.935 27.1015C115.333 27.7838 115.56 28.5503 115.598 29.3372C115.629 29.6652 115.569 29.9952 115.426 30.2923C115.282 30.5894 115.06 30.8424 114.783 31.0246C114.555 31.1554 114.296 31.2227 114.033 31.2193ZM112.176 25.9048C112.058 25.9027 111.943 25.9326 111.841 25.9914C111.696 26.1061 111.582 26.2558 111.512 26.4263C111.442 26.5968 111.418 26.7822 111.441 26.9648C111.482 27.6053 111.673 28.2275 111.997 28.783C112.322 29.3384 112.772 29.8119 113.312 30.1665C113.459 30.2791 113.633 30.3517 113.817 30.377C114.001 30.4023 114.188 30.3795 114.36 30.3107C114.506 30.196 114.619 30.0462 114.689 29.8758C114.759 29.7053 114.784 29.5199 114.761 29.3372C114.721 28.6973 114.532 28.0752 114.208 27.5198C113.885 26.9643 113.436 26.4906 112.897 26.1356C112.681 25.997 112.433 25.9174 112.176 25.9048Z" fill="#171753"/>
<defs>
<filter id="filter0_d_140_6176" x="0" y="55" width="237" height="80.0552" filterUnits="userSpaceOnUse" color-interpolation-filters="sRGB">
<feFlood flood-opacity="0" result="BackgroundImageFix"/>
<feColorMatrix in="SourceAlpha" type="matrix" values="0 0 0 0 0 0 0 0 0 0 0 0 0 0 0 0 0 0 127 0" result="hardAlpha"/>
<feOffset dy="4"/>
<feGaussianBlur stdDeviation="2"/>
<feComposite in2="hardAlpha" operator="out"/>
<feColorMatrix type="matrix" values="0 0 0 0 0.0901961 0 0 0 0 0.0901961 0 0 0 0 0.32549 0 0 0 0.25 0"/>
<feBlend mode="normal" in2="BackgroundImageFix" result="effect1_dropShadow_140_6176"/>
<feBlend mode="normal" in="SourceGraphic" in2="effect1_dropShadow_140_6176" result="shape"/>
</filter>
</defs>
</svg>
