<svg width="237" height="141" viewBox="0 0 237 141" fill="none" xmlns="http://www.w3.org/2000/svg">
<g opacity="0.3" filter="url(#filter0_d_140_6180)">
<rect x="4" y="60" width="229" height="72.0552" rx="16" fill="#8989C7"/>
</g>
<path d="M60.8753 103V90.5H63.7153V103H60.8753ZM56.6553 90.9V88.4H67.9353V90.9H56.6553ZM73.8547 103.38C72.8947 103.38 72.048 103.227 71.3147 102.92C70.5814 102.613 69.9614 102.2 69.4547 101.68C68.948 101.147 68.5614 100.547 68.2947 99.88C68.0414 99.2133 67.9147 98.52 67.9147 97.8V97.38C67.9147 96.6333 68.048 95.9267 68.3147 95.26C68.5947 94.58 68.988 93.98 69.4947 93.46C70.0147 92.9267 70.6414 92.5133 71.3747 92.22C72.108 91.9133 72.9347 91.76 73.8547 91.76C74.7747 91.76 75.6014 91.9133 76.3347 92.22C77.068 92.5133 77.688 92.9267 78.1947 93.46C78.7147 93.98 79.108 94.58 79.3747 95.26C79.6414 95.9267 79.7747 96.6333 79.7747 97.38V97.8C79.7747 98.52 79.6414 99.2133 79.3747 99.88C79.1214 100.547 78.7414 101.147 78.2347 101.68C77.728 102.2 77.108 102.613 76.3747 102.92C75.6414 103.227 74.8014 103.38 73.8547 103.38ZM73.8547 101C74.5347 101 75.108 100.853 75.5747 100.56C76.0414 100.253 76.3947 99.8467 76.6347 99.34C76.8747 98.82 76.9947 98.2333 76.9947 97.58C76.9947 96.9133 76.868 96.3267 76.6147 95.82C76.3747 95.3 76.0147 94.8933 75.5347 94.6C75.068 94.2933 74.508 94.14 73.8547 94.14C73.2014 94.14 72.6347 94.2933 72.1547 94.6C71.688 94.8933 71.328 95.3 71.0747 95.82C70.8214 96.3267 70.6947 96.9133 70.6947 97.58C70.6947 98.2333 70.8147 98.82 71.0547 99.34C71.308 99.8467 71.668 100.253 72.1347 100.56C72.6014 100.853 73.1747 101 73.8547 101ZM89.8089 103L86.1689 97.92H84.5489L89.1689 92.14H92.0689L87.8089 97.48L87.8689 96.08L92.9489 103H89.8089ZM82.2089 103V88.4H84.9889V103H82.2089ZM99.0611 103.38C98.1278 103.38 97.3078 103.22 96.6011 102.9C95.9078 102.58 95.3278 102.153 94.8611 101.62C94.4078 101.073 94.0611 100.467 93.8211 99.8C93.5944 99.1333 93.4811 98.4533 93.4811 97.76V97.38C93.4811 96.66 93.5944 95.9667 93.8211 95.3C94.0611 94.62 94.4078 94.02 94.8611 93.5C95.3278 92.9667 95.9011 92.5467 96.5811 92.24C97.2611 91.92 98.0478 91.76 98.9411 91.76C100.114 91.76 101.094 92.02 101.881 92.54C102.681 93.0467 103.281 93.72 103.681 94.56C104.081 95.3867 104.281 96.28 104.281 97.24V98.24H94.6611V96.54H102.541L101.681 97.38C101.681 96.6867 101.581 96.0933 101.381 95.6C101.181 95.1067 100.874 94.7267 100.461 94.46C100.061 94.1933 99.5544 94.06 98.9411 94.06C98.3278 94.06 97.8078 94.2 97.3811 94.48C96.9544 94.76 96.6278 95.1667 96.4011 95.7C96.1878 96.22 96.0811 96.8467 96.0811 97.58C96.0811 98.26 96.1878 98.8667 96.4011 99.4C96.6144 99.92 96.9411 100.333 97.3811 100.64C97.8211 100.933 98.3811 101.08 99.0611 101.08C99.7411 101.08 100.294 100.947 100.721 100.68C101.148 100.4 101.421 100.06 101.541 99.66H104.101C103.941 100.407 103.634 101.06 103.181 101.62C102.728 102.18 102.148 102.613 101.441 102.92C100.748 103.227 99.9544 103.38 99.0611 103.38ZM106.603 103V92.14H108.803V96.8H108.603C108.603 95.6933 108.75 94.7733 109.043 94.04C109.337 93.2933 109.77 92.7333 110.343 92.36C110.93 91.9867 111.657 91.8 112.523 91.8H112.643C113.937 91.8 114.917 92.22 115.583 93.06C116.25 93.8867 116.583 95.1267 116.583 96.78V103H113.803V96.54C113.803 95.8733 113.61 95.3333 113.223 94.92C112.85 94.5067 112.33 94.3 111.663 94.3C110.983 94.3 110.43 94.5133 110.003 94.94C109.59 95.3533 109.383 95.9133 109.383 96.62V103H106.603ZM124.792 103.38C123.832 103.38 122.986 103.227 122.252 102.92C121.519 102.613 120.899 102.2 120.392 101.68C119.886 101.147 119.499 100.547 119.232 99.88C118.979 99.2133 118.852 98.52 118.852 97.8V97.38C118.852 96.6333 118.986 95.9267 119.252 95.26C119.532 94.58 119.926 93.98 120.432 93.46C120.952 92.9267 121.579 92.5133 122.312 92.22C123.046 91.9133 123.872 91.76 124.792 91.76C125.712 91.76 126.539 91.9133 127.272 92.22C128.006 92.5133 128.626 92.9267 129.132 93.46C129.652 93.98 130.046 94.58 130.312 95.26C130.579 95.9267 130.712 96.6333 130.712 97.38V97.8C130.712 98.52 130.579 99.2133 130.312 99.88C130.059 100.547 129.679 101.147 129.172 101.68C128.666 102.2 128.046 102.613 127.312 102.92C126.579 103.227 125.739 103.38 124.792 103.38ZM124.792 101C125.472 101 126.046 100.853 126.512 100.56C126.979 100.253 127.332 99.8467 127.572 99.34C127.812 98.82 127.932 98.2333 127.932 97.58C127.932 96.9133 127.806 96.3267 127.552 95.82C127.312 95.3 126.952 94.8933 126.472 94.6C126.006 94.2933 125.446 94.14 124.792 94.14C124.139 94.14 123.572 94.2933 123.092 94.6C122.626 94.8933 122.266 95.3 122.012 95.82C121.759 96.3267 121.632 96.9133 121.632 97.58C121.632 98.2333 121.752 98.82 121.992 99.34C122.246 99.8467 122.606 100.253 123.072 100.56C123.539 100.853 124.112 101 124.792 101ZM133.146 103V92.14H135.346V96.8H135.146C135.146 95.7067 135.286 94.7933 135.566 94.06C135.846 93.3133 136.26 92.7533 136.806 92.38C137.366 91.9933 138.06 91.8 138.886 91.8H139.006C139.846 91.8 140.54 91.9933 141.086 92.38C141.646 92.7533 142.06 93.3133 142.326 94.06C142.606 94.7933 142.746 95.7067 142.746 96.8H142.046C142.046 95.7067 142.186 94.7933 142.466 94.06C142.76 93.3133 143.18 92.7533 143.726 92.38C144.286 91.9933 144.98 91.8 145.806 91.8H145.926C146.766 91.8 147.466 91.9933 148.026 92.38C148.586 92.7533 149.006 93.3133 149.286 94.06C149.58 94.7933 149.726 95.7067 149.726 96.8V103H146.946V96.54C146.946 95.86 146.773 95.32 146.426 94.92C146.08 94.5067 145.586 94.3 144.946 94.3C144.306 94.3 143.793 94.5133 143.406 94.94C143.02 95.3533 142.826 95.9133 142.826 96.62V103H140.046V96.54C140.046 95.86 139.873 95.32 139.526 94.92C139.18 94.5067 138.686 94.3 138.046 94.3C137.406 94.3 136.893 94.5133 136.506 94.94C136.12 95.3533 135.926 95.9133 135.926 96.62V103H133.146ZM153.217 103V92.14H155.997V103H153.217ZM151.697 94.22V92.14H155.997V94.22H151.697ZM154.237 90.84C153.691 90.84 153.284 90.7 153.017 90.42C152.764 90.1267 152.637 89.7667 152.637 89.34C152.637 88.8867 152.764 88.52 153.017 88.24C153.284 87.96 153.691 87.82 154.237 87.82C154.784 87.82 155.184 87.96 155.437 88.24C155.691 88.52 155.817 88.8867 155.817 89.34C155.817 89.7667 155.691 90.1267 155.437 90.42C155.184 90.7 154.784 90.84 154.237 90.84ZM164.021 103.38C163.074 103.38 162.254 103.22 161.561 102.9C160.881 102.58 160.308 102.153 159.841 101.62C159.388 101.087 159.048 100.487 158.821 99.82C158.594 99.1533 158.481 98.4733 158.481 97.78V97.4C158.481 96.6667 158.594 95.9667 158.821 95.3C159.061 94.62 159.414 94.02 159.881 93.5C160.348 92.9667 160.921 92.5467 161.601 92.24C162.294 91.92 163.094 91.76 164.001 91.76C164.948 91.76 165.794 91.9467 166.541 92.32C167.288 92.68 167.881 93.1867 168.321 93.84C168.774 94.4933 169.028 95.2533 169.081 96.12H166.381C166.314 95.56 166.074 95.0933 165.661 94.72C165.261 94.3467 164.708 94.16 164.001 94.16C163.388 94.16 162.874 94.3067 162.461 94.6C162.061 94.8933 161.761 95.3 161.561 95.82C161.361 96.3267 161.261 96.9133 161.261 97.58C161.261 98.22 161.354 98.8 161.541 99.32C161.741 99.84 162.041 100.247 162.441 100.54C162.854 100.833 163.381 100.98 164.021 100.98C164.501 100.98 164.914 100.893 165.261 100.72C165.608 100.547 165.881 100.307 166.081 100C166.294 99.6933 166.428 99.3467 166.481 98.96H169.181C169.128 99.84 168.868 100.613 168.401 101.28C167.948 101.933 167.341 102.447 166.581 102.82C165.834 103.193 164.981 103.38 164.021 103.38ZM175.348 103.34C173.855 103.34 172.681 103.027 171.828 102.4C170.988 101.76 170.548 100.88 170.508 99.76H173.008C173.048 100.133 173.255 100.473 173.628 100.78C174.001 101.087 174.588 101.24 175.388 101.24C176.055 101.24 176.581 101.12 176.968 100.88C177.368 100.64 177.568 100.313 177.568 99.9C177.568 99.54 177.415 99.2533 177.108 99.04C176.815 98.8267 176.308 98.6867 175.588 98.62L174.628 98.52C173.415 98.3867 172.481 98.04 171.828 97.48C171.175 96.92 170.848 96.1733 170.848 95.24C170.848 94.4933 171.035 93.8667 171.408 93.36C171.781 92.8533 172.295 92.4733 172.948 92.22C173.615 91.9533 174.375 91.82 175.228 91.82C176.561 91.82 177.641 92.1133 178.468 92.7C179.295 93.2867 179.728 94.1467 179.768 95.28H177.268C177.241 94.9067 177.055 94.5867 176.708 94.32C176.361 94.0533 175.861 93.92 175.208 93.92C174.621 93.92 174.168 94.0333 173.848 94.26C173.528 94.4867 173.368 94.78 173.368 95.14C173.368 95.4867 173.495 95.7533 173.748 95.94C174.015 96.1267 174.441 96.2533 175.028 96.32L175.988 96.42C177.268 96.5533 178.268 96.9067 178.988 97.48C179.721 98.0533 180.088 98.8267 180.088 99.8C180.088 100.52 179.888 101.147 179.488 101.68C179.101 102.2 178.555 102.607 177.848 102.9C177.141 103.193 176.308 103.34 175.348 103.34Z" fill="#171753"/>
<path d="M104.812 52.2191C111.57 51.6934 119.253 45.3684 123.867 35.7347C128.481 26.101 128.589 16.1677 124.777 10.5636L125.4 9.2438L120.785 7.03928C113.23 3.41364 102.364 10.3966 96.4912 22.6389C90.6184 34.8812 92.0144 47.7196 99.569 51.3452L104.185 53.5498L104.812 52.2191Z" fill="#E3E0EB"/>
<path d="M96.1379 22.4676C102.079 10.061 113.182 2.97079 120.951 6.69799L125.919 9.07393L125.221 10.5425C129.08 16.4355 128.69 26.5855 124.214 35.9171C119.738 45.2487 112.084 51.9064 105.066 52.5941L104.369 54.0626L99.4012 51.6867C91.665 47.9731 90.2017 34.8632 96.1379 22.4676ZM124.878 9.45122L120.597 7.39809C113.246 3.86949 102.533 10.7618 96.8252 22.7904C91.1177 34.8189 92.3711 47.4444 99.7402 50.9292L104.025 52.9714L104.585 51.8049L104.807 51.7943C111.612 51.2494 119.137 44.7179 123.538 35.535C127.94 26.3522 128.317 16.3891 124.477 10.7604L124.347 10.5784L124.878 9.45122Z" fill="#171753"/>
<path d="M104.156 53.5252C96.5969 49.9106 95.2389 37.011 101.074 24.8299C106.908 12.6488 117.804 5.62651 125.367 9.23024C132.931 12.834 134.284 25.7445 128.45 37.9256C122.615 50.1067 111.743 57.1645 104.156 53.5252Z" fill="#8989C7"/>
<path d="M127.378 37.4142C133.234 25.1895 131.856 12.3454 124.301 8.72605C116.745 5.10671 105.873 12.0827 100.017 24.3074C94.1608 36.5322 95.5386 49.3763 103.094 52.9957C110.65 56.615 121.522 49.6389 127.378 37.4142Z" fill="#8989C7"/>
<path d="M100.71 24.6537C106.651 12.2471 117.749 5.16787 125.523 8.88412C133.297 12.6004 134.727 25.6967 128.819 38.1168C122.911 50.5369 111.775 57.6136 104.006 53.8864C96.2372 50.1592 94.8132 37.0783 100.71 24.6537ZM128.077 37.7713C133.833 25.75 132.531 13.1173 125.173 9.63708C117.815 6.15681 107.109 13.0008 101.397 25.0403C95.6847 37.0798 96.9426 49.6943 104.312 53.1791C111.681 56.6639 122.37 49.7999 128.121 37.7895L128.077 37.7713Z" fill="#171753"/>
<path d="M125.699 36.6098C130.376 26.8465 129.559 16.7244 123.875 14.0015C118.191 11.2785 109.791 16.9857 105.114 26.749C100.437 36.5122 101.254 46.6343 106.939 49.3573C112.623 52.0803 121.022 46.373 125.699 36.6098Z" fill="#E3E0EB"/>
<path d="M104.755 26.5961C109.526 16.6429 118.171 10.8443 124.047 13.6601C129.923 16.4758 130.814 26.8478 126.024 36.781C121.235 46.7141 112.65 52.5245 106.765 49.7306C100.879 46.9367 99.9981 36.5429 104.755 26.5961ZM125.371 36.4079C129.938 26.8573 129.203 16.9471 123.723 14.3209C118.243 11.6946 110.06 17.3381 105.482 26.8842C100.904 36.4303 101.646 46.3559 107.125 48.9822C112.605 51.6084 120.77 46.0088 125.331 36.4427L125.371 36.4079Z" fill="#171753"/>
<path d="M125.704 36.6232C130.383 26.8626 129.558 16.7356 123.857 14.0562C123.348 13.8193 122.811 13.6487 122.258 13.5488C126.63 17.1788 126.941 26.3488 122.687 35.2341C118.434 44.1194 111.073 49.6669 105.517 48.4967C105.945 48.8602 106.415 49.1709 106.917 49.4221C112.618 52.1016 121.02 46.3947 125.704 36.6232Z" fill="#E3E0EB"/>
<path d="M104.899 47.8821L105.619 48.0644C111.06 49.1738 118.256 43.5584 122.354 35.019C126.451 26.4796 126.303 17.351 122.027 13.7992L121.338 13.2321L122.36 13.1165C122.944 13.2225 123.511 13.4053 124.046 13.6601C129.912 16.4714 130.813 26.8479 126.024 36.781C121.234 46.7142 112.649 52.5246 106.764 49.7307C106.234 49.4624 105.737 49.1322 105.285 48.7471L104.899 47.8821ZM125.33 36.4427C129.897 26.8921 129.162 16.9819 123.682 14.3557L123.627 14.333C127.13 18.6681 126.971 27.1438 123.036 35.3528C119.101 43.5617 112.598 48.9894 107.023 48.9788L107.089 49.006C112.619 51.6659 120.769 46.0089 125.33 36.4427Z" fill="#171753"/>
<path d="M126.879 33.5693L123.968 32.1727L125.396 26.7997L125.636 20.9483L124.244 15.9735L122.282 13.4943L124.948 14.5204L127.301 17.4818L128.517 21.3322L128.603 26.767L127.276 32.7332L126.879 33.5693Z" fill="#171753"/>
<path d="M99.9999 27.3613L95.3013 25.1096L93.65 30.7749L92.7128 36.5432L93.5368 43.3865L96.0093 48.5391L98.3011 50.7185L102.007 52.3929L98.515 47.6905L97.5204 41.1357L98.3864 32.4395L99.9999 27.3613Z" fill="#171753"/>
<path d="M111.048 42.9434L114.65 41.4387L114.707 37.9635C115.215 37.6316 115.692 37.2568 116.138 36.8391C117.059 35.9765 117.796 35.003 118.35 33.9186C118.917 32.8421 119.257 31.7114 119.372 30.5263L116.4 31.7677C116.307 32.3753 116.107 32.9435 115.8 33.4722C115.493 34.0009 115.098 34.4762 114.614 34.898C114.142 35.3148 113.612 35.6461 113.023 35.8918C112.435 36.1376 111.915 36.2452 111.462 36.2146C111.009 36.184 110.63 36.0323 110.325 35.7593C110.031 35.4814 109.805 35.0978 109.646 34.6086C109.499 34.1273 109.431 33.5484 109.442 32.8719C109.453 32.2083 109.541 31.5642 109.706 30.9395C109.883 30.3229 110.131 29.7412 110.45 29.1944C110.781 28.6557 111.182 28.1779 111.654 27.7611C112.126 27.3573 112.662 27.03 113.262 26.7792C114.175 26.398 114.939 26.3177 115.556 26.5383C116.184 26.7539 116.557 27.2569 116.676 28.0474L119.629 26.8136C119.538 25.8179 119.23 24.997 118.704 24.351C118.19 23.713 117.474 23.3268 116.558 23.1926C116.073 23.1248 115.536 23.1512 114.947 23.2717L115.002 19.9497L111.399 21.4544L111.344 24.8536C110.949 25.1237 110.581 25.4178 110.238 25.7358C109.378 26.5473 108.672 27.4302 108.12 28.3845C107.568 29.3518 107.152 30.3135 106.874 31.2696C106.608 32.2336 106.468 33.119 106.455 33.9256L106.448 34.355C106.434 35.2397 106.551 36.0563 106.802 36.8046C107.051 37.566 107.441 38.1851 107.97 38.662C108.51 39.1338 109.192 39.4049 110.013 39.4752C110.352 39.5069 110.716 39.493 111.105 39.4332L111.048 42.9434Z" fill="#171753"/>
<path d="M124.103 63.2788C129.464 62.8618 135.558 57.8447 139.218 50.2031C142.878 42.5615 142.964 34.6822 139.94 30.2369L140.434 29.1901L136.773 27.4414C130.78 24.5655 122.161 30.1045 117.503 39.8153C112.844 49.5261 113.952 59.7097 119.944 62.5857L123.605 64.3343L124.103 63.2788Z" fill="#E3E0EB"/>
<path d="M117.222 39.6795C121.934 29.8384 130.741 24.2143 136.904 27.1708L140.844 29.0554L140.291 30.2203C143.352 34.8947 143.043 42.9459 139.492 50.3479C135.942 57.7499 129.871 63.0308 124.304 63.5763L123.751 64.7412L119.81 62.8566C113.674 59.9109 112.513 49.5119 117.222 39.6795ZM140.019 29.3547L136.623 27.7261C130.792 24.9272 122.294 30.3943 117.767 39.9355C113.24 49.4768 114.234 59.4915 120.079 62.2557L123.478 63.8756L123.922 62.9504L124.099 62.9419C129.496 62.5097 135.465 57.3288 138.956 50.0448C142.448 42.7608 142.747 34.8579 139.701 30.3931L139.598 30.2488L140.019 29.3547Z" fill="#171753"/>
<path d="M123.582 64.3149C117.586 61.4476 116.509 51.2155 121.137 41.5532C125.765 31.891 134.407 26.3208 140.407 29.1793C146.406 32.0379 147.48 42.2787 142.852 51.941C138.224 61.6033 129.6 67.2016 123.582 64.3149Z" fill="#8989C7"/>
<path d="M142.003 51.5355C146.648 41.8386 145.555 31.6504 139.562 28.7795C133.568 25.9086 124.944 31.4421 120.299 41.1389C115.654 50.8358 116.747 61.024 122.74 63.8949C128.734 66.7658 137.358 61.2323 142.003 51.5355Z" fill="#8989C7"/>
<path d="M120.85 41.4135C125.562 31.5724 134.365 25.957 140.532 28.9048C146.698 31.8526 147.832 42.2408 143.146 52.0927C138.46 61.9445 129.627 67.5578 123.464 64.6014C117.302 61.6449 116.172 51.2689 120.85 41.4135ZM142.557 51.8186C147.123 42.2831 146.091 32.2627 140.254 29.5021C134.417 26.7414 125.925 32.1702 121.394 41.7202C116.863 51.2701 117.861 61.2762 123.706 64.0404C129.552 66.8046 138.03 61.3599 142.592 51.833L142.557 51.8186Z" fill="#171753"/>
<path d="M140.671 50.8972C144.38 43.1529 143.732 35.1239 139.223 32.9639C134.714 30.804 128.052 35.3311 124.342 43.0755C120.632 50.8198 121.28 58.8489 125.789 61.0088C130.298 63.1687 136.961 58.6416 140.671 50.8972Z" fill="#E3E0EB"/>
<path d="M124.057 42.9542C127.842 35.0592 134.699 30.4596 139.36 32.6932C144.021 34.9267 144.728 43.1539 140.929 51.033C137.13 58.9122 130.32 63.5211 125.651 61.3049C120.983 59.0888 120.284 50.8442 124.057 42.9542ZM140.41 50.7371C144.033 43.1614 143.45 35.3005 139.103 33.2173C134.756 31.1341 128.265 35.6106 124.634 43.1828C121.003 50.7549 121.591 58.6281 125.938 60.7113C130.285 62.7944 136.761 58.3527 140.379 50.7647L140.41 50.7371Z" fill="#171753"/>
<path d="M140.675 50.9078C144.386 43.1655 143.732 35.1326 139.21 33.0072C138.806 32.8193 138.38 32.6841 137.942 32.6048C141.41 35.4841 141.656 42.758 138.282 49.8059C134.908 56.8539 129.07 61.2543 124.662 60.326C125.001 60.6144 125.374 60.8609 125.772 61.0601C130.295 63.1855 136.959 58.6587 140.675 50.9078Z" fill="#E3E0EB"/>
<path d="M124.172 59.8387L124.743 59.9833C129.058 60.8633 134.767 56.4091 138.017 49.6355C141.267 42.8619 141.149 35.621 137.758 32.8036L137.211 32.3537L138.022 32.262C138.485 32.3461 138.935 32.4911 139.36 32.6933C144.012 34.9232 144.727 43.154 140.928 51.0332C137.129 58.9123 130.319 63.5212 125.651 61.305C125.23 61.0923 124.837 60.8304 124.478 60.5249L124.172 59.8387ZM140.378 50.7648C144 43.1891 143.417 35.3282 139.07 33.245L139.027 33.227C141.806 36.6656 141.68 43.3887 138.558 49.9002C135.437 56.4117 130.278 60.7171 125.857 60.7087L125.909 60.7302C130.295 62.8401 136.76 58.3528 140.378 50.7648Z" fill="#171753"/>
<path d="M141.606 48.4855L139.297 47.3777L140.43 43.1157L140.621 38.4743L139.517 34.5282L137.96 32.5616L140.075 33.3756L141.941 35.7246L142.906 38.7788L142.974 43.0898L141.921 47.8223L141.606 48.4855Z" fill="#171753"/>
<path d="M120.286 43.5612L116.559 41.7751L115.249 46.269L114.505 50.8445L115.159 56.2727L117.12 60.3598L118.938 62.0885L121.878 63.4167L119.108 59.6867L118.319 54.4873L119.006 47.5893L120.286 43.5612Z" fill="#171753"/>
<path d="M129.049 55.9212L131.906 54.7277L131.951 51.9711C132.354 51.7078 132.733 51.4105 133.086 51.0792C133.816 50.3949 134.401 49.6227 134.841 48.7626C135.29 47.9087 135.56 47.0118 135.651 46.0718L133.294 47.0565C133.22 47.5384 133.061 47.9891 132.818 48.4085C132.575 48.8279 132.261 49.2049 131.877 49.5395C131.503 49.8701 131.082 50.1329 130.616 50.3278C130.149 50.5227 129.736 50.6081 129.377 50.5838C129.018 50.5596 128.717 50.4392 128.475 50.2227C128.242 50.0022 128.063 49.698 127.937 49.3099C127.82 48.9282 127.766 48.469 127.775 47.9323C127.783 47.406 127.853 46.8951 127.984 46.3996C128.125 45.9104 128.321 45.449 128.574 45.0153C128.837 44.5879 129.155 44.209 129.529 43.8784C129.904 43.5581 130.329 43.2985 130.805 43.0995C131.529 42.7972 132.135 42.7335 132.624 42.9084C133.123 43.0794 133.419 43.4784 133.513 44.1055L135.856 43.1268C135.783 42.3369 135.539 41.6858 135.121 41.1734C134.714 40.6673 134.146 40.361 133.42 40.2546C133.034 40.2008 132.608 40.2217 132.142 40.3173L132.185 37.6822L129.328 38.8758L129.283 41.5721C128.97 41.7863 128.678 42.0196 128.407 42.2719C127.724 42.9156 127.164 43.6159 126.726 44.3729C126.288 45.1402 125.959 45.903 125.738 46.6613C125.527 47.426 125.416 48.1283 125.406 48.7682L125.4 49.1087C125.389 49.8105 125.482 50.4582 125.68 51.0518C125.879 51.6558 126.188 52.1469 126.607 52.5251C127.036 52.8994 127.576 53.1144 128.228 53.1702C128.497 53.1954 128.785 53.1843 129.094 53.1369L129.049 55.9212Z" fill="#171753"/>
<defs>
<filter id="filter0_d_140_6180" x="0" y="60" width="237" height="80.0552" filterUnits="userSpaceOnUse" color-interpolation-filters="sRGB">
<feFlood flood-opacity="0" result="BackgroundImageFix"/>
<feColorMatrix in="SourceAlpha" type="matrix" values="0 0 0 0 0 0 0 0 0 0 0 0 0 0 0 0 0 0 127 0" result="hardAlpha"/>
<feOffset dy="4"/>
<feGaussianBlur stdDeviation="2"/>
<feComposite in2="hardAlpha" operator="out"/>
<feColorMatrix type="matrix" values="0 0 0 0 0.0901961 0 0 0 0 0.0901961 0 0 0 0 0.32549 0 0 0 0.25 0"/>
<feBlend mode="normal" in2="BackgroundImageFix" result="effect1_dropShadow_140_6180"/>
<feBlend mode="normal" in="SourceGraphic" in2="effect1_dropShadow_140_6180" result="shape"/>
</filter>
</defs>
</svg>
