<svg width="237" height="136" viewBox="0 0 237 136" fill="none" xmlns="http://www.w3.org/2000/svg">
<g opacity="0.3" filter="url(#filter0_d_140_6179)">
<rect x="4" y="55" width="229" height="72.0552" rx="16" fill="#9BE7C4"/>
</g>
<path d="M99.1453 86L95.4253 71.4H98.3653L101.385 84.1L100.605 83.64H102.605L101.725 84.1L104.105 71.96H106.545L103.585 86H99.1453ZM107.865 86L104.645 71.96H107.185L109.925 84.1L109.065 83.64H111.025L110.265 84.1L112.925 71.4H115.705L112.385 86H107.865ZM122.108 86.38C121.175 86.38 120.355 86.22 119.648 85.9C118.955 85.58 118.375 85.1533 117.908 84.62C117.455 84.0733 117.108 83.4667 116.868 82.8C116.641 82.1333 116.528 81.4533 116.528 80.76V80.38C116.528 79.66 116.641 78.9667 116.868 78.3C117.108 77.62 117.455 77.02 117.908 76.5C118.375 75.9667 118.948 75.5467 119.628 75.24C120.308 74.92 121.095 74.76 121.988 74.76C123.161 74.76 124.141 75.02 124.928 75.54C125.728 76.0467 126.328 76.72 126.728 77.56C127.128 78.3867 127.328 79.28 127.328 80.24V81.24H117.708V79.54H125.588L124.728 80.38C124.728 79.6867 124.628 79.0933 124.428 78.6C124.228 78.1067 123.921 77.7267 123.508 77.46C123.108 77.1933 122.601 77.06 121.988 77.06C121.375 77.06 120.855 77.2 120.428 77.48C120.001 77.76 119.675 78.1667 119.448 78.7C119.235 79.22 119.128 79.8467 119.128 80.58C119.128 81.26 119.235 81.8667 119.448 82.4C119.661 82.92 119.988 83.3333 120.428 83.64C120.868 83.9333 121.428 84.08 122.108 84.08C122.788 84.08 123.341 83.9467 123.768 83.68C124.195 83.4 124.468 83.06 124.588 82.66H127.148C126.988 83.4067 126.681 84.06 126.228 84.62C125.775 85.18 125.195 85.6133 124.488 85.92C123.795 86.2267 123.001 86.38 122.108 86.38ZM136.03 86.36C135.137 86.36 134.35 86.1733 133.67 85.8C132.99 85.4133 132.457 84.8533 132.07 84.12C131.684 83.3867 131.47 82.5 131.43 81.46H131.85V86H129.65V71.4H132.43V78.7L131.69 79.84C131.744 78.72 131.964 77.7867 132.35 77.04C132.75 76.2933 133.284 75.7333 133.95 75.36C134.617 74.9867 135.37 74.8 136.21 74.8C136.957 74.8 137.637 74.94 138.25 75.22C138.864 75.5 139.39 75.8933 139.83 76.4C140.27 76.8933 140.604 77.4733 140.83 78.14C141.07 78.8067 141.19 79.5333 141.19 80.32V80.74C141.19 81.5267 141.07 82.26 140.83 82.94C140.59 83.62 140.244 84.22 139.79 84.74C139.337 85.2467 138.79 85.6467 138.15 85.94C137.524 86.22 136.817 86.36 136.03 86.36ZM135.41 84.02C136.01 84.02 136.53 83.8733 136.97 83.58C137.424 83.2733 137.777 82.86 138.03 82.34C138.284 81.82 138.41 81.22 138.41 80.54C138.41 79.8467 138.284 79.2467 138.03 78.74C137.777 78.2333 137.424 77.84 136.97 77.56C136.53 77.28 136.01 77.14 135.41 77.14C134.864 77.14 134.357 77.26 133.89 77.5C133.437 77.74 133.064 78.0933 132.77 78.56C132.49 79.0267 132.35 79.5867 132.35 80.24V81.04C132.35 81.6667 132.497 82.2 132.79 82.64C133.084 83.08 133.464 83.42 133.93 83.66C134.397 83.9 134.89 84.02 135.41 84.02ZM81.0597 110.38C79.7397 110.38 78.6064 110.147 77.6597 109.68C76.713 109.213 75.9397 108.607 75.3397 107.86C74.753 107.113 74.3197 106.3 74.0397 105.42C73.7597 104.54 73.6197 103.693 73.6197 102.88V102.44C73.6197 101.533 73.7597 100.64 74.0397 99.76C74.333 98.88 74.7797 98.08 75.3797 97.36C75.9797 96.64 76.7397 96.0667 77.6597 95.64C78.593 95.2 79.693 94.98 80.9597 94.98C82.2797 94.98 83.4264 95.22 84.3997 95.7C85.3864 96.1667 86.173 96.8333 86.7597 97.7C87.3464 98.5533 87.6997 99.5533 87.8197 100.7H84.9597C84.853 100.033 84.613 99.4733 84.2397 99.02C83.8797 98.5533 83.4197 98.2067 82.8597 97.98C82.2997 97.74 81.6664 97.62 80.9597 97.62C80.2397 97.62 79.5997 97.7467 79.0397 98C78.4797 98.24 78.013 98.5867 77.6397 99.04C77.2664 99.4933 76.9797 100.027 76.7797 100.64C76.593 101.253 76.4997 101.933 76.4997 102.68C76.4997 103.4 76.593 104.067 76.7797 104.68C76.9797 105.293 77.273 105.833 77.6597 106.3C78.0464 106.753 78.5197 107.107 79.0797 107.36C79.653 107.613 80.313 107.74 81.0597 107.74C82.153 107.74 83.073 107.473 83.8197 106.94C84.5797 106.393 85.0397 105.633 85.1997 104.66H88.0597C87.9264 105.7 87.573 106.653 86.9997 107.52C86.4264 108.387 85.6397 109.08 84.6397 109.6C83.6397 110.12 82.4464 110.38 81.0597 110.38ZM90.2363 110V99.14H92.4363V103.74H92.3763C92.3763 102.18 92.7096 101 93.3763 100.2C94.0429 99.4 95.0229 99 96.3163 99H96.7163V101.42H95.9563C95.0229 101.42 94.2963 101.673 93.7763 102.18C93.2696 102.673 93.0163 103.393 93.0163 104.34V110H90.2363ZM105.098 110V106.78H104.638V103.2C104.638 102.573 104.484 102.107 104.178 101.8C103.871 101.493 103.398 101.34 102.758 101.34C102.424 101.34 102.024 101.347 101.558 101.36C101.091 101.373 100.618 101.393 100.138 101.42C99.6708 101.433 99.2508 101.453 98.8775 101.48V99.12C99.1842 99.0933 99.5308 99.0667 99.9175 99.04C100.304 99.0133 100.698 99 101.098 99C101.511 98.9867 101.898 98.98 102.258 98.98C103.378 98.98 104.304 99.1267 105.038 99.42C105.784 99.7133 106.344 100.173 106.718 100.8C107.104 101.427 107.298 102.247 107.298 103.26V110H105.098ZM101.598 110.28C100.811 110.28 100.118 110.14 99.5175 109.86C98.9308 109.58 98.4708 109.18 98.1375 108.66C97.8175 108.14 97.6575 107.513 97.6575 106.78C97.6575 105.98 97.8508 105.327 98.2375 104.82C98.6375 104.313 99.1908 103.933 99.8975 103.68C100.618 103.427 101.458 103.3 102.418 103.3H104.938V104.96H102.378C101.738 104.96 101.244 105.12 100.898 105.44C100.564 105.747 100.398 106.147 100.398 106.64C100.398 107.133 100.564 107.533 100.898 107.84C101.244 108.147 101.738 108.3 102.378 108.3C102.764 108.3 103.118 108.233 103.438 108.1C103.771 107.953 104.044 107.713 104.258 107.38C104.484 107.033 104.611 106.567 104.638 105.98L105.318 106.76C105.251 107.52 105.064 108.16 104.758 108.68C104.464 109.2 104.051 109.6 103.518 109.88C102.998 110.147 102.358 110.28 101.598 110.28ZM113.859 110L115.919 99.5H119.119L121.499 110H119.299L116.879 99.56H118.039L115.899 110H113.859ZM113.039 110L113.019 107.72H115.239V110H113.039ZM111.919 110L108.959 99.14H111.659L114.479 110H111.919ZM119.999 110V107.72H122.219L122.199 110H119.999ZM120.879 110L123.379 99.14H125.899L123.279 110H120.879ZM128.228 110V95.4H131.008V110H128.228ZM126.868 97.48V95.4H131.008V97.48H126.868ZM139.042 110.38C138.108 110.38 137.288 110.22 136.582 109.9C135.888 109.58 135.308 109.153 134.842 108.62C134.388 108.073 134.042 107.467 133.802 106.8C133.575 106.133 133.462 105.453 133.462 104.76V104.38C133.462 103.66 133.575 102.967 133.802 102.3C134.042 101.62 134.388 101.02 134.842 100.5C135.308 99.9667 135.882 99.5467 136.562 99.24C137.242 98.92 138.028 98.76 138.922 98.76C140.095 98.76 141.075 99.02 141.862 99.54C142.662 100.047 143.262 100.72 143.662 101.56C144.062 102.387 144.262 103.28 144.262 104.24V105.24H134.642V103.54H142.522L141.662 104.38C141.662 103.687 141.562 103.093 141.362 102.6C141.162 102.107 140.855 101.727 140.442 101.46C140.042 101.193 139.535 101.06 138.922 101.06C138.308 101.06 137.788 101.2 137.362 101.48C136.935 101.76 136.608 102.167 136.382 102.7C136.168 103.22 136.062 103.847 136.062 104.58C136.062 105.26 136.168 105.867 136.382 106.4C136.595 106.92 136.922 107.333 137.362 107.64C137.802 107.933 138.362 108.08 139.042 108.08C139.722 108.08 140.275 107.947 140.702 107.68C141.128 107.4 141.402 107.06 141.522 106.66H144.082C143.922 107.407 143.615 108.06 143.162 108.62C142.708 109.18 142.128 109.613 141.422 109.92C140.728 110.227 139.935 110.38 139.042 110.38ZM146.584 110V99.14H148.784V103.74H148.724C148.724 102.18 149.057 101 149.724 100.2C150.391 99.4 151.371 99 152.664 99H153.064V101.42H152.304C151.371 101.42 150.644 101.673 150.124 102.18C149.617 102.673 149.364 103.393 149.364 104.34V110H146.584ZM158.864 110.34C157.37 110.34 156.197 110.027 155.344 109.4C154.504 108.76 154.064 107.88 154.024 106.76H156.524C156.564 107.133 156.77 107.473 157.144 107.78C157.517 108.087 158.104 108.24 158.904 108.24C159.57 108.24 160.097 108.12 160.484 107.88C160.884 107.64 161.084 107.313 161.084 106.9C161.084 106.54 160.93 106.253 160.624 106.04C160.33 105.827 159.824 105.687 159.104 105.62L158.144 105.52C156.93 105.387 155.997 105.04 155.344 104.48C154.69 103.92 154.364 103.173 154.364 102.24C154.364 101.493 154.55 100.867 154.924 100.36C155.297 99.8533 155.81 99.4733 156.464 99.22C157.13 98.9533 157.89 98.82 158.744 98.82C160.077 98.82 161.157 99.1133 161.984 99.7C162.81 100.287 163.244 101.147 163.284 102.28H160.784C160.757 101.907 160.57 101.587 160.224 101.32C159.877 101.053 159.377 100.92 158.724 100.92C158.137 100.92 157.684 101.033 157.364 101.26C157.044 101.487 156.884 101.78 156.884 102.14C156.884 102.487 157.01 102.753 157.264 102.94C157.53 103.127 157.957 103.253 158.544 103.32L159.504 103.42C160.784 103.553 161.784 103.907 162.504 104.48C163.237 105.053 163.604 105.827 163.604 106.8C163.604 107.52 163.404 108.147 163.004 108.68C162.617 109.2 162.07 109.607 161.364 109.9C160.657 110.193 159.824 110.34 158.864 110.34Z" fill="#171753"/>
<path d="M119 59.6333C135.338 59.6333 148.6 46.6068 148.6 30.5167C148.6 14.4265 135.338 1.4 119 1.4C102.662 1.4 89.4 14.4265 89.4 30.5167C89.4 46.6068 102.662 59.6333 119 59.6333Z" fill="#BEF0ED" stroke="#171753" stroke-width="1.2"/>
<path d="M119.835 2.03149C119.396 2.81578 118.8 3.44321 117.953 3.66281C116.039 4.16475 114.502 3.47458 113.561 2.50207C106.785 3.75693 100.793 7.36464 96.5889 12.4155C98.0006 12.1959 99.5692 12.29 101.012 13.1997C101.012 13.1997 98.4084 13.4507 98.5025 15.4271C98.628 17.4035 100.887 15.4585 101.953 17.0271C103.051 18.5956 104.934 16.5565 103.616 15.4585C102.298 14.3291 103.804 12.7605 104.996 13.5135C106.157 14.2664 106.377 15.7408 105.687 17.2467C104.996 18.7839 107.6 18.4388 108.228 19.8505C108.886 21.2622 107.153 22.2364 108.165 22.6425C109.09 23.0139 110.204 21.1053 110.204 21.1053C110.737 20.6975 111.459 20.7603 111.93 21.2308C111.93 21.2308 112.329 21.4972 112.431 21.7641C112.684 22.4195 111.208 22.0779 111.114 22.9876C111.02 23.8974 113.153 23.5837 113.216 24.8072C113.278 26.062 115.129 26.2189 115.318 24.5562C115.506 22.8621 116.416 22.6739 116.416 22.6739C116.416 22.6739 116.133 20.9799 114.439 20.9485C112.714 20.9171 113.68 19.8794 113.247 19.1603C112.851 18.5027 111.804 18.878 112.306 17.4349C112.808 15.9918 109.984 14.3605 113.498 13.137C117.012 11.9135 115.757 10.4077 115.757 10.4077L114.063 9.9371C114.063 9.9371 116.729 9.21556 116.698 7.61562C116.698 6.01567 119.616 5.07453 120.243 7.67836C120.87 10.2822 119.333 11.0665 119.333 11.0665C119.333 11.0665 121.278 10.941 121.247 12.039C121.215 13.137 119.647 13.7958 119.647 13.7958C119.647 13.7958 119.835 15.9604 118.8 16.1487C117.765 16.3369 117.89 15.1761 117.89 15.1761C117.89 15.1761 116.039 15.082 116.478 16.3683C116.949 17.6545 115.976 18.8038 116.416 20.2583C116.742 21.3406 118.141 21.1995 117.859 22.768C117.576 24.3366 117.012 25.9993 119.051 27.0032C121.09 27.9757 120.131 28.6975 120.933 29.7011C121.675 30.6295 122.493 30.8725 122.972 31.9599C123.256 32.6044 122.313 33.2775 123.38 33.7167C124.478 34.1873 124.698 32.5246 127.49 33.5598C130.282 34.5951 131.192 34.2186 131.599 33.6853C131.599 33.6853 133.858 34.4069 134.862 31.6462C134.862 31.6462 136.807 30.1717 135.615 27.5992C135.615 27.5992 136.933 26.1562 136.086 24.4935C135.27 22.8308 136.337 21.2308 137.278 21.1995C137.278 21.1995 136.901 19.474 138.313 19.5681C139.725 19.6623 139.38 21.1367 139.38 21.1367C139.38 21.1367 141.356 19.0662 143.615 20.4779C143.615 20.4779 143.426 23.1131 144.964 22.9563C145.654 22.8935 146.438 23.2072 147.097 23.5523C143.991 11.4429 133.043 2.40795 119.835 2.03149Z" fill="#49CE8B" stroke="#171753" stroke-width="1.2"/>
<path d="M126.4 52.8222L126.399 52.8221C125.747 52.7449 125.223 52.7769 124.777 52.9009C124.326 53.0265 123.993 53.2358 123.716 53.455C123.55 53.5856 123.415 53.7054 123.292 53.8146C122.98 54.0911 122.745 54.3001 122.287 54.4464C121.627 54.6575 120.931 54.6751 120.193 54.6937C120.011 54.6983 119.826 54.703 119.638 54.7107C118.791 54.7453 117.735 54.8423 117.121 55.701C116.811 56.1188 116.29 56.34 115.764 56.4452C115.509 56.4961 115.276 56.5151 115.107 56.5211C115.022 56.5241 114.955 56.5239 114.911 56.523C114.903 56.5228 114.896 56.5226 114.889 56.5224C114.878 56.5201 114.865 56.5176 114.85 56.5148C114.796 56.5045 114.721 56.4909 114.635 56.4777C114.477 56.4534 114.235 56.4229 114.025 56.4344C113.937 56.4392 113.756 56.4544 113.589 56.5508C113.493 56.606 113.367 56.7084 113.294 56.8824C113.22 57.0619 113.238 57.2343 113.279 57.3598C113.348 57.5699 113.504 57.7213 113.605 57.8103C113.727 57.9175 113.887 58.0324 114.082 58.1574C114.346 58.329 114.47 58.4681 114.529 58.5602C114.583 58.6441 114.592 58.7038 114.592 58.7511V59.2715L115.107 59.3451C116.237 59.5066 117.361 59.5702 118.5 59.6018L118.5 59.6019L118.508 59.602C124.62 59.698 130.35 57.9698 135.121 54.9278L135.537 54.6626L135.358 54.2032C135.257 53.9452 135.33 53.233 136.669 52.6506L136.669 52.6507L136.679 52.6462C138.221 51.9424 138.87 51.0971 138.999 50.272C139.061 49.8775 138.993 49.5423 138.911 49.3075C138.87 49.1899 138.824 49.095 138.786 49.0264C138.767 48.9919 138.75 48.9636 138.737 48.942C138.73 48.9312 138.724 48.922 138.719 48.9144L138.712 48.9044L138.709 48.9003L138.708 48.8985L138.707 48.8976C138.707 48.8972 138.707 48.8968 138.218 49.2455L138.707 48.8968L138.54 48.6632L138.255 48.6466L138.254 48.6466L138.254 48.6466L138.253 48.6466L138.253 48.6466L138.253 48.6466L138.242 48.6457C138.231 48.6448 138.213 48.6433 138.19 48.6408C138.143 48.6357 138.074 48.627 137.992 48.6128C137.823 48.5834 137.623 48.5342 137.449 48.4575C137.267 48.377 137.18 48.2954 137.147 48.2402L137.147 48.2398C137.134 48.2172 137.091 48.1434 137.175 47.9312C137.485 47.1571 137.506 46.5488 137.229 46.1071C137.093 45.8919 136.916 45.7671 136.771 45.6978C136.699 45.6635 136.634 45.6422 136.583 45.6289C136.558 45.6222 136.535 45.6174 136.516 45.6139C136.507 45.6121 136.498 45.6107 136.49 45.6095L136.48 45.608L136.475 45.6073L136.472 45.6071L136.471 45.6069C136.471 45.6069 136.47 45.6068 136.399 46.2025L136.47 45.6068L136.045 45.5557L135.858 45.9417C135.792 46.0784 135.733 46.122 135.702 46.139C135.667 46.1585 135.608 46.1773 135.497 46.173C135.279 46.1647 135.041 46.0866 134.723 45.9823C134.653 45.9592 134.578 45.9347 134.499 45.9094C134.308 45.8485 134.082 45.7818 133.858 45.7567C133.636 45.7317 133.339 45.7383 133.064 45.9067C132.774 46.084 132.619 46.3707 132.546 46.6747C132.475 46.9685 132.469 47.3229 132.507 47.7324C132.57 48.4079 132.461 48.8102 132.305 49.0732C132.146 49.3388 131.894 49.5393 131.518 49.7269C131.243 49.864 130.953 49.9725 130.621 50.0964C130.473 50.1517 130.316 50.2101 130.15 50.2755C129.638 50.4758 129.074 50.7275 128.564 51.1249C128.215 51.3962 128.027 51.7164 127.899 51.9909C127.854 52.0877 127.812 52.1903 127.777 52.2754C127.766 52.3027 127.755 52.3282 127.745 52.3511C127.701 52.4567 127.666 52.532 127.63 52.5935C127.57 52.6938 127.512 52.7513 127.391 52.794C127.238 52.8478 126.948 52.888 126.4 52.8222Z" fill="#49CE8B" stroke="#171753" stroke-width="1.2"/>
<path d="M90.5711 30.174L89.4006 30.3559C89.3365 40.355 94.4328 49.2608 102.278 54.5124L103.036 53.5896C103.043 53.5966 103.043 53.5958 103.037 53.5886C103.305 53.5828 103.756 53.6338 104.475 53.812L105.497 54.0648L105.194 53.0571L104.62 53.2295C105.194 53.0571 105.194 53.0569 105.194 53.0567L105.194 53.0561L105.194 53.055L105.193 53.0523L105.191 53.0452L105.184 53.0241C105.178 53.0072 105.171 52.9844 105.16 52.9564C105.14 52.9003 105.111 52.8228 105.07 52.7279C104.988 52.5383 104.86 52.2779 104.674 51.9789C104.301 51.3807 103.689 50.6239 102.729 49.9724C101.888 49.4014 101.345 48.8259 101.128 48.411C101.041 48.2444 101.033 48.1547 101.033 48.1252C101.046 48.1161 101.071 48.1021 101.118 48.0857L102.558 47.5775L101.159 46.9706L101.159 46.9705L101.159 46.9704L101.158 46.9702L101.153 46.9677C101.146 46.9645 101.134 46.9588 101.118 46.9507C101.086 46.9344 101.037 46.9087 100.981 46.8743C100.864 46.8035 100.727 46.7056 100.615 46.5883C100.502 46.4698 100.44 46.3592 100.42 46.2613C100.414 46.2325 100.411 46.1978 100.413 46.1561L101.025 46.1746L101.348 46.1844L101.534 45.9199L101.043 45.5749C101.534 45.9199 101.534 45.9196 101.535 45.9193L101.535 45.9187L101.536 45.9174L101.538 45.9145L101.543 45.9074L101.556 45.8876C101.566 45.872 101.579 45.8517 101.593 45.8269C101.622 45.7775 101.659 45.7094 101.697 45.6253C101.773 45.4591 101.857 45.2193 101.887 44.931C101.951 44.3158 101.753 43.5702 100.942 42.9373L100.824 42.8454L101.286 42.6415L101.043 42.0927C101.286 42.6415 101.286 42.6413 101.287 42.6411L101.287 42.6408L101.289 42.64L101.293 42.6383L101.302 42.634C101.309 42.6309 101.317 42.6269 101.326 42.6223C101.345 42.613 101.369 42.6006 101.396 42.5849C101.451 42.5537 101.523 42.5086 101.602 42.4477C101.759 42.3271 101.959 42.1352 102.109 41.8549C102.436 41.2468 102.435 40.4195 101.806 39.3945C101.471 38.849 101.051 38.5026 100.584 38.3248C100.125 38.1499 99.6728 38.1574 99.2964 38.2288C98.9215 38.2998 98.5994 38.4381 98.3763 38.5534C98.2909 38.5975 98.2176 38.6395 98.1588 38.6752C98.1299 38.6747 98.0969 38.6735 98.0601 38.671C97.9028 38.6606 97.6874 38.6287 97.4567 38.5447C97.016 38.3842 96.4816 38.0234 96.1853 37.1345C96.0927 36.8568 96.0127 36.6427 95.9423 36.4868C95.9075 36.4099 95.8686 36.3323 95.8244 36.2633C95.7955 36.2181 95.7071 36.081 95.5456 35.9947C95.4471 35.942 95.2898 35.8922 95.1044 35.9356C95.1039 35.9357 95.1035 35.9358 95.103 35.9359C95.1083 35.915 95.1132 35.8936 95.1177 35.8718C95.2581 35.1846 94.8859 34.3946 93.8925 33.4663C92.0447 31.7397 92.3581 30.9006 92.4123 30.799L92.8829 29.9166L91.8829 29.9166L91.8829 30.5166C91.8829 29.9166 91.8823 29.9166 91.8817 29.9166L91.8804 29.9166L91.8779 29.9166L91.8726 29.9167L91.861 29.917C91.8529 29.9172 91.8438 29.9177 91.834 29.9183C91.8142 29.9197 91.7911 29.9219 91.7651 29.9257C91.7129 29.9331 91.6487 29.9465 91.576 29.9703C91.4288 30.0184 91.2532 30.107 91.0797 30.2644C90.9569 30.3759 90.8431 30.5141 90.7425 30.6836C90.6864 30.5223 90.6289 30.3514 90.5711 30.174ZM102.924 53.3844C102.924 53.3845 102.925 53.386 102.925 53.389C102.924 53.3859 102.924 53.3844 102.924 53.3844ZM94.5888 36.8889C94.5892 36.9029 94.5896 36.917 94.5902 36.9313C94.5277 36.8849 94.46 36.8416 94.3874 36.8038L94.1416 36.2576C94.3878 36.8047 94.3883 36.8045 94.3888 36.8043L94.3898 36.8039L94.3919 36.8029L94.3964 36.8008L94.407 36.7958C94.4146 36.792 94.4236 36.7875 94.4338 36.7822C94.454 36.7716 94.4791 36.7576 94.5077 36.7399C94.5322 36.7247 94.5599 36.7064 94.5897 36.6848C94.5866 36.7564 94.5872 36.827 94.5888 36.8889ZM94.0413 40.4241C94.1773 40.5749 94.273 40.7254 94.338 40.8724C94.076 40.5833 93.7423 40.2849 93.3183 39.9966L93.3183 39.9966L93.3137 39.9935C92.7213 39.5986 92.3567 38.7461 92.3535 38.0078C92.3518 37.6423 92.4404 37.4063 92.5311 37.296C92.5743 37.2435 92.6364 37.1887 92.7858 37.1991C92.759 37.2469 92.7353 37.2979 92.7152 37.3524C92.586 37.7017 92.6494 38.0767 92.7472 38.3792C92.9486 39.0028 93.4335 39.7343 94.0365 40.4188L94.0365 40.4188L94.0413 40.4241ZM101.022 48.1362C101.022 48.136 101.023 48.1335 101.028 48.1291C101.026 48.1342 101.023 48.1364 101.022 48.1362ZM100.444 42.1245L100.457 42.5647L100.095 43.0474C100.095 43.0476 100.095 43.0478 100.094 43.048C100.094 43.0492 100.092 43.0508 100.09 43.053C100.088 43.0559 100.085 43.0596 100.081 43.0641C100.068 43.0801 100.045 43.1051 100.016 43.1348C99.9549 43.1962 99.8731 43.2668 99.7808 43.3214C99.61 43.4226 99.464 43.4476 99.2784 43.3216C99.066 43.1775 98.8621 42.7517 98.9001 42.3042C98.9175 42.1 98.9828 41.9511 99.0657 41.8589C99.1383 41.7781 99.261 41.698 99.4992 41.6883C100.113 41.6632 100.302 41.8576 100.361 41.9341C100.402 41.9876 100.424 42.0428 100.435 42.0846C100.441 42.1035 100.443 42.1177 100.444 42.1245Z" fill="#49CE8B" stroke="#171753" stroke-width="1.2"/>
<path d="M91.9347 29.0672C92.2746 29.3514 93.4691 30.4566 94.339 32.5939C94.9114 34.0004 95.8615 34.7307 96.8919 34.6575C97.8796 34.5872 98.6423 33.7835 98.8148 32.7979C98.8691 32.4872 98.726 32.2324 98.5584 32.0856C98.3973 31.9445 98.1795 31.8659 97.9549 31.8796C97.848 31.8862 97.6948 31.8686 97.5426 31.7081C97.372 31.5281 97.1279 31.0903 97.0621 30.0704C96.8803 27.254 95.4148 24.9319 95.1509 24.5328C95.0361 24.3591 94.8619 24.2481 94.6752 24.2066L93.2851 23.8977C92.7704 23.7833 92.3124 24.197 92.3332 24.6972C92.359 25.3172 92.3477 26.9149 91.7388 28.0948C91.569 28.4238 91.6495 28.8287 91.9347 29.0672Z" fill="#49CE8B" stroke="#171753" stroke-width="1.2"/>
<path d="M92.3783 25.5789L92.3784 25.5789L92.3794 25.5729C92.5906 24.4061 92.9476 23.8702 93.2221 23.6258C93.4846 23.392 93.7341 23.3692 93.8826 23.3787C94.1276 23.3945 94.3508 23.2996 94.5069 23.1559C94.6655 23.01 94.8013 22.7666 94.7641 22.4696L94.5918 21.0911C94.5604 20.8393 94.4079 20.6188 94.1835 20.5003L93.5753 20.1793C93.7093 19.6805 93.8791 18.8562 93.8476 17.9561C93.8346 17.5835 93.5709 17.3012 93.2403 17.2371C92.9171 17.1744 92.5768 17.328 92.4152 17.6476C90.874 20.6955 89.8315 24.0672 89.4656 27.6616C89.4064 28.2439 90.0445 28.76 90.6296 28.3896C91.428 27.8842 92.1021 27.0215 92.3783 25.5789Z" fill="#49CE8B" stroke="#171753" stroke-width="1.2"/>
<path d="M103.928 22.3803L103.928 22.3804L103.938 22.3743C104.22 22.2021 104.434 22.2195 104.614 22.2886C104.826 22.3699 105.022 22.5396 105.171 22.7078C105.372 22.9357 105.665 23.0126 105.92 22.9654C106.184 22.9165 106.459 22.7192 106.535 22.3742C106.624 21.9737 106.737 21.2739 106.615 20.6041C106.552 20.2627 106.423 19.8981 106.17 19.5854C105.91 19.2639 105.545 19.0312 105.076 18.9242L105.076 18.9242L105.069 18.9227C104.587 18.8186 104.17 18.8348 103.801 18.9881C103.441 19.1381 103.201 19.3903 103.027 19.6001C102.958 19.6826 102.897 19.7593 102.841 19.8305C102.591 20.1447 102.427 20.3514 102.062 20.475C101.506 20.6468 101.142 21.1563 101.173 21.7354C101.178 21.8309 101.201 21.9155 101.231 21.9866C101.401 22.7498 102.2 23.1722 102.929 22.8936C103.234 22.7787 103.558 22.5958 103.928 22.3803Z" fill="#49CE8B" stroke="#171753" stroke-width="1.2"/>
<path d="M96.3687 25.466C96.4628 26.564 98.1568 26.4071 98.0941 25.3091V25.2778C97.9686 23.9602 96.651 24.0857 96.4314 24.9954C96.3687 25.1837 96.3687 25.3405 96.3687 25.466Z" fill="#49CE8B" stroke="#171753" stroke-width="1.2"/>
<path d="M109.701 55.7079C109.701 55.7079 110.266 54.6413 108.227 54.6727C107.034 54.6727 106.313 55.3001 105.089 55.5511C105.403 55.7079 105.685 55.8648 105.999 56.0216C105.999 55.9903 108.258 55.1432 109.701 55.7079Z" fill="#49CE8B" stroke="#171753" stroke-width="1.2"/>
<path d="M126.225 36.5221C126.225 35.9564 125.783 35.3888 125.124 35.3888C124.464 35.3888 124.022 35.9565 124.022 36.5221C124.022 37.0877 124.464 37.6554 125.124 37.6554C125.783 37.6554 126.225 37.0877 126.225 36.5221Z" fill="#49CE8B" stroke="#171753" stroke-width="1.2"/>
<path d="M116.115 14.9821L116.124 14.9804L116.134 14.9784C116.437 14.9134 116.797 14.765 117.088 14.4493C117.386 14.1265 117.56 13.6837 117.58 13.1269L117.591 12.8296L117.36 12.6411C116.773 12.1609 115.803 12.221 115.371 12.9795C115.301 13.0812 115.239 13.1485 115.187 13.188C115.139 13.2244 115.114 13.2271 115.098 13.2271H114.038L114.584 14.1358L114.657 14.2577C114.922 14.8476 115.56 15.083 116.115 14.9821Z" fill="#49CE8B" stroke="#171753" stroke-width="1.2"/>
<path d="M102.719 43.8439L102.728 43.8422L102.738 43.8402C103.041 43.7752 103.401 43.6268 103.692 43.3112C103.99 42.9884 104.164 42.5455 104.184 41.9887L104.195 41.6914L103.964 41.5029C103.377 41.0227 102.407 41.0828 101.975 41.8413C101.905 41.943 101.843 42.0103 101.791 42.0498C101.743 42.0862 101.718 42.0889 101.702 42.0889H100.731L101.165 42.9572L101.255 43.1352C101.519 43.7099 102.164 43.9448 102.719 43.8439Z" fill="#49CE8B" stroke="#171753" stroke-width="1.2"/>
<path d="M148.481 30.9925C148.513 29.1025 148.352 27.2804 148.065 25.4963L148.033 25.2973L147.888 25.1579C147.044 24.3504 146.161 24.118 145.365 24.2156C144.603 24.309 143.99 24.6952 143.614 24.9988C143.024 25.4733 143.353 26.4237 144.094 26.4422C144.57 26.4705 145.232 26.6293 145.741 27.1852C146.025 27.5063 145.994 27.6669 145.986 27.7009C145.97 27.7739 145.904 27.8585 145.811 27.9234L145.768 27.9535L145.731 27.9907C145.62 28.1019 145.506 28.2696 145.475 28.4869C145.441 28.7288 145.519 28.9723 145.7 29.1529C146.164 29.6169 146.538 30.5115 146.804 31.4052C147.008 32.0947 147.112 32.6351 147.166 32.9207C147.183 33.0089 147.196 33.0728 147.205 33.1093L148.384 33.0207C148.448 32.3447 148.481 31.6687 148.481 30.9925Z" fill="#49CE8B" stroke="#171753" stroke-width="1.2"/>
<path d="M94.1484 14.6806L94.9965 15.5046C95.6357 15.0397 96.2921 14.767 96.8819 14.8295C97.0382 14.8536 97.2047 14.8306 97.3554 14.7468C97.5121 14.6598 97.6159 14.5272 97.6734 14.393C97.779 14.1465 97.7568 13.8177 97.5326 13.5782C97.2446 13.2533 96.7543 12.8859 96.1295 12.6654L95.7104 12.5175L95.4468 12.8753L95.4436 12.8796C95.0066 13.4727 94.5622 14.0758 94.1484 14.6806Z" fill="#49CE8B" stroke="#171753" stroke-width="1.2"/>
<path d="M116.711 53.2859C116.545 53.3762 116.379 53.4681 116.286 53.5429C116.27 53.5565 116.242 53.5801 116.212 53.6122C116.193 53.6332 116.122 53.7106 116.08 53.8336C116.057 53.9025 116.034 54.012 116.059 54.1427C116.086 54.2829 116.159 54.3982 116.25 54.4793C116.4 54.6124 116.565 54.6275 116.6 54.6307L116.601 54.6308C116.695 54.6394 116.776 54.6239 116.796 54.62C116.797 54.6198 116.798 54.6197 116.798 54.6196C116.833 54.613 116.866 54.6046 116.893 54.5973C117.005 54.5673 117.207 54.5001 117.446 54.4201C117.597 54.3697 117.764 54.3143 117.932 54.2599C118.396 54.1102 118.938 53.9468 119.451 53.8343C119.982 53.7177 120.408 53.673 120.67 53.7112C120.886 53.7426 121.112 53.754 121.314 53.7047C121.519 53.6547 121.867 53.4833 121.91 53.0608C121.943 52.7462 121.766 52.509 121.676 52.4042C121.562 52.2708 121.415 52.1515 121.261 52.049C120.657 51.6481 119.58 51.2726 118.462 51.459C117.988 51.538 117.575 51.6563 117.312 51.9179C116.98 52.2468 117.024 52.646 117.041 52.8044C117.041 52.8059 117.041 52.8074 117.041 52.8089C117.062 52.9979 117.059 53.0053 117.054 53.0179C117.054 53.0183 117.054 53.0187 117.053 53.0192L117.053 53.0193C117.053 53.0215 117.044 53.0447 116.999 53.088C116.952 53.1348 116.865 53.2027 116.711 53.2859ZM120.774 53.1965C120.773 53.1964 120.77 53.1924 120.765 53.1845C120.772 53.1926 120.774 53.1966 120.774 53.1965Z" fill="#49CE8B" stroke="#171753" stroke-width="1.2"/>
<path d="M113.663 7.2199C113.624 6.71496 113.397 6.30503 113.057 6.0123C112.658 5.66823 112.143 5.51839 111.695 5.49115C111.269 5.46525 110.758 5.54333 110.406 5.83139C110.212 5.99046 110.044 6.23711 110.036 6.56077C110.027 6.86839 110.166 7.13375 110.339 7.3408C110.507 7.54255 110.506 7.64553 110.505 7.66456C110.503 7.68979 110.491 7.73874 110.418 7.81526C110.345 7.89335 110.241 7.96378 110.142 8.01813C110.095 8.04385 110.054 8.06288 110.027 8.07489C110.013 8.08084 110.003 8.0849 109.998 8.08704L109.994 8.08855L108.879 8.49817L109.874 9.15217C110.496 9.56065 111.29 9.86258 112.028 9.94865C112.725 10.0298 113.605 9.93708 114.085 9.24324L114.085 9.2433L114.091 9.23454C114.302 8.91818 114.388 8.58166 114.341 8.24948C114.296 7.9311 114.138 7.68431 113.987 7.51287C113.88 7.39157 113.764 7.29418 113.663 7.2199Z" fill="#BEF0ED" stroke="#171753" stroke-width="1.2"/>
<path d="M128.415 2.93104L128.331 2.90574H128.243C128.159 2.90574 128.095 2.92382 128.078 2.92871C128.051 2.93622 128.031 2.94405 128.02 2.94842C127.997 2.95729 127.98 2.9658 127.972 2.96953C127.955 2.97777 127.94 2.98608 127.932 2.99057C127.917 2.99876 127.897 3.00971 127.879 3.02009C127.875 3.02203 127.872 3.02396 127.869 3.02585C127.822 3.05199 127.759 3.08736 127.68 3.12916C127.521 3.21297 127.299 3.32216 127.036 3.42552C126.497 3.63657 125.837 3.80247 125.211 3.72593C124.815 3.67652 124.288 3.63316 123.76 3.63316C123.246 3.63316 122.675 3.67378 122.222 3.82154C121.996 3.89522 121.744 4.01274 121.55 4.21438C121.335 4.43829 121.219 4.73869 121.259 5.07838C121.294 5.38468 121.448 5.6684 121.647 5.9241C121.849 6.18582 122.133 6.46359 122.498 6.76217L122.813 7.01941L123.168 6.8232L123.168 6.82317L123.168 6.82314L123.168 6.82303L123.169 6.82247L123.176 6.81865L123.208 6.80168C123.237 6.78638 123.281 6.76334 123.339 6.73381C123.455 6.67474 123.627 6.58981 123.846 6.48908C124.285 6.28737 124.91 6.02356 125.652 5.77699C127.147 5.27967 129.059 4.87201 130.854 5.13467L131.184 3.99271C130.329 3.6127 129.392 3.22425 128.415 2.93104Z" fill="#BEF0ED" stroke="#171753" stroke-width="1.2"/>
<path d="M122.103 55.4561L128.607 51.3008L122.103 51.1201L121.38 51.8428L120.838 54.0108L122.103 55.4561Z" fill="#171753"/>
<path d="M121.922 56.1788L120.115 54.0108V53.6494L120.657 51.3008L120.838 51.1201L121.741 50.2168H121.922L128.787 50.5781L128.968 51.3008L128.607 51.4815L121.922 56.1788ZM121.38 53.6494L122.283 54.5528L126.981 51.4815L122.464 51.3008L121.922 51.8428L121.38 53.6494Z" fill="#171753"/>
<path d="M132.942 18.7811L112.707 7.03788C111.623 6.31522 110.539 6.31522 109.816 6.67655L103.132 10.8319C103.493 11.3739 106.203 17.1551 106.384 18.2391C106.564 18.6005 107.287 23.1171 108.371 28.1757V30.705C108.371 32.1504 108.913 33.7764 109.816 35.2217C110.9 40.6416 111.804 45.1583 111.804 45.1583L121.018 48.2296H121.74L121.198 46.7843C121.018 46.0616 121.018 45.3389 120.837 44.6163L129.509 54.3722C129.509 54.3722 129.509 54.3722 129.69 54.3722L136.013 50.3976C136.013 50.3976 136.013 50.3976 136.194 50.3976C136.916 49.8556 137.458 48.9522 137.458 47.6876V26.3691C137.458 23.6591 135.471 20.2265 132.942 18.7811Z" fill="#9BE7C4"/>
<path d="M129.689 54.9141C129.509 54.9141 129.328 54.9141 129.147 54.7335L121.559 46.2422C121.559 46.4229 121.559 46.6035 121.559 46.7842L122.101 48.2295C122.282 48.5908 122.101 48.7715 121.74 48.9522H121.559H120.656L111.261 45.7002V45.5195C111.261 45.3389 110.358 40.8222 109.274 35.5829C108.371 33.9569 107.829 32.331 107.829 30.8856V28.3563C106.564 22.2137 106.022 18.7811 105.841 18.4197C105.661 17.6971 104.035 14.2644 102.589 11.1931C102.409 10.8318 102.589 10.4704 102.77 10.4704L109.455 6.31514C110.539 5.77314 111.803 5.95381 113.068 6.67647L133.303 18.4197C135.832 19.865 138 23.4783 138 26.5497V47.5068C138 48.9522 137.458 50.2168 136.555 50.7588H136.374L130.051 54.7335C129.87 54.9141 129.87 54.9141 129.689 54.9141ZM120.295 43.1709L129.87 53.8301L135.832 50.0362L136.193 50.3975L135.832 49.8555C136.374 49.4942 136.735 48.5908 136.735 47.5068V26.369C136.735 23.8397 134.929 20.5877 132.58 19.1424L112.526 7.5798C111.623 7.0378 110.719 6.85714 109.997 7.21847L103.854 11.0124C104.757 12.8191 106.745 17.1551 106.925 18.0584C107.106 18.4197 107.648 21.6717 108.913 27.995V28.1756V30.705C108.913 31.9696 109.455 33.4149 110.177 34.8603V35.0409C111.081 39.5576 111.803 43.5322 111.984 44.7969L120.656 47.6875L120.295 46.7842C120.114 46.0615 120.114 45.1582 119.933 44.4355L120.295 43.1709Z" fill="#171753"/>
<path d="M132.941 18.7811L113.791 7.7605L104.215 13.7225L124.811 24.5624L129.147 25.285L135.651 21.3104C134.928 20.2264 134.025 19.3231 132.941 18.7811Z" fill="#49CE8B"/>
<path d="M129.148 25.827L124.45 25.1044L103.132 13.7225L113.791 7.03784L133.303 18.2391C134.387 18.7811 135.29 19.6844 136.194 20.9491L136.555 21.4911L129.148 25.827ZM124.992 24.0204L128.967 24.5624L134.748 21.1297C134.026 20.2264 133.484 19.6844 132.58 19.3231L113.61 8.48316L105.119 13.7225L124.992 24.0204Z" fill="#171753"/>
<path d="M137.144 26.4904L130.645 30.4065L131.204 31.3349L137.704 27.4188L137.144 26.4904Z" fill="#171753"/>
<path d="M137.022 41.8264L130.523 45.7426L131.082 46.671L137.581 42.7549L137.022 41.8264Z" fill="#171753"/>
<path d="M106.203 11.1931L126.437 22.9363C128.786 24.3816 130.773 27.6336 130.773 30.5243V51.6621C130.773 54.3721 128.786 55.6368 126.437 54.1914L124.089 52.9268C123.727 52.7461 123.366 52.7461 123.185 53.2881C123.005 54.5528 122.101 56.9014 118.669 55.4561C117.946 55.2754 117.585 54.1914 117.765 53.6494C117.946 52.9268 118.307 51.8428 118.307 50.5781C118.307 50.0361 117.946 49.3135 117.404 49.1328L106.203 42.6288C103.854 41.1835 101.867 37.9315 101.867 35.0409V13.7224C101.867 10.8317 103.854 9.74775 106.203 11.1931Z" fill="#ECFFFE"/>
<path d="M120.657 56.3595C120.115 56.3595 119.392 56.1788 118.67 55.8175C117.766 55.4562 117.044 54.1915 117.405 53.2882C117.586 52.5655 117.766 51.6622 117.766 50.3975C117.766 50.0362 117.405 49.4942 117.224 49.3135L106.023 42.8096C103.494 41.3643 101.326 37.7509 101.326 34.6796V13.7225C101.326 12.0965 101.868 11.0125 102.952 10.4705C104.036 9.92848 105.3 9.92848 106.565 10.8318L126.799 22.5751C129.329 24.0204 131.497 27.6337 131.497 30.705V51.8428C131.497 53.4688 130.955 54.5528 129.871 55.0948C128.787 55.6368 127.522 55.6368 126.258 54.7335L123.909 53.4688C123.728 54.3722 123.186 55.6368 122.102 56.1788C121.741 56.1788 121.199 56.3595 120.657 56.3595ZM104.397 11.0125C104.036 11.0125 103.855 11.0125 103.494 11.1931C102.771 11.5545 102.41 12.4578 102.41 13.5418V34.8603C102.41 37.3896 104.216 40.6416 106.565 41.9063L117.766 48.4102C118.489 48.7715 118.85 49.6749 118.85 50.3975C118.85 51.4815 118.67 52.5655 118.308 53.6495C118.128 54.0108 118.489 54.7335 119.031 54.9142C120.115 55.2755 120.838 55.4562 121.56 55.0948C122.283 54.7335 122.644 53.6495 122.825 53.1075C122.825 52.7462 123.186 52.3848 123.367 52.3848C123.728 52.2042 124.09 52.2042 124.451 52.5655L126.799 53.8302C127.703 54.3722 128.606 54.5528 129.329 54.1915C130.051 53.8302 130.413 52.9268 130.413 51.8428V30.3437C130.413 27.8144 128.606 24.5624 126.258 23.2977L106.023 11.5545C105.481 11.1931 104.758 11.0125 104.397 11.0125Z" fill="#171753"/>
<path d="M137.459 45.3389L130.955 49.3135V52.2042L130.594 53.8301L136.194 50.3975L137.278 48.9522L137.459 47.3262V45.3389Z" fill="#171753"/>
<path d="M114.964 37.9209C115.275 37.8477 115.641 37.9209 116.025 38.1404C117.031 38.7258 117.854 40.116 117.854 41.2319C117.854 41.6709 117.726 41.9819 117.507 42.2014C117.397 42.3112 117.159 42.4392 117.013 42.4758L116.391 42.8234L113.885 38.5062L114.58 38.1404C114.69 38.0306 114.818 37.9575 114.964 37.9209Z" fill="#49CE8B"/>
<path d="M111.855 32.7074C112.714 32.25 114.214 31.8842 116.263 33.0183C118.477 34.244 120.141 36.6587 121.056 38.305C121.55 39.1648 121.44 40.0794 120.855 40.2075L120.544 40.3721L119.739 40.8295L114.69 35.0855C114.068 35.0489 113.574 35.1952 113.227 35.3781C112.861 35.5611 112.312 35.305 111.928 34.7196C111.781 34.5184 111.672 34.2989 112.037 33.8049L110.629 33.494L111.855 32.7074Z" fill="#49CE8B"/>
<path d="M109.166 27.7316C110.428 27.0548 112.861 26.4145 116.282 28.1889C120.013 30.128 122.593 33.8598 123.837 36.0366C124.33 36.8781 124.239 37.8111 123.672 37.9574C123.635 37.9757 123.324 38.1586 123.269 38.1586L122.41 38.6343L118.422 33.2195L112.934 29.8719C111.763 29.8536 110.885 30.2012 110.336 30.4939C109.97 30.6951 109.403 30.4024 109.019 29.7987V29.7804C109.019 29.7621 109.001 29.7621 109.001 29.7439H108.653L107.94 28.5731L108.635 28.0243L109.166 27.7316Z" fill="#49CE8B"/>
<path d="M105.196 23.4877L106.202 22.756C107.61 21.8048 110.958 20.3596 116.373 23.1219C116.428 23.1584 116.483 23.1767 116.537 23.2133C122.245 26.1951 125.83 31.372 127.367 34.0245C127.751 34.683 127.861 35.2867 127.586 35.6343L127.312 35.9087L127.147 36.0001C127.093 36.055 126.836 36.1648 126.763 36.2014L125.83 36.6953L124.184 34.4269L117.416 26.6341L113.629 24.6036C110.501 23.7438 108.507 24.6585 107.592 25.2804C107.245 25.5182 106.678 25.2621 106.293 24.6768C106.11 24.3841 105.982 24.0731 105.946 23.7804L105.196 23.4877Z" fill="#49CE8B"/>
<path d="M105.269 25.3902C105.653 25.9756 106.202 26.2317 106.55 25.9938C107.684 25.2255 110.556 23.9999 115.202 26.4512C115.257 26.4695 115.294 26.506 115.348 26.5243C120.214 29.1585 123.178 33.5672 124.403 35.7074C124.788 36.3843 125.428 36.805 125.885 36.677C126.471 36.5123 126.562 35.5977 126.068 34.7562C124.532 32.1037 121.019 26.9634 115.385 23.9816C115.33 23.945 115.275 23.9267 115.22 23.8901C109.897 21.1279 106.586 22.5365 105.196 23.4877C104.775 23.7804 104.812 24.6767 105.269 25.3902Z" fill="#171753"/>
<path d="M107.976 30.494C108.361 31.0977 108.909 31.3904 109.275 31.1892C110.226 30.6587 112.294 29.9818 115.147 31.5184C115.184 31.5367 115.22 31.555 115.257 31.5733C118.111 33.1465 120.068 36.0734 121.001 37.7015C121.385 38.36 121.989 38.7625 122.428 38.6527C122.995 38.5064 123.068 37.5917 122.592 36.7502C121.349 34.5917 118.788 30.8782 115.129 28.9391C111.598 27.0915 109.111 27.9147 107.94 28.5916C107.482 28.8477 107.501 29.744 107.976 30.494Z" fill="#171753"/>
<path d="M119.648 40.8478C120.233 40.738 120.324 39.8234 119.849 38.9636C118.934 37.3355 117.306 34.9208 115.111 33.6952C113.099 32.5611 111.617 32.9269 110.775 33.3659C110.282 33.622 110.318 34.5916 110.849 35.3599C111.233 35.927 111.763 36.2014 112.129 36.0184C112.714 35.7074 113.757 35.4696 115.093 36.2379C116.519 37.0611 117.635 38.7441 118.276 39.8783C118.641 40.5368 119.209 40.9392 119.648 40.8478Z" fill="#171753"/>
<path d="M113.373 39.5856C113.373 40.6831 114.159 42.0368 115.147 42.6405C116.135 43.2442 116.958 42.8417 116.976 41.7258C116.976 40.61 116.171 39.238 115.165 38.6526C114.177 38.0672 113.373 38.5063 113.373 39.5856Z" fill="#171753"/>
<defs>
<filter id="filter0_d_140_6179" x="0" y="55" width="237" height="80.0552" filterUnits="userSpaceOnUse" color-interpolation-filters="sRGB">
<feFlood flood-opacity="0" result="BackgroundImageFix"/>
<feColorMatrix in="SourceAlpha" type="matrix" values="0 0 0 0 0 0 0 0 0 0 0 0 0 0 0 0 0 0 127 0" result="hardAlpha"/>
<feOffset dy="4"/>
<feGaussianBlur stdDeviation="2"/>
<feComposite in2="hardAlpha" operator="out"/>
<feColorMatrix type="matrix" values="0 0 0 0 0.0901961 0 0 0 0 0.0901961 0 0 0 0 0.32549 0 0 0 0.25 0"/>
<feBlend mode="normal" in2="BackgroundImageFix" result="effect1_dropShadow_140_6179"/>
<feBlend mode="normal" in="SourceGraphic" in2="effect1_dropShadow_140_6179" result="shape"/>
</filter>
</defs>
</svg>
