<svg width="237" height="135" viewBox="0 0 237 135" fill="none" xmlns="http://www.w3.org/2000/svg">
<g opacity="0.3" filter="url(#filter0_d_140_6185)">
<rect x="4" y="54" width="229" height="72.0552" rx="16" fill="#FFC78F"/>
</g>
<path d="M69.1139 85L74.0939 70.4H78.7339L83.8539 85H80.9339L76.5939 72.34L77.6139 72.78H75.1139L76.1539 72.34L71.9539 85H69.1139ZM72.5939 81.12L73.4939 78.72H79.4139L80.2939 81.12H72.5939ZM90.3469 85.14C89.3469 85.14 88.5202 85.0133 87.8669 84.76C87.2269 84.4933 86.7469 84.0533 86.4269 83.44C86.1069 82.8133 85.9469 81.9733 85.9469 80.92L85.9669 71.08H88.5669L88.5469 81.1C88.5469 81.6333 88.6869 82.0467 88.9669 82.34C89.2602 82.62 89.6735 82.76 90.2069 82.76H91.9069V85.14H90.3469ZM84.2269 76.18V74.14H91.9069V76.18H84.2269ZM98.9602 85.14C97.9602 85.14 97.1335 85.0133 96.4802 84.76C95.8402 84.4933 95.3602 84.0533 95.0402 83.44C94.7202 82.8133 94.5602 81.9733 94.5602 80.92L94.5802 71.08H97.1802L97.1602 81.1C97.1602 81.6333 97.3002 82.0467 97.5802 82.34C97.8735 82.62 98.2868 82.76 98.8202 82.76H100.52V85.14H98.9602ZM92.8402 76.18V74.14H100.52V76.18H92.8402ZM107.655 85.38C106.722 85.38 105.902 85.22 105.195 84.9C104.502 84.58 103.922 84.1533 103.455 83.62C103.002 83.0733 102.655 82.4667 102.415 81.8C102.188 81.1333 102.075 80.4533 102.075 79.76V79.38C102.075 78.66 102.188 77.9667 102.415 77.3C102.655 76.62 103.002 76.02 103.455 75.5C103.922 74.9667 104.495 74.5467 105.175 74.24C105.855 73.92 106.642 73.76 107.535 73.76C108.708 73.76 109.688 74.02 110.475 74.54C111.275 75.0467 111.875 75.72 112.275 76.56C112.675 77.3867 112.875 78.28 112.875 79.24V80.24H103.255V78.54H111.135L110.275 79.38C110.275 78.6867 110.175 78.0933 109.975 77.6C109.775 77.1067 109.468 76.7267 109.055 76.46C108.655 76.1933 108.148 76.06 107.535 76.06C106.922 76.06 106.402 76.2 105.975 76.48C105.548 76.76 105.222 77.1667 104.995 77.7C104.782 78.22 104.675 78.8467 104.675 79.58C104.675 80.26 104.782 80.8667 104.995 81.4C105.208 81.92 105.535 82.3333 105.975 82.64C106.415 82.9333 106.975 83.08 107.655 83.08C108.335 83.08 108.888 82.9467 109.315 82.68C109.742 82.4 110.015 82.06 110.135 81.66H112.695C112.535 82.4067 112.228 83.06 111.775 83.62C111.322 84.18 110.742 84.6133 110.035 84.92C109.342 85.2267 108.548 85.38 107.655 85.38ZM115.197 85V74.14H117.397V78.8H117.197C117.197 77.6933 117.344 76.7733 117.637 76.04C117.931 75.2933 118.364 74.7333 118.937 74.36C119.524 73.9867 120.251 73.8 121.117 73.8H121.237C122.531 73.8 123.511 74.22 124.177 75.06C124.844 75.8867 125.177 77.1267 125.177 78.78V85H122.397V78.54C122.397 77.8733 122.204 77.3333 121.817 76.92C121.444 76.5067 120.924 76.3 120.257 76.3C119.577 76.3 119.024 76.5133 118.597 76.94C118.184 77.3533 117.977 77.9133 117.977 78.62V85H115.197ZM132.886 85.14C131.886 85.14 131.059 85.0133 130.406 84.76C129.766 84.4933 129.286 84.0533 128.966 83.44C128.646 82.8133 128.486 81.9733 128.486 80.92L128.506 71.08H131.106L131.086 81.1C131.086 81.6333 131.226 82.0467 131.506 82.34C131.799 82.62 132.213 82.76 132.746 82.76H134.446V85.14H132.886ZM126.766 76.18V74.14H134.446V76.18H126.766ZM137.299 85V74.14H140.079V85H137.299ZM135.779 76.22V74.14H140.079V76.22H135.779ZM138.319 72.84C137.773 72.84 137.366 72.7 137.099 72.42C136.846 72.1267 136.719 71.7667 136.719 71.34C136.719 70.8867 136.846 70.52 137.099 70.24C137.366 69.96 137.773 69.82 138.319 69.82C138.866 69.82 139.266 69.96 139.519 70.24C139.773 70.52 139.899 70.8867 139.899 71.34C139.899 71.7667 139.773 72.1267 139.519 72.42C139.266 72.7 138.866 72.84 138.319 72.84ZM148.503 85.38C147.543 85.38 146.696 85.2267 145.963 84.92C145.23 84.6133 144.61 84.2 144.103 83.68C143.596 83.1467 143.21 82.5467 142.943 81.88C142.69 81.2133 142.563 80.52 142.563 79.8V79.38C142.563 78.6333 142.696 77.9267 142.963 77.26C143.243 76.58 143.636 75.98 144.143 75.46C144.663 74.9267 145.29 74.5133 146.023 74.22C146.756 73.9133 147.583 73.76 148.503 73.76C149.423 73.76 150.25 73.9133 150.983 74.22C151.716 74.5133 152.336 74.9267 152.843 75.46C153.363 75.98 153.756 76.58 154.023 77.26C154.29 77.9267 154.423 78.6333 154.423 79.38V79.8C154.423 80.52 154.29 81.2133 154.023 81.88C153.77 82.5467 153.39 83.1467 152.883 83.68C152.376 84.2 151.756 84.6133 151.023 84.92C150.29 85.2267 149.45 85.38 148.503 85.38ZM148.503 83C149.183 83 149.756 82.8533 150.223 82.56C150.69 82.2533 151.043 81.8467 151.283 81.34C151.523 80.82 151.643 80.2333 151.643 79.58C151.643 78.9133 151.516 78.3267 151.263 77.82C151.023 77.3 150.663 76.8933 150.183 76.6C149.716 76.2933 149.156 76.14 148.503 76.14C147.85 76.14 147.283 76.2933 146.803 76.6C146.336 76.8933 145.976 77.3 145.723 77.82C145.47 78.3267 145.343 78.9133 145.343 79.58C145.343 80.2333 145.463 80.82 145.703 81.34C145.956 81.8467 146.316 82.2533 146.783 82.56C147.25 82.8533 147.823 83 148.503 83ZM156.857 85V74.14H159.057V78.8H158.857C158.857 77.6933 159.004 76.7733 159.297 76.04C159.591 75.2933 160.024 74.7333 160.597 74.36C161.184 73.9867 161.911 73.8 162.777 73.8H162.897C164.191 73.8 165.171 74.22 165.837 75.06C166.504 75.8867 166.837 77.1267 166.837 78.78V85H164.057V78.54C164.057 77.8733 163.864 77.3333 163.477 76.92C163.104 76.5067 162.584 76.3 161.917 76.3C161.237 76.3 160.684 76.5133 160.257 76.94C159.844 77.3533 159.637 77.9133 159.637 78.62V85H156.857ZM84.4602 109V94.4H88.3402L92.0002 103.12H92.3602L96.0002 94.4H99.9402V109H97.1202V96.54L97.4802 96.58L93.5402 106.02H90.6402L86.6802 96.58L87.0602 96.54V109H84.4602ZM103.842 109V98.14H106.622V109H103.842ZM102.322 100.22V98.14H106.622V100.22H102.322ZM104.862 96.84C104.316 96.84 103.909 96.7 103.642 96.42C103.389 96.1267 103.262 95.7667 103.262 95.34C103.262 94.8867 103.389 94.52 103.642 94.24C103.909 93.96 104.316 93.82 104.862 93.82C105.409 93.82 105.809 93.96 106.062 94.24C106.316 94.52 106.442 94.8867 106.442 95.34C106.442 95.7667 106.316 96.1267 106.062 96.42C105.809 96.7 105.409 96.84 104.862 96.84ZM109.826 109V98.14H112.026V102.8H111.826C111.826 101.693 111.973 100.773 112.266 100.04C112.559 99.2933 112.993 98.7333 113.566 98.36C114.153 97.9867 114.879 97.8 115.746 97.8H115.866C117.159 97.8 118.139 98.22 118.806 99.06C119.473 99.8867 119.806 101.127 119.806 102.78V109H117.026V102.54C117.026 101.873 116.833 101.333 116.446 100.92C116.073 100.507 115.553 100.3 114.886 100.3C114.206 100.3 113.653 100.513 113.226 100.94C112.813 101.353 112.606 101.913 112.606 102.62V109H109.826ZM123.315 109V98.14H126.095V109H123.315ZM121.795 100.22V98.14H126.095V100.22H121.795ZM124.335 96.84C123.788 96.84 123.382 96.7 123.115 96.42C122.862 96.1267 122.735 95.7667 122.735 95.34C122.735 94.8867 122.862 94.52 123.115 94.24C123.382 93.96 123.788 93.82 124.335 93.82C124.882 93.82 125.282 93.96 125.535 94.24C125.788 94.52 125.915 94.8867 125.915 95.34C125.915 95.7667 125.788 96.1267 125.535 96.42C125.282 96.7 124.882 96.84 124.335 96.84ZM129.299 109V98.14H131.499V102.8H131.299C131.299 101.693 131.445 100.773 131.739 100.04C132.032 99.2933 132.465 98.7333 133.039 98.36C133.625 97.9867 134.352 97.8 135.219 97.8H135.339C136.632 97.8 137.612 98.22 138.279 99.06C138.945 99.8867 139.279 101.127 139.279 102.78V109H136.499V102.54C136.499 101.873 136.305 101.333 135.919 100.92C135.545 100.507 135.025 100.3 134.359 100.3C133.679 100.3 133.125 100.513 132.699 100.94C132.285 101.353 132.079 101.913 132.079 102.62V109H129.299ZM146.508 113.28C145.988 113.28 145.454 113.26 144.908 113.22C144.374 113.18 143.874 113.127 143.408 113.06V110.74C143.888 110.793 144.401 110.84 144.948 110.88C145.494 110.933 146.008 110.96 146.488 110.96C147.381 110.96 148.101 110.853 148.648 110.64C149.208 110.427 149.614 110.087 149.868 109.62C150.134 109.167 150.268 108.587 150.268 107.88V105.74L150.868 104.38C150.828 105.38 150.621 106.233 150.248 106.94C149.874 107.633 149.368 108.167 148.728 108.54C148.088 108.9 147.348 109.08 146.508 109.08C145.761 109.08 145.081 108.94 144.468 108.66C143.868 108.38 143.348 107.993 142.908 107.5C142.481 107.007 142.148 106.427 141.908 105.76C141.668 105.093 141.548 104.38 141.548 103.62V103.2C141.548 102.44 141.668 101.733 141.908 101.08C142.161 100.413 142.514 99.8333 142.968 99.34C143.421 98.8467 143.961 98.4667 144.588 98.2C145.214 97.9333 145.908 97.8 146.668 97.8C147.561 97.8 148.334 97.9933 148.988 98.38C149.654 98.7667 150.174 99.3267 150.548 100.06C150.921 100.793 151.128 101.693 151.168 102.76L150.688 102.84V98.14H152.888V107.72C152.888 109.04 152.661 110.107 152.208 110.92C151.754 111.733 151.054 112.327 150.108 112.7C149.174 113.087 147.974 113.28 146.508 113.28ZM147.308 106.7C147.841 106.7 148.328 106.58 148.768 106.34C149.208 106.1 149.561 105.753 149.828 105.3C150.094 104.847 150.228 104.3 150.228 103.66V102.96C150.228 102.347 150.088 101.827 149.808 101.4C149.541 100.973 149.188 100.653 148.748 100.44C148.308 100.213 147.828 100.1 147.308 100.1C146.721 100.1 146.201 100.24 145.748 100.52C145.308 100.787 144.961 101.167 144.708 101.66C144.454 102.153 144.328 102.74 144.328 103.42C144.328 104.087 144.454 104.667 144.708 105.16C144.961 105.653 145.308 106.033 145.748 106.3C146.201 106.567 146.721 106.7 147.308 106.7Z" fill="#171753"/>
<path d="M108.256 57.2467C115.174 56.7086 123.038 50.2343 127.761 40.373C132.484 30.5118 132.595 20.3439 128.693 14.6074L129.331 13.2565L124.606 10.9999C116.873 7.28863 105.75 14.4365 99.7388 26.9679C93.7273 39.4994 95.1564 52.641 102.889 56.3523L107.614 58.6089L108.256 57.2467Z" fill="#ECFFFE"/>
<path d="M99.3774 26.7927C105.459 14.0931 116.824 6.83541 124.776 10.6506L129.862 13.0827L129.148 14.5859C133.098 20.6181 132.699 31.0078 128.117 40.5598C123.535 50.1119 115.7 56.9267 108.517 57.6307L107.803 59.1339L102.718 56.7018C94.7989 52.9005 93.301 39.481 99.3774 26.7927ZM128.796 13.4689L124.414 11.3673C116.89 7.75533 105.923 14.8105 100.081 27.1231C94.2387 39.4357 95.5216 52.3594 103.065 55.9265L107.451 58.0169L108.024 56.8229L108.252 56.812C115.217 56.2542 122.919 49.5684 127.425 40.1687C131.931 30.769 132.317 20.5706 128.386 14.809L128.253 14.6227L128.796 13.4689Z" fill="#171753"/>
<path d="M107.584 58.5841C99.8467 54.884 98.4567 41.6798 104.429 29.211C110.402 16.7422 121.554 9.55409 129.297 13.2429C137.039 16.9318 138.424 30.1472 132.452 42.616C126.479 55.0848 115.351 62.3093 107.584 58.5841Z" fill="#FFA54B"/>
<path d="M131.141 42.5399C137.017 30.2735 135.635 17.3857 128.054 13.754C120.472 10.1224 109.563 17.1221 103.687 29.3885C97.8112 41.6548 99.1937 54.5427 106.775 58.1743C114.356 61.806 125.266 54.8062 131.141 42.5399Z" fill="#FFA54B"/>
<path d="M104.057 29.0303C110.139 16.3308 121.499 9.0843 129.456 12.8883C137.413 16.6923 138.878 30.0979 132.83 42.8114C126.783 55.5249 115.384 62.7687 107.431 58.9534C99.4789 55.1382 98.0212 41.7484 104.057 29.0303ZM132.071 42.4578C137.962 30.1525 136.63 17.2215 129.098 13.6591C121.566 10.0966 110.607 17.1022 104.76 29.4261C98.9133 41.7499 100.201 54.6624 107.744 58.2295C115.287 61.7966 126.228 54.7704 132.116 42.4763L132.071 42.4578Z" fill="#171753"/>
<path d="M129.636 41.2688C134.424 31.2749 133.588 20.9138 127.769 18.1265C121.95 15.3392 113.353 21.1812 108.565 31.1751C103.778 41.1689 104.614 51.5301 110.433 54.3173C116.251 57.1046 124.849 51.2626 129.636 41.2688Z" fill="#FFC78F"/>
<path d="M108.197 31.019C113.081 20.8307 121.93 14.8951 127.945 17.7774C133.96 20.6597 134.871 31.2766 129.969 41.4444C125.067 51.6121 116.278 57.5597 110.254 54.6999C104.23 51.84 103.328 41.2007 108.197 31.019ZM129.3 41.0625C133.975 31.2863 133.222 21.1421 127.613 18.4538C122.003 15.7656 113.627 21.5423 108.941 31.3139C104.255 41.0854 105.014 51.2455 110.624 53.9338C116.233 56.622 124.591 50.8902 129.259 41.0981L129.3 41.0625Z" fill="#171753"/>
<path d="M129.641 41.2824C134.431 31.2913 133.587 20.9252 127.751 18.1825C127.23 17.94 126.68 17.7654 126.114 17.6631C130.59 21.3788 130.907 30.7655 126.554 39.8606C122.2 48.9557 114.665 54.6342 108.978 53.4364C109.416 53.8085 109.897 54.1266 110.411 54.3836C116.247 57.1264 124.847 51.2848 129.641 41.2824Z" fill="#ECFFFE"/>
<path d="M108.345 52.8076L109.082 52.9942C114.651 54.1298 122.017 48.3818 126.211 39.6407C130.405 30.8996 130.254 21.5555 125.877 17.9197L125.172 17.3392L126.218 17.2209C126.816 17.3294 127.396 17.5165 127.944 17.7774C133.948 20.655 134.871 31.2766 129.968 41.4443C125.066 51.6121 116.277 57.5597 110.253 54.6998C109.711 54.4252 109.203 54.0873 108.74 53.693L108.345 52.8076ZM129.258 41.0981C133.933 31.3219 133.18 21.1776 127.571 18.4894L127.515 18.4662C131.101 22.9036 130.938 31.5795 126.91 39.9823C122.882 48.3852 116.225 53.9411 110.519 53.9302L110.586 53.9581C116.247 56.6807 124.59 50.8901 129.258 41.0981Z" fill="#171753"/>
<path d="M130.843 38.1564L127.864 36.7269L129.325 31.2269L129.571 25.2374L128.147 20.1451L126.138 17.6073L128.867 18.6577L131.276 21.689L132.52 25.6303L132.608 31.1935L131.25 37.3006L130.843 38.1564Z" fill="#171753"/>
<path d="M103.331 31.802L98.521 29.4971L96.8307 35.2962L95.8714 41.2007L96.7148 48.2056L99.2457 53.4799L101.592 55.7108L105.386 57.4247L101.811 52.6112L100.792 45.9017L101.679 37L103.331 31.802Z" fill="#171753"/>
<path d="M125.65 30.4589C125.734 33.3707 125.133 36.2611 123.894 38.8975C122.655 41.5339 120.814 43.8422 118.519 45.6363C114.095 48.6661 110.186 46.8053 109.745 41.4694C109.655 38.5578 110.26 35.6666 111.508 33.0346C112.756 30.4025 114.612 28.1049 116.923 26.3317C121.3 23.2621 125.209 25.123 125.65 30.4589Z" fill="#ECFFFE"/>
<path d="M125.675 29.9469C126.125 35.3953 122.868 42.3057 118.406 45.4493C113.944 48.5929 109.957 46.6682 109.504 41.1915C109.052 35.7147 112.309 28.7972 116.773 25.689C121.238 22.5808 125.227 24.5268 125.675 29.9469Z" stroke="#171753" stroke-width="1.58887" stroke-miterlimit="10"/>
<path d="M121.486 32.5144C121.521 33.7317 121.268 34.9401 120.749 36.0417C120.23 37.1433 119.459 38.1073 118.498 38.8557C116.661 40.1274 115.027 39.3482 114.843 37.1237C114.806 35.9059 115.057 34.6966 115.576 33.5944C116.096 32.4923 116.868 31.5287 117.831 30.7824C119.659 29.4811 121.299 30.2445 121.486 32.5144Z" fill="#171753"/>
<path d="M121.6 30.661C121.614 31.1689 121.509 31.673 121.293 32.1329C121.077 32.5927 120.756 32.9953 120.356 33.3082C119.584 33.8366 118.903 33.5121 118.826 32.5814C118.81 32.0736 118.915 31.5693 119.133 31.1103C119.351 30.6512 119.675 30.2505 120.078 29.9412C120.841 29.4058 121.523 29.7304 121.6 30.661Z" fill="#ECFFFE"/>
<path d="M123.675 10.3614C127.055 4.65967 130.968 7.68873 131.68 8.22327C131.68 8.22327 131.858 8.22328 131.858 8.0451C132.569 6.61966 136.305 -0.685712 139.862 0.917906L145.554 4.12513V4.30332L141.463 11.2523L136.127 26.0413L137.55 26.5758V29.6048C137.55 29.783 137.372 29.783 137.372 29.783L131.68 26.5758L124.565 20.874C124.565 20.874 119.406 17.4886 123.675 10.3614Z" fill="#ECFFFE"/>
<path d="M137.372 30.4959C137.55 30.4959 137.728 30.4959 137.728 30.3177C137.905 30.1395 138.083 29.9614 138.083 29.605V26.0414L136.838 25.6851L141.997 11.6089L146.088 4.48166V4.12529C146.088 3.94712 145.91 3.76894 145.732 3.59076L140.04 0.383523C138.795 -0.329196 136.66 -0.329194 134.17 2.87804C132.925 4.30348 132.036 6.08528 131.502 7.15436C130.612 6.61982 129.367 5.9071 127.766 6.26346C125.988 6.61982 124.387 7.86708 123.142 10.0052C118.517 17.667 124.209 21.4087 124.209 21.4087L131.324 27.1105L137.016 30.3177C137.194 30.3177 137.372 30.4959 137.372 30.4959ZM136.838 27.1105V28.5359L132.036 25.8632L125.098 20.3397C124.92 20.1615 120.473 17.3106 124.387 10.718C125.454 8.93616 126.699 7.86707 127.944 7.68889C129.545 7.51071 130.79 8.40162 131.146 8.75798L131.502 8.93616H131.858C132.213 8.93616 132.391 8.75797 132.569 8.40161C132.925 7.68889 133.992 5.55074 135.415 3.76894C136.482 2.3435 138.083 0.91807 139.506 1.63079L144.665 4.65984L140.929 11.2525L135.237 26.9323L136.838 27.1105Z" fill="#171753"/>
<path d="M129.368 14.2815C129.368 14.2815 131.858 14.1033 132.391 14.2815C132.925 14.4597 138.261 16.776 138.261 16.776L139.151 18.736L136.305 26.3977L137.728 26.7541V29.7831C137.728 29.9613 137.55 29.9613 137.55 29.9613L131.858 26.7541L124.743 21.0523C124.743 21.0523 119.762 18.0233 123.498 11.2524L129.368 14.2815Z" fill="#FFA54B"/>
<path d="M137.55 30.496C137.728 30.496 137.906 30.496 137.906 30.3178C138.084 30.1396 138.262 29.9615 138.262 29.6051V26.0415L137.016 25.6852L139.685 18.3798L138.617 15.8853L138.262 15.7071C136.127 14.8162 132.569 13.3907 132.214 13.2126C131.858 13.2126 130.079 13.2126 129.19 13.2126L122.786 9.82715L122.43 10.5399C118.517 17.8452 123.853 21.2307 124.031 21.4088L131.146 27.1106L136.839 30.3178C137.372 30.3178 137.372 30.496 137.55 30.496ZM137.016 27.1106V28.536L132.214 25.8633L125.276 20.3398C125.099 20.1616 121.185 17.6671 123.853 12.1435L129.19 14.9944H129.368C130.613 14.9944 132.036 14.8162 132.214 14.9944C132.569 15.1725 135.593 16.2416 137.728 17.3107L138.262 18.7361L135.238 26.9324L137.016 27.1106Z" fill="#171753"/>
<path d="M136.483 10.8957L131.858 8.40118V8.223C132.214 7.51028 133.281 5.37213 134.704 3.59033L140.396 6.97575L142.175 10.3612L141.463 11.4302L140.574 13.7466L138.617 15.3502L136.483 10.8957Z" fill="#FFA54B"/>
<path d="M138.44 16.4193L141.286 14.2811L142.176 11.7866L143.065 10.3612L141.108 6.44124L134.527 2.69946L134.171 3.23399C132.748 5.19397 131.503 7.33214 131.147 8.04486C130.969 8.22304 131.147 8.5794 131.147 8.75758V9.11393L135.772 11.6085L138.44 16.4193ZM140.219 13.2121L139.152 14.103L137.195 10.3612L132.926 8.04486C133.282 7.33214 134.171 5.9067 135.06 4.48126L140.041 7.33213L141.464 10.183L140.93 11.0739L140.219 13.2121Z" fill="#171753"/>
<path d="M129.546 13.568C132.925 7.86623 136.839 10.8953 137.55 11.4298C137.55 11.4298 137.728 11.4298 137.728 11.2516C138.439 9.8262 142.175 2.52083 145.732 4.12445C150.002 6.26261 144.843 15.7061 144.843 15.7061L137.906 29.6042C137.906 29.7823 137.728 29.7823 137.728 29.7823L130.613 24.0806C130.435 24.0806 125.276 20.8734 129.546 13.568Z" fill="#FFA54B"/>
<path d="M137.372 30.4955H137.728C137.906 30.4955 138.262 30.3173 138.44 29.961L145.377 16.063C145.555 15.8848 148.935 9.47031 147.867 5.72853C147.512 4.65945 146.978 3.94674 145.911 3.4122C142.353 1.6304 138.618 7.51033 137.195 10.183C136.305 9.64849 135.06 8.93577 133.459 9.29213C131.68 9.47031 130.079 10.8957 128.834 13.0339C124.209 20.6956 129.902 24.4374 129.902 24.4374L137.372 30.4955ZM144.665 4.83763C144.843 4.83763 145.199 4.83763 145.377 5.01581C145.911 5.37217 146.266 5.72853 146.444 6.44125C147.334 9.11395 145.021 13.9248 144.132 15.5284L137.372 28.7137L130.969 23.5465C130.791 23.3683 126.344 20.5175 130.257 13.9248C131.325 12.143 132.57 11.0739 133.815 10.8957C135.416 10.7176 136.661 11.6085 137.017 11.9648L137.372 12.143H137.728C138.084 12.143 138.262 11.9648 138.44 11.6085C139.685 8.93577 142.353 4.83763 144.665 4.83763Z" fill="#171753"/>
<path d="M138.973 9.11422L133.281 5.90698L132.036 8.4015L137.728 11.4306L138.973 9.11422Z" fill="#171753"/>
<path d="M129.19 23.5469L126.344 22.2996L123.143 19.8051L122.253 17.1324L122.075 14.4597L122.431 13.3906L127.767 16.4197L127.59 18.3796L128.301 20.8742L129.19 23.5469Z" fill="#171753"/>
<defs>
<filter id="filter0_d_140_6185" x="0" y="54" width="237" height="80.0552" filterUnits="userSpaceOnUse" color-interpolation-filters="sRGB">
<feFlood flood-opacity="0" result="BackgroundImageFix"/>
<feColorMatrix in="SourceAlpha" type="matrix" values="0 0 0 0 0 0 0 0 0 0 0 0 0 0 0 0 0 0 127 0" result="hardAlpha"/>
<feOffset dy="4"/>
<feGaussianBlur stdDeviation="2"/>
<feComposite in2="hardAlpha" operator="out"/>
<feColorMatrix type="matrix" values="0 0 0 0 0.0901961 0 0 0 0 0.0901961 0 0 0 0 0.32549 0 0 0 0.25 0"/>
<feBlend mode="normal" in2="BackgroundImageFix" result="effect1_dropShadow_140_6185"/>
<feBlend mode="normal" in="SourceGraphic" in2="effect1_dropShadow_140_6185" result="shape"/>
</filter>
</defs>
</svg>
