<svg width="237" height="135" viewBox="0 0 237 135" fill="none" xmlns="http://www.w3.org/2000/svg">
<g opacity="0.3" filter="url(#filter0_d_140_6172)">
<rect x="4" y="54" width="229" height="72.0552" rx="16" fill="#5ED9D1"/>
</g>
<path d="M41.4694 85L46.4494 70.4H51.0894L56.2094 85H53.2894L48.9494 72.34L49.9694 72.78H47.4694L48.5094 72.34L44.3094 85H41.4694ZM44.9494 81.12L45.8494 78.72H51.7694L52.6494 81.12H44.9494ZM61.7019 85.34C60.4485 85.34 59.4752 84.9267 58.7819 84.1C58.1019 83.2733 57.7619 82.0467 57.7619 80.42V74.12H60.5419V80.66C60.5419 81.3267 60.7285 81.86 61.1019 82.26C61.4752 82.6467 61.9819 82.84 62.6219 82.84C63.2619 82.84 63.7819 82.6333 64.1819 82.22C64.5952 81.8067 64.8019 81.2467 64.8019 80.54V74.12H67.5819V85H65.3819V80.38H65.6019C65.6019 81.4733 65.4619 82.3867 65.1819 83.12C64.9019 83.8533 64.4819 84.4067 63.9219 84.78C63.3619 85.1533 62.6619 85.34 61.8219 85.34H61.7019ZM75.4953 85.14C74.4953 85.14 73.6686 85.0133 73.0153 84.76C72.3753 84.4933 71.8953 84.0533 71.5753 83.44C71.2553 82.8133 71.0953 81.9733 71.0953 80.92L71.1153 71.08H73.7153L73.6953 81.1C73.6953 81.6333 73.8353 82.0467 74.1153 82.34C74.4086 82.62 74.822 82.76 75.3553 82.76H77.0553V85.14H75.4953ZM69.3753 76.18V74.14H77.0553V76.18H69.3753ZM79.3886 85V70.4H82.1686V78.92H81.6886C81.6886 77.8267 81.8286 76.9 82.1086 76.14C82.3886 75.38 82.8019 74.8 83.3486 74.4C83.9086 74 84.6153 73.8 85.4686 73.8H85.5886C86.8286 73.8 87.7686 74.2267 88.4086 75.08C89.0486 75.9333 89.3686 77.1733 89.3686 78.8V85H86.5886V78.54C86.5886 77.8467 86.3886 77.3 85.9886 76.9C85.6019 76.5 85.0886 76.3 84.4486 76.3C83.7686 76.3 83.2153 76.5267 82.7886 76.98C82.3753 77.42 82.1686 78 82.1686 78.72V85H79.3886ZM97.2173 85.38C96.284 85.38 95.464 85.22 94.7573 84.9C94.064 84.58 93.484 84.1533 93.0173 83.62C92.564 83.0733 92.2173 82.4667 91.9773 81.8C91.7507 81.1333 91.6373 80.4533 91.6373 79.76V79.38C91.6373 78.66 91.7507 77.9667 91.9773 77.3C92.2173 76.62 92.564 76.02 93.0173 75.5C93.484 74.9667 94.0573 74.5467 94.7373 74.24C95.4173 73.92 96.204 73.76 97.0973 73.76C98.2707 73.76 99.2507 74.02 100.037 74.54C100.837 75.0467 101.437 75.72 101.837 76.56C102.237 77.3867 102.437 78.28 102.437 79.24V80.24H92.8173V78.54H100.697L99.8373 79.38C99.8373 78.6867 99.7373 78.0933 99.5373 77.6C99.3373 77.1067 99.0307 76.7267 98.6173 76.46C98.2173 76.1933 97.7107 76.06 97.0973 76.06C96.484 76.06 95.964 76.2 95.5373 76.48C95.1107 76.76 94.784 77.1667 94.5573 77.7C94.344 78.22 94.2373 78.8467 94.2373 79.58C94.2373 80.26 94.344 80.8667 94.5573 81.4C94.7707 81.92 95.0973 82.3333 95.5373 82.64C95.9773 82.9333 96.5373 83.08 97.2173 83.08C97.8973 83.08 98.4507 82.9467 98.8773 82.68C99.304 82.4 99.5773 82.06 99.6973 81.66H102.257C102.097 82.4067 101.791 83.06 101.337 83.62C100.884 84.18 100.304 84.6133 99.5973 84.92C98.904 85.2267 98.1107 85.38 97.2173 85.38ZM104.76 85V74.14H106.96V78.8H106.76C106.76 77.6933 106.906 76.7733 107.2 76.04C107.493 75.2933 107.926 74.7333 108.5 74.36C109.086 73.9867 109.813 73.8 110.68 73.8H110.8C112.093 73.8 113.073 74.22 113.74 75.06C114.406 75.8867 114.74 77.1267 114.74 78.78V85H111.96V78.54C111.96 77.8733 111.766 77.3333 111.38 76.92C111.006 76.5067 110.486 76.3 109.82 76.3C109.14 76.3 108.586 76.5133 108.16 76.94C107.746 77.3533 107.54 77.9133 107.54 78.62V85H104.76ZM122.448 85.14C121.448 85.14 120.622 85.0133 119.968 84.76C119.328 84.4933 118.848 84.0533 118.528 83.44C118.208 82.8133 118.048 81.9733 118.048 80.92L118.068 71.08H120.668L120.648 81.1C120.648 81.6333 120.788 82.0467 121.068 82.34C121.362 82.62 121.775 82.76 122.308 82.76H124.008V85.14H122.448ZM116.328 76.18V74.14H124.008V76.18H116.328ZM126.862 85V74.14H129.642V85H126.862ZM125.342 76.22V74.14H129.642V76.22H125.342ZM127.882 72.84C127.335 72.84 126.928 72.7 126.662 72.42C126.408 72.1267 126.282 71.7667 126.282 71.34C126.282 70.8867 126.408 70.52 126.662 70.24C126.928 69.96 127.335 69.82 127.882 69.82C128.428 69.82 128.828 69.96 129.082 70.24C129.335 70.52 129.462 70.8867 129.462 71.34C129.462 71.7667 129.335 72.1267 129.082 72.42C128.828 72.7 128.428 72.84 127.882 72.84ZM137.666 85.38C136.719 85.38 135.899 85.22 135.206 84.9C134.526 84.58 133.952 84.1533 133.486 83.62C133.032 83.0867 132.692 82.4867 132.466 81.82C132.239 81.1533 132.126 80.4733 132.126 79.78V79.4C132.126 78.6667 132.239 77.9667 132.466 77.3C132.706 76.62 133.059 76.02 133.526 75.5C133.992 74.9667 134.566 74.5467 135.246 74.24C135.939 73.92 136.739 73.76 137.646 73.76C138.592 73.76 139.439 73.9467 140.186 74.32C140.932 74.68 141.526 75.1867 141.966 75.84C142.419 76.4933 142.672 77.2533 142.726 78.12H140.026C139.959 77.56 139.719 77.0933 139.306 76.72C138.906 76.3467 138.352 76.16 137.646 76.16C137.032 76.16 136.519 76.3067 136.106 76.6C135.706 76.8933 135.406 77.3 135.206 77.82C135.006 78.3267 134.906 78.9133 134.906 79.58C134.906 80.22 134.999 80.8 135.186 81.32C135.386 81.84 135.686 82.2467 136.086 82.54C136.499 82.8333 137.026 82.98 137.666 82.98C138.146 82.98 138.559 82.8933 138.906 82.72C139.252 82.5467 139.526 82.3067 139.726 82C139.939 81.6933 140.072 81.3467 140.126 80.96H142.826C142.772 81.84 142.512 82.6133 142.046 83.28C141.592 83.9333 140.986 84.4467 140.226 84.82C139.479 85.1933 138.626 85.38 137.666 85.38ZM151.633 85V81.78H151.173V78.2C151.173 77.5733 151.019 77.1067 150.713 76.8C150.406 76.4933 149.933 76.34 149.293 76.34C148.959 76.34 148.559 76.3467 148.093 76.36C147.626 76.3733 147.153 76.3933 146.673 76.42C146.206 76.4333 145.786 76.4533 145.413 76.48V74.12C145.719 74.0933 146.066 74.0667 146.453 74.04C146.839 74.0133 147.233 74 147.633 74C148.046 73.9867 148.433 73.98 148.793 73.98C149.913 73.98 150.839 74.1267 151.573 74.42C152.319 74.7133 152.879 75.1733 153.253 75.8C153.639 76.4267 153.833 77.2467 153.833 78.26V85H151.633ZM148.133 85.28C147.346 85.28 146.653 85.14 146.053 84.86C145.466 84.58 145.006 84.18 144.673 83.66C144.353 83.14 144.193 82.5133 144.193 81.78C144.193 80.98 144.386 80.3267 144.773 79.82C145.173 79.3133 145.726 78.9333 146.433 78.68C147.153 78.4267 147.993 78.3 148.953 78.3H151.473V79.96H148.913C148.273 79.96 147.779 80.12 147.433 80.44C147.099 80.7467 146.933 81.1467 146.933 81.64C146.933 82.1333 147.099 82.5333 147.433 82.84C147.779 83.1467 148.273 83.3 148.913 83.3C149.299 83.3 149.653 83.2333 149.973 83.1C150.306 82.9533 150.579 82.7133 150.793 82.38C151.019 82.0333 151.146 81.5667 151.173 80.98L151.853 81.76C151.786 82.52 151.599 83.16 151.293 83.68C150.999 84.2 150.586 84.6 150.053 84.88C149.533 85.1467 148.893 85.28 148.133 85.28ZM161.53 85.14C160.53 85.14 159.704 85.0133 159.05 84.76C158.41 84.4933 157.93 84.0533 157.61 83.44C157.29 82.8133 157.13 81.9733 157.13 80.92L157.15 71.08H159.75L159.73 81.1C159.73 81.6333 159.87 82.0467 160.15 82.34C160.444 82.62 160.857 82.76 161.39 82.76H163.09V85.14H161.53ZM155.41 76.18V74.14H163.09V76.18H155.41ZM165.944 85V74.14H168.724V85H165.944ZM164.424 76.22V74.14H168.724V76.22H164.424ZM166.964 72.84C166.417 72.84 166.01 72.7 165.744 72.42C165.49 72.1267 165.364 71.7667 165.364 71.34C165.364 70.8867 165.49 70.52 165.744 70.24C166.01 69.96 166.417 69.82 166.964 69.82C167.51 69.82 167.91 69.96 168.164 70.24C168.417 70.52 168.544 70.8867 168.544 71.34C168.544 71.7667 168.417 72.1267 168.164 72.42C167.91 72.7 167.51 72.84 166.964 72.84ZM177.148 85.38C176.188 85.38 175.341 85.2267 174.608 84.92C173.874 84.6133 173.254 84.2 172.748 83.68C172.241 83.1467 171.854 82.5467 171.588 81.88C171.334 81.2133 171.208 80.52 171.208 79.8V79.38C171.208 78.6333 171.341 77.9267 171.608 77.26C171.888 76.58 172.281 75.98 172.788 75.46C173.308 74.9267 173.934 74.5133 174.668 74.22C175.401 73.9133 176.228 73.76 177.148 73.76C178.068 73.76 178.894 73.9133 179.628 74.22C180.361 74.5133 180.981 74.9267 181.488 75.46C182.008 75.98 182.401 76.58 182.668 77.26C182.934 77.9267 183.068 78.6333 183.068 79.38V79.8C183.068 80.52 182.934 81.2133 182.668 81.88C182.414 82.5467 182.034 83.1467 181.528 83.68C181.021 84.2 180.401 84.6133 179.668 84.92C178.934 85.2267 178.094 85.38 177.148 85.38ZM177.148 83C177.828 83 178.401 82.8533 178.868 82.56C179.334 82.2533 179.688 81.8467 179.928 81.34C180.168 80.82 180.288 80.2333 180.288 79.58C180.288 78.9133 180.161 78.3267 179.908 77.82C179.668 77.3 179.308 76.8933 178.828 76.6C178.361 76.2933 177.801 76.14 177.148 76.14C176.494 76.14 175.928 76.2933 175.448 76.6C174.981 76.8933 174.621 77.3 174.368 77.82C174.114 78.3267 173.988 78.9133 173.988 79.58C173.988 80.2333 174.108 80.82 174.348 81.34C174.601 81.8467 174.961 82.2533 175.428 82.56C175.894 82.8533 176.468 83 177.148 83ZM185.502 85V74.14H187.702V78.8H187.502C187.502 77.6933 187.649 76.7733 187.942 76.04C188.235 75.2933 188.669 74.7333 189.242 74.36C189.829 73.9867 190.555 73.8 191.422 73.8H191.542C192.835 73.8 193.815 74.22 194.482 75.06C195.149 75.8867 195.482 77.1267 195.482 78.78V85H192.702V78.54C192.702 77.8733 192.509 77.3333 192.122 76.92C191.749 76.5067 191.229 76.3 190.562 76.3C189.882 76.3 189.329 76.5133 188.902 76.94C188.489 77.3533 188.282 77.9133 188.282 78.62V85H185.502ZM77.5804 109L71.8604 102.84C71.2471 102.173 70.7604 101.593 70.4004 101.1C70.0537 100.607 69.8004 100.133 69.6404 99.68C69.4937 99.2267 69.4204 98.7333 69.4204 98.2C69.4204 97.3733 69.5937 96.6667 69.9404 96.08C70.2871 95.48 70.8271 95.02 71.5604 94.7C72.3071 94.38 73.2671 94.22 74.4404 94.22C74.9071 94.22 75.4004 94.24 75.9204 94.28C76.4537 94.32 76.9204 94.3733 77.3204 94.44V96.76C77.0537 96.72 76.7204 96.6867 76.3204 96.66C75.9204 96.62 75.5204 96.5933 75.1204 96.58C74.7337 96.5533 74.4137 96.54 74.1604 96.54C73.3204 96.54 72.7471 96.6933 72.4404 97C72.1471 97.3067 72.0004 97.7467 72.0004 98.32C72.0004 98.8267 72.1204 99.3067 72.3604 99.76C72.6004 100.2 72.9804 100.707 73.5004 101.28L80.7004 109H77.5804ZM72.7404 109.4C71.6737 109.4 70.7404 109.193 69.9404 108.78C69.1537 108.367 68.5337 107.807 68.0804 107.1C67.6404 106.393 67.4204 105.607 67.4204 104.74V104.46C67.4204 103.5 67.6937 102.647 68.2404 101.9C68.7871 101.14 69.4804 100.553 70.3204 100.14L71.5204 101.7C71.0937 101.953 70.7337 102.327 70.4404 102.82C70.1471 103.3 70.0004 103.853 70.0004 104.48C70.0004 105.013 70.1137 105.48 70.3404 105.88C70.5804 106.267 70.9137 106.567 71.3404 106.78C71.7671 106.993 72.2737 107.1 72.8604 107.1C73.6871 107.1 74.4271 106.873 75.0804 106.42C75.7471 105.967 76.2671 105.273 76.6404 104.34C77.0271 103.393 77.2204 102.187 77.2204 100.72H79.6604C79.6604 102.107 79.4871 103.34 79.1404 104.42C78.7937 105.487 78.3071 106.393 77.6804 107.14C77.0537 107.873 76.3204 108.433 75.4804 108.82C74.6404 109.207 73.7271 109.4 72.7404 109.4ZM75.2004 101.08V99.02H80.7404V101.08H75.2004ZM92.3327 109.38C91.0394 109.38 89.9461 109.173 89.0527 108.76C88.1727 108.347 87.4994 107.78 87.0327 107.06C86.5661 106.327 86.3327 105.5 86.3327 104.58H89.1127C89.1127 104.967 89.2194 105.347 89.4327 105.72C89.6461 106.08 89.9861 106.373 90.4527 106.6C90.9327 106.827 91.5594 106.94 92.3327 106.94C93.0261 106.94 93.6061 106.84 94.0727 106.64C94.5394 106.44 94.8861 106.18 95.1127 105.86C95.3394 105.527 95.4527 105.153 95.4527 104.74C95.4527 104.22 95.2327 103.807 94.7927 103.5C94.3527 103.18 93.6727 102.98 92.7527 102.9L91.4727 102.8C90.0727 102.68 88.9527 102.247 88.1127 101.5C87.2861 100.74 86.8727 99.74 86.8727 98.5C86.8727 97.5667 87.0927 96.7667 87.5327 96.1C87.9727 95.42 88.5861 94.9 89.3727 94.54C90.1727 94.1667 91.1061 93.98 92.1727 93.98C93.2794 93.98 94.2327 94.1733 95.0327 94.56C95.8327 94.9467 96.4527 95.4933 96.8927 96.2C97.3327 96.8933 97.5527 97.7133 97.5527 98.66H94.7727C94.7727 98.26 94.6727 97.8933 94.4727 97.56C94.2861 97.2133 93.9994 96.94 93.6127 96.74C93.2394 96.5267 92.7594 96.42 92.1727 96.42C91.6127 96.42 91.1461 96.5133 90.7727 96.7C90.3994 96.8867 90.1194 97.14 89.9327 97.46C89.7461 97.78 89.6527 98.1267 89.6527 98.5C89.6527 98.9533 89.8194 99.3533 90.1527 99.7C90.4861 100.033 91.0127 100.227 91.7327 100.28L93.0127 100.4C94.0527 100.48 94.9661 100.7 95.7527 101.06C96.5394 101.42 97.1461 101.907 97.5727 102.52C98.0127 103.133 98.2327 103.873 98.2327 104.74C98.2327 105.66 97.9927 106.473 97.5127 107.18C97.0327 107.873 96.3461 108.413 95.4527 108.8C94.5727 109.187 93.5327 109.38 92.3327 109.38ZM105.469 109.38C104.536 109.38 103.716 109.22 103.009 108.9C102.316 108.58 101.736 108.153 101.269 107.62C100.816 107.073 100.469 106.467 100.229 105.8C100.003 105.133 99.8893 104.453 99.8893 103.76V103.38C99.8893 102.66 100.003 101.967 100.229 101.3C100.469 100.62 100.816 100.02 101.269 99.5C101.736 98.9667 102.309 98.5467 102.989 98.24C103.669 97.92 104.456 97.76 105.349 97.76C106.523 97.76 107.503 98.02 108.289 98.54C109.089 99.0467 109.689 99.72 110.089 100.56C110.489 101.387 110.689 102.28 110.689 103.24V104.24H101.069V102.54H108.949L108.089 103.38C108.089 102.687 107.989 102.093 107.789 101.6C107.589 101.107 107.283 100.727 106.869 100.46C106.469 100.193 105.963 100.06 105.349 100.06C104.736 100.06 104.216 100.2 103.789 100.48C103.363 100.76 103.036 101.167 102.809 101.7C102.596 102.22 102.489 102.847 102.489 103.58C102.489 104.26 102.596 104.867 102.809 105.4C103.023 105.92 103.349 106.333 103.789 106.64C104.229 106.933 104.789 107.08 105.469 107.08C106.149 107.08 106.703 106.947 107.129 106.68C107.556 106.4 107.829 106.06 107.949 105.66H110.509C110.349 106.407 110.043 107.06 109.589 107.62C109.136 108.18 108.556 108.613 107.849 108.92C107.156 109.227 106.363 109.38 105.469 109.38ZM117.832 109.38C116.885 109.38 116.065 109.22 115.372 108.9C114.692 108.58 114.118 108.153 113.652 107.62C113.198 107.087 112.858 106.487 112.632 105.82C112.405 105.153 112.292 104.473 112.292 103.78V103.4C112.292 102.667 112.405 101.967 112.632 101.3C112.872 100.62 113.225 100.02 113.692 99.5C114.158 98.9667 114.732 98.5467 115.412 98.24C116.105 97.92 116.905 97.76 117.812 97.76C118.758 97.76 119.605 97.9467 120.352 98.32C121.098 98.68 121.692 99.1867 122.132 99.84C122.585 100.493 122.838 101.253 122.892 102.12H120.192C120.125 101.56 119.885 101.093 119.472 100.72C119.072 100.347 118.518 100.16 117.812 100.16C117.198 100.16 116.685 100.307 116.272 100.6C115.872 100.893 115.572 101.3 115.372 101.82C115.172 102.327 115.072 102.913 115.072 103.58C115.072 104.22 115.165 104.8 115.352 105.32C115.552 105.84 115.852 106.247 116.252 106.54C116.665 106.833 117.192 106.98 117.832 106.98C118.312 106.98 118.725 106.893 119.072 106.72C119.418 106.547 119.692 106.307 119.892 106C120.105 105.693 120.238 105.347 120.292 104.96H122.992C122.938 105.84 122.678 106.613 122.212 107.28C121.758 107.933 121.152 108.447 120.392 108.82C119.645 109.193 118.792 109.38 117.832 109.38ZM128.919 109.34C127.665 109.34 126.692 108.927 125.999 108.1C125.319 107.273 124.979 106.047 124.979 104.42V98.12H127.759V104.66C127.759 105.327 127.945 105.86 128.319 106.26C128.692 106.647 129.199 106.84 129.839 106.84C130.479 106.84 130.999 106.633 131.399 106.22C131.812 105.807 132.019 105.247 132.019 104.54V98.12H134.799V109H132.599V104.38H132.819C132.819 105.473 132.679 106.387 132.399 107.12C132.119 107.853 131.699 108.407 131.139 108.78C130.579 109.153 129.879 109.34 129.039 109.34H128.919ZM137.992 109V98.14H140.192V102.74H140.132C140.132 101.18 140.465 100 141.132 99.2C141.799 98.4 142.779 98 144.072 98H144.472V100.42H143.712C142.779 100.42 142.052 100.673 141.532 101.18C141.025 101.673 140.772 102.393 140.772 103.34V109H137.992ZM146.852 109V98.14H149.632V109H146.852ZM145.332 100.22V98.14H149.632V100.22H145.332ZM147.872 96.84C147.325 96.84 146.919 96.7 146.652 96.42C146.399 96.1267 146.272 95.7667 146.272 95.34C146.272 94.8867 146.399 94.52 146.652 94.24C146.919 93.96 147.325 93.82 147.872 93.82C148.419 93.82 148.819 93.96 149.072 94.24C149.325 94.52 149.452 94.8867 149.452 95.34C149.452 95.7667 149.325 96.1267 149.072 96.42C148.819 96.7 148.419 96.84 147.872 96.84ZM157.556 109.14C156.556 109.14 155.729 109.013 155.076 108.76C154.436 108.493 153.956 108.053 153.636 107.44C153.316 106.813 153.156 105.973 153.156 104.92L153.176 95.08H155.776L155.756 105.1C155.756 105.633 155.896 106.047 156.176 106.34C156.469 106.62 156.883 106.76 157.416 106.76H159.116V109.14H157.556ZM151.436 100.18V98.14H159.116V100.18H151.436ZM161.129 113.28V110.9H163.169C163.556 110.9 163.876 110.847 164.129 110.74C164.396 110.647 164.616 110.487 164.789 110.26C164.962 110.047 165.096 109.747 165.189 109.36L168.109 98.14H170.769L167.549 109.96C167.336 110.773 167.036 111.42 166.649 111.9C166.262 112.393 165.762 112.747 165.149 112.96C164.549 113.173 163.802 113.28 162.909 113.28H161.129ZM164.509 108.76V106.56H166.829V108.76H164.509ZM163.569 108.76L160.049 98.14H162.849L166.189 108.76H163.569Z" fill="#171753"/>
<path d="M120.256 55.9471L128.011 51.4738C128.724 50.4343 129.284 49.1962 129.681 47.783C127.976 46.358 126.68 43.403 126.68 40.74C126.68 39.9341 126.808 39.2567 127.018 38.6961L129.681 37.166C129.296 35.2973 128.735 33.4168 128.011 31.548C126.528 31.77 124.262 29.9596 122.627 27.1448C120.992 24.3183 120.559 21.4567 121.494 20.2887C120.244 18.7353 118.889 17.3104 117.464 16.0373L114.813 17.5673C114.217 17.4739 113.563 17.2403 112.862 16.8432C110.55 15.5117 108.646 12.9188 108.261 10.723C106.836 10.3492 105.481 10.2091 104.231 10.3142L97.7254 14.0751C97.7254 14.0751 97.7254 14.0751 97.7254 14.0634L89.9583 18.5251C89.2458 19.5646 88.6852 20.8026 88.2881 22.2159C89.9933 23.6525 91.2898 26.5958 91.2898 29.2588C91.2898 30.0647 91.1613 30.7421 90.9511 31.3028L88.2998 32.8328C88.6852 34.7016 89.2458 36.582 89.97 38.4508C91.4416 38.2289 93.7192 40.0393 95.3427 42.8541C96.9779 45.6806 97.41 48.5422 96.4756 49.7101C97.7254 51.2635 99.0802 52.6885 100.505 53.9616L103.156 52.4315C103.752 52.525 104.406 52.7586 105.107 53.1557C107.42 54.4872 109.323 57.0801 109.709 59.2759C111.134 59.6496 112.489 59.7898 113.738 59.6847L120.256 55.9471ZM114.708 44.8864C114.112 44.6761 113.493 44.3958 112.862 44.0338C107.466 40.9152 103.086 33.3467 103.086 27.1214C103.086 26.3973 103.156 25.7315 103.262 25.1125C103.857 25.3227 104.476 25.603 105.107 25.9651C110.503 29.0836 114.883 36.6638 114.883 42.8775C114.883 43.6016 114.813 44.2673 114.708 44.8864Z" fill="#BEF0ED" stroke="#171753" stroke-width="0.5363"/>
<path d="M112.921 60C111.881 60 110.772 59.8481 109.639 59.5561C109.534 59.5328 109.463 59.4393 109.44 59.3342C109.055 57.1735 107.174 54.674 104.967 53.4009C104.371 53.0505 103.775 52.8286 103.203 52.7234L100.634 54.2068C100.528 54.2652 100.4 54.2535 100.318 54.1717C98.8816 52.887 97.5151 51.4504 96.2536 49.8853C96.1719 49.7801 96.1719 49.64 96.2536 49.5465C97.118 48.4603 96.6274 45.6455 95.0973 42.9942C93.5907 40.3779 91.3948 38.5091 89.9933 38.7194C89.8648 38.7427 89.748 38.6727 89.7013 38.5442C88.9771 36.6637 88.4165 34.7599 88.0194 32.8912C87.996 32.7744 88.0427 32.6576 88.1479 32.5992L90.7174 31.1158C90.9043 30.5669 91.0094 29.9478 91.0094 29.2587C91.0094 26.7125 89.783 23.8393 88.1011 22.4261C88.0194 22.356 87.9843 22.2509 88.0194 22.1457C88.4165 20.6974 88.9888 19.436 89.7246 18.3732C89.748 18.3381 89.783 18.3148 89.8181 18.2914L97.5735 13.818C97.5968 13.8064 97.6085 13.7947 97.6319 13.7947L104.079 10.0688C104.114 10.0455 104.149 10.0338 104.196 10.0338C105.481 9.92867 106.871 10.0688 108.319 10.4543C108.424 10.4776 108.494 10.5711 108.517 10.6645C108.903 12.8253 110.783 15.3131 112.991 16.5978C113.586 16.9365 114.182 17.1701 114.754 17.2753L117.324 15.7919C117.429 15.7335 117.558 15.7452 117.639 15.827C119.076 17.1117 120.443 18.5484 121.704 20.1018C121.786 20.2069 121.786 20.347 121.704 20.4405C120.828 21.5267 121.33 24.3532 122.86 26.9929C124.367 29.6091 126.563 31.4779 127.964 31.2677C128.093 31.2443 128.21 31.3144 128.256 31.4429C128.98 33.3116 129.541 35.2154 129.938 37.0959C129.962 37.2127 129.915 37.3295 129.81 37.3879L127.24 38.8712C127.042 39.4202 126.948 40.0509 126.948 40.7283C126.948 43.2745 128.175 46.1477 129.856 47.561C129.938 47.6311 129.973 47.7362 129.938 47.8413C129.541 49.2896 128.969 50.5627 128.233 51.6139C128.21 51.6489 128.175 51.6723 128.14 51.6956L120.384 56.169C120.361 56.1807 120.349 56.1924 120.326 56.1924L113.878 59.9299C113.843 59.9532 113.808 59.9649 113.762 59.9649C113.493 59.9883 113.213 60 112.921 60ZM109.942 59.0656C111.251 59.3926 112.5 59.5094 113.657 59.4277L120.104 55.7018C120.127 55.6901 120.139 55.6784 120.162 55.6784L127.812 51.2635C128.467 50.3057 128.992 49.1611 129.354 47.8647C127.626 46.3229 126.388 43.3563 126.388 40.7283C126.388 39.9458 126.504 39.2216 126.75 38.5909C126.773 38.5325 126.808 38.4858 126.866 38.4507L129.354 37.0141C128.98 35.2855 128.467 33.5452 127.812 31.8283C126.154 31.8984 123.981 30.0413 122.381 27.2615C120.793 24.5167 120.291 21.6435 121.143 20.277C119.975 18.852 118.726 17.5322 117.417 16.3526L114.953 17.7892C114.895 17.8242 114.836 17.8359 114.778 17.8242C114.112 17.7191 113.423 17.4621 112.734 17.065C110.456 15.7452 108.506 13.199 108.027 10.9331C106.719 10.6061 105.469 10.4776 104.313 10.5711L97.8655 14.2969C97.8421 14.3086 97.8304 14.3203 97.8071 14.3203L90.1568 18.7352C89.5027 19.693 88.9771 20.8376 88.6151 22.1224C90.3437 23.6641 91.5817 26.6308 91.5817 29.2587C91.5817 30.0413 91.4649 30.7654 91.2197 31.3961C91.1963 31.4545 91.1613 31.5013 91.1029 31.5363L88.6151 32.9729C88.9888 34.7015 89.5027 36.4418 90.1568 38.1587C91.7569 38.077 94.0111 39.9925 95.5879 42.7255C97.1997 45.517 97.6903 48.3318 96.826 49.7101C97.9939 51.135 99.2437 52.4548 100.552 53.6345L103.028 52.1979C103.086 52.1628 103.145 52.1511 103.203 52.1628C103.881 52.2679 104.57 52.5249 105.247 52.922C107.525 54.2418 109.475 56.7997 109.942 59.0656ZM114.708 45.1666C114.673 45.1666 114.649 45.1666 114.614 45.1549C113.972 44.9213 113.341 44.6294 112.722 44.279C107.256 41.1254 102.818 33.4284 102.806 27.133C102.806 26.4205 102.864 25.7314 102.993 25.0774C103.005 24.9956 103.051 24.9255 103.121 24.8905C103.191 24.8555 103.273 24.8438 103.343 24.8671C103.986 25.1007 104.616 25.3927 105.224 25.7431C110.69 28.8967 115.14 36.5937 115.14 42.9007C115.14 43.6015 115.081 44.2906 114.953 44.9564C114.941 45.0381 114.895 45.1082 114.825 45.1433C114.801 45.1433 114.754 45.1666 114.708 45.1666ZM103.483 25.4745C103.402 26.0001 103.367 26.549 103.367 27.1097C103.367 33.2415 107.688 40.7166 113.002 43.7884C113.493 44.0687 113.984 44.314 114.497 44.5126C114.579 43.9753 114.614 43.438 114.614 42.8774C114.614 36.7455 110.293 29.2704 104.978 26.1986C104.488 25.9183 103.986 25.673 103.483 25.4745Z" fill="#171753" stroke="#171753" stroke-width="0.5363"/>
<path d="M121.926 41.6394C121.529 39.7707 120.98 37.8902 120.256 36.0214C118.772 36.2434 116.506 34.433 114.871 31.6182C113.236 28.7916 112.804 25.9301 113.738 24.7621C112.489 23.2087 111.134 21.7838 109.709 20.5107C109.323 22.251 107.408 22.6481 105.107 21.3166C102.794 19.9851 100.891 17.3922 100.505 15.1964C99.0802 14.8226 97.7254 14.6824 96.4756 14.7876C97.41 17.0301 96.9779 19.4011 95.3427 20.3355C93.7075 21.2699 91.4416 20.4639 89.9583 18.5368C89.2458 19.5763 88.6852 20.8143 88.2881 22.2276C89.9933 23.6642 91.2898 26.6075 91.2898 29.2705C91.2898 31.9335 89.9933 33.3818 88.2881 32.8445C88.6735 34.7133 89.2341 36.5938 89.9583 38.4625C91.4299 38.2406 93.7075 40.051 95.331 42.8658C96.9662 45.6923 97.3983 48.5539 96.4639 49.7218C97.7137 51.2753 99.0685 52.7002 100.493 53.9733C100.879 52.233 102.794 51.8359 105.095 53.1674C107.408 54.4989 109.312 57.0918 109.697 59.2876C111.122 59.6613 112.477 59.8015 113.727 59.6964C112.792 57.4539 113.224 55.0829 114.86 54.1485C116.495 53.2141 118.761 54.02 120.232 55.9589C120.956 54.9194 121.505 53.6813 121.903 52.268C120.221 50.8197 118.924 47.8764 118.924 45.2134C118.924 42.5504 120.221 41.1021 121.926 41.6394ZM114.883 42.8775C114.883 49.1028 110.503 51.6256 105.107 48.5071C99.7109 45.3886 95.331 37.8201 95.331 31.5948C95.331 25.3695 99.7109 22.8466 105.107 25.9651C110.503 29.0836 114.883 36.6521 114.883 42.8775Z" fill="#ECFFFE" stroke="#171753" stroke-width="0.5363"/>
<path d="M112.92 60C111.881 60 110.771 59.8481 109.638 59.5561C109.533 59.5328 109.463 59.4394 109.44 59.3342C109.054 57.1735 107.174 54.674 104.966 53.4009C104.102 52.8987 103.284 52.6417 102.572 52.6417C101.602 52.6417 100.96 53.1323 100.762 54.0199C100.738 54.1134 100.668 54.1951 100.575 54.2185C100.481 54.2535 100.388 54.2302 100.306 54.1601C98.8694 52.8753 97.5029 51.4387 96.2415 49.8736C96.1597 49.7685 96.1597 49.6283 96.2415 49.5349C97.1058 48.4487 96.6152 45.6338 95.0852 42.9825C93.5785 40.3662 91.3827 38.4975 89.9811 38.7077C89.8526 38.7311 89.7358 38.661 89.6891 38.5325C88.965 36.6521 88.4043 34.7483 88.0072 32.8795C87.9838 32.7861 88.0189 32.6809 88.089 32.6225C88.159 32.5525 88.2642 32.5408 88.3576 32.5641C89.8993 33.0547 91.0089 31.6414 91.0089 29.2471C91.0089 26.7009 89.7825 23.8277 88.1006 22.4144C88.0189 22.3443 87.9838 22.2392 88.0189 22.1341C88.416 20.6858 88.9883 19.4244 89.7241 18.3615C89.7709 18.2914 89.8526 18.2447 89.9461 18.2447C90.0278 18.233 90.1212 18.2797 90.168 18.3498C91.1724 19.658 92.539 20.4405 93.8237 20.4405C94.326 20.4405 94.7815 20.3237 95.1903 20.0901C96.6736 19.2375 97.1058 17.0417 96.2064 14.8809C96.1714 14.7992 96.1831 14.7057 96.2298 14.6357C96.2765 14.5656 96.3583 14.5072 96.44 14.5072C97.7248 14.4021 99.1147 14.5422 100.563 14.9276C100.668 14.951 100.738 15.0444 100.762 15.1379C101.147 17.2986 103.027 19.7981 105.235 21.0712C106.099 21.5618 106.917 21.8304 107.629 21.8304C108.599 21.8304 109.241 21.3399 109.44 20.4522C109.463 20.3588 109.533 20.277 109.627 20.2536C109.72 20.2303 109.825 20.242 109.895 20.312C111.332 21.5968 112.698 23.0334 113.96 24.5985C114.041 24.7036 114.041 24.8438 113.96 24.9372C113.084 26.0235 113.586 28.8383 115.116 31.4896C116.623 34.1059 118.842 35.9746 120.22 35.7644C120.349 35.741 120.465 35.8111 120.512 35.9396C121.225 37.7733 121.773 39.6538 122.171 41.5225C122.194 41.5576 122.206 41.6043 122.206 41.6627C122.206 41.8145 122.089 41.9313 121.925 41.9313C121.89 41.9313 121.867 41.9313 121.832 41.9197C120.29 41.4291 119.181 42.8424 119.181 45.2367C119.181 47.7829 120.407 50.6561 122.089 52.0694C122.171 52.1395 122.206 52.2446 122.171 52.3497C121.773 53.798 121.201 55.0711 120.465 56.1223C120.419 56.1924 120.337 56.2391 120.243 56.2391C120.15 56.2391 120.068 56.204 120.022 56.134C119.017 54.8258 117.651 54.0433 116.366 54.0433C115.864 54.0433 115.408 54.1601 114.999 54.3937C113.516 55.2463 113.084 57.4421 113.983 59.6029C114.018 59.6846 114.006 59.7781 113.96 59.8481C113.913 59.9182 113.831 59.9649 113.749 59.9766C113.493 59.9883 113.212 60 112.92 60ZM109.942 59.0656C111.133 59.3693 112.29 59.4977 113.352 59.4393C112.535 57.1384 113.095 54.8492 114.731 53.9031C115.221 53.6228 115.77 53.471 116.366 53.471C117.721 53.471 119.146 54.2185 120.22 55.4799C120.792 54.5806 121.26 53.5294 121.598 52.338C119.87 50.7963 118.632 47.8296 118.632 45.2017C118.632 42.6672 119.846 41.032 121.552 41.2656C121.178 39.6071 120.676 37.9368 120.057 36.3017C118.445 36.3484 116.226 34.5147 114.625 31.7349C113.037 28.9901 112.535 26.1169 113.387 24.7504C112.278 23.3955 111.086 22.1224 109.825 20.9778C109.475 21.8654 108.68 22.356 107.618 22.356C106.823 22.356 105.901 22.064 104.955 21.5267C102.677 20.2069 100.727 17.6607 100.248 15.3948C99.0563 15.0912 97.9 14.9627 96.8371 15.0094C97.6547 17.3103 97.0941 19.5996 95.4589 20.5456C94.9684 20.8259 94.4194 20.9778 93.8237 20.9778C92.4689 20.9778 91.044 20.2303 89.9694 18.9689C89.3971 19.8682 88.9299 20.9311 88.5912 22.1107C90.3198 23.6525 91.5579 26.6191 91.5579 29.2471C91.5579 31.7816 90.3315 33.4284 88.6379 33.1832C89 34.83 89.5022 36.5002 90.1329 38.1471C91.7331 38.0653 93.9873 39.9808 95.564 42.7139C97.1758 45.5054 97.6664 48.3202 96.8021 49.6984C97.9117 51.0649 99.1147 52.3264 100.364 53.471C100.715 52.5833 101.509 52.0928 102.572 52.0928C103.378 52.0928 104.289 52.3848 105.235 52.922C107.524 54.2418 109.475 56.7997 109.942 59.0656ZM109.475 50.1189C108.061 50.1189 106.543 49.6634 104.966 48.7407C99.5001 45.5871 95.0618 37.8901 95.0618 31.583C95.0618 29.3872 95.5991 27.5535 96.6269 26.2687C98.484 23.9444 101.789 23.7109 105.247 25.7081C110.713 28.8616 115.163 36.5586 115.163 42.8657C115.151 47.2807 112.92 50.1189 109.475 50.1189ZM100.738 24.9022C99.2198 24.9022 97.9467 25.4979 97.0474 26.6308C96.1013 27.8105 95.6108 29.5274 95.6108 31.5947C95.6108 37.7266 99.9323 45.2017 105.247 48.2735C106.742 49.1378 108.167 49.5699 109.475 49.5699C112.64 49.5699 114.602 47.0004 114.602 42.8774C114.602 36.7455 110.281 29.2704 104.966 26.1987C103.471 25.3343 102.058 24.9022 100.738 24.9022Z" fill="#171753" stroke="#171753" stroke-width="0.5363"/>
<path d="M121.925 41.9079C121.832 41.9079 121.738 41.8612 121.692 41.7678C121.622 41.6393 121.657 41.4758 121.797 41.394L129.552 36.9207C129.681 36.8506 129.844 36.8856 129.926 37.0258C129.996 37.1543 129.961 37.3178 129.821 37.3995L122.066 41.8729C122.019 41.8963 121.972 41.9079 121.925 41.9079Z" fill="#171753" stroke="#171753" stroke-width="0.5363"/>
<path d="M120.256 36.29C120.163 36.29 120.069 36.2433 120.022 36.1499C119.952 36.0214 119.987 35.8579 120.127 35.7761L127.883 31.3027C128.011 31.2327 128.175 31.2677 128.257 31.4079C128.327 31.5363 128.292 31.6999 128.151 31.7816L120.396 36.255C120.349 36.2783 120.303 36.29 120.256 36.29Z" fill="#171753" stroke="#171753" stroke-width="0.5363"/>
<path d="M121.925 52.525C121.832 52.525 121.738 52.4783 121.692 52.3848C121.622 52.2564 121.657 52.0928 121.797 52.0111L129.552 47.5377C129.681 47.4676 129.844 47.5027 129.926 47.6428C129.996 47.7713 129.961 47.9348 129.821 48.0166L122.066 52.49C122.019 52.5133 121.972 52.525 121.925 52.525Z" fill="#171753" stroke="#171753" stroke-width="0.5363"/>
<path d="M113.738 25.0307C113.644 25.0307 113.551 24.984 113.504 24.8906C113.434 24.7621 113.469 24.5986 113.609 24.5168L121.365 20.0435C121.493 19.9734 121.657 20.0084 121.739 20.1486C121.809 20.2771 121.774 20.4406 121.633 20.5223L113.878 24.9957C113.843 25.0074 113.785 25.0307 113.738 25.0307Z" fill="#171753" stroke="#171753" stroke-width="0.5363"/>
<path d="M109.708 20.7791C109.615 20.7791 109.521 20.7324 109.474 20.639C109.404 20.5105 109.439 20.347 109.58 20.2652L117.335 15.7919C117.463 15.7218 117.627 15.7568 117.709 15.897C117.779 16.0255 117.744 16.189 117.604 16.2707L109.848 20.7441C109.802 20.7675 109.755 20.7791 109.708 20.7791Z" fill="#171753" stroke="#171753" stroke-width="0.5363"/>
<path d="M100.504 15.4649C100.411 15.4649 100.317 15.4182 100.27 15.3247C100.2 15.1962 100.235 15.0327 100.376 14.951L108.131 10.4776C108.259 10.3958 108.423 10.4426 108.505 10.5827C108.575 10.7112 108.54 10.8747 108.4 10.9565L100.644 15.4298C100.597 15.4415 100.551 15.4649 100.504 15.4649Z" fill="#171753" stroke="#171753" stroke-width="0.5363"/>
<path d="M114.87 54.1368C116.505 53.2025 118.771 54.0084 120.243 55.9472C120.243 55.9472 120.243 55.9472 120.243 55.9355L113.749 59.6964C112.815 57.4422 113.235 55.0829 114.87 54.1368Z" fill="#171753" stroke="#171753" stroke-width="0.5363"/>
<path d="M113.749 59.965C113.714 59.965 113.691 59.965 113.667 59.9534C113.597 59.93 113.539 59.8716 113.504 59.8015C112.499 57.3838 113.025 54.9077 114.754 53.9032C115.244 53.6229 115.793 53.4711 116.389 53.4711C117.825 53.4711 119.332 54.312 120.442 55.7253C120.512 55.772 120.558 55.8537 120.558 55.9472C120.558 56.0757 120.465 56.1925 120.337 56.2158L113.878 59.93C113.843 59.9534 113.796 59.965 113.749 59.965ZM116.377 54.02C115.875 54.02 115.419 54.1368 115.011 54.3704C113.586 55.188 113.142 57.2203 113.878 59.2876L119.834 55.8537C118.853 54.7091 117.58 54.02 116.377 54.02Z" fill="#171753" stroke="#171753" stroke-width="0.5363"/>
<path d="M118.924 45.2132C118.924 42.5503 120.221 41.102 121.926 41.6392L127.018 38.6959C126.808 39.2566 126.68 39.934 126.68 40.7399C126.68 43.4029 127.976 46.3462 129.681 47.7828L121.926 52.2562C120.221 50.8195 118.924 47.8762 118.924 45.2132Z" fill="#BEF0ED" stroke="#171753" stroke-width="0.5363"/>
<path d="M121.926 52.5248C121.867 52.5248 121.797 52.5014 121.75 52.4664C119.952 50.9597 118.655 47.9113 118.655 45.2132C118.655 42.8422 119.695 41.2538 121.248 41.2538C121.458 41.2538 121.68 41.2888 121.891 41.3472L126.89 38.4623C126.995 38.4039 127.111 38.4156 127.205 38.4857C127.298 38.5558 127.322 38.6842 127.287 38.7894C127.076 39.3617 126.96 40.0157 126.96 40.7399C126.96 43.2861 128.186 46.1593 129.868 47.5726C129.938 47.631 129.973 47.7127 129.961 47.8062C129.95 47.8996 129.903 47.9697 129.821 48.0164L122.066 52.4898C122.019 52.5131 121.972 52.5248 121.926 52.5248ZM121.237 41.7911C119.998 41.7911 119.193 43.1342 119.193 45.2016C119.193 47.6777 120.349 50.4575 121.949 51.9058L129.214 47.7127C127.567 46.1476 126.399 43.2861 126.399 40.7282C126.399 40.2143 126.446 39.7237 126.551 39.2682L122.054 41.8728C121.984 41.9079 121.902 41.9195 121.832 41.8962C121.634 41.8261 121.435 41.7911 121.237 41.7911Z" fill="#171753" stroke="#171753" stroke-width="0.5363"/>
<path d="M121.926 52.2562L129.681 47.7828C129.296 49.2078 128.735 50.4458 128.011 51.4737L120.255 55.947C120.968 54.9075 121.528 53.6695 121.926 52.2562Z" fill="#171753" stroke="#171753" stroke-width="0.5363"/>
<path d="M120.255 56.2157C120.185 56.2157 120.103 56.1807 120.057 56.1223C119.975 56.0289 119.963 55.8887 120.033 55.7836C120.734 54.7791 121.283 53.5644 121.668 52.1745C121.692 52.1044 121.739 52.046 121.797 52.011L129.552 47.5376C129.646 47.4792 129.763 47.4909 129.856 47.561C129.938 47.6311 129.985 47.7362 129.949 47.853C129.552 49.3013 128.98 50.5744 128.244 51.6256C128.221 51.6606 128.186 51.684 128.151 51.7073L120.395 56.1807C120.349 56.204 120.302 56.2157 120.255 56.2157ZM122.159 52.4315C121.879 53.4359 121.505 54.347 121.061 55.1645L127.824 51.2635C128.396 50.4225 128.863 49.4531 129.225 48.3552L122.159 52.4315Z" fill="#171753" stroke="#171753" stroke-width="0.5363"/>
<path d="M114.567 39.934L108.645 43.3562C107.734 43.8701 106.496 43.8 105.106 43.0058C102.338 41.4174 100.107 37.5397 100.107 34.3511C100.107 32.7626 100.668 31.6414 101.579 31.1158L107.5 27.6936C110.969 30.707 113.691 35.4256 114.567 39.934Z" fill="#171753" stroke="#171753" stroke-width="0.5363"/>
<path d="M107.337 43.9636C106.59 43.9636 105.796 43.7184 104.966 43.2395C102.128 41.6043 99.8271 37.6215 99.8271 34.3512C99.8271 32.7043 100.399 31.4779 101.427 30.8823L107.361 27.4601C107.466 27.4017 107.583 27.4134 107.676 27.4951C111.203 30.5552 113.948 35.3089 114.847 39.8874C114.871 40.0042 114.812 40.121 114.719 40.1794L108.786 43.6016C108.774 43.6016 108.774 43.6132 108.762 43.6132C108.33 43.8468 107.863 43.9636 107.337 43.9636ZM107.466 28.0324L101.708 31.3495C100.843 31.84 100.376 32.9145 100.376 34.3512C100.376 37.4463 102.56 41.2306 105.235 42.7723C106.473 43.4848 107.641 43.6132 108.494 43.1227C108.505 43.1227 108.505 43.111 108.517 43.111L114.252 39.794C113.376 35.4491 110.783 30.9757 107.466 28.0324Z" fill="#171753" stroke="#171753" stroke-width="0.5363"/>
<path d="M105.106 31.4662C102.338 29.8661 100.107 31.1625 100.107 34.3511C100.107 37.5397 102.35 41.4174 105.106 43.0058C107.874 44.606 110.105 43.3095 110.105 40.1209C110.105 36.9324 107.874 33.0663 105.106 31.4662Z" fill="#ECFFFE" stroke="#171753" stroke-width="0.5363"/>
<path d="M107.348 43.9638C106.6 43.9638 105.806 43.7185 104.977 43.2396C102.139 41.6044 99.8379 37.6216 99.8379 34.3513C99.8379 33.195 100.118 32.2256 100.667 31.5481C101.66 30.3101 103.424 30.1699 105.246 31.2328C108.084 32.8679 110.385 36.8624 110.385 40.1328C110.385 41.2891 110.104 42.2585 109.555 42.9359C109.007 43.6017 108.247 43.9638 107.348 43.9638ZM102.875 31.0576C102.139 31.0576 101.52 31.3496 101.088 31.8868C100.62 32.4708 100.375 33.3118 100.375 34.3513C100.375 37.4464 102.559 41.2307 105.234 42.7724C105.97 43.1929 106.694 43.4265 107.336 43.4265C108.072 43.4265 108.679 43.1345 109.123 42.5972C109.591 42.0132 109.836 41.1723 109.836 40.1328C109.836 37.0376 107.652 33.2651 104.965 31.7116C104.241 31.2795 103.505 31.0576 102.875 31.0576Z" fill="#171753" stroke="#171753" stroke-width="0.5363"/>
<path d="M140.467 33.4696L134.265 37.0553C133.109 36.9736 131.906 36.6465 130.668 36.0976C130.399 34.1938 129.009 31.7527 127.047 30.0124C125.085 28.2838 123.181 27.7816 122.188 28.5641C121.698 27.8633 121.207 27.1275 120.763 26.3566C120.319 25.5858 119.922 24.8032 119.56 24.0207C120.74 23.5535 121.266 21.6614 120.74 19.0918C120.214 16.5223 118.801 14.1045 117.283 12.9132C117.411 11.57 117.738 10.367 118.252 9.32749L125.996 4.85413L132.198 1.26843C133.354 1.35019 134.557 1.66555 135.795 2.22618C136.064 4.14166 137.454 6.57106 139.416 8.31135C141.378 10.0516 143.282 10.5422 144.275 9.74797C144.777 10.4488 145.256 11.1846 145.7 11.9554C146.143 12.7263 146.541 13.5205 146.903 14.2914C145.723 14.7586 145.197 16.6507 145.723 19.2203C146.249 21.7782 147.662 24.2076 149.192 25.3989C149.063 26.7421 148.736 27.9451 148.222 28.9846L140.467 33.4696C140.467 33.4696 140.479 33.4813 140.467 33.4696Z" fill="#5ED9D1"/>
<path d="M140.467 33.4696L134.265 37.0553C133.109 36.9736 131.906 36.6465 130.668 36.0976C130.399 34.1938 129.009 31.7527 127.047 30.0124C125.085 28.2838 123.181 27.7816 122.188 28.5641C121.698 27.8633 121.207 27.1275 120.763 26.3566C120.319 25.5858 119.922 24.8032 119.56 24.0207C120.74 23.5535 121.266 21.6614 120.74 19.0918C120.214 16.5223 118.801 14.1045 117.283 12.9132C117.411 11.57 117.738 10.367 118.252 9.32749L125.996 4.85413L132.198 1.26843C133.354 1.35019 134.557 1.66555 135.795 2.22618C136.064 4.14166 137.454 6.57106 139.416 8.31135C141.378 10.0516 143.282 10.5422 144.275 9.74797C144.777 10.4488 145.256 11.1846 145.7 11.9554C146.143 12.7263 146.541 13.5205 146.903 14.2914C145.723 14.7586 145.197 16.6507 145.723 19.2203C146.249 21.7782 147.662 24.2076 149.192 25.3989C149.063 26.7421 148.736 27.9451 148.222 28.9846L140.467 33.4696ZM140.467 33.4696C140.479 33.4813 140.467 33.4696 140.467 33.4696Z" stroke="#171753" stroke-width="0.5363"/>
<path d="M134.265 37.3242C134.253 37.3242 134.253 37.3242 134.241 37.3242C133.05 37.2424 131.812 36.9154 130.55 36.3431C130.469 36.308 130.41 36.2263 130.399 36.1328C130.13 34.229 128.717 31.858 126.871 30.2112C125.119 28.6578 123.25 28.0738 122.363 28.7746C122.304 28.8213 122.234 28.8446 122.153 28.833C122.082 28.8213 122.012 28.7862 121.966 28.7162C121.393 27.8986 120.926 27.1861 120.529 26.4853C120.12 25.7729 119.723 25.002 119.314 24.126C119.279 24.0559 119.279 23.9742 119.303 23.9041C119.326 23.834 119.384 23.7756 119.455 23.7522C120.541 23.3201 120.95 21.4747 120.471 19.1387C119.98 16.721 118.625 14.3033 117.107 13.1236C117.037 13.0652 116.99 12.9718 117.002 12.8784C117.13 11.5118 117.469 10.2738 117.995 9.19922C118.018 9.1525 118.053 9.10578 118.1 9.08242L125.855 4.60906C125.878 4.59738 125.89 4.5857 125.913 4.5857L132.069 1.03504C132.115 1.01168 132.174 1 132.221 1C133.4 1.08176 134.638 1.40879 135.911 1.9811C135.993 2.01614 136.052 2.0979 136.063 2.19134C136.332 4.09515 137.745 6.47783 139.591 8.113C141.331 9.66641 143.211 10.2504 144.099 9.54961C144.157 9.50289 144.227 9.47953 144.309 9.49121C144.379 9.50289 144.449 9.53793 144.496 9.60801C145.045 10.3906 145.524 11.1264 145.933 11.8389C146.341 12.5513 146.739 13.3222 147.147 14.1982C147.182 14.2682 147.182 14.35 147.147 14.4084C147.124 14.4785 147.066 14.5369 146.996 14.5602C145.909 14.9807 145.5 16.8378 145.979 19.1738C146.47 21.5915 147.825 24.0092 149.343 25.1889C149.413 25.2473 149.46 25.3407 149.448 25.4341C149.308 26.8124 148.981 28.0504 148.455 29.1133C148.432 29.16 148.397 29.2067 148.35 29.2301L140.595 33.7034C140.572 33.7151 140.56 33.7268 140.537 33.7268L134.405 37.2891C134.358 37.3125 134.311 37.3242 134.265 37.3242ZM130.912 35.8992C132.034 36.3898 133.143 36.6818 134.194 36.7752L140.326 33.2362C140.35 33.2246 140.361 33.2129 140.385 33.2129L148.012 28.8096C148.467 27.8635 148.771 26.7539 148.899 25.5393C147.334 24.2545 145.968 21.7667 145.454 19.3022C144.952 16.8378 145.372 14.8756 146.54 14.1982C146.178 13.4273 145.828 12.7499 145.465 12.1192C145.092 11.4885 144.683 10.8344 144.204 10.1453C143.9 10.3205 143.527 10.4022 143.118 10.4022C141.973 10.4022 140.595 9.73649 139.228 8.52179C137.313 6.82822 135.876 4.44554 135.538 2.42494C134.405 1.93439 133.307 1.63071 132.256 1.56063L126.124 5.09961C126.1 5.11129 126.089 5.12297 126.065 5.12297L118.45 9.52625C117.995 10.484 117.691 11.5819 117.562 12.7966C119.128 14.0814 120.494 16.5692 121.008 19.0336C121.51 21.498 121.09 23.4602 119.922 24.1377C120.284 24.8969 120.634 25.586 121.008 26.2167C121.37 26.8357 121.767 27.4781 122.269 28.1906C122.573 28.0154 122.947 27.9336 123.356 27.9336C124.5 27.9336 125.878 28.5994 127.245 29.8141C129.114 31.4843 130.585 33.9137 130.912 35.8992Z" fill="#171753" stroke="#171753" stroke-width="0.5363"/>
<path d="M137.956 16.4522C137.5 15.6813 137.022 14.9455 136.531 14.2447C135.538 15.0389 133.623 14.5367 131.672 12.8081C129.71 11.0678 128.32 8.63837 128.051 6.72288C126.813 6.16225 125.61 5.8469 124.454 5.76514C124.98 7.7507 124.489 9.66619 123.053 10.4955C121.616 11.3247 119.7 10.7875 118.252 9.33916C117.75 10.3787 117.423 11.5817 117.283 12.9249C118.801 14.1045 120.214 16.5339 120.74 19.1035C121.266 21.6613 120.74 23.5652 119.56 24.0323C119.922 24.8149 120.319 25.5974 120.763 26.3683C121.207 27.1392 121.698 27.875 122.188 28.5758C123.181 27.7932 125.096 28.2838 127.047 30.0241C129.009 31.7644 130.399 34.2054 130.668 36.1092C131.894 36.6699 133.109 36.9852 134.265 37.067C133.74 35.0814 134.23 33.1543 135.667 32.3367C137.103 31.5074 139.019 32.0447 140.467 33.493C140.981 32.4535 141.296 31.2505 141.437 29.9073C139.918 28.7159 138.493 26.2982 137.968 23.7287C137.442 21.1708 137.968 19.267 139.147 18.7998C138.797 18.0056 138.411 17.223 137.956 16.4522ZM133.039 19.2787C135.071 22.806 135.071 26.6019 133.039 27.7816C131.006 28.9495 127.701 27.0574 125.669 23.5301C123.637 20.0145 123.637 16.2069 125.669 15.0389C127.713 13.8592 131.006 15.763 133.039 19.2787Z" fill="#ECFFFE" stroke="#171753" stroke-width="0.5363"/>
<path d="M134.265 37.324C134.253 37.324 134.253 37.324 134.241 37.324C133.05 37.2423 131.812 36.9152 130.55 36.3429C130.469 36.3079 130.41 36.2261 130.399 36.1327C130.13 34.2289 128.717 31.8579 126.871 30.211C125.119 28.6576 123.25 28.0736 122.363 28.7744C122.304 28.8211 122.234 28.8445 122.153 28.8328C122.082 28.8211 122.012 28.7861 121.966 28.716C121.393 27.8984 120.926 27.186 120.529 26.4852C120.12 25.7727 119.723 25.0018 119.314 24.1259C119.279 24.0558 119.279 23.974 119.303 23.9039C119.326 23.8339 119.384 23.7755 119.455 23.7521C120.541 23.32 120.95 21.4745 120.471 19.1386C119.98 16.7209 118.625 14.3032 117.107 13.1235C117.037 13.0651 116.99 12.9717 117.002 12.8782C117.13 11.5117 117.469 10.2736 117.995 9.19908C118.03 9.11732 118.111 9.07061 118.193 9.04725C118.275 9.02389 118.368 9.05892 118.427 9.129C119.805 10.5072 121.639 10.9744 122.9 10.2386C124.173 9.50275 124.687 7.72743 124.173 5.81194C124.15 5.73018 124.173 5.63674 124.232 5.56667C124.29 5.49659 124.372 5.46155 124.465 5.46155C125.645 5.54331 126.883 5.87034 128.156 6.44265C128.238 6.47769 128.296 6.55945 128.308 6.65289C128.576 8.55669 129.99 10.9277 131.835 12.5745C133.587 14.128 135.456 14.7119 136.344 14.0112C136.402 13.9644 136.484 13.9411 136.554 13.9528C136.624 13.9644 136.694 13.9995 136.741 14.0696C137.301 14.8755 137.768 15.5996 138.177 16.3004C138.586 17.0129 138.983 17.7837 139.392 18.6597C139.427 18.7298 139.427 18.8116 139.392 18.87C139.369 18.94 139.31 18.9984 139.24 19.0218C138.154 19.4423 137.745 21.2994 138.224 23.6353C138.715 26.053 140.069 28.4707 141.588 29.6504C141.658 29.7088 141.705 29.8022 141.693 29.8957C141.553 31.2739 141.226 32.512 140.7 33.5748C140.665 33.6566 140.583 33.7033 140.502 33.7267C140.408 33.7383 140.326 33.715 140.268 33.6566C138.89 32.2784 137.056 31.8112 135.795 32.547C134.533 33.2711 134.019 35.0114 134.498 36.8919C134.521 36.9386 134.545 36.9853 134.545 37.0437C134.545 37.2072 134.416 37.324 134.265 37.324ZM130.912 35.8991C131.94 36.3546 132.945 36.6349 133.914 36.74C133.505 34.7311 134.136 32.8857 135.538 32.0798C136.928 31.2856 138.878 31.671 140.385 33.0142C140.77 32.1265 141.027 31.1104 141.156 30.0008C139.591 28.716 138.224 26.2282 137.71 23.7638C137.208 21.2994 137.628 19.3371 138.796 18.6597C138.434 17.8889 138.084 17.2114 137.71 16.5807C137.348 15.9617 136.939 15.3076 136.449 14.6068C136.145 14.782 135.771 14.8638 135.362 14.8638C134.218 14.8638 132.84 14.198 131.473 12.9833C129.581 11.3131 128.121 8.88373 127.782 6.88648C126.754 6.43097 125.75 6.15066 124.792 6.04554C125.201 8.05446 124.582 9.89987 123.169 10.7058C121.779 11.5 119.828 11.1146 118.31 9.77139C117.924 10.6591 117.668 11.6752 117.539 12.7848C119.104 14.0696 120.471 16.5574 120.985 19.0218C121.487 21.4862 121.066 23.4484 119.898 24.1259C120.26 24.885 120.611 25.5742 120.985 26.2049C121.347 26.8239 121.744 27.4663 122.246 28.1788C122.55 28.0036 122.923 27.9218 123.332 27.9218C124.477 27.9218 125.855 28.5875 127.222 29.8022C129.114 31.4841 130.585 33.9135 130.912 35.8991ZM131.695 28.4007C129.593 28.4007 127.081 26.4969 125.446 23.6703C124.103 21.3344 123.578 18.7298 124.068 16.8727C124.325 15.9266 124.839 15.2025 125.54 14.7937C125.984 14.5367 126.486 14.4083 127.023 14.4083C129.125 14.4083 131.637 16.3121 133.272 19.1386C134.615 21.4745 135.152 24.0791 134.65 25.9362C134.393 26.8823 133.891 27.6064 133.178 28.0152C132.734 28.2722 132.232 28.4007 131.695 28.4007ZM127.035 14.9572C126.579 14.9572 126.17 15.0623 125.82 15.2609C125.236 15.5996 124.816 16.1953 124.594 17.0012C124.126 18.7298 124.64 21.1709 125.913 23.3784C127.455 26.053 129.779 27.84 131.695 27.84C132.15 27.84 132.559 27.7349 132.91 27.5364C133.494 27.1977 133.914 26.602 134.136 25.7961C134.603 24.0675 134.089 21.6264 132.816 19.4189C131.263 16.7442 128.939 14.9572 127.035 14.9572Z" fill="#171753" stroke="#171753" stroke-width="0.5363"/>
<path d="M141.435 30.1644C141.342 30.1644 141.248 30.1177 141.202 30.0242C141.131 29.8958 141.167 29.7322 141.307 29.6505L149.062 25.1771C149.191 25.107 149.354 25.1421 149.436 25.2822C149.506 25.4107 149.471 25.5742 149.331 25.656L141.575 30.1294C141.529 30.1527 141.482 30.1644 141.435 30.1644Z" fill="#171753" stroke="#171753" stroke-width="0.5363"/>
<path d="M135.665 32.3252C137.102 31.4959 139.017 32.0332 140.466 33.4698L134.264 37.0555C133.738 35.07 134.229 33.1428 135.665 32.3252Z" fill="#171753" stroke="#171753" stroke-width="0.5363"/>
<path d="M134.264 37.3242C134.229 37.3242 134.194 37.3125 134.159 37.3008C134.077 37.2658 134.019 37.1957 133.995 37.1139C133.423 34.9532 134.03 32.9326 135.525 32.0799C136.997 31.2273 139.099 31.7296 140.653 33.2713C140.711 33.3297 140.746 33.4114 140.735 33.5049C140.723 33.5866 140.676 33.6684 140.606 33.7034L134.404 37.2891C134.357 37.3125 134.311 37.3242 134.264 37.3242ZM137.172 32.2084C136.67 32.2084 136.214 32.3252 135.806 32.5588C134.603 33.2479 134.089 34.8597 134.451 36.6351L140.022 33.4231C139.134 32.6406 138.118 32.2084 137.172 32.2084Z" fill="#171753" stroke="#171753" stroke-width="0.5363"/>
<path d="M141.435 29.8957L149.191 25.4224C149.062 26.7655 148.735 27.9686 148.221 29.0081L140.478 33.4814C140.98 32.4419 141.307 31.2272 141.435 29.8957Z" fill="#171753" stroke="#171753" stroke-width="0.5363"/>
<path d="M140.477 33.7501C140.407 33.7501 140.349 33.7268 140.29 33.6801C140.197 33.5983 140.174 33.4698 140.232 33.3647C140.723 32.3602 141.038 31.1806 141.178 29.8725C141.19 29.779 141.236 29.7089 141.318 29.6622L149.074 25.1889C149.155 25.1421 149.272 25.1421 149.354 25.2005C149.436 25.2589 149.482 25.3524 149.482 25.4575C149.342 26.8357 149.015 28.0738 148.49 29.1366C148.466 29.1833 148.431 29.2301 148.385 29.2534L140.629 33.7268C140.571 33.7385 140.524 33.7501 140.477 33.7501ZM141.692 30.0593C141.587 31.0638 141.365 31.9982 141.05 32.8274L148.022 28.8096C148.431 27.957 148.712 26.9992 148.863 25.9247L141.692 30.0593Z" fill="#171753" stroke="#171753" stroke-width="0.5363"/>
<path d="M139.158 19.0687C139.065 19.0687 138.971 19.022 138.925 18.9285C138.855 18.8001 138.89 18.6365 139.03 18.5548L146.785 14.0814C146.914 14.0113 147.077 14.0464 147.159 14.1865C147.229 14.315 147.194 14.4785 147.054 14.5603L139.298 19.0337C139.252 19.057 139.205 19.0687 139.158 19.0687Z" fill="#171753" stroke="#171753" stroke-width="0.5363"/>
<path d="M136.53 14.5135C136.436 14.5135 136.343 14.4668 136.296 14.3734C136.226 14.2449 136.261 14.0814 136.401 13.9996L144.157 9.52625C144.285 9.45617 144.449 9.49121 144.531 9.63137C144.601 9.75985 144.566 9.92336 144.425 10.0051L136.67 14.4785C136.623 14.5018 136.577 14.5135 136.53 14.5135Z" fill="#171753" stroke="#171753" stroke-width="0.5363"/>
<path d="M128.05 6.97996C127.956 6.97996 127.863 6.93324 127.816 6.8398C127.746 6.71132 127.781 6.5478 127.921 6.46604L135.677 1.99268C135.805 1.9226 135.969 1.95764 136.051 2.0978C136.121 2.22628 136.086 2.38979 135.945 2.47155L128.19 6.94491C128.143 6.96827 128.097 6.97996 128.05 6.97996Z" fill="#171753" stroke="#171753" stroke-width="0.5363"/>
<path d="M130.597 23.5419C129.92 23.9274 128.81 23.2967 128.133 22.117C127.455 20.9374 127.455 19.6643 128.133 19.2671L131.601 17.2699C132.127 17.8539 132.618 18.5313 133.05 19.2788C133.482 20.0263 133.821 20.7855 134.066 21.533L130.597 23.5419Z" fill="#171753" stroke="#171753" stroke-width="0.5363"/>
<path d="M130.141 23.9273C129.358 23.9273 128.482 23.2732 127.887 22.2454C127.408 21.4045 127.221 20.5051 127.408 19.8277C127.501 19.4656 127.712 19.1853 127.992 19.0218L131.461 17.0246C131.566 16.9545 131.718 16.9778 131.799 17.083C132.36 17.702 132.851 18.4028 133.283 19.1386C133.703 19.8744 134.054 20.6453 134.322 21.4512C134.369 21.5797 134.311 21.7082 134.205 21.7782L130.725 23.7755C130.55 23.8806 130.351 23.9273 130.141 23.9273ZM131.531 17.6085L128.26 19.5007C128.109 19.5941 127.992 19.7459 127.933 19.9795C127.793 20.5168 127.957 21.276 128.354 21.9768C128.926 22.9812 129.919 23.612 130.445 23.3083L133.715 21.4162C133.47 20.727 133.166 20.0613 132.792 19.4189C132.43 18.7765 132.01 18.1692 131.531 17.6085Z" fill="#171753" stroke="#171753" stroke-width="0.5363"/>
<path d="M128.12 19.2672C127.442 19.6643 127.442 20.9374 128.12 22.1171C128.797 23.2967 129.907 23.9391 130.584 23.542C131.262 23.1449 131.273 21.8718 130.584 20.6921C129.907 19.5125 128.809 18.8701 128.12 19.2672Z" fill="#ECFFFE" stroke="#171753" stroke-width="0.5363"/>
<path d="M130.141 23.9274C129.358 23.9274 128.482 23.2733 127.887 22.2455C127.408 21.4045 127.221 20.5052 127.408 19.8278C127.501 19.4657 127.712 19.1854 127.992 19.0219C128.786 18.5664 130.094 19.2555 130.83 20.5519C131.309 21.3812 131.496 22.2922 131.309 22.9696C131.215 23.3317 131.005 23.612 130.725 23.7755C130.55 23.8807 130.351 23.9274 130.141 23.9274ZM128.576 19.419C128.459 19.419 128.354 19.4423 128.26 19.5007C128.109 19.5942 127.992 19.746 127.933 19.9796C127.793 20.5169 127.957 21.2761 128.354 21.9769C128.833 22.8061 129.569 23.3784 130.129 23.3784C130.246 23.3784 130.351 23.3551 130.445 23.2967C130.596 23.2032 130.713 23.0514 130.772 22.8178C130.912 22.2805 130.748 21.5213 130.351 20.8206C129.884 20.003 129.148 19.419 128.576 19.419Z" fill="#171753" stroke="#171753" stroke-width="0.5363"/>
<defs>
<filter id="filter0_d_140_6172" x="0" y="54" width="237" height="80.0552" filterUnits="userSpaceOnUse" color-interpolation-filters="sRGB">
<feFlood flood-opacity="0" result="BackgroundImageFix"/>
<feColorMatrix in="SourceAlpha" type="matrix" values="0 0 0 0 0 0 0 0 0 0 0 0 0 0 0 0 0 0 127 0" result="hardAlpha"/>
<feOffset dy="4"/>
<feGaussianBlur stdDeviation="2"/>
<feComposite in2="hardAlpha" operator="out"/>
<feColorMatrix type="matrix" values="0 0 0 0 0.0901961 0 0 0 0 0.0901961 0 0 0 0 0.32549 0 0 0 0.25 0"/>
<feBlend mode="normal" in2="BackgroundImageFix" result="effect1_dropShadow_140_6172"/>
<feBlend mode="normal" in="SourceGraphic" in2="effect1_dropShadow_140_6172" result="shape"/>
</filter>
</defs>
</svg>
