<svg width="336" height="212" viewBox="0 0 336 212" fill="none" xmlns="http://www.w3.org/2000/svg">
<path d="M4.3085 86.7414C6.1134 89.2581 8.46521 91.335 11.189 92.8165L206.719 205.319C217.285 211.432 233.303 212.069 242.478 206.819L328.097 157.468C329.725 156.708 331.138 155.556 332.208 154.116C333.278 152.675 333.972 150.992 334.227 149.218C334.749 145.544 334.583 141.806 333.738 138.192L328.022 138.53C327.227 137.946 326.398 137.407 325.541 136.918L130.011 24.4149C119.407 18.3023 103.427 17.6647 94.2518 22.9523L8.63232 72.2659L2.12729 71.9285C1.43896 74.2994 1.24057 76.785 1.54434 79.2346C1.84814 81.6842 2.64767 84.0466 3.89447 86.1788C4.00763 86.3198 4.10858 86.4703 4.19559 86.6288L4.3085 86.7414Z" fill="#171753"/>
<path d="M226.987 211.807C232.632 211.945 238.221 210.655 243.231 208.057L328.85 158.706C330.646 157.834 332.205 156.544 333.397 154.945C334.588 153.346 335.376 151.484 335.693 149.518C336.236 145.643 336.058 141.702 335.167 137.892L334.866 136.767L328.474 137.105C327.797 136.617 327.083 136.167 326.293 135.68L130.763 23.1773C119.784 16.8771 103.126 16.2021 93.5756 21.7147L8.33154 70.8034L1.1499 70.4283L0.811157 71.4409C0.0429077 74.0086 -0.182648 76.7073 0.14743 79.3666C0.477509 82.0258 1.35605 84.5879 2.72888 86.8912L3.03 87.4163L4.34644 86.7789L3.14291 87.5662C5.11099 90.2911 7.68503 92.5245 10.6633 94.0913L206.193 206.594C212.571 210.057 219.725 211.851 226.987 211.807ZM332.986 148.543V149.293C332.737 150.832 332.114 152.286 331.17 153.528C330.225 154.771 328.99 155.763 327.572 156.418L241.915 205.769C233.191 210.794 217.774 210.119 207.621 204.269L12.0917 91.7663C9.56177 90.3976 7.37631 88.4743 5.69958 86.1412L5.39938 85.6912C3.24802 82.0412 2.53741 77.7227 3.40637 73.5785L9.15958 73.8785L9.53503 73.6535L95.1545 24.3398C103.916 19.2772 119.295 19.9523 129.486 25.8024L325.015 138.305C325.835 138.77 326.626 139.283 327.384 139.842L329.076 141.08L329.339 140.067L332.798 139.842C333.3 142.717 333.363 145.65 332.986 148.543Z" fill="#171753"/>
<path d="M8.25677 63.6784L93.9139 14.3273C103.051 9.07718 119.07 9.71455 129.636 15.8272L325.165 128.33C335.731 134.442 336.898 143.63 327.723 148.918L242.103 198.232C232.929 203.519 216.948 202.844 206.344 196.769L10.8144 84.2663C0.24826 78.1537 -0.880463 68.9285 8.25677 63.6784Z" fill="#5ED9D1"/>
<path d="M226.611 203.257C232.258 203.417 237.852 202.125 242.855 199.507L328.474 150.193C330.441 149.281 332.123 147.854 333.342 146.065C334.56 144.275 335.268 142.19 335.393 140.03C335.393 135.305 331.934 130.58 325.918 127.13L130.388 14.627C119.446 8.32689 102.75 7.68955 93.1995 13.1647L7.54236 62.2907C5.58218 63.2174 3.90891 64.6537 2.698 66.4487C1.48709 68.2437 0.783936 70.3309 0.661865 72.4909C0.661865 77.216 4.08365 81.9038 10.0999 85.3539L205.63 197.857C212.046 201.416 219.269 203.275 226.611 203.257ZM109.444 12.0022C116.247 11.946 122.951 13.624 128.921 16.8772L324.451 129.38C329.565 132.342 332.498 136.13 332.498 139.805C332.322 141.425 331.722 142.971 330.759 144.287C329.795 145.604 328.501 146.644 327.008 147.305L241.388 196.619C232.627 201.644 217.248 201.006 207.058 195.156L11.5284 82.6537C6.41455 79.7286 3.48199 75.941 3.48199 72.2659C3.65802 70.6507 4.25348 69.1095 5.20969 67.7941C6.16589 66.4787 7.44958 65.4348 8.93408 64.7657L94.5912 15.4146C99.1442 13.1297 104.199 12.0208 109.293 12.1896L109.444 12.0022Z" fill="#171753"/>
<path d="M330.241 156.943C331.075 154.051 331.075 150.984 330.241 148.093L328.323 148.693C329.002 151.147 329.002 153.739 328.323 156.193L330.241 156.943Z" fill="#ECFFFE"/>
<path d="M326.821 158.93C327.623 156.035 327.623 152.976 326.821 150.08L324.903 150.718C325.574 153.173 325.574 155.763 324.903 158.218L326.821 158.93Z" fill="#ECFFFE"/>
<path d="M9.98663 92.554L11.942 92.104C11.5128 89.8556 11.3986 87.5585 11.6032 85.2788H10.5879H9.61024C9.38583 87.7093 9.51283 90.1594 9.98663 92.554Z" fill="#ECFFFE"/>
<path d="M6.1889 90.1914L8.14429 89.7414C7.7105 87.5692 7.60878 85.3438 7.84318 83.1413L6.82784 82.9163H5.85014C5.59121 85.3444 5.70566 87.7977 6.1889 90.1914Z" fill="#ECFFFE"/>
<path d="M77.2183 127.167C77.3915 127.055 77.5315 126.898 77.624 126.713C77.7165 126.529 77.7588 126.323 77.7452 126.117C77.707 125.612 77.5463 125.122 77.2779 124.691C77.0095 124.261 76.6407 123.9 76.2029 123.642L67.9307 118.542C67.7205 118.417 67.4799 118.35 67.2348 118.35C66.9898 118.35 66.7492 118.417 66.539 118.542C66.2006 118.542 64.9224 119.292 64.9224 119.742H66.013C66.057 120.242 66.2194 120.723 66.4876 121.147C66.7557 121.571 67.1214 121.925 67.5543 122.18L75.9395 127.017C76.2403 127.017 75.9397 127.842 76.2029 127.842C76.5598 127.646 76.8995 127.42 77.2183 127.167Z" fill="#5ED9D1"/>
<path d="M76.0522 128.855C76.4658 128.855 76.8047 128.63 77.5191 128.142C77.8535 127.95 78.1285 127.671 78.3141 127.333C78.4998 126.996 78.5891 126.614 78.5721 126.23C78.5602 125.515 78.3634 124.815 78.0011 124.197C77.6389 123.58 77.1232 123.066 76.5038 122.705L68.1187 117.867C67.7459 117.657 67.3251 117.546 66.8968 117.546C66.4685 117.546 66.0468 117.657 65.674 117.867C64.6588 118.392 63.569 118.992 63.569 119.967V120.98H64.8093C65.142 121.961 65.8067 122.796 66.6894 123.342L74.7367 127.955C74.7325 128.257 74.8389 128.551 75.0368 128.78L75.338 129.08L76.0522 128.855ZM76.7297 126.305L76.4662 126.08L68.0434 121.242C67.762 121.074 67.5214 120.845 67.3393 120.573C67.1573 120.3 67.0382 119.991 66.9905 119.667V119.292C66.9905 119.292 66.9909 119.292 67.4045 119.292L75.7896 124.13C76.0755 124.302 76.3188 124.537 76.5011 124.816C76.6834 125.095 76.8002 125.412 76.8426 125.742L76.7297 126.305Z" fill="#5ED9D1"/>
<path d="M92.6358 136.093C92.806 135.986 92.9444 135.836 93.0369 135.658C93.1295 135.48 93.1725 135.28 93.1618 135.08V134.855C93.1135 134.347 92.9452 133.858 92.6707 133.428C92.3961 132.998 92.0235 132.639 91.5828 132.38L83.1977 127.542C82.9782 127.424 82.7329 127.362 82.4834 127.362C82.234 127.362 81.9878 127.424 81.7683 127.542C81.4299 127.542 80.1517 128.33 80.1517 128.817H81.2423C81.2804 129.323 81.4402 129.812 81.7086 130.243C81.9771 130.674 82.3458 131.034 82.7836 131.293L91.2064 136.13C91.5072 136.318 90.9808 137.03 91.2064 137.03C91.7124 136.765 92.1914 136.451 92.6358 136.093Z" fill="#5ED9D1"/>
<path d="M91.2438 137.892C91.6199 137.892 91.9581 137.893 92.9357 137.105C93.263 136.917 93.5321 136.643 93.7115 136.311C93.8908 135.98 93.9733 135.606 93.9511 135.23C93.9354 134.515 93.7419 133.815 93.3874 133.193C93.033 132.571 92.5286 132.047 91.9204 131.667L83.4976 126.83C83.1344 126.612 82.7191 126.496 82.295 126.496C81.871 126.496 81.4547 126.612 81.0915 126.83C80.0763 127.355 78.948 127.955 78.948 128.967V129.792H80.2268C80.5635 130.752 81.2294 131.562 82.1068 132.08L90.0036 136.618C89.8803 136.918 89.8803 137.255 90.0036 137.555L90.3038 137.93L91.2438 137.892ZM92.1086 135.23C92.0253 135.135 91.9234 135.058 91.8084 135.005L83.4233 130.167C83.1374 129.995 82.8941 129.76 82.7118 129.481C82.5295 129.202 82.4127 128.885 82.3703 128.555V128.18C82.506 128.145 82.6478 128.145 82.7834 128.18L91.1686 133.017C91.4554 133.179 91.7008 133.406 91.8837 133.68C92.0666 133.954 92.1819 134.266 92.2215 134.593L92.1086 135.23Z" fill="#5ED9D1"/>
<path d="M76.0526 127.842C76.2229 127.736 76.3622 127.586 76.4547 127.408C76.5473 127.23 76.5903 127.03 76.5796 126.83V126.605C76.5356 126.106 76.3722 125.624 76.104 125.2C75.8359 124.776 75.4702 124.422 75.0373 124.167L66.6146 119.33C66.3941 119.215 66.1492 119.155 65.9003 119.155C65.6515 119.155 65.4066 119.215 65.1861 119.33C65.0129 119.443 64.8729 119.599 64.7804 119.784C64.6879 119.968 64.6456 120.174 64.6592 120.38C64.6981 120.89 64.8629 121.383 65.1384 121.814C65.4139 122.246 65.7921 122.604 66.2391 122.855L74.6242 127.693C74.8816 127.86 75.1815 127.951 75.489 127.955C75.684 127.975 75.8802 127.935 76.0526 127.842Z" fill="#171753"/>
<path d="M75.4509 129.005C75.8173 128.998 76.1775 128.908 76.5039 128.742C76.8354 128.547 77.1081 128.266 77.2934 127.93C77.4786 127.593 77.5697 127.213 77.5568 126.83C77.573 126.078 77.3902 125.336 77.0271 124.678C76.6641 124.02 76.1333 123.468 75.4886 123.08L67.1034 118.279C66.7331 118.062 66.3113 117.947 65.8815 117.947C65.4517 117.947 65.029 118.062 64.6587 118.279C64.3369 118.482 64.074 118.765 63.8958 119.101C63.7177 119.436 63.6315 119.813 63.6443 120.192C63.6559 120.903 63.8482 121.599 64.2034 122.216C64.5585 122.832 65.0641 123.349 65.674 123.717L74.0968 128.555C74.497 128.828 74.9664 128.984 75.4509 129.005ZM75.4509 126.98C75.4509 126.98 75.4505 126.98 75.0369 126.98L66.6517 122.142C66.3658 121.97 66.1226 121.735 65.9403 121.456C65.758 121.177 65.6412 120.86 65.5988 120.53V120.154C65.7344 120.119 65.8771 120.119 66.0128 120.154L74.398 124.992C74.6793 125.16 74.92 125.389 75.1021 125.662C75.2841 125.934 75.4032 126.243 75.4509 126.567V126.98Z" fill="#ECFFFE"/>
<path d="M91.4327 136.805C91.619 136.704 91.7714 136.55 91.8716 136.364C91.9717 136.177 92.015 135.966 91.9964 135.755V135.567C91.9396 135.062 91.7679 134.576 91.4942 134.148C91.2205 133.719 90.8523 133.358 90.4174 133.092L82.0323 128.255C81.8151 128.13 81.5689 128.064 81.3181 128.064C81.0673 128.064 80.8211 128.13 80.6039 128.255C80.4277 128.365 80.2846 128.52 80.1917 128.706C80.0988 128.891 80.0592 129.098 80.0769 129.305C80.1151 129.811 80.2749 130.3 80.5433 130.731C80.8117 131.162 81.1805 131.522 81.6183 131.78L90.041 136.617C90.3064 136.767 90.6026 136.857 90.9067 136.88C91.0857 136.911 91.2695 136.884 91.4327 136.805Z" fill="#171753"/>
<path d="M90.9055 137.968C91.1886 137.963 91.4675 137.902 91.7262 137.787C91.9849 137.672 92.218 137.506 92.4111 137.3C92.6041 137.093 92.7532 136.85 92.8499 136.585C92.9465 136.319 92.9881 136.037 92.9729 135.755C92.9578 135.045 92.764 134.35 92.4092 133.734C92.0544 133.118 91.5508 132.601 90.9432 132.23L82.5195 127.392C82.1563 127.174 81.7409 127.059 81.3169 127.059C80.8928 127.059 80.4766 127.174 80.1134 127.392C79.779 127.584 79.504 127.864 79.3184 128.202C79.1327 128.539 79.0434 128.921 79.0604 129.305C79.0759 130.019 79.2741 130.718 79.636 131.335C79.9979 131.952 80.5117 132.466 81.1287 132.83L89.5138 137.668C89.9442 137.885 90.4237 137.988 90.9055 137.968ZM90.9055 135.943C90.9055 135.943 90.9051 135.943 90.4915 135.943L82.1064 131.105C81.8186 130.935 81.5738 130.701 81.3912 130.421C81.2087 130.142 81.0931 129.824 81.0534 129.492V129.117C81.1896 129.087 81.3313 129.087 81.4674 129.117L89.8526 133.917C90.1317 134.098 90.3698 134.334 90.5512 134.612C90.7326 134.89 90.8533 135.203 90.9055 135.53V135.943Z" fill="#ECFFFE"/>
<path d="M57.5529 116.592C57.7232 116.485 57.8616 116.335 57.9541 116.157C58.0467 115.979 58.0897 115.78 58.079 115.58V115.355C58.035 114.855 57.8725 114.374 57.6044 113.95C57.3362 113.526 56.9705 113.172 56.5376 112.917L51.8374 110.179C51.6202 110.054 51.374 109.989 51.1232 109.989C50.8723 109.989 50.6262 110.054 50.409 110.179C50.2328 110.289 50.0897 110.445 49.9968 110.631C49.9039 110.816 49.8643 111.023 49.882 111.229V111.417C49.9291 111.92 50.0927 112.406 50.3603 112.836C50.6279 113.265 50.9926 113.627 51.4243 113.892L56.1621 116.592C56.4177 116.764 56.7188 116.855 57.0269 116.854C57.2278 116.831 57.4136 116.738 57.5529 116.592Z" fill="#171753"/>
<path d="M57.0266 117.754C57.3923 117.743 57.7505 117.653 58.0786 117.492C58.3979 117.286 58.6591 117.003 58.8369 116.668C59.0147 116.333 59.1031 115.958 59.0939 115.579C59.11 114.828 58.9273 114.086 58.5642 113.428C58.2012 112.769 57.6713 112.218 57.0266 111.829L52.3263 109.129C51.9561 108.912 51.5333 108.797 51.1035 108.797C50.6737 108.797 50.2519 108.912 49.8817 109.129C49.5543 109.326 49.2866 109.608 49.1078 109.945C48.9289 110.282 48.8455 110.661 48.8663 111.042C48.8819 111.756 49.08 112.455 49.4419 113.072C49.8038 113.689 50.3177 114.203 50.9346 114.567L55.6348 117.267C56.047 117.55 56.5277 117.718 57.0266 117.754ZM57.0266 115.729C57.0266 115.729 56.8381 115.729 56.6125 115.729L51.8747 113.029C51.5955 112.849 51.3574 112.613 51.1761 112.335C50.9947 112.057 50.8739 111.744 50.8217 111.417V111.042C50.9552 110.993 51.1022 110.993 51.2357 111.042L55.9736 113.779C56.255 113.948 56.4947 114.177 56.6768 114.449C56.8589 114.721 56.9788 115.031 57.0266 115.354V115.729Z" fill="#ECFFFE"/>
<path d="M53.9807 113.517V113.142C53.9807 111.717 55.1461 111.23 56.575 112.055L58.568 113.217C59.2894 113.651 59.8995 114.245 60.3499 114.955C60.8003 115.665 61.0783 116.469 61.1623 117.305V117.68C61.1623 119.105 59.9969 119.592 58.568 118.767L56.575 117.605C55.8497 117.176 55.2368 116.582 54.7858 115.872C54.3348 115.161 54.0589 114.354 53.9807 113.517Z" fill="#ECFFFE"/>
<path d="M226.31 210.157L228.303 210.119L228.227 202.469L226.197 202.507L226.31 210.157Z" fill="#ECFFFE"/>
<path d="M240.336 206.669L242.328 206.632L242.253 198.982L240.223 199.019L240.336 206.669Z" fill="#ECFFFE"/>
<path d="M211.627 200.953L213.62 200.973L213.545 208.36L211.552 208.34L211.627 200.953Z" fill="#ECFFFE"/>
<path d="M195.329 191.564L197.322 191.584L197.247 199.008L195.254 198.988L195.329 191.564Z" fill="#ECFFFE"/>
<path d="M323.623 134.442L125.575 21.0394C120.8 18.6363 115.526 17.3845 110.177 17.3845C104.828 17.3845 99.5534 18.6363 94.7782 21.0394L12.5434 68.5529C11.5433 68.9096 10.6783 69.5659 10.0666 70.4319C9.45493 71.2979 9.12656 72.3314 9.12656 73.3907C9.12656 74.45 9.45493 75.4833 10.0666 76.3493C10.6783 77.2153 11.5433 77.8716 12.5434 78.2282L210.441 191.706C215.217 194.109 220.492 195.361 225.84 195.361C231.189 195.361 236.463 194.109 241.238 191.706L323.623 144.08C324.628 143.733 325.499 143.082 326.115 142.218C326.731 141.355 327.062 140.321 327.062 139.261C327.062 138.201 326.731 137.167 326.115 136.304C325.499 135.44 324.628 134.789 323.623 134.442Z" fill="#BEF0ED"/>
<path d="M225.859 196.731C231.48 196.869 237.044 195.578 242.028 192.981L324.225 145.43C325.453 144.96 326.509 144.129 327.254 143.048C327.999 141.967 328.398 140.686 328.398 139.374C328.398 138.062 327.999 136.781 327.254 135.7C326.509 134.618 325.453 133.788 324.225 133.317L126.327 19.8022C121.326 17.2781 115.8 15.9629 110.195 15.9629C104.591 15.9629 99.0645 17.2781 94.0639 19.8022L11.8668 67.316C10.6265 67.7795 9.55698 68.6095 8.80243 69.6951C8.04785 70.7807 7.64389 72.0702 7.64389 73.3911C7.64389 74.7121 8.04785 76.0014 8.80243 77.087C9.55698 78.1726 10.6265 79.0028 11.8668 79.4663L209.765 192.944C214.717 195.555 220.258 196.859 225.859 196.731ZM110.27 18.7899C115.357 18.6754 120.389 19.8495 124.897 22.2024L322.796 135.68C323.563 135.917 324.233 136.393 324.708 137.037C325.184 137.682 325.441 138.461 325.441 139.261C325.441 140.062 325.184 140.841 324.708 141.485C324.233 142.13 323.563 142.605 322.796 142.843L240.598 190.356C236.037 192.622 231.01 193.801 225.915 193.801C220.819 193.801 215.793 192.622 211.232 190.356L13.3328 76.8787C12.5791 76.5581 11.9258 76.0403 11.4426 75.3802C10.9595 74.7201 10.6645 73.9423 10.588 73.1286C10.6759 72.3185 10.9756 71.5455 11.4573 70.8874C11.9391 70.2292 12.5859 69.7089 13.3328 69.3785L95.5309 21.8647C100.096 19.6285 105.151 18.5714 110.233 18.7899H110.27Z" fill="#171753"/>
<path d="M323.397 137.293L125.499 23.8149C120.724 21.4118 115.45 20.1601 110.101 20.1601C104.752 20.1601 99.4785 21.4118 94.7032 23.8149L12.5052 71.3285C11.118 72.0415 10.0165 73.2059 9.38394 74.6286C8.48148 72.416 9.38422 69.9787 12.5052 68.2536L94.7032 20.7398C99.4785 18.3367 104.752 17.085 110.101 17.085C115.45 17.085 120.724 18.3367 125.499 20.7398L323.397 134.218C326.405 135.943 327.421 138.38 326.556 140.593C325.899 139.174 324.788 138.013 323.397 137.293Z" fill="#171753"/>
<path d="M269.478 189.194C269.768 189.189 270.052 189.112 270.305 188.969C270.698 188.715 271.026 188.372 271.261 187.968C271.497 187.564 271.632 187.11 271.658 186.644C271.669 186.39 271.613 186.139 271.494 185.914C271.375 185.69 271.198 185.502 270.981 185.369C270.771 185.243 270.53 185.177 270.285 185.177C270.04 185.177 269.8 185.243 269.59 185.369C269.187 185.613 268.853 185.954 268.616 186.36C268.38 186.766 268.249 187.224 268.236 187.694C268.22 187.939 268.271 188.183 268.383 188.401C268.496 188.619 268.666 188.803 268.875 188.931C269.049 189.071 269.257 189.162 269.478 189.194Z" fill="#ECFFFE"/>
<path d="M264.927 191.819C265.217 191.81 265.501 191.733 265.755 191.594C266.144 191.338 266.465 190.994 266.694 190.59C266.923 190.185 267.052 189.733 267.07 189.269C267.095 189.019 267.047 188.767 266.932 188.543C266.817 188.319 266.64 188.133 266.422 188.007C266.205 187.881 265.955 187.819 265.704 187.83C265.452 187.841 265.208 187.924 265.002 188.069C264.611 188.322 264.288 188.666 264.058 189.07C263.829 189.475 263.702 189.929 263.687 190.394C263.67 190.638 263.721 190.883 263.834 191.101C263.946 191.319 264.116 191.502 264.326 191.631C264.504 191.749 264.713 191.814 264.927 191.819Z" fill="#ECFFFE"/>
<path d="M260.377 194.444C260.655 194.44 260.927 194.362 261.166 194.219C261.564 193.97 261.895 193.628 262.131 193.223C262.367 192.818 262.5 192.362 262.52 191.894C262.539 191.643 262.489 191.393 262.377 191.168C262.264 190.944 262.093 190.754 261.881 190.619C261.662 190.5 261.415 190.439 261.166 190.439C260.917 190.439 260.671 190.5 260.452 190.619C260.056 190.87 259.727 191.212 259.492 191.617C259.256 192.022 259.121 192.477 259.099 192.944C259.094 193.192 259.15 193.438 259.261 193.66C259.372 193.882 259.536 194.074 259.738 194.219C259.934 194.334 260.151 194.411 260.377 194.444Z" fill="#ECFFFE"/>
<path d="M255.94 197.069C256.217 197.06 256.488 196.983 256.729 196.844C257.123 196.59 257.45 196.247 257.686 195.843C257.921 195.439 258.057 194.985 258.083 194.519C258.094 194.266 258.037 194.014 257.918 193.79C257.799 193.566 257.622 193.377 257.406 193.244C257.195 193.118 256.956 193.052 256.711 193.052C256.466 193.052 256.225 193.118 256.015 193.244C255.613 193.488 255.278 193.829 255.042 194.235C254.805 194.641 254.674 195.099 254.661 195.569C254.646 195.819 254.697 196.068 254.81 196.292C254.922 196.516 255.091 196.706 255.301 196.844C255.489 196.977 255.71 197.055 255.94 197.069Z" fill="#ECFFFE"/>
<path d="M251.24 199.694C251.53 199.685 251.813 199.608 252.067 199.469C252.456 199.213 252.779 198.869 253.007 198.465C253.236 198.061 253.365 197.608 253.384 197.144C253.399 196.894 253.347 196.645 253.235 196.421C253.123 196.197 252.953 196.007 252.744 195.869C252.524 195.751 252.279 195.689 252.03 195.689C251.78 195.689 251.535 195.751 251.315 195.869C250.927 196.124 250.604 196.469 250.375 196.873C250.147 197.277 250.018 197.73 249.999 198.194C249.984 198.444 250.036 198.693 250.148 198.917C250.26 199.141 250.43 199.331 250.639 199.469C250.812 199.603 251.022 199.681 251.24 199.694Z" fill="#ECFFFE"/>
<path d="M317.682 161.481C317.96 161.476 318.233 161.399 318.471 161.256C318.867 161.004 319.197 160.662 319.433 160.258C319.668 159.853 319.803 159.398 319.826 158.931C319.847 158.681 319.794 158.43 319.674 158.21C319.554 157.99 319.371 157.81 319.149 157.693C318.94 157.563 318.699 157.495 318.453 157.495C318.207 157.495 317.966 157.563 317.757 157.693C317.354 157.946 317.02 158.293 316.784 158.705C316.548 159.118 316.418 159.581 316.404 160.056C316.388 160.3 316.438 160.545 316.551 160.763C316.664 160.981 316.834 161.164 317.043 161.293C317.235 161.413 317.456 161.477 317.682 161.481Z" fill="#ECFFFE"/>
<path d="M313.094 164.106C313.385 164.101 313.669 164.024 313.921 163.881C314.317 163.632 314.645 163.29 314.874 162.884C315.104 162.478 315.229 162.022 315.238 161.556C315.257 161.311 315.206 161.067 315.093 160.85C314.98 160.632 314.807 160.451 314.596 160.326C314.385 160.201 314.143 160.138 313.898 160.143C313.652 160.149 313.413 160.222 313.207 160.356C312.804 160.608 312.47 160.956 312.234 161.368C311.998 161.78 311.868 162.244 311.854 162.718C311.838 162.963 311.888 163.208 312.001 163.426C312.114 163.644 312.284 163.827 312.493 163.956C312.675 164.063 312.883 164.115 313.094 164.106Z" fill="#ECFFFE"/>
<path d="M308.583 166.768C308.864 166.749 309.136 166.659 309.372 166.505C309.777 166.264 310.114 165.924 310.351 165.517C310.588 165.111 310.717 164.651 310.726 164.18C310.742 163.936 310.691 163.691 310.578 163.473C310.466 163.255 310.296 163.072 310.086 162.943C309.873 162.806 309.626 162.733 309.372 162.733C309.119 162.733 308.871 162.806 308.658 162.943C308.258 163.19 307.925 163.531 307.688 163.936C307.452 164.342 307.32 164.799 307.304 165.268C307.291 165.516 307.349 165.763 307.468 165.982C307.588 166.2 307.765 166.381 307.981 166.505C308.151 166.65 308.36 166.742 308.583 166.768Z" fill="#ECFFFE"/>
<path d="M303.995 169.393C304.279 169.388 304.555 169.296 304.785 169.131C305.185 168.884 305.518 168.543 305.754 168.137C305.99 167.732 306.123 167.274 306.139 166.806C306.147 166.562 306.093 166.32 305.981 166.104C305.869 165.887 305.703 165.703 305.499 165.568C305.286 165.431 305.038 165.358 304.785 165.358C304.531 165.358 304.284 165.431 304.071 165.568C303.668 165.812 303.333 166.153 303.097 166.559C302.86 166.965 302.73 167.424 302.717 167.893C302.7 168.138 302.752 168.382 302.864 168.6C302.977 168.818 303.147 169.002 303.356 169.131C303.541 169.275 303.762 169.366 303.995 169.393Z" fill="#ECFFFE"/>
<path d="M299.408 172.019C299.697 172.01 299.981 171.932 300.235 171.794C300.626 171.532 300.95 171.181 301.179 170.771C301.407 170.36 301.535 169.901 301.55 169.431C301.567 169.186 301.516 168.942 301.404 168.724C301.291 168.506 301.121 168.322 300.912 168.193C300.696 168.065 300.449 167.997 300.197 167.997C299.946 167.997 299.699 168.065 299.483 168.193C299.088 168.442 298.76 168.784 298.53 169.19C298.3 169.596 298.176 170.053 298.167 170.518C298.15 170.763 298.202 171.008 298.314 171.226C298.427 171.444 298.596 171.627 298.806 171.756C298.976 171.901 299.186 171.993 299.408 172.019Z" fill="#ECFFFE"/>
<path d="M278.99 184.356C279.523 184.347 280.045 184.191 280.495 183.906L290.121 178.393C290.781 178.003 291.335 177.457 291.735 176.803C292.135 176.149 292.368 175.408 292.414 174.643C292.456 174.195 292.373 173.745 292.174 173.341C291.975 172.937 291.667 172.596 291.286 172.356C290.888 172.118 290.434 171.992 289.97 171.992C289.507 171.992 289.052 172.118 288.654 172.356L279.028 177.906C278.361 178.289 277.801 178.833 277.4 179.488C276.999 180.144 276.771 180.889 276.735 181.656C276.684 182.105 276.762 182.559 276.962 182.965C277.162 183.37 277.475 183.71 277.863 183.944C278.195 184.179 278.584 184.321 278.99 184.356ZM290.271 174.081C290.305 174.191 290.305 174.309 290.271 174.418C290.251 174.857 290.124 175.285 289.902 175.664C289.679 176.043 289.367 176.362 288.993 176.593L279.366 182.144C279.141 182.144 278.916 182.406 278.728 182.144C278.54 181.881 278.728 181.881 278.728 181.806C278.74 181.366 278.864 180.935 279.087 180.555C279.311 180.175 279.626 179.857 280.005 179.631L289.632 174.081C289.805 174.041 289.985 174.041 290.159 174.081H290.271Z" fill="#ECFFFE"/>
<path d="M116.061 18.4897H118.054V21.9023H116.061V18.4897Z" fill="#ECFFFE"/>
<path d="M15.5889 67.1287H17.5818V70.5412H15.5889V67.1287Z" fill="#ECFFFE"/>
<path d="M317.683 131.855H319.675V135.268H317.683V131.855Z" fill="#ECFFFE"/>
<path d="M102.412 18.4897H104.405V21.9023H102.412V18.4897Z" fill="#ECFFFE"/>
<path d="M257.755 110.48L225.373 91.8485C223.598 90.8135 221.824 90.6656 220.641 91.2571L210.142 97.7632V97.9111C210.586 98.9461 215.022 108.114 215.466 109.74C215.613 110.48 216.944 117.429 218.571 125.562V129.702C218.571 132.068 219.458 134.582 220.789 136.8C222.415 145.376 223.894 152.622 223.894 152.769L238.681 157.797H239.716V157.649L238.976 155.283C238.828 154.248 238.533 152.917 238.533 151.734L252.432 167.26H252.58L262.783 160.902C262.783 160.902 262.931 160.902 262.931 160.754C264.114 160.015 264.853 158.536 264.853 156.318V122.457C264.853 118.169 261.6 112.698 257.755 110.48Z" fill="#FFE850"/>
<path d="M252.432 168.444C252.136 168.444 251.841 168.296 251.545 168L239.716 154.84V154.988L240.455 157.206C240.603 157.649 240.455 158.241 240.011 158.537L239.716 158.684H238.237L222.711 153.509L222.415 152.918C222.415 152.77 220.937 145.524 219.31 137.096C217.831 134.73 217.092 132.069 217.092 129.703V125.71C215.17 115.803 214.135 110.48 213.987 109.889C213.691 108.706 211.177 103.087 208.812 98.2072C208.516 97.6157 208.664 97.0242 209.255 96.7285L220.493 89.7788L220.641 89.9267C222.12 89.4831 223.894 89.7788 225.668 90.8139L258.051 109.445C262.191 111.811 265.592 117.726 265.592 122.605V156.466C265.592 158.98 264.705 160.755 263.226 161.79L252.876 168.148C252.876 168.296 252.728 168.444 252.432 168.444ZM237.202 148.925L252.58 166.078L262.043 160.163L262.783 160.902L262.191 160.015C263.079 159.424 263.67 158.093 263.67 156.466V122.605C263.67 118.465 260.713 113.29 257.164 111.367L224.781 92.7361C223.303 91.8489 221.972 91.7011 220.937 92.1447L211.177 98.2072C212.656 101.164 215.761 107.966 216.205 109.445C216.353 110.036 217.388 115.064 219.31 125.415V125.562V129.703C219.31 131.773 220.049 134.139 221.38 136.209L221.528 136.505C222.859 143.75 224.19 149.96 224.485 151.883L238.089 156.466L237.793 155.431C237.498 154.249 237.35 152.918 237.35 151.735L237.202 148.925Z" fill="#171753"/>
<path d="M257.757 110.48L226.557 92.4404L211.327 102.052L244.744 119.796L251.546 120.831L262.045 114.62C260.714 112.846 259.383 111.367 257.757 110.48Z" fill="white"/>
<path d="M251.693 121.866L244.152 120.683L209.256 102.052L226.556 91.2578L258.347 109.593C259.974 110.48 261.601 112.107 262.931 113.881L263.523 114.769L251.693 121.866ZM245.039 118.613L251.25 119.648L260.418 114.177C259.383 112.994 258.347 111.959 257.165 111.368L226.408 93.6237L213.248 101.904L245.039 118.613Z" fill="#171753"/>
<path d="M254.059 126.301C254.059 126.301 241.047 129.406 240.159 129.702C239.42 129.998 226.704 140.348 222.268 145.08C223.155 149.664 236.019 157.501 236.019 157.501L240.899 169.478L251.989 162.972L252.285 167.26H252.432L262.635 160.902C262.635 160.902 262.783 160.902 262.783 160.754C263.966 160.015 264.705 158.536 264.705 156.318V122.457C264.705 121.569 264.557 120.83 264.41 119.943L254.059 126.301Z" fill="#171753"/>
<path d="M263.381 124.973L255.665 129.642L256.354 130.781L264.07 126.111L263.381 124.973Z" fill="#FFE850"/>
<path d="M263.392 156.185L255.675 160.854L256.364 161.993L264.081 157.324L263.392 156.185Z" fill="#FFE850"/>
<path d="M215.17 98.208L247.553 116.839C251.398 119.057 254.503 124.528 254.503 128.964V162.826C254.503 167.262 251.398 169.036 247.553 166.818L243.856 164.748C243.117 164.304 242.673 164.6 242.526 165.191C242.082 167.262 240.603 170.958 235.428 168.74C234.393 168.297 233.654 166.67 233.949 165.783C234.245 164.6 234.689 162.973 234.689 160.903C234.689 160.016 234.097 158.981 233.358 158.537L215.318 148.187C211.474 145.969 208.368 140.498 208.368 136.062V102.2C208.073 97.7645 211.178 95.9901 215.17 98.208Z" fill="#FFE850"/>
<path d="M238.237 170.514C237.202 170.514 236.167 170.219 234.984 169.775C233.505 169.184 232.322 166.966 232.914 165.487C233.209 164.452 233.653 162.825 233.653 160.903C233.653 160.459 233.209 159.72 232.766 159.424L214.726 149.074C210.586 146.708 207.185 140.941 207.185 136.061V102.2C207.185 99.6864 208.072 97.7641 209.699 96.729C211.325 95.8418 213.543 95.9897 215.613 97.1726L247.996 115.804C252.136 118.17 255.537 123.936 255.537 128.816V162.677C255.537 165.191 254.65 167.113 253.024 168.148C251.397 169.036 249.179 168.888 247.109 167.705L243.56 165.635C243.264 167.113 242.525 168.888 240.751 169.923C239.863 170.366 239.124 170.514 238.237 170.514ZM211.917 98.3556C211.473 98.3556 211.03 98.5034 210.586 98.6513C209.551 99.2428 209.107 100.574 209.107 102.348V136.209C209.107 140.35 212.065 145.377 215.613 147.447L233.653 157.798C234.688 158.389 235.575 159.868 235.575 161.051C235.575 163.269 235.132 165.043 234.836 166.226C234.688 166.67 235.28 167.705 235.723 168.001C237.35 168.74 238.681 168.74 239.568 168.296C240.751 167.705 241.194 166.078 241.342 165.191C241.49 164.6 241.786 164.008 242.377 163.86C242.969 163.565 243.56 163.712 244.299 164.008L247.996 166.078C249.475 166.966 250.953 167.113 251.841 166.522C252.876 165.93 253.319 164.6 253.319 162.825V128.964C253.319 124.824 250.362 119.796 246.813 117.726L214.578 99.0949C213.691 98.6513 212.804 98.3556 211.917 98.3556Z" fill="#171753"/>
<path d="M221.232 124.822C221.232 124.822 218.718 124.97 219.162 130.885C219.606 136.8 221.824 139.609 221.824 139.609L226.703 141.384C226.703 141.384 226.851 141.531 226.999 141.827C230.104 146.263 234.392 148.777 237.497 147.89L239.42 147.298L239.124 134.434C239.124 134.434 236.314 132.216 234.984 129.702C233.653 127.336 235.427 127.04 235.279 124.083C235.131 121.126 233.061 116.098 230.843 116.098C228.625 116.098 229.66 118.612 230.104 120.83C230.548 123.196 229.365 125.266 227.59 126.153C225.816 127.04 225.372 128.076 225.372 128.076C225.372 128.076 224.337 126.301 221.232 124.822Z" fill="white"/>
<path d="M236.166 149.073C232.913 149.073 229.068 146.56 226.111 142.419C226.111 142.419 226.111 142.271 225.963 142.271L221.084 140.645L220.936 140.349C220.788 140.201 218.57 137.244 218.126 131.034C217.978 128.076 218.422 126.006 219.457 124.823C220.196 123.936 221.084 123.788 221.232 123.788H221.527L221.823 123.936C223.597 124.823 224.78 125.71 225.52 126.45C225.963 126.154 226.407 125.71 227.146 125.267C228.329 124.675 229.512 123.049 229.068 121.127C229.068 120.831 228.921 120.387 228.773 120.092C228.329 118.465 228.033 116.986 228.921 115.951C229.364 115.36 229.956 115.212 230.843 115.212C233.948 115.212 236.166 121.127 236.314 124.232C236.314 125.71 236.018 126.598 235.722 127.189C235.427 127.928 235.279 128.372 235.87 129.259C237.053 131.477 239.715 133.695 239.715 133.695L240.011 133.991L240.454 148.186L237.793 148.925C237.201 148.925 236.61 149.073 236.166 149.073ZM222.414 138.871L227.442 140.645L227.59 140.941C227.59 140.941 227.738 141.089 227.886 141.384C230.695 145.377 234.54 147.742 237.349 147.003L238.532 146.707L238.236 135.174C237.349 134.435 235.427 132.512 234.244 130.442C233.209 128.668 233.652 127.485 233.948 126.598C234.244 126.006 234.392 125.415 234.392 124.38C234.244 121.57 232.174 117.43 230.991 117.43C230.695 117.43 230.695 117.43 230.695 117.43C230.547 117.726 230.843 119.056 230.991 119.796C231.139 120.092 231.139 120.535 231.286 120.831C231.878 123.492 230.547 126.154 228.329 127.337C226.998 128.076 226.555 128.668 226.555 128.816L225.668 130.442L224.78 128.816C224.78 128.816 223.893 127.337 221.527 126.154C221.084 126.45 220.196 127.781 220.492 131.034C220.492 135.47 221.823 138.131 222.414 138.871Z" fill="#171753"/>
<path d="M225.667 141.976C224.632 140.202 224.484 137.392 224.484 137.392L226.554 137.244C226.554 137.244 226.702 139.61 227.589 141.089L225.667 141.976Z" fill="#171753"/>
<path d="M225.964 130.738H223.894C223.894 128.224 224.337 127.78 224.485 127.485L226.112 128.668C226.112 128.963 225.964 129.85 225.964 130.738Z" fill="#171753"/>
<path d="M241.786 140.646L235.575 137.097C234.54 136.505 233.801 135.027 233.801 133.696C233.801 132.365 234.54 131.774 235.575 132.365L241.786 135.914C242.821 136.505 243.56 137.984 243.56 139.315C243.56 140.646 242.673 141.237 241.786 140.646Z" fill="white"/>
<path d="M242.525 141.977C242.081 141.977 241.637 141.829 241.342 141.681L235.131 138.132C233.8 137.393 232.765 135.47 232.765 133.844C232.765 132.809 233.209 131.922 233.948 131.478C234.54 131.034 235.427 131.182 236.166 131.626L242.377 135.175C243.707 135.914 244.743 137.836 244.743 139.463C244.743 140.498 244.299 141.385 243.56 141.829C243.116 141.829 242.82 141.977 242.525 141.977ZM242.229 139.759C242.377 139.759 242.377 139.759 242.377 139.906C242.377 139.906 242.377 139.759 242.377 139.315C242.377 138.28 241.637 137.097 241.046 136.801L234.835 133.252C234.688 133.252 234.688 133.252 234.688 133.105C234.688 133.105 234.688 133.252 234.688 133.696C234.688 134.731 235.427 135.914 236.018 136.21L242.229 139.759Z" fill="#171753"/>
<path d="M241.341 144.341L235.87 141.236C235.131 140.792 234.392 139.462 234.392 138.427C234.392 137.391 234.983 136.8 235.87 137.391L241.341 140.497C242.081 140.94 242.82 142.271 242.82 143.306C242.82 144.341 242.081 144.785 241.341 144.341Z" fill="white"/>
<path d="M241.933 145.524C241.638 145.524 241.194 145.376 240.898 145.228L235.427 142.123C234.244 141.532 233.505 139.905 233.505 138.426C233.505 137.539 233.948 136.652 234.54 136.356C235.131 136.061 235.871 136.061 236.462 136.504L241.933 139.609C243.116 140.201 243.856 141.827 243.856 143.306C243.856 144.193 243.412 145.08 242.82 145.376C242.525 145.524 242.229 145.524 241.933 145.524ZM235.427 138.279V138.426C235.427 139.166 235.871 140.053 236.314 140.349L241.638 143.454V143.306C241.638 142.567 241.194 141.679 240.75 141.384L235.427 138.279Z" fill="#171753"/>
<path d="M240.749 147.891L236.018 145.081C235.278 144.638 234.539 143.307 234.539 142.272C234.539 141.237 235.13 140.645 236.018 141.237L240.749 144.046C241.489 144.49 242.228 145.821 242.228 146.856C242.228 147.891 241.489 148.335 240.749 147.891Z" fill="white"/>
<path d="M241.341 149.073C241.046 149.073 240.602 148.926 240.306 148.778L235.575 145.968C234.392 145.377 233.652 143.75 233.652 142.272C233.652 141.384 234.096 140.497 234.687 140.201C235.279 139.906 236.018 139.906 236.61 140.349L241.341 143.159C242.524 143.75 243.264 145.377 243.264 146.855C243.264 147.743 242.82 148.63 242.229 148.926C241.933 149.073 241.637 149.073 241.341 149.073ZM235.427 142.124V142.272C235.427 143.011 235.87 143.898 236.314 144.194L241.046 146.855V146.708C241.046 145.968 240.602 145.081 240.158 144.785L235.427 142.124Z" fill="#171753"/>
<path d="M239.862 151.291L236.461 149.369C235.721 148.925 234.982 147.594 234.982 146.559C234.982 145.524 235.573 144.933 236.461 145.524L239.862 147.446C240.601 147.89 241.34 149.221 241.34 150.256C241.34 151.291 240.749 151.734 239.862 151.291Z" fill="white"/>
<path d="M240.454 152.473C240.158 152.473 239.714 152.325 239.419 152.178L236.018 150.255C234.835 149.664 234.095 148.037 234.095 146.559C234.095 145.672 234.539 144.784 235.131 144.489C235.722 144.193 236.461 144.193 237.053 144.636L240.454 146.559C241.637 147.15 242.376 148.777 242.376 150.255C242.376 151.143 241.932 152.03 241.341 152.325C241.045 152.473 240.749 152.473 240.454 152.473ZM236.018 146.411V146.559C236.018 147.298 236.461 148.185 236.905 148.481L240.158 150.403V150.255C240.158 149.516 239.714 148.629 239.271 148.333L236.018 146.411Z" fill="#171753"/>
<path d="M137.171 78.6389C137.171 78.6389 138.868 78.0736 139.999 77.791C139.999 76.3778 139.434 74.9646 139.151 73.2687C135.473 61.3978 147.92 74.9646 147.92 74.9646L143.677 77.791C143.677 77.791 148.486 88.2488 148.486 104.642L142.262 108.034L138.302 100.402L135.756 85.705L137.171 78.6389Z" fill="#FFE850"/>
<path d="M142.829 108.882L141.98 108.599L141.697 108.316L137.737 100.685L135.474 85.7051L136.605 77.7911L137.171 77.5084C137.171 77.5084 138.302 77.2258 139.434 76.9432C138.868 76.0952 138.585 74.682 138.302 73.5515C137.737 71.2903 137.171 68.7465 138.585 67.8986C141.131 66.4854 146.506 71.8556 148.769 74.3994L149.335 75.2473L144.809 78.0737C145.94 80.6175 149.618 90.2273 149.618 104.642V105.207L149.052 105.49L142.829 108.882ZM139.434 100.12L142.829 106.903L147.92 104.077C147.637 88.2488 143.111 78.0737 143.111 78.0737L142.829 77.5084L146.789 74.682C143.394 71.0077 140.283 68.7465 139.434 69.0292C139.434 69.0292 138.868 69.5945 140 72.9862C140.283 74.3994 140.848 76.0952 141.131 77.5084V78.3564L140.283 78.639C139.434 78.9217 138.585 79.2043 138.02 79.2043L137.171 85.7051L139.434 100.12Z" fill="#171753"/>
<path d="M139.717 83.4438C140.849 87.4008 142.546 95.8801 142.546 107.751L132.079 101.816C132.079 101.25 134.908 89.0967 131.514 77.2257C127.836 65.3547 140.283 79.2042 140.283 79.2042C139.434 80.3348 139.434 82.0306 139.717 83.4438Z" fill="#171753"/>
<path d="M142.546 108.881L141.98 108.599L130.948 102.381V101.815C130.948 101.25 133.776 89.379 130.382 77.7907C129.816 75.5295 129.533 72.7031 130.948 71.8552C133.211 70.7246 138.868 76.0948 141.131 78.6386L141.697 79.2039L141.131 79.4865C140.283 80.6171 140.283 82.0303 140.565 83.4435C141.697 87.4005 143.394 96.1624 143.394 108.033V108.599L142.546 108.881ZM132.928 101.533L141.697 106.62C141.414 95.5971 140 87.6831 138.868 83.7261C138.585 82.3129 138.585 80.6171 139.434 79.2039C135.756 75.5295 132.362 72.9858 131.796 73.551C131.796 73.551 131.23 74.1163 132.362 77.508C135.474 87.9658 133.493 98.9888 132.928 101.533Z" fill="#171753"/>
<path d="M122.178 67.3332C122.178 63.0936 125.29 57.7234 128.967 55.7449C130.664 54.897 132.079 54.6143 133.493 55.1796C133.493 55.1796 137.736 56.8754 142.262 62.2456C146.788 67.6158 150.748 69.5943 150.748 69.5943L146.505 78.9215C146.505 78.9215 140.282 76.3777 134.625 75.5298C128.118 74.9645 124.158 71.5728 124.158 71.5728H123.875C122.744 70.7249 122.178 69.3117 122.178 67.3332Z" fill="#FFE850"/>
<path d="M146.788 80.0522L145.94 79.7696C145.94 79.7696 139.999 77.2258 134.342 76.6605C127.836 75.8126 123.592 72.4209 123.592 72.1382C121.895 71.2903 121.329 69.5944 121.329 67.3333C121.329 62.811 124.441 57.1582 128.401 54.8971C130.099 53.7665 131.796 53.4839 132.927 53.7665L133.493 54.0491C133.776 54.0491 138.019 55.745 142.545 61.1152C147.071 66.2027 150.749 68.4639 150.749 68.4639L151.314 68.7465L146.788 80.0522ZM132.079 55.4623C131.23 55.4623 130.382 55.745 129.533 56.3103C125.855 58.2888 123.027 63.0937 123.027 67.3333C123.027 69.5944 123.875 70.4424 124.441 70.725C124.441 70.725 128.401 74.1167 134.625 74.682C139.434 75.2473 144.242 76.9431 145.94 77.7911L149.617 69.5944C148.203 68.7465 145.091 66.4854 141.414 62.5284C137.736 58.0061 134.342 56.3103 133.493 55.745H133.21C132.645 55.4623 132.362 55.4623 132.079 55.4623Z" fill="#171753"/>
<path d="M129.533 59.9843C129.533 59.9843 127.836 58.8537 126.987 57.1578C127.836 56.5926 128.402 56.0273 129.25 55.7446C130.948 54.8967 132.362 54.6141 133.777 55.1793C133.777 55.1793 136.605 56.3099 140.283 59.9843L140 61.3975C140 61.3975 136.04 62.8107 134.342 62.8107C132.928 62.8107 129.533 59.9843 129.533 59.9843Z" fill="#ECFFFE"/>
<path d="M134.342 63.6582C132.645 63.6582 129.816 61.3971 128.967 60.5491C128.685 60.5491 126.987 59.1359 126.422 57.4401L126.139 56.8748L126.704 56.5922C127.27 56.0269 128.119 55.4616 128.685 54.8963C130.382 54.0484 131.796 53.7657 133.211 54.0484L134.059 54.331C134.059 54.331 137.171 55.4616 140.848 59.1359L141.131 59.4186L140.565 61.9623H140.283C139.717 62.245 136.039 63.6582 134.342 63.6582ZM128.119 57.1574C128.967 58.5706 130.099 59.1359 130.099 59.4186C131.513 60.8318 133.494 61.9623 134.059 61.9623C135.191 61.9623 137.737 61.1144 138.868 60.5491V59.9839C136.322 57.4401 134.059 56.3095 133.211 56.0269H132.928C132.362 55.4616 130.948 55.4616 129.533 56.3095C129.25 56.5922 128.685 56.8748 128.119 57.1574Z" fill="#171753"/>
<path d="M126.987 63.3763C127.27 63.3763 127.27 63.3763 126.987 63.3763C126.987 63.659 127.553 67.616 128.118 68.7465C128.684 70.1597 128.118 71.2903 127.836 72.1382C127.836 72.4209 127.553 72.7035 126.987 73.2688C125.007 72.4209 124.158 71.5729 124.158 71.5729H123.875C122.744 70.725 122.178 69.3118 122.178 67.0507C122.178 64.7895 123.027 62.2458 124.441 59.9846C124.441 62.2458 126.987 63.3763 126.987 63.3763Z" fill="#171753"/>
<path d="M127.27 74.3994L126.704 74.1167C124.724 72.9862 123.592 72.1382 123.592 72.1382C121.895 71.0077 121.329 69.5945 121.329 67.0507C121.329 64.7896 122.178 62.2458 123.592 59.702L123.875 59.1367L125.289 59.4194V59.9846C125.289 61.3979 127.553 62.2458 127.553 62.5284L127.835 62.8111V63.3763C128.118 64.5069 128.684 67.616 128.967 68.7465C129.533 70.1598 128.967 71.8556 128.684 72.7035C128.684 72.9862 128.401 73.2688 127.835 74.1167L127.27 74.3994ZM124.158 62.2458C123.592 63.9416 123.026 65.6375 123.026 67.0507C123.026 69.3118 123.875 70.1598 124.441 70.4424V70.725C124.441 70.725 125.289 71.573 126.704 72.1382C126.987 72.1382 126.987 72.1382 126.987 72.1382C127.27 71.2903 127.553 70.1598 127.27 69.3118C126.987 67.8986 126.421 65.0722 126.421 63.9416C125.855 63.659 125.007 63.0937 124.158 62.2458Z" fill="#171753"/>
<path d="M125.29 70.4429C125.29 65.3554 128.967 59.1372 133.21 56.5935C135.191 55.4629 137.171 55.1803 138.302 56.0282C138.302 56.0282 143.111 58.0067 148.769 64.2248C154.143 70.4429 158.952 72.9867 158.952 72.9867L153.86 84.2924C153.86 84.2924 146.506 81.1833 139.717 80.3354C132.079 79.4875 127.553 75.5305 127.553 75.5305L127.27 75.2478C125.856 74.3999 125.29 72.9867 125.29 70.4429Z" fill="#FFE850"/>
<path d="M154.143 85.4232L153.295 85.1405C153.295 85.1405 146.223 82.0315 139.434 81.1835C131.796 80.3356 126.987 76.3786 126.987 76.096H126.704C125.29 75.2481 124.441 73.2696 124.441 70.4431C124.441 65.073 128.119 58.5722 132.928 56.0284C134.908 54.8978 136.605 54.6152 138.019 54.8978L138.868 55.1805C139.151 55.1805 143.96 57.159 149.617 63.6597C154.992 69.8779 159.518 72.139 159.518 72.139L160.084 72.4216L154.143 85.4232ZM136.888 56.3111C136.039 56.3111 134.908 56.5937 133.776 57.159C129.533 59.7028 126.139 65.6382 126.139 70.4431C126.139 73.2696 126.987 74.1175 127.836 74.6828L128.119 74.9654C128.119 74.9654 132.645 78.9224 140 79.7703C145.657 80.3356 151.315 82.5968 153.578 83.4447L158.104 73.5522C156.689 72.7043 152.729 69.8779 148.486 65.073C144.243 59.9854 140 57.7243 138.868 57.159L138.019 56.5937C137.737 56.5937 137.171 56.3111 136.888 56.3111Z" fill="#171753"/>
<path d="M133.21 56.5935C135.19 55.4629 137.17 55.1803 138.302 56.0282C138.302 56.0282 143.111 58.0067 148.768 64.2248C151.314 67.3339 153.86 69.3124 155.557 70.7256V71.8561C155.557 71.8561 154.991 72.9867 153.294 72.9867C151.88 73.2693 148.202 70.7256 148.202 70.7256C148.202 70.7256 142.262 67.8991 136.322 64.2248C130.664 60.5504 130.098 59.4199 130.098 59.4199C130.947 58.2893 132.078 57.4414 133.21 56.5935Z" fill="#ECFFFE"/>
<path d="M153.577 73.8349C151.597 73.8349 148.202 71.5737 147.919 71.5737C147.919 71.5737 141.979 68.7473 136.039 65.073C130.381 61.6812 129.533 60.268 129.25 59.7028L128.967 59.1375L129.25 58.5722C130.381 57.4416 131.513 56.5937 132.644 56.0284C134.624 54.8978 136.322 54.6152 137.736 54.8978L138.585 55.1805C138.867 55.1805 143.676 57.159 149.334 63.6597C151.597 66.2035 153.86 68.4647 156.123 70.1605L156.406 70.4432L156.689 72.139V72.4216C156.406 72.7043 155.274 73.8349 153.577 73.8349ZM131.23 59.4201C131.796 59.9854 133.493 61.3986 136.887 63.6597C142.545 67.3341 148.485 70.1605 148.485 70.1605C149.9 71.0084 152.446 72.4216 153.294 72.4216C154.143 72.4216 154.426 72.139 154.709 71.8564V71.2911C152.446 69.3126 150.182 67.0514 148.202 64.7903C143.959 59.7028 139.716 57.4416 138.585 56.8763L138.019 56.5937C136.887 56.0284 135.19 56.3111 133.493 57.159C132.644 58.0069 131.796 58.5722 131.23 59.4201Z" fill="#171753"/>
<path d="M134.625 69.3122C138.302 71.2907 145.657 74.3997 145.657 74.3997C145.657 74.3997 148.203 75.2477 149.052 75.5303C149.9 76.0956 149.335 79.2047 149.335 79.2047C149.335 79.2047 149.335 80.9005 149.052 82.3137C146.506 81.7484 143.111 80.6179 139.717 80.3352C132.079 79.4873 127.553 75.5303 127.553 75.5303L127.27 75.2477C125.856 74.3997 125.29 72.9865 125.29 70.4428C125.29 68.1816 126.139 65.6378 127.27 63.3767C127.27 65.0726 130.948 67.0511 134.625 69.3122Z" fill="#171753"/>
<path d="M149.335 83.4441H149.052C145.657 82.3135 142.545 81.7482 140 81.4656C131.796 80.335 126.987 76.378 126.987 76.0954H126.704C125.29 75.2475 124.441 73.269 124.441 70.4425C124.441 68.1814 125.007 65.6376 126.422 63.0938L126.704 62.5286L128.119 62.8112V63.3765C128.119 64.7897 132.362 67.0508 134.908 68.464C138.585 70.4425 145.657 73.5516 145.94 73.8342C146.789 74.1169 148.486 74.6822 149.335 74.9648C150.749 75.5301 150.466 78.0739 150.183 79.4871C150.183 79.4871 150.183 81.1829 149.9 82.5961V82.8788L149.335 83.4441ZM127.27 65.355C126.422 67.0508 126.139 68.7467 126.139 70.4425C126.139 73.269 126.987 74.1169 127.836 74.6822L128.119 74.9648C128.119 74.9648 132.645 78.9218 140 79.7697C142.545 80.0524 145.374 80.6176 148.486 81.7482C148.486 80.6176 148.486 79.7697 148.486 79.7697C148.769 78.3565 148.769 77.2259 148.486 76.9433C147.92 76.0954 146.223 75.5301 145.374 75.2475C145.091 74.9648 138.019 71.8557 134.059 69.8773C130.948 68.1814 128.402 66.7682 127.27 65.355Z" fill="#171753"/>
<path d="M146.505 79.7697C147.071 76.378 148.768 73.2689 151.314 71.0078C154.426 68.1814 157.537 67.3335 159.517 68.464C166.872 72.7036 175.641 70.1599 179.602 68.464C180.733 67.8987 181.865 68.7467 181.865 69.8772C181.865 73.5516 181.865 80.0523 181.865 80.0523C181.582 80.335 182.996 87.1184 182.996 87.1184L160.083 106.338C159.8 106.621 159.234 106.338 159.234 106.055C158.103 93.6192 151.314 88.8142 149.334 87.401C148.485 87.6837 148.485 87.6837 148.485 87.6837L148.202 87.401C146.505 86.2705 145.656 83.7267 146.505 79.7697Z" fill="#FFE850"/>
<path d="M159.234 107.751C158.952 107.751 158.952 107.751 158.669 107.751C158.103 107.469 157.82 107.186 157.82 106.621C156.689 94.4671 150.182 89.9448 148.202 88.8143L147.919 88.5316L147.637 88.249C145.656 86.8358 144.808 83.7267 145.656 79.7697C146.505 76.378 148.202 72.9863 150.748 70.4425C153.86 67.3335 157.254 66.4856 159.8 67.8988C166.589 71.8558 174.793 69.5946 179.036 67.8988C179.884 67.6161 180.733 67.6161 181.299 68.1814C181.865 68.7467 182.43 69.312 182.43 70.1599C182.43 78.3565 182.43 80.0524 182.43 80.6177C182.43 81.1829 182.996 84.5746 183.562 87.4011V87.9664L160.083 107.469C159.8 107.469 159.517 107.751 159.234 107.751ZM148.768 86.8358C148.768 86.8358 149.051 86.8358 148.768 86.8358C151.314 88.249 158.103 93.3365 159.517 105.49L181.582 87.1184C180.45 80.6177 180.733 80.335 180.733 80.0524C180.733 80.0524 180.733 78.9218 180.733 70.1599C180.733 69.8773 180.733 69.5946 180.45 69.5946C180.167 69.5946 179.884 69.312 179.884 69.5946C175.358 71.2905 166.589 73.8343 159.234 69.5946C157.537 68.4641 154.708 69.312 152.163 71.8558C149.9 74.1169 148.202 76.9433 147.354 80.335C146.788 83.4441 147.071 85.9879 148.768 86.8358Z" fill="#171753"/>
<path d="M151.597 71.008C154.708 68.1816 157.82 67.3337 159.8 68.4643C167.155 72.7039 175.924 70.1601 179.884 68.4643C181.016 67.899 182.147 68.7469 182.147 69.8775C182.147 73.5518 182.147 80.0526 182.147 80.0526C182.147 80.3352 182.996 86.5534 183.279 87.1186C176.773 90.5103 172.53 90.5103 172.53 90.5103L171.398 88.2492L164.892 83.1616C164.892 83.1616 162.063 80.0526 157.537 77.5088C153.294 74.965 151.597 72.9865 151.031 71.5733C150.748 71.856 151.314 71.2907 151.597 71.008Z" fill="#ECFFFE"/>
<path d="M171.682 91.9235L170.267 89.3797L163.761 84.2922C163.761 84.2922 160.932 81.1831 156.689 78.6393C153.012 76.3782 150.749 74.3997 149.9 72.4212L149.617 71.8559L149.9 71.2906C150.183 71.008 150.466 70.4427 151.032 70.1601C154.143 67.051 157.538 66.2031 160.084 67.6163C166.873 71.5733 175.076 69.3122 179.319 67.6163C180.168 67.3337 181.016 67.3337 181.582 67.8989C182.148 68.4642 182.714 69.0295 182.714 69.8774C182.714 78.0741 182.714 79.7699 182.714 80.3352C182.714 80.9005 183.279 84.2922 183.845 87.1186V87.6839L183.279 87.9665C176.49 91.6409 172.53 91.6409 172.247 91.6409L171.682 91.9235ZM151.597 72.1386C152.446 73.8344 154.709 75.5303 157.538 77.2261C162.064 80.0525 164.893 82.879 164.893 82.879L171.682 88.2492L172.53 89.945C173.662 89.945 177.056 89.3797 181.865 86.836C180.734 80.6178 180.734 80.3352 181.016 80.0525C181.016 79.7699 181.016 76.9435 181.016 70.1601C181.016 69.8774 181.016 69.5948 180.734 69.5948C180.451 69.5948 180.168 69.3122 180.168 69.5948C175.642 71.2906 166.873 73.8344 159.518 69.5948C157.821 68.4642 154.992 69.3122 152.446 71.8559C151.88 71.8559 151.88 72.1386 151.597 72.1386Z" fill="#171753"/>
<path d="M148.769 87.6839C148.486 87.6839 148.486 87.6839 148.486 87.6839L148.203 87.4013C146.505 86.2707 145.657 83.7269 146.505 79.7699C146.788 78.922 147.071 77.7915 147.354 76.6609C147.354 76.6609 147.354 76.6609 147.637 76.6609C147.92 78.0741 148.769 78.922 153.577 82.0311C158.669 85.1401 160.932 89.3798 161.215 89.6624L166.59 91.9236C166.59 92.4888 165.741 95.3153 165.741 95.8805C165.741 96.4458 162.347 102.381 160.366 105.49L159.801 106.056C159.518 106.338 158.952 106.056 158.669 105.773C157.538 93.902 150.749 88.8145 148.769 87.6839Z" fill="#171753"/>
<path d="M159.235 107.469C158.952 107.469 158.952 107.469 158.669 107.469C158.103 107.186 157.821 106.903 157.821 106.338C156.689 94.4671 150.466 89.9448 148.486 88.5316C148.203 88.5316 148.203 88.249 148.203 88.249L147.92 87.9664C145.94 86.5531 145.091 83.4441 145.94 79.4871C145.94 78.6392 146.223 77.5086 146.506 76.378L146.788 75.8127L148.203 76.0954V76.9433C148.203 77.7912 149.051 78.9218 153.577 81.7482C158.103 84.5746 160.649 88.5316 161.215 89.6622L166.873 91.9233V92.7713C166.307 94.7498 166.024 96.163 166.024 96.7283C166.024 97.0109 166.024 97.5762 160.649 106.903L160.932 106.621L160.366 107.186C160.084 107.469 159.518 107.469 159.235 107.469ZM148.769 86.8358C148.769 86.8358 149.051 86.8358 148.769 86.8358L149.051 87.1184C151.032 88.249 158.103 93.3365 159.235 105.773H159.518C164.044 97.8588 164.61 96.7283 164.61 96.4456C164.61 95.8803 164.893 94.1845 165.175 92.7713L160.366 90.5101L160.084 90.2275C160.084 89.9448 157.538 85.9879 152.729 82.8788C149.9 80.9003 148.203 79.7697 147.354 78.9218C147.354 79.2044 147.071 79.7697 147.071 80.0524C146.506 83.1614 146.788 85.7052 148.486 86.5531L148.769 86.8358Z" fill="#171753"/>
<path d="M158.388 102.946C158.388 90.5098 167.157 75.5298 177.623 69.5943C182.715 66.4852 187.524 66.2026 190.918 68.1811C190.918 68.1811 191.201 68.1811 191.201 68.4637L195.727 70.7248L195.161 72.1381C196.293 74.3992 197.142 77.2256 197.142 80.9C197.142 93.3362 188.372 108.316 177.906 114.252C174.794 115.948 171.966 116.795 169.42 116.795L168.571 117.926L163.762 115.382C160.368 113.121 158.388 108.882 158.388 102.946Z" fill="#FFE850"/>
<path d="M168.571 119.056L163.479 115.947C159.802 113.686 157.539 108.881 157.539 102.946C157.539 90.5094 166.308 74.9641 177.34 68.746C182.432 65.9195 187.241 65.3543 190.918 67.0501L196.858 70.4418L196.01 72.1377C197.141 74.3988 197.99 77.5079 197.99 80.8996C197.99 93.3358 189.221 108.881 178.189 115.099C175.36 116.795 172.531 117.643 169.702 117.926L168.571 119.056ZM186.392 67.6154C183.846 67.6154 181.017 68.4633 178.189 70.1592C167.722 76.0947 159.236 90.792 159.236 102.946C159.236 108.316 160.933 112.555 164.328 114.534L168.288 116.795L169.137 115.947H169.419C171.965 115.947 174.511 115.099 177.34 113.403C187.806 107.468 196.293 92.7705 196.293 80.6169C196.293 77.2252 195.727 74.6814 194.595 72.4203L194.312 72.1377L194.878 71.0071L190.918 68.746C189.504 67.898 187.806 67.6154 186.392 67.6154Z" fill="#171753"/>
<path d="M168.57 85.9875L164.327 83.7264C167.721 77.7909 172.53 72.4207 177.905 69.5943C182.997 66.4852 187.805 66.2026 191.2 68.1811C191.2 68.1811 191.483 68.1811 191.483 68.4637L195.443 70.7248V71.0075L194.877 72.1381C196.009 74.3992 196.858 77.2256 196.858 80.9C196.858 86.2702 195.16 92.2056 192.614 97.5758C190.351 98.7064 188.088 99.5543 186.674 99.5543C181.582 100.12 177.905 97.8585 177.905 97.8585L168.57 85.9875Z" fill="#ECFFFE"/>
<path d="M185.26 100.12C180.733 100.12 177.622 98.1413 177.622 98.1413L177.339 97.8587L168.004 86.553L163.195 83.7266L163.761 82.8786C167.438 76.3779 172.53 71.2903 177.622 68.1813C182.714 65.3548 187.523 64.7896 191.2 66.4854L196.292 69.3118C196.857 69.5945 196.857 70.1598 196.575 70.725L196.292 71.573C197.423 73.8341 197.989 76.9432 197.989 80.3349C197.989 85.7051 196.575 91.6405 193.463 97.2934V97.576H193.18C190.634 98.7066 188.371 99.5545 186.957 99.8372C186.391 100.12 185.825 100.12 185.26 100.12ZM178.47 96.7281C179.036 97.0107 182.431 98.7066 186.674 98.424C188.088 98.424 189.786 97.576 192.049 96.4455C194.594 91.0753 196.292 85.4224 196.292 80.6175C196.292 77.2258 195.726 74.682 194.594 72.4209L194.312 72.1383L194.877 71.0077L190.917 68.7465C187.523 67.0507 182.997 67.616 178.47 70.1598C173.662 72.9862 169.136 77.5084 165.741 83.4439L169.418 85.7051L178.47 96.7281Z" fill="#171753"/>
<path d="M158.388 102.946C158.388 98.7065 159.236 94.4669 161.216 89.9446L165.459 92.2057L180.169 97.8586C180.169 97.8586 183.846 100.12 184.695 100.685C184.978 100.968 185.261 104.077 185.544 107.751C183.281 110.295 180.452 112.556 177.623 114.252C174.511 115.948 171.683 116.796 169.137 116.796L168.288 117.926L163.762 115.382C160.368 113.121 158.388 108.882 158.388 102.946Z" fill="#171753"/>
<path d="M168.571 119.057L163.479 115.948C159.802 113.687 157.539 108.882 157.539 102.946C157.539 98.7067 158.387 94.1844 160.367 89.6621L160.65 88.8142L165.742 91.6406L180.452 97.0108C180.734 97.2935 184.412 99.272 184.978 99.8372C185.26 100.12 185.826 100.403 186.392 107.469V107.751L186.109 108.034C183.563 110.86 180.734 113.121 178.189 114.535C175.36 116.23 172.531 117.078 169.702 117.361L168.571 119.057ZM161.499 91.0753C160.084 95.0323 159.236 99.272 159.236 102.664C159.236 108.034 160.933 112.273 164.328 114.252L168.288 116.513L169.137 115.665H169.419C171.965 115.665 174.511 114.817 177.34 113.121C179.886 111.708 182.432 109.73 184.695 107.186C184.412 102.664 184.129 101.533 183.846 100.968C182.997 100.403 180.452 98.9893 179.603 98.424L164.893 93.0538L161.499 91.0753Z" fill="#171753"/>
<path d="M195.632 102.159C203.209 89.0468 203.21 74.8737 195.633 70.503C188.057 66.1322 175.773 73.2189 168.196 86.3315C160.619 99.4441 160.618 113.617 168.194 117.988C175.771 122.359 188.055 115.272 195.632 102.159Z" fill="#FFE850"/>
<path d="M173.378 119.904C171.398 119.904 169.418 119.339 168.003 118.491C164.043 116.23 161.78 111.425 161.78 105.207C161.78 92.7708 170.549 77.2255 181.582 71.0074C186.956 67.8983 192.048 67.6157 196.008 69.8768C199.969 72.1379 202.232 76.9428 202.232 83.161C202.232 95.5972 193.462 111.143 182.43 117.361C179.319 119.056 176.207 119.904 173.378 119.904ZM190.634 70.1594C188.088 70.1594 185.259 71.0074 182.43 72.7032C171.964 78.6387 163.477 93.3361 163.477 105.49C163.477 111.143 165.458 115.382 168.852 117.361C172.247 119.339 176.773 118.774 181.582 115.947C192.048 109.729 200.534 95.0319 200.534 82.8783C200.534 77.2255 198.554 72.9859 195.16 71.0074C193.745 70.4421 192.331 70.1594 190.634 70.1594Z" fill="#171753"/>
<path d="M168.004 102.664C167.721 112.274 174.227 116.231 182.148 111.426C190.068 106.903 196.857 95.3152 196.857 85.7053C197.14 76.0955 190.634 72.1385 182.713 76.9434C174.793 81.7484 168.004 93.054 168.004 102.664Z" fill="#FFE850"/>
<path d="M175.925 114.252C174.511 114.252 173.096 113.97 171.682 113.122C168.57 111.426 166.873 107.469 167.156 102.664C167.439 92.7715 174.228 81.1832 182.431 76.3783C186.391 74.1172 190.352 73.5519 193.463 75.5304C196.575 77.2262 198.272 81.1832 197.989 85.9881C197.706 95.8806 190.917 107.469 182.714 112.274C180.168 113.404 177.905 114.252 175.925 114.252ZM168.853 102.664C168.853 107.186 169.985 110.295 172.53 111.709C174.793 113.122 178.188 112.839 181.582 110.861C189.503 106.338 195.726 95.3153 196.009 85.9881C196.009 81.4659 194.878 78.3568 192.332 76.9436C190.069 75.5304 186.674 75.813 183.28 77.7915C175.359 82.0311 168.853 93.3368 168.853 102.664Z" fill="#171753"/>
<path d="M182.713 76.9432C185.825 75.2474 188.654 74.6821 190.917 75.2474C193.18 76.9432 194.594 80.3349 194.594 84.8572C194.311 94.467 187.805 105.773 179.885 110.578C176.773 112.273 173.944 112.839 171.681 112.273C169.418 110.578 168.004 107.186 168.004 102.664C168.004 93.0538 174.793 81.4655 182.713 76.9432Z" fill="#FFE850"/>
<path d="M173.379 113.121C172.813 113.121 171.964 113.121 171.398 112.839H171.116C168.287 110.86 166.872 107.186 167.155 102.664C167.438 92.7711 174.227 81.1828 182.431 76.3779C185.542 74.682 188.654 73.8341 191.2 74.682H191.483C194.311 76.6605 195.726 80.3349 195.443 84.8571C195.16 94.7496 188.371 106.338 180.168 111.143C177.905 112.556 175.642 113.121 173.379 113.121ZM171.964 111.143C174.227 111.708 176.49 111.143 179.319 109.447C187.239 104.925 193.463 93.9017 193.746 84.5745C193.746 80.6175 192.614 77.5084 190.634 75.8126C188.371 75.2473 186.108 75.8126 183.279 77.5084C175.359 82.0307 169.135 93.0537 168.852 102.381C168.57 106.621 169.701 109.73 171.964 111.143Z" fill="#171753"/>
<path d="M170.55 91.6406C173.096 85.4225 177.622 79.7697 182.714 76.9432C185.826 75.2474 188.654 74.6821 190.917 75.2474C193.18 76.9432 194.595 80.3349 194.595 84.8572C194.595 91.6406 191.2 98.9893 186.391 104.642C186.391 104.36 185.826 91.358 170.55 91.6406Z" fill="#171753"/>
<path d="M185.543 106.903V104.642C185.543 104.077 184.977 92.7711 170.833 92.7711C170.55 92.7711 170.55 92.7711 170.267 92.7711H168.853L169.419 91.6405C172.248 85.1398 177.056 79.4869 182.148 76.3779C185.26 74.682 188.371 73.8341 190.917 74.682H191.2C194.029 76.6605 195.443 80.3349 195.161 84.8571C195.161 91.6405 191.766 99.2719 186.957 105.207L185.543 106.903ZM171.682 90.7926C182.997 91.0752 186.108 98.7066 186.957 102.381C190.917 97.0107 193.463 90.2273 193.746 84.5745C193.746 80.6175 192.615 77.5084 190.635 75.8126C188.371 75.2473 186.108 75.8126 183.28 77.5084C178.754 80.3348 174.511 85.1398 171.682 90.7926Z" fill="#171753"/>
<path d="M183.279 89.9446L179.036 97.2933L169.984 93.0537C171.399 89.662 173.379 86.2703 175.642 83.4438L183.279 89.9446Z" fill="#FFE850"/>
<path d="M179.602 98.4238L168.853 93.3362L169.136 92.4883C170.55 88.8139 172.53 85.4222 174.793 82.5958L175.359 82.0305L184.411 89.6619L179.602 98.4238ZM171.116 92.4883L178.754 96.1626L182.148 90.2271L175.359 84.5743C173.945 86.8354 172.248 89.6619 171.116 92.4883Z" fill="#171753"/>
<path d="M179.036 97.2933L169.984 93.0537C170.55 91.3578 171.399 89.9446 172.247 88.2488L179.036 92.4884L180.168 93.0537L181.299 93.3363L179.036 97.2933Z" fill="#171753"/>
<path d="M179.602 98.4243L168.853 93.3367L169.136 92.4888C169.702 90.7929 170.55 89.0971 171.399 87.6839L171.965 86.8359L180.734 92.2061L182.714 93.0541L179.602 98.4243ZM171.116 92.4888L178.754 96.1631L180.168 93.902H179.885L178.754 93.3367L172.53 89.3797C171.965 90.5103 171.399 91.3582 171.116 92.4888Z" fill="#171753"/>
<path d="M178.188 95.3146C178.188 93.3361 179.602 91.075 181.299 90.2271C182.148 89.6618 182.714 89.6618 183.279 89.9444C183.562 90.2271 183.845 90.2271 183.845 90.7924C184.694 92.2056 184.128 94.4667 184.128 94.4667H183.562C184.128 94.4667 182.997 96.4452 182.997 96.4452C181.582 97.5758 180.451 97.8584 179.885 97.8584C179.602 97.8584 179.319 97.8584 179.036 97.5758C178.471 96.7279 178.188 96.1626 178.188 95.3146Z" fill="#ECFFFE"/>
<path d="M180.167 98.4237C179.885 98.4237 179.885 98.4237 179.885 98.4237C179.319 98.4237 179.036 98.1411 178.47 97.8584L178.187 97.5758C177.904 97.2932 177.339 96.4452 177.339 95.3147C177.339 93.0535 178.753 90.5098 180.733 89.3792C181.582 88.8139 182.713 88.8139 183.562 89.0965C183.845 89.3792 184.411 89.6618 184.411 90.2271C185.542 91.923 184.976 94.1841 184.694 94.4667L184.411 95.032H183.845C183.845 95.3147 183.562 95.88 182.996 96.7279L183.562 97.0105C182.43 97.8584 181.299 98.4237 180.167 98.4237ZM182.43 90.5098C182.148 90.5098 181.865 90.5098 181.582 90.7924C180.167 91.6403 179.036 93.6188 179.036 95.3147C179.036 95.88 179.036 96.1626 179.319 96.4452L179.602 96.7279C180.167 96.7279 181.016 96.7279 182.148 95.5973C182.148 95.3147 182.43 95.3147 182.43 95.032H181.865L182.713 93.6188L183.562 93.3362C183.562 92.7709 183.562 91.6403 183.279 91.075C183.279 90.7924 182.996 90.7924 182.996 90.7924L182.43 90.5098C182.713 90.5098 182.713 90.5098 182.43 90.5098Z" fill="#171753"/>
<path d="M181.582 95.598C181.582 96.4459 182.147 97.0112 182.996 96.4459C183.845 95.8806 184.41 94.7501 184.41 93.9021C184.41 93.0542 183.845 92.4889 182.996 93.0542C182.147 93.3368 181.582 94.7501 181.582 95.598Z" fill="#ECFFFE"/>
<path d="M182.43 97.5766C182.148 97.5766 181.865 97.5766 181.582 97.2939C181.016 97.0113 180.733 96.446 180.733 95.5981C180.733 94.1849 181.582 92.7717 182.713 92.2064C183.279 91.9237 184.128 91.9237 184.693 92.2064C185.259 92.489 185.542 93.0543 185.542 93.9022C185.542 95.3154 184.693 96.7286 183.562 97.2939C182.996 97.2939 182.713 97.5766 182.43 97.5766ZM183.562 93.6196C182.996 93.9022 182.43 95.0328 182.43 95.5981V95.8807C182.43 95.8807 182.43 95.8807 182.713 95.8807C183.279 95.3154 183.562 94.4675 183.562 93.6196C183.562 93.9022 183.562 93.6196 183.562 93.6196Z" fill="#171753"/>
<path d="M132.078 86.2702C132.078 80.9 130.664 78.6389 130.381 78.3562C125.855 76.6604 124.723 73.8339 124.44 72.7034L123.309 72.1381C121.046 70.4422 121.329 67.3332 121.329 67.0505L123.026 67.3332C123.026 67.3332 122.743 69.5943 124.44 70.7249L126.138 71.8555V72.1381C126.138 72.1381 126.703 74.9645 131.23 76.6604L131.512 76.943C131.512 77.2256 133.775 79.2041 133.775 86.2702H132.078Z" fill="#FFE850"/>
<path d="M139.716 81.1827C134.907 80.3347 129.815 78.0736 129.532 78.0736L130.381 76.6604C130.381 76.6604 135.473 78.9215 139.999 79.7695L139.716 81.1827Z" fill="#FFE850"/>
<path d="M105.496 19.8661L74.4444 1.97427C72.67 0.939208 71.0435 0.791342 69.8605 1.38281L59.6578 7.74106V7.88892C60.1014 8.77612 64.3895 17.6481 64.6852 19.2746C64.8331 20.014 66.1639 26.6679 67.6426 34.5049V38.4972C67.6426 40.7152 68.3819 43.229 69.7127 45.2991C71.3392 53.4317 72.67 60.5293 72.67 60.6772L77.2539 71.4714C77.2539 71.4714 77.4017 71.6193 77.4017 71.4714L87.9002 65.4089V65.261L87.1609 63.043C87.013 62.008 86.8652 60.8251 86.7173 59.6421L100.173 74.5766H100.321L110.08 68.5141C110.08 68.5141 110.228 68.5141 110.228 68.3662C111.411 67.6269 112.15 66.1482 112.15 64.0781V31.5475C112.298 27.4073 109.193 22.0841 105.496 19.8661Z" fill="#FFE850"/>
<path d="M100.468 75.6114C100.173 75.6114 99.8769 75.4636 99.5812 75.1678L88.3433 62.7471C88.3433 62.7471 88.3433 62.7471 88.3433 62.8949L89.0826 64.9651C89.2305 65.4087 89.0826 66.0001 88.639 66.2958L77.6969 72.6541L77.1055 72.5062C76.8097 72.3584 76.514 72.2105 76.3661 71.9148L71.6344 60.8248L68.6771 45.5946C67.3463 43.2287 66.4591 40.715 66.4591 38.3491V34.5046C64.5368 25.0412 63.6496 19.8658 63.5018 19.4222C63.206 18.3872 60.6923 12.9161 58.4743 8.1844C58.1786 7.59293 58.4743 7.00147 58.9179 6.70574L69.7122 0.0517532L70.0079 0.199619C71.4866 -0.243979 73.261 0.0517532 74.8875 1.08682L105.939 18.9786C109.932 21.3445 113.185 26.9634 113.185 31.5473V64.0779C113.185 66.4437 112.298 68.2181 110.819 69.2532L110.671 69.401L101.06 75.4636C100.764 75.6114 100.616 75.6114 100.468 75.6114ZM85.6817 56.8324L100.468 73.3934L109.636 67.7745L110.375 68.5138L109.932 67.6266C110.819 67.0352 111.263 65.8522 111.263 64.2257V31.6951C111.263 27.8506 108.453 22.8232 105.052 20.9009L74.0003 3.00908C72.6695 2.26975 71.3387 1.97401 70.4515 2.41761L60.9881 8.1844C62.3189 11.1417 65.424 17.5 65.7198 18.9786C65.8676 19.5701 66.7548 24.4497 68.6771 34.3567V34.5046V38.497C68.6771 40.4193 69.4164 42.6372 70.5994 44.7074L70.7472 44.8552V45.0031L73.7046 60.2333L77.8448 69.9925L86.8647 64.8172L86.2732 63.3385C85.9775 62.1556 85.8296 60.8248 85.8296 59.7897L85.6817 56.8324Z" fill="#171753"/>
<path d="M105.495 19.8653L75.4781 2.56494L60.6915 11.7327L92.7785 28.7373L99.2846 29.7723L109.34 23.8577C108.452 22.2312 106.974 20.7525 105.495 19.8653Z" fill="white"/>
<path d="M99.5806 30.9553L92.3351 29.6245L58.7695 11.8806L75.4784 1.38208L106.087 19.126C107.713 20.0132 109.192 21.4919 110.523 23.2663L111.114 24.1535L99.5806 30.9553ZM93.2223 27.8501L99.2849 28.7373L108.009 23.562C107.122 22.3791 106.087 21.4919 104.904 20.9004L75.3305 3.89581L62.7619 11.7327L93.2223 27.8501Z" fill="#171753"/>
<path d="M101.947 35.0966C101.947 35.0966 89.378 38.0539 88.4908 38.3497C87.7515 38.6454 75.4786 48.5524 71.3383 53.1363C72.2255 57.4244 72.817 60.3817 72.817 60.5296L77.4008 71.3239C77.4008 71.3239 77.5487 71.4717 77.5487 71.3239L88.0472 65.2613V65.1135L87.3079 62.8955C87.16 61.8604 87.0121 60.6775 86.8643 59.4946L100.32 74.429H100.468L110.227 68.3665C110.227 68.3665 110.375 68.3665 110.375 68.2187C111.558 67.4793 112.297 66.0007 112.297 63.9305V31.4C112.297 30.6606 112.149 29.7734 112.002 28.8862L101.947 35.0966Z" fill="#171753"/>
<path d="M111.005 33.7802L103.544 38.3027L104.234 39.4408L111.695 34.9183L111.005 33.7802Z" fill="#FFE850"/>
<path d="M110.984 63.803L103.524 68.3247L104.213 69.4628L111.674 64.9411L110.984 63.803Z" fill="#FFE850"/>
<path d="M95.5895 26.0767L64.3897 8.18491C60.693 5.96691 57.7357 7.74131 57.7357 12.0294V44.56C57.7357 48.8481 60.693 54.0235 64.3897 56.2414L67.9385 58.3116C68.5299 58.6073 69.1214 59.4945 69.2693 60.3817C69.7129 62.7476 71.0437 67.9229 76.0711 71.7674C77.1062 72.5067 77.8455 71.9153 77.5498 70.5845C77.254 69.1058 76.8104 67.0357 76.8104 65.1134C76.8104 64.2262 77.4019 63.9305 78.1412 64.3741L95.4416 74.429C99.1382 76.4991 102.096 74.8726 102.096 70.5845V38.0539C102.243 33.47 99.2861 28.2947 95.5895 26.0767Z" fill="#FFE850"/>
<path d="M98.5465 76.2039C97.5115 76.2039 96.1807 75.9081 94.9977 75.1688L77.8453 65.2618C77.8453 67.184 78.2889 68.9584 78.5846 70.2892C78.8803 71.3243 78.5846 72.2115 77.8453 72.803C77.1059 73.2466 76.2187 73.0987 75.4794 72.5072C70.3041 68.6627 68.6775 63.3395 68.2339 60.5301C68.0861 60.0865 67.7903 59.495 67.4946 59.1993L63.9458 57.1291C59.8056 54.7633 56.7004 49.2922 56.7004 44.7084V12.1778C56.7004 9.66406 57.5876 7.88967 59.2141 7.00247C60.8406 6.11527 62.9108 6.26314 64.9809 7.44607L96.0328 25.4858C100.025 27.8516 103.278 33.3227 103.278 38.0544V70.585C103.278 73.0987 102.391 74.8731 100.765 75.7603C100.173 76.056 99.4337 76.2039 98.5465 76.2039ZM77.6974 63.0438C77.9931 63.0438 78.4367 63.1917 78.8803 63.3395L96.1807 73.3944C97.6593 74.2816 98.9901 74.4295 99.8773 73.838C100.765 73.2466 101.356 72.0636 101.356 70.4371V37.9065C101.356 33.9141 98.5465 29.1824 95.1456 27.1123L63.9458 9.0726C62.4672 8.1854 61.1364 8.03753 60.2492 8.629C59.362 9.22046 58.7705 10.4034 58.7705 12.0299V44.5605C58.7705 48.5529 61.58 53.2846 64.9809 55.3547L68.5297 57.4249C69.4169 58.0163 70.1562 59.0514 70.3041 60.0865C70.7477 62.6002 72.0785 67.184 76.5145 70.585C76.0709 68.5148 75.7751 66.5926 75.7751 64.9661C75.7751 64.2267 76.0709 63.4874 76.6623 63.1917C76.9581 63.0438 77.2538 63.0438 77.6974 63.0438Z" fill="#171753"/>
<path d="M89.3789 35.2455C85.3865 29.6266 81.0984 31.8446 80.0634 33.1754C79.0283 30.6617 74.5923 23.4162 70.7478 24.4513C66.6075 25.6342 67.4947 30.5138 69.417 36.2806C71.0435 41.0123 78.289 53.4331 79.9155 56.0947C80.0634 56.3904 80.3591 56.5383 80.507 56.3904C82.4292 55.3554 89.0832 51.5108 90.7097 48.5535C92.632 45.1526 93.5192 41.1602 89.3789 35.2455Z" fill="white"/>
<path d="M80.3586 57.5728C79.915 57.5728 79.3236 57.2771 79.0278 56.6856C76.9577 53.1368 70.1558 41.3075 68.5293 36.7237C66.7549 31.4005 66.3113 27.9995 67.4943 25.9294C68.0857 24.7465 69.1208 24.0072 70.5994 23.5636C74.7397 22.3806 78.88 28.1474 80.5065 31.5483C81.3937 30.9569 82.4287 30.6611 83.7595 30.6611C85.3861 30.6611 87.8998 31.4005 90.2657 34.8014C94.9974 41.6032 93.5187 46.0392 91.5965 49.2923C89.8221 52.3975 83.6117 56.0941 80.9501 57.5728C80.6544 57.5728 80.5065 57.5728 80.3586 57.5728ZM71.4866 25.338C71.3388 25.338 71.1909 25.338 70.8952 25.338C70.008 25.6337 69.4165 26.0773 69.1208 26.6688C68.0857 28.7389 69.2687 32.8791 70.3037 35.8365C71.7824 40.2725 78.5842 51.9539 80.5065 55.0591C84.351 52.8411 88.6391 49.8838 89.8221 47.9615C91.4486 45.152 92.6315 41.4554 88.4913 35.6886C87.0126 33.6185 85.3861 32.4355 83.6117 32.4355C82.133 32.4355 81.098 33.1749 80.8022 33.6185L80.5065 34.0621L79.3236 33.9142L79.0278 33.3227C77.9928 30.9569 74.2961 25.338 71.4866 25.338Z" fill="#171753"/>
<path d="M80.3589 50.9186C80.3589 50.9186 82.5768 49.8835 84.647 48.1091L80.3589 50.9186Z" fill="#FFE850"/>
</svg>
