<svg width="336" height="212" viewBox="0 0 336 212" fill="none" xmlns="http://www.w3.org/2000/svg">
<path d="M331.691 86.7414C329.887 89.2581 327.535 91.335 324.811 92.8165L129.281 205.319C118.715 211.432 102.697 212.069 93.522 206.819L7.90255 157.468C6.27467 156.708 4.86168 155.556 3.79168 154.116C2.72168 152.675 2.02785 150.992 1.77297 149.218C1.2509 145.544 1.41712 141.806 2.26227 138.192L7.97782 138.53C8.77337 137.946 9.60164 137.407 10.4592 136.918L205.989 24.4149C216.593 18.3023 232.573 17.6647 241.748 22.9523L327.368 72.2659L333.873 71.9285C334.561 74.2994 334.759 76.785 334.456 79.2346C334.152 81.6842 333.352 84.0466 332.106 86.1788C331.992 86.3198 331.891 86.4703 331.804 86.6288L331.691 86.7414Z" fill="#171753"/>
<path d="M109.013 211.807C103.368 211.945 97.779 210.655 92.7689 208.057L7.15031 158.706C5.35407 157.834 3.79452 156.544 2.60339 154.945C1.41225 153.346 0.624267 151.484 0.306516 149.518C-0.235624 145.643 -0.0575723 141.702 0.832538 137.892L1.13365 136.767L7.52578 137.105C8.20261 136.617 8.91734 136.167 9.70698 135.68L205.237 23.1773C216.216 16.8771 232.874 16.2021 242.424 21.7147L327.668 70.8034L334.85 70.4283L335.189 71.4409C335.957 74.0086 336.183 76.7073 335.853 79.3666C335.522 82.0258 334.644 84.5879 333.271 86.8912L332.97 87.4163L331.654 86.7789L332.857 87.5662C330.889 90.2911 328.315 92.5245 325.337 94.0913L129.807 206.594C123.429 210.057 116.275 211.851 109.013 211.807ZM3.01374 148.543V149.293C3.26281 150.832 3.88643 152.286 4.83049 153.528C5.77455 154.771 7.00997 155.763 8.42819 156.418L94.0853 205.769C102.809 210.794 118.226 210.119 128.379 204.269L323.908 91.7663C326.438 90.3976 328.624 88.4743 330.3 86.1412L330.601 85.6912C332.752 82.0412 333.463 77.7227 332.594 73.5785L326.84 73.8785L326.465 73.6535L240.845 24.3398C232.084 19.2772 216.705 19.9523 206.514 25.8024L10.9849 138.305C10.165 138.77 9.37432 139.283 8.61638 139.842L6.92448 141.08L6.66101 140.067L3.20193 139.842C2.70009 142.717 2.63652 145.65 3.01374 148.543Z" fill="#171753"/>
<path d="M327.743 63.6784L242.086 14.3273C232.949 9.07718 216.93 9.71455 206.364 15.8272L10.8347 128.33C0.268576 134.442 -0.897743 143.63 8.27711 148.918L93.8966 198.232C103.071 203.519 119.052 202.844 129.656 196.769L325.186 84.2663C335.752 78.1537 336.88 68.9285 327.743 63.6784Z" fill="#5ED9D1"/>
<path d="M109.389 203.257C103.742 203.417 98.1476 202.125 93.145 199.507L7.52551 150.193C5.55874 149.281 3.87654 147.854 2.6582 146.065C1.43987 144.275 0.73158 142.19 0.607361 140.03C0.607361 135.305 4.06589 130.58 10.0822 127.13L205.612 14.627C216.554 8.32689 233.25 7.68955 242.801 13.1647L328.458 62.2907C330.418 63.2174 332.091 64.6537 333.302 66.4487C334.513 68.2437 335.216 70.3309 335.338 72.4909C335.338 77.216 331.916 81.9038 325.9 85.3539L130.37 197.857C123.954 201.416 116.731 203.275 109.389 203.257ZM226.556 12.0022C219.753 11.946 213.049 13.624 207.079 16.8772L11.5492 129.38C6.43532 132.342 3.50186 136.13 3.50186 139.805C3.67778 141.425 4.27799 142.971 5.24149 144.287C6.205 145.604 7.49873 146.644 8.9925 147.305L94.612 196.619C103.373 201.644 118.752 201.006 128.942 195.156L324.472 82.6537C329.585 79.7286 332.518 75.941 332.518 72.2659C332.342 70.6507 331.747 69.1095 330.79 67.7941C329.834 66.4787 328.55 65.4348 327.066 64.7657L241.409 15.4146C236.856 13.1297 231.801 12.0208 226.707 12.1896L226.556 12.0022Z" fill="#171753"/>
<path d="M5.75886 156.943C4.92519 154.051 4.92519 150.984 5.75886 148.093L7.67659 148.693C6.99766 151.147 6.99766 153.739 7.67659 156.193L5.75886 156.943Z" fill="#ECFFFE"/>
<path d="M9.17944 158.93C8.37703 156.035 8.37703 152.976 9.17944 150.08L11.0972 150.718C10.4257 153.173 10.4257 155.763 11.0972 158.218L9.17944 158.93Z" fill="#ECFFFE"/>
<path d="M326.013 92.554L324.058 92.104C324.487 89.8556 324.601 87.5585 324.397 85.2788H325.412H326.39C326.614 87.7093 326.487 90.1594 326.013 92.554Z" fill="#ECFFFE"/>
<path d="M329.811 90.1914L327.856 89.7414C328.29 87.5692 328.391 85.3438 328.157 83.1413L329.172 82.9163H330.15C330.409 85.3444 330.294 87.7977 329.811 90.1914Z" fill="#ECFFFE"/>
<path d="M258.782 127.167C258.608 127.055 258.468 126.898 258.376 126.713C258.283 126.529 258.241 126.323 258.255 126.117C258.293 125.612 258.454 125.122 258.722 124.691C258.99 124.261 259.359 123.9 259.797 123.642L268.069 118.542C268.279 118.417 268.52 118.35 268.765 118.35C269.01 118.35 269.251 118.417 269.461 118.542C269.799 118.542 271.078 119.292 271.078 119.742H269.987C269.943 120.242 269.781 120.723 269.512 121.147C269.244 121.571 268.879 121.925 268.446 122.18L260.061 127.017C259.76 127.017 260.06 127.842 259.797 127.842C259.44 127.646 259.1 127.42 258.782 127.167Z" fill="#5ED9D1"/>
<path d="M259.948 128.855C259.534 128.855 259.195 128.63 258.481 128.142C258.147 127.95 257.872 127.671 257.686 127.333C257.5 126.996 257.411 126.614 257.428 126.23C257.44 125.515 257.637 124.815 257.999 124.197C258.361 123.58 258.877 123.066 259.496 122.705L267.881 117.867C268.254 117.657 268.675 117.546 269.103 117.546C269.531 117.546 269.953 117.657 270.326 117.867C271.341 118.392 272.431 118.992 272.431 119.967V120.98H271.191C270.858 121.961 270.193 122.796 269.311 123.342L261.263 127.955C261.268 128.257 261.161 128.551 260.963 128.78L260.662 129.08L259.948 128.855ZM259.27 126.305L259.534 126.08L267.957 121.242C268.238 121.074 268.479 120.845 268.661 120.573C268.843 120.3 268.962 119.991 269.01 119.667V119.292C269.01 119.292 269.009 119.292 268.595 119.292L260.21 124.13C259.924 124.302 259.681 124.537 259.499 124.816C259.317 125.095 259.2 125.412 259.157 125.742L259.27 126.305Z" fill="#5ED9D1"/>
<path d="M243.364 136.093C243.194 135.986 243.056 135.836 242.963 135.658C242.871 135.48 242.828 135.28 242.838 135.08V134.855C242.886 134.347 243.055 133.858 243.329 133.428C243.604 132.998 243.976 132.639 244.417 132.38L252.802 127.542C253.022 127.424 253.267 127.362 253.517 127.362C253.766 127.362 254.012 127.424 254.232 127.542C254.57 127.542 255.848 128.33 255.848 128.817H254.758C254.72 129.323 254.56 129.812 254.291 130.243C254.023 130.674 253.654 131.034 253.216 131.293L244.794 136.13C244.493 136.318 245.019 137.03 244.794 137.03C244.288 136.765 243.809 136.451 243.364 136.093Z" fill="#5ED9D1"/>
<path d="M244.756 137.892C244.38 137.892 244.042 137.893 243.064 137.105C242.737 136.917 242.468 136.643 242.289 136.311C242.109 135.98 242.027 135.606 242.049 135.23C242.065 134.515 242.258 133.815 242.613 133.193C242.967 132.571 243.471 132.047 244.08 131.667L252.502 126.83C252.866 126.612 253.281 126.496 253.705 126.496C254.129 126.496 254.545 126.612 254.908 126.83C255.924 127.355 257.052 127.955 257.052 128.967V129.792H255.773C255.437 130.752 254.771 131.562 253.893 132.08L245.996 136.618C246.12 136.918 246.12 137.255 245.996 137.555L245.696 137.93L244.756 137.892ZM243.891 135.23C243.975 135.135 244.077 135.058 244.192 135.005L252.577 130.167C252.863 129.995 253.106 129.76 253.288 129.481C253.47 129.202 253.587 128.885 253.63 128.555V128.18C253.494 128.145 253.352 128.145 253.217 128.18L244.831 133.017C244.545 133.179 244.299 133.406 244.116 133.68C243.933 133.954 243.818 134.266 243.778 134.593L243.891 135.23Z" fill="#5ED9D1"/>
<path d="M259.947 127.842C259.777 127.736 259.638 127.586 259.545 127.408C259.453 127.23 259.41 127.03 259.42 126.83V126.605C259.464 126.106 259.628 125.624 259.896 125.2C260.164 124.776 260.53 124.422 260.963 124.167L269.385 119.33C269.606 119.215 269.851 119.155 270.1 119.155C270.348 119.155 270.593 119.215 270.814 119.33C270.987 119.443 271.127 119.599 271.22 119.784C271.312 119.968 271.354 120.174 271.341 120.38C271.302 120.89 271.137 121.383 270.862 121.814C270.586 122.246 270.208 122.604 269.761 122.855L261.376 127.693C261.118 127.86 260.818 127.951 260.511 127.955C260.316 127.975 260.12 127.935 259.947 127.842Z" fill="#171753"/>
<path d="M260.549 129.005C260.183 128.998 259.822 128.908 259.496 128.742C259.165 128.547 258.892 128.266 258.707 127.93C258.521 127.593 258.43 127.213 258.443 126.83C258.427 126.078 258.61 125.336 258.973 124.678C259.336 124.02 259.867 123.468 260.511 123.08L268.897 118.279C269.267 118.062 269.689 117.947 270.118 117.947C270.548 117.947 270.971 118.062 271.341 118.279C271.663 118.482 271.926 118.765 272.104 119.101C272.282 119.436 272.369 119.813 272.356 120.192C272.344 120.903 272.152 121.599 271.797 122.216C271.441 122.832 270.936 123.349 270.326 123.717L261.903 128.555C261.503 128.828 261.034 128.984 260.549 129.005ZM260.549 126.98C260.549 126.98 260.549 126.98 260.963 126.98L269.348 122.142C269.634 121.97 269.877 121.735 270.06 121.456C270.242 121.177 270.359 120.86 270.401 120.53V120.154C270.266 120.119 270.123 120.119 269.987 120.154L261.602 124.992C261.321 125.16 261.08 125.389 260.898 125.662C260.716 125.934 260.597 126.243 260.549 126.567V126.98Z" fill="#ECFFFE"/>
<path d="M244.567 136.805C244.381 136.704 244.229 136.55 244.128 136.364C244.028 136.177 243.985 135.966 244.004 135.755V135.567C244.06 135.062 244.232 134.576 244.506 134.148C244.779 133.719 245.148 133.358 245.583 133.092L253.968 128.255C254.185 128.13 254.431 128.064 254.682 128.064C254.933 128.064 255.179 128.13 255.396 128.255C255.572 128.365 255.715 128.52 255.808 128.706C255.901 128.891 255.941 129.098 255.923 129.305C255.885 129.811 255.725 130.3 255.457 130.731C255.188 131.162 254.82 131.522 254.382 131.78L245.959 136.617C245.694 136.767 245.397 136.857 245.093 136.88C244.914 136.911 244.73 136.884 244.567 136.805Z" fill="#171753"/>
<path d="M245.094 137.968C244.811 137.963 244.532 137.902 244.274 137.787C244.015 137.672 243.782 137.506 243.589 137.3C243.396 137.093 243.247 136.85 243.15 136.585C243.053 136.319 243.012 136.037 243.027 135.755C243.042 135.045 243.236 134.35 243.591 133.734C243.946 133.118 244.449 132.601 245.057 132.23L253.481 127.392C253.844 127.174 254.259 127.059 254.683 127.059C255.107 127.059 255.523 127.174 255.887 127.392C256.221 127.584 256.496 127.864 256.682 128.202C256.867 128.539 256.957 128.921 256.94 129.305C256.924 130.019 256.726 130.718 256.364 131.335C256.002 131.952 255.488 132.466 254.871 132.83L246.486 137.668C246.056 137.885 245.576 137.988 245.094 137.968ZM245.094 135.943C245.094 135.943 245.095 135.943 245.508 135.943L253.894 131.105C254.181 130.935 254.426 130.701 254.609 130.421C254.791 130.142 254.907 129.824 254.947 129.492V129.117C254.81 129.087 254.669 129.087 254.533 129.117L246.147 133.917C245.868 134.098 245.63 134.334 245.449 134.612C245.267 134.89 245.147 135.203 245.094 135.53V135.943Z" fill="#ECFFFE"/>
<path d="M278.447 116.592C278.277 116.485 278.138 116.335 278.046 116.157C277.953 115.979 277.91 115.78 277.921 115.58V115.355C277.965 114.855 278.128 114.374 278.396 113.95C278.664 113.526 279.029 113.172 279.462 112.917L284.163 110.179C284.38 110.054 284.626 109.989 284.877 109.989C285.128 109.989 285.374 110.054 285.591 110.179C285.767 110.289 285.91 110.445 286.003 110.631C286.096 110.816 286.136 111.023 286.118 111.229V111.417C286.071 111.92 285.907 112.406 285.64 112.836C285.372 113.265 285.007 113.627 284.576 113.892L279.838 116.592C279.582 116.764 279.281 116.855 278.973 116.854C278.772 116.831 278.586 116.738 278.447 116.592Z" fill="#171753"/>
<path d="M278.973 117.754C278.608 117.743 278.249 117.653 277.921 117.492C277.602 117.286 277.341 117.003 277.163 116.668C276.985 116.333 276.897 115.958 276.906 115.579C276.89 114.828 277.073 114.086 277.436 113.428C277.799 112.769 278.329 112.218 278.973 111.829L283.674 109.129C284.044 108.912 284.467 108.797 284.896 108.797C285.326 108.797 285.748 108.912 286.118 109.129C286.446 109.326 286.713 109.608 286.892 109.945C287.071 110.282 287.154 110.661 287.134 111.042C287.118 111.756 286.92 112.455 286.558 113.072C286.196 113.689 285.682 114.203 285.065 114.567L280.365 117.267C279.953 117.55 279.472 117.718 278.973 117.754ZM278.973 115.729C278.973 115.729 279.162 115.729 279.387 115.729L284.125 113.029C284.404 112.849 284.643 112.613 284.824 112.335C285.005 112.057 285.126 111.744 285.178 111.417V111.042C285.045 110.993 284.898 110.993 284.764 111.042L280.026 113.779C279.745 113.948 279.505 114.177 279.323 114.449C279.141 114.721 279.021 115.031 278.973 115.354V115.729Z" fill="#ECFFFE"/>
<path d="M282.019 113.517V113.142C282.019 111.717 280.854 111.23 279.425 112.055L277.432 113.217C276.711 113.651 276.101 114.245 275.65 114.955C275.2 115.665 274.922 116.469 274.838 117.305V117.68C274.838 119.105 276.003 119.592 277.432 118.767L279.425 117.605C280.15 117.176 280.763 116.582 281.214 115.872C281.665 115.161 281.941 114.354 282.019 113.517Z" fill="#ECFFFE"/>
<path d="M109.69 210.157L107.697 210.119L107.773 202.469L109.803 202.507L109.69 210.157Z" fill="#ECFFFE"/>
<path d="M95.6645 206.669L93.6716 206.632L93.7468 198.982L95.7773 199.019L95.6645 206.669Z" fill="#ECFFFE"/>
<path d="M124.373 200.953L122.38 200.973L122.455 208.36L124.448 208.34L124.373 200.953Z" fill="#ECFFFE"/>
<path d="M140.671 191.564L138.678 191.584L138.753 199.008L140.746 198.988L140.671 191.564Z" fill="#ECFFFE"/>
<path d="M12.3766 134.442L210.425 21.0394C215.2 18.6363 220.474 17.3845 225.823 17.3845C231.172 17.3845 236.447 18.6363 241.222 21.0394L323.457 68.5529C324.457 68.9096 325.322 69.5659 325.933 70.4319C326.545 71.2979 326.873 72.3314 326.873 73.3907C326.873 74.45 326.545 75.4833 325.933 76.3493C325.322 77.2153 324.457 77.8716 323.457 78.2282L125.559 191.706C120.783 194.109 115.508 195.361 110.16 195.361C104.811 195.361 99.5371 194.109 94.7619 191.706L12.3766 144.08C11.3723 143.733 10.5014 143.082 9.88507 142.218C9.26872 141.355 8.93768 140.321 8.93768 139.261C8.93768 138.201 9.26872 137.167 9.88507 136.304C10.5014 135.44 11.3723 134.789 12.3766 134.442Z" fill="#BEF0ED"/>
<path d="M110.141 196.731C104.52 196.869 98.9562 195.578 93.9725 192.981L11.7753 145.43C10.5473 144.96 9.49089 144.129 8.7459 143.048C8.0009 141.967 7.60205 140.686 7.60205 139.374C7.60205 138.062 8.0009 136.781 8.7459 135.7C9.49089 134.618 10.5473 133.788 11.7753 133.317L209.673 19.8022C214.674 17.2781 220.2 15.9629 225.805 15.9629C231.409 15.9629 236.936 17.2781 241.936 19.8022L324.133 67.316C325.374 67.7795 326.443 68.6095 327.198 69.6951C327.952 70.7807 328.356 72.0702 328.356 73.3911C328.356 74.7121 327.952 76.0014 327.198 77.087C326.443 78.1726 325.374 79.0028 324.133 79.4663L126.235 192.944C121.283 195.555 115.742 196.859 110.141 196.731ZM225.73 18.7899C220.643 18.6754 215.611 19.8495 211.103 22.2024L13.2038 135.68C12.4374 135.917 11.7674 136.393 11.2915 137.037C10.8157 137.682 10.559 138.461 10.559 139.261C10.559 140.062 10.8157 140.841 11.2915 141.485C11.7674 142.13 12.4374 142.605 13.2038 142.843L95.4018 190.356C99.9633 192.622 104.99 193.801 110.085 193.801C115.181 193.801 120.207 192.622 124.768 190.356L322.667 76.8787C323.421 76.5581 324.074 76.0403 324.557 75.3802C325.041 74.7201 325.336 73.9423 325.412 73.1286C325.324 72.3185 325.024 71.5455 324.543 70.8874C324.061 70.2292 323.414 69.7089 322.667 69.3785L240.469 21.8647C235.904 19.6285 230.849 18.5714 225.767 18.7899H225.73Z" fill="#171753"/>
<path d="M12.6029 137.293L210.501 23.8149C215.276 21.4118 220.55 20.1601 225.899 20.1601C231.248 20.1601 236.522 21.4118 241.297 23.8149L323.495 71.3285C324.882 72.0415 325.983 73.2059 326.616 74.6286C327.519 72.416 326.616 69.9787 323.495 68.2536L241.297 20.7398C236.522 18.3367 231.248 17.085 225.899 17.085C220.55 17.085 215.276 18.3367 210.501 20.7398L12.6029 134.218C9.5948 135.943 8.57922 138.38 9.44406 140.593C10.1011 139.174 11.2125 138.013 12.6029 137.293Z" fill="#171753"/>
<path d="M66.5224 189.194C66.2321 189.189 65.9477 189.112 65.6953 188.969C65.3018 188.715 64.974 188.372 64.7387 187.968C64.5035 187.564 64.3679 187.11 64.3421 186.644C64.331 186.39 64.3875 186.139 64.5065 185.914C64.6254 185.69 64.8023 185.502 65.0187 185.369C65.2289 185.243 65.4696 185.177 65.7146 185.177C65.9596 185.177 66.2002 185.243 66.4104 185.369C66.8128 185.613 67.1471 185.954 67.3835 186.36C67.62 186.766 67.7505 187.224 67.7636 187.694C67.7798 187.939 67.7293 188.183 67.6167 188.401C67.5041 188.619 67.3339 188.803 67.1246 188.931C66.9514 189.071 66.743 189.162 66.5224 189.194Z" fill="#ECFFFE"/>
<path d="M71.0731 191.819C70.7834 191.81 70.4992 191.733 70.245 191.594C69.8564 191.338 69.5348 190.994 69.3059 190.59C69.0771 190.185 68.9481 189.733 68.9295 189.269C68.9051 189.019 68.9533 188.767 69.0682 188.543C69.183 188.319 69.3599 188.133 69.5776 188.007C69.7954 187.881 70.0447 187.819 70.2965 187.83C70.5482 187.841 70.7919 187.924 70.9978 188.069C71.3886 188.322 71.7124 188.666 71.9415 189.07C72.1707 189.475 72.2978 189.929 72.3133 190.394C72.3295 190.638 72.2791 190.883 72.1664 191.101C72.0538 191.319 71.8836 191.502 71.6744 191.631C71.4958 191.749 71.2874 191.814 71.0731 191.819Z" fill="#ECFFFE"/>
<path d="M75.6235 194.444C75.345 194.44 75.0727 194.362 74.834 194.219C74.4362 193.97 74.105 193.628 73.8692 193.223C73.6333 192.818 73.4996 192.362 73.4799 191.894C73.4609 191.643 73.5106 191.393 73.6231 191.168C73.7357 190.944 73.9066 190.754 74.1189 190.619C74.3384 190.5 74.5846 190.439 74.834 190.439C75.0834 190.439 75.3287 190.5 75.5482 190.619C75.9438 190.87 76.2729 191.212 76.5085 191.617C76.744 192.022 76.8786 192.477 76.9014 192.944C76.9059 193.192 76.8502 193.438 76.7389 193.66C76.6276 193.882 76.4643 194.074 76.2624 194.219C76.0659 194.334 75.8491 194.411 75.6235 194.444Z" fill="#ECFFFE"/>
<path d="M80.0604 197.069C79.7826 197.06 79.5116 196.983 79.2709 196.844C78.8774 196.59 78.5496 196.247 78.3143 195.843C78.0791 195.439 77.9426 194.985 77.9168 194.519C77.9057 194.266 77.9631 194.014 78.0821 193.79C78.2011 193.566 78.3779 193.377 78.5943 193.244C78.8045 193.118 79.0442 193.052 79.2893 193.052C79.5343 193.052 79.7749 193.118 79.9851 193.244C80.3874 193.488 80.7217 193.829 80.9582 194.235C81.1947 194.641 81.3261 195.099 81.3392 195.569C81.3543 195.819 81.3027 196.068 81.1905 196.292C81.0782 196.516 80.9087 196.706 80.6993 196.844C80.5113 196.977 80.2903 197.055 80.0604 197.069Z" fill="#ECFFFE"/>
<path d="M84.7598 199.694C84.4701 199.685 84.1868 199.608 83.9326 199.469C83.544 199.213 83.2214 198.869 82.9926 198.465C82.7638 198.061 82.6348 197.608 82.6162 197.144C82.6011 196.894 82.6527 196.645 82.7649 196.421C82.8771 196.197 83.0467 196.007 83.2561 195.869C83.4756 195.751 83.7209 195.689 83.9703 195.689C84.2197 195.689 84.465 195.751 84.6845 195.869C85.0731 196.124 85.3957 196.469 85.6245 196.873C85.8534 197.277 85.9823 197.73 86.0009 198.194C86.016 198.444 85.9644 198.693 85.8522 198.917C85.74 199.141 85.5705 199.331 85.3611 199.469C85.1877 199.603 84.9784 199.681 84.7598 199.694Z" fill="#ECFFFE"/>
<path d="M18.3181 161.481C18.0396 161.476 17.7673 161.399 17.5286 161.256C17.1329 161.004 16.8029 160.662 16.5674 160.258C16.3319 159.853 16.1973 159.398 16.1745 158.931C16.1528 158.681 16.2056 158.43 16.326 158.21C16.4464 157.99 16.6288 157.81 16.8511 157.693C17.0598 157.563 17.301 157.495 17.5469 157.495C17.7928 157.495 18.034 157.563 18.2428 157.693C18.6457 157.946 18.9798 158.293 19.2159 158.705C19.452 159.118 19.5824 159.581 19.5959 160.056C19.6122 160.3 19.5617 160.545 19.4491 160.763C19.3364 160.981 19.1662 161.164 18.957 161.293C18.765 161.413 18.5443 161.477 18.3181 161.481Z" fill="#ECFFFE"/>
<path d="M22.9057 164.106C22.6154 164.101 22.331 164.024 22.0786 163.881C21.6832 163.632 21.3554 163.29 21.1257 162.884C20.8959 162.478 20.7712 162.022 20.7621 161.556C20.7434 161.311 20.7938 161.067 20.9072 160.85C21.0205 160.632 21.1926 160.451 21.4038 160.326C21.6151 160.201 21.8569 160.138 22.1024 160.143C22.3479 160.149 22.587 160.222 22.7928 160.356C23.1957 160.608 23.5298 160.956 23.7659 161.368C24.002 161.78 24.1323 162.244 24.1459 162.718C24.1621 162.963 24.1117 163.208 23.999 163.426C23.8864 163.644 23.7162 163.827 23.507 163.956C23.3252 164.063 23.1166 164.115 22.9057 164.106Z" fill="#ECFFFE"/>
<path d="M27.4174 166.768C27.136 166.749 26.8644 166.659 26.6279 166.505C26.2232 166.264 25.8861 165.924 25.6493 165.517C25.4125 165.111 25.2834 164.651 25.2738 164.18C25.2576 163.936 25.309 163.691 25.4216 163.473C25.5342 163.255 25.7044 163.072 25.9137 162.943C26.1265 162.806 26.3744 162.733 26.6279 162.733C26.8813 162.733 27.1292 162.806 27.3421 162.943C27.7421 163.19 28.0754 163.531 28.3115 163.936C28.5476 164.342 28.6798 164.799 28.6962 165.268C28.7086 165.516 28.6513 165.763 28.5318 165.982C28.4124 166.2 28.2348 166.381 28.0187 166.505C27.8487 166.65 27.6396 166.742 27.4174 166.768Z" fill="#ECFFFE"/>
<path d="M32.0046 169.393C31.7207 169.388 31.4453 169.296 31.2152 169.131C30.8151 168.884 30.4819 168.543 30.2457 168.137C30.0096 167.732 29.8775 167.274 29.8611 166.806C29.8526 166.562 29.9071 166.32 30.019 166.104C30.1309 165.887 30.2972 165.703 30.5009 165.568C30.7138 165.431 30.9617 165.358 31.2152 165.358C31.4686 165.358 31.7165 165.431 31.9294 165.568C32.3317 165.812 32.6669 166.153 32.9034 166.559C33.1398 166.965 33.2704 167.424 33.2834 167.893C33.2997 168.138 33.2483 168.382 33.1356 168.6C33.023 168.818 32.8528 169.002 32.6436 169.131C32.4587 169.275 32.2379 169.366 32.0046 169.393Z" fill="#ECFFFE"/>
<path d="M36.5922 172.019C36.3026 172.01 36.0192 171.932 35.7651 171.794C35.3735 171.532 35.0502 171.181 34.8214 170.771C34.5925 170.36 34.4653 169.901 34.4496 169.431C34.4333 169.186 34.4838 168.942 34.5964 168.724C34.7091 168.506 34.8793 168.322 35.0885 168.193C35.3044 168.065 35.5511 167.997 35.8027 167.997C36.0543 167.997 36.301 168.065 36.5169 168.193C36.9123 168.442 37.2401 168.784 37.4698 169.19C37.6995 169.596 37.8243 170.053 37.8334 170.518C37.8496 170.763 37.7982 171.008 37.6856 171.226C37.5729 171.444 37.4036 171.627 37.1944 171.756C37.0244 171.901 36.8144 171.993 36.5922 172.019Z" fill="#ECFFFE"/>
<path d="M57.0099 184.356C56.4765 184.347 55.9555 184.191 55.5053 183.906L45.879 178.393C45.2186 178.003 44.665 177.457 44.2651 176.803C43.8653 176.149 43.6319 175.408 43.5858 174.643C43.5438 174.195 43.6272 173.745 43.8263 173.341C44.0254 172.937 44.3326 172.596 44.714 172.356C45.1115 172.118 45.5659 171.992 46.0295 171.992C46.4932 171.992 46.9485 172.118 47.346 172.356L56.9723 177.906C57.6393 178.289 58.1991 178.833 58.5999 179.488C59.0007 180.144 59.2293 180.889 59.2655 181.656C59.3164 182.105 59.2377 182.559 59.0378 182.965C58.8379 183.37 58.5249 183.71 58.1372 183.944C57.8046 184.179 57.416 184.321 57.0099 184.356ZM45.7293 174.081C45.6947 174.191 45.6947 174.309 45.7293 174.418C45.7489 174.857 45.8756 175.285 46.0984 175.664C46.3212 176.043 46.6328 176.362 47.0072 176.593L56.6335 182.144C56.8591 182.144 57.0844 182.406 57.2725 182.144C57.4605 181.881 57.2725 181.881 57.2725 181.806C57.2595 181.366 57.136 180.935 56.9126 180.555C56.6892 180.175 56.3736 179.857 55.9946 179.631L46.3683 174.081C46.1951 174.041 46.0145 174.041 45.8413 174.081H45.7293Z" fill="#ECFFFE"/>
<path d="M219.939 18.4897H217.946V21.9023H219.939V18.4897Z" fill="#ECFFFE"/>
<path d="M320.411 67.1287H318.418V70.5412H320.411V67.1287Z" fill="#ECFFFE"/>
<path d="M18.3175 131.855H16.3246V135.268H18.3175V131.855Z" fill="#ECFFFE"/>
<path d="M233.588 18.4897H231.595V21.9023H233.588V18.4897Z" fill="#ECFFFE"/>
<path d="M78.2447 110.48L110.627 91.8485C112.402 90.8135 114.176 90.6656 115.359 91.2571L125.858 97.7632V97.9111C125.414 98.9461 120.978 108.114 120.534 109.74C120.387 110.48 119.056 117.429 117.429 125.562V129.702C117.429 132.068 116.542 134.582 115.211 136.8C113.585 145.376 112.106 152.622 112.106 152.769L97.3194 157.797H96.2844V157.649L97.0237 155.283C97.1715 154.248 97.4673 152.917 97.4673 151.734L83.5678 167.26H83.42L73.2172 160.902C73.2172 160.902 73.0694 160.902 73.0694 160.754C71.8864 160.015 71.1471 158.536 71.1471 156.318V122.457C71.1471 118.169 74.4001 112.698 78.2447 110.48Z" fill="#FFE850"/>
<path d="M83.5678 168.444C83.8636 168.444 84.1593 168.296 84.455 168L96.2843 154.84V154.988L95.545 157.206C95.3971 157.649 95.545 158.241 95.9886 158.537L96.2843 158.684H97.763L113.289 153.509L113.585 152.918C113.585 152.77 115.063 145.524 116.69 137.096C118.169 134.73 118.908 132.069 118.908 129.703V125.71C120.83 115.803 121.865 110.48 122.013 109.889C122.309 108.706 124.823 103.087 127.188 98.2072C127.484 97.6157 127.336 97.0242 126.745 96.7285L115.507 89.7788L115.359 89.9267C113.88 89.4831 112.106 89.7788 110.332 90.8139L77.9489 109.445C73.8086 111.811 70.4077 117.726 70.4077 122.605V156.466C70.4077 158.98 71.2949 160.755 72.7736 161.79L83.1242 168.148C83.1242 168.296 83.2721 168.444 83.5678 168.444ZM98.7981 148.925L83.42 166.078L73.9565 160.163L73.2172 160.902L73.8087 160.015C72.9215 159.424 72.33 158.093 72.33 156.466V122.605C72.33 118.465 75.2873 113.29 78.8361 111.367L111.219 92.7361C112.697 91.8489 114.028 91.7011 115.063 92.1447L124.823 98.2072C123.344 101.164 120.239 107.966 119.795 109.445C119.647 110.036 118.612 115.064 116.69 125.415V125.562V129.703C116.69 131.773 115.951 134.139 114.62 136.209L114.472 136.505C113.141 143.75 111.81 149.96 111.515 151.883L97.9109 156.466L98.2066 155.431C98.5023 154.249 98.6502 152.918 98.6502 151.735L98.7981 148.925Z" fill="#171753"/>
<path d="M78.2435 110.48L109.443 92.4404L124.673 102.052L91.2557 119.796L84.4538 120.831L73.9553 114.62C75.2861 112.846 76.6169 111.367 78.2435 110.48Z" fill="white"/>
<path d="M84.3065 121.866L91.8477 120.683L126.744 102.052L109.444 91.2578L77.6525 109.593C76.026 110.48 74.3995 112.107 73.0687 113.881L72.4772 114.769L84.3065 121.866ZM90.9605 118.613L84.7501 119.648L75.5824 114.177C76.6175 112.994 77.6525 111.959 78.8355 111.368L109.592 93.6237L122.752 101.904L90.9605 118.613Z" fill="#171753"/>
<path d="M81.9411 126.301C81.9411 126.301 94.9533 129.406 95.8405 129.702C96.5799 129.998 109.296 140.348 113.732 145.08C112.845 149.664 99.9808 157.501 99.9808 157.501L95.1012 169.478L84.0112 162.972L83.7155 167.26H83.5676L73.3649 160.902C73.3649 160.902 73.217 160.902 73.217 160.754C72.0341 160.015 71.2947 158.536 71.2947 156.318V122.457C71.2947 121.569 71.4426 120.83 71.5905 119.943L81.9411 126.301Z" fill="#171753"/>
<path d="M72.6187 124.973L80.3352 129.642L79.6463 130.781L71.9298 126.111L72.6187 124.973Z" fill="#FFE850"/>
<path d="M72.6081 156.185L80.3254 160.854L79.6365 161.993L71.9191 157.324L72.6081 156.185Z" fill="#FFE850"/>
<path d="M120.83 98.208L88.447 116.839C84.6025 119.057 81.4973 124.528 81.4973 128.964V162.826C81.4973 167.262 84.6025 169.036 88.447 166.818L92.1437 164.748C92.883 164.304 93.3266 164.6 93.4744 165.191C93.918 167.262 95.3967 170.958 100.572 168.74C101.607 168.297 102.346 166.67 102.051 165.783C101.755 164.6 101.311 162.973 101.311 160.903C101.311 160.016 101.903 158.981 102.642 158.537L120.682 148.187C124.526 145.969 127.632 140.498 127.632 136.062V102.2C127.927 97.7645 124.822 95.9901 120.83 98.208Z" fill="#FFE850"/>
<path d="M97.7631 170.514C98.7981 170.514 99.8332 170.219 101.016 169.775C102.495 169.184 103.678 166.966 103.086 165.487C102.791 164.452 102.347 162.825 102.347 160.903C102.347 160.459 102.791 159.72 103.234 159.424L121.274 149.074C125.414 146.708 128.815 140.941 128.815 136.061V102.2C128.815 99.6864 127.928 97.7641 126.301 96.729C124.675 95.8418 122.457 95.9897 120.387 97.1726L88.0039 115.804C83.8636 118.17 80.4627 123.936 80.4627 128.816V162.677C80.4627 165.191 81.3499 167.113 82.9765 168.148C84.603 169.036 86.821 168.888 88.8911 167.705L92.4399 165.635C92.7356 167.113 93.475 168.888 95.2494 169.923C96.1366 170.366 96.8759 170.514 97.7631 170.514ZM124.083 98.3556C124.527 98.3556 124.97 98.5034 125.414 98.6513C126.449 99.2428 126.893 100.574 126.893 102.348V136.209C126.893 140.35 123.935 145.377 120.387 147.447L102.347 157.798C101.312 158.389 100.425 159.868 100.425 161.051C100.425 163.269 100.868 165.043 101.164 166.226C101.312 166.67 100.72 167.705 100.277 168.001C98.6503 168.74 97.3195 168.74 96.4323 168.296C95.2493 167.705 94.8058 166.078 94.6579 165.191C94.51 164.6 94.2143 164.008 93.6228 163.86C93.0314 163.565 92.4399 163.712 91.7006 164.008L88.0039 166.078C86.5252 166.966 85.0466 167.113 84.1594 166.522C83.1243 165.93 82.6807 164.6 82.6807 162.825V128.964C82.6807 124.824 85.638 119.796 89.1868 117.726L121.422 99.0949C122.309 98.6513 123.196 98.3556 124.083 98.3556Z" fill="#171753"/>
<path d="M114.768 124.822C114.768 124.822 117.282 124.97 116.838 130.885C116.394 136.8 114.176 139.609 114.176 139.609L109.297 141.384C109.297 141.384 109.149 141.531 109.001 141.827C105.896 146.263 101.608 148.777 98.5027 147.89L96.5804 147.298L96.8761 134.434C96.8761 134.434 99.6856 132.216 101.016 129.702C102.347 127.336 100.573 127.04 100.721 124.083C100.869 121.126 102.939 116.098 105.157 116.098C107.375 116.098 106.34 118.612 105.896 120.83C105.452 123.196 106.635 125.266 108.41 126.153C110.184 127.04 110.628 128.076 110.628 128.076C110.628 128.076 111.663 126.301 114.768 124.822Z" fill="white"/>
<path d="M99.834 149.073C103.087 149.073 106.932 146.56 109.889 142.419C109.889 142.419 109.889 142.271 110.037 142.271L114.916 140.645L115.064 140.349C115.212 140.201 117.43 137.244 117.874 131.034C118.022 128.076 117.578 126.006 116.543 124.823C115.804 123.936 114.916 123.788 114.768 123.788H114.473L114.177 123.936C112.403 124.823 111.22 125.71 110.48 126.45C110.037 126.154 109.593 125.71 108.854 125.267C107.671 124.675 106.488 123.049 106.932 121.127C106.932 120.831 107.079 120.387 107.227 120.092C107.671 118.465 107.967 116.986 107.079 115.951C106.636 115.36 106.044 115.212 105.157 115.212C102.052 115.212 99.834 121.127 99.6861 124.232C99.6861 125.71 99.9818 126.598 100.278 127.189C100.573 127.928 100.721 128.372 100.13 129.259C98.9468 131.477 96.2852 133.695 96.2852 133.695L95.9895 133.991L95.5458 148.186L98.2074 148.925C98.7989 148.925 99.3904 149.073 99.834 149.073ZM113.586 138.871L108.558 140.645L108.41 140.941C108.41 140.941 108.262 141.089 108.114 141.384C105.305 145.377 101.46 147.742 98.651 147.003L97.4681 146.707L97.7638 135.174C98.651 134.435 100.573 132.512 101.756 130.442C102.791 128.668 102.348 127.485 102.052 126.598C101.756 126.006 101.608 125.415 101.608 124.38C101.756 121.57 103.826 117.43 105.009 117.43C105.305 117.43 105.305 117.43 105.305 117.43C105.453 117.726 105.157 119.056 105.009 119.796C104.861 120.092 104.861 120.535 104.714 120.831C104.122 123.492 105.453 126.154 107.671 127.337C109.002 128.076 109.445 128.668 109.445 128.816L110.332 130.442L111.22 128.816C111.22 128.816 112.107 127.337 114.473 126.154C114.916 126.45 115.804 127.781 115.508 131.034C115.508 135.47 114.177 138.131 113.586 138.871Z" fill="#171753"/>
<path d="M110.333 141.976C111.368 140.202 111.516 137.392 111.516 137.392L109.446 137.244C109.446 137.244 109.298 139.61 108.411 141.089L110.333 141.976Z" fill="#171753"/>
<path d="M110.036 130.738H112.106C112.106 128.224 111.663 127.78 111.515 127.485L109.888 128.668C109.888 128.963 110.036 129.85 110.036 130.738Z" fill="#171753"/>
<path d="M94.2144 140.646L100.425 137.097C101.46 136.505 102.199 135.027 102.199 133.696C102.199 132.365 101.46 131.774 100.425 132.365L94.2144 135.914C93.1794 136.505 92.44 137.984 92.44 139.315C92.44 140.646 93.3272 141.237 94.2144 140.646Z" fill="white"/>
<path d="M93.4754 141.977C93.919 141.977 94.3626 141.829 94.6584 141.681L100.869 138.132C102.2 137.393 103.235 135.47 103.235 133.844C103.235 132.809 102.791 131.922 102.052 131.478C101.46 131.034 100.573 131.182 99.8337 131.626L93.6233 135.175C92.2925 135.914 91.2574 137.836 91.2574 139.463C91.2574 140.498 91.701 141.385 92.4404 141.829C92.884 141.829 93.1797 141.977 93.4754 141.977ZM93.7712 139.759C93.6233 139.759 93.6233 139.759 93.6233 139.906C93.6233 139.906 93.6233 139.759 93.6233 139.315C93.6233 138.28 94.3626 137.097 94.9541 136.801L101.165 133.252C101.312 133.252 101.312 133.252 101.312 133.105C101.312 133.105 101.312 133.252 101.312 133.696C101.312 134.731 100.573 135.914 99.9816 136.21L93.7712 139.759Z" fill="#171753"/>
<path d="M94.6587 144.341L100.13 141.236C100.869 140.792 101.608 139.462 101.608 138.427C101.608 137.391 101.017 136.8 100.13 137.391L94.6587 140.497C93.9194 140.94 93.1801 142.271 93.1801 143.306C93.1801 144.341 93.9194 144.785 94.6587 144.341Z" fill="white"/>
<path d="M94.0667 145.524C94.3625 145.524 94.8061 145.376 95.1018 145.228L100.573 142.123C101.756 141.532 102.495 139.905 102.495 138.426C102.495 137.539 102.052 136.652 101.46 136.356C100.869 136.061 100.129 136.061 99.5378 136.504L94.0667 139.609C92.8838 140.201 92.1445 141.827 92.1445 143.306C92.1445 144.193 92.5881 145.08 93.1795 145.376C93.4753 145.524 93.771 145.524 94.0667 145.524ZM100.573 138.279V138.426C100.573 139.166 100.129 140.053 99.6857 140.349L94.3625 143.454V143.306C94.3625 142.567 94.8061 141.679 95.2497 141.384L100.573 138.279Z" fill="#171753"/>
<path d="M95.2506 147.891L99.9823 145.081C100.722 144.638 101.461 143.307 101.461 142.272C101.461 141.237 100.87 140.645 99.9823 141.237L95.2506 144.046C94.5113 144.49 93.772 145.821 93.772 146.856C93.772 147.891 94.5113 148.335 95.2506 147.891Z" fill="white"/>
<path d="M94.6586 149.073C94.9543 149.073 95.3979 148.926 95.6937 148.778L100.425 145.968C101.608 145.377 102.348 143.75 102.348 142.272C102.348 141.384 101.904 140.497 101.313 140.201C100.721 139.906 99.9818 139.906 99.3903 140.349L94.6586 143.159C93.4757 143.75 92.7363 145.377 92.7363 146.855C92.7363 147.743 93.18 148.63 93.7714 148.926C94.0672 149.073 94.3629 149.073 94.6586 149.073ZM100.573 142.124V142.272C100.573 143.011 100.13 143.898 99.6861 144.194L94.9543 146.855V146.708C94.9543 145.968 95.398 145.081 95.8415 144.785L100.573 142.124Z" fill="#171753"/>
<path d="M96.1384 151.291L99.5393 149.369C100.279 148.925 101.018 147.594 101.018 146.559C101.018 145.524 100.427 144.933 99.5393 145.524L96.1384 147.446C95.3991 147.89 94.6598 149.221 94.6598 150.256C94.6598 151.291 95.2512 151.734 96.1384 151.291Z" fill="white"/>
<path d="M95.5463 152.473C95.842 152.473 96.2856 152.325 96.5813 152.178L99.9823 150.255C101.165 149.664 101.905 148.037 101.905 146.559C101.905 145.672 101.461 144.784 100.869 144.489C100.278 144.193 99.5387 144.193 98.9472 144.636L95.5463 146.559C94.3634 147.15 93.624 148.777 93.624 150.255C93.624 151.143 94.0676 152.03 94.6591 152.325C94.9548 152.473 95.2506 152.473 95.5463 152.473ZM99.9823 146.411V146.559C99.9823 147.298 99.5387 148.185 99.0951 148.481L95.842 150.403V150.255C95.842 149.516 96.2856 148.629 96.7292 148.333L99.9823 146.411Z" fill="#171753"/>
<path d="M198.829 78.6389C198.829 78.6389 197.132 78.0736 196.001 77.791C196.001 76.3778 196.566 74.9646 196.849 73.2687C200.527 61.3978 188.08 74.9646 188.08 74.9646L192.323 77.791C192.323 77.791 187.514 88.2488 187.514 104.642L193.738 108.034L197.698 100.402L200.244 85.705L198.829 78.6389Z" fill="#FFE850"/>
<path d="M193.171 108.882L194.02 108.599L194.303 108.316L198.263 100.685L200.526 85.7051L199.395 77.7911L198.829 77.5084C198.829 77.5084 197.698 77.2258 196.566 76.9432C197.132 76.0952 197.415 74.682 197.698 73.5515C198.263 71.2903 198.829 68.7465 197.415 67.8986C194.869 66.4854 189.494 71.8556 187.231 74.3994L186.665 75.2473L191.191 78.0737C190.06 80.6175 186.382 90.2273 186.382 104.642V105.207L186.948 105.49L193.171 108.882ZM196.566 100.12L193.171 106.903L188.08 104.077C188.363 88.2488 192.889 78.0737 192.889 78.0737L193.171 77.5084L189.211 74.682C192.606 71.0077 195.717 68.7465 196.566 69.0292C196.566 69.0292 197.132 69.5945 196 72.9862C195.717 74.3994 195.152 76.0952 194.869 77.5084V78.3564L195.717 78.639C196.566 78.9217 197.415 79.2043 197.98 79.2043L198.829 85.7051L196.566 100.12Z" fill="#171753"/>
<path d="M196.283 83.4438C195.151 87.4008 193.454 95.8801 193.454 107.751L203.921 101.816C203.921 101.25 201.092 89.0967 204.486 77.2257C208.164 65.3547 195.717 79.2042 195.717 79.2042C196.566 80.3348 196.566 82.0306 196.283 83.4438Z" fill="#171753"/>
<path d="M193.454 108.881L194.02 108.599L205.052 102.381V101.815C205.052 101.25 202.224 89.379 205.618 77.7907C206.184 75.5295 206.467 72.7031 205.052 71.8552C202.789 70.7246 197.132 76.0948 194.869 78.6386L194.303 79.2039L194.869 79.4865C195.717 80.6171 195.717 82.0303 195.435 83.4435C194.303 87.4005 192.606 96.1624 192.606 108.033V108.599L193.454 108.881ZM203.072 101.533L194.303 106.62C194.586 95.5971 196 87.6831 197.132 83.7261C197.415 82.3129 197.415 80.6171 196.566 79.2039C200.244 75.5295 203.638 72.9858 204.204 73.551C204.204 73.551 204.77 74.1163 203.638 77.508C200.526 87.9658 202.507 98.9888 203.072 101.533Z" fill="#171753"/>
<path d="M213.822 67.3332C213.822 63.0936 210.71 57.7234 207.033 55.7449C205.336 54.897 203.921 54.6143 202.507 55.1796C202.507 55.1796 198.264 56.8754 193.738 62.2456C189.212 67.6158 185.252 69.5943 185.252 69.5943L189.495 78.9215C189.495 78.9215 195.718 76.3777 201.375 75.5298C207.882 74.9645 211.842 71.5728 211.842 71.5728H212.125C213.256 70.7249 213.822 69.3117 213.822 67.3332Z" fill="#FFE850"/>
<path d="M189.212 80.0522L190.06 79.7696C190.06 79.7696 196.001 77.2258 201.658 76.6605C208.164 75.8126 212.408 72.4209 212.408 72.1382C214.105 71.2903 214.671 69.5944 214.671 67.3333C214.671 62.811 211.559 57.1582 207.599 54.8971C205.901 53.7665 204.204 53.4839 203.073 53.7665L202.507 54.0491C202.224 54.0491 197.981 55.745 193.455 61.1152C188.929 66.2027 185.251 68.4639 185.251 68.4639L184.686 68.7465L189.212 80.0522ZM203.921 55.4623C204.77 55.4623 205.618 55.745 206.467 56.3103C210.145 58.2888 212.973 63.0937 212.973 67.3333C212.973 69.5944 212.125 70.4424 211.559 70.725C211.559 70.725 207.599 74.1167 201.375 74.682C196.566 75.2473 191.758 76.9431 190.06 77.7911L186.383 69.5944C187.797 68.7465 190.909 66.4854 194.586 62.5284C198.264 58.0061 201.658 56.3103 202.507 55.745H202.79C203.355 55.4623 203.638 55.4623 203.921 55.4623Z" fill="#171753"/>
<path d="M206.467 59.9843C206.467 59.9843 208.164 58.8537 209.013 57.1578C208.164 56.5926 207.598 56.0273 206.75 55.7446C205.052 54.8967 203.638 54.6141 202.223 55.1793C202.223 55.1793 199.395 56.3099 195.717 59.9843L196 61.3975C196 61.3975 199.96 62.8107 201.658 62.8107C203.072 62.8107 206.467 59.9843 206.467 59.9843Z" fill="#ECFFFE"/>
<path d="M201.658 63.6582C203.355 63.6582 206.184 61.3971 207.033 60.5491C207.315 60.5491 209.013 59.1359 209.578 57.4401L209.861 56.8748L209.296 56.5922C208.73 56.0269 207.881 55.4616 207.315 54.8963C205.618 54.0484 204.204 53.7657 202.789 54.0484L201.941 54.331C201.941 54.331 198.829 55.4616 195.152 59.1359L194.869 59.4186L195.435 61.9623H195.717C196.283 62.245 199.961 63.6582 201.658 63.6582ZM207.881 57.1574C207.033 58.5706 205.901 59.1359 205.901 59.4186C204.487 60.8318 202.506 61.9623 201.941 61.9623C200.809 61.9623 198.263 61.1144 197.132 60.5491V59.9839C199.678 57.4401 201.941 56.3095 202.789 56.0269H203.072C203.638 55.4616 205.052 55.4616 206.467 56.3095C206.75 56.5922 207.315 56.8748 207.881 57.1574Z" fill="#171753"/>
<path d="M209.013 63.3763C208.73 63.3763 208.73 63.3763 209.013 63.3763C209.013 63.659 208.447 67.616 207.882 68.7465C207.316 70.1597 207.882 71.2903 208.164 72.1382C208.164 72.4209 208.447 72.7035 209.013 73.2688C210.993 72.4209 211.842 71.5729 211.842 71.5729H212.125C213.256 70.725 213.822 69.3118 213.822 67.0507C213.822 64.7895 212.973 62.2458 211.559 59.9846C211.559 62.2458 209.013 63.3763 209.013 63.3763Z" fill="#171753"/>
<path d="M208.73 74.3994L209.296 74.1167C211.276 72.9862 212.408 72.1382 212.408 72.1382C214.105 71.0077 214.671 69.5945 214.671 67.0507C214.671 64.7896 213.822 62.2458 212.408 59.702L212.125 59.1367L210.711 59.4194V59.9846C210.711 61.3979 208.447 62.2458 208.447 62.5284L208.165 62.8111V63.3763C207.882 64.5069 207.316 67.616 207.033 68.7465C206.467 70.1598 207.033 71.8556 207.316 72.7035C207.316 72.9862 207.599 73.2688 208.165 74.1167L208.73 74.3994ZM211.842 62.2458C212.408 63.9416 212.974 65.6375 212.974 67.0507C212.974 69.3118 212.125 70.1598 211.559 70.4424V70.725C211.559 70.725 210.711 71.573 209.296 72.1382C209.013 72.1382 209.013 72.1382 209.013 72.1382C208.73 71.2903 208.447 70.1598 208.73 69.3118C209.013 67.8986 209.579 65.0722 209.579 63.9416C210.145 63.659 210.993 63.0937 211.842 62.2458Z" fill="#171753"/>
<path d="M210.71 70.4429C210.71 65.3554 207.033 59.1372 202.79 56.5935C200.809 55.4629 198.829 55.1803 197.698 56.0282C197.698 56.0282 192.889 58.0067 187.231 64.2248C181.857 70.4429 177.048 72.9867 177.048 72.9867L182.14 84.2924C182.14 84.2924 189.494 81.1833 196.283 80.3354C203.921 79.4875 208.447 75.5305 208.447 75.5305L208.73 75.2478C210.144 74.3999 210.71 72.9867 210.71 70.4429Z" fill="#FFE850"/>
<path d="M181.857 85.4232L182.705 85.1405C182.705 85.1405 189.777 82.0315 196.566 81.1835C204.204 80.3356 209.013 76.3786 209.013 76.096H209.296C210.71 75.2481 211.559 73.2696 211.559 70.4431C211.559 65.073 207.881 58.5722 203.072 56.0284C201.092 54.8978 199.395 54.6152 197.981 54.8978L197.132 55.1805C196.849 55.1805 192.04 57.159 186.383 63.6597C181.008 69.8779 176.482 72.139 176.482 72.139L175.916 72.4216L181.857 85.4232ZM199.112 56.3111C199.961 56.3111 201.092 56.5937 202.224 57.159C206.467 59.7028 209.861 65.6382 209.861 70.4431C209.861 73.2696 209.013 74.1175 208.164 74.6828L207.881 74.9654C207.881 74.9654 203.355 78.9224 196 79.7703C190.343 80.3356 184.685 82.5968 182.422 83.4447L177.896 73.5522C179.311 72.7043 183.271 69.8779 187.514 65.073C191.757 59.9854 196 57.7243 197.132 57.159L197.981 56.5937C198.263 56.5937 198.829 56.3111 199.112 56.3111Z" fill="#171753"/>
<path d="M202.79 56.5935C200.81 55.4629 198.83 55.1803 197.698 56.0282C197.698 56.0282 192.889 58.0067 187.232 64.2248C184.686 67.3339 182.14 69.3124 180.443 70.7256V71.8561C180.443 71.8561 181.009 72.9867 182.706 72.9867C184.12 73.2693 187.798 70.7256 187.798 70.7256C187.798 70.7256 193.738 67.8991 199.678 64.2248C205.336 60.5504 205.902 59.4199 205.902 59.4199C205.053 58.2893 203.922 57.4414 202.79 56.5935Z" fill="#ECFFFE"/>
<path d="M182.423 73.8349C184.403 73.8349 187.798 71.5737 188.081 71.5737C188.081 71.5737 194.021 68.7473 199.961 65.073C205.619 61.6812 206.467 60.268 206.75 59.7028L207.033 59.1375L206.75 58.5722C205.619 57.4416 204.487 56.5937 203.356 56.0284C201.376 54.8978 199.678 54.6152 198.264 54.8978L197.415 55.1805C197.133 55.1805 192.324 57.159 186.666 63.6597C184.403 66.2035 182.14 68.4647 179.877 70.1605L179.594 70.4432L179.311 72.139V72.4216C179.594 72.7043 180.726 73.8349 182.423 73.8349ZM204.77 59.4201C204.204 59.9854 202.507 61.3986 199.113 63.6597C193.455 67.3341 187.515 70.1605 187.515 70.1605C186.1 71.0084 183.554 72.4216 182.706 72.4216C181.857 72.4216 181.574 72.139 181.291 71.8564V71.2911C183.554 69.3126 185.818 67.0514 187.798 64.7903C192.041 59.7028 196.284 57.4416 197.415 56.8763L197.981 56.5937C199.113 56.0284 200.81 56.3111 202.507 57.159C203.356 58.0069 204.204 58.5722 204.77 59.4201Z" fill="#171753"/>
<path d="M201.375 69.3122C197.698 71.2907 190.343 74.3997 190.343 74.3997C190.343 74.3997 187.797 75.2477 186.948 75.5303C186.1 76.0956 186.665 79.2047 186.665 79.2047C186.665 79.2047 186.665 80.9005 186.948 82.3137C189.494 81.7484 192.889 80.6179 196.283 80.3352C203.921 79.4873 208.447 75.5303 208.447 75.5303L208.73 75.2477C210.144 74.3997 210.71 72.9865 210.71 70.4428C210.71 68.1816 209.861 65.6378 208.73 63.3767C208.73 65.0726 205.052 67.0511 201.375 69.3122Z" fill="#171753"/>
<path d="M186.665 83.4441H186.948C190.343 82.3135 193.455 81.7482 196 81.4656C204.204 80.335 209.013 76.378 209.013 76.0954H209.296C210.71 75.2475 211.559 73.269 211.559 70.4425C211.559 68.1814 210.993 65.6376 209.578 63.0938L209.296 62.5286L207.881 62.8112V63.3765C207.881 64.7897 203.638 67.0508 201.092 68.464C197.415 70.4425 190.343 73.5516 190.06 73.8342C189.211 74.1169 187.514 74.6822 186.665 74.9648C185.251 75.5301 185.534 78.0739 185.817 79.4871C185.817 79.4871 185.817 81.1829 186.1 82.5961V82.8788L186.665 83.4441ZM208.73 65.355C209.578 67.0508 209.861 68.7467 209.861 70.4425C209.861 73.269 209.013 74.1169 208.164 74.6822L207.881 74.9648C207.881 74.9648 203.355 78.9218 196 79.7697C193.455 80.0524 190.626 80.6176 187.514 81.7482C187.514 80.6176 187.514 79.7697 187.514 79.7697C187.231 78.3565 187.231 77.2259 187.514 76.9433C188.08 76.0954 189.777 75.5301 190.626 75.2475C190.909 74.9648 197.981 71.8557 201.941 69.8773C205.052 68.1814 207.598 66.7682 208.73 65.355Z" fill="#171753"/>
<path d="M189.495 79.7697C188.929 76.378 187.232 73.2689 184.686 71.0078C181.574 68.1814 178.463 67.3335 176.483 68.464C169.128 72.7036 160.359 70.1599 156.398 68.464C155.267 67.8987 154.135 68.7467 154.135 69.8772C154.135 73.5516 154.135 80.0523 154.135 80.0523C154.418 80.335 153.004 87.1184 153.004 87.1184L175.917 106.338C176.2 106.621 176.766 106.338 176.766 106.055C177.897 93.6192 184.686 88.8142 186.666 87.401C187.515 87.6837 187.515 87.6837 187.515 87.6837L187.798 87.401C189.495 86.2705 190.344 83.7267 189.495 79.7697Z" fill="#FFE850"/>
<path d="M176.766 107.751C177.048 107.751 177.048 107.751 177.331 107.751C177.897 107.469 178.18 107.186 178.18 106.621C179.311 94.4671 185.818 89.9448 187.798 88.8143L188.081 88.5316L188.363 88.249C190.344 86.8358 191.192 83.7267 190.344 79.7697C189.495 76.378 187.798 72.9863 185.252 70.4425C182.14 67.3335 178.746 66.4856 176.2 67.8988C169.411 71.8558 161.207 69.5946 156.964 67.8988C156.116 67.6161 155.267 67.6161 154.701 68.1814C154.135 68.7467 153.57 69.312 153.57 70.1599C153.57 78.3565 153.57 80.0524 153.57 80.6177C153.57 81.1829 153.004 84.5746 152.438 87.4011V87.9664L175.917 107.469C176.2 107.469 176.483 107.751 176.766 107.751ZM187.232 86.8358C187.232 86.8358 186.949 86.8358 187.232 86.8358C184.686 88.249 177.897 93.3365 176.483 105.49L154.418 87.1184C155.55 80.6177 155.267 80.335 155.267 80.0524C155.267 80.0524 155.267 78.9218 155.267 70.1599C155.267 69.8773 155.267 69.5946 155.55 69.5946C155.833 69.5946 156.116 69.312 156.116 69.5946C160.642 71.2905 169.411 73.8343 176.766 69.5946C178.463 68.4641 181.292 69.312 183.837 71.8558C186.1 74.1169 187.798 76.9433 188.646 80.335C189.212 83.4441 188.929 85.9879 187.232 86.8358Z" fill="#171753"/>
<path d="M184.403 71.008C181.292 68.1816 178.18 67.3337 176.2 68.4643C168.845 72.7039 160.076 70.1601 156.116 68.4643C154.984 67.899 153.853 68.7469 153.853 69.8775C153.853 73.5518 153.853 80.0526 153.853 80.0526C153.853 80.3352 153.004 86.5534 152.721 87.1186C159.227 90.5103 163.47 90.5103 163.47 90.5103L164.602 88.2492L171.108 83.1616C171.108 83.1616 173.937 80.0526 178.463 77.5088C182.706 74.965 184.403 72.9865 184.969 71.5733C185.252 71.856 184.686 71.2907 184.403 71.008Z" fill="#ECFFFE"/>
<path d="M164.318 91.9235L165.733 89.3797L172.239 84.2922C172.239 84.2922 175.068 81.1831 179.311 78.6393C182.988 76.3782 185.251 74.3997 186.1 72.4212L186.383 71.8559L186.1 71.2906C185.817 71.008 185.534 70.4427 184.968 70.1601C181.857 67.051 178.462 66.2031 175.916 67.6163C169.127 71.5733 160.924 69.3122 156.681 67.6163C155.832 67.3337 154.984 67.3337 154.418 67.8989C153.852 68.4642 153.286 69.0295 153.286 69.8774C153.286 78.0741 153.286 79.7699 153.286 80.3352C153.286 80.9005 152.721 84.2922 152.155 87.1186V87.6839L152.721 87.9665C159.51 91.6409 163.47 91.6409 163.753 91.6409L164.318 91.9235ZM184.403 72.1386C183.554 73.8344 181.291 75.5303 178.462 77.2261C173.936 80.0525 171.107 82.879 171.107 82.879L164.318 88.2492L163.47 89.945C162.338 89.945 158.944 89.3797 154.135 86.836C155.266 80.6178 155.266 80.3352 154.984 80.0525C154.984 79.7699 154.984 76.9435 154.984 70.1601C154.984 69.8774 154.984 69.5948 155.266 69.5948C155.549 69.5948 155.832 69.3122 155.832 69.5948C160.358 71.2906 169.127 73.8344 176.482 69.5948C178.179 68.4642 181.008 69.3122 183.554 71.8559C184.12 71.8559 184.12 72.1386 184.403 72.1386Z" fill="#171753"/>
<path d="M187.231 87.6839C187.514 87.6839 187.514 87.6839 187.514 87.6839L187.797 87.4013C189.495 86.2707 190.343 83.7269 189.495 79.7699C189.212 78.922 188.929 77.7915 188.646 76.6609C188.646 76.6609 188.646 76.6609 188.363 76.6609C188.08 78.0741 187.231 78.922 182.423 82.0311C177.331 85.1401 175.068 89.3798 174.785 89.6624L169.41 91.9236C169.41 92.4888 170.259 95.3153 170.259 95.8805C170.259 96.4458 173.653 102.381 175.634 105.49L176.199 106.056C176.482 106.338 177.048 106.056 177.331 105.773C178.462 93.902 185.251 88.8145 187.231 87.6839Z" fill="#171753"/>
<path d="M176.765 107.469C177.048 107.469 177.048 107.469 177.331 107.469C177.897 107.186 178.179 106.903 178.179 106.338C179.311 94.4671 185.534 89.9448 187.514 88.5316C187.797 88.5316 187.797 88.249 187.797 88.249L188.08 87.9664C190.06 86.5531 190.909 83.4441 190.06 79.4871C190.06 78.6392 189.777 77.5086 189.494 76.378L189.212 75.8127L187.797 76.0954V76.9433C187.797 77.7912 186.949 78.9218 182.423 81.7482C177.897 84.5746 175.351 88.5316 174.785 89.6622L169.127 91.9233V92.7713C169.693 94.7498 169.976 96.163 169.976 96.7283C169.976 97.0109 169.976 97.5762 175.351 106.903L175.068 106.621L175.634 107.186C175.916 107.469 176.482 107.469 176.765 107.469ZM187.231 86.8358C187.231 86.8358 186.949 86.8358 187.231 86.8358L186.949 87.1184C184.968 88.249 177.897 93.3365 176.765 105.773H176.482C171.956 97.8588 171.39 96.7283 171.39 96.4456C171.39 95.8803 171.107 94.1845 170.825 92.7713L175.634 90.5101L175.916 90.2275C175.916 89.9448 178.462 85.9879 183.271 82.8788C186.1 80.9003 187.797 79.7697 188.646 78.9218C188.646 79.2044 188.929 79.7697 188.929 80.0524C189.494 83.1614 189.212 85.7052 187.514 86.5531L187.231 86.8358Z" fill="#171753"/>
<path d="M177.612 102.946C177.612 90.5098 168.843 75.5298 158.377 69.5943C153.285 66.4852 148.476 66.2026 145.082 68.1811C145.082 68.1811 144.799 68.1811 144.799 68.4637L140.273 70.7248L140.839 72.1381C139.707 74.3992 138.858 77.2256 138.858 80.9C138.858 93.3362 147.628 108.316 158.094 114.252C161.206 115.948 164.034 116.795 166.58 116.795L167.429 117.926L172.238 115.382C175.632 113.121 177.612 108.882 177.612 102.946Z" fill="#FFE850"/>
<path d="M167.429 119.056L172.521 115.947C176.198 113.686 178.461 108.881 178.461 102.946C178.461 90.5094 169.692 74.9641 158.66 68.746C153.568 65.9195 148.759 65.3543 145.082 67.0501L139.142 70.4418L139.99 72.1377C138.859 74.3988 138.01 77.5079 138.01 80.8996C138.01 93.3358 146.779 108.881 157.811 115.099C160.64 116.795 163.469 117.643 166.298 117.926L167.429 119.056ZM149.608 67.6154C152.154 67.6154 154.983 68.4633 157.811 70.1592C168.278 76.0947 176.764 90.792 176.764 102.946C176.764 108.316 175.067 112.555 171.672 114.534L167.712 116.795L166.863 115.947H166.581C164.035 115.947 161.489 115.099 158.66 113.403C148.194 107.468 139.707 92.7705 139.707 80.6169C139.707 77.2252 140.273 74.6814 141.405 72.4203L141.688 72.1377L141.122 71.0071L145.082 68.746C146.496 67.898 148.194 67.6154 149.608 67.6154Z" fill="#171753"/>
<path d="M167.43 85.9875L171.673 83.7264C168.279 77.7909 163.47 72.4207 158.095 69.5943C153.003 66.4852 148.195 66.2026 144.8 68.1811C144.8 68.1811 144.517 68.1811 144.517 68.4637L140.557 70.7248V71.0075L141.123 72.1381C139.991 74.3992 139.142 77.2256 139.142 80.9C139.142 86.2702 140.84 92.2056 143.386 97.5758C145.649 98.7064 147.912 99.5543 149.326 99.5543C154.418 100.12 158.095 97.8585 158.095 97.8585L167.43 85.9875Z" fill="#ECFFFE"/>
<path d="M150.74 100.12C155.267 100.12 158.378 98.1413 158.378 98.1413L158.661 97.8587L167.996 86.553L172.805 83.7266L172.239 82.8786C168.562 76.3779 163.47 71.2903 158.378 68.1813C153.286 65.3548 148.477 64.7896 144.8 66.4854L139.708 69.3118C139.143 69.5945 139.143 70.1598 139.425 70.725L139.708 71.573C138.577 73.8341 138.011 76.9432 138.011 80.3349C138.011 85.7051 139.425 91.6405 142.537 97.2934V97.576H142.82C145.366 98.7066 147.629 99.5545 149.043 99.8372C149.609 100.12 150.175 100.12 150.74 100.12ZM157.53 96.7281C156.964 97.0107 153.569 98.7066 149.326 98.424C147.912 98.424 146.214 97.576 143.951 96.4455C141.406 91.0753 139.708 85.4224 139.708 80.6175C139.708 77.2258 140.274 74.682 141.406 72.4209L141.688 72.1383L141.123 71.0077L145.083 68.7465C148.477 67.0507 153.003 67.616 157.53 70.1598C162.338 72.9862 166.864 77.5084 170.259 83.4439L166.582 85.7051L157.53 96.7281Z" fill="#171753"/>
<path d="M177.612 102.946C177.612 98.7065 176.764 94.4669 174.784 89.9446L170.541 92.2057L155.831 97.8586C155.831 97.8586 152.154 100.12 151.305 100.685C151.022 100.968 150.739 104.077 150.456 107.751C152.719 110.295 155.548 112.556 158.377 114.252C161.489 115.948 164.317 116.796 166.863 116.796L167.712 117.926L172.238 115.382C175.632 113.121 177.612 108.882 177.612 102.946Z" fill="#171753"/>
<path d="M167.429 119.057L172.521 115.948C176.198 113.687 178.461 108.882 178.461 102.946C178.461 98.7067 177.613 94.1844 175.633 89.6621L175.35 88.8142L170.258 91.6406L155.548 97.0108C155.266 97.2935 151.588 99.272 151.022 99.8372C150.74 100.12 150.174 100.403 149.608 107.469V107.751L149.891 108.034C152.437 110.86 155.266 113.121 157.811 114.535C160.64 116.23 163.469 117.078 166.298 117.361L167.429 119.057ZM174.501 91.0753C175.916 95.0323 176.764 99.272 176.764 102.664C176.764 108.034 175.067 112.273 171.672 114.252L167.712 116.513L166.863 115.665H166.581C164.035 115.665 161.489 114.817 158.66 113.121C156.114 111.708 153.568 109.73 151.305 107.186C151.588 102.664 151.871 101.533 152.154 100.968C153.003 100.403 155.548 98.9893 156.397 98.424L171.107 93.0538L174.501 91.0753Z" fill="#171753"/>
<path d="M140.368 102.159C132.791 89.0468 132.79 74.8737 140.367 70.503C147.943 66.1322 160.227 73.2189 167.804 86.3315C175.381 99.4441 175.382 113.617 167.806 117.988C160.229 122.359 147.945 115.272 140.368 102.159Z" fill="#FFE850"/>
<path d="M162.622 119.904C164.602 119.904 166.582 119.339 167.997 118.491C171.957 116.23 174.22 111.425 174.22 105.207C174.22 92.7708 165.451 77.2255 154.418 71.0074C149.044 67.8983 143.952 67.6157 139.992 69.8768C136.031 72.1379 133.768 76.9428 133.768 83.161C133.768 95.5972 142.538 111.143 153.57 117.361C156.681 119.056 159.793 119.904 162.622 119.904ZM145.366 70.1594C147.912 70.1594 150.741 71.0074 153.57 72.7032C164.036 78.6387 172.523 93.3361 172.523 105.49C172.523 111.143 170.542 115.382 167.148 117.361C163.753 119.339 159.227 118.774 154.418 115.947C143.952 109.729 135.466 95.0319 135.466 82.8783C135.466 77.2255 137.446 72.9859 140.84 71.0074C142.255 70.4421 143.669 70.1594 145.366 70.1594Z" fill="#171753"/>
<path d="M167.996 102.664C168.279 112.274 161.773 116.231 153.852 111.426C145.932 106.903 139.143 95.3152 139.143 85.7053C138.86 76.0955 145.366 72.1385 153.287 76.9434C161.207 81.7484 167.996 93.054 167.996 102.664Z" fill="#FFE850"/>
<path d="M160.075 114.252C161.489 114.252 162.904 113.97 164.318 113.122C167.43 111.426 169.127 107.469 168.844 102.664C168.561 92.7715 161.772 81.1832 153.569 76.3783C149.609 74.1172 145.648 73.5519 142.537 75.5304C139.425 77.2262 137.728 81.1832 138.011 85.9881C138.294 95.8806 145.083 107.469 153.286 112.274C155.832 113.404 158.095 114.252 160.075 114.252ZM167.147 102.664C167.147 107.186 166.015 110.295 163.47 111.709C161.207 113.122 157.812 112.839 154.418 110.861C146.497 106.338 140.274 95.3153 139.991 85.9881C139.991 81.4659 141.122 78.3568 143.668 76.9436C145.931 75.5304 149.326 75.813 152.72 77.7915C160.641 82.0311 167.147 93.3368 167.147 102.664Z" fill="#171753"/>
<path d="M153.287 76.9432C150.175 75.2474 147.346 74.6821 145.083 75.2474C142.82 76.9432 141.406 80.3349 141.406 84.8572C141.689 94.467 148.195 105.773 156.115 110.578C159.227 112.273 162.056 112.839 164.319 112.273C166.582 110.578 167.996 107.186 167.996 102.664C167.996 93.0538 161.207 81.4655 153.287 76.9432Z" fill="#FFE850"/>
<path d="M162.621 113.121C163.187 113.121 164.036 113.121 164.602 112.839H164.884C167.713 110.86 169.128 107.186 168.845 102.664C168.562 92.7711 161.773 81.1828 153.569 76.3779C150.458 74.682 147.346 73.8341 144.8 74.682H144.517C141.689 76.6605 140.274 80.3349 140.557 84.8571C140.84 94.7496 147.629 106.338 155.832 111.143C158.095 112.556 160.358 113.121 162.621 113.121ZM164.036 111.143C161.773 111.708 159.51 111.143 156.681 109.447C148.761 104.925 142.537 93.9017 142.254 84.5745C142.254 80.6175 143.386 77.5084 145.366 75.8126C147.629 75.2473 149.892 75.8126 152.721 77.5084C160.641 82.0307 166.865 93.0537 167.148 102.381C167.43 106.621 166.299 109.73 164.036 111.143Z" fill="#171753"/>
<path d="M165.45 91.6406C162.904 85.4225 158.378 79.7697 153.286 76.9432C150.174 75.2474 147.346 74.6821 145.083 75.2474C142.82 76.9432 141.405 80.3349 141.405 84.8572C141.405 91.6406 144.8 98.9893 149.609 104.642C149.609 104.36 150.174 91.358 165.45 91.6406Z" fill="#171753"/>
<path d="M150.457 106.903V104.642C150.457 104.077 151.023 92.7711 165.167 92.7711C165.45 92.7711 165.45 92.7711 165.733 92.7711H167.147L166.581 91.6405C163.752 85.1398 158.944 79.4869 153.852 76.3779C150.74 74.682 147.629 73.8341 145.083 74.682H144.8C141.971 76.6605 140.557 80.3349 140.839 84.8571C140.839 91.6405 144.234 99.2719 149.043 105.207L150.457 106.903ZM164.318 90.7926C153.003 91.0752 149.892 98.7066 149.043 102.381C145.083 97.0107 142.537 90.2273 142.254 84.5745C142.254 80.6175 143.385 77.5084 145.365 75.8126C147.629 75.2473 149.892 75.8126 152.72 77.5084C157.246 80.3348 161.489 85.1398 164.318 90.7926Z" fill="#171753"/>
<path d="M152.721 89.9446L156.964 97.2933L166.016 93.0537C164.601 89.662 162.621 86.2703 160.358 83.4438L152.721 89.9446Z" fill="#FFE850"/>
<path d="M156.398 98.4238L167.147 93.3362L166.864 92.4883C165.45 88.8139 163.47 85.4222 161.207 82.5958L160.641 82.0305L151.589 89.6619L156.398 98.4238ZM164.884 92.4883L157.246 96.1626L153.852 90.2271L160.641 84.5743C162.055 86.8354 163.752 89.6619 164.884 92.4883Z" fill="#171753"/>
<path d="M156.964 97.2933L166.016 93.0537C165.45 91.3578 164.601 89.9446 163.753 88.2488L156.964 92.4884L155.832 93.0537L154.701 93.3363L156.964 97.2933Z" fill="#171753"/>
<path d="M156.398 98.4243L167.147 93.3367L166.864 92.4888C166.298 90.7929 165.45 89.0971 164.601 87.6839L164.035 86.8359L155.266 92.2061L153.286 93.0541L156.398 98.4243ZM164.884 92.4888L157.246 96.1631L155.832 93.902H156.115L157.246 93.3367L163.47 89.3797C164.035 90.5103 164.601 91.3582 164.884 92.4888Z" fill="#171753"/>
<path d="M157.812 95.3146C157.812 93.3361 156.398 91.075 154.701 90.2271C153.852 89.6618 153.286 89.6618 152.721 89.9444C152.438 90.2271 152.155 90.2271 152.155 90.7924C151.306 92.2056 151.872 94.4667 151.872 94.4667H152.438C151.872 94.4667 153.003 96.4452 153.003 96.4452C154.418 97.5758 155.549 97.8584 156.115 97.8584C156.398 97.8584 156.681 97.8584 156.964 97.5758C157.529 96.7279 157.812 96.1626 157.812 95.3146Z" fill="#ECFFFE"/>
<path d="M155.833 98.4237C156.115 98.4237 156.115 98.4237 156.115 98.4237C156.681 98.4237 156.964 98.1411 157.53 97.8584L157.813 97.5758C158.096 97.2932 158.661 96.4452 158.661 95.3147C158.661 93.0535 157.247 90.5098 155.267 89.3792C154.418 88.8139 153.287 88.8139 152.438 89.0965C152.155 89.3792 151.589 89.6618 151.589 90.2271C150.458 91.923 151.024 94.1841 151.306 94.4667L151.589 95.032H152.155C152.155 95.3147 152.438 95.88 153.004 96.7279L152.438 97.0105C153.57 97.8584 154.701 98.4237 155.833 98.4237ZM153.57 90.5098C153.852 90.5098 154.135 90.5098 154.418 90.7924C155.833 91.6403 156.964 93.6188 156.964 95.3147C156.964 95.88 156.964 96.1626 156.681 96.4452L156.398 96.7279C155.833 96.7279 154.984 96.7279 153.852 95.5973C153.852 95.3147 153.57 95.3147 153.57 95.032H154.135L153.287 93.6188L152.438 93.3362C152.438 92.7709 152.438 91.6403 152.721 91.075C152.721 90.7924 153.004 90.7924 153.004 90.7924L153.57 90.5098C153.287 90.5098 153.287 90.5098 153.57 90.5098Z" fill="#171753"/>
<path d="M154.418 95.598C154.418 96.4459 153.853 97.0112 153.004 96.4459C152.155 95.8806 151.59 94.7501 151.59 93.9021C151.59 93.0542 152.155 92.4889 153.004 93.0542C153.853 93.3368 154.418 94.7501 154.418 95.598Z" fill="#ECFFFE"/>
<path d="M153.57 97.5766C153.852 97.5766 154.135 97.5766 154.418 97.2939C154.984 97.0113 155.267 96.446 155.267 95.5981C155.267 94.1849 154.418 92.7717 153.287 92.2064C152.721 91.9237 151.872 91.9237 151.307 92.2064C150.741 92.489 150.458 93.0543 150.458 93.9022C150.458 95.3154 151.307 96.7286 152.438 97.2939C153.004 97.2939 153.287 97.5766 153.57 97.5766ZM152.438 93.6196C153.004 93.9022 153.57 95.0328 153.57 95.5981V95.8807C153.57 95.8807 153.57 95.8807 153.287 95.8807C152.721 95.3154 152.438 94.4675 152.438 93.6196C152.438 93.9022 152.438 93.6196 152.438 93.6196Z" fill="#171753"/>
<path d="M203.922 86.2702C203.922 80.9 205.336 78.6389 205.619 78.3562C210.145 76.6604 211.277 73.8339 211.56 72.7034L212.691 72.1381C214.954 70.4422 214.671 67.3332 214.671 67.0505L212.974 67.3332C212.974 67.3332 213.257 69.5943 211.56 70.7249L209.862 71.8555V72.1381C209.862 72.1381 209.297 74.9645 204.77 76.6604L204.488 76.943C204.488 77.2256 202.225 79.2041 202.225 86.2702H203.922Z" fill="#FFE850"/>
<path d="M196.284 81.1827C201.093 80.3347 206.185 78.0736 206.468 78.0736L205.619 76.6604C205.619 76.6604 200.527 78.9215 196.001 79.7695L196.284 81.1827Z" fill="#FFE850"/>
<path d="M230.504 19.8661L261.556 1.97427C263.33 0.939208 264.957 0.791342 266.139 1.38281L276.342 7.74106V7.88892C275.899 8.77612 271.611 17.6481 271.315 19.2746C271.167 20.014 269.836 26.6679 268.357 34.5049V38.4972C268.357 40.7152 267.618 43.229 266.287 45.2991C264.661 53.4317 263.33 60.5293 263.33 60.6772L258.746 71.4714C258.746 71.4714 258.598 71.6193 258.598 71.4714L248.1 65.4089V65.261L248.839 63.043C248.987 62.008 249.135 60.8251 249.283 59.6421L235.827 74.5766H235.679L225.92 68.5141C225.92 68.5141 225.772 68.5141 225.772 68.3662C224.589 67.6269 223.85 66.1482 223.85 64.0781V31.5475C223.702 27.4073 226.807 22.0841 230.504 19.8661Z" fill="#FFE850"/>
<path d="M235.532 75.6114C235.827 75.6114 236.123 75.4636 236.419 75.1678L247.657 62.7471C247.657 62.7471 247.657 62.7471 247.657 62.8949L246.917 64.9651C246.769 65.4087 246.917 66.0001 247.361 66.2958L258.303 72.6541L258.895 72.5062C259.19 72.3584 259.486 72.2105 259.634 71.9148L264.366 60.8248L267.323 45.5946C268.654 43.2287 269.541 40.715 269.541 38.3491V34.5046C271.463 25.0412 272.35 19.8658 272.498 19.4222C272.794 18.3872 275.308 12.9161 277.526 8.1844C277.821 7.59293 277.526 7.00147 277.082 6.70574L266.288 0.0517532L265.992 0.199619C264.513 -0.243979 262.739 0.0517532 261.113 1.08682L230.061 18.9786C226.068 21.3445 222.815 26.9634 222.815 31.5473V64.0779C222.815 66.4437 223.702 68.2181 225.181 69.2532L225.329 69.401L234.94 75.4636C235.236 75.6114 235.384 75.6114 235.532 75.6114ZM250.318 56.8324L235.532 73.3934L226.364 67.7745L225.625 68.5138L226.068 67.6266C225.181 67.0352 224.737 65.8522 224.737 64.2257V31.6951C224.737 27.8506 227.547 22.8232 230.948 20.9009L262 3.00908C263.331 2.26975 264.661 1.97401 265.549 2.41761L275.012 8.1844C273.681 11.1417 270.576 17.5 270.28 18.9786C270.132 19.5701 269.245 24.4497 267.323 34.3567V34.5046V38.497C267.323 40.4193 266.584 42.6372 265.401 44.7074L265.253 44.8552V45.0031L262.295 60.2333L258.155 69.9925L249.135 64.8172L249.727 63.3385C250.023 62.1556 250.17 60.8248 250.17 59.7897L250.318 56.8324Z" fill="#171753"/>
<path d="M230.505 19.8653L260.522 2.56494L275.309 11.7327L243.222 28.7373L236.715 29.7723L226.66 23.8577C227.548 22.2312 229.026 20.7525 230.505 19.8653Z" fill="white"/>
<path d="M236.419 30.9553L243.665 29.6245L277.23 11.8806L260.522 1.38208L229.913 19.126C228.287 20.0132 226.808 21.4919 225.477 23.2663L224.886 24.1535L236.419 30.9553ZM242.778 27.8501L236.715 28.7373L227.991 23.562C228.878 22.3791 229.913 21.4919 231.096 20.9004L260.669 3.89581L273.238 11.7327L242.778 27.8501Z" fill="#171753"/>
<path d="M234.053 35.0966C234.053 35.0966 246.622 38.0539 247.509 38.3497C248.249 38.6454 260.521 48.5524 264.662 53.1363C263.774 57.4244 263.183 60.3817 263.183 60.5296L258.599 71.3239C258.599 71.3239 258.451 71.4717 258.451 71.3239L247.953 65.2613V65.1135L248.692 62.8955C248.84 61.8604 248.988 60.6775 249.136 59.4946L235.68 74.429H235.532L225.773 68.3665C225.773 68.3665 225.625 68.3665 225.625 68.2187C224.442 67.4793 223.703 66.0007 223.703 63.9305V31.4C223.703 30.6606 223.851 29.7734 223.998 28.8862L234.053 35.0966Z" fill="#171753"/>
<path d="M224.995 33.7802L232.456 38.3027L231.766 39.4408L224.305 34.9183L224.995 33.7802Z" fill="#FFE850"/>
<path d="M225.016 63.803L232.476 68.3247L231.787 69.4628L224.326 64.9411L225.016 63.803Z" fill="#FFE850"/>
<path d="M240.411 26.0767L271.61 8.18491C275.307 5.96691 278.264 7.74131 278.264 12.0294V44.56C278.264 48.8481 275.307 54.0235 271.61 56.2414L268.062 58.3116C267.47 58.6073 266.879 59.4945 266.731 60.3817C266.287 62.7476 264.956 67.9229 259.929 71.7674C258.894 72.5067 258.154 71.9153 258.45 70.5845C258.746 69.1058 259.19 67.0357 259.19 65.1134C259.19 64.2262 258.598 63.9305 257.859 64.3741L240.558 74.429C236.862 76.4991 233.904 74.8726 233.904 70.5845V38.0539C233.757 33.47 236.714 28.2947 240.411 26.0767Z" fill="#FFE850"/>
<path d="M237.453 76.2039C238.489 76.2039 239.819 75.9081 241.002 75.1688L258.155 65.2618C258.155 67.184 257.711 68.9584 257.415 70.2892C257.12 71.3243 257.415 72.2115 258.155 72.803C258.894 73.2466 259.781 73.0987 260.521 72.5072C265.696 68.6627 267.322 63.3395 267.766 60.5301C267.914 60.0865 268.21 59.495 268.505 59.1993L272.054 57.1291C276.194 54.7633 279.3 49.2922 279.3 44.7084V12.1778C279.3 9.66406 278.412 7.88967 276.786 7.00247C275.159 6.11527 273.089 6.26314 271.019 7.44607L239.967 25.4858C235.975 27.8516 232.722 33.3227 232.722 38.0544V70.585C232.722 73.0987 233.609 74.8731 235.235 75.7603C235.827 76.056 236.566 76.2039 237.453 76.2039ZM258.303 63.0438C258.007 63.0438 257.563 63.1917 257.12 63.3395L239.819 73.3944C238.341 74.2816 237.01 74.4295 236.123 73.838C235.235 73.2466 234.644 72.0636 234.644 70.4371V37.9065C234.644 33.9141 237.453 29.1824 240.854 27.1123L272.054 9.0726C273.533 8.1854 274.864 8.03753 275.751 8.629C276.638 9.22046 277.229 10.4034 277.229 12.0299V44.5605C277.229 48.5529 274.42 53.2846 271.019 55.3547L267.47 57.4249C266.583 58.0163 265.844 59.0514 265.696 60.0865C265.252 62.6002 263.922 67.184 259.486 70.585C259.929 68.5148 260.225 66.5926 260.225 64.9661C260.225 64.2267 259.929 63.4874 259.338 63.1917C259.042 63.0438 258.746 63.0438 258.303 63.0438Z" fill="#171753"/>
<path d="M246.621 35.2455C250.613 29.6266 254.902 31.8446 255.937 33.1754C256.972 30.6617 261.408 23.4162 265.252 24.4513C269.392 25.6342 268.505 30.5138 266.583 36.2806C264.956 41.0123 257.711 53.4331 256.085 56.0947C255.937 56.3904 255.641 56.5383 255.493 56.3904C253.571 55.3554 246.917 51.5108 245.29 48.5535C243.368 45.1526 242.481 41.1602 246.621 35.2455Z" fill="white"/>
<path d="M255.641 57.5728C256.085 57.5728 256.676 57.2771 256.972 56.6856C259.042 53.1368 265.844 41.3075 267.471 36.7237C269.245 31.4005 269.689 27.9995 268.506 25.9294C267.914 24.7465 266.879 24.0072 265.401 23.5636C261.26 22.3806 257.12 28.1474 255.494 31.5483C254.606 30.9569 253.571 30.6611 252.24 30.6611C250.614 30.6611 248.1 31.4005 245.734 34.8014C241.003 41.6032 242.481 46.0392 244.404 49.2923C246.178 52.3975 252.388 56.0941 255.05 57.5728C255.346 57.5728 255.494 57.5728 255.641 57.5728ZM264.513 25.338C264.661 25.338 264.809 25.338 265.105 25.338C265.992 25.6337 266.583 26.0773 266.879 26.6688C267.914 28.7389 266.731 32.8791 265.696 35.8365C264.218 40.2725 257.416 51.9539 255.494 55.0591C251.649 52.8411 247.361 49.8838 246.178 47.9615C244.551 45.152 243.368 41.4554 247.509 35.6886C248.987 33.6185 250.614 32.4355 252.388 32.4355C253.867 32.4355 254.902 33.1749 255.198 33.6185L255.494 34.0621L256.676 33.9142L256.972 33.3227C258.007 30.9569 261.704 25.338 264.513 25.338Z" fill="#171753"/>
<path d="M255.641 50.9186C255.641 50.9186 253.423 49.8835 251.353 48.1091L255.641 50.9186Z" fill="#FFE850"/>
</svg>
