<svg width="237" height="137" viewBox="0 0 237 137" fill="none" xmlns="http://www.w3.org/2000/svg">
<g opacity="0.3" filter="url(#filter0_d_140_6182)">
<rect x="4" y="56" width="229" height="72.0552" rx="16" fill="#8989C7"/>
</g>
<path d="M66.5089 99.38C65.1889 99.38 64.0556 99.1467 63.1089 98.68C62.1622 98.2133 61.3889 97.6067 60.7889 96.86C60.2022 96.1133 59.7689 95.3 59.4889 94.42C59.2089 93.54 59.0689 92.6933 59.0689 91.88V91.44C59.0689 90.5333 59.2089 89.64 59.4889 88.76C59.7822 87.88 60.2289 87.08 60.8289 86.36C61.4289 85.64 62.1889 85.0667 63.1089 84.64C64.0422 84.2 65.1422 83.98 66.4089 83.98C67.7289 83.98 68.8756 84.22 69.8489 84.7C70.8356 85.1667 71.6222 85.8333 72.2089 86.7C72.7956 87.5533 73.1489 88.5533 73.2689 89.7H70.4089C70.3022 89.0333 70.0622 88.4733 69.6889 88.02C69.3289 87.5533 68.8689 87.2067 68.3089 86.98C67.7489 86.74 67.1156 86.62 66.4089 86.62C65.6889 86.62 65.0489 86.7467 64.4889 87C63.9289 87.24 63.4622 87.5867 63.0889 88.04C62.7156 88.4933 62.4289 89.0267 62.2289 89.64C62.0422 90.2533 61.9489 90.9333 61.9489 91.68C61.9489 92.4 62.0422 93.0667 62.2289 93.68C62.4289 94.2933 62.7222 94.8333 63.1089 95.3C63.4956 95.7533 63.9689 96.1067 64.5289 96.36C65.1022 96.6133 65.7622 96.74 66.5089 96.74C67.6022 96.74 68.5222 96.4733 69.2689 95.94C70.0289 95.3933 70.4889 94.6333 70.6489 93.66H73.5089C73.3756 94.7 73.0222 95.6533 72.4489 96.52C71.8756 97.3867 71.0889 98.08 70.0889 98.6C69.0889 99.12 67.8956 99.38 66.5089 99.38ZM80.9055 99.38C79.9455 99.38 79.0988 99.2267 78.3655 98.92C77.6321 98.6133 77.0121 98.2 76.5055 97.68C75.9988 97.1467 75.6121 96.5467 75.3455 95.88C75.0921 95.2133 74.9655 94.52 74.9655 93.8V93.38C74.9655 92.6333 75.0988 91.9267 75.3655 91.26C75.6455 90.58 76.0388 89.98 76.5455 89.46C77.0655 88.9267 77.6921 88.5133 78.4255 88.22C79.1588 87.9133 79.9855 87.76 80.9055 87.76C81.8255 87.76 82.6521 87.9133 83.3855 88.22C84.1188 88.5133 84.7388 88.9267 85.2455 89.46C85.7655 89.98 86.1588 90.58 86.4255 91.26C86.6921 91.9267 86.8255 92.6333 86.8255 93.38V93.8C86.8255 94.52 86.6921 95.2133 86.4255 95.88C86.1721 96.5467 85.7921 97.1467 85.2855 97.68C84.7788 98.2 84.1588 98.6133 83.4255 98.92C82.6921 99.2267 81.8521 99.38 80.9055 99.38ZM80.9055 97C81.5855 97 82.1588 96.8533 82.6255 96.56C83.0921 96.2533 83.4455 95.8467 83.6855 95.34C83.9255 94.82 84.0455 94.2333 84.0455 93.58C84.0455 92.9133 83.9188 92.3267 83.6655 91.82C83.4255 91.3 83.0655 90.8933 82.5855 90.6C82.1188 90.2933 81.5588 90.14 80.9055 90.14C80.2521 90.14 79.6855 90.2933 79.2055 90.6C78.7388 90.8933 78.3788 91.3 78.1255 91.82C77.8721 92.3267 77.7455 92.9133 77.7455 93.58C77.7455 94.2333 77.8655 94.82 78.1055 95.34C78.3588 95.8467 78.7188 96.2533 79.1855 96.56C79.6521 96.8533 80.2255 97 80.9055 97ZM89.2597 99V88.14H91.4597V92.8H91.2597C91.2597 91.7067 91.3997 90.7933 91.6797 90.06C91.9597 89.3133 92.373 88.7533 92.9197 88.38C93.4797 87.9933 94.173 87.8 94.9997 87.8H95.1197C95.9597 87.8 96.653 87.9933 97.1997 88.38C97.7597 88.7533 98.173 89.3133 98.4397 90.06C98.7197 90.7933 98.8597 91.7067 98.8597 92.8H98.1597C98.1597 91.7067 98.2997 90.7933 98.5797 90.06C98.873 89.3133 99.293 88.7533 99.8397 88.38C100.4 87.9933 101.093 87.8 101.92 87.8H102.04C102.88 87.8 103.58 87.9933 104.14 88.38C104.7 88.7533 105.12 89.3133 105.4 90.06C105.693 90.7933 105.84 91.7067 105.84 92.8V99H103.06V92.54C103.06 91.86 102.886 91.32 102.54 90.92C102.193 90.5067 101.7 90.3 101.06 90.3C100.42 90.3 99.9064 90.5133 99.5197 90.94C99.133 91.3533 98.9397 91.9133 98.9397 92.62V99H96.1597V92.54C96.1597 91.86 95.9864 91.32 95.6397 90.92C95.293 90.5067 94.7997 90.3 94.1597 90.3C93.5197 90.3 93.0064 90.5133 92.6197 90.94C92.233 91.3533 92.0397 91.9133 92.0397 92.62V99H89.2597ZM108.81 99V88.14H111.01V92.8H110.81C110.81 91.7067 110.95 90.7933 111.23 90.06C111.51 89.3133 111.924 88.7533 112.47 88.38C113.03 87.9933 113.724 87.8 114.55 87.8H114.67C115.51 87.8 116.204 87.9933 116.75 88.38C117.31 88.7533 117.724 89.3133 117.99 90.06C118.27 90.7933 118.41 91.7067 118.41 92.8H117.71C117.71 91.7067 117.85 90.7933 118.13 90.06C118.424 89.3133 118.844 88.7533 119.39 88.38C119.95 87.9933 120.644 87.8 121.47 87.8H121.59C122.43 87.8 123.13 87.9933 123.69 88.38C124.25 88.7533 124.67 89.3133 124.95 90.06C125.244 90.7933 125.39 91.7067 125.39 92.8V99H122.61V92.54C122.61 91.86 122.437 91.32 122.09 90.92C121.744 90.5067 121.25 90.3 120.61 90.3C119.97 90.3 119.457 90.5133 119.07 90.94C118.684 91.3533 118.49 91.9133 118.49 92.62V99H115.71V92.54C115.71 91.86 115.537 91.32 115.19 90.92C114.844 90.5067 114.35 90.3 113.71 90.3C113.07 90.3 112.557 90.5133 112.17 90.94C111.784 91.3533 111.59 91.9133 111.59 92.62V99H108.81ZM132.061 99.34C130.808 99.34 129.835 98.9267 129.141 98.1C128.461 97.2733 128.121 96.0467 128.121 94.42V88.12H130.901V94.66C130.901 95.3267 131.088 95.86 131.461 96.26C131.835 96.6467 132.341 96.84 132.981 96.84C133.621 96.84 134.141 96.6333 134.541 96.22C134.955 95.8067 135.161 95.2467 135.161 94.54V88.12H137.941V99H135.741V94.38H135.961C135.961 95.4733 135.821 96.3867 135.541 97.12C135.261 97.8533 134.841 98.4067 134.281 98.78C133.721 99.1533 133.021 99.34 132.181 99.34H132.061ZM141.135 99V88.14H143.335V92.8H143.135C143.135 91.6933 143.281 90.7733 143.575 90.04C143.868 89.2933 144.301 88.7333 144.875 88.36C145.461 87.9867 146.188 87.8 147.055 87.8H147.175C148.468 87.8 149.448 88.22 150.115 89.06C150.781 89.8867 151.115 91.1267 151.115 92.78V99H148.335V92.54C148.335 91.8733 148.141 91.3333 147.755 90.92C147.381 90.5067 146.861 90.3 146.195 90.3C145.515 90.3 144.961 90.5133 144.535 90.94C144.121 91.3533 143.915 91.9133 143.915 92.62V99H141.135ZM154.623 99V88.14H157.403V99H154.623ZM153.103 90.22V88.14H157.403V90.22H153.103ZM155.643 86.84C155.097 86.84 154.69 86.7 154.423 86.42C154.17 86.1267 154.043 85.7667 154.043 85.34C154.043 84.8867 154.17 84.52 154.423 84.24C154.69 83.96 155.097 83.82 155.643 83.82C156.19 83.82 156.59 83.96 156.843 84.24C157.097 84.52 157.223 84.8867 157.223 85.34C157.223 85.7667 157.097 86.1267 156.843 86.42C156.59 86.7 156.19 86.84 155.643 86.84ZM165.327 99.14C164.327 99.14 163.501 99.0133 162.847 98.76C162.207 98.4933 161.727 98.0533 161.407 97.44C161.087 96.8133 160.927 95.9733 160.927 94.92L160.947 85.08H163.547L163.527 95.1C163.527 95.6333 163.667 96.0467 163.947 96.34C164.241 96.62 164.654 96.76 165.187 96.76H166.887V99.14H165.327ZM159.207 90.18V88.14H166.887V90.18H159.207ZM168.901 103.28V100.9H170.941C171.327 100.9 171.647 100.847 171.901 100.74C172.167 100.647 172.387 100.487 172.561 100.26C172.734 100.047 172.867 99.7467 172.961 99.36L175.881 88.14H178.541L175.321 99.96C175.107 100.773 174.807 101.42 174.421 101.9C174.034 102.393 173.534 102.747 172.921 102.96C172.321 103.173 171.574 103.28 170.681 103.28H168.901ZM172.281 98.76V96.56H174.601V98.76H172.281ZM171.341 98.76L167.821 88.14H170.621L173.961 98.76H171.341Z" fill="#171753"/>
<path d="M91.6468 20.3243L114.233 7.25987C115.561 6.48486 116.669 6.37415 117.554 6.81701L124.972 11.3563V11.4671C124.64 12.1313 121.54 18.5528 121.319 19.7707C121.208 20.3243 120.211 25.1958 119.104 30.8422V33.7208C119.104 35.2708 118.551 37.153 117.554 38.703C116.447 44.6817 115.451 49.7746 115.34 49.8853L104.933 53.4282H104.158V53.3175L104.711 51.6567C104.822 50.8817 104.933 49.996 105.043 49.1103L95.3004 59.9604H95.1897L88.104 55.5318C88.104 55.5318 87.9932 55.5318 87.9932 55.421C87.1075 54.8675 86.6646 53.871 86.6646 52.321V28.8494C86.7754 25.7493 88.9897 21.8743 91.6468 20.3243Z" fill="#8989C7"/>
<path d="M95.4109 60.846C95.6324 60.846 95.8538 60.7353 96.0752 60.5138L104.157 51.5459L103.382 53.6495L104.157 54.203H105.265L116.115 50.5494L116.336 50.1066C116.336 49.9959 117.333 45.0137 118.44 39.0351C119.436 37.2636 119.99 35.4922 119.99 33.8314V31.0636C121.65 22.5385 122.093 20.3242 122.204 20.1027C122.425 19.3277 124.197 15.4527 125.858 12.0205C126.079 11.5776 125.858 11.1348 125.525 10.9134L117.775 6.1526H117.665C116.558 5.82045 115.34 6.04188 114.011 6.70617L91.3145 19.6599C88.4359 21.3206 86.0001 25.5278 86.0001 28.8492V52.5423C86.0001 54.3138 86.6644 55.6423 87.7716 56.3066L94.9681 60.7353C95.0788 60.846 95.1895 60.846 95.4109 60.846ZM106.04 47.1173L95.1895 59.1852L88.5466 55.0888L87.993 55.6424L88.4359 54.9781C87.7716 54.5352 87.4394 53.6495 87.4394 52.5423V28.8492C87.4394 25.9706 89.543 22.4277 91.9787 20.9885L114.565 7.92405C115.561 7.37047 116.447 7.25975 117.111 7.5919L123.865 11.7991C122.868 13.9027 120.654 18.5527 120.433 19.6599C120.322 20.1027 119.547 23.867 118.218 30.8421V30.9528V33.8314C118.218 35.2707 117.665 36.9315 116.779 38.3708L116.668 38.5922C115.672 43.5744 114.897 48.003 114.565 49.3316L105.154 52.4316L105.375 51.7673C105.597 50.8816 105.707 49.9959 105.707 49.2209L106.04 47.1173Z" fill="#171753"/>
<path d="M91.6468 20.3242L113.458 7.70264L124.086 14.3456L100.725 26.7457L95.9647 27.5207L88.6575 23.2028C89.5432 21.9849 90.5397 20.9885 91.6468 20.3242Z" fill="#E3E0EB"/>
<path d="M95.9648 28.2957L101.279 27.4099L125.858 14.4563L113.679 6.81689L91.3147 19.6599C90.2076 20.3242 89.1004 21.4313 88.104 22.7599L87.6611 23.4242L95.9648 28.2957ZM100.615 25.9706L96.2969 26.6349L89.9861 22.8706C90.6504 21.9849 91.4254 21.4313 92.2004 20.9885L113.569 8.58834L122.647 14.3455L100.615 25.9706Z" fill="#171753"/>
<path d="M94.1935 31.3958C94.1935 31.3958 103.383 33.4994 103.936 33.7208C104.379 33.9422 113.347 41.1387 116.447 44.4602C115.783 47.6709 106.815 53.2067 106.815 53.2067L103.383 61.5104L95.6328 56.971L95.4113 59.9603H95.3006L88.2149 55.5317C88.2149 55.5317 88.1041 55.5317 88.1041 55.421C87.2184 54.8674 86.7755 53.871 86.7755 52.321V28.8493C86.7755 28.2958 86.8863 27.6315 86.997 27.0779L94.1935 31.3958Z" fill="#171753"/>
<path d="M87.7309 30.3833L93.1304 33.6504L92.6145 34.5029L87.215 31.2359L87.7309 30.3833Z" fill="#E3E0EB"/>
<path d="M87.6991 52.3034L93.0986 55.5698L92.5829 56.4224L87.1834 53.1559L87.6991 52.3034Z" fill="#E3E0EB"/>
<path d="M121.54 11.7993L98.9539 24.8637C96.2967 26.4137 94.0824 30.1781 94.0824 33.2781V56.9712C94.0824 60.0712 96.2967 61.3998 98.9539 59.7391L101.5 58.2998C101.943 58.0783 102.386 58.1891 102.497 58.6319C102.829 60.0712 103.825 62.6177 107.479 61.1784C108.143 60.8462 108.808 59.7391 108.586 59.0748C108.365 58.2998 108.033 57.0819 108.033 55.7533C108.033 55.089 108.475 54.4247 109.029 54.0926L121.651 46.7854C124.308 45.2354 126.522 41.471 126.522 38.371V14.5672C126.411 11.4672 124.197 10.2493 121.54 11.7993Z" fill="#8989C7"/>
<path d="M105.376 62.3961C106.04 62.3961 106.815 62.1747 107.701 61.8425C108.808 61.3997 109.583 59.8497 109.251 58.8532C109.029 58.1889 108.808 57.0818 108.808 55.7532C108.808 55.4211 109.14 54.8675 109.361 54.7568L121.983 47.4496C124.972 45.7888 127.297 41.6924 127.297 38.3709V14.5671C127.297 12.7957 126.633 11.4671 125.526 10.6921C124.308 10.0278 122.869 10.1385 121.319 11.0242L98.7328 24.0886C95.7435 25.7493 93.4185 29.8458 93.4185 33.1673V56.8604C93.4185 58.6318 94.0828 59.9604 95.1899 60.7354C96.4078 61.3997 97.8471 61.289 99.3971 60.4033L101.833 58.9639C102.054 59.9604 102.608 61.289 103.826 61.8425C104.158 62.2854 104.711 62.3961 105.376 62.3961ZM123.644 11.9099C123.976 11.9099 124.308 12.0206 124.529 12.1314C125.194 12.5742 125.526 13.3492 125.526 14.5671V38.2602C125.526 41.0281 123.422 44.6817 120.987 46.0103L108.365 53.3175C107.59 53.7603 107.036 54.7568 107.036 55.6425C107.036 56.8604 107.258 58.0782 107.59 59.1854C107.701 59.4068 107.369 60.1818 106.926 60.2925C105.819 60.7354 104.933 60.8461 104.269 60.514C103.494 60.0711 103.161 58.9639 103.051 58.4104C102.94 57.9675 102.719 57.6354 102.276 57.4139C101.833 57.1925 101.39 57.3032 100.947 57.5246L98.4007 58.9639C97.2935 59.5175 96.4078 59.739 95.7435 59.2961C95.0792 58.8532 94.747 58.0782 94.747 56.8604V33.278C94.747 30.5101 96.8506 26.8565 99.2864 25.5279L121.872 12.4635C122.537 12.1314 123.09 11.9099 123.644 11.9099Z" fill="#171753"/>
<path d="M118.532 29.1244C118.532 29.1244 120.643 29.2563 120.247 34.2698C119.852 39.2832 118.137 41.5261 118.137 41.5261L114.047 42.9773C114.047 42.9773 113.915 43.1093 113.783 43.3731C111.144 47.0673 107.582 49.0462 104.943 48.3866L103.36 47.9908L103.624 37.3042C103.624 37.3042 105.867 35.4572 107.054 33.3462C108.11 31.3672 106.658 31.1034 106.79 28.7286C106.922 26.3538 108.637 22.1319 110.484 22C112.331 22 111.54 24.1109 111.144 25.958C110.748 27.937 111.804 29.6521 113.123 30.4437C114.574 31.2353 114.97 32.0269 114.97 32.0269C114.97 32.0269 115.894 30.3118 118.532 29.1244Z" fill="#E3E0EB" stroke="#171753" stroke-width="1.2"/>
<path d="M114.838 43.3731C115.63 41.7899 115.894 39.5471 115.894 39.4151L114.047 39.2832C114.047 39.2832 113.915 41.2622 113.255 42.4496L114.838 43.3731Z" fill="#171753"/>
<path d="M114.442 34.0061H116.29C116.29 31.8952 115.894 31.4994 115.762 31.3674L114.311 32.4229C114.442 32.5548 114.442 33.3464 114.442 34.0061Z" fill="#171753"/>
<path d="M101.38 42.3177L106.526 39.2832C107.317 38.7555 107.977 37.5681 107.977 36.5126C107.977 35.4572 107.317 34.9294 106.526 35.4572L101.38 38.4916C100.589 39.0193 99.9291 40.2067 99.9291 41.2622C99.9291 42.3177 100.589 42.7135 101.38 42.3177Z" fill="#E3E0EB" stroke="#171753" stroke-width="1.2"/>
<path d="M101.777 45.3525L106.263 42.7138C106.922 42.318 107.45 41.2626 107.45 40.3391C107.45 39.4155 106.922 39.0197 106.263 39.4155L101.777 42.0542C101.117 42.45 100.59 43.5054 100.59 44.429C100.59 45.3525 101.117 45.7483 101.777 45.3525Z" fill="#E3E0EB" stroke="#171753" stroke-width="1.2"/>
<path d="M102.305 48.2549L106.263 46.0121C106.922 45.6163 107.45 44.5608 107.45 43.6373C107.45 42.7137 106.922 42.3179 106.263 42.7137L102.305 44.9566C101.645 45.3524 101.117 46.4079 101.117 47.3314C101.117 48.2549 101.645 48.6507 102.305 48.2549Z" fill="#E3E0EB" stroke="#171753" stroke-width="1.2"/>
<path d="M102.964 51.157L105.734 49.5738C106.394 49.178 106.922 48.1226 106.922 47.199C106.922 46.2755 106.394 45.8797 105.734 46.2755L102.964 47.8587C102.304 48.2545 101.776 49.31 101.776 50.2335C101.776 51.157 102.304 51.5528 102.964 51.157Z" fill="#E3E0EB" stroke="#171753" stroke-width="1.2"/>
<path d="M128.904 8.62164C130.328 8.72807 131.501 9.38515 132.174 9.83918C132.72 8.77175 133.914 6.55999 135.441 4.68292C136.307 3.61839 137.311 2.62131 138.4 2.01259C139.503 1.39591 140.746 1.15342 141.995 1.71658L142.041 1.7371L142.082 1.76486L148.437 6.01554L148.329 6.17713L148.826 6.46973L148.621 6.81866L148.298 7.36629L144.139 14.4304L138.233 30.7978L139.23 31.0473L139.684 31.161V31.6293V35.1203C139.684 35.2764 139.643 35.4334 139.551 35.5715C139.462 35.7058 139.347 35.788 139.25 35.8365C139.155 35.8838 139.068 35.9045 139.01 35.9143C138.979 35.9194 138.952 35.9222 138.93 35.9237C138.919 35.9245 138.91 35.925 138.901 35.9253L138.889 35.9256L138.884 35.9256L138.881 35.9257L138.88 35.9257H138.879C138.879 35.9257 138.879 35.9257 138.879 35.3257L138.879 35.9257L138.721 35.9257L138.584 35.8484L132.024 32.152L131.981 32.1281L131.943 32.0975L123.857 25.6171C123.836 25.6093 123.82 25.6022 123.808 25.5973C123.723 25.5594 123.628 25.5046 123.536 25.4447C123.346 25.3204 123.098 25.1304 122.827 24.8765C122.284 24.368 121.624 23.5806 121.137 22.5079C120.147 20.3263 119.93 17.0874 122.581 12.8355C123.59 11.1341 124.666 10.0386 125.755 9.38826C126.852 8.73328 127.931 8.54892 128.904 8.62164Z" fill="#E3E0EB" stroke="#171753" stroke-width="1.2"/>
<path d="M129.449 17.4605C129.449 17.4605 132.319 17.2552 132.934 17.4605C133.549 17.4605 139.7 20.3355 139.7 20.3355L140.725 22.5944L137.444 31.4246L139.085 31.8353V35.3264C139.085 35.5317 138.88 35.5317 138.88 35.5317L132.319 31.8353L124.119 25.264C124.119 25.264 118.379 21.773 122.684 13.9695L129.449 17.4605Z" fill="#8989C7"/>
<path d="M139.084 36.1469C139.289 36.1469 139.494 36.1469 139.494 35.9416C139.699 35.7362 139.904 35.5309 139.904 35.1202V31.0131L138.469 30.6024L141.544 22.1828L140.314 19.3079L139.904 19.1025C137.444 18.0757 133.344 16.4329 132.934 16.2275C132.524 16.2275 130.474 16.2275 129.449 16.2275L122.068 12.3258L121.658 13.1472C117.148 21.5668 123.298 25.4685 123.503 25.6739L131.704 32.2452L138.264 35.9416C138.674 36.1469 138.879 36.1469 139.084 36.1469ZM138.469 32.4506V34.0934L132.934 31.0131L124.733 24.4417C124.528 24.2364 120.018 21.3614 123.093 14.9954L129.244 18.2811H129.449C130.884 18.2811 132.524 18.0757 132.729 18.2811C133.139 18.4864 136.624 19.7186 139.084 20.9507L139.699 22.5935L136.214 32.0398L138.469 32.4506Z" fill="#171753"/>
<path d="M138.34 12.4812L133.01 9.60623V9.40086C133.42 8.57944 134.65 6.11519 136.29 4.06165L142.85 7.96339L144.9 11.8651L144.08 13.0973L143.055 15.7669L140.8 17.615L138.34 12.4812Z" fill="#8989C7"/>
<path d="M140.506 18.8739L143.786 16.4097L144.811 13.5347L145.836 11.8919L143.581 7.37409L135.996 3.06165L135.586 3.67772C133.946 5.73126 132.716 8.19551 132.101 9.22228C131.896 9.63299 132.101 9.83835 132.101 10.0437V10.4544L137.431 13.3294L140.506 18.8739ZM142.351 15.3829L141.121 16.4097L138.866 12.0973L133.946 9.22228C134.356 8.40087 135.381 6.75803 136.406 5.11519L142.146 8.40086L143.786 11.6865L143.171 12.7133L142.351 15.3829Z" fill="#171753"/>
<path d="M129.654 16.8436C133.549 10.2723 138.059 13.7633 138.879 14.3794C138.879 14.3794 139.084 14.3794 139.084 14.174C139.904 12.5312 144.209 4.11167 148.309 5.95987C153.23 8.42412 147.284 19.3079 147.284 19.3079L139.289 35.3256C139.289 35.5309 139.084 35.5309 139.084 35.5309L130.884 28.9596C130.884 28.9596 124.734 25.0578 129.654 16.8436Z" fill="#8989C7" stroke="#171753" stroke-width="1.2"/>
<path d="M140.725 11.5047L133.959 7.80835L132.524 10.6833L139.085 14.3797L140.725 11.5047Z" fill="#171753"/>
<path d="M129.45 28.1383L126.17 26.9062L122.479 24.0312L121.249 20.9509V17.6652L121.659 16.6384L127.81 19.9241L127.4 22.3884L128.22 25.2633L129.45 28.1383Z" fill="#171753"/>
<defs>
<filter id="filter0_d_140_6182" x="0" y="56" width="237" height="80.0552" filterUnits="userSpaceOnUse" color-interpolation-filters="sRGB">
<feFlood flood-opacity="0" result="BackgroundImageFix"/>
<feColorMatrix in="SourceAlpha" type="matrix" values="0 0 0 0 0 0 0 0 0 0 0 0 0 0 0 0 0 0 127 0" result="hardAlpha"/>
<feOffset dy="4"/>
<feGaussianBlur stdDeviation="2"/>
<feComposite in2="hardAlpha" operator="out"/>
<feColorMatrix type="matrix" values="0 0 0 0 0.0901961 0 0 0 0 0.0901961 0 0 0 0 0.32549 0 0 0 0.25 0"/>
<feBlend mode="normal" in2="BackgroundImageFix" result="effect1_dropShadow_140_6182"/>
<feBlend mode="normal" in="SourceGraphic" in2="effect1_dropShadow_140_6182" result="shape"/>
</filter>
</defs>
</svg>
