<svg width="300" height="180" viewBox="0 0 300 180" fill="none" xmlns="http://www.w3.org/2000/svg">
<rect width="300" height="180" fill="#5ED9D1"/>
<path d="M26.24 136.08V133.44H29.26C30.02 133.44 30.6933 133.327 31.28 133.1C31.88 132.86 32.3867 132.527 32.8 132.1C33.2133 131.673 33.5267 131.173 33.74 130.6C33.9667 130.013 34.08 129.367 34.08 128.66C34.08 127.927 33.9667 127.273 33.74 126.7C33.5267 126.113 33.2133 125.613 32.8 125.2C32.3867 124.787 31.88 124.473 31.28 124.26C30.6933 124.047 30.02 123.94 29.26 123.94H26.24V121.3H29.08C30.4 121.3 31.5533 121.493 32.54 121.88C33.5267 122.267 34.3467 122.8 35 123.48C35.6533 124.147 36.14 124.913 36.46 125.78C36.7933 126.633 36.96 127.52 36.96 128.44V128.88C36.96 129.76 36.7933 130.627 36.46 131.48C36.14 132.333 35.6533 133.107 35 133.8C34.3467 134.493 33.5267 135.047 32.54 135.46C31.5533 135.873 30.4 136.08 29.08 136.08H26.24ZM23.8 136.08V121.3H26.64V136.08H23.8ZM45.8631 136V132.78H45.4031V129.2C45.4031 128.573 45.2498 128.107 44.9431 127.8C44.6365 127.493 44.1631 127.34 43.5231 127.34C43.1898 127.34 42.7898 127.347 42.3231 127.36C41.8565 127.373 41.3831 127.393 40.9031 127.42C40.4365 127.433 40.0165 127.453 39.6431 127.48V125.12C39.9498 125.093 40.2965 125.067 40.6831 125.04C41.0698 125.013 41.4631 125 41.8631 125C42.2765 124.987 42.6631 124.98 43.0231 124.98C44.1431 124.98 45.0698 125.127 45.8031 125.42C46.5498 125.713 47.1098 126.173 47.4831 126.8C47.8698 127.427 48.0631 128.247 48.0631 129.26V136H45.8631ZM42.3631 136.28C41.5765 136.28 40.8831 136.14 40.2831 135.86C39.6965 135.58 39.2365 135.18 38.9031 134.66C38.5831 134.14 38.4231 133.513 38.4231 132.78C38.4231 131.98 38.6165 131.327 39.0031 130.82C39.4031 130.313 39.9565 129.933 40.6631 129.68C41.3831 129.427 42.2231 129.3 43.1831 129.3H45.7031V130.96H43.1431C42.5031 130.96 42.0098 131.12 41.6631 131.44C41.3298 131.747 41.1631 132.147 41.1631 132.64C41.1631 133.133 41.3298 133.533 41.6631 133.84C42.0098 134.147 42.5031 134.3 43.1431 134.3C43.5298 134.3 43.8831 134.233 44.2031 134.1C44.5365 133.953 44.8098 133.713 45.0231 133.38C45.2498 133.033 45.3765 132.567 45.4031 131.98L46.0831 132.76C46.0165 133.52 45.8298 134.16 45.5231 134.68C45.2298 135.2 44.8165 135.6 44.2831 135.88C43.7631 136.147 43.1231 136.28 42.3631 136.28ZM55.7609 136.14C54.7609 136.14 53.9343 136.013 53.2809 135.76C52.6409 135.493 52.1609 135.053 51.8409 134.44C51.5209 133.813 51.3609 132.973 51.3609 131.92L51.3809 122.08H53.9809L53.9609 132.1C53.9609 132.633 54.1009 133.047 54.3809 133.34C54.6743 133.62 55.0876 133.76 55.6209 133.76H57.3209V136.14H55.7609ZM49.6409 127.18V125.14H57.3209V127.18H49.6409ZM66.1952 136V132.78H65.7352V129.2C65.7352 128.573 65.5818 128.107 65.2752 127.8C64.9685 127.493 64.4952 127.34 63.8552 127.34C63.5218 127.34 63.1218 127.347 62.6552 127.36C62.1885 127.373 61.7152 127.393 61.2352 127.42C60.7685 127.433 60.3485 127.453 59.9752 127.48V125.12C60.2818 125.093 60.6285 125.067 61.0152 125.04C61.4018 125.013 61.7952 125 62.1952 125C62.6085 124.987 62.9952 124.98 63.3552 124.98C64.4752 124.98 65.4018 125.127 66.1352 125.42C66.8818 125.713 67.4418 126.173 67.8152 126.8C68.2018 127.427 68.3952 128.247 68.3952 129.26V136H66.1952ZM62.6952 136.28C61.9085 136.28 61.2152 136.14 60.6152 135.86C60.0285 135.58 59.5685 135.18 59.2352 134.66C58.9152 134.14 58.7552 133.513 58.7552 132.78C58.7552 131.98 58.9485 131.327 59.3352 130.82C59.7352 130.313 60.2885 129.933 60.9952 129.68C61.7152 129.427 62.5552 129.3 63.5152 129.3H66.0352V130.96H63.4752C62.8352 130.96 62.3418 131.12 61.9952 131.44C61.6618 131.747 61.4952 132.147 61.4952 132.64C61.4952 133.133 61.6618 133.533 61.9952 133.84C62.3418 134.147 62.8352 134.3 63.4752 134.3C63.8618 134.3 64.2152 134.233 64.5352 134.1C64.8685 133.953 65.1418 133.713 65.3552 133.38C65.5818 133.033 65.7085 132.567 65.7352 131.98L66.4152 132.76C66.3485 133.52 66.1618 134.16 65.8552 134.68C65.5618 135.2 65.1485 135.6 64.6152 135.88C64.0952 136.147 63.4552 136.28 62.6952 136.28ZM77.753 136.36C76.8596 136.36 76.073 136.173 75.393 135.8C74.713 135.413 74.1796 134.853 73.793 134.12C73.4063 133.387 73.193 132.5 73.153 131.46H73.573V136H71.373V121.4H74.153V128.7L73.413 129.84C73.4663 128.72 73.6863 127.787 74.073 127.04C74.473 126.293 75.0063 125.733 75.673 125.36C76.3396 124.987 77.093 124.8 77.933 124.8C78.6796 124.8 79.3596 124.94 79.973 125.22C80.5863 125.5 81.113 125.893 81.553 126.4C81.993 126.893 82.3263 127.473 82.553 128.14C82.793 128.807 82.913 129.533 82.913 130.32V130.74C82.913 131.527 82.793 132.26 82.553 132.94C82.313 133.62 81.9663 134.22 81.513 134.74C81.0596 135.247 80.513 135.647 79.873 135.94C79.2463 136.22 78.5396 136.36 77.753 136.36ZM77.133 134.02C77.733 134.02 78.253 133.873 78.693 133.58C79.1463 133.273 79.4996 132.86 79.753 132.34C80.0063 131.82 80.133 131.22 80.133 130.54C80.133 129.847 80.0063 129.247 79.753 128.74C79.4996 128.233 79.1463 127.84 78.693 127.56C78.253 127.28 77.733 127.14 77.133 127.14C76.5863 127.14 76.0796 127.26 75.613 127.5C75.1596 127.74 74.7863 128.093 74.493 128.56C74.213 129.027 74.073 129.587 74.073 130.24V131.04C74.073 131.667 74.2196 132.2 74.513 132.64C74.8063 133.08 75.1863 133.42 75.653 133.66C76.1196 133.9 76.613 134.02 77.133 134.02ZM91.9373 136V132.78H91.4773V129.2C91.4773 128.573 91.324 128.107 91.0173 127.8C90.7107 127.493 90.2373 127.34 89.5973 127.34C89.264 127.34 88.864 127.347 88.3973 127.36C87.9307 127.373 87.4573 127.393 86.9773 127.42C86.5107 127.433 86.0907 127.453 85.7173 127.48V125.12C86.024 125.093 86.3707 125.067 86.7573 125.04C87.144 125.013 87.5373 125 87.9373 125C88.3507 124.987 88.7373 124.98 89.0973 124.98C90.2173 124.98 91.144 125.127 91.8773 125.42C92.624 125.713 93.184 126.173 93.5573 126.8C93.944 127.427 94.1373 128.247 94.1373 129.26V136H91.9373ZM88.4373 136.28C87.6507 136.28 86.9573 136.14 86.3573 135.86C85.7707 135.58 85.3107 135.18 84.9773 134.66C84.6573 134.14 84.4973 133.513 84.4973 132.78C84.4973 131.98 84.6907 131.327 85.0773 130.82C85.4773 130.313 86.0307 129.933 86.7373 129.68C87.4573 129.427 88.2973 129.3 89.2573 129.3H91.7773V130.96H89.2173C88.5773 130.96 88.084 131.12 87.7373 131.44C87.404 131.747 87.2373 132.147 87.2373 132.64C87.2373 133.133 87.404 133.533 87.7373 133.84C88.084 134.147 88.5773 134.3 89.2173 134.3C89.604 134.3 89.9573 134.233 90.2773 134.1C90.6107 133.953 90.884 133.713 91.0973 133.38C91.324 133.033 91.4507 132.567 91.4773 131.98L92.1573 132.76C92.0907 133.52 91.904 134.16 91.5973 134.68C91.304 135.2 90.8907 135.6 90.3573 135.88C89.8373 136.147 89.1973 136.28 88.4373 136.28ZM101.055 136.34C99.5618 136.34 98.3885 136.027 97.5352 135.4C96.6952 134.76 96.2552 133.88 96.2152 132.76H98.7152C98.7552 133.133 98.9618 133.473 99.3352 133.78C99.7085 134.087 100.295 134.24 101.095 134.24C101.762 134.24 102.288 134.12 102.675 133.88C103.075 133.64 103.275 133.313 103.275 132.9C103.275 132.54 103.122 132.253 102.815 132.04C102.522 131.827 102.015 131.687 101.295 131.62L100.335 131.52C99.1218 131.387 98.1885 131.04 97.5352 130.48C96.8818 129.92 96.5552 129.173 96.5552 128.24C96.5552 127.493 96.7418 126.867 97.1152 126.36C97.4885 125.853 98.0018 125.473 98.6552 125.22C99.3218 124.953 100.082 124.82 100.935 124.82C102.268 124.82 103.348 125.113 104.175 125.7C105.002 126.287 105.435 127.147 105.475 128.28H102.975C102.948 127.907 102.762 127.587 102.415 127.32C102.068 127.053 101.568 126.92 100.915 126.92C100.328 126.92 99.8752 127.033 99.5552 127.26C99.2352 127.487 99.0752 127.78 99.0752 128.14C99.0752 128.487 99.2018 128.753 99.4552 128.94C99.7218 129.127 100.148 129.253 100.735 129.32L101.695 129.42C102.975 129.553 103.975 129.907 104.695 130.48C105.428 131.053 105.795 131.827 105.795 132.8C105.795 133.52 105.595 134.147 105.195 134.68C104.808 135.2 104.262 135.607 103.555 135.9C102.848 136.193 102.015 136.34 101.055 136.34ZM112.952 136.38C112.018 136.38 111.198 136.22 110.492 135.9C109.798 135.58 109.218 135.153 108.752 134.62C108.298 134.073 107.952 133.467 107.712 132.8C107.485 132.133 107.372 131.453 107.372 130.76V130.38C107.372 129.66 107.485 128.967 107.712 128.3C107.952 127.62 108.298 127.02 108.752 126.5C109.218 125.967 109.792 125.547 110.472 125.24C111.152 124.92 111.938 124.76 112.832 124.76C114.005 124.76 114.985 125.02 115.772 125.54C116.572 126.047 117.172 126.72 117.572 127.56C117.972 128.387 118.172 129.28 118.172 130.24V131.24H108.552V129.54H116.432L115.572 130.38C115.572 129.687 115.472 129.093 115.272 128.6C115.072 128.107 114.765 127.727 114.352 127.46C113.952 127.193 113.445 127.06 112.832 127.06C112.218 127.06 111.698 127.2 111.272 127.48C110.845 127.76 110.518 128.167 110.292 128.7C110.078 129.22 109.972 129.847 109.972 130.58C109.972 131.26 110.078 131.867 110.292 132.4C110.505 132.92 110.832 133.333 111.272 133.64C111.712 133.933 112.272 134.08 112.952 134.08C113.632 134.08 114.185 133.947 114.612 133.68C115.038 133.4 115.312 133.06 115.432 132.66H117.992C117.832 133.407 117.525 134.06 117.072 134.62C116.618 135.18 116.038 135.613 115.332 135.92C114.638 136.227 113.845 136.38 112.952 136.38ZM28.78 160.38C27.4867 160.38 26.3933 160.173 25.5 159.76C24.62 159.347 23.9467 158.78 23.48 158.06C23.0133 157.327 22.78 156.5 22.78 155.58H25.56C25.56 155.967 25.6667 156.347 25.88 156.72C26.0933 157.08 26.4333 157.373 26.9 157.6C27.38 157.827 28.0067 157.94 28.78 157.94C29.4733 157.94 30.0533 157.84 30.52 157.64C30.9867 157.44 31.3333 157.18 31.56 156.86C31.7867 156.527 31.9 156.153 31.9 155.74C31.9 155.22 31.68 154.807 31.24 154.5C30.8 154.18 30.12 153.98 29.2 153.9L27.92 153.8C26.52 153.68 25.4 153.247 24.56 152.5C23.7333 151.74 23.32 150.74 23.32 149.5C23.32 148.567 23.54 147.767 23.98 147.1C24.42 146.42 25.0333 145.9 25.82 145.54C26.62 145.167 27.5533 144.98 28.62 144.98C29.7267 144.98 30.68 145.173 31.48 145.56C32.28 145.947 32.9 146.493 33.34 147.2C33.78 147.893 34 148.713 34 149.66H31.22C31.22 149.26 31.12 148.893 30.92 148.56C30.7333 148.213 30.4467 147.94 30.06 147.74C29.6867 147.527 29.2067 147.42 28.62 147.42C28.06 147.42 27.5933 147.513 27.22 147.7C26.8467 147.887 26.5667 148.14 26.38 148.46C26.1933 148.78 26.1 149.127 26.1 149.5C26.1 149.953 26.2667 150.353 26.6 150.7C26.9333 151.033 27.46 151.227 28.18 151.28L29.46 151.4C30.5 151.48 31.4133 151.7 32.2 152.06C32.9867 152.42 33.5933 152.907 34.02 153.52C34.46 154.133 34.68 154.873 34.68 155.74C34.68 156.66 34.44 157.473 33.96 158.18C33.48 158.873 32.7933 159.413 31.9 159.8C31.02 160.187 29.98 160.38 28.78 160.38ZM37.0566 160V145.4H39.8366V153.92H39.3566C39.3566 152.827 39.4966 151.9 39.7766 151.14C40.0566 150.38 40.4699 149.8 41.0166 149.4C41.5766 149 42.2832 148.8 43.1366 148.8H43.2566C44.4966 148.8 45.4366 149.227 46.0766 150.08C46.7166 150.933 47.0366 152.173 47.0366 153.8V160H44.2566V153.54C44.2566 152.847 44.0566 152.3 43.6566 151.9C43.2699 151.5 42.7566 151.3 42.1166 151.3C41.4366 151.3 40.8832 151.527 40.4566 151.98C40.0432 152.42 39.8366 153 39.8366 153.72V160H37.0566ZM56.6053 160V156.78H56.1453V153.2C56.1453 152.573 55.992 152.107 55.6853 151.8C55.3786 151.493 54.9053 151.34 54.2653 151.34C53.932 151.34 53.532 151.347 53.0653 151.36C52.5986 151.373 52.1253 151.393 51.6453 151.42C51.1786 151.433 50.7586 151.453 50.3853 151.48V149.12C50.692 149.093 51.0386 149.067 51.4253 149.04C51.812 149.013 52.2053 149 52.6053 149C53.0186 148.987 53.4053 148.98 53.7653 148.98C54.8853 148.98 55.812 149.127 56.5453 149.42C57.292 149.713 57.852 150.173 58.2253 150.8C58.612 151.427 58.8053 152.247 58.8053 153.26V160H56.6053ZM53.1053 160.28C52.3186 160.28 51.6253 160.14 51.0253 159.86C50.4386 159.58 49.9786 159.18 49.6453 158.66C49.3253 158.14 49.1653 157.513 49.1653 156.78C49.1653 155.98 49.3586 155.327 49.7453 154.82C50.1453 154.313 50.6986 153.933 51.4053 153.68C52.1253 153.427 52.9653 153.3 53.9253 153.3H56.4453V154.96H53.8853C53.2453 154.96 52.752 155.12 52.4053 155.44C52.072 155.747 51.9053 156.147 51.9053 156.64C51.9053 157.133 52.072 157.533 52.4053 157.84C52.752 158.147 53.2453 158.3 53.8853 158.3C54.272 158.3 54.6253 158.233 54.9453 158.1C55.2786 157.953 55.552 157.713 55.7653 157.38C55.992 157.033 56.1186 156.567 56.1453 155.98L56.8253 156.76C56.7586 157.52 56.572 158.16 56.2653 158.68C55.972 159.2 55.5586 159.6 55.0253 159.88C54.5053 160.147 53.8653 160.28 53.1053 160.28ZM61.7831 160V149.14H63.9831V153.74H63.9231C63.9231 152.18 64.2565 151 64.9231 150.2C65.5898 149.4 66.5698 149 67.8631 149H68.2631V151.42H67.5031C66.5698 151.42 65.8431 151.673 65.3231 152.18C64.8165 152.673 64.5631 153.393 64.5631 154.34V160H61.7831ZM74.5448 160.36C73.7848 160.36 73.0848 160.22 72.4448 159.94C71.8048 159.66 71.2515 159.267 70.7848 158.76C70.3182 158.253 69.9582 157.667 69.7048 157C69.4515 156.32 69.3248 155.587 69.3248 154.8V154.38C69.3248 153.607 69.4448 152.88 69.6848 152.2C69.9382 151.52 70.2848 150.927 70.7248 150.42C71.1782 149.913 71.7182 149.52 72.3448 149.24C72.9848 148.947 73.6915 148.8 74.4648 148.8C75.3182 148.8 76.0648 148.987 76.7048 149.36C77.3582 149.72 77.8782 150.267 78.2648 151C78.6515 151.733 78.8648 152.653 78.9048 153.76L78.0848 152.8V145.4H80.8648V160H78.6648V155.38H79.1448C79.1048 156.487 78.8782 157.413 78.4648 158.16C78.0515 158.893 77.5048 159.447 76.8248 159.82C76.1582 160.18 75.3982 160.36 74.5448 160.36ZM75.1648 158.02C75.7115 158.02 76.2115 157.9 76.6648 157.66C77.1182 157.407 77.4782 157.047 77.7448 156.58C78.0248 156.1 78.1648 155.54 78.1648 154.9V154.1C78.1648 153.46 78.0248 152.927 77.7448 152.5C77.4648 152.06 77.0982 151.727 76.6448 151.5C76.1915 151.26 75.6982 151.14 75.1648 151.14C74.5648 151.14 74.0315 151.287 73.5648 151.58C73.1115 151.86 72.7515 152.26 72.4848 152.78C72.2315 153.3 72.1048 153.907 72.1048 154.6C72.1048 155.293 72.2382 155.9 72.5048 156.42C72.7715 156.927 73.1315 157.32 73.5848 157.6C74.0515 157.88 74.5782 158.02 75.1648 158.02ZM84.5492 160V149.14H87.3292V160H84.5492ZM83.0292 151.22V149.14H87.3292V151.22H83.0292ZM85.5692 147.84C85.0226 147.84 84.6159 147.7 84.3492 147.42C84.0959 147.127 83.9692 146.767 83.9692 146.34C83.9692 145.887 84.0959 145.52 84.3492 145.24C84.6159 144.96 85.0226 144.82 85.5692 144.82C86.1159 144.82 86.5159 144.96 86.7692 145.24C87.0226 145.52 87.1492 145.887 87.1492 146.34C87.1492 146.767 87.0226 147.127 86.7692 147.42C86.5159 147.7 86.1159 147.84 85.5692 147.84ZM90.5331 160V149.14H92.7331V153.8H92.5331C92.5331 152.693 92.6798 151.773 92.9731 151.04C93.2665 150.293 93.6998 149.733 94.2731 149.36C94.8598 148.987 95.5865 148.8 96.4531 148.8H96.5731C97.8665 148.8 98.8465 149.22 99.5131 150.06C100.18 150.887 100.513 152.127 100.513 153.78V160H97.7331V153.54C97.7331 152.873 97.5398 152.333 97.1531 151.92C96.7798 151.507 96.2598 151.3 95.5931 151.3C94.9131 151.3 94.3598 151.513 93.9331 151.94C93.5198 152.353 93.3131 152.913 93.3131 153.62V160H90.5331ZM107.742 164.28C107.222 164.28 106.689 164.26 106.142 164.22C105.609 164.18 105.109 164.127 104.642 164.06V161.74C105.122 161.793 105.635 161.84 106.182 161.88C106.729 161.933 107.242 161.96 107.722 161.96C108.615 161.96 109.335 161.853 109.882 161.64C110.442 161.427 110.849 161.087 111.102 160.62C111.369 160.167 111.502 159.587 111.502 158.88V156.74L112.102 155.38C112.062 156.38 111.855 157.233 111.482 157.94C111.109 158.633 110.602 159.167 109.962 159.54C109.322 159.9 108.582 160.08 107.742 160.08C106.995 160.08 106.315 159.94 105.702 159.66C105.102 159.38 104.582 158.993 104.142 158.5C103.715 158.007 103.382 157.427 103.142 156.76C102.902 156.093 102.782 155.38 102.782 154.62V154.2C102.782 153.44 102.902 152.733 103.142 152.08C103.395 151.413 103.749 150.833 104.202 150.34C104.655 149.847 105.195 149.467 105.822 149.2C106.449 148.933 107.142 148.8 107.902 148.8C108.795 148.8 109.569 148.993 110.222 149.38C110.889 149.767 111.409 150.327 111.782 151.06C112.155 151.793 112.362 152.693 112.402 153.76L111.922 153.84V149.14H114.122V158.72C114.122 160.04 113.895 161.107 113.442 161.92C112.989 162.733 112.289 163.327 111.342 163.7C110.409 164.087 109.209 164.28 107.742 164.28ZM108.542 157.7C109.075 157.7 109.562 157.58 110.002 157.34C110.442 157.1 110.795 156.753 111.062 156.3C111.329 155.847 111.462 155.3 111.462 154.66V153.96C111.462 153.347 111.322 152.827 111.042 152.4C110.775 151.973 110.422 151.653 109.982 151.44C109.542 151.213 109.062 151.1 108.542 151.1C107.955 151.1 107.435 151.24 106.982 151.52C106.542 151.787 106.195 152.167 105.942 152.66C105.689 153.153 105.562 153.74 105.562 154.42C105.562 155.087 105.689 155.667 105.942 156.16C106.195 156.653 106.542 157.033 106.982 157.3C107.435 157.567 107.955 157.7 108.542 157.7Z" fill="#171753"/>
<path d="M166.907 100.817C166.907 100.817 166.907 52.0745 166.907 51.4516C166.907 51.4516 166.907 51.2958 166.752 51.2958L142.833 57.5249L149.667 43.9766H149.511L126.835 57.2135C126.835 57.2135 126.835 57.2135 126.68 57.2135L123.884 56.4348C123.729 56.4348 123.729 56.4348 123.729 56.5906C123.729 57.3692 123.729 105.645 123.729 105.801C123.729 106.268 125.438 107.584 124.505 107.046L139.105 115.456C140.348 116.234 141.901 116.234 143.143 115.456L166.13 102.219C166.596 101.752 166.907 101.284 166.907 100.817Z" fill="#8989C7"/>
<path d="M134.205 63.8799L140.475 67.0309V115.617L134.205 111.801V63.8799Z" fill="#ECFFFE"/>
<path d="M141.124 116.546C140.348 116.546 139.571 116.39 138.794 115.923L124.195 107.513C123.573 107.202 123.263 106.579 123.107 105.8C123.107 105.645 123.107 105.645 123.107 70.1388C123.107 62.5082 123.107 56.7463 123.107 56.5905C123.107 56.2791 123.263 56.1234 123.418 55.9676C123.573 55.8119 123.884 55.8119 124.039 55.8119L126.524 56.5905L149.045 43.5094C149.356 43.3537 149.511 43.3537 149.822 43.5094L150.288 43.8209L143.765 56.5905L166.596 50.6729H166.752C167.062 50.8286 167.373 51.1401 167.373 51.4515V100.817C167.373 101.596 166.907 102.219 166.286 102.53L143.299 115.767C142.677 116.39 141.901 116.546 141.124 116.546ZM124.35 57.2135C124.35 58.9265 124.35 64.0655 124.35 70.1388C124.35 84.1543 124.35 105.333 124.35 105.645C124.35 105.8 124.505 106.112 124.816 106.268L139.416 114.677C140.503 115.3 141.745 115.3 142.833 114.677L165.82 101.596C166.13 101.44 166.286 101.129 166.286 100.817V52.2302L142.833 58.3036L142.522 58.1478L142.056 57.8364L148.269 45.6896L127.146 57.6806C126.99 57.8364 126.68 57.8364 126.524 57.6806L124.35 57.2135Z" fill="#171753"/>
<path d="M166.751 51.2959L142.832 57.525L140.968 62.8197V115.767C141.745 115.767 142.366 115.611 143.143 115.3L166.13 102.063C166.596 101.752 166.906 101.284 166.906 100.817C166.906 100.817 166.906 52.0745 166.751 51.2959C166.906 51.2959 166.906 51.4516 166.751 51.2959Z" fill="#8989C7"/>
<path d="M141.124 116.546C140.968 116.546 140.968 116.546 141.124 116.546H140.347V62.664L142.366 56.5906L142.832 56.902L166.751 50.6729H166.906C167.217 50.8287 167.528 51.1401 167.528 51.4516V100.817C167.528 101.596 167.062 102.375 166.44 102.686L143.453 115.923C142.677 116.39 141.9 116.546 141.124 116.546ZM141.59 62.9754V115.144C142.055 115.144 142.366 114.988 142.832 114.677L165.819 101.596C166.13 101.44 166.285 101.129 166.285 100.817V52.2302L143.298 58.1479L141.59 62.9754Z" fill="#171753"/>
<path d="M125.902 58.4592C125.902 58.4592 126.058 57.8363 126.368 57.0576L123.883 56.4347C123.728 56.4347 123.728 56.4347 123.728 56.5905C123.728 57.3691 123.728 105.645 123.728 105.8C123.728 106.268 124.039 106.735 124.505 107.046L125.902 107.825V62.0409V58.4592Z" fill="#171753"/>
<path d="M126.524 108.759L124.038 107.358C123.417 107.046 123.107 106.423 122.951 105.645C122.951 105.489 122.951 105.489 122.951 69.9831C122.951 62.3524 122.951 56.5905 122.951 56.4348C122.951 56.1233 123.107 55.9676 123.262 55.8119C123.417 55.6561 123.728 55.6561 123.883 55.6561L127.145 56.5905L126.99 57.2134C126.834 57.8363 126.679 58.3035 126.524 58.4592V108.759ZM124.349 57.2134C124.349 58.9264 124.349 64.0654 124.349 70.1388C124.349 84.1543 124.349 105.333 124.349 105.645C124.349 105.8 124.504 106.112 124.815 106.268L125.281 106.579V58.3035V58.1478C125.281 58.1478 125.436 57.8363 125.592 57.5249L124.349 57.2134Z" fill="#171753"/>
<path d="M139.105 66.0899L124.505 57.5249C123.418 56.902 123.418 55.5004 124.505 54.8775L147.648 41.4849C148.89 40.862 150.288 40.862 151.531 41.4849L166.13 50.05C167.218 50.6729 167.218 52.0744 166.13 52.6973L142.988 66.0899C141.745 66.8685 140.348 66.8685 139.105 66.0899Z" fill="white"/>
<path d="M141.124 67.3357C140.348 67.3357 139.571 67.1799 138.794 66.7127L124.195 58.1477C123.573 57.8363 123.107 57.0576 123.107 56.279C123.107 55.5004 123.573 54.7217 124.195 54.4103L147.337 41.0177C148.735 40.2391 150.443 40.2391 151.841 41.0177L166.441 49.5827C167.062 50.0499 167.528 50.6728 167.528 51.4514C167.528 52.2301 167.062 53.0087 166.441 53.3202L143.299 66.7127C142.677 67.0242 141.901 67.3357 141.124 67.3357ZM149.511 41.6406C148.89 41.6406 148.424 41.7963 147.958 42.1078L124.816 55.5004C124.505 55.6561 124.35 55.9675 124.35 56.279C124.35 56.5905 124.505 56.9019 124.816 57.0576L139.416 65.6227C140.348 66.2456 141.59 66.2456 142.677 65.6227L165.82 52.2301C166.13 52.0744 166.286 51.7629 166.286 51.4514C166.286 51.14 166.13 50.8285 165.82 50.6728L151.22 42.1078C150.754 41.7963 150.133 41.6406 149.511 41.6406Z" fill="#171753"/>
<path d="M166.907 44.5995C166.907 44.5995 166.907 41.6407 166.907 41.0178C166.907 41.0178 166.907 40.862 166.752 40.862L142.833 47.0911L149.667 33.5428H149.512L126.835 46.7797C126.835 46.7797 126.835 46.7797 126.68 46.7797L123.884 46.001C123.729 46.001 123.729 46.001 123.729 46.1568C123.729 46.9354 123.729 49.5828 123.729 49.5828C123.729 50.05 124.04 50.5171 124.505 50.8286L139.105 59.2379C140.348 60.0165 141.901 60.0165 143.144 59.2379L166.131 46.001C166.597 45.5339 166.907 45.0667 166.907 44.5995Z" fill="#8989C7"/>
<path d="M141.124 60.328C140.348 60.328 139.571 60.1723 138.795 59.7051L124.195 51.2958C123.574 50.9844 123.263 50.3614 123.108 49.5828C123.108 49.5828 123.108 49.4271 123.108 46.0011C123.108 45.6896 123.263 45.5339 123.418 45.3782C123.574 45.2224 123.884 45.2224 124.04 45.2224L126.525 46.0011L149.201 33.0757C149.512 32.92 149.667 32.92 149.978 33.0757L150.444 33.3871L143.92 46.1568L166.752 40.2392H166.907C167.218 40.3949 167.529 40.7063 167.529 41.0178V44.7553C167.529 45.3782 167.063 46.1568 166.441 46.4683L143.454 59.7051C142.678 60.1723 141.901 60.328 141.124 60.328ZM124.35 46.7797C124.35 47.7141 124.35 49.4271 124.35 49.4271C124.35 49.5828 124.505 49.8943 124.816 50.05L139.416 58.4593C140.503 59.0822 141.746 59.0822 142.833 58.4593L165.82 45.2224C166.131 45.0667 166.286 44.7553 166.286 44.4438H166.907H166.286V41.6407L142.833 47.7141L142.522 47.5584L142.056 47.2469L148.269 35.1001L127.146 47.2469C126.991 47.4026 126.68 47.4026 126.525 47.2469L124.35 46.7797Z" fill="#171753"/>
<path d="M166.752 40.8621L142.833 47.0912L140.969 52.3859V59.7051C141.746 59.7051 142.367 59.5494 143.144 59.2379L166.131 46.0011C166.597 45.6896 166.907 45.2224 166.907 44.7553C166.907 44.5995 166.907 41.6407 166.752 40.8621C166.907 40.8621 166.907 41.0178 166.752 40.8621Z" fill="#171753"/>
<path d="M141.125 60.328C140.969 60.328 140.969 60.328 141.125 60.328H140.348V52.2301L142.367 46.1568L142.833 46.4682L166.752 40.2391H166.907C167.218 40.3948 167.529 40.7063 167.529 41.0178V44.7552C167.529 45.3781 167.063 46.1568 166.441 46.4682L143.454 59.7051C142.678 60.1723 141.901 60.328 141.125 60.328ZM141.591 52.5416V59.0822C142.057 59.0822 142.367 58.9264 142.678 58.615L165.665 45.3781C165.975 45.2224 166.131 44.9109 166.131 44.5995V41.6407L143.299 47.714L141.591 52.5416Z" fill="#171753"/>
<path d="M125.903 47.8698C125.903 47.8698 126.059 47.2469 126.369 46.4682L123.884 45.6896C123.729 45.6896 123.729 45.6896 123.729 45.8453C123.729 46.624 123.729 49.2713 123.729 49.2713C123.729 49.7385 124.04 50.2057 124.505 50.5172L125.903 51.2958V47.8698V47.8698Z" fill="#171753"/>
<path d="M126.68 52.5416L124.195 51.1401C123.574 50.8286 123.263 50.2057 123.108 49.5828C123.108 49.5828 123.108 49.4271 123.108 46.0011C123.108 45.6896 123.263 45.5339 123.418 45.3782C123.574 45.2224 123.884 45.2224 124.04 45.2224L127.301 46.1568L127.146 46.7797C126.991 47.4026 126.835 47.8698 126.68 48.0255V52.5416V52.5416ZM124.35 46.624C124.35 47.5583 124.35 49.2713 124.35 49.2713C124.35 49.4271 124.505 49.7385 124.816 49.8943L125.282 50.2057V47.5583C125.282 47.5583 125.437 47.2469 125.593 46.9354L124.35 46.624Z" fill="#171753"/>
<path d="M139.105 55.6562L124.505 47.0912C123.418 46.4682 123.418 45.0667 124.505 44.4438L147.648 31.0512C148.89 30.4283 150.288 30.4283 151.531 31.0512L166.131 39.6162C167.218 40.2391 167.218 41.6407 166.131 42.2636L142.988 55.6562C141.746 56.4348 140.348 56.4348 139.105 55.6562Z" fill="white"/>
<path d="M141.124 56.9019C140.348 56.9019 139.571 56.7462 138.795 56.279L124.195 47.714C123.574 47.2468 123.108 46.6239 123.108 45.8453C123.108 45.0666 123.574 44.288 124.195 43.9766L147.337 30.584C148.735 29.8053 150.444 29.8053 151.841 30.584L166.441 39.149C167.063 39.6162 167.528 40.2391 167.528 41.0177C167.528 41.7964 167.063 42.575 166.441 42.8865L143.299 56.279C142.678 56.5905 141.901 56.9019 141.124 56.9019ZM149.512 31.2069C148.89 31.2069 148.424 31.3626 147.958 31.6741L124.816 45.0666C124.505 45.2224 124.35 45.5338 124.35 45.8453C124.35 46.1567 124.505 46.4682 124.816 46.6239L139.416 55.1889C140.348 55.8118 141.59 55.8118 142.678 55.1889L165.82 41.7964C166.131 41.6406 166.286 41.3292 166.286 41.0177C166.286 40.7063 166.131 40.3948 165.82 40.2391L151.22 31.6741C150.754 31.3626 150.133 31.2069 149.512 31.2069Z" fill="#171753"/>
<path d="M125.127 40.0834L139.571 48.4927L154.016 40.3948L139.571 31.8298L125.127 40.0834Z" fill="#ECFFFE"/>
<path d="M139.572 49.2713L123.884 40.0834L139.727 31.0512L155.259 40.2391L139.572 49.2713ZM126.37 40.0834L139.572 47.714L152.618 40.3948L139.572 32.6084L126.37 40.0834Z" fill="#171753"/>
<path d="M140.969 40.0833L149.356 45.0666L157.899 40.2391L149.512 35.2558L140.969 40.0833Z" fill="white"/>
<path d="M149.356 45.8453L139.571 40.2391L149.512 34.6329L159.141 40.3949L149.356 45.8453ZM142.212 40.2391L149.356 44.4438L156.501 40.3949L149.512 36.0345L142.212 40.2391Z" fill="#171753"/>
<path d="M144.23 104.71C144.075 104.71 143.764 104.71 143.609 104.555C143.143 104.243 142.988 103.776 142.988 103.153V100.194C142.988 99.1042 143.609 97.8583 144.541 97.3912L162.868 86.8017C163.334 86.4902 163.8 86.4902 164.111 86.8017C164.577 87.1131 164.732 87.5803 164.732 88.2032V91.1621C164.732 92.2521 164.111 93.498 163.179 93.9652L144.852 104.555C144.696 104.71 144.541 104.71 144.23 104.71ZM163.645 87.4246C163.49 87.4246 163.49 87.4246 163.334 87.5803L145.007 98.1698C144.541 98.4813 143.92 99.4156 143.92 100.194V103.153C143.92 103.465 144.075 103.62 144.075 103.776C144.23 103.776 144.386 103.776 144.386 103.776L162.713 93.1865C163.179 92.8751 163.8 91.9407 163.8 91.1621V88.2032C163.8 87.7361 163.8 87.5803 163.645 87.4246Z" fill="#171753"/>
<path d="M148.89 100.039C148.735 100.039 148.58 100.039 148.424 99.8829C148.114 99.7272 147.959 99.26 147.959 98.9485C147.959 98.1699 148.424 97.3913 149.046 96.9241C149.512 96.7683 149.822 96.6126 150.133 96.9241C150.444 97.0798 150.599 97.547 150.599 97.8584C150.599 98.6371 150.133 99.4157 149.512 99.8829C149.201 99.8829 149.046 100.039 148.89 100.039ZM149.667 97.7027C149.667 97.7027 149.512 97.7027 149.667 97.7027C149.201 98.0142 148.89 98.4813 148.89 98.9485C148.89 99.1043 148.89 99.1043 148.89 99.1043C148.89 99.1043 148.89 99.1043 149.046 99.1043C149.356 98.7928 149.667 98.1699 149.667 97.7027Z" fill="#171753"/>
<path d="M151.996 98.1698C151.841 98.1698 151.686 98.1698 151.531 98.0141C151.22 97.8584 151.065 97.3912 151.065 97.0797C151.065 96.3011 151.531 95.5225 152.152 95.0553C152.618 94.8995 152.928 94.7438 153.239 95.0553C153.55 95.211 153.705 95.6782 153.705 95.9896C153.705 96.7683 153.239 97.5469 152.618 98.0141C152.307 98.1698 152.152 98.1698 151.996 98.1698ZM152.773 95.8339C152.618 95.8339 152.618 95.9896 152.773 95.8339C152.307 96.1454 151.996 96.6126 151.996 97.0797C151.996 97.2355 151.996 97.2355 151.996 97.2355C151.996 97.2355 151.996 97.2355 152.152 97.2355C152.462 96.924 152.773 96.4568 152.773 95.8339C152.773 95.9896 152.773 95.9896 152.773 95.8339Z" fill="#171753"/>
<path d="M156.345 94.2766C156.345 94.8995 155.879 95.5224 155.413 95.8339C154.947 96.1453 154.481 95.8339 154.481 95.3667C154.481 94.7438 154.947 94.1209 155.413 93.8094C155.879 93.498 156.345 93.6537 156.345 94.2766Z" fill="#171753"/>
<path d="M158.054 94.588C157.898 94.588 157.743 94.588 157.588 94.4323C157.277 94.2765 157.122 93.8093 157.122 93.4979C157.122 92.7193 157.588 91.9406 158.209 91.4734C158.675 91.3177 158.986 91.162 159.296 91.4734C159.607 91.6292 159.762 92.0963 159.762 92.4078C159.762 93.1864 159.296 93.9651 158.675 94.4323C158.52 94.588 158.364 94.588 158.054 94.588ZM158.83 92.2521C158.83 92.2521 158.83 92.4078 158.83 92.2521C158.364 92.5635 158.054 93.0307 158.054 93.4979C158.054 93.6536 158.054 93.6536 158.054 93.6536C158.054 93.6536 158.054 93.6536 158.209 93.6536C158.675 93.3422 158.986 92.875 158.83 92.2521C158.83 92.4078 158.986 92.4078 158.83 92.2521Z" fill="#171753"/>
<path d="M161.16 92.8751C161.005 92.8751 160.85 92.8751 160.694 92.7194C160.384 92.5636 160.228 92.0965 160.228 91.785C160.228 91.0064 160.694 90.2277 161.316 89.7606C161.782 89.6048 162.092 89.4491 162.403 89.7606C162.713 89.9163 162.869 90.3835 162.869 90.6949C162.869 91.4736 162.403 92.2522 161.782 92.7194C161.626 92.7194 161.471 92.8751 161.16 92.8751ZM161.937 90.5392C161.471 90.8506 161.16 91.3178 161.16 91.785C161.16 91.9407 161.16 91.9407 161.16 91.9407C161.16 91.9407 161.16 91.9407 161.316 91.9407C161.782 91.6293 162.092 91.0064 161.937 90.5392C161.937 90.5392 162.092 90.5392 161.937 90.5392Z" fill="#171753"/>
<path d="M144.23 93.8093C144.075 93.8093 143.764 93.8093 143.609 93.6536C143.143 93.3421 142.988 92.8749 142.988 92.252V89.2932C142.988 88.2031 143.609 86.9573 144.541 86.4901L162.868 75.9006C163.334 75.5892 163.8 75.5892 164.111 75.9006C164.577 76.2121 164.732 76.6793 164.732 77.3022V80.261C164.732 81.3511 164.111 82.5969 163.179 83.0641L144.852 93.6536C144.696 93.8093 144.541 93.8093 144.23 93.8093ZM163.645 76.5235C163.49 76.5235 163.49 76.5235 163.334 76.6793L145.007 87.2687C144.541 87.5802 143.92 88.5146 143.92 89.2932V92.252C143.92 92.5635 144.075 92.7192 144.075 92.8749C144.23 92.8749 144.386 92.8749 144.386 92.8749L162.713 82.2855C163.179 81.974 163.8 81.0396 163.8 80.261V77.3022C163.956 76.835 163.8 76.6793 163.645 76.5235Z" fill="#ECFFFE"/>
<path d="M145.783 90.8505C145.628 90.8505 145.473 90.8505 145.317 90.6948C145.007 90.5391 144.852 90.0719 144.852 89.7604C144.852 88.9818 145.317 88.2032 145.939 87.736C146.405 87.5803 146.715 87.4245 147.026 87.736C147.337 87.8917 147.492 88.3589 147.492 88.6703C147.492 89.449 147.026 90.2276 146.405 90.6948C146.249 90.8505 145.939 90.8505 145.783 90.8505ZM146.56 88.5146C146.56 88.5146 146.405 88.5146 146.56 88.5146C146.094 88.8261 145.783 89.2933 145.783 89.7604C145.783 89.9162 145.783 89.9162 145.783 89.9162C145.783 89.9162 145.783 89.9162 145.939 89.9162C146.249 89.6047 146.56 89.1375 146.56 88.5146C146.56 88.5146 146.56 88.6703 146.56 88.5146Z" fill="#ECFFFE"/>
<path d="M150.133 86.9573C150.133 87.5802 149.667 88.2031 149.201 88.5146C148.735 88.826 148.269 88.5146 148.269 88.0474C148.269 87.5802 148.735 86.8016 149.201 86.4901C149.667 86.1787 150.133 86.3344 150.133 86.9573Z" fill="#ECFFFE"/>
<path d="M151.996 87.2688C151.841 87.2688 151.686 87.2688 151.531 87.1131C151.22 86.9574 151.065 86.4902 151.065 86.1787C151.065 85.4001 151.531 84.6215 152.152 84.1543C152.618 83.9986 152.928 83.8428 153.239 84.1543C153.55 84.31 153.705 84.7772 153.705 85.0887C153.705 85.8673 153.239 86.6459 152.618 87.1131C152.307 87.2688 152.152 87.2688 151.996 87.2688ZM152.773 84.9329C152.773 84.9329 152.618 84.9329 152.773 84.9329C152.307 85.2444 151.996 85.7116 151.996 86.1787C151.996 86.3345 151.996 86.3345 151.996 86.3345C151.996 86.3345 151.996 86.3345 152.152 86.3345C152.462 86.023 152.773 85.5558 152.773 84.9329C152.773 84.9329 152.773 85.0887 152.773 84.9329Z" fill="#ECFFFE"/>
<path d="M155.103 85.5559C154.947 85.5559 154.792 85.5559 154.637 85.4002C154.326 85.2444 154.171 84.7773 154.171 84.4658C154.171 83.6872 154.637 82.9085 155.258 82.4413C155.569 82.2856 156.035 82.1299 156.345 82.4413C156.656 82.5971 156.811 83.0642 156.811 83.3757C156.811 84.1543 156.345 84.933 155.724 85.4002C155.413 85.4002 155.258 85.5559 155.103 85.5559ZM155.879 83.22C155.879 83.22 155.724 83.22 155.879 83.22C155.413 83.5314 155.103 83.9986 155.103 84.4658C155.103 84.6215 155.103 84.6215 155.103 84.6215C155.103 84.6215 155.103 84.6215 155.258 84.6215C155.569 84.3101 155.879 83.6872 155.879 83.22Z" fill="#ECFFFE"/>
<path d="M158.209 83.6869C158.054 83.6869 157.899 83.6869 157.743 83.5312C157.433 83.3755 157.277 82.9083 157.277 82.5968C157.277 81.8182 157.743 81.0396 158.365 80.5724C158.831 80.4167 159.141 80.2609 159.452 80.5724C159.763 80.7281 159.918 81.1953 159.918 81.5067C159.918 82.2854 159.452 83.064 158.831 83.5312C158.52 83.6869 158.365 83.6869 158.209 83.6869ZM158.986 81.351C158.831 81.351 158.831 81.351 158.986 81.351C158.52 81.6625 158.209 82.1297 158.209 82.5968C158.209 82.7526 158.209 82.7526 158.209 82.7526C158.209 82.7526 158.209 82.7526 158.365 82.7526C158.675 82.4411 158.986 81.9739 158.986 81.351C158.986 81.351 158.986 81.5067 158.986 81.351Z" fill="#ECFFFE"/>
<path d="M144.23 83.0641C144.075 83.0641 143.764 83.0641 143.609 82.9084C143.143 82.5969 142.988 82.1298 142.988 81.5068V78.548C142.988 77.4579 143.609 76.2121 144.541 75.7449L162.868 65.1555C163.334 64.844 163.8 64.844 164.111 65.1555C164.577 65.4669 164.732 65.9341 164.732 66.557V69.5158C164.732 70.6059 164.111 71.8517 163.179 72.3189L144.852 82.9084C144.696 82.9084 144.541 83.0641 144.23 83.0641ZM163.645 65.7784C163.49 65.7784 163.49 65.7784 163.334 65.9341L145.007 76.5236C144.541 76.835 143.92 77.7694 143.92 78.548V81.5068C143.92 81.8183 144.075 81.974 144.075 82.1298C144.23 82.1298 144.386 82.1298 144.386 82.1298L162.713 71.5403C163.179 71.2288 163.8 70.2945 163.8 69.5158V66.557C163.956 66.0898 163.8 65.7784 163.645 65.7784Z" fill="#171753"/>
<path d="M145.783 80.1052C145.628 80.1052 145.473 80.1052 145.317 79.9495C145.007 79.7938 144.852 79.3266 144.852 79.0152C144.852 78.2365 145.317 77.4579 145.939 76.9907C146.405 76.835 146.715 76.6792 147.026 76.9907C147.337 77.1464 147.492 77.6136 147.492 77.9251C147.492 78.7037 147.026 79.4823 146.405 79.9495C146.249 79.9495 145.939 80.1052 145.783 80.1052ZM146.56 77.7693C146.56 77.7693 146.405 77.7693 146.56 77.7693C146.094 78.0808 145.783 78.548 145.783 79.0152C145.783 79.1709 145.783 79.1709 145.783 79.1709C145.783 79.1709 145.783 79.1709 145.939 79.1709C146.249 78.8594 146.56 78.2365 146.56 77.7693Z" fill="#171753"/>
<path d="M148.89 78.2364C148.735 78.2364 148.58 78.2364 148.424 78.0807C148.114 77.925 147.959 77.4578 147.959 77.1464C147.959 76.3677 148.424 75.5891 149.046 75.1219C149.512 74.9662 149.822 74.8104 150.133 75.1219C150.444 75.2776 150.599 75.7448 150.599 76.0563C150.599 76.8349 150.133 77.6135 149.512 78.0807C149.201 78.2364 149.046 78.2364 148.89 78.2364ZM149.667 75.9005C149.667 75.9005 149.512 76.0563 149.667 75.9005C149.201 76.212 148.89 76.6792 148.89 77.1464C148.89 77.3021 148.89 77.3021 148.89 77.3021C148.89 77.3021 148.89 77.3021 149.046 77.3021C149.356 76.9906 149.667 76.5234 149.667 75.9005C149.667 76.0563 149.667 76.0563 149.667 75.9005Z" fill="#171753"/>
<path d="M151.996 76.5236C151.841 76.5236 151.686 76.5236 151.531 76.3679C151.22 76.2121 151.065 75.7449 151.065 75.4335C151.065 74.6549 151.531 73.8762 152.152 73.409C152.618 73.2533 152.928 73.0976 153.239 73.409C153.55 73.5648 153.705 74.0319 153.705 74.3434C153.705 75.122 153.239 75.9007 152.618 76.3679C152.307 76.3679 152.152 76.5236 151.996 76.5236ZM152.773 74.1877C152.773 74.1877 152.618 74.1877 152.773 74.1877C152.307 74.4991 151.996 74.9663 151.996 75.4335C151.996 75.5892 151.996 75.5892 151.996 75.5892C151.996 75.5892 151.996 75.5892 152.152 75.5892C152.462 75.2778 152.773 74.6548 152.773 74.1877Z" fill="#171753"/>
<path d="M156.345 72.4746C156.345 73.0975 155.879 73.7204 155.413 74.0319C154.947 74.3434 154.481 74.0319 154.481 73.5647C154.481 73.0975 154.947 72.3189 155.413 72.0074C155.879 71.696 156.345 72.0074 156.345 72.4746Z" fill="#171753"/>
<path d="M159.452 70.7616C159.452 71.3845 158.986 72.0074 158.52 72.3189C158.054 72.6303 157.588 72.3189 157.588 71.8517C157.588 71.2288 158.054 70.6059 158.52 70.2944C158.986 69.983 159.452 70.1387 159.452 70.7616Z" fill="#171753"/>
<path d="M161.16 71.073C161.005 71.073 160.85 71.073 160.694 70.9173C160.384 70.7616 160.228 70.2944 160.228 69.983C160.228 69.2043 160.694 68.4257 161.316 67.9585C161.782 67.8028 162.092 67.647 162.403 67.9585C162.713 68.1142 162.869 68.5814 162.869 68.8929C162.869 69.6715 162.403 70.4501 161.782 70.9173C161.626 71.073 161.471 71.073 161.16 71.073ZM161.937 68.7371C161.471 69.0486 161.16 69.5158 161.16 69.983C161.16 70.1387 161.16 70.1387 161.16 70.1387C161.16 70.1387 161.16 70.1387 161.316 70.1387C161.782 69.8272 162.092 69.36 161.937 68.7371C161.937 68.7371 162.092 68.8929 161.937 68.7371Z" fill="#171753"/>
<path d="M133.979 89.7605L121.243 82.2855C120.932 82.1298 120.622 81.6626 120.622 81.1954V67.18C120.622 66.7128 120.932 66.557 121.243 66.7128L133.979 74.3434C134.29 74.4991 134.6 74.9663 134.6 75.4335V89.449C134.6 89.7605 134.29 90.0719 133.979 89.7605Z" fill="#BEF0ED"/>
<path d="M134.134 90.5391C133.979 90.5391 133.823 90.5391 133.668 90.3833L120.932 82.9084C120.311 82.7527 120 81.9741 120 81.3511V67.3357C120 66.8685 120.155 66.557 120.466 66.4013C120.777 66.2456 121.087 66.2456 121.398 66.4013L134.134 73.8762C134.6 74.1877 135.066 74.8106 135.066 75.4335V89.449C135.066 89.9162 134.911 90.2276 134.6 90.3833C134.445 90.5391 134.289 90.5391 134.134 90.5391ZM121.243 67.8028V81.3511C121.243 81.5069 121.398 81.8183 121.398 81.8183L133.823 88.9818V75.4335C133.823 75.2778 133.668 74.9663 133.668 74.9663L121.243 67.8028Z" fill="#171753"/>
<path d="M131.494 77.458C131.494 77.9252 131.183 78.0809 130.717 77.9252C130.251 77.6137 129.941 77.1465 129.941 76.6793C129.941 76.2122 130.251 76.0564 130.717 76.2122C131.183 76.3679 131.494 76.9908 131.494 77.458Z" fill="#171753"/>
<path d="M130.515 100.358L130.515 100.358L130.52 100.355L180.57 71.2701C180.57 71.2701 180.57 71.2701 180.57 71.27C181.185 70.9127 181.672 70.9159 181.982 71.0874C182.287 71.2569 182.54 71.6585 182.54 72.3693L182.54 72.371L182.715 108.376C182.715 108.376 182.715 108.376 182.715 108.376C182.715 109.09 182.465 109.906 182.044 110.644C181.623 111.383 181.05 112.01 180.437 112.366L180.437 112.366L130.387 141.451C129.772 141.808 129.285 141.805 128.975 141.634C128.67 141.464 128.417 141.063 128.417 140.352L128.417 140.35L128.198 104.346C128.198 104.345 128.198 104.345 128.198 104.345C128.198 103.631 128.448 102.816 128.873 102.078C129.299 101.341 129.882 100.714 130.515 100.358Z" fill="#BEF0ED" stroke="#171753" stroke-width="0.699585"/>
<path d="M176.166 117.189H177.611V115.218H176.166V117.189Z" fill="#5ED9D1"/>
<path d="M186.089 115.508L221.465 133.661V136.8C221.423 137.244 221.139 137.701 220.502 138.084C220.502 138.084 220.502 138.084 220.502 138.084L170.409 167.169L170.45 167.24L170.409 167.169C169.747 167.553 168.866 167.748 167.979 167.754C167.093 167.759 166.212 167.575 165.55 167.212C165.55 167.212 165.55 167.212 165.549 167.212L131.178 147.371C131.178 147.371 131.178 147.37 131.178 147.37C130.541 146.988 130.257 146.53 130.215 146.086V142.983H131.304V144.338V144.495L131.44 144.416L181.228 115.506L181.189 115.44L181.228 115.506C181.889 115.122 182.77 114.927 183.656 114.927C184.542 114.927 185.423 115.122 186.085 115.506L186.085 115.506L186.089 115.508Z" fill="#171753" stroke="#171753" stroke-width="0.180598"/>
<path d="M177.277 115.471L176.858 115.242L181.358 112.62C181.97 112.264 182.803 112.076 183.656 112.076C184.509 112.076 185.342 112.264 185.954 112.62L185.955 112.62L220.329 132.463L220.329 132.463L220.336 132.467C220.943 132.8 221.172 133.215 221.172 133.567C221.172 133.922 220.94 134.349 220.328 134.705L170.234 163.79L170.234 163.79L170.227 163.794C169.616 164.169 168.785 164.367 167.934 164.372C167.082 164.378 166.25 164.189 165.638 163.834L165.637 163.833L131.264 143.991C131.264 143.991 131.263 143.991 131.263 143.991C130.652 143.635 130.42 143.208 130.42 142.853C130.42 142.502 130.649 142.086 131.256 141.753L131.256 141.753L131.264 141.749L139.89 136.726L140.546 137.106L140.721 137.207L140.896 137.106L177.285 116.08L177.824 115.769L177.277 115.471Z" fill="#BEF0ED" stroke="#171753" stroke-width="0.699585"/>
<path d="M181.139 70.1793C180.92 70.0479 180.657 69.9165 180.438 69.785C180 69.5222 179.343 69.566 178.686 69.9603L128.592 99.0456C127.235 99.834 126.14 101.761 126.14 103.338L126.315 139.301C126.315 140.089 126.578 140.615 127.06 140.878C127.673 141.228 128.242 141.578 128.811 141.885C128.373 141.622 128.111 141.097 128.111 140.308L127.892 104.39C127.892 102.813 128.986 100.885 130.344 100.097L180.438 70.9677C181.139 70.5735 181.752 70.5297 182.189 70.7925C182.146 70.7487 181.401 70.3107 181.139 70.1793Z" fill="#171753"/>
<path d="M181.795 122.131L185.298 124.146L181.708 126.248L178.205 124.233L181.795 122.131Z" fill="#171753"/>
<path d="M187.357 123.838L190.816 125.809L187.226 127.912L183.766 125.941L187.357 123.838Z" fill="#171753"/>
<path d="M192.348 121.167L196.377 123.489L198.698 124.803L199.88 125.504L193.793 129.008L190.334 127.037L192.173 125.942L188.188 123.62L192.348 121.167Z" fill="#171753"/>
<path d="M183.328 126.203L186.788 128.175L183.197 130.277L179.738 128.306L183.328 126.203Z" fill="#171753"/>
<path d="M200.668 125.942L204.127 127.957L196.727 132.293L193.268 130.278L200.668 125.942Z" fill="#171753"/>
<path d="M192.917 130.498L196.376 132.469L190.771 135.754L187.268 133.739L192.917 130.498Z" fill="#171753"/>
<path d="M181.839 131.986L185.298 134.001L181.707 136.104L178.248 134.089L181.839 131.986Z" fill="#171753"/>
<path d="M183.635 116.13L187.094 118.145L183.504 120.247L180.001 118.232L183.635 116.13Z" fill="#171753"/>
<path d="M179.344 118.626L182.803 120.641L179.212 122.744L175.753 120.729L179.344 118.626Z" fill="#171753"/>
<path d="M187.882 118.583L191.341 120.597L185.78 123.839L182.321 121.868L187.882 118.583Z" fill="#171753"/>
<path d="M175.052 121.124L178.555 123.139L174.964 125.241L171.461 123.226L175.052 121.124Z" fill="#171753"/>
<path d="M170.804 123.664L174.263 125.636L170.673 127.738L167.213 125.767L170.804 123.664Z" fill="#171753"/>
<path d="M177.723 124.539L181.182 126.511L177.592 128.613L174.132 126.598L177.723 124.539Z" fill="#171753"/>
<path d="M166.513 126.16L170.016 128.131L166.381 130.234L162.922 128.219L166.513 126.16Z" fill="#171753"/>
<path d="M173.651 126.905L177.11 128.92L173.519 131.022L170.06 129.007L173.651 126.905Z" fill="#171753"/>
<path d="M189.853 127.298L193.356 129.313L189.765 131.416L186.262 129.401L189.853 127.298Z" fill="#171753"/>
<path d="M162.222 128.614L165.725 130.629L162.134 132.731L158.631 130.76L162.222 128.614Z" fill="#171753"/>
<path d="M179.256 128.57L182.759 130.541L179.168 132.643L175.709 130.629L179.256 128.57Z" fill="#171753"/>
<path d="M169.535 129.315L173.038 131.286L169.447 133.388L165.944 131.417L169.535 129.315Z" fill="#171753"/>
<path d="M185.824 129.665L189.283 131.68L185.736 133.739L182.233 131.768L185.824 129.665Z" fill="#171753"/>
<path d="M175.227 130.891L178.73 132.906L175.139 135.008L171.636 132.994L175.227 130.891Z" fill="#171753"/>
<path d="M157.974 131.154L161.434 133.125L157.843 135.228L154.384 133.256L157.974 131.154Z" fill="#171753"/>
<path d="M165.463 131.68L168.922 133.695L165.331 135.797L161.872 133.782L165.463 131.68Z" fill="#171753"/>
<path d="M171.198 133.256L174.658 135.271L171.067 137.374L167.608 135.359L171.198 133.256Z" fill="#171753"/>
<path d="M153.683 133.651L157.142 135.622L153.552 137.725L150.092 135.753L153.683 133.651Z" fill="#171753"/>
<path d="M161.389 134.088L164.849 136.059L161.258 138.162L157.755 136.191L161.389 134.088Z" fill="#171753"/>
<path d="M177.636 134.439L181.139 136.41L177.548 138.513L174.045 136.542L177.636 134.439Z" fill="#171753"/>
<path d="M167.17 135.622L170.629 137.637L167.039 139.74L163.536 137.725L167.17 135.622Z" fill="#171753"/>
<path d="M149.392 136.148L152.895 138.119L149.304 140.221L145.801 138.25L149.392 136.148Z" fill="#171753"/>
<path d="M157.275 136.454L160.778 138.469L157.187 140.571L153.684 138.556L157.275 136.454Z" fill="#171753"/>
<path d="M173.651 136.761L177.154 138.776L173.563 140.878L170.06 138.863L173.651 136.761Z" fill="#171753"/>
<path d="M163.098 137.987L166.601 140.002L163.01 142.105L159.507 140.09L163.098 137.987Z" fill="#171753"/>
<path d="M169.622 139.126L173.081 141.141L169.491 143.2L166.031 141.228L169.622 139.126Z" fill="#171753"/>
<path d="M143.525 139.563L146.984 141.578L143.393 143.681L139.934 141.666L143.525 139.563Z" fill="#171753"/>
<path d="M159.069 140.352L162.572 142.367L158.981 144.47L155.478 142.455L159.069 140.352Z" fill="#171753"/>
<path d="M186.918 133.958L190.422 135.973L174.614 145.172L171.155 143.201L186.918 133.958Z" fill="#171753"/>
<path d="M165.637 141.448L169.097 143.463L165.506 145.566L162.003 143.551L165.637 141.448Z" fill="#171753"/>
<path d="M153.026 138.95L156.485 140.965L147.64 146.134L144.181 144.119L153.026 138.95Z" fill="#171753"/>
<path d="M155.04 142.718L158.499 144.733L151.931 148.588L148.428 146.573L155.04 142.718Z" fill="#171753"/>
<path d="M170.629 143.506L174.132 145.477L168.483 148.762L165.024 146.747L170.629 143.506Z" fill="#171753"/>
<path d="M161.522 143.857L165.025 145.828L156.179 150.997L152.676 149.026L161.522 143.857Z" fill="#171753"/>
<path d="M164.586 147.055L168.045 149.026L160.426 153.494L156.967 151.479L164.586 147.055Z" fill="#171753"/>
<path d="M181.708 146.922C181.883 147.273 182.189 147.579 182.671 147.886L185.78 149.726C187.137 150.514 189.195 150.602 190.378 149.901L198.479 145.214C198.785 145.039 199.004 144.82 199.135 144.601C199.486 143.944 199.135 143.155 198.172 142.586L195.063 140.746C193.706 139.958 191.648 139.87 190.465 140.571L182.364 145.214C181.576 145.652 181.401 146.309 181.708 146.922Z" fill="#171753"/>
<path d="M181.707 146.922C181.883 147.273 182.189 147.579 182.671 147.886L185.78 149.726C187.137 150.514 189.195 150.602 190.378 149.901L198.478 145.214C198.785 145.039 199.004 144.82 199.135 144.601C198.96 144.25 198.654 143.944 198.172 143.637L195.063 141.797C193.706 141.009 191.647 140.921 190.465 141.622L182.364 146.265C182.058 146.484 181.839 146.703 181.707 146.922Z" fill="white"/>
<path d="M180.437 109.602L131.263 138.512V105.003L180.437 76.0929V109.602Z" fill="white"/>
<rect width="55.0028" height="2.49775" transform="matrix(-0.859406 0.511293 -0.0165799 0.999863 179.278 76.9192)" fill="#171753"/>
<rect width="8.57669" height="1.2489" rx="0.490567" transform="matrix(-0.859406 0.511293 -0.0165799 0.999863 140.439 100.644)" fill="#BEF0ED"/>
<rect width="8.57669" height="1.2489" rx="0.490567" transform="matrix(-0.859406 0.511293 -0.0165799 0.999863 174.679 99.0458)" fill="#BEF0ED"/>
<circle cx="0.75477" cy="0.75477" r="0.75477" transform="matrix(-0.859406 0.511293 -0.0165799 0.999863 177.944 78.202)" fill="#BEF0ED"/>
<rect width="16.6731" height="1.64673" transform="matrix(-0.859406 0.511293 -0.0165799 0.999863 176.556 84.4586)" fill="#171753"/>
<rect width="11.6643" height="1.64673" transform="matrix(-0.859406 0.511293 -0.0165799 0.999863 176.462 90.1098)" fill="#171753"/>
<rect width="12.6935" height="0.5793" transform="matrix(-0.859406 0.511293 -0.0165799 0.999863 176.415 92.9351)" fill="#171753"/>
<rect width="16.6731" height="0.5793" transform="matrix(-0.859406 0.511293 -0.0165799 0.999863 176.395 94.17)" fill="#171753"/>
<rect width="13.4482" height="0.5793" transform="matrix(-0.859406 0.511293 -0.0165799 0.999863 176.374 95.405)" fill="#171753"/>
<rect width="10.5323" height="0.453691" transform="matrix(-0.859406 0.511293 -0.0165799 0.999863 172.844 110.818)" fill="#171753"/>
<rect width="10.5323" height="0.453691" transform="matrix(-0.859406 0.511293 -0.0165799 0.999863 160.019 118.351)" fill="#171753"/>
<rect width="10.5323" height="0.453691" transform="matrix(-0.859406 0.511293 -0.0165799 0.999863 147.195 125.863)" fill="#171753"/>
<rect width="6.44833" height="0.453691" transform="matrix(-0.859406 0.511293 -0.0165799 0.999863 172.828 111.785)" fill="#171753"/>
<rect width="6.44833" height="0.453691" transform="matrix(-0.859406 0.511293 -0.0165799 0.999863 160.004 119.318)" fill="#171753"/>
<rect width="6.44833" height="0.453691" transform="matrix(-0.859406 0.511293 -0.0165799 0.999863 147.179 126.831)" fill="#171753"/>
<rect width="19.1432" height="1.64673" transform="matrix(-0.859406 0.511293 -0.0165799 0.999863 176.509 87.2843)" fill="#171753"/>
<rect x="-0.175599" y="0.302924" width="24.7557" height="13.7341" rx="1.58035" transform="matrix(-0.859406 0.511293 -0.0165799 0.999863 158.249 95.2483)" fill="#BEF0ED" stroke="#171753" stroke-width="0.400917"/>
<rect x="-0.175599" y="0.302924" width="11.9584" height="6.54352" rx="1.33633" transform="matrix(-0.859406 0.511293 -0.0165799 0.999863 172.653 103.041)" fill="#5ED9D1" stroke="#171753" stroke-width="0.400917"/>
<rect x="-0.175599" y="0.302924" width="11.9584" height="6.54352" rx="1.33633" transform="matrix(-0.859406 0.511293 -0.0165799 0.999863 159.906 110.528)" fill="#5ED9D1" stroke="#171753" stroke-width="0.400917"/>
<rect x="-0.175599" y="0.302924" width="11.9584" height="6.54352" rx="1.33633" transform="matrix(-0.859406 0.511293 -0.0165799 0.999863 147.158 117.995)" fill="#5ED9D1" stroke="#171753" stroke-width="0.400917"/>
<g style="mix-blend-mode:multiply">
<path d="M179.606 76.5747V109.12L131.263 137.549V138.512L180.437 109.602V76.0929L179.606 76.5747Z" fill="#171753"/>
</g>
<path d="M193.762 83.8172C193.762 83.8172 193.762 35.0745 193.762 34.4516C193.762 34.4516 193.762 34.2958 193.917 34.2958L217.836 40.5249L211.002 26.9766H211.157L233.834 40.2135C233.834 40.2135 233.834 40.2135 233.989 40.2135L236.785 39.4348C236.94 39.4348 236.94 39.4348 236.94 39.5906C236.94 40.3692 236.94 88.6448 236.94 88.8005C236.94 89.2677 235.231 90.5835 236.164 90.0463L221.564 98.4556C220.321 99.2343 218.768 99.2343 217.526 98.4556L194.538 85.2188C194.073 84.7516 193.762 84.2844 193.762 83.8172Z" fill="#5ED9D1"/>
<path d="M226.464 46.8799L220.194 50.0309V98.6171L226.464 94.8013V46.8799Z" fill="#ECFFFE"/>
<path d="M219.545 99.5457C220.321 99.5457 221.098 99.3899 221.874 98.9227L236.474 90.5135C237.095 90.202 237.406 89.5791 237.561 88.8005C237.561 88.6447 237.561 88.6447 237.561 53.1388C237.561 45.5082 237.561 39.7463 237.561 39.5905C237.561 39.2791 237.406 39.1234 237.251 38.9676C237.095 38.8119 236.785 38.8119 236.63 38.8119L234.144 39.5905L211.623 26.5094C211.313 26.3537 211.157 26.3537 210.847 26.5094L210.381 26.8209L216.904 39.5905L194.072 33.6729H193.917C193.606 33.8286 193.296 34.1401 193.296 34.4515V83.8172C193.296 84.5958 193.762 85.2187 194.383 85.5302L217.37 98.767C217.991 99.3899 218.768 99.5457 219.545 99.5457ZM236.319 40.2135C236.319 41.9265 236.319 47.0655 236.319 53.1388C236.319 67.1543 236.319 88.3333 236.319 88.6447C236.319 88.8005 236.164 89.1119 235.853 89.2676L221.253 97.6769C220.166 98.2998 218.923 98.2998 217.836 97.6769L194.849 84.5958C194.538 84.4401 194.383 84.1286 194.383 83.8172V35.2302L217.836 41.3036L218.147 41.1478L218.613 40.8364L212.4 28.6896L233.523 40.6806C233.678 40.8364 233.989 40.8364 234.144 40.6806L236.319 40.2135Z" fill="#171753"/>
<path d="M193.918 34.2959L217.837 40.525L219.701 45.8197V98.7671C218.924 98.7671 218.303 98.6113 217.526 98.2999L194.539 85.063C194.073 84.7516 193.762 84.2844 193.762 83.8172C193.762 83.8172 193.762 35.0745 193.918 34.2959C193.762 34.2959 193.762 34.4516 193.918 34.2959Z" fill="#BEF0ED"/>
<path d="M219.545 99.5457C219.7 99.5457 219.7 99.5457 219.545 99.5457H220.322V45.664L218.303 39.5906L217.837 39.902L193.918 33.6729H193.762C193.452 33.8287 193.141 34.1401 193.141 34.4516V83.8172C193.141 84.5959 193.607 85.3745 194.228 85.686L217.215 98.9228C217.992 99.39 218.769 99.5457 219.545 99.5457ZM219.079 45.9754V98.1442C218.613 98.1442 218.303 97.9884 217.837 97.677L194.85 84.5959C194.539 84.4401 194.384 84.1287 194.384 83.8172V35.2302L217.371 41.1479L219.079 45.9754Z" fill="#171753"/>
<path d="M234.766 41.4592C234.766 41.4592 234.611 40.8363 234.3 40.0576L236.785 39.4347C236.941 39.4347 236.941 39.4347 236.941 39.5905C236.941 40.3691 236.941 88.6446 236.941 88.8004C236.941 89.2675 236.63 89.7347 236.164 90.0462L234.766 90.8248V45.0409V41.4592Z" fill="#171753"/>
<path d="M234.145 91.7592L236.63 90.3577C237.252 90.0462 237.562 89.4233 237.717 88.6447C237.717 88.489 237.717 88.489 237.717 52.9831C237.717 45.3524 237.717 39.5905 237.717 39.4348C237.717 39.1233 237.562 38.9676 237.407 38.8119C237.252 38.6561 236.941 38.6561 236.786 38.6561L233.524 39.5905L233.679 40.2134C233.835 40.8363 233.99 41.3035 234.145 41.4592V91.7592ZM236.32 40.2134C236.32 41.9264 236.32 47.0654 236.32 53.1388C236.32 67.1543 236.32 88.3332 236.32 88.6447C236.32 88.8004 236.164 89.1119 235.854 89.2676L235.388 89.5791V41.3035V41.1478C235.388 41.1478 235.232 40.8363 235.077 40.5249L236.32 40.2134Z" fill="#171753"/>
<path d="M221.564 49.0899L236.164 40.5249C237.251 39.902 237.251 38.5004 236.164 37.8775L213.021 24.4849C211.779 23.862 210.381 23.862 209.138 24.4849L194.538 33.05C193.451 33.6729 193.451 35.0744 194.538 35.6973L217.681 49.0899C218.923 49.8685 220.321 49.8685 221.564 49.0899Z" fill="white"/>
<path d="M219.545 50.3357C220.321 50.3357 221.098 50.1799 221.874 49.7127L236.474 41.1477C237.095 40.8363 237.561 40.0576 237.561 39.279C237.561 38.5004 237.095 37.7217 236.474 37.4103L213.332 24.0177C211.934 23.2391 210.225 23.2391 208.828 24.0177L194.228 32.5827C193.606 33.0499 193.141 33.6728 193.141 34.4514C193.141 35.2301 193.606 36.0087 194.228 36.3202L217.37 49.7127C217.991 50.0242 218.768 50.3357 219.545 50.3357ZM211.157 24.6406C211.779 24.6406 212.245 24.7963 212.711 25.1078L235.853 38.5004C236.164 38.6561 236.319 38.9675 236.319 39.279C236.319 39.5905 236.164 39.9019 235.853 40.0576L221.253 48.6227C220.321 49.2456 219.079 49.2456 217.991 48.6227L194.849 35.2301C194.538 35.0744 194.383 34.7629 194.383 34.4514C194.383 34.14 194.538 33.8285 194.849 33.6728L209.449 25.1078C209.915 24.7963 210.536 24.6406 211.157 24.6406Z" fill="#171753"/>
<path d="M193.762 27.5995C193.762 27.5995 193.762 24.6407 193.762 24.0178C193.762 24.0178 193.762 23.862 193.917 23.862L217.836 30.0911L211.002 16.5428H211.157L233.834 29.7797C233.834 29.7797 233.834 29.7797 233.989 29.7797L236.785 29.001C236.94 29.001 236.94 29.001 236.94 29.1568C236.94 29.9354 236.94 32.5828 236.94 32.5828C236.94 33.05 236.629 33.5171 236.163 33.8286L221.563 42.2379C220.321 43.0165 218.768 43.0165 217.525 42.2379L194.538 29.001C194.072 28.5339 193.762 28.0667 193.762 27.5995Z" fill="#5ED9D1"/>
<path d="M219.544 43.328C220.321 43.328 221.097 43.1723 221.874 42.7051L236.474 34.2958C237.095 33.9844 237.406 33.3614 237.561 32.5828C237.561 32.5828 237.561 32.4271 237.561 29.0011C237.561 28.6896 237.406 28.5339 237.25 28.3782C237.095 28.2224 236.785 28.2224 236.629 28.2224L234.144 29.0011L211.468 16.0757C211.157 15.92 211.002 15.92 210.691 16.0757L210.225 16.3871L216.749 29.1568L193.917 23.2392H193.761C193.451 23.3949 193.14 23.7063 193.14 24.0178V27.7553C193.14 28.3782 193.606 29.1568 194.227 29.4683L217.214 42.7051C217.991 43.1723 218.768 43.328 219.544 43.328ZM236.319 29.7797C236.319 30.7141 236.319 32.4271 236.319 32.4271C236.319 32.5828 236.163 32.8943 235.853 33.05L221.253 41.4593C220.165 42.0822 218.923 42.0822 217.836 41.4593L194.849 28.2224C194.538 28.0667 194.383 27.7553 194.383 27.4438H193.761H194.383V24.6407L217.836 30.7141L218.146 30.5584L218.612 30.2469L212.4 18.1001L233.523 30.2469C233.678 30.4026 233.989 30.4026 234.144 30.2469L236.319 29.7797Z" fill="#171753"/>
<path d="M193.917 23.8621L217.836 30.0912L219.7 35.3859V42.7051C218.923 42.7051 218.302 42.5494 217.525 42.2379L194.538 29.0011C194.072 28.6896 193.761 28.2224 193.761 27.7553C193.761 27.5995 193.761 24.6407 193.917 23.8621C193.761 23.8621 193.761 24.0178 193.917 23.8621Z" fill="#171753"/>
<path d="M219.544 43.328C219.699 43.328 219.699 43.328 219.544 43.328H220.321V35.2301L218.302 29.1568L217.836 29.4682L193.917 23.2391H193.761C193.451 23.3948 193.14 23.7063 193.14 24.0178V27.7552C193.14 28.3781 193.606 29.1568 194.227 29.4682L217.214 42.7051C217.991 43.1723 218.768 43.328 219.544 43.328ZM219.078 35.5416V42.0822C218.612 42.0822 218.302 41.9264 217.991 41.615L195.004 28.3781C194.693 28.2224 194.538 27.9109 194.538 27.5995V24.6407L217.37 30.714L219.078 35.5416Z" fill="#171753"/>
<path d="M234.765 30.8698C234.765 30.8698 234.61 30.2469 234.299 29.4682L236.785 28.6896C236.94 28.6896 236.94 28.6896 236.94 28.8453C236.94 29.624 236.94 32.2713 236.94 32.2713C236.94 32.7385 236.629 33.2057 236.163 33.5172L234.765 34.2958V30.8698V30.8698Z" fill="#171753"/>
<path d="M233.989 35.5416L236.474 34.1401C237.095 33.8286 237.406 33.2057 237.561 32.5828C237.561 32.5828 237.561 32.4271 237.561 29.0011C237.561 28.6896 237.406 28.5339 237.25 28.3782C237.095 28.2224 236.785 28.2224 236.629 28.2224L233.368 29.1568L233.523 29.7797C233.678 30.4026 233.833 30.8698 233.989 31.0255V35.5416V35.5416ZM236.319 29.624C236.319 30.5583 236.319 32.2713 236.319 32.2713C236.319 32.4271 236.163 32.7385 235.853 32.8943L235.387 33.2057V30.5583C235.387 30.5583 235.231 30.2469 235.076 29.9354L236.319 29.624Z" fill="#171753"/>
<path d="M221.563 38.6562L236.163 30.0912C237.25 29.4682 237.25 28.0667 236.163 27.4438L213.021 14.0512C211.778 13.4283 210.38 13.4283 209.138 14.0512L194.538 22.6162C193.451 23.2391 193.451 24.6407 194.538 25.2636L217.68 38.6562C218.923 39.4348 220.321 39.4348 221.563 38.6562Z" fill="white"/>
<path d="M219.544 39.9019C220.321 39.9019 221.097 39.7462 221.874 39.279L236.474 30.714C237.095 30.2468 237.561 29.6239 237.561 28.8453C237.561 28.0666 237.095 27.288 236.474 26.9766L213.332 13.584C211.934 12.8053 210.225 12.8053 208.827 13.584L194.228 22.149C193.606 22.6162 193.14 23.2391 193.14 24.0177C193.14 24.7964 193.606 25.575 194.228 25.8865L217.37 39.279C217.991 39.5905 218.768 39.9019 219.544 39.9019ZM211.157 14.2069C211.778 14.2069 212.244 14.3626 212.71 14.6741L235.853 28.0666C236.163 28.2224 236.319 28.5338 236.319 28.8453C236.319 29.1567 236.163 29.4682 235.853 29.6239L221.253 38.1889C220.321 38.8118 219.078 38.8118 217.991 38.1889L194.849 24.7964C194.538 24.6406 194.383 24.3292 194.383 24.0177C194.383 23.7063 194.538 23.3948 194.849 23.2391L209.449 14.6741C209.915 14.3626 210.536 14.2069 211.157 14.2069Z" fill="#171753"/>
<path d="M235.542 23.0834L221.097 31.4927L206.653 23.3948L221.097 14.8298L235.542 23.0834Z" fill="#ECFFFE"/>
<path d="M221.097 32.2713L236.784 23.0834L220.942 14.0512L205.41 23.2391L221.097 32.2713ZM234.299 23.0834L221.097 30.714L208.05 23.3948L221.097 15.6084L234.299 23.0834Z" fill="#171753"/>
<path d="M219.699 23.0833L211.312 28.0666L202.77 23.2391L211.157 18.2558L219.699 23.0833Z" fill="white"/>
<path d="M211.312 28.8453L221.097 23.2391L211.157 17.6329L201.527 23.3949L211.312 28.8453ZM218.457 23.2391L211.312 27.4438L204.168 23.3949L211.157 19.0345L218.457 23.2391Z" fill="#171753"/>
<path d="M216.438 87.7104C216.594 87.7104 216.904 87.7104 217.06 87.5546C217.526 87.2432 217.681 86.776 217.681 86.1531V83.1943C217.681 82.1042 217.06 80.8583 216.128 80.3912L197.8 69.8017C197.334 69.4902 196.868 69.4902 196.558 69.8017C196.092 70.1131 195.936 70.5803 195.936 71.2032V74.1621C195.936 75.2521 196.558 76.498 197.49 76.9652L215.817 87.5546C215.972 87.7104 216.128 87.7104 216.438 87.7104ZM197.024 70.4246C197.179 70.4246 197.179 70.4246 197.334 70.5803L215.662 81.1698C216.128 81.4813 216.749 82.4156 216.749 83.1943V86.1531C216.749 86.4645 216.594 86.6203 216.594 86.776C216.438 86.776 216.283 86.776 216.283 86.776L197.956 76.1865C197.49 75.8751 196.868 74.9407 196.868 74.1621V71.2032C196.868 70.7361 196.868 70.5803 197.024 70.4246Z" fill="#171753"/>
<path d="M211.778 83.0386C211.934 83.0386 212.089 83.0386 212.244 82.8829C212.555 82.7272 212.71 82.26 212.71 81.9485C212.71 81.1699 212.244 80.3913 211.623 79.9241C211.157 79.7683 210.846 79.6126 210.536 79.9241C210.225 80.0798 210.07 80.547 210.07 80.8584C210.07 81.6371 210.536 82.4157 211.157 82.8829C211.468 82.8829 211.623 83.0386 211.778 83.0386ZM211.002 80.7027C211.002 80.7027 211.157 80.7027 211.002 80.7027C211.468 81.0142 211.778 81.4813 211.778 81.9485C211.778 82.1043 211.778 82.1043 211.778 82.1043C211.778 82.1043 211.778 82.1043 211.623 82.1043C211.312 81.7928 211.002 81.1699 211.002 80.7027Z" fill="#171753"/>
<path d="M208.672 81.1698C208.828 81.1698 208.983 81.1698 209.138 81.0141C209.449 80.8584 209.604 80.3912 209.604 80.0797C209.604 79.3011 209.138 78.5225 208.517 78.0553C208.051 77.8995 207.74 77.7438 207.43 78.0553C207.119 78.211 206.964 78.6782 206.964 78.9896C206.964 79.7683 207.43 80.5469 208.051 81.0141C208.362 81.1698 208.517 81.1698 208.672 81.1698ZM207.896 78.8339C208.051 78.8339 208.051 78.9896 207.896 78.8339C208.362 79.1454 208.672 79.6126 208.672 80.0797C208.672 80.2355 208.672 80.2355 208.672 80.2355C208.672 80.2355 208.672 80.2355 208.517 80.2355C208.206 79.924 207.896 79.4568 207.896 78.8339C207.896 78.9896 207.896 78.9896 207.896 78.8339Z" fill="#171753"/>
<path d="M204.324 77.2766C204.324 77.8995 204.79 78.5224 205.255 78.8339C205.721 79.1453 206.187 78.8339 206.187 78.3667C206.187 77.7438 205.721 77.1209 205.255 76.8094C204.79 76.498 204.324 76.6537 204.324 77.2766Z" fill="#171753"/>
<path d="M202.615 77.588C202.77 77.588 202.926 77.588 203.081 77.4323C203.392 77.2765 203.547 76.8093 203.547 76.4979C203.547 75.7193 203.081 74.9406 202.46 74.4734C201.994 74.3177 201.683 74.162 201.373 74.4734C201.062 74.6292 200.907 75.0963 200.907 75.4078C200.907 76.1864 201.373 76.9651 201.994 77.4323C202.149 77.588 202.305 77.588 202.615 77.588ZM201.839 75.2521C201.839 75.2521 201.839 75.4078 201.839 75.2521C202.305 75.5635 202.615 76.0307 202.615 76.4979C202.615 76.6536 202.615 76.6536 202.615 76.6536C202.615 76.6536 202.615 76.6536 202.46 76.6536C201.994 76.3422 201.683 75.875 201.839 75.2521C201.839 75.4078 201.683 75.4078 201.839 75.2521Z" fill="#171753"/>
<path d="M199.508 75.8751C199.664 75.8751 199.819 75.8751 199.974 75.7194C200.285 75.5636 200.44 75.0965 200.44 74.785C200.44 74.0064 199.974 73.2277 199.353 72.7606C198.887 72.6048 198.577 72.4491 198.266 72.7606C197.955 72.9163 197.8 73.3835 197.8 73.6949C197.8 74.4736 198.266 75.2522 198.887 75.7194C199.043 75.7194 199.198 75.8751 199.508 75.8751ZM198.732 73.5392C199.198 73.8506 199.508 74.3178 199.508 74.785C199.508 74.9407 199.508 74.9407 199.508 74.9407C199.508 74.9407 199.508 74.9407 199.353 74.9407C198.887 74.6293 198.577 74.0064 198.732 73.5392C198.732 73.5392 198.577 73.5392 198.732 73.5392Z" fill="#171753"/>
<path d="M216.438 76.8093C216.594 76.8093 216.904 76.8093 217.06 76.6536C217.526 76.3421 217.681 75.8749 217.681 75.252V72.2932C217.681 71.2031 217.06 69.9573 216.128 69.4901L197.8 58.9006C197.334 58.5892 196.868 58.5892 196.558 58.9006C196.092 59.2121 195.936 59.6793 195.936 60.3022V63.261C195.936 64.3511 196.558 65.5969 197.49 66.0641L215.817 76.6536C215.972 76.8093 216.128 76.8093 216.438 76.8093ZM197.024 59.5235C197.179 59.5235 197.179 59.5235 197.334 59.6793L215.662 70.2687C216.128 70.5802 216.749 71.5146 216.749 72.2932V75.252C216.749 75.5635 216.594 75.7192 216.594 75.8749C216.438 75.8749 216.283 75.8749 216.283 75.8749L197.956 65.2855C197.49 64.974 196.868 64.0396 196.868 63.261V60.3022C196.713 59.835 196.868 59.6793 197.024 59.5235Z" fill="#ECFFFE"/>
<path d="M214.885 73.8505C215.041 73.8505 215.196 73.8505 215.351 73.6948C215.662 73.5391 215.817 73.0719 215.817 72.7604C215.817 71.9818 215.351 71.2032 214.73 70.736C214.264 70.5803 213.953 70.4245 213.643 70.736C213.332 70.8917 213.177 71.3589 213.177 71.6703C213.177 72.449 213.643 73.2276 214.264 73.6948C214.419 73.8505 214.73 73.8505 214.885 73.8505ZM214.109 71.5146C214.109 71.5146 214.264 71.5146 214.109 71.5146C214.575 71.8261 214.885 72.2933 214.885 72.7604C214.885 72.9162 214.885 72.9162 214.885 72.9162C214.885 72.9162 214.885 72.9162 214.73 72.9162C214.419 72.6047 214.109 72.1375 214.109 71.5146C214.109 71.5146 214.109 71.6703 214.109 71.5146Z" fill="#ECFFFE"/>
<path d="M210.536 69.9573C210.536 70.5802 211.002 71.2031 211.468 71.5146C211.934 71.826 212.4 71.5146 212.4 71.0474C212.4 70.5802 211.934 69.8016 211.468 69.4901C211.002 69.1787 210.536 69.3344 210.536 69.9573Z" fill="#ECFFFE"/>
<path d="M208.672 70.2688C208.828 70.2688 208.983 70.2688 209.138 70.1131C209.449 69.9574 209.604 69.4902 209.604 69.1787C209.604 68.4001 209.138 67.6215 208.517 67.1543C208.051 66.9986 207.74 66.8428 207.43 67.1543C207.119 67.31 206.964 67.7772 206.964 68.0887C206.964 68.8673 207.43 69.6459 208.051 70.1131C208.362 70.2688 208.517 70.2688 208.672 70.2688ZM207.896 67.9329C207.896 67.9329 208.051 67.9329 207.896 67.9329C208.362 68.2444 208.672 68.7116 208.672 69.1787C208.672 69.3345 208.672 69.3345 208.672 69.3345C208.672 69.3345 208.672 69.3345 208.517 69.3345C208.206 69.023 207.896 68.5558 207.896 67.9329C207.896 67.9329 207.896 68.0887 207.896 67.9329Z" fill="#ECFFFE"/>
<path d="M205.566 68.5559C205.721 68.5559 205.877 68.5559 206.032 68.4002C206.343 68.2444 206.498 67.7773 206.498 67.4658C206.498 66.6872 206.032 65.9085 205.411 65.4413C205.1 65.2856 204.634 65.1299 204.324 65.4413C204.013 65.5971 203.858 66.0642 203.858 66.3757C203.858 67.1543 204.324 67.933 204.945 68.4002C205.255 68.4002 205.411 68.5559 205.566 68.5559ZM204.789 66.22C204.789 66.22 204.945 66.22 204.789 66.22C205.255 66.5314 205.566 66.9986 205.566 67.4658C205.566 67.6215 205.566 67.6215 205.566 67.6215C205.566 67.6215 205.566 67.6215 205.411 67.6215C205.1 67.3101 204.789 66.6872 204.789 66.22Z" fill="#ECFFFE"/>
<path d="M202.459 66.6869C202.615 66.6869 202.77 66.6869 202.925 66.5312C203.236 66.3755 203.391 65.9083 203.391 65.5968C203.391 64.8182 202.925 64.0396 202.304 63.5724C201.838 63.4167 201.527 63.2609 201.217 63.5724C200.906 63.7281 200.751 64.1953 200.751 64.5067C200.751 65.2854 201.217 66.064 201.838 66.5312C202.149 66.6869 202.304 66.6869 202.459 66.6869ZM201.683 64.351C201.838 64.351 201.838 64.351 201.683 64.351C202.149 64.6625 202.459 65.1297 202.459 65.5968C202.459 65.7526 202.459 65.7526 202.459 65.7526C202.459 65.7526 202.459 65.7526 202.304 65.7526C201.993 65.4411 201.683 64.9739 201.683 64.351C201.683 64.351 201.683 64.5067 201.683 64.351Z" fill="#ECFFFE"/>
<path d="M216.438 66.0641C216.594 66.0641 216.904 66.0641 217.06 65.9084C217.526 65.5969 217.681 65.1298 217.681 64.5068V61.548C217.681 60.4579 217.06 59.2121 216.128 58.7449L197.8 48.1555C197.334 47.844 196.868 47.844 196.558 48.1555C196.092 48.4669 195.936 48.9341 195.936 49.557V52.5158C195.936 53.6059 196.558 54.8517 197.49 55.3189L215.817 65.9084C215.972 65.9084 216.128 66.0641 216.438 66.0641ZM197.024 48.7784C197.179 48.7784 197.179 48.7784 197.334 48.9341L215.662 59.5236C216.128 59.835 216.749 60.7694 216.749 61.548V64.5068C216.749 64.8183 216.594 64.974 216.594 65.1298C216.438 65.1298 216.283 65.1298 216.283 65.1298L197.956 54.5403C197.49 54.2288 196.868 53.2945 196.868 52.5158V49.557C196.713 49.0898 196.868 48.7784 197.024 48.7784Z" fill="#171753"/>
<path d="M214.885 63.1052C215.041 63.1052 215.196 63.1052 215.351 62.9495C215.662 62.7938 215.817 62.3266 215.817 62.0152C215.817 61.2365 215.351 60.4579 214.73 59.9907C214.264 59.835 213.953 59.6792 213.643 59.9907C213.332 60.1464 213.177 60.6136 213.177 60.9251C213.177 61.7037 213.643 62.4823 214.264 62.9495C214.419 62.9495 214.73 63.1052 214.885 63.1052ZM214.109 60.7693C214.109 60.7693 214.264 60.7693 214.109 60.7693C214.575 61.0808 214.885 61.548 214.885 62.0152C214.885 62.1709 214.885 62.1709 214.885 62.1709C214.885 62.1709 214.885 62.1709 214.73 62.1709C214.419 61.8594 214.109 61.2365 214.109 60.7693Z" fill="#171753"/>
<path d="M211.778 61.2364C211.934 61.2364 212.089 61.2364 212.244 61.0807C212.555 60.925 212.71 60.4578 212.71 60.1464C212.71 59.3677 212.244 58.5891 211.623 58.1219C211.157 57.9662 210.846 57.8104 210.536 58.1219C210.225 58.2776 210.07 58.7448 210.07 59.0563C210.07 59.8349 210.536 60.6135 211.157 61.0807C211.468 61.2364 211.623 61.2364 211.778 61.2364ZM211.002 58.9005C211.002 58.9005 211.157 59.0563 211.002 58.9005C211.468 59.212 211.778 59.6792 211.778 60.1464C211.778 60.3021 211.778 60.3021 211.778 60.3021C211.778 60.3021 211.778 60.3021 211.623 60.3021C211.312 59.9906 211.002 59.5234 211.002 58.9005C211.002 59.0563 211.002 59.0563 211.002 58.9005Z" fill="#171753"/>
<path d="M208.672 59.5236C208.828 59.5236 208.983 59.5236 209.138 59.3679C209.449 59.2121 209.604 58.7449 209.604 58.4335C209.604 57.6549 209.138 56.8762 208.517 56.409C208.051 56.2533 207.74 56.0976 207.43 56.409C207.119 56.5648 206.964 57.0319 206.964 57.3434C206.964 58.122 207.43 58.9007 208.051 59.3679C208.362 59.3679 208.517 59.5236 208.672 59.5236ZM207.896 57.1877C207.896 57.1877 208.051 57.1877 207.896 57.1877C208.362 57.4991 208.672 57.9663 208.672 58.4335C208.672 58.5892 208.672 58.5892 208.672 58.5892C208.672 58.5892 208.672 58.5892 208.517 58.5892C208.206 58.2778 207.896 57.6548 207.896 57.1877Z" fill="#171753"/>
<path d="M204.324 55.4746C204.324 56.0975 204.79 56.7204 205.255 57.0319C205.721 57.3434 206.187 57.0319 206.187 56.5647C206.187 56.0975 205.721 55.3189 205.255 55.0074C204.79 54.696 204.324 55.0074 204.324 55.4746Z" fill="#171753"/>
<path d="M201.217 53.7616C201.217 54.3845 201.683 55.0074 202.149 55.3189C202.615 55.6303 203.081 55.3189 203.081 54.8517C203.081 54.2288 202.615 53.6059 202.149 53.2944C201.683 52.983 201.217 53.1387 201.217 53.7616Z" fill="#171753"/>
<path d="M199.508 54.073C199.664 54.073 199.819 54.073 199.974 53.9173C200.285 53.7616 200.44 53.2944 200.44 52.983C200.44 52.2043 199.974 51.4257 199.353 50.9585C198.887 50.8028 198.577 50.647 198.266 50.9585C197.955 51.1142 197.8 51.5814 197.8 51.8929C197.8 52.6715 198.266 53.4501 198.887 53.9173C199.043 54.073 199.198 54.073 199.508 54.073ZM198.732 51.7371C199.198 52.0486 199.508 52.5158 199.508 52.983C199.508 53.1387 199.508 53.1387 199.508 53.1387C199.508 53.1387 199.508 53.1387 199.353 53.1387C198.887 52.8272 198.577 52.36 198.732 51.7371C198.732 51.7371 198.577 51.8929 198.732 51.7371Z" fill="#171753"/>
<path d="M226.69 72.7605L239.426 65.2855C239.737 65.1298 240.047 64.6626 240.047 64.1954V50.18C240.047 49.7128 239.737 49.557 239.426 49.7128L226.69 57.3434C226.379 57.4991 226.069 57.9663 226.069 58.4335V72.449C226.069 72.7605 226.379 73.0719 226.69 72.7605Z" fill="#BEF0ED"/>
<path d="M226.535 73.5391C226.69 73.5391 226.845 73.5391 227.001 73.3833L239.737 65.9084C240.358 65.7527 240.669 64.9741 240.669 64.3511V50.3357C240.669 49.8685 240.513 49.557 240.203 49.4013C239.892 49.2456 239.582 49.2456 239.271 49.4013L226.535 56.8762C226.069 57.1877 225.603 57.8106 225.603 58.4335V72.449C225.603 72.9162 225.758 73.2276 226.069 73.3833C226.224 73.5391 226.379 73.5391 226.535 73.5391ZM239.426 50.8028V64.3511C239.426 64.5069 239.271 64.8183 239.271 64.8183L226.845 71.9818V58.4335C226.845 58.2778 227.001 57.9663 227.001 57.9663L239.426 50.8028Z" fill="#171753"/>
<path d="M229.175 60.458C229.175 60.9252 229.486 61.0809 229.951 60.9252C230.417 60.6137 230.728 60.1465 230.728 59.6793C230.728 59.2122 230.417 59.0564 229.951 59.2122C229.486 59.3679 229.175 59.9908 229.175 60.458Z" fill="#171753"/>
<path d="M286.18 70.7384L286.18 70.7384L286.176 70.736L236.126 41.6507C236.126 41.6507 236.126 41.6507 236.126 41.6507C235.51 41.2933 235.023 41.2965 234.714 41.468C234.408 41.6375 234.155 42.0392 234.155 42.7499L234.155 42.7516L233.98 78.7562C233.98 78.7565 233.98 78.7568 233.98 78.757C233.98 79.4704 234.23 80.2867 234.651 81.0249C235.072 81.7636 235.646 82.3907 236.258 82.7464L236.258 82.7464L286.308 111.832C286.924 112.189 287.411 112.186 287.72 112.014C288.026 111.845 288.279 111.443 288.279 110.732L288.279 110.73L288.498 74.7263C288.498 74.7259 288.498 74.7256 288.498 74.7252C288.497 74.012 288.248 73.1963 287.822 72.4591C287.396 71.7216 286.813 71.0947 286.18 70.7384Z" fill="#E3E0EB" stroke="#171753" stroke-width="0.699585"/>
<path d="M240.529 87.5697H239.084V85.5986H240.529V87.5697Z" fill="#8989C7"/>
<path d="M230.606 85.8889L195.23 104.042V107.18C195.272 107.625 195.556 108.082 196.193 108.465C196.193 108.465 196.194 108.465 196.194 108.465L246.287 137.55L246.245 137.621L246.287 137.55C246.948 137.934 247.829 138.129 248.716 138.134C249.602 138.14 250.483 137.956 251.145 137.593C251.145 137.593 251.146 137.593 251.146 137.592L285.517 117.751C285.517 117.751 285.517 117.751 285.518 117.751C286.155 117.368 286.438 116.911 286.48 116.467V113.363H285.391V114.719V114.876L285.255 114.797L235.468 85.8867L235.506 85.8201L235.468 85.8867C234.806 85.5024 233.925 85.3075 233.039 85.3075C232.153 85.3075 231.272 85.5024 230.61 85.8867L230.61 85.8868L230.606 85.8889Z" fill="#171753" stroke="#171753" stroke-width="0.180598"/>
<path d="M239.418 85.8512L239.837 85.6225L235.338 83.0002C234.725 82.6446 233.892 82.4562 233.039 82.4562C232.186 82.4562 231.353 82.6446 230.741 83.0002L230.74 83.0007L196.366 102.844L196.366 102.844L196.36 102.847C195.752 103.181 195.523 103.596 195.523 103.948C195.523 104.302 195.755 104.73 196.367 105.085L246.461 134.171L246.461 134.171L246.468 134.175C247.079 134.55 247.91 134.748 248.762 134.753C249.613 134.758 250.446 134.57 251.058 134.214L251.059 134.214L285.432 114.372C285.432 114.372 285.432 114.371 285.432 114.371C286.044 114.016 286.276 113.589 286.276 113.234C286.276 112.882 286.047 112.467 285.439 112.134L285.439 112.134L285.431 112.129L276.806 107.106L276.149 107.486L275.974 107.588L275.799 107.487L239.411 86.4611L238.871 86.1495L239.418 85.8512Z" fill="#E3E0EB" stroke="#171753" stroke-width="0.699585"/>
<path d="M235.557 40.5599C235.776 40.4285 236.039 40.2971 236.258 40.1657C236.695 39.9028 237.352 39.9466 238.009 40.3409L288.103 69.4262C289.461 70.2146 290.555 72.142 290.555 73.7189L290.38 109.681C290.38 110.47 290.117 110.995 289.636 111.258C289.023 111.609 288.453 111.959 287.884 112.266C288.322 112.003 288.585 111.477 288.585 110.689L288.804 74.7702C288.804 73.1933 287.709 71.2659 286.352 70.4775L236.258 41.3483C235.557 40.9541 234.944 40.9103 234.506 41.1731C234.55 41.1293 235.294 40.6913 235.557 40.5599Z" fill="#171753"/>
<path d="M234.9 92.5114L231.397 94.5263L234.988 96.6289L238.491 94.6139L234.9 92.5114Z" fill="#171753"/>
<path d="M229.338 94.2189L225.879 96.19L229.47 98.2926L232.929 96.3214L229.338 94.2189Z" fill="#171753"/>
<path d="M224.347 91.548L220.319 93.8696L217.998 95.1837L216.815 95.8846L222.902 99.3888L226.361 97.4177L224.522 96.3226L228.507 94.001L224.347 91.548Z" fill="#171753"/>
<path d="M233.367 96.5841L229.908 98.5552L233.498 100.658L236.958 98.6866L233.367 96.5841Z" fill="#171753"/>
<path d="M216.027 96.3225L212.568 98.3374L219.968 102.674L223.428 100.659L216.027 96.3225Z" fill="#171753"/>
<path d="M223.778 100.878L220.319 102.849L225.924 106.135L229.427 104.12L223.778 100.878Z" fill="#171753"/>
<path d="M234.857 102.367L231.397 104.382L234.988 106.484L238.447 104.47L234.857 102.367Z" fill="#171753"/>
<path d="M233.06 86.5103L229.601 88.5253L233.192 90.6278L236.695 88.6129L233.06 86.5103Z" fill="#171753"/>
<path d="M237.352 89.007L233.893 91.0219L237.483 93.1245L240.943 91.1095L237.352 89.007Z" fill="#171753"/>
<path d="M228.814 88.9631L225.354 90.9781L230.915 94.2195L234.375 92.2484L228.814 88.9631Z" fill="#171753"/>
<path d="M241.644 91.5046L238.141 93.5195L241.731 95.6221L245.234 93.6071L241.644 91.5046Z" fill="#171753"/>
<path d="M245.891 94.045L242.432 96.0162L246.023 98.1187L249.482 96.1476L245.891 94.045Z" fill="#171753"/>
<path d="M238.972 94.92L235.513 96.8912L239.104 98.9937L242.563 96.9788L238.972 94.92Z" fill="#171753"/>
<path d="M250.183 96.5406L246.68 98.5117L250.314 100.614L253.774 98.5994L250.183 96.5406Z" fill="#171753"/>
<path d="M243.045 97.2854L239.586 99.3003L243.176 101.403L246.636 99.3879L243.045 97.2854Z" fill="#171753"/>
<path d="M226.843 97.6791L223.34 99.694L226.93 101.797L230.433 99.7816L226.843 97.6791Z" fill="#171753"/>
<path d="M254.474 98.9946L250.971 101.01L254.561 103.112L258.064 101.141L254.474 98.9946Z" fill="#171753"/>
<path d="M237.44 98.9504L233.936 100.922L237.527 103.024L240.986 101.009L237.44 98.9504Z" fill="#171753"/>
<path d="M247.161 99.6953L243.658 101.666L247.248 103.769L250.751 101.798L247.161 99.6953Z" fill="#171753"/>
<path d="M230.872 100.046L227.412 102.061L230.959 104.12L234.462 102.148L230.872 100.046Z" fill="#171753"/>
<path d="M241.468 101.272L237.965 103.287L241.556 105.389L245.059 103.374L241.468 101.272Z" fill="#171753"/>
<path d="M258.721 101.535L255.262 103.506L258.852 105.608L262.312 103.637L258.721 101.535Z" fill="#171753"/>
<path d="M251.233 102.06L247.774 104.075L251.364 106.178L254.823 104.163L251.233 102.06Z" fill="#171753"/>
<path d="M245.497 103.637L242.038 105.652L245.628 107.754L249.088 105.739L245.497 103.637Z" fill="#171753"/>
<path d="M263.013 104.032L259.553 106.003L263.144 108.105L266.603 106.134L263.013 104.032Z" fill="#171753"/>
<path d="M255.306 104.469L251.847 106.44L255.437 108.543L258.94 106.571L255.306 104.469Z" fill="#171753"/>
<path d="M239.06 104.82L235.557 106.791L239.147 108.893L242.65 106.922L239.06 104.82Z" fill="#171753"/>
<path d="M249.525 106.003L246.066 108.018L249.657 110.12L253.16 108.105L249.525 106.003Z" fill="#171753"/>
<path d="M267.304 106.528L263.801 108.5L267.391 110.602L270.894 108.631L267.304 106.528Z" fill="#171753"/>
<path d="M259.421 106.834L255.918 108.849L259.508 110.952L263.012 108.937L259.421 106.834Z" fill="#171753"/>
<path d="M243.045 107.141L239.542 109.156L243.132 111.259L246.636 109.244L243.045 107.141Z" fill="#171753"/>
<path d="M253.598 108.368L250.095 110.383L253.685 112.485L257.188 110.47L253.598 108.368Z" fill="#171753"/>
<path d="M247.073 109.506L243.614 111.521L247.205 113.58L250.664 111.609L247.073 109.506Z" fill="#171753"/>
<path d="M273.171 109.944L269.712 111.959L273.302 114.062L276.762 112.047L273.171 109.944Z" fill="#171753"/>
<path d="M257.627 110.733L254.124 112.748L257.714 114.851L261.217 112.836L257.627 110.733Z" fill="#171753"/>
<path d="M229.777 104.339L226.274 106.354L242.082 115.552L245.541 113.581L229.777 104.339Z" fill="#171753"/>
<path d="M251.058 111.829L247.599 113.844L251.189 115.946L254.692 113.931L251.058 111.829Z" fill="#171753"/>
<path d="M263.67 109.331L260.21 111.346L269.056 116.514L272.515 114.499L263.67 109.331Z" fill="#171753"/>
<path d="M261.655 113.099L258.196 115.114L264.764 118.968L268.267 116.953L261.655 113.099Z" fill="#171753"/>
<path d="M246.066 113.887L242.563 115.858L248.212 119.143L251.671 117.128L246.066 113.887Z" fill="#171753"/>
<path d="M255.174 114.237L251.671 116.209L260.516 121.377L264.019 119.406L255.174 114.237Z" fill="#171753"/>
<path d="M252.11 117.436L248.65 119.407L256.27 123.875L259.729 121.86L252.11 117.436Z" fill="#171753"/>
<path d="M234.988 117.303C234.813 117.653 234.506 117.96 234.024 118.267L230.916 120.106C229.558 120.895 227.5 120.983 226.318 120.282L218.217 115.595C217.91 115.42 217.691 115.201 217.56 114.981C217.21 114.324 217.56 113.536 218.523 112.967L221.632 111.127C222.99 110.338 225.048 110.251 226.23 110.952L234.331 115.595C235.119 116.033 235.294 116.69 234.988 117.303Z" fill="#171753"/>
<path d="M234.988 117.303C234.813 117.653 234.506 117.96 234.025 118.267L230.916 120.106C229.558 120.895 227.5 120.982 226.318 120.282L218.217 115.595C217.91 115.419 217.691 115.2 217.56 114.981C217.735 114.631 218.042 114.324 218.523 114.018L221.632 112.178C222.99 111.39 225.048 111.302 226.23 112.003L234.331 116.646C234.638 116.865 234.857 117.084 234.988 117.303Z" fill="white"/>
<path d="M236.258 79.9829L285.432 108.893V75.3836L236.258 46.4735V79.9829Z" fill="white"/>
<rect width="55.0028" height="2.49775" transform="matrix(0.859406 0.511293 0.0165799 0.999863 237.417 47.2998)" fill="#171753"/>
<rect width="8.57669" height="1.2489" rx="0.490567" transform="matrix(0.859406 0.511293 0.0165799 0.999863 276.257 71.0248)" fill="#E3E0EB"/>
<rect width="8.57669" height="1.2489" rx="0.490567" transform="matrix(0.859406 0.511293 0.0165799 0.999863 242.016 69.4265)" fill="#E3E0EB"/>
<circle cx="0.75477" cy="0.75477" r="0.75477" transform="matrix(0.859406 0.511293 0.0165799 0.999863 238.752 48.5826)" fill="#E3E0EB"/>
<rect width="16.6731" height="1.64673" transform="matrix(0.859406 0.511293 0.0165799 0.999863 240.14 54.8392)" fill="#171753"/>
<rect width="11.6643" height="1.64673" transform="matrix(0.859406 0.511293 0.0165799 0.999863 240.233 60.4904)" fill="#171753"/>
<rect width="12.6935" height="0.5793" transform="matrix(0.859406 0.511293 0.0165799 0.999863 240.28 63.3157)" fill="#171753"/>
<rect width="16.6731" height="0.5793" transform="matrix(0.859406 0.511293 0.0165799 0.999863 240.301 64.5506)" fill="#171753"/>
<rect width="13.4482" height="0.5793" transform="matrix(0.859406 0.511293 0.0165799 0.999863 240.321 65.7856)" fill="#171753"/>
<rect width="10.5323" height="0.453691" transform="matrix(0.859406 0.511293 0.0165799 0.999863 243.852 81.1984)" fill="#171753"/>
<rect width="10.5323" height="0.453691" transform="matrix(0.859406 0.511293 0.0165799 0.999863 256.676 88.7314)" fill="#171753"/>
<rect width="10.5323" height="0.453691" transform="matrix(0.859406 0.511293 0.0165799 0.999863 269.5 96.244)" fill="#171753"/>
<rect width="6.44833" height="0.453691" transform="matrix(0.859406 0.511293 0.0165799 0.999863 243.868 82.1654)" fill="#171753"/>
<rect width="6.44833" height="0.453691" transform="matrix(0.859406 0.511293 0.0165799 0.999863 256.692 89.6984)" fill="#171753"/>
<rect width="6.44833" height="0.453691" transform="matrix(0.859406 0.511293 0.0165799 0.999863 269.516 97.2112)" fill="#171753"/>
<rect width="19.1432" height="1.64673" transform="matrix(0.859406 0.511293 0.0165799 0.999863 240.187 57.6649)" fill="#171753"/>
<rect x="0.175599" y="0.302924" width="24.7557" height="13.7341" rx="1.58035" transform="matrix(0.859406 0.511293 0.0165799 0.999863 258.144 65.4494)" fill="#E3E0EB" stroke="#171753" stroke-width="0.400917"/>
<rect x="0.175599" y="0.302924" width="11.9584" height="6.54352" rx="1.33633" transform="matrix(0.859406 0.511293 0.0165799 0.999863 243.741 73.2418)" fill="#8989C7" stroke="#171753" stroke-width="0.400917"/>
<rect x="0.175599" y="0.302924" width="11.9584" height="6.54352" rx="1.33633" transform="matrix(0.859406 0.511293 0.0165799 0.999863 256.488 80.7292)" fill="#8989C7" stroke="#171753" stroke-width="0.400917"/>
<rect x="0.175599" y="0.302924" width="11.9584" height="6.54352" rx="1.33633" transform="matrix(0.859406 0.511293 0.0165799 0.999863 269.235 88.1959)" fill="#8989C7" stroke="#171753" stroke-width="0.400917"/>
<g style="mix-blend-mode:multiply">
<path d="M237.09 46.9553V79.5011L285.432 107.929V108.893L236.258 79.9829V46.4735L237.09 46.9553Z" fill="#171753"/>
</g>
<path d="M223.367 142.181V137.122L223.306 137.077L236.391 129.518V124.459L231.076 121.403L213.61 131.491L209.153 128.916L207.422 138.116V143.175L223.367 142.181Z" fill="#8989C7"/>
<path d="M207.422 143.596C207.316 143.596 207.211 143.551 207.136 143.491C207.045 143.416 207 143.31 207 143.19V138.131L208.732 128.856C208.762 128.72 208.837 128.615 208.972 128.555C209.093 128.494 209.243 128.51 209.349 128.57L213.595 131.024L230.865 121.056C231 120.981 231.151 120.981 231.286 121.056L236.601 124.128C236.737 124.203 236.812 124.339 236.812 124.489V129.548C236.812 129.699 236.737 129.835 236.601 129.91L223.788 137.303V142.181C223.788 142.407 223.623 142.588 223.397 142.603L207.452 143.596C207.437 143.596 207.422 143.596 207.422 143.596ZM209.439 129.563L207.828 138.191V142.738L222.945 141.79V137.242C222.93 137.197 222.915 137.152 222.915 137.092C222.915 136.941 222.96 136.791 223.096 136.715L235.969 129.277V124.685L231.076 121.854L213.821 131.822C213.7 131.897 213.535 131.912 213.399 131.837L209.439 129.563Z" fill="#171753"/>
<path d="M207.422 138.116L223.367 137.122L218.91 134.547L236.376 124.459L231.076 121.403L213.61 131.491L209.153 128.916L207.422 138.116Z" fill="#E3E0EB"/>
<path d="M207.422 138.537C207.301 138.537 207.196 138.492 207.106 138.402C207.015 138.311 206.985 138.176 207.015 138.055L208.747 128.856C208.777 128.72 208.852 128.615 208.988 128.555C209.108 128.494 209.259 128.51 209.364 128.57L213.61 131.024L230.88 121.056C231.016 120.981 231.166 120.981 231.302 121.056L236.617 124.128C236.752 124.203 236.827 124.339 236.827 124.489C236.827 124.64 236.752 124.775 236.617 124.851L219.738 134.547L223.563 136.761C223.728 136.851 223.803 137.032 223.758 137.212C223.713 137.393 223.563 137.513 223.382 137.528L207.437 138.522C207.437 138.537 207.437 138.537 207.422 138.537ZM209.439 129.564L207.919 137.664L221.951 136.791L218.684 134.909C218.549 134.833 218.473 134.698 218.473 134.547C218.473 134.397 218.549 134.261 218.684 134.186L235.548 124.459L231.061 121.87L213.806 131.837C213.685 131.912 213.52 131.927 213.384 131.852L209.439 129.564Z" fill="#171753"/>
<path d="M223.367 142.181V137.122L207.422 138.116V143.175L223.367 142.181Z" fill="#171753"/>
<path d="M207.422 143.596C207.316 143.596 207.211 143.551 207.135 143.491C207.045 143.416 207 143.31 207 143.19V138.131C207 137.905 207.166 137.724 207.391 137.724L223.336 136.73C223.442 136.73 223.562 136.761 223.653 136.836C223.743 136.911 223.788 137.032 223.788 137.137V142.181C223.788 142.407 223.623 142.588 223.397 142.603L207.452 143.596C207.437 143.596 207.422 143.596 207.422 143.596ZM207.828 138.507V142.738L222.945 141.79V137.559L207.828 138.507Z" fill="#171753"/>
<path d="M191.737 126.209L209.202 116.121L213.659 118.695L215.376 109.496V104.422L199.431 105.415L199.446 110.565L186.422 118.078V123.137L191.737 126.209Z" fill="#8989C7"/>
<path d="M191.737 126.63C191.661 126.63 191.601 126.615 191.526 126.57L186.211 123.499C186.075 123.423 186 123.288 186 123.137V118.078C186 117.928 186.075 117.792 186.211 117.717L199.024 110.324V105.416C199.024 105.205 199.19 105.009 199.416 105.009L215.361 104.015C215.481 104 215.586 104.045 215.677 104.121C215.767 104.196 215.812 104.301 215.812 104.422V109.481L214.081 118.756C214.051 118.891 213.975 118.997 213.84 119.057C213.719 119.117 213.569 119.102 213.463 119.042L209.217 116.588L191.947 126.555C191.872 126.6 191.797 126.63 191.737 126.63ZM186.828 122.911L191.722 125.742L208.992 115.775C209.127 115.699 209.278 115.699 209.413 115.775L213.358 118.048L214.984 109.421V104.874L199.867 105.822V110.58C199.867 110.731 199.792 110.866 199.656 110.941L186.828 118.319V122.911Z" fill="#171753"/>
<path d="M215.376 104.422L199.431 105.415L203.887 107.99L186.422 118.078L191.737 121.15L209.202 111.062L213.659 113.636L215.376 104.422Z" fill="#E3E0EB"/>
<path d="M191.737 121.556C191.661 121.556 191.601 121.541 191.526 121.496L186.211 118.424C186.075 118.349 186 118.214 186 118.063C186 117.912 186.075 117.777 186.211 117.702L203.059 107.975L199.22 105.762C199.069 105.671 198.979 105.491 199.024 105.31C199.069 105.129 199.22 105.009 199.4 104.994L215.346 104C215.481 104 215.601 104.045 215.677 104.136C215.767 104.226 215.797 104.361 215.767 104.482L214.036 113.681C214.005 113.817 213.93 113.922 213.795 113.983C213.674 114.043 213.524 114.028 213.418 113.968L209.172 111.513L191.902 121.481C191.872 121.541 191.797 121.556 191.737 121.556ZM187.25 118.078L191.737 120.668L209.007 110.7C209.112 110.64 209.217 110.625 209.338 110.655C209.383 110.67 209.413 110.685 209.458 110.715L213.373 112.974L214.894 104.873L200.831 105.747L204.098 107.629C204.219 107.704 204.309 107.839 204.309 107.99C204.309 108.141 204.234 108.276 204.098 108.351L187.25 118.078Z" fill="#171753"/>
<path d="M203.887 107.99L199.446 110.565V105.43L203.887 107.99ZM213.659 113.636L209.202 111.062V116.121L213.659 118.695V113.636ZM191.737 126.209V121.15L186.422 118.078V123.137L191.737 126.209Z" fill="#171753"/>
<path d="M191.737 126.63C191.661 126.63 191.601 126.615 191.526 126.57L186.211 123.498C186.075 123.423 186 123.288 186 123.137V118.078C186 117.927 186.075 117.792 186.211 117.717C186.346 117.641 186.497 117.641 186.632 117.717L191.947 120.788C192.083 120.864 192.158 120.999 192.158 121.15V126.209C192.158 126.359 192.083 126.495 191.947 126.57C191.872 126.6 191.797 126.63 191.737 126.63ZM186.828 122.911L191.315 125.501V121.39L186.828 118.801V122.911ZM213.659 119.102C213.584 119.102 213.524 119.087 213.448 119.042L208.992 116.467C208.856 116.392 208.781 116.256 208.781 116.106V111.047C208.781 110.896 208.856 110.76 208.992 110.685C209.127 110.61 209.278 110.61 209.413 110.685L213.87 113.26C214.005 113.335 214.081 113.471 214.081 113.621V118.695C214.081 118.846 214.005 118.981 213.87 119.057C213.795 119.087 213.719 119.102 213.659 119.102ZM209.624 115.88L213.253 117.973V113.862L209.624 111.769V115.88ZM199.446 110.971C199.37 110.971 199.31 110.956 199.235 110.911C199.114 110.836 199.024 110.7 199.024 110.55V105.415C199.024 105.265 199.099 105.129 199.235 105.054C199.37 104.979 199.521 104.979 199.641 105.054L204.098 107.629C204.219 107.704 204.309 107.839 204.309 107.99C204.309 108.141 204.234 108.276 204.098 108.351L199.641 110.926C199.581 110.956 199.506 110.971 199.446 110.971ZM199.852 106.138V109.842L203.059 107.99L199.852 106.138Z" fill="#171753"/>
<path d="M28.9653 97.8473L40.1021 104.396C41.9364 105.444 45.081 105.575 46.9153 104.527L58.1832 98.2402C59.1003 97.7163 59.6244 96.9305 59.6244 96.2756V91.1676C59.6244 91.1676 59.6244 91.1676 59.4934 91.1676L54.9076 93.5251L50.8459 85.7977C49.0116 84.4879 39.185 83.7021 37.2197 84.7499L32.3718 93.1322L27.6551 90.6437H27.524V95.7517C27.524 96.5375 28.0481 97.1924 28.9653 97.8473ZM50.5839 94.442L48.0945 95.7517V96.7995L38.1368 96.1446V95.0968L36.6956 94.311L41.9364 91.4296C42.9846 90.9057 44.6879 90.9057 45.6051 91.4296L50.5839 94.442Z" fill="#8989C7"/>
<path d="M58.4453 98.6331L47.1774 104.92C45.081 106.099 41.8055 105.968 39.8401 104.789L28.7033 98.2402C27.5241 97.5853 27 96.7995 27 95.7517V90.6437V90.2508L27.5241 89.9888L31.9788 92.3464L36.6956 84.3569L36.8266 84.226C38.923 83.0472 49.0117 83.964 50.977 85.1428L51.108 85.2737L55.0387 92.6083L59.2314 90.5127L59.4934 90.3817L60.0175 90.7747V96.1446C60.0175 96.6685 59.8865 97.1924 59.4934 97.7163C59.3624 97.9783 58.9693 98.3712 58.4453 98.6331ZM55.1697 93.7871L54.9077 93.9181L54.5146 93.7871L50.4529 86.0596C48.4876 85.1428 39.5781 84.3569 37.6128 85.1428L32.765 93.5251L32.2409 93.6561L28.1792 91.5605V95.8827C28.1792 96.4066 28.5723 96.9305 29.2274 97.3234L40.3642 103.872C42.0675 104.92 44.95 104.92 46.6533 104.003L57.9212 97.7163C58.7073 97.3234 59.1004 96.7995 59.1004 96.1446V91.8225L55.1697 93.7871ZM48.6186 96.1446C48.6186 96.2756 48.6186 96.2756 48.6186 96.4066C48.6186 97.1924 48.6186 97.1924 48.3566 97.3234L48.2256 97.4544L38.0058 96.7995C37.4818 96.6685 37.4818 96.2756 37.4818 95.6207V95.4897L35.3854 94.442L41.4124 91.0366C42.5916 90.3817 44.5569 90.3817 45.7361 91.0366L50.846 94.049L51.108 94.311V94.9658L48.6186 96.1446ZM38.2679 94.5729C38.6609 94.7039 38.6609 94.9658 38.6609 95.6207C38.6609 95.6207 38.6609 95.6207 38.6609 95.7517L47.5704 96.4066C47.5704 95.6207 47.5704 95.4897 47.8325 95.3588L49.5358 94.5729L45.212 92.0844C44.2949 91.5605 42.8537 91.5605 42.0675 92.0844L37.7438 94.5729H38.2679Z" fill="#171753"/>
<path d="M47.1774 109.848L62.9065 100.628C63.172 100.472 63.2713 100.137 63.1336 99.862C62.9824 99.5597 62.6069 99.4483 62.3153 99.6193L46.6533 108.801C45.1272 109.622 42.6544 109.708 40.9313 108.963C40.616 108.826 40.2321 108.934 40.0784 109.241C39.9433 109.511 40.0345 109.842 40.3043 109.978C42.38 111.021 45.2307 110.943 47.1774 109.848Z" fill="#171753"/>
<path d="M40.3642 82.3923L29.0963 88.81C27.262 89.8578 27.131 91.5605 29.0963 92.7392L40.2332 99.2879C42.0675 100.336 45.081 100.467 47.0463 99.4189L58.3142 93.0012C60.1485 91.9534 60.2796 90.2507 58.3142 89.0719L47.1774 82.5232C45.212 81.3445 42.1985 81.3445 40.3642 82.3923ZM41.8055 86.1905C42.8536 85.6666 44.4259 85.6666 45.4741 86.1905L51.6321 89.8578C52.6803 90.5127 52.6803 91.4295 51.6321 91.9534L45.3431 95.4897C44.2949 96.0136 42.7226 96.0136 41.6744 95.4897L35.5164 91.8224C34.5993 91.2985 34.5993 90.2507 35.6474 89.7268L41.8055 86.1905Z" fill="#ECFFFE"/>
<path d="M58.4453 93.5251L47.1774 99.9428C45.0811 101.122 41.9365 101.122 39.8402 99.8118L28.7033 93.2631C27.6551 92.4773 27 91.6914 27 90.6436C27 89.7268 27.6551 88.81 28.7033 88.2861L40.1022 81.8684C42.1986 80.6896 45.3431 80.6896 47.4395 81.9993L58.5763 88.548C59.6245 89.2029 60.2796 90.1197 60.2796 91.0365C60.2796 91.5604 60.1486 92.0843 59.7555 92.4773C59.3624 92.8702 58.9694 93.2631 58.4453 93.5251ZM46.7843 82.9161C45.0811 81.8684 42.1986 81.8684 40.4953 82.7852L29.3584 89.2029C28.5723 89.5958 28.1792 90.1197 28.1792 90.7746C28.1792 91.2985 28.5723 91.8224 29.2274 92.2153L40.3643 98.764C42.0676 99.8118 44.95 99.8118 46.6533 98.895L57.9212 92.4773C58.7073 92.0843 59.1004 91.5604 59.1004 91.0365C59.1004 90.5127 58.7073 89.9888 58.0522 89.5958L46.7843 82.9161ZM51.8942 92.4773L45.6051 96.0136C44.4259 96.6684 42.5916 96.6684 41.4124 96.0136L35.2544 92.3463C34.5993 91.9534 34.2062 91.4295 34.3373 90.7746C34.3373 90.1197 34.7303 89.5958 35.3854 89.2029L41.6745 85.6666C42.8537 85.0117 44.688 85.0117 45.8672 85.6666L52.0252 89.3339C52.6803 89.7268 53.0734 90.2507 53.0734 90.9056C53.0734 91.2985 52.9424 91.5604 52.6803 91.8224C52.4183 92.2153 52.2873 92.3463 51.8942 92.4773ZM35.9095 90.2507C35.5165 90.3817 35.3854 90.6436 35.3854 90.7746C35.3854 90.9056 35.5165 91.1675 35.9095 91.2985L42.0676 94.9658C42.8537 95.4897 44.2949 95.4897 45.2121 94.9658L51.3701 91.5604C51.7632 91.4295 51.8942 91.1675 51.8942 91.0365C51.8942 90.9056 51.7632 90.6436 51.3701 90.5127L45.2121 86.8454C44.4259 86.3215 42.9847 86.3215 42.0676 86.8454L35.9095 90.2507Z" fill="#171753"/>
<path d="M43.0049 100.177L42.9546 105.285L44.0028 105.295L44.0531 100.187L43.0049 100.177Z" fill="#171753"/>
<path d="M43.1008 85.7508L43.0504 90.8588L44.0986 90.8691L44.1489 85.7611L43.1008 85.7508Z" fill="#171753"/>
<path d="M56.5778 93.5525L56.5272 98.6605L57.5754 98.6708L57.626 93.5628L56.5778 93.5525Z" fill="#171753"/>
<path d="M30.5282 93.7213L30.4778 98.8293L31.526 98.8396L31.5763 93.7316L30.5282 93.7213Z" fill="#171753"/>
<path d="M52.4182 91.4295C52.4182 91.4295 49.7978 93.1322 49.6668 93.2631C49.5357 93.3941 45.4741 91.1676 45.4741 91.1676L43.7708 90.6437V85.7976L46.2602 86.7144C46.2602 86.7144 52.0251 89.8578 52.0251 89.9888C52.0251 90.1198 52.4182 91.4295 52.4182 91.4295Z" fill="#171753"/>
<g opacity="0.7">
<path d="M57.1182 37.6446L57.1182 38.9332L54.116 38.9332L54.116 37.6446L57.1182 37.6446ZM51.0066 37.6446L51.0066 38.9332L48.0044 38.9332L48.0044 37.6446L51.0066 37.6446ZM45.0022 37.6446L45.0022 38.9332L42 38.9332L42 37.6446L45.0022 37.6446Z" fill="#171753"/>
<path d="M50.1488 30.6646L50.1488 33.6713L48.8621 33.6713L48.8621 30.6646L50.1488 30.6646ZM50.1488 36.7855L50.1488 39.7923L48.8621 39.7923L48.8621 36.7855L50.1488 36.7855ZM50.1488 42.9064L50.1488 45.9132L48.8621 45.9132L48.8621 42.9064L50.1488 42.9064Z" fill="#171753"/>
<path d="M59.5838 21L59.5838 24.0068L58.2972 24.0068L58.2972 21L59.5838 21ZM59.5838 27.1209L59.5838 30.1277L58.2972 30.1277L58.2972 27.1209L59.5838 27.1209Z" fill="#171753"/>
</g>
<g opacity="0.7">
<path d="M83.4674 80.2522L83.4674 78.9662L86.4713 78.9662L86.4713 80.2522L83.4674 80.2522ZM89.5824 80.2522L89.5824 78.9662L92.5863 78.9662L92.5863 80.2522L89.5824 80.2522ZM95.5901 80.2522L95.5901 78.9662L98.594 78.9662L98.594 80.2522L95.5901 80.2522Z" fill="#171753"/>
<path d="M90.4407 87.2179L90.4407 84.2172L91.728 84.2172L91.728 87.2179L90.4407 87.2179ZM90.4407 81.1093L90.4407 78.1086L91.728 78.1086L91.728 81.1093L90.4407 81.1093ZM90.4407 75.0008L90.4407 72.0001L91.728 72.0001L91.728 75.0008L90.4407 75.0008Z" fill="#171753"/>
<path d="M81 96.8628L81 93.8621L82.2874 93.8621L82.2874 96.8628L81 96.8628ZM81 90.7542L81 87.7535L82.2874 87.7535L82.2874 90.7542L81 90.7542Z" fill="#171753"/>
</g>
<g opacity="0.7">
<path d="M253.102 22.6178L253.102 21.3318L256.106 21.3318L256.106 22.6178L253.102 22.6178ZM259.217 22.6178L259.217 21.3318L262.221 21.3318L262.221 22.6178L259.217 22.6178ZM265.225 22.6178L265.225 21.3318L268.228 21.3318L268.228 22.6178L265.225 22.6178Z" fill="#171753"/>
<path d="M260.075 29.5835L260.075 26.5828L261.362 26.5828L261.362 29.5835L260.075 29.5835ZM260.075 23.4749L260.075 20.4742L261.362 20.4742L261.362 23.4749L260.075 23.4749ZM260.075 17.3663L260.075 14.3656L261.362 14.3656L261.362 17.3663L260.075 17.3663Z" fill="#171753"/>
<path d="M250.634 39.2284L250.634 36.2277L251.922 36.2277L251.922 39.2284L250.634 39.2284ZM250.634 33.1198L250.634 30.1191L251.922 30.1191L251.922 33.1198L250.634 33.1198Z" fill="#171753"/>
</g>
<g opacity="0.7">
<path d="M272.98 145.13L274.269 145.13L274.269 148.132L272.98 148.132L272.98 145.13ZM272.98 151.242L274.269 151.242L274.269 154.244L272.98 154.244L272.98 151.242ZM272.98 157.246L274.269 157.246L274.269 160.249L272.98 160.249L272.98 157.246Z" fill="#171753"/>
<path d="M266 152.1L269.007 152.1L269.007 153.386L266 153.386L266 152.1ZM272.121 152.1L275.128 152.1L275.128 153.386L272.121 153.386L272.121 152.1ZM278.242 152.1L281.249 152.1L281.249 153.386L278.242 153.386L278.242 152.1Z" fill="#171753"/>
<path d="M256.335 142.665L259.342 142.665L259.342 143.951L256.335 143.951L256.335 142.665ZM262.456 142.665L265.463 142.665L265.463 143.951L262.456 143.951L262.456 142.665Z" fill="#171753"/>
</g>
</svg>
