<svg width="32" height="33" viewBox="0 0 32 33" fill="none" xmlns="http://www.w3.org/2000/svg">
<path fill-rule="evenodd" clip-rule="evenodd" d="M21.8675 25.3813L20.455 23.6997C23.2128 22.9598 24.2891 21.0764 24.2891 21.0764C20.7913 24.3723 11.2398 24.5069 7.54026 21.0764C7.54026 21.0764 8.48196 22.8253 11.3071 23.6997L9.75998 25.3813C5.05149 25.314 3.23535 22.1526 3.23535 22.1526C3.23535 15.1571 6.32951 9.57421 6.32951 9.57421C9.49092 7.35449 12.3833 7.35449 12.3833 7.35449L12.5851 7.62355C8.68375 8.69978 7.00215 10.4486 7.00215 10.4486C11.5761 7.35449 20.9931 7.62355 24.6926 10.4486C24.7599 10.3814 22.4729 8.56525 18.9079 7.62355L19.2442 7.35449C19.2442 7.35449 22.1366 7.35449 25.298 9.57421C25.298 9.57421 28.3922 15.1571 28.3922 22.1526C28.3922 22.1526 26.576 25.314 21.8675 25.3813ZM11.7784 20.1346C13.0043 20.1346 13.9981 19.0805 13.9981 17.7803C13.9981 16.4801 13.0043 15.4261 11.7784 15.4261C10.5524 15.4261 9.55864 16.4801 9.55864 17.7803C9.55864 19.0805 10.5524 20.1346 11.7784 20.1346ZM21.8008 17.7803C21.8008 19.0805 20.807 20.1346 19.5811 20.1346C18.3552 20.1346 17.3614 19.0805 17.3614 17.7803C17.3614 16.4801 18.3552 15.4261 19.5811 15.4261C20.807 15.4261 21.8008 16.4801 21.8008 17.7803Z" fill="#BEF0ED"/>
</svg>
