<svg width="240" height="264" viewBox="0 0 240 264" fill="none" xmlns="http://www.w3.org/2000/svg">
<rect width="240" height="264" rx="24" fill="#FFC78F"/>
<path d="M218.748 193.965C216.083 190.671 213.262 191.298 205.896 189.729C199.627 188.317 193.044 188.317 186.932 190.043C180.819 191.612 177.058 192.71 174.393 195.534L171.102 197.103V204.006V204.162C171.259 208.712 175.02 213.105 182.543 216.242C190.066 219.38 198.216 219.851 206.053 217.968C217.181 215.301 222.666 209.81 222.823 204.162V203.849V197.103L218.748 193.965Z" fill="#171753"/>
<path d="M196.806 219.851C191.79 219.851 186.775 218.909 182.23 217.027C174.707 213.889 170.475 209.34 170.318 204.163V204.006V196.475L173.923 194.593C176.744 191.455 180.976 190.357 186.775 188.945C193.044 187.376 199.783 187.219 206.209 188.631C208.247 189.102 209.971 189.416 211.381 189.572C215.143 190.2 217.337 190.514 219.531 193.181L224.077 196.632V204.006C223.92 210.595 217.337 216.086 206.523 218.753C203.231 219.537 200.097 219.851 196.806 219.851ZM172.199 197.73V204.006C172.356 208.555 176.117 212.477 183.013 215.301C190.066 218.282 198.216 218.753 206.053 216.87C215.77 214.517 221.882 209.496 222.039 204.006V203.692V197.73L218.121 194.593C216.397 192.553 214.673 192.239 211.068 191.612C209.501 191.298 207.933 191.141 205.739 190.671C199.627 189.259 193.201 189.416 187.088 190.984C180.819 192.553 177.371 193.651 175.02 196.162L174.707 196.318L172.199 197.73Z" fill="#171753"/>
<path d="M215.456 186.592C225.644 192.397 225.644 201.966 215.456 207.771C205.269 213.576 188.969 213.576 178.782 207.771C168.594 201.966 168.594 192.397 178.782 186.592C188.812 180.63 205.269 180.63 215.456 186.592Z" fill="white"/>
<path d="M197.119 213.105C190.38 213.105 183.483 211.536 178.311 208.555C173.139 205.575 170.318 201.496 170.318 197.103C170.318 192.71 173.139 188.631 178.311 185.651C188.656 179.689 205.582 179.689 215.927 185.651C221.099 188.631 223.92 192.71 223.92 197.103C223.92 201.496 221.099 205.575 215.927 208.555C210.754 211.536 203.858 213.105 197.119 213.105ZM197.119 183.14C190.693 183.14 184.267 184.552 179.252 187.376C174.707 190.043 172.199 193.495 172.199 197.103C172.199 200.711 174.707 204.163 179.252 206.83C189.126 212.477 205.112 212.477 214.986 206.83C219.531 204.163 222.039 200.711 222.039 197.103C222.039 193.495 219.531 190.043 214.986 187.376C209.971 184.552 203.545 183.14 197.119 183.14Z" fill="#171753"/>
<path d="M209.814 190.671C202.761 187.062 191.32 187.062 184.267 190.671C177.214 194.279 177.214 200.084 184.267 203.535C191.32 207.143 202.761 207.143 209.814 203.535C216.867 200.084 216.867 194.279 209.814 190.671Z" fill="#171753"/>
<path d="M197.119 207.143C192.26 207.143 187.558 206.202 183.954 204.319C180.192 202.437 178.155 199.77 178.155 196.946C178.155 194.122 180.192 191.455 183.954 189.573C191.32 185.964 203.075 185.964 210.441 189.573C214.203 191.455 216.24 194.122 216.24 196.946C216.24 199.77 214.203 202.437 210.441 204.319C206.679 206.202 201.821 207.143 197.119 207.143ZM197.119 188.945C192.574 188.945 188.185 189.729 184.737 191.455C181.603 193.024 180.035 195.063 180.035 197.103C180.035 199.142 181.759 201.182 184.737 202.751C191.477 206.202 202.604 206.202 209.501 202.751C212.635 201.182 214.203 199.142 214.203 197.103C214.203 195.063 212.478 193.024 209.501 191.455C206.053 189.729 201.507 188.945 197.119 188.945Z" fill="#171753"/>
<path d="M209.814 194.593C202.761 190.984 191.32 190.984 184.267 194.593C181.759 195.848 180.035 197.417 179.408 199.142C180.192 200.868 181.759 202.437 184.267 203.692C191.32 207.3 202.761 207.3 209.814 203.692C212.322 202.437 214.046 200.868 214.673 199.142C214.046 197.417 212.479 195.848 209.814 194.593Z" fill="#FFC78F"/>
<path d="M197.119 207.143C192.26 207.143 187.558 206.202 183.954 204.32C181.289 202.908 179.408 201.182 178.625 199.299L178.468 198.986L178.625 198.672C179.408 196.789 181.289 195.063 183.954 193.652C191.32 190.043 203.075 190.043 210.441 193.652C213.105 195.063 214.986 196.789 215.77 198.672L215.927 198.986L215.77 199.299C214.986 201.182 213.105 202.908 210.441 204.32C206.68 206.202 201.821 207.143 197.119 207.143ZM180.506 198.986C181.289 200.397 182.7 201.653 184.737 202.594C191.477 206.045 202.605 206.045 209.501 202.594C211.538 201.496 212.949 200.241 213.732 198.986C212.949 197.574 211.538 196.319 209.501 195.377C202.761 191.926 191.633 191.926 184.737 195.377C182.7 196.475 181.133 197.73 180.506 198.986Z" fill="#171753"/>
<path d="M215.456 208.399H214.046V214.046H215.456V208.399Z" fill="#FFC78F"/>
<path d="M175.647 205.261H174.236V210.909H175.647V205.261Z" fill="#FFC78F"/>
<path d="M200.097 188.161H198.686V191.769H200.097V188.161Z" fill="#FFC78F"/>
<path d="M209.03 210.909H207.62V216.556H209.03V210.909Z" fill="#FFC78F"/>
<path d="M159.143 108.682L159.142 108.682L159.138 108.679L79.6314 62.4765C78.6234 61.8911 77.7837 61.8735 77.2225 62.1846C76.6654 62.4935 76.2482 63.2018 76.2482 64.3683L76.2482 64.3702L75.9699 121.565C75.9699 121.566 75.9699 121.567 75.9699 121.567C75.9704 122.736 76.3788 124.062 77.0581 125.253C77.7379 126.445 78.6679 127.466 79.6725 128.05L79.6726 128.05L159.179 174.253C159.179 174.253 159.179 174.253 159.179 174.253C160.187 174.838 161.027 174.856 161.588 174.545C162.145 174.236 162.562 173.527 162.562 172.361L162.562 172.358L162.91 115.164C162.91 115.163 162.91 115.163 162.91 115.163C162.91 113.993 162.501 112.669 161.814 111.478C161.127 110.287 160.181 109.266 159.143 108.682Z" fill="#F5F5F5" stroke="#171753" stroke-width="0.774451"/>
<path d="M86.5418 135.566H84.2463V132.435H86.5418V135.566Z" fill="#F5F5F5"/>
<path d="M70.8903 133.113L14.827 161.882V166.707C14.8879 167.312 15.2783 167.973 16.2368 168.549C16.2375 168.549 16.2382 168.55 16.239 168.55L95.8102 214.75L95.8103 214.75C96.815 215.334 98.1699 215.637 99.5482 215.646C100.925 215.654 102.28 215.368 103.286 214.817C103.287 214.816 103.289 214.816 103.29 214.815L157.881 183.302C157.882 183.301 157.883 183.3 157.884 183.3C158.842 182.724 159.232 182.063 159.293 181.458V176.784H158.05V178.693V179.366L157.468 179.028L78.3792 133.103L78.5736 132.769L78.3792 133.103C77.3746 132.52 76.0202 132.216 74.6436 132.216C73.267 132.216 71.9126 132.52 70.908 133.103L70.8992 133.108L70.8903 133.113Z" fill="#171753" stroke="#171753" stroke-width="0.774451"/>
<path d="M85.7851 132.478L84.8574 132.984L84.2521 133.314L84.8491 133.659L142.653 167.059L142.847 167.171L143.041 167.059L144.168 166.406L157.955 174.434L157.964 174.439L157.964 174.439C158.963 174.987 159.38 175.695 159.38 176.335C159.38 176.978 158.96 177.704 157.956 178.287L85.7851 132.478ZM85.7851 132.478L78.3793 128.162C77.3747 127.578 76.0203 127.275 74.6437 127.275C73.2671 127.275 71.9127 127.578 70.9081 128.162L70.9072 128.162L16.303 159.683L16.2956 159.687C15.2963 160.236 14.8793 160.943 14.8793 161.583C14.8793 162.226 15.2998 162.953 16.3038 163.536L95.8799 209.739L95.88 209.739L95.8879 209.744C96.891 210.359 98.243 210.678 99.6179 210.687C100.993 210.695 102.347 210.392 103.351 209.809L103.352 209.808L157.955 178.288L85.7851 132.478Z" fill="#F5F5F5" stroke="#171753" stroke-width="0.774451"/>
<path d="M78.6434 60.8894C78.9912 60.6806 79.4086 60.4719 79.7564 60.2632C80.452 59.8457 81.4954 59.9152 82.5387 60.5415L162.115 106.744C164.271 107.997 166.01 111.059 166.01 113.564L165.732 170.691C165.732 171.944 165.315 172.779 164.549 173.196C163.576 173.753 162.671 174.309 161.767 174.796C162.463 174.379 162.88 173.544 162.88 172.291L163.228 115.234C163.228 112.729 161.489 109.667 159.332 108.414L79.7564 62.1419C78.6434 61.5156 77.6696 61.4461 76.974 61.8636C77.0435 61.794 78.2261 61.0981 78.6434 60.8894Z" fill="#171753"/>
<path d="M77.6001 143.416L72.0353 146.617L77.7392 149.957L83.304 146.756L77.6001 143.416Z" fill="#171753"/>
<path d="M68.7661 146.128L63.2709 149.26L68.9747 152.6L74.4699 149.468L68.7661 146.128Z" fill="#171753"/>
<path d="M60.8363 141.885L54.4368 145.573L50.7502 147.661L48.8721 148.774L58.5408 154.341L64.036 151.21L61.1145 149.47L67.4445 145.782L60.8363 141.885Z" fill="#171753"/>
<path d="M75.165 149.885L69.6698 153.017L75.3737 156.357L80.8689 153.225L75.165 149.885Z" fill="#171753"/>
<path d="M47.6199 149.47L42.1247 152.671L53.8803 159.56L59.3755 156.359L47.6199 149.47Z" fill="#171753"/>
<path d="M59.932 156.707L54.4369 159.838L63.3405 165.057L68.9052 161.856L59.932 156.707Z" fill="#171753"/>
<path d="M77.5304 159.072L72.0352 162.273L77.7391 165.613L83.2343 162.412L77.5304 159.072Z" fill="#171753"/>
<path d="M74.6783 133.883L69.1831 137.084L74.887 140.424L80.4517 137.223L74.6783 133.883Z" fill="#171753"/>
<path d="M81.4953 137.849L76.0001 141.05L81.704 144.39L87.1992 141.189L81.4953 137.849Z" fill="#171753"/>
<path d="M67.9314 137.78L62.4362 140.98L71.2702 146.129L76.7654 142.998L67.9314 137.78Z" fill="#171753"/>
<path d="M88.3122 141.816L82.7475 145.017L88.4514 148.357L94.0161 145.156L88.3122 141.816Z" fill="#171753"/>
<path d="M95.0594 145.852L89.5642 148.983L95.268 152.323L100.763 149.192L95.0594 145.852Z" fill="#171753"/>
<path d="M84.069 147.242L78.5738 150.373L84.2777 153.713L89.7729 150.513L84.069 147.242Z" fill="#171753"/>
<path d="M101.877 149.816L96.3119 152.948L102.085 156.288L107.581 153.087L101.877 149.816Z" fill="#171753"/>
<path d="M90.538 150.999L85.0428 154.2L90.7467 157.54L96.2419 154.339L90.538 150.999Z" fill="#171753"/>
<path d="M64.801 151.625L59.2363 154.826L64.9402 158.166L70.5049 154.965L64.801 151.625Z" fill="#171753"/>
<path d="M108.694 153.715L103.129 156.916L108.833 160.256L114.397 157.125L108.694 153.715Z" fill="#171753"/>
<path d="M81.6343 153.645L76.0696 156.776L81.7734 160.116L87.2686 156.915L81.6343 153.645Z" fill="#171753"/>
<path d="M97.0766 154.828L91.5118 157.959L97.2157 161.299L102.78 158.168L97.0766 154.828Z" fill="#171753"/>
<path d="M71.2008 155.385L65.7057 158.586L71.34 161.856L76.9047 158.725L71.2008 155.385Z" fill="#171753"/>
<path d="M88.0337 157.332L82.4689 160.532L88.1728 163.872L93.7375 160.672L88.0337 157.332Z" fill="#171753"/>
<path d="M115.441 157.749L109.945 160.881L115.649 164.221L121.145 161.089L115.441 157.749Z" fill="#171753"/>
<path d="M103.546 158.585L98.0506 161.786L103.755 165.126L109.25 161.925L103.546 158.585Z" fill="#171753"/>
<path d="M94.4334 161.089L88.9382 164.29L94.6421 167.63L100.137 164.429L94.4334 161.089Z" fill="#171753"/>
<path d="M122.258 161.716L116.762 164.847L122.466 168.187L127.961 165.056L122.258 161.716Z" fill="#171753"/>
<path d="M110.015 162.411L104.52 165.542L110.224 168.882L115.788 165.751L110.015 162.411Z" fill="#171753"/>
<path d="M84.2083 162.968L78.6435 166.099L84.3474 169.439L89.9122 166.308L84.2083 162.968Z" fill="#171753"/>
<path d="M100.833 164.847L95.3379 168.048L101.042 171.388L106.607 168.187L100.833 164.847Z" fill="#171753"/>
<path d="M129.074 165.683L123.509 168.814L129.213 172.154L134.778 169.023L129.074 165.683Z" fill="#171753"/>
<path d="M116.553 166.168L110.989 169.369L116.692 172.709L122.257 169.508L116.553 166.168Z" fill="#171753"/>
<path d="M90.538 166.656L84.9733 169.857L90.6772 173.197L96.2419 169.996L90.538 166.656Z" fill="#171753"/>
<path d="M107.302 168.604L101.737 171.805L107.441 175.145L113.006 171.944L107.302 168.604Z" fill="#171753"/>
<path d="M96.9375 170.413L91.4423 173.614L97.1462 176.885L102.641 173.753L96.9375 170.413Z" fill="#171753"/>
<path d="M138.395 171.108L132.9 174.309L138.604 177.649L144.099 174.448L138.395 171.108Z" fill="#171753"/>
<path d="M113.702 172.362L108.137 175.562L113.841 178.902L119.406 175.702L113.702 172.362Z" fill="#171753"/>
<path d="M69.4616 162.204L63.8969 165.405L89.0079 180.017L94.5031 176.886L69.4616 162.204Z" fill="#171753"/>
<path d="M103.267 174.103L97.772 177.303L103.476 180.643L109.041 177.443L103.267 174.103Z" fill="#171753"/>
<path d="M123.301 170.134L117.806 173.335L131.857 181.545L137.352 178.345L123.301 170.134Z" fill="#171753"/>
<path d="M120.101 176.12L114.606 179.32L125.04 185.444L130.605 182.243L120.101 176.12Z" fill="#171753"/>
<path d="M95.3377 177.372L89.7729 180.503L98.7461 185.722L104.241 182.521L95.3377 177.372Z" fill="#171753"/>
<path d="M109.806 177.929L104.241 181.06L118.292 189.271L123.857 186.139L109.806 177.929Z" fill="#171753"/>
<path d="M104.937 183.009L99.442 186.141L111.545 193.238L117.041 190.037L104.937 183.009Z" fill="#171753"/>
<path d="M77.7392 182.799C77.461 183.355 76.974 183.842 76.2089 184.329L71.2702 187.252C69.1138 188.504 65.8445 188.643 63.9664 187.53L51.0979 180.085C50.611 179.806 50.2632 179.459 50.0545 179.111C49.498 178.067 50.0545 176.814 51.5848 175.91L56.5235 172.987C58.6799 171.735 61.9492 171.596 63.8273 172.709L76.6958 180.085C77.9479 180.781 78.2261 181.824 77.7392 182.799Z" fill="#171753"/>
<path d="M77.7392 182.799C77.461 183.355 76.974 183.842 76.2089 184.33L71.2702 187.252C69.1138 188.504 65.8445 188.644 63.9664 187.53L51.0979 180.085C50.611 179.807 50.2632 179.459 50.0545 179.111C50.3328 178.554 50.8197 178.067 51.5848 177.58L56.5236 174.658C58.6799 173.405 61.9492 173.266 63.8273 174.379L76.6958 181.755C77.1827 182.103 77.5305 182.451 77.7392 182.799Z" fill="#FFC78F"/>
<path d="M79.7563 123.514L157.872 169.439V116.208L79.7563 70.2836V123.514Z" fill="#FFC78F"/>
<g style="mix-blend-mode:multiply">
<path d="M81.078 71.049V122.749L157.872 167.908V169.439L79.7563 123.514V70.2836L81.078 71.049Z" fill="#353570"/>
</g>
<path d="M146.745 129.223C146.745 129.223 145.255 110.037 142.05 108.171C138.846 106.305 136.983 127.208 136.983 127.208L140.262 138.704L145.031 141.243L146.745 129.223Z" fill="#FFC78F"/>
<path d="M145.329 141.84L147.118 129.298V129.223C146.969 127.208 145.478 109.739 142.2 107.872C141.827 107.648 141.454 107.648 141.082 107.872C138.25 109.365 136.76 125.416 136.611 127.208V127.282L139.964 139.003L145.329 141.84ZM146.373 129.223L144.733 140.645L140.56 138.48L137.356 127.133C137.952 120.116 139.591 109.44 141.454 108.47C141.603 108.395 141.678 108.395 141.827 108.47C144.286 109.963 145.926 123.923 146.373 129.223Z" fill="#171753"/>
<path d="M141.131 108.389L145.325 116.302L144.799 116.582L140.605 108.67L141.131 108.389Z" fill="#171753"/>
<path d="M140.215 110.303L146.184 121.581L145.657 121.861L139.688 110.582L140.215 110.303Z" fill="#171753"/>
<path d="M139.55 112.595L145.158 123.22L144.631 123.499L139.023 112.874L139.55 112.595Z" fill="#171753"/>
<path d="M138.745 114.859L143.684 124.15L143.157 124.431L138.219 115.139L138.745 114.859Z" fill="#171753"/>
<path d="M138.663 118.291L142.2 124.947L141.673 125.228L138.137 118.572L138.663 118.291Z" fill="#171753"/>
<path d="M139.217 123.267L140.785 126.151L140.261 126.437L138.693 123.552L139.217 123.267Z" fill="#171753"/>
<path d="M127.594 105.634C127.37 104.215 127.072 102.722 127.072 102.722L130.5 100.557C130.5 100.557 130.575 100.557 130.724 100.408C131.245 100.184 131.842 100.184 132.438 100.557C139.294 104.514 140.039 139.676 140.039 139.676C140.039 139.676 140.188 137.585 140.635 134.973L140.411 134.525L141.455 125.417L143.169 124.372C143.69 124.073 144.137 123.7 144.585 123.401C145.181 122.953 145.851 122.953 146.671 123.401C151.738 126.537 153.751 150.575 153.751 150.575L150.099 152.815L146.746 146.619L123.719 133.48C123.793 133.33 124.688 114.965 127.594 105.634Z" fill="#FFC78F"/>
<path d="M133.257 131.838L123.793 126.089C124.389 120.042 125.358 112.129 126.997 106.978C126.774 105.56 126.476 104.066 126.476 104.066L129.904 101.902C129.904 101.902 129.978 101.902 130.127 101.752C130.649 101.528 131.245 101.528 131.841 101.902C135.865 104.365 137.803 117.803 138.697 128.254L133.257 131.838Z" fill="#FFC78F"/>
<path d="M148.608 150.128L141.007 132.286L140.336 130.569L140.784 126.836L142.498 125.791C143.019 125.492 143.466 125.119 143.913 124.821C144.51 124.373 145.18 124.373 146 124.821C149.726 127.135 151.738 140.647 152.632 147.739L148.608 150.128Z" fill="#FFC78F"/>
<path d="M150.099 153.188L154.123 150.725V150.501C154.049 149.53 152.036 126.238 146.895 123.103C146.075 122.58 145.181 122.58 144.435 123.103C144.286 123.252 144.063 123.327 143.914 123.476C143.616 123.7 143.318 123.924 143.02 124.073L141.157 125.268L140.188 133.256C139.592 122.804 137.878 103.32 132.661 100.334C131.991 99.9603 131.32 99.8856 130.649 100.184C130.5 100.259 130.426 100.259 130.426 100.334L126.774 102.648L126.849 102.872C126.849 102.872 127.072 104.29 127.296 105.709C124.389 115.04 123.495 133.256 123.495 133.405V133.629L146.597 146.843L149.875 153.039L150.099 153.188ZM153.303 150.277L150.248 152.218L147.044 146.246L124.166 133.181C124.315 131.016 125.209 114.443 127.966 105.783V105.709V105.634C127.817 104.514 127.594 103.394 127.519 102.946L130.724 100.931C130.724 100.931 130.798 100.856 130.947 100.781C131.32 100.632 131.767 100.632 132.289 100.931C138.921 104.738 139.666 139.377 139.741 139.751H140.486C140.486 139.751 140.635 137.66 141.082 135.047V134.898L140.858 134.45L141.902 125.641L143.467 124.671C143.765 124.447 144.137 124.223 144.435 123.999C144.584 123.849 144.808 123.775 144.957 123.625C145.479 123.252 146 123.252 146.597 123.625C151.068 126.462 153.08 147.813 153.303 150.277Z" fill="#171753"/>
<path d="M150.099 152.74C150.099 152.74 148.087 128.702 143.019 125.566C137.952 122.431 136.387 141.915 136.387 141.915C136.387 141.915 135.642 106.754 128.786 102.797C121.93 98.8403 120.142 135.57 120.142 135.57L150.099 152.74Z" fill="#FFA54B"/>
<path d="M150.099 153.188L150.471 152.889C150.397 151.919 148.385 128.403 143.243 125.268C142.498 124.82 141.752 124.745 141.082 125.118C138.697 126.313 137.281 132.658 136.61 137.138C136.163 127.283 134.449 105.634 129.009 102.498C128.264 102.05 127.519 102.05 126.774 102.424C121.334 105.41 119.843 134.375 119.769 135.57V135.794L150.099 153.188ZM141.976 125.641C142.274 125.641 142.572 125.716 142.87 125.939C147.192 128.627 149.279 148.112 149.651 152.068L120.514 135.42C121.036 125.044 123.048 105.26 127.072 103.095C127.519 102.797 128.041 102.872 128.562 103.17C135.269 106.977 136.014 141.169 136.014 141.542L136.759 141.99C137.058 137.959 138.548 127.209 141.38 125.79C141.603 125.716 141.827 125.641 141.976 125.641Z" fill="#171753"/>
<path d="M120.663 129.597L120.067 128.626L122.899 127.208L123.197 127.059C124.166 126.611 125.358 126.536 126.774 127.357C132.959 130.941 132.736 139.526 139.144 144.602C145.553 149.753 148.236 147.962 148.236 147.962L148.981 153.188L145.851 154.83L136.685 148.335L118.651 135.868C118.502 135.868 119.098 132.285 120.663 129.597Z" fill="#FFC78F"/>
<path d="M119.918 130.792L119.322 129.821L122.154 128.403L122.452 128.254C123.421 127.806 124.613 127.731 126.029 128.552C132.214 132.136 131.991 140.721 138.399 145.797C144.808 150.948 147.491 149.157 147.491 149.157L147.938 152.665L143.541 151.919L136.313 147.664L117.832 137.063C117.757 137.063 118.353 133.479 119.918 130.792Z" fill="#FFC78F"/>
<path d="M145.851 155.204L149.354 153.412L148.534 147.365L147.938 147.664C147.938 147.664 145.33 149.157 139.294 144.304C136.238 141.841 134.748 138.631 133.257 135.495C131.693 132.136 130.202 128.926 126.923 126.985C125.507 126.163 124.166 126.089 122.974 126.611C122.899 126.686 122.825 126.686 122.676 126.761L119.546 128.403L120.291 129.523C118.801 132.21 118.279 135.57 118.204 135.719L118.13 135.943L136.387 148.634L145.851 155.204ZM148.46 153.039L145.702 154.457L136.76 148.112L118.875 135.719C119.024 134.898 119.695 132.061 120.962 129.821L121.111 129.598L120.589 128.776L123.048 127.507C123.048 127.507 123.197 127.433 123.272 127.358H123.346C124.315 126.91 125.433 126.985 126.625 127.657C129.68 129.448 131.171 132.509 132.661 135.794C134.152 139.004 135.717 142.289 138.921 144.827C143.988 148.858 146.82 148.709 147.938 148.41L148.46 153.039Z" fill="#171753"/>
<path d="M115.372 137.436C115.372 137.436 117.384 125.416 123.57 128.925C129.755 132.508 129.531 141.094 135.94 146.17C142.274 151.321 144.957 149.529 144.957 149.529L145.702 154.755L115.372 137.436Z" fill="#FFC78F"/>
<path d="M148.161 148.037L144.957 149.53L145.702 154.83L148.906 153.188L148.161 148.037Z" fill="#FFC78F"/>
<path d="M145.404 155.054L115 137.66L115.074 137.436C115.149 137.137 116.341 130.045 119.918 128.328C121.111 127.731 122.452 127.88 123.868 128.701C127.147 130.567 128.637 133.778 130.202 137.212C131.692 140.347 133.183 143.557 136.238 146.021C141.678 150.425 144.361 149.604 144.808 149.455L144.883 149.38L145.33 149.082L148.534 147.588L149.354 153.561L146.149 155.203L145.777 155.352L145.404 155.054ZM147.863 148.559L145.404 149.753L146.075 154.233L148.534 152.964L147.863 148.559ZM135.642 146.469C132.438 143.93 130.873 140.646 129.382 137.436C127.817 134.151 126.401 131.09 123.346 129.298C122.154 128.626 121.111 128.477 120.142 129C117.31 130.344 116.043 136.017 115.745 137.286L145.255 154.083L144.733 150.127C143.616 150.425 140.709 150.5 135.642 146.469Z" fill="#171753"/>
<path d="M115.367 137.546C115.367 137.546 117.379 125.527 123.565 129.036C129.75 132.619 129.526 141.204 135.935 146.281C142.344 151.432 145.027 149.64 145.027 149.64L145.772 154.866L115.367 137.546Z" fill="#171753"/>
<path d="M194.354 205.804C191.689 202.51 188.868 203.137 181.502 201.568C175.233 200.156 168.65 200.156 162.538 201.882C156.425 203.451 152.664 204.549 149.999 207.373L146.708 209.099V216.001V216.158C146.865 220.708 150.626 225.101 158.149 228.238C165.672 231.376 173.822 231.847 181.659 229.964C192.786 227.297 198.272 221.806 198.429 216.158V215.845V209.256L194.354 205.804Z" fill="#171753"/>
<path d="M172.411 231.846C167.396 231.846 162.381 230.905 157.836 229.023C150.312 225.885 146.081 221.335 145.924 216.158V216.001V208.471L149.529 206.588C152.35 203.451 156.582 202.353 162.381 200.941C168.65 199.372 175.389 199.215 181.815 200.627C183.853 201.098 185.577 201.411 186.987 201.568C190.749 202.196 192.943 202.509 195.137 205.176L199.682 208.628V216.001C199.526 222.59 192.943 228.081 182.129 230.748C178.837 231.533 175.546 231.846 172.411 231.846ZM147.648 209.726V216.001C147.805 220.394 151.566 224.473 158.462 227.297C165.515 230.278 173.665 230.748 181.502 228.866C191.219 226.512 197.332 221.492 197.488 216.001V215.688V209.726L193.57 206.588C191.846 204.549 190.122 204.235 186.517 203.608C184.95 203.294 183.383 203.137 181.188 202.666C175.076 201.254 168.65 201.411 162.537 202.98C156.268 204.549 152.82 205.647 150.469 208.157L150.156 208.314L147.648 209.726Z" fill="#171753"/>
<path d="M190.906 198.431C201.093 204.235 201.093 213.805 190.906 219.61C180.718 225.414 164.418 225.414 154.231 219.61C144.043 213.805 144.043 204.235 154.231 198.431C164.418 192.626 180.875 192.626 190.906 198.431Z" fill="white"/>
<path d="M172.725 224.944C165.985 224.944 159.089 223.375 153.917 220.394C148.745 217.413 145.924 213.334 145.924 208.942C145.924 204.549 148.745 200.47 153.917 197.489C164.261 191.528 181.188 191.528 191.532 197.489C196.705 200.47 199.526 204.549 199.526 208.942C199.526 213.334 196.705 217.413 191.532 220.394C186.204 223.532 179.464 224.944 172.725 224.944ZM172.725 195.136C166.299 195.136 159.873 196.548 154.858 199.372C150.312 202.039 147.805 205.49 147.805 209.098C147.805 212.707 150.312 216.158 154.858 218.825C164.732 224.473 180.718 224.473 190.592 218.825C195.137 216.158 197.645 212.707 197.645 209.098C197.645 205.49 195.137 202.039 190.592 199.372C185.577 196.548 179.151 195.136 172.725 195.136Z" fill="#171753"/>
<path d="M185.42 202.666C178.367 199.058 166.926 199.058 159.873 202.666C152.82 206.275 152.82 212.079 159.873 215.531C166.926 219.139 178.367 219.139 185.42 215.531C192.473 211.922 192.473 206.118 185.42 202.666Z" fill="#171753"/>
<path d="M172.725 219.139C167.866 219.139 163.164 218.198 159.56 216.315C155.798 214.433 153.761 211.766 153.761 208.942C153.761 206.118 155.798 203.451 159.56 201.568C166.926 197.96 178.681 197.96 186.047 201.568C189.808 203.451 191.846 206.118 191.846 208.942C191.846 211.766 189.808 214.433 186.047 216.315C182.285 218.198 177.427 219.139 172.725 219.139ZM172.725 200.941C168.18 200.941 163.791 201.725 160.343 203.451C157.209 205.02 155.641 207.059 155.641 209.099C155.641 211.138 157.365 213.177 160.343 214.746C167.083 218.198 178.21 218.198 185.107 214.746C188.241 213.177 189.808 211.138 189.808 209.099C189.808 207.059 188.084 205.02 185.107 203.451C181.659 201.725 177.113 200.941 172.725 200.941Z" fill="#171753"/>
<path d="M185.42 206.432C178.367 202.823 166.926 202.823 159.873 206.432C157.365 207.687 155.641 209.255 155.014 210.981C155.798 212.707 157.365 214.276 159.873 215.531C166.926 219.139 178.367 219.139 185.42 215.531C187.928 214.276 189.652 212.707 190.279 210.981C189.652 209.412 187.928 207.843 185.42 206.432Z" fill="#FFC78F"/>
<path d="M172.725 219.139C167.866 219.139 163.164 218.198 159.56 216.315C156.895 214.903 155.014 213.177 154.231 211.295L154.074 210.981L154.231 210.667C155.014 208.785 156.895 207.059 159.56 205.647C166.926 202.039 178.681 202.039 186.047 205.647C188.711 207.059 190.592 208.785 191.376 210.667L191.532 210.981L191.376 211.295C190.592 213.177 188.711 214.903 186.047 216.315C182.285 218.198 177.427 219.139 172.725 219.139ZM156.112 210.981C156.895 212.393 158.306 213.648 160.343 214.589C167.083 218.041 178.21 218.041 185.107 214.589C187.144 213.491 188.555 212.236 189.338 210.981C188.555 209.569 187.144 208.314 185.107 207.373C178.367 203.921 167.239 203.921 160.343 207.373C158.306 208.314 156.738 209.726 156.112 210.981Z" fill="#171753"/>
<path d="M191.062 220.394H189.652V226.042H191.062V220.394Z" fill="#FFC78F"/>
<path d="M151.253 217.256H149.842V222.904H151.253V217.256Z" fill="#FFC78F"/>
<path d="M175.703 200.156H174.292V203.765H175.703V200.156Z" fill="#FFC78F"/>
<path d="M184.636 222.904H183.226V228.552H184.636V222.904Z" fill="#FFC78F"/>
<path d="M183.069 186.664C180.404 183.37 177.583 183.997 170.217 182.428C163.948 181.017 157.365 181.017 151.253 182.742C145.14 184.311 141.379 185.409 138.714 188.233L135.423 189.959V196.862V197.018C135.58 201.568 139.341 205.961 146.864 209.098C154.387 212.236 162.537 212.707 170.374 210.824C181.502 208.157 186.987 202.666 187.144 197.018V196.705V190.116L183.069 186.664Z" fill="#171753"/>
<path d="M161.127 212.55C156.111 212.55 151.096 211.609 146.551 209.726C139.028 206.588 134.796 202.039 134.639 196.862V196.705V189.174L138.244 187.292C141.065 184.154 145.297 183.056 151.096 181.644C157.365 180.075 164.105 179.918 170.531 181.33C172.568 181.801 174.292 182.115 175.703 182.272C179.464 182.899 181.658 183.213 183.853 185.88L188.398 189.331V196.705C188.241 203.294 181.658 208.785 170.844 211.452C167.553 212.236 164.261 212.55 161.127 212.55ZM136.363 190.429V196.705C136.52 201.097 140.282 205.176 147.178 208C154.231 210.981 162.381 211.452 170.217 209.569C179.934 207.216 186.047 202.196 186.204 196.705V196.391V190.429L182.285 187.292C180.561 185.252 178.837 184.939 175.233 184.311C173.665 183.997 172.098 183.84 169.904 183.37C163.791 181.958 157.365 182.115 151.253 183.684C144.984 185.252 141.536 186.351 139.185 188.861L138.871 189.018L136.363 190.429Z" fill="#171753"/>
<path d="M161.284 204.706C175.566 204.706 187.144 198.033 187.144 189.802C187.144 181.571 175.566 174.898 161.284 174.898C147.001 174.898 135.423 181.571 135.423 189.802C135.423 198.033 147.001 204.706 161.284 204.706Z" fill="white"/>
<path d="M161.284 205.804C154.544 205.804 147.648 204.235 142.476 201.254C137.304 198.274 134.483 194.195 134.483 189.802C134.483 185.409 137.304 181.33 142.476 178.35C152.82 172.388 169.747 172.388 180.091 178.35C185.263 181.33 188.084 185.409 188.084 189.802C188.084 194.195 185.263 198.274 180.091 201.254C174.919 204.235 168.18 205.804 161.284 205.804ZM161.284 175.839C154.858 175.839 148.432 177.251 143.416 180.075C138.871 182.742 136.364 186.194 136.364 189.802C136.364 193.41 138.871 196.862 143.416 199.529C153.29 205.176 169.277 205.176 179.151 199.529C183.696 196.862 186.204 193.41 186.204 189.802C186.204 186.194 183.696 182.742 179.151 180.075C174.292 177.251 167.866 175.839 161.284 175.839Z" fill="#171753"/>
<path d="M174.135 183.37C167.083 179.762 155.641 179.762 148.588 183.37C141.536 186.978 141.536 192.783 148.588 196.234C155.641 199.842 167.083 199.842 174.135 196.234C181.188 192.783 181.188 186.978 174.135 183.37Z" fill="#171753"/>
<path d="M161.284 199.999C156.425 199.999 151.723 199.058 148.118 197.175C144.357 195.293 142.319 192.626 142.319 189.802C142.319 186.978 144.357 184.311 148.118 182.429C155.485 178.82 167.239 178.82 174.606 182.429C178.367 184.311 180.405 186.978 180.405 189.802C180.405 192.626 178.367 195.293 174.606 197.175C171.001 199.058 166.142 199.999 161.284 199.999ZM161.284 181.644C156.738 181.644 152.35 182.429 148.902 184.154C145.767 185.723 144.2 187.762 144.2 189.802C144.2 191.841 145.924 193.881 148.902 195.45C155.641 198.901 166.769 198.901 173.665 195.45C176.8 193.881 178.367 191.841 178.367 189.802C178.367 187.762 176.643 185.723 173.665 184.154C170.374 182.585 165.829 181.644 161.284 181.644Z" fill="#171753"/>
<path d="M174.135 187.292C167.083 183.683 155.641 183.683 148.588 187.292C146.081 188.547 144.357 190.116 143.73 191.841C144.513 193.567 146.081 195.136 148.588 196.391C155.641 199.999 167.083 199.999 174.135 196.391C176.643 195.136 178.367 193.567 178.994 191.841C178.367 190.116 176.643 188.547 174.135 187.292Z" fill="#FFC78F"/>
<path d="M161.284 199.999C156.425 199.999 151.723 199.058 148.118 197.175C145.454 195.764 143.573 194.038 142.789 192.155L142.633 191.841L142.789 191.528C143.573 189.645 145.454 187.919 148.118 186.507C155.485 182.899 167.239 182.899 174.606 186.507C177.27 187.919 179.151 189.645 179.934 191.528L180.091 191.841L179.934 192.155C179.151 194.038 177.27 195.764 174.606 197.175C171.001 199.058 166.142 199.999 161.284 199.999ZM144.827 191.841C145.611 193.253 147.021 194.508 149.059 195.45C155.798 198.901 166.926 198.901 173.822 195.45C175.859 194.352 177.27 193.097 178.054 191.841C177.27 190.43 175.859 189.174 173.822 188.233C167.083 184.782 155.955 184.782 149.059 188.233C146.864 189.174 145.454 190.43 144.827 191.841Z" fill="#171753"/>
<path d="M179.621 201.098H178.21V206.745H179.621V201.098Z" fill="#FFC78F"/>
<path d="M139.968 197.96H138.558V203.608H139.968V197.96Z" fill="#FFC78F"/>
<path d="M164.418 180.86H163.008V184.468H164.418V180.86Z" fill="#FFC78F"/>
<path d="M173.352 203.764H171.941V209.412H173.352V203.764Z" fill="#FFC78F"/>
<path d="M160.946 173.448C169.123 173.783 177.826 167.743 182.45 157.574C187.075 147.405 186.18 136.284 180.959 129.479L181.581 128.085L175.732 124.982C166.157 119.884 153.645 126.226 147.757 139.148C141.869 152.069 144.895 166.653 154.47 171.751L160.319 174.854L160.946 173.448Z" fill="#FFA54B"/>
<path d="M147.32 138.913C153.27 125.824 166.052 119.397 175.893 124.636L182.185 127.977L181.488 129.527C186.793 136.658 187.366 147.978 182.881 157.822C178.396 167.666 169.768 174.08 161.297 173.891L160.6 175.441L154.308 172.1C144.508 166.881 141.374 151.991 147.32 138.913ZM180.957 128.258L175.535 125.372C166.223 120.413 153.895 126.671 148.189 139.369C142.484 152.067 145.313 166.385 154.642 171.297L160.069 174.171L160.63 172.941L160.899 172.959C169.125 173.279 177.61 166.989 182.019 157.301C186.429 147.614 185.86 136.502 180.604 129.67L180.428 129.448L180.957 128.258Z" fill="#171753"/>
<path d="M159.726 174.228C150.15 169.143 147.165 154.5 153.011 141.646C158.856 128.791 171.396 122.411 180.977 127.484C190.557 132.557 193.538 147.212 187.692 160.066C181.846 172.92 169.339 179.344 159.726 174.228Z" fill="white"/>
<path d="M186.353 159.536C192.176 146.543 189.189 131.86 179.68 126.74C170.171 121.619 157.742 128.001 151.918 140.993C146.095 153.986 149.083 168.67 158.592 173.79C168.101 178.91 180.53 172.529 186.353 159.536Z" fill="white"/>
<path d="M152.561 141.404C158.508 128.319 171.281 121.906 181.123 127.131C190.964 132.356 194.056 147.22 188.15 160.325C182.243 173.429 169.425 179.834 159.588 174.598C149.75 169.361 146.668 154.515 152.561 141.404ZM187.211 159.837C192.974 147.158 190.086 132.83 180.775 127.926C171.463 123.023 159.143 129.226 153.436 141.931C147.729 154.635 150.561 168.937 159.886 173.847C169.212 178.758 181.508 172.53 187.266 159.863L187.211 159.837Z" fill="#171753"/>
<path d="M184.086 158.198C188.753 147.789 186.717 136.217 179.539 132.352C172.361 128.488 162.758 133.793 158.092 144.203C153.425 154.612 155.461 166.184 162.639 170.048C169.817 173.913 179.42 168.608 184.086 158.198Z" fill="#FFC78F"/>
<path d="M157.557 144.031C162.353 133.502 172.308 128.172 179.773 132.142C187.239 136.111 189.4 147.887 184.581 158.391C179.762 168.895 169.881 174.246 162.406 170.3C154.932 166.354 152.78 154.555 157.557 144.031ZM183.744 157.882C188.331 147.777 186.408 136.542 179.445 132.84C172.483 129.137 163.076 134.356 158.475 144.454C153.874 154.552 155.807 165.806 162.77 169.508C169.732 173.21 179.121 168.038 183.699 157.916L183.744 157.882Z" fill="#171753"/>
<path d="M183.938 157.758C188.794 147.196 186.677 135.438 179.207 131.555C178.541 131.211 177.846 130.939 177.139 130.746C183.035 135.535 184.402 146.121 179.989 155.736C175.576 165.351 166.892 170.691 159.767 168.563C160.344 169.041 160.97 169.465 161.629 169.824C169.098 173.708 179.076 168.331 183.938 157.758Z" fill="#FFA54B"/>
<path d="M159.023 167.763L159.945 168.073C166.892 170.11 175.329 164.681 179.565 155.463C183.802 146.245 182.648 135.755 176.903 131.081L175.979 130.334L177.25 130.345C177.994 130.549 178.725 130.838 179.424 131.205C187.084 135.253 189.316 147.28 184.359 157.999C179.402 168.718 169.242 174.176 161.559 170.145C160.865 169.763 160.207 169.314 159.599 168.809L159.023 167.763ZM183.452 157.514C188.171 147.202 186.197 135.733 179.04 131.952L178.969 131.918C183.826 137.382 184.526 147.08 180.458 155.941C176.39 164.803 168.803 170.114 161.805 169.319L161.89 169.359C169.114 173.187 178.743 167.844 183.452 157.514Z" fill="#171753"/>
<path d="M185.381 153.356L181.723 151.408L182.896 145.626L182.587 139.151L180.397 133.429L177.772 130.406L181.098 131.909L184.243 135.521L186.105 139.968L186.766 146.024L185.775 152.48L185.381 153.356Z" fill="#171753"/>
<path d="M152.395 146.825L146.502 143.69L145.091 149.755L144.552 156.03L146.245 163.738L149.752 169.791L152.737 172.52L157.375 174.88L152.685 169.188L150.816 161.778L150.97 152.243L152.395 146.825Z" fill="#171753"/>
<path d="M174.218 147.914C174.305 147.207 174.744 146.512 175.187 146.358C175.63 146.204 175.909 146.674 175.784 147.34C175.696 148.047 175.258 148.741 174.815 148.896C174.41 149.091 174.13 148.621 174.218 147.914Z" fill="#171753"/>
<path d="M177.838 150.177C177.759 150.551 177.68 150.926 177.565 151.295C177.164 152.607 176.547 153.924 175.685 154.858C174.493 156.169 173.22 156.418 172.168 156.278C171.057 157.704 171.057 157.704 171.057 157.704C170.794 158.018 170.562 157.813 170.745 157.382C170.473 157.591 170.41 157.232 170.564 156.903C170.304 157.253 170.168 156.885 170.319 156.52C170.445 156.292 170.605 156.033 170.697 155.836C169.434 155.282 168.285 154.358 167.064 153.424C167.778 153.835 170.585 154.841 171.243 154.999C171.902 155.157 172.56 155.315 173.275 155.271C173.845 155.207 174.582 154.991 175.209 154.27C175.771 153.645 176.089 152.638 176.277 151.823C176.711 149.991 176.605 148.157 176.25 146.815C175.854 145.397 175.01 144.234 173.813 144.073C173.377 144.015 172.883 144.124 172.399 144.374C171.293 144.926 170.135 146.206 169.169 147.651C167.755 149.807 166.622 152.35 165.559 154.868C164.83 156.59 163.591 160.554 161.923 159.876C161.145 159.562 160.745 158.563 160.523 157.554C160.257 156.433 160.171 154.847 160.632 153.368C161.612 150.245 164.353 151.802 165.26 152.378C165.187 152.368 163.019 151.728 161.947 153.194C161.46 153.864 161.355 154.83 161.337 155.528C161.287 156.746 161.558 158.392 162.372 158.711C163.407 159.095 164.334 156.209 164.757 155.181C165.45 153.453 166.107 151.721 166.836 149.999C167.627 148.145 168.524 146.27 169.624 144.703C169.46 144.436 169.254 144.093 169.294 143.678C169.328 143.193 169.748 142.584 170.049 142.765C169.718 142.195 170.423 141.1 170.873 141.335C170.726 140.825 171.204 140.049 171.559 139.992C171.771 139.95 171.969 140.187 172.086 140.307C172.471 140.639 172.822 141.001 173.204 141.297C177.124 139.512 178.886 145.137 177.838 150.177Z" fill="#171753"/>
<g clip-path="url(#clip0_72_5165)">
<path d="M73.2969 84.0145V43.9371C73.2969 42.1501 74.389 41.3224 75.7471 42.056L106.463 59.6445C107.21 60.1754 107.821 60.8722 108.246 61.6792C108.672 62.4861 108.9 63.3806 108.914 64.2909V104.359L73.2969 84.0145Z" fill="#ECFFFE"/>
<path d="M109.426 105.299L72.7456 84.3248V43.937C72.7002 43.4706 72.78 43.0006 72.9768 42.5745C73.1736 42.1484 73.4803 41.7813 73.8663 41.5103C74.2034 41.3363 74.5819 41.2558 74.9615 41.2773C75.341 41.2989 75.7074 41.4216 76.0223 41.6326L106.7 59.1835C107.533 59.7579 108.215 60.5212 108.689 61.4096C109.163 62.2981 109.416 63.2859 109.426 64.2908V105.299ZM73.8378 83.6664L108.343 103.418V64.2908C108.328 63.4752 108.123 62.6742 107.744 61.9499C107.365 61.2256 106.823 60.5976 106.159 60.1147L75.4716 42.5637C75.3205 42.4571 75.1446 42.39 74.9603 42.3686C74.776 42.3472 74.5891 42.3723 74.4172 42.4414C74.2035 42.624 74.0388 42.8561 73.9377 43.1171C73.8366 43.378 73.8022 43.6597 73.8378 43.937V83.6664Z" fill="#171753"/>
<path d="M105.256 96.4581L76.9242 80.2616C76.6293 80.0426 76.3899 79.7586 76.2251 79.4321C76.0602 79.1056 75.9744 78.7455 75.9744 78.3805V46.533C75.9744 45.8088 76.4208 45.4796 76.9242 45.7899L105.256 61.9865C105.552 62.205 105.791 62.4889 105.956 62.8155C106.121 63.1421 106.207 63.5024 106.206 63.8676V95.7245C106.234 96.4299 105.798 96.7685 105.256 96.4581Z" fill="#FFA54B"/>
</g>
<g clip-path="url(#clip1_72_5165)">
<path d="M61.994 74.7486V34.6713C61.994 32.8842 63.0861 32.0565 64.4443 32.7901L95.1603 50.3787C95.9071 50.9095 96.5179 51.6064 96.9435 52.4133C97.369 53.2202 97.5976 54.1148 97.6108 55.025V95.093L61.994 74.7486Z" fill="#ECFFFE"/>
<path d="M98.1234 96.0335L61.4428 75.0589V34.6711C61.3974 34.2047 61.4772 33.7347 61.674 33.3087C61.8708 32.8826 62.1775 32.5154 62.5635 32.2444C62.9006 32.0704 63.2791 31.9899 63.6586 32.0115C64.0382 32.033 64.4046 32.1557 64.7195 32.3667L95.3974 49.9177C96.2301 50.4921 96.9118 51.2553 97.386 52.1437C97.8602 53.0322 98.1132 54.0201 98.1234 55.0249V96.0335ZM62.5349 74.4005L97.0405 94.1523V55.0249C97.0251 54.2094 96.82 53.4083 96.4411 52.684C96.0622 51.9597 95.5198 51.3317 94.856 50.8488L64.1688 33.2979C64.0177 33.1912 63.8418 33.1241 63.6575 33.1027C63.4732 33.0814 63.2863 33.1064 63.1144 33.1756C62.9007 33.3581 62.736 33.5903 62.6349 33.8512C62.5338 34.1122 62.4993 34.3938 62.5349 34.6711V74.4005Z" fill="#171753"/>
<path d="M93.9534 87.1922L65.6213 70.9957C65.3265 70.7767 65.0871 70.4927 64.9222 70.1662C64.7574 69.8397 64.6716 69.4797 64.6716 69.1146V37.2672C64.6716 36.5429 65.118 36.2137 65.6213 36.5241L93.9534 52.7206C94.2488 52.9391 94.4885 53.223 94.6534 53.5496C94.8183 53.8762 94.9039 54.2366 94.9031 54.6017V86.4586C94.9316 87.164 94.4947 87.5026 93.9534 87.1922Z" fill="#FFC78F"/>
<path d="M91.7788 75.1248L86.0801 62.7281C85.9662 62.493 85.7477 62.3425 85.6148 62.4177L77.7315 67.2993C77.3136 67.5626 76.6109 66.5656 76.9053 66.133L79.5458 62.286C79.5966 62.187 79.6232 62.0774 79.6232 61.9663C79.6232 61.8551 79.5966 61.7455 79.5458 61.6465L76.0884 53.7834C75.7845 53.0779 75.1388 52.6641 74.7683 52.9745C73.2202 54.3947 69.4591 57.8278 67.8729 59.2575C67.6156 59.5275 67.4177 59.8475 67.2918 60.1972C67.1659 60.5469 67.1148 60.9187 67.1416 61.289V67.7601C67.1605 68.1358 67.2684 68.5018 67.4565 68.8286C67.6446 69.1554 67.9074 69.4337 68.2242 69.6413L91.3039 82.8091C91.9118 83.1478 92.3963 82.8656 92.3963 82.179V77.7865C92.3776 76.8666 92.1673 75.9605 91.7788 75.1248Z" fill="#ECFFFE"/>
<path d="M91.8168 83.5053C91.5484 83.5032 91.2856 83.4284 91.0569 83.289L67.9772 70.1211C67.5753 69.8713 67.2409 69.5285 67.0026 69.1221C66.7644 68.7157 66.6295 68.2581 66.6096 67.7886V61.3175C66.5836 60.8693 66.6549 60.4208 66.8188 60.0022C66.9826 59.5836 67.2352 59.2046 67.5594 58.8908C69.155 57.4518 72.9067 54.0281 74.4548 52.6079C74.572 52.5015 74.7144 52.4259 74.8687 52.3881C75.023 52.3503 75.1843 52.3515 75.338 52.3915C75.6341 52.4812 75.9059 52.6362 76.1329 52.8447C76.3599 53.0532 76.5363 53.3098 76.6489 53.5954L80.106 61.468C80.2007 61.6446 80.2504 61.8416 80.2504 62.0417C80.2504 62.2417 80.2007 62.4388 80.106 62.6155L77.475 66.4623C77.5237 66.5839 77.5947 66.6955 77.6842 66.7916L85.4438 61.9947C85.5322 61.9399 85.6317 61.9055 85.7353 61.8941C85.8389 61.8827 85.9438 61.8946 86.0421 61.9288C86.1863 61.9789 86.3183 62.0583 86.4295 62.162C86.5408 62.2656 86.6289 62.3913 86.6881 62.5308L92.3392 74.9368C92.7756 75.8427 93.0119 76.8303 93.0326 77.8338V82.2262C93.048 82.4559 93.0006 82.6855 92.8953 82.8908C92.79 83.0961 92.6306 83.2694 92.4341 83.3925C92.2441 83.4897 92.0293 83.5289 91.8168 83.5053ZM75.1006 53.4073C73.524 54.8464 69.8293 58.223 68.2527 59.6338C68.0552 59.8564 67.9049 60.1159 67.8103 60.397C67.7157 60.678 67.6789 60.975 67.702 61.2704V67.7415C67.7243 68.0206 67.809 68.2912 67.9503 68.5337C68.0917 68.7761 68.2858 68.9843 68.5187 69.143L91.5984 82.3109C91.6662 82.3557 91.7449 82.3816 91.8263 82.3861C91.8658 82.3142 91.8824 82.2323 91.8739 82.1509V77.7585C91.8493 76.9089 91.6488 76.0734 91.2849 75.3037L85.6623 63.0481L78.064 67.7509C77.8625 67.8655 77.6256 67.9029 77.3981 67.8561C77.1705 67.8093 76.9681 67.6816 76.8293 67.497C76.5984 67.291 76.4419 67.0159 76.3836 66.7136C76.3253 66.4114 76.3686 66.0985 76.5065 65.8228L79.1372 61.9758C79.1372 61.9758 79.1373 61.9759 79.0708 61.8536L75.6135 53.9905C75.5178 53.7467 75.3353 53.546 75.1006 53.4262V53.4073Z" fill="#171753"/>
<path d="M84.637 55.7869C84.637 57.4987 83.4214 58.1947 81.9208 57.3387C81.1329 56.8291 80.4773 56.1429 80.0071 55.3357C79.5368 54.5285 79.2649 53.6229 79.2138 52.6924C79.2138 50.9805 80.4296 50.2846 81.9208 51.1405C82.7109 51.6485 83.3687 52.3341 83.8407 53.1415C84.3128 53.9489 84.5856 54.8553 84.637 55.7869Z" fill="#ECFFFE"/>
<path d="M83.1358 58.2418C82.6107 58.2293 82.0987 58.0765 81.6541 57.7997C80.7811 57.2463 80.0547 56.4938 79.5358 55.6052C79.017 54.7166 78.7205 53.7178 78.6716 52.6924C78.6038 52.2616 78.6691 51.8205 78.8588 51.427C79.0485 51.0335 79.3538 50.7059 79.7348 50.4872C80.1158 50.2686 80.5546 50.1691 80.9937 50.2018C81.4328 50.2344 81.8518 50.3977 82.1955 50.6703C83.0681 51.2263 83.7938 51.9807 84.3126 52.8707C84.8313 53.7607 85.128 54.7605 85.1777 55.7869C85.2175 56.2147 85.1396 56.6452 84.9523 57.0327C84.765 57.4202 84.4755 57.7502 84.1141 57.9878C83.8172 58.1584 83.4791 58.2462 83.1358 58.2418ZM80.7138 51.3098C80.5605 51.3071 80.4094 51.3461 80.2769 51.4227C80.0873 51.5723 79.9397 51.7677 79.8482 51.99C79.7567 52.2123 79.7245 52.4542 79.7545 52.6924C79.8086 53.5278 80.0571 54.3395 80.4805 55.0639C80.904 55.7884 81.491 56.406 82.1955 56.8685C82.387 57.0155 82.6141 57.1102 82.8541 57.1432C83.094 57.1762 83.3384 57.1464 83.5631 57.0567C83.7528 56.907 83.9004 56.7117 83.9919 56.4894C84.0834 56.267 84.1156 56.0252 84.0856 55.7869C84.0333 54.9522 83.7865 54.1408 83.3647 53.4163C82.9428 52.6918 82.3573 52.0738 81.6541 51.6108C81.3729 51.4301 81.0486 51.3263 80.7138 51.3098Z" fill="#171753"/>
</g>
<g clip-path="url(#clip2_72_5165)">
<path d="M49.5511 95.9449V55.8675C49.5511 54.0805 50.6432 53.2528 52.0014 53.9864L82.7173 71.575C83.4642 72.1058 84.0749 72.8026 84.5005 73.6096C84.9261 74.4165 85.1547 75.3111 85.1678 76.2213V116.289L49.5511 95.9449Z" fill="#ECFFFE"/>
<path d="M85.6804 117.23L48.9998 96.2552V55.8674C48.9544 55.401 49.0342 54.931 49.231 54.5049C49.4278 54.0789 49.7345 53.7117 50.1205 53.4407C50.4576 53.2667 50.8361 53.1862 51.2156 53.2078C51.5952 53.2293 51.9616 53.352 52.2765 53.563L82.9544 71.1139C83.7871 71.6883 84.4688 72.4516 84.943 73.34C85.4172 74.2285 85.6702 75.2163 85.6804 76.2212V117.23ZM50.0919 95.5968L84.5975 115.349V76.2212C84.5821 75.4056 84.377 74.6046 83.9981 73.8803C83.6192 73.156 83.0768 72.528 82.413 72.0451L51.7258 54.4941C51.5747 54.3875 51.3988 54.3204 51.2145 54.299C51.0302 54.2776 50.8433 54.3027 50.6714 54.3719C50.4577 54.5544 50.293 54.7865 50.1919 55.0475C50.0908 55.3084 50.0564 55.5901 50.0919 55.8674V95.5968Z" fill="#171753"/>
<path d="M81.5113 108.389L53.1793 92.192C52.8844 91.973 52.645 91.689 52.4802 91.3625C52.3153 91.036 52.2295 90.6759 52.2295 90.3109V58.4634C52.2295 57.7392 52.6759 57.41 53.1793 57.7204L81.5113 73.9169C81.8067 74.1354 82.0464 74.4193 82.2113 74.7459C82.3762 75.0725 82.4618 75.4328 82.4611 75.798V107.655C82.4896 108.36 82.0527 108.699 81.5113 108.389Z" fill="#FFA54B"/>
<mask id="path-136-outside-1_72_5165" maskUnits="userSpaceOnUse" x="58.7614" y="63.5007" width="17.7603" height="40.2059" fill="black">
<rect fill="white" x="58.7614" y="63.5007" width="17.7603" height="40.2059"/>
<path fill-rule="evenodd" clip-rule="evenodd" d="M65.7204 69.418C65.7204 69.1272 65.9197 69.0173 66.1656 69.1724L68.5233 70.66C68.7692 70.8151 68.9685 71.1766 68.9685 71.4674V74.1538C68.9685 74.4129 69.1283 74.7328 69.3431 74.92C69.9854 75.4796 70.5843 76.0945 71.1397 76.7647C72.2138 78.0607 73.0688 79.4608 73.7048 80.965C74.2691 82.2639 74.6311 83.5799 74.7908 84.9131C74.8304 85.2441 74.6238 85.3801 74.362 85.2149L71.7317 83.5553C71.5128 83.4171 71.3294 83.1121 71.2745 82.8269C71.1543 82.2025 70.9539 81.5961 70.6733 81.0075C70.3199 80.2665 69.8606 79.5756 69.2953 78.9348C68.7441 78.303 68.1223 77.7686 67.4297 77.3316C66.7372 76.8947 66.1224 76.6488 65.5854 76.594C65.0483 76.5393 64.5961 76.655 64.2286 76.9412C63.8753 77.2363 63.5997 77.6807 63.4018 78.2745C63.2181 78.8604 63.1262 79.5879 63.1262 80.4568C63.1262 81.3091 63.2181 82.1525 63.4018 82.987C63.5997 83.8137 63.8824 84.6103 64.2498 85.3769C64.6314 86.1357 65.0978 86.8311 65.649 87.4629C66.2002 88.0781 66.8291 88.6086 67.5357 89.0545C68.6098 89.7322 69.5144 89.9937 70.2493 89.8391C70.8954 89.7134 71.3207 89.2743 71.5252 88.5217C71.5826 88.3103 71.765 88.2387 71.9823 88.3758L74.5846 90.0177C74.8502 90.1853 75.058 90.5901 75.0102 90.8689C74.8379 91.8732 74.4805 92.6818 73.938 93.2945C73.3161 94.0051 72.4611 94.3513 71.3729 94.3331C70.7648 94.3184 70.091 94.1578 69.3516 93.8513C69.1328 93.7607 68.9685 93.8781 68.9685 94.141V96.7037C68.9685 96.9944 68.7692 97.1044 68.5233 96.9492L66.1656 95.4617C65.9197 95.3065 65.7204 94.945 65.7204 94.6542V92.0007C65.7204 91.7464 65.5664 91.433 65.3568 91.2437C64.8442 90.7805 64.3692 90.2871 63.9318 89.7635C62.9284 88.5455 62.1087 87.2679 61.4727 85.9308C60.8367 84.577 60.3632 83.2589 60.0523 81.9765C59.7555 80.6863 59.6071 79.5232 59.6071 78.4871V77.9356C59.6071 76.7993 59.7626 75.7777 60.0735 74.871C60.3844 73.9475 60.8579 73.2352 61.4939 72.7341C62.144 72.2419 62.9566 72.0361 63.9318 72.1166C64.3713 72.1489 64.8455 72.2576 65.3547 72.4427C65.5652 72.5193 65.7204 72.4004 65.7204 72.1452V69.418Z"/>
</mask>
<path fill-rule="evenodd" clip-rule="evenodd" d="M65.7204 69.418C65.7204 69.1272 65.9197 69.0173 66.1656 69.1724L68.5233 70.66C68.7692 70.8151 68.9685 71.1766 68.9685 71.4674V74.1538C68.9685 74.4129 69.1283 74.7328 69.3431 74.92C69.9854 75.4796 70.5843 76.0945 71.1397 76.7647C72.2138 78.0607 73.0688 79.4608 73.7048 80.965C74.2691 82.2639 74.6311 83.5799 74.7908 84.9131C74.8304 85.2441 74.6238 85.3801 74.362 85.2149L71.7317 83.5553C71.5128 83.4171 71.3294 83.1121 71.2745 82.8269C71.1543 82.2025 70.9539 81.5961 70.6733 81.0075C70.3199 80.2665 69.8606 79.5756 69.2953 78.9348C68.7441 78.303 68.1223 77.7686 67.4297 77.3316C66.7372 76.8947 66.1224 76.6488 65.5854 76.594C65.0483 76.5393 64.5961 76.655 64.2286 76.9412C63.8753 77.2363 63.5997 77.6807 63.4018 78.2745C63.2181 78.8604 63.1262 79.5879 63.1262 80.4568C63.1262 81.3091 63.2181 82.1525 63.4018 82.987C63.5997 83.8137 63.8824 84.6103 64.2498 85.3769C64.6314 86.1357 65.0978 86.8311 65.649 87.4629C66.2002 88.0781 66.8291 88.6086 67.5357 89.0545C68.6098 89.7322 69.5144 89.9937 70.2493 89.8391C70.8954 89.7134 71.3207 89.2743 71.5252 88.5217C71.5826 88.3103 71.765 88.2387 71.9823 88.3758L74.5846 90.0177C74.8502 90.1853 75.058 90.5901 75.0102 90.8689C74.8379 91.8732 74.4805 92.6818 73.938 93.2945C73.3161 94.0051 72.4611 94.3513 71.3729 94.3331C70.7648 94.3184 70.091 94.1578 69.3516 93.8513C69.1328 93.7607 68.9685 93.8781 68.9685 94.141V96.7037C68.9685 96.9944 68.7692 97.1044 68.5233 96.9492L66.1656 95.4617C65.9197 95.3065 65.7204 94.945 65.7204 94.6542V92.0007C65.7204 91.7464 65.5664 91.433 65.3568 91.2437C64.8442 90.7805 64.3692 90.2871 63.9318 89.7635C62.9284 88.5455 62.1087 87.2679 61.4727 85.9308C60.8367 84.577 60.3632 83.2589 60.0523 81.9765C59.7555 80.6863 59.6071 79.5232 59.6071 78.4871V77.9356C59.6071 76.7993 59.7626 75.7777 60.0735 74.871C60.3844 73.9475 60.8579 73.2352 61.4939 72.7341C62.144 72.2419 62.9566 72.0361 63.9318 72.1166C64.3713 72.1489 64.8455 72.2576 65.3547 72.4427C65.5652 72.5193 65.7204 72.4004 65.7204 72.1452V69.418Z" fill="#ECFFFE"/>
<path d="M71.1397 76.7647L70.7695 77.4302L71.1397 76.7647ZM73.7048 80.965L73.006 81.0875L73.0102 81.0973L73.0145 81.1071L73.7048 80.965ZM70.6733 81.0075L70.0149 81.2198V81.2198L70.6733 81.0075ZM69.2953 78.9348L68.9573 79.6383L68.9645 79.6464L69.2953 78.9348ZM65.5854 76.594L65.9307 77.7248L65.9307 77.7248L65.5854 76.594ZM64.2286 76.9412L63.5806 75.8897L63.5754 75.8938L63.5703 75.8981L64.2286 76.9412ZM63.4018 78.2745L62.5977 77.4575L62.5957 77.4632L62.5939 77.469L63.4018 78.2745ZM63.4018 82.987L62.5923 82.7656L62.5957 82.7812L62.5995 82.797L63.4018 82.987ZM64.2498 85.3769L63.5934 85.5934L63.6026 85.6124L63.6121 85.6313L64.2498 85.3769ZM65.649 87.4629L65.311 88.1664L65.3195 88.1761L65.328 88.1856L65.649 87.4629ZM70.2493 89.8391L69.7651 88.7137L69.759 88.715L70.2493 89.8391ZM73.938 93.2945L73.2359 92.294L73.2343 92.2958L73.938 93.2945ZM71.3729 94.3331L71.759 95.4664L71.7627 95.4665L71.3729 94.3331ZM63.9318 89.7635L63.5579 90.4245L63.5665 90.4349L63.9318 89.7635ZM61.4727 85.9308L60.8089 86.1317L60.8134 86.1413L61.4727 85.9308ZM60.0523 81.9765L59.2464 81.7712L59.2487 81.7814L59.2512 81.7917L60.0523 81.9765ZM60.0735 74.871L60.8758 75.6934L60.877 75.6899L60.0735 74.871ZM61.4939 72.7341L60.85 71.6794L60.8442 71.684L61.4939 72.7341ZM63.9318 72.1166L64.2876 73.2483L64.2925 73.2487L63.9318 72.1166ZM65.3547 72.4427L65.1681 71.3496L65.3547 72.4427ZM65.3568 91.2437L65.5468 90.3891L65.3568 91.2437ZM69.3431 74.92L69.1746 75.7936L69.3431 74.92ZM71.5252 88.5217L70.7096 87.7427L71.5252 88.5217ZM69.3516 93.8513L69.1992 92.7716L69.3516 93.8513ZM74.7908 84.9131L75.6267 85.2892L74.7908 84.9131ZM68.5233 69.66L66.1656 68.1724V70.1724L68.5233 71.66V69.66ZM69.8142 74.6874V72.001L68.1228 70.9338V73.6202L69.8142 74.6874ZM71.5098 76.0991C70.8866 75.3471 70.2195 74.6631 69.5116 74.0463L69.1746 75.7936C69.7513 76.2961 70.2819 76.842 70.7695 77.4302L71.5098 76.0991ZM74.4036 80.8426C73.6798 79.1307 72.7083 77.5452 71.5098 76.0991L70.7695 77.4302C71.7192 78.5761 72.4579 79.7909 73.006 81.0875L74.4036 80.8426ZM75.6267 85.2892C75.4488 83.8034 75.0412 82.3101 74.3951 80.8229L73.0145 81.1071C73.497 82.2177 73.8134 83.3565 73.9548 84.5371L75.6267 85.2892ZM71.7317 84.5553L74.362 86.2149V84.2149L71.7317 82.5553V84.5553ZM70.0149 81.2198C70.2147 81.6388 70.3636 82.082 70.4558 82.561L72.0932 83.0928C71.9451 82.3231 71.6931 81.5533 71.3316 80.7951L70.0149 81.2198ZM68.9645 79.6464C69.4139 80.1559 69.7566 80.6781 70.0149 81.2198L71.3316 80.7951C70.8833 79.8549 70.3073 78.9954 69.6261 78.2232L68.9645 79.6464ZM67.4297 78.3316C68.0235 78.7062 68.5277 79.1458 68.9574 79.6383L69.6332 78.2314C68.9605 77.4601 68.221 76.8309 67.4297 76.3316V78.3316ZM65.9307 77.7248C66.3416 77.7667 66.8354 77.9566 67.4297 78.3316V76.3316C66.639 75.8327 65.9032 75.531 65.24 75.4633L65.9307 77.7248ZM64.8766 77.9926C65.1594 77.7724 65.5071 77.6816 65.9307 77.7248L65.24 75.4633C64.5896 75.397 64.0328 75.5376 63.5806 75.8897L64.8766 77.9926ZM64.206 79.0914C64.3763 78.5804 64.6063 78.2187 64.8869 77.9843L63.5703 75.8981C63.1442 76.2539 62.8231 76.781 62.5977 77.4575L64.206 79.0914ZM63.972 80.9904C63.972 80.2039 64.0552 79.5728 64.2097 79.0799L62.5939 77.469C62.381 78.1479 62.2805 78.9718 62.2805 79.9232L63.972 80.9904ZM64.2114 83.2084C64.0546 82.4964 63.972 81.7577 63.972 80.9904L62.2805 79.9232C62.2805 80.8605 62.3816 81.8085 62.5923 82.7656L64.2114 83.2084ZM64.9062 85.1605C64.6076 84.5376 64.3722 83.879 64.2042 83.177L62.5995 82.797C62.8272 83.7484 63.1571 84.6831 63.5934 85.5934L64.9062 85.1605ZM65.9869 86.7595C65.5466 86.2547 65.1838 85.7117 64.8876 85.1225L63.6121 85.6313C64.079 86.5598 64.649 87.4075 65.311 88.1664L65.9869 86.7595ZM67.5357 88.0545C66.9191 87.6654 66.4022 87.2227 65.97 86.7403L65.328 88.1856C65.9981 88.9335 66.7391 89.5518 67.5357 90.0545V88.0545ZM69.759 88.715C69.1929 88.8341 68.4685 88.643 67.5357 88.0545V90.0545C68.7512 90.8214 69.8358 91.1534 70.7396 90.9633L69.759 88.715ZM70.7096 87.7427C70.5584 88.2989 70.2528 88.6189 69.7652 88.7137L70.7334 90.9645C71.5381 90.808 72.083 90.2497 72.3408 89.3008L70.7096 87.7427ZM74.5846 89.0177L71.9823 87.3758V89.3758L74.5846 91.0177V89.0177ZM74.6401 94.2951C75.2462 93.6104 75.6485 92.7021 75.8421 91.5738L74.1783 90.1639C74.0272 91.0444 73.7148 91.7531 73.2359 92.294L74.6401 94.2951ZM71.7627 95.4665C72.9655 95.4866 73.9334 95.1026 74.6417 94.2932L73.2343 92.2958C72.6989 92.9076 71.9567 93.216 70.983 93.1997L71.7627 95.4665ZM69.5039 94.9311C70.3167 95.268 71.0703 95.4498 71.759 95.4664L70.9867 93.1998C70.4592 93.187 69.8653 93.0476 69.1992 92.7716L69.5039 94.9311ZM68.1228 93.6073V96.1701L69.8142 97.2373V94.6746L68.1228 93.6073ZM68.5233 95.9492L66.1656 94.4617V96.4617L68.5233 97.9492V95.9492ZM66.5661 95.1879V92.5343L64.8746 91.467V94.1206L66.5661 95.1879ZM63.5665 90.4349C64.0645 91.031 64.5988 91.585 65.1669 92.0983L65.5468 90.3891C65.0896 89.9761 64.674 89.5433 64.2971 89.092L63.5665 90.4349ZM60.8134 86.1413C61.5343 87.6568 62.4552 89.086 63.5579 90.4245L64.3058 89.1025C63.4016 88.005 62.6831 86.8791 62.1319 85.7204L60.8134 86.1413ZM59.2512 81.7917C59.5949 83.2091 60.1165 84.6579 60.8089 86.1316L62.1365 85.73C61.5568 84.4962 61.1316 83.3087 60.8534 82.1614L59.2512 81.7917ZM58.7614 77.9535C58.7614 79.1037 58.9263 80.3796 59.2464 81.7712L60.8582 82.1818C60.5848 80.993 60.4528 79.9426 60.4528 79.0207L58.7614 77.9535ZM58.7614 77.402V77.9535L60.4528 79.0207V78.4692L58.7614 77.402ZM59.2712 74.0485C58.9322 75.0371 58.7614 76.1557 58.7614 77.402L60.4528 78.4692C60.4528 77.4429 60.593 76.5183 60.8758 75.6934L59.2712 74.0485ZM60.8442 71.684C60.1396 72.2391 59.6141 73.03 59.27 74.052L60.877 75.6899C61.1548 74.865 61.5761 74.2313 62.1436 73.7842L60.8442 71.684ZM63.576 70.9849C62.4983 70.8959 61.5849 71.1231 60.8501 71.6794L62.1377 73.7888C62.7031 73.3607 63.415 73.1762 64.2876 73.2483L63.576 70.9849ZM65.1681 71.3496C64.6034 71.1443 64.0703 71.0212 63.5712 70.9845L64.2925 73.2487C64.6723 73.2766 65.0877 73.3709 65.5412 73.5358L65.1681 71.3496ZM64.8746 68.8843V71.6115L66.5661 72.6788V69.9516L64.8746 68.8843ZM65.5412 73.5358C66.1137 73.7439 66.5661 73.4292 66.5661 72.6788L64.8746 71.6115C64.8746 71.3715 65.0167 71.2946 65.1681 71.3496L65.5412 73.5358ZM66.5661 92.5343C66.5661 91.7868 66.117 90.9043 65.5468 90.3891L65.1669 92.0983C65.0157 91.9617 64.8746 91.706 64.8746 91.467L66.5661 92.5343ZM68.1228 73.6202C68.1228 74.3817 68.5885 75.2829 69.1746 75.7936L69.5116 74.0463C69.6682 74.1828 69.8142 74.4442 69.8142 74.6874L68.1228 73.6202ZM66.1656 94.4617C66.3868 94.6012 66.5661 94.9263 66.5661 95.1879L64.8746 94.1206C64.8746 94.9637 65.4526 96.0118 66.1656 96.4617V94.4617ZM74.5846 91.0177C74.3642 90.8786 74.1236 90.4826 74.1783 90.1639L75.8421 91.5738C75.9924 90.6976 75.3363 89.492 74.5846 89.0177V91.0177ZM72.3408 89.3008C72.3113 89.4093 72.1958 89.5105 71.9823 89.3758V87.3758C71.3342 86.9669 70.8539 87.2112 70.7096 87.7427L72.3408 89.3008ZM66.1656 68.1724C65.4526 67.7225 64.8746 68.0413 64.8746 68.8843L66.5661 69.9516C66.5661 70.2131 66.3868 70.312 66.1656 70.1724V68.1724ZM68.1228 96.1701C68.1228 95.9085 68.3021 95.8097 68.5233 95.9492V97.9492C69.2362 98.3991 69.8142 98.0803 69.8142 97.2373L68.1228 96.1701ZM71.7317 82.5553C71.9462 82.6906 72.064 82.9412 72.0932 83.0928L70.4558 82.561C70.5947 83.283 71.0794 84.1437 71.7317 84.5553V82.5553ZM68.5233 71.66C68.3021 71.5204 68.1228 71.1953 68.1228 70.9338L69.8142 72.001C69.8142 71.1579 69.2362 70.1098 68.5233 69.66V71.66ZM69.1992 92.7716C68.6016 92.5239 68.1228 92.8349 68.1228 93.6073L69.8142 94.6746C69.8142 94.9213 69.6641 94.9975 69.5039 94.9311L69.1992 92.7716ZM73.9548 84.5371C73.9105 84.1672 74.1426 84.0765 74.362 84.2149V86.2149C75.105 86.6837 75.7503 86.3211 75.6267 85.2892L73.9548 84.5371Z" fill="#171753" mask="url(#path-136-outside-1_72_5165)"/>
</g>
<defs>
<clipPath id="clip0_72_5165">
<rect width="36.6805" height="64.0241" fill="white" transform="translate(72.7458 41.2659)"/>
</clipPath>
<clipPath id="clip1_72_5165">
<rect width="36.6805" height="64.0241" fill="white" transform="translate(61.443 32)"/>
</clipPath>
<clipPath id="clip2_72_5165">
<rect width="36.6805" height="64.0241" fill="white" transform="translate(49 53.1963)"/>
</clipPath>
</defs>
</svg>
