<svg width="84" height="84" viewBox="0 0 84 84" fill="none" xmlns="http://www.w3.org/2000/svg">
<path d="M52.0693 42.3353C52.0693 40.5703 53.4815 39.1582 55.2468 39.1582C57.012 39.1582 58.4242 40.5703 58.4242 42.3353C58.4242 44.1004 57.012 45.5124 55.2468 45.5124C53.4815 45.5124 52.0693 44.0416 52.0693 42.3353Z" fill="white"/>
<path d="M71.2513 50.0415C71.1336 51.0417 71.0159 52.0419 70.7217 52.9833C69.8391 56.3369 67.8973 59.3964 64.7199 61.1026C60.3656 63.3384 55.1875 62.5147 50.8332 60.8084C47.2439 63.3384 47.2439 63.3384 47.2439 63.3384C46.4201 63.8679 45.361 62.9853 45.8317 62.1028C44.8314 62.2793 44.5372 61.3379 44.8314 60.5731C44.0076 61.2203 43.3015 60.0436 43.7722 59.3375C44.0664 58.8669 44.5372 58.3373 44.8902 57.9255C39.8298 55.0425 35.2402 51.5124 30.5917 48.0411C33.2396 49.6885 43.8311 55.1014 46.4201 56.2193C49.1268 57.396 51.8335 58.5727 54.6579 59.2199C57.0116 59.7494 60.0125 60.0436 62.1897 58.6903C64.1903 57.5136 64.9552 55.1014 65.2494 52.9245C65.9555 48.2176 64.308 42.9224 61.8366 38.9216C59.2476 34.7443 55.011 30.9788 50.186 29.7433C48.4207 29.2726 46.6555 29.2726 45.0079 29.5668C41.1832 30.2139 37.7115 32.5674 35.0637 35.5091C31.239 39.7453 28.5911 44.9817 26.1786 50.1592C24.531 53.6305 22.2362 62.1028 16.8228 58.7492C14.4102 57.2195 12.8804 54.5719 11.8212 51.9831C10.6444 49.2178 9.8206 45.5112 10.5855 42.5106C12.2331 36.2152 21.0594 41.8045 24.0603 43.805C23.8837 43.7461 16.8228 40.5102 14.2337 43.0401C13.0569 44.2168 13.1157 46.3349 13.2923 47.8646C13.6453 50.6299 14.9987 54.7484 17.5877 56.2781C20.9417 58.2197 22.6481 52.1596 23.5307 50.0415C25.0017 46.4526 26.4139 42.8636 28.0615 39.3335C29.8856 35.4503 32.0627 31.626 35.0637 28.5077C34.4164 27.7429 33.4749 26.8015 33.4161 25.8013C33.2984 24.6834 34.4164 23.4479 35.5932 24.0362C34.2399 22.5065 36.064 20.2119 37.8292 21.0944C37.0054 19.8001 38.2999 18.1527 39.6533 18.2115C40.4182 18.2115 41.1832 18.8587 41.7716 19.2705C43.3015 20.2707 44.8314 21.3298 46.4201 22.33C61.0717 20.0354 72.5458 36.6859 71.2513 50.0415Z" fill="white"/>
<path d="M70.7228 52.9843C69.8401 56.3379 67.8984 59.3974 64.7209 61.1036C60.3666 63.3394 55.1886 62.5157 50.8343 60.8095C47.245 63.3394 47.245 63.3394 47.245 63.3394C46.4212 63.8689 45.362 62.9864 45.8328 62.1038C44.8325 62.2803 44.5382 61.339 44.8325 60.5741C44.0087 61.2213 43.3026 60.0446 43.7733 59.3386C44.0675 58.8679 44.5382 58.3384 44.8913 57.9265C39.8309 55.0436 35.2413 51.5134 30.5928 48.0421C33.2406 49.6895 43.8321 55.1024 46.4212 56.2203C49.1279 57.397 51.8346 58.5737 54.659 59.2209C57.0127 59.7504 60.0136 60.0446 62.1907 58.6914C64.1914 57.5147 64.9563 55.1024 65.2505 52.9255C65.9566 48.2186 64.309 42.9234 61.8377 38.9226C59.2487 34.7453 55.0121 30.9798 50.187 29.7443C48.4218 29.2736 46.6565 29.2736 45.009 29.5678C51.5992 27.5673 64.309 30.215 68.781 40.3935C70.8993 45.3945 71.3112 49.3953 70.7228 52.9843Z" fill="white"/>
</svg>
