<svg width="32" height="33" viewBox="0 0 32 33" fill="none" xmlns="http://www.w3.org/2000/svg">
<path d="M11.6983 27.7281C10.8839 27.7281 11.0001 28.6873 11.0001 28.6873H21.5888C21.5888 28.6873 21.6388 28.2754 21.4444 27.9915C21.3416 27.8421 21.1713 27.7281 20.8906 27.7281C20.1343 27.7281 19.9599 27.3896 19.9599 27.051L20.018 23.1019C20.018 21.7477 19.5523 20.845 18.9704 20.3937C22.2871 20.0551 25.7775 18.8138 25.7775 13.2842C25.7775 11.705 25.1955 10.4072 24.2648 9.39159C24.4392 9.05305 24.9048 7.58604 24.0904 5.61121C24.0904 5.61121 23.7739 5.50909 23.0874 5.65353C22.425 5.79347 21.418 6.1636 20.018 7.07822C17.5746 6.40115 15.0144 6.40115 12.5709 7.07822C9.72059 5.21626 8.49858 5.61121 8.49858 5.61121C7.68412 7.58604 8.14979 9.05305 8.32418 9.39159C7.39345 10.4072 6.81151 11.705 6.81151 13.2842C6.81151 18.8138 10.2438 20.0551 13.5598 20.3937C13.1529 20.7886 12.7453 21.4093 12.6291 22.3684C11.7565 22.707 9.60373 23.327 8.32418 21.1271C8.32418 21.1271 7.50972 19.7729 5.99705 19.6601C5.99705 19.6601 4.5425 19.6601 5.93891 20.5628C5.93891 20.5628 6.25131 20.6955 6.65002 21.1361C6.93953 21.4561 7.27424 21.9385 7.56785 22.6506C7.56785 22.6506 8.44045 25.1326 12.5709 24.2299L12.6291 27.051C12.6291 27.3896 12.4547 27.7281 11.6983 27.7281Z" fill="#BEF0ED"/>
</svg>