<svg width="237" height="135" viewBox="0 0 237 135" fill="none" xmlns="http://www.w3.org/2000/svg">
<g opacity="0.3" filter="url(#filter0_d_140_6183)">
<rect x="4" y="54" width="229" height="72.0552" rx="16" fill="#8989C7"/>
</g>
<path d="M82.1391 97.38C80.8857 97.38 79.7791 97.1733 78.8191 96.76C77.8724 96.3333 77.0724 95.7667 76.4191 95.06C75.7791 94.34 75.2924 93.5333 74.9591 92.64C74.6391 91.7333 74.4791 90.7933 74.4791 89.82V89.38C74.4791 88.46 74.6391 87.56 74.9591 86.68C75.2791 85.8 75.7457 85.0067 76.3591 84.3C76.9857 83.5933 77.7524 83.0333 78.6591 82.62C79.5791 82.1933 80.6324 81.98 81.8191 81.98C83.0991 81.98 84.2324 82.22 85.2191 82.7C86.2057 83.1667 86.9991 83.8267 87.5991 84.68C88.1991 85.52 88.5524 86.5 88.6591 87.62H85.7991C85.7057 86.9933 85.4724 86.46 85.0991 86.02C84.7257 85.5667 84.2524 85.22 83.6791 84.98C83.1191 84.74 82.4991 84.62 81.8191 84.62C81.1391 84.62 80.5191 84.74 79.9591 84.98C79.4124 85.22 78.9457 85.56 78.5591 86C78.1724 86.44 77.8724 86.9667 77.6591 87.58C77.4591 88.1933 77.3591 88.8733 77.3591 89.62C77.3591 90.4333 77.4724 91.16 77.6991 91.8C77.9257 92.44 78.2457 92.9867 78.6591 93.44C79.0724 93.88 79.5724 94.22 80.1591 94.46C80.7457 94.6867 81.4057 94.8 82.1391 94.8C83.1124 94.8 83.9657 94.6 84.6991 94.2C85.4324 93.7867 85.9657 93.2533 86.2991 92.6L85.7991 94.9V91.14H88.4191V94.38C87.7924 95.3267 86.9391 96.0667 85.8591 96.6C84.7791 97.12 83.5391 97.38 82.1391 97.38ZM81.6791 91.7V89.58H89.6391V91.7H81.6791ZM91.8997 97V82.4H94.6797V97H91.8997ZM90.5397 84.48V82.4H94.6797V84.48H90.5397ZM103.073 97.38C102.113 97.38 101.267 97.2267 100.533 96.92C99.8001 96.6133 99.1801 96.2 98.6734 95.68C98.1668 95.1467 97.7801 94.5467 97.5134 93.88C97.2601 93.2133 97.1334 92.52 97.1334 91.8V91.38C97.1334 90.6333 97.2668 89.9267 97.5334 89.26C97.8134 88.58 98.2068 87.98 98.7134 87.46C99.2334 86.9267 99.8601 86.5133 100.593 86.22C101.327 85.9133 102.153 85.76 103.073 85.76C103.993 85.76 104.82 85.9133 105.553 86.22C106.287 86.5133 106.907 86.9267 107.413 87.46C107.933 87.98 108.327 88.58 108.593 89.26C108.86 89.9267 108.993 90.6333 108.993 91.38V91.8C108.993 92.52 108.86 93.2133 108.593 93.88C108.34 94.5467 107.96 95.1467 107.453 95.68C106.947 96.2 106.327 96.6133 105.593 96.92C104.86 97.2267 104.02 97.38 103.073 97.38ZM103.073 95C103.753 95 104.327 94.8533 104.793 94.56C105.26 94.2533 105.613 93.8467 105.853 93.34C106.093 92.82 106.213 92.2333 106.213 91.58C106.213 90.9133 106.087 90.3267 105.833 89.82C105.593 89.3 105.233 88.8933 104.753 88.6C104.287 88.2933 103.727 88.14 103.073 88.14C102.42 88.14 101.853 88.2933 101.373 88.6C100.907 88.8933 100.547 89.3 100.293 89.82C100.04 90.3267 99.9134 90.9133 99.9134 91.58C99.9134 92.2333 100.033 92.82 100.273 93.34C100.527 93.8467 100.887 94.2533 101.353 94.56C101.82 94.8533 102.393 95 103.073 95ZM115.368 97.34C113.874 97.34 112.701 97.0267 111.848 96.4C111.008 95.76 110.568 94.88 110.528 93.76H113.028C113.068 94.1333 113.274 94.4733 113.648 94.78C114.021 95.0867 114.608 95.24 115.408 95.24C116.074 95.24 116.601 95.12 116.988 94.88C117.388 94.64 117.588 94.3133 117.588 93.9C117.588 93.54 117.434 93.2533 117.128 93.04C116.834 92.8267 116.328 92.6867 115.608 92.62L114.648 92.52C113.434 92.3867 112.501 92.04 111.848 91.48C111.194 90.92 110.868 90.1733 110.868 89.24C110.868 88.4933 111.054 87.8667 111.428 87.36C111.801 86.8533 112.314 86.4733 112.968 86.22C113.634 85.9533 114.394 85.82 115.248 85.82C116.581 85.82 117.661 86.1133 118.488 86.7C119.314 87.2867 119.748 88.1467 119.788 89.28H117.288C117.261 88.9067 117.074 88.5867 116.728 88.32C116.381 88.0533 115.881 87.92 115.228 87.92C114.641 87.92 114.188 88.0333 113.868 88.26C113.548 88.4867 113.388 88.78 113.388 89.14C113.388 89.4867 113.514 89.7533 113.768 89.94C114.034 90.1267 114.461 90.2533 115.048 90.32L116.008 90.42C117.288 90.5533 118.288 90.9067 119.008 91.48C119.741 92.0533 120.108 92.8267 120.108 93.8C120.108 94.52 119.908 95.1467 119.508 95.68C119.121 96.2 118.574 96.6067 117.868 96.9C117.161 97.1933 116.328 97.34 115.368 97.34ZM126.344 97.34C124.851 97.34 123.678 97.0267 122.824 96.4C121.984 95.76 121.544 94.88 121.504 93.76H124.004C124.044 94.1333 124.251 94.4733 124.624 94.78C124.998 95.0867 125.584 95.24 126.384 95.24C127.051 95.24 127.578 95.12 127.964 94.88C128.364 94.64 128.564 94.3133 128.564 93.9C128.564 93.54 128.411 93.2533 128.104 93.04C127.811 92.8267 127.304 92.6867 126.584 92.62L125.624 92.52C124.411 92.3867 123.478 92.04 122.824 91.48C122.171 90.92 121.844 90.1733 121.844 89.24C121.844 88.4933 122.031 87.8667 122.404 87.36C122.778 86.8533 123.291 86.4733 123.944 86.22C124.611 85.9533 125.371 85.82 126.224 85.82C127.558 85.82 128.638 86.1133 129.464 86.7C130.291 87.2867 130.724 88.1467 130.764 89.28H128.264C128.238 88.9067 128.051 88.5867 127.704 88.32C127.358 88.0533 126.858 87.92 126.204 87.92C125.618 87.92 125.164 88.0333 124.844 88.26C124.524 88.4867 124.364 88.78 124.364 89.14C124.364 89.4867 124.491 89.7533 124.744 89.94C125.011 90.1267 125.438 90.2533 126.024 90.32L126.984 90.42C128.264 90.5533 129.264 90.9067 129.984 91.48C130.718 92.0533 131.084 92.8267 131.084 93.8C131.084 94.52 130.884 95.1467 130.484 95.68C130.098 96.2 129.551 96.6067 128.844 96.9C128.138 97.1933 127.304 97.34 126.344 97.34ZM139.961 97V93.78H139.501V90.2C139.501 89.5733 139.347 89.1067 139.041 88.8C138.734 88.4933 138.261 88.34 137.621 88.34C137.287 88.34 136.887 88.3467 136.421 88.36C135.954 88.3733 135.481 88.3933 135.001 88.42C134.534 88.4333 134.114 88.4533 133.741 88.48V86.12C134.047 86.0933 134.394 86.0667 134.781 86.04C135.167 86.0133 135.561 86 135.961 86C136.374 85.9867 136.761 85.98 137.121 85.98C138.241 85.98 139.167 86.1267 139.901 86.42C140.647 86.7133 141.207 87.1733 141.581 87.8C141.967 88.4267 142.161 89.2467 142.161 90.26V97H139.961ZM136.461 97.28C135.674 97.28 134.981 97.14 134.381 96.86C133.794 96.58 133.334 96.18 133.001 95.66C132.681 95.14 132.521 94.5133 132.521 93.78C132.521 92.98 132.714 92.3267 133.101 91.82C133.501 91.3133 134.054 90.9333 134.761 90.68C135.481 90.4267 136.321 90.3 137.281 90.3H139.801V91.96H137.241C136.601 91.96 136.107 92.12 135.761 92.44C135.427 92.7467 135.261 93.1467 135.261 93.64C135.261 94.1333 135.427 94.5333 135.761 94.84C136.107 95.1467 136.601 95.3 137.241 95.3C137.627 95.3 137.981 95.2333 138.301 95.1C138.634 94.9533 138.907 94.7133 139.121 94.38C139.347 94.0333 139.474 93.5667 139.501 92.98L140.181 93.76C140.114 94.52 139.927 95.16 139.621 95.68C139.327 96.2 138.914 96.6 138.381 96.88C137.861 97.1467 137.221 97.28 136.461 97.28ZM145.139 97V86.14H147.339V90.74H147.279C147.279 89.18 147.612 88 148.279 87.2C148.945 86.4 149.925 86 151.219 86H151.619V88.42H150.859C149.925 88.42 149.199 88.6733 148.679 89.18C148.172 89.6733 147.919 90.3933 147.919 91.34V97H145.139ZM153.49 101.28V98.9H155.53C155.917 98.9 156.237 98.8467 156.49 98.74C156.757 98.6467 156.977 98.4867 157.15 98.26C157.324 98.0467 157.457 97.7467 157.55 97.36L160.47 86.14H163.13L159.91 97.96C159.697 98.7733 159.397 99.42 159.01 99.9C158.624 100.393 158.124 100.747 157.51 100.96C156.91 101.173 156.164 101.28 155.27 101.28H153.49ZM156.87 96.76V94.56H159.19V96.76H156.87ZM155.93 96.76L152.41 86.14H155.21L158.55 96.76H155.93Z" fill="#171753"/>
<path d="M114.475 59.5385L122.302 55.0566C124.538 53.7761 126.295 51.6952 127.254 49.2942C128.532 45.9327 130.928 43.2116 133.963 41.4508L150.096 32.1669L123.42 16.6403L107.926 25.444C104.571 27.2048 102.175 30.086 100.897 33.6075L100.737 34.0877C99.7789 36.6488 97.8621 38.8897 95.466 40.1703L88.2778 44.172L114.475 59.5385Z" fill="#E3E0EB"/>
<path d="M114.475 60.3389L122.621 55.6969C125.017 54.2563 126.934 52.1754 127.893 49.4542C129.011 46.2529 131.407 43.5317 134.282 41.931L151.374 32.0068L123.42 16L107.606 24.9638C104.251 26.8846 101.536 29.9259 100.258 33.6075L100.098 34.0877C99.2996 36.4887 97.5425 38.5696 95.1465 39.8502L86.9999 44.4921L114.475 60.3389ZM148.818 32.0068L133.803 40.8106C130.608 42.5713 128.052 45.6126 126.774 48.974C125.976 51.3751 124.219 53.2959 122.142 54.4163L114.634 58.7382L89.8751 44.3321L96.1049 40.8106C98.6607 39.3699 100.737 37.129 101.696 34.4078L101.855 33.9276C103.133 30.5662 105.37 27.685 108.564 26.0843L123.739 17.4406L148.818 32.0068Z" fill="#171753"/>
<path d="M124.269 33.2622L132.523 28.1525L139.86 32.3449L131.344 37.1926L124.269 33.2622Z" fill="#8989C7"/>
<path d="M131.407 37.9293C131.886 37.9293 132.365 37.7692 132.844 37.6091L139.873 33.4474C140.352 33.1272 140.671 32.8071 140.671 32.3269C140.671 32.0067 140.512 31.6866 140.032 31.3665L133.803 27.6849C133.164 27.3648 132.046 27.3648 131.247 27.845L124.218 32.0067C123.739 32.3269 123.42 32.647 123.42 33.1272C123.42 33.4474 123.579 33.7675 124.059 34.0876L130.288 37.7692C130.608 37.7692 130.927 37.9293 131.407 37.9293ZM139.553 32.487C139.553 32.487 139.553 32.647 139.393 32.647L132.365 36.8088C131.886 37.1289 131.247 37.1289 130.927 36.9689L124.698 33.2873H124.538C124.538 33.2873 124.538 33.1272 124.698 33.1272L131.726 28.9655C132.205 28.6453 132.844 28.6453 133.164 28.8054L139.553 32.487C139.553 32.487 139.553 32.3269 139.553 32.487Z" fill="#171753"/>
<path d="M106.458 32.7312L125.326 43.5222L124.851 44.3563L105.983 33.5653L106.458 32.7312Z" fill="#171753"/>
<path d="M108.369 30.1759L127.237 40.9669L126.762 41.801L107.894 31.01L108.369 30.1759Z" fill="#171753"/>
<path d="M121.086 21.5912L129.271 26.2726L128.796 27.1067L120.611 22.4253L121.086 21.5912Z" fill="#171753"/>
<path d="M117.785 23.3126L125.97 27.994L125.495 28.8281L117.309 24.1467L117.785 23.3126Z" fill="#171753"/>
<path d="M114.578 25.26L122.763 29.9414L122.288 30.7755L114.103 26.0941L114.578 25.26Z" fill="#171753"/>
<path d="M98.4752 42.1724L117.343 52.9634L116.868 53.7975L98.0001 43.0065L98.4752 42.1724Z" fill="#171753"/>
<path d="M108.122 48.9735C108.712 44.425 110.086 43.1129 110.086 43.1129L111.952 44.5999L113.916 45.8245C113.916 45.8245 112.934 47.3115 108.122 48.9735Z" fill="#E3E0EB"/>
<path d="M107.631 49.4983L108.22 49.3234C113.13 47.6614 114.21 46.0869 114.308 45.9995L114.505 45.737L112.148 44.3375L110.086 42.6755L109.791 42.938C109.693 43.0254 108.318 44.3375 107.729 48.9735L107.631 49.4983ZM113.327 45.912C112.836 46.3493 111.559 47.399 108.515 48.4486C108.908 45.5621 109.693 44.25 110.086 43.7252L111.559 44.9498L113.327 45.912Z" fill="#171753"/>
<path d="M108.122 48.9733C108.221 48.8859 108.319 48.7984 108.417 48.7109C110.086 47.5738 111.559 45.5619 111.559 45.5619C111.559 45.5619 112.148 45.2995 112.738 45.0371L113.916 45.8244C113.916 45.8244 112.934 47.3114 108.122 48.9733Z" fill="#171753"/>
<path d="M107.631 49.4983L108.22 49.3234C113.13 47.6614 114.21 46.0869 114.308 45.9994L114.505 45.737L112.737 44.6874L112.541 44.7748C111.854 45.0373 111.264 45.2997 111.264 45.2997L111.166 45.3871L111.068 45.4746C111.068 45.4746 109.693 47.4865 108.024 48.5361C107.926 48.6236 107.729 48.7111 107.631 48.886L107.533 48.9735V49.4983H107.631ZM113.327 45.912C112.934 46.2619 111.952 47.0491 109.988 47.8363C110.872 46.9616 111.559 46.0869 111.755 45.8245C111.952 45.737 112.246 45.6496 112.639 45.4746L113.327 45.912Z" fill="#171753"/>
<path d="M107.902 48.5342L108.523 48.9628L107.621 50.0001L107 49.5716L107.902 48.5342Z" fill="#171753"/>
<path d="M111.559 41.7135C110.479 41.5385 109.694 43.2005 110.086 44.0752C110.479 44.9499 111.756 45.8246 112.836 45.9996C113.916 46.1745 115.585 45.2123 115.094 44.2502C114.702 43.3754 112.639 41.8884 111.559 41.7135Z" fill="#171753"/>
<path d="M113.032 46.4369C113.818 46.4369 114.702 46.087 115.193 45.4747C115.585 45.0374 115.684 44.6 115.487 44.1626C114.996 43.113 112.738 41.5385 111.559 41.3636C111.068 41.2761 110.479 41.5385 110.185 41.9759C109.595 42.5882 109.399 43.6378 109.792 44.2501C110.283 45.2998 111.658 46.262 112.836 46.3494C112.836 46.3494 112.934 46.4369 113.032 46.4369ZM111.461 42.0633C112.443 42.1508 114.407 43.5503 114.8 44.4251C114.898 44.6 114.8 44.7749 114.603 45.0374C114.211 45.4747 113.425 45.7371 112.836 45.7371C111.854 45.6497 110.774 44.8624 110.381 44.0752C110.185 43.6378 110.283 42.938 110.676 42.5007C110.97 42.2383 111.167 42.0633 111.461 42.0633Z" fill="#171753"/>
<path d="M111.167 45.2997C111.069 45.2997 111.069 45.2997 111.167 45.2997C110.676 44.9498 110.283 44.5125 110.087 44.0751C109.694 43.2004 110.381 41.7134 111.363 41.7134C112.247 42.2382 113.033 43.0255 113.327 43.5503C113.72 44.425 112.247 45.3872 111.167 45.2997Z" fill="#8989C7"/>
<path d="M111.265 45.6496C112.05 45.6496 113.032 45.2122 113.523 44.5999C113.818 44.1626 113.916 43.7252 113.72 43.3753C113.425 42.6755 112.345 41.8883 111.657 41.3635L111.559 41.276H111.461C110.97 41.276 110.479 41.5384 110.086 41.9758C109.595 42.5881 109.497 43.5503 109.694 44.1626C109.89 44.5999 110.283 45.1247 110.872 45.4746C110.97 45.5621 111.068 45.5621 111.166 45.5621C111.166 45.6496 111.166 45.6496 111.265 45.6496ZM111.265 42.0632C112.05 42.5881 112.738 43.2878 112.934 43.6377C113.032 43.8127 112.934 43.9876 112.836 44.1626C112.541 44.5999 111.854 44.8623 111.265 44.8623C110.872 44.5999 110.577 44.25 110.479 43.9001C110.283 43.4628 110.381 42.8505 110.774 42.4131C110.774 42.3257 110.97 42.1507 111.265 42.0632Z" fill="#171753"/>
<path d="M110.381 44.6001C110.282 44.4252 110.184 44.2502 110.086 44.1628C109.693 43.288 110.381 41.801 111.362 41.801C111.461 41.8885 111.559 41.976 111.657 41.976C111.952 42.7632 111.952 43.463 111.952 43.6379C111.952 43.8129 111.461 43.7254 111.461 43.7254C111.461 43.7254 110.97 44.3377 110.381 44.6001Z" fill="#E3E0EB"/>
<path d="M110.184 45.0373L110.479 44.9499C110.97 44.7749 111.461 44.3376 111.657 44.0751C111.854 44.0751 112.05 44.0751 112.246 43.9877C112.345 43.9002 112.443 43.7253 112.443 43.6378V43.5503C112.443 43.2879 112.345 42.5881 112.148 41.8884V41.8009L112.05 41.7134C111.952 41.6259 111.854 41.5385 111.755 41.451L111.657 41.3635H111.559C111.068 41.3635 110.577 41.6259 110.184 42.0633C109.693 42.6756 109.595 43.6378 109.792 44.2501C109.89 44.425 109.988 44.6 110.086 44.7749L110.184 45.0373ZM111.363 43.2879L111.166 43.4628C111.068 43.5503 110.774 43.9002 110.479 44.0751C110.479 44.0751 110.479 43.9877 110.381 43.9877C110.184 43.5503 110.283 42.938 110.675 42.5007C110.774 42.3257 110.97 42.1508 111.264 42.1508C111.264 42.1508 111.363 42.1508 111.363 42.2382C111.461 42.6756 111.559 43.113 111.559 43.4628L111.363 43.2879Z" fill="#171753"/>
<path d="M133.556 19.6705L135.913 21.3325L115.291 44.5999C114.997 44.8623 114.604 45.0372 114.015 44.9497C112.836 44.7748 111.461 43.8126 110.97 42.8504C110.774 42.3256 110.774 41.8882 111.069 41.6258L131.199 18.0085L133.556 19.6705Z" fill="#171753"/>
<path d="M114.309 45.3872C114.898 45.3872 115.389 45.2122 115.585 44.8623L136.501 21.245L131.101 17.4838L110.676 41.3635C110.283 41.8008 110.283 42.3257 110.577 42.938C111.068 44.0751 112.541 45.1247 113.916 45.2997C114.112 45.3872 114.211 45.3872 114.309 45.3872ZM135.323 21.42L114.996 44.425C114.8 44.5999 114.505 44.6874 114.014 44.5999C112.934 44.5124 111.657 43.6377 111.265 42.6755C111.068 42.3257 111.068 41.9758 111.265 41.8008L131.199 18.5334L135.323 21.42Z" fill="#171753"/>
<path d="M110.97 42.8504C110.773 42.3256 110.773 41.8882 111.068 41.6258L130.904 18.3584L131.984 19.0582L134.341 20.7201L113.719 43.9875C113.523 44.2499 113.032 44.4249 112.443 44.3374C111.755 43.9875 111.166 43.4627 110.97 42.8504Z" fill="#8989C7"/>
<path d="M112.639 44.7749C113.229 44.7749 113.72 44.5999 113.916 44.25L134.832 20.7202L130.806 17.9211L110.675 41.451C110.283 41.8883 110.283 42.4131 110.577 43.0254C110.872 43.6377 111.461 44.25 112.247 44.6874L112.345 44.7749H112.443C112.443 44.7749 112.541 44.7749 112.639 44.7749ZM133.752 20.8077L113.327 43.8127C113.229 43.9876 112.934 44.0751 112.541 44.0751C111.952 43.7252 111.461 43.2004 111.265 42.763C111.068 42.4131 111.068 42.0633 111.265 41.8883L130.904 18.9708L133.752 20.8077Z" fill="#171753"/>
<path d="M110.97 42.8504C110.774 42.3256 110.774 41.8882 111.068 41.6258L126.191 23.7816H126.289C126.485 23.9566 127.369 24.5689 128.351 24.219C128.449 24.219 128.449 24.219 128.449 24.3064C126.682 26.4058 114.309 41.101 111.756 43.4627C111.657 43.4627 111.559 43.4627 111.363 43.4627C111.166 43.2877 111.068 43.0253 110.97 42.8504Z" fill="#E3E0EB"/>
<path d="M111.854 43.8125L111.952 43.7251C114.603 41.3633 127.271 26.2308 128.744 24.5688C128.842 24.3939 128.842 24.2189 128.744 24.044C128.646 23.8691 128.351 23.8691 128.155 23.9565C127.467 24.2189 126.78 23.6941 126.583 23.6066L126.485 23.5192H126.289C126.191 23.5192 125.994 23.6066 125.994 23.6941L110.774 41.4508C110.381 41.8882 110.381 42.413 110.675 43.0253C110.774 43.2877 110.97 43.5501 111.166 43.7251V43.8125H111.854ZM127.664 24.6563C124.914 27.8927 114.21 40.5761 111.559 43.1128C111.461 42.9378 111.363 42.8504 111.265 42.6754C111.068 42.3255 111.068 41.9756 111.265 41.8007L126.289 24.2189C126.583 24.3939 127.074 24.6563 127.664 24.6563Z" fill="#171753"/>
<path d="M143.669 3.05099C144.357 2.26374 145.339 1.4765 146.321 1.03914C147.499 0.426845 148.874 0.0769589 149.954 0.864202C151.034 1.56397 150.936 2.87604 150.641 3.9257C150.347 4.97536 149.758 5.93754 149.07 6.81226C142.982 14.1599 136.501 21.0701 136.501 21.0701C136.206 21.42 135.617 21.5949 134.93 21.5075C133.457 21.3325 131.788 20.1954 131.297 18.9708C131.002 18.3585 131.1 17.8337 131.395 17.4838C131.297 17.4838 137.188 10.1362 143.669 3.05099Z" fill="#171753"/>
<path d="M135.323 21.8574C136.01 21.8574 136.501 21.6825 136.796 21.2451C136.894 21.2451 143.375 14.2474 149.464 7.07474C150.249 6.11255 150.74 5.06289 151.035 4.01323C151.526 2.43875 151.133 1.21415 150.151 0.514377C149.169 -0.185394 147.794 -0.185394 146.125 0.601849C145.045 1.12668 144.161 1.82645 143.277 2.70116C136.894 9.69888 131.002 17.0465 130.904 17.1339C130.511 17.5713 130.511 18.2711 130.806 18.9709C131.395 20.2829 133.163 21.5075 134.832 21.6825C135.029 21.8574 135.127 21.8574 135.323 21.8574ZM148.482 0.776792C148.973 0.776792 149.365 0.951735 149.66 1.12668C150.446 1.65151 150.642 2.52622 150.249 3.83829C149.955 4.80048 149.464 5.67519 148.776 6.54991C142.786 13.81 136.207 20.7203 136.207 20.8078C136.01 21.0702 135.52 21.1576 135.029 21.0702C133.752 20.8952 132.181 19.8456 131.69 18.7959C131.493 18.3585 131.493 17.9212 131.69 17.6588C131.788 17.5713 137.68 10.2237 144.063 3.22599C144.75 2.43875 145.634 1.82645 146.518 1.30162C147.303 0.951735 147.991 0.776792 148.482 0.776792Z" fill="#171753"/>
<path d="M131.297 18.9708C131.003 18.3585 131.101 17.8336 131.395 17.4838C131.395 17.4838 137.287 10.1362 143.768 3.05098C144.357 2.26373 145.339 1.56396 146.321 1.03913C147.205 0.689249 148.089 0.339363 148.973 0.514306C149.464 1.21408 149.366 2.17626 149.169 3.13845C148.875 4.10063 148.285 5.06282 147.598 5.93753C141.51 13.2851 135.029 20.1954 135.029 20.1954C134.734 20.5453 134.145 20.7202 133.458 20.6327C133.065 20.5453 132.672 20.4578 132.279 20.2829C131.886 19.933 131.494 19.4956 131.297 18.9708Z" fill="#8989C7"/>
<path d="M133.85 20.9826C134.538 20.9826 135.029 20.8077 135.323 20.3703C135.421 20.2829 141.902 13.3726 147.892 6.11251C148.678 5.23779 149.267 4.18813 149.562 3.22595C149.856 2.00135 149.758 1.03916 149.267 0.33939L149.169 0.164447H148.973C148.187 -0.0104954 147.205 0.251919 146.125 0.776748C145.045 1.30158 144.161 2.00135 143.277 2.87606C136.894 9.87378 131.002 17.2214 130.904 17.3088C130.512 17.7462 130.512 18.446 130.806 19.1457C131.002 19.6706 131.395 20.1079 131.984 20.5453L132.083 20.6328C132.475 20.8077 132.966 20.8952 133.359 20.9826C133.556 20.9826 133.654 20.9826 133.85 20.9826ZM148.678 0.864219C149.071 1.47652 148.973 2.35123 148.776 3.051C148.482 3.92572 147.991 4.8879 147.303 5.76262C141.313 13.0227 134.734 19.933 134.734 20.0205C134.538 20.2829 134.047 20.3703 133.556 20.2829C133.261 20.2829 132.966 20.1954 132.574 20.0205C132.181 19.6706 131.886 19.2332 131.69 18.8833C131.493 18.446 131.493 18.0086 131.69 17.7462C131.788 17.6587 137.68 10.3111 144.063 3.31342C144.75 2.52618 145.634 1.8264 146.518 1.38905C147.401 0.95169 148.089 0.776747 148.678 0.864219Z" fill="#171753"/>
<path d="M149.365 1.73875C148.678 2.35105 147.499 3.40071 146.027 5.06266L144.455 6.81209C144.455 6.81209 143.081 7.94922 142.197 5.15013C142.197 5.06266 142.099 4.97519 142.099 4.88772C142.59 4.27542 143.179 3.66312 143.67 3.05082C144.455 2.26358 145.339 1.47633 146.419 1.03898C147.205 0.60162 148.187 0.339205 149.071 0.514148C149.267 0.864034 149.365 1.30139 149.365 1.73875Z" fill="#E3E0EB"/>
<path d="M143.768 7.33702C144.161 7.33702 144.554 7.16207 144.75 6.98713L146.321 5.2377C147.794 3.66322 148.973 2.61356 149.66 2.00126L149.856 1.82632V1.65137C149.856 1.12654 149.66 0.601716 149.464 0.25183L149.267 0.164358H149.071C148.285 -0.0105844 147.303 0.164358 146.223 0.689187C145.143 1.21402 144.259 1.91379 143.375 2.7885C142.786 3.4008 142.295 4.0131 141.706 4.6254L141.608 4.80034L141.706 5.06276C141.706 5.15023 141.706 5.15023 141.804 5.2377C142.197 6.4623 142.786 7.16207 143.474 7.33702C143.572 7.33702 143.67 7.33702 143.768 7.33702ZM144.161 6.54977C144.063 6.54977 143.866 6.72472 143.67 6.63724C143.474 6.54977 142.983 6.28736 142.59 5.06276V4.97529C143.081 4.45046 143.572 3.83816 144.063 3.31333C144.75 2.43862 145.634 1.82632 146.616 1.30149C147.402 0.951601 148.187 0.776659 148.776 0.776659C148.874 1.03907 148.973 1.30149 148.973 1.5639C148.285 2.1762 147.107 3.22586 145.732 4.80034L144.161 6.54977Z" fill="#171753"/>
<path d="M148.482 6.8122C149.169 6.8122 149.66 6.54979 150.053 6.1999L149.464 5.76255C149.267 6.02496 148.776 6.11243 148.187 6.02496C146.812 5.85002 145.241 4.80036 144.75 3.66323C144.554 3.1384 144.554 2.78852 144.75 2.5261L144.161 2.08875C143.768 2.5261 143.67 3.22587 144.063 4.01312C144.554 5.32519 146.419 6.54979 148.089 6.72473C148.187 6.8122 148.383 6.8122 148.482 6.8122Z" fill="#171753"/>
<path d="M136.698 20.2829C137.385 20.2829 137.876 20.108 138.269 19.6706L137.68 19.2332C137.483 19.4957 136.992 19.5831 136.403 19.4957C135.029 19.3207 133.457 18.2711 132.966 17.1339C132.77 16.6966 132.77 16.2592 132.966 15.9968L132.377 15.5594C131.984 15.9968 131.886 16.6966 132.279 17.3963C132.868 18.7959 134.734 20.0205 136.305 20.1954C136.403 20.2829 136.6 20.2829 136.698 20.2829Z" fill="#171753"/>
<path d="M149.07 0.51425C148.481 0.426779 148.186 0.776664 148.383 1.30149C148.579 1.82632 149.266 2.26368 149.856 2.35115C150.445 2.43862 150.837 2.08874 150.543 1.56391C150.346 1.03908 149.659 0.601722 149.07 0.51425Z" fill="#8989C7"/>
<path d="M150.052 2.70115C150.347 2.70115 150.641 2.61368 150.838 2.35126C151.034 2.17632 151.132 1.82643 150.936 1.38908C150.641 0.776778 149.856 0.251949 149.168 0.164478C148.677 0.0770061 148.285 0.251949 148.088 0.514363C147.892 0.776778 147.892 1.12666 147.99 1.47655C148.285 2.08885 149.07 2.61368 149.856 2.70115C149.954 2.70115 149.954 2.70115 150.052 2.70115ZM148.874 0.864249H148.972C149.463 0.95172 150.052 1.30161 150.15 1.73896C150.249 1.82643 150.249 1.91391 150.249 1.91391C150.249 1.91391 150.15 2.00138 149.954 1.91391C149.463 1.82643 148.972 1.47655 148.776 1.12666C148.677 0.951721 148.776 0.864249 148.776 0.864249C148.776 0.864249 148.776 0.864249 148.874 0.864249Z" fill="#171753"/>
<path d="M114.407 45.2997C114.505 45.2997 114.603 45.2997 114.701 45.2997L114.603 44.7749C114.112 44.8623 113.326 44.5999 113.13 44.5125L112.835 45.0373C112.934 44.9498 113.719 45.2997 114.407 45.2997Z" fill="#8989C7"/>
<path d="M113.032 46.3494C113.13 46.3494 113.228 46.3494 113.327 46.3494L113.228 45.8245C112.737 45.912 111.952 45.6496 111.755 45.5621L111.461 46.087C111.559 45.9995 112.345 46.3494 113.032 46.3494Z" fill="#8989C7"/>
<path d="M140.486 7.5495L141.262 7.65747L141.171 8.176L140.395 8.06803L140.486 7.5495Z" fill="#8989C7"/>
<defs>
<filter id="filter0_d_140_6183" x="0" y="54" width="237" height="80.0552" filterUnits="userSpaceOnUse" color-interpolation-filters="sRGB">
<feFlood flood-opacity="0" result="BackgroundImageFix"/>
<feColorMatrix in="SourceAlpha" type="matrix" values="0 0 0 0 0 0 0 0 0 0 0 0 0 0 0 0 0 0 127 0" result="hardAlpha"/>
<feOffset dy="4"/>
<feGaussianBlur stdDeviation="2"/>
<feComposite in2="hardAlpha" operator="out"/>
<feColorMatrix type="matrix" values="0 0 0 0 0.0901961 0 0 0 0 0.0901961 0 0 0 0 0.32549 0 0 0 0.25 0"/>
<feBlend mode="normal" in2="BackgroundImageFix" result="effect1_dropShadow_140_6183"/>
<feBlend mode="normal" in="SourceGraphic" in2="effect1_dropShadow_140_6183" result="shape"/>
</filter>
</defs>
</svg>
