<svg width="300" height="180" viewBox="0 0 300 180" fill="none" xmlns="http://www.w3.org/2000/svg">
<rect width="300" height="180" fill="#49CE8B"/>
<path d="M29.6 136.38C28.3467 136.38 27.24 136.173 26.28 135.76C25.3333 135.333 24.5333 134.767 23.88 134.06C23.24 133.34 22.7533 132.533 22.42 131.64C22.1 130.733 21.94 129.793 21.94 128.82V128.38C21.94 127.46 22.1 126.56 22.42 125.68C22.74 124.8 23.2067 124.007 23.82 123.3C24.4467 122.593 25.2133 122.033 26.12 121.62C27.04 121.193 28.0933 120.98 29.28 120.98C30.56 120.98 31.6933 121.22 32.68 121.7C33.6667 122.167 34.46 122.827 35.06 123.68C35.66 124.52 36.0133 125.5 36.12 126.62H33.26C33.1667 125.993 32.9333 125.46 32.56 125.02C32.1867 124.567 31.7133 124.22 31.14 123.98C30.58 123.74 29.96 123.62 29.28 123.62C28.6 123.62 27.98 123.74 27.42 123.98C26.8733 124.22 26.4067 124.56 26.02 125C25.6333 125.44 25.3333 125.967 25.12 126.58C24.92 127.193 24.82 127.873 24.82 128.62C24.82 129.433 24.9333 130.16 25.16 130.8C25.3867 131.44 25.7067 131.987 26.12 132.44C26.5333 132.88 27.0333 133.22 27.62 133.46C28.2067 133.687 28.8667 133.8 29.6 133.8C30.5733 133.8 31.4267 133.6 32.16 133.2C32.8933 132.787 33.4267 132.253 33.76 131.6L33.26 133.9V130.14H35.88V133.38C35.2533 134.327 34.4 135.067 33.32 135.6C32.24 136.12 31 136.38 29.6 136.38ZM29.14 130.7V128.58H37.1V130.7H29.14ZM44.4406 136.38C43.4806 136.38 42.634 136.227 41.9006 135.92C41.1673 135.613 40.5473 135.2 40.0406 134.68C39.534 134.147 39.1473 133.547 38.8806 132.88C38.6273 132.213 38.5006 131.52 38.5006 130.8V130.38C38.5006 129.633 38.634 128.927 38.9006 128.26C39.1806 127.58 39.574 126.98 40.0806 126.46C40.6006 125.927 41.2273 125.513 41.9606 125.22C42.694 124.913 43.5206 124.76 44.4406 124.76C45.3606 124.76 46.1873 124.913 46.9206 125.22C47.654 125.513 48.274 125.927 48.7806 126.46C49.3006 126.98 49.694 127.58 49.9606 128.26C50.2273 128.927 50.3606 129.633 50.3606 130.38V130.8C50.3606 131.52 50.2273 132.213 49.9606 132.88C49.7073 133.547 49.3273 134.147 48.8206 134.68C48.314 135.2 47.694 135.613 46.9606 135.92C46.2273 136.227 45.3873 136.38 44.4406 136.38ZM44.4406 134C45.1206 134 45.694 133.853 46.1606 133.56C46.6273 133.253 46.9806 132.847 47.2206 132.34C47.4606 131.82 47.5806 131.233 47.5806 130.58C47.5806 129.913 47.454 129.327 47.2006 128.82C46.9606 128.3 46.6006 127.893 46.1206 127.6C45.654 127.293 45.094 127.14 44.4406 127.14C43.7873 127.14 43.2206 127.293 42.7406 127.6C42.274 127.893 41.914 128.3 41.6606 128.82C41.4073 129.327 41.2806 129.913 41.2806 130.58C41.2806 131.233 41.4006 131.82 41.6406 132.34C41.894 132.847 42.254 133.253 42.7206 133.56C43.1873 133.853 43.7606 134 44.4406 134ZM58.0148 136.38C57.0548 136.38 56.2082 136.227 55.4748 135.92C54.7415 135.613 54.1215 135.2 53.6148 134.68C53.1082 134.147 52.7215 133.547 52.4548 132.88C52.2015 132.213 52.0748 131.52 52.0748 130.8V130.38C52.0748 129.633 52.2082 128.927 52.4748 128.26C52.7548 127.58 53.1482 126.98 53.6548 126.46C54.1748 125.927 54.8015 125.513 55.5348 125.22C56.2682 124.913 57.0948 124.76 58.0148 124.76C58.9348 124.76 59.7615 124.913 60.4948 125.22C61.2282 125.513 61.8482 125.927 62.3548 126.46C62.8748 126.98 63.2682 127.58 63.5348 128.26C63.8015 128.927 63.9348 129.633 63.9348 130.38V130.8C63.9348 131.52 63.8015 132.213 63.5348 132.88C63.2815 133.547 62.9015 134.147 62.3948 134.68C61.8882 135.2 61.2682 135.613 60.5348 135.92C59.8015 136.227 58.9615 136.38 58.0148 136.38ZM58.0148 134C58.6948 134 59.2682 133.853 59.7348 133.56C60.2015 133.253 60.5548 132.847 60.7948 132.34C61.0348 131.82 61.1548 131.233 61.1548 130.58C61.1548 129.913 61.0282 129.327 60.7748 128.82C60.5348 128.3 60.1748 127.893 59.6948 127.6C59.2282 127.293 58.6682 127.14 58.0148 127.14C57.3615 127.14 56.7948 127.293 56.3148 127.6C55.8482 127.893 55.4882 128.3 55.2348 128.82C54.9815 129.327 54.8548 129.913 54.8548 130.58C54.8548 131.233 54.9748 131.82 55.2148 132.34C55.4682 132.847 55.8282 133.253 56.2948 133.56C56.7615 133.853 57.3348 134 58.0148 134ZM70.6091 140.28C70.0891 140.28 69.5557 140.26 69.0091 140.22C68.4757 140.18 67.9757 140.127 67.5091 140.06V137.74C67.9891 137.793 68.5024 137.84 69.0491 137.88C69.5957 137.933 70.1091 137.96 70.5891 137.96C71.4824 137.96 72.2024 137.853 72.7491 137.64C73.3091 137.427 73.7157 137.087 73.9691 136.62C74.2357 136.167 74.3691 135.587 74.3691 134.88V132.74L74.9691 131.38C74.9291 132.38 74.7224 133.233 74.3491 133.94C73.9757 134.633 73.4691 135.167 72.8291 135.54C72.1891 135.9 71.4491 136.08 70.6091 136.08C69.8624 136.08 69.1824 135.94 68.5691 135.66C67.9691 135.38 67.4491 134.993 67.0091 134.5C66.5824 134.007 66.2491 133.427 66.0091 132.76C65.7691 132.093 65.6491 131.38 65.6491 130.62V130.2C65.6491 129.44 65.7691 128.733 66.0091 128.08C66.2624 127.413 66.6157 126.833 67.0691 126.34C67.5224 125.847 68.0624 125.467 68.6891 125.2C69.3157 124.933 70.0091 124.8 70.7691 124.8C71.6624 124.8 72.4357 124.993 73.0891 125.38C73.7557 125.767 74.2757 126.327 74.6491 127.06C75.0224 127.793 75.2291 128.693 75.2691 129.76L74.7891 129.84V125.14H76.9891V134.72C76.9891 136.04 76.7624 137.107 76.3091 137.92C75.8557 138.733 75.1557 139.327 74.2091 139.7C73.2757 140.087 72.0757 140.28 70.6091 140.28ZM71.4091 133.7C71.9424 133.7 72.4291 133.58 72.8691 133.34C73.3091 133.1 73.6624 132.753 73.9291 132.3C74.1957 131.847 74.3291 131.3 74.3291 130.66V129.96C74.3291 129.347 74.1891 128.827 73.9091 128.4C73.6424 127.973 73.2891 127.653 72.8491 127.44C72.4091 127.213 71.9291 127.1 71.4091 127.1C70.8224 127.1 70.3024 127.24 69.8491 127.52C69.4091 127.787 69.0624 128.167 68.8091 128.66C68.5557 129.153 68.4291 129.74 68.4291 130.42C68.4291 131.087 68.5557 131.667 68.8091 132.16C69.0624 132.653 69.4091 133.033 69.8491 133.3C70.3024 133.567 70.8224 133.7 71.4091 133.7ZM80.1614 136V121.4H82.9414V136H80.1614ZM78.8014 123.48V121.4H82.9414V123.48H78.8014ZM90.9752 136.38C90.0418 136.38 89.2218 136.22 88.5152 135.9C87.8218 135.58 87.2418 135.153 86.7752 134.62C86.3218 134.073 85.9752 133.467 85.7352 132.8C85.5085 132.133 85.3952 131.453 85.3952 130.76V130.38C85.3952 129.66 85.5085 128.967 85.7352 128.3C85.9752 127.62 86.3218 127.02 86.7752 126.5C87.2418 125.967 87.8152 125.547 88.4952 125.24C89.1752 124.92 89.9618 124.76 90.8552 124.76C92.0285 124.76 93.0085 125.02 93.7952 125.54C94.5952 126.047 95.1952 126.72 95.5952 127.56C95.9952 128.387 96.1952 129.28 96.1952 130.24V131.24H86.5752V129.54H94.4552L93.5952 130.38C93.5952 129.687 93.4952 129.093 93.2952 128.6C93.0952 128.107 92.7885 127.727 92.3752 127.46C91.9752 127.193 91.4685 127.06 90.8552 127.06C90.2418 127.06 89.7218 127.2 89.2952 127.48C88.8685 127.76 88.5418 128.167 88.3152 128.7C88.1018 129.22 87.9952 129.847 87.9952 130.58C87.9952 131.26 88.1018 131.867 88.3152 132.4C88.5285 132.92 88.8552 133.333 89.2952 133.64C89.7352 133.933 90.2952 134.08 90.9752 134.08C91.6552 134.08 92.2085 133.947 92.6352 133.68C93.0618 133.4 93.3352 133.06 93.4552 132.66H96.0152C95.8552 133.407 95.5485 134.06 95.0952 134.62C94.6418 135.18 94.0618 135.613 93.3552 135.92C92.6618 136.227 91.8685 136.38 90.9752 136.38ZM25.24 160.08V157.44H28.26C29.02 157.44 29.6933 157.327 30.28 157.1C30.88 156.86 31.3867 156.527 31.8 156.1C32.2133 155.673 32.5267 155.173 32.74 154.6C32.9667 154.013 33.08 153.367 33.08 152.66C33.08 151.927 32.9667 151.273 32.74 150.7C32.5267 150.113 32.2133 149.613 31.8 149.2C31.3867 148.787 30.88 148.473 30.28 148.26C29.6933 148.047 29.02 147.94 28.26 147.94H25.24V145.3H28.08C29.4 145.3 30.5533 145.493 31.54 145.88C32.5267 146.267 33.3467 146.8 34 147.48C34.6533 148.147 35.14 148.913 35.46 149.78C35.7933 150.633 35.96 151.52 35.96 152.44V152.88C35.96 153.76 35.7933 154.627 35.46 155.48C35.14 156.333 34.6533 157.107 34 157.8C33.3467 158.493 32.5267 159.047 31.54 159.46C30.5533 159.873 29.4 160.08 28.08 160.08H25.24ZM22.8 160.08V145.3H25.64V160.08H22.8ZM43.5031 160.38C42.5431 160.38 41.6965 160.227 40.9631 159.92C40.2298 159.613 39.6098 159.2 39.1031 158.68C38.5965 158.147 38.2098 157.547 37.9431 156.88C37.6898 156.213 37.5631 155.52 37.5631 154.8V154.38C37.5631 153.633 37.6965 152.927 37.9631 152.26C38.2431 151.58 38.6365 150.98 39.1431 150.46C39.6631 149.927 40.2898 149.513 41.0231 149.22C41.7565 148.913 42.5831 148.76 43.5031 148.76C44.4231 148.76 45.2498 148.913 45.9831 149.22C46.7165 149.513 47.3365 149.927 47.8431 150.46C48.3631 150.98 48.7565 151.58 49.0231 152.26C49.2898 152.927 49.4231 153.633 49.4231 154.38V154.8C49.4231 155.52 49.2898 156.213 49.0231 156.88C48.7698 157.547 48.3898 158.147 47.8831 158.68C47.3765 159.2 46.7565 159.613 46.0231 159.92C45.2898 160.227 44.4498 160.38 43.5031 160.38ZM43.5031 158C44.1831 158 44.7565 157.853 45.2231 157.56C45.6898 157.253 46.0431 156.847 46.2831 156.34C46.5231 155.82 46.6431 155.233 46.6431 154.58C46.6431 153.913 46.5165 153.327 46.2631 152.82C46.0231 152.3 45.6631 151.893 45.1831 151.6C44.7165 151.293 44.1565 151.14 43.5031 151.14C42.8498 151.14 42.2831 151.293 41.8031 151.6C41.3365 151.893 40.9765 152.3 40.7231 152.82C40.4698 153.327 40.3431 153.913 40.3431 154.58C40.3431 155.233 40.4631 155.82 40.7031 156.34C40.9565 156.847 41.3165 157.253 41.7831 157.56C42.2498 157.853 42.8231 158 43.5031 158ZM57.0773 160.38C56.1173 160.38 55.2707 160.227 54.5373 159.92C53.804 159.613 53.184 159.2 52.6773 158.68C52.1707 158.147 51.784 157.547 51.5173 156.88C51.264 156.213 51.1373 155.52 51.1373 154.8V154.38C51.1373 153.633 51.2707 152.927 51.5373 152.26C51.8173 151.58 52.2107 150.98 52.7173 150.46C53.2373 149.927 53.864 149.513 54.5973 149.22C55.3307 148.913 56.1573 148.76 57.0773 148.76C57.9973 148.76 58.824 148.913 59.5573 149.22C60.2907 149.513 60.9107 149.927 61.4173 150.46C61.9373 150.98 62.3307 151.58 62.5973 152.26C62.864 152.927 62.9973 153.633 62.9973 154.38V154.8C62.9973 155.52 62.864 156.213 62.5973 156.88C62.344 157.547 61.964 158.147 61.4573 158.68C60.9507 159.2 60.3307 159.613 59.5973 159.92C58.864 160.227 58.024 160.38 57.0773 160.38ZM57.0773 158C57.7573 158 58.3307 157.853 58.7973 157.56C59.264 157.253 59.6173 156.847 59.8573 156.34C60.0973 155.82 60.2173 155.233 60.2173 154.58C60.2173 153.913 60.0907 153.327 59.8373 152.82C59.5973 152.3 59.2373 151.893 58.7573 151.6C58.2907 151.293 57.7307 151.14 57.0773 151.14C56.424 151.14 55.8573 151.293 55.3773 151.6C54.9107 151.893 54.5507 152.3 54.2973 152.82C54.044 153.327 53.9173 153.913 53.9173 154.58C53.9173 155.233 54.0373 155.82 54.2773 156.34C54.5307 156.847 54.8907 157.253 55.3573 157.56C55.824 157.853 56.3973 158 57.0773 158ZM69.9316 160.36C69.1716 160.36 68.4716 160.22 67.8316 159.94C67.1916 159.66 66.6382 159.267 66.1716 158.76C65.7049 158.253 65.3449 157.667 65.0916 157C64.8382 156.32 64.7116 155.587 64.7116 154.8V154.38C64.7116 153.607 64.8316 152.88 65.0716 152.2C65.3249 151.52 65.6716 150.927 66.1116 150.42C66.5649 149.913 67.1049 149.52 67.7316 149.24C68.3716 148.947 69.0782 148.8 69.8516 148.8C70.7049 148.8 71.4516 148.987 72.0916 149.36C72.7449 149.72 73.2649 150.267 73.6516 151C74.0382 151.733 74.2516 152.653 74.2916 153.76L73.4716 152.8V145.4H76.2516V160H74.0516V155.38H74.5316C74.4916 156.487 74.2649 157.413 73.8516 158.16C73.4382 158.893 72.8916 159.447 72.2116 159.82C71.5449 160.18 70.7849 160.36 69.9316 160.36ZM70.5516 158.02C71.0982 158.02 71.5982 157.9 72.0516 157.66C72.5049 157.407 72.8649 157.047 73.1316 156.58C73.4116 156.1 73.5516 155.54 73.5516 154.9V154.1C73.5516 153.46 73.4116 152.927 73.1316 152.5C72.8516 152.06 72.4849 151.727 72.0316 151.5C71.5782 151.26 71.0849 151.14 70.5516 151.14C69.9516 151.14 69.4182 151.287 68.9516 151.58C68.4982 151.86 68.1382 152.26 67.8716 152.78C67.6182 153.3 67.4916 153.907 67.4916 154.6C67.4916 155.293 67.6249 155.9 67.8916 156.42C68.1582 156.927 68.5182 157.32 68.9716 157.6C69.4382 157.88 69.9649 158.02 70.5516 158.02ZM79.5559 160V145.4H82.3359V160H79.5559ZM78.1959 147.48V145.4H82.3359V147.48H78.1959ZM90.3697 160.38C89.4364 160.38 88.6164 160.22 87.9097 159.9C87.2164 159.58 86.6364 159.153 86.1697 158.62C85.7164 158.073 85.3697 157.467 85.1297 156.8C84.903 156.133 84.7897 155.453 84.7897 154.76V154.38C84.7897 153.66 84.903 152.967 85.1297 152.3C85.3697 151.62 85.7164 151.02 86.1697 150.5C86.6364 149.967 87.2097 149.547 87.8897 149.24C88.5697 148.92 89.3564 148.76 90.2497 148.76C91.423 148.76 92.403 149.02 93.1897 149.54C93.9897 150.047 94.5897 150.72 94.9897 151.56C95.3897 152.387 95.5897 153.28 95.5897 154.24V155.24H85.9697V153.54H93.8497L92.9897 154.38C92.9897 153.687 92.8897 153.093 92.6897 152.6C92.4897 152.107 92.183 151.727 91.7697 151.46C91.3697 151.193 90.863 151.06 90.2497 151.06C89.6364 151.06 89.1164 151.2 88.6897 151.48C88.263 151.76 87.9364 152.167 87.7097 152.7C87.4964 153.22 87.3897 153.847 87.3897 154.58C87.3897 155.26 87.4964 155.867 87.7097 156.4C87.923 156.92 88.2497 157.333 88.6897 157.64C89.1297 157.933 89.6897 158.08 90.3697 158.08C91.0497 158.08 91.603 157.947 92.0297 157.68C92.4564 157.4 92.7297 157.06 92.8497 156.66H95.4097C95.2497 157.407 94.943 158.06 94.4897 158.62C94.0364 159.18 93.4564 159.613 92.7497 159.92C92.0564 160.227 91.263 160.38 90.3697 160.38Z" fill="#171753"/>
<path d="M159.778 47.4935L157.488 48.8081V95.1152C157.488 97.2991 159.014 99.9494 160.923 101.052L239.098 146.193C240.052 146.744 240.921 146.787 241.536 146.426L243.805 145.112C244.42 144.751 244.801 143.988 244.801 142.885V96.5782L159.778 47.4935Z" fill="#ECFFFE"/>
<path d="M240.624 147.147C240.052 147.147 239.458 146.978 238.843 146.617L160.668 101.476C158.611 100.289 157 97.4901 157 95.1154V48.8083C157 48.6386 157.085 48.469 157.254 48.3842L159.544 47.0696C159.693 46.9848 159.884 46.9848 160.032 47.0696L245.056 96.1543C245.204 96.2391 245.31 96.4087 245.31 96.5783V142.885C245.31 144.136 244.865 145.069 244.059 145.536L241.79 146.85C241.769 146.85 241.748 146.872 241.748 146.872C241.409 147.062 241.027 147.147 240.624 147.147ZM157.997 49.0839V95.1154C157.997 97.1296 159.417 99.6104 161.177 100.607L239.352 145.769C240.094 146.193 240.815 146.278 241.303 146.002C241.324 146.002 241.345 145.981 241.345 145.981L243.571 144.709C244.059 144.433 244.335 143.797 244.335 142.928V96.8752L159.778 48.0662L157.997 49.0839Z" fill="#171753"/>
<path d="M157.488 48.8083V95.1154C157.488 97.2993 159.014 99.9496 160.923 101.052L239.098 146.193C240.985 147.296 242.532 146.405 242.532 144.221V97.8929L157.488 48.8083Z" fill="#ECFFFE"/>
<path d="M233.011 130.054C232.926 130.054 232.842 130.033 232.757 129.99L208.501 115.997C208.268 115.869 208.183 115.551 208.31 115.318C208.437 115.085 208.755 115 208.988 115.127L233.245 129.121C233.478 129.248 233.563 129.566 233.435 129.8C233.351 129.948 233.181 130.054 233.011 130.054ZM218.275 125.495C218.19 125.495 218.106 125.474 218.021 125.432L199.087 114.491C198.853 114.364 198.769 114.046 198.896 113.813C199.023 113.579 199.341 113.495 199.574 113.622L218.509 124.563C218.742 124.69 218.827 125.008 218.699 125.241C218.615 125.411 218.445 125.495 218.275 125.495ZM224.085 120.937C224 120.937 223.915 120.916 223.83 120.873L210.791 113.346C210.557 113.219 210.473 112.901 210.6 112.668C210.727 112.434 211.045 112.35 211.278 112.477L224.318 120.004C224.551 120.131 224.636 120.449 224.509 120.682C224.424 120.852 224.276 120.937 224.085 120.937ZM224.085 116.993C224 116.993 223.915 116.972 223.83 116.929L205.554 106.37C205.32 106.243 205.236 105.925 205.363 105.692C205.49 105.459 205.808 105.374 206.041 105.501L224.318 116.06C224.551 116.187 224.636 116.505 224.509 116.739C224.424 116.908 224.254 116.993 224.085 116.993ZM233.011 114.258C232.926 114.258 232.842 114.237 232.757 114.194L208.501 100.2C208.268 100.073 208.183 99.7551 208.31 99.5219C208.437 99.2887 208.755 99.2039 208.988 99.3311L233.245 113.325C233.478 113.452 233.563 113.77 233.435 114.003C233.351 114.173 233.181 114.258 233.011 114.258ZM204.769 113.728C204.684 113.728 204.599 113.707 204.515 113.664L200.147 111.141C199.914 111.014 199.829 110.696 199.956 110.463C200.083 110.229 200.401 110.145 200.634 110.272L205.023 112.816C205.257 112.943 205.342 113.261 205.214 113.495C205.108 113.643 204.939 113.728 204.769 113.728ZM194.867 111.968C194.782 111.968 194.698 111.947 194.613 111.904L182.803 105.098C182.57 104.971 182.485 104.653 182.612 104.42C182.739 104.187 183.057 104.102 183.291 104.229L195.101 111.035C195.334 111.162 195.419 111.48 195.291 111.714C195.207 111.883 195.037 111.968 194.867 111.968ZM206.105 110.569C206.02 110.569 205.935 110.547 205.85 110.505L189.567 101.112C189.333 100.985 189.249 100.667 189.376 100.434C189.503 100.2 189.821 100.116 190.054 100.243L206.338 109.636C206.571 109.763 206.656 110.081 206.529 110.314C206.444 110.463 206.274 110.569 206.105 110.569ZM218.275 109.699C218.19 109.699 218.106 109.678 218.021 109.636L199.087 98.695C198.853 98.5678 198.769 98.2497 198.896 98.0165C199.023 97.7833 199.341 97.6985 199.574 97.8257L218.509 108.766C218.742 108.894 218.827 109.212 218.699 109.445C218.615 109.614 218.466 109.699 218.275 109.699ZM196.097 108.745C196.012 108.745 195.927 108.724 195.843 108.682L186.789 103.466C186.556 103.338 186.471 103.02 186.598 102.787C186.725 102.554 187.043 102.469 187.277 102.596L196.33 107.812C196.564 107.939 196.648 108.258 196.521 108.491C196.436 108.639 196.267 108.745 196.097 108.745ZM224.085 105.162C224 105.162 223.915 105.141 223.83 105.098L210.812 97.55C210.579 97.4228 210.494 97.1048 210.621 96.8716C210.748 96.6383 211.066 96.5535 211.3 96.6807L224.339 104.208C224.573 104.335 224.657 104.653 224.53 104.886C224.424 105.056 224.254 105.162 224.085 105.162ZM201.059 103.699C200.974 103.699 200.889 103.678 200.804 103.635L193.765 99.5643C193.532 99.4371 193.447 99.1191 193.574 98.8858C193.701 98.6526 194.019 98.5678 194.252 98.695L201.292 102.766C201.525 102.893 201.61 103.211 201.483 103.444C201.398 103.614 201.228 103.699 201.059 103.699ZM178.774 102.681C178.689 102.681 178.605 102.66 178.52 102.618L172.371 99.0767C172.138 98.9494 172.053 98.6314 172.18 98.3982C172.307 98.1649 172.625 98.0801 172.859 98.2073L179.008 101.748C179.241 101.875 179.326 102.193 179.198 102.427C179.114 102.596 178.944 102.681 178.774 102.681ZM224.085 101.197C224 101.197 223.915 101.176 223.83 101.133L205.554 90.5743C205.32 90.4471 205.236 90.129 205.363 89.8958C205.49 89.6626 205.808 89.5778 206.041 89.705L224.318 100.264C224.551 100.391 224.636 100.709 224.509 100.943C224.424 101.112 224.276 101.197 224.085 101.197ZM182.676 100.985C182.591 100.985 182.506 100.964 182.421 100.921L166.667 91.8253C166.434 91.6981 166.349 91.38 166.477 91.1468C166.604 90.9135 166.922 90.8287 167.155 90.9559L182.909 100.052C183.142 100.179 183.227 100.497 183.1 100.73C183.015 100.9 182.845 100.985 182.676 100.985ZM186.111 99.013C186.026 99.013 185.941 98.9918 185.856 98.9494L181.191 96.2567C180.958 96.1295 180.873 95.8114 181.001 95.5782C181.128 95.3449 181.446 95.2601 181.679 95.3873L186.344 98.0801C186.577 98.2073 186.662 98.5254 186.535 98.7586C186.45 98.9282 186.28 99.013 186.111 99.013ZM233.011 98.4618C232.926 98.4618 232.842 98.4406 232.757 98.3982L208.501 84.4043C208.268 84.277 208.183 83.959 208.31 83.7258C208.437 83.4925 208.755 83.4077 208.988 83.5349L233.245 97.5288C233.478 97.6561 233.563 97.9741 233.435 98.2073C233.351 98.377 233.181 98.4618 233.011 98.4618ZM204.769 97.9529C204.684 97.9529 204.599 97.9317 204.515 97.8893L200.147 95.3449C199.914 95.2177 199.829 94.8997 199.956 94.6665C200.083 94.4332 200.401 94.3484 200.634 94.4756L205.002 96.9988C205.235 97.126 205.32 97.444 205.193 97.6773C205.108 97.8469 204.939 97.9529 204.769 97.9529ZM189.333 96.9352C189.249 96.9352 189.164 96.914 189.079 96.8716L178.414 90.7227C178.181 90.5955 178.096 90.2775 178.223 90.0442C178.35 89.811 178.668 89.7262 178.902 89.8534L189.567 96.0022C189.8 96.1295 189.885 96.4475 189.757 96.6807C189.673 96.8503 189.524 96.9352 189.333 96.9352ZM194.867 96.1719C194.782 96.1719 194.698 96.1507 194.613 96.1083L182.803 89.3021C182.57 89.1749 182.485 88.8569 182.612 88.6236C182.739 88.3904 183.057 88.3056 183.291 88.4328L195.101 95.2389C195.334 95.3662 195.419 95.6842 195.291 95.9174C195.207 96.087 195.037 96.1719 194.867 96.1719ZM206.105 94.7725C206.02 94.7725 205.935 94.7513 205.85 94.7089L189.567 85.316C189.333 85.1888 189.249 84.8707 189.376 84.6375C189.503 84.4043 189.821 84.3194 190.054 84.4467L206.338 93.8395C206.571 93.9668 206.656 94.2848 206.529 94.518C206.444 94.6665 206.274 94.7725 206.105 94.7725ZM218.275 93.9031C218.19 93.9031 218.106 93.8819 218.021 93.8395L199.087 82.8989C198.853 82.7716 198.769 82.4536 198.896 82.2204C199.023 81.9871 199.341 81.9023 199.574 82.0295L218.509 92.9702C218.742 93.0974 218.827 93.4155 218.699 93.6487C218.615 93.8183 218.445 93.9031 218.275 93.9031ZM196.097 92.949C196.012 92.949 195.927 92.9278 195.843 92.8854L186.789 87.6695C186.556 87.5423 186.471 87.2242 186.598 86.991C186.725 86.7578 187.043 86.673 187.277 86.8002L196.33 92.0161C196.564 92.1433 196.648 92.4614 196.521 92.6946C196.436 92.843 196.267 92.949 196.097 92.949ZM201.059 87.9027C200.974 87.9027 200.889 87.8815 200.804 87.8391L193.765 83.7682C193.532 83.641 193.447 83.3229 193.574 83.0897C193.701 82.8565 194.019 82.7716 194.252 82.8989L201.292 86.9698C201.525 87.097 201.61 87.4151 201.483 87.6483C201.398 87.8179 201.228 87.9027 201.059 87.9027ZM178.774 86.885C178.689 86.885 178.605 86.8638 178.52 86.8214L172.371 83.2805C172.138 83.1533 172.053 82.8352 172.18 82.602C172.307 82.3688 172.625 82.284 172.859 82.4112L179.008 85.9521C179.241 86.0793 179.326 86.3973 179.198 86.6306C179.114 86.8002 178.944 86.885 178.774 86.885ZM182.676 85.1888C182.591 85.1888 182.506 85.1676 182.421 85.1252L166.667 76.0291C166.434 75.9019 166.349 75.5839 166.477 75.3506C166.604 75.1174 166.922 75.0326 167.155 75.1598L182.909 84.2558C183.142 84.3831 183.227 84.7011 183.1 84.9343C183.015 85.104 182.845 85.1888 182.676 85.1888ZM186.111 83.2169C186.026 83.2169 185.941 83.1957 185.856 83.1533L181.191 80.4605C180.958 80.3333 180.873 80.0153 181.001 79.782C181.128 79.5488 181.446 79.464 181.679 79.5912L186.344 82.284C186.577 82.4112 186.662 82.7292 186.535 82.9625C186.45 83.1321 186.28 83.2169 186.111 83.2169ZM204.769 82.1568C204.684 82.1568 204.599 82.1356 204.515 82.0931L200.147 79.5488C199.914 79.4216 199.829 79.1035 199.956 78.8703C200.083 78.6371 200.401 78.5523 200.634 78.6795L205.023 81.2238C205.257 81.351 205.342 81.6691 205.214 81.9023C205.108 82.0719 204.939 82.1568 204.769 82.1568ZM189.355 81.139C189.27 81.139 189.185 81.1178 189.1 81.0754L178.435 74.9266C178.202 74.7994 178.117 74.4813 178.244 74.2481C178.371 74.0148 178.689 73.93 178.923 74.0573L189.588 80.2061C189.821 80.3333 189.906 80.6513 189.779 80.8846C189.673 81.0542 189.524 81.139 189.355 81.139ZM194.867 80.3757C194.782 80.3757 194.698 80.3545 194.613 80.3121L182.803 73.506C182.57 73.3788 182.485 73.0607 182.612 72.8275C182.739 72.5943 183.057 72.5094 183.291 72.6367L195.101 79.4428C195.334 79.57 195.419 79.888 195.291 80.1213C195.207 80.2909 195.037 80.3757 194.867 80.3757ZM196.097 77.1529C196.012 77.1529 195.927 77.1317 195.843 77.0893L186.789 71.8734C186.556 71.7461 186.471 71.4281 186.598 71.1949C186.725 70.9616 187.043 70.8768 187.277 71.004L196.33 76.2199C196.564 76.3472 196.648 76.6652 196.521 76.8984C196.436 77.0681 196.267 77.1529 196.097 77.1529ZM178.774 71.0889C178.689 71.0889 178.605 71.0676 178.52 71.0252L172.371 67.4844C172.138 67.3571 172.053 67.0391 172.18 66.8059C172.307 66.5726 172.625 66.4878 172.859 66.615L179.008 70.1559C179.241 70.2831 179.326 70.6012 179.198 70.8344C179.114 71.004 178.944 71.0889 178.774 71.0889ZM182.676 69.3926C182.591 69.3926 182.506 69.3714 182.421 69.329L166.667 60.233C166.434 60.1058 166.349 59.7877 166.477 59.5545C166.604 59.3213 166.922 59.2364 167.155 59.3637L182.909 68.4597C183.142 68.5869 183.227 68.905 183.1 69.1382C183.015 69.3078 182.845 69.3926 182.676 69.3926Z" fill="#171753"/>
<path d="M240.624 147.147C240.052 147.147 239.458 146.957 238.843 146.617L160.668 101.476C158.611 100.289 157 97.4902 157 95.1155V48.8084C157 48.6388 157.085 48.4691 157.254 48.3843C157.403 48.2995 157.594 48.2995 157.742 48.3843L242.766 97.469C242.914 97.5538 243.02 97.7234 243.02 97.8931V144.2C243.02 145.069 242.808 145.79 242.384 146.299C241.96 146.851 241.345 147.147 240.624 147.147ZM157.997 49.6565V95.1155C157.997 97.1298 159.417 99.6105 161.177 100.607L239.352 145.769C239.818 146.024 240.264 146.172 240.645 146.172C241.048 146.172 241.387 146.024 241.621 145.727C241.896 145.388 242.045 144.879 242.045 144.243V98.1899L157.997 49.6565Z" fill="#171753"/>
<path d="M241.387 83.0934L163.212 37.9525C162.258 37.4012 161.389 37.3588 160.774 37.7193L158.505 39.0339C157.869 39.3943 157.488 40.1576 157.488 41.239V48.8084L242.511 97.8931L244.801 96.5785V89.0091C244.801 86.8464 243.275 84.196 241.387 83.0934Z" fill="#9BE7C4"/>
<path d="M242.532 98.402C242.448 98.402 242.363 98.3808 242.278 98.3383L157.254 49.2325C157.106 49.1477 157 48.9781 157 48.8084V41.239C157 40.0092 157.445 39.0763 158.251 38.6098L160.52 37.2953C160.541 37.2741 160.562 37.2741 160.583 37.2741C161.368 36.8288 162.407 36.9348 163.467 37.5285L241.642 82.6694C243.699 83.8568 245.31 86.6556 245.31 89.0303V96.5997C245.31 96.7693 245.225 96.939 245.056 97.0238L242.766 98.3383C242.702 98.3808 242.617 98.402 242.532 98.402ZM157.997 48.5328L242.532 97.3418L244.313 96.3029V89.0303C244.313 87.016 242.893 84.5353 241.133 83.5387L162.958 38.3766C162.216 37.9526 161.495 37.8677 161.007 38.1434C160.986 38.1646 160.965 38.1646 160.944 38.1858L158.739 39.458C158.251 39.7548 157.997 40.3697 157.997 41.239V48.5328Z" fill="#171753"/>
<path d="M232.397 92.0625L242.511 97.8933L244.801 96.5787V89.0093C244.801 87.8855 244.377 86.6133 243.72 85.5108L232.397 92.0625Z" fill="#171753"/>
<path d="M242.532 98.402C242.447 98.402 242.363 98.3808 242.278 98.3384L232.164 92.5076C232.016 92.4227 231.91 92.2531 231.91 92.0835C231.91 91.9139 231.994 91.7443 232.164 91.6594L243.486 85.129C243.72 85.0017 244.016 85.0654 244.165 85.2986C244.907 86.5284 245.331 87.8641 245.331 89.0515V96.6209C245.331 96.7905 245.246 96.9602 245.077 97.045L242.787 98.3596C242.702 98.3808 242.617 98.402 242.532 98.402ZM233.394 92.0623L242.532 97.3418L244.313 96.3029V89.0303C244.313 88.161 244.038 87.1644 243.529 86.2103L233.394 92.0623Z" fill="#171753"/>
<path d="M242.532 97.8927V90.3232C242.532 88.1393 241.006 85.489 239.098 84.3864L160.923 39.2667C159.036 38.1853 157.488 39.0759 157.488 41.2386V48.808L242.532 97.8927Z" fill="#9BE7C4"/>
<path d="M242.532 98.4018C242.448 98.4018 242.363 98.3806 242.278 98.3382L157.254 49.2324C157.106 49.1476 157 48.9779 157 48.8083V41.2389C157 39.4578 157.933 38.3129 159.396 38.3129C159.968 38.3129 160.562 38.4825 161.177 38.843L239.352 83.9839C241.409 85.1712 243.02 87.97 243.02 90.3447V97.9142C243.02 98.0838 242.935 98.2534 242.766 98.3382C242.702 98.3806 242.617 98.4018 242.532 98.4018ZM157.997 48.5327L242.024 97.0449V90.3447C242.024 88.3305 240.603 85.8497 238.843 84.8532L160.668 39.7123C160.202 39.4578 159.778 39.3094 159.375 39.3094C158.505 39.3094 157.975 40.0303 157.975 41.2601V48.5327H157.997Z" fill="#171753"/>
<path d="M176.876 55.7545C176.218 55.3729 175.688 54.4612 175.688 53.6979C175.688 52.9345 176.218 52.6377 176.876 53.0194C177.533 53.401 178.063 54.3127 178.063 55.076C178.063 55.8393 177.533 56.1362 176.876 55.7545ZM171.214 51.1111C171.214 50.3478 170.684 49.4361 170.027 49.0544C169.37 48.6728 168.84 48.9908 168.84 49.7329C168.84 50.475 169.37 51.4079 170.027 51.7896C170.684 52.1712 171.214 51.8744 171.214 51.1111ZM164.366 47.1674C164.366 46.4041 163.836 45.4923 163.178 45.1107C162.521 44.729 161.991 45.0471 161.991 45.7892C161.991 46.5525 162.521 47.4642 163.178 47.8459C163.815 48.2275 164.366 47.9095 164.366 47.1674Z" fill="#171753"/>
<path d="M177.406 56.4118C177.151 56.4118 176.897 56.327 176.621 56.1786C175.815 55.7121 175.179 54.6096 175.179 53.6978C175.179 52.6165 176.155 52.0228 177.109 52.5741C177.914 53.0406 178.55 54.1431 178.55 55.076C178.55 55.4577 178.444 55.7757 178.254 56.009C178.063 56.2634 177.745 56.4118 177.406 56.4118ZM176.345 53.3374C176.197 53.3374 176.176 53.5918 176.176 53.6978C176.176 54.2703 176.621 55.0336 177.13 55.3305C177.448 55.5213 177.469 55.4153 177.512 55.3941C177.533 55.3729 177.575 55.2881 177.575 55.076C177.575 54.5036 177.13 53.7402 176.621 53.4434C176.473 53.3586 176.388 53.3374 176.345 53.3374ZM170.557 52.4469C170.303 52.4469 170.048 52.3621 169.772 52.2136C168.967 51.7472 168.331 50.6446 168.331 49.7329C168.331 48.6516 169.306 48.0579 170.26 48.6092C171.066 49.0756 171.702 50.1782 171.702 51.1111C171.702 51.4927 171.596 51.8108 171.405 52.044C171.214 52.3197 170.896 52.4469 170.557 52.4469ZM169.476 49.3725C169.327 49.3725 169.306 49.6269 169.306 49.7329C169.306 50.3054 169.751 51.0687 170.26 51.3655C170.409 51.4503 170.493 51.4715 170.536 51.4715C170.599 51.4715 170.621 51.4503 170.621 51.4291C170.642 51.4079 170.684 51.3231 170.684 51.1111C170.684 50.5386 170.239 49.7753 169.73 49.4785C169.624 49.3937 169.539 49.3725 169.476 49.3725ZM163.687 48.5031C163.433 48.5031 163.178 48.4183 162.903 48.2699C162.097 47.8034 161.461 46.7009 161.461 45.768C161.461 44.6866 162.436 44.0929 163.39 44.6442C164.196 45.1107 164.832 46.2132 164.832 47.1462C164.853 47.9519 164.387 48.5031 163.687 48.5031ZM162.627 45.4287C162.479 45.4287 162.457 45.6832 162.457 45.7892C162.457 46.3616 162.903 47.1249 163.412 47.4218C163.56 47.5066 163.645 47.5278 163.687 47.5278C163.836 47.5278 163.857 47.2734 163.857 47.1674C163.857 46.5949 163.412 45.8316 162.903 45.5347C162.776 45.4287 162.67 45.4287 162.627 45.4287Z" fill="#171753"/>
<path d="M201.521 123.694C200.977 123.422 200.569 123.15 200.161 123.014C197.033 121.246 193.769 108.871 192.137 105.472C190.505 102.072 190.369 107.647 190.369 102.888C190.369 102.752 190.369 102.616 190.369 102.344V101.8L177.451 95.5444L167.795 101.936L177.587 131.989L193.225 140.692L196.081 133.077C196.625 133.485 197.305 133.893 197.985 134.301L198.529 134.573L202.064 124.646L201.521 123.694Z" fill="#171753"/>
<path d="M183.298 110.503L197.033 102.48L216.071 113.495L202.472 121.518L183.298 110.503Z" fill="#ECFFFE"/>
<path d="M197.032 101.936L182.89 110.231V110.775L201.928 121.79V149.396L202.472 149.532L216.479 141.236V113.223L197.032 101.936ZM184.385 110.503L197.032 103.024L215.119 113.495L202.472 120.974L184.385 110.503Z" fill="#171753"/>
<path d="M208.727 88.201C206.28 86.1611 203.696 84.3933 200.84 82.7614C193.497 78.5458 187.785 77.4579 183.706 79.7697L170.107 87.793C174.186 85.6172 179.898 86.5691 187.241 90.7847C189.961 92.4166 192.681 94.1844 195.129 96.2243C197.576 98.2641 199.752 100.304 201.52 102.208L215.119 94.1844C213.351 92.2806 211.175 90.2408 208.727 88.201Z" fill="#ECFFFE"/>
<path d="M201.385 103.024L201.113 102.752C199.345 100.848 197.169 98.808 194.721 96.7682C192.273 94.7284 189.69 92.9605 186.97 91.3287C179.762 87.113 174.187 86.1611 170.243 88.3369L169.835 87.385L183.434 79.3617C187.65 77.0499 193.633 78.0018 201.113 82.3534C203.968 83.9853 206.552 85.7531 209 87.793C211.448 89.8328 213.623 91.8726 215.527 93.9124L215.799 94.1844L215.663 94.5924L201.385 103.024ZM174.867 86.1611C178.403 86.1611 182.618 87.521 187.514 90.3767C190.369 92.0086 192.953 93.7764 195.401 95.8163C197.713 97.7201 199.889 99.7599 201.656 101.528L214.439 94.0484C212.672 92.2806 210.768 90.3767 208.456 88.4729C206.008 86.4331 203.424 84.6652 200.705 83.0334C193.361 79.0897 187.786 78.1378 183.978 80.1776L173.779 86.2971C174.187 86.1611 174.459 86.1611 174.867 86.1611Z" fill="#171753"/>
<path d="M183.298 110.503L202.336 121.518V148.988C197.168 148.036 191.457 145.724 185.201 142.188C178.402 138.244 173.098 132.941 169.427 126.278C165.755 119.614 163.851 111.999 163.851 103.568C163.851 95.2723 165.891 90.1047 169.971 87.7929C174.05 85.6171 179.762 86.569 187.105 90.7846C189.825 92.4165 192.545 94.1843 194.993 96.2242C197.44 98.264 199.616 100.304 201.384 102.208L197.576 110.911C194.449 107.239 190.913 104.383 187.105 102.072C183.57 100.032 180.986 99.7599 178.946 101.392C177.042 102.888 176.09 106.151 176.09 110.911C176.09 115.67 176.906 119.886 178.674 123.286C180.442 126.821 182.89 129.405 186.153 131.309C187.921 132.397 189.553 133.077 191.049 133.485V125.734L183.162 121.11V110.503H183.298Z" fill="#9BE7C4"/>
<path d="M183.298 114.311L194.721 107.647L197.713 110.775L201.112 108.599L212.263 115.127L202.472 120.974V125.326L183.298 114.311Z" fill="#49CE8B"/>
<path d="M207.504 91.0566C205.056 89.0167 202.472 87.2489 199.616 85.617C192.273 81.4014 186.562 80.4495 182.482 82.6253L168.883 90.6486C172.963 88.4728 178.674 89.4247 186.018 93.6403C188.737 95.2722 191.457 97.04 193.905 99.0798C196.353 101.12 198.528 103.159 200.296 105.063L213.895 97.04C212.127 95.1362 209.951 93.0964 207.504 91.0566Z" fill="#49CE8B"/>
<path d="M179.49 101.8C181.258 100.44 183.706 100.712 186.97 102.616C190.641 104.791 194.041 107.511 197.169 111.047L197.713 111.591L211.855 103.295L215.799 94.1843L215.255 93.6403L201.656 101.664C199.888 99.7598 197.849 97.8559 195.401 95.8161C192.953 93.7763 190.233 91.8725 187.513 90.3766C180.034 86.025 174.051 85.0731 169.835 87.3849C165.619 89.6967 163.444 95.1362 163.444 103.567C163.444 112.135 165.347 119.75 169.155 126.549C172.963 133.349 178.266 138.788 185.202 142.732C191.457 146.268 197.305 148.58 202.472 149.531H202.608L203.016 149.259V121.246L183.434 109.959L182.89 110.231V121.518L190.777 126.141V133.077C189.553 132.669 188.057 131.989 186.698 131.173C183.57 129.405 181.122 126.685 179.49 123.286C177.858 119.886 176.906 115.806 176.906 111.047C176.77 106.423 177.722 103.295 179.49 101.8ZM175.818 111.047C175.818 115.942 176.77 120.158 178.402 123.694C180.17 127.229 182.754 130.085 186.018 131.989C187.785 133.077 189.553 133.757 191.049 134.301L191.729 134.573V125.598L183.842 120.838V111.319L201.928 121.79V148.444C197.033 147.492 191.457 145.18 185.61 141.78C178.946 137.972 173.643 132.669 169.971 126.005C166.299 119.342 164.395 111.863 164.395 103.567C164.531 95.5441 166.435 90.3766 170.243 88.3368C171.603 87.6568 173.099 87.2489 174.731 87.2489C177.994 87.2489 182.074 88.6087 186.834 91.3285C189.553 92.9604 192.137 94.7282 194.585 96.768C196.897 98.6719 198.936 100.576 200.704 102.48L197.441 110.095C194.313 106.695 190.913 103.839 187.377 101.8C183.706 99.6238 180.85 99.4878 178.674 101.12C176.77 102.752 175.818 106.015 175.818 111.047Z" fill="#171753"/>
<path d="M205.386 28.6934H205.553L205.719 28.8598L207.715 29.5251L199.897 14.7217V14.5554L204.555 11.7278C204.721 11.7278 204.887 11.7278 205.054 11.8941L225.845 44.8275C226.011 44.9938 226.011 45.1601 226.011 45.1601V45.3265L221.021 48.3204V48.4867L228.174 65.1198C228.34 65.2861 228.174 65.4524 228.174 65.6188L223.516 68.4464H223.35L207.549 38.3406L201.062 31.8537V31.6874L205.386 28.6934Z" fill="#5ED9D1"/>
<path d="M223.184 68.9453C223.35 68.9453 223.35 68.9453 223.516 68.779L228.174 65.9514C228.506 65.785 228.673 65.4524 228.506 64.7871L221.52 48.3204L226.344 45.4927L226.51 45.3264C226.677 44.9938 226.51 44.6611 226.344 44.4948L205.553 11.5614C205.22 11.0624 204.721 10.896 204.388 11.0624L199.731 13.89C199.399 14.0563 199.398 14.389 199.565 14.7216L206.883 28.3607L206.052 28.0281C205.885 28.0281 205.719 27.8617 205.553 27.8617H205.386L200.563 31.022C200.396 31.1883 200.23 31.3547 200.23 31.521C200.23 31.6873 200.23 31.8537 200.396 32.02L206.883 38.5069L222.685 68.779L223.017 68.9453H223.184ZM227.342 65.1197L223.35 67.6147L207.715 37.6752L201.561 31.521L205.386 29.1924H205.553L208.879 30.3567L200.563 14.7216L204.555 12.2267L225.18 44.9938L220.19 47.9877L220.356 48.653L227.342 65.1197Z" fill="#171753"/>
<path d="M200.23 14.7217L220.855 47.6551C221.021 47.9877 221.021 48.3204 220.688 48.1541L213.204 43.8295C212.871 43.6632 212.871 43.9958 212.871 44.1621L223.017 67.781C223.183 68.28 222.851 68.4464 222.518 67.9474L200.562 32.02C200.396 31.6874 200.562 31.3547 200.729 31.521L208.214 35.8456C208.546 36.012 208.546 35.6793 208.546 35.3466L199.731 14.7217C199.564 14.5553 199.897 14.389 200.23 14.7217Z" fill="white"/>
<path d="M223.017 68.9452C223.183 68.9452 223.183 68.9452 223.349 68.9452C223.682 68.7789 223.848 68.4462 223.682 67.7809L213.869 44.8273L220.522 48.6529C220.854 48.8192 221.187 48.8192 221.52 48.4866C221.852 48.1539 221.852 47.6549 221.52 47.3223L200.562 14.3889C200.23 13.8899 199.731 13.7236 199.398 13.8899C199.065 14.0562 198.899 14.5552 199.065 15.0542L207.714 34.8475L201.061 31.0219C200.729 30.8556 200.396 30.8556 200.23 31.1882C199.897 31.5209 199.897 32.0199 200.23 32.3525L222.185 68.4462C222.518 68.7789 222.85 68.9452 223.017 68.9452ZM213.203 43.3303C213.037 43.3303 212.871 43.3303 212.704 43.4967C212.372 43.663 212.372 44.162 212.538 44.4947L221.187 64.6206L201.56 32.6852L208.047 36.5108C208.38 36.6771 208.712 36.6771 208.879 36.5108C209.211 36.3445 209.211 35.8455 209.045 35.5128L201.56 18.3808L219.857 47.3223L213.536 43.663C213.37 43.3303 213.37 43.3303 213.203 43.3303Z" fill="#171753"/>
<path d="M221.142 37.9363L221.654 38.7924L216.946 41.6131L216.433 40.7571L221.142 37.9363Z" fill="#171753"/>
<path d="M206.844 15.3449L207.357 16.201L202.648 19.0223L202.135 18.1662L206.844 15.3449Z" fill="#171753"/>
<path d="M224.055 56.1981L224.653 57.1968L219.945 60.0176L219.347 59.0188L224.055 56.1981Z" fill="#171753"/>
<path d="M237.426 128.868L247.752 148.069L251.374 149.518C254.273 153.322 257.714 156.402 261.518 158.394C262.786 159.119 264.054 159.481 265.322 159.844L266.953 163.466L273.836 158.938C276.734 156.945 278.365 153.141 278.183 147.888C277.64 137.201 269.489 124.702 259.888 119.992C258.801 119.449 257.714 119.087 256.627 118.724L249.744 123.253L253.91 132.853L244.491 124.34L237.426 128.868Z" fill="#5ED9D1"/>
<path d="M266.952 164.191L266.408 164.01L266.227 163.829L264.778 160.387C263.51 160.025 262.423 159.482 261.155 158.938C257.532 157.127 254.091 154.047 251.011 150.062L247.389 148.613L247.207 148.432L236.701 128.687L237.063 128.325L244.309 123.615L244.671 123.797L252.098 130.499L248.838 122.891L256.264 118H256.446C257.532 118.362 258.8 118.725 259.706 119.268C269.307 124.159 277.639 136.839 278.364 147.707C278.726 152.96 277.096 156.946 274.198 159.119L273.835 159.3L266.952 164.191ZM248.294 147.526L251.917 148.975C254.997 152.779 258.438 155.859 261.88 157.67C263.148 158.214 264.235 158.757 265.503 159.119H265.865L266.046 159.482L267.314 162.38L273.654 158.214C276.552 156.402 278.002 152.598 277.639 147.707C277.096 137.382 268.944 125.065 259.706 120.355C258.8 119.811 257.895 119.449 256.808 119.268L250.649 123.434L254.815 133.035L254.091 133.578L253.729 133.216L244.671 125.065L238.694 129.05L248.294 147.526Z" fill="#171753"/>
<path d="M253.909 143.722L237.425 128.868C236.7 131.223 236.338 133.94 236.882 137.382C238.331 147.345 246.12 158.395 254.634 162.742C264.234 167.814 271.661 163.104 271.117 152.417C270.574 141.729 262.423 129.231 252.822 124.521C251.735 123.978 250.648 123.615 249.743 123.253L253.909 143.722Z" fill="white"/>
<path d="M261.879 165.459C259.525 165.459 256.989 164.735 254.271 163.286C245.577 158.757 237.788 147.526 236.338 137.382C235.795 134.122 235.976 131.223 236.882 128.687L237.063 128.325L237.606 128.144L237.788 128.325L253.003 142.092L249.018 123.072L249.562 122.529L249.924 122.71C251.011 123.072 252.098 123.434 253.185 123.978C262.785 128.869 271.118 141.548 271.842 152.417C272.205 157.851 270.574 162.018 267.314 164.01C265.502 165.097 263.872 165.459 261.879 165.459ZM237.788 129.955C237.244 132.129 237.244 134.484 237.606 137.382C239.055 147.164 246.663 158.032 254.996 162.38C259.525 164.735 263.51 165.097 266.589 163.104C269.487 161.293 270.937 157.489 270.574 152.598C270.031 142.273 261.879 129.955 252.641 125.246C251.917 124.883 251.192 124.521 250.467 124.34L254.634 144.266L253.909 144.628L253.547 144.266L237.788 129.955Z" fill="#171753"/>
<path d="M249.743 123.434L253.909 143.903L261.155 131.223C258.619 128.506 255.721 126.332 252.823 124.702C251.736 123.978 250.649 123.615 249.743 123.434C249.743 123.253 249.562 123.434 249.743 123.434Z" fill="white"/>
<path d="M254.271 144.447L253.366 144.266V143.904L249.018 123.253L249.562 122.71H249.924C251.011 123.072 252.098 123.434 253.185 123.978C256.083 125.427 258.981 127.782 261.698 130.499L262.061 130.861L254.271 144.447ZM250.467 124.159L254.271 142.092L260.611 131.042C258.075 128.506 255.358 126.333 252.822 125.065C251.917 124.702 251.192 124.521 250.467 124.159Z" fill="#171753"/>
<path d="M253.91 143.722L265.322 136.296C264.054 134.484 262.605 132.673 261.155 131.042L253.91 143.722Z" fill="#5ED9D1"/>
<path d="M253.909 144.447L253.184 143.722L253.366 143.36L260.974 129.956L261.517 130.499C263.147 132.129 264.415 133.941 265.683 135.933L266.045 136.477L253.909 144.447ZM261.336 132.129L255.72 142.092L264.596 136.295C263.51 134.665 262.423 133.397 261.336 132.129Z" fill="#171753"/>
<path d="M265.322 136.295L253.91 143.722L267.677 140.462C266.952 139.013 266.227 137.563 265.322 136.295Z" fill="#5ED9D1"/>
<path d="M253.547 144.447L253.184 143.541L253.547 143.179L265.321 135.39L265.683 135.933C266.589 137.201 267.313 138.65 268.038 140.099L268.4 140.824L253.547 144.447ZM265.14 137.201L257.17 142.454L266.951 140.099C266.227 139.013 265.683 138.107 265.14 137.201Z" fill="#171753"/>
<path d="M267.545 126.081L260.725 130.545L261.42 131.606L268.24 127.142L267.545 126.081Z" fill="#171753"/>
<path d="M277.374 150.192L270.549 154.648L271.242 155.71L278.067 151.253L277.374 150.192Z" fill="#171753"/>
<path d="M277.574 146.878L270.748 151.335L271.442 152.396L278.267 147.939L277.574 146.878Z" fill="#171753"/>
<path d="M248.074 127.432L241.249 131.889L241.942 132.951L248.767 128.493L248.074 127.432Z" fill="#171753"/>
<path d="M268.913 122.694L267.959 123.53L270.942 126.937L271.896 126.102L268.913 122.694Z" fill="#171753"/>
<path d="M235.241 139.661L234 139.921L234.741 143.467L235.982 143.208L235.241 139.661Z" fill="#171753"/>
<path d="M133.686 111.623L140.172 146.053C140.172 146.386 140.172 146.885 140.006 147.217C139.507 148.382 138.01 148.714 137.012 147.883C136.68 147.716 136.513 147.384 136.347 146.885L127.032 113.12C126.7 112.122 127.365 110.957 128.363 110.791L131.191 110.126C132.521 109.959 133.519 110.625 133.686 111.623Z" fill="white"/>
<path d="M138.342 148.881C137.843 148.881 137.178 148.714 136.845 148.382C136.513 148.049 136.18 147.716 136.014 147.217L126.699 113.452C126.533 112.787 126.533 112.122 127.032 111.623C127.365 111.124 127.864 110.625 128.529 110.458L131.356 109.793C132.022 109.627 132.687 109.793 133.186 110.126C133.685 110.458 134.184 111.124 134.184 111.789L140.671 146.219C140.837 146.718 140.671 147.217 140.505 147.716C140.172 148.382 139.507 148.881 138.841 149.047C138.675 148.881 138.509 148.881 138.342 148.881ZM131.855 110.625C131.689 110.625 131.689 110.625 131.523 110.625L128.695 111.29C128.363 111.29 128.03 111.623 127.864 111.955C127.697 112.288 127.697 112.621 127.697 112.953L137.012 146.718C137.012 147.051 137.178 147.217 137.511 147.384C137.843 147.716 138.342 147.716 138.675 147.716C139.008 147.55 139.507 147.384 139.673 146.885C139.839 146.552 139.839 146.386 139.839 146.053L133.352 111.623C133.352 111.29 133.02 110.957 132.687 110.791C132.354 110.625 132.188 110.625 131.855 110.625Z" fill="#171753"/>
<path d="M133.186 113.12C132.022 114.118 130.026 114.617 128.529 114.284C127.032 113.785 126.699 112.621 127.863 111.623C129.028 110.625 131.024 110.126 132.521 110.458C134.018 110.957 134.184 112.122 133.186 113.12Z" fill="#171753"/>
<path d="M129.693 114.95C129.194 114.95 128.695 114.95 128.362 114.783C127.531 114.451 126.865 113.952 126.699 113.286C126.533 112.621 126.865 111.789 127.531 111.124C128.861 109.96 131.024 109.461 132.687 109.96C133.519 110.292 134.184 110.791 134.35 111.457C134.517 112.122 134.184 112.954 133.519 113.619C132.521 114.451 131.024 114.95 129.693 114.95ZM131.356 110.791C130.192 110.791 129.028 111.29 128.196 111.956C127.863 112.288 127.697 112.787 127.697 112.954C127.697 113.286 128.03 113.453 128.695 113.619C130.026 113.952 131.855 113.619 132.853 112.621C133.186 112.288 133.352 111.789 133.352 111.623C133.352 111.29 133.02 111.124 132.354 110.958C132.022 110.958 131.689 110.791 131.356 110.791Z" fill="#171753"/>
<path d="M129.028 95.4891L126.865 96.3207L124.537 96.4871C124.537 96.4871 124.537 102.641 126.699 110.791C126.865 111.29 127.198 111.623 128.03 111.956C129.527 112.455 131.523 111.956 132.687 110.791C133.186 110.292 133.519 109.627 133.352 109.294C131.689 101.144 129.028 95.4891 129.028 95.4891Z" fill="white"/>
<path d="M129.194 112.787C128.695 112.787 128.196 112.787 127.864 112.621C127.032 112.288 126.367 111.789 126.2 111.124C124.038 102.974 123.872 96.8197 123.872 96.8197V96.3207L126.699 95.988L129.361 94.99L129.527 95.489C129.527 95.489 132.188 101.144 133.852 109.461C134.018 110.126 133.685 110.958 133.02 111.457C132.022 112.288 130.525 112.787 129.194 112.787ZM125.036 97.1523C125.036 98.8156 125.369 104.138 127.198 110.791C127.198 111.124 127.531 111.457 128.196 111.623C129.527 111.956 131.357 111.623 132.355 110.625C132.687 110.292 132.854 109.793 132.854 109.627C131.523 102.808 129.527 97.8176 128.862 96.3207L127.032 96.986L125.036 97.1523Z" fill="#171753"/>
<path d="M128.53 96.653C127.698 97.3183 126.367 97.6509 125.203 97.4846C124.205 97.152 124.039 96.3203 124.704 95.655C125.536 94.9896 126.866 94.657 128.031 94.8233C129.195 95.156 129.361 95.9876 128.53 96.653Z" fill="#171753"/>
<path d="M126.201 98.1502C125.868 98.1502 125.535 98.1502 125.203 97.9839C124.537 97.8176 124.038 97.3186 123.872 96.8196C123.706 96.3206 124.038 95.6553 124.537 95.1563C125.535 94.3247 127.198 93.992 128.363 94.3247C129.028 94.491 129.527 94.99 129.693 95.489C129.86 95.9879 129.527 96.6533 129.028 97.1523C128.196 97.6513 127.199 98.1502 126.201 98.1502ZM127.365 95.1563C126.7 95.1563 125.868 95.489 125.369 95.8216C125.203 95.988 125.036 96.3206 125.036 96.3206C125.036 96.4869 125.203 96.6533 125.535 96.6533C126.367 96.9859 127.697 96.6533 128.196 95.988C128.363 95.8216 128.529 95.489 128.529 95.489C128.529 95.3226 128.363 95.1563 128.03 95.1563C127.697 95.1563 127.531 95.1563 127.365 95.1563Z" fill="#171753"/>
<path d="M130.359 109.627C129.693 105.635 128.196 101.144 128.196 101.144L129.194 100.812C129.194 100.812 130.691 105.303 131.357 109.461L130.359 109.627Z" fill="#171753"/>
<path d="M132.691 115.669L131.544 115.868L131.856 117.67L133.003 117.472L132.691 115.669Z" fill="#171753"/>
<path d="M127.364 94.8241C126.865 95.4895 125.867 95.4895 125.368 94.9905C124.038 93.6598 121.709 90.9985 122.208 88.1709C122.873 84.3453 123.372 78.0248 122.541 79.1891C121.709 80.3534 120.378 79.1891 120.378 79.1891C120.378 79.1891 121.875 75.3635 124.703 76.6941C127.531 78.0248 130.525 86.0086 129.36 90.6659C128.861 92.4955 127.863 94.1588 127.364 94.8241Z" fill="#5ED9D1"/>
<path d="M126.367 95.8217C125.868 95.8217 125.369 95.6554 125.036 95.3228C123.539 93.8258 121.211 90.9982 121.71 88.1705C122.209 84.8439 122.541 81.5173 122.541 80.0204C122.209 80.1867 122.042 80.1867 121.876 80.1867C121.044 80.1867 120.213 79.5214 120.213 79.5214L119.714 79.355L119.88 79.0224C119.88 78.856 120.712 76.8601 122.375 76.0284C123.206 75.6958 124.038 75.6958 124.87 76.0284C128.196 77.5254 131.024 86.0082 129.86 90.6655C129.361 92.6615 128.363 94.4911 127.864 94.9901C127.365 95.6554 126.866 95.8217 126.367 95.8217ZM122.708 78.5234C122.874 78.5234 122.874 78.5234 123.04 78.5234C124.371 79.0224 123.04 86.6736 122.874 88.1705C122.541 90.6655 124.537 93.1605 125.868 94.4911C126.034 94.6574 126.2 94.6574 126.533 94.6574C126.699 94.6574 127.032 94.4911 127.198 94.3248C127.697 93.8258 128.529 91.9961 129.028 90.3328C130.192 85.8419 127.365 78.1907 124.703 76.8601C124.038 76.5274 123.539 76.5274 123.04 76.8601C122.209 77.1928 121.543 78.1907 121.211 78.8561C121.377 79.0224 121.543 79.0224 121.71 79.0224C121.876 79.0224 121.876 79.0224 122.042 78.6897C122.209 78.6897 122.541 78.5234 122.708 78.5234Z" fill="#171753"/>
<path d="M137.344 145.388C136.679 145.388 136.014 145.055 135.515 144.889L136.18 144.057C136.346 144.224 138.01 145.222 139.174 143.392L140.006 144.057C139.34 145.055 138.342 145.388 137.344 145.388Z" fill="#171753"/>
<path d="M140.671 91.8299C134.683 91.8299 131.855 85.1767 131.855 85.0103L132.853 84.6777C133.02 85.0103 136.18 92.6615 143.332 90.3329L143.665 91.3309C142.667 91.6635 141.669 91.8299 140.671 91.8299Z" fill="#171753"/>
<path d="M153.478 94.3247L152.647 93.493C154.144 91.9961 154.31 89.8338 153.146 88.0041C151.649 85.8418 148.488 84.5112 144.663 86.3408C142.334 87.3388 140.172 87.5051 138.342 86.8398C135.016 85.5092 133.352 81.8499 133.352 81.6836L134.35 81.1846C134.35 81.1846 135.847 84.5112 138.675 85.6755C140.338 86.3408 142.168 86.1745 144.164 85.3428C148.655 83.3469 152.314 85.0102 153.977 87.5051C155.641 89.6674 155.474 92.495 153.478 94.3247Z" fill="#171753"/>
<path d="M119.38 82.6813C118.216 82.6813 117.384 82.1823 116.719 81.517C115.721 80.3527 116.053 78.5231 116.053 78.5231L117.051 78.6894C117.051 78.6894 116.885 80.0201 117.384 80.8517C117.717 81.3507 118.382 81.517 119.213 81.6834L119.38 82.6813Z" fill="#171753"/>
<path d="M141.169 82.3491C137.177 82.3491 134.516 79.0225 134.516 79.0225L135.347 78.3572C135.514 78.5235 139.506 83.5134 145.161 80.0205C146.658 79.0225 147.49 78.0245 147.323 77.1929C147.157 76.6939 146.492 76.1949 145.66 76.0286C144.828 76.0286 143.83 76.1949 143.331 77.3592L142.333 76.8602C142.999 75.3632 144.662 74.8642 145.826 75.0306C147.157 75.1969 148.155 75.8622 148.488 77.0265C148.654 77.6919 148.487 79.1888 145.826 81.0185C144.163 81.8501 142.666 82.3491 141.169 82.3491Z" fill="#171753"/>
<g opacity="0.9">
<path d="M57.1182 37.6446L57.1182 38.9332L54.116 38.9332L54.116 37.6446L57.1182 37.6446ZM51.0066 37.6446L51.0066 38.9332L48.0044 38.9332L48.0044 37.6446L51.0066 37.6446ZM45.0022 37.6446L45.0022 38.9332L42 38.9332L42 37.6446L45.0022 37.6446Z" fill="#171753"/>
<path d="M50.1488 30.6646L50.1488 33.6713L48.8621 33.6713L48.8621 30.6646L50.1488 30.6646ZM50.1488 36.7855L50.1488 39.7923L48.8621 39.7923L48.8621 36.7855L50.1488 36.7855ZM50.1488 42.9064L50.1488 45.9132L48.8621 45.9132L48.8621 42.9064L50.1488 42.9064Z" fill="#171753"/>
<path d="M59.5838 21L59.5838 24.0068L58.2972 24.0068L58.2972 21L59.5838 21ZM59.5838 27.1209L59.5838 30.1277L58.2972 30.1277L58.2972 27.1209L59.5838 27.1209Z" fill="#171753"/>
</g>
<g opacity="0.9">
<path d="M83.4674 80.2522L83.4674 78.9662L86.4713 78.9662L86.4713 80.2522L83.4674 80.2522ZM89.5824 80.2522L89.5824 78.9662L92.5863 78.9662L92.5863 80.2522L89.5824 80.2522ZM95.5901 80.2522L95.5901 78.9662L98.594 78.9662L98.594 80.2522L95.5901 80.2522Z" fill="#171753"/>
<path d="M90.4407 87.2179L90.4407 84.2172L91.728 84.2172L91.728 87.2179L90.4407 87.2179ZM90.4407 81.1093L90.4407 78.1086L91.728 78.1086L91.728 81.1093L90.4407 81.1093ZM90.4407 75.0008L90.4407 72.0001L91.728 72.0001L91.728 75.0008L90.4407 75.0008Z" fill="#171753"/>
<path d="M81 96.8628L81 93.8621L82.2874 93.8621L82.2874 96.8628L81 96.8628ZM81 90.7542L81 87.7535L82.2874 87.7535L82.2874 90.7542L81 90.7542Z" fill="#171753"/>
</g>
<g opacity="0.9">
<path d="M270.467 51.2522L270.467 49.9662L273.471 49.9662L273.471 51.2522L270.467 51.2522ZM276.582 51.2522L276.582 49.9662L279.586 49.9662L279.586 51.2522L276.582 51.2522ZM282.59 51.2522L282.59 49.9662L285.594 49.9662L285.594 51.2522L282.59 51.2522Z" fill="#171753"/>
<path d="M277.441 58.2179L277.441 55.2172L278.728 55.2172L278.728 58.2179L277.441 58.2179ZM277.441 52.1093L277.441 49.1086L278.728 49.1086L278.728 52.1093L277.441 52.1093ZM277.441 46.0008L277.441 43.0001L278.728 43.0001L278.728 46.0008L277.441 46.0008Z" fill="#171753"/>
<path d="M268 67.8628L268 64.8621L269.287 64.8621L269.287 67.8628L268 67.8628ZM268 61.7542L268 58.7535L269.287 58.7535L269.287 61.7542L268 61.7542Z" fill="#171753"/>
</g>
<g opacity="0.9">
<path d="M193.645 149.466L194.933 149.466L194.933 152.468L193.645 152.468L193.645 149.466ZM193.645 155.577L194.933 155.577L194.933 158.579L193.645 158.579L193.645 155.577ZM193.645 161.582L194.933 161.582L194.933 164.584L193.645 164.584L193.645 161.582Z" fill="#171753"/>
<path d="M186.665 156.435L189.671 156.435L189.671 157.722L186.665 157.722L186.665 156.435ZM192.786 156.435L195.792 156.435L195.792 157.722L192.786 157.722L192.786 156.435ZM198.906 156.435L201.913 156.435L201.913 157.722L198.906 157.722L198.906 156.435Z" fill="#171753"/>
<path d="M177 147L180.007 147L180.007 148.287L177 148.287L177 147ZM183.121 147L186.128 147L186.128 148.287L183.121 148.287L183.121 147Z" fill="#171753"/>
</g>
<path d="M53.7523 106.44L47.0019 100.19L49.502 97.1898C50.1271 96.3148 48.877 94.5647 47.3769 94.1897L39.7515 92.0646C39.1264 91.9396 38.5014 91.4395 38.0014 90.9395L34.5012 86.9393C35.1262 86.1892 35.7513 85.5642 35.7513 85.4392C36.0013 85.1892 35.0012 82.064 35.0012 81.814C34.8762 81.564 33.2511 79.3138 33.0011 78.9388H32.8761L29.3759 83.4391C29.2509 83.5641 29.1259 83.6891 29.1259 83.8141L28.5008 88.4393C27.1258 87.8143 23.7506 86.1892 23.3756 85.9392C23.3756 85.9392 23.3756 85.9392 23.2506 85.9392L19.6254 90.4395C19.2503 90.9395 19.5004 92.0645 20.6254 92.8146L27.7508 98.4399C28.3758 98.9399 28.7509 99.44 28.8759 100.065L30.3759 106.69C30.626 108.065 32.6261 109.316 33.6261 108.815L38.8764 106.565C39.2514 106.44 39.8765 106.44 40.5015 106.815L48.2519 111.066C49.127 111.566 49.877 111.441 50.1271 111.066L53.7523 106.44Z" fill="#9BE7C4"/>
<path d="M49.3768 111.69C49.0018 111.69 48.5017 111.565 48.0017 111.315L40.2513 107.065C39.7512 106.815 39.2512 106.69 39.0012 106.815L33.7509 109.065C33.2509 109.315 32.5008 109.19 31.7508 108.815C30.7507 108.315 30.0007 107.44 29.8757 106.565L28.3756 99.9398C28.2506 99.5648 27.8756 98.9398 27.3755 98.5648L20.2501 92.9394C19.5001 92.3144 19.0001 91.6894 19.0001 90.9393C19.0001 90.5643 19.0001 90.1893 19.2501 89.9393L23.0003 85.189L23.3753 85.314C23.7503 85.439 26.5005 86.8141 28.0006 87.5641L28.6256 83.5639C28.6256 83.4389 28.7506 83.3139 28.7506 83.0639L28.8756 82.8139L32.5008 78.1886H32.7508C32.8759 78.1886 33.0009 78.3136 33.1259 78.4386C35.126 81.0638 35.251 81.3138 35.251 81.4388V81.5638C36.251 85.064 36.126 85.314 36.001 85.439C35.876 85.564 35.501 86.0641 35.001 86.6891L38.2511 90.4393C38.6262 90.9393 39.2512 91.3144 39.7512 91.4394L47.3767 93.5645C48.5017 93.8145 49.6268 94.8146 49.8768 95.8146C50.0018 96.3146 50.0018 96.8147 49.6268 97.1897L47.3767 99.9398L53.877 105.94C54.002 106.065 54.127 106.44 53.877 106.565L50.2518 111.065C50.2518 111.565 49.8768 111.69 49.3768 111.69ZM39.2512 106.065C39.6262 106.065 40.1263 106.19 40.6263 106.44L48.3767 110.69C49.1268 111.065 49.6268 111.065 49.8768 110.815L53.252 106.565L46.3766 100.315L49.1267 97.0647C49.2518 96.9397 49.2518 96.6897 49.1267 96.4396C48.8767 95.8146 48.1267 94.9395 47.1266 94.6895L39.5012 92.5644C38.7512 92.4394 38.1261 91.9394 37.6261 91.3143L34.0009 87.0641L34.2509 86.8141C34.751 86.1891 35.251 85.689 35.501 85.439C35.501 85.314 35.376 84.564 34.7509 82.1888V82.0638C34.6259 81.9388 34.0009 80.9388 33.0009 79.6887L29.8757 83.5639L29.7507 83.8139C29.6257 83.9389 29.6257 83.9389 29.6257 84.0639L28.8756 89.1892L28.3756 88.9392C27.1255 88.3142 24.3754 87.0641 23.5003 86.5641L20.1251 90.8143C20.0001 90.9393 20.0001 91.0643 20.0001 91.1894C20.0001 91.5644 20.2501 92.0644 21.0002 92.5644L28.1256 98.1897C28.7506 98.6898 29.2507 99.3148 29.3757 99.9398L30.8757 106.565C31.0007 107.19 31.6258 107.815 32.3758 108.19C32.8758 108.44 33.3759 108.565 33.6259 108.44L38.8762 106.19C38.8762 106.065 39.0012 106.065 39.2512 106.065Z" fill="#171753"/>
<path d="M35.8759 79.6887L41.6262 86.3141C42.1262 86.8141 42.7513 87.3142 43.3763 87.4392L51.0017 89.5643C52.5018 89.9393 53.7519 91.8144 53.1269 92.5645L49.7516 96.5647C49.5016 96.9397 49.5016 97.4397 49.8767 97.9398L53.7519 104.94C54.5019 106.315 53.3769 107.19 51.8768 106.315L44.1263 102.065C43.5013 101.69 42.8763 101.69 42.5013 101.815L37.2509 104.065C36.2509 104.565 34.2508 103.19 34.0008 101.94L32.5007 95.3146C32.3757 94.8146 32.0007 94.1896 31.3756 93.6895L24.2502 88.0642C22.7501 86.9392 22.7501 85.314 24.1252 85.314L31.0006 85.4391C31.5006 85.4391 31.8756 85.189 32.0007 84.689L32.7507 78.9387C32.8757 78.0637 34.7508 78.3137 35.8759 79.6887Z" fill="white"/>
<path d="M53.0012 107.19C52.6262 107.19 52.1262 107.065 51.6262 106.815L43.8757 102.565C43.3757 102.315 42.8757 102.19 42.6257 102.315L37.3754 104.565C36.8753 104.815 36.1253 104.69 35.3753 104.315C34.3752 103.815 33.6252 102.94 33.5001 102.065L32.0001 95.4397C31.8751 95.0646 31.5 94.4396 31 94.0646L23.8746 88.4393C22.8746 87.6892 22.3745 86.5642 22.6245 85.8141C22.7495 85.3141 23.3746 85.0641 23.9996 85.0641L30.875 85.1891C31.125 85.1891 31.375 85.1891 31.5 84.8141L32.2501 79.0637C32.3751 78.5637 32.6251 78.1887 33.1251 78.0637C34.0002 77.8137 35.3753 78.3137 36.1253 79.3138L41.8756 85.9391C42.2506 86.4391 42.8757 86.8142 43.3757 86.9392L51.0011 89.0643C52.1262 89.3143 53.2512 90.3144 53.5013 91.3144C53.6263 91.8145 53.6263 92.3145 53.2513 92.6895L49.8761 96.6897C49.7511 96.8147 49.7511 97.1898 50.0011 97.6898L53.8763 104.69C54.2513 105.44 54.2513 106.19 53.8763 106.565C53.7513 107.065 53.3763 107.19 53.0012 107.19ZM42.8757 101.565C43.2507 101.565 43.7507 101.69 44.2508 101.94L52.0012 106.19C52.7512 106.565 53.2512 106.565 53.5013 106.315C53.6263 106.19 53.6263 105.815 53.3763 105.315L49.501 98.3148C49.126 97.5648 49.126 96.9397 49.501 96.4397L52.8762 92.4395C53.0012 92.3145 53.0012 92.0645 52.8762 91.8145C52.6262 91.1894 51.8762 90.3144 50.8761 90.0644L43.2507 87.9392C42.5007 87.8142 41.8756 87.3142 41.3756 86.6892L35.6253 80.0638C34.8752 79.1887 34.0002 78.9387 33.3752 79.0637C33.2501 79.0637 33.1251 79.1887 33.1251 79.4388L32.3751 85.1891C32.2501 85.8141 31.75 86.3141 31 86.3141L24.1246 86.1892C23.8746 86.1892 23.6246 86.3142 23.6246 86.4392C23.4996 86.8142 23.7496 87.5642 24.6247 88.1893L31.7501 93.8146C32.3751 94.3146 32.8751 94.9396 33.0001 95.5647L34.5002 102.19C34.6252 102.815 35.2502 103.44 36.0003 103.815C36.5003 104.065 37.0003 104.19 37.2504 104.065L42.5007 101.815C42.3757 101.565 42.6257 101.565 42.8757 101.565Z" fill="#171753"/>
<path d="M31.7469 94.4834L28.1667 98.983L28.8515 99.5278L32.4316 95.0282L31.7469 94.4834Z" fill="#171753"/>
<path d="M34.3718 103.259L30.7911 107.758L31.4758 108.303L35.0565 103.804L34.3718 103.259Z" fill="#171753"/>
<path d="M43.2656 101.852L39.6849 106.351L40.3696 106.896L43.9504 102.396L43.2656 101.852Z" fill="#171753"/>
<path d="M23.9515 88.2285L20.3708 92.7281L21.0556 93.273L24.6363 88.7734L23.9515 88.2285Z" fill="#171753"/>
<path d="M50.3802 105.644L46.7995 110.144L47.4842 110.689L51.0649 106.189L50.3802 105.644Z" fill="#171753"/>
<path d="M121.126 43.4743L123.626 40.7242L119.876 39.7241L121.376 32.7237C120.876 31.2236 115.125 26.7234 113.5 26.4734L107.5 28.5985L106.125 24.9733C106.125 24.9733 106.125 24.9733 106 24.9733L103.5 27.7235C103.125 28.0985 103 28.7235 103.25 29.4736L106.125 38.5991C106.625 40.0991 108.25 41.5992 109.875 41.9743L119.251 43.9744C120.126 43.9744 120.751 43.8494 121.126 43.4743ZM113.625 32.0987C114.5 32.2237 115.375 33.0988 115.625 33.9738L117.001 38.099L115.75 37.849L115.25 38.4741L109.5 33.8488L110 33.2238L109.375 31.2236L113.625 32.0987Z" fill="#5ED9D1"/>
<path d="M120.001 44.2242C119.751 44.2242 119.501 44.2242 119.376 44.0992L110 42.0991C108.25 41.7241 106.5 40.099 106 38.4739L103.125 29.3484C102.875 28.4733 103 27.7233 103.5 27.2233L106.125 24.2231L106.625 24.3481L106.75 24.5981L108 27.8483L113.751 25.8482H113.876C115.626 26.2232 121.501 30.8485 122.001 32.4736V32.5986L120.376 39.2239L124.001 40.099L124.126 40.599L124.001 40.849L121.501 43.5992C121.126 44.0992 120.626 44.2242 120.001 44.2242ZM106 25.4732L103.875 27.8483C103.625 28.0983 103.5 28.5983 103.75 29.2234L106.625 38.3489C107.125 39.724 108.625 41.099 110 41.4741L119.376 43.4742C120.001 43.5992 120.501 43.4742 120.751 43.2242L122.876 40.849L119.501 39.974L119.376 39.599L120.876 32.5986C120.251 31.2235 115.001 27.0983 113.501 26.7232L107.5 28.8484L107.125 28.7233L107 28.4733L106 25.4732ZM115.251 38.7239C115.126 38.7239 115.126 38.7239 115.001 38.5989L109.125 33.8486V33.7236C109.125 33.5986 109.125 33.5986 109.5 33.0986L109.625 32.9736L108.875 31.0985L109.25 30.7235H109.5L113.751 31.5985C114.751 31.8485 115.751 32.7236 116.126 33.7236L117.751 38.5989L116.126 38.0989L116.001 38.2239C115.626 38.5989 115.376 38.7239 115.251 38.7239ZM110.125 33.7236L115.251 37.8489C115.626 37.4738 115.626 37.3488 115.876 37.4738L116.376 37.5988L115.251 34.0987C115.001 33.3486 114.251 32.7236 113.501 32.4736L110 31.7235L110.5 32.9736C110.5 33.2236 110.5 33.2236 110.125 33.7236Z" fill="#171753"/>
<path d="M117.251 26.4732L107.875 24.4731C106.375 24.098 105.5 25.0981 106 26.5982L109 35.7237C109.5 37.2238 111.126 38.7239 112.751 39.0989L122.126 41.099C123.626 41.474 124.501 40.474 124.001 38.9739L121.001 29.8484C120.376 28.2233 118.751 26.7232 117.251 26.4732ZM119.751 36.0987C120.001 36.9738 119.501 37.4738 118.751 37.2238L113.626 36.0987C112.751 35.9737 111.876 35.0987 111.626 34.3486L110 29.3483C109.75 28.4733 110.25 27.9733 111.001 28.2233L116.126 29.3483C117.001 29.4733 117.876 30.3484 118.126 31.0984L119.751 36.0987Z" fill="white"/>
<path d="M122.501 41.4741C122.251 41.4741 122.001 41.4741 121.876 41.349L112.501 39.3489C110.75 38.9739 109 37.3488 108.5 35.7237L105.5 26.7232C105.25 25.8482 105.375 25.0981 105.75 24.5981C106.25 24.0981 107 23.8481 107.875 24.0981L117.251 26.0982C119.001 26.4732 120.751 28.0983 121.251 29.7234L124.251 38.8489C124.501 39.724 124.376 40.474 124.001 40.974C123.626 41.224 123.126 41.4741 122.501 41.4741ZM107.25 24.7231C106.875 24.7231 106.625 24.8481 106.375 24.9731C106.125 25.2231 106.125 25.7232 106.25 26.3482L109.25 35.4737C109.75 36.8488 111.25 38.2239 112.626 38.5989L122.001 40.599C122.626 40.724 123.126 40.599 123.376 40.349C123.626 40.099 123.626 39.5989 123.501 38.9739L120.501 29.8484C120.001 28.4733 118.501 27.0982 117.126 26.7232L107.75 24.7231C107.625 24.8481 107.375 24.7231 107.25 24.7231ZM119.126 37.7238C119.001 37.7238 118.876 37.7238 118.751 37.7238L113.626 36.5988C112.626 36.3488 111.625 35.4737 111.375 34.4737L109.75 29.4734C109.625 28.9734 109.625 28.4733 110 28.0983C110.25 27.7233 110.75 27.5983 111.375 27.7233L116.501 28.8483C117.501 29.0984 118.501 29.9734 118.751 30.9735L120.376 35.9737C120.501 36.4738 120.501 36.9738 120.126 37.3488C119.751 37.5988 119.501 37.7238 119.126 37.7238ZM110.75 28.4733C110.625 28.4733 110.5 28.4733 110.375 28.5983C110.25 28.7233 110.25 28.8483 110.375 29.0984L112 34.0986C112.251 34.7237 113.001 35.4737 113.751 35.5987L118.876 36.7238C119.126 36.7238 119.376 36.7238 119.376 36.5988C119.501 36.4738 119.501 36.3488 119.376 36.0988L117.751 31.0985C117.501 30.4734 116.751 29.7234 116.001 29.5984L110.875 28.4733C110.875 28.5983 110.75 28.4733 110.75 28.4733Z" fill="#171753"/>
<path d="M109.949 37.5228L107.43 40.3006L108.078 40.8884L110.597 38.1106L109.949 37.5228Z" fill="#171753"/>
<path d="M117.126 29.7109L114.608 32.4902L115.256 33.0777L117.774 30.2984L117.126 29.7109Z" fill="#171753"/>
<path d="M105.988 27.2124L103.47 29.9916L104.119 30.5791L106.637 27.7999L105.988 27.2124Z" fill="#171753"/>
<path d="M119.929 40.2534L117.411 43.0327L118.06 43.6202L120.578 40.8409L119.929 40.2534Z" fill="#171753"/>
<path d="M262.408 29.1018L259.408 26.7267L258.658 30.4769L251.658 29.4768C250.158 30.1019 246.157 36.1022 245.907 37.7273L248.407 43.6026L244.907 45.2277C244.907 45.2277 244.907 45.2277 244.907 45.3527L247.907 47.7278C248.282 48.1029 248.908 48.1029 249.658 47.8528L258.533 44.2276C260.033 43.6026 261.408 41.8525 261.658 40.2274L263.033 30.8519C263.033 30.1019 262.908 29.4768 262.408 29.1018ZM251.658 37.3523C251.783 36.4772 252.533 35.4772 253.408 35.2271L257.533 33.6021L257.283 34.8521L257.908 35.3522L253.658 41.4775L253.033 40.9775L251.158 41.8525L251.658 37.3523Z" fill="#9BE7C4"/>
<path d="M248.782 48.3529C248.407 48.3529 247.907 48.2279 247.657 47.9779L244.532 45.4778V44.9777L244.782 44.8527L247.907 43.4776L245.407 37.8523V37.7273C245.657 35.9772 249.782 29.8519 251.408 29.1018H251.533L258.283 30.1019L258.908 26.4767L259.408 26.3517L259.658 26.4767L262.658 28.8518C263.158 29.2268 263.408 29.9769 263.283 30.9769L261.908 40.3525C261.658 42.1026 260.158 43.9777 258.533 44.6027L249.657 48.2279C249.532 48.3529 249.157 48.3529 248.782 48.3529ZM245.657 45.4778L248.157 47.4779C248.532 47.7279 248.907 47.7279 249.532 47.4779L258.408 43.8527C259.783 43.3526 261.033 41.6025 261.283 40.2275L262.658 30.8519C262.783 30.2269 262.658 29.7269 262.283 29.4769L259.783 27.4767L259.158 30.8519L258.783 31.102L251.783 30.1019C250.408 30.8519 246.782 36.3522 246.407 37.8523L248.907 43.7277V44.1027L248.657 44.2277L245.657 45.4778ZM251.033 42.2276L250.658 41.9776V41.7275L251.283 37.4773C251.408 36.4773 252.283 35.3522 253.158 34.9772L257.908 33.1021L257.533 34.8522C257.533 34.8522 257.658 34.8522 257.658 34.9772C258.033 35.3522 258.283 35.4772 258.033 35.8522L253.783 42.1026H253.658C253.533 42.1026 253.533 42.1026 253.033 41.7275L252.908 41.6025L251.033 42.2276ZM256.908 34.2271L253.533 35.6022C252.908 35.8522 252.158 36.7273 252.158 37.4773L251.658 41.1025L252.908 40.4775C253.158 40.3525 253.158 40.4775 253.658 40.7275L257.408 35.3522C257.033 34.9772 256.908 34.9772 257.033 34.7272L256.908 34.2271Z" fill="#171753"/>
<path d="M245.782 34.227L244.407 43.7275C244.157 45.3526 245.157 46.1026 246.657 45.4776L255.532 41.8524C257.033 41.2274 258.408 39.4773 258.658 37.9772L260.033 28.4767C260.283 26.8516 259.283 26.1015 257.783 26.7266L248.907 30.3518C247.407 30.9768 246.032 32.7269 245.782 34.227ZM255.282 30.9768C256.032 30.6018 256.657 31.1018 256.532 31.9769L255.782 37.2272C255.657 38.1022 254.907 38.9772 254.157 39.3523L249.282 41.3524C248.532 41.7274 247.907 41.2274 248.032 40.3523L248.782 35.102C248.907 34.227 249.657 33.3519 250.407 32.9769L255.282 30.9768Z" fill="white"/>
<path d="M245.782 46.1025C245.407 46.1025 245.032 45.9775 244.657 45.7275C244.157 45.3525 243.907 44.6025 244.032 43.6024L245.407 34.1019C245.657 32.3518 247.157 30.4767 248.782 29.8516L257.658 26.2264C258.533 25.8514 259.283 25.9764 259.783 26.3514C260.283 26.7265 260.533 27.4765 260.408 28.4766L259.033 37.9771C258.783 39.7272 257.283 41.6023 255.658 42.2273L246.782 45.8525C246.532 45.9775 246.157 46.1025 245.782 46.1025ZM246.157 34.3519L244.782 43.8524C244.657 44.4775 244.782 44.9775 245.157 45.2275C245.407 45.4775 245.907 45.4775 246.532 45.2275L255.407 41.6023C256.783 41.1023 258.033 39.3522 258.283 37.9771L259.658 28.4766C259.783 27.8515 259.658 27.3515 259.283 27.1015C259.033 26.8515 258.533 26.8515 257.908 27.1015L249.032 30.7267C247.657 31.2267 246.407 32.8518 246.157 34.3519ZM248.657 41.7273C248.407 41.7273 248.157 41.6023 247.907 41.4773C247.532 41.2273 247.407 40.7273 247.532 40.2272L248.282 34.9769C248.407 33.9769 249.282 32.8518 250.157 32.4768L255.032 30.4767C255.533 30.2267 256.033 30.3517 256.408 30.6017C256.783 30.8517 256.908 31.3517 256.783 31.8518L256.033 37.102C255.908 38.1021 255.032 39.2272 254.157 39.6022L249.282 41.6023C249.157 41.7273 248.907 41.7273 248.657 41.7273ZM255.407 31.3517L250.532 33.3518C249.907 33.6019 249.157 34.4769 249.157 35.1019L248.407 40.3522C248.407 40.6022 248.407 40.8523 248.532 40.8523C248.657 40.9773 248.907 40.9773 249.032 40.8523L253.907 38.8521C254.532 38.6021 255.282 37.7271 255.282 37.102L256.033 31.8518C256.033 31.6017 256.033 31.3517 255.908 31.3517C255.783 31.2267 255.533 31.2267 255.407 31.3517Z" fill="#171753"/>
<path d="M257.903 39.9718L257.363 40.6604L260.314 42.9746L260.854 42.286L257.903 39.9718Z" fill="#171753"/>
<path d="M249.609 33.3855L249.069 34.074L252.02 36.3883L252.56 35.6997L249.609 33.3855Z" fill="#171753"/>
<path d="M247.876 44.7232L247.336 45.4118L250.287 47.7261L250.827 47.0375L247.876 44.7232Z" fill="#171753"/>
<path d="M260.004 29.7837L259.464 30.4723L262.415 32.7865L262.955 32.098L260.004 29.7837Z" fill="#171753"/>
</svg>
