<svg width="237" height="138" viewBox="0 0 237 138" fill="none" xmlns="http://www.w3.org/2000/svg">
<g opacity="0.3" filter="url(#filter0_d_140_6177)">
<rect x="4" y="57" width="229" height="72.0552" rx="16" fill="#9BE7C4"/>
</g>
<path d="M89.1313 88.38C87.8779 88.38 86.7713 88.1733 85.8112 87.76C84.8646 87.3333 84.0646 86.7667 83.4113 86.06C82.7713 85.34 82.2846 84.5333 81.9513 83.64C81.6313 82.7333 81.4713 81.7933 81.4713 80.82V80.38C81.4713 79.46 81.6313 78.56 81.9513 77.68C82.2713 76.8 82.7379 76.0067 83.3513 75.3C83.9779 74.5933 84.7446 74.0333 85.6513 73.62C86.5713 73.1933 87.6246 72.98 88.8113 72.98C90.0913 72.98 91.2246 73.22 92.2113 73.7C93.1979 74.1667 93.9913 74.8267 94.5913 75.68C95.1913 76.52 95.5446 77.5 95.6513 78.62H92.7913C92.6979 77.9933 92.4646 77.46 92.0913 77.02C91.7179 76.5667 91.2446 76.22 90.6713 75.98C90.1113 75.74 89.4913 75.62 88.8113 75.62C88.1313 75.62 87.5113 75.74 86.9513 75.98C86.4046 76.22 85.9379 76.56 85.5513 77C85.1646 77.44 84.8646 77.9667 84.6513 78.58C84.4513 79.1933 84.3513 79.8733 84.3513 80.62C84.3513 81.4333 84.4646 82.16 84.6913 82.8C84.9179 83.44 85.2379 83.9867 85.6513 84.44C86.0646 84.88 86.5646 85.22 87.1513 85.46C87.7379 85.6867 88.3979 85.8 89.1313 85.8C90.1046 85.8 90.9579 85.6 91.6913 85.2C92.4246 84.7867 92.9579 84.2533 93.2913 83.6L92.7913 85.9V82.14H95.4113V85.38C94.7846 86.3267 93.9313 87.0667 92.8513 87.6C91.7713 88.12 90.5313 88.38 89.1313 88.38ZM88.6713 82.7V80.58H96.6313V82.7H88.6713ZM103.972 88.38C103.012 88.38 102.165 88.2267 101.432 87.92C100.699 87.6133 100.079 87.2 99.5719 86.68C99.0652 86.1467 98.6785 85.5467 98.4119 84.88C98.1585 84.2133 98.0319 83.52 98.0319 82.8V82.38C98.0319 81.6333 98.1652 80.9267 98.4319 80.26C98.7119 79.58 99.1052 78.98 99.6119 78.46C100.132 77.9267 100.759 77.5133 101.492 77.22C102.225 76.9133 103.052 76.76 103.972 76.76C104.892 76.76 105.719 76.9133 106.452 77.22C107.185 77.5133 107.805 77.9267 108.312 78.46C108.832 78.98 109.225 79.58 109.492 80.26C109.759 80.9267 109.892 81.6333 109.892 82.38V82.8C109.892 83.52 109.759 84.2133 109.492 84.88C109.239 85.5467 108.859 86.1467 108.352 86.68C107.845 87.2 107.225 87.6133 106.492 87.92C105.759 88.2267 104.919 88.38 103.972 88.38ZM103.972 86C104.652 86 105.225 85.8533 105.692 85.56C106.159 85.2533 106.512 84.8467 106.752 84.34C106.992 83.82 107.112 83.2333 107.112 82.58C107.112 81.9133 106.985 81.3267 106.732 80.82C106.492 80.3 106.132 79.8933 105.652 79.6C105.185 79.2933 104.625 79.14 103.972 79.14C103.319 79.14 102.752 79.2933 102.272 79.6C101.805 79.8933 101.445 80.3 101.192 80.82C100.939 81.3267 100.812 81.9133 100.812 82.58C100.812 83.2333 100.932 83.82 101.172 84.34C101.425 84.8467 101.785 85.2533 102.252 85.56C102.719 85.8533 103.292 86 103.972 86ZM117.546 88.38C116.586 88.38 115.739 88.2267 115.006 87.92C114.273 87.6133 113.653 87.2 113.146 86.68C112.639 86.1467 112.253 85.5467 111.986 84.88C111.733 84.2133 111.606 83.52 111.606 82.8V82.38C111.606 81.6333 111.739 80.9267 112.006 80.26C112.286 79.58 112.679 78.98 113.186 78.46C113.706 77.9267 114.333 77.5133 115.066 77.22C115.799 76.9133 116.626 76.76 117.546 76.76C118.466 76.76 119.293 76.9133 120.026 77.22C120.759 77.5133 121.379 77.9267 121.886 78.46C122.406 78.98 122.799 79.58 123.066 80.26C123.333 80.9267 123.466 81.6333 123.466 82.38V82.8C123.466 83.52 123.333 84.2133 123.066 84.88C122.813 85.5467 122.433 86.1467 121.926 86.68C121.419 87.2 120.799 87.6133 120.066 87.92C119.333 88.2267 118.493 88.38 117.546 88.38ZM117.546 86C118.226 86 118.799 85.8533 119.266 85.56C119.733 85.2533 120.086 84.8467 120.326 84.34C120.566 83.82 120.686 83.2333 120.686 82.58C120.686 81.9133 120.559 81.3267 120.306 80.82C120.066 80.3 119.706 79.8933 119.226 79.6C118.759 79.2933 118.199 79.14 117.546 79.14C116.893 79.14 116.326 79.2933 115.846 79.6C115.379 79.8933 115.019 80.3 114.766 80.82C114.513 81.3267 114.386 81.9133 114.386 82.58C114.386 83.2333 114.506 83.82 114.746 84.34C114.999 84.8467 115.359 85.2533 115.826 85.56C116.293 85.8533 116.866 86 117.546 86ZM130.14 92.28C129.62 92.28 129.087 92.26 128.54 92.22C128.007 92.18 127.507 92.1267 127.04 92.06V89.74C127.52 89.7933 128.034 89.84 128.58 89.88C129.127 89.9333 129.64 89.96 130.12 89.96C131.014 89.96 131.734 89.8533 132.28 89.64C132.84 89.4267 133.247 89.0867 133.5 88.62C133.767 88.1667 133.9 87.5867 133.9 86.88V84.74L134.5 83.38C134.46 84.38 134.254 85.2333 133.88 85.94C133.507 86.6333 133 87.1667 132.36 87.54C131.72 87.9 130.98 88.08 130.14 88.08C129.394 88.08 128.714 87.94 128.1 87.66C127.5 87.38 126.98 86.9933 126.54 86.5C126.114 86.0067 125.78 85.4267 125.54 84.76C125.3 84.0933 125.18 83.38 125.18 82.62V82.2C125.18 81.44 125.3 80.7333 125.54 80.08C125.794 79.4133 126.147 78.8333 126.6 78.34C127.054 77.8467 127.594 77.4667 128.22 77.2C128.847 76.9333 129.54 76.8 130.3 76.8C131.194 76.8 131.967 76.9933 132.62 77.38C133.287 77.7667 133.807 78.3267 134.18 79.06C134.554 79.7933 134.76 80.6933 134.8 81.76L134.32 81.84V77.14H136.52V86.72C136.52 88.04 136.294 89.1067 135.84 89.92C135.387 90.7333 134.687 91.3267 133.74 91.7C132.807 92.0867 131.607 92.28 130.14 92.28ZM130.94 85.7C131.474 85.7 131.96 85.58 132.4 85.34C132.84 85.1 133.194 84.7533 133.46 84.3C133.727 83.8467 133.86 83.3 133.86 82.66V81.96C133.86 81.3467 133.72 80.8267 133.44 80.4C133.174 79.9733 132.82 79.6533 132.38 79.44C131.94 79.2133 131.46 79.1 130.94 79.1C130.354 79.1 129.834 79.24 129.38 79.52C128.94 79.7867 128.594 80.1667 128.34 80.66C128.087 81.1533 127.96 81.74 127.96 82.42C127.96 83.0867 128.087 83.6667 128.34 84.16C128.594 84.6533 128.94 85.0333 129.38 85.3C129.834 85.5667 130.354 85.7 130.94 85.7ZM139.693 88V73.4H142.473V88H139.693ZM138.333 75.48V73.4H142.473V75.48H138.333ZM150.506 88.38C149.573 88.38 148.753 88.22 148.046 87.9C147.353 87.58 146.773 87.1533 146.306 86.62C145.853 86.0733 145.506 85.4667 145.266 84.8C145.04 84.1333 144.926 83.4533 144.926 82.76V82.38C144.926 81.66 145.04 80.9667 145.266 80.3C145.506 79.62 145.853 79.02 146.306 78.5C146.773 77.9667 147.346 77.5467 148.026 77.24C148.706 76.92 149.493 76.76 150.386 76.76C151.56 76.76 152.54 77.02 153.326 77.54C154.126 78.0467 154.726 78.72 155.126 79.56C155.526 80.3867 155.726 81.28 155.726 82.24V83.24H146.106V81.54H153.986L153.126 82.38C153.126 81.6867 153.026 81.0933 152.826 80.6C152.626 80.1067 152.32 79.7267 151.906 79.46C151.506 79.1933 151 79.06 150.386 79.06C149.773 79.06 149.253 79.2 148.826 79.48C148.4 79.76 148.073 80.1667 147.846 80.7C147.633 81.22 147.526 81.8467 147.526 82.58C147.526 83.26 147.633 83.8667 147.846 84.4C148.06 84.92 148.386 85.3333 148.826 85.64C149.266 85.9333 149.826 86.08 150.506 86.08C151.186 86.08 151.74 85.9467 152.166 85.68C152.593 85.4 152.866 85.06 152.986 84.66H155.546C155.386 85.4067 155.08 86.06 154.626 86.62C154.173 87.18 153.593 87.6133 152.886 87.92C152.193 88.2267 151.4 88.38 150.506 88.38ZM85.074 112.08V109.44H88.094C88.854 109.44 89.5273 109.327 90.114 109.1C90.714 108.86 91.2207 108.527 91.634 108.1C92.0473 107.673 92.3607 107.173 92.574 106.6C92.8007 106.013 92.914 105.367 92.914 104.66C92.914 103.927 92.8007 103.273 92.574 102.7C92.3607 102.113 92.0473 101.613 91.634 101.2C91.2207 100.787 90.714 100.473 90.114 100.26C89.5273 100.047 88.854 99.94 88.094 99.94H85.074V97.3H87.914C89.234 97.3 90.3873 97.4933 91.374 97.88C92.3607 98.2667 93.1807 98.8 93.834 99.48C94.4873 100.147 94.974 100.913 95.294 101.78C95.6273 102.633 95.794 103.52 95.794 104.44V104.88C95.794 105.76 95.6273 106.627 95.294 107.48C94.974 108.333 94.4873 109.107 93.834 109.8C93.1807 110.493 92.3607 111.047 91.374 111.46C90.3873 111.873 89.234 112.08 87.914 112.08H85.074ZM82.634 112.08V97.3H85.474V112.08H82.634ZM103.337 112.38C102.377 112.38 101.53 112.227 100.797 111.92C100.064 111.613 99.4438 111.2 98.9371 110.68C98.4304 110.147 98.0438 109.547 97.7771 108.88C97.5238 108.213 97.3971 107.52 97.3971 106.8V106.38C97.3971 105.633 97.5304 104.927 97.7971 104.26C98.0771 103.58 98.4704 102.98 98.9771 102.46C99.4971 101.927 100.124 101.513 100.857 101.22C101.59 100.913 102.417 100.76 103.337 100.76C104.257 100.76 105.084 100.913 105.817 101.22C106.55 101.513 107.17 101.927 107.677 102.46C108.197 102.98 108.59 103.58 108.857 104.26C109.124 104.927 109.257 105.633 109.257 106.38V106.8C109.257 107.52 109.124 108.213 108.857 108.88C108.604 109.547 108.224 110.147 107.717 110.68C107.21 111.2 106.59 111.613 105.857 111.92C105.124 112.227 104.284 112.38 103.337 112.38ZM103.337 110C104.017 110 104.59 109.853 105.057 109.56C105.524 109.253 105.877 108.847 106.117 108.34C106.357 107.82 106.477 107.233 106.477 106.58C106.477 105.913 106.35 105.327 106.097 104.82C105.857 104.3 105.497 103.893 105.017 103.6C104.55 103.293 103.99 103.14 103.337 103.14C102.684 103.14 102.117 103.293 101.637 103.6C101.17 103.893 100.81 104.3 100.557 104.82C100.304 105.327 100.177 105.913 100.177 106.58C100.177 107.233 100.297 107.82 100.537 108.34C100.79 108.847 101.15 109.253 101.617 109.56C102.084 109.853 102.657 110 103.337 110ZM116.911 112.38C115.951 112.38 115.105 112.227 114.371 111.92C113.638 111.613 113.018 111.2 112.511 110.68C112.005 110.147 111.618 109.547 111.351 108.88C111.098 108.213 110.971 107.52 110.971 106.8V106.38C110.971 105.633 111.105 104.927 111.371 104.26C111.651 103.58 112.045 102.98 112.551 102.46C113.071 101.927 113.698 101.513 114.431 101.22C115.165 100.913 115.991 100.76 116.911 100.76C117.831 100.76 118.658 100.913 119.391 101.22C120.125 101.513 120.745 101.927 121.251 102.46C121.771 102.98 122.165 103.58 122.431 104.26C122.698 104.927 122.831 105.633 122.831 106.38V106.8C122.831 107.52 122.698 108.213 122.431 108.88C122.178 109.547 121.798 110.147 121.291 110.68C120.785 111.2 120.165 111.613 119.431 111.92C118.698 112.227 117.858 112.38 116.911 112.38ZM116.911 110C117.591 110 118.165 109.853 118.631 109.56C119.098 109.253 119.451 108.847 119.691 108.34C119.931 107.82 120.051 107.233 120.051 106.58C120.051 105.913 119.925 105.327 119.671 104.82C119.431 104.3 119.071 103.893 118.591 103.6C118.125 103.293 117.565 103.14 116.911 103.14C116.258 103.14 115.691 103.293 115.211 103.6C114.745 103.893 114.385 104.3 114.131 104.82C113.878 105.327 113.751 105.913 113.751 106.58C113.751 107.233 113.871 107.82 114.111 108.34C114.365 108.847 114.725 109.253 115.191 109.56C115.658 109.853 116.231 110 116.911 110ZM129.766 112.36C129.006 112.36 128.306 112.22 127.666 111.94C127.026 111.66 126.472 111.267 126.006 110.76C125.539 110.253 125.179 109.667 124.926 109C124.672 108.32 124.546 107.587 124.546 106.8V106.38C124.546 105.607 124.666 104.88 124.906 104.2C125.159 103.52 125.506 102.927 125.946 102.42C126.399 101.913 126.939 101.52 127.566 101.24C128.206 100.947 128.912 100.8 129.686 100.8C130.539 100.8 131.286 100.987 131.926 101.36C132.579 101.72 133.099 102.267 133.486 103C133.872 103.733 134.086 104.653 134.126 105.76L133.306 104.8V97.4H136.086V112H133.886V107.38H134.366C134.326 108.487 134.099 109.413 133.686 110.16C133.272 110.893 132.726 111.447 132.046 111.82C131.379 112.18 130.619 112.36 129.766 112.36ZM130.386 110.02C130.932 110.02 131.432 109.9 131.886 109.66C132.339 109.407 132.699 109.047 132.966 108.58C133.246 108.1 133.386 107.54 133.386 106.9V106.1C133.386 105.46 133.246 104.927 132.966 104.5C132.686 104.06 132.319 103.727 131.866 103.5C131.412 103.26 130.919 103.14 130.386 103.14C129.786 103.14 129.252 103.287 128.786 103.58C128.332 103.86 127.972 104.26 127.706 104.78C127.452 105.3 127.326 105.907 127.326 106.6C127.326 107.293 127.459 107.9 127.726 108.42C127.992 108.927 128.352 109.32 128.806 109.6C129.272 109.88 129.799 110.02 130.386 110.02ZM139.39 112V97.4H142.17V112H139.39ZM138.03 99.48V97.4H142.17V99.48H138.03ZM150.204 112.38C149.27 112.38 148.45 112.22 147.744 111.9C147.05 111.58 146.47 111.153 146.004 110.62C145.55 110.073 145.204 109.467 144.964 108.8C144.737 108.133 144.624 107.453 144.624 106.76V106.38C144.624 105.66 144.737 104.967 144.964 104.3C145.204 103.62 145.55 103.02 146.004 102.5C146.47 101.967 147.044 101.547 147.724 101.24C148.404 100.92 149.19 100.76 150.084 100.76C151.257 100.76 152.237 101.02 153.024 101.54C153.824 102.047 154.424 102.72 154.824 103.56C155.224 104.387 155.424 105.28 155.424 106.24V107.24H145.804V105.54H153.684L152.824 106.38C152.824 105.687 152.724 105.093 152.524 104.6C152.324 104.107 152.017 103.727 151.604 103.46C151.204 103.193 150.697 103.06 150.084 103.06C149.47 103.06 148.95 103.2 148.524 103.48C148.097 103.76 147.77 104.167 147.544 104.7C147.33 105.22 147.224 105.847 147.224 106.58C147.224 107.26 147.33 107.867 147.544 108.4C147.757 108.92 148.084 109.333 148.524 109.64C148.964 109.933 149.524 110.08 150.204 110.08C150.884 110.08 151.437 109.947 151.864 109.68C152.29 109.4 152.564 109.06 152.684 108.66H155.244C155.084 109.407 154.777 110.06 154.324 110.62C153.87 111.18 153.29 111.613 152.584 111.92C151.89 112.227 151.097 112.38 150.204 112.38Z" fill="#171753"/>
<path d="M90.5835 45.8904L90.5686 50.3693L86.015 49.4287L86.03 44.9498L90.5835 45.8904Z" fill="#9BE7C4" stroke="#171753" stroke-width="1.2" stroke-miterlimit="10" stroke-linecap="round" stroke-linejoin="round"/>
<path d="M117.248 38.4853C119.577 38.963 121.637 39.7244 123.339 40.6949C124.638 41.4414 125.713 42.3222 126.534 43.3076C127.609 44.6064 128.162 46.0098 128.162 47.4132L128.147 51.8921C128.147 50.4887 127.609 49.1003 126.519 47.7865C125.698 46.8011 124.623 45.9352 123.324 45.1738C121.622 44.1884 119.562 43.4419 117.233 42.9642C112.844 42.0684 108.171 42.0385 103.826 42.8597V38.3808C108.186 37.5596 112.859 37.5895 117.248 38.4853Z" fill="#49CE8B" stroke="#171753" stroke-width="1.2" stroke-miterlimit="10" stroke-linecap="round" stroke-linejoin="round"/>
<path d="M90.5838 45.8906C92.435 42.83 96.2122 40.3815 101.258 38.9931C102.095 38.7542 102.96 38.5601 103.841 38.3959V42.8748C102.96 43.039 102.095 43.2331 101.258 43.472C96.2272 44.8753 92.435 47.3238 90.5838 50.3695V45.8906Z" fill="#171753" stroke="#171753" stroke-width="1.2" stroke-miterlimit="10" stroke-linecap="round" stroke-linejoin="round"/>
<path d="M114.53 45.3529C115.292 45.5022 115.948 45.756 116.486 46.0695C117.471 46.6368 118.039 47.4281 118.039 48.2343L118.024 52.7132C118.024 51.907 117.456 51.1157 116.471 50.5484C115.933 50.2349 115.277 49.996 114.515 49.8318C114.202 49.7721 113.888 49.7124 113.575 49.6825V45.2036C113.888 45.2484 114.217 45.2932 114.53 45.3529Z" fill="#9BE7C4" stroke="#171753" stroke-width="1.2" stroke-miterlimit="10" stroke-linecap="round" stroke-linejoin="round"/>
<path d="M104.886 49.6975C104.886 49.0854 105.065 48.4733 105.423 47.8761C106.05 46.831 107.349 45.995 109.066 45.5172C110.484 45.129 112.052 45.0096 113.575 45.1887V49.6676C112.052 49.4885 110.484 49.593 109.051 49.9812C107.334 50.4589 106.035 51.295 105.408 52.3401C105.05 52.9372 104.871 53.5494 104.871 54.1615L104.886 49.6975Z" fill="#171753" stroke="#171753" stroke-width="1.2" stroke-miterlimit="10" stroke-linecap="round" stroke-linejoin="round"/>
<path d="M111.351 53.6539L111.366 49.175C111.366 49.0257 111.41 48.8615 111.5 48.7122L111.485 53.1911C111.396 53.3404 111.351 53.4896 111.351 53.6539Z" fill="#9BE7C4" stroke="#171753" stroke-width="1.2" stroke-miterlimit="10" stroke-linecap="round" stroke-linejoin="round"/>
<path d="M122.309 50.1603C122.697 49.5332 122.876 48.8912 122.876 48.2493L122.861 52.7282C122.861 53.3552 122.682 54.0121 122.294 54.6392C121.114 56.58 118.039 57.8341 114.695 57.9237V53.4448C118.054 53.3552 121.129 52.1011 122.309 50.1603Z" fill="#171753" stroke="#171753" stroke-width="1.2" stroke-miterlimit="10" stroke-linecap="round" stroke-linejoin="round"/>
<path d="M106.528 49.1602C106.528 50.2948 107.32 51.3847 108.693 52.1909C109.44 52.6238 110.365 52.9672 111.425 53.1912C112.5 53.4151 113.605 53.5047 114.695 53.4599V57.9388C113.62 57.9686 112.5 57.8791 111.425 57.6701C110.365 57.4461 109.44 57.1027 108.693 56.6698C107.32 55.8785 106.528 54.7886 106.528 53.6391V49.1602Z" fill="#9BE7C4" stroke="#171753" stroke-width="1.2" stroke-miterlimit="10" stroke-linecap="round" stroke-linejoin="round"/>
<path d="M131.804 51.4442C132.595 50.1304 132.999 48.7718 132.999 47.4281L132.984 51.907C132.984 53.2507 132.581 54.6093 131.789 55.9231C129.475 59.7451 123.563 62.2383 117.009 62.5966V58.1178C123.563 57.7594 129.49 55.2662 131.804 51.4442Z" fill="#171753" stroke="#171753" stroke-width="1.2" stroke-miterlimit="10" stroke-linecap="round" stroke-linejoin="round"/>
<path d="M100.049 49.6825C100.049 50.9217 100.527 52.1608 101.482 53.3104C102.199 54.1763 103.155 54.9527 104.304 55.6096C105.812 56.4755 107.633 57.1473 109.694 57.5653C112.112 58.058 114.606 58.2222 117.009 58.1028V62.5817C114.606 62.7161 112.112 62.5518 109.679 62.0442C107.619 61.6262 105.797 60.9544 104.289 60.0885C103.14 59.4316 102.184 58.6552 101.467 57.7893C100.512 56.6397 100.034 55.4006 100.034 54.1614L100.049 49.6825Z" fill="#ECFFFE" stroke="#171753" stroke-width="1.2" stroke-miterlimit="10" stroke-linecap="round" stroke-linejoin="round"/>
<path d="M126.758 38.7241C128.43 39.6945 129.833 40.8291 130.893 42.0982C133.342 45.0393 133.67 48.3537 131.804 51.4441C128.639 56.6695 118.726 59.4315 109.693 57.5802C107.633 57.1622 105.811 56.4903 104.304 55.6244C103.154 54.9675 102.199 54.1912 101.482 53.3253C99.8098 51.3247 99.6008 49.0554 100.855 46.9652C101.915 45.2185 104.08 43.8151 106.961 43.0089C109.842 42.2027 113.097 42.1131 116.113 42.7252C117.576 43.0238 118.845 43.5015 119.875 44.0987C122.548 45.6365 123.623 47.9804 122.294 50.1751C120.741 52.743 115.859 54.1016 111.41 53.1909C110.35 52.967 109.424 52.6236 108.678 52.1906C106.737 51.0709 105.961 49.3689 106.916 47.7864L111.485 48.712C111.156 49.2495 111.425 49.8317 112.082 50.205C112.336 50.3543 112.649 50.4737 113.008 50.5483C114.934 50.9365 117.054 50.3543 117.725 49.2345C118.412 48.0999 117.86 46.8756 116.471 46.0844C115.934 45.7708 115.277 45.532 114.515 45.3678C112.709 44.9945 110.768 45.0542 109.051 45.532C107.334 46.0097 106.035 46.8458 105.408 47.8909C104.572 49.2793 104.707 50.7872 105.826 52.116C106.304 52.6982 106.931 53.2058 107.693 53.6388C108.693 54.221 109.902 54.654 111.261 54.9377C117.785 56.2664 124.936 54.2808 127.221 50.5185C128.654 48.1447 128.4 45.5917 126.519 43.3224C125.698 42.337 124.623 41.4711 123.324 40.7097C121.622 39.7243 119.562 38.9779 117.233 38.5001C111.963 37.4252 106.274 37.6043 101.243 38.9928C96.2117 40.3962 92.4196 42.8446 90.5683 45.8903L85.9998 44.9646C88.2692 41.2024 92.9272 38.1866 99.1379 36.4697C105.334 34.7528 112.336 34.5288 118.83 35.8576C121.861 36.4697 124.548 37.4401 126.758 38.7241Z" fill="#9BE7C4" stroke="#171753" stroke-width="1.2" stroke-miterlimit="10" stroke-linecap="round" stroke-linejoin="round"/>
<path d="M138.208 24.633L150.471 9.98255C150.631 9.72148 150.871 9.32988 150.9 8.98879C151.069 7.83501 150.054 6.85383 148.871 7.02644C148.53 6.99695 148.239 7.17801 147.869 7.4896L133.706 20.2577C132.965 20.8809 132.927 22.1147 133.631 22.7253L135.53 24.6076C136.494 25.3783 137.597 25.3362 138.208 24.633Z" fill="#49CE8B" stroke="#171753"/>
<path d="M138.536 23.2178C138.102 21.8745 136.776 20.5227 135.441 20.0637C134.026 19.7352 133.205 20.4889 133.638 21.8322C134.072 23.1755 135.398 24.5273 136.733 24.9863C138.148 25.3148 138.839 24.4811 138.536 23.2178Z" fill="#171753"/>
<path d="M136.674 20.1013C136.283 19.8613 135.891 19.6213 135.55 19.5918C134.737 19.4528 133.975 19.5243 133.525 19.9665C133.074 20.4086 132.935 21.2213 133.137 22.0635C133.621 23.6173 135.078 25.0491 136.624 25.4576C137.436 25.5966 138.198 25.525 138.649 25.0829C139.1 24.6408 139.239 23.8281 139.037 22.9859C138.653 21.8531 137.719 20.7414 136.674 20.1013ZM135.979 24.1648C135.066 23.6048 134.392 22.6531 134.059 21.7309C133.958 21.3098 134.068 20.8382 134.148 20.7076C134.308 20.4466 134.649 20.476 135.251 20.6655C136.455 21.0446 137.731 22.1858 138.034 23.4491C138.135 23.8701 138.026 24.3418 137.946 24.4723C137.786 24.7334 137.445 24.7039 136.843 24.5144C136.582 24.3543 136.24 24.3249 135.979 24.1648Z" fill="#171753"/>
<path d="M126.791 35.054L125.494 33.3612L123.747 32.1105C123.747 32.1105 126.707 27.2806 132.325 21.9245C132.695 21.6129 133.116 21.5119 133.929 21.6509C135.344 21.9794 136.67 23.3311 137.024 24.8049C137.176 25.4366 137.117 26.1188 136.826 26.2998C131.6 31.896 126.791 35.054 126.791 35.054Z" fill="#9BE7C4"/>
<path d="M135.243 21.5585C134.851 21.3185 134.46 21.0784 134.118 21.0489C133.306 20.91 132.544 20.9815 132.093 21.4236C126.475 26.7798 123.385 31.5296 123.385 31.5296L123.144 31.9212L125.204 33.5424L126.812 35.6058L127.183 35.2943C127.183 35.2943 131.992 32.1362 137.298 26.4095C137.748 25.9674 137.887 25.1547 137.605 24.4431C137.222 23.3103 136.287 22.1986 135.243 21.5585ZM124.458 31.8286C125.258 30.5232 128.08 26.5061 132.716 22.1648C132.876 21.9037 133.297 21.8027 133.899 21.9922C135.104 22.3712 136.38 23.5124 136.683 24.7757C136.784 25.1968 136.674 25.6684 136.594 25.7989C132.27 30.5108 128.303 33.4667 127.061 34.3215L125.945 32.9193L124.458 31.8286Z" fill="#171753"/>
<path d="M126.96 33.901C126.628 32.9788 125.743 32.0777 124.75 31.6481C123.806 31.4291 123.276 32.0018 123.478 32.844C123.811 33.7662 124.695 34.6673 125.689 35.0969C126.762 35.3959 127.293 34.8232 126.96 33.901Z" fill="#171753"/>
<path d="M125.852 31.6055C125.591 31.4455 125.33 31.2855 124.989 31.256C124.387 31.0665 123.755 31.218 123.385 31.5296C123.014 31.8412 122.955 32.5234 123.107 33.155C123.49 34.2878 124.635 35.349 125.709 35.648C126.311 35.8375 126.943 35.6859 127.313 35.3743C127.684 35.0627 127.743 34.3806 127.591 33.7489C127.179 32.9573 126.636 32.0856 125.852 31.6055ZM125.326 34.5152C124.804 34.1952 124.311 33.5341 124.08 33.0329C124.029 32.8224 124.059 32.4813 124.059 32.4813C124.139 32.3508 124.349 32.3003 124.61 32.4603C125.423 32.5993 126.307 33.5004 126.379 34.2626C126.429 34.4732 126.4 34.8142 126.4 34.8142C126.32 34.9448 126.109 34.9953 125.848 34.8353C125.587 34.6753 125.456 34.5952 125.326 34.5152Z" fill="#171753"/>
<path d="M134.637 24.5987C132.194 27.4115 128.859 30.2159 128.859 30.2159L129.482 30.957C129.482 30.957 132.818 28.1526 135.34 25.2093L134.637 24.5987Z" fill="#171753"/>
<path d="M125.166 34.7756C125.094 34.0134 124.311 33.5334 123.679 33.6849C121.995 34.0891 118.887 35.0575 117.919 37.5167C116.6 40.8391 113.952 46.0394 113.859 44.7256C113.766 43.4118 112.162 43.6855 112.162 43.6855C112.162 43.6855 111.497 47.4079 114.356 47.7238C117.215 48.0397 123.405 43.2142 124.732 38.9992C125.22 37.3232 125.237 35.5378 125.166 34.7756Z" fill="#ECFFFE"/>
<path d="M124.863 33.5129C124.471 33.2729 124 33.1634 123.579 33.2644C121.684 33.7191 118.496 34.8181 117.527 37.2772C116.319 40.128 114.98 42.8987 114.259 44.0735C114.078 43.783 113.948 43.703 113.817 43.6229C113.165 43.2229 112.192 43.345 112.192 43.345L111.72 43.2355L111.691 43.5766C111.611 43.7071 111.303 45.6736 112.209 47.1264C112.701 47.7875 113.354 48.1876 114.167 48.3266C117.497 48.752 123.797 43.4548 125.124 39.2398C125.692 37.4333 125.789 35.5173 125.638 34.8857C125.566 34.1235 125.254 33.7529 124.863 33.5129ZM113.67 45.3284C113.8 45.4084 113.8 45.4084 113.931 45.4884C115.215 45.7369 117.851 39.0921 118.441 37.8373C119.38 35.7192 122.147 34.7213 123.831 34.3171C124.042 34.2666 124.172 34.3466 124.433 34.5067C124.564 34.5867 124.745 34.8772 124.795 35.0878C124.947 35.7194 124.72 37.5554 124.311 39.1008C123.064 43.1853 117.165 47.8298 114.436 47.5939C113.754 47.5349 113.362 47.2949 113.131 46.7937C112.638 46.1326 112.596 45.0294 112.655 44.3472C112.866 44.2967 112.996 44.3767 113.127 44.4567C113.257 44.5367 113.257 44.5367 113.228 44.8778C113.358 44.9578 113.539 45.2484 113.67 45.3284Z" fill="#171753"/>
<defs>
<filter id="filter0_d_140_6177" x="0" y="57" width="237" height="80.0552" filterUnits="userSpaceOnUse" color-interpolation-filters="sRGB">
<feFlood flood-opacity="0" result="BackgroundImageFix"/>
<feColorMatrix in="SourceAlpha" type="matrix" values="0 0 0 0 0 0 0 0 0 0 0 0 0 0 0 0 0 0 127 0" result="hardAlpha"/>
<feOffset dy="4"/>
<feGaussianBlur stdDeviation="2"/>
<feComposite in2="hardAlpha" operator="out"/>
<feColorMatrix type="matrix" values="0 0 0 0 0.0901961 0 0 0 0 0.0901961 0 0 0 0 0.32549 0 0 0 0.25 0"/>
<feBlend mode="normal" in2="BackgroundImageFix" result="effect1_dropShadow_140_6177"/>
<feBlend mode="normal" in="SourceGraphic" in2="effect1_dropShadow_140_6177" result="shape"/>
</filter>
</defs>
</svg>
