<svg width="606" height="124" viewBox="0 0 606 124" fill="none" xmlns="http://www.w3.org/2000/svg">
<path d="M0 16.2853C0 7.29111 7.16344 0 16 0H590C598.837 0 606 7.29111 606 16.2853V124H0V16.2853Z" fill="#ECFFFE"/>
<mask id="mask0_2_42" style="mask-type:alpha" maskUnits="userSpaceOnUse" x="0" y="0" width="606" height="124">
<path d="M0 16.2853C0 7.29111 7.16344 0 16 0H590C598.837 0 606 7.29111 606 16.2853V124H0V16.2853Z" fill="#F5F5F5"/>
</mask>
<g mask="url(#mask0_2_42)">
<path opacity="0.8" d="M550.679 18.9041L537.363 16.8729C486.139 9.01073 433.182 0.885504 384.764 12.8994C355.876 20.0676 331.939 33.8574 308.797 47.1952C289.667 58.2235 269.875 69.6296 247.213 77.3896C201.908 92.9125 147.55 92.7883 105.253 90.9481C94.5002 90.4829 83.6066 89.8742 73.044 89.288C36.0986 87.2381 -2.10078 85.0966 -39.251 88.6284C-40.9359 88.7831 -42.5952 88.9592 -44.274 89.1343L-47.5341 88.8615C-44.8921 88.5439 -42.175 88.2467 -39.3851 87.9801C-2.1354 84.4441 36.1234 86.5836 73.127 88.6386C83.6799 89.2249 94.5833 89.8335 105.335 90.3048C147.506 92.1348 201.686 92.2641 246.839 76.8145C269.386 69.09 289.133 57.7129 308.228 46.708C331.446 33.3371 355.43 19.5052 384.494 12.2928C433.113 0.203864 486.224 8.35494 537.578 16.2544C542.047 16.9428 546.486 17.6198 550.894 18.2855C571.162 21.3371 593.555 24.1002 616.084 24.8863L615.962 25.5323C593.388 24.7228 570.976 21.9581 550.679 18.9041Z" fill="#5ED9D1"/>
<mask id="mask1_2_42" style="mask-type:luminance" maskUnits="userSpaceOnUse" x="-13" y="28" width="600" height="100">
<path d="M586.836 28.5126H-12.3065V127.685H586.836V28.5126Z" fill="white"/>
</mask>
<g mask="url(#mask1_2_42)">
<path d="M33.392 47.0457C57.5996 51.9704 76.1762 62.4836 93.7659 74.2007C110.671 85.4548 127.436 97.3115 149.496 104.157C194.881 118.276 248.184 111.105 292.64 99.0174C342.309 85.4935 389.006 65.1466 442.681 59.2107C469.013 56.3008 497.25 57.667 520.134 67.4777C539.14 75.5748 549.45 88.4116 553.734 102.83C556.172 111.028 557.008 119.357 557.67 127.686H563.417C563.231 125.323 563.046 122.969 562.79 120.615C561.281 106.937 558.494 92.7883 547.662 80.8471C535.413 67.2848 513.69 58.6782 490.701 55.5443C462.639 51.7235 433.544 55.3667 406.758 61.2871C380.949 66.9837 356.52 75.0343 332.057 82.8614C285.384 97.798 233.659 112.965 180.565 106.659C168.116 105.235 156.117 102.427 145.072 98.3538C134.216 94.2855 124.65 88.9358 115.64 83.2472C98.0502 72.1172 82.0859 59.4578 61.0479 51.0364C39.0204 42.291 13.3291 38.5163 -12.1904 40.2763H-12.3065V44.1821C3.06081 43.0628 18.61 44.0371 33.392 47.0457Z" fill="#BEF0ED"/>
<path d="M64.2525 105.324C119.797 119.117 180.96 106.095 222.49 92.7261C243.865 85.8568 264.682 77.6979 284.815 69.8087C310.88 59.5966 337.839 49.0449 366.192 41.187C393.86 33.5222 464.079 18.2774 518.288 42.1287C549.45 55.8529 571.115 81.1707 582.679 117.38C583.759 120.785 584.746 124.235 585.698 127.685H586.859C585.895 124.181 584.897 120.684 583.794 117.218C572.183 80.8083 550.333 55.328 518.903 41.4881C464.253 17.4283 393.592 32.7657 365.751 40.4769C337.329 48.3502 310.334 58.9174 284.246 69.145C264.125 77.0261 243.331 85.1698 222.003 92.0319C180.67 105.331 119.831 118.276 64.6705 104.605C45.0142 99.7196 27.0761 91.6604 9.74184 83.8649C2.52018 80.615 -4.80596 77.3345 -12.3179 74.2546V75.1584C-5.04978 78.161 2.04416 81.3325 9.06843 84.5051C26.4724 92.3251 44.4569 100.414 64.2525 105.324Z" fill="#FFE850"/>
</g>
</g>
</svg>
