<svg width="141" height="183" viewBox="0 0 141 183" fill="none" xmlns="http://www.w3.org/2000/svg">
<path d="M137.301 17.2833L141 19.4666V96.3759C141 100.003 138.534 104.405 135.453 106.237L9.2105 181.209C7.6698 182.124 6.2659 182.195 5.273 181.596L1.6094 179.413C0.616302 178.813 0 177.546 0 175.715V98.8058L137.301 17.2833Z" fill="white"/>
<path d="M7.4817 183C8.3957 183 9.3436 182.717 10.3253 182.118L135.144 106.958C138.428 104.982 141 100.322 141 96.3678V19.2674C141 18.985 140.865 18.7025 140.594 18.5614L136.938 16.3726C136.701 16.2314 136.396 16.2314 136.16 16.3726L0.4062 98.0977C0.1693 98.2389 0 98.5212 0 98.8037V175.904C0 177.987 0.710999 179.54 1.9973 180.316L5.6197 182.506C5.6536 182.506 5.6874 182.54 5.6874 182.54C6.2291 182.859 6.8385 183 7.4817 183ZM139.409 19.7264V96.3678C139.409 99.7216 137.141 103.851 134.331 105.511L9.5129 180.704C8.328 181.411 7.1769 181.552 6.3983 181.093C6.3644 181.093 6.3307 181.058 6.3307 181.058L2.776 178.94C1.9973 178.481 1.5572 177.423 1.5572 175.975V99.2979L136.566 18.0319L139.409 19.7264Z" fill="#171753"/>
<path d="M141 19.3167V96.2914C141 99.9217 138.54 104.327 135.467 106.16L9.5333 181.196C6.4934 183.029 4 181.548 4 177.919V100.909L141 19.3167Z" fill="white"/>
<path d="M6.8438 183C7.7622 183 8.7146 182.682 9.701 182.117L135.116 106.886C138.415 104.909 141 100.244 141 96.2861V19.1127C141 18.83 140.864 18.5473 140.592 18.406C140.354 18.2646 140.047 18.2646 139.81 18.406L3.4083 100.208C3.1701 100.35 3 100.632 3 100.915V178.088C3 179.536 3.3402 180.738 4.0204 181.587C4.7008 182.506 5.6873 183 6.8438 183ZM139.401 20.5261V96.2861C139.401 99.6429 137.123 103.777 134.299 105.438L8.8847 180.703C8.1363 181.127 7.422 181.374 6.8098 181.374C6.1635 181.374 5.6192 181.127 5.245 180.632C4.8028 180.067 4.5648 179.219 4.5648 178.159V101.409L139.401 20.5261Z" fill="#171753"/>
<path d="M5.5126 76.2399L131.756 1.78589C133.296 0.876632 134.7 0.806689 135.692 1.4012L139.356 3.56943C140.384 4.16395 141 5.42291 141 7.20645V19.6912L3.6979 100.65L0 98.4818V85.997C0 82.4298 2.4653 78.0584 5.5126 76.2399Z" fill="#5ED9D1"/>
<path d="M4.4348 101.667C4.5702 101.667 4.7057 101.631 4.8411 101.561L140.594 20.2539C140.83 20.1134 141 19.8326 141 19.5518V7.01873C141 4.98255 140.288 3.43785 139.002 2.66551L135.38 0.488895C135.346 0.453788 135.313 0.453788 135.278 0.453788C134.026 -0.283452 132.367 -0.107918 130.674 0.875069L5.8567 75.6171C2.5729 77.5831 0 82.2172 0 86.1492V98.6822C0 98.963 0.1354 99.2439 0.4063 99.3843L4.0624 101.561C4.164 101.631 4.2994 101.667 4.4348 101.667ZM139.408 19.0954L4.4348 99.911L1.5911 98.1908V86.1492C1.5911 82.814 3.8593 78.7066 6.6691 77.0565L131.487 2.27934C132.672 1.5772 133.823 1.43677 134.601 1.89316C134.635 1.92827 134.669 1.92827 134.703 1.96338L138.224 4.06978C139.002 4.56127 139.408 5.57936 139.408 7.01873V19.0954Z" fill="#171753"/>
<path d="M20 91.0752L3.6924 100.65L0 98.4913V86.0615C0 84.2162 0.683799 82.1272 1.7436 80.3167L20 91.0752Z" fill="#171753"/>
<path d="M4.3791 101.667C4.5119 101.667 4.6445 101.631 4.7772 101.559L20.6018 91.7816C20.8341 91.6394 21 91.3549 21 91.0706C21 90.786 20.8673 90.5016 20.6018 90.3594L2.8863 79.4081C2.5213 79.1947 2.0568 79.3013 1.8246 79.6925C0.6635 81.7547 0 83.9948 0 85.986V98.6796C0 98.964 0.1327 99.2485 0.3981 99.3907L3.981 101.595C4.1137 101.631 4.2464 101.667 4.3791 101.667ZM18.6777 91.0349L4.3791 99.8884L1.5924 98.1462V85.9503C1.5924 84.4926 2.0237 82.8214 2.8199 81.2214L18.6777 91.0349Z" fill="#171753"/>
<path d="M4 100.65V88.1466C4 84.5392 6.4593 80.1613 9.5333 78.3401L135.467 3.8104C138.507 2.02422 141 3.49519 141 7.06756V19.5709L4 100.65Z" fill="#5ED9D1"/>
<path d="M3.7824 101.667C3.9185 101.667 4.0545 101.631 4.1905 101.56L140.592 20.1388C140.83 19.9982 141 19.7169 141 19.4357V6.88491C141 3.93177 139.504 2.03333 137.157 2.03333C136.238 2.03333 135.285 2.31458 134.299 2.91224L8.8847 77.76C5.5852 79.7287 3 84.3694 3 88.3068V100.858C3 101.139 3.1361 101.42 3.4083 101.56C3.5102 101.631 3.6463 101.667 3.7824 101.667ZM139.401 18.9786L4.5987 99.4162V88.3068C4.5987 84.967 6.8777 80.8538 9.701 79.2014L135.116 4.35365C135.864 3.93177 136.545 3.68569 137.191 3.68569C138.585 3.68569 139.436 4.881 139.436 6.92006V18.9786H139.401Z" fill="#171753"/>
<path d="M13.9208 88.173C14.9841 87.5364 15.8417 86.0159 15.8417 84.7428C15.8417 83.4696 14.9841 82.9746 13.9208 83.6112C12.8575 84.2476 12 85.7682 12 87.0414C12 88.3145 12.8575 88.8096 13.9208 88.173ZM23.0791 80.4284C23.0791 79.1553 23.9366 77.6347 25 76.9981C26.0633 76.3615 26.9208 76.8921 26.9208 78.1298C26.9208 79.3675 26.0633 80.9235 25 81.56C23.9366 82.1966 23.0791 81.7016 23.0791 80.4284ZM34.1582 73.8507C34.1582 72.5777 35.0158 71.0571 36.0791 70.4205C37.1424 69.7841 38 70.3145 38 71.5522C38 72.8252 37.1424 74.3459 36.0791 74.9824C35.0501 75.6189 34.1582 75.0885 34.1582 73.8507Z" fill="#171753"/>
<path d="M12.809 89.4667C13.2109 89.4667 13.613 89.3226 14.0484 89.0707C15.3214 88.2788 16.3263 86.4069 16.3263 84.8591C16.3263 83.0233 14.7854 82.0154 13.2779 82.9513C12.005 83.7432 11 85.615 11 87.1989C11 87.8468 11.1675 88.3868 11.4691 88.7828C11.7705 89.2146 12.273 89.4667 12.809 89.4667ZM14.4839 84.2472C14.7184 84.2472 14.7519 84.6792 14.7519 84.8591C14.7519 85.831 14.0484 87.1269 13.2444 87.6308C12.7419 87.9548 12.7084 87.7747 12.6414 87.7387C12.6079 87.7029 12.541 87.5589 12.541 87.1989C12.541 86.2271 13.2444 84.9311 14.0484 84.4272C14.2829 84.2831 14.4169 84.2472 14.4839 84.2472ZM23.6291 82.7353C24.031 82.7353 24.433 82.5914 24.8685 82.3393C26.1414 81.5476 27.1464 79.6757 27.1464 78.1278C27.1464 76.2921 25.6055 75.2841 24.098 76.22C22.8251 77.012 21.8201 78.8837 21.8201 80.4675C21.8201 81.1156 21.9876 81.6554 22.2891 82.0514C22.5906 82.5194 23.0931 82.7353 23.6291 82.7353ZM25.3375 77.516C25.5719 77.516 25.6055 77.9478 25.6055 78.1278C25.6055 79.0997 24.902 80.3956 24.098 80.8995C23.8635 81.0435 23.7296 81.0796 23.6626 81.0796C23.5621 81.0796 23.5286 81.0435 23.5286 81.0075C23.4951 80.9716 23.428 80.8275 23.428 80.4675C23.428 79.4956 24.1315 78.1999 24.9355 77.6958C25.103 77.5518 25.237 77.516 25.3375 77.516ZM34.4826 76.0401C34.8846 76.0401 35.2866 75.896 35.7221 75.6441C36.9951 74.8522 38 72.9804 38 71.3965C38 69.5607 36.459 68.5528 34.9516 69.4888C33.6786 70.2806 32.6736 72.1524 32.6736 73.7363C32.6401 75.1042 33.3771 76.0401 34.4826 76.0401ZM36.1575 70.8206C36.3921 70.8206 36.4256 71.2526 36.4256 71.4325C36.4256 72.4045 35.7221 73.7003 34.9181 74.2043C34.6836 74.3482 34.5496 74.3842 34.4826 74.3842C34.2481 74.3842 34.2147 73.9522 34.2147 73.7723C34.2147 72.8003 34.9181 71.5046 35.7221 71.0005C35.9231 70.8206 36.0905 70.8206 36.1575 70.8206Z" fill="#171753"/>
<path d="M131.229 42.7C131.094 42.7 130.959 42.7353 130.823 42.806L92.13 66.1326C91.759 66.3447 91.623 66.8748 91.826 67.2637C92.029 67.6525 92.536 67.7938 92.909 67.5817L131.602 44.2551C131.973 44.043 132.109 43.5129 131.906 43.1242C131.77 42.8767 131.5 42.7 131.229 42.7ZM107.723 50.2989C107.587 50.2989 107.452 50.3341 107.317 50.4048L77.113 68.642C76.741 68.8541 76.605 69.3844 76.808 69.773C77.011 70.1618 77.519 70.3032 77.891 70.0911L108.094 51.854C108.467 51.6419 108.602 51.1117 108.399 50.7229C108.264 50.4402 107.993 50.2989 107.723 50.2989ZM116.99 57.8976C116.854 57.8976 116.719 57.9329 116.584 58.0037L95.784 70.5507C95.411 70.7626 95.276 71.2928 95.479 71.6816C95.682 72.0704 96.189 72.2118 96.561 71.9997L117.362 59.4527C117.734 59.2408 117.869 58.7106 117.666 58.3218C117.531 58.039 117.295 57.8976 116.99 57.8976ZM116.99 64.4715C116.854 64.4715 116.719 64.5069 116.584 64.5776L87.43 82.1786C87.057 82.3907 86.922 82.9209 87.125 83.3095C87.328 83.6983 87.835 83.8398 88.207 83.6276L117.362 66.0266C117.734 65.8145 117.869 65.2844 117.666 64.8957C117.531 64.6129 117.26 64.4715 116.99 64.4715ZM131.229 69.0309C131.094 69.0309 130.959 69.0662 130.823 69.1369L92.13 92.4635C91.759 92.6756 91.623 93.2058 91.826 93.5945C92.029 93.9833 92.536 94.1246 92.909 93.9126L131.602 70.5859C131.973 70.3739 132.109 69.8438 131.906 69.4549C131.77 69.1723 131.5 69.0309 131.229 69.0309ZM86.177 69.9144C86.042 69.9144 85.907 69.9498 85.772 70.0205L78.805 74.2263C78.432 74.4384 78.297 74.9685 78.5 75.3574C78.703 75.7461 79.21 75.8875 79.582 75.6754L86.583 71.4342C86.956 71.2221 87.091 70.692 86.888 70.3031C86.719 70.0558 86.448 69.9144 86.177 69.9144ZM70.383 72.8479C70.248 72.8479 70.112 72.8832 69.977 72.954L51.1376 84.2993C50.7656 84.5112 50.6302 85.0414 50.8332 85.4302C51.0361 85.819 51.5434 85.9604 51.9155 85.7483L70.755 74.403C71.126 74.191 71.262 73.6609 71.059 73.2721C70.923 72.9892 70.654 72.8479 70.383 72.8479ZM88.308 75.1806C88.173 75.1806 88.038 75.2159 87.902 75.2866L61.927 90.9438C61.555 91.1559 61.4197 91.6859 61.6225 92.0748C61.8255 92.4635 62.3328 92.6049 62.7049 92.3928L88.681 76.7357C89.052 76.5236 89.188 75.9935 88.985 75.6047C88.849 75.3573 88.579 75.1806 88.308 75.1806ZM107.723 76.6296C107.587 76.6296 107.452 76.6651 107.317 76.7357L77.113 94.9729C76.741 95.185 76.605 95.7151 76.808 96.1039C77.011 96.4926 77.519 96.6341 77.891 96.4221L108.094 78.1847C108.467 77.9727 108.602 77.4426 108.399 77.0538C108.264 76.771 108.027 76.6296 107.723 76.6296ZM72.344 78.2201C72.209 78.2201 72.073 78.2555 71.938 78.3262L57.4962 87.0207C57.1241 87.2326 56.9889 87.7628 57.1918 88.1516C57.3948 88.5405 57.9021 88.6818 58.2741 88.4697L72.717 79.7752C73.088 79.5631 73.224 79.033 73.021 78.6443C72.885 78.3968 72.615 78.2201 72.344 78.2201ZM116.99 84.1932C116.854 84.1932 116.719 84.2285 116.584 84.2992L95.817 96.8814C95.445 97.0935 95.31 97.6237 95.513 98.0125C95.716 98.4012 96.223 98.5427 96.595 98.3306L117.396 85.7836C117.768 85.5715 117.904 85.0414 117.701 84.6525C117.531 84.3699 117.26 84.1932 116.99 84.1932ZM80.259 86.6318C80.124 86.6318 79.988 86.6673 79.853 86.7378L68.6239 93.5239C68.2513 93.736 68.116 94.266 68.319 94.6548C68.522 95.0436 69.03 95.185 69.402 94.9729L80.631 88.187C81.003 87.9749 81.139 87.4447 80.936 87.0559C80.8 86.7733 80.53 86.6318 80.259 86.6318ZM44.7114 88.3284C44.576 88.3284 44.4407 88.3637 44.3054 88.4344L34.4969 94.3367C34.1249 94.5488 33.9896 95.079 34.1925 95.4676C34.3954 95.8565 34.9028 95.9978 35.2748 95.7858L45.0834 89.8835C45.4554 89.6714 45.5907 89.1413 45.3877 88.7525C45.2525 88.4697 44.9819 88.3284 44.7114 88.3284ZM116.99 90.8024C116.854 90.8024 116.719 90.8377 116.584 90.9084L87.43 108.509C87.057 108.722 86.922 109.252 87.125 109.64C87.328 110.03 87.835 110.171 88.207 109.959L117.362 92.3575C117.734 92.1454 117.869 91.6153 117.666 91.2265C117.531 90.9438 117.295 90.8024 116.99 90.8024ZM50.9347 91.1559C50.7994 91.1559 50.6641 91.1911 50.5288 91.2619L25.3986 106.424C25.0266 106.637 24.8913 107.166 25.0943 107.555C25.2972 107.945 25.8045 108.085 26.1766 107.873L51.3067 92.711C51.6787 92.4989 51.8141 91.9688 51.6111 91.5799C51.4759 91.2972 51.2052 91.1559 50.9347 91.1559ZM56.4139 94.4427C56.2786 94.4427 56.1433 94.4781 56.008 94.5488L48.5671 99.0375C48.195 99.2495 48.0598 99.7796 48.2627 100.168C48.4656 100.557 48.9729 100.699 49.345 100.487L56.7859 95.9978C57.158 95.7858 57.2933 95.2557 57.0903 94.8668C56.9551 94.5842 56.6845 94.4427 56.4139 94.4427ZM131.229 95.3616C131.094 95.3616 130.959 95.3971 130.823 95.4676L92.13 118.794C91.759 119.006 91.623 119.537 91.826 119.925C92.029 120.314 92.536 120.456 92.909 120.244L131.602 96.9168C131.973 96.7047 132.109 96.1745 131.906 95.7858C131.77 95.5031 131.5 95.3616 131.229 95.3616ZM86.177 96.2099C86.042 96.2099 85.907 96.2453 85.772 96.3159L78.805 100.557C78.432 100.769 78.297 101.299 78.5 101.688C78.703 102.076 79.211 102.218 79.582 102.006L86.55 97.8004C86.922 97.5883 87.057 97.0582 86.854 96.6694C86.719 96.3866 86.448 96.2099 86.177 96.2099ZM61.5549 97.9064C61.4197 97.9064 61.2844 97.9417 61.149 98.0125L44.1364 108.262C43.7643 108.474 43.629 109.004 43.8319 109.392C44.0349 109.783 44.5422 109.923 44.9142 109.712L61.927 99.4615C62.299 99.2495 62.4343 98.7193 62.2314 98.3306C62.0961 98.0477 61.8593 97.9064 61.5549 97.9064ZM70.383 99.1788C70.248 99.1788 70.112 99.2141 69.977 99.2848L51.1376 110.63C50.7656 110.842 50.6302 111.372 50.8332 111.76C51.0361 112.15 51.5434 112.291 51.9155 112.079L70.755 100.734C71.126 100.522 71.262 99.9917 71.059 99.6029C70.923 99.3201 70.654 99.1788 70.383 99.1788ZM88.308 101.511C88.173 101.511 88.038 101.546 87.902 101.618L61.927 117.275C61.555 117.487 61.4197 118.018 61.6225 118.406C61.8255 118.794 62.3328 118.936 62.7049 118.723L88.681 103.067C89.052 102.854 89.188 102.323 88.985 101.935C88.849 101.688 88.579 101.511 88.308 101.511ZM107.723 102.961C107.587 102.961 107.452 102.995 107.317 103.067L77.113 121.304C76.741 121.516 76.605 122.046 76.808 122.435C77.011 122.824 77.519 122.965 77.891 122.752L108.094 104.516C108.467 104.303 108.602 103.773 108.399 103.384C108.264 103.102 107.993 102.961 107.723 102.961ZM72.344 104.551C72.209 104.551 72.073 104.587 71.938 104.658L57.4962 113.351C57.1241 113.564 56.9889 114.094 57.1918 114.483C57.3948 114.871 57.9021 115.013 58.2741 114.8L72.717 106.106C73.088 105.894 73.224 105.363 73.021 104.975C72.885 104.728 72.615 104.551 72.344 104.551ZM80.259 112.963C80.124 112.963 79.988 112.998 79.853 113.069L68.6239 119.855C68.2513 120.066 68.116 120.597 68.319 120.985C68.522 121.375 69.03 121.516 69.402 121.304L80.631 114.517C81.003 114.306 81.139 113.775 80.936 113.387C80.8 113.104 80.53 112.963 80.259 112.963ZM44.7114 114.659C44.576 114.659 44.4407 114.694 44.3054 114.764L34.4969 120.667C34.1249 120.88 33.9896 121.41 34.1925 121.799C34.3954 122.188 34.9028 122.329 35.2748 122.116L45.0834 116.214C45.4554 116.003 45.5907 115.472 45.3877 115.084C45.2525 114.8 44.9819 114.659 44.7114 114.659ZM50.9347 117.487C50.7994 117.487 50.6641 117.522 50.5288 117.593L25.3986 132.755C25.0266 132.967 24.8913 133.496 25.0943 133.886C25.2972 134.274 25.8045 134.416 26.1766 134.204L51.3067 119.041C51.6787 118.829 51.8141 118.299 51.6111 117.91C51.4759 117.628 51.2052 117.487 50.9347 117.487ZM56.4139 120.774C56.2786 120.774 56.1433 120.808 56.008 120.88L48.5671 125.368C48.195 125.581 48.0598 126.11 48.2627 126.5C48.4656 126.888 48.9729 127.029 49.345 126.817L56.7859 122.329C57.158 122.116 57.2933 121.586 57.0904 121.198C56.9551 120.914 56.6845 120.774 56.4139 120.774ZM86.177 122.541C86.042 122.541 85.907 122.576 85.772 122.647L78.805 126.888C78.432 127.1 78.297 127.63 78.5 128.019C78.703 128.408 79.211 128.549 79.582 128.337L86.583 124.095C86.956 123.884 87.091 123.354 86.888 122.965C86.719 122.682 86.448 122.541 86.177 122.541ZM61.5888 124.237C61.4535 124.237 61.3182 124.273 61.1829 124.343L44.1702 134.592C43.7981 134.805 43.6629 135.335 43.8657 135.724C44.0687 136.112 44.576 136.254 44.9481 136.042L61.9608 125.792C62.3328 125.581 62.4681 125.05 62.2652 124.662C62.0961 124.379 61.8593 124.237 61.5888 124.237ZM70.383 125.51C70.248 125.51 70.112 125.545 69.977 125.616L51.1376 136.961C50.7656 137.173 50.6302 137.702 50.8332 138.092C51.0361 138.48 51.5434 138.621 51.9155 138.41L70.755 127.064C71.126 126.853 71.262 126.322 71.059 125.933C70.923 125.651 70.654 125.51 70.383 125.51ZM72.344 130.882C72.209 130.882 72.073 130.917 71.938 130.988L57.4962 139.682C57.1241 139.895 56.9889 140.424 57.1918 140.812C57.3948 141.203 57.9021 141.343 58.2741 141.132L72.717 132.436C73.088 132.225 73.224 131.695 73.021 131.306C72.885 131.023 72.615 130.882 72.344 130.882ZM44.7114 140.99C44.576 140.99 44.4407 141.026 44.3054 141.096L34.4969 146.998C34.1249 147.211 33.9896 147.741 34.1925 148.129C34.3954 148.519 34.9028 148.66 35.2749 148.448L45.0834 142.545C45.4554 142.333 45.5907 141.803 45.3877 141.414C45.2525 141.132 44.9819 140.99 44.7114 140.99ZM50.9347 143.818C50.7994 143.818 50.6641 143.852 50.5288 143.923L25.3986 159.086C25.0266 159.297 24.8913 159.828 25.0943 160.216C25.2972 160.605 25.8045 160.747 26.1766 160.535L51.3067 145.373C51.6787 145.161 51.8141 144.63 51.6111 144.242C51.4759 143.958 51.2052 143.818 50.9347 143.818Z" fill="#171753"/>
<path d="M16.5135 103.7C16.2088 103.7 15.8661 103.77 15.5613 103.945C14.6855 104.436 14 105.488 14 106.435C14 107.872 15.409 108.293 16.4373 107.732C17.3131 107.241 17.9986 106.19 17.9986 105.242C17.9986 104.821 17.8845 104.472 17.6178 104.191C17.3893 103.876 16.9704 103.7 16.5135 103.7ZM16.5135 110.222C16.2088 110.222 15.9041 110.291 15.5613 110.467C14.6855 110.922 14 112.009 14 112.957C14 113.552 14.2665 113.902 14.457 114.113C14.952 114.568 15.7137 114.639 16.4373 114.254C17.3131 113.798 17.9986 112.711 17.9986 111.764C17.9986 111.343 17.8845 110.993 17.6178 110.712C17.3893 110.396 16.9704 110.222 16.5135 110.222ZM16.5135 116.743C16.2088 116.743 15.8661 116.813 15.5613 116.988C14.6855 117.443 14 118.531 14 119.478C14 120.914 15.409 121.335 16.4373 120.775C17.3131 120.318 17.9986 119.232 17.9986 118.285C17.9986 117.864 17.8845 117.514 17.6178 117.234C17.3893 116.918 16.9704 116.743 16.5135 116.743ZM16.5135 123.264C16.2088 123.264 15.8661 123.334 15.5613 123.509C14.6855 123.965 14 125.052 14 125.999C14 127.436 15.409 127.857 16.4373 127.296C17.3131 126.84 17.9986 125.753 17.9986 124.806C17.9986 124.386 17.8845 124.034 17.6178 123.755C17.3893 123.44 16.9704 123.264 16.5135 123.264ZM16.5135 129.82C16.2088 129.82 15.8661 129.89 15.5613 130.065C14.6855 130.521 14 131.609 14 132.555C14 133.993 15.409 134.414 16.4373 133.852C17.3131 133.396 17.9986 132.31 17.9986 131.362C17.9986 130.942 17.8845 130.592 17.6178 130.311C17.3893 129.996 16.9704 129.82 16.5135 129.82ZM16.5135 136.342C16.2088 136.342 15.8661 136.411 15.5613 136.587C14.6855 137.078 14 138.129 14 139.077C14 140.515 15.409 140.934 16.4373 140.374C17.3131 139.918 17.9986 138.831 17.9986 137.884C17.9986 137.463 17.8845 137.113 17.6178 136.832C17.3893 136.517 16.9704 136.342 16.5135 136.342ZM16.5135 142.862C16.2088 142.862 15.9041 142.933 15.5613 143.109C14.6855 143.563 14 144.651 14 145.597C14 147.034 15.409 147.455 16.4373 146.894C17.3131 146.439 17.9986 145.352 17.9986 144.406C17.9986 143.985 17.8845 143.635 17.6178 143.354C17.3893 143.038 16.9704 142.862 16.5135 142.862ZM16.5135 149.384C16.2088 149.384 15.8661 149.454 15.5613 149.629C14.6855 150.085 14 151.171 14 152.119C14 153.556 15.371 153.977 16.4373 153.416C17.3131 152.961 17.9986 151.874 17.9986 150.926C17.9986 150.506 17.8845 150.156 17.6178 149.875C17.3893 149.56 16.9704 149.384 16.5135 149.384ZM16.5135 155.906C16.2088 155.906 15.9041 155.975 15.5613 156.151C14.6855 156.607 14 157.693 14 158.64C14 160.077 15.409 160.499 16.4373 159.937C17.3131 159.481 17.9986 158.395 17.9986 157.448C17.9986 157.027 17.8845 156.676 17.6178 156.396C17.3512 156.081 16.9704 155.906 16.5135 155.906ZM16.5135 162.462C16.2088 162.462 15.8661 162.531 15.5613 162.707C14.6855 163.163 14 164.25 14 165.196C14 166.634 15.371 167.055 16.4373 166.494C17.3131 166.038 17.9986 164.951 17.9986 164.005C18.0367 162.988 17.2751 162.462 16.5135 162.462Z" fill="#171753"/>
<path d="M106.752 43.0756L106.771 43.0868L106.79 43.0968L106.841 43.1225C111.394 45.5341 114.523 51.0831 114.954 59.4509C115.37 67.8558 112.943 77.3656 108.65 85.9425C104.357 94.5196 98.236 102.09 91.344 106.655C84.461 111.197 78.235 111.832 73.682 109.477L73.679 109.475L73.643 109.456L63.2214 103.325L63.2024 103.314L63.1828 103.303L63.1385 103.28C63.1385 103.28 63.1351 103.278 63.1333 103.277C58.605 100.866 55.4495 95.3141 55.0464 86.9501L55.0463 86.9491C54.6297 78.5438 57.051 69.0339 61.3403 60.4572C65.6296 51.8804 71.751 44.3106 78.655 39.7445L78.656 39.7443C85.511 35.2039 91.738 34.5672 96.291 36.9238L96.295 36.9253L96.329 36.9434L106.752 43.0756Z" fill="#171753" stroke="#171753" stroke-width="1.52966"/>
<path d="M73 110.817L62.744 104.762L62.6882 104.734C57.7553 102.118 54.4667 96.1776 54.0487 87.5363C53.6585 79.8045 55.6372 71.1915 59.1767 63.2039L59.2603 63.0333L69.823 69.4576C66.2555 77.4452 64.3047 86.0581 64.6949 93.7899C65.085 102.26 68.2345 108.116 73 110.817Z" fill="#FFE850"/>
<path d="M106.752 43.0756L106.771 43.0868L106.79 43.0968L106.841 43.1225C111.394 45.5341 114.523 51.0831 114.954 59.4509C115.37 67.8558 112.943 77.3656 108.65 85.9425C104.357 94.5196 98.236 102.09 91.344 106.655C84.461 111.197 78.235 111.832 73.682 109.477L73.679 109.475L73.643 109.456L63.2214 103.325L63.2024 103.314L63.1828 103.303L63.1385 103.28C63.1385 103.28 63.1351 103.278 63.1333 103.277C58.605 100.866 55.4495 95.3141 55.0464 86.9501L55.0463 86.9491C54.6297 78.5438 57.051 69.0339 61.3403 60.4572C65.6296 51.8804 71.751 44.3106 78.655 39.7445L78.656 39.7443C85.511 35.2039 91.738 34.5672 96.291 36.9238L96.295 36.9253L96.329 36.9434L106.752 43.0756Z" stroke="#171753" stroke-width="1.52966"/>
<path d="M64.0514 91.4877C64.4686 99.907 69.023 107.05 73.592 109.445C78.157 111.839 84.409 111.217 91.324 106.645C98.222 102.074 104.348 94.4974 108.644 85.9129C112.94 77.3282 115.371 67.8099 114.954 59.3974C114.536 50.9781 111.375 45.417 106.81 43.0216C102.247 40.6272 96.086 41.3782 89.102 45.8218C89.102 45.8218 79.205 51.4001 69.965 68.4373C65.7714 76.1707 63.6341 83.0685 64.0514 91.4877Z" fill="white" stroke="#171753" stroke-width="1.52966"/>
<path d="M81.449 91.9817L86.383 95.0213L118.454 30.6811L114.507 28.148L111.547 27.1348L108.586 28.148L107.106 30.1745L84.903 77.2897L76.515 73.2369L73.555 73.7435L71.581 76.7831L72.075 80.8361L81.449 91.9817Z" fill="#FFE850"/>
<path fill-rule="evenodd" clip-rule="evenodd" d="M113.054 28.2663C111.12 27.3733 108.83 28.2119 107.923 30.1676L107.921 30.1711L84.953 79.0825L84.474 80.1023L82.968 78.4475L81.622 76.9672C81.368 76.698 81.067 76.4616 80.733 76.244C80.425 76.0585 79.686 75.6165 78.922 75.16L78.921 75.1589L78.905 75.1499C77.985 74.5994 77.03 74.0287 76.77 73.8711L77.539 72.5374C77.794 72.6921 78.75 73.2636 79.68 73.8195L79.681 73.8203C80.453 74.2817 81.203 74.7307 81.507 74.9135L81.518 74.92L81.529 74.9269C81.964 75.2094 82.399 75.5478 82.781 75.9698L82.855 76.0512L84.071 77.3895L106.575 29.468L106.577 29.465C107.868 26.7323 111.076 25.608 113.743 26.8859L113.801 26.9134L113.853 26.9506C113.943 27.0143 114.031 27.0611 114.119 27.1066L114.139 27.117L114.159 27.1287C114.395 27.2701 114.891 27.5677 115.455 27.9064C116.533 28.5542 117.849 29.3443 118.108 29.494L118.12 29.5009C120.514 30.9465 121.484 34.0256 120.363 36.6585V36.6693L98.887 63.7755M113.054 28.2663C113.201 28.3653 113.335 28.4362 113.419 28.4799C113.661 28.6246 114.144 28.9145 114.692 29.2441C115.752 29.8808 117.073 30.6737 117.36 30.8402C119.124 31.9091 119.825 34.2153 118.926 36.1579L118.869 36.2806L92.35 92.7252L92.347 92.7314L92.344 92.7391C91.8 93.9246 90.704 94.7504 89.395 94.961C89.071 95.0085 88.838 95.0214 88.636 95.0054L88.603 95.0028L88.571 95.0017L88.569 95.0016C88.011 94.9831 87.422 94.7941 86.841 94.4601L86.833 94.4555L86.826 94.4517L86.818 94.4475L86.814 94.4451L86.811 94.4439C86.374 94.2034 83.596 92.5316 82.914 92.1202L82.882 92.101L82.859 92.089L82.858 92.0882C82.571 91.9307 82.262 91.6806 81.968 91.3541L81.427 91.8683L80.815 92.3525L80.837 92.3817L80.86 92.4075C81.244 92.8329 81.683 93.2014 82.149 93.4565L82.152 93.4578L82.153 93.4587L82.154 93.4592C82.822 93.8622 85.638 95.5577 86.103 95.8125L86.105 95.8133M86.108 95.8149C86.847 96.239 87.669 96.5219 88.518 96.5506L88.521 96.5508L86.103 95.8125L86.681 94.3698L88.547 96.2015L88.521 96.5508" fill="#171753"/>
<path d="M113.602 32.8778L113.604 32.8742C114.711 30.4887 117.521 29.504 119.844 30.6555C122.153 31.8006 123.13 34.7109 121.992 37.1129L121.99 37.1153L95.411 93.7469L95.408 93.753C94.752 95.183 93.435 96.1636 91.889 96.4111C91.534 96.4634 91.239 96.4839 90.959 96.4617L90.946 96.4608C89.736 96.3872 88.604 95.8488 87.779 94.9229L87.778 94.922L77.756 83.7093L77.755 83.709C76.004 81.752 76.123 78.6911 78.016 76.8804C79.905 75.0739 82.857 75.1946 84.606 77.1494C84.606 77.1496 84.606 77.1493 84.606 77.1494L89.22 82.3156L89.972 83.1581L90.455 82.1288L113.602 32.8778Z" fill="#FFEE81"/>
<path fill-rule="evenodd" clip-rule="evenodd" d="M119.516 31.3534C117.561 30.3846 115.208 31.2182 114.286 33.2074L114.274 33.2335L114.271 33.2388L90.168 84.5249L88.663 82.8394L84.051 77.6737C82.584 76.0346 80.112 75.935 78.531 77.4474C76.957 78.9527 76.843 81.4893 78.266 83.134L88.31 94.3709L88.311 94.3722L88.336 94.3998C89.025 95.1731 89.971 95.6252 90.99 95.6873L90.994 95.6875L91.018 95.689C91.219 95.705 91.453 95.6922 91.777 95.6446C93.086 95.4337 94.181 94.608 94.725 93.4227L94.729 93.4144L94.733 93.4062L121.347 36.6998C122.25 34.693 121.42 32.2977 119.516 31.3534ZM112.936 32.5139C114.234 29.7519 117.489 28.6277 120.172 29.9576C122.862 31.2918 123.989 34.6696 122.671 37.4518L122.634 37.5295L122.633 37.531L96.086 94.0939C95.316 95.7613 93.784 96.8922 92.005 97.1768L91.996 97.1782C91.615 97.2343 91.26 97.2624 90.906 97.2348C90.904 97.2346 90.903 97.2345 90.901 97.2344L90.898 97.2342C89.511 97.1492 88.206 96.5349 87.248 95.4747L87.246 95.4731L77.341 84.391L77.199 84.2332C75.168 81.9621 75.305 78.4139 77.502 76.3132C79.698 74.2128 83.13 74.3546 85.162 76.6251L89.776 81.7915L112.934 32.5167L112.936 32.5139Z" fill="#171753"/>
<path fill-rule="evenodd" clip-rule="evenodd" d="M72.455 74.0938C73.994 72.4444 76.549 71.4966 78.479 73.1481L77.512 74.339C76.482 73.4573 74.843 73.7761 73.545 75.1664C72.309 76.4902 71.715 78.5006 72.698 80.3912L82.513 91.9798L81.373 92.997L71.453 81.2836L71.415 81.2127C69.982 78.5634 70.868 75.7937 72.455 74.0938Z" fill="#171753"/>
</svg>
