<svg width="599" height="124" viewBox="0 0 599 124" fill="none" xmlns="http://www.w3.org/2000/svg">
<path d="M0 18C0 9.1634 7.07007 2 15.7915 2H582.313C591.035 2 598.104 9.1634 598.104 18V123.83H0V18Z" fill="white"/>
<path opacity="0.5" d="M0 18.0223C0 9.1734 7.06883 2 15.7888 2H582.211C590.932 2 598 9.1734 598 18.0223V124H0V18.0223Z" fill="#9BE7C4"/>
<mask id="mask0_5_105" style="mask-type:alpha" maskUnits="userSpaceOnUse" x="0" y="0" width="598" height="124">
<path d="M582.211 0H15.7888C7.06888 0 0 7.16344 0 16V107.57C0 116.407 7.06888 123.57 15.7888 123.57H582.211C590.931 123.57 598 116.407 598 107.57V16C598 7.16344 590.931 0 582.211 0Z" fill="#F5F5F5"/>
</mask>
<g mask="url(#mask0_5_105)">
<path opacity="0.8" d="M569.133 18.8385L555.383 16.8144C502.489 8.97953 447.803 0.88243 397.806 12.8546C367.976 19.9979 343.258 33.74 319.361 47.0315C299.607 58.0217 279.169 69.3887 255.768 77.1217C208.985 92.5907 152.854 92.4667 109.177 90.6327C98.0739 90.1687 86.8247 89.5627 75.9176 88.9777C37.7671 86.9357 -1.67841 84.8017 -40.0405 88.3207C-41.7803 88.4747 -43.4938 88.6507 -45.2274 88.8247L-48.5938 88.5537C-45.8656 88.2377 -43.0599 87.9407 -40.1789 87.6757C-1.71417 84.1517 37.7927 86.2837 76.0034 88.3307C86.9005 88.9147 98.1598 89.5217 109.262 89.9917C152.809 91.8157 208.755 91.9437 255.382 76.5477C278.664 68.8504 299.055 57.5128 318.773 46.5461C342.749 33.2215 367.515 19.4376 397.527 12.2501C447.732 0.20313 502.576 8.32603 555.605 16.198C560.22 16.884 564.803 17.5587 569.355 18.2221C590.285 21.2631 613.408 24.0167 636.672 24.8L636.545 25.4438C613.235 24.6371 590.093 21.882 569.133 18.8385Z" fill="#5ED9D1"/>
<mask id="mask1_5_105" style="mask-type:luminance" maskUnits="userSpaceOnUse" x="-13" y="28" width="620" height="100">
<path d="M606.469 28.4137H-12.217V127.242H606.469V28.4137Z" fill="white"/>
</mask>
<g mask="url(#mask1_5_105)">
<path d="M34.9722 46.8826C59.9694 51.7902 79.152 62.2669 97.3151 73.9437C114.772 85.1587 132.084 96.9737 154.863 103.797C201.728 117.866 256.771 110.72 302.677 98.6737C353.967 85.1977 402.187 64.9207 457.612 59.0055C484.803 56.1056 513.961 57.4671 537.591 67.2438C557.218 75.3127 567.864 88.1047 572.288 102.474C574.805 110.643 575.669 118.943 576.353 127.243H582.287C582.095 124.889 581.903 122.543 581.64 120.197C580.081 106.566 577.203 92.4667 566.018 80.5667C553.369 67.0515 530.937 58.4747 507.199 55.3517C478.221 51.5441 448.176 55.1748 420.518 61.0747C393.866 66.7515 368.641 74.7747 343.38 82.5737C295.184 97.4587 241.773 112.574 186.946 106.289C174.091 104.871 161.701 102.073 150.295 98.0127C139.085 93.9587 129.206 88.6277 119.903 82.9587C101.74 71.8667 85.2544 59.2516 63.5301 50.8595C40.7841 42.1443 14.2548 38.3828 -12.0971 40.1366H-12.217V44.0289C3.65156 42.9135 19.7079 43.8845 34.9722 46.8826Z" fill="#9BE7C4"/>
<path d="M66.8393 104.959C124.195 118.704 187.353 105.728 230.239 92.4047C252.31 85.5587 273.808 77.4277 294.597 69.5667C321.512 59.39 349.351 48.8749 378.629 41.0443C407.198 33.406 479.708 18.214 535.685 41.9827C567.864 55.6593 590.236 80.8897 602.177 116.974C603.292 120.366 604.311 123.804 605.294 127.243H606.493C605.498 123.75 604.467 120.266 603.327 116.812C591.339 80.5277 568.776 55.1363 536.321 41.3442C479.888 17.3678 406.922 32.6521 378.173 40.3366C348.823 48.1826 320.948 58.7131 294.009 68.9052C273.231 76.7587 251.76 84.8737 229.735 91.7127C187.054 104.966 124.231 117.866 67.271 104.243C46.9734 99.3737 28.4502 91.3427 10.5505 83.5737C3.09326 80.3357 -4.47187 77.0667 -12.2288 73.9977V74.8977C-4.72364 77.8897 2.60171 81.0507 9.85516 84.2127C27.8267 92.0047 46.3979 100.066 66.8393 104.959Z" fill="#49CE8B"/>
</g>
</g>
<path d="M83.1603 74.1415L79.3347 75.1295L80.0922 78.1415H83.1603V74.1415ZM77.2858 50.7815V46.7815H72.2059L73.4602 51.7691L77.2858 50.7815ZM81.9285 50.7815L85.7693 49.8561L85.0478 46.7815H81.9285V50.7815ZM86.6976 71.1015L84.6921 74.5465L92.6851 79.3235L90.5384 70.1761L86.6976 71.1015ZM85.4658 70.3655V66.3655H71L83.4604 73.8105L85.4658 70.3655ZM88.6241 70.3655L90.453 73.9105L88.6241 66.3655V70.3655ZM87.2345 71.1015L83.3603 70.332L81.7791 78.5045L89.0633 74.6465L87.2345 71.1015ZM90.9929 51.6775V47.6775H87.7439L87.1187 50.908L90.9929 51.6775ZM94.846 51.6775L98.709 52.5027L99.7129 47.6775H94.846V51.6775ZM90.1717 74.1415V78.1415H93.374L94.0347 74.9665L90.1717 74.1415ZM96.9305 74.1415L93.0825 75.0355L93.7855 78.1415H96.9305V74.1415ZM91.8456 51.6775V47.6775H86.8898L87.9976 52.5717L91.8456 51.6775ZM95.8567 51.6775L99.7077 50.7969L99.0128 47.6775H95.8567V51.6775ZM100.184 71.1015L98.3215 74.6285L105.936 78.7555L104.035 70.2209L100.184 71.1015ZM98.8255 70.3655V66.3655L96.9634 73.8925L98.8255 70.3655ZM101.921 70.3655L103.965 73.7875L116.067 66.3655H101.921V70.3655ZM100.72 71.1015L96.8565 70.2815L94.9944 79.2885L102.765 74.5235L100.72 71.1015ZM104.921 50.7815V46.7815H101.714L101.057 49.9615L104.921 50.7815ZM109.311 50.7815L113.161 51.6684L114.257 46.7815H109.311V50.7815ZM104.068 74.1415V78.1415H107.219L107.918 75.0285L104.068 74.1415ZM86.986 73.1535L81.1115 49.7939L73.4602 51.7691L79.3347 75.1295L86.986 73.1535ZM77.2858 54.7815H81.9285V46.7815H77.2858V54.7815ZM78.0877 51.7069L82.8568 72.0265L90.5384 70.1761L85.7693 49.8561L78.0877 51.7069ZM88.703 67.656L87.4713 66.92L83.4604 73.8105L84.6921 74.5465L88.703 67.656ZM85.4658 74.3655H88.6241V66.3655H85.4658V74.3655ZM86.7953 66.8206L85.4056 67.5566L89.0633 74.6465L90.453 73.9105L86.7953 66.8206ZM91.1086 71.8715L94.867 52.447L87.1187 50.908L83.3603 70.332L91.1086 71.8715ZM90.9929 55.6775H94.846V47.6775H90.9929V55.6775ZM90.983 50.8523L86.3087 73.3165L94.0347 74.9665L98.709 52.5027L90.983 50.8523ZM90.1717 70.1415H83.1603V78.1415H90.1717V70.1415ZM100.778 73.2475L95.6936 50.7833L87.9976 52.5717L93.0825 75.0355L100.778 73.2475ZM91.8456 55.6775H95.8567V47.6775H91.8456V55.6775ZM92.0057 52.5581L96.3326 71.9825L104.035 70.2209L99.7077 50.7969L92.0057 52.5581ZM102.046 67.5744L100.687 66.8384L96.9634 73.8925L98.3215 74.6285L102.046 67.5744ZM98.8255 74.3655H101.921V66.3655H98.8255V74.3655ZM99.8764 66.9435L98.6762 67.6795L102.765 74.5235L103.965 73.7875L99.8764 66.9435ZM104.585 71.9215L108.785 51.6015L101.057 49.9615L96.8565 70.2815L104.585 71.9215ZM104.921 54.7815H109.311V46.7815H104.921V54.7815ZM105.461 49.8946L100.219 73.2545L107.918 75.0285L113.161 51.6684L105.461 49.8946ZM104.068 70.1415H96.9305V78.1415H104.068V70.1415ZM112.549 74.1415H108.601V78.1415H112.549V74.1415ZM112.549 50.7815V46.7815H108.601V50.7815H112.549ZM116.939 50.7815H120.887V46.7815H116.939V50.7815ZM116.939 64.4135V68.4135H120.887V64.4135H116.939ZM116.181 64.4135H112.233V68.4135H116.181V64.4135ZM118.802 57.1815L116.508 53.9266L116.49 53.9399L116.471 53.9534L118.802 57.1815ZM128.309 74.1415V78.1415H132.257V74.1415H128.309ZM123.919 74.1415H119.971V78.1415H123.919V74.1415ZM122.971 61.1815L120.133 63.9616L120.156 63.986L120.18 64.0099L122.971 61.1815ZM117.918 61.3095L115.043 58.568L115.041 58.5708L117.918 61.3095ZM116.939 74.1415V78.1415H120.887V74.1415H116.939ZM116.497 74.1415V50.7815H108.601V74.1415H116.497ZM112.549 54.7815H116.939V46.7815H112.549V54.7815ZM112.991 50.7815V64.4135H120.887V50.7815H112.991ZM116.939 60.4135H116.181V68.4135H116.939V60.4135ZM120.129 64.4135C120.129 62.9815 120.313 61.9966 120.549 61.3483L113.14 58.5827C112.492 60.3664 112.233 62.3468 112.233 64.4135H120.129ZM120.549 61.3483C120.776 60.7241 121.011 60.5003 121.133 60.4096L116.471 53.9534C114.867 55.1427 113.797 56.7749 113.14 58.5827L120.549 61.3483ZM121.097 60.4364C121.166 60.3867 121.426 60.2215 122.15 60.2215V52.2215C120.18 52.2215 118.208 52.6963 116.508 53.9266L121.097 60.4364ZM122.15 60.2215H122.34V52.2215H122.15V60.2215ZM122.34 60.2215C123.285 60.2215 123.497 60.4838 123.634 60.6695L129.951 55.8695C128.068 53.3246 125.311 52.2215 122.34 52.2215V60.2215ZM123.634 60.6695C123.927 61.0638 124.361 62.0553 124.361 64.2215H132.257C132.257 61.1824 131.681 58.2059 129.951 55.8695L123.634 60.6695ZM124.361 64.2215V74.1415H132.257V64.2215H124.361ZM128.309 70.1415H123.919V78.1415H128.309V70.1415ZM127.867 74.1415V63.8055H119.971V74.1415H127.867ZM127.867 63.8055C127.867 61.8898 127.295 59.9058 125.763 58.3531L120.18 64.0099C120.135 63.9638 120.09 63.9084 120.052 63.8468C120.013 63.7856 119.989 63.7312 119.975 63.6918C119.946 63.6137 119.971 63.6323 119.971 63.8055H127.867ZM125.81 58.4014C124.342 56.8626 122.445 56.2215 120.539 56.2215V64.2215C120.633 64.2215 120.592 64.2356 120.472 64.1886C120.414 64.1657 120.35 64.1329 120.286 64.0897C120.222 64.0465 120.171 64.0014 120.133 63.9616L125.81 58.4014ZM120.539 56.2215C118.488 56.2215 116.536 56.9607 115.043 58.568L120.793 64.051C120.781 64.0639 120.754 64.09 120.712 64.1199C120.669 64.15 120.622 64.1757 120.576 64.195C120.476 64.236 120.446 64.2215 120.539 64.2215V56.2215ZM115.041 58.5708C113.571 60.1555 112.991 62.1321 112.991 64.0935H120.887C120.887 63.8991 120.914 63.843 120.903 63.8761C120.897 63.8923 120.885 63.9214 120.863 63.9572C120.842 63.9931 120.818 64.0242 120.796 64.0482L115.041 58.5708ZM112.991 64.0935V74.1415H120.887V64.0935H112.991ZM116.939 70.1415H112.549V78.1415H116.939V70.1415ZM143.419 74.1415H139.471V78.1415H143.419V74.1415ZM143.419 68.9895H147.367V64.9895H143.419V68.9895ZM142.693 68.9895H138.745V72.9895H142.693V68.9895ZM135.587 60.4135L135.699 64.4119L135.752 64.4103L135.806 64.4073L135.587 60.4135ZM133.597 60.5095H129.649V64.8054L133.878 64.4993L133.597 60.5095ZM133.597 56.7335L133.255 52.7485L129.649 53.0662V56.7335H133.597ZM137.103 56.5415V60.5415H137.167L137.23 60.5394L137.103 56.5415ZM143.325 57.2135L141.859 60.9274L141.87 60.932L141.882 60.9365L143.325 57.2135ZM145.977 59.4215L142.586 61.4687L142.602 61.4954L142.618 61.5219L145.977 59.4215ZM146.893 74.1415V78.1415H150.841V74.1415H146.893ZM134.608 73.9175L132.907 77.5275L132.923 77.5345L132.939 77.5425L134.608 73.9175ZM132.428 71.9975L129.067 74.0935L129.085 74.1255L129.105 74.1565L132.428 71.9975ZM132.586 65.8535L129.488 63.3749L129.467 63.4007L129.448 63.4268L132.586 65.8535ZM135.208 64.0295L133.898 60.2562L133.887 60.2602L133.875 60.2641L135.208 64.0295ZM143.167 63.4215H147.114V59.4215H143.167V63.4215ZM143.167 66.0775V70.0775H147.114V66.0775H143.167ZM136.787 66.8455L139.46 69.7892L139.464 69.7847L136.787 66.8455ZM136.787 70.6855L134.114 73.6295L134.143 73.6555L134.171 73.6815L136.787 70.6855ZM140.798 71.1015L142.317 74.7935L142.352 74.7785L142.388 74.7625L140.798 71.1015ZM142.093 69.9495L138.788 67.7605L138.779 67.7768L138.768 67.7933L142.093 69.9495ZM142.693 67.7095L145.669 65.081L139.197 57.5588L138.749 67.5279L142.693 67.7095ZM143.767 68.9575L147.7 69.307L147.847 67.6117L146.742 66.329L143.767 68.9575ZM142.882 72.0295L139.482 69.9976L139.462 70.0307L139.444 70.0642L142.882 72.0295ZM140.924 73.9495L142.726 77.5085L142.743 77.5005L142.76 77.4915L140.924 73.9495ZM147.367 74.1415V68.9895H139.471V74.1415H147.367ZM143.419 64.9895H142.693V72.9895H143.419V64.9895ZM146.641 68.9895V63.2615H138.745V68.9895H146.641ZM146.641 63.2615C146.641 61.6713 146.258 59.7128 144.759 58.1931L139.175 63.8499C138.925 63.5964 138.807 63.3406 138.761 63.1981C138.721 63.075 138.745 63.0732 138.745 63.2615H146.641ZM144.759 58.1931C143.245 56.6595 141.286 56.2855 139.724 56.2855V64.2855C139.928 64.2855 139.939 64.312 139.827 64.2748C139.694 64.2314 139.435 64.1136 139.175 63.8499L144.759 58.1931ZM139.724 56.2855C139.149 56.2855 138.478 56.2971 137.717 56.3191L137.942 64.3159C138.655 64.2952 139.247 64.2855 139.724 64.2855V56.2855ZM137.717 56.3191C136.943 56.3415 136.16 56.3751 135.368 56.4197L135.806 64.4073C136.529 64.3666 137.242 64.3361 137.942 64.3159L137.717 56.3191ZM135.474 56.4151C134.694 56.4377 133.973 56.4721 133.316 56.5197L133.878 64.4993C134.4 64.4616 135.006 64.432 135.699 64.4119L135.474 56.4151ZM137.545 60.5095V56.7335H129.649V60.5095H137.545ZM133.939 60.7185C134.395 60.6783 134.918 60.6374 135.511 60.596L134.968 52.615C134.339 52.6589 133.768 52.7034 133.255 52.7485L133.939 60.7185ZM135.511 60.596C136.029 60.5599 136.559 60.5415 137.103 60.5415V52.5415C136.383 52.5415 135.672 52.5658 134.968 52.615L135.511 60.596ZM137.23 60.5394C137.847 60.5193 138.414 60.5095 138.934 60.5095V52.5095C138.319 52.5095 137.664 52.5211 136.975 52.5436L137.23 60.5394ZM138.934 60.5095C140.395 60.5095 141.318 60.7084 141.859 60.9274L144.791 53.4996C143.016 52.7799 141.012 52.5095 138.934 52.5095V60.5095ZM141.882 60.9365C142.332 61.1158 142.49 61.3049 142.586 61.4687L149.37 57.3743C148.287 55.5328 146.676 54.2499 144.768 53.4905L141.882 60.9365ZM142.618 61.5219C142.725 61.6983 142.946 62.2096 142.946 63.3575H150.841C150.841 61.2627 150.451 59.15 149.337 57.3211L142.618 61.5219ZM142.946 63.3575V74.1415H150.841V63.3575H142.946ZM146.893 70.1415H143.419V78.1415H146.893V70.1415ZM137.892 70.5895C137.119 70.5895 136.613 70.4514 136.278 70.2928L132.939 77.5425C134.498 78.2795 136.181 78.5895 137.892 78.5895V70.5895ZM136.308 70.3076C136.009 70.163 135.86 70.0097 135.752 69.8388L129.105 74.1565C130.05 75.6495 131.354 76.7755 132.907 77.5275L136.308 70.3076ZM135.791 69.9011C135.74 69.816 135.618 69.5724 135.618 68.9895H127.722C127.722 70.7533 128.107 72.5155 129.067 74.0935L135.791 69.9011ZM135.618 68.9895C135.618 68.6687 135.657 68.4772 135.685 68.3805C135.699 68.3329 135.711 68.3061 135.717 68.2944C135.72 68.2882 135.722 68.2846 135.723 68.2829C135.724 68.2812 135.725 68.2805 135.725 68.2802L129.448 63.4268C128.191 65.096 127.722 67.0599 127.722 68.9895H135.618ZM135.685 68.3321C135.788 68.1999 136.005 67.9893 136.54 67.7949L133.875 60.2641C132.179 60.8804 130.648 61.8857 129.488 63.3749L135.685 68.3321ZM136.518 67.8027C137.142 67.5805 138.008 67.4215 139.187 67.4215V59.4215C137.336 59.4215 135.548 59.6678 133.898 60.2562L136.518 67.8027ZM139.187 67.4215H143.167V59.4215H139.187V67.4215ZM139.219 63.4215V66.0775H147.114V63.4215H139.219ZM143.167 62.0775H139.124V70.0775H143.167V62.0775ZM139.124 62.0775C137.48 62.0775 135.612 62.5002 134.109 63.9063L139.464 69.7847C139.279 69.9583 139.098 70.042 139 70.0744C138.917 70.1018 138.939 70.0775 139.124 70.0775V62.0775ZM134.114 63.9018C132.698 65.2221 132.049 66.9689 132.049 68.7655H139.945C139.945 68.8262 139.934 69.0016 139.84 69.232C139.741 69.4703 139.598 69.661 139.46 69.7892L134.114 63.9018ZM132.049 68.7655C132.049 70.5621 132.698 72.3085 134.114 73.6295L139.46 67.7418C139.598 67.87 139.741 68.0607 139.84 68.299C139.934 68.5294 139.945 68.7048 139.945 68.7655H132.049ZM134.171 73.6815C135.676 75.0305 137.519 75.4215 139.124 75.4215V67.4215C138.926 67.4215 138.886 67.3964 138.953 67.4177C139.035 67.4435 139.212 67.5184 139.403 67.6895L134.171 73.6815ZM139.124 75.4215C140.196 75.4215 141.278 75.2325 142.317 74.7935L139.28 67.4092C139.29 67.405 139.288 67.4071 139.269 67.4109C139.248 67.4147 139.202 67.4215 139.124 67.4215V75.4215ZM142.388 74.7625C143.689 74.1835 144.7 73.2425 145.418 72.1055L138.768 67.7933C138.781 67.7715 138.826 67.708 138.912 67.6317C139 67.5536 139.102 67.4874 139.208 67.4402L142.388 74.7625ZM145.397 72.1385C146.271 70.7852 146.576 69.2617 146.637 67.8911L138.749 67.5279C138.739 67.7644 138.711 67.8879 138.702 67.9257C138.693 67.9603 138.706 67.8875 138.788 67.7605L145.397 72.1385ZM139.717 70.338L140.791 71.5865L146.742 66.329L145.669 65.081L139.717 70.338ZM139.835 68.608C139.767 69.382 139.6 69.7961 139.482 69.9976L146.283 74.0615C147.134 72.5985 147.557 70.965 147.7 69.307L139.835 68.608ZM139.444 70.0642C139.358 70.219 139.265 70.3146 139.089 70.4079L142.76 77.4915C144.268 76.6885 145.481 75.5045 146.321 73.9945L139.444 70.0642ZM139.123 70.3902C139.002 70.4535 138.648 70.5895 137.892 70.5895V78.5895C139.538 78.5895 141.205 78.2985 142.726 77.5085L139.123 70.3902ZM155.134 73.7575L153.615 77.4495L153.66 77.4685L153.706 77.4865L155.134 73.7575ZM152.86 71.6455L149.343 73.4645L149.351 73.4805L149.359 73.4955L152.86 71.6455ZM152.102 67.6135L148.154 67.6054V67.6135H152.102ZM152.133 51.8695V47.8695H148.193L148.185 51.8614L152.133 51.8695ZM156.239 51.8695L160.187 51.8775L160.195 47.8695H156.239V51.8695ZM156.207 67.9015L152.26 67.8935V67.9015H156.207ZM156.871 69.8855L154.014 72.6475L154.079 72.7145L154.145 72.7785L156.871 69.8855ZM161.513 70.5575H165.461V66.5575H161.513V70.5575ZM161.513 74.3655V78.3655H165.461V74.3655H161.513ZM149.386 60.0295H145.438V64.0295H149.386V60.0295ZM149.386 56.7655V52.7655H145.438V56.7655H149.386ZM161.513 56.7655H165.461V52.7655H161.513V56.7655ZM161.513 60.0295V64.0295H165.461V60.0295H161.513ZM159.05 70.3655C157.767 70.3655 156.987 70.1957 156.561 70.0281L153.706 77.4865C155.343 78.1295 157.174 78.3655 159.05 78.3655V70.3655ZM156.652 70.0652C156.492 69.9977 156.436 69.9445 156.359 69.7952L149.359 73.4955C150.294 75.3095 151.753 76.6635 153.615 77.4495L156.652 70.0652ZM156.375 69.8264C156.26 69.5974 156.05 68.9548 156.05 67.6135H148.154C148.154 69.6429 148.448 71.6885 149.343 73.4645L156.375 69.8264ZM156.05 67.6216L156.081 51.8776L148.185 51.8614L148.154 67.6054L156.05 67.6216ZM152.133 55.8695H156.239V47.8695H152.133V55.8695ZM152.291 51.8615L152.26 67.8935L160.155 67.9095L160.187 51.8775L152.291 51.8615ZM152.26 67.9015C152.26 69.4493 152.673 71.2235 154.014 72.6475L159.726 67.1236C159.932 67.3422 160.053 67.5755 160.112 67.7543C160.166 67.917 160.155 67.9852 160.155 67.9015H152.26ZM154.145 72.7785C155.55 74.1385 157.301 74.5575 158.829 74.5575V66.5575C158.746 66.5575 158.813 66.5458 158.974 66.6009C159.151 66.6615 159.381 66.7834 159.597 66.9921L154.145 72.7785ZM158.829 74.5575H161.513V66.5575H158.829V74.5575ZM157.566 70.5575V74.3655H165.461V70.5575H157.566ZM161.513 70.3655H159.05V78.3655H161.513V70.3655ZM153.333 60.0295V56.7655H145.438V60.0295H153.333ZM149.386 60.7655H161.513V52.7655H149.386V60.7655ZM157.566 56.7655V60.0295H165.461V56.7655H157.566ZM161.513 56.0295H149.386V64.0295H161.513V56.0295ZM182.405 74.1415H178.457V78.1415H182.405V74.1415ZM182.405 68.9895H186.352V64.9895H182.405V68.9895ZM181.678 68.9895H177.73V72.9895H181.678V68.9895ZM174.572 60.4135L174.685 64.4119L174.738 64.4103L174.791 64.4073L174.572 60.4135ZM172.582 60.5095H168.634V64.8054L172.864 64.4993L172.582 60.5095ZM172.582 56.7335L172.241 52.7485L168.634 53.0662V56.7335H172.582ZM176.088 56.5415V60.5415H176.152L176.215 60.5394L176.088 56.5415ZM182.31 57.2135L180.844 60.9274L180.855 60.932L180.867 60.9365L182.31 57.2135ZM184.963 59.4215L181.572 61.4687L181.587 61.4954L181.603 61.5219L184.963 59.4215ZM185.879 74.1415V78.1415H189.827V74.1415H185.879ZM173.593 73.9175L171.892 77.5275L171.908 77.5345L171.924 77.5425L173.593 73.9175ZM171.414 71.9975L168.052 74.0935L168.071 74.1255L168.091 74.1565L171.414 71.9975ZM171.572 65.8535L168.474 63.3749L168.453 63.4007L168.433 63.4268L171.572 65.8535ZM174.193 64.0295L172.883 60.2562L172.872 60.2602L172.861 60.2641L174.193 64.0295ZM182.152 63.4215H186.1V59.4215H182.152V63.4215ZM182.152 66.0775V70.0775H186.1V66.0775H182.152ZM175.772 66.8455L178.445 69.7892L178.45 69.7847L175.772 66.8455ZM175.772 70.6855L173.099 73.6295L173.128 73.6555L173.157 73.6815L175.772 70.6855ZM179.783 71.1015L181.302 74.7935L181.338 74.7785L181.373 74.7625L179.783 71.1015ZM181.078 69.9495L177.774 67.7605L177.764 67.7768L177.753 67.7933L181.078 69.9495ZM181.678 67.7095L184.654 65.081L178.182 57.5588L177.734 67.5279L181.678 67.7095ZM182.752 68.9575L186.685 69.307L186.832 67.6117L185.728 66.329L182.752 68.9575ZM181.868 72.0295L178.468 69.9976L178.448 70.0307L178.429 70.0642L181.868 72.0295ZM179.91 73.9495L181.712 77.5085L181.729 77.5005L181.745 77.4915L179.91 73.9495ZM186.352 74.1415V68.9895H178.457V74.1415H186.352ZM182.405 64.9895H181.678V72.9895H182.405V64.9895ZM185.626 68.9895V63.2615H177.73V68.9895H185.626ZM185.626 63.2615C185.626 61.6713 185.243 59.7128 183.744 58.1931L178.161 63.8499C177.91 63.5964 177.792 63.3406 177.746 63.1981C177.707 63.075 177.73 63.0732 177.73 63.2615H185.626ZM183.744 58.1931C182.23 56.6595 180.272 56.2855 178.709 56.2855V64.2855C178.914 64.2855 178.925 64.312 178.812 64.2748C178.68 64.2314 178.42 64.1136 178.161 63.8499L183.744 58.1931ZM178.709 56.2855C178.134 56.2855 177.463 56.2971 176.702 56.3191L176.927 64.3159C177.64 64.2952 178.233 64.2855 178.709 64.2855V56.2855ZM176.702 56.3191C175.928 56.3415 175.145 56.3751 174.353 56.4197L174.791 64.4073C175.515 64.3666 176.227 64.3361 176.927 64.3159L176.702 56.3191ZM174.459 56.4151C173.68 56.4377 172.958 56.4721 172.301 56.5197L172.864 64.4993C173.386 64.4616 173.992 64.432 174.685 64.4119L174.459 56.4151ZM176.53 60.5095V56.7335H168.634V60.5095H176.53ZM172.925 60.7185C173.381 60.6783 173.904 60.6374 174.496 60.596L173.953 52.615C173.324 52.6589 172.753 52.7034 172.241 52.7485L172.925 60.7185ZM174.496 60.596C175.014 60.5599 175.544 60.5415 176.088 60.5415V52.5415C175.368 52.5415 174.657 52.5658 173.953 52.615L174.496 60.596ZM176.215 60.5394C176.832 60.5193 177.4 60.5095 177.92 60.5095V52.5095C177.304 52.5095 176.65 52.5211 175.961 52.5436L176.215 60.5394ZM177.92 60.5095C179.381 60.5095 180.303 60.7084 180.844 60.9274L183.776 53.4996C182.001 52.7799 179.997 52.5095 177.92 52.5095V60.5095ZM180.867 60.9365C181.317 61.1158 181.475 61.3049 181.572 61.4687L188.355 57.3743C187.272 55.5328 185.662 54.2499 183.754 53.4905L180.867 60.9365ZM181.603 61.5219C181.711 61.6983 181.931 62.2096 181.931 63.3575H189.827C189.827 61.2627 189.437 59.15 188.322 57.3211L181.603 61.5219ZM181.931 63.3575V74.1415H189.827V63.3575H181.931ZM185.879 70.1415H182.405V78.1415H185.879V70.1415ZM176.878 70.5895C176.105 70.5895 175.598 70.4514 175.263 70.2928L171.924 77.5425C173.483 78.2795 175.166 78.5895 176.878 78.5895V70.5895ZM175.293 70.3076C174.994 70.163 174.845 70.0097 174.738 69.8388L168.091 74.1565C169.035 75.6495 170.339 76.7755 171.892 77.5275L175.293 70.3076ZM174.776 69.9011C174.725 69.816 174.604 69.5724 174.604 68.9895H166.708C166.708 70.7533 167.093 72.5155 168.052 74.0935L174.776 69.9011ZM174.604 68.9895C174.604 68.6687 174.642 68.4772 174.671 68.3805C174.685 68.3329 174.696 68.3061 174.702 68.2944C174.705 68.2882 174.707 68.2846 174.708 68.2829C174.709 68.2812 174.71 68.2805 174.71 68.2802L168.433 63.4268C167.177 65.096 166.708 67.0599 166.708 68.9895H174.604ZM174.671 68.3321C174.773 68.1999 174.99 67.9893 175.525 67.7949L172.861 60.2641C171.164 60.8804 169.633 61.8857 168.474 63.3749L174.671 68.3321ZM175.504 67.8027C176.127 67.5805 176.993 67.4215 178.172 67.4215V59.4215C176.321 59.4215 174.534 59.6678 172.883 60.2562L175.504 67.8027ZM178.172 67.4215H182.152V59.4215H178.172V67.4215ZM178.204 63.4215V66.0775H186.1V63.4215H178.204ZM182.152 62.0775H178.109V70.0775H182.152V62.0775ZM178.109 62.0775C176.465 62.0775 174.598 62.5002 173.095 63.9063L178.45 69.7847C178.264 69.9583 178.084 70.042 177.985 70.0744C177.902 70.1018 177.925 70.0775 178.109 70.0775V62.0775ZM173.099 63.9018C171.683 65.2221 171.035 66.9689 171.035 68.7655H178.93C178.93 68.8262 178.92 69.0016 178.825 69.232C178.726 69.4703 178.583 69.661 178.445 69.7892L173.099 63.9018ZM171.035 68.7655C171.035 70.5621 171.683 72.3085 173.099 73.6295L178.445 67.7418C178.583 67.87 178.726 68.0607 178.825 68.299C178.92 68.5294 178.93 68.7048 178.93 68.7655H171.035ZM173.157 73.6815C174.662 75.0305 176.504 75.4215 178.109 75.4215V67.4215C177.911 67.4215 177.871 67.3964 177.939 67.4177C178.02 67.4435 178.197 67.5184 178.389 67.6895L173.157 73.6815ZM178.109 75.4215C179.181 75.4215 180.263 75.2325 181.302 74.7935L178.265 67.4092C178.275 67.405 178.273 67.4071 178.254 67.4109C178.234 67.4147 178.187 67.4215 178.109 67.4215V75.4215ZM181.373 74.7625C182.674 74.1835 183.686 73.2425 184.403 72.1055L177.753 67.7933C177.767 67.7715 177.811 67.708 177.897 67.6317C177.985 67.5536 178.088 67.4874 178.193 67.4402L181.373 74.7625ZM184.382 72.1385C185.256 70.7852 185.561 69.2617 185.622 67.8911L177.734 67.5279C177.724 67.7644 177.697 67.8879 177.687 67.9257C177.678 67.9603 177.692 67.8875 177.774 67.7605L184.382 72.1385ZM178.702 70.338L179.776 71.5865L185.728 66.329L184.654 65.081L178.702 70.338ZM178.82 68.608C178.753 69.382 178.585 69.7961 178.468 69.9976L185.269 74.0615C186.12 72.5985 186.542 70.965 186.685 69.307L178.82 68.608ZM178.429 70.0642C178.343 70.219 178.25 70.3146 178.075 70.4079L181.745 77.4915C183.253 76.6885 184.466 75.5045 185.306 73.9945L178.429 70.0642ZM178.108 70.3902C177.987 70.4535 177.634 70.5895 176.878 70.5895V78.5895C178.523 78.5895 180.191 78.2985 181.712 77.5085L178.108 70.3902ZM190.582 74.1415H186.634V78.1415H190.582V74.1415ZM190.582 56.7655V52.7655H186.634V56.7655H190.582ZM194.056 56.7655H198.004V52.7655H194.056V56.7655ZM194.056 64.1255V68.1255H198.004V64.1255H194.056ZM193.961 64.1255H190.013V68.1255H193.961V64.1255ZM200.815 56.5415H204.762V52.5415H200.815V56.5415ZM200.815 60.4135V64.4135H204.762V60.4135H200.815ZM196.172 61.6295L198.926 64.4954L198.926 64.4944L196.172 61.6295ZM194.972 74.1415V78.1415H198.92V74.1415H194.972ZM194.53 74.1415V56.7655H186.634V74.1415H194.53ZM190.582 60.7655H194.056V52.7655H190.582V60.7655ZM190.108 56.7655V64.1255H198.004V56.7655H190.108ZM194.056 60.1255H193.961V68.1255H194.056V60.1255ZM197.909 64.1255C197.909 62.1162 198.343 61.3009 198.573 61.0222L192.507 55.9008C190.631 58.1821 190.013 61.1428 190.013 64.1255H197.909ZM198.573 61.0222C198.698 60.8703 199.003 60.5415 200.183 60.5415V52.5415C197.278 52.5415 194.488 53.4927 192.507 55.9008L198.573 61.0222ZM200.183 60.5415H200.815V52.5415H200.183V60.5415ZM196.867 56.5415V60.4135H204.762V56.5415H196.867ZM200.815 56.4135H199.614V64.4135H200.815V56.4135ZM199.614 56.4135C197.417 56.4135 195.168 57.035 193.416 58.7646L198.926 64.4944C198.899 64.5216 198.886 64.5164 198.948 64.4946C199.025 64.4671 199.228 64.4135 199.614 64.4135V56.4135ZM193.417 58.7636C191.623 60.5345 191.024 62.8702 191.024 65.0855H198.92C198.92 64.6759 198.975 64.4741 198.996 64.4131C199.01 64.3717 198.996 64.4264 198.926 64.4954L193.417 58.7636ZM191.024 65.0855V74.1415H198.92V65.0855H191.024ZM194.972 70.1415H190.582V78.1415H194.972V70.1415ZM207.418 73.9815L205.763 77.6135L205.776 77.6195L205.789 77.6255L207.418 73.9815ZM204.671 71.9335L201.631 74.4865L201.664 74.5275L201.699 74.5675L204.671 71.9335ZM203.028 69.0215L199.29 70.3091L199.302 70.3428L199.313 70.3764L203.028 69.0215ZM203.028 61.8215L199.305 60.4902L199.298 60.512L199.29 60.5339L203.028 61.8215ZM204.671 58.9415L201.699 56.3075L201.694 56.313L204.671 58.9415ZM207.387 56.9255L209.009 60.5718L209.038 60.5585L209.068 60.5448L207.387 56.9255ZM215.756 57.4055L213.579 60.7424L213.611 60.7639L213.643 60.7848L215.756 57.4055ZM218.599 60.6375L215.034 62.3572L215.039 62.3685L215.045 62.3797L218.599 60.6375ZM219.546 66.5255V70.5255H223.494V66.5255H219.546ZM204.355 66.5255H200.407V70.5255H204.355V66.5255ZM204.355 63.8055V59.8055H200.407V63.8055H204.355ZM216.799 63.8055L219.556 66.667L226.49 59.8055H216.799V63.8055ZM215.44 65.1495H211.493V74.6475L218.198 68.011L215.44 65.1495ZM213.514 60.4775L211.324 63.8057L211.349 63.8224L211.373 63.8387L213.514 60.4775ZM207.103 62.4615L203.469 60.8969L203.459 60.92L203.45 60.9433L207.103 62.4615ZM207.103 68.3815L203.437 69.8671L203.443 69.8834L203.45 69.8997L207.103 68.3815ZM208.65 70.3655L206.392 73.6475L206.425 73.6705L206.46 73.6935L208.65 70.3655ZM213.925 70.4295L216.017 73.8215L216.053 73.7985L216.09 73.7735L213.925 70.4295ZM215.219 68.7975V64.7975H212.281L211.437 67.6481L215.219 68.7975ZM219.262 68.7975L223.122 69.6356L224.145 64.7975H219.262V68.7975ZM215.061 74.0135L213.489 70.3441L213.476 70.3497L213.464 70.3554L215.061 74.0135ZM211.303 70.7495C210.279 70.7495 209.557 70.5722 209.047 70.3377L205.789 77.6255C207.51 78.4145 209.38 78.7495 211.303 78.7495V70.7495ZM209.073 70.3497C208.441 70.0545 207.986 69.6983 207.641 69.2995L201.699 74.5675C202.829 75.8755 204.205 76.8845 205.763 77.6135L209.073 70.3497ZM207.71 69.3802C207.284 68.8615 206.966 68.2961 206.742 67.6666L199.313 70.3764C199.847 71.8805 200.624 73.2565 201.631 74.4865L207.71 69.3802ZM206.766 67.7339C206.545 67.0753 206.439 66.422 206.439 65.7575H198.544C198.544 67.3117 198.795 68.8344 199.29 70.3091L206.766 67.7339ZM206.439 65.7575V65.1495H198.544V65.7575H206.439ZM206.439 65.1495C206.439 64.4255 206.55 63.7518 206.766 63.1091L199.29 60.5339C198.79 62.0246 198.544 63.5695 198.544 65.1495H206.439ZM206.75 63.1528C206.971 62.5192 207.272 62.0042 207.646 61.57L201.694 56.313C200.636 57.5428 199.842 58.9478 199.305 60.4902L206.75 63.1528ZM207.641 61.5755C207.986 61.1762 208.423 60.8395 209.009 60.5718L205.763 53.2792C204.202 53.9928 202.828 55.0001 201.699 56.3075L207.641 61.5755ZM209.068 60.5448C209.526 60.3264 210.175 60.1575 211.114 60.1575V52.1575C209.229 52.1575 207.395 52.5006 205.705 53.3062L209.068 60.5448ZM211.114 60.1575C212.382 60.1575 213.124 60.4379 213.579 60.7424L217.933 54.0686C215.903 52.7091 213.55 52.1575 211.114 52.1575V60.1575ZM213.643 60.7848C214.29 61.1996 214.728 61.7067 215.034 62.3572L222.163 58.9178C221.205 56.8803 219.749 55.2327 217.868 54.0262L213.643 60.7848ZM215.045 62.3797C215.405 63.1345 215.598 63.9648 215.598 64.9255H223.494C223.494 62.8142 223.055 60.7859 222.152 58.8953L215.045 62.3797ZM215.598 64.9255V66.5255H223.494V64.9255H215.598ZM219.546 62.5255H204.355V70.5255H219.546V62.5255ZM208.303 66.5255V63.8055H200.407V66.5255H208.303ZM204.355 67.8055H216.799V59.8055H204.355V67.8055ZM214.04 60.944L212.682 62.288L218.198 68.011L219.556 66.667L214.04 60.944ZM219.388 65.1495C219.388 63.6733 219.18 62.1859 218.624 60.7987L211.308 63.8043C211.384 63.9958 211.493 64.407 211.493 65.1495H219.388ZM218.624 60.7987C218.03 59.3123 217.046 58.0265 215.654 57.1163L211.373 63.8387C211.363 63.8324 211.35 63.822 211.334 63.8074C211.317 63.7928 211.304 63.7782 211.294 63.7656C211.284 63.7532 211.28 63.747 211.283 63.7508C211.285 63.7548 211.294 63.7713 211.308 63.8043L218.624 60.7987ZM215.703 57.1493C214.266 56.1781 212.647 55.8375 211.114 55.8375V63.8375C211.314 63.8375 211.413 63.8599 211.435 63.8658C211.451 63.8701 211.402 63.8585 211.324 63.8057L215.703 57.1493ZM211.114 55.8375C209.532 55.8375 207.921 56.2097 206.484 57.1653L210.816 63.8537C210.783 63.8752 210.769 63.8757 210.797 63.868C210.83 63.8589 210.928 63.8375 211.114 63.8375V55.8375ZM206.484 57.1653C205.072 58.1036 204.089 59.4183 203.469 60.8969L210.736 64.0261C210.788 63.9002 210.827 63.848 210.835 63.8385C210.839 63.8332 210.839 63.8346 210.833 63.8397C210.827 63.8449 210.821 63.8499 210.816 63.8537L206.484 57.1653ZM203.45 60.9433C202.868 62.3794 202.649 63.9264 202.649 65.4695H210.545C210.545 64.6659 210.663 64.2076 210.754 63.9797L203.45 60.9433ZM202.649 65.4695C202.649 66.9746 202.882 68.463 203.437 69.8671L210.767 66.8959C210.648 66.5934 210.545 66.1404 210.545 65.4695H202.649ZM203.45 69.8997C204.06 71.4075 205.044 72.6955 206.392 73.6475L210.907 67.0839C210.866 67.0546 210.818 67.0197 210.754 66.8633L203.45 69.8997ZM206.46 73.6935C207.965 74.7105 209.671 75.0695 211.303 75.0695V67.0695C210.787 67.0695 210.724 66.9589 210.839 67.0373L206.46 73.6935ZM211.303 75.0695C212.865 75.0695 214.531 74.7625 216.017 73.8215L211.832 67.0375C211.969 66.9503 211.888 67.0695 211.303 67.0695V75.0695ZM216.09 73.7735C217.361 72.9285 218.488 71.6765 219 69.9469L211.437 67.6481C211.496 67.4521 211.587 67.2911 211.676 67.1793C211.758 67.0755 211.807 67.0527 211.758 67.0853L216.09 73.7735ZM215.219 72.7975H219.262V64.7975H215.219V72.7975ZM215.401 67.9594C215.271 68.577 215.043 69.0386 214.741 69.4167L220.877 74.4505C222.007 73.0365 222.747 71.4075 223.122 69.6356L215.401 67.9594ZM214.741 69.4167C214.452 69.7776 214.064 70.0917 213.489 70.3441L216.633 77.6825C218.291 76.9535 219.734 75.8815 220.877 74.4505L214.741 69.4167ZM213.464 70.3554C212.953 70.584 212.26 70.7495 211.303 70.7495V78.7495C213.167 78.7495 214.979 78.4245 216.658 77.6715L213.464 70.3554ZM245.316 74.1415L242.207 76.6075L243.392 78.1415H245.316V74.1415ZM236.883 63.2295L239.991 60.7635L238.806 59.2295H236.883V63.2295ZM233.63 63.2295L230.57 60.7026L225.32 67.2295H233.63V63.2295ZM243.642 50.7815V46.7815H241.766L240.582 48.2546L243.642 50.7815ZM248.79 50.7815L251.847 53.3125L257.114 46.7815H248.79V50.7815ZM239.757 61.9815L235.816 62.2097L236.394 72.4725L242.814 64.5125L239.757 61.9815ZM239.631 59.7415L242.737 57.2727L234.972 47.2427L235.689 59.9697L239.631 59.7415ZM250.78 74.1415V78.1415H258.894L253.886 71.6725L250.78 74.1415ZM230.377 74.1415H226.429V78.1415H230.377V74.1415ZM230.377 50.7815V46.7815H226.429V50.7815H230.377ZM234.862 50.7815H238.81V46.7815H234.862V50.7815ZM234.862 74.1415V78.1415H238.81V74.1415H234.862ZM248.424 71.6755L239.991 60.7635L233.774 65.6955L242.207 76.6075L248.424 71.6755ZM236.883 59.2295H233.63V67.2295H236.883V59.2295ZM236.69 65.7564L246.702 53.3084L240.582 48.2546L230.57 60.7026L236.69 65.7564ZM243.642 54.7815H248.79V46.7815H243.642V54.7815ZM245.733 48.2505L236.7 59.4505L242.814 64.5125L251.847 53.3125L245.733 48.2505ZM243.698 61.7533L243.572 59.5133L235.689 59.9697L235.816 62.2097L243.698 61.7533ZM236.524 62.2103L247.673 76.6105L253.886 71.6725L242.737 57.2727L236.524 62.2103ZM250.78 70.1415H245.316V78.1415H250.78V70.1415ZM234.325 74.1415V50.7815H226.429V74.1415H234.325ZM230.377 54.7815H234.862V46.7815H230.377V54.7815ZM230.914 50.7815V74.1415H238.81V50.7815H230.914ZM234.862 70.1415H230.377V78.1415H234.862V70.1415ZM253.809 72.0295L250.947 74.7845L250.964 74.8025L250.981 74.8205L253.809 72.0295ZM251.977 69.1495L248.287 70.5704L248.299 70.6028L248.312 70.6351L251.977 69.1495ZM252.009 61.7575L248.358 60.2345L248.35 60.2532L248.343 60.2719L252.009 61.7575ZM253.872 58.8775L251.045 56.0851L251.044 56.086L253.872 58.8775ZM256.841 56.8935L258.307 60.6074L258.335 60.5958L258.364 60.5838L256.841 56.8935ZM264.674 56.8935L263.151 60.5838L263.178 60.5958L263.207 60.6074L264.674 56.8935ZM267.611 58.8775L264.749 61.6325L264.783 61.6697L264.819 61.7059L267.611 58.8775ZM269.474 61.7575L265.799 63.2179L265.804 63.2305L265.809 63.2431L269.474 61.7575ZM269.474 69.1495L265.809 67.6639L265.796 67.6962L265.784 67.7286L269.474 69.1495ZM267.674 72.0295L270.502 74.8205L270.518 74.8025L270.536 74.7845L267.674 72.0295ZM263.473 70.2375L265.574 73.6245L265.608 73.6025L265.641 73.5805L263.473 70.2375ZM265.147 68.2855L268.715 69.9978L268.723 69.9798L268.732 69.9617L265.147 68.2855ZM265.116 62.6535L261.531 64.3297L261.557 64.3865L261.584 64.4424L265.116 62.6535ZM263.41 60.7015L261.242 64.0443L261.296 64.0804L261.351 64.1146L263.41 60.7015ZM258.073 60.7015L260.173 64.088L260.186 64.0802L260.198 64.0723L258.073 60.7015ZM256.367 62.6535L259.898 64.4424L259.907 64.4239L259.916 64.4054L256.367 62.6535ZM256.336 68.2855L252.751 69.9617L252.777 70.0185L252.804 70.0744L256.336 68.2855ZM258.041 70.2375L255.873 73.5805L255.906 73.6025L255.94 73.6245L258.041 70.2375ZM260.757 70.7495C259.658 70.7495 258.855 70.5717 258.269 70.3232L255.223 77.7035C256.952 78.4365 258.824 78.7495 260.757 78.7495V70.7495ZM258.269 70.3232C257.555 70.0203 257.031 69.6494 256.637 69.238L250.981 74.8205C252.185 76.0735 253.621 77.0255 255.223 77.7035L258.269 70.3232ZM256.671 69.2745C256.207 68.7797 255.873 68.248 255.643 67.6639L248.312 70.6351C248.923 72.1845 249.811 73.5725 250.947 74.7845L256.671 69.2745ZM255.667 67.7286C255.439 67.1202 255.325 66.4927 255.325 65.8215H247.429C247.429 67.4543 247.714 69.0454 248.287 70.5704L255.667 67.7286ZM255.325 65.8215V65.1495H247.429V65.8215H255.325ZM255.325 65.1495C255.325 64.4431 255.447 63.8184 255.674 63.2431L248.343 60.2719C247.728 61.8299 247.429 63.4666 247.429 65.1495H255.325ZM255.659 63.2805C255.912 62.6584 256.256 62.1304 256.7 61.669L251.044 56.086C249.888 57.2886 248.99 58.6806 248.358 60.2345L255.659 63.2805ZM256.699 61.6699C257.111 61.2405 257.63 60.882 258.307 60.6074L255.374 53.1796C253.736 53.8437 252.274 54.8078 251.045 56.0851L256.699 61.6699ZM258.364 60.5838C258.97 60.3272 259.746 60.1575 260.757 60.1575V52.1575C258.862 52.1575 257.027 52.4785 255.318 53.2032L258.364 60.5838ZM260.757 60.1575C261.768 60.1575 262.545 60.3272 263.151 60.5838L266.196 53.2032C264.486 52.4785 262.651 52.1575 260.757 52.1575V60.1575ZM263.207 60.6074C263.877 60.8787 264.369 61.2272 264.749 61.6325L270.473 56.1225C269.253 54.8212 267.786 53.8469 266.139 53.1796L263.207 60.6074ZM264.819 61.7059C265.259 62.1512 265.578 62.6463 265.799 63.2179L273.15 60.2971C272.528 58.6927 271.605 57.2678 270.402 56.0491L264.819 61.7059ZM265.809 63.2431C266.036 63.8184 266.158 64.4431 266.158 65.1495H274.054C274.054 63.4666 273.755 61.8299 273.14 60.2719L265.809 63.2431ZM266.158 65.1495V65.8215H274.054V65.1495H266.158ZM266.158 65.8215C266.158 66.4661 266.042 67.0711 265.809 67.6639L273.14 70.6351C273.748 69.0946 274.054 67.4809 274.054 65.8215H266.158ZM265.784 67.7286C265.576 68.2836 265.263 68.7934 264.812 69.2745L270.536 74.7845C271.685 73.5585 272.572 72.1485 273.164 70.5704L265.784 67.7286ZM264.846 69.238C264.45 69.6494 263.928 70.0203 263.214 70.3232L266.26 77.7035C267.86 77.0255 269.297 76.0735 270.502 74.8205L264.846 69.238ZM263.214 70.3232C262.621 70.5743 261.827 70.7495 260.757 70.7495V78.7495C262.677 78.7495 264.536 78.4345 266.26 77.7035L263.214 70.3232ZM260.757 74.9415C262.401 74.9415 264.075 74.5785 265.574 73.6245L261.372 66.851C261.372 66.8513 261.365 66.8552 261.35 66.8616C261.336 66.8681 261.307 66.8788 261.263 66.8903C261.174 66.9135 261.012 66.9415 260.757 66.9415V74.9415ZM265.641 73.5805C266.986 72.6845 268.027 71.4695 268.715 69.9978L261.579 66.5732C261.509 66.7233 261.434 66.8088 261.305 66.8947L265.641 73.5805ZM268.732 69.9617C269.381 68.535 269.664 67.0122 269.664 65.4695H261.768C261.768 66.0175 261.67 66.372 261.563 66.6093L268.732 69.9617ZM269.664 65.4695C269.664 63.8912 269.366 62.3209 268.646 60.8646L261.584 64.4424C261.666 64.6074 261.768 64.9145 261.768 65.4695H269.664ZM268.7 60.9773C268 59.4398 266.906 58.1787 265.469 57.2884L261.351 64.1146C261.429 64.163 261.474 64.2032 261.531 64.3297L268.7 60.9773ZM265.578 57.3587C264.094 56.3705 262.425 55.9655 260.757 55.9655V63.9655C260.964 63.9655 261.089 63.99 261.151 64.0075C261.21 64.0238 261.233 64.0385 261.242 64.0443L265.578 57.3587ZM260.757 55.9655C259.085 55.9655 257.429 56.3714 255.947 57.3307L260.198 64.0723C260.232 64.0503 260.365 63.9655 260.757 63.9655V55.9655ZM255.971 57.315C254.579 58.2016 253.524 59.4332 252.818 60.9016L259.916 64.4054C260.01 64.2098 260.092 64.14 260.173 64.088L255.971 57.315ZM252.836 60.8646C252.117 62.3209 251.819 63.8912 251.819 65.4695H259.715C259.715 64.9145 259.817 64.6074 259.898 64.4424L252.836 60.8646ZM251.819 65.4695C251.819 67.0122 252.101 68.535 252.751 69.9617L259.92 66.6093C259.812 66.372 259.715 66.0175 259.715 65.4695H251.819ZM252.804 70.0744C253.511 71.5065 254.545 72.6965 255.873 73.5805L260.208 66.8947C260.062 66.7971 259.96 66.6862 259.866 66.4966L252.804 70.0744ZM255.94 73.6245C257.439 74.5785 259.114 74.9415 260.757 74.9415V66.9415C260.503 66.9415 260.341 66.9135 260.251 66.8903C260.207 66.8788 260.179 66.8681 260.163 66.8616C260.148 66.8552 260.142 66.8513 260.141 66.851L255.94 73.6245ZM274.771 74.1415H270.823V78.1415H274.771V74.1415ZM274.771 56.7655V52.7655H270.823V56.7655H274.771ZM279.161 56.7655H283.109V52.7655H279.161V56.7655ZM279.161 74.1415V78.1415H283.109V74.1415H279.161ZM272.371 60.0935H268.423V64.0935H272.371V60.0935ZM272.371 56.7655V52.7655H268.423V56.7655H272.371ZM279.161 56.7655H283.109V52.7655H279.161V56.7655ZM279.161 60.0935V64.0935H283.109V60.0935H279.161ZM274.455 54.0135L271.467 56.628L271.53 56.7016L271.596 56.7721L274.455 54.0135ZM274.455 50.5255L271.596 47.7669L271.562 47.8039L271.527 47.8418L274.455 50.5255ZM278.277 54.0135L281.204 56.6972L281.235 56.6629L281.265 56.628L278.277 54.0135ZM278.719 74.1415V56.7655H270.823V74.1415H278.719ZM274.771 60.7655H279.161V52.7655H274.771V60.7655ZM275.213 56.7655V74.1415H283.109V56.7655H275.213ZM279.161 70.1415H274.771V78.1415H279.161V70.1415ZM276.319 60.0935V56.7655H268.423V60.0935H276.319ZM272.371 60.7655H279.161V52.7655H272.371V60.7655ZM275.213 56.7655V60.0935H283.109V56.7655H275.213ZM279.161 56.0935H272.371V64.0935H279.161V56.0935ZM276.382 50.6855C276.274 50.6855 276.35 50.6701 276.538 50.7353C276.746 50.8081 277.041 50.9648 277.314 51.2549L271.596 56.7721C273.027 58.2944 274.894 58.6855 276.382 58.6855V50.6855ZM277.443 51.399C277.56 51.5369 277.662 51.7106 277.729 51.9019C277.793 52.0876 277.803 52.2276 277.803 52.2855H269.907C269.907 53.8241 270.384 55.3571 271.467 56.628L277.443 51.399ZM277.803 52.2855C277.803 52.294 277.801 52.4167 277.736 52.6076C277.668 52.8093 277.55 53.0225 277.383 53.2092L271.527 47.8418C270.344 49.1672 269.907 50.7781 269.907 52.2855H277.803ZM277.314 53.2841C277.041 53.5742 276.746 53.7309 276.538 53.8036C276.35 53.8689 276.274 53.8535 276.382 53.8535V45.8535C274.894 45.8535 273.027 46.2446 271.596 47.7669L277.314 53.2841ZM276.382 53.8535C276.492 53.8535 276.404 53.8696 276.198 53.7969C275.969 53.7156 275.644 53.5389 275.349 53.2091L281.204 47.8418C279.771 46.2376 277.852 45.8535 276.382 45.8535V53.8535ZM275.349 53.2091C275.182 53.0224 275.063 52.8093 274.995 52.6076C274.93 52.4167 274.929 52.294 274.929 52.2855H282.825C282.825 50.7781 282.388 49.1672 281.204 47.8418L275.349 53.2091ZM274.929 52.2855C274.929 52.2276 274.938 52.0876 275.002 51.9019C275.069 51.7106 275.171 51.5369 275.288 51.399L281.265 56.628C282.347 55.3571 282.825 53.8241 282.825 52.2855H274.929ZM275.349 51.3298C275.644 51 275.969 50.8234 276.198 50.7421C276.404 50.6694 276.492 50.6855 276.382 50.6855V58.6855C277.852 58.6855 279.771 58.3014 281.204 56.6972L275.349 51.3298ZM285.042 74.1415H281.094V78.1415H285.042V74.1415ZM285.042 56.7655V52.7655H281.094V56.7655H285.042ZM289.432 56.7655H293.38V52.7655H289.432V56.7655ZM289.432 74.1415V78.1415H293.38V74.1415H289.432ZM282.641 60.0935H278.693V64.0935H282.641V60.0935ZM282.641 56.7655V52.7655H278.693V56.7655H282.641ZM289.432 56.7655H293.38V52.7655H289.432V56.7655ZM289.432 60.0935V64.0935H293.38V60.0935H289.432ZM284.726 54.0135L281.737 56.628L281.8 56.7016L281.867 56.7721L284.726 54.0135ZM284.726 50.5255L281.867 47.7669L281.832 47.8039L281.798 47.8418L284.726 50.5255ZM288.547 54.0135L291.475 56.6972L291.505 56.6629L291.535 56.628L288.547 54.0135ZM288.99 74.1415V56.7655H281.094V74.1415H288.99ZM285.042 60.7655H289.432V52.7655H285.042V60.7655ZM285.484 56.7655V74.1415H293.38V56.7655H285.484ZM289.432 70.1415H285.042V78.1415H289.432V70.1415ZM286.589 60.0935V56.7655H278.693V60.0935H286.589ZM282.641 60.7655H289.432V52.7655H282.641V60.7655ZM285.484 56.7655V60.0935H293.38V56.7655H285.484ZM289.432 56.0935H282.641V64.0935H289.432V56.0935ZM286.652 50.6855C286.545 50.6855 286.621 50.6701 286.808 50.7353C287.017 50.8081 287.312 50.9648 287.584 51.2549L281.867 56.7721C283.298 58.2944 285.164 58.6855 286.652 58.6855V50.6855ZM287.713 51.399C287.831 51.5369 287.933 51.7106 288 51.9019C288.064 52.0876 288.074 52.2276 288.074 52.2855H280.178C280.178 53.8241 280.655 55.3571 281.737 56.628L287.713 51.399ZM288.074 52.2855C288.074 52.294 288.072 52.4167 288.007 52.6076C287.938 52.8093 287.82 53.0225 287.653 53.2092L281.798 47.8418C280.614 49.1672 280.178 50.7781 280.178 52.2855H288.074ZM287.584 53.2841C287.312 53.5742 287.017 53.7309 286.808 53.8036C286.621 53.8689 286.545 53.8535 286.652 53.8535V45.8535C285.164 45.8535 283.298 46.2446 281.867 47.7669L287.584 53.2841ZM286.652 53.8535C286.762 53.8535 286.674 53.8696 286.469 53.7969C286.24 53.7156 285.914 53.5389 285.62 53.2091L291.475 47.8418C290.042 46.2376 288.122 45.8535 286.652 45.8535V53.8535ZM285.62 53.2091C285.453 53.0224 285.335 52.8093 285.266 52.6076C285.201 52.4167 285.2 52.294 285.2 52.2855H293.095C293.095 50.7781 292.658 49.1672 291.475 47.8418L285.62 53.2091ZM285.2 52.2855C285.2 52.2276 285.208 52.0876 285.274 51.9019C285.34 51.7106 285.441 51.5369 285.559 51.399L291.535 56.628C292.619 55.3571 293.095 53.8241 293.095 52.2855H285.2ZM285.62 51.3298C285.914 51 286.24 50.8234 286.469 50.7421C286.674 50.6694 286.762 50.6855 286.652 50.6855V58.6855C288.122 58.6855 290.042 58.3014 291.475 56.6972L285.62 51.3298ZM301.654 74.1415H297.706V78.1415H301.654V74.1415ZM301.654 50.7815V46.7815H297.706V50.7815H301.654ZM309.013 50.7815L312.543 48.988L311.45 46.7815H309.013V50.7815ZM318.709 70.3655L315.181 72.1595L316.273 74.3655H318.709V70.3655ZM319.751 70.3655L322.393 73.3385L330.04 66.3655H319.751V70.3655ZM319.12 70.9415H315.172V79.9225L321.761 73.9145L319.12 70.9415ZM319.12 50.7815V46.7815H315.172V50.7815H319.12ZM323.352 50.7815H327.3V46.7815H323.352V50.7815ZM323.352 74.1415V78.1415H327.3V74.1415H323.352ZM315.961 74.1415L312.433 75.9355L313.526 78.1415H315.961V74.1415ZM306.265 54.5575L309.795 52.764L308.702 50.5575H306.265V54.5575ZM305.192 54.5575L302.551 51.5843L294.903 58.5575H305.192V54.5575ZM305.823 53.9815H309.771V45L303.182 51.0083L305.823 53.9815ZM305.823 74.1415V78.1415H309.771V74.1415H305.823ZM305.602 74.1415V50.7815H297.706V74.1415H305.602ZM301.654 54.7815H309.013V46.7815H301.654V54.7815ZM305.485 52.575L315.181 72.1595L322.239 68.572L312.543 48.988L305.485 52.575ZM318.709 74.3655H319.751V66.3655H318.709V74.3655ZM317.11 67.3923L316.479 67.9683L321.761 73.9145L322.393 73.3385L317.11 67.3923ZM323.068 70.9415V50.7815H315.172V70.9415H323.068ZM319.12 54.7815H323.352V46.7815H319.12V54.7815ZM319.404 50.7815V74.1415H327.3V50.7815H319.404ZM323.352 70.1415H315.961V78.1415H323.352V70.1415ZM319.491 72.3475L309.795 52.764L302.737 56.351L312.433 75.9355L319.491 72.3475ZM306.265 50.5575H305.192V58.5575H306.265V50.5575ZM307.833 57.5307L308.464 56.9547L303.182 51.0083L302.551 51.5843L307.833 57.5307ZM301.875 53.9815V74.1415H309.771V53.9815H301.875ZM305.823 70.1415H301.654V78.1415H305.823V70.1415ZM329.99 72.0295L327.128 74.7845L327.146 74.8025L327.163 74.8205L329.99 72.0295ZM328.158 69.1495L324.468 70.5704L324.48 70.6028L324.493 70.6351L328.158 69.1495ZM328.19 61.7575L324.54 60.2345L324.532 60.2532L324.524 60.2719L328.19 61.7575ZM330.053 58.8775L327.227 56.0851L327.226 56.086L330.053 58.8775ZM333.022 56.8935L334.489 60.6074L334.517 60.5958L334.545 60.5838L333.022 56.8935ZM340.855 56.8935L339.332 60.5838L339.361 60.5958L339.389 60.6074L340.855 56.8935ZM343.792 58.8775L340.93 61.6325L340.965 61.6697L341.001 61.7059L343.792 58.8775ZM345.655 61.7575L341.98 63.2179L341.985 63.2305L341.99 63.2431L345.655 61.7575ZM345.655 69.1495L341.99 67.6639L341.977 67.6962L341.965 67.7286L345.655 69.1495ZM343.855 72.0295L346.683 74.8205L346.701 74.8025L346.717 74.7845L343.855 72.0295ZM339.655 70.2375L341.756 73.6245L341.79 73.6025L341.823 73.5805L339.655 70.2375ZM341.329 68.2855L344.896 69.9978L344.905 69.9798L344.913 69.9617L341.329 68.2855ZM341.297 62.6535L337.712 64.3297L337.739 64.3865L337.767 64.4424L341.297 62.6535ZM339.592 60.7015L337.424 64.0443L337.477 64.0804L337.533 64.1146L339.592 60.7015ZM334.254 60.7015L336.355 64.088L336.367 64.0802L336.38 64.0723L334.254 60.7015ZM332.548 62.6535L336.08 64.4424L336.089 64.4239L336.098 64.4054L332.548 62.6535ZM332.517 68.2855L328.932 69.9617L328.959 70.0185L328.987 70.0744L332.517 68.2855ZM334.222 70.2375L332.055 73.5805L332.088 73.6025L332.122 73.6245L334.222 70.2375ZM336.939 70.7495C335.84 70.7495 335.038 70.5717 334.45 70.3232L331.405 77.7035C333.134 78.4365 335.006 78.7495 336.939 78.7495V70.7495ZM334.45 70.3232C333.736 70.0203 333.214 69.6494 332.818 69.238L327.163 74.8205C328.368 76.0735 329.804 77.0255 331.405 77.7035L334.45 70.3232ZM332.852 69.2745C332.389 68.7797 332.055 68.248 331.824 67.6639L324.493 70.6351C325.105 72.1845 325.992 73.5725 327.128 74.7845L332.852 69.2745ZM331.849 67.7286C331.621 67.1202 331.506 66.4927 331.506 65.8215H323.61C323.61 67.4543 323.897 69.0454 324.468 70.5704L331.849 67.7286ZM331.506 65.8215V65.1495H323.61V65.8215H331.506ZM331.506 65.1495C331.506 64.4431 331.629 63.8184 331.856 63.2431L324.524 60.2719C323.91 61.8299 323.61 63.4666 323.61 65.1495H331.506ZM331.841 63.2805C332.094 62.6584 332.438 62.1304 332.881 61.669L327.226 56.086C326.07 57.2886 325.171 58.6806 324.54 60.2345L331.841 63.2805ZM332.88 61.6699C333.294 61.2405 333.811 60.882 334.489 60.6074L331.557 53.1796C329.917 53.8437 328.457 54.8078 327.227 56.0851L332.88 61.6699ZM334.545 60.5838C335.151 60.3272 335.928 60.1575 336.939 60.1575V52.1575C335.045 52.1575 333.21 52.4785 331.499 53.2032L334.545 60.5838ZM336.939 60.1575C337.95 60.1575 338.726 60.3272 339.332 60.5838L342.378 53.2032C340.668 52.4785 338.834 52.1575 336.939 52.1575V60.1575ZM339.389 60.6074C340.058 60.8787 340.55 61.2272 340.93 61.6325L346.654 56.1225C345.434 54.8212 343.968 53.8469 342.321 53.1796L339.389 60.6074ZM341.001 61.7059C341.44 62.1512 341.759 62.6463 341.98 63.2179L349.331 60.2971C348.71 58.6927 347.786 57.2678 346.584 56.0491L341.001 61.7059ZM341.99 63.2431C342.218 63.8184 342.339 64.4431 342.339 65.1495H350.235C350.235 63.4666 349.936 61.8299 349.321 60.2719L341.99 63.2431ZM342.339 65.1495V65.8215H350.235V65.1495H342.339ZM342.339 65.8215C342.339 66.4661 342.224 67.0711 341.99 67.6639L349.321 70.6351C349.929 69.0946 350.235 67.4809 350.235 65.8215H342.339ZM341.965 67.7286C341.757 68.2836 341.444 68.7934 340.993 69.2745L346.717 74.7845C347.867 73.5585 348.755 72.1485 349.346 70.5704L341.965 67.7286ZM341.028 69.238C340.633 69.6494 340.11 70.0203 339.395 70.3232L342.441 77.7035C344.043 77.0255 345.479 76.0735 346.683 74.8205L341.028 69.238ZM339.395 70.3232C338.802 70.5743 338.008 70.7495 336.939 70.7495V78.7495C338.858 78.7495 340.718 78.4345 342.441 77.7035L339.395 70.3232ZM336.939 74.9415C338.582 74.9415 340.257 74.5785 341.756 73.6245L337.554 66.851C337.553 66.8513 337.548 66.8552 337.533 66.8616C337.517 66.8681 337.489 66.8788 337.445 66.8903C337.355 66.9135 337.193 66.9415 336.939 66.9415V74.9415ZM341.823 73.5805C343.168 72.6845 344.209 71.4695 344.896 69.9978L337.761 66.5732C337.691 66.7233 337.616 66.8088 337.487 66.8947L341.823 73.5805ZM344.913 69.9617C345.564 68.535 345.845 67.0122 345.845 65.4695H337.949C337.949 66.0175 337.852 66.372 337.744 66.6093L344.913 69.9617ZM345.845 65.4695C345.845 63.8912 345.547 62.3209 344.828 60.8646L337.767 64.4424C337.848 64.6074 337.949 64.9145 337.949 65.4695H345.845ZM344.882 60.9773C344.182 59.4398 343.088 58.1787 341.65 57.2884L337.533 64.1146C337.612 64.163 337.655 64.2032 337.712 64.3297L344.882 60.9773ZM341.76 57.3587C340.275 56.3705 338.608 55.9655 336.939 55.9655V63.9655C337.146 63.9655 337.27 63.99 337.333 64.0075C337.392 64.0238 337.415 64.0385 337.424 64.0443L341.76 57.3587ZM336.939 55.9655C335.268 55.9655 333.61 56.3714 332.129 57.3307L336.38 64.0723C336.413 64.0503 336.547 63.9655 336.939 63.9655V55.9655ZM332.154 57.315C330.761 58.2016 329.706 59.4332 328.999 60.9016L336.098 64.4054C336.192 64.2098 336.273 64.14 336.355 64.088L332.154 57.315ZM329.018 60.8646C328.299 62.3209 328.001 63.8912 328.001 65.4695H335.896C335.896 64.9145 335.998 64.6074 336.08 64.4424L329.018 60.8646ZM328.001 65.4695C328.001 67.0122 328.283 68.535 328.932 69.9617L336.102 66.6093C335.994 66.372 335.896 66.0175 335.896 65.4695H328.001ZM328.987 70.0744C329.692 71.5065 330.728 72.6965 332.055 73.5805L336.391 66.8947C336.244 66.7971 336.142 66.6862 336.048 66.4966L328.987 70.0744ZM332.122 73.6245C333.62 74.5785 335.295 74.9415 336.939 74.9415V66.9415C336.684 66.9415 336.522 66.9135 336.433 66.8903C336.389 66.8788 336.36 66.8681 336.345 66.8616C336.331 66.8552 336.324 66.8513 336.324 66.851L332.122 73.6245ZM349.594 69.3415L345.895 70.7379L345.899 70.7502L345.904 70.7624L349.594 69.3415ZM349.563 61.6615L345.864 60.2651L345.852 60.2975L345.84 60.3302L349.563 61.6615ZM351.205 58.8135L348.263 56.1463L348.243 56.1684L348.225 56.1908L351.205 58.8135ZM353.763 56.9255L355.374 60.5775L355.391 60.5697L355.409 60.5618L353.763 56.9255ZM360.649 57.1175L358.66 60.5726L358.701 60.5973L358.744 60.6209L360.649 57.1175ZM364.123 64.1575L361.12 66.7554L368.477 75.4815L368.068 64.013L364.123 64.1575ZM362.828 62.6215H358.88V64.0973L359.825 65.2194L362.828 62.6215ZM362.828 50.7815V46.7815H358.88V50.7815H362.828ZM367.218 50.7815H371.166V46.7815H367.218V50.7815ZM367.218 74.1415V78.1415H371.166V74.1415H367.218ZM363.744 74.1415H359.796V78.1415H363.744V74.1415ZM363.744 66.7495V62.7495H359.796V66.7495H363.744ZM364.502 66.7495L368.447 66.894L368.595 62.7495H364.502V66.7495ZM363.428 71.1975L366.867 73.1615L366.874 73.1485L366.882 73.1345L363.428 71.1975ZM360.838 73.8535L362.714 77.3735L362.726 77.3665L362.738 77.3595L360.838 73.8535ZM360.585 70.3975L362.433 73.9325L362.472 73.9115L362.511 73.8895L360.585 70.3975ZM362.291 68.6695L358.881 66.654L358.872 66.6694L358.863 66.6849L362.291 68.6695ZM362.291 62.1415L358.96 64.289L358.975 64.3127L358.99 64.3361L362.291 62.1415ZM360.554 60.5415L358.706 64.0767L358.748 64.0984L358.788 64.1192L360.554 60.5415ZM355.69 60.6695L357.765 64.0727L357.777 64.0644L357.791 64.056L355.69 60.6695ZM353.985 62.5895L350.472 60.7642L350.453 60.8007L350.435 60.8376L353.985 62.5895ZM354.016 68.4135L350.503 70.2388L350.512 70.2577L350.522 70.2765L354.016 68.4135ZM355.722 70.3015L353.647 73.7045L353.669 73.7185L353.69 73.7315L355.722 70.3015ZM357.238 70.7175C356.534 70.7175 355.973 70.5888 355.503 70.3809L352.339 77.7105C353.891 78.3985 355.541 78.7175 357.238 78.7175V70.7175ZM355.503 70.3809C354.986 70.1517 354.565 69.8448 354.204 69.4476L348.396 74.8675C349.509 76.0915 350.834 77.0435 352.339 77.7105L355.503 70.3809ZM354.204 69.4476C353.82 69.0252 353.513 68.5279 353.285 67.9206L345.904 70.7624C346.477 72.2885 347.307 73.6685 348.396 74.8675L354.204 69.4476ZM353.294 67.9451C353.072 67.34 352.942 66.6436 352.942 65.8215H345.046C345.046 67.5167 345.317 69.167 345.895 70.7379L353.294 67.9451ZM352.942 65.8215V65.1495H345.046V65.8215H352.942ZM352.942 65.1495C352.942 64.3327 353.066 63.6231 353.286 62.9928L345.84 60.3302C345.302 61.8759 345.046 63.4916 345.046 65.1495H352.942ZM353.262 63.0579C353.511 62.3823 353.826 61.8566 354.186 61.4362L348.225 56.1908C347.195 57.3917 346.415 58.7647 345.864 60.2651L353.262 63.0579ZM354.147 61.4807C354.489 61.0937 354.887 60.7981 355.374 60.5775L352.153 53.2735C350.661 53.9489 349.353 54.912 348.263 56.1463L354.147 61.4807ZM355.409 60.5618C355.854 60.3548 356.402 60.2215 357.111 60.2215V52.2215C355.379 52.2215 353.694 52.5575 352.118 53.2892L355.409 60.5618ZM357.111 60.2215C357.867 60.2215 358.339 60.3833 358.66 60.5726L362.637 53.6624C360.937 52.657 359.051 52.2215 357.111 52.2215V60.2215ZM358.744 60.6209C359.026 60.7784 359.327 61.0452 359.62 61.6071L366.604 57.8759C365.675 56.0911 364.335 54.6086 362.553 53.6141L358.744 60.6209ZM359.62 61.6071C359.877 62.1012 360.128 62.94 360.178 64.302L368.068 64.013C367.991 61.8337 367.568 59.7285 366.604 57.8759L359.62 61.6071ZM367.124 61.5596L365.829 60.0236L359.825 65.2194L361.12 66.7554L367.124 61.5596ZM366.776 62.6215V50.7815H358.88V62.6215H366.776ZM362.828 54.7815H367.218V46.7815H362.828V54.7815ZM363.27 50.7815V74.1415H371.166V50.7815H363.27ZM367.218 70.1415H363.744V78.1415H367.218V70.1415ZM367.692 74.1415V66.7495H359.796V74.1415H367.692ZM363.744 70.7495H364.502V62.7495H363.744V70.7495ZM360.557 66.605C360.509 67.9279 360.25 68.7546 359.973 69.2602L366.882 73.1345C367.911 71.2515 368.368 69.1124 368.447 66.894L360.557 66.605ZM359.988 69.2334C359.666 69.8148 359.312 70.139 358.938 70.3472L362.738 77.3595C364.512 76.3735 365.885 74.9265 366.867 73.1615L359.988 69.2334ZM358.962 70.3339C358.555 70.5565 358.014 70.7175 357.238 70.7175V78.7175C359.156 78.7175 361.016 78.3025 362.714 77.3735L358.962 70.3339ZM358.217 74.9735C359.68 74.9735 361.11 74.6415 362.433 73.9325L358.738 66.8623C358.628 66.9211 358.479 66.9735 358.217 66.9735V74.9735ZM362.511 73.8895C363.876 73.1165 364.955 72.0085 365.719 70.6541L358.863 66.6849C358.785 66.8234 358.726 66.8679 358.66 66.9057L362.511 73.8895ZM365.701 70.685C366.546 69.2175 366.902 67.6047 366.902 65.9815H359.006C359.006 66.4063 358.92 66.5855 358.881 66.654L365.701 70.685ZM366.902 65.9815V64.7015H359.006V65.9815H366.902ZM366.902 64.7015C366.902 63.0956 366.552 61.4293 365.591 59.9469L358.99 64.3361C358.959 64.2874 358.959 64.2676 358.97 64.3091C358.982 64.3562 359.006 64.4787 359.006 64.7015H366.902ZM365.622 59.994C364.807 58.697 363.694 57.6604 362.319 56.9638L358.788 64.1192C358.845 64.1479 358.891 64.178 358.96 64.289L365.622 59.994ZM362.401 57.0063C361.093 56.3048 359.676 55.9655 358.217 55.9655V63.9655C358.442 63.9655 358.583 64.0102 358.706 64.0767L362.401 57.0063ZM358.217 55.9655C356.594 55.9655 355.011 56.3775 353.589 57.283L357.791 64.056C357.844 64.0228 357.944 63.9655 358.217 63.9655V55.9655ZM353.615 57.2663C352.229 58.1341 351.188 59.3481 350.472 60.7642L357.497 64.4148C357.622 64.1669 357.719 64.1009 357.765 64.0727L353.615 57.2663ZM350.435 60.8376C349.726 62.3132 349.437 63.9043 349.437 65.5015H357.332C357.332 64.88 357.443 64.5298 357.534 64.3414L350.435 60.8376ZM349.437 65.5015C349.437 67.1279 349.747 68.7457 350.503 70.2388L357.529 66.5882C357.443 66.4173 357.332 66.0938 357.332 65.5015H349.437ZM350.522 70.2765C351.247 71.6705 352.286 72.8535 353.647 73.7045L357.796 66.8983C357.725 66.854 357.627 66.7774 357.51 66.5505L350.522 70.2765ZM353.69 73.7315C355.089 74.5815 356.633 74.9735 358.217 74.9735V66.9735C357.948 66.9735 357.829 66.9175 357.753 66.8715L353.69 73.7315ZM376.005 73.9815L374.351 77.6135L374.363 77.6195L374.376 77.6255L376.005 73.9815ZM373.257 71.9335L370.218 74.4865L370.252 74.5275L370.286 74.5675L373.257 71.9335ZM371.615 69.0215L367.877 70.3091L367.888 70.3428L367.9 70.3764L371.615 69.0215ZM371.615 61.8215L367.892 60.4902L367.884 60.512L367.877 60.5339L371.615 61.8215ZM373.257 58.9415L370.286 56.3075L370.281 56.313L373.257 58.9415ZM375.973 56.9255L377.596 60.5718L377.625 60.5585L377.654 60.5448L375.973 56.9255ZM384.343 57.4055L382.165 60.7424L382.198 60.7639L382.231 60.7848L384.343 57.4055ZM387.185 60.6375L383.621 62.3572L383.626 62.3685L383.631 62.3797L387.185 60.6375ZM388.133 66.5255V70.5255H392.081V66.5255H388.133ZM372.941 66.5255H368.993V70.5255H372.941V66.5255ZM372.941 63.8055V59.8055H368.993V63.8055H372.941ZM385.385 63.8055L388.144 66.667L395.077 59.8055H385.385V63.8055ZM384.027 65.1495H380.079V74.6475L386.785 68.011L384.027 65.1495ZM382.1 60.4775L379.91 63.8057L379.935 63.8224L379.96 63.8387L382.1 60.4775ZM375.689 62.4615L372.056 60.8969L372.046 60.92L372.036 60.9433L375.689 62.4615ZM375.689 68.3815L372.023 69.8671L372.03 69.8834L372.036 69.8997L375.689 68.3815ZM377.237 70.3655L374.979 73.6475L375.013 73.6705L375.046 73.6935L377.237 70.3655ZM382.511 70.4295L384.603 73.8215L384.641 73.7985L384.677 73.7735L382.511 70.4295ZM383.806 68.7975V64.7975H380.869L380.025 67.6481L383.806 68.7975ZM387.848 68.7975L391.709 69.6356L392.732 64.7975H387.848V68.7975ZM383.648 74.0135L382.077 70.3441L382.064 70.3497L382.051 70.3554L383.648 74.0135ZM379.89 70.7495C378.865 70.7495 378.145 70.5722 377.633 70.3377L374.376 77.6255C376.097 78.4145 377.966 78.7495 379.89 78.7495V70.7495ZM377.659 70.3497C377.028 70.0545 376.572 69.6983 376.228 69.2995L370.286 74.5675C371.415 75.8755 372.792 76.8845 374.351 77.6135L377.659 70.3497ZM376.296 69.3802C375.872 68.8615 375.553 68.2961 375.33 67.6666L367.9 70.3764C368.435 71.8805 369.211 73.2565 370.218 74.4865L376.296 69.3802ZM375.352 67.7339C375.131 67.0753 375.026 66.422 375.026 65.7575H367.13C367.13 67.3117 367.382 68.8344 367.877 70.3091L375.352 67.7339ZM375.026 65.7575V65.1495H367.13V65.7575H375.026ZM375.026 65.1495C375.026 64.4255 375.137 63.7518 375.352 63.1091L367.877 60.5339C367.377 62.0246 367.13 63.5695 367.13 65.1495H375.026ZM375.338 63.1528C375.559 62.5192 375.86 62.0042 376.233 61.57L370.281 56.313C369.223 57.5428 368.429 58.9478 367.892 60.4902L375.338 63.1528ZM376.228 61.5755C376.573 61.1762 377.011 60.8395 377.596 60.5718L374.351 53.2792C372.788 53.9928 371.415 55.0001 370.286 56.3075L376.228 61.5755ZM377.654 60.5448C378.112 60.3264 378.762 60.1575 379.7 60.1575V52.1575C377.817 52.1575 375.982 52.5006 374.292 53.3062L377.654 60.5448ZM379.7 60.1575C380.968 60.1575 381.711 60.4379 382.165 60.7424L386.52 54.0686C384.49 52.7091 382.138 52.1575 379.7 52.1575V60.1575ZM382.231 60.7848C382.877 61.1996 383.315 61.7067 383.621 62.3572L390.749 58.9178C389.792 56.8803 388.335 55.2327 386.455 54.0262L382.231 60.7848ZM383.631 62.3797C383.992 63.1345 384.185 63.9648 384.185 64.9255H392.081C392.081 62.8142 391.641 60.7859 390.739 58.8953L383.631 62.3797ZM384.185 64.9255V66.5255H392.081V64.9255H384.185ZM388.133 62.5255H372.941V70.5255H388.133V62.5255ZM376.889 66.5255V63.8055H368.993V66.5255H376.889ZM372.941 67.8055H385.385V59.8055H372.941V67.8055ZM382.626 60.944L381.268 62.288L386.785 68.011L388.144 66.667L382.626 60.944ZM387.975 65.1495C387.975 63.6733 387.767 62.1859 387.212 60.7987L379.894 63.8043C379.971 63.9958 380.079 64.407 380.079 65.1495H387.975ZM387.212 60.7987C386.617 59.3123 385.633 58.0265 384.241 57.1163L379.96 63.8387C379.951 63.8324 379.936 63.822 379.92 63.8074C379.904 63.7928 379.891 63.7782 379.881 63.7656C379.871 63.7532 379.868 63.747 379.87 63.7508C379.872 63.7548 379.882 63.7713 379.894 63.8043L387.212 60.7987ZM384.29 57.1493C382.852 56.1781 381.234 55.8375 379.7 55.8375V63.8375C379.901 63.8375 380 63.8599 380.022 63.8658C380.038 63.8701 379.988 63.8585 379.91 63.8057L384.29 57.1493ZM379.7 55.8375C378.119 55.8375 376.508 56.2097 375.07 57.1653L379.403 63.8537C379.37 63.8752 379.356 63.8757 379.384 63.868C379.418 63.8589 379.515 63.8375 379.7 63.8375V55.8375ZM375.07 57.1653C373.66 58.1036 372.676 59.4183 372.056 60.8969L379.322 64.0261C379.375 63.9002 379.415 63.848 379.422 63.8385C379.427 63.8332 379.426 63.8346 379.421 63.8397C379.415 63.8449 379.408 63.8499 379.403 63.8537L375.07 57.1653ZM372.036 60.9433C371.455 62.3794 371.236 63.9264 371.236 65.4695H379.132C379.132 64.6659 379.249 64.2076 379.342 63.9797L372.036 60.9433ZM371.236 65.4695C371.236 66.9746 371.469 68.463 372.023 69.8671L379.355 66.8959C379.235 66.5934 379.132 66.1404 379.132 65.4695H371.236ZM372.036 69.8997C372.647 71.4075 373.631 72.6955 374.979 73.6475L379.494 67.0839C379.452 67.0546 379.405 67.0197 379.342 66.8633L372.036 69.8997ZM375.046 73.6935C376.553 74.7105 378.257 75.0695 379.89 75.0695V67.0695C379.374 67.0695 379.31 66.9589 379.427 67.0373L375.046 73.6935ZM379.89 75.0695C381.451 75.0695 383.118 74.7625 384.603 73.8215L380.419 67.0375C380.557 66.9503 380.476 67.0695 379.89 67.0695V75.0695ZM384.677 73.7735C385.949 72.9285 387.076 71.6765 387.587 69.9469L380.025 67.6481C380.082 67.4521 380.175 67.2911 380.263 67.1793C380.346 67.0755 380.394 67.0527 380.345 67.0853L384.677 73.7735ZM383.806 72.7975H387.848V64.7975H383.806V72.7975ZM383.988 67.9594C383.857 68.577 383.629 69.0386 383.327 69.4167L389.464 74.4505C390.594 73.0365 391.334 71.4075 391.709 69.6356L383.988 67.9594ZM383.327 69.4167C383.039 69.7776 382.65 70.0917 382.077 70.3441L385.219 77.6825C386.877 76.9535 388.32 75.8815 389.464 74.4505L383.327 69.4167ZM382.051 70.3554C381.541 70.584 380.847 70.7495 379.89 70.7495V78.7495C381.753 78.7495 383.565 78.4245 385.245 77.6715L382.051 70.3554ZM392.464 73.1815L390.071 76.3635L390.099 76.3845L390.126 76.4055L392.464 73.1815ZM390.379 68.9575V64.9575H386.287L386.433 69.1003L390.379 68.9575ZM394.327 68.9575L398.252 68.5314L397.874 64.9575H394.327V68.9575ZM400.58 70.7495L398.549 67.3195L398.524 67.335L398.498 67.3509L400.58 70.7495ZM400.801 67.8055L398.479 71.0404L398.513 71.0651L398.546 71.0891L400.801 67.8055ZM398.401 67.1335L397.992 71.112L398.014 71.1143L398.037 71.1165L398.401 67.1335ZM396.885 66.9735L396.454 70.9496L396.465 70.9508L396.476 70.952L396.885 66.9735ZM394.232 56.8935L395.659 60.6229L395.679 60.6153L395.698 60.6074L394.232 56.8935ZM405.002 61.7895V65.7895H409.091L408.947 61.6484L405.002 61.7895ZM401.054 61.7895L397.116 62.0745L397.378 65.7895H401.054V61.7895ZM395.496 62.8455L393.153 66.0657L393.192 66.0946L393.231 66.1224L395.496 62.8455ZM397.517 63.4535L397.071 67.4279L397.089 67.43L397.107 67.432L397.517 63.4535ZM403.77 65.3095L401.311 68.4386L401.325 68.4497L401.338 68.4607L403.77 65.3095ZM404.56 72.0295L401.402 69.6295L401.397 69.6361L401.392 69.6427L404.56 72.0295ZM398.022 70.6855C396.17 70.6855 395.243 70.2866 394.8 69.9575L390.126 76.4055C392.38 78.0815 395.158 78.6855 398.022 78.6855V70.6855ZM394.856 69.9998C394.534 69.7515 394.348 69.4934 394.324 68.8147L386.433 69.1003C386.536 72.0055 387.739 74.5635 390.071 76.3635L394.856 69.9998ZM390.379 72.9575H394.327V64.9575H390.379V72.9575ZM390.402 69.3836C390.604 71.2985 391.65 72.7235 392.8 73.6805L397.812 67.4986C397.789 67.4799 397.881 67.5506 397.993 67.7358C398.112 67.9359 398.219 68.2104 398.252 68.5314L390.402 69.3836ZM392.8 73.6805C394.43 75.0365 396.461 75.3255 398.085 75.3255V67.3255C397.894 67.3255 397.745 67.3161 397.634 67.3037C397.524 67.2913 397.463 67.2771 397.441 67.2715C397.393 67.2589 397.568 67.2957 397.812 67.4986L392.8 73.6805ZM398.085 75.3255C399.552 75.3255 401.2 75.0675 402.662 74.1485L398.498 67.3509C398.626 67.2703 398.688 67.266 398.621 67.2815C398.551 67.2977 398.382 67.3255 398.085 67.3255V75.3255ZM402.612 74.1795C404.249 73.1835 405.476 71.4515 405.476 69.1815H397.58C397.58 68.8356 397.672 68.3979 397.923 67.9809C398.163 67.5853 398.437 67.3877 398.549 67.3195L402.612 74.1795ZM405.476 69.1815C405.476 67.2385 404.553 65.5774 403.056 64.5219L398.546 71.0891C398.354 70.9529 398.079 70.698 397.865 70.2921C397.648 69.8807 397.58 69.4797 397.58 69.1815H405.476ZM403.123 64.5706C401.751 63.5594 400.034 63.2695 398.765 63.1505L398.037 71.1165C398.452 71.1555 398.693 71.2065 398.802 71.2375C398.852 71.2515 398.845 71.2525 398.796 71.2305C398.748 71.2085 398.631 71.1525 398.479 71.0404L403.123 64.5706ZM398.81 63.155L397.294 62.995L396.476 70.952L397.992 71.112L398.81 63.155ZM397.316 62.9974C395.873 62.8367 395.257 62.4675 395.033 62.2725L389.894 68.3465C391.733 69.9435 394.065 70.6837 396.454 70.9496L397.316 62.9974ZM395.033 62.2725C394.942 62.194 394.926 62.1531 394.919 62.1382C394.909 62.1147 394.864 62.0001 394.864 61.7255H386.968C386.968 64.2747 387.907 66.6207 389.894 68.3465L395.033 62.2725ZM394.864 61.7255C394.864 61.2208 394.976 61.0924 394.978 61.0903L388.622 56.3447C387.444 57.964 386.968 59.8409 386.968 61.7255H394.864ZM394.978 61.0903C395.074 60.959 395.245 60.7858 395.659 60.6229L392.805 53.1641C391.156 53.8118 389.705 54.8547 388.622 56.3447L394.978 61.0903ZM395.698 60.6074C396.205 60.4017 396.894 60.2535 397.833 60.2535V52.2535C396.075 52.2535 394.363 52.5319 392.766 53.1796L395.698 60.6074ZM397.833 60.2535C399.375 60.2535 400.208 60.5959 400.664 60.9235L405.234 54.3995C403.078 52.8498 400.5 52.2535 397.833 52.2535V60.2535ZM400.664 60.9235C400.837 61.0481 401.03 61.1936 401.056 61.9306L408.947 61.6484C408.846 58.7587 407.671 56.1522 405.234 54.3995L400.664 60.9235ZM405.002 57.7895H401.054V65.7895H405.002V57.7895ZM404.992 61.5045C404.856 59.5726 403.852 58.0769 402.577 57.083L397.763 63.424C397.703 63.3777 397.543 63.2371 397.391 62.973C397.231 62.695 397.138 62.3794 397.116 62.0745L404.992 61.5045ZM402.577 57.083C401.072 55.9105 399.292 55.6135 397.801 55.6135V63.6135C397.925 63.6135 398.016 63.62 398.075 63.627C398.136 63.6341 398.158 63.6407 398.149 63.6384C398.131 63.6334 397.971 63.5862 397.763 63.424L402.577 57.083ZM397.801 55.6135C396.44 55.6135 394.8 55.868 393.372 56.8934L397.935 63.4216C397.719 63.5765 397.555 63.6229 397.527 63.6301C397.504 63.6359 397.582 63.6135 397.801 63.6135V55.6135ZM393.372 56.8934C391.931 57.9277 390.948 59.5623 390.948 61.5655H398.843C398.843 61.8935 398.764 62.299 398.55 62.6969C398.343 63.0827 398.088 63.3115 397.935 63.4216L393.372 56.8934ZM390.948 61.5655C390.948 63.2416 391.631 64.9286 393.153 66.0657L397.838 59.6253C398.126 59.8407 398.414 60.1635 398.611 60.5853C398.803 60.9938 398.843 61.3519 398.843 61.5655H390.948ZM393.231 66.1224C394.471 67.0014 395.943 67.2981 397.071 67.4279L397.962 59.4791C397.816 59.4622 397.698 59.4437 397.609 59.4264C397.519 59.4089 397.465 59.3942 397.44 59.3869C397.415 59.3794 397.434 59.3832 397.484 59.4064C397.535 59.4295 397.633 59.4793 397.76 59.5686L393.231 66.1224ZM397.107 67.432L398.623 67.592L399.441 59.635L397.925 59.475L397.107 67.432ZM398.623 67.592C400.182 67.7564 400.953 68.1507 401.311 68.4386L406.229 62.1804C404.312 60.6336 401.926 59.8972 399.441 59.635L398.623 67.592ZM401.338 68.4607C401.477 68.5704 401.501 68.6308 401.505 68.6392C401.512 68.6532 401.559 68.754 401.559 69.0215H409.455C409.455 66.2986 408.367 63.873 406.201 62.1583L401.338 68.4607ZM401.559 69.0215C401.559 69.3815 401.479 69.5251 401.402 69.6295L407.718 74.4295C408.904 72.8275 409.455 70.9655 409.455 69.0215H401.559ZM401.392 69.6427C401.277 69.7984 401.034 70.044 400.456 70.2871L403.483 77.6755C405.137 76.9805 406.621 75.9245 407.728 74.4165L401.392 69.6427ZM400.456 70.2871C399.925 70.5104 399.146 70.6855 398.022 70.6855V78.6855C399.93 78.6855 401.783 78.3915 403.483 77.6755L400.456 70.2871ZM411.711 66.5895H407.764V70.5895H411.711V66.5895ZM411.711 60.8935V56.8935H407.764V60.8935H411.711ZM417.175 59.9015L414.25 57.2154L414.245 57.2204L417.175 59.9015ZM417.681 55.5815L414.178 57.4269L414.193 57.4569L414.209 57.4866L417.681 55.5815ZM412.691 54.4295L410.718 50.9648L410.688 50.9819L410.659 50.9995L412.691 54.4295ZM411.017 57.5655V61.5655H414.964V57.5655H411.017ZM406.816 57.5655H402.868V61.5655H406.816V57.5655ZM410.417 51.1335L412.328 54.6331L412.352 54.6199L412.375 54.6065L410.417 51.1335ZM418.754 51.0375L416.859 54.5465L416.898 54.568L416.936 54.5885L418.754 51.0375ZM418.66 63.3575L420.374 66.9606L420.387 66.9542L420.4 66.9477L418.66 63.3575ZM414.333 64.2855L411.672 61.3304L403.863 68.5486L414.43 68.2843L414.333 64.2855ZM416.133 62.6215L420.08 62.686L420.228 53.4221L413.472 59.6664L416.133 62.6215ZM416.07 66.5895V70.5895H419.955L420.017 66.654L416.07 66.5895ZM411.364 74.1415H407.416V78.1415H411.364V74.1415ZM411.364 69.4055V65.4055H407.416V69.4055H411.364ZM416.417 69.4055H420.365V65.4055H416.417V69.4055ZM416.417 74.1415V78.1415H420.365V74.1415H416.417ZM415.659 66.5895V60.8935H407.764V66.5895H415.659ZM411.711 64.8935H414.396V56.8935H411.711V64.8935ZM414.396 64.8935C416.278 64.8935 418.488 64.3965 420.105 62.5826L414.245 57.2204C414.336 57.1186 414.434 57.0367 414.528 56.9753C414.62 56.9151 414.692 56.8851 414.727 56.8727C414.786 56.8516 414.702 56.8935 414.396 56.8935V64.8935ZM420.101 62.5876C421.414 61.1184 422.039 59.3091 422.039 57.4055H414.143C414.143 57.4704 414.134 57.4462 414.161 57.3715C414.174 57.3371 414.191 57.3028 414.209 57.2718C414.228 57.2411 414.244 57.2224 414.25 57.2154L420.101 62.5876ZM422.039 57.4055C422.039 56.1743 421.797 54.8839 421.152 53.6764L414.209 57.4866C414.163 57.4012 414.145 57.3363 414.139 57.3109C414.134 57.2885 414.143 57.3151 414.143 57.4055H422.039ZM421.183 53.7361C420.535 52.4734 419.548 51.4732 418.301 50.8166L414.659 57.9144C414.582 57.8737 414.482 57.806 414.383 57.7059C414.284 57.6058 414.218 57.5051 414.178 57.4269L421.183 53.7361ZM418.301 50.8166C417.124 50.196 415.869 49.9495 414.649 49.9495V57.9495C414.737 57.9495 414.771 57.9583 414.764 57.9567C414.76 57.9558 414.748 57.9528 414.729 57.9457C414.709 57.9386 414.685 57.9284 414.659 57.9144L418.301 50.8166ZM414.649 49.9495C413.336 49.9495 411.974 50.2302 410.718 50.9648L414.663 57.8942C414.629 57.9145 414.596 57.9295 414.57 57.9401C414.544 57.9507 414.525 57.9556 414.518 57.9573C414.506 57.9607 414.543 57.9495 414.649 57.9495V49.9495ZM410.659 50.9995C409.554 51.6716 408.651 52.6025 408.014 53.7551L414.903 57.6639C414.886 57.6948 414.856 57.7381 414.814 57.7819C414.772 57.8254 414.736 57.8502 414.722 57.8595L410.659 50.9995ZM408.014 53.7551C407.342 54.9709 407.069 56.2821 407.069 57.5655H414.964C414.964 57.4966 414.971 57.4835 414.964 57.5121C414.962 57.526 414.955 57.5478 414.945 57.5753C414.934 57.6029 414.92 57.633 414.903 57.6639L408.014 53.7551ZM411.017 53.5655H406.816V61.5655H411.017V53.5655ZM410.764 57.5655C410.764 56.8301 410.921 56.2484 411.195 55.7415L404.269 51.9015C403.321 53.6559 402.868 55.5702 402.868 57.5655H410.764ZM411.195 55.7415C411.425 55.3158 411.763 54.9503 412.328 54.6331L408.504 47.6339C406.711 48.6394 405.26 50.0658 404.269 51.9015L411.195 55.7415ZM412.375 54.6065C412.824 54.3469 413.551 54.1095 414.743 54.1095V46.1095C412.524 46.1095 410.367 46.5547 408.457 47.6605L412.375 54.6065ZM414.743 54.1095C415.787 54.1095 416.441 54.3148 416.859 54.5465L420.649 47.5284C418.835 46.5228 416.816 46.1095 414.743 46.1095V54.1095ZM416.936 54.5885C417.464 54.8657 417.77 55.1824 417.978 55.5388L424.773 51.4642C423.76 49.7299 422.318 48.404 420.571 47.4865L416.936 54.5885ZM417.978 55.5388C418.197 55.913 418.344 56.3818 418.344 57.0535H426.24C426.24 55.0798 425.776 53.1807 424.773 51.4642L417.978 55.5388ZM418.344 57.0535V57.4375H426.24V57.0535H418.344ZM418.344 57.4375C418.344 58.0759 418.203 58.5114 417.996 58.857L424.754 62.994C425.77 61.2916 426.24 59.4018 426.24 57.4375H418.344ZM417.996 58.857C417.827 59.1413 417.533 59.4617 416.919 59.7673L420.4 66.9477C422.186 66.0586 423.703 64.7577 424.754 62.994L417.996 58.857ZM416.945 59.7544C416.4 60.0208 415.543 60.254 414.235 60.2867L414.43 68.2843C416.534 68.2317 418.561 67.8462 420.374 66.9606L416.945 59.7544ZM416.994 67.2406L418.794 65.5766L413.472 59.6664L411.672 61.3304L416.994 67.2406ZM412.185 62.557L412.122 66.525L420.017 66.654L420.08 62.686L412.185 62.557ZM416.07 62.5895H411.711V70.5895H416.07V62.5895ZM415.312 74.1415V69.4055H407.416V74.1415H415.312ZM411.364 73.4055H416.417V65.4055H411.364V73.4055ZM412.469 69.4055V74.1415H420.365V69.4055H412.469ZM416.417 70.1415H411.364V78.1415H416.417V70.1415Z" fill="#CDF3E1"/>
<path d="M83.1603 74.1415L77.2858 50.7815H81.9285L86.6976 71.1015L85.4658 70.3655H88.6241L87.2345 71.1015L90.9929 51.6775H94.846L90.1717 74.1415H83.1603ZM96.9305 74.1415L91.8456 51.6775H95.8567L100.184 71.1015L98.8255 70.3655H101.921L100.72 71.1015L104.921 50.7815H109.311L104.068 74.1415H96.9305ZM112.549 74.1415V50.7815H116.939V64.4135H116.181C116.181 62.6642 116.402 61.1815 116.844 59.9655C117.286 58.7495 117.94 57.8215 118.802 57.1815C119.687 56.5415 120.803 56.2215 122.15 56.2215H122.34C124.298 56.2215 125.782 56.9042 126.793 58.2695C127.803 59.6348 128.309 61.6188 128.309 64.2215V74.1415H123.919V63.8055C123.919 62.6962 123.603 61.8215 122.971 61.1815C122.361 60.5415 121.55 60.2215 120.539 60.2215C119.466 60.2215 118.592 60.5842 117.918 61.3095C117.266 62.0135 116.939 62.9415 116.939 64.0935V74.1415H112.549ZM143.419 74.1415V68.9895H142.693V63.2615C142.693 62.2588 142.451 61.5122 141.966 61.0215C141.483 60.5308 140.735 60.2855 139.724 60.2855C139.198 60.2855 138.566 60.2962 137.829 60.3175C137.093 60.3388 136.345 60.3708 135.587 60.4135C134.85 60.4348 134.187 60.4668 133.597 60.5095V56.7335C134.082 56.6908 134.629 56.6482 135.239 56.6055C135.85 56.5628 136.471 56.5415 137.103 56.5415C137.756 56.5202 138.366 56.5095 138.934 56.5095C140.703 56.5095 142.167 56.7442 143.325 57.2135C144.504 57.6828 145.388 58.4188 145.978 59.4215C146.588 60.4242 146.893 61.7362 146.893 63.3575V74.1415H143.419ZM137.892 74.5895C136.651 74.5895 135.555 74.3655 134.608 73.9175C133.682 73.4695 132.955 72.8295 132.428 71.9975C131.923 71.1655 131.67 70.1628 131.67 68.9895C131.67 67.7095 131.976 66.6642 132.586 65.8535C133.218 65.0428 134.092 64.4348 135.208 64.0295C136.345 63.6242 137.671 63.4215 139.187 63.4215H143.167V66.0775H139.124C138.113 66.0775 137.335 66.3335 136.787 66.8455C136.261 67.3362 135.997 67.9762 135.997 68.7655C135.997 69.5548 136.261 70.1948 136.787 70.6855C137.335 71.1765 138.113 71.4215 139.124 71.4215C139.735 71.4215 140.293 71.3145 140.798 71.1015C141.325 70.8668 141.756 70.4828 142.093 69.9495C142.451 69.3948 142.651 68.6482 142.693 67.7095L143.767 68.9575C143.662 70.1735 143.367 71.1975 142.882 72.0295C142.419 72.8615 141.767 73.5015 140.924 73.9495C140.103 74.3765 139.092 74.5895 137.892 74.5895ZM159.05 74.3655C157.471 74.3655 156.165 74.1625 155.134 73.7575C154.123 73.3305 153.365 72.6265 152.86 71.6455C152.354 70.6428 152.102 69.2988 152.102 67.6135L152.133 51.8695H156.239L156.207 67.9015C156.207 68.7548 156.429 69.4162 156.871 69.8855C157.334 70.3335 157.986 70.5575 158.829 70.5575H161.513V74.3655H159.05ZM149.386 60.0295V56.7655H161.513V60.0295H149.386ZM182.405 74.1415V68.9895H181.678V63.2615C181.678 62.2588 181.436 61.5122 180.952 61.0215C180.468 60.5308 179.72 60.2855 178.709 60.2855C178.183 60.2855 177.552 60.2962 176.814 60.3175C176.078 60.3388 175.33 60.3708 174.572 60.4135C173.836 60.4348 173.172 60.4668 172.582 60.5095V56.7335C173.067 56.6908 173.615 56.6482 174.225 56.6055C174.836 56.5628 175.456 56.5415 176.088 56.5415C176.741 56.5202 177.351 56.5095 177.92 56.5095C179.688 56.5095 181.152 56.7442 182.31 57.2135C183.489 57.6828 184.374 58.4188 184.963 59.4215C185.574 60.4242 185.879 61.7362 185.879 63.3575V74.1415H182.405ZM176.878 74.5895C175.636 74.5895 174.54 74.3655 173.593 73.9175C172.667 73.4695 171.941 72.8295 171.414 71.9975C170.908 71.1655 170.656 70.1628 170.656 68.9895C170.656 67.7095 170.962 66.6642 171.572 65.8535C172.203 65.0428 173.078 64.4348 174.193 64.0295C175.33 63.6242 176.657 63.4215 178.172 63.4215H182.152V66.0775H178.109C177.099 66.0775 176.32 66.3335 175.772 66.8455C175.246 67.3362 174.983 67.9762 174.983 68.7655C174.983 69.5548 175.246 70.1948 175.772 70.6855C176.32 71.1765 177.099 71.4215 178.109 71.4215C178.72 71.4215 179.278 71.3145 179.783 71.1015C180.31 70.8668 180.742 70.4828 181.078 69.9495C181.436 69.3948 181.637 68.6482 181.678 67.7095L182.752 68.9575C182.647 70.1735 182.352 71.1975 181.868 72.0295C181.405 72.8615 180.752 73.5015 179.91 73.9495C179.088 74.3765 178.078 74.5895 176.878 74.5895ZM190.582 74.1415V56.7655H194.056V64.1255H193.961C193.961 61.6295 194.487 59.7415 195.54 58.4615C196.592 57.1815 198.14 56.5415 200.183 56.5415H200.815V60.4135H199.614C198.14 60.4135 196.993 60.8188 196.172 61.6295C195.371 62.4188 194.972 63.5708 194.972 65.0855V74.1415H190.582ZM211.303 74.7495C209.829 74.7495 208.534 74.4935 207.418 73.9815C206.323 73.4695 205.407 72.7865 204.671 71.9335C203.954 71.0588 203.407 70.0882 203.028 69.0215C202.67 67.9548 202.491 66.8668 202.491 65.7575V65.1495C202.491 63.9975 202.67 62.8882 203.028 61.8215C203.407 60.7335 203.954 59.7735 204.671 58.9415C205.407 58.0882 206.313 57.4162 207.387 56.9255C208.461 56.4135 209.702 56.1575 211.114 56.1575C212.966 56.1575 214.514 56.5735 215.756 57.4055C217.02 58.2162 217.967 59.2935 218.599 60.6375C219.23 61.9602 219.546 63.3895 219.546 64.9255V66.5255H204.355V63.8055H216.799L215.441 65.1495C215.441 64.0402 215.283 63.0908 214.967 62.3015C214.651 61.5122 214.166 60.9042 213.514 60.4775C212.882 60.0508 212.082 59.8375 211.114 59.8375C210.144 59.8375 209.323 60.0615 208.65 60.5095C207.976 60.9575 207.46 61.6082 207.103 62.4615C206.765 63.2935 206.597 64.2962 206.597 65.4695C206.597 66.5575 206.765 67.5282 207.103 68.3815C207.439 69.2135 207.955 69.8748 208.65 70.3655C209.345 70.8348 210.229 71.0695 211.303 71.0695C212.377 71.0695 213.25 70.8562 213.925 70.4295C214.598 69.9815 215.03 69.4375 215.219 68.7975H219.262C219.009 69.9922 218.525 71.0375 217.809 71.9335C217.093 72.8295 216.177 73.5225 215.062 74.0135C213.966 74.5045 212.713 74.7495 211.303 74.7495ZM245.316 74.1415L236.883 63.2295H233.63L243.642 50.7815H248.79L239.757 61.9815L239.631 59.7415L250.78 74.1415H245.316ZM230.377 74.1415V50.7815H234.862V74.1415H230.377ZM260.757 74.7495C259.241 74.7495 257.904 74.5045 256.746 74.0135C255.588 73.5225 254.608 72.8615 253.809 72.0295C253.009 71.1765 252.398 70.2162 251.977 69.1495C251.576 68.0828 251.377 66.9735 251.377 65.8215V65.1495C251.377 63.9548 251.587 62.8242 252.009 61.7575C252.451 60.6695 253.072 59.7095 253.872 58.8775C254.693 58.0242 255.682 57.3628 256.841 56.8935C257.999 56.4028 259.304 56.1575 260.757 56.1575C262.21 56.1575 263.515 56.4028 264.674 56.8935C265.831 57.3628 266.81 58.0242 267.611 58.8775C268.432 59.7095 269.053 60.6695 269.474 61.7575C269.895 62.8242 270.106 63.9548 270.106 65.1495V65.8215C270.106 66.9735 269.895 68.0828 269.474 69.1495C269.073 70.2162 268.473 71.1765 267.674 72.0295C266.874 72.8615 265.894 73.5225 264.737 74.0135C263.578 74.5045 262.252 74.7495 260.757 74.7495ZM260.757 70.9415C261.831 70.9415 262.736 70.7068 263.473 70.2375C264.21 69.7468 264.768 69.0962 265.147 68.2855C265.526 67.4535 265.716 66.5148 265.716 65.4695C265.716 64.4028 265.515 63.4642 265.116 62.6535C264.737 61.8215 264.168 61.1708 263.41 60.7015C262.673 60.2108 261.789 59.9655 260.757 59.9655C259.725 59.9655 258.831 60.2108 258.073 60.7015C257.335 61.1708 256.767 61.8215 256.367 62.6535C255.966 63.4642 255.767 64.4028 255.767 65.4695C255.767 66.5148 255.957 67.4535 256.336 68.2855C256.735 69.0962 257.304 69.7468 258.041 70.2375C258.777 70.7068 259.683 70.9415 260.757 70.9415ZM274.771 74.1415V56.7655H279.161V74.1415H274.771ZM272.371 60.0935V56.7655H279.161V60.0935H272.371ZM276.382 54.6855C275.518 54.6855 274.876 54.4615 274.455 54.0135C274.055 53.5442 273.855 52.9682 273.855 52.2855C273.855 51.5602 274.055 50.9735 274.455 50.5255C274.876 50.0775 275.518 49.8535 276.382 49.8535C277.245 49.8535 277.876 50.0775 278.277 50.5255C278.677 50.9735 278.877 51.5602 278.877 52.2855C278.877 52.9682 278.677 53.5442 278.277 54.0135C277.876 54.4615 277.245 54.6855 276.382 54.6855ZM285.042 74.1415V56.7655H289.432V74.1415H285.042ZM282.641 60.0935V56.7655H289.432V60.0935H282.641ZM286.652 54.6855C285.789 54.6855 285.146 54.4615 284.726 54.0135C284.325 53.5442 284.126 52.9682 284.126 52.2855C284.126 51.5602 284.325 50.9735 284.726 50.5255C285.146 50.0775 285.789 49.8535 286.652 49.8535C287.515 49.8535 288.147 50.0775 288.547 50.5255C288.947 50.9735 289.147 51.5602 289.147 52.2855C289.147 52.9682 288.947 53.5442 288.547 54.0135C288.147 54.4615 287.515 54.6855 286.652 54.6855ZM301.654 74.1415V50.7815H309.013L318.709 70.3655H319.751L319.12 70.9415V50.7815H323.352V74.1415H315.961L306.265 54.5575H305.192L305.823 53.9815V74.1415H301.654ZM336.939 74.7495C335.423 74.7495 334.086 74.5045 332.927 74.0135C331.77 73.5225 330.791 72.8615 329.99 72.0295C329.191 71.1765 328.58 70.2162 328.158 69.1495C327.759 68.0828 327.558 66.9735 327.558 65.8215V65.1495C327.558 63.9548 327.77 62.8242 328.19 61.7575C328.632 60.6695 329.254 59.7095 330.053 58.8775C330.875 58.0242 331.865 57.3628 333.022 56.8935C334.181 56.4028 335.486 56.1575 336.939 56.1575C338.391 56.1575 339.697 56.4028 340.855 56.8935C342.014 57.3628 342.993 58.0242 343.792 58.8775C344.613 59.7095 345.235 60.6695 345.655 61.7575C346.077 62.8242 346.287 63.9548 346.287 65.1495V65.8215C346.287 66.9735 346.077 68.0828 345.655 69.1495C345.256 70.2162 344.656 71.1765 343.855 72.0295C343.056 72.8615 342.077 73.5225 340.918 74.0135C339.76 74.5045 338.434 74.7495 336.939 74.7495ZM336.939 70.9415C338.012 70.9415 338.918 70.7068 339.655 70.2375C340.392 69.7468 340.95 69.0962 341.329 68.2855C341.708 67.4535 341.897 66.5148 341.897 65.4695C341.897 64.4028 341.698 63.4642 341.297 62.6535C340.918 61.8215 340.35 61.1708 339.592 60.7015C338.855 60.2108 337.971 59.9655 336.939 59.9655C335.907 59.9655 335.012 60.2108 334.254 60.7015C333.518 61.1708 332.949 61.8215 332.549 62.6535C332.149 63.4642 331.948 64.4028 331.948 65.4695C331.948 66.5148 332.138 67.4535 332.517 68.2855C332.918 69.0962 333.486 69.7468 334.222 70.2375C334.96 70.7068 335.865 70.9415 336.939 70.9415ZM357.238 74.7175C356.037 74.7175 354.932 74.4935 353.921 74.0455C352.911 73.5975 352.037 72.9685 351.3 72.1575C350.563 71.3465 349.994 70.4082 349.594 69.3415C349.195 68.2535 348.994 67.0802 348.994 65.8215V65.1495C348.994 63.9122 349.184 62.7495 349.563 61.6615C349.963 60.5735 350.51 59.6242 351.205 58.8135C351.921 58.0028 352.774 57.3735 353.763 56.9255C354.774 56.4562 355.89 56.2215 357.111 56.2215C358.459 56.2215 359.638 56.5202 360.649 57.1175C361.68 57.6935 362.501 58.5682 363.112 59.7415C363.723 60.9148 364.06 62.3868 364.123 64.1575L362.828 62.6215V50.7815H367.218V74.1415H363.744V66.7495H364.502C364.439 68.5202 364.08 70.0028 363.428 71.1975C362.775 72.3705 361.912 73.2565 360.838 73.8535C359.785 74.4295 358.585 74.7175 357.238 74.7175ZM358.217 70.9735C359.08 70.9735 359.87 70.7815 360.585 70.3975C361.301 69.9922 361.869 69.4162 362.291 68.6695C362.733 67.9015 362.954 67.0055 362.954 65.9815V64.7015C362.954 63.6775 362.733 62.8242 362.291 62.1415C361.849 61.4375 361.269 60.9042 360.554 60.5415C359.838 60.1575 359.059 59.9655 358.217 59.9655C357.269 59.9655 356.427 60.2002 355.69 60.6695C354.974 61.1175 354.406 61.7575 353.985 62.5895C353.585 63.4215 353.384 64.3922 353.384 65.5015C353.384 66.6108 353.595 67.5815 354.016 68.4135C354.438 69.2242 355.006 69.8535 355.722 70.3015C356.459 70.7495 357.29 70.9735 358.217 70.9735ZM379.89 74.7495C378.416 74.7495 377.121 74.4935 376.005 73.9815C374.91 73.4695 373.994 72.7865 373.257 71.9335C372.542 71.0588 371.994 70.0882 371.615 69.0215C371.256 67.9548 371.078 66.8668 371.078 65.7575V65.1495C371.078 63.9975 371.256 62.8882 371.615 61.8215C371.994 60.7335 372.542 59.7735 373.257 58.9415C373.994 58.0882 374.899 57.4162 375.973 56.9255C377.047 56.4135 378.29 56.1575 379.7 56.1575C381.553 56.1575 383.1 56.5735 384.343 57.4055C385.606 58.2162 386.554 59.2935 387.185 60.6375C387.817 61.9602 388.133 63.3895 388.133 64.9255V66.5255H372.941V63.8055H385.385L384.027 65.1495C384.027 64.0402 383.869 63.0908 383.553 62.3015C383.237 61.5122 382.753 60.9042 382.1 60.4775C381.469 60.0508 380.668 59.8375 379.7 59.8375C378.732 59.8375 377.911 60.0615 377.237 60.5095C376.562 60.9575 376.047 61.6082 375.689 62.4615C375.352 63.2935 375.184 64.2962 375.184 65.4695C375.184 66.5575 375.352 67.5282 375.689 68.3815C376.026 69.2135 376.542 69.8748 377.237 70.3655C377.931 70.8348 378.816 71.0695 379.89 71.0695C380.963 71.0695 381.837 70.8562 382.511 70.4295C383.185 69.9815 383.616 69.4375 383.806 68.7975H387.848C387.596 69.9922 387.111 71.0375 386.396 71.9335C385.68 72.8295 384.764 73.5225 383.648 74.0135C382.553 74.5045 381.3 74.7495 379.89 74.7495ZM398.022 74.6855C395.663 74.6855 393.811 74.1845 392.464 73.1815C391.137 72.1575 390.442 70.7495 390.379 68.9575H394.327C394.39 69.5548 394.716 70.0988 395.306 70.5895C395.895 71.0802 396.822 71.3255 398.085 71.3255C399.137 71.3255 399.969 71.1335 400.58 70.7495C401.212 70.3655 401.528 69.8428 401.528 69.1815C401.528 68.6055 401.285 68.1468 400.801 67.8055C400.338 67.4642 399.538 67.2402 398.401 67.1335L396.885 66.9735C394.968 66.7602 393.495 66.2055 392.464 65.3095C391.431 64.4135 390.916 63.2188 390.916 61.7255C390.916 60.5308 391.21 59.5282 391.8 58.7175C392.39 57.9068 393.2 57.2988 394.232 56.8935C395.284 56.4668 396.484 56.2535 397.833 56.2535C399.938 56.2535 401.643 56.7228 402.949 57.6615C404.254 58.6002 404.939 59.9762 405.002 61.7895H401.054C401.012 61.1922 400.717 60.6802 400.17 60.2535C399.622 59.8268 398.833 59.6135 397.801 59.6135C396.874 59.6135 396.159 59.7948 395.653 60.1575C395.148 60.5202 394.895 60.9895 394.895 61.5655C394.895 62.1202 395.095 62.5468 395.496 62.8455C395.916 63.1442 396.59 63.3468 397.517 63.4535L399.033 63.6135C401.054 63.8268 402.633 64.3922 403.77 65.3095C404.928 66.2268 405.507 67.4642 405.507 69.0215C405.507 70.1735 405.192 71.1765 404.56 72.0295C403.949 72.8615 403.085 73.5125 401.97 73.9815C400.854 74.4505 399.538 74.6855 398.022 74.6855ZM411.711 66.5895V60.8935H414.396C415.659 60.8935 416.585 60.5628 417.175 59.9015C417.785 59.2188 418.091 58.3868 418.091 57.4055C418.091 56.7015 417.954 56.0935 417.681 55.5815C417.406 55.0482 417.007 54.6428 416.48 54.3655C415.953 54.0882 415.344 53.9495 414.649 53.9495C413.891 53.9495 413.237 54.1095 412.691 54.4295C412.164 54.7495 411.753 55.1762 411.459 55.7095C411.164 56.2428 411.017 56.8615 411.017 57.5655H406.816C406.816 56.2002 407.121 54.9522 407.732 53.8215C408.342 52.6908 409.237 51.7948 410.417 51.1335C411.595 50.4508 413.038 50.1095 414.743 50.1095C416.301 50.1095 417.638 50.4188 418.754 51.0375C419.891 51.6348 420.765 52.4562 421.376 53.5015C421.986 54.5468 422.292 55.7308 422.292 57.0535V57.4375C422.292 58.7388 421.986 59.9015 421.376 60.9255C420.765 61.9495 419.86 62.7602 418.66 63.3575C417.48 63.9335 416.038 64.2428 414.333 64.2855L416.133 62.6215L416.07 66.5895H411.711ZM411.364 74.1415V69.4055H416.417V74.1415H411.364Z" fill="#171753"/>
</svg>
