<?xml version="1.0"?>
<svg width="143" height="183" xmlns="http://www.w3.org/2000/svg" xmlns:svg="http://www.w3.org/2000/svg">

 <g class="layer">
  <title>Layer 1</title>
  <path d="m4.91,17.43l-3.69,2.19l0,76.93c0,3.63 2.46,8.03 5.54,9.87l126.15,74.99c1.54,0.92 2.94,0.99 3.93,0.39l3.66,-2.18c1,-0.6 1.61,-1.87 1.61,-3.7l0,-76.94l-137.2,-81.55z" fill="white" id="svg_1"/>
  <path d="m135.37,183c-0.92,0 -1.88,-0.28 -2.87,-0.88l-126.15,-75c-3.32,-1.97 -5.92,-6.62 -5.92,-10.57l0,-76.93c0,-0.28 0.14,-0.57 0.41,-0.71l3.7,-2.18c0.24,-0.14 0.55,-0.14 0.79,0l137.19,81.55c0.24,0.14 0.41,0.42 0.41,0.7l0,76.94c0,2.08 -0.71,3.63 -2.02,4.4l-3.66,2.19c-0.03,0 -0.06,0.03 -0.06,0.03c-0.55,0.32 -1.17,0.46 -1.82,0.46zm-133.33,-162.92l0,76.47c0,3.35 2.29,7.47 5.13,9.13l126.15,75.03c1.2,0.7 2.36,0.85 3.15,0.39c0.03,0 0.06,-0.04 0.06,-0.04l3.6,-2.11c0.78,-0.46 1.23,-1.52 1.23,-2.96l0,-76.51l-136.45,-81.09l-2.87,1.69z" fill="#171753" id="svg_2"/>
  <path d="m1.22,19.62l0,76.93c0,3.63 2.46,8.03 5.54,9.87l126.15,74.99c3.04,1.84 5.54,0.36 5.54,-3.27l0,-76.97l-137.23,-81.55z" fill="white" id="svg_3"/>
  <path d="m135.37,183c-0.92,0 -1.88,-0.32 -2.87,-0.88l-126.15,-75c-3.32,-1.97 -5.92,-6.62 -5.92,-10.57l0,-76.93c0,-0.28 0.14,-0.57 0.41,-0.71c0.24,-0.14 0.55,-0.14 0.79,0l137.2,81.55c0.24,0.15 0.41,0.43 0.41,0.71l0,76.93c0,1.45 -0.34,2.65 -1.03,3.49c-0.68,0.92 -1.68,1.41 -2.84,1.41zm-133.33,-161.97l0,75.52c0,3.35 2.29,7.47 5.13,9.13l126.15,75.03c0.75,0.42 1.47,0.67 2.09,0.67c0.65,0 1.19,-0.25 1.57,-0.74c0.45,-0.56 0.68,-1.41 0.68,-2.47l0,-76.51l-135.62,-80.63z" fill="#171753" id="svg_4"/>
  <path d="m136.6,76.58l-126.14,-75c-1.54,-0.91 -2.95,-0.98 -3.94,-0.38l-3.66,2.18c-1.02,0.6 -1.64,1.87 -1.64,3.66l0,12.58l137.2,81.55l3.69,-2.19l0,-12.57c0,-3.59 -2.46,-8 -5.51,-9.83z" fill="#49CE8B" id="svg_5"/>
  <path d="m138.45,102.01c-0.14,0 -0.27,-0.03 -0.41,-0.1l-137.2,-81.59c-0.24,-0.14 -0.41,-0.42 -0.41,-0.7l0,-12.58c0,-2.04 0.72,-3.59 2.02,-4.37l3.66,-2.18c0.04,-0.03 0.07,-0.03 0.1,-0.03c1.27,-0.74 2.95,-0.57 4.66,0.42l126.14,75c3.32,1.97 5.92,6.62 5.92,10.56l0,12.58c0,0.28 -0.13,0.56 -0.41,0.7l-3.69,2.19c-0.11,0.07 -0.24,0.1 -0.38,0.1zm-136.41,-82.85l136.41,81.09l2.87,-1.72l0,-12.09c0,-3.34 -2.29,-7.46 -5.13,-9.12l-126.14,-75.03c-1.2,-0.71 -2.36,-0.85 -3.15,-0.39c-0.04,0.03 -0.07,0.03 -0.1,0.07l-3.56,2.11c-0.79,0.5 -1.2,1.52 -1.2,2.96l0,12.12z" fill="#171753" id="svg_6"/>
  <path d="m122.1,91.48l16.32,9.69l3.69,-2.19l0,-12.57c0,-1.87 -0.68,-3.98 -1.74,-5.81l-18.27,10.88z" fill="#171753" id="svg_7"/>
  <path d="m138.45,102.01c-0.14,0 -0.27,-0.03 -0.41,-0.1l-16.32,-9.69c-0.24,-0.14 -0.41,-0.42 -0.41,-0.7c0,-0.29 0.14,-0.57 0.41,-0.71l18.27,-10.85c0.38,-0.21 0.85,-0.1 1.1,0.28c1.19,2.05 1.88,4.27 1.88,6.24l0,12.57c0,0.29 -0.14,0.57 -0.41,0.71l-3.7,2.18c-0.14,0.04 -0.27,0.07 -0.41,0.07zm-14.75,-10.53l14.75,8.77l2.87,-1.72l0,-12.09c0,-1.44 -0.44,-3.1 -1.26,-4.68l-16.36,9.72z" fill="#171753" id="svg_8"/>
  <path d="m138.45,101.17l0,-12.58c0,-3.63 -2.46,-8.03 -5.54,-9.86l-126.15,-74.96c-3.04,-1.8 -5.54,-0.32 -5.54,3.27l0,12.58l137.23,81.55z" fill="#49CE8B" id="svg_9"/>
  <path d="m138.45,102.01c-0.14,0 -0.27,-0.03 -0.41,-0.1l-137.2,-81.59c-0.24,-0.14 -0.41,-0.42 -0.41,-0.7l0,-12.58c0,-2.96 1.51,-4.86 3.87,-4.86c0.92,0 1.88,0.28 2.87,0.88l126.15,75c3.32,1.97 5.92,6.62 5.92,10.57l0,12.57c0,0.28 -0.14,0.57 -0.41,0.71c-0.1,0.07 -0.24,0.1 -0.38,0.1zm-136.41,-82.85l135.59,80.6l0,-11.13c0,-3.35 -2.29,-7.47 -5.13,-9.13l-126.15,-74.99c-0.75,-0.43 -1.44,-0.67 -2.09,-0.67c-1.4,0 -2.25,1.19 -2.25,3.24l0,12.08l0.03,0z" fill="#171753" id="svg_10"/>
  <path d="m128.8,88.17c-1.06,-0.63 -1.91,-2.15 -1.91,-3.42c0,-1.27 0.85,-1.76 1.91,-1.12c1.06,0.63 1.92,2.14 1.92,3.41c0,1.27 -0.86,1.76 -1.92,1.13zm-9.13,-7.71c0,-1.27 -0.86,-2.79 -1.92,-3.42c-1.06,-0.64 -1.91,-0.11 -1.91,1.13c0,1.23 0.85,2.78 1.91,3.41c1.06,0.64 1.92,0.14 1.92,-1.12zm-11.05,-6.56c0,-1.27 -0.86,-2.78 -1.92,-3.41c-1.06,-0.64 -1.91,-0.11 -1.91,1.12c0,1.27 0.85,2.79 1.91,3.42c1.03,0.63 1.92,0.11 1.92,-1.13z" fill="#171753" id="svg_11"/>
  <path d="m129.66,89.26c-0.41,0 -0.82,-0.14 -1.27,-0.39c-1.3,-0.77 -2.32,-2.6 -2.32,-4.12c0,-1.79 1.57,-2.78 3.11,-1.86c1.3,0.77 2.33,2.6 2.33,4.15c0,0.64 -0.17,1.16 -0.48,1.55c-0.31,0.43 -0.82,0.67 -1.37,0.67zm-1.71,-5.11c-0.24,0 -0.28,0.43 -0.28,0.6c0,0.95 0.72,2.22 1.54,2.72c0.52,0.31 0.55,0.14 0.62,0.1c0.03,-0.03 0.1,-0.18 0.1,-0.53c0,-0.95 -0.72,-2.22 -1.54,-2.71c-0.24,-0.14 -0.37,-0.18 -0.44,-0.18zm-9.34,-1.48c-0.41,0 -0.82,-0.14 -1.27,-0.38c-1.3,-0.78 -2.32,-2.61 -2.32,-4.12c0,-1.8 1.57,-2.79 3.11,-1.87c1.3,0.77 2.32,2.61 2.32,4.15c0,0.64 -0.17,1.17 -0.47,1.55c-0.31,0.46 -0.82,0.67 -1.37,0.67zm-1.75,-5.1c-0.24,0 -0.27,0.42 -0.27,0.6c0,0.95 0.72,2.21 1.54,2.71c0.24,0.14 0.37,0.17 0.44,0.17c0.11,0 0.14,-0.03 0.14,-0.07c0.03,-0.03 0.1,-0.17 0.1,-0.53c0,-0.95 -0.72,-2.21 -1.54,-2.71c-0.17,-0.14 -0.3,-0.17 -0.41,-0.17zm-9.34,-1.45c-0.41,0 -0.82,-0.14 -1.26,-0.39c-1.3,-0.77 -2.33,-2.6 -2.33,-4.15c0,-1.8 1.57,-2.78 3.11,-1.87c1.3,0.78 2.33,2.61 2.33,4.16c0.03,1.34 -0.72,2.25 -1.85,2.25zm-1.71,-5.11c-0.24,0 -0.27,0.43 -0.27,0.6c0,0.95 0.72,2.22 1.54,2.72c0.24,0.14 0.37,0.17 0.44,0.17c0.24,0 0.28,-0.42 0.28,-0.6c0,-0.95 -0.72,-2.22 -1.54,-2.71c-0.21,-0.18 -0.38,-0.18 -0.45,-0.18z" fill="#171753" id="svg_12"/>
  <path d="m138.3,114.26l-135.88,-80.98l0,13.04l135.88,80.98l0,-13.04z" fill="#9BE7C4" id="svg_13" stroke="#171753" stroke-width="1.71"/>
  <path d="m29.2,66.01l106.13,62.6l0,8.44l-106.13,-62.6l0,-8.44z" fill="#49CE8B" id="svg_14"/>
  <path d="m29.2,79.93l106.13,62.6l0,8.45l-106.13,-62.61l0,-8.44z" fill="#49CE8B" id="svg_15"/>
  <path d="m29.2,93.21l106.13,62.6l0,8.44l-106.13,-62.6l0,-8.44z" fill="#49CE8B" id="svg_16"/>
  <path d="m29.2,106.48l106.13,62.61l0,8.44l-106.13,-62.6l0,-8.45z" fill="#49CE8B" id="svg_17"/>
  <path d="m2.42,20.42l135.88,80.99l0,12.98l-135.88,-80.98l0,-12.99z" fill="#BEF0ED" id="svg_18" stroke="#171753" stroke-width="1.71" transform="matrix(1, 0, 0, 1, 0, 0)"/>
  <path d="m23.64,37.24l-15.66,-9.31c-0.33,-0.2 -0.6,-0.04 -0.6,0.35l0,3.6c0,0.39 0.27,0.87 0.6,1.07l15.66,9.31c0.34,0.2 0.61,0.04 0.61,-0.35l0,-3.6c0,-0.39 -0.27,-0.87 -0.61,-1.07z" fill="#171753" id="svg_19"/>
  <path d="m23.05,63.05l-16.46,-9.78c-0.44,-0.26 -0.79,-0.05 -0.79,0.46l0,11.51c0,0.51 0.35,1.14 0.79,1.4l16.46,9.78c0.43,0.26 0.79,0.06 0.79,-0.46l0,-11.5c0,-0.52 -0.36,-1.15 -0.79,-1.41z" fill="#9BE7C4" id="svg_20" stroke="#171753" stroke-width="0.95"/>
  <path d="m23.05,83.48l-16.46,-9.79c-0.44,-0.26 -0.79,-0.05 -0.79,0.47l0,11.5c0,0.52 0.35,1.15 0.79,1.41l16.46,9.78c0.43,0.26 0.79,0.05 0.79,-0.46l0,-11.51c0,-0.51 -0.36,-1.14 -0.79,-1.4z" fill="#9BE7C4" id="svg_21" stroke="#171753" stroke-width="0.95"/>
  <path d="m23.05,101.94l-16.46,-9.78c-0.44,-0.26 -0.79,-0.05 -0.79,0.46l0,7.34c0,0.51 0.35,1.14 0.79,1.4l16.46,9.79c0.43,0.26 0.79,0.05 0.79,-0.46l0,-7.34c0,-0.52 -0.36,-1.15 -0.79,-1.41z" fill="#9BE7C4" id="svg_22" stroke="#171753" stroke-width="0.95"/>
 </g>
</svg>