<svg width="145" height="183" viewBox="0 0 145 183" fill="none" xmlns="http://www.w3.org/2000/svg">
<path d="M4.69582 17.4346L0.951935 19.6186V96.5537C0.951935 100.182 3.44786 104.585 6.56776 106.417L134.38 181.415C135.94 182.331 137.361 182.401 138.366 181.802L142.075 179.618C143.081 179.019 143.705 177.751 143.705 175.919V98.9843L4.69582 17.4346Z" fill="white"/>
<path d="M136.875 183C135.939 183 134.969 182.718 133.964 182.119L6.15159 107.122C2.78903 105.149 0.154449 100.499 0.154449 96.5539V19.6188C0.154449 19.337 0.293112 19.0552 0.570436 18.9142L4.31432 16.7302C4.55698 16.5893 4.86897 16.5893 5.11163 16.7302L144.121 98.28C144.363 98.4209 144.537 98.7027 144.537 98.9845V175.92C144.537 177.998 143.809 179.548 142.491 180.323L138.782 182.507C138.747 182.507 138.713 182.542 138.713 182.542C138.158 182.859 137.534 183 136.875 183ZM1.78373 20.0767V96.5539C1.78373 99.9004 4.10632 104.022 6.98357 105.678L134.796 180.71C136.009 181.415 137.187 181.556 137.985 181.098C138.019 181.098 138.054 181.063 138.054 181.063L141.694 178.949C142.491 178.491 142.942 177.434 142.942 175.99V99.4777L4.69564 18.3858L1.78373 20.0767Z" fill="#171753"/>
<path d="M0.951935 19.6187V96.5537C0.951935 100.182 3.44786 104.585 6.56776 106.417L134.38 181.415C137.465 183.247 139.996 181.767 139.996 178.139V101.168L0.951935 19.6187Z" fill="white"/>
<path d="M136.875 183C135.939 183 134.969 182.683 133.964 182.119L6.15159 107.122C2.78903 105.149 0.154449 100.499 0.154449 96.5539V19.6188C0.154449 19.337 0.293112 19.0552 0.570436 18.9143C0.813095 18.7734 1.12509 18.7734 1.36774 18.9143L140.377 100.464C140.619 100.605 140.793 100.887 140.793 101.169V178.104C140.793 179.548 140.446 180.746 139.753 181.591C139.059 182.507 138.054 183 136.875 183ZM1.78373 21.0279V96.5539C1.78373 99.9004 4.10632 104.022 6.98357 105.678L134.796 180.71C135.558 181.133 136.286 181.38 136.91 181.38C137.569 181.38 138.123 181.133 138.505 180.64C138.955 180.076 139.198 179.231 139.198 178.174V101.662L1.78373 21.0279Z" fill="#171753"/>
<path d="M138.123 76.5801L10.3114 1.58245C8.75144 0.666557 7.33016 0.596104 6.32485 1.19496L2.61564 3.37901C1.57567 3.97787 0.951691 5.24603 0.951691 7.04259V19.6185L139.961 101.168L143.705 98.9842V86.4083C143.705 82.8152 141.209 78.4118 138.123 76.5801Z" fill="#49CE8B"/>
<path d="M139.995 102.014C139.856 102.014 139.718 101.979 139.579 101.908L0.570192 20.3232C0.327533 20.1823 0.154205 19.9005 0.154205 19.6187V7.04273C0.154205 4.99958 0.882182 3.44961 2.19947 2.67462L5.90869 0.490566C5.94336 0.45534 5.97802 0.45534 6.01269 0.45534C7.29531 -0.28442 8.99393 -0.108287 10.7272 0.87806L138.539 75.8757C141.902 77.8484 144.536 82.4983 144.536 86.4437V99.0196C144.536 99.3014 144.398 99.5832 144.12 99.7241L140.376 101.908C140.272 101.979 140.134 102.014 139.995 102.014ZM1.78349 19.1607L139.995 100.253L142.907 98.5264V86.4437C142.907 83.0971 140.584 78.9756 137.707 77.32L9.89523 2.28713C8.68194 1.58259 7.50331 1.44169 6.706 1.89963C6.67133 1.93486 6.63667 1.93486 6.602 1.97009L2.99678 4.08369C2.19947 4.57686 1.78349 5.59843 1.78349 7.04273V19.1607Z" fill="#171753"/>
<path d="M123.425 91.4812L139.961 101.169L143.705 98.9845V86.4086C143.705 84.5416 143.011 82.428 141.937 80.5962L123.425 91.4812Z" fill="#171753"/>
<path d="M139.995 102.014C139.856 102.014 139.718 101.979 139.579 101.908L123.043 92.2209C122.801 92.08 122.627 91.7982 122.627 91.5163C122.627 91.2345 122.766 90.9527 123.043 90.8118L141.555 79.962C141.936 79.7506 142.421 79.8563 142.664 80.2438C143.877 82.287 144.571 84.5062 144.571 86.4789V99.0549C144.571 99.3367 144.432 99.6185 144.155 99.7594L140.411 101.943C140.272 101.979 140.134 102.014 139.995 102.014ZM125.054 91.4811L139.995 100.253L142.907 98.5265V86.4437C142.907 84.9994 142.456 83.3438 141.624 81.7586L125.054 91.4811Z" fill="#171753"/>
<path d="M139.996 101.168V88.5921C139.996 84.9638 137.5 80.5604 134.38 78.7287L6.56776 3.76628C3.48252 1.96972 0.951935 3.44924 0.951935 7.04236V19.6183L139.996 101.168Z" fill="#49CE8B"/>
<path d="M139.995 102.014C139.857 102.014 139.718 101.978 139.579 101.908L0.570436 20.3229C0.327777 20.182 0.154449 19.9002 0.154449 19.6184V7.04243C0.154449 4.08339 1.67973 2.18115 4.07166 2.18115C5.00763 2.18115 5.97827 2.46297 6.98357 3.06182L134.796 78.0594C138.158 80.0321 140.793 84.682 140.793 88.6274V101.203C140.793 101.485 140.654 101.767 140.377 101.908C140.273 101.978 140.134 102.014 139.995 102.014ZM1.78373 19.1604L139.163 99.7591V88.6274C139.163 85.2809 136.841 81.1594 133.964 79.5037L6.15159 4.50611C5.38895 4.08339 4.69564 3.83681 4.03699 3.83681C2.61571 3.83681 1.74907 5.03451 1.74907 7.07766V19.1604H1.78373Z" fill="#171753"/>
<path d="M130.22 88.1701C129.145 87.536 128.279 86.0213 128.279 84.7531C128.279 83.485 129.145 82.9918 130.22 83.6259C131.295 84.26 132.161 85.7747 132.161 87.0429C132.161 88.311 131.295 88.8042 130.22 88.1701ZM120.964 80.4555C120.964 79.1873 120.098 77.6726 119.023 77.0385C117.948 76.4044 117.082 76.9328 117.082 78.1657C117.082 79.3987 117.948 80.9486 119.023 81.5827C120.098 82.2168 120.964 81.7236 120.964 80.4555ZM109.767 73.9033C109.767 72.6352 108.901 71.1204 107.826 70.4863C106.751 69.8522 105.885 70.3806 105.885 71.6136C105.885 72.8817 106.751 74.3965 107.826 75.0306C108.866 75.6646 109.767 75.1362 109.767 73.9033Z" fill="#171753"/>
<path d="M131.087 89.2619C130.671 89.2619 130.255 89.121 129.804 88.8744C128.487 88.0994 127.447 86.2676 127.447 84.7529C127.447 82.9563 129.041 81.97 130.601 82.8859C131.918 83.6609 132.958 85.4927 132.958 87.0426C132.958 87.6767 132.785 88.2051 132.473 88.5926C132.161 89.0153 131.641 89.2619 131.087 89.2619ZM129.353 84.154C129.111 84.154 129.076 84.5768 129.076 84.7529C129.076 85.704 129.804 86.9722 130.636 87.4653C131.156 87.7824 131.191 87.6063 131.26 87.571C131.295 87.5358 131.364 87.3949 131.364 87.0426C131.364 86.0915 130.636 84.8233 129.804 84.3302C129.561 84.1893 129.423 84.154 129.353 84.154ZM119.89 82.6745C119.474 82.6745 119.058 82.5336 118.607 82.287C117.29 81.512 116.25 79.6802 116.25 78.1655C116.25 76.3689 117.844 75.3826 119.404 76.2985C120.722 77.0735 121.761 78.9053 121.761 80.4552C121.761 81.0893 121.588 81.6177 121.276 82.0052C120.964 82.4632 120.444 82.6745 119.89 82.6745ZM118.122 77.5666C117.879 77.5666 117.844 77.9894 117.844 78.1655C117.844 79.1166 118.572 80.3848 119.404 80.878C119.647 81.0189 119.786 81.0541 119.855 81.0541C119.959 81.0541 119.994 81.0189 119.994 80.9836C120.028 80.9484 120.098 80.8075 120.098 80.4552C120.098 79.5041 119.37 78.236 118.538 77.7428C118.364 77.6019 118.226 77.5666 118.122 77.5666ZM108.658 76.1224C108.242 76.1224 107.826 75.9814 107.375 75.7349C106.058 74.9599 105.018 73.1281 105.018 71.5781C105.018 69.7816 106.613 68.7952 108.173 69.7111C109.49 70.4861 110.53 72.3179 110.53 73.8678C110.564 75.2065 109.802 76.1224 108.658 76.1224ZM106.925 71.0145C106.682 71.0145 106.647 71.4372 106.647 71.6133C106.647 72.5645 107.375 73.8326 108.207 74.3258C108.45 74.4667 108.589 74.5019 108.658 74.5019C108.901 74.5019 108.935 74.0792 108.935 73.9031C108.935 72.952 108.207 71.6838 107.375 71.1906C107.167 71.0145 106.994 71.0145 106.925 71.0145Z" fill="#171753"/>
<rect width="159.628" height="13.0376" transform="matrix(0.862513 0.507327 0 1 2.16418 33.2783)" fill="#9BE7C4" stroke="#171753" stroke-width="1.7125"/>
<path d="M29.2985 66.0081L136.831 128.609V137.051L29.2985 74.4499V66.0081Z" fill="#49CE8B"/>
<path d="M29.2985 79.9329L136.831 142.534V150.976L29.2985 88.3747V79.9329Z" fill="#49CE8B"/>
<path d="M29.2985 93.2092L136.831 155.811V164.253L29.2985 101.651V93.2092Z" fill="#49CE8B"/>
<path d="M29.2985 106.485L136.831 169.087V177.528L29.2985 114.927V106.485Z" fill="#49CE8B"/>
<path d="M2.16418 20.4248L139.846 101.406V114.393L2.16418 33.4116V20.4248Z" fill="#BEF0ED" stroke="#171753" stroke-width="1.7125"/>
<rect width="19.8188" height="5.01448" rx="0.710449" transform="matrix(0.862514 0.506033 0 1 7.18906 27.5737)" fill="#171753"/>
<rect x="0.409498" y="0.715022" width="21.1969" height="13.3706" rx="0.932115" transform="matrix(0.862514 0.506033 0 1 5.23541 51.8763)" fill="#9BE7C4" stroke="#171753" stroke-width="0.949544"/>
<rect x="0.409498" y="0.715022" width="21.1969" height="13.3706" rx="0.932115" transform="matrix(0.862514 0.506033 0 1 5.23541 72.3011)" fill="#9BE7C4" stroke="#171753" stroke-width="0.949544"/>
<rect x="0.409498" y="0.715022" width="21.1969" height="9.20085" rx="0.932115" transform="matrix(0.862514 0.506033 0 1 5.23541 90.7679)" fill="#9BE7C4" stroke="#171753" stroke-width="0.949544"/>
<path d="M86.0176 58.7353L45.068 34.6816C42.7161 33.275 40.641 33.1343 38.9808 33.9783L32.3404 38.3389C32.3404 38.3389 32.202 38.4796 32.3404 38.4796C32.8937 39.7456 38.4275 51.5614 38.9808 53.6714C39.2575 54.656 40.9177 63.6586 42.9928 74.0678V79.413C42.9928 82.367 44.0996 85.6023 45.7597 88.5563C47.8348 99.6688 49.6333 109.093 49.6333 109.093L55.7204 123.863L60.9774 120.628C61.3925 120.347 61.5308 119.925 61.3925 119.643L60.5624 117.252L68.7247 112.469C68.448 111.063 68.3096 109.515 68.1713 107.827L85.8793 127.942L92.1047 123.863L92.243 123.722C93.7648 122.738 94.7332 120.769 94.7332 117.955V74.3491C94.8716 68.5819 90.9979 61.5486 86.0176 58.7353Z" fill="#FFA54B"/>
<path d="M85.8804 128.646L69.1409 109.657C69.2792 110.501 69.4176 111.345 69.5559 112.189L69.6942 112.611L61.532 117.252L62.2237 119.081C62.5004 119.784 62.2237 120.628 61.532 120.91L55.5832 124.567L49.0811 108.953C49.0811 108.953 47.2826 99.5287 45.2075 88.4162C43.409 85.3216 42.4406 81.9456 42.4406 78.9916V73.787C39.3971 57.8919 38.567 53.9533 38.4287 53.3906C38.0136 51.7026 34.14 43.1221 31.7882 38.3395C31.6498 37.9175 31.7882 37.4955 32.0649 37.2142L39.1204 32.7129C40.9188 32.0096 43.1323 32.2909 45.3458 33.6975L86.4338 58.0326C91.5525 60.9865 95.5645 68.3011 95.5645 74.209V117.815C95.5645 120.769 94.5961 123.02 92.7976 124.145C92.6593 124.145 92.6592 124.286 92.5209 124.286L85.8804 128.646ZM67.4808 105.859L86.1571 126.958L92.1059 123.02C93.4893 122.035 94.3194 120.206 94.3194 117.815V74.209C94.3194 68.7231 90.4458 61.9712 85.8804 59.2985L44.9308 35.2449C42.8556 33.9789 40.9188 33.8382 39.5354 34.5415H39.3971L33.31 38.4802C34.6934 41.4341 39.2587 51.2807 39.8121 53.3906C39.9504 54.2346 41.3339 61.1272 43.824 73.9277V74.0684V79.4136C43.824 82.0863 44.7924 85.3216 46.4526 88.1349L46.5909 88.4162C48.6661 98.9661 50.3262 108.109 50.4645 108.953L56.2749 122.879L60.9786 120.066C61.117 120.066 61.117 119.925 61.117 119.784L60.1486 116.83L68.4492 112.048C68.1725 110.641 68.0341 109.235 67.8958 107.828L67.4808 105.859Z" fill="#171753"/>
<path d="M86.0181 58.5945L46.4519 35.3848L33.8627 43.684L76.1957 66.4717L84.773 67.8784L91.2752 63.9397C89.7534 61.6891 87.9549 59.8605 86.0181 58.5945Z" fill="white"/>
<path d="M84.911 68.4412L75.7803 66.8939L32.4789 43.6842L46.3132 34.541L86.2944 58.0321C88.2312 59.1574 90.168 61.1267 91.8282 63.518L92.2432 64.0806L84.911 68.4412ZM76.3337 65.7686L84.6343 67.0346L90.3064 63.6587C88.923 61.6893 87.2628 60.2827 85.6027 59.298L46.4515 36.229L35.2457 43.5436L76.3337 65.7686Z" fill="#171753"/>
<path d="M88.0942 74.9127C88.0942 74.9127 71.493 78.8513 70.5246 79.2733C69.6946 79.5546 53.3701 92.9178 47.8363 99.1071C48.9431 105.015 49.7731 108.954 49.7731 108.954L55.8602 123.723L61.394 120.488C61.809 120.207 61.9473 119.785 61.809 119.503L60.9789 117.112L68.8645 112.33C68.5878 110.923 60.4256 114.018 60.2872 112.47L86.0191 127.803L92.2445 123.723L92.3829 123.583C93.9047 122.598 94.8731 120.629 94.8731 117.815V74.35C94.8731 73.2247 94.7347 72.2401 94.458 71.1147L88.0942 74.9127Z" fill="#171753"/>
<path d="M93.2488 77.405L90.2077 79.3569L90.9459 80.5459L93.987 78.594L93.2488 77.405Z" fill="#FFA54B"/>
<path d="M93.2625 117.62L90.2222 119.573L90.9608 120.762L94.0011 118.809L93.2625 117.62Z" fill="#FFA54B"/>
<path d="M59.4119 117.124L56.3715 119.077L57.1101 120.265L60.1505 118.312L59.4119 117.124Z" fill="#FFA54B"/>
<path d="M79.6548 62.8156L38.7052 38.7619C33.8632 35.9486 29.8512 38.1992 29.8512 43.9665V87.5726C29.8512 93.3399 33.8632 100.232 38.7052 103.186L43.4088 105.859C44.2389 106.422 44.9306 107.406 45.069 108.532C45.6223 111.767 47.4208 118.66 54.0613 123.723C55.3064 124.708 56.4131 123.864 55.9981 122.176C55.5831 120.066 55.0297 117.394 55.0297 114.862C55.0297 113.736 55.8597 113.314 56.8282 113.877L79.6548 127.24C84.4968 130.053 88.5088 127.803 88.5088 122.035V78.4294C88.5088 72.6621 84.4968 65.7695 79.6548 62.8156Z" fill="#FFA54B"/>
<path d="M83.6673 129.209C82.2839 129.209 80.9004 128.787 79.3787 127.943L56.552 114.58C56.2753 114.439 55.9986 114.439 55.9986 114.439C55.8603 114.439 55.8603 114.721 55.8603 115.002C55.8603 117.534 56.4137 120.347 56.8287 122.176C57.1054 123.301 56.8287 124.286 56.137 124.708C55.4453 125.13 54.6152 124.989 53.7851 124.426C47.0063 119.363 45.0695 112.47 44.5161 108.813C44.3778 107.969 43.8244 106.984 43.1327 106.562L38.429 103.889C33.3103 100.935 29.2984 93.6209 29.2984 87.713V44.1069C29.2984 41.0122 30.4051 38.7616 32.2036 37.6363C34.1404 36.511 36.4922 36.7923 39.1208 38.1989L80.0704 62.2526C85.1891 65.2066 89.201 72.5212 89.201 78.4291V122.035C89.201 125.13 88.0943 127.38 86.2958 128.506C85.4658 128.928 84.4974 129.209 83.6673 129.209ZM55.9986 112.892C56.4137 112.892 56.6904 113.033 57.1054 113.173L79.932 126.536C82.0072 127.802 84.0823 128.084 85.4658 127.099C86.8492 126.255 87.6793 124.426 87.6793 121.895V78.2884C87.6793 72.8025 83.8057 66.0506 79.2403 63.3779L38.2907 39.3242C36.2155 38.0583 34.1404 37.7769 32.757 38.7616C31.3735 39.6056 30.5435 41.4342 30.5435 43.9662V87.5723C30.5435 93.0582 34.4171 99.8101 38.9824 102.483L43.6861 105.155C44.6545 105.718 45.4845 106.984 45.7612 108.25C46.3146 111.626 48.1131 118.097 54.4769 122.879C54.8919 123.16 55.1686 123.161 55.3069 123.161C55.4453 123.02 55.5836 122.739 55.4453 122.035C55.0302 120.066 54.4769 117.253 54.4769 114.58C54.4769 113.736 54.7535 113.173 55.3069 112.892C55.4453 113.033 55.722 112.892 55.9986 112.892Z" fill="#171753"/>
<path d="M72.0458 86.1661L57.243 67.8797C56.1363 66.473 54.8912 66.051 54.0611 66.473L53.7844 66.6137L48.8041 69.7083C48.8041 69.7083 48.6657 69.849 48.8041 69.849L51.1559 75.4756L52.1243 77.8669L53.2311 76.6009V87.5727C53.2311 90.1047 55.5829 93.0587 57.3814 92.918L64.7136 92.496C64.7136 92.496 64.7136 92.496 64.8519 92.496L67.7571 94.8873H67.8955L72.8758 91.7927C73.9826 90.9487 73.7059 88.2761 72.0458 86.1661Z" fill="#FFA54B"/>
<path d="M67.4802 95.4496C67.3418 95.4496 67.2035 95.4496 67.0652 95.3089L64.2983 93.0583L57.2428 93.4803C56.4127 93.4803 55.4443 93.0583 54.6143 92.355C53.2308 91.089 52.4008 89.2604 52.4008 87.5724V78.1478L51.709 78.9918L50.464 75.7565L48.1121 70.1299C47.9738 69.8486 48.1121 69.4266 48.3888 69.2859L53.6459 66.0507C54.8909 65.488 56.4127 66.0506 57.6578 67.598L72.4605 85.8844C73.7056 87.291 74.259 89.2604 73.9823 90.667C73.844 91.3703 73.4289 92.0736 72.8756 92.355L67.8952 95.4496C67.7569 95.4496 67.6185 95.4496 67.4802 95.4496ZM64.4366 91.7923C64.575 91.7923 64.7133 91.7923 64.8517 91.933L67.4802 94.1836L72.3222 91.2297C72.5989 91.089 72.7372 90.667 72.8756 90.3857C73.0139 89.401 72.7372 87.8537 71.6305 86.5877L56.8277 68.3013C55.8593 67.0353 54.7526 66.754 54.3376 67.0353L54.1992 67.176L49.6339 69.9893L52.4008 76.8818L53.9225 75.1939V87.713C53.9225 88.979 54.6143 90.5263 55.721 91.6517C56.2744 92.2143 56.9661 92.4957 57.5195 92.4957L64.4366 91.7923Z" fill="#171753"/>
<path d="M67.7571 80.8209L57.243 67.739C56.1363 66.3324 54.8912 65.9104 54.0611 66.3324L53.7845 66.4731L48.8041 69.5677C48.8041 69.5677 48.6658 69.7083 48.8041 69.7083L51.1559 75.3349L52.1243 77.7262L53.2311 76.4603V81.2429C53.3694 81.2429 53.3694 81.2429 53.5078 81.2429L53.2311 81.8055V87.2915C53.2311 87.9948 53.3694 88.6981 53.7845 89.4014L67.7571 80.8209Z" fill="white"/>
<path d="M53.2308 90.6665L52.9542 90.1038C52.5391 89.2598 52.4008 88.4158 52.4008 87.7125V78.288L51.7091 79.132L50.464 75.8967L48.1121 70.2701C47.9738 69.9887 48.1121 69.5667 48.3888 69.4261L53.6459 66.1908C54.891 65.6281 56.4127 66.1908 57.6578 67.7381L68.7253 81.3826L53.2308 90.6665ZM53.6459 82.2266V87.5719C53.6459 87.9938 53.7842 88.4158 53.9226 88.8378L66.9268 80.6793L56.8278 68.1601C55.8594 66.8941 54.7526 66.6128 54.3376 66.8941L54.1992 67.0348L49.6339 69.8481L52.4008 76.7407L53.9226 75.0527V80.8199H54.6143L53.6459 82.2266Z" fill="#171753"/>
<path d="M64.5757 92.496L67.481 94.8873H67.6193L72.5997 91.7927C73.8447 91.0894 73.7064 88.2761 71.9079 86.1661L70.3862 84.1968L65.1291 87.4321C65.1291 87.4321 61.8089 88.4167 61.3938 88.9794C61.1172 89.4014 61.6705 91.9333 61.8089 92.6367L64.5757 92.496C64.5757 92.3553 64.5757 92.3553 64.5757 92.496Z" fill="#171753"/>
<path d="M67.4805 95.4496C67.3421 95.4496 67.2038 95.4496 67.0654 95.309L64.2986 93.0583L61.3934 93.199L61.255 92.777C60.425 89.401 60.84 88.9791 60.9783 88.6977C61.3934 88.1351 63.3302 87.4317 64.852 87.0097L70.524 83.6338L72.3225 85.8844C73.5676 87.2911 74.1209 89.2604 73.8443 90.667C73.7059 91.3704 73.2909 92.0737 72.7375 92.355L67.7572 95.4496C67.7572 95.4496 67.6188 95.4496 67.4805 95.4496ZM64.4369 91.7924C64.5753 91.7924 64.7136 91.7924 64.852 91.933L67.4805 94.1837L72.3225 91.2297C72.5992 91.089 72.7375 90.667 72.8759 90.3857C73.0142 89.4011 72.7375 87.8537 71.6308 86.5877L70.3857 85.0404L65.4053 87.9944C64.0219 88.4164 62.5001 88.9791 62.0851 89.2604C62.0851 89.5417 62.2234 90.5264 62.5001 91.933L64.4369 91.7924Z" fill="#171753"/>
<path d="M47.8358 71.5367V90.9484C47.8358 93.4804 50.1876 96.4344 51.9861 96.2937L66.7888 95.3091C68.7256 95.1684 68.7256 91.9331 66.7888 89.5418L51.9861 71.2554C50.0493 68.7234 47.8358 69.0047 47.8358 71.5367Z" fill="white"/>
<path d="M51.8476 96.7159C51.0175 96.7159 50.1874 96.2939 49.3574 95.5906C47.9739 94.3246 47.1439 92.496 47.1439 90.808V71.5369C47.1439 70.2709 47.6973 69.4269 48.5273 69.0049C49.6341 68.5829 51.1559 69.2863 52.2626 70.6929L67.0653 88.9793C68.4488 90.6673 69.0021 93.0586 68.4488 94.4653C68.1721 95.1686 67.4804 95.7313 66.6503 95.7313L51.8476 96.7159C51.9859 96.7159 51.8476 96.7159 51.8476 96.7159ZM49.3574 70.1302C49.219 70.1302 49.0807 70.1302 49.0807 70.1302C48.5273 70.2709 48.389 71.1149 48.389 71.5369V90.9486C48.389 92.2146 49.0807 93.7619 50.1875 94.8873C50.7408 95.4499 51.4325 95.7313 51.9859 95.7313L66.7887 94.7466C67.2037 94.7466 67.342 94.6059 67.4804 94.1839C67.8954 93.34 67.4804 91.5113 66.3736 89.964L51.5709 71.6776C50.7408 70.4116 49.9108 70.1302 49.3574 70.1302Z" fill="#171753"/>
<path d="M56.9088 67.3105L51.6016 70.6191L52.1801 71.5785L57.4873 68.2698L56.9088 67.3105Z" fill="#171753"/>
<path d="M71.5686 87.7324L68.2409 89.7471L68.7361 90.5927L72.0638 88.578L71.5686 87.7324Z" fill="#FFA54B"/>
</svg>
