<svg width="599" height="124" viewBox="0 0 599 124" fill="none" xmlns="http://www.w3.org/2000/svg">
<path d="M0 18C0 9.1634 7.07007 2 15.7915 2H582.313C591.035 2 598.104 9.1634 598.104 18V123.83H0V18Z" fill="white"/>
<path opacity="0.5" d="M0 18.0223C0 9.1734 7.06883 2 15.7888 2H582.211C590.932 2 598 9.1734 598 18.0223V124H0V18.0223Z" fill="#9BE7C4"/>
<mask id="mask0_5_105" style="mask-type:alpha" maskUnits="userSpaceOnUse" x="0" y="0" width="598" height="124">
<path d="M582.211 0H15.7888C7.06888 0 0 7.16344 0 16V107.57C0 116.407 7.06888 123.57 15.7888 123.57H582.211C590.931 123.57 598 116.407 598 107.57V16C598 7.16344 590.931 0 582.211 0Z" fill="#F5F5F5"/>
</mask>
<g mask="url(#mask0_5_105)">
<path opacity="0.8" d="M569.133 18.8385L555.383 16.8144C502.489 8.97953 447.803 0.88243 397.806 12.8546C367.976 19.9979 343.258 33.74 319.361 47.0315C299.607 58.0217 279.169 69.3887 255.768 77.1217C208.985 92.5907 152.854 92.4667 109.177 90.6327C98.0739 90.1687 86.8247 89.5627 75.9176 88.9777C37.7671 86.9357 -1.67841 84.8017 -40.0405 88.3207C-41.7803 88.4747 -43.4938 88.6507 -45.2274 88.8247L-48.5938 88.5537C-45.8656 88.2377 -43.0599 87.9407 -40.1789 87.6757C-1.71417 84.1517 37.7927 86.2837 76.0034 88.3307C86.9005 88.9147 98.1598 89.5217 109.262 89.9917C152.809 91.8157 208.755 91.9437 255.382 76.5477C278.664 68.8504 299.055 57.5128 318.773 46.5461C342.749 33.2215 367.515 19.4376 397.527 12.2501C447.732 0.20313 502.576 8.32603 555.605 16.198C560.22 16.884 564.803 17.5587 569.355 18.2221C590.285 21.2631 613.408 24.0167 636.672 24.8L636.545 25.4438C613.235 24.6371 590.093 21.882 569.133 18.8385Z" fill="#5ED9D1"/>
<mask id="mask1_5_105" style="mask-type:luminance" maskUnits="userSpaceOnUse" x="-13" y="28" width="620" height="100">
<path d="M606.469 28.4137H-12.217V127.242H606.469V28.4137Z" fill="white"/>
</mask>
<g mask="url(#mask1_5_105)">
<path d="M34.9722 46.8826C59.9694 51.7902 79.1519 62.2669 97.3151 73.9437C114.772 85.1587 132.084 96.9737 154.863 103.797C201.728 117.866 256.771 110.72 302.677 98.6737C353.967 85.1977 402.187 64.9207 457.612 59.0055C484.803 56.1056 513.961 57.4671 537.591 67.2438C557.218 75.3127 567.864 88.1047 572.288 102.474C574.805 110.643 575.669 118.943 576.353 127.243H582.287C582.095 124.889 581.903 122.543 581.64 120.197C580.081 106.566 577.203 92.4667 566.018 80.5667C553.369 67.0515 530.937 58.4747 507.199 55.3517C478.221 51.5441 448.176 55.1748 420.518 61.0747C393.866 66.7515 368.641 74.7747 343.38 82.5737C295.184 97.4587 241.773 112.574 186.946 106.289C174.091 104.871 161.701 102.073 150.295 98.0127C139.085 93.9587 129.206 88.6277 119.903 82.9587C101.74 71.8667 85.2544 59.2516 63.5301 50.8595C40.7841 42.1443 14.2548 38.3828 -12.0971 40.1366H-12.217V44.0289C3.65156 42.9135 19.7079 43.8845 34.9722 46.8826Z" fill="#9BE7C4"/>
<path d="M66.8393 104.959C124.195 118.704 187.353 105.728 230.239 92.4047C252.31 85.5587 273.808 77.4277 294.597 69.5667C321.512 59.39 349.351 48.8749 378.629 41.0443C407.198 33.406 479.708 18.214 535.685 41.9827C567.864 55.6593 590.236 80.8897 602.177 116.974C603.292 120.366 604.311 123.804 605.294 127.243H606.493C605.498 123.75 604.467 120.266 603.328 116.812C591.339 80.5277 568.776 55.1363 536.321 41.3442C479.888 17.3678 406.922 32.6521 378.173 40.3366C348.823 48.1826 320.948 58.7131 294.009 68.9052C273.232 76.7587 251.76 84.8737 229.735 91.7127C187.054 104.966 124.231 117.866 67.271 104.243C46.9734 99.3737 28.4502 91.3427 10.5505 83.5737C3.09326 80.3357 -4.47187 77.0667 -12.2288 73.9977V74.8977C-4.72364 77.8897 2.60171 81.0507 9.85516 84.2127C27.8267 92.0047 46.3979 100.066 66.8393 104.959Z" fill="#49CE8B"/>
</g>
</g>
</svg>
