<svg width="240" height="264" viewBox="0 0 240 264" fill="none" xmlns="http://www.w3.org/2000/svg">
<rect width="240" height="264" rx="24" fill="#9BE7C4"/>
<path d="M172.944 228.068C173.674 226.608 174.039 224.784 174.039 222.504V82.6801C174.039 75.1097 169.478 66.3536 163.732 63.07L110.739 32.4237C108.368 31.0556 106.179 30.8731 104.355 31.694C101.345 32.7885 98.6085 35.3424 98.6085 35.3424L100.524 38.3523C100.433 38.8996 100.433 39.538 100.433 40.1765V180C100.433 187.571 104.993 196.327 110.739 199.61L163.732 230.257L165.556 233.814C165.556 233.814 170.117 232.993 172.671 228.433V228.341C172.762 228.25 172.853 228.159 172.944 228.068C172.853 228.068 172.853 228.068 172.944 228.068Z" fill="#171753"/>
<path d="M165.282 234.544L163.276 230.713L110.374 200.158C104.537 196.783 99.794 187.753 99.794 180.001V40.1767C99.794 39.6294 99.794 39.0822 99.8852 38.5349L97.7874 35.2514L98.1522 34.8865C98.2434 34.7953 100.98 32.1503 104.172 31.0557H104.263C106.27 30.1437 108.641 30.4173 111.104 31.8766L164.097 62.523C169.934 65.8977 174.677 74.9274 174.677 82.6802V222.504C174.677 224.784 174.312 226.791 173.491 228.342L173.4 228.433C173.4 228.524 173.309 228.615 173.309 228.706V228.798C170.664 233.541 165.921 234.453 165.738 234.453L165.282 234.544ZM101.253 37.5316L101.162 38.4437C101.071 39.0822 101.071 39.6294 101.071 40.2679V180.092C101.071 187.48 105.54 195.962 111.013 199.155L164.188 229.892L165.83 233.176C167.015 232.811 170.116 231.625 172.032 228.25C172.123 228.159 172.123 228.068 172.123 227.977V227.886C172.853 226.426 173.217 224.693 173.217 222.595V82.6802C173.217 75.2923 168.748 66.8098 163.276 63.6175L110.374 32.9711C108.276 31.7854 106.27 31.5118 104.628 32.2415L104.354 32.4239C102.257 33.2448 100.341 34.7953 99.5203 35.525L100.888 37.6228L101.253 37.5316Z" fill="#171753"/>
<path d="M159.262 233.085L106.27 202.53C100.615 199.246 95.963 190.49 95.963 182.92V43.0044C95.963 35.434 100.523 31.968 106.27 35.2516L159.262 65.8979C164.917 69.1815 169.569 77.9376 169.569 85.5079V225.332C169.569 232.902 164.917 236.368 159.262 233.085Z" fill="white"/>
<path d="M163.367 235C161.999 235 160.448 234.544 158.989 233.723L105.996 203.077C100.159 199.702 95.4161 190.672 95.4161 182.919V43.0043C95.4161 38.8086 96.7843 35.5251 99.2469 34.1569C101.345 32.9712 103.899 33.1536 106.635 34.7042L159.628 65.3505C165.465 68.7253 170.208 77.755 170.208 85.5078V225.332C170.208 229.527 168.84 232.811 166.377 234.179C165.374 234.726 164.37 235 163.367 235ZM102.166 34.7042C101.345 34.7042 100.524 34.8866 99.8854 35.3427C97.7876 36.5284 96.6931 39.3559 96.6931 43.0955V182.919C96.6931 190.307 101.162 198.79 106.635 201.982L159.628 232.629C161.908 233.905 164.097 234.088 165.739 233.176C167.836 231.99 168.931 229.163 168.931 225.423V85.5078C168.931 78.1199 164.462 69.6374 158.989 66.4451L105.905 35.7987C104.628 35.069 103.351 34.7042 102.166 34.7042Z" fill="#171753"/>
<path d="M156.071 68.4518L137.373 57.7803C137.099 57.5979 136.826 57.7803 136.826 58.1451V59.3309C136.826 61.2463 134.728 62.5232 132.995 61.5199L131.9 60.8814C130.076 59.7869 128.89 57.7803 128.89 55.5913C128.89 53.8583 127.978 52.3077 126.519 51.3957L105.085 39.0824C102.257 37.4406 99.8859 38.8088 99.8859 42.0923V183.467C99.8859 189.487 104.173 196.966 109.463 199.976L160.449 229.436C163.276 231.078 165.648 229.71 165.648 226.426V85.0519C165.557 78.9409 161.27 71.4617 156.071 68.4518Z" fill="#49CE8B"/>
<path d="M162.729 230.713C161.908 230.713 160.996 230.439 160.084 229.892L109.098 200.432C103.625 197.33 99.2473 189.669 99.2473 183.375V42.0009C99.2473 40.1767 99.8857 38.8086 101.071 38.0789C102.257 37.3492 103.808 37.5316 105.358 38.4437L126.701 50.6658C128.343 51.6691 129.438 53.4021 129.438 55.4087C129.438 57.3241 130.441 59.1483 132.174 60.1516L133.268 60.79C133.816 61.1549 134.545 61.1549 135.184 60.79C135.822 60.4252 136.096 59.8779 136.096 59.1483V57.9625C136.096 57.5977 136.278 57.2329 136.643 57.0505C136.917 56.868 137.373 56.868 137.646 57.0505L156.344 67.7219C161.817 70.8231 166.195 78.4847 166.195 84.7781V226.153C166.195 227.977 165.556 229.345 164.371 230.075C163.915 230.531 163.276 230.713 162.729 230.713ZM102.804 38.991C102.44 38.991 102.075 39.0822 101.801 39.2646C100.98 39.7207 100.615 40.724 100.615 42.0921V183.467C100.615 189.304 104.72 196.51 109.828 199.428L160.814 228.889C161.999 229.527 163.094 229.71 163.823 229.254C164.644 228.798 165.009 227.794 165.009 226.426V85.0517C165.009 79.2143 160.905 72.0088 155.797 69.0901L137.464 58.601V59.3307C137.464 60.5164 136.826 61.5197 135.822 62.067C134.819 62.6142 133.633 62.6142 132.63 62.067L131.535 61.4285C129.529 60.2428 128.252 57.9625 128.252 55.5911C128.252 54.1318 127.431 52.7636 126.154 52.0339L104.811 39.8119C104.081 39.1734 103.352 38.991 102.804 38.991Z" fill="#171753"/>
<path d="M134.089 58.419C134.089 59.2398 133.541 59.6047 132.812 59.1486C132.082 58.6926 131.535 57.6893 131.535 56.8684C131.535 56.0475 132.082 55.6827 132.812 56.1387C133.45 56.5948 134.089 57.5981 134.089 58.419Z" fill="#171753"/>
<path d="M167.38 74.7452L167.015 74.1068L171.029 71.9177L171.393 72.465L167.38 74.7452Z" fill="#49CE8B"/>
<path d="M105.996 35.069L105.54 34.6129C105.631 34.5217 107.364 32.6975 109.918 32.0591L110.1 32.6975C107.638 33.336 105.996 35.069 105.996 35.069Z" fill="#49CE8B"/>
<path d="M108.094 36.2543L107.638 35.7982C107.73 35.707 109.463 33.8829 112.016 33.2444L112.199 33.8829C109.736 34.5213 108.094 36.2543 108.094 36.2543Z" fill="#49CE8B"/>
<path d="M173.106 77.417L169.022 79.4469L169.307 80.0186L173.39 77.9888L173.106 77.417Z" fill="#49CE8B"/>
<path d="M170.025 225.15L169.752 224.602C169.752 224.602 172.397 223.234 173.856 221.866L174.312 222.322C172.762 223.782 170.117 225.15 170.025 225.15Z" fill="#49CE8B"/>
<path d="M170.025 227.886L169.752 227.339C169.752 227.339 172.397 225.971 173.856 224.603L174.312 225.059C172.762 226.427 170.117 227.795 170.025 227.886Z" fill="#49CE8B"/>
<path d="M171.302 144.611C171.12 144.611 171.028 144.611 170.846 144.52C170.481 144.338 170.299 143.882 170.299 143.334V133.849C170.299 132.936 170.846 131.842 171.576 131.386L171.758 131.295C172.123 131.112 172.488 131.021 172.853 131.203C173.217 131.386 173.4 131.842 173.4 132.389V141.875C173.4 142.878 172.853 143.882 172.123 144.338L171.94 144.429C171.667 144.611 171.484 144.611 171.302 144.611ZM172.305 131.751C172.214 131.751 172.123 131.842 172.032 131.842L171.849 131.933C171.302 132.207 170.846 133.119 170.846 133.849V143.334C170.846 143.699 170.937 143.882 171.12 143.973C171.302 144.064 171.484 143.973 171.576 143.882L171.758 143.79C172.305 143.517 172.761 142.605 172.761 141.875V132.389C172.761 132.024 172.67 131.842 172.488 131.751C172.397 131.751 172.397 131.751 172.305 131.751Z" fill="#49CE8B"/>
<path d="M171.302 129.38C171.12 129.38 171.028 129.38 170.846 129.289C170.481 129.106 170.299 128.65 170.299 128.103V118.617C170.299 117.705 170.846 116.611 171.576 116.155L171.758 116.063C172.123 115.881 172.488 115.79 172.853 115.972C173.217 116.155 173.4 116.611 173.4 117.158V126.644C173.4 127.647 172.853 128.65 172.123 129.106L171.94 129.197C171.667 129.38 171.484 129.38 171.302 129.38ZM172.305 116.519C172.214 116.519 172.123 116.611 172.032 116.611L171.849 116.702C171.302 116.975 170.846 117.888 170.846 118.617V128.103C170.846 128.468 170.937 128.65 171.12 128.741C171.302 128.833 171.484 128.741 171.576 128.65L171.758 128.559C172.305 128.285 172.761 127.373 172.761 126.644V117.249C172.761 116.884 172.67 116.702 172.488 116.611C172.397 116.519 172.397 116.519 172.305 116.519Z" fill="#49CE8B"/>
<path d="M171.302 112.05C171.12 112.05 171.028 112.05 170.846 111.959C170.481 111.776 170.299 111.32 170.299 110.773V105.483C170.299 104.571 170.846 103.476 171.576 103.02L171.758 102.929C172.123 102.747 172.488 102.655 172.853 102.838C173.217 103.02 173.4 103.476 173.4 104.023V109.314C173.4 110.226 172.853 111.32 172.123 111.776L171.94 111.867C171.667 112.05 171.484 112.05 171.302 112.05ZM172.305 103.294C172.214 103.294 172.123 103.385 172.032 103.385L171.849 103.476C171.302 103.75 170.846 104.662 170.846 105.392V110.682C170.846 111.047 170.937 111.229 171.12 111.32C171.302 111.411 171.484 111.32 171.576 111.229L171.758 111.138C172.305 110.864 172.761 109.952 172.761 109.222V104.023C172.761 103.659 172.67 103.476 172.488 103.385C172.397 103.294 172.397 103.294 172.305 103.294Z" fill="#49CE8B"/>
<path d="M171.849 107.398L171.667 107.489C171.029 107.854 170.481 107.489 170.481 106.668V105.482C170.481 104.662 171.029 103.658 171.667 103.293L171.849 103.202C172.488 102.837 173.035 103.202 173.035 104.023V105.209C173.035 106.03 172.488 107.033 171.849 107.398Z" fill="#49CE8B"/>
<path d="M171.302 107.945C171.12 107.945 171.028 107.945 170.846 107.854C170.481 107.672 170.299 107.216 170.299 106.669V105.483C170.299 104.571 170.846 103.476 171.576 103.02L171.758 102.929C172.123 102.747 172.488 102.655 172.853 102.838C173.217 103.02 173.4 103.476 173.4 104.023V105.209C173.4 106.212 172.853 107.216 172.123 107.672L171.94 107.763C171.667 107.854 171.484 107.945 171.302 107.945ZM172.305 103.294C172.214 103.294 172.123 103.385 172.032 103.385L171.849 103.476C171.302 103.75 170.846 104.662 170.846 105.392V106.577C170.846 106.942 170.937 107.125 171.12 107.216C171.302 107.307 171.484 107.216 171.576 107.125L171.758 107.033C172.305 106.76 172.761 105.848 172.761 105.118V104.023C172.761 103.659 172.67 103.476 172.488 103.385C172.397 103.294 172.397 103.294 172.305 103.294Z" fill="#49CE8B"/>
<path d="M169.881 69.5632L165.803 71.9854L166.129 72.5342L170.207 70.112L169.881 69.5632Z" fill="#49CE8B"/>
<path d="M97.3116 42.254L78.1577 31.2176C77.0632 30.5792 76.0599 30.488 75.3302 30.8528L69.0367 34.7748V34.866C69.3104 35.4133 71.9554 40.8858 72.1379 41.8891C72.2291 42.3452 73.05 46.4496 73.962 51.2837V53.7463C73.962 55.1145 74.4181 56.665 75.239 57.942C76.2423 62.9585 77.0632 67.3365 77.0632 67.4277L79.8907 74.086C79.8907 74.086 79.9819 74.1772 79.9819 74.086L86.4577 70.3464V70.2552L86.0017 68.8871C85.9105 68.2486 85.8193 67.519 85.7281 66.7893L94.0281 76.0014H94.1193L100.139 72.2618C100.139 72.2618 100.23 72.2618 100.23 72.1706C100.96 71.7146 101.416 70.8025 101.416 69.5256V49.4595C101.507 46.9056 99.5919 43.6221 97.3116 42.254Z" fill="#49CE8B"/>
<path d="M94.2102 76.6399C94.0278 76.6399 93.8454 76.5487 93.663 76.3663L86.7311 68.7047C86.7311 68.7047 86.7311 68.7047 86.7311 68.7959L87.1871 70.0728C87.2783 70.3465 87.1871 70.7113 86.9135 70.8937L80.164 74.8157L79.7991 74.7245C79.6167 74.6333 79.4343 74.5421 79.3431 74.3597L76.4244 67.519L74.6002 58.1244C73.7793 56.6651 73.2321 55.1145 73.2321 53.6551V51.2837C72.0464 45.4463 71.4991 42.254 71.4079 41.9803C71.2255 41.3419 69.6749 37.9671 68.3068 35.0484C68.1243 34.6836 68.3068 34.3188 68.5804 34.1363L75.2387 30.0319L75.4211 30.1231C76.3332 29.8495 77.4277 30.0319 78.431 30.6704L97.585 41.7067C100.048 43.1661 102.054 46.632 102.054 49.4595V69.5256C102.054 70.9849 101.507 72.0794 100.595 72.7179L100.504 72.8091L94.5751 76.5487C94.3926 76.6399 94.3014 76.6399 94.2102 76.6399ZM85.0893 65.0563L94.2102 75.2718L99.8652 71.8058L100.321 72.2618L100.048 71.7146C100.595 71.3498 100.869 70.6201 100.869 69.6168V49.5507C100.869 47.1793 99.1355 44.0782 97.0377 42.8924L77.8837 31.8561C77.0629 31.4001 76.242 31.2176 75.6947 31.4913L69.8573 35.0484C70.6782 36.8726 72.5936 40.7946 72.776 41.7067C72.8672 42.0716 73.4145 45.0815 74.6002 51.1925V51.2837V53.7464C74.6002 54.9321 75.0563 56.3002 75.7859 57.5771L75.8771 57.6684V57.7596L77.7013 67.1541L80.2552 73.1739L85.819 69.9816L85.4541 69.0695C85.2717 68.3398 85.1805 67.519 85.1805 66.8805L85.0893 65.0563Z" fill="#171753"/>
<path d="M97.3109 42.2534L78.7954 31.5819L69.6744 37.2369L89.4669 47.726L93.4801 48.3644L99.6823 44.7161C99.1351 43.7128 98.223 42.8007 97.3109 42.2534Z" fill="white"/>
<path d="M93.6626 49.0943L89.1934 48.2734L68.4888 37.3283L78.7955 30.8524L97.6758 41.7975C98.6791 42.3448 99.5912 43.2569 100.412 44.3514L100.777 44.8987L93.6626 49.0943ZM89.7406 47.1789L93.4802 47.7261L98.8615 44.5338C98.3143 43.8041 97.6758 43.2569 96.9461 42.8921L78.7043 32.403L70.9515 37.2371L89.7406 47.1789Z" fill="#171753"/>
<path d="M95.1221 51.6488C95.1221 51.6488 87.3693 53.473 86.822 53.6554C86.366 53.8378 78.7956 59.9488 76.2418 62.7763C76.789 65.4214 77.1539 67.2456 77.1539 67.3368L79.9813 73.9951C79.9813 73.9951 80.0726 74.0863 80.0726 73.9951L86.5484 70.2555V70.1643L86.0924 68.7961C86.0012 68.1577 85.91 67.428 85.8187 66.6983L94.1188 75.9105H94.21L100.23 72.1709C100.23 72.1709 100.321 72.1709 100.321 72.0797C101.051 71.6236 101.507 70.7115 101.507 69.4346V49.3686C101.507 48.9125 101.416 48.3652 101.324 47.818L95.1221 51.6488Z" fill="#171753"/>
<path d="M100.709 50.8366L96.1073 53.6263L96.5328 54.3284L101.135 51.5387L100.709 50.8366Z" fill="#49CE8B"/>
<path d="M100.697 69.3562L96.0948 72.1454L96.5203 72.8474L101.122 70.0583L100.697 69.3562Z" fill="#49CE8B"/>
<path d="M91.2008 46.085L71.9556 35.0487C69.6754 33.6805 67.8512 34.7751 67.8512 37.4201V57.4862C67.8512 60.1313 69.6754 63.3236 71.9556 64.6917L74.1446 65.9687C74.5095 66.1511 74.8743 66.6983 74.9655 67.2456C75.2392 68.7049 76.06 71.8973 79.1612 74.2687C79.7996 74.7248 80.2557 74.3599 80.0732 73.539C79.8908 72.6269 79.6172 71.35 79.6172 70.1643C79.6172 69.617 79.982 69.4346 80.4381 69.7082L91.1096 75.9105C93.3898 77.1874 95.214 76.1841 95.214 73.539V53.473C95.3052 50.6455 93.481 47.4532 91.2008 46.085Z" fill="#49CE8B"/>
<path d="M93.0248 77.0053C92.3863 77.0053 91.5654 76.8229 90.8357 76.3668L80.2555 70.2558C80.2555 71.4415 80.5291 72.5361 80.7115 73.3569C80.8939 73.9954 80.7115 74.5427 80.2555 74.9075C79.7994 75.1811 79.2522 75.0899 78.7961 74.7251C75.6038 72.3536 74.6005 69.0701 74.3269 67.3371C74.2356 67.0635 74.0532 66.6987 73.8708 66.5162L71.6818 65.2393C69.1279 63.78 67.2125 60.4052 67.2125 57.5777V37.5117C67.2125 35.9611 67.7598 34.8666 68.7631 34.3193C69.7664 33.7721 71.0433 33.8633 72.3202 34.593L91.4742 45.7205C93.9369 47.1799 95.9435 50.5546 95.9435 53.4733V73.5394C95.9435 75.0899 95.3962 76.1844 94.3929 76.7317C94.0281 76.9141 93.572 77.0053 93.0248 77.0053ZM80.1643 68.8877C80.3467 68.8877 80.6203 68.9789 80.8939 69.0701L91.5654 75.2723C92.4775 75.8196 93.2984 75.9108 93.8457 75.546C94.3929 75.1811 94.7578 74.4514 94.7578 73.4481V53.3821C94.7578 50.9194 93.0248 48.0007 90.927 46.7238L71.6818 35.5963C70.7697 35.049 69.9488 34.9578 69.4015 35.3226C68.8543 35.6875 68.4895 36.4172 68.4895 37.4205V57.4865C68.4895 59.9492 70.2224 62.8679 72.3202 64.1448L74.5093 65.4217C75.0565 65.7866 75.5126 66.425 75.6038 67.0635C75.8774 68.614 76.6983 71.4415 79.4346 73.5394C79.1609 72.2624 78.9785 71.0767 78.9785 70.0734C78.9785 69.6174 79.161 69.1613 79.5258 68.9789C79.7082 68.8877 79.8906 68.8877 80.1643 68.8877Z" fill="#171753"/>
<path d="M87.3699 51.7408C84.9073 48.2748 82.2622 49.643 81.6237 50.4638C80.9853 48.9133 78.249 44.444 75.8775 45.0825C73.3237 45.8122 73.8709 48.8221 75.0567 52.3792C76.06 55.2979 80.5292 62.9595 81.5325 64.6013C81.6237 64.7837 81.8062 64.8749 81.8974 64.7837C83.0831 64.1452 87.1875 61.7738 88.1908 59.9496C89.3765 57.8518 89.9238 55.3891 87.3699 51.7408Z" fill="white"/>
<path d="M81.8058 65.5132C81.5322 65.5132 81.1674 65.3308 80.985 64.9659C79.708 62.7769 75.5124 55.4801 74.5091 52.6527C73.4146 49.3691 73.1409 47.2713 73.8706 45.9944C74.2355 45.2647 74.8739 44.8087 75.786 44.535C78.3399 43.8053 80.8937 47.3625 81.897 49.4603C82.4443 49.0955 83.0828 48.9131 83.9036 48.9131C84.907 48.9131 86.4575 49.3691 87.9169 51.4669C90.8356 55.6626 89.9235 58.3988 88.7377 60.4055C87.6432 62.3208 83.8124 64.6011 82.1707 65.5132C81.9883 65.5132 81.897 65.5132 81.8058 65.5132ZM76.3333 45.6295C76.2421 45.6295 76.1509 45.6295 75.9684 45.6295C75.4212 45.812 75.0563 46.0856 74.8739 46.4504C74.2355 47.7274 74.9651 50.2812 75.6036 52.1054C76.5157 54.8417 80.7113 62.0472 81.897 63.9626C84.2685 62.5945 86.9136 60.7703 87.6432 59.5846C88.6465 57.8516 89.3762 55.5714 86.8223 52.0142C85.9103 50.7373 84.907 50.0076 83.8124 50.0076C82.9003 50.0076 82.2619 50.4636 82.0795 50.7373L81.897 51.0109L81.1674 50.9197L80.985 50.5548C80.3465 49.0955 78.0663 45.6295 76.3333 45.6295Z" fill="#171753"/>
<path d="M81.806 61.4085C81.806 61.4085 83.1742 60.77 84.4511 59.6755L81.806 61.4085Z" fill="#49CE8B"/>
<path d="M107.533 179.96L153.876 206.771V198.972L107.533 172.08V179.96Z" fill="#171753"/>
<path d="M107.533 192.061L153.876 218.953V211.072L107.533 184.261V192.061Z" fill="#171753"/>
<path d="M150.264 213.158L151.071 213.32L150.91 212.754L150.102 212.592V211.459L149.699 211.217V212.349L148.891 211.54L148.73 211.945L149.618 212.754L149.053 213.32L149.376 213.806L149.941 213.239L150.425 214.453L150.748 214.372L150.264 213.158Z" fill="#9BE7C4"/>
<path d="M147.761 211.702L148.568 211.864L148.406 211.298L147.599 211.136V210.003L147.195 209.76V210.893L146.388 210.084L146.226 210.488L147.115 211.298L146.549 211.864L146.872 212.349L147.357 211.702L147.841 212.916L148.164 212.835L147.761 211.702Z" fill="#9BE7C4"/>
<path d="M145.338 210.327L146.146 210.489L145.984 209.922L145.177 209.76V208.628L144.773 208.385V209.518L143.965 208.708L143.804 209.113L144.692 209.922L144.127 210.489L144.45 210.974L144.934 210.327L145.419 211.54L145.742 211.459L145.338 210.327Z" fill="#9BE7C4"/>
<path d="M142.835 208.87L143.642 209.032L143.481 208.466L142.673 208.304V207.171L142.27 206.928V208.061L141.462 207.252L141.301 207.657L142.189 208.466L141.624 209.032L141.947 209.518L142.431 208.87L142.916 210.084L143.239 210.003L142.835 208.87Z" fill="#9BE7C4"/>
<path d="M140.412 207.414L141.22 207.576L141.058 207.009L140.251 206.847V205.715L139.847 205.472V206.605L139.04 205.796L138.878 206.2L139.766 207.009L139.201 207.576L139.524 208.061L140.009 207.414L140.493 208.628L140.816 208.547L140.412 207.414Z" fill="#9BE7C4"/>
<path d="M184.345 177.63L164.371 166.138C163.276 165.499 162.181 165.408 161.452 165.773L154.976 169.786V169.877C155.25 170.516 157.986 176.171 158.259 177.174C158.351 177.63 159.172 181.917 160.175 186.933V189.487C160.175 190.947 160.722 192.497 161.543 193.865C162.546 199.155 163.458 203.625 163.458 203.716L172.579 206.817H173.218V206.726L172.762 205.266C172.671 204.628 172.488 203.807 172.488 203.077L181.062 212.654H181.153L187.446 208.732C187.446 208.732 187.538 208.732 187.538 208.641C188.267 208.185 188.723 207.273 188.723 205.905V185.018C188.723 182.373 186.717 178.998 184.345 177.63Z" fill="#49CE8B"/>
<path d="M181.062 213.384C180.879 213.384 180.697 213.293 180.515 213.111L173.218 204.993V205.084L173.674 206.452C173.765 206.726 173.674 207.091 173.4 207.273L173.218 207.365H172.306L162.729 204.172L162.546 203.807C162.546 203.716 161.634 199.247 160.631 194.048C159.719 192.589 159.263 190.947 159.263 189.488V187.025C158.077 180.914 157.439 177.63 157.347 177.265C157.165 176.536 155.614 173.07 154.155 170.06C153.973 169.695 154.064 169.33 154.429 169.148L161.361 164.861L161.452 164.952C162.364 164.679 163.458 164.861 164.553 165.499L184.528 176.992C187.082 178.451 189.179 182.1 189.179 185.109V205.996C189.179 207.547 188.632 208.642 187.72 209.28L181.335 213.202C181.335 213.293 181.244 213.384 181.062 213.384ZM171.667 201.345L181.153 211.925L186.99 208.277L187.446 208.733L187.082 208.185C187.629 207.821 187.994 207 187.994 205.996V185.109C187.994 182.556 186.17 179.363 183.981 178.178L164.006 166.685C163.094 166.138 162.273 166.047 161.634 166.32L155.614 170.06C156.526 171.884 158.442 176.08 158.716 176.992C158.807 177.357 159.445 180.458 160.631 186.842V186.934V189.488C160.631 190.764 161.087 192.224 161.908 193.501L161.999 193.683C162.82 198.152 163.641 201.983 163.823 203.169L172.215 205.996L172.032 205.358C171.85 204.628 171.758 203.807 171.758 203.078L171.667 201.345Z" fill="#171753"/>
<path d="M184.346 177.63L165.101 166.503L155.706 172.431L176.32 183.376L180.515 184.015L186.991 180.184C186.17 179.09 185.349 178.177 184.346 177.63Z" fill="white"/>
<path d="M180.606 184.654L175.954 183.924L154.429 172.431L165.101 165.773L184.711 177.083C185.714 177.63 186.717 178.634 187.538 179.728L187.903 180.275L180.606 184.654ZM176.502 182.647L180.333 183.285L185.988 179.911C185.349 179.181 184.711 178.543 183.981 178.178L165.009 167.233L156.892 172.34L176.502 182.647Z" fill="#171753"/>
<path d="M182.065 187.389C182.065 187.389 174.039 189.305 173.492 189.487C173.035 189.67 165.191 196.054 162.455 198.973C163.002 201.8 170.938 206.634 170.938 206.634L173.948 214.022L180.788 210.009L180.971 212.654H181.062L187.355 208.732C187.355 208.732 187.447 208.732 187.447 208.641C188.176 208.185 188.632 207.273 188.632 205.905V185.018C188.632 184.471 188.541 184.015 188.45 183.467L182.065 187.389Z" fill="#171753"/>
<path d="M187.816 186.57L183.056 189.45L183.481 190.153L188.241 187.272L187.816 186.57Z" fill="#49CE8B"/>
<path d="M187.822 205.823L183.062 208.703L183.487 209.405L188.247 206.525L187.822 205.823Z" fill="#49CE8B"/>
<path d="M158.077 170.06L178.052 181.553C180.424 182.921 182.339 186.295 182.339 189.032V209.919C182.339 212.655 180.424 213.749 178.052 212.381L175.772 211.104C175.316 210.831 175.042 211.013 174.951 211.378C174.678 212.655 173.765 214.935 170.573 213.567C169.935 213.293 169.479 212.29 169.661 211.743C169.843 211.013 170.117 210.01 170.117 208.733C170.117 208.186 169.752 207.547 169.296 207.274L158.169 200.889C155.797 199.521 153.882 196.146 153.882 193.41V172.523C153.699 169.787 155.615 168.692 158.077 170.06Z" fill="#49CE8B"/>
<path d="M172.306 214.661C171.667 214.661 171.029 214.479 170.299 214.205C169.387 213.841 168.657 212.472 169.022 211.56C169.205 210.922 169.478 209.919 169.478 208.733C169.478 208.459 169.205 208.003 168.931 207.821L157.803 201.436C155.25 199.977 153.152 196.42 153.152 193.41V172.523C153.152 170.972 153.699 169.786 154.702 169.148C155.706 168.601 157.074 168.692 158.351 169.422L178.326 180.914C180.879 182.373 182.977 185.93 182.977 188.94V209.827C182.977 211.378 182.43 212.564 181.427 213.202C180.423 213.749 179.055 213.658 177.778 212.928L175.589 211.652C175.407 212.564 174.951 213.658 173.856 214.297C173.309 214.57 172.853 214.661 172.306 214.661ZM156.07 170.151C155.797 170.151 155.523 170.242 155.25 170.334C154.611 170.699 154.337 171.519 154.337 172.614V193.501C154.337 196.055 156.162 199.156 158.351 200.433L169.478 206.817C170.117 207.182 170.664 208.094 170.664 208.824C170.664 210.192 170.39 211.287 170.208 212.016C170.117 212.29 170.482 212.928 170.755 213.111C171.758 213.567 172.579 213.567 173.127 213.293C173.856 212.928 174.13 211.925 174.221 211.378C174.312 211.013 174.495 210.648 174.86 210.557C175.224 210.375 175.589 210.466 176.045 210.648L178.326 211.925C179.238 212.472 180.15 212.564 180.697 212.199C181.335 211.834 181.609 211.013 181.609 209.919V189.032C181.609 186.478 179.785 183.377 177.596 182.1L157.712 170.607C157.165 170.334 156.618 170.151 156.07 170.151Z" fill="#171753"/>
<path d="M161.817 186.477C161.817 186.477 160.266 186.568 160.54 190.217C160.813 193.865 162.181 195.598 162.181 195.598L165.191 196.693C165.191 196.693 165.282 196.784 165.374 196.966C167.289 199.702 169.934 201.253 171.85 200.706L173.035 200.341L172.853 192.406C172.853 192.406 171.12 191.038 170.299 189.487C169.478 188.028 170.573 187.845 170.481 186.021C170.39 184.197 169.113 181.096 167.745 181.096C166.377 181.096 167.015 182.646 167.289 184.014C167.563 185.474 166.833 186.751 165.739 187.298C164.644 187.845 164.37 188.484 164.37 188.484C164.37 188.484 163.732 187.389 161.817 186.477Z" fill="white"/>
<path d="M171.028 201.436C169.022 201.436 166.65 199.885 164.826 197.331C164.826 197.331 164.826 197.24 164.735 197.24L161.725 196.237L161.634 196.054C161.543 195.963 160.174 194.139 159.901 190.308C159.81 188.484 160.083 187.207 160.722 186.477C161.178 185.93 161.725 185.839 161.816 185.839H161.999L162.181 185.93C163.276 186.477 164.005 187.025 164.461 187.481C164.735 187.298 165.008 187.025 165.465 186.751C166.194 186.386 166.924 185.383 166.65 184.197C166.65 184.015 166.559 183.741 166.468 183.559C166.194 182.555 166.012 181.643 166.559 181.005C166.833 180.64 167.198 180.549 167.745 180.549C169.66 180.549 171.028 184.197 171.12 186.113C171.12 187.025 170.937 187.572 170.755 187.937C170.572 188.393 170.481 188.666 170.846 189.214C171.576 190.582 173.217 191.95 173.217 191.95L173.4 192.132L173.673 200.889L172.032 201.345C171.667 201.345 171.302 201.436 171.028 201.436ZM162.546 195.142L165.647 196.237L165.738 196.419C165.738 196.419 165.829 196.51 165.921 196.693C167.654 199.156 170.025 200.615 171.758 200.159L172.488 199.976L172.305 192.862C171.758 192.406 170.572 191.22 169.843 189.943C169.204 188.849 169.478 188.119 169.66 187.572C169.843 187.207 169.934 186.842 169.934 186.204C169.843 184.471 168.566 181.917 167.836 181.917C167.654 181.917 167.654 181.917 167.654 181.917C167.562 182.099 167.745 182.92 167.836 183.376C167.927 183.559 167.927 183.832 168.018 184.015C168.383 185.657 167.562 187.298 166.194 188.028C165.373 188.484 165.1 188.849 165.1 188.94L164.552 189.943L164.005 188.94C164.005 188.94 163.458 188.028 161.999 187.298C161.725 187.481 161.178 188.302 161.36 190.308C161.36 193.045 162.181 194.686 162.546 195.142Z" fill="#171753"/>
<path d="M164.552 197.058C163.914 195.963 163.823 194.23 163.823 194.23L165.099 194.139C165.099 194.139 165.191 195.599 165.738 196.511L164.552 197.058Z" fill="#171753"/>
<path d="M164.735 190.126H163.458C163.458 188.575 163.732 188.302 163.823 188.119L164.827 188.849C164.827 189.031 164.735 189.578 164.735 190.126Z" fill="#171753"/>
<path d="M174.495 196.237L170.664 194.048C170.025 193.683 169.569 192.771 169.569 191.95C169.569 191.13 170.025 190.765 170.664 191.13L174.495 193.319C175.133 193.683 175.589 194.596 175.589 195.416C175.589 196.237 175.042 196.602 174.495 196.237Z" fill="white"/>
<path d="M174.95 197.058C174.677 197.058 174.403 196.967 174.221 196.876L170.39 194.687C169.569 194.231 168.931 193.045 168.931 192.042C168.931 191.403 169.204 190.856 169.66 190.582C170.025 190.309 170.572 190.4 171.028 190.674L174.859 192.863C175.68 193.319 176.319 194.504 176.319 195.508C176.319 196.146 176.045 196.693 175.589 196.967C175.315 196.967 175.133 197.058 174.95 197.058ZM174.768 195.69C174.859 195.69 174.859 195.69 174.859 195.781C174.859 195.781 174.859 195.69 174.859 195.417C174.859 194.778 174.403 194.048 174.038 193.866L170.208 191.677C170.116 191.677 170.116 191.677 170.116 191.586C170.116 191.586 170.116 191.677 170.116 191.951C170.116 192.589 170.572 193.319 170.937 193.501L174.768 195.69Z" fill="#171753"/>
<path d="M174.221 198.517L170.846 196.601C170.39 196.328 169.934 195.507 169.934 194.868C169.934 194.23 170.299 193.865 170.846 194.23L174.221 196.145C174.677 196.419 175.133 197.24 175.133 197.878C175.133 198.517 174.677 198.79 174.221 198.517Z" fill="white"/>
<path d="M174.586 199.246C174.403 199.246 174.13 199.155 173.947 199.064L170.573 197.149C169.843 196.784 169.387 195.78 169.387 194.868C169.387 194.321 169.66 193.774 170.025 193.591C170.39 193.409 170.846 193.409 171.211 193.683L174.586 195.598C175.315 195.963 175.771 196.966 175.771 197.878C175.771 198.425 175.498 198.973 175.133 199.155C174.951 199.246 174.768 199.246 174.586 199.246ZM170.573 194.777V194.868C170.573 195.324 170.846 195.872 171.12 196.054L174.403 197.969V197.878C174.403 197.422 174.13 196.875 173.856 196.692L170.573 194.777Z" fill="#171753"/>
<path d="M173.855 200.706L170.937 198.973C170.481 198.7 170.025 197.879 170.025 197.24C170.025 196.602 170.389 196.237 170.937 196.602L173.855 198.335C174.311 198.609 174.768 199.429 174.768 200.068C174.768 200.706 174.311 200.98 173.855 200.706Z" fill="white"/>
<path d="M174.221 201.436C174.038 201.436 173.765 201.345 173.582 201.253L170.663 199.52C169.934 199.156 169.478 198.152 169.478 197.24C169.478 196.693 169.751 196.146 170.116 195.963C170.481 195.781 170.937 195.781 171.302 196.055L174.221 197.788C174.95 198.152 175.406 199.156 175.406 200.068C175.406 200.615 175.133 201.162 174.768 201.345C174.585 201.436 174.403 201.436 174.221 201.436ZM170.572 197.149V197.24C170.572 197.696 170.846 198.244 171.12 198.426L174.038 200.068V199.977C174.038 199.52 173.765 198.973 173.491 198.791L170.572 197.149Z" fill="#171753"/>
<path d="M173.308 202.804L171.21 201.618C170.754 201.344 170.298 200.523 170.298 199.885C170.298 199.247 170.663 198.882 171.21 199.246L173.308 200.432C173.764 200.706 174.22 201.527 174.22 202.165C174.22 202.804 173.855 203.077 173.308 202.804Z" fill="white"/>
<path d="M173.673 203.533C173.491 203.533 173.217 203.442 173.035 203.351L170.937 202.165C170.207 201.8 169.751 200.797 169.751 199.885C169.751 199.338 170.025 198.79 170.39 198.608C170.754 198.425 171.21 198.425 171.575 198.699L173.673 199.885C174.403 200.25 174.859 201.253 174.859 202.165C174.859 202.712 174.585 203.26 174.22 203.442C174.038 203.533 173.856 203.533 173.673 203.533ZM170.937 199.794V199.885C170.937 200.341 171.21 200.888 171.484 201.07L173.491 202.256V202.165C173.491 201.709 173.217 201.162 172.943 200.979L170.937 199.794Z" fill="#171753"/>
<path d="M158.248 153.487C151.74 159.806 137.875 167.823 131.65 170.653C125.425 173.388 124.67 177.35 124.67 177.35L107.598 175.086V166.692C107.598 166.692 112.409 161.787 117.691 158.769C122.973 155.75 129.952 151.506 133.819 148.299C136.932 145.753 143.912 138.301 146.647 135.377C147.968 133.962 149.665 132.831 151.646 132.453C154.287 131.887 157.871 132.359 160.889 137.264C166.737 146.979 158.248 153.487 158.248 153.487Z" fill="#9BE7C4"/>
<path d="M125.236 178.104L106.938 175.746V166.503L107.127 166.314C107.315 166.126 112.031 161.315 117.313 158.203C125.142 153.675 130.329 150.28 133.348 147.827C136.366 145.281 143.251 137.924 146.081 134.906C147.59 133.302 149.476 132.17 151.363 131.699C154.098 131.133 158.06 131.51 161.266 136.792C167.303 146.696 159.286 153.487 158.72 154.053C151.929 160.655 137.875 168.672 131.933 171.313C126.085 173.954 125.33 177.444 125.33 177.538L125.236 178.104ZM108.258 174.52L124.199 176.595C124.67 175.369 126.274 172.351 131.367 170.087C137.215 167.446 151.08 159.523 157.777 153.109L157.871 153.015C158.154 152.732 165.794 146.696 160.135 137.452C157.871 133.774 155.041 132.265 151.646 133.019C149.948 133.396 148.345 134.34 147.024 135.754C144.194 138.773 137.309 146.224 134.197 148.771C131.178 151.317 125.802 154.713 117.973 159.24C113.446 161.881 109.202 166.031 108.258 166.88V174.52Z" fill="#171753"/>
<path d="M113.824 165.371C111.089 164.805 108.542 165.088 105.618 167.257C102.694 169.427 101.28 172.539 99.2045 175.935C97.1294 179.33 95.9033 181.783 95.9033 181.783C94.7714 182.16 94.4885 183.292 94.4885 183.292C94.4885 183.292 93.0737 182.726 92.6964 181.688C92.3191 180.651 92.9793 177.444 92.9793 177.444C92.9793 177.444 93.9225 173.671 92.4134 172.634C90.9043 171.596 89.6781 172.068 88.6406 174.426C87.6974 176.501 87.5088 180.085 87.4144 180.651C87.4144 180.651 87.4144 180.651 87.3201 180.651C86.5656 178.67 85.528 177.255 83.6416 177.35C81.6609 177.444 81.3779 178.482 81.4723 180.368C81.5666 182.349 84.9621 188.385 84.9621 188.385C84.9621 188.385 89.0179 194.044 91.0929 194.799C93.0736 195.554 98.4499 196.685 98.8272 196.685L96.5635 198.949C96.2805 199.232 96.2805 199.892 95.8089 199.987C94.0169 200.081 88.6406 199.987 87.5088 200.647C86.094 201.496 84.3962 202.439 85.3394 205.551C85.3394 205.551 82.3211 206.495 77.9824 208.758C76.6619 209.419 76.6619 210.55 77.6995 212.437C77.6995 212.437 79.3029 213.569 84.5848 212.437C89.8668 211.305 97.1294 209.23 97.1294 209.23L102.034 206.117C102.034 206.117 109.674 203.193 115.05 200.27C115.05 200.27 117.691 198.855 120.804 191.592L121.275 190.555C121.275 190.555 122.69 188.762 124.011 183.575C125.425 178.482 125.048 171.69 122.124 168.578L113.824 165.371Z" fill="#9BE7C4"/>
<path d="M80.4344 213.475C78.265 213.475 77.4162 212.909 77.3218 212.814L77.2275 212.72L77.1332 212.626C76.3786 211.305 76.0957 210.362 76.3786 209.513C76.5673 208.853 77.0389 208.381 77.6991 208.098C81.0003 206.401 83.4526 205.457 84.5845 205.08C83.8299 201.968 85.7163 200.836 87.0368 200.081L87.1311 199.987C88.0743 199.421 90.5267 199.327 93.7336 199.327C94.4881 199.327 95.1484 199.327 95.5256 199.327C95.5256 199.232 95.5256 199.232 95.62 199.138C95.7143 198.949 95.8086 198.666 95.9972 198.478L97.412 197.063C95.62 196.686 92.3187 195.931 90.8096 195.365C88.6403 194.611 84.7731 189.329 84.3958 188.763C84.0186 188.103 80.906 182.443 80.8117 180.463C80.7174 178.671 80.906 176.878 83.547 176.69C85.1504 176.595 86.1879 177.444 86.8482 178.388C87.0368 176.878 87.4141 175.275 87.8857 174.049C88.5459 172.54 89.3005 171.785 90.2437 171.502C90.9983 171.314 91.8471 171.502 92.696 172.068C94.4881 173.294 93.6392 177.161 93.5449 177.633C93.262 178.859 93.0733 180.934 93.2619 181.5C93.3563 181.877 93.7336 182.16 94.1108 182.349C94.3938 181.972 94.7711 181.5 95.337 181.217C95.7143 180.557 96.8461 178.388 98.5439 175.558C98.9212 174.898 99.2984 174.332 99.5814 173.672C101.091 171.031 102.505 168.484 105.052 166.598C107.882 164.523 110.523 163.957 113.824 164.617L113.541 165.937C110.617 165.371 108.353 165.843 105.807 167.635C103.543 169.333 102.222 171.597 100.713 174.237C100.336 174.898 99.9587 175.464 99.5814 176.124C97.6007 179.519 96.2802 181.877 96.2802 181.972L96.1859 182.16L95.9029 182.255C95.1484 182.538 94.9597 183.292 94.9597 183.292L94.7711 184.047L94.1108 183.764C93.9222 183.67 92.4131 183.104 91.9415 181.783C91.5642 180.651 92.0358 177.727 92.2244 177.161C92.6017 175.747 92.696 173.577 91.9415 173.011C91.4699 172.634 90.9983 172.54 90.621 172.634C90.0551 172.823 89.5835 173.389 89.1119 174.52C88.5459 175.747 88.1687 177.916 87.98 180.557V181.123L87.4141 181.217L86.8482 181.312L86.6595 180.84C85.905 178.765 84.9618 177.916 83.6413 178.01C82.4151 178.105 82.0378 178.388 82.1322 180.368C82.2265 181.877 84.5845 186.405 85.5277 188.103C87.0368 190.178 89.9607 193.667 91.2812 194.233C93.262 194.988 98.5439 196.025 98.8268 196.12L99.2041 196.214L99.4871 196.969L99.2041 197.252L96.9404 199.515C96.9404 199.515 96.8461 199.704 96.8461 199.798C96.7518 200.081 96.4688 200.741 95.8086 200.741C95.337 200.741 94.5824 200.741 93.7336 200.836C91.8471 200.836 88.4516 200.93 87.6971 201.307L87.6027 201.402C86.2823 202.251 85.0561 202.911 85.905 205.457L86.0936 206.118L85.4334 206.306C85.4334 206.306 82.4151 207.25 78.1707 209.419C77.6048 209.702 77.6048 209.985 77.5105 210.079C77.4162 210.362 77.4162 210.928 78.0764 212.06C78.4537 212.249 80.1514 212.814 84.3015 211.871C89.2062 210.834 95.8086 208.947 96.6575 208.664L101.562 205.457C101.656 205.457 109.296 202.439 114.484 199.61C114.484 199.61 116.936 198.101 119.955 191.215L120.52 190.083C120.52 190.083 121.841 188.197 123.161 183.387C124.482 178.671 124.293 172.068 121.464 168.956L122.407 168.107C125.519 171.502 125.802 178.765 124.388 183.764C123.067 188.48 121.841 190.461 121.558 190.838L121.086 191.781C117.88 199.232 115.144 200.741 115.05 200.836C110.051 203.571 102.788 206.401 102.034 206.684L97.0348 209.891C96.9404 209.891 89.6778 212.06 84.4902 213.192C82.8867 213.38 81.5662 213.475 80.4344 213.475Z" fill="#171753"/>
<path d="M112.409 199.327H112.315C112.221 199.327 109.768 199.233 109.485 194.611C109.297 190.744 112.504 187.348 113.352 186.499C113.447 186.028 113.635 184.896 114.296 183.481C114.956 182.066 114.767 178.294 114.579 176.879L115.899 176.69C115.993 177.256 116.465 182.066 115.427 184.047C114.579 185.745 114.579 186.782 114.579 186.782V187.065L114.39 187.254C114.39 187.254 110.523 190.744 110.711 194.517C110.806 197.346 111.843 197.912 112.126 198.006C112.975 197.629 113.635 197.063 114.201 196.403C115.333 194.988 117.691 192.253 120.709 189.989L121.558 191.027C118.634 193.29 116.371 195.931 115.333 197.252C114.579 198.195 113.635 198.95 112.504 199.327H112.409Z" fill="#171753"/>
<path d="M94.9599 207.06L85.3392 206.117L85.4336 204.891L95.0542 205.74L101.94 205.268L102.034 206.589L94.9599 207.06Z" fill="#171753"/>
<path d="M96.3748 189.328C94.2055 188.008 90.9042 186.97 90.8099 186.97L90.6213 186.876L86.7542 180.745L87.886 180.085L91.4702 185.744C92.319 186.027 95.0543 186.97 97.0351 188.197L96.3748 189.328Z" fill="#171753"/>
<path d="M95.9971 200.553L95.8084 199.233C95.8084 199.233 99.6755 198.572 101.751 197.44L101.939 197.346C103.92 196.309 105.052 195.743 106.75 195.554L106.938 196.875C105.429 197.063 104.58 197.535 102.599 198.572L102.411 198.667C100.053 199.893 96.0914 200.553 95.9971 200.553Z" fill="#171753"/>
<path d="M102.788 187.819C100.43 182.914 95.9027 182.443 95.8084 182.443L95.9027 181.122C96.0914 181.122 101.185 181.688 103.92 187.253L102.788 187.819Z" fill="#171753"/>
<path d="M109.673 171.785H108.353C108.353 171.691 108.636 164.522 115.427 164.522H115.521V165.843H115.427C109.862 165.748 109.673 171.502 109.673 171.785Z" fill="#171753"/>
<path d="M77.2271 211.494C77.2271 211.494 79.1135 212.06 82.3204 211.305C82.509 211.211 82.792 211.399 82.8863 211.588L83.3579 212.72L78.8306 212.909L77.6987 212.437L77.2271 211.494Z" fill="#171753"/>
<path d="M84.8676 203.948C84.8676 203.948 87.5085 204.137 89.6779 204.231C89.9608 204.231 90.1495 204.42 90.1495 204.703V205.929L85.2448 205.551L84.8676 203.948Z" fill="#171753"/>
<path d="M113.541 198.1C113.541 198.1 112.221 197.534 112.221 195.648C112.221 195.648 113.258 193.573 115.05 192.913C116.937 192.252 117.125 193.95 117.125 193.95L114.107 197.817L113.541 198.1Z" fill="#171753"/>
<path d="M81.5663 178.953C81.5663 178.953 81.9436 179.33 83.0755 179.896C83.0755 179.896 83.5471 181.405 84.113 183.292C84.6789 185.178 83.0755 184.329 83.0755 184.329L81.9436 180.274L81.5663 178.953Z" fill="#171753"/>
<path d="M89.4895 172.917C89.4895 172.917 89.8668 173.672 90.9987 174.615C90.9987 174.615 89.9611 178.293 88.8293 177.822C87.6974 177.35 88.2634 175.369 88.2634 175.369L89.4895 172.917Z" fill="#171753"/>
<path d="M90.6209 188.197L89.6777 187.254C89.9606 186.971 90.2436 186.405 90.3379 186.122L91.5641 186.594C91.5641 186.594 91.1868 187.631 90.6209 188.197Z" fill="#171753"/>
<path d="M121.558 191.026L120.332 190.554C120.332 190.366 119.672 189.894 119.106 189.611L119.672 188.385C120.049 188.574 122.124 189.611 121.558 191.026Z" fill="#171753"/>
<path d="M113.823 197.44C113.163 196.591 113.069 195.553 113.069 195.553L113.54 195.459C113.54 195.459 113.635 196.308 114.201 197.157L113.823 197.44Z" fill="#9BE7C4"/>
<path d="M82.6033 181.123C82.1317 180.934 81.4715 180.651 81.4715 180.651L81.6601 180.274C81.6601 180.274 82.3204 180.557 82.792 180.746L82.6033 181.123Z" fill="#9BE7C4"/>
<path d="M89.772 175.275C89.3004 174.803 88.9231 174.331 88.9231 174.331L89.3004 174.048C89.3004 174.048 89.6777 174.52 90.1493 174.897L89.772 175.275Z" fill="#9BE7C4"/>
<path d="M70.0759 197.377C90.1889 197.377 106.505 181.318 106.505 161.495C106.505 141.671 90.1889 125.612 70.0759 125.612C49.9628 125.612 33.6471 141.671 33.6471 161.495C33.6471 181.318 49.9628 197.377 70.0759 197.377Z" fill="#49CE8B" stroke="#171753" stroke-width="0.835763"/>
<path d="M71.168 126.069C70.6218 127.044 69.8806 127.825 68.8271 128.098C66.4472 128.722 64.5355 127.864 63.365 126.654C54.9378 128.215 47.4859 132.702 42.2579 138.983C44.0136 138.71 45.9643 138.827 47.759 139.958C47.759 139.958 44.5207 140.271 44.6378 142.729C44.7939 145.186 47.6029 142.768 48.9295 144.718C50.295 146.669 52.6359 144.133 50.9972 142.768C49.3586 141.363 51.2313 139.412 52.7139 140.349C54.1575 141.285 54.4306 143.119 53.5722 144.991C52.7139 146.903 55.9522 146.474 56.7325 148.23C57.5518 149.985 55.3956 151.197 56.6544 151.702C57.8055 152.164 59.1904 149.79 59.1904 149.79C59.8537 149.283 60.751 149.361 61.3362 149.946C61.3362 149.946 61.8327 150.278 61.9605 150.61C62.2741 151.425 60.4389 151 60.3219 152.131C60.2048 153.263 62.8578 152.872 62.9359 154.394C63.0139 155.955 65.3158 156.15 65.5499 154.082C65.784 151.975 66.9154 151.741 66.9154 151.741C66.9154 151.741 66.5643 149.634 64.4575 149.595C62.3116 149.556 63.513 148.266 62.9749 147.371C62.4827 146.553 61.1802 147.02 61.8044 145.225C62.4287 143.431 58.9173 141.402 63.287 139.88C67.6567 138.359 66.0961 136.486 66.0961 136.486L63.9893 135.901C63.9893 135.901 67.3056 135.004 67.2665 133.014C67.2665 131.024 70.8949 129.854 71.6752 133.092C72.4555 136.33 70.5438 137.305 70.5438 137.305C70.5438 137.305 72.9627 137.149 72.9237 138.515C72.8847 139.88 70.934 140.7 70.934 140.7C70.934 140.7 71.168 143.392 69.8805 143.626C68.593 143.86 68.7491 142.416 68.7491 142.416C68.7491 142.416 66.4472 142.299 66.9934 143.899C67.5787 145.499 66.3692 146.928 66.9154 148.737C67.3219 150.083 69.0612 149.907 68.7101 151.858C68.359 153.809 67.6567 155.877 70.1927 157.125C72.7287 158.335 71.5362 159.232 72.5336 160.48C73.4562 161.635 74.4734 161.937 75.0696 163.289C75.4229 164.091 74.2502 164.928 75.5768 165.474C76.9423 166.06 77.2154 163.992 80.6877 165.279C84.1601 166.567 85.2915 166.099 85.7987 165.435C85.7987 165.435 88.6078 166.333 89.8563 162.899C89.8563 162.899 92.2752 161.066 90.7926 157.866C90.7926 157.866 92.4313 156.072 91.3779 154.004C90.3635 151.936 91.69 149.946 92.8604 149.907C92.8604 149.907 92.3922 147.761 94.1479 147.879C95.9036 147.996 95.4744 149.829 95.4744 149.829C95.4744 149.829 97.9324 147.254 100.741 149.01C100.741 149.01 100.507 152.287 102.419 152.092C103.277 152.014 104.253 152.404 105.072 152.833C101.21 137.774 87.5934 126.537 71.168 126.069Z" fill="#9BE7C4" stroke="#171753" stroke-width="0.835763"/>
<path d="M79.2864 189.623L79.2858 189.623C78.5114 189.531 77.9131 189.572 77.4197 189.709C76.923 189.847 76.555 190.077 76.2368 190.328C76.0654 190.464 75.9141 190.598 75.7681 190.727C75.3574 191.092 74.9892 191.418 74.3368 191.627C73.4571 191.908 72.5228 191.931 71.5991 191.954C71.3783 191.959 71.1582 191.965 70.9395 191.974C69.8656 192.017 68.7492 192.147 68.1098 193.044C67.6402 193.68 66.877 193.985 66.1822 194.123C65.8398 194.192 65.5279 194.217 65.3018 194.225C65.189 194.229 65.0985 194.229 65.0371 194.228C65.0085 194.227 64.9863 194.226 64.9712 194.226L64.9712 194.226C64.9531 194.222 64.9273 194.217 64.8954 194.211C64.8318 194.198 64.743 194.182 64.6423 194.167C64.4485 194.137 64.1821 194.105 63.9648 194.117C63.866 194.122 63.7196 194.139 63.5954 194.21C63.5262 194.25 63.4422 194.32 63.3948 194.434C63.3461 194.551 63.3565 194.667 63.3859 194.756C63.4369 194.912 63.5603 195.041 63.6785 195.145C63.8091 195.26 63.9896 195.391 64.2256 195.542C64.938 196.005 65.0379 196.374 65.0379 196.608V196.917L65.3434 196.961C66.7281 197.158 68.1088 197.237 69.5194 197.276L69.5237 197.276C77.0467 197.394 84.0986 195.267 89.9693 191.524L90.2159 191.367L90.1094 191.095C89.8658 190.472 90.2153 189.417 91.9487 188.663L91.9487 188.663L91.9546 188.661C93.8077 187.815 94.4832 186.849 94.6162 186.003C94.6811 185.59 94.6102 185.24 94.5236 184.993C94.4803 184.87 94.4326 184.771 94.3945 184.701C94.3754 184.667 94.3586 184.639 94.3457 184.618C94.3409 184.611 94.3366 184.604 94.333 184.599C94.3317 184.597 94.3305 184.595 94.3294 184.593L94.3239 184.585L94.3218 184.582L94.3209 184.581L94.3205 184.581C94.3204 184.58 94.3202 184.58 94.0307 184.787L94.3202 184.58L94.2213 184.441L94.0518 184.432L94.0517 184.432L94.0515 184.432L94.0513 184.432L94.0512 184.432L94.0474 184.431L94.0292 184.43C94.0125 184.429 93.9869 184.426 93.9541 184.423C93.8883 184.416 93.7938 184.404 93.6821 184.385C93.4558 184.345 93.1723 184.277 92.9162 184.164C92.6551 184.049 92.4619 183.904 92.3623 183.734C92.2742 183.584 92.2288 183.363 92.3712 183.007C92.7386 182.089 92.715 181.483 92.4691 181.091C92.3482 180.899 92.1907 180.788 92.0625 180.727C91.9989 180.697 91.9419 180.678 91.8986 180.667C91.8768 180.661 91.858 180.657 91.8432 180.654C91.8357 180.653 91.8292 180.652 91.8237 180.651L91.8162 180.65L91.813 180.649L91.8116 180.649L91.8109 180.649C91.8106 180.649 91.8102 180.649 91.7679 181.002L91.8102 180.649L91.558 180.619L91.4475 180.848C91.3369 181.077 91.2115 181.198 91.0909 181.265C90.9678 181.333 90.8179 181.363 90.6311 181.356C90.3009 181.343 89.9409 181.225 89.5428 181.093C89.4591 181.066 89.3736 181.038 89.2865 181.01C89.0516 180.935 88.8012 180.862 88.5648 180.836C88.3292 180.809 88.0613 180.823 87.8241 180.968C87.5783 181.118 87.4305 181.369 87.3558 181.681C87.2824 181.986 87.2716 182.379 87.3171 182.869C87.4002 183.764 87.2607 184.354 87.0116 184.772C86.7616 185.192 86.3744 185.484 85.8725 185.735C85.5118 185.915 85.1209 186.061 84.6979 186.219C84.5173 186.286 84.3309 186.356 84.1385 186.431C83.5125 186.676 82.8535 186.973 82.2638 187.432C81.8979 187.717 81.6964 188.054 81.5516 188.366C81.4997 188.477 81.4521 188.593 81.409 188.697C81.3942 188.733 81.38 188.767 81.3662 188.8C81.3097 188.935 81.2578 189.049 81.198 189.15C81.0864 189.338 80.9479 189.479 80.6952 189.568C80.4236 189.664 79.9941 189.708 79.2864 189.623Z" fill="#9BE7C4" stroke="#171753" stroke-width="0.711459"/>
<path d="M34.4028 161.189L33.7088 161.297C33.63 173.595 39.8975 184.551 49.5507 191.013L50.0001 190.465C50.0012 190.466 50.0007 190.466 49.9987 190.464C49.9925 190.456 49.9719 190.432 49.9424 190.391C49.9064 190.341 49.8648 190.278 49.829 190.209C49.7446 190.046 49.742 189.952 49.7521 189.924C49.7521 189.924 49.7547 189.908 49.7983 189.884C49.8494 189.855 49.9517 189.819 50.139 189.804C50.5166 189.774 51.1476 189.836 52.16 190.087L52.7655 190.237L52.5863 189.639L52.2455 189.742C52.5863 189.639 52.5862 189.639 52.5862 189.639L52.5861 189.639L52.5858 189.638L52.5852 189.636L52.5832 189.629L52.5763 189.608C52.5705 189.59 52.5621 189.566 52.5508 189.534C52.5282 189.472 52.4941 189.383 52.4465 189.273C52.3514 189.052 52.2019 188.746 51.9817 188.393C51.5412 187.686 50.8161 186.788 49.6752 186.014C48.6047 185.287 47.8693 184.528 47.5572 183.93C47.4002 183.629 47.3753 183.417 47.407 183.287C47.4326 183.182 47.5112 183.064 47.7601 182.976L48.6139 182.675L47.784 182.315L47.7839 182.315L47.7838 182.315L47.7836 182.315L47.7834 182.314L47.7817 182.314L47.7691 182.308C47.7572 182.302 47.7387 182.294 47.7149 182.282C47.667 182.257 47.5981 182.221 47.5175 182.172C47.3544 182.073 47.1533 181.931 46.9824 181.752C46.8107 181.572 46.685 181.371 46.6406 181.154C46.6063 180.987 46.6153 180.786 46.7217 180.545L47.787 180.577L47.9787 180.583L48.0889 180.426L47.7978 180.222C48.0889 180.426 48.089 180.426 48.0891 180.426L48.0894 180.426L48.09 180.425L48.0915 180.423L48.0955 180.417L48.1075 180.399C48.1171 180.384 48.13 180.363 48.145 180.338C48.1751 180.286 48.2145 180.214 48.2554 180.124C48.3367 179.944 48.4271 179.687 48.4589 179.381C48.5248 178.746 48.3307 177.951 47.4315 177.249L47.1456 177.026L46.9288 177.315L46.9285 177.316L46.9283 177.316L46.9282 177.316L46.9282 177.316L46.928 177.316L46.9233 177.322C46.9215 177.325 46.9192 177.327 46.9165 177.331C46.9119 177.336 46.906 177.344 46.899 177.352C46.8764 177.378 46.8419 177.417 46.7969 177.463C46.7059 177.554 46.5783 177.666 46.4266 177.755C46.1314 177.93 45.7794 178.011 45.3835 177.743C44.9718 177.463 44.6876 176.777 44.7433 176.121C44.7702 175.805 44.8747 175.532 45.0479 175.339C45.215 175.153 45.4702 175.014 45.8616 174.998C46.7254 174.963 47.0927 175.241 47.2579 175.455C47.3474 175.571 47.3943 175.689 47.4186 175.779C47.4307 175.823 47.4368 175.859 47.4398 175.881C47.4413 175.892 47.442 175.9 47.4423 175.904C47.4423 175.904 47.4423 175.905 47.4423 175.905L47.4578 176.43L47.9416 176.217L47.7978 175.891C47.9416 176.217 47.9418 176.216 47.9421 176.216L47.9426 176.216L47.9437 176.216L47.9464 176.214L47.9537 176.211C47.9594 176.208 47.9667 176.205 47.9753 176.201C47.9926 176.192 48.0157 176.18 48.0433 176.164C48.0984 176.133 48.1724 176.086 48.2551 176.023C48.4194 175.897 48.6251 175.698 48.7794 175.411C49.1031 174.808 49.1435 173.929 48.4131 172.74C48.0359 172.126 47.5775 171.757 47.0875 171.57C46.6021 171.385 46.1163 171.39 45.6979 171.469C45.2804 171.549 44.9166 171.704 44.6602 171.836C44.5311 171.903 44.4268 171.965 44.3538 172.012C44.3432 172.018 44.3332 172.025 44.3239 172.031C44.3233 172.031 44.3228 172.031 44.3223 172.031C44.2624 172.033 44.173 172.033 44.0619 172.026C43.8388 172.011 43.5331 171.966 43.2036 171.846C42.557 171.61 41.7961 171.08 41.3857 169.848C41.2721 169.508 41.1774 169.256 41.098 169.08C41.0586 168.993 41.019 168.915 40.9785 168.852C40.947 168.803 40.8825 168.708 40.7765 168.652C40.7129 168.618 40.615 168.587 40.5008 168.614C40.3889 168.64 40.317 168.708 40.2774 168.76C40.2095 168.849 40.1887 168.952 40.1802 168.999C40.1593 169.116 40.1573 169.266 40.161 169.409C40.1688 169.706 40.2057 170.084 40.2394 170.38C40.2552 170.519 40.2706 170.642 40.2826 170.734C40.2742 170.733 40.2664 170.73 40.2597 170.726C40.2502 170.72 40.2425 170.713 40.2364 170.702C40.1076 170.425 39.9182 170.119 39.6632 169.888C39.4018 169.65 39.0479 169.473 38.6213 169.53L38.6197 169.53C38.5504 169.54 38.4838 169.554 38.4205 169.573L38.1793 168.97L37.7224 167.828L38.9835 168.905L39.155 169.051L39.3605 168.959L39.2145 168.634C39.3605 168.959 39.3608 168.959 39.3611 168.959L39.3617 168.958L39.363 168.958L39.3661 168.956L39.3741 168.952C39.3802 168.949 39.3877 168.946 39.3966 168.941C39.4143 168.932 39.4373 168.919 39.4642 168.902C39.5176 168.869 39.5881 168.82 39.6623 168.751C39.8108 168.615 39.9808 168.395 40.0458 168.076C40.1776 167.432 39.8497 166.581 38.6381 165.448C36.2972 163.261 36.5238 162.029 36.7193 161.662L36.9983 161.139L36.4054 161.139L36.4054 161.495C36.4054 161.139 36.4051 161.139 36.4047 161.139L36.4039 161.139L36.4024 161.139L36.399 161.139L36.3911 161.139C36.3853 161.139 36.3785 161.14 36.3709 161.14C36.3556 161.141 36.3365 161.143 36.3143 161.146C36.2697 161.153 36.212 161.164 36.145 161.186C36.0099 161.231 35.8407 161.314 35.6689 161.47C35.394 161.72 35.1371 162.13 34.9811 162.795C34.8059 162.374 34.6035 161.806 34.4028 161.189ZM40.883 169.114C40.8831 169.114 40.8826 169.116 40.8813 169.121C40.8823 169.116 40.8829 169.114 40.883 169.114ZM40.3698 169.222C40.3698 169.222 40.3712 169.224 40.374 169.228C40.3712 169.225 40.3698 169.223 40.3698 169.222ZM39.9526 175.527C39.9412 175.587 39.928 175.645 39.9135 175.7C39.8994 175.672 39.8847 175.644 39.8693 175.616C39.5597 175.039 38.9944 174.303 37.971 173.607L37.9683 173.605C37.0965 173.024 36.6047 171.825 36.6002 170.813C36.598 170.309 36.7175 169.912 36.91 169.678C37.0804 169.471 37.3398 169.35 37.7685 169.449L38.372 169.589C38.1088 169.681 37.9067 169.861 37.8067 170.131C37.6912 170.444 37.7403 170.808 37.8519 171.153C38.0785 171.854 38.6416 172.717 39.3767 173.551L39.3767 173.551L39.3796 173.555C40.0109 174.254 40.0585 174.972 39.9526 175.527Z" fill="#9BE7C4" stroke="#171753" stroke-width="0.711459"/>
<path d="M36.731 159.402C37.2022 159.798 38.7185 161.221 39.8215 163.931C40.4961 165.589 41.5512 166.323 42.5937 166.256C43.6117 166.19 44.4375 165.363 44.6364 164.293C44.6795 164.061 44.575 163.868 44.4429 163.751C44.3148 163.637 44.14 163.573 43.9619 163.58C43.7466 163.59 43.4337 163.541 43.1477 163.231C42.8507 162.909 42.5402 162.259 42.4568 160.965C42.2385 157.582 40.4781 154.775 40.1484 154.275C40.0629 154.145 39.9316 154.059 39.7868 154.027L38.0873 153.649C37.6962 153.562 37.3411 153.876 37.3564 154.263C37.3877 155.056 37.3733 157.1 36.5796 158.649C36.4493 158.903 36.5111 159.217 36.731 159.402Z" fill="#9BE7C4" stroke="#171753" stroke-width="0.711459"/>
<path d="M36.6378 155.28L36.6378 155.28L36.6385 155.277C36.9063 153.797 37.3687 153.037 37.7933 152.649C38.2106 152.268 38.6287 152.214 38.8952 152.227C39.088 152.236 39.2678 152.159 39.3948 152.042C39.5232 151.923 39.6257 151.733 39.5975 151.508L39.3878 149.83C39.3638 149.638 39.2475 149.469 39.0762 149.379L38.0472 148.836C38.2037 148.325 38.4945 147.196 38.4601 145.942C38.4523 145.658 38.2566 145.448 38.0114 145.401C37.7711 145.354 37.5157 145.467 37.3917 145.713C35.5129 149.442 34.2414 153.563 33.7905 157.953C33.7447 158.4 34.2299 158.782 34.6657 158.502C35.5494 157.932 36.3165 156.958 36.6378 155.28Z" fill="#9BE7C4" stroke="#171753" stroke-width="0.711459"/>
<path d="M51.1881 151.039L51.1881 151.039L51.194 151.035C51.6481 150.758 52.0353 150.771 52.3595 150.89C52.7019 151.016 52.9936 151.27 53.201 151.5C53.3589 151.675 53.5874 151.734 53.7868 151.696C53.9921 151.658 54.1988 151.507 54.255 151.246C54.3608 150.755 54.4802 149.953 54.3369 149.208C54.2645 148.831 54.1218 148.451 53.8602 148.133C53.5945 147.811 53.2217 147.571 52.7265 147.458L52.7265 147.458L52.7224 147.458C52.176 147.34 51.7423 147.366 51.3775 147.518C51.0173 147.668 50.7688 147.922 50.5646 148.168C50.4921 148.255 50.4243 148.341 50.3581 148.425C50.0391 148.83 49.759 149.185 49.1842 149.378C48.6587 149.538 48.3223 150.012 48.3484 150.549C48.3524 150.632 48.3753 150.705 48.4041 150.765C48.5467 151.503 49.3064 151.916 50.0037 151.649C50.3481 151.52 50.7241 151.309 51.1881 151.039Z" fill="#9BE7C4" stroke="#171753" stroke-width="0.711459"/>
<path d="M41.9846 155.213C42.1016 156.579 44.2084 156.384 44.1304 155.018V154.979C43.9743 153.341 42.3357 153.497 42.0626 154.628C41.9846 154.862 41.9846 155.057 41.9846 155.213Z" fill="#9BE7C4" stroke="#171753" stroke-width="0.711459"/>
<path d="M58.5658 192.824C58.5658 192.824 59.2681 191.497 56.7321 191.536C55.2495 191.536 54.3522 192.317 52.8306 192.629C53.2207 192.824 53.5719 193.019 53.962 193.214C53.962 193.175 56.7711 192.122 58.5658 192.824Z" fill="#9BE7C4" stroke="#171753" stroke-width="0.711459"/>
<path d="M78.7872 168.963C78.7872 168.415 78.3591 167.882 77.745 167.882C77.131 167.882 76.7029 168.415 76.7029 168.963C76.7029 169.512 77.131 170.044 77.745 170.044C78.3591 170.044 78.7872 169.512 78.7872 168.963Z" fill="#9BE7C4" stroke="#171753" stroke-width="0.835763"/>
<path d="M66.4829 141.852L66.4829 141.852L66.4957 141.85C66.8273 141.778 67.2069 141.619 67.5103 141.29C67.8184 140.956 68.0128 140.484 68.0352 139.856L68.0426 139.649L67.8822 139.518C67.2844 139.029 66.3158 139.105 65.8948 139.858C65.679 140.177 65.4789 140.321 65.2767 140.321H64.5386L64.9183 140.954L65.0199 141.123C65.2735 141.707 65.9075 141.957 66.4829 141.852Z" fill="#9BE7C4" stroke="#171753" stroke-width="0.835763"/>
<path d="M49.8233 177.746L49.8234 177.746L49.8361 177.744C50.1677 177.673 50.5473 177.513 50.8508 177.184C51.1588 176.85 51.3532 176.378 51.3756 175.75L51.383 175.543L51.2226 175.412C50.6248 174.923 49.6563 174.999 49.2352 175.752C49.0195 176.071 48.8193 176.215 48.6171 176.215H47.941L48.2434 176.82L48.3566 177.046C48.6095 177.601 49.248 177.851 49.8233 177.746Z" fill="#9BE7C4" stroke="#171753" stroke-width="0.835763"/>
<path d="M103.662 158.539L103.632 158.559L103.606 158.585C103.503 158.689 103.406 158.835 103.38 159.017C103.352 159.215 103.415 159.415 103.567 159.566C104.208 160.207 104.692 161.392 105.022 162.506C105.285 163.391 105.424 164.12 105.488 164.458C105.505 164.547 105.517 164.61 105.525 164.639L106.346 164.578C106.425 163.746 106.465 162.915 106.465 162.084C106.504 159.755 106.307 157.507 105.953 155.303L105.93 155.165L105.829 155.068C104.846 154.127 103.845 153.875 102.958 153.984C102.095 154.09 101.389 154.531 100.947 154.888C100.45 155.287 100.731 156.087 101.351 156.099C101.992 156.136 102.915 156.35 103.63 157.132C104.034 157.587 104.051 157.892 104.011 158.066C103.965 158.267 103.812 158.433 103.662 158.539Z" fill="#9BE7C4" stroke="#171753" stroke-width="0.835763"/>
<path d="M39.4939 141.985L40.0846 142.559C40.9072 141.961 41.8098 141.566 42.6659 141.66C42.7963 141.681 42.9315 141.662 43.052 141.595C43.1756 141.527 43.2586 141.422 43.3051 141.313C43.3916 141.111 43.3718 140.843 43.1894 140.651C42.8683 140.287 42.3039 139.86 41.5775 139.604L41.2856 139.5L41.102 139.75L41.0998 139.753C40.5551 140.492 40.0053 141.238 39.4939 141.985Z" fill="#9BE7C4" stroke="#171753" stroke-width="0.835763"/>
<path d="M67.4396 190.1C67.2204 190.219 67.0468 190.317 66.9617 190.386C66.9474 190.398 66.9259 190.416 66.9039 190.44C66.8889 190.456 66.8385 190.511 66.809 190.598C66.7925 190.647 66.7764 190.723 66.7941 190.815C66.813 190.913 66.8642 190.994 66.928 191.05C67.0332 191.144 67.15 191.155 67.1755 191.157L67.1762 191.157C67.2465 191.164 67.3088 191.152 67.329 191.148L67.33 191.148C67.3615 191.142 67.3941 191.134 67.4243 191.125C67.5547 191.09 67.7875 191.013 68.0743 190.917C68.264 190.854 68.4773 190.782 68.7002 190.71C69.2805 190.523 69.967 190.316 70.6198 190.173C71.2856 190.027 71.8656 189.959 72.2539 190.016C72.507 190.052 72.7393 190.06 72.9295 190.013C73.1219 189.966 73.3888 189.823 73.4224 189.498C73.4482 189.248 73.3066 189.044 73.2081 188.928C73.0926 188.793 72.936 188.664 72.7599 188.547C72.0648 188.085 70.8082 187.648 69.5144 187.863C68.9269 187.961 68.5085 188.098 68.2608 188.343C67.9635 188.638 67.9992 188.993 68.0199 189.183C68.021 189.193 68.0221 189.203 68.0232 189.213C68.0447 189.409 68.0543 189.497 68.0142 189.6C67.9769 189.695 67.8619 189.871 67.4396 190.1ZM67.1736 190.327C67.1685 190.328 67.1697 190.327 67.1758 190.326C67.1748 190.326 67.1741 190.327 67.1736 190.327Z" fill="#9BE7C4" stroke="#171753" stroke-width="0.835763"/>
<path d="M63.171 132.699C63.1672 132.085 62.9141 131.604 62.5249 131.269C62.0961 130.899 61.5312 130.73 61.0249 130.699C60.5337 130.67 59.996 130.765 59.6501 131.049C59.4644 131.201 59.3173 131.425 59.3096 131.711C59.3022 131.986 59.4259 132.24 59.6104 132.462C59.8563 132.757 59.8994 132.964 59.8922 133.093C59.8848 133.226 59.8192 133.357 59.6959 133.488C59.5716 133.619 59.4107 133.726 59.2705 133.803C59.2023 133.84 59.1431 133.868 59.1021 133.886C59.0816 133.895 59.0659 133.901 59.0562 133.905L59.0462 133.909L59.0451 133.909L59.0451 133.909L59.0448 133.909L58.2676 134.195L58.9607 134.65C59.694 135.132 60.6333 135.488 61.4973 135.589C62.3322 135.687 63.2584 135.558 63.7474 134.851L63.7474 134.851L63.7515 134.845C63.9757 134.509 64.0558 134.17 64.0102 133.848C63.9659 133.535 63.8101 133.286 63.649 133.103C63.4889 132.921 63.3072 132.787 63.171 132.699Z" fill="#49CE8B" stroke="#171753" stroke-width="0.835763"/>
<path d="M81.7441 127.502L81.6854 127.485H81.624C81.5655 127.485 81.5209 127.497 81.5087 127.501C81.49 127.506 81.4754 127.512 81.4673 127.515C81.451 127.521 81.4379 127.528 81.4315 127.531C81.4176 127.538 81.4041 127.545 81.3947 127.55C81.3782 127.559 81.3565 127.571 81.3335 127.584C81.329 127.587 81.3246 127.589 81.32 127.592C81.2615 127.625 81.18 127.671 81.0777 127.725C80.8728 127.833 80.585 127.974 80.2426 128.109C79.5499 128.38 78.6698 128.607 77.8128 128.502C77.3314 128.442 76.6897 128.389 76.0497 128.389C75.4188 128.389 74.7507 128.44 74.2377 128.608C73.9816 128.691 73.7258 128.816 73.5374 129.012C73.3342 129.223 73.2275 129.501 73.2645 129.821C73.2987 130.118 73.4519 130.414 73.6803 130.709C73.9119 131.008 74.2448 131.336 74.6878 131.698L74.9068 131.878L75.1543 131.741C75.1544 131.741 75.1543 131.741 75.1543 131.741L75.1545 131.741L75.1547 131.741L75.1568 131.74L75.1667 131.734L75.2085 131.712C75.2459 131.692 75.3022 131.662 75.3761 131.625C75.5239 131.549 75.7418 131.442 76.0188 131.315C76.5731 131.06 77.3622 130.727 78.2982 130.416C80.1789 129.791 82.6131 129.266 84.9188 129.604L85.149 128.808C84.0901 128.338 82.9398 127.861 81.7441 127.502Z" fill="#49CE8B" stroke="#171753" stroke-width="0.835763"/>
<path d="M128.799 80.3092C127.704 76.3872 125.15 75.2015 123.053 74.8367C121.593 74.6543 120.134 74.9279 118.766 75.4751L117.58 76.1136C105.084 82.4983 92.315 88.4269 79.2721 93.717L70.1512 97.0006C70.1512 97.0006 52.0005 99.1896 50.3587 100.467C48.717 101.743 48.6257 102.564 48.6257 102.564L40.3257 112.324C40.3257 112.324 36.6773 119.712 35.1268 123.725C33.5762 127.647 33.941 130.93 33.941 130.93C34.8531 131.751 36.4949 132.025 36.4949 132.025C36.4949 132.025 36.2213 133.211 36.1301 134.852C35.9477 136.494 36.1301 137.771 36.1301 137.771C37.5894 139.048 39.5048 138.227 39.5048 138.227V138.866C40.5993 140.234 41.9675 139.595 42.8796 138.866C43.7004 138.318 45.0686 135.856 45.5246 134.944C45.6158 134.761 45.8895 134.761 45.9807 134.944L46.8016 135.947C48.8082 136.494 50.6324 135.035 52.0917 133.302C53.6423 131.569 56.9258 128.012 56.9258 128.012C56.9258 128.012 68.5094 121.08 71.4281 119.803C71.4281 119.803 75.6237 117.614 77.8127 116.428C81.1875 114.604 85.5655 110.317 85.5655 110.317C86.8425 109.223 92.4062 107.49 99.7942 105.757C104.993 104.48 112.655 102.473 116.668 101.47C118.857 100.923 120.772 100.102 122.779 99.0072C124.33 98.1863 126.062 96.5445 126.519 96.1797C129.346 93.6258 130.897 87.606 128.799 80.3092Z" fill="#9BE7C4"/>
<path d="M40.9638 140.234C39.9605 140.234 39.3221 139.687 38.9572 139.14L38.866 138.957C38.0451 139.048 36.7682 139.048 35.6737 138.136L35.4913 137.954V137.68C35.4913 137.589 35.3088 136.312 35.4913 134.67C35.5825 133.758 35.6737 132.937 35.7649 132.39C35.1264 132.208 34.1231 131.934 33.4847 131.296L33.3022 131.113V130.84C33.3022 130.657 32.9374 127.374 34.5792 123.36C36.1297 119.438 39.6869 111.959 39.7781 111.959L39.8693 111.868L48.0782 102.291C48.1694 101.926 48.6254 101.105 49.9936 100.011C51.6353 98.6427 66.7761 96.8185 70.0596 96.4537L79.0893 93.1702C92.0411 87.88 104.902 81.9514 117.306 75.5667L118.492 74.9283C120.042 74.1986 121.684 74.0162 123.143 74.1986C125.332 74.4722 128.16 75.7492 129.437 80.1272C131.626 87.6976 129.893 93.991 127.065 96.3625C126.974 96.4537 126.883 96.5449 126.792 96.6361C126.062 97.2746 124.603 98.6427 123.235 99.2812C121.046 100.467 119.039 101.288 116.941 101.835C112.837 102.93 105.266 104.936 100.067 106.122C92.7707 107.855 87.2982 109.679 86.1125 110.591C85.93 110.774 81.6432 114.969 78.1772 116.793C75.9882 117.979 71.7926 120.168 71.7014 120.168C68.9651 121.354 58.3848 127.738 57.2903 128.377C56.8343 128.833 53.9156 132.025 52.5474 133.576C51.1793 135.126 49.0815 137.133 46.5276 136.403L46.3452 136.312L45.7067 135.583C44.8858 137.042 43.8825 138.684 43.1529 139.231C42.4232 139.961 41.6023 140.234 40.9638 140.234ZM40.1429 138.592C40.4166 138.957 41.055 139.413 42.5144 138.319C42.9704 137.954 43.9737 136.495 44.977 134.579C45.1595 134.306 45.3419 134.123 45.7067 134.123C45.9803 134.123 46.3452 134.214 46.5276 134.397L47.2573 135.218C48.6254 135.491 49.9936 134.762 51.7265 132.664C53.2771 130.931 56.4694 127.374 56.5606 127.282L56.743 127.191C57.1991 126.918 68.4178 120.168 71.3365 118.891C71.3365 118.891 75.5322 116.702 77.7212 115.608C80.9135 113.875 85.2916 109.679 85.3828 109.588C87.3894 107.946 96.9664 105.483 99.8851 104.845C105.084 103.568 112.654 101.561 116.759 100.558C118.674 100.011 120.59 99.2812 122.779 98.1867C123.964 97.5482 125.424 96.2713 126.062 95.724C126.245 95.6328 126.336 95.4504 126.427 95.4504C128.89 93.3526 130.349 87.424 128.342 80.4921C127.522 77.5734 125.697 75.8404 123.143 75.4755C121.867 75.2931 120.498 75.4755 119.221 76.114L117.853 76.6613C105.358 83.0459 92.4971 88.9745 79.4542 94.3559L70.1508 97.7306C62.6717 98.6427 51.7265 100.284 50.7232 101.105C49.4463 102.109 49.2639 102.838 49.2639 102.838V103.021L49.1727 103.112L40.8726 112.78C40.5078 113.601 37.2242 120.351 35.7649 123.999C34.5792 127.1 34.5792 129.836 34.5792 130.657C35.2176 131.113 36.2209 131.296 36.677 131.387L37.3155 131.478L37.2242 132.117C37.2242 132.117 36.9506 133.302 36.8594 134.853C36.7682 135.947 36.7682 136.951 36.8594 137.407C37.9539 138.228 39.4133 137.68 39.4133 137.589L40.3254 137.224V138.592H40.1429Z" fill="#171753"/>
<path d="M36.677 132.572L36.4946 131.295C36.5858 131.295 37.5891 131.022 38.2276 129.562C38.9573 127.738 41.876 121.445 41.9672 121.171L42.0584 121.08L44.7947 117.523C44.7947 117.523 48.1694 114.878 48.9903 112.597C49.8112 110.408 49.72 109.223 49.72 109.132L50.9969 108.949C50.9969 109.04 51.1793 110.408 50.2672 112.962C49.3552 115.334 46.254 117.979 45.798 118.344L43.3353 121.718C43.0617 122.357 40.3254 128.194 39.687 129.927C38.5012 132.207 36.7683 132.572 36.677 132.572Z" fill="#171753"/>
<path d="M39.7778 138.775L39.3218 137.589C39.3218 137.589 40.4163 137.042 41.146 134.67C41.9668 131.934 46.1625 124.272 46.3449 123.999L46.4361 123.908L46.5273 123.816C46.5273 123.816 48.8988 121.992 50.1757 120.077C51.3614 118.344 51.179 116.884 51.179 116.793L52.4559 116.611C52.4559 116.702 52.7296 118.617 51.179 120.806C49.9021 122.631 47.8955 124.364 47.3482 124.728C46.8009 125.732 43.0614 132.572 42.3317 135.035C41.4196 137.954 39.9602 138.683 39.7778 138.775Z" fill="#171753"/>
<path d="M46.0712 135.217L45.0679 134.396L49.1724 129.015C49.1724 129.015 52.5471 126.005 53.824 124.363C55.0098 122.813 55.4658 121.353 54.8273 120.441L55.9218 119.712C56.8339 121.08 56.3779 123.178 54.8273 125.184C53.5504 126.735 50.5405 129.562 50.0844 129.927L46.0712 135.217Z" fill="#171753"/>
<path d="M63.7663 113.692L63.4015 112.324C63.1278 111.412 62.3069 110.135 61.2124 109.041C60.0267 107.764 58.3849 106.943 56.5608 106.761L54.2805 106.487L54.4629 105.21L56.7432 105.484C58.7498 105.757 60.6652 106.669 62.1245 108.129C62.6718 108.767 64.1311 110.318 64.6784 111.959L65.0432 113.328L63.7663 113.692Z" fill="#171753"/>
<path d="M62.7626 116.337C61.4857 115.061 59.2966 113.328 58.3845 113.692L58.0197 112.507C60.1175 111.777 63.2186 114.878 63.7659 115.517L62.7626 116.337Z" fill="#171753"/>
<path d="M85.7475 110.956L84.653 110.226C86.7508 107.034 86.9332 103.75 86.9332 103.75L88.2102 103.841C88.2102 104.024 87.9366 107.49 85.7475 110.956Z" fill="#171753"/>
<path d="M86.5689 102.473C86.2952 100.831 85.4744 100.284 85.4744 100.193L86.204 99.0985C86.2953 99.1897 87.481 100.011 87.8458 102.2L86.5689 102.473Z" fill="#171753"/>
<path d="M47.5309 124.273L46.2539 124.181C46.3451 123.087 45.8891 121.992 45.8891 121.992L47.0748 121.628C47.166 121.719 47.6221 122.996 47.5309 124.273Z" fill="#171753"/>
<path d="M45.2506 118.708L43.9737 118.617C44.0649 117.523 43.6088 116.428 43.6088 116.428L44.7946 116.063C44.7946 116.063 45.2506 117.431 45.2506 118.708Z" fill="#171753"/>
<path d="M49.9021 130.292L48.8988 129.472C49.2636 129.015 49.0812 127.739 48.8988 127.009L50.0845 126.644C50.1757 126.918 50.8142 129.198 49.9021 130.292Z" fill="#171753"/>
<path d="M34.397 126.279L35.1267 126.644C35.4003 126.735 35.5827 127.1 35.4915 127.465C35.3091 128.194 35.0355 129.562 35.0355 131.295L33.941 130.657L34.397 126.279Z" fill="#171753"/>
<path d="M36.2206 133.485L37.0415 133.85C37.3151 133.941 37.4975 134.214 37.4063 134.579C37.3151 135.218 37.2239 136.495 37.2239 138.136L36.1294 137.498V133.485H36.2206Z" fill="#171753"/>
<path d="M65.134 105.757C65.134 105.757 66.7758 107.125 65.8637 109.77C64.9516 112.415 62.5802 117.158 60.2087 120.989C58.4757 123.908 56.834 126.644 57.9285 129.015C58.7494 130.84 61.0296 131.66 62.8538 130.84C63.7659 130.383 64.7692 129.654 65.6813 128.377C67.6879 125.641 69.8769 121.627 70.789 119.712C71.1538 118.982 71.6099 117.797 72.1572 117.158C73.1605 115.972 74.3462 115.06 75.8055 114.422C77.3561 113.783 79.4539 112.598 80.6396 111.138L65.134 105.757Z" fill="#9BE7C4"/>
<path d="M61.3034 131.843C60.7562 131.843 60.2089 131.752 59.7529 131.569C58.6584 131.113 57.8375 130.384 57.3814 129.289C56.1957 126.462 58.1111 123.452 59.7529 120.716C62.1243 116.794 64.4045 112.233 65.3166 109.588C66.0463 107.308 64.7694 106.213 64.7694 106.213L65.5903 105.21C65.6815 105.301 67.5057 106.852 66.5024 109.953C65.5903 112.598 63.2188 117.25 60.8474 121.263C59.0232 124.273 57.7463 126.644 58.5671 128.742C58.8408 129.472 59.4792 130.019 60.2089 130.293C61.0298 130.566 61.8507 130.566 62.5804 130.201C63.5837 129.745 64.4045 129.016 65.2254 127.921C67.232 125.185 69.4211 120.989 70.3332 119.347C70.4244 119.165 70.5156 118.983 70.6068 118.709C70.9716 117.979 71.3365 117.158 71.7925 116.611C72.7958 115.334 74.1639 114.331 75.6233 113.692C77.0826 113.054 79.0893 111.959 80.1838 110.591L81.1871 111.412C79.9101 113.145 77.7211 114.331 76.0793 114.969C74.8024 115.517 73.6167 116.429 72.7046 117.523C72.3398 117.979 71.9749 118.709 71.7013 119.347C71.6101 119.621 71.5189 119.803 71.4277 119.986C70.3332 122.084 68.2353 126.006 66.2287 128.742C65.3166 130.019 64.3133 130.84 63.1276 131.387C62.5804 131.752 61.9419 131.843 61.3034 131.843Z" fill="#171753"/>
<path d="M58.3848 128.833C58.3848 128.833 58.8409 127.1 59.753 125.641C59.9354 125.276 60.3002 125.185 60.7563 125.276C61.5772 125.458 62.9453 125.914 63.9486 126.826C64.131 127.009 64.2222 127.374 64.2222 127.647C64.131 128.195 63.7662 129.107 62.7629 130.384L61.2123 131.204L59.0233 130.384L58.3848 128.833Z" fill="#171753"/>
<path d="M68.053 120.533C66.5936 119.348 64.3134 118.618 64.3134 118.618L64.6782 117.432C64.7695 117.432 67.2321 118.162 68.8739 119.53L68.053 120.533Z" fill="#171753"/>
<path d="M61.486 130.475H61.3948C61.3948 130.475 60.9388 130.383 60.3915 130.201L59.7531 129.836L59.9355 129.471L60.5739 129.836C60.8476 129.927 61.2124 130.019 61.3948 130.11C62.0333 129.471 62.3981 128.103 62.3981 128.103L62.8542 128.194C62.763 128.194 62.3981 129.654 61.486 130.475Z" fill="#9BE7C4"/>
<path d="M132.426 131.084L140.6 125.862L132.426 125.635L131.518 126.543L130.837 129.268L132.426 131.084Z" fill="#171753"/>
<path d="M132.198 131.993L129.927 129.268V128.814L130.608 125.862L130.835 125.635L131.971 124.5H132.198L140.826 124.954L141.053 125.862L140.599 126.089L132.198 131.993ZM131.516 128.814L132.652 129.949L138.555 126.089L132.879 125.862L132.198 126.543L131.516 128.814Z" fill="#171753"/>
<path d="M146.047 84.9913L120.616 70.2324C119.254 69.3242 117.891 69.3242 116.983 69.7783L108.582 75.0006C109.036 75.6818 112.442 82.9477 112.669 84.3101C112.896 84.7642 113.804 90.4407 115.167 96.7984V99.9772C115.167 101.794 115.848 103.837 116.983 105.654C118.345 112.465 119.481 118.142 119.481 118.142L131.061 122.002H131.969L131.288 120.186C131.061 119.277 131.061 118.369 130.834 117.461L141.733 129.722C141.733 129.722 141.733 129.722 141.96 129.722L149.907 124.727C149.907 124.727 149.907 124.727 150.134 124.727C151.042 124.046 151.723 122.91 151.723 121.321V94.5278C151.723 91.1219 149.226 86.8077 146.047 84.9913Z" fill="#49CE8B"/>
<path d="M141.959 130.403C141.732 130.403 141.505 130.403 141.278 130.176L131.742 119.504C131.742 119.732 131.742 119.959 131.742 120.186L132.423 122.002C132.65 122.456 132.423 122.683 131.969 122.91H131.742H130.606L118.799 118.823V118.596C118.799 118.369 117.664 112.693 116.302 106.108C115.166 104.064 114.485 102.021 114.485 100.204V97.0256C112.896 89.3055 112.214 84.9914 111.987 84.5373C111.76 83.6291 109.717 79.3149 107.9 75.4549C107.673 75.0008 107.9 74.5467 108.127 74.5467L116.529 69.3243C117.891 68.6431 119.48 68.8702 121.07 69.7784L146.5 84.5373C149.679 86.3538 152.404 90.895 152.404 94.755V121.094C152.404 122.91 151.723 124.5 150.588 125.181H150.36L142.413 130.176C142.186 130.403 142.186 130.403 141.959 130.403ZM130.152 115.644L142.186 129.041L149.679 124.273L150.133 124.727L149.679 124.046C150.36 123.592 150.815 122.456 150.815 121.094V94.5279C150.815 91.3491 148.544 87.262 145.592 85.4455L120.389 70.9137C119.253 70.2325 118.118 70.0055 117.21 70.4596L109.49 75.2278C110.625 77.4984 113.123 82.9479 113.35 84.0832C113.577 84.5373 114.258 88.6244 115.847 96.5715V96.7985V99.9773C115.847 101.567 116.529 103.383 117.437 105.2V105.427C118.572 111.103 119.48 116.099 119.707 117.688L130.606 121.321L130.152 120.186C129.925 119.277 129.925 118.142 129.698 117.234L130.152 115.644Z" fill="#171753"/>
<path d="M146.046 84.9914L121.978 71.1407L109.944 78.6337L135.829 92.2573L141.278 93.1655L149.452 88.1702C148.544 86.8079 147.409 85.6726 146.046 84.9914Z" fill="#ECFFFE"/>
<path d="M141.279 93.8466L135.375 92.9384L108.582 78.6336L121.978 70.2324L146.501 84.3101C147.863 84.9913 148.999 86.1266 150.134 87.716L150.588 88.3972L141.279 93.8466ZM136.056 91.576L141.051 92.2572L148.317 87.9431C147.409 86.8078 146.728 86.1266 145.593 85.6725L121.751 72.0489L111.08 78.6336L136.056 91.576Z" fill="#171753"/>
<path d="M151.327 94.6804L143.159 99.6022L143.863 100.769L152.031 95.8472L151.327 94.6804Z" fill="#171753"/>
<path d="M151.175 113.955L143.007 118.877L143.71 120.044L151.878 115.122L151.175 113.955Z" fill="#171753"/>
<path d="M112.442 75.4549L137.872 90.2138C140.824 92.0303 143.322 96.1173 143.322 99.7503V126.316C143.322 129.722 140.824 131.312 137.872 129.495L134.921 127.906C134.466 127.679 134.012 127.679 133.785 128.36C133.558 129.949 132.423 132.901 128.109 131.085C127.201 130.857 126.746 129.495 126.973 128.814C127.201 127.906 127.655 126.543 127.655 124.954C127.655 124.273 127.201 123.364 126.519 123.137L112.442 114.963C109.49 113.147 106.992 109.06 106.992 105.427V78.6337C106.992 75.0008 109.49 73.6384 112.442 75.4549Z" fill="#49CE8B"/>
<path d="M130.607 132.22C129.926 132.22 129.018 131.993 128.109 131.539C126.974 131.085 126.066 129.495 126.52 128.36C126.747 127.452 126.974 126.316 126.974 124.727C126.974 124.273 126.52 123.592 126.293 123.364L112.215 115.19C109.036 113.374 106.312 108.833 106.312 104.973V78.6337C106.312 76.5902 106.993 75.2278 108.355 74.5467C109.718 73.8655 111.307 73.8655 112.896 75.0008L138.327 89.7597C141.506 91.5761 144.231 96.1173 144.231 99.9773V126.543C144.231 128.587 143.55 129.949 142.187 130.63C140.825 131.312 139.235 131.312 137.646 130.176L134.694 128.587C134.467 129.722 133.786 131.312 132.424 131.993C131.969 131.993 131.288 132.22 130.607 132.22ZM110.172 75.2278C109.718 75.2278 109.491 75.2278 109.036 75.4549C108.128 75.909 107.674 77.0443 107.674 78.4067V105.2C107.674 108.379 109.945 112.466 112.896 114.055L126.974 122.229C127.882 122.683 128.337 123.819 128.337 124.727C128.337 126.089 128.109 127.452 127.655 128.814C127.428 129.268 127.882 130.176 128.564 130.403C129.926 130.857 130.834 131.085 131.742 130.63C132.651 130.176 133.105 128.814 133.332 128.133C133.332 127.679 133.786 127.225 134.013 127.225C134.467 126.997 134.921 126.997 135.375 127.452L138.327 129.041C139.462 129.722 140.598 129.949 141.506 129.495C142.414 129.041 142.868 127.906 142.868 126.543V99.5232C142.868 96.3444 140.598 92.2573 137.646 90.6679L112.215 75.909C111.534 75.4549 110.626 75.2278 110.172 75.2278Z" fill="#171753"/>
<path d="M151.723 118.369L143.549 123.365V126.998L143.095 129.041L150.134 124.727L151.496 122.91L151.723 120.867V118.369Z" fill="#171753"/>
<path d="M137.885 113.64C137.913 113.334 137.927 113.014 137.929 112.685C137.929 106.888 134.029 98.0227 128.892 95.0057C128.535 94.796 128.163 94.6123 127.781 94.4559C127.135 93.6089 126.509 92.7261 125.887 91.8791C125.647 91.5417 125.335 91.05 125.023 90.8667C124.452 90.5315 123.945 91.0053 124.274 91.8054C124.181 91.6917 124.07 91.595 123.945 91.5193C123.356 91.1707 122.89 91.7808 123.356 92.6747C123.285 92.5864 123.201 92.5109 123.105 92.4512C122.73 92.2278 122.427 92.5295 122.466 92.9921C122.506 93.4547 122.87 94.1587 123.125 94.6794C121.897 95.4482 121.001 96.7511 120.251 98.168C119.575 99.4575 118.993 100.83 118.386 102.191C118.072 102.883 117.507 104.834 116.47 104.229C116.27 104.101 116.094 103.937 115.952 103.744C114.897 102.403 114.35 100.101 114.207 98.6954C114.139 97.9244 114.117 96.9075 114.599 96.6192C114.897 96.4561 115.337 96.5924 115.82 96.874C117.055 97.6003 118.56 99.2898 118.612 99.3323C117.806 98.2283 115.965 95.77 114.61 94.9744C113.911 94.5632 113.342 94.5967 113.111 95.4839C113.025 95.8499 112.983 96.2251 112.986 96.6013C113.022 97.8625 113.232 99.1122 113.612 100.313C114.051 101.804 114.662 103.442 115.644 104.743C115.905 105.114 116.233 105.432 116.611 105.679C118.149 106.573 118.907 103.947 119.478 102.888C120.469 100.995 121.556 99.1289 123.125 98.0249C123.711 97.6078 124.392 97.3481 125.103 97.27C125.815 97.1919 126.534 97.2978 127.194 97.578C127.512 97.6995 127.82 97.849 128.112 98.0249C128.539 98.278 128.94 98.5737 129.31 98.9077C131.276 100.655 133.003 103.469 134.055 106.086C135.059 108.587 135.725 111.51 135.428 113.586C135.308 114.556 134.989 115.524 134.172 115.597C133.699 115.664 133.13 115.452 132.559 115.117C132.043 114.802 131.553 114.443 131.096 114.044C129.909 112.977 128.785 111.838 127.732 110.634C126.678 109.478 122.361 104.354 121.28 102.933C123.173 105.704 125.043 108.491 127.106 111.081C126.939 111.198 126.785 111.334 126.649 111.488C126.495 111.664 126.649 112.158 126.884 112.306C126.914 112.324 126.946 112.335 126.981 112.34C127.015 112.344 127.049 112.341 127.082 112.33C127.024 112.497 127.023 112.679 127.08 112.847C127.136 113.015 127.246 113.159 127.392 113.255C127.422 113.274 127.455 113.289 127.488 113.3C127.335 113.544 127.572 114.017 127.844 114.176C127.909 114.22 127.987 114.238 128.064 114.227L129.534 113.883C130.489 114.919 131.575 115.821 132.763 116.565C133.603 117.059 134.435 117.359 135.204 117.347C136.505 117.296 137.3 116.301 137.667 114.914C137.78 114.496 137.854 114.068 137.887 113.635L137.885 113.64ZM130.063 105.366C130.089 105.823 130.22 106.266 130.445 106.662C130.669 107.058 130.982 107.395 131.357 107.646C132.078 108.068 132.656 107.733 132.658 106.891C132.636 106.434 132.507 105.989 132.282 105.592C132.058 105.196 131.744 104.86 131.366 104.611C130.643 104.189 130.066 104.524 130.063 105.366Z" fill="#171753"/>
<path d="M186.139 116.63L194.85 111.065L186.139 110.823L185.171 111.791L184.445 114.695L186.139 116.63Z" fill="#171753"/>
<path d="M185.896 117.598L183.476 114.695V114.211L184.202 111.065L184.444 110.823L185.654 109.613H185.896L195.091 110.097L195.333 111.065L194.849 111.307L185.896 117.598ZM185.17 114.211L186.38 115.421L192.671 111.307L186.622 111.065L185.896 111.791L185.17 114.211Z" fill="#171753"/>
<path d="M200.656 67.5095L173.554 51.7809C172.102 50.8129 170.65 50.8129 169.682 51.2969L160.729 56.8624C161.213 57.5883 164.843 65.3316 165.085 66.7835C165.327 67.2675 166.295 73.3169 167.747 80.0923V83.48C167.747 85.4159 168.473 87.5937 169.682 89.5295C171.134 96.7889 172.344 102.838 172.344 102.838L184.685 106.952H185.653L184.927 105.016C184.685 104.048 184.685 103.08 184.443 102.112L196.058 115.179C196.058 115.179 196.058 115.179 196.3 115.179L204.769 109.856C204.769 109.856 204.769 109.856 205.011 109.856C205.979 109.13 206.705 107.92 206.705 106.226V77.6726C206.705 74.0429 204.043 69.4453 200.656 67.5095Z" fill="#49CE8B"/>
<path d="M196.299 115.905C196.057 115.905 195.815 115.905 195.573 115.663L185.41 104.29C185.41 104.532 185.41 104.774 185.41 105.016L186.136 106.952C186.378 107.436 186.136 107.678 185.652 107.92H185.41H184.2L171.617 103.564V103.322C171.617 103.08 170.408 97.0309 168.956 90.0135C167.746 87.8357 167.02 85.6579 167.02 83.722V80.3343C165.326 72.1071 164.6 67.5095 164.358 67.0255C164.116 66.0576 161.938 61.46 160.002 57.3464C159.76 56.8624 160.002 56.3785 160.244 56.3785L169.198 50.813C170.649 50.087 172.343 50.329 174.037 51.2969L201.139 67.0255C204.526 68.9614 207.43 73.8009 207.43 77.9146V105.984C207.43 107.92 206.704 109.614 205.494 110.34H205.252L196.783 115.663C196.541 115.905 196.541 115.905 196.299 115.905ZM183.716 100.177L196.541 114.453L204.526 109.372L205.01 109.856L204.526 109.13C205.252 108.646 205.736 107.436 205.736 105.984V77.6726C205.736 74.2849 203.317 69.9293 200.171 67.9934L173.311 52.5068C172.101 51.7809 170.891 51.5389 169.924 52.0229L161.696 57.1044C162.906 59.5242 165.568 65.3317 165.81 66.5416C166.052 67.0255 166.778 71.3811 168.472 79.8504V80.0924V83.4801C168.472 85.1739 169.198 87.1097 170.166 89.0456V89.2876C171.375 95.337 172.343 100.661 172.585 102.354L184.2 106.226L183.716 105.016C183.474 104.048 183.474 102.838 183.232 101.87L183.716 100.177Z" fill="#171753"/>
<path d="M200.655 67.5095L175.005 52.7488L162.18 60.7341L189.766 75.2528L195.573 76.2207L204.284 70.8972C203.316 69.4453 202.107 68.2354 200.655 67.5095Z" fill="#ECFFFE"/>
<path d="M195.574 76.9463L189.283 75.9784L160.729 60.7337L175.006 51.7805L201.14 66.7832C202.592 67.5091 203.802 68.719 205.011 70.4129L205.495 71.1388L195.574 76.9463ZM190.009 74.5265L195.332 75.2524L203.076 70.6548C202.108 69.4449 201.382 68.719 200.172 68.2351L174.764 53.7163L163.391 60.7337L190.009 74.5265Z" fill="#171753"/>
<path d="M206.284 77.835L197.579 83.0802L198.329 84.3237L207.033 79.0785L206.284 77.835Z" fill="#171753"/>
<path d="M206.121 98.3755L197.416 103.621L198.165 104.864L206.87 99.6191L206.121 98.3755Z" fill="#171753"/>
<path d="M164.843 57.3455L191.944 73.0741C195.09 75.01 197.752 79.3656 197.752 83.2372V111.549C197.752 115.178 195.09 116.872 191.944 114.936L188.799 113.243C188.315 113.001 187.831 113.001 187.589 113.727C187.347 115.42 186.137 118.566 181.539 116.63C180.571 116.388 180.087 114.936 180.329 114.21C180.571 113.243 181.055 111.791 181.055 110.097C181.055 109.371 180.571 108.403 179.845 108.161L164.843 99.4498C161.697 97.514 159.035 93.1584 159.035 89.2867V60.7332C159.035 56.8616 161.697 55.4097 164.843 57.3455Z" fill="#49CE8B"/>
<path d="M184.202 117.841C183.476 117.841 182.508 117.599 181.54 117.115C180.33 116.631 179.362 114.937 179.846 113.727C180.088 112.759 180.33 111.549 180.33 109.855C180.33 109.371 179.846 108.645 179.604 108.403L164.601 99.6921C161.214 97.7563 158.31 92.9167 158.31 88.8031V60.7336C158.31 58.5558 159.036 57.1039 160.488 56.378C161.94 55.6521 163.633 55.6521 165.327 56.8619L192.429 72.5906C195.817 74.5264 198.72 79.3659 198.72 83.4796V111.791C198.72 113.969 197.994 115.421 196.543 116.147C195.091 116.873 193.397 116.873 191.703 115.663L188.557 113.969C188.315 115.179 187.589 116.873 186.137 117.599C185.654 117.599 184.928 117.841 184.202 117.841ZM162.424 57.1039C161.94 57.1039 161.698 57.1039 161.214 57.3459C160.246 57.8299 159.762 59.0398 159.762 60.4916V89.0451C159.762 92.4328 162.182 96.7884 165.327 98.4822L180.33 107.193C181.298 107.677 181.782 108.887 181.782 109.855C181.782 111.307 181.54 112.759 181.056 114.211C180.814 114.695 181.298 115.663 182.024 115.905C183.476 116.389 184.444 116.631 185.412 116.147C186.379 115.663 186.863 114.211 187.105 113.485C187.105 113.001 187.589 112.517 187.831 112.517C188.315 112.275 188.799 112.275 189.283 112.759L192.429 114.453C193.639 115.179 194.849 115.421 195.817 114.937C196.785 114.453 197.268 113.243 197.268 111.791V82.9956C197.268 79.6079 194.849 75.2523 191.703 73.5585L164.601 57.8299C163.875 57.3459 162.908 57.1039 162.424 57.1039Z" fill="#171753"/>
<path d="M206.706 103.08L197.995 108.404V112.275L197.511 114.453L205.012 109.855L206.464 107.92L206.706 105.742V103.08Z" fill="#171753"/>
<path d="M176.577 92.6154C176.993 92.5174 177.483 92.6154 177.998 92.9094C179.345 93.6934 180.448 95.5555 180.448 97.0501C180.448 97.6381 180.276 98.0546 179.982 98.3486C179.835 98.4957 179.517 98.6672 179.321 98.7162L178.488 99.1817L175.131 93.3994L176.062 92.9094C176.209 92.7624 176.381 92.6644 176.577 92.6154Z" fill="#49CE8B"/>
<path d="M172.412 85.6323C173.563 85.0198 175.572 84.5298 178.317 86.0489C181.281 87.6904 183.511 90.9246 184.736 93.1297C185.397 94.2813 185.25 95.5063 184.466 95.6778L184.05 95.8983L182.972 96.5109L176.209 88.8175C175.376 88.7685 174.715 88.9645 174.249 89.2095C173.759 89.4545 173.024 89.1115 172.51 88.3275C172.314 88.058 172.167 87.7639 172.657 87.1024L170.77 86.6859L172.412 85.6323Z" fill="#49CE8B"/>
<path d="M168.81 78.968C170.501 78.0615 173.759 77.2039 178.341 79.5805C183.339 82.1777 186.794 87.1759 188.46 90.0915C189.122 91.2186 188.999 92.4682 188.239 92.6642C188.19 92.6887 187.774 92.9337 187.7 92.9337L186.549 93.5707L181.208 86.3184L173.857 81.8346C172.289 81.8101 171.113 82.2757 170.378 82.6677C169.888 82.9372 169.129 82.5452 168.614 81.7366V81.7121C168.614 81.6876 168.59 81.6876 168.59 81.6631H168.124L167.168 80.0951L168.1 79.36L168.81 78.968Z" fill="#49CE8B"/>
<path d="M163.493 73.2839L164.841 72.3039C166.727 71.0298 171.211 69.0942 178.464 72.7939C178.537 72.8429 178.611 72.8674 178.684 72.9164C186.328 76.9101 191.131 83.8439 193.189 87.3966C193.703 88.2787 193.85 89.0872 193.483 89.5527L193.115 89.9202L192.895 90.0427C192.821 90.1162 192.478 90.2633 192.38 90.3123L191.131 90.9738L188.926 87.9356L179.86 77.4981L174.788 74.7785C170.599 73.6269 167.928 74.852 166.703 75.685C166.237 76.0036 165.478 75.6605 164.963 74.8765C164.718 74.4845 164.547 74.068 164.498 73.6759L163.493 73.2839Z" fill="#49CE8B"/>
<path d="M163.591 75.8318C164.106 76.6158 164.841 76.9588 165.306 76.6403C166.826 75.6113 170.672 73.9697 176.895 77.2529C176.969 77.2774 177.018 77.3264 177.092 77.3509C183.609 80.879 187.578 86.7838 189.22 89.6505C189.734 90.557 190.592 91.1205 191.204 90.949C191.988 90.7285 192.111 89.5035 191.449 88.3764C189.391 84.8237 184.687 77.9389 177.141 73.9452C177.067 73.8962 176.994 73.8717 176.92 73.8227C169.79 70.123 165.355 72.0096 163.493 73.2837C162.93 73.6757 162.979 74.8762 163.591 75.8318Z" fill="#171753"/>
<path d="M167.217 82.6677C167.732 83.4762 168.467 83.8682 168.957 83.5987C170.231 82.8882 173 81.9816 176.822 84.0397C176.871 84.0642 176.92 84.0887 176.969 84.1132C180.791 86.2203 183.413 90.1405 184.662 92.3211C185.177 93.2032 185.985 93.7422 186.573 93.5952C187.333 93.3992 187.431 92.1741 186.794 91.0471C185.128 88.1559 181.698 83.1822 176.797 80.5851C172.069 78.1104 168.736 79.213 167.168 80.1195C166.556 80.4626 166.58 81.6631 167.217 82.6677Z" fill="#171753"/>
<path d="M182.849 96.5356C183.633 96.3886 183.756 95.1635 183.119 94.0119C181.894 91.8313 179.713 88.5972 176.773 86.9556C174.078 85.4365 172.093 85.9266 170.966 86.5146C170.304 86.8576 170.353 88.1562 171.064 89.1852C171.579 89.9447 172.289 90.3123 172.779 90.0673C173.563 89.6507 174.96 89.3322 176.748 90.3613C178.659 91.4638 180.154 93.7179 181.012 95.237C181.502 96.119 182.261 96.6581 182.849 96.5356Z" fill="#171753"/>
<path d="M174.445 94.8451C174.445 96.3152 175.499 98.1283 176.822 98.9368C178.145 99.7454 179.247 99.2063 179.272 97.7118C179.272 96.2172 178.194 94.3796 176.846 93.5956C175.523 92.8115 174.445 93.3995 174.445 94.8451Z" fill="#171753"/>
</svg>
