<svg width="237" height="136" viewBox="0 0 237 136" fill="none" xmlns="http://www.w3.org/2000/svg">
<g opacity="0.3" filter="url(#filter0_d_140_6187)">
<rect x="4" y="55" width="229" height="72.0552" rx="16" fill="#FFC78F"/>
</g>
<path d="M85.3264 98L79.9864 91.18H77.9264L84.2664 83.4H87.5264L81.8064 90.4L81.7264 89L88.7864 98H85.3264ZM75.8664 98V83.4H78.7064V98H75.8664ZM95.1047 98.38C94.1447 98.38 93.298 98.2267 92.5647 97.92C91.8314 97.6133 91.2114 97.2 90.7047 96.68C90.198 96.1467 89.8114 95.5467 89.5447 94.88C89.2914 94.2133 89.1647 93.52 89.1647 92.8V92.38C89.1647 91.6333 89.298 90.9267 89.5647 90.26C89.8447 89.58 90.238 88.98 90.7447 88.46C91.2647 87.9267 91.8914 87.5133 92.6247 87.22C93.358 86.9133 94.1847 86.76 95.1047 86.76C96.0247 86.76 96.8514 86.9133 97.5847 87.22C98.318 87.5133 98.938 87.9267 99.4447 88.46C99.9647 88.98 100.358 89.58 100.625 90.26C100.891 90.9267 101.025 91.6333 101.025 92.38V92.8C101.025 93.52 100.891 94.2133 100.625 94.88C100.371 95.5467 99.9914 96.1467 99.4847 96.68C98.978 97.2 98.358 97.6133 97.6247 97.92C96.8914 98.2267 96.0514 98.38 95.1047 98.38ZM95.1047 96C95.7847 96 96.358 95.8533 96.8247 95.56C97.2914 95.2533 97.6447 94.8467 97.8847 94.34C98.1247 93.82 98.2447 93.2333 98.2447 92.58C98.2447 91.9133 98.118 91.3267 97.8647 90.82C97.6247 90.3 97.2647 89.8933 96.7847 89.6C96.318 89.2933 95.758 89.14 95.1047 89.14C94.4514 89.14 93.8847 89.2933 93.4047 89.6C92.938 89.8933 92.578 90.3 92.3247 90.82C92.0714 91.3267 91.9447 91.9133 91.9447 92.58C91.9447 93.2333 92.0647 93.82 92.3047 94.34C92.558 94.8467 92.918 95.2533 93.3847 95.56C93.8514 95.8533 94.4247 96 95.1047 96ZM103.979 98V87.14H106.759V98H103.979ZM102.459 89.22V87.14H106.759V89.22H102.459ZM104.999 85.84C104.452 85.84 104.046 85.7 103.779 85.42C103.526 85.1267 103.399 84.7667 103.399 84.34C103.399 83.8867 103.526 83.52 103.779 83.24C104.046 82.96 104.452 82.82 104.999 82.82C105.546 82.82 105.946 82.96 106.199 83.24C106.452 83.52 106.579 83.8867 106.579 84.34C106.579 84.7667 106.452 85.1267 106.199 85.42C105.946 85.7 105.546 85.84 104.999 85.84ZM110.483 98V87.14H113.263V98H110.483ZM108.963 89.22V87.14H113.263V89.22H108.963ZM111.503 85.84C110.956 85.84 110.549 85.7 110.283 85.42C110.029 85.1267 109.903 84.7667 109.903 84.34C109.903 83.8867 110.029 83.52 110.283 83.24C110.549 82.96 110.956 82.82 111.503 82.82C112.049 82.82 112.449 82.96 112.703 83.24C112.956 83.52 113.083 83.8867 113.083 84.34C113.083 84.7667 112.956 85.1267 112.703 85.42C112.449 85.7 112.049 85.84 111.503 85.84ZM125.983 98.38C124.69 98.38 123.596 98.1733 122.703 97.76C121.823 97.3467 121.15 96.78 120.683 96.06C120.216 95.3267 119.983 94.5 119.983 93.58H122.763C122.763 93.9667 122.87 94.3467 123.083 94.72C123.296 95.08 123.636 95.3733 124.103 95.6C124.583 95.8267 125.21 95.94 125.983 95.94C126.676 95.94 127.256 95.84 127.723 95.64C128.19 95.44 128.536 95.18 128.763 94.86C128.99 94.5267 129.103 94.1533 129.103 93.74C129.103 93.22 128.883 92.8067 128.443 92.5C128.003 92.18 127.323 91.98 126.403 91.9L125.123 91.8C123.723 91.68 122.603 91.2467 121.763 90.5C120.936 89.74 120.523 88.74 120.523 87.5C120.523 86.5667 120.743 85.7667 121.183 85.1C121.623 84.42 122.236 83.9 123.023 83.54C123.823 83.1667 124.756 82.98 125.823 82.98C126.93 82.98 127.883 83.1733 128.683 83.56C129.483 83.9467 130.103 84.4933 130.543 85.2C130.983 85.8933 131.203 86.7133 131.203 87.66H128.423C128.423 87.26 128.323 86.8933 128.123 86.56C127.936 86.2133 127.65 85.94 127.263 85.74C126.89 85.5267 126.41 85.42 125.823 85.42C125.263 85.42 124.796 85.5133 124.423 85.7C124.05 85.8867 123.77 86.14 123.583 86.46C123.396 86.78 123.303 87.1267 123.303 87.5C123.303 87.9533 123.47 88.3533 123.803 88.7C124.136 89.0333 124.663 89.2267 125.383 89.28L126.663 89.4C127.703 89.48 128.616 89.7 129.403 90.06C130.19 90.42 130.796 90.9067 131.223 91.52C131.663 92.1333 131.883 92.8733 131.883 93.74C131.883 94.66 131.643 95.4733 131.163 96.18C130.683 96.8733 129.996 97.4133 129.103 97.8C128.223 98.1867 127.183 98.38 125.983 98.38ZM136.92 98.08V95.44H139.94C140.7 95.44 141.373 95.3267 141.96 95.1C142.56 94.86 143.066 94.5267 143.48 94.1C143.893 93.6733 144.206 93.1733 144.42 92.6C144.646 92.0133 144.76 91.3667 144.76 90.66C144.76 89.9267 144.646 89.2733 144.42 88.7C144.206 88.1133 143.893 87.6133 143.48 87.2C143.066 86.7867 142.56 86.4733 141.96 86.26C141.373 86.0467 140.7 85.94 139.94 85.94H136.92V83.3H139.76C141.08 83.3 142.233 83.4933 143.22 83.88C144.206 84.2667 145.026 84.8 145.68 85.48C146.333 86.1467 146.82 86.9133 147.14 87.78C147.473 88.6333 147.64 89.52 147.64 90.44V90.88C147.64 91.76 147.473 92.6267 147.14 93.48C146.82 94.3333 146.333 95.1067 145.68 95.8C145.026 96.4933 144.206 97.0467 143.22 97.46C142.233 97.8733 141.08 98.08 139.76 98.08H136.92ZM134.48 98.08V83.3H137.32V98.08H134.48ZM159.643 98L154.303 91.18H152.243L158.583 83.4H161.843L156.123 90.4L156.043 89L163.103 98H159.643ZM150.183 98V83.4H153.023V98H150.183Z" fill="#171753"/>
<path d="M139.901 46.7982C139.901 46.6483 139.901 46.6483 139.901 46.4983V39.0005L128.054 35.1017V29.2534L118.157 31.6527L107.81 33.6021L103.461 33.0023L100.462 33.1523V41.6997L96.8633 41.0999V48.7476C96.8633 48.8976 96.8633 49.0475 96.8633 49.0475L98.6627 52.7964C98.8127 53.2463 99.5625 53.3963 100.312 53.3963L104.061 52.7964C104.811 53.3963 105.561 54.146 106.61 54.5959C107.36 55.0458 107.96 55.3457 108.71 55.6456V58.3448C108.71 58.6447 109.16 58.9446 109.609 59.0946L116.208 60.1443C116.957 60.2942 117.557 59.9943 117.857 59.5444L118.907 57.4451C121.606 57.4451 124.305 56.9952 126.854 56.2454L129.554 57.745C130.003 58.0449 130.903 58.0449 131.503 57.745L136.302 55.0458C136.601 54.8958 136.751 54.7459 136.751 54.4459V47.6979L139.451 47.2481C139.451 47.398 139.901 47.0981 139.901 46.7982Z" fill="#ECFFFE"/>
<path d="M116.356 61.0442C116.207 61.0442 116.057 61.0442 115.907 61.0442L109.309 59.9945C108.409 59.8446 107.809 59.3947 107.809 58.6449V58.495V56.2456C107.209 55.9457 106.459 55.6458 106.01 55.3459C105.11 54.7461 104.21 54.2962 103.61 53.5464L100.161 54.1462C99.2615 54.2962 98.2118 53.9963 97.9119 53.2465L96.1125 49.4976C95.9625 49.1977 95.9625 49.0478 96.1125 48.7478V40.9502L96.5623 40.5003H96.8622L99.7114 40.9502V32.5527H100.311L103.46 32.4027L107.809 33.0025L118.006 31.0531L128.203 28.6538L128.653 29.1037V29.4036V34.9519L140.499 38.8508V39.3007V46.7984C140.499 46.9484 140.499 47.0983 140.499 47.2483C140.349 47.8481 139.75 48.148 139 48.298L136.75 48.5979V54.896C136.75 55.3459 136.451 55.7958 136.001 55.9457L131.202 58.6449C130.452 59.0948 129.403 59.0948 128.653 58.6449L126.254 57.2953C124.004 58.0451 121.455 58.345 118.756 58.495L117.856 60.2944C117.856 60.7443 117.106 61.0442 116.356 61.0442ZM103.91 52.1968L104.21 52.3468C104.96 52.9466 105.71 53.5464 106.609 54.1462C107.209 54.4462 107.959 54.896 108.709 55.1959L109.009 55.3459V55.7958V58.495C109.009 58.495 109.159 58.6449 109.458 58.6449L116.057 59.6946C116.506 59.8446 116.956 59.5446 116.956 59.5446L118.156 56.9954H118.606C121.305 56.9954 124.004 56.5455 126.254 55.7958L126.553 55.6458L126.853 55.7958L129.553 57.2953C129.852 57.4453 130.452 57.4453 130.752 57.2953L135.551 54.5961H135.701V47.3982L136.301 47.2483L139 46.7984C139.15 46.7984 139.3 46.6485 139.45 46.6485V39.6006L127.603 35.7017V35.2519V30.1534L118.456 32.4027L107.959 34.3521H107.809L103.46 33.7523L101.061 33.9023V42.1498L100.611 42.5997H100.311L97.4621 42.1498V49.1977L99.2615 52.9466C99.2615 52.9466 99.7114 53.2465 100.161 53.0966L103.91 52.1968Z" fill="#171753"/>
<path d="M100.161 41.5502C100.161 41.5502 100.161 41.7001 100.161 41.5502L99.2617 41.4002V53.3966C99.4117 53.3966 99.7116 53.3966 99.8615 53.3966L103.46 52.7968V41.2502H100.161V41.5502V41.5502Z" fill="#171753"/>
<path d="M99.5619 54.1466C99.4119 54.1466 99.4119 54.1466 99.2619 54.1466H98.6621V40.8005L99.5619 40.9505V40.8005H104.061V53.5468L100.012 54.1466C99.8618 54.1466 99.7118 54.1466 99.5619 54.1466ZM100.012 42.3001V52.797L102.861 52.3471V42.0002H100.612L100.312 42.3001H100.012Z" fill="#171753"/>
<path d="M101.362 33.9022C101.362 34.0522 101.362 34.0522 101.362 33.9022L100.462 33.7523V45.7487C100.612 45.7487 100.912 45.7487 101.062 45.7487L104.661 45.1489V33.6023H101.362V33.9022V33.9022Z" fill="#171753"/>
<path d="M100.762 46.4986C100.612 46.4986 100.612 46.4986 100.462 46.4986H99.8618V33.1526L100.762 33.3025V33.1526H105.26V45.8988L101.211 46.4986C101.061 46.4986 100.912 46.4986 100.762 46.4986ZM101.061 34.6521V45.149L103.911 44.6992V34.3522H101.811L101.511 34.6521H101.061Z" fill="#171753"/>
<path d="M139.899 46.7992C139.899 46.6492 139.899 46.6492 139.899 46.4993V39.0015L128.053 35.1027V29.2544L122.804 30.604L121.905 31.3538L116.656 50.9979V52.6475V60.4451C117.106 60.4451 117.556 60.1452 117.706 59.8453L118.756 57.7459C121.455 57.7459 124.154 57.2961 126.703 56.5463L129.402 58.0458C129.852 58.3458 130.752 58.3458 131.352 58.0458L136.15 55.3467C136.45 55.1967 136.6 55.0467 136.6 54.7468V47.9988L139.3 47.549C139.449 47.399 139.899 47.0991 139.899 46.7992Z" fill="#171753"/>
<path d="M115.907 61.0447V50.6978L121.155 30.9037L122.355 29.854L128.203 28.5044L128.653 28.9543V29.2542V34.8025L140.499 38.7014V39.1512V46.649C140.499 46.799 140.499 46.9489 140.499 47.0989C140.349 47.6987 139.75 47.9986 139 48.1486L136.751 48.4485V54.7466C136.751 55.1965 136.451 55.6463 136.001 55.7963L131.202 58.4955C130.452 58.9454 129.403 58.9454 128.653 58.4955L126.254 57.1459C124.004 57.8957 121.455 58.1956 118.756 58.3455L117.856 60.145C117.556 60.5949 117.106 60.8948 116.357 61.0447H115.907ZM117.256 50.9977V59.0953L118.156 56.9959H118.606C121.305 56.9959 124.004 56.5461 126.404 55.7963L126.704 55.6463L127.003 55.7963L129.703 57.2958C130.003 57.4458 130.602 57.4458 130.902 57.2958L135.701 54.5967H135.851V47.3988L136.451 47.2488L139.15 46.799C139.3 46.799 139.45 46.649 139.6 46.649V39.6011L127.753 35.7023V35.2524V30.1539L123.255 31.2036L122.655 31.8034L117.256 50.9977Z" fill="#171753"/>
<path d="M136.601 34.5021L132.852 35.102C132.102 34.5021 131.353 33.7524 130.303 33.1525C129.253 32.5527 128.204 32.1029 127.004 31.653L128.054 29.5536C128.203 29.1037 127.754 28.8038 127.154 28.6539L120.556 27.6042C119.806 27.4542 119.206 27.7541 118.906 28.204L117.857 30.3034C115.157 30.3034 112.458 30.7533 109.909 31.503L107.21 30.0035C106.76 29.7036 105.86 29.7036 105.41 30.0035L100.612 32.8526C100.162 33.1525 100.162 33.6024 100.612 33.9023L103.311 35.4019C101.961 36.7515 101.211 38.401 101.211 40.0505L97.4626 40.6503C96.7128 40.8003 96.4129 41.1002 96.5629 41.5501L98.3623 45.2989C98.5123 45.7488 99.2621 45.8988 100.012 45.8988L103.761 45.2989C104.511 45.8988 105.26 46.6485 106.31 47.2484C107.36 47.8482 108.409 48.2981 109.609 48.7479L108.559 50.8473C108.409 51.2972 108.859 51.5971 109.459 51.747L116.057 52.7967C116.807 52.9467 117.407 52.6468 117.707 52.1969L118.756 50.0975C121.456 50.0975 124.155 49.6477 126.704 48.8979L129.403 50.3974C129.853 50.6973 130.753 50.6973 131.203 50.3974L136.001 47.5483C136.451 47.2484 136.451 46.7985 136.001 46.4986L133.302 44.999C134.652 43.6494 135.401 41.9999 135.401 40.3504L139.15 39.7506C139.9 39.6006 140.2 39.3007 140.05 38.8509L138.251 35.102C137.951 34.5021 137.201 34.3522 136.601 34.5021Z" fill="#FFC78F"/>
<path d="M116.356 53.2468C116.207 53.2468 116.057 53.2468 115.907 53.2468L109.309 52.1972C108.709 52.0472 108.109 51.7473 107.959 51.2974C107.809 50.9975 107.809 50.6976 107.959 50.2477L108.709 48.7482C107.809 48.4483 106.759 47.9984 106.01 47.3986C105.11 46.7988 104.21 46.3489 103.61 45.5991L100.161 46.1989C99.2615 46.3489 98.2118 46.049 97.9119 45.2992L96.1125 41.5503C95.9625 41.2504 95.9625 40.9505 96.1125 40.5006C96.4124 40.0508 96.8622 39.7509 97.4621 39.6009L100.761 39.151C100.911 37.8014 101.511 36.4518 102.561 35.2522L100.461 34.0525C100.011 33.7526 99.7114 33.4527 99.7114 33.0029C99.7114 32.553 100.011 32.2531 100.461 31.9532L105.26 29.104C106.01 28.6541 107.059 28.6541 107.659 29.104L110.208 30.6036C112.458 29.8538 115.007 29.5539 117.706 29.4039L118.606 27.6045C118.906 26.8547 119.955 26.5548 120.855 26.7047L127.453 27.7544C128.053 27.9044 128.653 28.2043 128.803 28.6541C128.953 28.9541 128.953 29.254 128.803 29.7038L128.053 31.2034C128.953 31.5033 130.002 31.9532 130.752 32.553C131.652 33.1528 132.552 33.6027 133.151 34.3525L136.6 33.7526C137.5 33.6027 138.55 33.9026 138.85 34.6524L140.649 38.4013C140.799 38.7012 140.799 39.0011 140.649 39.4509C140.349 39.9008 139.899 40.2007 139.3 40.3507L136.001 40.8005C135.851 42.1501 135.251 43.4997 134.201 44.6994L136.301 45.899C136.75 46.1989 137.05 46.4989 137.05 46.9487C137.05 47.3986 136.75 47.6985 136.301 47.9984L131.502 50.8476C130.752 51.2974 129.702 51.2974 129.103 50.8476L126.553 49.348C124.304 50.0978 121.755 50.3977 119.056 50.5476L118.156 52.3471C117.856 52.9469 117.106 53.2468 116.356 53.2468ZM109.159 50.8476C109.159 50.8476 109.309 50.9975 109.608 50.9975L116.206 52.0472C116.656 52.1972 117.106 51.8972 117.106 51.8972L118.306 49.348H118.756C121.455 49.348 124.154 48.8981 126.553 48.1484L126.853 47.9984L129.852 49.6479C130.152 49.7979 130.752 49.7979 131.052 49.6479L135.851 46.9487L132.402 44.9993L133.002 44.3995C134.201 43.0499 134.951 41.7003 134.951 40.2007V39.6009L139.15 39.0011C139.3 39.0011 139.45 38.8511 139.6 38.8511L137.95 35.1022C137.95 35.1022 137.5 34.8023 137.05 34.9523L133.002 35.5521L132.702 35.4021C131.952 34.8023 131.202 34.2025 130.302 33.6027C129.403 33.0029 128.353 32.553 127.153 32.2531L126.553 31.9532L127.753 29.254C127.753 29.254 127.603 29.104 127.303 29.104L120.705 28.0543C120.255 27.9044 119.805 28.2043 119.805 28.2043L118.606 30.7535H118.156C115.457 30.7535 112.758 31.2034 110.358 31.9532L110.058 32.1031L107.059 30.4536C106.759 30.3037 106.159 30.3037 105.86 30.4536L101.061 33.1528L104.51 35.1022L103.91 35.7021C102.711 37.0517 101.961 38.4013 101.961 39.9008V40.5006L97.762 41.1005C97.612 41.1005 97.4621 41.2504 97.3121 41.2504L98.9616 44.9993C98.9616 44.9993 99.4115 45.2992 99.8614 45.1492L103.91 44.5494L104.21 44.6994C104.96 45.2992 105.71 45.899 106.609 46.4988C107.509 47.0987 108.559 47.5485 109.758 47.8484L110.358 48.1484L109.159 50.8476Z" fill="#171753"/>
<path d="M125.504 35.8516C129.552 38.2508 129.552 41.9997 125.504 44.2491C125.504 44.2491 120.96 42.3873 118.272 42.3574C115.712 42.3289 111.436 44.6364 110.958 44.2491C106.909 41.8498 106.909 38.1009 110.958 35.8516C115.007 33.6022 121.455 33.6022 125.504 35.8516Z" fill="#FFA54B"/>
<path d="M118.306 46.7986C115.607 46.7986 112.758 46.1988 110.658 44.9992C108.409 43.7995 107.209 42 107.209 40.2006C107.209 38.4011 108.409 36.6016 110.658 35.402C114.857 33.0027 121.755 33.0027 125.954 35.402C128.203 36.6016 129.403 38.4011 129.403 40.2006C129.403 42 128.203 43.7995 125.954 44.9992C123.855 46.1988 121.005 46.7986 118.306 46.7986ZM118.306 34.8022C115.757 34.8022 113.358 35.402 111.408 36.4517C109.759 37.5014 108.709 38.701 108.709 40.0506C108.709 41.4002 109.609 42.5999 111.408 43.6496C115.157 45.8989 121.455 45.8989 125.204 43.6496C126.854 42.5999 127.903 41.4002 127.903 40.0506C127.903 38.701 127.004 37.5014 125.204 36.4517C123.255 35.402 120.705 34.8022 118.306 34.8022Z" fill="#171753"/>
<path d="M118.306 34.2021C115.607 34.2021 113.057 34.802 110.958 36.0016C106.909 38.4009 106.909 42.1498 110.958 44.3991C112.757 45.4488 115.157 46.0486 117.706 46.1986H118.306V34.2021Z" fill="#171753"/>
<path d="M119.056 46.7986H117.706C115.007 46.6487 112.608 46.0488 110.658 44.9992C108.409 43.7995 107.209 42 107.209 40.2006C107.209 38.4011 108.409 36.6016 110.658 35.402C112.758 34.2024 115.457 33.6025 118.306 33.6025H119.056V46.7986ZM117.556 34.9521C115.157 35.1021 113.058 35.552 111.408 36.6016C109.759 37.6513 108.709 38.851 108.709 40.2006C108.709 41.5502 109.609 42.7498 111.408 43.7995C113.058 44.6992 115.307 45.2991 117.556 45.449V34.9521Z" fill="#171753"/>
<path d="M110.958 44.2492C115.007 46.6485 121.605 46.6485 125.654 44.2492C121.605 41.8499 115.007 41.8499 110.958 44.2492Z" fill="#ECFFFE"/>
<path d="M118.156 46.7984C115.457 46.7984 112.608 46.1986 110.508 44.999L110.208 44.849V43.9493L110.508 43.6494C114.707 41.1001 121.605 41.1001 125.954 43.4994L126.254 43.6494V44.5491L125.954 44.849C123.854 46.0487 121.005 46.7984 118.156 46.7984ZM112.608 44.2492C116.057 45.5988 120.705 45.5988 124.004 44.2492C120.555 42.7496 115.907 42.8996 112.608 44.2492Z" fill="#171753"/>
<path d="M115.157 35.1021H113.657V42H115.157V35.1021Z" fill="#ECFFFE"/>
<path d="M109.009 51.1472H107.81V58.9449H109.009V51.1472Z" fill="#171753"/>
<path d="M130.753 50.8474H129.554V58.0453H130.753V50.8474Z" fill="#ECFFFE"/>
<path d="M119.356 50.248H118.156V57.4459H119.356V50.248Z" fill="#ECFFFE"/>
<path d="M98.0774 24.0396C98.3792 26.1093 99.3709 28.1789 100.923 28.955C102.475 29.7311 104.631 31.0246 105.364 28.0927C106.054 25.1607 119.032 13.8209 119.334 13.7777C119.636 13.7346 129.639 6.31846 129.639 6.31846C129.639 6.31846 129.079 4.29194 125.5 2.73972C121.921 1.23062 116.704 1.14439 112.737 2.52414C108.382 4.03324 105.752 6.44781 102.432 10.3284C99.026 14.3814 97.2582 18.4775 98.0774 24.0396Z" fill="#FFA54B" stroke="#171753" stroke-width="1.5"/>
<path d="M126.707 3.34341C122.697 3.04159 117.351 3.99016 112.047 8.47436C103.122 16.0199 103.596 24.9451 102.82 27.4459C102.087 29.8605 99.8021 28.0496 99.7158 27.9202C100.061 28.3514 100.492 28.6963 100.923 28.9119C102.475 29.688 104.631 30.9816 105.364 28.0496C106.054 25.1176 119.032 13.7778 119.334 13.7347C119.636 13.6915 129.639 6.27538 129.639 6.27538C129.639 6.27538 128.777 4.98186 126.707 3.34341Z" fill="#171753"/>
<path d="M101.743 28.5238C100.837 28.5238 100.061 28.0064 99.5008 27.3596C98.8971 26.6698 98.8109 25.7643 99.6301 25.3762C100.191 25.1175 100.881 25.2469 101.269 25.7212C101.484 25.9368 101.657 26.1092 101.743 26.1092C101.786 26.1092 101.786 26.1092 101.786 26.023C101.958 25.5918 101.743 24.4708 101.053 23.2204C100.363 21.97 100.234 20.4609 100.751 19.2105C101.225 18.0463 102.26 17.184 103.597 16.7959C104.201 16.6234 104.761 16.5803 105.235 16.5803C106.658 16.6234 107.133 18.5206 105.839 19.1674C105.839 19.1674 105.839 19.2105 105.882 19.2536C105.882 19.2536 105.537 18.7793 104.244 19.1674C103.64 19.3398 103.209 19.6848 102.993 20.1591C102.778 20.7196 102.821 21.4095 103.166 22.0131C103.554 22.703 104.718 25.0313 104.028 26.8422C103.769 27.5752 103.209 28.0926 102.476 28.3513C102.26 28.4807 102.002 28.5238 101.743 28.5238Z" fill="#FFC78F"/>
<path d="M101.742 28.6964C100.923 28.6964 100.104 28.2652 99.371 27.446C98.9398 27.0148 98.7674 26.4543 98.8536 25.98C98.9398 25.6351 99.1554 25.3763 99.5435 25.1608C100.19 24.8589 100.966 24.9883 101.398 25.5488C101.484 25.6782 101.57 25.7644 101.656 25.8075C101.742 25.3332 101.527 24.3847 100.923 23.3067C100.19 22.0132 100.061 20.461 100.621 19.1243C101.139 17.8739 102.174 17.0116 103.596 16.6235C104.2 16.4511 104.761 16.3648 105.321 16.408C106.184 16.4511 106.701 17.0547 106.83 17.6152C107.003 18.3482 106.658 18.995 106.011 19.3399L105.968 19.2537L105.839 19.3399C105.839 19.3399 105.537 18.995 104.373 19.2968C103.812 19.4693 103.424 19.728 103.252 20.1592C103.036 20.6766 103.122 21.3233 103.424 21.8839C103.812 22.5737 105.019 24.9883 104.329 26.8855C104.028 27.6616 103.467 28.2221 102.691 28.5239C102.346 28.6533 102.044 28.6964 101.742 28.6964ZM100.233 25.3763C100.061 25.3763 99.8884 25.4195 99.7159 25.5057C99.4141 25.6351 99.2848 25.8506 99.1985 26.0662C99.1123 26.4112 99.2848 26.8423 99.6297 27.1873C100.104 27.7047 100.837 28.3083 101.742 28.3083C102.001 28.3083 102.26 28.2652 102.519 28.179C103.165 27.9203 103.683 27.446 103.941 26.7561C104.588 24.9883 103.424 22.7031 103.079 22.0563C102.734 21.4096 102.648 20.6334 102.907 20.0298C103.122 19.4693 103.596 19.1243 104.286 18.9519C105.192 18.6932 105.666 18.8225 105.925 18.9519C106.485 18.6501 106.572 18.0895 106.485 17.6584C106.399 17.2272 106.054 16.7529 105.321 16.7098C104.804 16.7098 104.286 16.7529 103.726 16.9254C102.432 17.2703 101.484 18.0895 101.009 19.2106C100.492 20.4179 100.621 21.8407 101.311 23.048C102.044 24.3415 102.217 25.5057 102.044 25.98C102.001 26.0662 102.001 26.1093 101.915 26.1525L101.872 26.1956H101.786C101.613 26.1525 101.441 26.0231 101.182 25.7213C100.88 25.5488 100.578 25.3763 100.233 25.3763Z" fill="#171753"/>
<path d="M99.5001 23.9966C98.8533 24.514 97.8616 24.2553 97.6029 23.436C97.3873 22.8324 97.2148 22.0132 97.2148 21.0215C97.2148 19.8573 97.4735 18.9087 97.8185 18.2188C98.1634 17.4859 99.1551 17.2703 99.7588 17.8739C100.147 18.2188 100.233 18.7794 100.017 19.2537C99.845 19.6848 99.6294 20.2454 99.6725 20.9783C99.6725 21.6682 99.8019 22.2287 99.9312 22.6168C100.061 23.1342 99.8881 23.6947 99.5001 23.9966Z" fill="#FFC78F"/>
<path d="M98.7247 24.4707C98.5953 24.4707 98.466 24.4707 98.3366 24.4276C97.9055 24.2983 97.5605 23.9965 97.4312 23.5653C97.1725 22.7892 97.0431 21.9699 97 21.0645C97 20.0297 97.1725 19.0811 97.6036 18.1756C97.7761 17.7876 98.1642 17.4858 98.5953 17.3995C99.0265 17.3133 99.5008 17.4426 99.8457 17.7445C100.277 18.1756 100.406 18.8224 100.148 19.3398C99.8889 19.8572 99.8026 20.4177 99.8026 20.9782C99.8026 21.5388 99.8889 22.0993 100.061 22.5736C100.234 23.1341 100.061 23.7809 99.587 24.1258C99.3714 24.3414 99.0265 24.4707 98.7247 24.4707ZM98.854 17.7445C98.7678 17.7445 98.7247 17.7445 98.6385 17.7445C98.2935 17.7876 98.0348 18.0032 97.9055 18.305C97.5174 19.1673 97.3018 20.0728 97.3449 21.0214C97.3449 21.8837 97.4743 22.6598 97.733 23.3928C97.8192 23.6946 98.0779 23.9533 98.4229 24.0396C98.7678 24.1258 99.1127 24.0827 99.3714 23.8671C99.7164 23.6084 99.8457 23.1341 99.7164 22.7029C99.5439 22.1855 99.4577 21.625 99.4577 20.9782C99.4577 20.3315 99.587 19.7278 99.8457 19.1673C100.018 18.7793 99.932 18.305 99.6302 18.0032C99.3714 17.8307 99.1559 17.7445 98.854 17.7445Z" fill="#171753"/>
<path d="M100.104 16.5804C99.4574 16.0199 99.5436 15.0282 100.277 14.597C101.355 13.9502 103.122 13.3035 105.537 13.7346C106.313 13.864 106.744 13.6915 106.83 13.5191C106.917 13.3897 106.917 13.1741 106.787 13.0016C106.572 12.7429 105.968 12.1393 104.718 12.2687C104.2 12.3549 103.726 12.4842 103.338 12.6567C102.821 12.8723 102.217 12.6998 101.915 12.2687C101.441 11.6219 101.7 10.7164 102.432 10.4146C102.95 10.199 103.64 9.98344 104.416 9.89721C107.046 9.55227 108.383 11.1045 108.728 11.5788C109.461 12.5705 109.547 13.864 108.9 14.8557C108.21 15.9767 106.787 16.4941 105.106 16.1923C103.424 15.8905 102.217 16.3217 101.57 16.7529C101.096 16.9684 100.535 16.9253 100.104 16.5804Z" fill="#FFC78F"/>
<path d="M100.923 17.0546C100.578 17.0546 100.276 16.9253 100.017 16.7097C99.6725 16.4079 99.5 15.9767 99.5431 15.5455C99.5862 15.0712 99.845 14.6832 100.233 14.4676C101.311 13.8208 103.122 13.131 105.58 13.5621C106.356 13.6915 106.657 13.519 106.701 13.4328C106.744 13.3465 106.744 13.2172 106.657 13.0878C106.485 12.8291 105.924 12.3117 104.76 12.4411C104.329 12.4842 103.898 12.6135 103.467 12.786C102.863 13.0447 102.173 12.8291 101.828 12.3117C101.57 11.9668 101.483 11.5356 101.613 11.1044C101.742 10.6733 102.001 10.3714 102.432 10.199C103.079 9.94028 103.769 9.72469 104.458 9.63846C107.175 9.29352 108.598 10.8889 108.943 11.4063C109.719 12.4411 109.805 13.8208 109.115 14.8988C108.382 16.106 106.873 16.6234 105.105 16.3216C103.467 16.0198 102.346 16.451 101.656 16.839C101.44 16.9684 101.182 17.0546 100.923 17.0546ZM100.233 16.451C100.578 16.7528 101.052 16.7528 101.44 16.5372C102.173 16.106 103.381 15.6749 105.105 15.9767C106.701 16.2354 108.037 15.8042 108.727 14.7263C109.288 13.7777 109.245 12.5704 108.555 11.665C108.21 11.1907 106.916 9.72469 104.415 10.0696C103.769 10.1559 103.122 10.3283 102.475 10.587C102.173 10.7164 101.958 10.932 101.871 11.2769C101.785 11.5787 101.828 11.9237 102.044 12.1824C102.346 12.5704 102.82 12.6998 103.251 12.5273C103.726 12.3117 104.2 12.2255 104.674 12.1393C106.054 11.9668 106.701 12.6135 106.916 12.9154C107.089 13.131 107.132 13.4328 107.002 13.6484C106.916 13.7777 106.614 14.1658 105.493 13.9502C103.122 13.519 101.397 14.1658 100.362 14.8125C100.061 14.985 99.8881 15.2868 99.845 15.6318C99.845 15.8905 99.9743 16.2354 100.233 16.451L100.104 16.5803L100.233 16.451Z" fill="#171753"/>
<path d="M114.29 9.68161C113.858 10.2421 113.082 10.3715 112.522 9.94032C111.228 8.86238 109.633 7.22393 109.762 5.67171C109.892 4.55066 110.452 3.6452 111.358 3.30026C112.306 2.9122 113.427 3.12779 114.462 3.94702L114.635 4.03325C115.066 4.37819 115.971 5.11118 116.273 5.02495C116.316 5.02495 116.445 4.93871 116.661 4.59378C116.704 4.55066 116.704 4.55066 116.704 4.55066C116.661 4.37819 116.359 4.07637 115.928 3.81767C115.454 3.51585 115.238 2.86909 115.454 2.35168C115.756 1.6618 116.575 1.35998 117.222 1.74804C117.911 2.22233 118.731 2.86909 119.032 3.77455C119.291 4.46443 119.205 5.19742 118.817 5.84418C118.299 6.74964 117.61 7.31016 116.747 7.43952C115.324 7.69822 114.117 6.70652 113.125 5.93041L112.91 5.75794C112.565 5.49924 112.349 5.45612 112.306 5.49924C112.306 5.49924 112.22 5.62859 112.177 5.88729C112.22 6.27535 113.039 7.18081 114.074 8.04316C114.548 8.43121 114.635 9.16421 114.29 9.68161Z" fill="#FFC78F"/>
<path d="M113.298 10.3715C112.953 10.3715 112.651 10.2422 112.392 10.0697C111.012 8.94865 109.417 7.22395 109.59 5.62862C109.719 4.42133 110.323 3.47275 111.314 3.0847C112.349 2.65353 113.513 2.86911 114.591 3.73146L114.807 3.90393C115.798 4.72315 116.143 4.89562 116.23 4.89562C116.23 4.89562 116.316 4.80939 116.488 4.5938C116.445 4.50757 116.23 4.29198 115.798 4.03328C115.238 3.68834 115.022 2.95535 115.238 2.3517C115.41 1.96365 115.712 1.66183 116.1 1.53248C116.488 1.40313 116.919 1.44624 117.264 1.66183C118.256 2.26547 118.86 2.99846 119.118 3.77457C119.377 4.55069 119.291 5.28368 118.86 6.01667C118.299 6.96525 117.566 7.52578 116.704 7.69824C115.195 7.95695 113.944 6.96525 112.953 6.14602L112.737 5.97355C112.565 5.8442 112.435 5.75797 112.349 5.75797C112.349 5.80109 112.306 5.88732 112.306 5.97355C112.349 6.18914 113.039 7.05149 114.16 8.00007C114.72 8.47436 114.807 9.29358 114.376 9.89722C114.16 10.199 113.815 10.4146 113.427 10.5009C113.384 10.3715 113.341 10.3715 113.298 10.3715ZM112.306 3.21405C112.004 3.21405 111.702 3.25717 111.4 3.38652C110.581 3.73146 110.021 4.55068 109.934 5.62862C109.805 7.0946 111.314 8.68994 112.608 9.76787C112.823 9.94034 113.125 10.0266 113.384 9.98346C113.686 9.94034 113.944 9.81099 114.074 9.55229C114.376 9.12111 114.289 8.51747 113.901 8.17253C112.953 7.39642 111.961 6.36161 111.918 5.88732C111.961 5.5855 112.004 5.41303 112.09 5.36991L112.133 5.3268H112.177C112.263 5.28368 112.565 5.3268 112.953 5.62862L113.168 5.80109C114.117 6.5772 115.281 7.52578 116.618 7.26707C117.394 7.13772 118.04 6.62031 118.558 5.75797C118.903 5.15433 118.989 4.46445 118.773 3.81769C118.472 2.95535 117.652 2.30859 117.049 1.87742C116.79 1.70495 116.488 1.66183 116.186 1.74806C115.885 1.8343 115.669 2.04988 115.54 2.3517C115.367 2.82599 115.54 3.3434 115.928 3.60211C116.23 3.81769 116.747 4.16263 116.79 4.46445C116.79 4.50757 116.79 4.55068 116.747 4.63692C116.575 4.93874 116.402 5.11121 116.23 5.15433C115.971 5.3268 115.367 4.89562 114.548 4.20575L114.289 4.03328C113.686 3.51587 112.996 3.21405 112.306 3.21405Z" fill="#171753"/>
<path d="M110.668 11.4062C110.15 11.6649 109.547 11.5356 109.202 11.1044C108.943 10.7595 108.555 10.3714 108.038 9.98335C107.563 9.59529 106.83 9.33659 106.183 9.121C105.623 8.94853 105.278 8.38801 105.364 7.82749V7.74125C105.494 7.00826 106.183 6.57708 106.873 6.79267C107.693 7.00826 108.727 7.43943 109.503 8.04307C110.193 8.56048 110.711 9.121 111.099 9.59529C111.573 10.1989 111.401 11.0613 110.711 11.4062H110.668Z" fill="#FFC78F"/>
<path d="M110.15 11.7081C109.762 11.7081 109.331 11.5357 109.072 11.1907C108.727 10.7596 108.339 10.4146 107.951 10.0697C107.433 9.68163 106.7 9.42293 106.183 9.25046C105.536 9.07799 105.105 8.38811 105.234 7.74135V7.65512C105.277 7.26706 105.536 6.92213 105.838 6.70654C106.183 6.49095 106.571 6.44784 106.959 6.53407C107.735 6.74966 108.813 7.18083 109.675 7.82759C110.279 8.30188 110.84 8.81929 111.314 9.42293C111.573 9.76787 111.659 10.1559 111.573 10.5871C111.486 10.9751 111.228 11.3201 110.84 11.5357L110.796 11.5788C110.538 11.665 110.365 11.7081 110.15 11.7081ZM106.571 6.87901C106.399 6.87901 106.183 6.92213 106.01 7.05148C105.752 7.22395 105.622 7.43953 105.579 7.74135V7.82759C105.493 8.30188 105.795 8.77617 106.269 8.94864C106.83 9.12111 107.606 9.37981 108.166 9.81098C108.598 10.1559 109.029 10.544 109.374 10.9751C109.675 11.3632 110.193 11.4494 110.624 11.2339L110.667 11.1907C110.926 11.0614 111.141 10.8027 111.185 10.5009C111.228 10.199 111.185 9.89722 110.969 9.63851C110.495 9.07799 109.977 8.56058 109.417 8.12941C108.598 7.48265 107.563 7.13771 106.83 6.92213C106.743 6.87901 106.657 6.87901 106.571 6.87901Z" fill="#171753"/>
<path d="M105.407 31.2401C106.183 32.663 108.641 35.1638 113.298 35.7243C117.61 36.2417 122.396 35.0776 128.173 31.8869C133.994 28.6531 139.039 26.2817 138.306 18.2619C137.616 10.1989 132.657 7.22384 130.502 6.3615C128.303 5.45604 123.732 5.45604 120.11 7.31008C116.92 8.94853 110.926 13.2171 107.951 18.693C105.106 23.8671 104.071 28.7825 105.407 31.2401Z" fill="#FFA54B" stroke="#171753" stroke-width="1.5"/>
<path d="M130.502 6.27525C130.329 6.18902 130.157 6.1459 129.941 6.10278C133.089 8.77605 133.304 13.3465 131.666 20.0297C129.467 29.0412 122.525 34.4739 122.482 34.4739C124.293 33.9565 126.362 32.7924 128.173 31.8007C133.951 28.61 139.039 26.2385 138.306 18.2187C137.616 10.1558 132.701 7.18071 130.502 6.27525Z" fill="#171753"/>
<path d="M121.318 34.9915L122.396 34.3016C122.439 34.3016 129.295 28.9119 131.494 19.9867C133.261 12.8292 132.744 8.73305 129.855 6.27537L129.208 5.71484L130.028 5.97355C130.243 6.05978 130.416 6.1029 130.588 6.18913C132.744 7.05148 137.789 9.98345 138.522 18.262C139.212 26.0662 134.512 28.6101 129.079 31.6283L128.087 32.0595C126.319 33.0512 124.293 34.1722 122.525 34.6465L121.318 34.9915ZM130.717 6.57719C133.175 9.20734 133.477 13.3035 131.838 20.0298C130.071 27.3166 125.155 32.3613 123.301 34.0429C124.81 33.4823 126.449 32.5769 127.915 31.7577L128.863 31.2403C134.382 28.1789 138.78 25.8075 138.134 18.262C137.444 10.544 132.96 7.56889 130.717 6.57719Z" fill="#171753"/>
<path d="M113.728 35.0344C113.384 35.0344 113.082 35.0344 112.737 34.9913C110.236 34.7326 108.296 33.7409 107.476 32.3181C107.002 31.4988 106.916 30.5502 107.261 29.731C108.037 27.877 111.055 28.1788 113.858 28.9118C114.548 29.0843 114.893 29.8173 114.72 30.464C114.505 31.0677 113.858 31.4557 113.254 31.2832C111.659 30.8521 110.107 30.6796 109.503 30.809C109.503 30.8952 109.546 30.9814 109.589 31.0677C109.934 31.6282 111.012 32.3181 112.995 32.5336C114.591 32.7061 115.927 32.3181 116.531 31.5851C116.919 31.1108 116.962 30.5071 116.747 29.8173C116.359 28.7393 112.78 27.9201 109.805 27.877L107.606 27.8339C106.83 27.8339 106.614 26.7559 107.304 26.411L109.331 25.5055C109.331 25.5055 111.357 24.5138 110.969 23.3497C110.71 22.6167 110.02 22.358 109.632 22.2717C108.856 22.0993 108.037 22.3149 107.606 22.7891C107.261 23.1772 107.218 23.6084 107.261 23.9533C107.304 24.4276 107.045 24.8588 106.614 25.0744H106.571C105.795 25.4624 104.846 24.945 104.803 24.0827C104.717 23.1341 104.933 22.0562 105.795 21.1076C106.787 19.9865 108.511 19.5122 110.15 19.8572C111.702 20.159 112.823 21.1507 113.297 22.5304C113.685 23.6946 113.427 24.7294 112.866 25.5918C115.324 25.9367 118.342 26.799 119.075 28.9118C119.592 30.4209 119.377 31.8438 118.471 33.0079C117.437 34.3877 115.755 35.0344 113.728 35.0344Z" fill="#FFC78F"/>
<path d="M113.728 35.2501C113.383 35.2501 113.038 35.2501 112.693 35.207C110.106 34.9483 108.166 33.9566 107.261 32.4475C106.743 31.5852 106.657 30.5504 107.002 29.688C107.692 28.0496 109.977 27.7477 113.814 28.7826C114.202 28.8688 114.504 29.1275 114.677 29.4724C114.849 29.8174 114.892 30.2054 114.763 30.5935C114.547 31.3265 113.814 31.7145 113.081 31.5421C111.659 31.1971 110.322 30.9815 109.632 31.0246C109.934 31.5421 110.969 32.1888 112.909 32.4044C114.461 32.5769 115.712 32.2319 116.272 31.4989C116.617 31.0678 116.66 30.5504 116.445 29.9036C116.143 28.9981 112.909 28.1358 109.675 28.0927L107.476 28.0496C106.959 28.0496 106.657 27.6615 106.571 27.3166C106.484 26.9716 106.614 26.4973 107.088 26.2817L109.115 25.3763C109.115 25.3763 110.969 24.4708 110.624 23.436C110.408 22.7893 109.761 22.5737 109.416 22.4874C108.683 22.3581 107.95 22.5306 107.562 22.9617C107.304 23.2204 107.217 23.6085 107.261 23.9965C107.304 24.5571 107.045 25.0745 106.528 25.3332C106.096 25.5488 105.579 25.5488 105.148 25.3332C104.717 25.1176 104.458 24.6864 104.415 24.2121C104.372 23.3929 104.458 22.1856 105.45 21.1077C106.484 19.9435 108.252 19.4261 109.977 19.771C111.572 20.116 112.78 21.1508 113.254 22.5737C113.599 23.6085 113.513 24.6002 112.952 25.5488C115.367 25.9368 118.299 26.8423 119.032 28.955C119.549 30.5072 119.333 32.0163 118.385 33.2236C117.522 34.5171 115.841 35.2501 113.728 35.2501ZM110.149 28.5238C108.856 28.5238 107.821 28.8688 107.39 29.8174C107.088 30.5935 107.131 31.4558 107.606 32.2319C108.425 33.6117 110.279 34.5603 112.736 34.819C113.081 34.8621 113.383 34.8621 113.728 34.8621C115.712 34.8621 117.307 34.2153 118.255 33.008C119.118 31.9301 119.333 30.5504 118.816 29.1275C118.126 27.101 115.151 26.2386 112.736 25.9368L112.521 25.8506L112.693 25.5919C113.297 24.6864 113.426 23.6947 113.081 22.703C112.65 21.3664 111.529 20.4609 110.063 20.116C108.511 19.771 106.873 20.2453 105.924 21.3233C105.062 22.315 104.932 23.3929 104.975 24.169C105.018 24.5139 105.191 24.8158 105.493 24.9882C105.795 25.1607 106.14 25.1607 106.484 24.9882C106.873 24.7726 107.088 24.4277 107.045 23.9965C107.002 23.4791 107.131 23.0048 107.433 22.6599C107.907 22.1425 108.813 21.9269 109.632 22.0994C110.063 22.1856 110.839 22.4443 111.098 23.3067C111.529 24.6433 109.373 25.6781 109.373 25.6781L107.347 26.5836C107.045 26.7129 107.002 27.0147 107.045 27.1872C107.088 27.4028 107.261 27.6184 107.562 27.6184L109.761 27.6615C112.478 27.7046 116.445 28.4376 116.876 29.688C117.134 30.4641 117.048 31.1109 116.617 31.6283C115.97 32.4475 114.591 32.8356 112.909 32.6631C110.839 32.4475 109.718 31.7145 109.33 31.1109C109.244 30.9815 109.244 30.8953 109.201 30.8091L109.158 30.6366L109.33 30.5935C109.934 30.421 111.486 30.6366 113.168 31.0678C113.685 31.1971 114.246 30.8953 114.418 30.3779C114.504 30.1192 114.461 29.8174 114.332 29.5587C114.202 29.3 113.987 29.1275 113.685 29.0413C112.607 28.8257 111.27 28.5238 110.149 28.5238Z" fill="#171753"/>
<path d="M106.442 32.0163C105.924 32.5768 104.976 32.4906 104.588 31.8007C104.243 31.2402 103.941 30.5503 103.941 29.7311C103.941 29.2137 104.027 28.7394 104.113 28.3082C104.329 27.5321 105.191 27.1872 105.881 27.5752L105.924 27.6184C106.399 27.8771 106.614 28.4376 106.485 28.955C106.399 29.1706 106.355 29.4293 106.399 29.6449C106.399 29.9467 106.528 30.2485 106.7 30.5072C106.959 30.9815 106.916 31.542 106.528 31.9301L106.442 32.0163Z" fill="#FFC78F"/>
<path d="M105.58 32.5769C105.537 32.5769 105.494 32.5769 105.408 32.5769C104.976 32.5338 104.632 32.2751 104.416 31.9301C103.985 31.1971 103.769 30.5072 103.726 29.7743C103.726 29.3 103.769 28.8257 103.899 28.3083C104.028 27.8771 104.33 27.5322 104.718 27.4028C105.106 27.2303 105.537 27.2735 105.925 27.489L105.968 27.5322C106.486 27.834 106.787 28.4807 106.615 29.0844C106.529 29.3431 106.529 29.5587 106.529 29.7311C106.529 29.9467 106.615 30.2054 106.787 30.5073C107.089 31.0678 107.046 31.7145 106.615 32.1457L106.572 32.1888C106.313 32.4044 105.925 32.5769 105.58 32.5769ZM105.235 27.6184C105.106 27.6184 104.976 27.6615 104.847 27.7046C104.545 27.834 104.33 28.0496 104.243 28.3945C104.114 28.8688 104.071 29.3431 104.071 29.7743C104.071 30.421 104.287 31.0678 104.718 31.7577C104.89 32.0164 105.149 32.1888 105.451 32.2319C105.753 32.2751 106.098 32.1457 106.313 31.9301L106.356 31.887C106.658 31.5421 106.701 31.0678 106.486 30.6797C106.27 30.3348 106.184 30.033 106.184 29.7311C106.184 29.5156 106.227 29.2569 106.313 28.955C106.442 28.5239 106.227 28.0927 105.839 27.834L105.796 27.7909C105.58 27.6615 105.408 27.6184 105.235 27.6184Z" fill="#171753"/>
<path d="M120.627 34.7327C119.851 34.9483 119.118 34.3878 119.075 33.6116C119.032 32.8787 119.161 32.0594 119.679 31.4989C119.981 31.154 120.627 30.6366 121.748 30.7659C122.826 30.8953 123.516 30.6797 123.775 30.4641C123.861 30.421 124.034 30.2485 123.99 29.7742C123.947 29.2137 123.602 28.8687 123.214 28.6532C122.783 28.3945 122.568 27.8771 122.654 27.3596V27.3165C122.826 26.5404 123.732 26.1524 124.422 26.5404C125.37 27.1441 126.319 28.1358 126.362 29.6449C126.448 30.9815 125.844 31.8007 125.37 32.275C124.508 33.0942 123.128 33.4392 121.447 33.2236C121.447 33.3098 121.447 33.4392 121.447 33.5685C121.533 34.0859 121.145 34.6033 120.627 34.7327Z" fill="#FFC78F"/>
<path d="M120.282 34.9913C119.981 34.9913 119.679 34.9051 119.463 34.7326C119.118 34.4739 118.903 34.0859 118.903 33.6547C118.859 32.7061 119.118 31.93 119.549 31.4126C119.851 31.0677 120.541 30.464 121.791 30.6365C122.826 30.7659 123.43 30.5934 123.646 30.3778C123.689 30.3347 123.818 30.2053 123.818 29.8173C123.818 29.4292 123.559 29.0843 123.128 28.8256C122.611 28.5238 122.352 27.9201 122.481 27.3596V27.3165C122.568 26.8853 122.869 26.5404 123.301 26.3679C123.689 26.1954 124.163 26.2385 124.508 26.4541C125.413 26.9715 126.491 28.0064 126.534 29.731C126.621 31.1539 126.017 32.0163 125.5 32.4905C124.637 33.3098 123.257 33.6547 121.619 33.5254C121.619 33.5685 121.619 33.6116 121.619 33.6547C121.662 34.3015 121.231 34.862 120.584 35.0345C120.541 34.9482 120.412 34.9913 120.282 34.9913ZM121.36 30.9383C120.541 30.9383 120.024 31.3264 119.808 31.6282C119.42 32.1025 119.204 32.7924 119.248 33.6547C119.248 33.9565 119.42 34.2584 119.679 34.4739C119.937 34.6464 120.282 34.7326 120.584 34.6464C121.058 34.5171 121.36 34.0859 121.317 33.6116C121.317 33.4822 121.317 33.3529 121.317 33.2235L121.36 33.0511L121.533 33.0942C123.128 33.2667 124.465 32.9648 125.284 32.1887C125.758 31.7576 126.276 30.9814 126.233 29.731C126.146 28.1788 125.155 27.2734 124.379 26.756C124.12 26.5835 123.775 26.5835 123.473 26.7128C123.171 26.8422 122.956 27.1009 122.869 27.4458V27.4889C122.783 27.9201 122.956 28.3513 123.344 28.5669C123.861 28.9118 124.163 29.343 124.206 29.8604C124.249 30.3778 124.077 30.5934 123.947 30.7227C123.559 31.0677 122.74 31.197 121.791 31.0677C121.619 30.9383 121.49 30.9383 121.36 30.9383Z" fill="#171753"/>
<path d="M128.13 28.6099C127.957 28.6099 127.742 28.5668 127.569 28.5237C126.319 28.1356 125.155 26.3678 126.06 22.5304C126.491 20.7195 125.456 19.8571 123.646 18.6498C122.438 17.8737 120.929 16.882 121.403 15.1573C121.662 14.2087 122.266 13.5189 123.171 13.2602C125.025 12.6996 127.31 14.0363 128.388 14.9417C128.82 15.3298 129.208 15.6316 129.466 15.8903C130.027 16.4077 129.984 17.3132 129.38 17.7444L128.561 18.3911C128.561 18.3911 128.173 17.9599 126.793 16.7958C125.715 15.8903 124.378 15.416 123.861 15.5454C123.818 15.5454 123.775 15.5454 123.775 15.6747C123.947 15.8903 124.551 16.3215 124.982 16.5802C126.577 17.6581 129.294 19.4259 128.432 23.0478C128.13 24.3844 128.13 25.2468 128.259 25.7211C128.302 25.6348 128.302 25.5917 128.345 25.5055C128.992 23.7377 130.07 20.8057 132.916 21.1937C133.821 21.3231 134.554 21.9267 134.942 22.7891C135.201 23.3496 135.244 23.9101 135.158 24.5138C135.028 25.3761 133.994 25.8073 133.261 25.333C132.873 25.0743 132.7 24.6 132.743 24.1257C132.743 23.9964 132.743 23.867 132.7 23.7808C132.657 23.6945 132.571 23.6083 132.528 23.6083C132.053 23.5221 131.536 23.6945 130.587 26.3247C130.027 28.0063 129.035 28.6099 128.13 28.6099Z" fill="#FFC78F"/>
<path d="M128.13 28.8256C127.914 28.8256 127.699 28.7825 127.526 28.7393C126.189 28.3513 124.939 26.4541 125.888 22.5305C126.276 20.892 125.456 20.1159 123.559 18.8655C122.395 18.0894 120.757 17.0115 121.231 15.2005C121.49 14.2088 122.18 13.4758 123.128 13.174C125.025 12.5704 127.44 13.9932 128.518 14.8987C128.949 15.2436 129.294 15.5455 129.596 15.8473C129.897 16.106 130.07 16.5372 130.07 16.9252C130.07 17.3564 129.854 17.7444 129.509 17.96L128.518 18.7361L128.388 18.6068C128.345 18.5637 127.957 18.1325 126.664 17.0546C125.715 16.2353 124.594 15.8473 124.077 15.8473C124.335 16.0629 124.767 16.3647 125.068 16.5372C126.707 17.6151 129.466 19.4691 128.561 23.2203C128.388 23.9964 128.302 24.6001 128.302 25.0313C128.992 23.2203 130.156 20.7627 132.873 21.1507C133.821 21.2801 134.64 21.9268 135.072 22.8323C135.33 23.3928 135.417 24.0396 135.287 24.6863C135.201 25.1606 134.899 25.5487 134.468 25.7211C134.037 25.9367 133.519 25.8505 133.088 25.5918C132.657 25.29 132.441 24.7726 132.485 24.212C132.485 24.1258 132.485 24.0396 132.441 23.9533C132.398 23.9102 132.398 23.8671 132.398 23.8671C132.096 23.824 131.665 23.7809 130.717 26.4541C130.242 27.9632 129.251 28.8256 128.13 28.8256ZM124.12 13.3896C123.818 13.3896 123.516 13.4327 123.214 13.519C122.395 13.7777 121.835 14.4244 121.576 15.2868C121.145 16.839 122.524 17.7444 123.732 18.5637C125.543 19.771 126.664 20.6764 126.233 22.6167C125.37 26.2817 126.448 28.0064 127.612 28.3513C127.785 28.3944 127.957 28.4375 128.13 28.4375C129.121 28.4375 129.984 27.6614 130.458 26.3679C131.363 23.824 131.881 23.4359 132.571 23.5222C132.7 23.5222 132.786 23.6515 132.873 23.7809C132.916 23.9102 132.959 24.0396 132.916 24.212C132.873 24.6432 133.045 25.0313 133.347 25.2468C133.649 25.4624 134.037 25.4624 134.339 25.3331C134.684 25.2037 134.899 24.9019 134.942 24.557C135.028 23.9964 134.942 23.4359 134.727 22.9185C134.382 22.0993 133.649 21.5388 132.829 21.4525C130.113 21.0645 129.078 23.9102 128.475 25.6349C128.432 25.7211 128.388 25.8074 128.388 25.8936L128.13 26.411L128.043 25.8505C127.957 25.3762 127.914 24.5139 128.216 23.091C129.035 19.5985 126.448 17.8738 124.853 16.839C124.292 16.494 123.818 16.1491 123.602 15.8904L123.516 15.8042L123.559 15.7179C123.602 15.5455 123.689 15.5023 123.775 15.5023C124.378 15.3299 125.844 15.8904 126.879 16.7528C127.871 17.572 128.345 18.0463 128.518 18.2187L129.208 17.6582C129.466 17.4857 129.596 17.1839 129.596 16.8821C129.596 16.5803 129.466 16.2785 129.251 16.0629C128.949 15.8042 128.561 15.4592 128.173 15.1143C127.397 14.4244 125.672 13.3896 124.12 13.3896Z" fill="#171753"/>
<path d="M128.173 31.887C127.612 31.887 127.181 31.4127 127.267 30.8522L127.31 30.6366V30.5935C127.397 29.9898 127.871 29.5156 128.475 29.3862C128.906 29.3 129.466 29.1275 129.898 28.7394C130.329 28.3514 130.587 27.9202 130.76 27.5753C130.932 27.1441 131.364 26.8423 131.838 26.8423H131.924C132.786 26.8423 133.347 27.7046 133.002 28.4807C132.743 29.1275 132.269 29.8605 131.536 30.5504C130.242 31.6714 129.035 31.887 128.173 31.887Z" fill="#FFC78F"/>
<path d="M128.173 32.0594C127.828 32.0594 127.526 31.9301 127.354 31.6714C127.138 31.4127 127.052 31.1109 127.095 30.809L127.138 30.5503C127.225 29.8605 127.785 29.343 128.475 29.2137C128.992 29.1275 129.467 28.9119 129.812 28.6101C130.157 28.2651 130.458 27.9202 130.631 27.5321C130.846 27.0147 131.364 26.7129 131.881 26.7129H131.924C132.399 26.7129 132.787 26.9285 133.045 27.3165C133.304 27.7046 133.347 28.1789 133.175 28.6101C132.83 29.3862 132.312 30.1192 131.623 30.7228C130.286 31.9301 128.992 32.0594 128.173 32.0594ZM131.838 27.0147C131.45 27.0147 131.105 27.2734 130.933 27.6184C130.717 28.0495 130.415 28.4807 130.027 28.8256C129.639 29.1706 129.122 29.4293 128.518 29.5586C128.001 29.6449 127.57 30.076 127.483 30.5934L127.44 30.8521C127.397 31.0677 127.483 31.2833 127.613 31.4127C127.742 31.5851 127.958 31.6714 128.173 31.6714V31.8438V31.6714C128.949 31.6714 130.113 31.542 131.407 30.3779C132.054 29.8173 132.528 29.1275 132.83 28.3945C132.959 28.0926 132.916 27.7477 132.744 27.4459C132.571 27.1441 132.269 27.0147 131.924 27.0147H131.838V27.0147Z" fill="#171753"/>
<path d="M136.322 21.7113C135.503 21.7113 134.77 21.3232 134.21 20.9783C133.865 20.8058 133.477 20.5902 133.045 20.4177C132.226 20.1159 131.623 20.3315 131.235 20.6333C130.89 20.892 130.372 20.9351 130.027 20.7196L129.941 20.6764C129.165 20.2022 129.165 19.1242 129.855 18.6499C130.803 17.9601 132.226 17.5289 133.908 18.1756C134.468 18.3912 134.899 18.6499 135.331 18.8655C136.236 19.3398 136.279 19.3398 136.452 19.1673C136.495 19.1242 136.495 19.1242 136.495 19.1242C136.495 19.038 136.322 18.5206 135.374 17.8738C134.727 17.3995 133.778 17.2702 133.002 17.2702C132.399 17.2702 131.924 16.839 131.838 16.2354C131.709 15.5024 132.312 14.8125 133.045 14.8125C134.123 14.8125 135.589 15.0281 136.754 15.8473C138.09 16.7959 138.866 17.9169 138.909 19.038C138.952 19.8141 138.608 20.5471 138.004 21.0645C137.443 21.5388 136.84 21.7113 136.322 21.7113Z" fill="#FFC78F"/>
<path d="M136.322 21.8837C135.46 21.8837 134.727 21.4957 134.123 21.1507C133.778 20.9783 133.39 20.7627 133.002 20.5902C132.398 20.3746 131.838 20.4178 131.364 20.7627C130.932 21.0645 130.372 21.1076 129.941 20.8489L129.854 20.8058C129.466 20.5471 129.208 20.1159 129.165 19.6416C129.165 19.1674 129.38 18.7362 129.768 18.4344C130.674 17.7876 132.097 17.2271 133.994 17.9601C134.554 18.1757 135.028 18.4344 135.417 18.6499C136.02 18.9949 136.193 19.038 136.279 19.038C136.193 18.9086 135.977 18.4775 135.244 18.0032C134.554 17.5289 133.519 17.4427 132.959 17.4427C132.269 17.4427 131.708 16.9253 131.579 16.2354C131.536 15.8042 131.622 15.4162 131.924 15.0712C132.183 14.7694 132.571 14.5969 133.002 14.5969C134.08 14.5969 135.589 14.8125 136.839 15.6749C138.219 16.6666 139.038 17.8307 139.082 18.9949C139.125 19.8141 138.78 20.5902 138.09 21.1507C137.572 21.6682 136.969 21.8837 136.322 21.8837ZM132.312 20.1159C132.571 20.1159 132.83 20.159 133.131 20.2884C133.563 20.4609 133.951 20.6765 134.296 20.8489C134.856 21.1507 135.589 21.5388 136.322 21.5388C136.883 21.5388 137.4 21.3232 137.874 20.9352C138.435 20.4609 138.737 19.8141 138.737 19.0811C138.693 18.0463 137.96 16.9684 136.667 16.0629C135.503 15.2437 134.037 15.0712 133.045 15.0281C132.743 15.0281 132.441 15.1574 132.269 15.373C132.053 15.5886 131.967 15.9336 132.01 16.2354C132.097 16.7097 132.528 17.0977 133.002 17.0977C133.735 17.0977 134.77 17.2271 135.46 17.7445C136.451 18.4344 136.667 18.9949 136.667 19.1674V19.2967L136.581 19.3398C136.581 19.3398 136.538 19.3398 136.538 19.3829C136.236 19.5985 136.106 19.5554 135.201 19.0811C134.813 18.8655 134.339 18.6068 133.821 18.3912C132.097 17.7014 130.76 18.2619 129.941 18.8224C129.639 19.038 129.509 19.3398 129.509 19.6848C129.509 20.0297 129.725 20.3315 130.027 20.5471L130.113 20.5902C130.415 20.7627 130.846 20.7627 131.148 20.504C131.407 20.2884 131.795 20.1159 132.312 20.1159Z" fill="#171753"/>
<path d="M108.511 18.6069C107.864 18.3051 107.606 17.529 107.951 16.9254C108.684 15.5887 110.02 13.4329 111.874 11.8375C113.901 10.0697 116.057 10.1991 117.221 11.1045C118.299 11.9238 118.601 13.3897 117.954 14.6833C118.213 14.7695 118.644 14.8557 119.118 14.8557C119.722 14.8989 120.196 15.33 120.282 15.9337C120.368 16.6667 119.765 17.3134 119.032 17.2703C117.911 17.2272 116.531 16.9685 115.841 16.0199C115.582 15.6318 115.194 14.7695 115.755 13.5622C115.927 13.1742 115.755 13.0448 115.712 13.0017C115.41 12.743 114.504 12.6999 113.427 13.6485C111.874 14.9851 110.667 16.9254 110.063 18.0895C109.762 18.65 109.072 18.8656 108.511 18.6069Z" fill="#FFC78F"/>
<path d="M108.986 18.9088C108.813 18.9088 108.598 18.8656 108.425 18.7794C108.08 18.6069 107.778 18.3051 107.649 17.9602C107.52 17.5721 107.563 17.1841 107.735 16.8391C108.382 15.6318 109.805 13.3466 111.702 11.7082C113.815 9.85414 116.057 10.0266 117.307 10.9752C118.428 11.8375 118.773 13.2604 118.213 14.597C118.428 14.6402 118.773 14.6833 119.118 14.6833C119.808 14.7264 120.369 15.2438 120.455 15.9337C120.498 16.3648 120.369 16.7529 120.067 17.0547C119.808 17.3565 119.42 17.529 118.989 17.4859C117.868 17.4428 116.359 17.1841 115.669 16.1493C115.367 15.7181 114.936 14.8126 115.583 13.5191C115.712 13.2604 115.626 13.2173 115.583 13.1742C115.367 13.0017 114.548 12.9155 113.513 13.8209C111.961 15.1576 110.753 17.141 110.193 18.2189C109.977 18.6501 109.503 18.9088 108.986 18.9088ZM115.151 10.6302C114.16 10.6302 113.039 11.0183 111.961 11.9669C110.107 13.5622 108.727 15.8043 108.08 17.0116C107.951 17.2703 107.908 17.5721 107.994 17.8308C108.08 18.0895 108.296 18.3051 108.554 18.4345C109.029 18.6501 109.632 18.4776 109.891 18.0033C110.495 16.9254 111.702 14.8989 113.297 13.5191C114.461 12.5274 115.453 12.5705 115.798 12.8723C116.014 13.0448 116.057 13.3035 115.884 13.6485C115.324 14.7695 115.669 15.5456 115.927 15.9337C116.574 16.8391 117.954 17.0547 118.989 17.0978C119.291 17.0978 119.549 16.9685 119.765 16.7529C119.98 16.5373 120.067 16.2355 120.024 15.9337C119.98 15.4163 119.549 15.0282 119.032 15.0282C118.514 15.0282 118.083 14.942 117.825 14.8557L117.781 14.8126V14.7695L117.738 14.7264L117.781 14.597C118.385 13.3466 118.126 12.01 117.092 11.2339C116.617 10.8458 115.927 10.6302 115.151 10.6302Z" fill="#171753"/>
<path d="M125.673 21.7112C125.285 20.3315 123.862 19.2535 121.275 18.305C117.955 17.0977 115.325 18.0031 115.238 18.0463C114.592 18.2618 113.859 18.3481 113.514 18.3481C113.6 17.96 114.031 17.4857 114.505 17.1408C114.894 16.839 115.066 16.2784 114.807 15.8473L114.635 15.5455C114.333 14.9418 113.6 14.7693 113.04 15.1574C112.091 15.8473 110.884 17.0977 111.013 18.7361C111.056 19.426 111.401 20.0296 112.005 20.3746C112.479 20.6764 113.083 20.8058 113.686 20.8058C114.721 20.8058 115.756 20.4608 116.23 20.3315C116.791 20.2021 118.386 19.9003 120.456 20.6333C123.043 21.5819 123.345 22.3149 123.345 22.4011C123.388 22.4873 123.301 22.6167 123.172 22.7892C123.129 22.8323 123.086 22.8754 123.086 22.8754C122.87 22.8323 122.267 22.4873 121.835 22.2717C121.534 22.0993 121.146 21.8837 120.757 21.6681C119.205 20.892 116.101 20.4608 114.505 21.625C113.729 22.1855 113.384 23.0479 113.514 23.9964C113.816 26.1954 115.497 26.1954 116.403 26.2385C117.049 26.2385 117.739 26.2385 118.515 26.6697C119.378 27.144 119.507 27.9201 119.464 28.4806C119.421 28.9549 119.723 29.3861 120.154 29.5586L120.456 29.6879C121.102 29.9466 121.835 29.4723 121.879 28.7825C121.965 27.4027 121.577 25.6349 119.68 24.557C118.343 23.824 117.179 23.824 116.403 23.824C116.23 23.824 116.058 23.824 115.928 23.824C115.928 23.7809 115.928 23.7377 115.885 23.6946C116.316 23.3066 118.429 23.3066 119.636 23.9102C119.981 24.0827 120.283 24.2551 120.585 24.4707C121.792 25.1606 123.603 26.2385 125.069 24.3845C125.888 23.2634 125.845 22.3149 125.673 21.7112Z" fill="#FFC78F"/>
<path d="M120.843 29.8604C120.714 29.8604 120.541 29.8173 120.412 29.7742L120.11 29.6448C119.593 29.4724 119.248 28.9549 119.291 28.3944C119.334 27.6614 119.032 27.1009 118.428 26.756C117.695 26.3248 117.006 26.3248 116.402 26.3248C115.496 26.3248 113.642 26.2817 113.297 23.9533C113.168 22.9185 113.556 22.0131 114.375 21.4094C116.057 20.2021 119.248 20.6333 120.843 21.4525C121.231 21.6681 121.619 21.8837 121.921 22.0562C122.223 22.2287 122.74 22.5305 122.999 22.6167C123.128 22.4442 123.128 22.4011 123.128 22.4011C123.128 22.4011 122.913 21.6681 120.326 20.7627C118.342 20.0728 116.79 20.2884 116.229 20.4608C115.712 20.6333 114.677 20.9351 113.642 20.9351C112.909 20.9351 112.349 20.8058 111.875 20.504C111.271 20.1159 110.883 19.4692 110.797 18.7362C110.667 17.0115 111.875 15.7611 112.909 14.985C113.211 14.7694 113.599 14.6831 113.944 14.7694C114.289 14.8556 114.591 15.1143 114.763 15.4161L114.936 15.718C115.195 16.2354 115.022 16.8821 114.548 17.2271C114.117 17.5289 113.858 17.8307 113.686 18.1325C114.03 18.1325 114.548 18.0032 115.022 17.8738L115.108 17.8307C115.238 17.7876 117.868 16.8821 121.274 18.0894C123.904 19.038 125.413 20.2021 125.801 21.625C125.974 22.2718 126.017 23.2635 125.155 24.3414C123.602 26.2817 121.619 25.1606 120.455 24.4708C120.153 24.2983 119.851 24.1258 119.506 23.9533C118.644 23.5222 117.264 23.4359 116.488 23.5222C117.307 23.5222 118.428 23.5653 119.765 24.2983C121.964 25.5056 122.137 27.5752 122.05 28.6962C122.007 29.0843 121.835 29.4292 121.49 29.6448C121.317 29.8173 121.102 29.8604 120.843 29.8604ZM117.264 21.0645C116.273 21.0645 115.281 21.2801 114.591 21.7544C113.858 22.2718 113.556 23.0479 113.686 23.9533C113.987 25.9799 115.496 26.023 116.402 26.023C117.092 26.023 117.782 26.023 118.601 26.4973C119.549 27.0147 119.679 27.877 119.679 28.4807C119.636 28.8687 119.894 29.2136 120.239 29.343L120.541 29.4724C120.8 29.5586 121.102 29.5586 121.317 29.3861C121.533 29.2568 121.705 28.9981 121.705 28.7394C121.792 27.7045 121.619 25.8074 119.593 24.6863C118.299 23.9965 117.178 23.9533 116.402 23.9533C116.229 23.9533 116.014 23.9533 115.885 23.9533H115.755L115.712 23.824C115.712 23.7809 115.712 23.7378 115.669 23.6946V23.6084L115.755 23.5222C116.273 23.091 118.515 23.091 119.679 23.7378C120.024 23.9102 120.326 24.0827 120.671 24.2983C121.878 24.9882 123.516 25.9799 124.896 24.2552C125.672 23.3066 125.629 22.4442 125.457 21.8406C125.112 20.5471 123.689 19.4692 121.145 18.5637C118.299 17.5289 116.057 18.0463 115.41 18.2188L115.238 18.305C114.591 18.5206 113.815 18.6499 113.427 18.6068H113.211L113.254 18.3912C113.341 17.8738 113.987 17.3133 114.332 17.0546C114.677 16.7959 114.763 16.3647 114.591 15.9767L114.419 15.6748C114.289 15.4592 114.074 15.2868 113.858 15.2005C113.599 15.1574 113.341 15.2005 113.125 15.3299C112.176 16.0198 111.055 17.2271 111.185 18.7362C111.228 19.3829 111.573 19.9003 112.09 20.2453C112.478 20.504 113.039 20.6333 113.642 20.6333C114.677 20.6333 115.712 20.2884 116.1 20.159C116.747 19.9866 118.385 19.7279 120.412 20.4608C123.042 21.4094 123.387 22.2287 123.43 22.358C123.473 22.5305 123.43 22.7029 123.214 22.9185C123.171 22.9617 123.128 23.0048 123.085 23.0479L123.042 23.091H122.956C122.697 23.0479 122.223 22.7892 121.662 22.4442C121.36 22.2718 120.972 22.0562 120.584 21.8406C119.808 21.3663 118.515 21.0645 117.264 21.0645Z" fill="#171753"/>
<path d="M133.434 9.16409C133.046 9.59526 132.399 9.68149 131.882 9.33655C130.976 8.73291 129.338 7.9568 127.225 7.9568C127.225 7.9568 127.225 7.9568 127.182 7.9568C124.81 7.9568 123.301 8.43109 122.482 8.77603C122.008 8.99162 121.404 8.86226 121.059 8.43109C120.542 7.78433 120.757 6.83575 121.49 6.53393C122.611 6.05964 124.422 5.54224 127.182 5.54224C127.182 5.54224 127.182 5.54224 127.225 5.54224C129.898 5.54224 131.968 6.53393 133.175 7.31004C133.822 7.6981 133.951 8.60356 133.434 9.16409L132.701 9.9402L133.52 9.03473L133.434 9.16409Z" fill="#FFC78F"/>
<path d="M132.831 10.0696L132.572 9.81085L132.658 9.72462C132.356 9.72462 132.054 9.6815 131.796 9.50903C130.804 8.90539 129.252 8.12928 127.225 8.12928C124.897 8.12928 123.388 8.56045 122.569 8.94851C122.008 9.20721 121.361 9.03474 120.93 8.56045C120.628 8.21552 120.542 7.78434 120.628 7.35317C120.715 6.922 121.016 6.57706 121.448 6.36147C122.526 5.88718 124.38 5.32666 127.182 5.32666C129.899 5.32666 132.011 6.31836 133.262 7.13758C133.607 7.35317 133.865 7.74123 133.908 8.12928C133.952 8.51734 133.865 8.86227 133.607 9.1641L133.52 9.25033L133.477 9.29345L132.831 10.0696ZM127.182 7.74123C129.295 7.74123 130.933 8.51734 131.968 9.1641C132.399 9.4228 132.917 9.37968 133.262 9.03474L133.305 8.99163C133.52 8.77604 133.607 8.47422 133.564 8.1724C133.52 7.87058 133.348 7.61187 133.089 7.43941C131.839 6.62018 129.812 5.6716 127.225 5.6716C124.466 5.6716 122.655 6.23212 121.577 6.6633C121.275 6.79265 121.06 7.05135 120.973 7.39629C120.887 7.69811 120.973 8.04305 121.189 8.30175C121.491 8.64669 121.965 8.77604 122.396 8.60357C123.259 8.21552 124.811 7.74123 127.182 7.74123Z" fill="#171753"/>
<path d="M137.056 13.8209C136.797 14.3814 136.193 14.6833 135.633 14.5108C134.684 14.2521 133.132 13.9503 131.537 14.2521C129.251 14.6833 127.742 14.4246 126.837 13.476C126.363 13.0017 125.931 12.0962 126.319 10.5871C126.492 9.98348 126.88 9.50919 127.397 9.20737C128.044 8.86243 128.82 8.81931 129.51 8.86243C130.286 8.94866 130.804 9.68166 130.588 10.4578C130.416 11.0183 129.898 11.3632 129.338 11.3201C129.079 11.277 128.82 11.277 128.691 11.3201C128.605 11.7082 128.648 11.8375 128.648 11.8375C128.648 11.8375 129.079 12.2256 131.062 11.8375C133.089 11.4495 135.029 11.7944 136.279 12.1393C136.969 12.3549 137.357 13.131 137.056 13.8209Z" fill="#FFC78F"/>
<path d="M135.935 14.7265C135.805 14.7265 135.676 14.7265 135.59 14.6833C134.598 14.4246 133.089 14.1659 131.537 14.4246C129.208 14.8558 127.613 14.5971 126.664 13.6054C126.19 13.088 125.673 12.0963 126.104 10.5441C126.276 9.89733 126.707 9.37992 127.311 9.03498C127.872 8.73316 128.605 8.60381 129.51 8.69004C129.941 8.73316 130.329 8.94875 130.588 9.3368C130.804 9.68174 130.89 10.1129 130.76 10.5441C130.545 11.1908 129.941 11.5789 129.294 11.4927C129.122 11.4927 128.95 11.4495 128.82 11.4927C128.82 11.622 128.777 11.6651 128.82 11.7083C128.95 11.7514 129.51 11.9238 131.062 11.6651C133.132 11.2771 135.072 11.622 136.366 11.967C136.754 12.0532 137.099 12.355 137.271 12.6999C137.444 13.088 137.444 13.4761 137.314 13.8641C137.012 14.4246 136.495 14.7265 135.935 14.7265ZM132.959 13.9504C133.994 13.9504 134.986 14.1228 135.676 14.3384C136.15 14.4678 136.668 14.2091 136.883 13.7348C137.012 13.4761 137.012 13.1311 136.883 12.8724C136.754 12.6137 136.495 12.3981 136.236 12.3119C134.986 11.967 133.132 11.6651 131.105 12.0532C128.95 12.4412 128.518 12.0101 128.518 11.967L128.475 11.9238C128.432 11.8807 128.389 11.7083 128.518 11.3202L128.561 11.234L128.648 11.1908C128.863 11.1477 129.165 11.1477 129.381 11.1908C129.855 11.234 130.329 10.9321 130.459 10.4579C130.545 10.156 130.502 9.85421 130.329 9.59551C130.157 9.3368 129.855 9.16433 129.553 9.12122C128.734 9.03498 128.087 9.16433 127.57 9.42304C127.052 9.68174 126.707 10.156 126.578 10.6734C126.19 12.0963 126.621 12.9155 127.052 13.3898C127.872 14.2953 129.338 14.5109 131.58 14.0797C131.968 13.9935 132.485 13.9504 132.959 13.9504Z" fill="#171753"/>
<path d="M120.671 12.9585C120.499 12.9585 120.283 12.9154 120.111 12.8723C119.205 12.5704 118.774 11.7081 118.472 10.932C118.386 10.6733 117.955 10.4577 117.524 10.3715C117.006 10.2421 116.618 9.76781 116.618 9.20729C116.618 8.38806 117.351 7.82754 118.127 8.00001C119.076 8.25871 120.24 8.81923 120.714 10.0696C120.757 10.1559 120.801 10.2852 120.844 10.3283C120.887 10.2852 120.93 10.2852 120.973 10.2421C121.577 9.85405 122.439 9.29352 123.603 9.37976C123.819 9.37976 124.034 9.42287 124.207 9.46599C125.112 9.63846 125.5 10.7164 124.897 11.4494L124.379 12.053C124.379 12.053 124.379 12.053 124.422 12.0961C124.422 12.0961 124.077 11.8806 123.431 11.8374C123.086 11.7943 122.698 12.053 122.31 12.3117C121.878 12.6136 121.318 12.9585 120.671 12.9585Z" fill="#FFC78F"/>
<path d="M120.671 13.1309C120.456 13.1309 120.24 13.0878 120.068 13.0447C119.076 12.7429 118.645 11.7943 118.343 11.0182C118.257 10.8457 117.998 10.6732 117.524 10.5439C116.92 10.3714 116.489 9.85401 116.489 9.20726C116.489 8.77608 116.661 8.34491 117.049 8.08621C117.394 7.8275 117.825 7.74127 118.257 7.8275C119.205 8.08621 120.456 8.64673 120.973 9.98337C120.973 9.98337 120.973 10.0265 121.016 10.0265C121.62 9.63843 122.525 9.0779 123.689 9.16414C123.905 9.16414 124.121 9.20726 124.336 9.25037C124.854 9.33661 125.242 9.68155 125.414 10.1558C125.587 10.6301 125.5 11.1475 125.155 11.5356L124.638 12.1392L124.509 12.053L124.422 12.1823C124.422 12.1823 124.121 11.9668 123.517 11.9236C123.215 11.9236 122.87 12.1392 122.482 12.3979C121.965 12.7429 121.361 13.1309 120.671 13.1309ZM117.869 8.17244C117.653 8.17244 117.437 8.25868 117.222 8.38803C116.963 8.60361 116.834 8.90544 116.834 9.20726C116.834 9.68155 117.136 10.0696 117.567 10.199C117.955 10.2852 118.472 10.5008 118.645 10.8888C118.903 11.5787 119.335 12.441 120.154 12.6998C120.326 12.7429 120.499 12.786 120.671 12.786C121.275 12.786 121.792 12.441 122.223 12.1823C122.655 11.8805 123.043 11.6218 123.474 11.6649C123.905 11.7081 124.207 11.7943 124.379 11.8805L124.81 11.3631C125.069 11.0613 125.112 10.7164 124.983 10.3283C124.854 9.98337 124.552 9.72466 124.207 9.68155C124.034 9.63843 123.819 9.63843 123.603 9.59531C122.482 9.50908 121.663 10.0696 121.102 10.4577L120.8 10.6732L120.714 10.4577C120.671 10.3714 120.628 10.2852 120.585 10.199C120.111 8.99167 118.99 8.47426 118.127 8.25868C118.041 8.17244 117.955 8.17244 117.869 8.17244Z" fill="#171753"/>
<path d="M119.981 3.25689C119.506 2.56701 119.895 1.61843 120.671 1.40284C121.317 1.23037 122.137 1.14414 123.128 1.18726C124.292 1.27349 125.198 1.61843 125.888 2.00648C126.621 2.43766 126.707 3.42935 126.103 3.98988C125.715 4.33482 125.155 4.37793 124.681 4.16235C124.292 3.94676 123.732 3.68806 122.999 3.64494C122.309 3.60182 121.749 3.68806 121.317 3.77429C120.8 3.90364 120.239 3.68806 119.981 3.25689Z" fill="#FFC78F"/>
<path d="M125.241 4.50752C125.026 4.50752 124.767 4.4644 124.551 4.33505C124.077 4.07635 123.517 3.90388 122.913 3.86076C122.352 3.81765 121.792 3.86076 121.318 3.99011C120.714 4.11947 120.11 3.90388 119.809 3.38647C119.55 2.99842 119.507 2.52413 119.679 2.09296C119.852 1.66178 120.197 1.35996 120.628 1.23061C121.404 1.01503 122.266 0.971908 123.129 1.01503C124.12 1.10126 125.069 1.35996 125.931 1.87737C126.319 2.09296 126.578 2.48101 126.621 2.9553C126.664 3.42959 126.492 3.86076 126.147 4.16258C125.931 4.37817 125.586 4.50752 125.241 4.50752ZM122.525 3.47271C122.654 3.47271 122.827 3.47271 122.956 3.47271C123.603 3.51582 124.206 3.68829 124.724 3.99011C125.112 4.2057 125.586 4.16258 125.931 3.86076C126.19 3.64518 126.319 3.30024 126.276 2.9553C126.233 2.61036 126.061 2.35166 125.759 2.17919C124.939 1.7049 124.034 1.4462 123.085 1.40308C122.223 1.35996 121.447 1.40308 120.671 1.61867C120.369 1.7049 120.11 1.92049 119.981 2.22231C119.852 2.52413 119.895 2.86907 120.067 3.17089C120.326 3.51582 120.757 3.68829 121.188 3.60206C121.663 3.51582 122.094 3.47271 122.525 3.47271Z" fill="#171753"/>
<defs>
<filter id="filter0_d_140_6187" x="0" y="55" width="237" height="80.0552" filterUnits="userSpaceOnUse" color-interpolation-filters="sRGB">
<feFlood flood-opacity="0" result="BackgroundImageFix"/>
<feColorMatrix in="SourceAlpha" type="matrix" values="0 0 0 0 0 0 0 0 0 0 0 0 0 0 0 0 0 0 127 0" result="hardAlpha"/>
<feOffset dy="4"/>
<feGaussianBlur stdDeviation="2"/>
<feComposite in2="hardAlpha" operator="out"/>
<feColorMatrix type="matrix" values="0 0 0 0 0.0901961 0 0 0 0 0.0901961 0 0 0 0 0.32549 0 0 0 0.25 0"/>
<feBlend mode="normal" in2="BackgroundImageFix" result="effect1_dropShadow_140_6187"/>
<feBlend mode="normal" in="SourceGraphic" in2="effect1_dropShadow_140_6187" result="shape"/>
</filter>
</defs>
</svg>
