<svg width="237" height="135" viewBox="0 0 237 135" fill="none" xmlns="http://www.w3.org/2000/svg">
<g opacity="0.3" filter="url(#filter0_d_140_6178)">
<rect x="4" y="54" width="229" height="72.0552" rx="16" fill="#9BE7C4"/>
</g>
<path d="M109.35 85L104.01 78.18H101.95L108.29 70.4H111.55L105.83 77.4L105.75 76L112.81 85H109.35ZM99.8898 85V70.4H102.73V85H99.8898ZM119.128 85.38C118.168 85.38 117.321 85.2267 116.588 84.92C115.855 84.6133 115.235 84.2 114.728 83.68C114.221 83.1467 113.835 82.5467 113.568 81.88C113.315 81.2133 113.188 80.52 113.188 79.8V79.38C113.188 78.6333 113.321 77.9267 113.588 77.26C113.868 76.58 114.261 75.98 114.768 75.46C115.288 74.9267 115.915 74.5133 116.648 74.22C117.381 73.9133 118.208 73.76 119.128 73.76C120.048 73.76 120.875 73.9133 121.608 74.22C122.341 74.5133 122.961 74.9267 123.468 75.46C123.988 75.98 124.381 76.58 124.648 77.26C124.915 77.9267 125.048 78.6333 125.048 79.38V79.8C125.048 80.52 124.915 81.2133 124.648 81.88C124.395 82.5467 124.015 83.1467 123.508 83.68C123.001 84.2 122.381 84.6133 121.648 84.92C120.915 85.2267 120.075 85.38 119.128 85.38ZM119.128 83C119.808 83 120.381 82.8533 120.848 82.56C121.315 82.2533 121.668 81.8467 121.908 81.34C122.148 80.82 122.268 80.2333 122.268 79.58C122.268 78.9133 122.141 78.3267 121.888 77.82C121.648 77.3 121.288 76.8933 120.808 76.6C120.341 76.2933 119.781 76.14 119.128 76.14C118.475 76.14 117.908 76.2933 117.428 76.6C116.961 76.8933 116.601 77.3 116.348 77.82C116.095 78.3267 115.968 78.9133 115.968 79.58C115.968 80.2333 116.088 80.82 116.328 81.34C116.581 81.8467 116.941 82.2533 117.408 82.56C117.875 82.8533 118.448 83 119.128 83ZM128.002 85V74.14H130.782V85H128.002ZM126.482 76.22V74.14H130.782V76.22H126.482ZM129.022 72.84C128.476 72.84 128.069 72.7 127.802 72.42C127.549 72.1267 127.422 71.7667 127.422 71.34C127.422 70.8867 127.549 70.52 127.802 70.24C128.069 69.96 128.476 69.82 129.022 69.82C129.569 69.82 129.969 69.96 130.222 70.24C130.476 70.52 130.602 70.8867 130.602 71.34C130.602 71.7667 130.476 72.1267 130.222 72.42C129.969 72.7 129.569 72.84 129.022 72.84ZM134.506 85V74.14H137.286V85H134.506ZM132.986 76.22V74.14H137.286V76.22H132.986ZM135.526 72.84C134.98 72.84 134.573 72.7 134.306 72.42C134.053 72.1267 133.926 71.7667 133.926 71.34C133.926 70.8867 134.053 70.52 134.306 70.24C134.573 69.96 134.98 69.82 135.526 69.82C136.073 69.82 136.473 69.96 136.726 70.24C136.98 70.52 137.106 70.8867 137.106 71.34C137.106 71.7667 136.98 72.1267 136.726 72.42C136.473 72.7 136.073 72.84 135.526 72.84ZM78.0246 109V94.4H80.8646V109H78.0246ZM80.4646 109V106.5H86.7646V109H80.4646ZM89.3793 109V98.14H92.1593V109H89.3793ZM87.8593 100.22V98.14H92.1593V100.22H87.8593ZM90.3993 96.84C89.8526 96.84 89.446 96.7 89.1793 96.42C88.926 96.1267 88.7993 95.7667 88.7993 95.34C88.7993 94.8867 88.926 94.52 89.1793 94.24C89.446 93.96 89.8526 93.82 90.3993 93.82C90.946 93.82 91.346 93.96 91.5993 94.24C91.8526 94.52 91.9793 94.8867 91.9793 95.34C91.9793 95.7667 91.8526 96.1267 91.5993 96.42C91.346 96.7 90.946 96.84 90.3993 96.84ZM95.3632 109V98.14H97.5632V102.8H97.3632C97.3632 101.693 97.5099 100.773 97.8032 100.04C98.0965 99.2933 98.5299 98.7333 99.1032 98.36C99.6899 97.9867 100.417 97.8 101.283 97.8H101.403C102.697 97.8 103.677 98.22 104.343 99.06C105.01 99.8867 105.343 101.127 105.343 102.78V109H102.563V102.54C102.563 101.873 102.37 101.333 101.983 100.92C101.61 100.507 101.09 100.3 100.423 100.3C99.7432 100.3 99.1899 100.513 98.7632 100.94C98.3499 101.353 98.1432 101.913 98.1432 102.62V109H95.3632ZM115.932 109L112.292 103.92H110.672L115.292 98.14H118.192L113.932 103.48L113.992 102.08L119.072 109H115.932ZM108.332 109V94.4H111.112V109H108.332ZM125.396 109.14C124.396 109.14 123.569 109.013 122.916 108.76C122.276 108.493 121.796 108.053 121.476 107.44C121.156 106.813 120.996 105.973 120.996 104.92L121.016 95.08H123.616L123.596 105.1C123.596 105.633 123.736 106.047 124.016 106.34C124.309 106.62 124.722 106.76 125.256 106.76H126.956V109.14H125.396ZM119.276 100.18V98.14H126.956V100.18H119.276ZM129.289 109V98.14H131.489V102.74H131.429C131.429 101.18 131.762 100 132.429 99.2C133.096 98.4 134.076 98 135.369 98H135.769V100.42H135.009C134.076 100.42 133.349 100.673 132.829 101.18C132.322 101.673 132.069 102.393 132.069 103.34V109H129.289ZM142.411 109.38C141.477 109.38 140.657 109.22 139.951 108.9C139.257 108.58 138.677 108.153 138.211 107.62C137.757 107.073 137.411 106.467 137.171 105.8C136.944 105.133 136.831 104.453 136.831 103.76V103.38C136.831 102.66 136.944 101.967 137.171 101.3C137.411 100.62 137.757 100.02 138.211 99.5C138.677 98.9667 139.251 98.5467 139.931 98.24C140.611 97.92 141.397 97.76 142.291 97.76C143.464 97.76 144.444 98.02 145.231 98.54C146.031 99.0467 146.631 99.72 147.031 100.56C147.431 101.387 147.631 102.28 147.631 103.24V104.24H138.011V102.54H145.891L145.031 103.38C145.031 102.687 144.931 102.093 144.731 101.6C144.531 101.107 144.224 100.727 143.811 100.46C143.411 100.193 142.904 100.06 142.291 100.06C141.677 100.06 141.157 100.2 140.731 100.48C140.304 100.76 139.977 101.167 139.751 101.7C139.537 102.22 139.431 102.847 139.431 103.58C139.431 104.26 139.537 104.867 139.751 105.4C139.964 105.92 140.291 106.333 140.731 106.64C141.171 106.933 141.731 107.08 142.411 107.08C143.091 107.08 143.644 106.947 144.071 106.68C144.497 106.4 144.771 106.06 144.891 105.66H147.451C147.291 106.407 146.984 107.06 146.531 107.62C146.077 108.18 145.497 108.613 144.791 108.92C144.097 109.227 143.304 109.38 142.411 109.38ZM154.813 109.38C153.88 109.38 153.06 109.22 152.353 108.9C151.66 108.58 151.08 108.153 150.613 107.62C150.16 107.073 149.813 106.467 149.573 105.8C149.346 105.133 149.233 104.453 149.233 103.76V103.38C149.233 102.66 149.346 101.967 149.573 101.3C149.813 100.62 150.16 100.02 150.613 99.5C151.08 98.9667 151.653 98.5467 152.333 98.24C153.013 97.92 153.8 97.76 154.693 97.76C155.866 97.76 156.846 98.02 157.633 98.54C158.433 99.0467 159.033 99.72 159.433 100.56C159.833 101.387 160.033 102.28 160.033 103.24V104.24H150.413V102.54H158.293L157.433 103.38C157.433 102.687 157.333 102.093 157.133 101.6C156.933 101.107 156.626 100.727 156.213 100.46C155.813 100.193 155.306 100.06 154.693 100.06C154.08 100.06 153.56 100.2 153.133 100.48C152.706 100.76 152.38 101.167 152.153 101.7C151.94 102.22 151.833 102.847 151.833 103.58C151.833 104.26 151.94 104.867 152.153 105.4C152.366 105.92 152.693 106.333 153.133 106.64C153.573 106.933 154.133 107.08 154.813 107.08C155.493 107.08 156.046 106.947 156.473 106.68C156.9 106.4 157.173 106.06 157.293 105.66H159.853C159.693 106.407 159.386 107.06 158.933 107.62C158.48 108.18 157.9 108.613 157.193 108.92C156.5 109.227 155.706 109.38 154.813 109.38Z" fill="#171753"/>
<path d="M125.386 56.3927C133.216 54.7572 138.267 50.4441 138.209 45.769H138.238V41.4993H138.209C138.195 40.573 138.007 39.6467 137.573 38.7059C136.675 36.7519 134.924 35.0585 132.622 33.7269L128.251 37.1717V41.4125C129.207 42.0783 129.945 42.8598 130.422 43.7283C129.207 45.9427 126.124 47.7664 121.97 48.4033L120.407 45.0309L111.303 52.2243V56.4651L125.386 60.0546V56.3927Z" fill="#171753"/>
<path d="M125.386 60.4597C125.357 60.4597 125.313 60.4597 125.284 60.4452L111.201 56.8558C111.028 56.8123 110.897 56.6531 110.897 56.465V52.2242C110.897 52.1084 110.955 51.9926 111.042 51.9058L120.146 44.7123C120.247 44.64 120.363 44.611 120.479 44.64C120.595 44.6689 120.696 44.7558 120.754 44.8571L122.187 47.9544C125.834 47.3321 128.7 45.7689 129.959 43.7136C129.511 42.9755 128.859 42.3097 128.02 41.7163C127.919 41.6439 127.846 41.5136 127.846 41.3834V37.1426C127.846 37.0268 127.904 36.911 127.991 36.8242L132.362 33.3794C132.492 33.2781 132.666 33.2636 132.811 33.3505C135.257 34.7689 137.022 36.5636 137.934 38.5031C138.34 39.386 138.571 40.3413 138.6 41.3255C138.615 41.3689 138.629 41.4123 138.629 41.4702V45.7689C138.629 45.8123 138.615 45.8558 138.6 45.8992C138.557 50.7189 133.433 55.0321 125.776 56.711V60.0545C125.776 60.1847 125.719 60.3005 125.617 60.3729C125.559 60.4308 125.472 60.4597 125.386 60.4597ZM111.708 56.161L124.995 59.5479V56.3926C124.995 56.2045 125.125 56.0452 125.313 56.0018C132.84 54.4387 137.876 50.3137 137.819 45.7689C137.819 45.7255 137.833 45.6676 137.847 45.6242V41.6294C137.833 41.586 137.819 41.5426 137.819 41.4992C137.804 40.5584 137.601 39.7044 137.225 38.865C136.429 37.1281 134.851 35.5071 132.666 34.2044L128.671 37.3597V41.2097C129.597 41.89 130.307 42.6715 130.784 43.54C130.857 43.6558 130.857 43.8005 130.784 43.9308C129.453 46.3479 126.182 48.1715 122.042 48.8084C121.869 48.8373 121.695 48.736 121.622 48.5768L120.276 45.6531L111.722 52.4123V56.161H111.708Z" fill="#171753"/>
<path d="M111.303 52.2242L125.386 55.8137L123.822 52.4413C134.157 50.8347 140.337 44.6689 137.572 38.7058C136.675 36.7518 134.924 35.0584 132.622 33.7268L128.251 37.1715C129.308 37.9242 130.133 38.8071 130.596 39.7913C132.319 43.54 128.454 47.4045 121.97 48.4031L120.407 45.0308L111.303 52.2242Z" fill="#ECFFFE"/>
<path d="M125.385 56.219C125.356 56.219 125.313 56.219 125.284 56.2045L111.201 52.6151C111.056 52.5717 110.941 52.4559 110.912 52.3111C110.883 52.1664 110.941 52.0072 111.056 51.9203L120.16 44.7269C120.262 44.6545 120.377 44.6256 120.493 44.6545C120.609 44.6835 120.71 44.7703 120.768 44.8716L122.201 47.969C125.95 47.3322 128.975 45.6243 130.118 43.4822C130.741 42.3388 130.77 41.1085 130.249 39.9506C129.829 39.0532 129.091 38.2282 128.049 37.4901C127.947 37.4177 127.889 37.3019 127.875 37.1716C127.875 37.0414 127.933 36.9256 128.02 36.8532L132.391 33.4085C132.521 33.3072 132.695 33.2927 132.839 33.3795C135.285 34.798 137.051 36.5927 137.963 38.5322C138.962 40.6887 138.889 42.9466 137.746 45.0743C135.749 48.8085 130.799 51.6453 124.43 52.7453L125.776 55.6401C125.834 55.7848 125.82 55.944 125.718 56.0598C125.617 56.1611 125.501 56.219 125.385 56.219ZM112.185 52.0361L124.676 55.2203L123.46 52.6006C123.402 52.4848 123.417 52.3546 123.475 52.2388C123.533 52.123 123.634 52.0506 123.764 52.0361C130.133 51.0519 135.083 48.3019 137.022 44.6835C138.035 42.7874 138.108 40.7756 137.225 38.8506C136.429 37.1137 134.851 35.4927 132.666 34.1901L128.917 37.1427C129.858 37.8809 130.552 38.7059 130.958 39.6032C131.595 40.9927 131.551 42.469 130.813 43.844C129.496 46.2901 126.21 48.1282 122.027 48.7795C121.854 48.8085 121.68 48.7072 121.608 48.548L120.262 45.6243L112.185 52.0361Z" fill="#171753"/>
<path d="M111.303 56.465V52.2241L125.386 55.8136V60.0544L111.303 56.465ZM130.596 39.7912C130.133 38.7926 129.322 37.9097 128.251 37.1715V41.4123C129.192 42.0781 129.93 42.8597 130.408 43.7136C131.103 42.4834 131.219 41.1373 130.596 39.7912Z" fill="#49CE8B"/>
<path d="M125.386 60.4597C125.357 60.4597 125.313 60.4597 125.284 60.4452L111.201 56.8558C111.028 56.8123 110.897 56.6531 110.897 56.465V52.2242C110.897 52.1084 110.955 51.9926 111.057 51.9058C111.158 51.8334 111.274 51.8044 111.404 51.8334L125.487 55.4229C125.661 55.4663 125.791 55.6255 125.791 55.8137V60.0545C125.791 60.1847 125.733 60.286 125.632 60.3729C125.559 60.4308 125.472 60.4597 125.386 60.4597ZM111.708 56.161L124.995 59.5479V56.1176L111.708 52.7308V56.161ZM130.408 44.1189C130.263 44.1189 130.133 44.0465 130.061 43.9163C129.612 43.1202 128.932 42.3821 128.02 41.7452C127.919 41.6729 127.846 41.5426 127.846 41.4123V37.1715C127.846 37.0268 127.933 36.8821 128.063 36.8242C128.194 36.7518 128.353 36.7663 128.483 36.8531C129.641 37.6781 130.48 38.6044 130.958 39.6321C131.609 41.036 131.537 42.5123 130.77 43.9163C130.697 44.0321 130.567 44.1189 130.408 44.1189ZM128.657 41.2097C129.351 41.7163 129.916 42.2808 130.365 42.8886C130.726 41.9044 130.683 40.9202 130.234 39.9505C129.901 39.2413 129.38 38.5755 128.657 37.9676V41.2097Z" fill="#171753"/>
<path d="M109.392 50.3137V46.0729C108.437 45.4071 107.699 44.6255 107.221 43.7571C108.451 41.5426 111.52 39.719 115.674 39.0821L117.237 42.4545L126.341 35.2611V31.0203L112.258 27.4308V31.0926C104.486 32.7137 99.4487 36.9834 99.4342 41.6295H99.4053V45.9137H99.4342C99.4342 46.869 99.6224 47.8242 100.071 48.794C100.968 50.7479 102.72 52.4413 105.021 53.7729L109.392 50.3137Z" fill="#171753"/>
<path d="M105.021 54.1493C104.949 54.1493 104.876 54.1348 104.818 54.0914C102.372 52.673 100.607 50.8927 99.6947 48.9388C99.2605 48.0124 99.0434 47.0282 99.0289 46.0151C99.0145 45.9716 99 45.9282 99 45.8848V41.6006C99 41.5572 99.0145 41.5137 99.0289 41.4703C99.1447 36.694 104.254 32.4243 111.853 30.7453V27.4019C111.853 27.2861 111.911 27.1703 112.012 27.0835C112.113 27.0111 112.229 26.9821 112.359 27.0111L126.442 30.6006C126.616 30.644 126.746 30.8032 126.746 30.9914V35.2322C126.746 35.3479 126.688 35.4637 126.601 35.5506L117.497 42.744C117.396 42.8164 117.28 42.8453 117.164 42.8164C117.049 42.7874 116.947 42.7006 116.889 42.5993L115.457 39.5019C111.809 40.1243 108.943 41.6874 107.699 43.7427C108.147 44.4808 108.799 45.1466 109.638 45.7401C109.739 45.8124 109.812 45.9427 109.812 46.073V50.3138C109.812 50.4295 109.754 50.5453 109.667 50.6322L105.296 54.0769C105.195 54.1203 105.108 54.1493 105.021 54.1493ZM99.8105 45.7835C99.825 45.8269 99.8395 45.8559 99.8395 45.8993C99.8395 46.8401 100.042 47.7519 100.433 48.6058C101.243 50.3427 102.807 51.9637 104.992 53.2664L109.001 50.1256V46.2756C108.075 45.5953 107.366 44.8137 106.888 43.9453C106.816 43.8295 106.816 43.6848 106.888 43.5545C108.22 41.1374 111.491 39.3137 115.63 38.6769C115.804 38.6479 115.978 38.7348 116.05 38.9085L117.396 41.8322L125.95 35.0729V31.3243L112.663 27.9374V31.0927C112.663 31.2808 112.533 31.44 112.345 31.4835C104.876 33.0322 99.8539 37.1137 99.8395 41.6295C99.8395 41.6729 99.825 41.7164 99.8105 41.7598V45.7835Z" fill="#171753"/>
<path d="M105.035 49.5178L109.407 46.0731C108.335 45.3205 107.525 44.4376 107.062 43.4534C105.325 39.7047 109.204 35.8402 115.688 34.827L117.251 38.1994L126.355 31.006L112.272 27.4165L113.835 30.7889C103.501 32.3955 97.321 38.5612 100.085 44.5244C100.968 46.4784 102.72 48.1718 105.035 49.5178Z" fill="#ECFFFE"/>
<path d="M105.035 49.9085C104.963 49.9085 104.905 49.894 104.833 49.8506C102.387 48.4322 100.607 46.6519 99.7091 44.698C98.7105 42.5414 98.7828 40.2835 99.9263 38.1558C101.924 34.4216 106.874 31.5848 113.242 30.4848L111.896 27.5901C111.838 27.4453 111.853 27.2861 111.954 27.1703C112.055 27.0545 112.214 26.9966 112.359 27.0401L126.442 30.6295C126.587 30.6729 126.703 30.7887 126.732 30.9335C126.76 31.0782 126.703 31.2374 126.587 31.3243L117.483 38.5177C117.382 38.5901 117.266 38.619 117.15 38.5901C117.034 38.5611 116.933 38.4743 116.875 38.373L115.442 35.2756C111.693 35.9269 108.668 37.6203 107.525 39.7624C106.917 40.9059 106.874 42.1216 107.409 43.294C107.829 44.1914 108.567 45.0309 109.609 45.769C109.71 45.8414 109.768 45.9572 109.783 46.0874C109.783 46.2177 109.725 46.3335 109.624 46.4059L105.282 49.8217C105.209 49.8795 105.122 49.9085 105.035 49.9085ZM112.967 28.0098L114.183 30.6295C114.241 30.7453 114.226 30.8756 114.168 30.9914C114.11 31.1072 114.009 31.1795 113.879 31.194C107.51 32.1782 102.56 34.9282 100.621 38.5322C99.6078 40.4282 99.5355 42.4401 100.418 44.3651C101.214 46.1164 102.792 47.723 104.978 49.0256L108.726 46.073C107.785 45.3348 107.091 44.4953 106.685 43.598C106.034 42.2085 106.092 40.7322 106.83 39.3572C108.133 36.9111 111.418 35.0585 115.616 34.4072C115.789 34.3782 115.963 34.4651 116.035 34.6387L117.382 37.5624L125.458 31.1795L112.967 28.0098Z" fill="#171753"/>
<path d="M105.021 53.7584C102.72 52.4123 100.968 50.7334 100.071 48.7794C99.6224 47.8242 99.4342 46.8544 99.4342 45.8992H99.4053V41.615H99.4342C99.4342 42.5702 99.6224 43.5544 100.071 44.5242C100.968 46.4781 102.72 48.1715 105.036 49.5031L105.021 53.7584ZM112.258 27.4163V31.0781C112.779 30.9768 113.286 30.8755 113.821 30.7886L112.258 27.4163ZM117.251 42.4544V38.2136L115.688 34.8413V39.0821L117.251 42.4544Z" fill="#49CE8B"/>
<path d="M105.021 54.1493C104.949 54.1493 104.876 54.1348 104.818 54.0914C102.372 52.673 100.607 50.8927 99.6947 48.9388C99.2605 48.0125 99.0434 47.0282 99.0289 46.0151C99.0145 45.9717 99 45.9282 99 45.8848V41.6006C99 41.2677 99.4632 41.094 99.6947 41.3256C99.7671 41.398 99.825 41.4993 99.825 41.6006C99.825 42.5559 100.028 43.4822 100.418 44.3361C101.243 46.1453 102.908 47.8098 105.209 49.1414C105.325 49.2138 105.412 49.344 105.412 49.4888V53.7296C105.412 53.8743 105.339 54.0046 105.209 54.0769C105.166 54.1348 105.093 54.1493 105.021 54.1493ZM99.8105 45.7835C99.825 45.8269 99.8395 45.8559 99.8395 45.8993C99.8395 46.8401 100.042 47.7519 100.433 48.6059C101.186 50.2559 102.633 51.7756 104.63 53.0493V49.7348C102.372 48.3888 100.708 46.7243 99.8105 44.9006V45.7835ZM117.251 42.8453C117.092 42.8453 116.962 42.7585 116.889 42.6138L115.326 39.2414C115.297 39.1835 115.283 39.1256 115.283 39.0677V34.8269C115.283 34.6388 115.413 34.4795 115.601 34.4361C115.789 34.3927 115.963 34.494 116.05 34.6532L117.613 38.0256C117.642 38.0835 117.657 38.1414 117.657 38.1993V42.4401C117.657 42.6282 117.526 42.7874 117.338 42.8309C117.309 42.8453 117.28 42.8453 117.251 42.8453ZM116.079 38.9809L116.846 40.6309V38.2861L116.079 36.6361V38.9809ZM112.258 31.4835C112.214 31.4835 112.171 31.469 112.128 31.469C111.954 31.4111 111.853 31.2519 111.853 31.0637C111.853 31.0493 111.853 31.0348 111.853 31.0203V27.4164C111.853 27.2282 111.983 27.069 112.171 27.0256C112.359 26.9822 112.533 27.0835 112.62 27.2427L114.183 30.6151C114.241 30.7309 114.226 30.8611 114.168 30.9624C114.111 31.0782 114.009 31.1506 113.879 31.1651C113.358 31.2519 112.866 31.3387 112.359 31.4401C112.33 31.4835 112.301 31.4835 112.258 31.4835ZM112.663 29.2256V30.6006C112.851 30.5572 113.054 30.5282 113.242 30.4848L112.663 29.2256Z" fill="#171753"/>
<path d="M87.9968 10.3313L104.427 0.840267C105.37 0.285236 106.203 0.229732 106.869 0.562751L107.535 0.951276L112.253 3.83744C112.253 3.83744 112.309 3.89294 112.253 3.89294C112.031 4.39247 109.811 9.05473 109.589 9.88728C109.478 10.2758 108.812 13.828 107.979 17.9352V19.9888C107.979 21.1544 107.535 22.431 106.869 23.5965C106.036 27.9258 105.315 31.589 105.315 31.7L102.873 37.4168C102.873 37.4723 102.817 37.4723 102.762 37.4723L97.2109 34.2531C97.2109 34.2531 97.1554 34.1976 97.2109 34.1976L97.5994 33.0321C97.7104 32.477 97.7659 31.8665 97.8214 31.2005L90.7166 39.0819H90.6611L85.499 35.8627L85.4435 35.8072C84.8329 35.4187 84.4443 34.6417 84.4443 33.5316V16.5477C84.4443 14.272 86.0541 11.4969 87.9968 10.3313Z" fill="#9BE7C4"/>
<path d="M90.7166 39.6372C90.8276 39.6372 90.9386 39.5817 91.0496 39.4707L97.3219 32.4773C97.2663 32.6438 97.2663 32.8659 97.2108 33.0324L96.8223 34.1424C96.7668 34.3644 96.8223 34.5864 97.0443 34.6975L102.762 38.0276L102.984 37.9721C103.095 37.9166 103.206 37.8611 103.261 37.6946L105.703 31.8668C105.703 31.7558 106.425 28.0926 107.258 23.7633C107.979 22.4868 108.368 21.2102 108.368 20.0446V17.991C109.589 11.7192 109.922 10.1651 109.922 9.99856C110.088 9.33252 111.643 5.94684 112.586 4.05973C112.697 3.83772 112.586 3.6157 112.42 3.5047L107.036 0.230013C106.203 -0.158509 105.259 -0.0475029 104.205 0.507528L87.7747 9.99856C85.721 11.2196 84.0003 14.1058 84.0003 16.5479V33.7539C84.0003 34.975 84.3888 35.863 85.1659 36.3625C85.2214 36.4181 85.2214 36.4181 85.2769 36.4181L90.439 39.5817C90.55 39.6372 90.6056 39.6372 90.7166 39.6372ZM98.2655 30.2572L90.6055 38.7492L85.6655 35.6965L85.3879 35.974L85.61 35.641C85.0549 35.308 84.7774 34.642 84.7774 33.6984V16.5479C84.7774 14.4388 86.3315 11.7747 88.1633 10.7201L104.593 1.22907C105.37 0.785046 106.092 0.674039 106.647 0.951555L107.258 1.34008L111.698 4.11523C111.087 5.3918 109.311 9.11051 109.145 9.94306C109.089 10.2761 108.534 12.9957 107.535 18.0465V18.1575V20.2111C107.535 21.2657 107.147 22.4868 106.48 23.5968L106.425 23.6523V23.7633C105.648 27.8706 104.926 31.4228 104.871 31.8113L102.595 37.1396L97.5994 34.2534L97.9324 33.2544C98.0434 32.6438 98.1545 31.9778 98.1545 31.4228L98.2655 30.2572Z" fill="#171753"/>
<path d="M88.0518 10.332L103.427 1.50696L111.143 6.33573L94.6571 14.9942L91.2157 15.5492L85.8871 12.3856C86.4976 11.553 87.2192 10.8315 88.0518 10.332Z" fill="#ECFFFE"/>
<path d="M91.1601 15.9933L94.8791 15.3828L111.975 6.39129L103.483 1.06299L87.8852 10.0545C87.0526 10.554 86.2755 11.2756 85.6095 12.2191L85.3874 12.5521L91.1601 15.9933ZM94.546 14.6613L91.2711 15.1608L86.4421 12.2746C86.9971 11.6086 87.5522 11.0536 88.2183 10.665L103.372 1.95104L110.365 6.33578L94.546 14.6613Z" fill="#171753"/>
<path d="M89.8837 18.3797C89.8837 18.3797 96.5445 19.9338 96.933 20.1003C97.2661 20.2113 103.816 25.4841 106.036 27.9262C105.592 30.2018 105.315 31.7559 105.259 31.8114L102.817 37.5282C102.817 37.5837 102.761 37.5837 102.706 37.5837L97.1551 34.3646C97.1551 34.3646 97.0996 34.3091 97.1551 34.3091L97.5436 33.1435C97.6546 32.5885 97.7101 31.9779 97.7656 31.3119L90.6608 39.1933H90.6053L85.4432 35.9742L85.3877 35.9186C84.7771 35.5301 84.3886 34.7531 84.3886 33.643V16.5481C84.3886 16.104 84.4441 15.7155 84.5551 15.2715L89.8837 18.3797Z" fill="#171753"/>
<path d="M85.0738 17.7661L89.0156 20.151L88.757 20.5784L84.8152 18.1935L85.0738 17.7661Z" fill="#9BE7C4"/>
<path d="M85.2022 33.1364L89.144 35.5214L88.8854 35.9488L84.9436 33.5638L85.2022 33.1364Z" fill="#9BE7C4"/>
<path d="M93.2696 13.6059L109.7 4.11483C111.642 3.00477 113.252 3.89282 113.252 6.16845V23.3744C113.252 25.65 111.642 28.3697 109.7 29.5353L107.812 30.5898C107.479 30.8118 107.202 31.2004 107.091 31.6444C106.869 32.921 106.147 35.6406 103.483 37.6387C102.983 38.0272 102.539 37.6942 102.706 37.0282C102.872 36.1956 103.094 35.1411 103.094 34.142C103.094 33.698 102.761 33.5315 102.373 33.7535L93.2141 39.0263C91.2713 40.1364 89.6617 39.2483 89.6617 36.9727V19.7667C89.7172 17.4911 91.2713 14.7714 93.2696 13.6059Z" fill="#49CE8B"/>
<path d="M91.6598 39.9144C92.2149 39.9144 92.8255 39.7479 93.4361 39.3594L102.595 34.0866C102.65 34.0311 102.706 34.0311 102.706 34.0311C102.706 34.0311 102.706 34.0866 102.706 34.1421C102.706 35.1412 102.484 36.2512 102.317 36.9728C102.206 37.4723 102.317 37.9163 102.65 38.0828C102.928 38.3048 103.372 38.2493 103.705 37.9718C106.425 35.9182 107.257 33.1985 107.479 31.7555C107.535 31.4779 107.757 31.0894 107.979 30.9784L109.866 29.9239C111.92 28.7583 113.585 25.8166 113.585 23.43V6.22402C113.585 5.00295 113.141 4.0594 112.364 3.55987C111.587 3.11585 110.532 3.17135 109.477 3.78188L93.0475 13.2729C90.9938 14.4385 89.3286 17.3802 89.3286 19.7668V36.9728C89.3286 38.1938 89.7726 39.1374 90.5497 39.6369C90.8827 39.8034 91.2713 39.9144 91.6598 39.9144ZM102.761 33.254C102.595 33.254 102.428 33.3096 102.262 33.4206L93.103 38.6933C92.2704 39.1929 91.5488 39.2484 90.9938 38.9154C90.4387 38.5823 90.1612 37.9163 90.1612 36.9728V19.7668C90.1612 17.6577 91.6598 15.049 93.4916 13.939L109.922 4.44792C110.754 3.94839 111.476 3.89289 112.031 4.22591C112.586 4.55893 112.863 5.22497 112.863 6.16852V23.3745C112.863 25.4836 111.365 28.0923 109.533 29.2023L107.646 30.2569C107.202 30.5344 106.869 31.0339 106.758 31.589C106.536 32.921 105.814 35.4742 103.316 37.3058C103.205 37.3613 103.15 37.4168 103.15 37.4168C103.15 37.4168 103.15 37.3058 103.15 37.1393C103.316 36.3622 103.538 35.2522 103.538 34.1421C103.538 33.8091 103.372 33.4761 103.15 33.3651C102.983 33.3096 102.872 33.254 102.761 33.254Z" fill="#171753"/>
<path d="M98.8205 23.0969C98.8205 24.762 99.9861 25.4835 101.429 24.5955C102.872 23.7629 104.038 21.7093 104.038 20.0442C104.038 18.3791 102.872 17.6576 101.429 18.5456C100.042 19.3782 98.8205 21.4318 98.8205 23.0969Z" fill="#9BE7C4"/>
<path d="M96.0882 18.9799V21.9538L96.8815 21.4963C97.5205 21.1277 98.0273 20.9498 98.4019 20.9625C98.7765 20.9752 99.0519 21.2103 99.2282 21.6678C99.4045 22.0999 99.4926 22.7735 99.4926 23.6885V26.5099L100.451 23.822C100.297 23.7838 100.077 23.8093 99.7901 23.8982C99.5036 23.9618 99.2062 24.0825 98.8977 24.2604C98.1705 24.6798 97.5646 25.2962 97.0798 26.1095C96.595 26.8975 96.3527 27.749 96.3527 28.664C96.3527 29.5282 96.584 30.1319 97.0468 30.475C97.5095 30.7927 98.1705 30.7038 99.0299 30.2081C99.5808 29.8904 100.099 29.4519 100.583 28.8928C101.046 28.3209 101.421 27.5965 101.707 26.7196C101.994 25.8172 102.137 24.7306 102.137 23.4598V22.8116C102.137 21.007 101.927 19.6916 101.509 18.8656C101.068 18.0522 100.44 17.6519 99.6248 17.6646C98.8095 17.6519 97.818 17.9823 96.6501 18.6559L96.0882 18.9799ZM103.393 14.767V17.7408L104.186 17.2833C104.825 16.9148 105.332 16.7368 105.706 16.7496C106.081 16.7623 106.357 16.9974 106.533 17.4549C106.709 17.887 106.797 18.5606 106.797 19.4756V22.2969L107.756 19.609C107.601 19.5709 107.381 19.5963 107.095 19.6853C106.808 19.7488 106.511 19.8696 106.202 20.0475C105.475 20.4669 104.869 21.0832 104.384 21.8966C103.9 22.6845 103.657 23.536 103.657 24.4511C103.657 25.3153 103.889 25.9189 104.351 26.2621C104.814 26.5798 105.475 26.4908 106.334 25.9952C106.885 25.6775 107.403 25.239 107.888 24.6798C108.351 24.1079 108.725 23.3835 109.012 22.5066C109.298 21.6043 109.441 20.5177 109.441 19.2468V18.5987C109.441 16.794 109.232 15.4787 108.813 14.6526C108.373 13.8393 107.745 13.4389 106.929 13.4516C106.114 13.4389 105.123 13.7694 103.955 14.4429L103.393 14.767Z" fill="#171753"/>
<path d="M96.0882 17.2447V20.2186L96.8815 19.761C97.5205 19.3925 98.0273 19.2146 98.4019 19.2273C98.7765 19.24 99.0519 19.4751 99.2282 19.9326C99.4045 20.3647 99.4926 21.0383 99.4926 21.9533V24.7746L100.451 22.0867C100.297 22.0486 100.077 22.074 99.7901 22.163C99.5036 22.2265 99.2062 22.3473 98.8977 22.5252C98.1705 22.9446 97.5646 23.561 97.0798 24.3743C96.595 25.1623 96.3527 26.0137 96.3527 26.9288C96.3527 27.793 96.584 28.3966 97.0468 28.7398C97.5095 29.0575 98.1705 28.9685 99.0299 28.4729C99.5808 28.1552 100.099 27.7167 100.583 27.1575C101.046 26.5856 101.421 25.8612 101.707 24.9843C101.994 24.082 102.137 22.9954 102.137 21.7245V21.0764C102.137 19.2718 101.927 17.9564 101.509 17.1303C101.068 16.317 100.44 15.9166 99.6248 15.9294C98.8095 15.9166 97.818 16.2471 96.6501 16.9206L96.0882 17.2447ZM103.393 13.0318V16.0056L104.186 15.5481C104.825 15.1795 105.332 15.0016 105.706 15.0143C106.081 15.027 106.357 15.2621 106.533 15.7197C106.709 16.1518 106.797 16.8253 106.797 17.7404V20.5617L107.756 17.8738C107.601 17.8357 107.381 17.8611 107.095 17.95C106.808 18.0136 106.511 18.1343 106.202 18.3122C105.475 18.7316 104.869 19.348 104.384 20.1614C103.9 20.9493 103.657 21.8008 103.657 22.7158C103.657 23.58 103.889 24.1837 104.351 24.5268C104.814 24.8445 105.475 24.7556 106.334 24.2599C106.885 23.9422 107.403 23.5038 107.888 22.9446C108.351 22.3727 108.725 21.6483 109.012 20.7714C109.298 19.8691 109.441 18.7825 109.441 17.5116V16.8634C109.441 15.0588 109.232 13.7435 108.813 12.9174C108.373 12.104 107.745 11.7037 106.929 11.7164C106.114 11.7037 105.123 12.0341 103.955 12.7077L103.393 13.0318Z" fill="#171753"/>
<path d="M97.0666 17.9047V17.5652L97.3607 17.3956L97.9226 17.0715C99.1234 16.379 100.163 16.0275 101.029 16.0402C101.91 16.0274 102.582 16.4634 103.047 17.3215L103.047 17.3215L103.049 17.3262C103.492 18.1997 103.703 19.5677 103.703 21.3971V22.0453C103.703 23.3396 103.558 24.4812 103.248 25.4589L103.248 25.4589L103.246 25.4639C102.941 26.3977 102.53 27.2053 102.002 27.8586L101.995 27.8673L101.987 27.8758C101.461 28.4828 100.898 28.9591 100.302 29.3027C99.3828 29.8331 98.6341 29.9495 98.1021 29.5843L98.1021 29.5844L98.098 29.5814C97.585 29.201 97.331 28.5293 97.331 27.5887C97.331 26.6014 97.5949 25.6388 98.1519 24.7318C98.6958 23.8205 99.3757 23.1343 100.17 22.6761C100.271 22.6178 100.371 22.565 100.471 22.5178C100.465 21.6729 100.378 21.0762 100.226 20.7024L100.226 20.7024L100.224 20.6984C100.067 20.2909 99.8338 20.1071 99.5369 20.097C99.2207 20.0863 98.7674 20.2371 98.154 20.5909L97.3607 21.0484L97.0666 21.218V20.8785V17.9047ZM104.371 13.6917V13.3523L104.665 13.1827L105.227 12.8586C106.428 12.166 107.467 11.8146 108.333 11.8273C109.215 11.8145 109.886 12.2505 110.351 13.1086L110.351 13.1085L110.354 13.1132C110.796 13.9867 111.008 15.3548 111.008 17.1842V17.8323C111.008 19.1266 110.863 20.2683 110.552 21.2459L110.553 21.2459L110.551 21.251C110.246 22.1848 109.835 22.9923 109.306 23.6456L109.299 23.6544L109.292 23.6628C108.766 24.2699 108.203 24.7462 107.607 25.0898C106.687 25.6201 105.939 25.7366 105.407 25.3714L105.407 25.3715L105.403 25.3684C104.89 24.9881 104.636 24.3164 104.636 23.3758C104.636 22.3885 104.899 21.4259 105.456 20.5188C106 19.6076 106.68 18.9213 107.475 18.4631C107.576 18.4048 107.676 18.352 107.775 18.3048C107.769 17.46 107.683 16.8632 107.53 16.4894L107.53 16.4895L107.529 16.4855C107.372 16.078 107.138 15.8941 106.841 15.8841C106.525 15.8733 106.072 16.0241 105.459 16.3779L104.665 16.8354L104.371 17.005V16.6656V13.6917Z" fill="#ECFFFE" stroke="#171753" stroke-width="0.678937"/>
<path d="M96.8266 30.2055C95.774 28.7826 96.1085 26.7831 96.6269 25.3909C96.764 25.0229 97.2496 25.0848 97.3313 25.469C97.3431 25.5243 97.3437 25.5815 97.3331 25.6371L96.8089 28.3883C96.7759 28.5619 96.8117 28.7415 96.909 28.889L97.264 29.4278C97.4079 29.6461 97.6643 29.7624 97.9233 29.7268L100.233 29.4096C100.484 29.3502 100.915 29.282 100.637 29.4847C100.379 29.6729 99.2854 30.1561 98.6591 30.4221C98.5695 30.4601 98.473 30.4779 98.3757 30.4748L97.3029 30.4416C97.1165 30.4358 96.9375 30.3554 96.8266 30.2055Z" fill="#171753"/>
<path d="M127.997 10.3313L144.427 0.840267C145.37 0.285236 146.203 0.229732 146.869 0.562751L147.535 0.951276L152.253 3.83744C152.253 3.83744 152.309 3.89294 152.253 3.89294C152.031 4.39247 149.811 9.05473 149.589 9.88728C149.478 10.2758 148.812 13.828 147.979 17.9352V19.9888C147.979 21.1544 147.535 22.431 146.869 23.5965C146.036 27.9258 145.315 31.589 145.315 31.7L142.873 37.4168C142.873 37.4723 142.817 37.4723 142.762 37.4723L137.211 34.2531C137.211 34.2531 137.155 34.1976 137.211 34.1976L137.599 33.0321C137.71 32.477 137.766 31.8665 137.821 31.2005L130.717 39.0819H130.661L125.499 35.8627L125.443 35.8072C124.833 35.4187 124.444 34.6417 124.444 33.5316V16.5477C124.444 14.272 126.054 11.4969 127.997 10.3313Z" fill="#49CE8B"/>
<path d="M130.717 39.6372C130.828 39.6372 130.939 39.5817 131.05 39.4707L137.322 32.4773C137.266 32.6438 137.266 32.8659 137.211 33.0324L136.822 34.1424C136.767 34.3644 136.822 34.5864 137.044 34.6975L142.762 38.0276L142.984 37.9721C143.095 37.9166 143.206 37.8611 143.261 37.6946L145.703 31.8668C145.703 31.7558 146.425 28.0926 147.258 23.7633C147.979 22.4868 148.368 21.2102 148.368 20.0446V17.991C149.589 11.7192 149.922 10.1651 149.922 9.99856C150.088 9.33252 151.643 5.94684 152.586 4.05973C152.697 3.83772 152.586 3.6157 152.42 3.5047L147.036 0.230013C146.203 -0.158509 145.259 -0.0475029 144.205 0.507528L127.775 9.99856C125.721 11.2196 124 14.1058 124 16.5479V33.7539C124 34.975 124.389 35.863 125.166 36.3625C125.221 36.4181 125.221 36.4181 125.277 36.4181L130.439 39.5817C130.55 39.6372 130.606 39.6372 130.717 39.6372ZM138.265 30.2572L130.606 38.7492L125.665 35.6965L125.388 35.974L125.61 35.641C125.055 35.308 124.777 34.642 124.777 33.6984V16.5479C124.777 14.4388 126.332 11.7747 128.163 10.7201L144.593 1.22907C145.37 0.785046 146.092 0.674039 146.647 0.951555L147.258 1.34008L151.698 4.11523C151.087 5.3918 149.311 9.11051 149.145 9.94306C149.089 10.2761 148.534 12.9957 147.535 18.0465V18.1575V20.2111C147.535 21.2657 147.147 22.4868 146.48 23.5968L146.425 23.6523V23.7633C145.648 27.8706 144.926 31.4228 144.871 31.8113L142.595 37.1396L137.599 34.2534L137.932 33.2544C138.043 32.6438 138.154 31.9778 138.154 31.4228L138.265 30.2572Z" fill="#171753"/>
<path d="M128.052 10.332L143.427 1.50696L151.143 6.33573L134.657 14.9942L131.216 15.5492L125.887 12.3856C126.498 11.553 127.219 10.8315 128.052 10.332Z" fill="#ECFFFE"/>
<path d="M131.16 15.9933L134.879 15.3828L151.975 6.39129L143.483 1.06299L127.885 10.0545C127.053 10.554 126.276 11.2756 125.609 12.2191L125.387 12.5521L131.16 15.9933ZM134.546 14.6613L131.271 15.1608L126.442 12.2746C126.997 11.6086 127.552 11.0536 128.218 10.665L143.372 1.95104L150.365 6.33578L134.546 14.6613Z" fill="#171753"/>
<path d="M129.884 18.3797C129.884 18.3797 136.544 19.9338 136.933 20.1003C137.266 20.2113 143.816 25.4841 146.036 27.9262C145.592 30.2018 145.315 31.7559 145.259 31.8114L142.817 37.5282C142.817 37.5837 142.761 37.5837 142.706 37.5837L137.155 34.3646C137.155 34.3646 137.1 34.3091 137.155 34.3091L137.544 33.1435C137.655 32.5885 137.71 31.9779 137.766 31.3119L130.661 39.1933H130.605L125.443 35.9742L125.388 35.9186C124.777 35.5301 124.389 34.7531 124.389 33.643V16.5481C124.389 16.104 124.444 15.7155 124.555 15.2715L129.884 18.3797Z" fill="#171753"/>
<path d="M125.074 17.7661L129.016 20.151L128.757 20.5784L124.815 18.1935L125.074 17.7661Z" fill="#9BE7C4"/>
<path d="M125.202 33.1364L129.144 35.5214L128.885 35.9488L124.944 33.5638L125.202 33.1364Z" fill="#9BE7C4"/>
<path d="M133.27 13.6059L149.7 4.11483C151.642 3.00477 153.252 3.89282 153.252 6.16845V23.3744C153.252 25.65 151.642 28.3697 149.7 29.5353L147.812 30.5898C147.479 30.8118 147.202 31.2004 147.091 31.6444C146.869 32.921 146.147 35.6406 143.483 37.6387C142.983 38.0272 142.539 37.6942 142.706 37.0282C142.872 36.1956 143.094 35.1411 143.094 34.142C143.094 33.698 142.761 33.5315 142.373 33.7535L133.214 39.0263C131.271 40.1364 129.662 39.2483 129.662 36.9727V19.7667C129.717 17.4911 131.271 14.7714 133.27 13.6059Z" fill="#9BE7C4"/>
<path d="M131.66 39.9144C132.215 39.9144 132.825 39.7479 133.436 39.3594L142.595 34.0866C142.65 34.0311 142.706 34.0311 142.706 34.0311C142.706 34.0311 142.706 34.0866 142.706 34.1421C142.706 35.1412 142.484 36.2512 142.317 36.9728C142.206 37.4723 142.317 37.9163 142.65 38.0828C142.928 38.3048 143.372 38.2493 143.705 37.9718C146.425 35.9182 147.257 33.1985 147.479 31.7555C147.535 31.4779 147.757 31.0894 147.979 30.9784L149.866 29.9239C151.92 28.7583 153.585 25.8166 153.585 23.43V6.22402C153.585 5.00295 153.141 4.0594 152.364 3.55987C151.587 3.11585 150.532 3.17135 149.477 3.78188L133.048 13.2729C130.994 14.4385 129.329 17.3802 129.329 19.7668V36.9728C129.329 38.1938 129.773 39.1374 130.55 39.6369C130.883 39.8034 131.271 39.9144 131.66 39.9144ZM142.761 33.254C142.595 33.254 142.428 33.3096 142.262 33.4206L133.103 38.6933C132.27 39.1929 131.549 39.2484 130.994 38.9154C130.439 38.5823 130.161 37.9163 130.161 36.9728V19.7668C130.161 17.6577 131.66 15.049 133.492 13.939L149.922 4.44792C150.754 3.94839 151.476 3.89289 152.031 4.22591C152.586 4.55893 152.863 5.22497 152.863 6.16852V23.3745C152.863 25.4836 151.365 28.0923 149.533 29.2023L147.646 30.2569C147.202 30.5344 146.869 31.0339 146.758 31.589C146.536 32.921 145.814 35.4742 143.316 37.3058C143.205 37.3613 143.15 37.4168 143.15 37.4168C143.15 37.4168 143.15 37.3058 143.15 37.1393C143.316 36.3622 143.538 35.2522 143.538 34.1421C143.538 33.8091 143.372 33.4761 143.15 33.3651C142.983 33.3096 142.872 33.254 142.761 33.254Z" fill="#171753"/>
<path d="M138.82 23.0969C138.82 24.762 139.986 25.4835 141.429 24.5955C142.872 23.7629 144.038 21.7093 144.038 20.0442C144.038 18.3791 142.872 17.6576 141.429 18.5456C140.042 19.3782 138.82 21.4318 138.82 23.0969Z" fill="#9BE7C4"/>
<path d="M136.088 18.9799V21.9538L136.881 21.4963C137.521 21.1277 138.027 20.9498 138.402 20.9625C138.776 20.9752 139.052 21.2103 139.228 21.6678C139.404 22.0999 139.493 22.7735 139.493 23.6885V26.5099L140.451 23.822C140.297 23.7838 140.077 23.8093 139.79 23.8982C139.504 23.9618 139.206 24.0825 138.898 24.2604C138.171 24.6798 137.565 25.2962 137.08 26.1095C136.595 26.8975 136.353 27.749 136.353 28.664C136.353 29.5282 136.584 30.1319 137.047 30.475C137.509 30.7927 138.171 30.7038 139.03 30.2081C139.581 29.8904 140.099 29.4519 140.583 28.8928C141.046 28.3209 141.421 27.5965 141.707 26.7196C141.994 25.8172 142.137 24.7306 142.137 23.4598V22.8116C142.137 21.007 141.927 19.6916 141.509 18.8656C141.068 18.0522 140.44 17.6519 139.625 17.6646C138.81 17.6519 137.818 17.9823 136.65 18.6559L136.088 18.9799ZM143.393 14.767V17.7408L144.186 17.2833C144.825 16.9148 145.332 16.7368 145.706 16.7496C146.081 16.7623 146.357 16.9974 146.533 17.4549C146.709 17.887 146.797 18.5606 146.797 19.4756V22.2969L147.756 19.609C147.601 19.5709 147.381 19.5963 147.095 19.6853C146.808 19.7488 146.511 19.8696 146.202 20.0475C145.475 20.4669 144.869 21.0832 144.384 21.8966C143.9 22.6845 143.657 23.536 143.657 24.4511C143.657 25.3153 143.889 25.9189 144.351 26.2621C144.814 26.5798 145.475 26.4908 146.334 25.9952C146.885 25.6775 147.403 25.239 147.888 24.6798C148.351 24.1079 148.725 23.3835 149.012 22.5066C149.298 21.6043 149.441 20.5177 149.441 19.2468V18.5987C149.441 16.794 149.232 15.4787 148.813 14.6526C148.373 13.8393 147.745 13.4389 146.929 13.4516C146.114 13.4389 145.123 13.7694 143.955 14.4429L143.393 14.767Z" fill="#171753"/>
<path d="M136.088 17.2447V20.2186L136.881 19.761C137.521 19.3925 138.027 19.2146 138.402 19.2273C138.776 19.24 139.052 19.4751 139.228 19.9326C139.404 20.3647 139.493 21.0383 139.493 21.9533V24.7746L140.451 22.0867C140.297 22.0486 140.077 22.074 139.79 22.163C139.504 22.2265 139.206 22.3473 138.898 22.5252C138.171 22.9446 137.565 23.561 137.08 24.3743C136.595 25.1623 136.353 26.0137 136.353 26.9288C136.353 27.793 136.584 28.3966 137.047 28.7398C137.509 29.0575 138.171 28.9685 139.03 28.4729C139.581 28.1552 140.099 27.7167 140.583 27.1575C141.046 26.5856 141.421 25.8612 141.707 24.9843C141.994 24.082 142.137 22.9954 142.137 21.7245V21.0764C142.137 19.2718 141.927 17.9564 141.509 17.1303C141.068 16.317 140.44 15.9166 139.625 15.9294C138.81 15.9166 137.818 16.2471 136.65 16.9206L136.088 17.2447ZM143.393 13.0318V16.0056L144.186 15.5481C144.825 15.1795 145.332 15.0016 145.706 15.0143C146.081 15.027 146.357 15.2621 146.533 15.7197C146.709 16.1518 146.797 16.8253 146.797 17.7404V20.5617L147.756 17.8738C147.601 17.8357 147.381 17.8611 147.095 17.95C146.808 18.0136 146.511 18.1343 146.202 18.3122C145.475 18.7316 144.869 19.348 144.384 20.1614C143.9 20.9493 143.657 21.8008 143.657 22.7158C143.657 23.58 143.889 24.1837 144.351 24.5268C144.814 24.8445 145.475 24.7556 146.334 24.2599C146.885 23.9422 147.403 23.5038 147.888 22.9446C148.351 22.3727 148.725 21.6483 149.012 20.7714C149.298 19.8691 149.441 18.7825 149.441 17.5116V16.8634C149.441 15.0588 149.232 13.7435 148.813 12.9174C148.373 12.104 147.745 11.7037 146.929 11.7164C146.114 11.7037 145.123 12.0341 143.955 12.7077L143.393 13.0318Z" fill="#171753"/>
<path d="M137.067 17.9047V17.5652L137.361 17.3956L137.923 17.0715C139.123 16.379 140.163 16.0275 141.029 16.0402C141.91 16.0274 142.582 16.4634 143.047 17.3215L143.047 17.3215L143.049 17.3262C143.492 18.1997 143.703 19.5677 143.703 21.3971V22.0453C143.703 23.3396 143.558 24.4812 143.248 25.4589L143.248 25.4589L143.246 25.4639C142.941 26.3977 142.53 27.2053 142.002 27.8586L141.995 27.8673L141.987 27.8758C141.461 28.4828 140.898 28.9591 140.302 29.3027C139.383 29.8331 138.634 29.9495 138.102 29.5843L138.102 29.5844L138.098 29.5814C137.585 29.201 137.331 28.5293 137.331 27.5887C137.331 26.6014 137.595 25.6388 138.152 24.7318C138.696 23.8205 139.376 23.1343 140.17 22.6761C140.271 22.6178 140.371 22.565 140.471 22.5178C140.465 21.6729 140.378 21.0762 140.226 20.7024L140.226 20.7024L140.224 20.6984C140.067 20.2909 139.834 20.1071 139.537 20.097C139.221 20.0863 138.767 20.2371 138.154 20.5909L137.361 21.0484L137.067 21.218V20.8785V17.9047ZM144.371 13.6917V13.3523L144.665 13.1827L145.227 12.8586C146.428 12.166 147.467 11.8146 148.333 11.8273C149.215 11.8145 149.886 12.2505 150.351 13.1086L150.351 13.1085L150.354 13.1132C150.796 13.9867 151.008 15.3548 151.008 17.1842V17.8323C151.008 19.1266 150.863 20.2683 150.552 21.2459L150.553 21.2459L150.551 21.251C150.246 22.1848 149.835 22.9923 149.306 23.6456L149.299 23.6544L149.292 23.6628C148.766 24.2699 148.203 24.7462 147.607 25.0898C146.687 25.6201 145.939 25.7366 145.407 25.3714L145.407 25.3715L145.403 25.3684C144.89 24.9881 144.636 24.3164 144.636 23.3758C144.636 22.3885 144.899 21.4259 145.456 20.5188C146 19.6076 146.68 18.9213 147.475 18.4631C147.576 18.4048 147.676 18.352 147.775 18.3048C147.769 17.46 147.683 16.8632 147.53 16.4894L147.53 16.4895L147.529 16.4855C147.372 16.078 147.138 15.8941 146.841 15.8841C146.525 15.8733 146.072 16.0241 145.459 16.3779L144.665 16.8354L144.371 17.005V16.6656V13.6917Z" fill="#ECFFFE" stroke="#171753" stroke-width="0.678937"/>
<path d="M136.827 30.2055C135.774 28.7826 136.108 26.7831 136.627 25.3909C136.764 25.0229 137.25 25.0848 137.331 25.469C137.343 25.5243 137.344 25.5815 137.333 25.6371L136.809 28.3883C136.776 28.5619 136.812 28.7415 136.909 28.889L137.264 29.4278C137.408 29.6461 137.664 29.7624 137.923 29.7268L140.233 29.4096C140.484 29.3502 140.915 29.282 140.637 29.4847C140.379 29.6729 139.285 30.1561 138.659 30.4221C138.57 30.4601 138.473 30.4779 138.376 30.4748L137.303 30.4416C137.117 30.4358 136.937 30.3554 136.827 30.2055Z" fill="#171753"/>
<defs>
<filter id="filter0_d_140_6178" x="0" y="54" width="237" height="80.0552" filterUnits="userSpaceOnUse" color-interpolation-filters="sRGB">
<feFlood flood-opacity="0" result="BackgroundImageFix"/>
<feColorMatrix in="SourceAlpha" type="matrix" values="0 0 0 0 0 0 0 0 0 0 0 0 0 0 0 0 0 0 127 0" result="hardAlpha"/>
<feOffset dy="4"/>
<feGaussianBlur stdDeviation="2"/>
<feComposite in2="hardAlpha" operator="out"/>
<feColorMatrix type="matrix" values="0 0 0 0 0.0901961 0 0 0 0 0.0901961 0 0 0 0 0.32549 0 0 0 0.25 0"/>
<feBlend mode="normal" in2="BackgroundImageFix" result="effect1_dropShadow_140_6178"/>
<feBlend mode="normal" in="SourceGraphic" in2="effect1_dropShadow_140_6178" result="shape"/>
</filter>
</defs>
</svg>
