<svg width="300" height="180" viewBox="0 0 300 180" fill="none" xmlns="http://www.w3.org/2000/svg">
<g clip-path="url(#clip0_1711_1649)">
<rect width="300" height="180" fill="white"/>
<rect opacity="0.65" x="-7" y="-12" width="314" height="204" fill="#49CE8B"/>
<path d="M32.26 136L26.92 129.18H24.86L31.2 121.4H34.46L28.74 128.4L28.66 127L35.72 136H32.26ZM22.8 136V121.4H25.64V136H22.8ZM42.0383 136.38C41.0783 136.38 40.2316 136.227 39.4983 135.92C38.7649 135.613 38.1449 135.2 37.6383 134.68C37.1316 134.147 36.7449 133.547 36.4783 132.88C36.2249 132.213 36.0983 131.52 36.0983 130.8V130.38C36.0983 129.633 36.2316 128.927 36.4983 128.26C36.7783 127.58 37.1716 126.98 37.6783 126.46C38.1983 125.927 38.8249 125.513 39.5583 125.22C40.2916 124.913 41.1183 124.76 42.0383 124.76C42.9583 124.76 43.7849 124.913 44.5183 125.22C45.2516 125.513 45.8716 125.927 46.3783 126.46C46.8983 126.98 47.2916 127.58 47.5583 128.26C47.8249 128.927 47.9583 129.633 47.9583 130.38V130.8C47.9583 131.52 47.8249 132.213 47.5583 132.88C47.3049 133.547 46.9249 134.147 46.4183 134.68C45.9116 135.2 45.2916 135.613 44.5583 135.92C43.8249 136.227 42.9849 136.38 42.0383 136.38ZM42.0383 134C42.7183 134 43.2916 133.853 43.7583 133.56C44.2249 133.253 44.5783 132.847 44.8183 132.34C45.0583 131.82 45.1783 131.233 45.1783 130.58C45.1783 129.913 45.0516 129.327 44.7983 128.82C44.5583 128.3 44.1983 127.893 43.7183 127.6C43.2516 127.293 42.6916 127.14 42.0383 127.14C41.3849 127.14 40.8183 127.293 40.3383 127.6C39.8716 127.893 39.5116 128.3 39.2583 128.82C39.0049 129.327 38.8783 129.913 38.8783 130.58C38.8783 131.233 38.9983 131.82 39.2383 132.34C39.4916 132.847 39.8516 133.253 40.3183 133.56C40.7849 133.853 41.3583 134 42.0383 134ZM50.9125 136V125.14H53.6925V136H50.9125ZM49.3925 127.22V125.14H53.6925V127.22H49.3925ZM51.9325 123.84C51.3858 123.84 50.9792 123.7 50.7125 123.42C50.4592 123.127 50.3325 122.767 50.3325 122.34C50.3325 121.887 50.4592 121.52 50.7125 121.24C50.9792 120.96 51.3858 120.82 51.9325 120.82C52.4792 120.82 52.8792 120.96 53.1325 121.24C53.3858 121.52 53.5125 121.887 53.5125 122.34C53.5125 122.767 53.3858 123.127 53.1325 123.42C52.8792 123.7 52.4792 123.84 51.9325 123.84ZM57.4164 136V125.14H60.1964V136H57.4164ZM55.8964 127.22V125.14H60.1964V127.22H55.8964ZM58.4364 123.84C57.8897 123.84 57.4831 123.7 57.2164 123.42C56.9631 123.127 56.8364 122.767 56.8364 122.34C56.8364 121.887 56.9631 121.52 57.2164 121.24C57.4831 120.96 57.8897 120.82 58.4364 120.82C58.9831 120.82 59.3831 120.96 59.6364 121.24C59.8897 121.52 60.0164 121.887 60.0164 122.34C60.0164 122.767 59.8897 123.127 59.6364 123.42C59.3831 123.7 58.9831 123.84 58.4364 123.84ZM22.8 160V145.4H25.64V160H22.8ZM25.24 160V157.5H31.54V160H25.24ZM34.1547 160V149.14H36.9347V160H34.1547ZM32.6347 151.22V149.14H36.9347V151.22H32.6347ZM35.1747 147.84C34.628 147.84 34.2214 147.7 33.9547 147.42C33.7014 147.127 33.5747 146.767 33.5747 146.34C33.5747 145.887 33.7014 145.52 33.9547 145.24C34.2214 144.96 34.628 144.82 35.1747 144.82C35.7214 144.82 36.1214 144.96 36.3747 145.24C36.628 145.52 36.7547 145.887 36.7547 146.34C36.7547 146.767 36.628 147.127 36.3747 147.42C36.1214 147.7 35.7214 147.84 35.1747 147.84ZM40.1386 160V149.14H42.3386V153.8H42.1386C42.1386 152.693 42.2853 151.773 42.5786 151.04C42.8719 150.293 43.3053 149.733 43.8786 149.36C44.4653 148.987 45.1919 148.8 46.0586 148.8H46.1786C47.4719 148.8 48.4519 149.22 49.1186 150.06C49.7853 150.887 50.1186 152.127 50.1186 153.78V160H47.3386V153.54C47.3386 152.873 47.1453 152.333 46.7586 151.92C46.3853 151.507 45.8653 151.3 45.1986 151.3C44.5186 151.3 43.9653 151.513 43.5386 151.94C43.1253 152.353 42.9186 152.913 42.9186 153.62V160H40.1386ZM60.7073 160L57.0673 154.92H55.4473L60.0673 149.14H62.9673L58.7073 154.48L58.7673 153.08L63.8473 160H60.7073ZM53.1073 160V145.4H55.8873V160H53.1073ZM70.1711 160.14C69.1711 160.14 68.3444 160.013 67.6911 159.76C67.0511 159.493 66.5711 159.053 66.2511 158.44C65.9311 157.813 65.7711 156.973 65.7711 155.92L65.7911 146.08H68.3911L68.3711 156.1C68.3711 156.633 68.5111 157.047 68.7911 157.34C69.0844 157.62 69.4978 157.76 70.0311 157.76H71.7311V160.14H70.1711ZM64.0511 151.18V149.14H71.7311V151.18H64.0511ZM74.0644 160V149.14H76.2644V153.74H76.2044C76.2044 152.18 76.5377 151 77.2044 150.2C77.871 149.4 78.851 149 80.1444 149H80.5444V151.42H79.7844C78.851 151.42 78.1244 151.673 77.6044 152.18C77.0977 152.673 76.8444 153.393 76.8444 154.34V160H74.0644ZM87.1861 160.38C86.2528 160.38 85.4328 160.22 84.7261 159.9C84.0328 159.58 83.4528 159.153 82.9861 158.62C82.5328 158.073 82.1861 157.467 81.9461 156.8C81.7194 156.133 81.6061 155.453 81.6061 154.76V154.38C81.6061 153.66 81.7194 152.967 81.9461 152.3C82.1861 151.62 82.5328 151.02 82.9861 150.5C83.4528 149.967 84.0261 149.547 84.7061 149.24C85.3861 148.92 86.1728 148.76 87.0661 148.76C88.2394 148.76 89.2194 149.02 90.0061 149.54C90.8061 150.047 91.4061 150.72 91.8061 151.56C92.2061 152.387 92.4061 153.28 92.4061 154.24V155.24H82.7861V153.54H90.6661L89.8061 154.38C89.8061 153.687 89.7061 153.093 89.5061 152.6C89.3061 152.107 88.9994 151.727 88.5861 151.46C88.1861 151.193 87.6794 151.06 87.0661 151.06C86.4528 151.06 85.9328 151.2 85.5061 151.48C85.0794 151.76 84.7528 152.167 84.5261 152.7C84.3128 153.22 84.2061 153.847 84.2061 154.58C84.2061 155.26 84.3128 155.867 84.5261 156.4C84.7394 156.92 85.0661 157.333 85.5061 157.64C85.9461 157.933 86.5061 158.08 87.1861 158.08C87.8661 158.08 88.4194 157.947 88.8461 157.68C89.2728 157.4 89.5461 157.06 89.6661 156.66H92.2261C92.0661 157.407 91.7594 158.06 91.3061 158.62C90.8528 159.18 90.2728 159.613 89.5661 159.92C88.8728 160.227 88.0794 160.38 87.1861 160.38ZM99.5884 160.38C98.6551 160.38 97.8351 160.22 97.1284 159.9C96.4351 159.58 95.8551 159.153 95.3884 158.62C94.9351 158.073 94.5884 157.467 94.3484 156.8C94.1218 156.133 94.0084 155.453 94.0084 154.76V154.38C94.0084 153.66 94.1218 152.967 94.3484 152.3C94.5884 151.62 94.9351 151.02 95.3884 150.5C95.8551 149.967 96.4284 149.547 97.1084 149.24C97.7884 148.92 98.5751 148.76 99.4684 148.76C100.642 148.76 101.622 149.02 102.408 149.54C103.208 150.047 103.808 150.72 104.208 151.56C104.608 152.387 104.808 153.28 104.808 154.24V155.24H95.1884V153.54H103.068L102.208 154.38C102.208 153.687 102.108 153.093 101.908 152.6C101.708 152.107 101.402 151.727 100.988 151.46C100.588 151.193 100.082 151.06 99.4684 151.06C98.8551 151.06 98.3351 151.2 97.9084 151.48C97.4818 151.76 97.1551 152.167 96.9284 152.7C96.7151 153.22 96.6084 153.847 96.6084 154.58C96.6084 155.26 96.7151 155.867 96.9284 156.4C97.1418 156.92 97.4684 157.333 97.9084 157.64C98.3484 157.933 98.9084 158.08 99.5884 158.08C100.268 158.08 100.822 157.947 101.248 157.68C101.675 157.4 101.948 157.06 102.068 156.66H104.628C104.468 157.407 104.162 158.06 103.708 158.62C103.255 159.18 102.675 159.613 101.968 159.92C101.275 160.227 100.482 160.38 99.5884 160.38Z" fill="#171753"/>
<path d="M229.286 36.074L231.703 37.4613V86.3299C231.703 88.6346 230.091 91.4316 228.078 92.5951L145.578 140.233C144.571 140.815 143.654 140.86 143.005 140.479L140.611 139.092C139.962 138.712 139.559 137.906 139.559 136.743V87.8738L229.286 36.074Z" fill="#ECFFFE"/>
<path d="M143.967 141.24C144.571 141.24 145.198 141.061 145.847 140.681L228.346 93.0428C230.517 91.7898 232.217 88.8362 232.217 86.3301V37.4614C232.217 37.2824 232.128 37.1034 231.949 37.0139L229.532 35.6266C229.376 35.5371 229.174 35.5371 229.017 35.6266L139.291 87.4265C139.134 87.516 139.022 87.695 139.022 87.874V136.743C139.022 138.063 139.492 139.047 140.342 139.54L142.737 140.927C142.759 140.927 142.781 140.949 142.781 140.949C143.139 141.151 143.542 141.24 143.967 141.24ZM231.166 37.7523V86.3301C231.166 88.4558 229.666 91.0738 227.809 92.1254L145.31 139.786C144.527 140.233 143.766 140.323 143.251 140.032C143.229 140.032 143.206 140.01 143.206 140.01L140.857 138.667C140.342 138.376 140.051 137.705 140.051 136.787V88.1873L229.286 36.6783L231.166 37.7523Z" fill="#171753"/>
<path d="M231.703 37.4615V86.3301C231.703 88.6348 230.091 91.4318 228.078 92.5953L145.578 140.233C143.587 141.397 141.953 140.457 141.953 138.152V89.2613L231.703 37.4615Z" fill="#ECFFFE"/>
<path d="M152.001 123.202C152.091 123.202 152.18 123.179 152.27 123.134L177.868 108.366C178.114 108.232 178.203 107.896 178.069 107.65C177.935 107.404 177.599 107.315 177.353 107.449L151.755 122.217C151.509 122.351 151.419 122.687 151.554 122.933C151.643 123.09 151.822 123.202 152.001 123.202ZM167.552 118.391C167.642 118.391 167.731 118.368 167.821 118.324L187.802 106.778C188.049 106.643 188.138 106.308 188.004 106.062C187.87 105.816 187.534 105.726 187.288 105.86L167.306 117.406C167.06 117.54 166.971 117.876 167.105 118.122C167.194 118.301 167.373 118.391 167.552 118.391ZM161.421 113.58C161.511 113.58 161.6 113.558 161.69 113.513L175.451 105.569C175.697 105.435 175.787 105.1 175.652 104.853C175.518 104.607 175.183 104.518 174.936 104.652L161.175 112.595C160.929 112.73 160.84 113.065 160.974 113.311C161.063 113.49 161.22 113.58 161.421 113.58ZM161.421 109.418C161.511 109.418 161.6 109.396 161.69 109.351L180.978 98.2078C181.224 98.0735 181.313 97.7379 181.179 97.4918C181.045 97.2456 180.709 97.1561 180.463 97.2904L161.175 108.434C160.929 108.568 160.84 108.903 160.974 109.15C161.063 109.329 161.242 109.418 161.421 109.418ZM152.001 106.532C152.091 106.532 152.18 106.509 152.27 106.464L177.868 91.6964C178.114 91.5622 178.203 91.2266 178.069 90.9804C177.935 90.7343 177.599 90.6448 177.353 90.779L151.755 105.547C151.509 105.681 151.419 106.017 151.554 106.263C151.643 106.442 151.822 106.532 152.001 106.532ZM181.806 105.972C181.895 105.972 181.985 105.95 182.074 105.905L186.684 103.242C186.93 103.108 187.019 102.772 186.885 102.526C186.751 102.28 186.415 102.191 186.169 102.325L181.537 105.01C181.291 105.144 181.202 105.48 181.336 105.726C181.448 105.883 181.627 105.972 181.806 105.972ZM192.255 104.115C192.345 104.115 192.434 104.093 192.524 104.048L204.987 96.8652C205.233 96.731 205.323 96.3954 205.188 96.1492C205.054 95.9031 204.719 95.8136 204.472 95.9478L192.009 103.13C191.763 103.265 191.673 103.6 191.808 103.846C191.897 104.025 192.076 104.115 192.255 104.115ZM180.396 102.638C180.486 102.638 180.575 102.616 180.665 102.571L197.849 92.6586C198.095 92.5243 198.185 92.1887 198.051 91.9426C197.916 91.6964 197.581 91.6069 197.335 91.7412L180.15 101.654C179.904 101.788 179.814 102.124 179.949 102.37C180.038 102.526 180.217 102.638 180.396 102.638ZM167.552 101.721C167.642 101.721 167.731 101.698 167.821 101.654L187.802 90.1078C188.049 89.9735 188.138 89.6379 188.004 89.3917C187.87 89.1456 187.534 89.0561 187.288 89.1904L167.306 100.736C167.06 100.871 166.971 101.206 167.105 101.452C167.194 101.631 167.351 101.721 167.552 101.721ZM190.957 100.714C191.047 100.714 191.136 100.692 191.226 100.647L200.78 95.1423C201.027 95.0081 201.116 94.6724 200.982 94.4263C200.848 94.1802 200.512 94.0906 200.266 94.2249L190.711 99.7293C190.465 99.8636 190.376 100.199 190.51 100.445C190.599 100.602 190.778 100.714 190.957 100.714ZM161.421 96.9324C161.511 96.9324 161.6 96.91 161.69 96.8652L175.429 88.8995C175.675 88.7652 175.764 88.4296 175.63 88.1834C175.496 87.9373 175.16 87.8478 174.914 87.9821L161.153 95.9255C160.907 96.0597 160.817 96.3954 160.952 96.6415C161.063 96.8205 161.242 96.9324 161.421 96.9324ZM185.722 95.3884C185.811 95.3884 185.901 95.3661 185.99 95.3213L193.419 91.0252C193.665 90.8909 193.754 90.5553 193.62 90.3091C193.486 90.063 193.15 89.9735 192.904 90.1078L185.475 94.4039C185.229 94.5382 185.14 94.8738 185.274 95.1199C185.364 95.2989 185.543 95.3884 185.722 95.3884ZM209.238 94.3144C209.328 94.3144 209.417 94.292 209.507 94.2473L215.996 90.5105C216.242 90.3763 216.332 90.0406 216.197 89.7945C216.063 89.5484 215.727 89.4589 215.481 89.5931L208.992 93.3299C208.746 93.4641 208.657 93.7998 208.791 94.0459C208.88 94.2249 209.059 94.3144 209.238 94.3144ZM161.421 92.7481C161.511 92.7481 161.6 92.7257 161.69 92.681L180.978 81.5378C181.224 81.4036 181.313 81.068 181.179 80.8218C181.045 80.5757 180.709 80.4862 180.463 80.6204L161.175 91.7636C160.929 91.8978 160.84 92.2335 160.974 92.4796C161.063 92.6586 161.22 92.7481 161.421 92.7481ZM205.121 92.5243C205.211 92.5243 205.3 92.502 205.39 92.4572L222.015 82.858C222.261 82.7238 222.351 82.3881 222.216 82.142C222.082 81.8959 221.746 81.8064 221.5 81.9406L204.875 91.5398C204.629 91.6741 204.54 92.0097 204.674 92.2558C204.763 92.4348 204.942 92.5243 205.121 92.5243ZM201.496 90.4434C201.586 90.4434 201.675 90.421 201.765 90.3763L206.688 87.5345C206.934 87.4003 207.023 87.0647 206.889 86.8185C206.755 86.5724 206.419 86.4829 206.173 86.6171L201.25 89.4589C201.004 89.5931 200.915 89.9288 201.049 90.1749C201.138 90.3539 201.317 90.4434 201.496 90.4434ZM152.001 89.8616C152.091 89.8616 152.18 89.8393 152.27 89.7945L177.868 75.0265C178.114 74.8922 178.203 74.5566 178.069 74.3105C177.935 74.0643 177.599 73.9748 177.353 74.1091L151.755 88.8771C151.509 89.0113 151.419 89.347 151.554 89.5931C151.643 89.7721 151.822 89.8616 152.001 89.8616ZM181.806 89.3246C181.895 89.3246 181.985 89.3022 182.074 89.2575L186.684 86.5724C186.93 86.4381 187.019 86.1025 186.885 85.8564C186.751 85.6102 186.415 85.5207 186.169 85.655L181.56 88.3177C181.313 88.452 181.224 88.7876 181.358 89.0337C181.448 89.2127 181.627 89.3246 181.806 89.3246ZM198.095 88.2506C198.185 88.2506 198.274 88.2282 198.364 88.1834L209.619 81.6945C209.865 81.5602 209.954 81.2246 209.82 80.9785C209.686 80.7323 209.35 80.6428 209.104 80.7771L197.849 87.266C197.603 87.4003 197.514 87.7359 197.648 87.9821C197.737 88.1611 197.894 88.2506 198.095 88.2506ZM192.255 87.445C192.345 87.445 192.434 87.4227 192.524 87.3779L204.987 80.1953C205.233 80.061 205.323 79.7254 205.188 79.4793C205.054 79.2331 204.719 79.1436 204.472 79.2779L192.009 86.4605C191.763 86.5948 191.673 86.9304 191.808 87.1765C191.897 87.3555 192.076 87.445 192.255 87.445ZM180.396 85.9682C180.486 85.9682 180.575 85.9459 180.665 85.9011L197.849 75.9887C198.095 75.8544 198.185 75.5188 198.051 75.2726C197.916 75.0265 197.581 74.937 197.335 75.0713L180.15 84.9837C179.904 85.118 179.814 85.4536 179.949 85.6997C180.038 85.8564 180.217 85.9682 180.396 85.9682ZM167.552 85.0508C167.642 85.0508 167.731 85.0285 167.821 84.9837L187.802 73.4378C188.049 73.3036 188.138 72.9679 188.004 72.7218C187.87 72.4757 187.534 72.3862 187.288 72.5204L167.306 84.0663C167.06 84.2006 166.971 84.5362 167.105 84.7823C167.194 84.9613 167.373 85.0508 167.552 85.0508ZM190.957 84.0439C191.047 84.0439 191.136 84.0216 191.226 83.9768L200.78 78.4724C201.027 78.3381 201.116 78.0025 200.982 77.7563C200.848 77.5102 200.512 77.4207 200.266 77.555L190.711 83.0594C190.465 83.1937 190.376 83.5293 190.51 83.7754C190.599 83.9321 190.778 84.0439 190.957 84.0439ZM185.722 78.7185C185.811 78.7185 185.901 78.6961 185.99 78.6514L193.419 74.3552C193.665 74.221 193.754 73.8853 193.62 73.6392C193.486 73.3931 193.15 73.3036 192.904 73.4378L185.475 77.734C185.229 77.8682 185.14 78.2039 185.274 78.45C185.364 78.629 185.543 78.7185 185.722 78.7185ZM209.238 77.6445C209.328 77.6445 209.417 77.6221 209.507 77.5773L215.996 73.8406C216.242 73.7063 216.332 73.3707 216.197 73.1246C216.063 72.8784 215.727 72.7889 215.481 72.9232L208.992 76.6599C208.746 76.7942 208.657 77.1298 208.791 77.376C208.88 77.555 209.059 77.6445 209.238 77.6445ZM205.121 75.8544C205.211 75.8544 205.3 75.832 205.39 75.7873L222.015 66.1881C222.261 66.0538 222.351 65.7182 222.216 65.472C222.082 65.2259 221.746 65.1364 221.5 65.2707L204.875 74.8699C204.629 75.0041 204.54 75.3398 204.674 75.5859C204.763 75.7649 204.942 75.8544 205.121 75.8544ZM201.496 73.7735C201.586 73.7735 201.675 73.7511 201.765 73.7063L206.688 70.8646C206.934 70.7304 207.023 70.3947 206.889 70.1486C206.755 69.9025 206.419 69.8129 206.173 69.9472L201.25 72.7889C201.004 72.9232 200.915 73.2588 201.049 73.5049C201.138 73.684 201.317 73.7735 201.496 73.7735ZM181.806 72.6547C181.895 72.6547 181.985 72.6323 182.074 72.5875L186.684 69.9025C186.93 69.7682 187.019 69.4326 186.885 69.1864C186.751 68.9403 186.415 68.8508 186.169 68.985L181.537 71.6701C181.291 71.8044 181.202 72.14 181.336 72.3862C181.448 72.5652 181.627 72.6547 181.806 72.6547ZM198.073 71.5806C198.162 71.5806 198.252 71.5583 198.341 71.5135L209.596 65.0245C209.843 64.8903 209.932 64.5546 209.798 64.3085C209.664 64.0624 209.328 63.9729 209.082 64.1071L197.827 70.5961C197.581 70.7304 197.491 71.066 197.625 71.3121C197.737 71.4911 197.894 71.5806 198.073 71.5806ZM192.255 70.7751C192.345 70.7751 192.434 70.7527 192.524 70.708L204.987 63.5254C205.233 63.3911 205.323 63.0555 205.188 62.8093C205.054 62.5632 204.719 62.4737 204.472 62.608L192.009 69.7906C191.763 69.9248 191.673 70.2605 191.808 70.5066C191.897 70.6856 192.076 70.7751 192.255 70.7751ZM190.957 67.374C191.047 67.374 191.136 67.3516 191.226 67.3069L200.78 61.8024C201.027 61.6682 201.116 61.3325 200.982 61.0864C200.848 60.8403 200.512 60.7508 200.266 60.885L190.711 66.3895C190.465 66.5237 190.376 66.8593 190.51 67.1055C190.599 67.2845 190.778 67.374 190.957 67.374ZM209.238 60.9745C209.328 60.9745 209.417 60.9521 209.507 60.9074L215.996 57.1706C216.242 57.0364 216.332 56.7007 216.197 56.4546C216.063 56.2085 215.727 56.119 215.481 56.2532L208.992 59.99C208.746 60.1242 208.657 60.4599 208.791 60.706C208.88 60.885 209.059 60.9745 209.238 60.9745ZM205.121 59.1845C205.211 59.1845 205.3 59.1621 205.39 59.1173L222.015 49.5181C222.261 49.3839 222.351 49.0482 222.216 48.8021C222.082 48.556 221.746 48.4665 221.5 48.6007L204.875 58.1999C204.629 58.3342 204.54 58.6698 204.674 58.9159C204.763 59.095 204.942 59.1845 205.121 59.1845Z" fill="#171753"/>
<path d="M143.967 141.24C144.571 141.24 145.198 141.039 145.847 140.681L228.346 93.043C230.517 91.7899 232.217 88.8363 232.217 86.3303V37.4616C232.217 37.2826 232.128 37.1036 231.949 37.0141C231.792 36.9246 231.591 36.9246 231.434 37.0141L141.707 88.814C141.551 88.9035 141.439 89.0825 141.439 89.2615V138.13C141.439 139.048 141.663 139.808 142.11 140.345C142.558 140.927 143.206 141.24 143.967 141.24ZM231.166 38.3566V86.3303C231.166 88.456 229.666 91.0739 227.809 92.1256L145.31 139.786C144.817 140.054 144.348 140.211 143.945 140.211C143.52 140.211 143.162 140.054 142.916 139.741C142.625 139.383 142.468 138.846 142.468 138.175V89.5747L231.166 38.3566Z" fill="#171753"/>
<path d="M143.162 73.6432L225.661 26.0052C226.668 25.4234 227.585 25.3787 228.234 25.7591L230.628 27.1464C231.3 27.5268 231.703 28.3323 231.703 29.4734V37.4616L141.976 89.2615L139.559 87.8742V79.886C139.559 77.6037 141.17 74.8067 143.162 73.6432Z" fill="#9BE7C4"/>
<path d="M141.953 89.7985C142.043 89.7985 142.132 89.7762 142.222 89.7314L231.949 37.9092C232.105 37.8197 232.217 37.6406 232.217 37.4616V29.4735C232.217 28.1757 231.747 27.1912 230.897 26.6989L228.503 25.3116C228.48 25.2892 228.458 25.2892 228.436 25.2892C227.608 24.8193 226.511 24.9312 225.393 25.5577L142.893 73.1957C140.723 74.4488 139.022 77.4024 139.022 79.9085V87.8966C139.022 88.0756 139.112 88.2546 139.291 88.3441L141.707 89.7314C141.774 89.7762 141.864 89.7985 141.953 89.7985ZM231.166 37.1708L141.953 88.6798L140.074 87.5833V79.9085C140.074 77.7828 141.573 75.1648 143.43 74.1131L225.93 26.4528C226.713 26.0053 227.474 25.9158 227.988 26.2066C228.011 26.229 228.033 26.229 228.055 26.2514L230.382 27.5939C230.897 27.9072 231.166 28.5561 231.166 29.4735V37.1708Z" fill="#171753"/>
<path d="M152.649 83.1084L141.976 89.2617L139.559 87.8744V79.8863C139.559 78.7004 140.007 77.3578 140.701 76.1943L152.649 83.1084Z" fill="#171753"/>
<path d="M141.954 89.7985C142.043 89.7985 142.133 89.7762 142.222 89.7314L152.895 83.5781C153.052 83.4886 153.164 83.3096 153.164 83.1306C153.164 82.9515 153.074 82.7725 152.895 82.683L140.947 75.7913C140.701 75.6571 140.387 75.7242 140.231 75.9703C139.447 77.2681 139 78.6778 139 79.9308V87.919C139 88.098 139.089 88.277 139.268 88.3665L141.685 89.7538C141.775 89.7762 141.864 89.7985 141.954 89.7985ZM151.598 83.1082L141.954 88.6797L140.074 87.5833V79.9084C140.074 78.991 140.365 77.9394 140.902 76.9325L151.598 83.1082Z" fill="#171753"/>
<path d="M141.953 89.2611V81.2729C141.953 78.9682 143.564 76.1712 145.578 75.0077L228.078 27.3921C230.069 26.2509 231.703 27.1907 231.703 29.473V37.4612L141.953 89.2611Z" fill="#9BE7C4"/>
<path d="M141.953 89.7984C142.043 89.7984 142.132 89.776 142.222 89.7313L231.949 37.909C232.105 37.8195 232.217 37.6405 232.217 37.4615V29.4733C232.217 27.5938 231.233 26.3855 229.689 26.3855C229.085 26.3855 228.458 26.5645 227.809 26.9449L145.31 74.5829C143.139 75.8359 141.439 78.7895 141.439 81.2956V89.2837C141.439 89.4628 141.528 89.6418 141.707 89.7313C141.774 89.776 141.864 89.7984 141.953 89.7984ZM231.166 37.1706L142.49 88.3663V81.2956C142.49 79.1699 143.99 76.5519 145.847 75.5003L228.346 27.8623C228.838 27.5938 229.286 27.4371 229.711 27.4371C230.629 27.4371 231.188 28.1979 231.188 29.4957V37.1706H231.166Z" fill="#171753"/>
<path d="M148.768 80.9459C149.461 80.5431 150.021 79.5809 150.021 78.7754C150.021 77.9699 149.461 77.6566 148.768 78.0594C148.074 78.4621 147.515 79.4243 147.515 80.2298C147.515 81.0354 148.074 81.3486 148.768 80.9459ZM154.742 76.0456C154.742 75.24 155.301 74.2779 155.995 73.8751C156.689 73.4724 157.248 73.808 157.248 74.5911C157.248 75.3743 156.689 76.3588 155.995 76.7616C155.301 77.1644 154.742 76.8511 154.742 76.0456ZM161.969 71.8837C161.969 71.0781 162.529 70.116 163.222 69.7132C163.916 69.3105 164.475 69.6461 164.475 70.4292C164.475 71.2348 163.916 72.1969 163.222 72.5997C162.551 73.0025 161.969 72.6668 161.969 71.8837Z" fill="#171753"/>
<path d="M148.208 81.6395C148.477 81.6395 148.745 81.55 149.036 81.3933C149.886 80.9011 150.558 79.7375 150.558 78.7754C150.558 77.6342 149.528 77.0077 148.522 77.5895C147.671 78.0817 147 79.2453 147 80.2298C147 80.6326 147.112 80.9682 147.313 81.2143C147.515 81.4829 147.85 81.6395 148.208 81.6395ZM149.327 78.395C149.484 78.395 149.506 78.6635 149.506 78.7754C149.506 79.3795 149.036 80.1851 148.499 80.4983C148.164 80.6997 148.141 80.5878 148.096 80.5654C148.074 80.5431 148.029 80.4536 148.029 80.2298C148.029 79.6257 148.499 78.8201 149.036 78.5069C149.193 78.4174 149.282 78.395 149.327 78.395ZM155.436 77.4552C155.704 77.4552 155.973 77.3657 156.264 77.2091C157.114 76.7168 157.785 75.5533 157.785 74.5911C157.785 73.45 156.756 72.8234 155.749 73.4052C154.899 73.8975 154.227 75.061 154.227 76.0455C154.227 76.4483 154.339 76.7839 154.541 77.0301C154.742 77.321 155.078 77.4552 155.436 77.4552ZM156.577 74.2107C156.733 74.2107 156.756 74.4792 156.756 74.5911C156.756 75.1953 156.286 76.0008 155.749 76.3141C155.592 76.4036 155.503 76.4259 155.458 76.4259C155.391 76.4259 155.369 76.4036 155.369 76.3812C155.346 76.3588 155.301 76.2693 155.301 76.0455C155.301 75.4414 155.771 74.6359 156.308 74.3226C156.42 74.2331 156.51 74.2107 156.577 74.2107ZM162.685 73.2933C162.954 73.2933 163.222 73.2038 163.513 73.0472C164.364 72.5549 165.035 71.3914 165.035 70.4068C165.035 69.2657 164.006 68.6392 162.999 69.2209C162.148 69.7132 161.477 70.8767 161.477 71.8613C161.455 72.7116 161.947 73.2933 162.685 73.2933ZM163.804 70.0488C163.961 70.0488 163.983 70.3173 163.983 70.4292C163.983 71.0334 163.513 71.8389 162.976 72.1522C162.82 72.2417 162.73 72.264 162.685 72.264C162.529 72.264 162.506 71.9955 162.506 71.8836C162.506 71.2795 162.976 70.474 163.513 70.1607C163.648 70.0488 163.759 70.0488 163.804 70.0488Z" fill="#171753"/>
<path d="M174.755 84.7884L190.539 94.0158V155.059L174.755 145.832V84.7884Z" fill="#49CE8B"/>
<path d="M188.943 76.4482L204.727 85.6756L190.539 94.0159L174.755 84.7884L188.943 76.4482Z" fill="#49CE8B"/>
<path d="M209.337 112.471L225.121 121.698L204.727 133.588V115.133L209.337 112.471Z" fill="#49CE8B"/>
<path d="M188.943 76.2614L204.727 85.4889L190.539 93.8291L174.755 84.6016L188.943 76.2614Z" fill="#ECFFFE"/>
<path d="M209.518 112.877L225.302 122.104L204.907 133.816V115.538L209.518 112.877Z" fill="#ECFFFE"/>
<path d="M209.337 111.761L205.436 114.068V86.208V85.3207L204.727 84.9658L188.943 75.7383L174.755 83.9011L174.046 84.4335V85.1433V146.187L190.539 155.769L225.83 135.362V121.343L209.337 111.761ZM205.436 115.487L209.337 113.181L223.702 121.698L205.259 132.345V115.487H205.436ZM189.83 153.994L175.465 145.477V85.8531L189.83 94.3707V153.994ZM175.997 84.7884L188.943 77.3354L203.308 85.8531L190.539 93.306L175.997 84.7884Z" fill="#171753"/>
<path d="M219.442 70.3923C219.442 70.3923 221.312 46.3188 225.333 43.977C229.354 41.6352 231.691 67.8632 231.691 67.8632L227.577 82.2886L221.593 85.4734L219.442 70.3923Z" fill="#9BE7C4"/>
<path d="M221.219 86.2222L218.975 70.4854V70.3917C219.162 67.8626 221.032 45.9435 225.146 43.6017C225.613 43.3207 226.081 43.3207 226.549 43.6017C230.102 45.4751 231.972 65.6145 232.159 67.8626V67.9563L227.951 82.6627L221.219 86.2222ZM219.91 70.3917L221.967 84.7234L227.203 82.007L231.224 67.7689C230.476 58.9638 228.419 45.5688 226.081 44.3511C225.894 44.2574 225.8 44.2574 225.613 44.3511C222.528 46.2245 220.471 63.741 219.91 70.3917Z" fill="#171753"/>
<path d="M243.472 40.7924C243.752 39.0126 244.127 37.1392 244.127 37.1392L239.825 34.4227C239.825 34.4227 239.732 34.4227 239.545 34.2354C238.89 33.9544 238.142 33.9544 237.394 34.4227C228.792 39.3873 227.857 83.5065 227.857 83.5065C227.857 83.5065 227.67 80.8837 227.109 77.6052L227.389 77.0432L226.08 65.6153L223.93 64.3039C223.275 63.9292 222.714 63.4609 222.153 63.0862C221.405 62.5241 220.563 62.5241 219.535 63.0862C213.177 67.0204 210.652 97.1825 210.652 97.1825L215.234 99.9927L219.441 92.2179L248.334 75.7318C248.241 75.5444 247.119 52.5013 243.472 40.7924Z" fill="#ECFFFE"/>
<path d="M236.366 73.6707L248.241 66.458C247.493 58.8707 246.278 48.9415 244.22 42.4782C244.501 40.6984 244.875 38.825 244.875 38.825L240.574 36.1085C240.574 36.1085 240.48 36.1085 240.293 35.9212C239.639 35.6402 238.891 35.6402 238.143 36.1085C233.093 39.1997 230.662 56.0605 229.54 69.1745L236.366 73.6707Z" fill="#49CE8B"/>
<path d="M217.104 96.6206L226.642 74.2332L227.483 72.0787L226.922 67.3952L224.772 66.0838C224.117 65.7091 223.556 65.2407 222.995 64.866C222.247 64.304 221.406 64.304 220.377 64.866C215.702 67.7699 213.177 84.7244 212.055 93.6231L217.104 96.6206Z" fill="#49CE8B"/>
<path d="M215.234 100.461L210.185 97.3697V97.0887C210.279 95.871 212.803 66.6456 219.255 62.7114C220.284 62.0557 221.406 62.0557 222.341 62.7114C222.528 62.8987 222.808 62.9924 222.995 63.1797C223.369 63.4607 223.743 63.7418 224.117 63.9291L226.455 65.4278L227.67 75.4507C228.418 62.3367 230.569 37.8885 237.114 34.1416C237.956 33.6733 238.797 33.5796 239.639 33.9543C239.826 34.048 239.919 34.048 239.919 34.1416L244.501 37.0454L244.408 37.3264C244.408 37.3264 244.127 39.1062 243.847 40.886C247.493 52.5949 248.615 75.4507 248.615 75.638V75.919L219.629 92.4988L215.515 100.274L215.234 100.461ZM211.214 96.8077L215.047 99.2432L219.068 91.7495L247.774 75.357C247.587 72.6405 246.465 51.8455 243.005 40.9796V40.886V40.7923C243.192 39.3872 243.473 37.9821 243.566 37.4201L239.545 34.891C239.545 34.891 239.452 34.7973 239.265 34.7037C238.797 34.5163 238.236 34.5163 237.582 34.891C229.26 39.6682 228.325 83.1317 228.231 83.6001H227.296C227.296 83.6001 227.109 80.9773 226.548 77.6988V77.5114L226.829 76.9494L225.52 65.8962L223.556 64.6785C223.182 64.3975 222.715 64.1164 222.341 63.8354C222.154 63.6481 221.873 63.5544 221.686 63.3671C221.032 62.8987 220.377 62.8987 219.629 63.3671C214.019 66.9266 211.494 93.7166 211.214 96.8077Z" fill="#171753"/>
<path d="M215.234 99.8994C215.234 99.8994 217.759 69.7372 224.117 65.803C230.475 61.8688 232.439 86.317 232.439 86.317C232.439 86.317 233.374 42.1979 241.976 37.2333C250.579 32.2687 252.823 78.355 252.823 78.355L215.234 99.8994Z" fill="#ECFFFE"/>
<path d="M215.235 100.461L214.767 100.086C214.861 98.8685 217.385 69.362 223.837 65.4278C224.772 64.8658 225.707 64.7721 226.549 65.2405C229.541 66.7392 231.317 74.7013 232.159 80.3216C232.72 67.957 234.87 40.7923 241.696 36.8581C242.631 36.2961 243.566 36.2961 244.501 36.7644C251.327 40.5113 253.197 76.8557 253.291 78.3545V78.6355L215.235 100.461ZM225.427 65.8962C225.053 65.8962 224.679 65.9899 224.305 66.2709C218.881 69.6431 216.263 94.0913 215.796 99.0558L252.356 78.1671C251.701 65.1468 249.177 40.3239 244.127 37.6075C243.566 37.2328 242.912 37.3265 242.257 37.7011C233.842 42.4784 232.907 85.3798 232.907 85.8482L231.972 86.4102C231.598 81.352 229.728 67.8633 226.175 66.0835C225.894 65.9899 225.614 65.8962 225.427 65.8962Z" fill="#171753"/>
<path d="M252.169 70.8612L252.917 69.6435L249.364 67.8637L248.99 67.6764C247.774 67.1143 246.278 67.0207 244.502 68.051C236.741 72.5473 237.021 83.3195 228.98 89.6891C220.939 96.1524 217.573 93.9043 217.573 93.9043L216.638 100.461L220.565 102.522L232.066 94.3727L254.694 78.7296C254.881 78.7296 254.133 74.2333 252.169 70.8612Z" fill="#ECFFFE"/>
<path d="M253.104 72.3599L253.852 71.1422L250.299 69.3624L249.925 69.1751C248.709 68.613 247.213 68.5194 245.436 69.5497C237.676 74.046 237.956 84.8182 229.915 91.1878C221.873 97.6511 218.507 95.403 218.507 95.403L217.946 99.8056L223.463 98.8689L232.533 93.5296L255.722 80.2283C255.815 80.2283 255.067 75.7321 253.104 72.3599Z" fill="#49CE8B"/>
<path d="M220.565 102.99L216.17 100.742L217.199 93.1547L217.947 93.5293C217.947 93.5293 221.219 95.4028 228.793 89.3141C232.627 86.223 234.497 82.1951 236.367 78.2609C238.33 74.0457 240.201 70.0178 244.315 67.5824C246.091 66.552 247.774 66.4583 249.27 67.114C249.364 67.2077 249.457 67.2077 249.644 67.3014L253.572 69.3621L252.637 70.7672C254.507 74.1394 255.161 78.3546 255.255 78.5419L255.348 78.8229L232.44 94.7471L220.565 102.99ZM217.292 100.274L220.752 102.053L231.972 94.0914L254.413 78.5419C254.226 77.5115 253.385 73.952 251.795 71.1419L251.608 70.8609L252.263 69.8305L249.177 68.2381C249.177 68.2381 248.99 68.1444 248.896 68.0507H248.803C247.587 67.4887 246.185 67.5824 244.689 68.4254C240.855 70.6735 238.985 74.5141 237.115 78.6356C235.245 82.6635 233.281 86.785 229.261 89.9698C222.902 95.0281 219.349 94.8407 217.947 94.4661L217.292 100.274Z" fill="#171753"/>
<path d="M258.808 80.6964C258.808 80.6964 256.283 65.6153 248.522 70.0178C240.762 74.5141 241.042 85.2863 233.001 91.6559C225.053 98.1192 221.687 95.8711 221.687 95.8711L220.752 102.428L258.808 80.6964Z" fill="#ECFFFE"/>
<path d="M217.666 93.9974L221.686 95.8708L220.751 102.521L216.731 100.461L217.666 93.9974Z" fill="#ECFFFE"/>
<path d="M221.126 102.802L259.275 80.9771L259.182 80.6961C259.088 80.3214 257.592 71.4226 253.104 69.2682C251.608 68.5188 249.925 68.7061 248.148 69.7365C244.034 72.0783 242.164 76.1062 240.201 80.415C238.331 84.3492 236.46 88.3771 232.627 91.4683C225.801 96.9949 222.435 95.9645 221.874 95.7771L221.78 95.6835L221.219 95.3088L217.199 93.4353L216.17 100.929L220.191 102.99L220.658 103.177L221.126 102.802ZM218.04 94.6531L221.126 96.1518L220.284 101.772L217.199 100.18L218.04 94.6531ZM233.375 92.0303C237.395 88.8455 239.359 84.7239 241.229 80.6961C243.193 76.5745 244.969 72.734 248.803 70.4859C250.299 69.6428 251.608 69.4555 252.824 70.1112C256.377 71.7973 257.966 78.9163 258.34 80.5087L221.313 101.585L221.967 96.6202C223.37 96.9949 227.017 97.0885 233.375 92.0303Z" fill="#171753"/>
<path d="M258.813 80.8347C258.813 80.8347 256.289 65.7536 248.528 70.1562C240.767 74.6524 241.048 85.4246 233.006 91.7943C224.965 98.2576 221.599 96.0095 221.599 96.0095L220.664 102.566L258.813 80.8347Z" fill="#171753"/>
<path d="M256.121 101.321V83.8048L266.126 89.6124V107.129L256.121 101.321Z" fill="#ECFFFE"/>
<path d="M256.121 83.8046L265.191 78.559L275.196 84.2729L266.032 89.5185L256.121 83.8046Z" fill="#ECFFFE"/>
<path d="M256 84.1519L264.976 79L274.981 84.7139L265.724 89.7722L256 84.1519Z" fill="#5ED9D1"/>
<path d="M265.191 78.0906L255.653 83.5235V101.508L266.032 107.503L275.57 101.977V84.0856L265.191 78.0906ZM265.658 106.379L256.495 101.134V84.5539L265.658 89.7995V106.379ZM256.962 83.8046L265.191 79.0273L274.354 84.2729L266.126 89.0501L256.962 83.8046Z" fill="#171753"/>
<path d="M243.03 108.628V98.1366L253.035 103.944V114.342L243.03 108.628Z" fill="#ECFFFE"/>
<path d="M243.03 98.1367L252.194 92.8911L262.105 98.6987L253.035 103.944L243.03 98.1367Z" fill="#ECFFFE"/>
<path d="M243 98.1519L251.976 93L261.888 98.8076L252.724 103.772L243 98.1519Z" fill="#5ED9D1"/>
<path d="M229.94 116.028V111.438L239.945 117.246V121.835L229.94 116.028Z" fill="#ECFFFE"/>
<path d="M229.94 111.345L239.01 106.099L249.015 111.907L239.851 117.152L229.94 111.345Z" fill="#ECFFFE"/>
<path d="M230 111.152L238.976 106L248.981 111.808L239.724 116.772L230 111.152Z" fill="#5ED9D1"/>
<path d="M239.01 105.631L229.472 111.157V116.309L239.851 122.304L249.388 116.777V111.626L239.01 105.631ZM239.477 121.086L230.314 115.841V112.188L239.477 117.433V121.086ZM230.781 111.345L239.01 106.567L248.173 111.813L239.945 116.59L230.781 111.345Z" fill="#171753"/>
<path d="M252.194 92.423L242.656 97.9496V108.815L253.035 114.81L262.573 109.284V98.418L252.194 92.423ZM252.568 113.593L243.498 108.347V98.8863L252.661 104.132V113.593H252.568ZM243.872 98.1369L252.1 93.3597L261.264 98.6053L253.035 103.383L243.872 98.1369Z" fill="#171753"/>
<g opacity="0.9">
<path d="M57.1182 37.6446L57.1182 38.9332L54.116 38.9332L54.116 37.6446L57.1182 37.6446ZM51.0066 37.6446L51.0066 38.9332L48.0044 38.9332L48.0044 37.6446L51.0066 37.6446ZM45.0022 37.6446L45.0022 38.9332L42 38.9332L42 37.6446L45.0022 37.6446Z" fill="#171753"/>
<path d="M50.1488 30.6646L50.1488 33.6713L48.8621 33.6713L48.8621 30.6646L50.1488 30.6646ZM50.1488 36.7855L50.1488 39.7923L48.8621 39.7923L48.8621 36.7855L50.1488 36.7855ZM50.1488 42.9064L50.1488 45.9132L48.8621 45.9132L48.8621 42.9064L50.1488 42.9064Z" fill="#171753"/>
<path d="M59.5838 21L59.5838 24.0068L58.2972 24.0068L58.2972 21L59.5838 21ZM59.5838 27.1209L59.5838 30.1277L58.2972 30.1277L58.2972 27.1209L59.5838 27.1209Z" fill="#171753"/>
</g>
<g opacity="0.9">
<path d="M94.4675 78.2522L94.4675 76.9662L97.4713 76.9662L97.4713 78.2522L94.4675 78.2522ZM100.582 78.2522L100.582 76.9662L103.586 76.9662L103.586 78.2522L100.582 78.2522ZM106.59 78.2522L106.59 76.9662L109.594 76.9662L109.594 78.2522L106.59 78.2522Z" fill="#171753"/>
<path d="M101.441 85.2179L101.441 82.2172L102.728 82.2172L102.728 85.2179L101.441 85.2179ZM101.441 79.1093L101.441 76.1086L102.728 76.1086L102.728 79.1093L101.441 79.1093ZM101.441 73.0008L101.441 70.0001L102.728 70.0001L102.728 73.0008L101.441 73.0008Z" fill="#171753"/>
<path d="M92 94.8628L92 91.8621L93.2874 91.8621L93.2874 94.8628L92 94.8628ZM92 88.7542L92 85.7535L93.2874 85.7535L93.2874 88.7542L92 88.7542Z" fill="#171753"/>
</g>
<g opacity="0.9">
<path d="M270.467 51.2522L270.467 49.9662L273.471 49.9662L273.471 51.2522L270.467 51.2522ZM276.582 51.2522L276.582 49.9662L279.586 49.9662L279.586 51.2522L276.582 51.2522ZM282.59 51.2522L282.59 49.9662L285.594 49.9662L285.594 51.2522L282.59 51.2522Z" fill="#171753"/>
<path d="M277.441 58.2179L277.441 55.2172L278.728 55.2172L278.728 58.2179L277.441 58.2179ZM277.441 52.1093L277.441 49.1086L278.728 49.1086L278.728 52.1093L277.441 52.1093ZM277.441 46.0008L277.441 43.0001L278.728 43.0001L278.728 46.0008L277.441 46.0008Z" fill="#171753"/>
<path d="M268 67.8628L268 64.8621L269.287 64.8621L269.287 67.8628L268 67.8628ZM268 61.7542L268 58.7535L269.287 58.7535L269.287 61.7542L268 61.7542Z" fill="#171753"/>
</g>
<g opacity="0.9">
<path d="M158.645 149.466L159.933 149.466L159.933 152.468L158.645 152.468L158.645 149.466ZM158.645 155.577L159.933 155.577L159.933 158.579L158.645 158.579L158.645 155.577ZM158.645 161.582L159.933 161.582L159.933 164.584L158.645 164.584L158.645 161.582Z" fill="#171753"/>
<path d="M151.665 156.435L154.671 156.435L154.671 157.722L151.665 157.722L151.665 156.435ZM157.785 156.435L160.792 156.435L160.792 157.722L157.785 157.722L157.785 156.435ZM163.906 156.435L166.913 156.435L166.913 157.722L163.906 157.722L163.906 156.435Z" fill="#171753"/>
<path d="M142 147L145.007 147L145.007 148.287L142 148.287L142 147ZM148.121 147L151.128 147L151.128 148.287L148.121 148.287L148.121 147Z" fill="#171753"/>
</g>
<path d="M272.408 20.1018L269.408 17.7267L268.658 21.4769L261.658 20.4768C260.158 21.1019 256.157 27.1022 255.907 28.7273L258.407 34.6026L254.907 36.2277C254.907 36.2277 254.907 36.2277 254.907 36.3527L257.907 38.7278C258.282 39.1029 258.908 39.1029 259.658 38.8528L268.533 35.2276C270.033 34.6026 271.408 32.8525 271.658 31.2274L273.033 21.8519C273.033 21.1019 272.908 20.4768 272.408 20.1018ZM261.658 28.3523C261.783 27.4772 262.533 26.4772 263.408 26.2271L267.533 24.6021L267.283 25.8521L267.908 26.3522L263.658 32.4775L263.033 31.9775L261.158 32.8525L261.658 28.3523Z" fill="#9BE7C4"/>
<path d="M258.782 39.3529C258.407 39.3529 257.907 39.2279 257.657 38.9779L254.532 36.4778V35.9777L254.782 35.8527L257.907 34.4776L255.407 28.8523V28.7273C255.657 26.9772 259.783 20.8519 261.408 20.1018H261.533L268.283 21.1019L268.908 17.4767L269.408 17.3517L269.658 17.4767L272.658 19.8518C273.158 20.2268 273.408 20.9769 273.283 21.9769L271.908 31.3525C271.658 33.1026 270.158 34.9777 268.533 35.6027L259.658 39.2279C259.532 39.3529 259.157 39.3529 258.782 39.3529ZM255.657 36.4778L258.157 38.4779C258.532 38.7279 258.907 38.7279 259.533 38.4779L268.408 34.8527C269.783 34.3526 271.033 32.6025 271.283 31.2275L272.658 21.8519C272.783 21.2269 272.658 20.7269 272.283 20.4769L269.783 18.4767L269.158 21.8519L268.783 22.102L261.783 21.1019C260.408 21.8519 256.782 27.3522 256.407 28.8523L258.907 34.7277V35.1027L258.657 35.2277L255.657 36.4778ZM261.033 33.2276L260.658 32.9776V32.7275L261.283 28.4773C261.408 27.4773 262.283 26.3522 263.158 25.9772L267.908 24.1021L267.533 25.8522C267.533 25.8522 267.658 25.8522 267.658 25.9772C268.033 26.3522 268.283 26.4772 268.033 26.8522L263.783 33.1026H263.658C263.533 33.1026 263.533 33.1026 263.033 32.7275L262.908 32.6025L261.033 33.2276ZM266.908 25.2271L263.533 26.6022C262.908 26.8522 262.158 27.7273 262.158 28.4773L261.658 32.1025L262.908 31.4775C263.158 31.3525 263.158 31.4775 263.658 31.7275L267.408 26.3522C267.033 25.9772 266.908 25.9772 267.033 25.7272L266.908 25.2271Z" fill="#171753"/>
<path d="M255.782 25.227L254.407 34.7275C254.157 36.3526 255.157 37.1026 256.657 36.4776L265.532 32.8524C267.033 32.2274 268.408 30.4773 268.658 28.9772L270.033 19.4767C270.283 17.8516 269.283 17.1015 267.783 17.7266L258.907 21.3518C257.407 21.9768 256.032 23.7269 255.782 25.227ZM265.282 21.9768C266.032 21.6018 266.657 22.1018 266.532 22.9769L265.782 28.2272C265.657 29.1022 264.907 29.9772 264.157 30.3523L259.282 32.3524C258.532 32.7274 257.907 32.2274 258.032 31.3523L258.782 26.102C258.907 25.227 259.657 24.3519 260.407 23.9769L265.282 21.9768Z" fill="white"/>
<path d="M255.782 37.1025C255.407 37.1025 255.032 36.9775 254.657 36.7275C254.157 36.3525 253.907 35.6025 254.032 34.6024L255.407 25.1019C255.657 23.3518 257.157 21.4767 258.782 20.8516L267.658 17.2264C268.533 16.8514 269.283 16.9764 269.783 17.3514C270.283 17.7265 270.533 18.4765 270.408 19.4766L269.033 28.9771C268.783 30.7272 267.283 32.6023 265.658 33.2273L256.782 36.8525C256.532 36.9775 256.157 37.1025 255.782 37.1025ZM256.157 25.3519L254.782 34.8524C254.657 35.4775 254.782 35.9775 255.157 36.2275C255.407 36.4775 255.907 36.4775 256.532 36.2275L265.407 32.6023C266.783 32.1023 268.033 30.3522 268.283 28.9771L269.658 19.4766C269.783 18.8515 269.658 18.3515 269.283 18.1015C269.033 17.8515 268.533 17.8515 267.908 18.1015L259.032 21.7267C257.657 22.2267 256.407 23.8518 256.157 25.3519ZM258.657 32.7273C258.407 32.7273 258.157 32.6023 257.907 32.4773C257.532 32.2273 257.407 31.7273 257.532 31.2272L258.282 25.9769C258.407 24.9769 259.282 23.8518 260.157 23.4768L265.032 21.4767C265.533 21.2267 266.033 21.3517 266.408 21.6017C266.783 21.8517 266.908 22.3517 266.783 22.8518L266.033 28.102C265.908 29.1021 265.032 30.2272 264.157 30.6022L259.282 32.6023C259.157 32.7273 258.907 32.7273 258.657 32.7273ZM265.407 22.3517L260.532 24.3518C259.907 24.6019 259.157 25.4769 259.157 26.1019L258.407 31.3522C258.407 31.6022 258.407 31.8523 258.532 31.8523C258.657 31.9773 258.907 31.9773 259.032 31.8523L263.907 29.8521C264.532 29.6021 265.282 28.7271 265.282 28.102L266.033 22.8518C266.033 22.6017 266.033 22.3517 265.908 22.3517C265.783 22.2267 265.533 22.2267 265.407 22.3517Z" fill="#171753"/>
<path d="M267.903 30.9718L267.363 31.6604L270.314 33.9746L270.854 33.286L267.903 30.9718Z" fill="#171753"/>
<path d="M259.609 24.3855L259.069 25.074L262.02 27.3883L262.56 26.6997L259.609 24.3855Z" fill="#171753"/>
<path d="M257.876 35.7232L257.336 36.4118L260.287 38.7261L260.827 38.0375L257.876 35.7232Z" fill="#171753"/>
<path d="M270.004 20.7837L269.464 21.4723L272.415 23.7865L272.955 23.098L270.004 20.7837Z" fill="#171753"/>
<path d="M261.126 165.474L263.626 162.724L259.876 161.724L261.376 154.724C260.876 153.224 255.125 148.723 253.5 148.473L247.5 150.599L246.125 146.973C246.125 146.973 246.125 146.973 246 146.973L243.5 149.723C243.125 150.098 243 150.724 243.25 151.474L246.125 160.599C246.625 162.099 248.25 163.599 249.875 163.974L259.251 165.974C260.126 165.974 260.751 165.849 261.126 165.474ZM253.625 154.099C254.5 154.224 255.375 155.099 255.625 155.974L257.001 160.099L255.75 159.849L255.25 160.474L249.5 155.849L250 155.224L249.375 153.224L253.625 154.099Z" fill="#5ED9D1"/>
<path d="M260.001 166.224C259.751 166.224 259.501 166.224 259.376 166.099L250 164.099C248.25 163.724 246.5 162.099 246 160.474L243.125 151.348C242.875 150.473 243 149.723 243.5 149.223L246.125 146.223L246.625 146.348L246.75 146.598L248 149.848L253.751 147.848H253.876C255.626 148.223 261.501 152.848 262.001 154.474V154.599L260.376 161.224L264.001 162.099L264.126 162.599L264.001 162.849L261.501 165.599C261.126 166.099 260.626 166.224 260.001 166.224ZM246 147.473L243.875 149.848C243.625 150.098 243.5 150.598 243.75 151.223L246.625 160.349C247.125 161.724 248.625 163.099 250 163.474L259.376 165.474C260.001 165.599 260.501 165.474 260.751 165.224L262.876 162.849L259.501 161.974L259.376 161.599L260.876 154.599C260.251 153.223 255.001 149.098 253.501 148.723L247.5 150.848L247.125 150.723L247 150.473L246 147.473ZM255.251 160.724C255.126 160.724 255.126 160.724 255.001 160.599L249.125 155.849V155.724C249.125 155.599 249.125 155.599 249.5 155.099L249.625 154.974L248.875 153.098L249.25 152.723H249.5L253.751 153.598C254.751 153.849 255.751 154.724 256.126 155.724L257.751 160.599L256.126 160.099L256.001 160.224C255.626 160.599 255.376 160.724 255.251 160.724ZM250.125 155.724L255.251 159.849C255.626 159.474 255.626 159.349 255.876 159.474L256.376 159.599L255.251 156.099C255.001 155.349 254.251 154.724 253.501 154.474L250 153.724L250.5 154.974C250.5 155.224 250.5 155.224 250.125 155.724Z" fill="#171753"/>
<path d="M257.251 148.473L247.875 146.473C246.375 146.098 245.5 147.098 246 148.598L249 157.724C249.5 159.224 251.126 160.724 252.751 161.099L262.126 163.099C263.626 163.474 264.501 162.474 264.001 160.974L261.001 151.848C260.376 150.223 258.751 148.723 257.251 148.473ZM259.751 158.099C260.001 158.974 259.501 159.474 258.751 159.224L253.626 158.099C252.751 157.974 251.876 157.099 251.626 156.349L250 151.348C249.75 150.473 250.25 149.973 251.001 150.223L256.126 151.348C257.001 151.473 257.876 152.348 258.126 153.098L259.751 158.099Z" fill="white"/>
<path d="M262.501 163.474C262.251 163.474 262.001 163.474 261.876 163.349L252.501 161.349C250.75 160.974 249 159.349 248.5 157.724L245.5 148.723C245.25 147.848 245.375 147.098 245.75 146.598C246.25 146.098 247 145.848 247.875 146.098L257.251 148.098C259.001 148.473 260.751 150.098 261.251 151.723L264.251 160.849C264.501 161.724 264.376 162.474 264.001 162.974C263.626 163.224 263.126 163.474 262.501 163.474ZM247.25 146.723C246.875 146.723 246.625 146.848 246.375 146.973C246.125 147.223 246.125 147.723 246.25 148.348L249.25 157.474C249.75 158.849 251.25 160.224 252.626 160.599L262.001 162.599C262.626 162.724 263.126 162.599 263.376 162.349C263.626 162.099 263.626 161.599 263.501 160.974L260.501 151.848C260.001 150.473 258.501 149.098 257.126 148.723L247.75 146.723C247.625 146.848 247.375 146.723 247.25 146.723ZM259.126 159.724C259.001 159.724 258.876 159.724 258.751 159.724L253.626 158.599C252.626 158.349 251.625 157.474 251.375 156.474L249.75 151.473C249.625 150.973 249.625 150.473 250 150.098C250.25 149.723 250.75 149.598 251.375 149.723L256.501 150.848C257.501 151.098 258.501 151.973 258.751 152.973L260.376 157.974C260.501 158.474 260.501 158.974 260.126 159.349C259.751 159.599 259.501 159.724 259.126 159.724ZM250.75 150.473C250.625 150.473 250.5 150.473 250.375 150.598C250.25 150.723 250.25 150.848 250.375 151.098L252 156.099C252.251 156.724 253.001 157.474 253.751 157.599L258.876 158.724C259.126 158.724 259.376 158.724 259.376 158.599C259.501 158.474 259.501 158.349 259.376 158.099L257.751 153.098C257.501 152.473 256.751 151.723 256.001 151.598L250.875 150.473C250.875 150.598 250.75 150.473 250.75 150.473Z" fill="#171753"/>
<path d="M249.949 159.523L247.43 162.301L248.078 162.888L250.597 160.111L249.949 159.523Z" fill="#171753"/>
<path d="M257.126 151.711L254.608 154.49L255.256 155.078L257.774 152.298L257.126 151.711Z" fill="#171753"/>
<path d="M245.988 149.212L243.47 151.992L244.119 152.579L246.637 149.8L245.988 149.212Z" fill="#171753"/>
<path d="M259.929 162.253L257.411 165.033L258.06 165.62L260.578 162.841L259.929 162.253Z" fill="#171753"/>
</g>
<defs>
<clipPath id="clip0_1711_1649">
<rect width="300" height="180" fill="white"/>
</clipPath>
</defs>
</svg>
