<svg width="240" height="264" viewBox="0 0 240 264" fill="none" xmlns="http://www.w3.org/2000/svg">
<rect width="240" height="264" rx="24" fill="#FDD2D2"/>
<path d="M88.3884 124.026L83.2426 122.822V117.128L72.8415 116.8V112.749L65.287 115.048L56.0902 114.391L53.0246 112.53V116.362L47.9883 117.785L44.8132 117.238L42.6235 117.019V121.398L39.9959 122.493L37.3683 124.026V134.974C37.3683 135.084 37.3683 135.193 37.3683 135.303L38.6821 138.15C38.901 138.478 39.4485 138.697 40.1054 138.588L42.6235 138.15C42.6235 138.15 42.2951 141.872 42.6235 142.091L46.565 144.39C47.003 144.609 47.6599 144.609 47.9883 144.39L50.0685 143.186C50.9444 143.514 51.9298 143.843 52.9152 144.171V145.923C52.6962 146.251 53.1341 146.689 53.6816 146.689L58.7179 147.456C59.3748 147.565 59.9222 147.346 60.1412 147.018L60.9076 145.485C62.2214 145.595 63.6447 145.595 64.9585 145.485L65.7249 147.018C65.9439 147.346 66.4913 147.565 67.1482 147.456L72.1846 146.689C72.732 146.58 73.0604 146.251 73.0604 145.923V144.062C74.0458 143.733 74.9217 143.514 75.7976 143.076L77.8778 144.281C78.3157 144.5 78.9726 144.5 79.3011 144.281L83.2426 141.982C83.571 141.872 83.352 138.04 83.352 138.04L85.7607 138.369C86.4176 138.478 86.9651 138.259 87.184 137.931L88.4978 135.084C88.4978 135.193 88.3884 124.026 88.3884 124.026Z" fill="#FFA6A6"/>
<path d="M59.046 148.113C58.9365 148.113 58.827 148.113 58.7175 148.113L53.6812 147.346C53.1338 147.237 52.6959 147.018 52.5864 146.689C52.4769 146.47 52.4769 146.251 52.5864 146.032C52.5864 145.813 52.5864 145.376 52.5864 144.719C51.7105 144.5 50.9441 144.171 50.2872 143.952L48.4259 145.047C47.8785 145.376 47.0026 145.376 46.4552 145.047L42.4042 142.638C42.1853 142.529 41.8568 142.31 42.0758 138.806L40.1051 139.135C39.2292 139.244 38.4628 138.916 38.2438 138.368L36.93 135.522C36.8205 135.303 36.8205 135.084 36.93 134.974V123.807L37.149 123.697L39.7766 122.165L42.0758 121.179V116.69H42.5137L44.7034 116.909L47.769 117.457L52.3674 116.143V112.421L52.9148 112.202L53.1338 112.421L56.0899 114.172L65.1772 114.829L72.9506 112.53L73.2791 112.858V113.077V116.69L83.6802 117.019V117.457V122.822L88.388 123.916H88.826V124.354C88.9354 135.631 88.826 135.741 88.826 135.85L87.5121 138.697C87.2932 139.244 86.4173 139.573 85.6509 139.463L83.7896 139.135C83.8991 142.638 83.6802 142.748 83.4612 142.967L79.5197 145.266C78.9723 145.595 78.0964 145.595 77.549 145.266L75.6877 144.171C75.0308 144.39 74.2644 144.719 73.3886 144.938V146.47C73.3886 146.689 73.3885 146.908 73.1696 147.127C72.9506 147.456 72.6222 147.675 72.0747 147.675L67.1479 148.113C66.272 148.222 65.5056 147.894 65.2866 147.346L64.7392 146.142C63.5349 146.142 62.44 146.142 61.2357 146.142L60.6883 147.346C60.3598 147.894 59.8124 148.113 59.046 148.113ZM53.3528 146.251C53.3528 146.251 53.4622 146.361 53.7907 146.361L58.827 147.127C59.3744 147.237 59.7029 147.018 59.7029 146.908L60.5788 145.047H60.9072C62.2211 145.157 63.6444 145.157 64.9582 145.047H65.2866L66.1625 146.908C66.1625 147.018 66.6005 147.237 67.0384 147.127L72.0747 146.361C72.4032 146.361 72.5127 146.142 72.5127 146.142V143.843L72.8411 143.733C73.936 143.405 74.8119 143.076 75.5783 142.748L75.7972 142.638L77.9869 143.952C78.2059 144.062 78.7533 144.062 78.9723 143.952L82.8043 141.763C82.9138 141.325 82.9138 139.573 82.8043 138.15V137.602L85.7604 138.04C86.3078 138.15 86.6363 137.931 86.6363 137.821L87.9501 134.974C87.9501 134.208 87.9501 128.296 87.9501 124.135L82.8043 122.931V122.603V117.347L72.6222 117.019L72.4032 116.909V116.69V113.296L65.2866 115.486L55.8709 114.829L53.3528 113.406V116.69L53.0243 116.8L47.769 118.223L44.5939 117.676L42.9517 117.457V121.617L42.8422 121.836L40.2145 122.931L37.9154 124.354V135.193V135.303L39.2292 138.15C39.2292 138.259 39.6671 138.478 40.1051 138.368L43.1706 137.931V138.478C43.0612 139.901 42.9517 141.544 43.0612 142.091L46.8931 144.281C47.1121 144.39 47.6595 144.39 47.8785 144.281L50.0682 142.967L50.2872 143.076C51.0536 143.405 52.0389 143.733 53.0243 144.062L53.3528 144.171V144.5C53.3528 144.5 53.3528 145.595 53.3528 146.032L53.4622 146.142L53.3528 146.251Z" fill="#171753"/>
<path d="M49.74 133.989L47.0029 136.288L47.3313 137.821V144.609C47.6598 144.609 47.8788 144.609 48.2072 144.39L50.2875 143.186V136.398L49.74 133.989Z" fill="#171753"/>
<path d="M47.4409 145.157H47.3314H46.8934V137.931L46.4555 136.069L49.959 133.113L50.5065 136.507V143.624L48.3168 144.938C48.0978 145.047 47.7693 145.157 47.4409 145.157ZM47.5504 136.507L47.7693 137.931V144.281C47.7693 144.281 47.8788 144.281 47.8788 144.171L49.6306 143.186V136.726L49.4116 134.865L47.5504 136.507Z" fill="#171753"/>
<path d="M40.105 131.909V138.587C40.105 138.697 40.2145 138.697 40.2145 138.697L42.5137 138.368C42.6231 138.368 42.6231 138.259 42.6231 138.259L42.5137 135.412C42.5137 135.303 42.5137 135.303 42.6231 135.303L47.112 134.098C47.2215 134.098 47.2215 133.989 47.2215 133.879L44.7034 129.5L44.5939 129.391L41.1998 129.172C41.0903 129.172 41.0903 129.172 41.0903 129.281L40.105 131.909Z" fill="#171753"/>
<path d="M40.3243 139.135C40.2148 139.135 39.9959 139.135 39.8864 139.025C39.7769 138.916 39.6674 138.697 39.6674 138.588V131.799V131.69L40.6528 129.062C40.7623 128.843 40.9812 128.624 41.2002 128.624L44.5943 128.843C44.8132 128.843 44.9227 128.953 45.0322 129.172L47.5504 133.551C47.6598 133.661 47.6598 133.88 47.5504 134.099C47.4409 134.318 47.3314 134.427 47.1124 134.427L42.8425 135.522L42.952 138.15C42.952 138.478 42.733 138.697 42.4045 138.807L40.3243 139.135ZM40.5433 131.909V138.15L42.0761 137.931L41.9666 135.303C41.9666 134.975 42.1856 134.756 42.4045 134.756L46.4555 133.661L44.2658 129.829L41.3097 129.61L40.5433 131.909Z" fill="#171753"/>
<path d="M60.1408 147.127L60.9072 145.595C62.221 145.704 63.6443 145.704 64.9582 145.595L65.7246 147.127C65.9435 147.456 66.4909 147.675 67.1479 147.565L72.1842 146.799C72.7316 146.69 73.0601 146.361 73.0601 146.033V144.171C74.0454 143.843 74.9213 143.624 75.7972 143.186L77.8774 144.39C78.3153 144.609 78.9723 144.609 79.3007 144.39L83.2422 142.091C83.5706 141.982 83.3517 138.15 83.3517 138.15L85.7603 138.478C86.4172 138.588 86.9647 138.369 87.1837 138.04L88.4975 135.194C88.4975 135.084 88.4975 123.917 88.4975 123.917L83.3517 122.712V117.019L72.9506 116.691V112.64L67.9143 114.172L58.7175 136.398V140.777V147.565C59.3744 147.675 60.0313 147.456 60.1408 147.127Z" fill="#171753"/>
<path d="M66.8198 148.113C66.1629 148.113 65.5059 147.784 65.287 147.346L64.7395 146.032C63.5352 146.032 62.4404 146.032 61.236 146.032L60.6886 147.237C60.4696 147.784 59.5937 148.113 58.8273 148.003L58.3894 147.894V136.179V136.069L67.6956 113.625L72.8415 112.092L73.0604 111.983L73.4984 112.202V112.42V116.033L83.8995 116.362V116.8V122.165L89.0453 123.369V123.697C89.1547 134.974 89.0453 135.084 89.0453 135.193L87.7314 138.04C87.5125 138.587 86.6366 138.916 85.8702 138.806L84.0089 138.478C84.1184 141.981 83.8995 142.091 83.6805 142.31L79.4106 144.828C78.8631 145.157 77.9873 145.157 77.4398 144.828L75.6881 143.733C75.0312 144.062 74.2648 144.281 73.3889 144.5V146.032C73.3889 146.251 73.3889 146.47 73.1699 146.689C72.9509 147.018 72.6225 147.237 72.0751 147.237L67.0387 148.003C67.0387 148.003 66.9293 148.113 66.8198 148.113ZM65.287 145.047L66.1629 146.908C66.1629 147.018 66.6008 147.237 67.0387 147.127L72.0751 146.361C72.4035 146.361 72.513 146.142 72.513 146.142V143.843L72.8415 143.733C73.8268 143.405 74.8122 143.076 75.5786 142.748L75.7976 142.638L77.9873 143.952C78.2062 144.062 78.7537 144.062 78.9726 143.952L82.8046 141.763C82.9141 141.325 82.9141 139.573 82.8046 138.15V137.602L85.7607 138.04C86.3081 138.15 86.6366 137.931 86.6366 137.821L87.9504 134.974C87.9504 134.208 87.9504 128.296 87.9504 124.135L83.1331 123.041H82.6951V122.603V117.347L72.513 117.019L72.4035 116.8V116.69V113.406L68.2431 114.72L59.1558 136.617V147.237C59.4843 147.237 59.7032 147.127 59.7032 147.018L60.5791 145.157H60.9076C62.2214 145.266 63.6447 145.266 64.9585 145.157L65.287 145.047Z" fill="#171753"/>
<path d="M77.6585 114.61L75.6878 115.705C74.5929 115.267 73.3886 114.829 72.1843 114.501L72.9507 112.968C73.1696 112.64 72.7317 112.202 72.1843 112.202L67.1479 111.435C66.491 111.326 65.9436 111.545 65.7246 111.873L64.9582 113.406C63.6444 113.297 62.2211 113.297 60.9073 113.406L60.1409 111.873C59.9219 111.545 59.3745 111.326 58.7176 111.435L53.7908 112.202C53.1338 112.311 52.8054 112.64 53.0244 112.968L53.7908 114.501C52.5864 114.829 51.3821 115.267 50.2872 115.705L48.3165 114.61C47.8786 114.391 47.1122 114.391 46.6742 114.61L42.8422 116.691C42.4043 116.91 42.4043 117.348 42.8422 117.676L44.813 118.771C44.0466 119.428 43.2802 120.085 42.7327 120.851L40.1051 120.413C39.4482 120.304 38.9008 120.523 38.6818 120.851L37.368 123.698C37.149 124.026 37.5869 124.464 38.1344 124.464L40.762 124.902C40.6525 125.668 40.6525 126.435 40.762 127.311L38.1344 127.749C37.4775 127.858 37.149 128.187 37.368 128.515L38.6818 131.362C38.9008 131.69 39.4482 131.909 40.1051 131.8L42.7327 131.362C43.2802 132.019 43.9371 132.785 44.813 133.442L42.8422 134.537C42.4043 134.756 42.4043 135.194 42.8422 135.522L46.4552 137.602C46.8932 137.821 47.6596 137.821 48.0975 137.602L50.0683 136.507C51.1631 136.945 52.3674 137.383 53.5718 137.712L52.8054 139.245C52.5864 139.573 53.0244 140.011 53.5718 140.011L58.6081 140.777C59.265 140.887 59.8124 140.668 60.0314 140.339L60.7978 138.807C62.1116 138.916 63.5349 138.916 64.8488 138.807L65.6152 140.339C65.8341 140.668 66.3815 140.887 67.0385 140.777L72.0748 140.011C72.7317 139.901 73.0601 139.573 72.8412 139.245L72.0748 137.712C73.2791 137.383 74.4835 136.945 75.5783 136.507L77.549 137.602C77.987 137.821 78.7534 137.821 79.1913 137.602L82.8043 135.522C83.2423 135.303 83.2423 134.865 82.8043 134.537L80.8336 133.442C81.6 132.785 82.3664 132.128 82.9138 131.362L85.5415 131.8C86.1984 131.909 86.7458 131.69 86.9648 131.362L88.2786 128.515C88.4976 128.187 88.0596 127.749 87.5122 127.749L84.8845 127.311C84.994 126.544 84.994 125.778 84.8845 124.902L87.5122 124.464C88.1691 124.355 88.4976 124.026 88.2786 123.698L86.9648 120.851C86.7458 120.523 86.1984 120.304 85.5415 120.413L83.0233 120.742C82.4759 120.085 81.819 119.318 80.9431 118.661L82.9138 117.567C83.3518 117.348 83.3518 116.91 82.9138 116.581L79.3008 114.501C78.8629 114.282 78.0965 114.282 77.6585 114.61Z" fill="#FDD2D2"/>
<mask id="path-11-outside-1_72_5162" maskUnits="userSpaceOnUse" x="36.0671" y="110.086" width="53" height="32" fill="black">
<rect fill="white" x="36.0671" y="110.086" width="53" height="32"/>
<path d="M59.0462 141.325C58.9368 141.325 58.8273 141.325 58.7178 141.325L53.6815 140.558C53.134 140.449 52.6961 140.23 52.5866 139.901C52.4771 139.682 52.4771 139.354 52.5866 139.135L53.0245 138.04C52.0392 137.712 51.0538 137.383 50.1779 137.055L48.4262 138.04C47.8787 138.368 46.8934 138.368 46.3459 138.04L42.7329 135.96C42.4045 135.741 42.1855 135.412 42.1855 135.084C42.1855 134.755 42.4045 134.427 42.7329 134.208L44.1562 133.442C43.6088 133.004 43.1709 132.456 42.7329 132.018L40.3243 132.347C39.4484 132.456 38.682 132.128 38.463 131.58L37.1492 128.734C37.0397 128.515 37.0397 128.186 37.1492 127.967C37.3682 127.639 37.8061 127.42 38.244 127.31L40.4337 126.982C40.4337 126.435 40.4337 125.887 40.4337 125.449L38.244 125.121C37.6966 125.011 37.2587 124.792 37.1492 124.464C37.0397 124.245 37.0397 123.916 37.1492 123.697L38.463 120.851C38.682 120.303 39.5579 119.975 40.3243 120.084L42.7329 120.413C43.1709 119.865 43.6088 119.428 44.1562 118.99L42.7329 118.223C42.4045 118.004 42.1855 117.676 42.1855 117.347C42.1855 117.019 42.4045 116.69 42.7329 116.471L46.3459 114.391C46.8934 114.063 47.8787 114.063 48.4262 114.391L50.1779 115.377C51.0538 115.048 52.0392 114.72 53.0245 114.391L52.5866 113.296C52.4771 113.077 52.4771 112.749 52.5866 112.53C52.8056 112.202 53.2435 111.873 53.6815 111.873L58.7178 111.107C59.5937 110.997 60.3601 111.326 60.579 111.873L61.1264 113.077C62.3308 113.077 63.4256 113.077 64.63 113.077L65.1774 111.873C65.3964 111.326 66.2723 110.997 67.0387 111.107L72.075 111.873C72.6224 111.983 73.0603 112.202 73.1698 112.53C73.2793 112.749 73.2793 113.077 73.1698 113.296L72.7319 114.391C73.7173 114.72 74.7026 115.048 75.5785 115.377L77.3303 114.391C77.8777 114.063 78.8631 114.063 79.4105 114.391L83.0235 116.471C83.3519 116.69 83.5709 117.019 83.5709 117.347C83.5709 117.676 83.3519 118.004 83.0235 118.223L81.6002 118.99C82.1476 119.428 82.5855 119.975 83.0235 120.413L85.4322 120.084C86.308 119.975 87.0744 120.303 87.2934 120.851L88.6072 123.697C88.7167 123.916 88.7167 124.245 88.6072 124.464C88.3883 124.792 87.9503 125.121 87.5124 125.121L85.3227 125.449C85.3227 125.997 85.3227 126.544 85.3227 126.982L87.5124 127.31C88.0598 127.42 88.4978 127.639 88.6072 127.967C88.7167 128.186 88.7167 128.515 88.6072 128.734L87.2934 131.58C87.0744 132.128 86.1986 132.456 85.4322 132.347L83.0235 132.018C82.5855 132.566 82.1476 133.004 81.6002 133.442L83.0235 134.208C83.3519 134.427 83.5709 134.755 83.5709 135.084C83.5709 135.412 83.3519 135.741 83.0235 135.96L79.4105 138.04C78.8631 138.368 77.8777 138.368 77.3303 138.04L75.688 137.055C74.8121 137.383 73.8267 137.712 72.8414 138.04L73.2793 139.135C73.3888 139.354 73.3888 139.682 73.2793 139.901C73.0603 140.23 72.6224 140.558 72.1845 140.558L67.1481 141.325C66.2723 141.434 65.5059 141.106 65.2869 140.558L64.63 139.354C63.4256 139.354 62.3308 139.354 61.1264 139.354L60.579 140.558C60.3601 140.996 59.7031 141.325 59.0462 141.325ZM53.353 139.463C53.353 139.463 53.4625 139.573 53.7909 139.573L58.8273 140.339C59.3747 140.449 59.7031 140.23 59.7031 140.12L60.579 138.259H60.9075C62.2213 138.368 63.6446 138.368 64.9584 138.259H65.2869L66.1628 140.12C66.1628 140.23 66.6007 140.449 67.0387 140.339L72.075 139.573C72.4034 139.573 72.5129 139.354 72.5129 139.354L71.5275 137.383L72.075 137.274C73.2793 136.945 74.4836 136.617 75.5785 136.069H75.688L77.8777 137.274C78.2061 137.493 78.7536 137.493 79.082 137.274L82.695 135.193C82.8045 135.193 82.8045 135.084 82.8045 135.084C82.8045 135.084 82.8045 135.084 82.695 134.974L80.1769 133.551L80.7243 133.113C81.4907 132.456 82.1476 131.799 82.695 131.142L82.914 130.923L85.8701 131.361C86.4175 131.471 86.746 131.252 86.746 131.142L88.0598 128.296C88.0598 128.296 87.9503 128.186 87.6219 128.186L84.4468 127.748L84.5563 127.31C84.6658 126.544 84.6658 125.887 84.5563 125.121L84.4468 124.683L87.6219 124.245C87.9503 124.245 88.0598 124.026 88.0598 124.026L86.746 121.179C86.746 121.07 86.308 120.851 85.8701 120.96L82.914 121.398L82.695 121.179C82.1476 120.522 81.4907 119.865 80.7243 119.209L80.1769 118.771L82.695 117.347C82.8045 117.347 82.8045 117.238 82.8045 117.238C82.8045 117.238 82.8045 117.238 82.695 117.128L79.082 115.048C78.7536 114.829 78.2061 114.829 77.8777 115.048L75.688 116.252L75.469 116.143C74.3742 115.705 73.1698 115.267 71.9655 114.939L71.4181 114.829L72.4034 112.749C72.4034 112.749 72.2939 112.639 71.9655 112.639L66.9292 111.873C66.3817 111.764 66.0533 111.983 66.0533 112.092L65.1774 113.953H64.8489C63.5351 113.844 62.1118 113.844 60.798 113.953H60.4695L59.5937 112.092C59.5937 111.983 59.1557 111.764 58.7178 111.873L53.7909 112.639C53.4625 112.639 53.353 112.858 53.353 112.858L54.3384 114.829L53.7909 114.939C52.5866 115.267 51.3823 115.596 50.2874 116.143L50.0684 116.252L47.8787 115.048C47.5503 114.829 47.0029 114.829 46.6744 115.048L43.0614 117.128C42.9519 117.128 42.9519 117.238 42.9519 117.238C42.9519 117.238 42.9519 117.238 43.0614 117.347L45.5796 118.771L45.0321 119.209C44.2657 119.865 43.6088 120.522 43.0614 121.179L42.8424 121.398L39.8863 120.96C39.3389 120.851 39.0104 121.07 39.0104 121.179L37.6966 124.026C37.6966 124.026 37.8061 124.135 38.1346 124.135L41.3096 124.573L41.2001 125.011C41.0907 125.778 41.0907 126.435 41.2001 127.201L41.3096 127.639L38.1346 128.077C37.8061 128.077 37.6966 128.296 37.6966 128.296L39.0104 131.142C39.0104 131.252 39.4484 131.471 39.8863 131.361L42.8424 130.923L43.0614 131.142C43.6088 131.799 44.2657 132.456 45.0321 133.113L45.5796 133.551L43.0614 134.974C42.9519 134.974 42.9519 135.084 42.9519 135.084C42.9519 135.084 42.9519 135.084 43.0614 135.193L46.6744 137.274C47.0029 137.493 47.5503 137.493 47.8787 137.274L50.0684 136.069L50.2874 136.179C51.3823 136.617 52.5866 137.055 53.7909 137.383L54.3384 137.493L53.353 139.463Z"/>
</mask>
<path d="M59.0462 141.325C58.9368 141.325 58.8273 141.325 58.7178 141.325L53.6815 140.558C53.134 140.449 52.6961 140.23 52.5866 139.901C52.4771 139.682 52.4771 139.354 52.5866 139.135L53.0245 138.04C52.0392 137.712 51.0538 137.383 50.1779 137.055L48.4262 138.04C47.8787 138.368 46.8934 138.368 46.3459 138.04L42.7329 135.96C42.4045 135.741 42.1855 135.412 42.1855 135.084C42.1855 134.755 42.4045 134.427 42.7329 134.208L44.1562 133.442C43.6088 133.004 43.1709 132.456 42.7329 132.018L40.3243 132.347C39.4484 132.456 38.682 132.128 38.463 131.58L37.1492 128.734C37.0397 128.515 37.0397 128.186 37.1492 127.967C37.3682 127.639 37.8061 127.42 38.244 127.31L40.4337 126.982C40.4337 126.435 40.4337 125.887 40.4337 125.449L38.244 125.121C37.6966 125.011 37.2587 124.792 37.1492 124.464C37.0397 124.245 37.0397 123.916 37.1492 123.697L38.463 120.851C38.682 120.303 39.5579 119.975 40.3243 120.084L42.7329 120.413C43.1709 119.865 43.6088 119.428 44.1562 118.99L42.7329 118.223C42.4045 118.004 42.1855 117.676 42.1855 117.347C42.1855 117.019 42.4045 116.69 42.7329 116.471L46.3459 114.391C46.8934 114.063 47.8787 114.063 48.4262 114.391L50.1779 115.377C51.0538 115.048 52.0392 114.72 53.0245 114.391L52.5866 113.296C52.4771 113.077 52.4771 112.749 52.5866 112.53C52.8056 112.202 53.2435 111.873 53.6815 111.873L58.7178 111.107C59.5937 110.997 60.3601 111.326 60.579 111.873L61.1264 113.077C62.3308 113.077 63.4256 113.077 64.63 113.077L65.1774 111.873C65.3964 111.326 66.2723 110.997 67.0387 111.107L72.075 111.873C72.6224 111.983 73.0603 112.202 73.1698 112.53C73.2793 112.749 73.2793 113.077 73.1698 113.296L72.7319 114.391C73.7173 114.72 74.7026 115.048 75.5785 115.377L77.3303 114.391C77.8777 114.063 78.8631 114.063 79.4105 114.391L83.0235 116.471C83.3519 116.69 83.5709 117.019 83.5709 117.347C83.5709 117.676 83.3519 118.004 83.0235 118.223L81.6002 118.99C82.1476 119.428 82.5855 119.975 83.0235 120.413L85.4322 120.084C86.308 119.975 87.0744 120.303 87.2934 120.851L88.6072 123.697C88.7167 123.916 88.7167 124.245 88.6072 124.464C88.3883 124.792 87.9503 125.121 87.5124 125.121L85.3227 125.449C85.3227 125.997 85.3227 126.544 85.3227 126.982L87.5124 127.31C88.0598 127.42 88.4978 127.639 88.6072 127.967C88.7167 128.186 88.7167 128.515 88.6072 128.734L87.2934 131.58C87.0744 132.128 86.1986 132.456 85.4322 132.347L83.0235 132.018C82.5855 132.566 82.1476 133.004 81.6002 133.442L83.0235 134.208C83.3519 134.427 83.5709 134.755 83.5709 135.084C83.5709 135.412 83.3519 135.741 83.0235 135.96L79.4105 138.04C78.8631 138.368 77.8777 138.368 77.3303 138.04L75.688 137.055C74.8121 137.383 73.8267 137.712 72.8414 138.04L73.2793 139.135C73.3888 139.354 73.3888 139.682 73.2793 139.901C73.0603 140.23 72.6224 140.558 72.1845 140.558L67.1481 141.325C66.2723 141.434 65.5059 141.106 65.2869 140.558L64.63 139.354C63.4256 139.354 62.3308 139.354 61.1264 139.354L60.579 140.558C60.3601 140.996 59.7031 141.325 59.0462 141.325ZM53.353 139.463C53.353 139.463 53.4625 139.573 53.7909 139.573L58.8273 140.339C59.3747 140.449 59.7031 140.23 59.7031 140.12L60.579 138.259H60.9075C62.2213 138.368 63.6446 138.368 64.9584 138.259H65.2869L66.1628 140.12C66.1628 140.23 66.6007 140.449 67.0387 140.339L72.075 139.573C72.4034 139.573 72.5129 139.354 72.5129 139.354L71.5275 137.383L72.075 137.274C73.2793 136.945 74.4836 136.617 75.5785 136.069H75.688L77.8777 137.274C78.2061 137.493 78.7536 137.493 79.082 137.274L82.695 135.193C82.8045 135.193 82.8045 135.084 82.8045 135.084C82.8045 135.084 82.8045 135.084 82.695 134.974L80.1769 133.551L80.7243 133.113C81.4907 132.456 82.1476 131.799 82.695 131.142L82.914 130.923L85.8701 131.361C86.4175 131.471 86.746 131.252 86.746 131.142L88.0598 128.296C88.0598 128.296 87.9503 128.186 87.6219 128.186L84.4468 127.748L84.5563 127.31C84.6658 126.544 84.6658 125.887 84.5563 125.121L84.4468 124.683L87.6219 124.245C87.9503 124.245 88.0598 124.026 88.0598 124.026L86.746 121.179C86.746 121.07 86.308 120.851 85.8701 120.96L82.914 121.398L82.695 121.179C82.1476 120.522 81.4907 119.865 80.7243 119.209L80.1769 118.771L82.695 117.347C82.8045 117.347 82.8045 117.238 82.8045 117.238C82.8045 117.238 82.8045 117.238 82.695 117.128L79.082 115.048C78.7536 114.829 78.2061 114.829 77.8777 115.048L75.688 116.252L75.469 116.143C74.3742 115.705 73.1698 115.267 71.9655 114.939L71.4181 114.829L72.4034 112.749C72.4034 112.749 72.2939 112.639 71.9655 112.639L66.9292 111.873C66.3817 111.764 66.0533 111.983 66.0533 112.092L65.1774 113.953H64.8489C63.5351 113.844 62.1118 113.844 60.798 113.953H60.4695L59.5937 112.092C59.5937 111.983 59.1557 111.764 58.7178 111.873L53.7909 112.639C53.4625 112.639 53.353 112.858 53.353 112.858L54.3384 114.829L53.7909 114.939C52.5866 115.267 51.3823 115.596 50.2874 116.143L50.0684 116.252L47.8787 115.048C47.5503 114.829 47.0029 114.829 46.6744 115.048L43.0614 117.128C42.9519 117.128 42.9519 117.238 42.9519 117.238C42.9519 117.238 42.9519 117.238 43.0614 117.347L45.5796 118.771L45.0321 119.209C44.2657 119.865 43.6088 120.522 43.0614 121.179L42.8424 121.398L39.8863 120.96C39.3389 120.851 39.0104 121.07 39.0104 121.179L37.6966 124.026C37.6966 124.026 37.8061 124.135 38.1346 124.135L41.3096 124.573L41.2001 125.011C41.0907 125.778 41.0907 126.435 41.2001 127.201L41.3096 127.639L38.1346 128.077C37.8061 128.077 37.6966 128.296 37.6966 128.296L39.0104 131.142C39.0104 131.252 39.4484 131.471 39.8863 131.361L42.8424 130.923L43.0614 131.142C43.6088 131.799 44.2657 132.456 45.0321 133.113L45.5796 133.551L43.0614 134.974C42.9519 134.974 42.9519 135.084 42.9519 135.084C42.9519 135.084 42.9519 135.084 43.0614 135.193L46.6744 137.274C47.0029 137.493 47.5503 137.493 47.8787 137.274L50.0684 136.069L50.2874 136.179C51.3823 136.617 52.5866 137.055 53.7909 137.383L54.3384 137.493L53.353 139.463Z" fill="#171753"/>
<path d="M59.0462 141.325C58.9368 141.325 58.8273 141.325 58.7178 141.325L53.6815 140.558C53.134 140.449 52.6961 140.23 52.5866 139.901C52.4771 139.682 52.4771 139.354 52.5866 139.135L53.0245 138.04C52.0392 137.712 51.0538 137.383 50.1779 137.055L48.4262 138.04C47.8787 138.368 46.8934 138.368 46.3459 138.04L42.7329 135.96C42.4045 135.741 42.1855 135.412 42.1855 135.084C42.1855 134.755 42.4045 134.427 42.7329 134.208L44.1562 133.442C43.6088 133.004 43.1709 132.456 42.7329 132.018L40.3243 132.347C39.4484 132.456 38.682 132.128 38.463 131.58L37.1492 128.734C37.0397 128.515 37.0397 128.186 37.1492 127.967C37.3682 127.639 37.8061 127.42 38.244 127.31L40.4337 126.982C40.4337 126.435 40.4337 125.887 40.4337 125.449L38.244 125.121C37.6966 125.011 37.2587 124.792 37.1492 124.464C37.0397 124.245 37.0397 123.916 37.1492 123.697L38.463 120.851C38.682 120.303 39.5579 119.975 40.3243 120.084L42.7329 120.413C43.1709 119.865 43.6088 119.428 44.1562 118.99L42.7329 118.223C42.4045 118.004 42.1855 117.676 42.1855 117.347C42.1855 117.019 42.4045 116.69 42.7329 116.471L46.3459 114.391C46.8934 114.063 47.8787 114.063 48.4262 114.391L50.1779 115.377C51.0538 115.048 52.0392 114.72 53.0245 114.391L52.5866 113.296C52.4771 113.077 52.4771 112.749 52.5866 112.53C52.8056 112.202 53.2435 111.873 53.6815 111.873L58.7178 111.107C59.5937 110.997 60.3601 111.326 60.579 111.873L61.1264 113.077C62.3308 113.077 63.4256 113.077 64.63 113.077L65.1774 111.873C65.3964 111.326 66.2723 110.997 67.0387 111.107L72.075 111.873C72.6224 111.983 73.0603 112.202 73.1698 112.53C73.2793 112.749 73.2793 113.077 73.1698 113.296L72.7319 114.391C73.7173 114.72 74.7026 115.048 75.5785 115.377L77.3303 114.391C77.8777 114.063 78.8631 114.063 79.4105 114.391L83.0235 116.471C83.3519 116.69 83.5709 117.019 83.5709 117.347C83.5709 117.676 83.3519 118.004 83.0235 118.223L81.6002 118.99C82.1476 119.428 82.5855 119.975 83.0235 120.413L85.4322 120.084C86.308 119.975 87.0744 120.303 87.2934 120.851L88.6072 123.697C88.7167 123.916 88.7167 124.245 88.6072 124.464C88.3883 124.792 87.9503 125.121 87.5124 125.121L85.3227 125.449C85.3227 125.997 85.3227 126.544 85.3227 126.982L87.5124 127.31C88.0598 127.42 88.4978 127.639 88.6072 127.967C88.7167 128.186 88.7167 128.515 88.6072 128.734L87.2934 131.58C87.0744 132.128 86.1986 132.456 85.4322 132.347L83.0235 132.018C82.5855 132.566 82.1476 133.004 81.6002 133.442L83.0235 134.208C83.3519 134.427 83.5709 134.755 83.5709 135.084C83.5709 135.412 83.3519 135.741 83.0235 135.96L79.4105 138.04C78.8631 138.368 77.8777 138.368 77.3303 138.04L75.688 137.055C74.8121 137.383 73.8267 137.712 72.8414 138.04L73.2793 139.135C73.3888 139.354 73.3888 139.682 73.2793 139.901C73.0603 140.23 72.6224 140.558 72.1845 140.558L67.1481 141.325C66.2723 141.434 65.5059 141.106 65.2869 140.558L64.63 139.354C63.4256 139.354 62.3308 139.354 61.1264 139.354L60.579 140.558C60.3601 140.996 59.7031 141.325 59.0462 141.325ZM53.353 139.463C53.353 139.463 53.4625 139.573 53.7909 139.573L58.8273 140.339C59.3747 140.449 59.7031 140.23 59.7031 140.12L60.579 138.259H60.9075C62.2213 138.368 63.6446 138.368 64.9584 138.259H65.2869L66.1628 140.12C66.1628 140.23 66.6007 140.449 67.0387 140.339L72.075 139.573C72.4034 139.573 72.5129 139.354 72.5129 139.354L71.5275 137.383L72.075 137.274C73.2793 136.945 74.4836 136.617 75.5785 136.069H75.688L77.8777 137.274C78.2061 137.493 78.7536 137.493 79.082 137.274L82.695 135.193C82.8045 135.193 82.8045 135.084 82.8045 135.084C82.8045 135.084 82.8045 135.084 82.695 134.974L80.1769 133.551L80.7243 133.113C81.4907 132.456 82.1476 131.799 82.695 131.142L82.914 130.923L85.8701 131.361C86.4175 131.471 86.746 131.252 86.746 131.142L88.0598 128.296C88.0598 128.296 87.9503 128.186 87.6219 128.186L84.4468 127.748L84.5563 127.31C84.6658 126.544 84.6658 125.887 84.5563 125.121L84.4468 124.683L87.6219 124.245C87.9503 124.245 88.0598 124.026 88.0598 124.026L86.746 121.179C86.746 121.07 86.308 120.851 85.8701 120.96L82.914 121.398L82.695 121.179C82.1476 120.522 81.4907 119.865 80.7243 119.209L80.1769 118.771L82.695 117.347C82.8045 117.347 82.8045 117.238 82.8045 117.238C82.8045 117.238 82.8045 117.238 82.695 117.128L79.082 115.048C78.7536 114.829 78.2061 114.829 77.8777 115.048L75.688 116.252L75.469 116.143C74.3742 115.705 73.1698 115.267 71.9655 114.939L71.4181 114.829L72.4034 112.749C72.4034 112.749 72.2939 112.639 71.9655 112.639L66.9292 111.873C66.3817 111.764 66.0533 111.983 66.0533 112.092L65.1774 113.953H64.8489C63.5351 113.844 62.1118 113.844 60.798 113.953H60.4695L59.5937 112.092C59.5937 111.983 59.1557 111.764 58.7178 111.873L53.7909 112.639C53.4625 112.639 53.353 112.858 53.353 112.858L54.3384 114.829L53.7909 114.939C52.5866 115.267 51.3823 115.596 50.2874 116.143L50.0684 116.252L47.8787 115.048C47.5503 114.829 47.0029 114.829 46.6744 115.048L43.0614 117.128C42.9519 117.128 42.9519 117.238 42.9519 117.238C42.9519 117.238 42.9519 117.238 43.0614 117.347L45.5796 118.771L45.0321 119.209C44.2657 119.865 43.6088 120.522 43.0614 121.179L42.8424 121.398L39.8863 120.96C39.3389 120.851 39.0104 121.07 39.0104 121.179L37.6966 124.026C37.6966 124.026 37.8061 124.135 38.1346 124.135L41.3096 124.573L41.2001 125.011C41.0907 125.778 41.0907 126.435 41.2001 127.201L41.3096 127.639L38.1346 128.077C37.8061 128.077 37.6966 128.296 37.6966 128.296L39.0104 131.142C39.0104 131.252 39.4484 131.471 39.8863 131.361L42.8424 130.923L43.0614 131.142C43.6088 131.799 44.2657 132.456 45.0321 133.113L45.5796 133.551L43.0614 134.974C42.9519 134.974 42.9519 135.084 42.9519 135.084C42.9519 135.084 42.9519 135.084 43.0614 135.193L46.6744 137.274C47.0029 137.493 47.5503 137.493 47.8787 137.274L50.0684 136.069L50.2874 136.179C51.3823 136.617 52.5866 137.055 53.7909 137.383L54.3384 137.493L53.353 139.463Z" stroke="#171753" stroke-width="0.566277" mask="url(#path-11-outside-1_72_5162)"/>
<path d="M67.8048 123.26C70.5419 124.792 70.5419 127.42 67.8048 128.953C65.0676 130.486 60.6882 130.486 57.9511 128.953C55.214 127.42 55.214 124.792 57.9511 123.26C60.6882 121.727 65.0676 121.727 67.8048 123.26Z" fill="#FFA6A6"/>
<path d="M62.8781 130.595C61.0168 130.595 59.1556 130.157 57.7323 129.391C56.309 128.515 55.4331 127.42 55.4331 126.106C55.4331 124.902 56.1995 123.698 57.7323 122.822C60.5789 121.18 65.1773 121.18 68.0239 122.822C69.4472 123.698 70.3231 124.793 70.3231 126.106C70.3231 127.42 69.5567 128.515 68.0239 129.391C66.6006 130.157 64.7393 130.595 62.8781 130.595ZM62.8781 122.493C61.1263 122.493 59.484 122.822 58.1702 123.588C56.9659 124.245 56.309 125.121 56.309 125.997C56.309 126.873 56.9659 127.749 58.1702 128.406C60.7978 129.938 64.9583 129.938 67.5859 128.406C68.7903 127.749 69.4472 126.873 69.4472 125.997C69.4472 125.121 68.7903 124.245 67.5859 123.588C66.2721 122.931 64.6298 122.493 62.8781 122.493Z" fill="#171753"/>
<path d="M62.8779 122.055C61.1261 122.055 59.2649 122.493 57.9511 123.26C55.2139 124.793 55.2139 127.42 57.9511 128.953C59.1554 129.719 60.7977 130.048 62.44 130.157H62.8779V122.055Z" fill="#171753"/>
<path d="M63.316 130.595H62.4401C60.6883 130.486 58.9366 130.048 57.7322 129.391C56.3089 128.515 55.433 127.42 55.433 126.106C55.433 124.793 56.1994 123.698 57.7322 122.822C59.1555 122.055 60.9073 121.617 62.878 121.617H63.316V130.595ZM62.4401 122.603C60.7978 122.712 59.3745 123.041 58.1702 123.698C56.9658 124.355 56.3089 125.23 56.3089 126.106C56.3089 126.982 56.9658 127.858 58.1702 128.515C59.265 129.172 60.7978 129.61 62.4401 129.61V122.603Z" fill="#171753"/>
<path d="M57.9502 128.953C60.6874 130.595 65.1762 130.486 67.9134 128.953C65.1762 127.311 60.6874 127.311 57.9502 128.953Z" fill="#FFA6A6"/>
<path d="M62.8777 130.595C61.0164 130.595 59.1552 130.157 57.7319 129.391L57.5129 129.281V128.734L57.7319 128.624C60.5785 126.982 65.2864 126.873 68.133 128.515L68.3519 128.624V129.172L68.133 129.281C66.7097 130.157 64.7389 130.595 62.8777 130.595ZM58.9362 128.953C61.3449 129.938 64.52 129.938 66.8191 128.953C64.52 127.967 61.2354 127.967 58.9362 128.953Z" fill="#171753"/>
<path d="M60.6884 122.822H59.8125V127.53H60.6884V122.822Z" fill="#FFA6A6"/>
<path d="M52.518 139.778L52.4985 146.128L53.3744 146.131L53.3939 139.781L52.518 139.778Z" fill="#171753"/>
<path d="M66.7099 141.544H65.834V147.237H66.7099V141.544Z" fill="#FFA6A6"/>
<path d="M78.5344 138.588H77.6585V144.281H78.5344V138.588Z" fill="#FFA6A6"/>
<path d="M86.6362 132.566H85.7603V138.259H86.6362V132.566Z" fill="#FFA6A6"/>
<path d="M115.032 208.846C115.032 208.738 114.974 208.639 114.879 208.587L33.1422 163.747C33.0507 163.697 32.9394 163.699 32.8496 163.752C32.7597 163.805 32.7046 163.902 32.7046 164.006V166.024C32.7046 166.132 32.7634 166.231 32.858 166.283L114.595 211.123C114.686 211.173 114.798 211.171 114.887 211.118C114.977 211.065 115.032 210.968 115.032 210.864V208.846Z" fill="#171753" stroke="#171753" stroke-width="0.590902" stroke-linejoin="round"/>
<path d="M115.032 219.982C115.032 219.874 114.974 219.775 114.879 219.723L33.1422 174.884C33.0507 174.834 32.9394 174.835 32.8496 174.889C32.7597 174.942 32.7046 175.038 32.7046 175.143V177.161C32.7046 177.268 32.7634 177.368 32.858 177.42L114.595 222.259C114.686 222.309 114.798 222.307 114.887 222.254C114.977 222.201 115.032 222.104 115.032 222V219.982Z" fill="#171753" stroke="#171753" stroke-width="0.590902" stroke-linejoin="round"/>
<path d="M196.068 164.264C196.161 164.212 196.219 164.113 196.219 164.005C196.219 163.898 196.16 163.799 196.066 163.747L170.211 149.55L170.209 149.548L168.482 148.578L168.478 148.576L163.216 145.738L163.212 145.736L161.487 144.767L161.486 144.766L157.715 142.674L157.713 142.673L155.986 141.703L155.984 141.702L150.561 138.712L150.558 138.711L148.752 137.74L148.75 137.739L140.66 133.333L140.657 133.331L138.931 132.361L138.93 132.361L135.708 130.567L135.704 130.565L133.898 129.594L133.896 129.593L122.662 123.468L122.659 123.466L120.933 122.496L120.931 122.495L115.116 119.282C115.11 119.279 115.105 119.276 115.1 119.274L114.454 118.967C114.429 118.914 114.389 118.868 114.337 118.838C114.247 118.785 114.135 118.783 114.044 118.834L93.6097 130.118L93.6078 130.119L91.8787 131.091L91.877 131.092L88.7366 132.883L86.9322 133.853L86.9296 133.855L74.9835 140.431L74.9807 140.433L72.4662 141.852L72.4657 141.852L70.7399 142.822L68.2276 144.166L68.2243 144.168L60.365 148.502L60.3648 148.502L57.9284 149.847L57.9284 149.847L57.9248 149.849L55.1776 151.417L52.6662 152.76L52.6662 152.76L52.6622 152.762L32.8568 163.748C32.7627 163.8 32.7045 163.899 32.7046 164.007C32.7048 164.114 32.7633 164.213 32.8574 164.265L38.2803 167.254L38.2831 167.256L40.0893 168.227L40.0908 168.227L49.2847 173.234L49.2861 173.234L51.0901 174.204L51.0938 174.206L57.1418 177.567L57.1455 177.569L58.9506 178.539L58.9531 178.54L76.4745 188.178L76.4768 188.18L78.2035 189.15L78.2072 189.152L81.5045 190.943L81.5081 190.945L83.2335 191.915L83.234 191.915L84.5701 192.662L84.5744 192.665L86.3794 193.635L86.3821 193.636L105.242 204.023L105.244 204.024L107.051 204.995L107.052 204.996L114.596 209.105C114.684 209.153 114.792 209.153 114.88 209.104L172.41 177.268L172.411 177.268L175.629 175.476L175.633 175.474L177.437 174.505L177.44 174.503L188.125 168.601L188.128 168.599L189.933 167.629L189.934 167.629L191.584 166.733L191.585 166.732L193.391 165.761L193.396 165.759L196.068 164.264Z" fill="#FDD2D2" stroke="#171753" stroke-width="0.590902" stroke-linejoin="round"/>
<path d="M196.219 164.006C196.219 163.902 196.164 163.805 196.074 163.752C195.984 163.699 195.872 163.697 195.781 163.748L114.594 208.587C114.5 208.639 114.442 208.738 114.442 208.846V210.864C114.442 210.968 114.497 211.065 114.587 211.118C114.677 211.171 114.788 211.173 114.88 211.122L196.067 166.283C196.161 166.231 196.219 166.132 196.219 166.024V164.006Z" fill="#171753" stroke="#171753" stroke-width="0.590902" stroke-linejoin="round"/>
<path d="M196.219 175.143C196.219 175.038 196.164 174.942 196.074 174.888C195.984 174.835 195.872 174.834 195.781 174.884L114.594 219.724C114.5 219.776 114.442 219.875 114.442 219.982V222C114.442 222.105 114.497 222.201 114.587 222.254C114.677 222.308 114.788 222.309 114.88 222.259L196.067 177.419C196.161 177.367 196.219 177.268 196.219 177.161V175.143Z" fill="#171753" stroke="#171753" stroke-width="0.590902" stroke-linejoin="round"/>
<path d="M154.05 162.643L152.361 161.694L130.8 149.874L129.035 148.926L127.731 148.196L125.966 147.248L122.129 145.132L120.364 144.183L114.149 140.754L112.922 141.411L111.157 142.359L109.545 143.235L107.781 144.183L105.479 145.424L103.791 146.372L100.721 148.05L98.9565 148.999L95.9639 150.604L94.1991 151.553L92.5878 152.428L90.8229 153.377L85.6819 156.222L83.9939 157.171L82.229 158.119L80.4642 159.068L74.7861 162.205L73.0213 163.153L71.7936 163.81L76.7044 166.51L78.4692 167.458L82.6127 169.72L84.3775 170.669L89.2116 173.368L90.9764 174.317L94.813 176.433L96.5778 177.381L107.627 183.437L109.315 184.385L114.073 187.012L116.298 185.772L118.063 184.823L123.664 181.759L125.429 180.81L128.498 179.132L130.186 178.184L132.718 176.797L134.406 175.849L136.171 174.9L137.936 173.952L144.535 170.304L146.223 169.355L149.446 167.604L151.21 166.656L156.198 163.883L154.05 162.643ZM114.226 184.458L76.8578 163.956L114.226 143.454L151.594 163.956L114.226 184.458Z" fill="#171753"/>
<path d="M70.7962 151.917L83.5336 158.922L81.8455 159.87L69.7987 153.231H53.9153L56.3707 151.917H70.7962Z" fill="#171753"/>
<path d="M72.7147 149.073L86.3728 156.588L84.6847 157.536L71.7171 150.386H59.1332L61.5119 149.073H72.7147Z" fill="#171753"/>
<path d="M76.3963 143.527L93.5841 152.939L91.8193 153.887L75.3221 144.84H69.1836L71.639 143.527H76.3963Z" fill="#171753"/>
<path d="M78.9286 141.192L97.1906 151.261L95.4258 152.21L77.9311 142.579H73.4039L75.8593 141.192H78.9286Z" fill="#171753"/>
<path d="M89.4404 133.75L91.8958 135.137V143.162L102.024 148.78L100.336 149.729L89.4404 143.746V135.72L87.6756 134.699L89.4404 133.75Z" fill="#171753"/>
<path d="M94.275 131.123L96.7304 132.509V140.535L106.859 146.08L105.094 147.029L94.275 141.119V133.02L92.5101 132.072L94.275 131.123Z" fill="#171753"/>
<path d="M114.226 120.106L114.993 120.544V123.463L100.951 131.197V138.493L110.849 143.892L109.161 144.84L98.4957 139.003V130.613L112.538 122.952V121.055L114.226 120.106Z" fill="#171753"/>
<path d="M120.67 123.682L122.435 124.63L104.71 134.334V136.888L114.148 142.068L112.46 143.017L102.255 137.399V133.75L120.67 123.682Z" fill="#171753"/>
<path d="M75.4755 162.643L73.7107 163.591L73.2503 163.299L65.4237 158.994H57.9808L42.0206 167.823L40.2558 166.874L56.9833 157.681H66.4212L75.0151 162.351L75.4755 162.643Z" fill="#171753"/>
<path d="M133.179 175.12L148.755 183.656V188.982L146.3 190.296V184.24L131.414 176.068L133.179 175.12Z" fill="#171753"/>
<path d="M136.631 173.15L153.895 182.635V186.137L151.44 187.45V183.219L134.943 174.171L136.631 173.15Z" fill="#171753"/>
<path d="M128.498 177.236L139.317 183.219V191.245L141.926 192.704L140.238 193.652L136.862 191.828V183.729L126.733 178.184L128.498 177.236Z" fill="#171753"/>
<path d="M123.664 179.862L134.559 185.845V193.871L137.168 195.33L135.48 196.279L132.104 194.455V186.429L121.976 180.811L123.664 179.862Z" fill="#171753"/>
<path d="M126.502 189.493V193.141L107.396 203.721L105.631 202.772L124.123 192.63V190.077L116.527 185.918L114.609 184.824L116.373 183.875L118.215 184.969L126.502 189.493Z" fill="#171753"/>
<path d="M133.331 130.613L135.096 131.561L130.262 134.188V140.681L120.287 146.227L118.522 145.278L127.807 140.171V133.677L133.331 130.613Z" fill="#171753"/>
<path d="M136.478 143.454L126.426 148.926L124.738 147.978L134.022 142.87V135.574L138.242 133.239L140.007 134.188L136.478 136.158V143.454Z" fill="#171753"/>
<path d="M154.894 142.433L156.582 143.381L150.367 146.81H142.693L133.946 151.626L132.258 150.677L141.696 145.424H149.369L154.894 142.433Z" fill="#171753"/>
<path d="M149.599 139.514L129.572 150.531L127.807 149.583L147.91 138.566L149.599 139.514Z" fill="#171753"/>
<path d="M160.264 145.351L161.952 146.372L155.277 150.021H147.68L139.393 154.544L137.628 153.596L146.683 148.707H154.279L160.264 145.351Z" fill="#171753"/>
<path d="M167.094 149.146L168.858 150.094L164.254 152.575H152.975L144.381 157.317L142.693 156.369L151.977 151.261H163.257L167.094 149.146Z" fill="#171753"/>
<path d="M170.01 153.669L191.418 165.416L189.73 166.364L169.012 154.982H158.577L149.369 160.089L147.604 159.141L157.579 153.669H170.01Z" fill="#171753"/>
<path d="M169.166 156.879L188.118 167.24L186.354 168.188L168.092 158.192H162.183L153.513 163.008L151.748 162.059L161.186 156.879H169.166Z" fill="#171753"/>
<path d="M163.947 172.858L170.93 176.652L169.165 177.673L162.95 174.171H151.747L143.46 169.647L145.148 168.699L152.821 172.858H163.947Z" fill="#171753"/>
<path d="M168.321 169.867L175.84 173.952L174.152 174.901L167.323 171.18L156.197 171.253L147.834 166.656L149.522 165.708L157.195 169.867H168.321Z" fill="#171753"/>
<path d="M97.6515 177.017L96.7307 177.527L88.367 182.124V188.618L84.1468 190.952L82.4587 190.004L85.9116 188.034V181.54L94.9659 176.579L95.9634 176.068L97.6515 177.017Z" fill="#171753"/>
<path d="M92.1265 173.953L91.129 174.463L82.842 179.06V186.283L79.2357 188.253L77.5476 187.305L80.3866 185.772V178.476L89.4409 173.515L90.3617 173.004L92.1265 173.953Z" fill="#171753"/>
<path d="M109.852 184.386L109.545 184.532L100.414 189.567H92.7411L87.2164 192.631L85.4516 191.682L91.7436 188.18H99.4167L107.78 183.584L108.164 183.438L109.852 184.386Z" fill="#171753"/>
<path d="M85.6051 170.231L84.5309 170.815L76.2439 175.412H64.9644L60.4372 177.892L58.6724 176.944L63.9669 174.025H75.2464L82.8428 169.867L83.917 169.356L85.6051 170.231Z" fill="#171753"/>
<path d="M79.62 167.094L78.6992 167.604L68.8009 173.077H53.915L52.7641 173.66L50.9992 172.712L52.8408 171.69H67.8034L77.0112 166.656L77.9319 166.145L79.62 167.094Z" fill="#171753"/>
<path d="M136.114 162.064V164.679C136.114 165.128 135.8 165.576 135.171 165.95V163.334C135.8 162.961 136.114 162.512 136.114 162.064Z" fill="#FFA6A6"/>
<path d="M136.114 162.064V164.68C136.114 165.128 135.8 165.577 135.171 165.95V163.335C135.8 162.961 136.114 162.513 136.114 162.064Z" fill="#FFA6A6"/>
<path d="M92.8093 164.679V162.064C92.8093 162.512 93.1236 162.961 93.7524 163.334V165.95C93.1236 165.576 92.8093 165.128 92.8093 164.679Z" fill="#FFA6A6"/>
<path d="M93.831 163.335V165.95C93.2023 165.577 92.8879 165.128 92.8879 164.68V162.064C92.8093 162.512 93.2023 162.961 93.831 163.335Z" fill="#FFA6A6"/>
<path d="M135.171 163.335V165.95L116.859 176.039V173.498L135.171 163.335Z" fill="#FFA6A6"/>
<path d="M112.223 173.498V176.039L93.8317 165.95V163.335L112.223 173.498Z" fill="#FFA6A6"/>
<path d="M116.859 173.498V176.113C115.601 176.786 113.558 176.786 112.222 176.113V173.498C113.558 174.17 115.601 174.17 116.859 173.498Z" fill="#FFA6A6"/>
<path d="M135.171 160.793C136.428 161.466 136.428 162.661 135.171 163.334L116.859 173.498C115.601 174.17 113.558 174.17 112.222 173.498L93.7523 163.334C92.4948 162.661 92.4948 161.466 93.7523 160.793L112.065 150.63C113.322 149.957 115.365 149.957 116.701 150.63L135.171 160.793Z" fill="#171753"/>
<path d="M136.114 159.672V161.167C136.114 161.615 135.8 162.064 135.171 162.437V160.943C135.8 160.569 136.114 160.121 136.114 159.672Z" fill="#171753"/>
<path d="M136.114 159.672V161.166C136.114 161.615 135.8 162.063 135.171 162.437V160.942C135.8 160.569 136.114 160.12 136.114 159.672Z" fill="#171753"/>
<path d="M92.8096 161.167V159.672C92.8096 160.12 93.124 160.569 93.7528 160.942V162.437C93.124 162.063 92.8096 161.615 92.8096 161.167Z" fill="#171753"/>
<path d="M93.8311 160.942V162.437C93.2024 162.063 92.888 161.615 92.888 161.166V159.672C92.8094 160.12 93.1238 160.569 93.8311 160.942Z" fill="#171753"/>
<path d="M135.171 160.942V162.437L116.859 172.526V171.106L135.171 160.942Z" fill="#171753"/>
<path d="M112.221 171.106V172.526L93.8304 162.437V160.942L112.221 171.106Z" fill="#171753"/>
<path d="M116.859 171.106V172.601C115.601 173.273 113.558 173.273 112.222 172.601V171.106C113.558 171.779 115.601 171.779 116.859 171.106Z" fill="#171753"/>
<path d="M135.171 158.401C136.429 159.074 136.429 160.269 135.171 160.942L116.859 171.105C115.602 171.778 113.558 171.778 112.222 171.105L93.7527 160.942C92.4953 160.269 92.4953 159.074 93.7527 158.401L112.065 148.237C113.322 147.565 115.366 147.565 116.702 148.237L135.171 158.401Z" fill="#FFA6A6"/>
<g style="mix-blend-mode:overlay" opacity="0.6">
<path opacity="0.6364" d="M144.313 116.298C157.614 123.61 157.704 135.44 144.461 142.752C131.248 150.064 109.722 150.064 96.4202 142.752C83.1184 135.468 83.059 123.61 96.2717 116.298C109.514 108.985 131.011 108.985 144.313 116.298Z" fill="#FDD2D2"/>
<path opacity="0.7273" d="M143.897 123.215C156.991 130.386 157.05 142.046 144.045 149.217C131.04 156.389 109.9 156.389 96.8356 149.217C83.7713 142.046 83.7119 130.386 96.6871 123.215C109.692 116.044 130.832 116.044 143.897 123.215Z" fill="#FDD2D2"/>
<path opacity="0.8182" d="M143.482 130.132C156.338 137.19 156.398 148.625 143.63 155.683C130.863 162.741 110.109 162.741 97.2523 155.683C84.3958 148.625 84.3364 137.19 97.1038 130.132C109.871 123.074 130.655 123.074 143.482 130.132Z" fill="#FDD2D2"/>
<path opacity="0.9091" d="M143.096 137.021C155.715 143.938 155.774 155.175 143.245 162.12C130.715 169.037 110.317 169.037 97.6977 162.12C85.0788 155.203 85.0194 143.966 97.5492 137.021C110.079 130.104 130.477 130.104 143.096 137.021Z" fill="#FDD2D2"/>
<path opacity="0.7" d="M142.68 143.938C155.062 150.742 155.121 161.753 142.829 168.557C130.507 175.361 110.495 175.361 98.1134 168.557C85.732 161.753 85.6726 150.742 97.9649 143.938C110.257 137.134 130.269 137.134 142.68 143.938Z" fill="#FDD2D2"/>
</g>
<path d="M164.614 154.047L164.717 144.447H161.302C158.923 140.938 155.301 137.738 150.437 134.952C131.501 124.011 100.665 124.011 81.7292 134.952C76.8659 137.738 73.2442 141.041 70.8642 144.447H67.4495L67.553 154.047C67.553 154.563 67.553 156.214 67.553 156.214L67.6565 156.627C68.2773 163.336 72.9338 169.426 81.7292 174.483C100.665 185.424 131.501 185.424 150.437 174.483C159.233 169.426 163.889 162.82 164.51 156.214C164.51 156.111 164.614 154.459 164.614 154.047Z" fill="#FFA6A6"/>
<path d="M116.083 183.876C103.459 183.876 90.7317 181.089 81.1084 175.516C72.2094 170.355 67.1391 163.852 66.4147 156.73L66.3113 156.111C66.3113 156.111 66.3113 154.356 66.3113 153.84L66.2078 143.209H70.2434C72.8303 139.699 76.4519 136.5 81.1084 133.816C100.355 122.669 131.812 122.669 151.058 133.816C155.715 136.5 159.336 139.699 161.923 143.209H165.959L165.855 154.047C165.855 154.563 165.752 156.317 165.752 156.317C165.028 163.749 159.854 170.561 151.058 175.619C141.435 181.089 128.707 183.876 116.083 183.876ZM68.7947 156.008L68.8982 156.421C69.519 162.82 73.9685 168.6 82.3501 173.348C100.976 184.083 131.191 184.083 149.817 173.348C157.888 168.703 162.751 162.51 163.269 156.008C163.269 156.008 163.372 154.459 163.372 154.047V153.943V145.583H160.578L160.164 145.067C157.784 141.661 154.266 138.564 149.713 135.88C131.087 125.146 100.872 125.146 82.2466 135.88C77.6937 138.564 74.1755 141.557 71.7955 145.067L71.3816 145.583H68.7947V153.84C68.7947 154.459 68.7947 155.595 68.7947 156.008Z" fill="#171753"/>
<path d="M161.302 144.447C158.922 140.938 155.301 137.738 150.437 134.951C142.47 130.41 132.433 127.726 122.188 127.004V182.431C132.536 181.708 142.573 179.025 150.437 174.483C159.233 169.426 163.889 162.82 164.51 156.214C164.51 156.214 164.614 154.562 164.614 154.046L164.717 144.447H161.302Z" fill="#171753"/>
<path d="M150.437 124.63C169.374 135.571 169.374 153.221 150.437 164.162C131.501 175.103 100.665 175.103 81.7292 164.162C62.7931 153.221 62.7931 135.571 81.7292 124.63C100.665 113.689 131.501 113.689 150.437 124.63Z" fill="#ECFFFE"/>
<path d="M116.083 173.658C103.459 173.658 90.7317 170.871 81.1084 165.297C71.4851 159.827 66.2078 152.395 66.2078 144.447C66.2078 136.5 71.4851 129.068 81.1084 123.598C100.355 112.45 131.812 112.45 151.058 123.598C160.682 129.068 165.959 136.5 165.959 144.447C165.959 152.395 160.682 159.827 151.058 165.297C141.435 170.871 128.707 173.658 116.083 173.658ZM116.083 117.714C103.873 117.714 91.663 120.398 82.3501 125.765C73.5546 130.823 68.7947 137.429 68.7947 144.447C68.7947 151.466 73.6581 158.072 82.3501 163.13C100.976 173.864 131.191 173.864 149.817 163.13C158.612 158.072 163.372 151.466 163.372 144.447C163.372 137.429 158.509 130.823 149.817 125.765C140.504 120.398 128.294 117.714 116.083 117.714Z" fill="#171753"/>
<path d="M78.3145 161.375H76.5554V171.697H78.3145V161.375Z" fill="#171753"/>
<path d="M113.393 172.419H111.634V182.741H113.393V172.419Z" fill="#171753"/>
<path d="M151.99 164.265H151.058V173.245H151.99V164.265Z" fill="#FFA6A6"/>
<path d="M157.991 159.207H157.06V168.187H157.991V159.207Z" fill="#FFA6A6"/>
<path d="M141.332 129.894C155.301 137.945 155.301 150.95 141.332 159.001C127.362 167.052 104.804 167.052 90.8352 159.001C76.8659 150.95 76.8659 137.945 90.8352 129.894C104.804 121.843 127.362 121.843 141.332 129.894Z" fill="#FFA6A6"/>
<path d="M116.083 166.226C106.667 166.226 97.3542 164.162 90.2143 160.033C83.0744 155.904 79.1423 150.331 79.1423 144.447C79.1423 138.461 83.0744 132.99 90.2143 128.862C104.494 120.604 127.673 120.604 141.952 128.862C149.092 132.99 153.024 138.564 153.024 144.447C153.024 150.434 149.092 155.904 141.952 160.033C134.813 164.162 125.5 166.226 116.083 166.226ZM116.083 125.043C107.184 125.043 98.2854 127.004 91.456 130.926C85.144 134.539 81.6258 139.39 81.6258 144.447C81.6258 149.505 85.144 154.253 91.456 157.969C105.011 165.813 127.155 165.813 140.711 157.969C147.023 154.356 150.541 149.505 150.541 144.447C150.541 139.39 147.023 134.642 140.711 130.926C133.881 127.004 124.982 125.043 116.083 125.043Z" fill="#171753"/>
<path d="M141.332 138.048C127.362 129.997 104.804 129.997 90.8352 138.048C85.6614 141.041 82.4536 144.654 81.1084 148.473C82.4536 152.292 85.6614 156.008 90.8352 158.898C104.804 166.949 127.362 166.949 141.332 158.898C146.505 155.904 149.713 152.292 151.058 148.473C149.713 144.654 146.505 141.041 141.332 138.048Z" fill="#FFA6A6"/>
<path d="M116.083 166.226C106.667 166.226 97.3541 164.162 90.2143 160.033C84.937 157.04 81.4188 153.117 79.8667 148.886L79.7632 148.473L79.8667 148.06C81.3153 143.828 84.937 139.906 90.2143 136.912C104.494 128.655 127.673 128.655 141.952 136.912C147.23 139.906 150.748 143.828 152.3 148.06L152.404 148.473L152.3 148.886C150.851 153.117 147.23 157.04 141.952 160.033C134.813 164.162 125.5 166.226 116.083 166.226ZM82.3501 148.473C83.6953 151.982 86.7996 155.285 91.3525 157.865C104.908 165.71 127.052 165.71 140.607 157.865C145.16 155.285 148.264 151.982 149.61 148.473C148.264 144.963 145.16 141.66 140.607 139.08C127.052 131.236 104.908 131.236 91.3525 139.08C86.903 141.764 83.7988 144.963 82.3501 148.473Z" fill="#171753"/>
<path d="M124.879 124.32H123.12V132.474H124.879V124.32Z" fill="#171753"/>
<path d="M132.64 126.694H130.88V134.848H132.64V126.694Z" fill="#171753"/>
<path d="M109.357 124.32V131.958L97.975 134.848L85.2474 142.177L81.1084 147.028L80.3841 142.073L85.2474 134.022L91.9734 129.274L100.562 125.868L109.357 124.32Z" fill="#171753"/>
<path d="M89.8004 184.702C84.0057 182.741 78.8319 180.263 74.1755 177.167L75.2102 175.722C79.6597 178.715 84.7301 181.192 90.3178 183.05L89.8004 184.702Z" fill="#171753"/>
<path d="M72.0025 175.103C65.4835 169.632 63.0001 164.884 62.8966 164.678L64.4487 163.852C64.4487 163.852 66.8287 168.497 73.0372 173.658L72.0025 175.103Z" fill="#171753"/>
<path d="M160.475 125.765C157.37 123.288 153.956 121.017 150.231 119.262L151.058 117.714C154.887 119.572 158.405 121.843 161.613 124.423L160.475 125.765Z" fill="#171753"/>
<path d="M147.333 117.921C130.156 110.696 112.876 113.069 112.669 113.069L112.462 111.315C112.669 111.315 130.467 108.838 148.058 116.269L147.333 117.921Z" fill="#171753"/>
<path d="M127.052 154.666C125.5 156.008 126.741 157.762 127.052 158.072C126.535 157.969 123.327 157.143 121.05 158.072C120.947 158.072 121.05 158.072 121.05 158.072C122.602 156.73 121.257 154.975 121.05 154.666C121.568 154.769 124.672 155.492 127.052 154.666C127.052 154.563 127.052 154.563 127.052 154.666Z" fill="#171753"/>
<path d="M118.36 149.608C116.808 150.95 118.049 152.705 118.36 153.014C117.842 152.911 114.635 152.085 112.358 153.014C112.255 153.014 112.358 153.014 112.358 153.014C113.91 151.672 112.565 149.918 112.358 149.608C112.876 149.815 116.083 150.537 118.36 149.608Z" fill="#171753"/>
<path d="M135.64 149.608C134.088 150.95 135.33 152.705 135.64 153.014C135.123 152.911 131.915 152.085 129.639 153.014C129.535 153.014 129.639 153.014 129.639 153.014C131.191 151.672 129.846 149.918 129.639 149.608C130.156 149.711 133.364 150.537 135.64 149.608C135.744 149.608 135.64 149.608 135.64 149.608Z" fill="#171753"/>
<path d="M127.052 144.654C125.5 145.996 126.741 147.75 127.052 148.06C126.535 147.957 123.327 147.131 121.05 148.06C120.947 148.06 121.05 148.06 121.05 148.06C122.602 146.718 121.257 144.963 121.05 144.654C121.568 144.757 124.775 145.583 127.052 144.654Z" fill="#171753"/>
<path d="M84.2977 141.562L83.4186 143.082L122.139 165.363L123.018 163.843L84.2977 141.562Z" fill="#171753"/>
<path d="M116.142 131.266L115.27 132.79L149.232 152.141L150.105 150.618L116.142 131.266Z" fill="#171753"/>
<path d="M112.535 149.343C110.365 146.096 109.913 139.601 111.359 134.911C112.897 130.22 115.881 129.138 118.051 132.385C120.222 135.632 120.764 142.127 119.227 146.818C117.599 151.418 114.615 152.591 112.535 149.343Z" fill="#FFA6A6"/>
<path d="M115.248 152.23C114.344 152.23 112.897 151.869 111.631 149.884C109.28 146.276 108.737 139.601 110.365 134.55C111.36 131.573 112.987 129.679 114.796 129.498C115.7 129.408 117.328 129.498 118.775 131.844C121.126 135.452 121.669 142.127 120.041 147.178C119.046 150.155 117.418 151.959 115.61 152.23C115.519 152.23 115.429 152.23 115.248 152.23ZM115.248 131.483C115.158 131.483 115.158 131.483 115.067 131.483C114.253 131.573 113.078 132.655 112.264 135.181C110.817 139.511 111.36 145.735 113.259 148.712C113.62 149.253 114.434 150.245 115.339 150.155C116.152 150.065 117.328 148.982 118.142 146.457C119.589 142.127 119.046 135.903 117.147 132.926C116.785 132.385 116.152 131.483 115.248 131.483Z" fill="#171753"/>
<path d="M120.945 146.096C117.78 147.9 112.716 147.9 109.641 146.096C106.476 144.292 106.476 141.405 109.641 139.601C112.806 137.797 117.87 137.797 120.945 139.601C124.02 141.315 124.02 144.292 120.945 146.096Z" fill="#171753"/>
<path d="M123.839 140.413C119.137 143.119 111.45 143.119 106.747 140.413C102.045 137.707 102.045 133.287 106.747 130.581C111.45 127.874 119.137 127.874 123.839 130.581C128.541 133.287 128.541 137.707 123.839 140.413Z" fill="#FFA6A6"/>
<path d="M115.248 143.48C111.992 143.48 108.646 142.758 106.205 141.315C103.582 139.782 102.135 137.707 102.135 135.542C102.135 133.287 103.582 131.212 106.205 129.769C111.178 126.882 119.317 126.882 124.291 129.769C126.914 131.302 128.36 133.287 128.36 135.542C128.36 137.797 126.914 139.872 124.291 141.315C121.849 142.758 118.503 143.48 115.248 143.48ZM115.248 129.498C112.354 129.498 109.46 130.13 107.199 131.393C105.21 132.475 104.125 133.918 104.125 135.452C104.125 136.895 105.21 138.338 107.199 139.511C111.631 142.037 118.865 142.037 123.296 139.511C125.286 138.429 126.371 136.985 126.371 135.452C126.371 134.009 125.286 132.565 123.296 131.393C121.126 130.22 118.142 129.498 115.248 129.498Z" fill="#171753"/>
<path d="M123.839 136.624C119.137 139.33 111.45 139.33 106.747 136.624C102.045 133.918 102.045 129.498 106.747 126.792C111.45 124.086 119.137 124.086 123.839 126.792C128.541 129.498 128.541 133.828 123.839 136.624Z" fill="#FFA6A6"/>
<path d="M115.248 139.601C111.992 139.601 108.646 138.879 106.205 137.436C103.582 135.903 102.135 133.918 102.135 131.663C102.135 129.408 103.582 127.333 106.205 125.89C111.178 123.003 119.317 123.003 124.291 125.89C126.914 127.423 128.36 129.498 128.36 131.663C128.36 133.918 126.914 135.993 124.291 137.436C121.849 138.879 118.503 139.601 115.248 139.601ZM115.248 125.71C112.354 125.71 109.46 126.341 107.199 127.604C105.21 128.777 104.125 130.13 104.125 131.663C104.125 133.106 105.21 134.55 107.199 135.722C111.631 138.248 118.865 138.248 123.296 135.722C125.286 134.64 126.371 133.197 126.371 131.663C126.371 130.22 125.286 128.777 123.296 127.604C121.126 126.341 118.142 125.71 115.248 125.71Z" fill="#171753"/>
<path d="M123.839 132.565C119.137 135.271 111.45 135.271 106.747 132.565C102.045 129.859 102.045 125.439 106.747 122.733C111.45 120.027 119.137 120.027 123.839 122.733C128.541 125.439 128.541 129.859 123.839 132.565Z" fill="#FFA6A6"/>
<path d="M115.248 135.632C111.992 135.632 108.646 134.91 106.205 133.467C103.582 131.934 102.135 129.859 102.135 127.694C102.135 125.439 103.582 123.364 106.205 121.921C111.178 119.034 119.317 119.034 124.291 121.921C126.914 123.454 128.36 125.529 128.36 127.694C128.36 129.949 126.914 132.024 124.291 133.467C121.849 134.91 118.503 135.632 115.248 135.632ZM115.248 121.741C112.354 121.741 109.46 122.372 107.199 123.635C105.21 124.717 104.125 126.161 104.125 127.694C104.125 129.228 105.21 130.581 107.199 131.753C111.631 134.279 118.865 134.279 123.296 131.753C125.286 130.671 126.371 129.228 126.371 127.694C126.371 126.251 125.286 124.808 123.296 123.635C121.126 122.372 118.142 121.741 115.248 121.741Z" fill="#171753"/>
<path d="M123.839 128.416C119.137 131.122 111.45 131.122 106.747 128.416C102.045 125.71 102.045 121.29 106.747 118.584C111.45 115.877 119.137 115.877 123.839 118.584C128.541 121.29 128.541 125.71 123.839 128.416Z" fill="#FFA6A6"/>
<path d="M115.248 131.483C111.992 131.483 108.646 130.761 106.205 129.318C103.582 127.784 102.135 125.8 102.135 123.545C102.135 121.29 103.582 119.215 106.205 117.772C111.178 114.885 119.317 114.885 124.291 117.772C126.914 119.305 128.36 121.29 128.36 123.545C128.36 125.8 126.914 127.875 124.291 129.318C121.849 130.761 118.503 131.483 115.248 131.483ZM115.248 117.501C112.354 117.501 109.46 118.133 107.199 119.395C105.21 120.568 104.125 121.921 104.125 123.455C104.125 124.898 105.21 126.341 107.199 127.514C111.631 130.04 118.865 130.04 123.296 127.514C125.286 126.341 126.371 124.988 126.371 123.455C126.371 122.011 125.286 120.568 123.296 119.395C121.126 118.133 118.142 117.501 115.248 117.501Z" fill="#171753"/>
<path d="M147.351 75.0149C147.351 57.3348 132.973 43.0825 115.248 43.0825C97.5234 43.0825 83.1448 57.425 83.1448 75.1051C83.1448 82.2312 85.496 88.8162 89.475 94.1382C89.475 94.1382 98.699 105.684 103.221 119.937C103.492 121.47 104.667 122.913 106.657 124.086C111.359 126.792 119.046 126.792 123.749 124.086C125.828 122.913 126.914 121.38 127.185 119.846C131.706 105.594 140.93 94.048 140.93 94.048C145 88.7259 147.351 82.141 147.351 75.0149Z" fill="#FDD2D2"/>
<path d="M115.248 127.153C111.992 127.153 108.646 126.431 106.205 124.988C103.944 123.725 102.587 122.011 102.226 120.117C97.7946 106.316 88.8419 94.8598 88.661 94.7696C84.4108 88.9965 82.15 82.2312 82.15 75.105C82.15 56.8837 96.9807 42 115.248 42C133.515 42 148.346 56.7935 148.346 75.0148C148.346 82.141 146.085 88.9063 141.835 94.5892C141.744 94.7696 132.611 106.226 128.18 120.207C127.999 121.47 127.094 123.364 124.291 124.988C121.849 126.431 118.503 127.153 115.248 127.153ZM115.248 44.0747C98.1563 44.0747 84.2299 57.9662 84.2299 75.0148C84.2299 81.6899 86.3098 88.0042 90.3792 93.4165C90.4697 93.5067 99.6937 105.233 104.215 119.576C104.487 121.019 105.572 122.192 107.199 123.184C111.631 125.71 118.865 125.71 123.296 123.184C125.014 122.192 126.009 121.019 126.19 119.666C130.712 105.233 140.117 93.5067 140.207 93.4165C144.186 88.0945 146.266 81.6899 146.266 75.0148C146.266 57.9662 132.339 44.0747 115.248 44.0747Z" fill="#171753"/>
<path d="M123.839 124.086C119.137 126.792 111.45 126.792 106.747 124.086C102.045 121.38 102.045 116.96 106.747 114.254C111.45 111.548 119.137 111.548 123.839 114.254C128.541 116.96 128.541 121.38 123.839 124.086Z" fill="#FFA6A6"/>
<path d="M115.248 127.153C111.992 127.153 108.646 126.431 106.205 124.988C103.582 123.455 102.135 121.38 102.135 119.215C102.135 116.96 103.582 114.885 106.205 113.442C111.178 110.555 119.317 110.555 124.291 113.442C126.914 114.975 128.36 117.05 128.36 119.215C128.36 121.47 126.914 123.545 124.291 124.988C121.849 126.431 118.503 127.153 115.248 127.153ZM115.248 113.171C112.354 113.171 109.46 113.803 107.199 115.066C105.21 116.148 104.125 117.591 104.125 119.125C104.125 120.568 105.21 122.011 107.199 123.184C111.631 125.71 118.865 125.71 123.296 123.184C125.286 122.102 126.371 120.658 126.371 119.125C126.371 117.681 125.286 116.238 123.296 115.066C121.126 113.803 118.142 113.171 115.248 113.171Z" fill="#171753"/>
<path d="M106.455 89.6355C109.786 94.1718 111.046 107.605 111.26 113.755C110.913 115.432 110.988 118.754 114.063 118.626C117.908 118.467 118.709 116.71 119.109 115.512C119.509 114.314 119.99 102.973 121.832 96.9032C123.306 92.0474 127.145 85.7221 128.88 83.1664L119.99 85.163L115.745 76.7772L111.26 85.5624L103.411 82.6872L106.455 89.6355Z" fill="#ECFFFE"/>
<path d="M115.158 119.486C113.711 119.486 112.354 118.854 111.45 117.772C110.546 116.689 110.093 115.426 110.184 114.164C110.455 110.375 110.546 96.9345 102.226 83.1332C101.955 82.6822 101.955 82.0508 102.407 81.5997C102.768 81.1487 103.401 81.0585 103.854 81.3291L110.726 84.6667C110.907 84.7569 110.998 84.6667 111.088 84.6667C111.179 84.6667 111.269 84.5765 111.359 84.3961L114.705 76.4581C114.886 76.0071 115.429 75.6462 115.881 75.6462C116.424 75.6462 116.876 75.9169 117.057 76.4581C117.69 77.9014 119.317 82.0508 120.131 84.1255C120.222 84.3059 120.403 84.3961 120.674 84.3961L128.722 81.8703C129.265 81.6899 129.807 81.8703 130.169 82.3214C130.44 82.7724 130.44 83.4038 130.079 83.8548C127.547 87.012 119.227 98.6484 120.131 114.254C120.222 115.246 119.95 116.238 119.498 117.05C118.684 118.403 117.237 119.305 115.7 119.486C115.429 119.486 115.338 119.486 115.158 119.486ZM105.12 84.2157C112.535 97.7463 112.354 110.555 112.173 114.344C112.083 115.066 112.354 115.787 112.897 116.419C113.62 117.23 114.434 117.591 115.429 117.501C116.424 117.411 117.237 116.87 117.69 116.058C117.961 115.607 118.142 114.975 118.051 114.344C117.237 100.272 123.477 89.3573 127.004 84.4863L121.126 86.2904C119.86 86.6512 118.594 86.11 118.142 84.8471C117.509 83.3136 116.514 80.7879 115.7 78.8936L113.078 85.2079C112.806 85.8393 112.354 86.2904 111.721 86.561C111.088 86.8316 110.365 86.7414 109.822 86.4708L105.12 84.2157Z" fill="#171753"/>
<path d="M96.8001 124.898C96.8001 124.808 95.2628 118.584 92.2786 112.179L94.0872 111.367C97.0714 117.952 98.6992 124.176 98.6992 124.447L96.8001 124.898Z" fill="#171753"/>
<path d="M90.1082 107.849C88.2091 104.512 86.2196 101.986 84.1397 100.362L85.4057 98.7385C87.6665 100.543 89.8369 103.249 91.8264 106.767L90.1082 107.849Z" fill="#171753"/>
<path d="M154.224 79.9761L152.325 79.4349C153.591 75.1051 152.325 69.2418 152.325 69.1516L154.315 68.7006C154.315 68.9712 155.671 75.1051 154.224 79.9761Z" fill="#171753"/>
<path d="M215.107 195.884V187.545C215.107 187.387 215.107 187.387 214.95 187.387L210.863 186.443L198.6 179.52L198.443 179.363V172.125C198.443 171.967 198.285 171.81 198.128 171.967L193.883 173.698L170.301 175.586L150.021 178.261C149.863 178.261 149.863 178.418 149.863 178.418L149.706 188.489C149.706 188.646 149.549 188.646 149.549 188.646L145.304 188.174C145.147 188.174 145.147 188.331 145.147 188.331V197.457C145.147 197.772 145.147 197.93 145.304 198.244L148.763 205.797C149.392 207.056 151.593 207.842 153.794 207.528L157.724 206.898C158.51 207.528 159.296 208 160.24 208.472C160.711 208.786 161.34 209.101 161.969 209.416V213.192C162.126 214.136 163.227 214.923 164.956 215.238L177.848 217.283C180.049 217.598 182.25 216.811 182.878 215.552L183.979 213.192C186.494 213.035 188.853 212.563 191.211 212.091L194.041 213.822C195.613 214.766 198.128 214.766 199.858 213.822L209.29 208.314C210.234 207.842 210.548 207.056 210.391 206.426C210.391 206.426 210.391 206.426 210.391 206.269V198.716L212.278 198.402C214.007 198.087 215.265 196.985 215.107 195.884Z" fill="#ECFFFE"/>
<path d="M178.634 217.755C178.319 217.755 177.848 217.755 177.533 217.598L164.642 215.552C162.755 215.238 161.34 214.294 161.183 213.035V212.878V209.573C160.711 209.416 160.24 209.101 159.925 208.787C159.139 208.315 158.353 207.842 157.567 207.213L153.951 207.842C151.436 208.157 148.92 207.37 148.291 205.797L144.833 198.244C144.675 197.93 144.675 197.615 144.675 197.3V197.143V188.017C144.675 187.702 144.833 187.545 144.99 187.387C145.147 187.23 145.461 187.073 145.619 187.23L149.235 187.545L149.392 177.947C149.392 177.475 149.706 177.16 150.178 177.16L170.459 174.485L194.041 172.597L198.128 170.866C198.443 170.709 198.757 170.866 198.914 171.023C199.229 171.181 199.229 171.495 199.229 171.81V178.733L211.177 185.499L215.108 186.443C215.422 186.601 215.736 186.915 215.736 187.23V195.569C215.894 196.199 215.736 196.671 215.422 197.143C214.793 197.93 213.693 198.559 212.278 198.874L211.02 199.031V206.112C211.02 207.056 210.548 207.842 209.448 208.472L200.015 213.979C198.286 215.08 195.456 215.08 193.569 213.979L190.896 212.406C188.695 212.878 186.494 213.192 184.136 213.507L183.193 215.71C182.564 216.969 180.678 217.755 178.634 217.755ZM162.441 213.035C162.598 213.507 163.384 214.294 164.799 214.451L177.69 216.497C179.734 216.811 181.621 216.025 181.935 215.238L183.193 212.563H183.507C186.023 212.406 188.381 211.933 190.739 211.461H191.054L194.198 213.192C195.613 213.979 197.971 213.979 199.229 213.192L208.662 207.685C209.291 207.37 209.605 206.898 209.448 206.426V206.269V206.112V198.087L211.806 197.772C212.907 197.615 213.693 197.143 214.007 196.671C214.164 196.514 214.164 196.199 214.164 196.041V195.884V187.859L210.234 186.915L197.971 179.992C197.657 179.835 197.499 179.52 197.499 179.205V172.754L193.726 174.17L170.144 176.058L150.335 178.733L150.178 188.489C150.178 188.804 150.021 188.961 149.863 189.118C149.706 189.276 149.392 189.433 149.235 189.276L145.619 188.961V197.458V197.615C145.619 197.772 145.619 197.93 145.619 198.087L149.077 205.64C149.549 206.426 151.278 207.213 153.322 206.898L157.567 206.269L157.724 206.426C158.51 207.056 159.296 207.528 160.082 208C160.554 208.315 161.183 208.629 161.655 208.787L161.969 208.944L162.441 213.035Z" fill="#171753"/>
<path d="M150.336 207.055C151.279 207.37 152.537 207.528 153.637 207.37L157.567 206.741V191.006H150.336V207.055Z" fill="#171753"/>
<path d="M152.537 208.157C151.594 208.157 150.808 208 150.021 207.685L149.55 207.528V190.377H158.197V208.157L157.411 207.528L153.795 208.157C153.323 208.157 153.009 208.157 152.537 208.157ZM150.965 206.584C151.751 206.741 152.694 206.898 153.48 206.741L156.939 206.269V191.793H150.965V206.584Z" fill="#171753"/>
<path d="M182.564 215.395L183.665 213.035C186.18 212.877 188.539 212.405 190.897 211.933L193.727 213.664C195.299 214.608 197.814 214.608 199.544 213.664L208.976 208.157C209.92 207.685 210.234 206.898 210.077 206.269C210.077 206.269 210.077 206.269 210.077 206.111V198.559L211.964 198.244C214.007 197.929 215.108 196.828 214.951 195.726V187.387C214.951 187.23 214.951 187.23 214.793 187.23L210.706 186.286L209.763 185.656C206.461 187.23 202.845 189.118 202.688 189.118C202.531 189.275 192.312 198.244 192.312 198.244L177.691 202.02V207.842V217.126C179.735 217.44 182.093 216.654 182.564 215.395Z" fill="#171753"/>
<path d="M178.634 217.755C178.32 217.755 177.848 217.755 177.534 217.598H176.905V201.549L191.84 197.772C195.77 194.311 201.745 189.275 202.059 188.803C202.216 188.646 202.216 188.646 209.291 185.184L209.605 185.027L210.863 185.814L214.793 186.758C215.108 186.915 215.422 187.23 215.422 187.545V195.884C215.58 196.513 215.422 196.985 215.108 197.458C214.479 198.244 213.379 198.874 211.964 199.188L210.706 199.346V206.426C210.706 207.37 210.234 208.157 209.134 208.786L199.701 214.294C197.971 215.395 195.142 215.395 193.255 214.294L190.582 212.72C188.381 213.192 186.18 213.507 183.822 213.822L183.193 215.71C182.564 216.969 180.678 217.755 178.634 217.755ZM178.32 216.496C180.049 216.654 181.621 215.867 182.093 215.08L183.351 212.405H183.665C186.18 212.248 188.539 211.776 190.897 211.304H191.211L194.356 213.035C195.77 213.822 198.129 213.822 199.386 213.035L208.819 207.528C209.448 207.213 209.763 206.741 209.605 206.269V206.112V205.954V197.93L211.964 197.615C213.064 197.458 213.85 196.985 214.165 196.513C214.322 196.356 214.322 196.041 214.322 195.884V195.727V187.702L210.391 186.758L209.605 186.286C204.26 188.961 203.16 189.433 203.002 189.59C202.531 190.062 200.801 191.636 192.626 198.716L192.469 198.874L178.162 202.493L178.32 216.496Z" fill="#171753"/>
<path d="M206.462 177.16L202.531 177.789C201.745 177.16 200.959 176.688 200.016 176.216C199.073 175.744 198.129 175.272 197.186 174.8L198.287 172.597C198.916 171.338 197.658 170.079 195.457 169.764L182.565 167.719C180.364 167.404 178.163 168.191 177.534 169.45L176.434 171.653C173.918 171.81 171.56 172.282 169.202 172.754L166.215 170.866C164.643 169.922 162.127 169.922 160.398 170.866L150.965 176.373C149.393 177.317 149.393 178.733 150.965 179.677L153.795 181.408C152.852 182.824 152.223 184.24 151.908 185.656L147.978 186.286C145.777 186.601 144.519 187.859 145.148 189.118L148.607 196.671C149.236 197.93 151.437 198.716 153.638 198.402L157.568 197.772C158.354 198.402 159.14 198.874 160.084 199.346C161.027 199.818 161.97 200.29 162.913 200.762L161.813 202.965C161.184 204.223 162.442 205.482 164.643 205.797L177.534 207.842C179.735 208.157 181.936 207.37 182.565 206.112L183.666 203.751C186.181 203.594 188.539 203.122 190.898 202.65L193.727 204.381C195.3 205.325 197.815 205.325 199.544 204.381L208.977 198.874C210.549 197.93 210.549 196.513 208.977 195.569L206.147 193.839C207.091 192.422 207.72 191.006 208.034 189.59L211.964 188.961C214.165 188.646 215.423 187.387 214.794 186.129L211.493 178.733C210.864 177.474 208.663 176.845 206.462 177.16Z" fill="#FFA6A6"/>
<path d="M178.635 208.629C178.32 208.629 177.849 208.629 177.534 208.472L164.642 206.426C163.07 206.112 161.813 205.482 161.341 204.538C161.027 203.909 161.027 203.28 161.341 202.65L162.127 200.919C161.341 200.605 160.555 200.133 159.769 199.661C158.983 199.189 158.197 198.716 157.411 198.087L153.795 198.716C151.279 199.031 148.764 198.244 148.135 196.671L144.676 189.118C144.362 188.489 144.362 187.86 144.676 187.23C145.148 186.286 146.406 185.499 147.978 185.342L151.436 184.87C151.751 183.769 152.223 182.51 153.009 181.408L150.65 180.307C149.707 179.677 149.078 178.891 149.078 178.104C149.078 177.16 149.55 176.373 150.65 175.901L160.083 170.394C161.813 169.293 164.642 169.293 166.529 170.394L169.202 171.967C171.403 171.495 173.604 171.181 175.962 170.866L176.905 168.978C177.691 167.404 180.05 166.618 182.565 166.932L195.457 168.978C197.029 169.293 198.286 169.922 198.758 170.866C199.072 171.495 199.072 172.125 198.758 172.754L197.972 174.485C198.758 174.8 199.544 175.272 200.33 175.744C201.116 176.216 201.902 176.688 202.688 177.317L206.304 176.688C208.82 176.373 211.335 177.16 211.964 178.733L215.423 186.286C215.737 186.915 215.737 187.545 215.423 188.174C214.951 189.118 213.693 189.905 212.121 190.062L208.663 190.534C208.348 191.636 207.876 192.895 207.09 193.996L209.291 195.255C210.235 195.884 210.864 196.671 210.864 197.458C210.864 198.402 210.392 199.189 209.291 199.661L199.859 205.168C198.129 206.269 195.299 206.269 193.413 205.168L190.74 203.594C188.539 204.066 186.338 204.381 183.98 204.696L183.194 206.426C182.565 207.685 180.678 208.629 178.635 208.629ZM157.725 196.828L157.882 196.986C158.668 197.615 159.454 198.087 160.24 198.559C161.027 199.031 161.97 199.503 163.07 199.975L163.699 200.29L162.284 203.122C162.127 203.437 162.127 203.594 162.284 203.752C162.599 204.381 163.542 204.853 164.642 205.01L177.534 207.056C179.578 207.371 181.464 206.584 181.779 205.797L183.037 203.122H183.351C185.866 202.965 188.225 202.493 190.583 202.021H190.897L194.042 203.752C195.457 204.538 197.815 204.538 199.072 203.752L208.505 198.244C208.977 197.93 209.291 197.458 209.291 197.143C209.291 196.828 208.977 196.356 208.505 196.042L205.047 193.996L205.518 193.367C206.462 192.108 207.09 190.692 207.405 189.433L207.562 188.961L211.964 188.332C213.065 188.174 214.008 187.702 214.322 187.073C214.48 186.758 214.48 186.601 214.322 186.443L210.864 178.891C210.392 178.104 208.663 177.317 206.619 177.632L202.374 178.261L202.217 178.104C201.431 177.475 200.645 177.003 199.859 176.531C199.072 176.059 198.129 175.586 197.029 175.114L196.4 174.8L197.815 171.967C197.972 171.653 197.972 171.495 197.815 171.338C197.5 170.709 196.557 170.237 195.457 170.079L182.565 168.034C180.521 167.719 178.635 168.506 178.32 169.293L177.062 171.967H176.748C174.233 172.125 171.874 172.597 169.516 173.069H169.202L166.057 171.338C164.642 170.551 162.284 170.551 161.027 171.338L151.594 176.845C151.122 177.16 150.808 177.632 150.808 177.947C150.808 178.261 151.122 178.733 151.594 179.048L155.052 181.094L154.581 181.723C153.637 182.982 153.009 184.398 152.694 185.657L152.537 186.129L148.135 186.758C147.034 186.915 146.091 187.387 145.777 188.017C145.62 188.332 145.62 188.489 145.777 188.646L149.235 196.199C149.707 196.986 151.436 197.772 153.48 197.458L157.725 196.828Z" fill="#171753"/>
<path d="M188.381 182.825C192.94 185.5 192.94 189.905 188.381 192.58C183.822 195.255 176.275 195.255 171.559 192.58C167 189.905 167 185.5 171.559 182.825C176.275 180.15 183.822 180.15 188.381 182.825Z" fill="#ECFFFE"/>
<path d="M180.049 195.098C176.904 195.098 173.76 194.468 171.245 193.052C168.887 191.636 167.472 189.748 167.472 187.702C167.472 185.657 168.887 183.769 171.245 182.195C176.118 179.363 183.822 179.363 188.696 182.195C191.211 183.611 192.469 185.499 192.469 187.702C192.469 189.748 191.054 191.636 188.696 193.209C186.337 194.468 183.193 195.098 180.049 195.098ZM180.049 181.408C177.062 181.408 174.232 182.038 172.031 183.297C169.987 184.398 168.887 185.971 168.887 187.545C168.887 189.118 169.987 190.692 172.031 191.793C176.433 194.311 183.665 194.311 188.224 191.793C190.268 190.692 191.368 189.118 191.368 187.545C191.368 185.971 190.268 184.398 188.224 183.297C185.866 182.038 182.879 181.408 180.049 181.408Z" fill="#171753"/>
<path d="M180.049 180.779C177.062 180.779 173.918 181.408 171.717 182.824C167.157 185.499 167.157 189.905 171.717 192.58C173.918 193.839 176.59 194.468 179.42 194.625H180.049V180.779Z" fill="#171753"/>
<path d="M180.678 195.098H179.263C176.276 194.94 173.446 194.311 171.245 193.052C168.887 191.636 167.472 189.748 167.472 187.702C167.472 185.657 168.887 183.769 171.245 182.195C173.603 180.779 176.747 180.15 180.049 180.15H180.678V195.098ZM179.263 181.408C176.433 181.566 173.917 182.195 171.874 183.297C169.83 184.398 168.729 185.971 168.729 187.545C168.729 189.118 169.83 190.692 171.874 191.793C173.76 192.895 176.433 193.524 179.263 193.681V181.408Z" fill="#171753"/>
<path d="M171.56 192.423C176.276 195.098 183.823 195.098 188.382 192.423C183.823 189.748 176.276 189.748 171.56 192.423Z" fill="#ECFFFE"/>
<path d="M179.893 195.097C176.749 195.097 173.604 194.468 171.246 193.052L170.932 192.895V192.108L171.246 191.793C175.962 188.961 183.98 188.961 188.854 191.636L189.168 191.793V192.58L188.854 192.895C186.339 194.468 183.194 195.097 179.893 195.097ZM172.975 192.423C177.063 194.311 182.88 194.311 186.967 192.423C182.88 190.534 177.063 190.534 172.975 192.423Z" fill="#171753"/>
</svg>
