<svg width="32" height="33" viewBox="0 0 32 33" fill="none" xmlns="http://www.w3.org/2000/svg">
<g clip-path="url(#clip0_301_10546)">
<path d="M10.0909 7.9476C10.0906 8.57622 9.83969 9.17898 9.39342 9.62326C8.94715 10.0675 8.34205 10.317 7.71125 10.3166C7.08044 10.3163 6.4756 10.0663 6.02978 9.62158C5.58395 9.17686 5.33367 8.57385 5.33398 7.94523C5.3343 7.3166 5.58519 6.71384 6.03146 6.26956C6.47773 5.82528 7.08282 5.57586 7.71363 5.57617C8.34443 5.57649 8.94928 5.82651 9.3951 6.27124C9.84092 6.71597 10.0912 7.31897 10.0909 7.9476ZM10.1622 12.0718H5.40534V26.9095H10.1622V12.0718ZM17.6782 12.0718H12.945V26.9095H17.6306V19.1233C17.6306 14.7857 23.3032 14.3828 23.3032 19.1233V26.9095H28.0007V17.5115C28.0007 10.1993 19.6047 10.4719 17.6306 14.0628L17.6782 12.0718Z" fill="#BEF0ED"/>
</g>
<defs>
<clipPath id="clip0_301_10546">
<rect width="32" height="32" fill="white" transform="translate(0 0.243164)"/>
</clipPath>
</defs>
</svg>
