<?xml version="1.0" standalone="no"?>
<!DOCTYPE svg PUBLIC "-//W3C//DTD SVG 20010904//EN"
 "http://www.w3.org/TR/2001/REC-SVG-20010904/DTD/svg10.dtd">
<svg version="1.0" xmlns="http://www.w3.org/2000/svg"
 width="128.000000pt" height="128.000000pt" viewBox="0 0 128.000000 128.000000"
 preserveAspectRatio="xMidYMid meet">

<g transform="translate(0.000000,128.000000) scale(0.100000,-0.100000)"
fill="#000000" stroke="none">
<path d="M562 974 c-18 -20 -30 -40 -27 -44 3 -4 -2 -10 -10 -14 -17 -6 -20
-37 -5 -52 7 -7 -3 -31 -33 -75 -23 -35 -62 -109 -86 -164 -99 -230 -100 -231
-145 -202 -32 22 -58 80 -60 139 -1 64 19 82 82 74 56 -7 46 8 -19 29 -39 13
-57 15 -75 6 -85 -38 4 -301 102 -301 33 0 65 40 103 128 77 181 177 299 277
328 49 14 59 14 107 0 137 -40 234 -185 225 -337 -3 -58 -8 -73 -30 -95 -52
-53 -171 -27 -378 82 -92 49 -76 27 32 -44 43 -27 56 -42 52 -54 -6 -19 24
-67 42 -68 7 0 22 8 34 18 21 17 27 17 74 5 88 -23 147 -12 199 36 85 77 95
213 28 357 -60 128 -169 210 -293 221 -47 4 -74 13 -105 34 -23 16 -46 29 -50
29 -5 0 -24 -16 -41 -36z"/>
<path d="M812 668 c-16 -16 -15 -53 2 -67 8 -7 27 -11 43 -9 51 6 41 88 -11
88 -12 0 -27 -5 -34 -12z"/>
</g>
</svg>
