<svg width="39" height="29" viewBox="0 0 39 29" fill="none" xmlns="http://www.w3.org/2000/svg">
<path d="M26.4312 15.2621C26.4312 14.1454 27.3246 13.2521 28.4413 13.2521C29.5581 13.2521 30.4515 14.1454 30.4515 15.2621C30.4515 16.3787 29.5581 17.272 28.4413 17.272C27.3246 17.272 26.4312 16.3415 26.4312 15.2621Z" fill="#353570"/>
<path d="M38.5672 20.1379C38.4927 20.7707 38.4183 21.4035 38.2321 21.999C37.6738 24.1207 36.4453 26.0562 34.4351 27.1356C31.6804 28.5501 28.4046 28.029 25.6499 26.9495C23.3791 28.5501 23.3791 28.5501 23.3791 28.5501C22.858 28.8851 22.1879 28.3267 22.4857 27.7684C21.8529 27.8801 21.6667 27.2845 21.8529 26.8006C21.3317 27.2101 20.885 26.4656 21.1828 26.019C21.3689 25.7212 21.6667 25.3862 21.8901 25.1257C18.6887 23.3018 15.7851 21.0685 12.8443 18.8724C14.5194 19.9146 21.22 23.339 22.858 24.0462C24.5703 24.7907 26.2827 25.5351 28.0695 25.9445C29.5586 26.2795 31.4571 26.4656 32.8344 25.6095C34.1001 24.8651 34.584 23.339 34.7702 21.9618C35.2169 18.9841 34.1746 15.6341 32.6111 13.103C30.9731 10.4603 28.2929 8.07809 25.2404 7.29643C24.1236 6.99866 23.0069 6.99866 21.9645 7.18477C19.5449 7.59421 17.3486 9.08308 15.6734 10.9442C13.2538 13.6241 11.5786 16.9369 10.0524 20.2124C9.01003 22.4085 7.55823 27.7684 4.13348 25.6468C2.60723 24.679 1.63936 23.004 0.969301 21.3663C0.224789 19.6168 -0.296371 17.2719 0.187562 15.3736C1.22988 11.3908 6.81372 14.9269 8.71223 16.1924C8.60055 16.1552 4.13348 14.108 2.49555 15.7086C1.75104 16.453 1.78826 17.793 1.89994 18.7607C2.12329 20.5102 2.97948 23.1157 4.61741 24.0834C6.73927 25.3118 7.81881 21.4779 8.3772 20.1379C9.30784 17.8674 10.2013 15.5969 11.2436 13.3636C12.3976 10.9069 13.7749 8.48753 15.6734 6.51478C15.2639 6.03089 14.6683 5.43535 14.6311 4.80258C14.5567 4.09536 15.2639 3.31371 16.0084 3.68592C15.1523 2.71816 16.3063 1.26651 17.423 1.82484C16.9019 1.00596 17.7208 -0.0362523 18.577 0.000969415C19.0609 0.000969415 19.5449 0.410407 19.9171 0.670959C20.885 1.30373 21.8529 1.97372 22.858 2.60649C32.1271 1.15484 39.3861 11.6886 38.5672 20.1379Z" fill="#353570"/>
<path d="M38.2321 21.9994C37.6737 24.121 36.4453 26.0565 34.4351 27.136C31.6804 28.5504 28.4045 28.0293 25.6499 26.9498C23.3791 28.5504 23.3791 28.5504 23.3791 28.5504C22.8579 28.8854 22.1879 28.3271 22.4857 27.7687C21.8528 27.8804 21.6667 27.2848 21.8528 26.801C21.3317 27.2104 20.885 26.466 21.1828 26.0193C21.3689 25.7215 21.6667 25.3865 21.8901 25.126C18.6887 23.3021 15.7851 21.0688 12.8442 18.8727C14.5194 19.9149 21.22 23.3393 22.8579 24.0465C24.5703 24.791 26.2827 25.5354 28.0695 25.9449C29.5585 26.2799 31.457 26.466 32.8344 25.6099C34.1001 24.8654 34.584 23.3393 34.7701 21.9621C35.2168 18.9844 34.1745 15.6344 32.611 13.1033C30.9731 10.4606 28.2929 8.07841 25.2404 7.29675C24.1236 6.99898 23.0068 6.99897 21.9645 7.18508C26.1338 5.91954 34.1745 7.59452 37.0037 14.0339C38.3438 17.1977 38.6044 19.7288 38.2321 21.9994Z" fill="#353570"/>
</svg>
