<svg width="300" height="180" viewBox="0 0 300 180" fill="none" xmlns="http://www.w3.org/2000/svg">
<rect width="300" height="180" fill="#ECFFFE"/>
<path d="M175.928 56.3313C175.928 41.7907 186.122 24.1238 198.791 16.8535C204.616 13.5091 209.932 12.9275 213.937 14.7451L214.301 14.9632L218.451 17.2897L220.781 21.2884C222.893 24.0511 221.582 24.9235 221.582 30.0127C221.582 44.5534 211.388 62.2203 198.719 69.4906C194.277 72.0352 195.442 71.8898 191.947 71.3809L186.559 73.3439L182.7 71.1628L182.336 70.9447C178.404 68.4728 175.928 63.4562 175.928 56.3313Z" fill="#ECFFFE"/>
<path d="M186.559 73.8528L192.02 71.8898C192.311 71.9625 192.529 71.9625 192.748 72.0352C194.859 72.3987 194.932 72.326 197.044 71.0901C197.554 70.7993 198.136 70.4358 198.937 69.9995C211.679 62.5838 222.092 44.6988 222.092 30.0128C222.092 28.3406 222.237 27.1773 222.383 26.2322C222.528 24.1965 222.674 23.0333 221.145 20.9976L218.815 16.9262L214.155 14.3816C209.786 12.4186 204.252 13.1456 198.5 16.49C185.831 23.7603 175.491 41.6453 175.491 56.3313C175.491 63.3835 177.894 68.6909 182.19 71.3082L182.554 71.5263L186.559 73.8528ZM191.947 70.9447L186.704 72.835L182.627 70.5085C178.622 68.0366 176.438 63.02 176.438 56.3313C176.438 41.9361 186.559 24.4146 199.01 17.217C204.471 14.0908 209.713 13.3637 213.791 15.1813L218.16 17.5805L220.417 21.5065C221.8 23.2514 221.655 24.1238 221.436 26.0868C221.291 27.1046 221.145 28.3406 221.145 30.0128C221.145 44.408 211.024 61.9295 198.573 69.1271C197.772 69.5633 197.189 69.9268 196.68 70.2904C194.787 71.4536 194.787 71.4536 192.966 71.1628C192.675 71.0901 192.384 71.0901 192.093 71.0174L191.947 70.9447Z" fill="#171753"/>
<path d="M210.077 59.3122C206.728 63.4563 202.869 67.0187 198.646 69.4179C194.204 71.9626 195.369 71.8172 191.874 71.3082L186.486 73.2712L182.627 71.0901L182.263 70.872C178.258 68.4001 175.782 63.3836 175.782 56.2587C175.782 49.7154 177.821 42.5177 181.243 35.9745L200.685 46.6618L210.077 59.3122Z" fill="#171753"/>
<path d="M186.142 73.0894C177.227 67.9499 177.221 51.2959 186.128 35.8917C195.035 20.4875 209.483 12.1664 218.399 17.306C227.314 22.4456 227.32 39.0996 218.413 54.5037C209.506 69.9079 195.058 78.229 186.142 73.0894Z" fill="#ECFFFE"/>
<path d="M192.093 75.0888C195.296 75.0888 198.864 73.9982 202.505 71.8898C215.247 64.5468 225.587 46.6618 225.587 31.9758C225.587 24.7781 223.111 19.3981 218.669 16.8535C214.228 14.3089 208.33 14.8178 202.068 18.453C189.326 25.796 178.986 43.681 178.986 58.367C178.986 65.5647 181.462 70.9447 185.903 73.4893C187.797 74.5799 189.835 75.0888 192.093 75.0888ZM212.48 16.1992C214.592 16.1992 216.485 16.7081 218.233 17.6532C222.383 20.0524 224.713 25.1417 224.713 31.9758C224.713 46.371 214.592 63.8925 202.141 71.0901C196.17 74.5072 190.636 75.0888 186.486 72.6896C182.336 70.2904 180.006 65.2011 180.006 58.367C180.006 43.9718 190.127 26.4503 202.578 19.2527C206.073 17.217 209.422 16.1992 212.48 16.1992Z" fill="#171753"/>
<path d="M188.547 68.9283C180.955 64.5517 180.946 50.3766 188.526 37.2674C196.106 24.1582 208.406 17.0791 215.998 21.4557C223.59 25.8324 223.599 40.0075 216.019 53.1167C208.438 66.2259 196.139 73.305 188.547 68.9283Z" fill="#5ED9D1"/>
<path d="M193.622 70.7266C196.389 70.7266 199.374 69.7814 202.505 68.0366C213.354 61.7841 222.165 46.5164 222.165 34.0115C222.165 27.8317 220.053 23.2514 216.267 21.0703C212.481 18.8892 207.384 19.3254 202.068 22.4516C191.219 28.7041 182.409 43.9718 182.409 56.4768C182.409 62.6565 184.52 67.2368 188.307 69.4179C189.909 70.2177 191.729 70.7266 193.622 70.7266ZM210.952 20.5614C212.699 20.5614 214.374 20.9976 215.757 21.7973C219.325 23.833 221.291 28.1225 221.291 33.9388C221.291 46.1529 212.699 61.0571 202.068 67.1641C197.044 70.0723 192.311 70.5812 188.816 68.5455C185.321 66.5098 183.355 62.2203 183.355 56.4041C183.355 44.1899 191.947 29.2857 202.578 23.1787C205.563 21.4338 208.403 20.5614 210.952 20.5614Z" fill="#171753"/>
<path d="M202.359 34.8112L203.452 46.1529L201.267 47.3889L202.287 34.8839C202.287 34.7385 202.359 34.7385 202.359 34.8112Z" fill="#ECFFFE"/>
<path d="M200.685 48.2613L203.888 46.371L202.723 34.3023H202.286C201.995 34.3023 201.777 34.5204 201.704 34.8112L200.685 48.2613ZM202.942 45.8621L201.777 46.5164L202.359 39.3915L202.942 45.8621Z" fill="#171753"/>
<path d="M202.182 46.9193L202.266 47.8608L192.62 48.7175L192.536 47.7761L202.182 46.9193Z" fill="#171753"/>
<path d="M202.682 25.5759L202.704 28.0479L201.976 28.0542L201.954 25.5823L202.682 25.5759Z" fill="#171753"/>
<path d="M200.877 26.742L201.125 29.0552L200.401 29.1326L200.153 26.8194L200.877 26.742Z" fill="#171753"/>
<path d="M199.127 28.0076L199.592 30.1388L198.881 30.2936L198.416 28.1625L199.127 28.0076Z" fill="#171753"/>
<path d="M197.354 29.4406L198.053 31.4301L197.366 31.6709L196.667 29.6814L197.354 29.4406Z" fill="#171753"/>
<path d="M195.675 31.1351L196.574 32.8808L195.926 33.2133L195.027 31.4676L195.675 31.1351Z" fill="#171753"/>
<path d="M194.096 32.8882L195.211 34.4163L194.622 34.8443L193.508 33.3162L194.096 32.8882Z" fill="#171753"/>
<path d="M192.522 34.8328L193.824 36.1029L193.315 36.623L192.013 35.3528L192.522 34.8328Z" fill="#171753"/>
<path d="M191.116 36.9151L192.563 37.8933L192.155 38.4954L190.707 37.5172L191.116 36.9151Z" fill="#171753"/>
<path d="M189.822 39.0666L191.421 39.7689L191.128 40.4344L189.528 39.7321L189.822 39.0666Z" fill="#171753"/>
<path d="M188.64 41.2219L190.409 41.6514L190.237 42.3578L188.468 41.9283L188.64 41.2219Z" fill="#171753"/>
<path d="M187.604 43.5406L189.492 43.6772L189.44 44.4023L187.552 44.2658L187.604 43.5406Z" fill="#171753"/>
<path d="M188.704 45.6703L188.76 46.3952L186.8 46.5478L186.744 45.823L188.704 45.6703Z" fill="#171753"/>
<path d="M188.129 47.6098L188.282 48.3204L186.218 48.7651L186.065 48.0544L188.129 47.6098Z" fill="#171753"/>
<path d="M187.703 49.6422L187.941 50.3295L185.807 51.064L185.569 50.3767L187.703 49.6422Z" fill="#171753"/>
<path d="M187.425 51.5268L187.733 52.1853L185.557 53.2025L185.248 52.5441L187.425 51.5268Z" fill="#171753"/>
<path d="M189.35 52.1964L189.717 52.8244L185.503 55.2799L185.136 54.652L189.35 52.1964Z" fill="#171753"/>
<path d="M187.358 55.1363L187.78 55.7288L185.644 57.246L185.222 56.6536L187.358 55.1363Z" fill="#171753"/>
<path d="M187.611 56.7922L188.078 57.3501L185.955 59.1218L185.488 58.564L187.611 56.7922Z" fill="#171753"/>
<path d="M187.915 58.287L188.421 58.8098L186.379 60.7802L185.873 60.2574L187.915 58.287Z" fill="#171753"/>
<path d="M188.513 59.6795L189.054 60.1671L187.1 62.3243L186.56 61.8368L188.513 59.6795Z" fill="#171753"/>
<path d="M189.184 60.8611L189.754 61.313L187.899 63.6482L187.329 63.1963L189.184 60.8611Z" fill="#171753"/>
<path d="M189.97 61.8958L190.567 62.3115L188.819 64.8169L188.221 64.4013L189.97 61.8958Z" fill="#171753"/>
<path d="M190.976 62.7679L191.597 63.1466L190.004 65.7534L189.383 65.3747L190.976 62.7679Z" fill="#171753"/>
<path d="M192.06 63.3846L192.703 63.725L191.272 66.4231L190.628 66.0827L192.06 63.3846Z" fill="#171753"/>
<path d="M193.253 63.8808L193.916 64.1813L192.682 66.8957L192.019 66.5951L193.253 63.8808Z" fill="#171753"/>
<path d="M194.528 64.1476L195.208 64.4062L194.146 67.1921L193.466 66.9335L194.528 64.1476Z" fill="#171753"/>
<path d="M195.892 64.133L196.588 64.347L195.73 67.1263L195.035 66.9123L195.892 64.133Z" fill="#171753"/>
<path d="M197.375 63.9971L198.084 64.1631L197.436 66.9237L196.727 66.7577L197.375 63.9971Z" fill="#171753"/>
<path d="M198.858 63.6369L199.577 63.7507L199.155 66.4077L198.436 66.2938L198.858 63.6369Z" fill="#171753"/>
<path d="M200.347 63.0676L201.073 63.1242L200.869 65.7337L200.143 65.6771L200.347 63.0676Z" fill="#171753"/>
<path d="M202.679 59.8891L202.698 64.7602L201.969 64.763L201.95 59.8919L202.679 59.8891Z" fill="#171753"/>
<path d="M204.219 61.248L204.465 63.5614L203.74 63.6381L203.495 61.3247L204.219 61.248Z" fill="#171753"/>
<path d="M205.737 60.0795L206.203 62.2107L205.491 62.3655L205.026 60.2344L205.737 60.0795Z" fill="#171753"/>
<path d="M207.165 58.6588L207.865 60.6483L207.178 60.8891L206.478 58.8996L207.165 58.6588Z" fill="#171753"/>
<path d="M208.636 57.1938L209.535 58.9395L208.887 59.272L207.988 57.5263L208.636 57.1938Z" fill="#171753"/>
<path d="M209.968 55.468L211.081 56.9969L210.492 57.4244L209.379 55.8956L209.968 55.468Z" fill="#171753"/>
<path d="M211.222 53.7437L212.523 55.0148L212.014 55.5345L210.713 54.2634L211.222 53.7437Z" fill="#171753"/>
<path d="M212.443 51.9241L213.89 52.9032L213.481 53.505L212.034 52.526L212.443 51.9241Z" fill="#171753"/>
<path d="M213.484 49.9854L215.084 50.6879L214.791 51.3534L213.191 50.6509L213.484 49.9854Z" fill="#171753"/>
<path d="M214.334 47.9763L216.102 48.406L215.93 49.1124L214.161 48.6827L214.334 47.9763Z" fill="#171753"/>
<path d="M215.127 46.011L217.015 46.1475L216.963 46.8726L215.075 46.7361L215.127 46.011Z" fill="#171753"/>
<path d="M217.815 43.8275L217.872 44.5524L215.912 44.705L215.855 43.9802L217.815 43.8275Z" fill="#171753"/>
<path d="M218.389 41.5427L218.543 42.2534L216.479 42.6978L216.325 41.9871L218.389 41.5427Z" fill="#171753"/>
<path d="M218.82 39.3088L219.057 39.9962L216.923 40.7307L216.686 40.0434L218.82 39.3088Z" fill="#171753"/>
<path d="M219.04 37.1036L219.349 37.762L217.173 38.7799L216.864 38.1216L219.04 37.1036Z" fill="#171753"/>
<path d="M219.088 35.0297L219.455 35.6576L215.242 38.1126L214.875 37.4847L219.088 35.0297Z" fill="#171753"/>
<path d="M218.943 33.0637L219.365 33.6563L217.228 35.173L216.806 34.5805L218.943 33.0637Z" fill="#171753"/>
<path d="M218.679 31.2449L219.146 31.8027L217.023 33.5745L216.556 33.0166L218.679 31.2449Z" fill="#171753"/>
<path d="M218.207 29.5326L218.713 30.0555L216.671 32.0255L216.165 31.5027L218.207 29.5326Z" fill="#171753"/>
<path d="M217.539 28.0399L218.079 28.5275L216.126 30.6847L215.586 30.1972L217.539 28.0399Z" fill="#171753"/>
<path d="M216.685 26.6696L217.255 27.1215L215.4 29.4566L214.829 29.0048L216.685 26.6696Z" fill="#171753"/>
<path d="M215.761 25.5022L216.358 25.9178L214.61 28.423L214.013 28.0073L215.761 25.5022Z" fill="#171753"/>
<path d="M214.576 24.5728L215.197 24.9512L213.605 27.5584L212.984 27.1799L214.576 24.5728Z" fill="#171753"/>
<path d="M213.305 23.8972L213.949 24.2375L212.517 26.936L211.874 26.5956L213.305 23.8972Z" fill="#171753"/>
<path d="M211.958 23.4624L212.621 23.7629L211.387 26.4773L210.724 26.1768L211.958 23.4624Z" fill="#171753"/>
<path d="M210.404 23.206L211.085 23.4647L210.023 26.2506L209.342 25.9919L210.404 23.206Z" fill="#171753"/>
<path d="M208.845 23.2066L209.541 23.4206L208.684 26.1999L207.988 25.9859L208.845 23.2066Z" fill="#171753"/>
<path d="M207.211 23.4293L207.919 23.5953L207.271 26.3559L206.562 26.1899L207.211 23.4293Z" fill="#171753"/>
<path d="M205.487 23.9423L206.206 24.0562L205.785 26.7131L205.065 26.5993L205.487 23.9423Z" fill="#171753"/>
<path d="M203.697 24.681L204.423 24.7375L204.219 27.347L203.493 27.2904L203.697 24.681Z" fill="#171753"/>
<path d="M202.644 25.6127L202.668 30.4838L201.939 30.4874L201.915 25.6163L202.644 25.6127Z" fill="#171753"/>
<path d="M200.757 48.2613C200.757 49.2064 201.413 49.57 202.214 49.1337C203.015 48.6975 203.67 47.5343 203.67 46.5891C203.67 45.644 203.015 45.2805 202.214 45.7167C201.413 46.1529 200.757 47.3162 200.757 48.2613Z" fill="#ECFFFE"/>
<path d="M201.558 49.7154C201.85 49.7154 202.141 49.6427 202.432 49.4246C203.379 48.8429 204.107 47.607 204.107 46.5164C204.107 45.9348 203.888 45.4259 203.452 45.2078C203.015 44.9897 202.505 44.9897 201.995 45.2805C201.049 45.7894 200.321 47.0981 200.321 48.1886C200.321 48.7702 200.539 49.2792 200.976 49.4973C201.122 49.6427 201.34 49.7154 201.558 49.7154ZM202.869 46.0075C202.942 46.0075 202.942 46.0075 203.015 46.0075C203.16 46.0802 203.233 46.2983 203.233 46.5164C203.233 47.3162 202.651 48.2613 201.995 48.6248C201.777 48.7702 201.558 48.7702 201.413 48.6975C201.267 48.6248 201.194 48.4067 201.194 48.1886C201.194 47.3889 201.777 46.4437 202.432 46.0802C202.578 46.0075 202.723 46.0075 202.869 46.0075Z" fill="#171753"/>
<path d="M199.66 16.0564L203.205 18.0693L202.737 18.8909L199.192 16.8781L199.66 16.0564Z" fill="#171753"/>
<path d="M183.04 32.9688L186.585 34.9817L186.117 35.8033L182.572 33.7904L183.04 32.9688Z" fill="#171753"/>
<path d="M206.417 13.7231L209.961 15.736L209.493 16.5576L205.949 14.5447L206.417 13.7231Z" fill="#171753"/>
<path d="M203.375 72.3578L203.375 72.3578L203.379 72.3554L253.43 43.2701C253.43 43.2701 253.43 43.2701 253.43 43.27C254.045 42.9127 254.532 42.9159 254.841 43.0874C255.147 43.2568 255.4 43.6585 255.4 44.3693L255.4 44.371L255.575 80.3755C255.575 80.3758 255.575 80.3761 255.575 80.3764C255.575 81.0898 255.325 81.9061 254.904 82.6443C254.483 83.383 253.91 84.0101 253.297 84.3658L253.297 84.3658L203.247 113.451C202.632 113.808 202.145 113.805 201.835 113.634C201.53 113.464 201.276 113.063 201.277 112.352L201.276 112.35L201.058 76.3456C201.058 76.3453 201.058 76.3449 201.058 76.3446C201.058 75.6314 201.308 74.8157 201.733 74.0785C202.159 73.341 202.742 72.714 203.375 72.3578Z" fill="#BEF0ED" stroke="#171753" stroke-width="0.699585"/>
<path d="M249.026 89.1891H250.471V87.218H249.026V89.1891Z" fill="#5ED9D1"/>
<path d="M258.949 87.5083L294.325 105.661V108.8C294.283 109.244 293.999 109.701 293.362 110.084C293.362 110.084 293.362 110.084 293.362 110.084L243.269 139.169L243.31 139.24L243.269 139.169C242.607 139.553 241.726 139.748 240.839 139.754C239.953 139.759 239.072 139.575 238.41 139.212C238.41 139.212 238.41 139.212 238.409 139.212L204.038 119.371C204.038 119.371 204.038 119.37 204.038 119.37C203.401 118.988 203.117 118.53 203.075 118.086V114.983H204.164V116.338V116.495L204.3 116.416L254.087 87.506L254.049 87.4395L254.087 87.506C254.749 87.1218 255.63 86.9269 256.516 86.9269C257.402 86.9269 258.283 87.1218 258.945 87.506L258.945 87.5061L258.949 87.5083Z" fill="#171753" stroke="#171753" stroke-width="0.180598"/>
<path d="M250.137 87.4705L249.718 87.2419L254.218 84.6196C254.83 84.264 255.663 84.0756 256.516 84.0756C257.369 84.0756 258.202 84.264 258.814 84.6196L258.815 84.6201L293.189 104.463L293.189 104.463L293.196 104.467C293.803 104.8 294.032 105.215 294.032 105.567C294.032 105.922 293.8 106.349 293.188 106.705L243.094 135.79L243.094 135.79L243.087 135.794C242.476 136.169 241.645 136.367 240.794 136.372C239.942 136.378 239.11 136.189 238.498 135.834L238.497 135.833L204.124 115.991C204.123 115.991 204.123 115.991 204.123 115.991C203.512 115.635 203.28 115.208 203.28 114.853C203.28 114.502 203.509 114.086 204.116 113.753L204.116 113.753L204.124 113.749L212.75 108.726L213.406 109.106L213.581 109.207L213.756 109.106L250.145 88.0805L250.684 87.7689L250.137 87.4705Z" fill="#BEF0ED" stroke="#171753" stroke-width="0.699585"/>
<path d="M253.998 42.1793C253.779 42.0479 253.517 41.9165 253.298 41.785C252.86 41.5222 252.203 41.566 251.546 41.9603L201.452 71.0456C200.095 71.834 199 73.7614 199 75.3383L199.175 111.301C199.175 112.089 199.438 112.615 199.92 112.878C200.533 113.228 201.102 113.578 201.671 113.885C201.233 113.622 200.97 113.097 200.97 112.308L200.752 76.3896C200.752 74.8127 201.846 72.8853 203.204 72.0969L253.298 42.9677C253.998 42.5735 254.611 42.5297 255.049 42.7925C255.006 42.7487 254.261 42.3107 253.998 42.1793Z" fill="#171753"/>
<path d="M254.655 94.1308L258.158 96.1457L254.568 98.2483L251.065 96.2333L254.655 94.1308Z" fill="#171753"/>
<path d="M260.217 95.8383L263.676 97.8094L260.086 99.912L256.626 97.9408L260.217 95.8383Z" fill="#171753"/>
<path d="M265.208 93.1674L269.237 95.489L271.558 96.8031L272.74 97.504L266.653 101.008L263.194 99.0371L265.033 97.942L261.048 95.6204L265.208 93.1674Z" fill="#171753"/>
<path d="M256.188 98.2035L259.648 100.175L256.057 102.277L252.598 100.306L256.188 98.2035Z" fill="#171753"/>
<path d="M273.528 97.9419L276.987 99.9568L269.587 104.293L266.128 102.278L273.528 97.9419Z" fill="#171753"/>
<path d="M265.777 102.498L269.236 104.469L263.631 107.754L260.128 105.739L265.777 102.498Z" fill="#171753"/>
<path d="M254.699 103.986L258.158 106.001L254.567 108.104L251.108 106.089L254.699 103.986Z" fill="#171753"/>
<path d="M256.495 88.1297L259.954 90.1446L256.363 92.2472L252.86 90.2323L256.495 88.1297Z" fill="#171753"/>
<path d="M252.203 90.6264L255.663 92.6413L252.072 94.7439L248.613 92.7289L252.203 90.6264Z" fill="#171753"/>
<path d="M260.742 90.5825L264.201 92.5975L258.64 95.8389L255.18 93.8677L260.742 90.5825Z" fill="#171753"/>
<path d="M247.912 93.1239L251.415 95.1389L247.824 97.2414L244.321 95.2265L247.912 93.1239Z" fill="#171753"/>
<path d="M243.664 95.6644L247.123 97.6356L243.533 99.7381L240.073 97.767L243.664 95.6644Z" fill="#171753"/>
<path d="M250.583 96.5394L254.042 98.5105L250.452 100.613L246.992 98.5981L250.583 96.5394Z" fill="#171753"/>
<path d="M239.372 98.16L242.875 100.131L239.241 102.234L235.782 100.219L239.372 98.16Z" fill="#171753"/>
<path d="M246.51 98.9048L249.97 100.92L246.379 103.022L242.92 101.007L246.51 98.9048Z" fill="#171753"/>
<path d="M262.713 99.2985L266.216 101.313L262.625 103.416L259.122 101.401L262.713 99.2985Z" fill="#171753"/>
<path d="M235.082 100.614L238.585 102.629L234.994 104.731L231.491 102.76L235.082 100.614Z" fill="#171753"/>
<path d="M252.116 100.57L255.619 102.541L252.028 104.643L248.569 102.629L252.116 100.57Z" fill="#171753"/>
<path d="M242.395 101.315L245.898 103.286L242.307 105.388L238.804 103.417L242.395 101.315Z" fill="#171753"/>
<path d="M258.684 101.665L262.143 103.68L258.596 105.739L255.093 103.768L258.684 101.665Z" fill="#171753"/>
<path d="M248.087 102.891L251.59 104.906L247.999 107.008L244.496 104.994L248.087 102.891Z" fill="#171753"/>
<path d="M230.834 103.154L234.294 105.125L230.703 107.228L227.244 105.256L230.834 103.154Z" fill="#171753"/>
<path d="M238.322 103.68L241.782 105.695L238.191 107.797L234.732 105.782L238.322 103.68Z" fill="#171753"/>
<path d="M244.058 105.256L247.518 107.271L243.927 109.374L240.468 107.359L244.058 105.256Z" fill="#171753"/>
<path d="M226.543 105.651L230.002 107.622L226.411 109.725L222.952 107.753L226.543 105.651Z" fill="#171753"/>
<path d="M234.249 106.088L237.709 108.059L234.118 110.162L230.615 108.191L234.249 106.088Z" fill="#171753"/>
<path d="M250.496 106.439L253.999 108.41L250.408 110.513L246.905 108.541L250.496 106.439Z" fill="#171753"/>
<path d="M240.03 107.622L243.489 109.637L239.899 111.74L236.395 109.725L240.03 107.622Z" fill="#171753"/>
<path d="M222.252 108.148L225.755 110.119L222.164 112.221L218.661 110.25L222.252 108.148Z" fill="#171753"/>
<path d="M230.134 108.454L233.637 110.469L230.047 112.571L226.544 110.556L230.134 108.454Z" fill="#171753"/>
<path d="M246.51 108.761L250.013 110.776L246.423 112.878L242.92 110.863L246.51 108.761Z" fill="#171753"/>
<path d="M235.958 109.987L239.461 112.002L235.87 114.105L232.367 112.09L235.958 109.987Z" fill="#171753"/>
<path d="M242.482 111.126L245.941 113.141L242.351 115.2L238.891 113.228L242.482 111.126Z" fill="#171753"/>
<path d="M216.384 111.563L219.844 113.578L216.253 115.681L212.794 113.666L216.384 111.563Z" fill="#171753"/>
<path d="M231.929 112.352L235.432 114.367L231.841 116.47L228.338 114.455L231.929 112.352Z" fill="#171753"/>
<path d="M259.778 105.958L263.281 107.973L247.474 117.172L244.014 115.201L259.778 105.958Z" fill="#171753"/>
<path d="M238.497 113.448L241.957 115.463L238.366 117.566L234.863 115.551L238.497 113.448Z" fill="#171753"/>
<path d="M225.886 110.95L229.345 112.965L220.5 118.134L217.041 116.119L225.886 110.95Z" fill="#171753"/>
<path d="M227.9 114.718L231.359 116.733L224.791 120.588L221.288 118.573L227.9 114.718Z" fill="#171753"/>
<path d="M243.489 115.506L246.992 117.477L241.343 120.762L237.884 118.747L243.489 115.506Z" fill="#171753"/>
<path d="M234.381 115.857L237.884 117.828L229.039 122.997L225.536 121.026L234.381 115.857Z" fill="#171753"/>
<path d="M237.446 119.055L240.905 121.026L233.286 125.494L229.826 123.479L237.446 119.055Z" fill="#171753"/>
<path d="M254.567 118.922C254.743 119.273 255.049 119.579 255.531 119.886L258.64 121.726C259.997 122.514 262.055 122.602 263.238 121.901L271.338 117.214C271.645 117.039 271.864 116.82 271.995 116.601C272.346 115.944 271.995 115.155 271.032 114.586L267.923 112.746C266.566 111.958 264.507 111.87 263.325 112.571L255.224 117.214C254.436 117.652 254.261 118.309 254.567 118.922Z" fill="#171753"/>
<path d="M254.567 118.922C254.743 119.273 255.049 119.579 255.531 119.886L258.64 121.726C259.997 122.514 262.055 122.602 263.238 121.901L271.338 117.214C271.645 117.039 271.864 116.82 271.995 116.601C271.82 116.25 271.514 115.944 271.032 115.637L267.923 113.797C266.565 113.009 264.507 112.921 263.325 113.622L255.224 118.265C254.918 118.484 254.699 118.703 254.567 118.922Z" fill="white"/>
<path d="M253.297 81.6023L204.123 110.512V77.003L253.297 48.0929V81.6023Z" fill="white"/>
<rect width="55.0028" height="2.49775" transform="matrix(-0.859406 0.511293 -0.0165799 0.999863 252.138 48.9192)" fill="#171753"/>
<rect width="8.57669" height="1.2489" rx="0.490567" transform="matrix(-0.859406 0.511293 -0.0165799 0.999863 213.299 72.6442)" fill="#BEF0ED"/>
<rect width="8.57669" height="1.2489" rx="0.490567" transform="matrix(-0.859406 0.511293 -0.0165799 0.999863 247.539 71.0458)" fill="#BEF0ED"/>
<circle cx="0.75477" cy="0.75477" r="0.75477" transform="matrix(-0.859406 0.511293 -0.0165799 0.999863 250.804 50.202)" fill="#BEF0ED"/>
<rect width="16.6731" height="1.64673" transform="matrix(-0.859406 0.511293 -0.0165799 0.999863 249.416 56.4586)" fill="#171753"/>
<rect width="11.6643" height="1.64673" transform="matrix(-0.859406 0.511293 -0.0165799 0.999863 249.322 62.1098)" fill="#171753"/>
<rect width="12.6935" height="0.5793" transform="matrix(-0.859406 0.511293 -0.0165799 0.999863 249.275 64.9351)" fill="#171753"/>
<rect width="16.6731" height="0.5793" transform="matrix(-0.859406 0.511293 -0.0165799 0.999863 249.255 66.17)" fill="#171753"/>
<rect width="13.4482" height="0.5793" transform="matrix(-0.859406 0.511293 -0.0165799 0.999863 249.234 67.405)" fill="#171753"/>
<rect width="10.5323" height="0.453691" transform="matrix(-0.859406 0.511293 -0.0165799 0.999863 245.704 82.8177)" fill="#171753"/>
<rect width="10.5323" height="0.453691" transform="matrix(-0.859406 0.511293 -0.0165799 0.999863 232.879 90.3508)" fill="#171753"/>
<rect width="10.5323" height="0.453691" transform="matrix(-0.859406 0.511293 -0.0165799 0.999863 220.055 97.8634)" fill="#171753"/>
<rect width="6.44833" height="0.453691" transform="matrix(-0.859406 0.511293 -0.0165799 0.999863 245.688 83.7847)" fill="#171753"/>
<rect width="6.44833" height="0.453691" transform="matrix(-0.859406 0.511293 -0.0165799 0.999863 232.863 91.3178)" fill="#171753"/>
<rect width="6.44833" height="0.453691" transform="matrix(-0.859406 0.511293 -0.0165799 0.999863 220.039 98.8306)" fill="#171753"/>
<rect width="19.1432" height="1.64673" transform="matrix(-0.859406 0.511293 -0.0165799 0.999863 249.369 59.2843)" fill="#171753"/>
<rect x="-0.175599" y="0.302924" width="24.7557" height="13.7341" rx="1.58035" transform="matrix(-0.859406 0.511293 -0.0165799 0.999863 231.109 67.2483)" fill="#BEF0ED" stroke="#171753" stroke-width="0.400917"/>
<rect x="-0.175599" y="0.302924" width="11.9584" height="6.54352" rx="1.33633" transform="matrix(-0.859406 0.511293 -0.0165799 0.999863 245.513 75.0407)" fill="#5ED9D1" stroke="#171753" stroke-width="0.400917"/>
<rect x="-0.175599" y="0.302924" width="11.9584" height="6.54352" rx="1.33633" transform="matrix(-0.859406 0.511293 -0.0165799 0.999863 232.765 82.5281)" fill="#5ED9D1" stroke="#171753" stroke-width="0.400917"/>
<rect x="-0.175599" y="0.302924" width="11.9584" height="6.54352" rx="1.33633" transform="matrix(-0.859406 0.511293 -0.0165799 0.999863 220.018 89.9948)" fill="#5ED9D1" stroke="#171753" stroke-width="0.400917"/>
<g style="mix-blend-mode:multiply">
<path d="M252.465 48.5747V81.1205L204.123 109.549V110.512L253.297 81.6023V48.0929L252.465 48.5747Z" fill="#171753"/>
</g>
<path d="M191.04 71.7384L191.04 71.7384L191.036 71.736L140.985 42.6507C140.985 42.6507 140.985 42.6507 140.985 42.6507C140.37 42.2933 139.883 42.2965 139.574 42.468C139.268 42.6375 139.015 43.0392 139.015 43.7499L139.015 43.7516L138.84 79.7562C138.84 79.7565 138.84 79.7568 138.84 79.757C138.84 80.4704 139.09 81.2867 139.511 82.0249C139.932 82.7636 140.506 83.3907 141.118 83.7464L141.118 83.7464L191.168 112.832C191.783 113.189 192.271 113.186 192.58 113.014C192.886 112.845 193.139 112.443 193.139 111.732L193.139 111.73L193.358 75.7263C193.358 75.7259 193.358 75.7256 193.358 75.7252C193.357 75.012 193.107 74.1963 192.682 73.4591C192.256 72.7216 191.673 72.0947 191.04 71.7384Z" fill="#E3E0EB" stroke="#171753" stroke-width="0.699585"/>
<path d="M145.389 88.5697H143.944V86.5986H145.389V88.5697Z" fill="#8989C7"/>
<path d="M135.466 86.8889L100.09 105.042V108.18C100.132 108.625 100.416 109.082 101.053 109.465C101.053 109.465 101.053 109.465 101.054 109.465L151.147 138.55L151.105 138.621L151.147 138.55C151.808 138.934 152.689 139.129 153.576 139.134C154.462 139.14 155.343 138.956 156.005 138.593C156.005 138.593 156.006 138.593 156.006 138.592L190.377 118.751C190.377 118.751 190.377 118.751 190.378 118.751C191.015 118.368 191.298 117.911 191.34 117.467V114.363H190.251V115.719V115.876L190.115 115.797L140.328 86.8867L140.366 86.8201L140.328 86.8867C139.666 86.5024 138.785 86.3075 137.899 86.3075C137.013 86.3075 136.132 86.5024 135.47 86.8867L135.47 86.8868L135.466 86.8889Z" fill="#171753" stroke="#171753" stroke-width="0.180598"/>
<path d="M144.278 86.8512L144.697 86.6225L140.198 84.0002C139.585 83.6446 138.752 83.4562 137.899 83.4562C137.046 83.4562 136.213 83.6446 135.601 84.0002L135.6 84.0007L101.226 103.844L101.226 103.844L101.219 103.847C100.612 104.181 100.383 104.596 100.383 104.948C100.383 105.302 100.615 105.73 101.227 106.085L151.321 135.171L151.321 135.171L151.328 135.175C151.939 135.55 152.77 135.748 153.621 135.753C154.473 135.758 155.305 135.57 155.918 135.214L155.918 135.214L190.292 115.372C190.292 115.372 190.292 115.371 190.292 115.371C190.904 115.016 191.136 114.589 191.136 114.234C191.136 113.882 190.907 113.467 190.299 113.134L190.299 113.134L190.291 113.129L181.665 108.106L181.009 108.486L180.834 108.588L180.659 108.487L144.271 87.4611L143.731 87.1495L144.278 86.8512Z" fill="#E3E0EB" stroke="#171753" stroke-width="0.699585"/>
<path d="M140.417 41.5599C140.636 41.4285 140.898 41.2971 141.117 41.1657C141.555 40.9028 142.212 40.9466 142.869 41.3409L192.963 70.4262C194.32 71.2146 195.415 73.142 195.415 74.7189L195.24 110.681C195.24 111.47 194.977 111.995 194.496 112.258C193.883 112.609 193.313 112.959 192.744 113.266C193.182 113.003 193.445 112.477 193.445 111.689L193.664 75.7702C193.664 74.1933 192.569 72.2659 191.211 71.4775L141.117 42.3483C140.417 41.9541 139.804 41.9103 139.366 42.1731C139.41 42.1293 140.154 41.6913 140.417 41.5599Z" fill="#171753"/>
<path d="M139.76 93.5114L136.257 95.5263L139.848 97.6289L143.351 95.6139L139.76 93.5114Z" fill="#171753"/>
<path d="M134.198 95.2189L130.739 97.19L134.33 99.2926L137.789 97.3214L134.198 95.2189Z" fill="#171753"/>
<path d="M129.207 92.548L125.178 94.8696L122.858 96.1837L121.675 96.8846L127.762 100.389L131.221 98.4177L129.382 97.3226L133.367 95.001L129.207 92.548Z" fill="#171753"/>
<path d="M138.227 97.5841L134.768 99.5552L138.358 101.658L141.818 99.6866L138.227 97.5841Z" fill="#171753"/>
<path d="M120.887 97.3225L117.428 99.3374L124.828 103.674L128.288 101.659L120.887 97.3225Z" fill="#171753"/>
<path d="M128.638 101.878L125.179 103.849L130.784 107.135L134.287 105.12L128.638 101.878Z" fill="#171753"/>
<path d="M139.717 103.367L136.257 105.382L139.848 107.484L143.307 105.47L139.717 103.367Z" fill="#171753"/>
<path d="M137.92 87.5103L134.461 89.5253L138.052 91.6278L141.555 89.6129L137.92 87.5103Z" fill="#171753"/>
<path d="M142.212 90.007L138.752 92.0219L142.343 94.1245L145.802 92.1095L142.212 90.007Z" fill="#171753"/>
<path d="M133.673 89.9631L130.214 91.9781L135.775 95.2195L139.235 93.2484L133.673 89.9631Z" fill="#171753"/>
<path d="M146.504 92.5046L143.001 94.5195L146.591 96.6221L150.094 94.6071L146.504 92.5046Z" fill="#171753"/>
<path d="M150.751 95.045L147.292 97.0162L150.883 99.1187L154.342 97.1476L150.751 95.045Z" fill="#171753"/>
<path d="M143.832 95.92L140.373 97.8912L143.964 99.9937L147.423 97.9788L143.832 95.92Z" fill="#171753"/>
<path d="M155.043 97.5406L151.54 99.5117L155.174 101.614L158.633 99.5994L155.043 97.5406Z" fill="#171753"/>
<path d="M147.905 98.2854L144.445 100.3L148.036 102.403L151.495 100.388L147.905 98.2854Z" fill="#171753"/>
<path d="M131.703 98.6791L128.199 100.694L131.79 102.797L135.293 100.782L131.703 98.6791Z" fill="#171753"/>
<path d="M159.334 99.9946L155.831 102.01L159.421 104.112L162.924 102.141L159.334 99.9946Z" fill="#171753"/>
<path d="M142.299 99.9504L138.796 101.922L142.387 104.024L145.846 102.009L142.299 99.9504Z" fill="#171753"/>
<path d="M152.02 100.695L148.517 102.666L152.108 104.769L155.611 102.798L152.02 100.695Z" fill="#171753"/>
<path d="M135.732 101.046L132.272 103.061L135.819 105.12L139.322 103.148L135.732 101.046Z" fill="#171753"/>
<path d="M146.328 102.272L142.825 104.287L146.416 106.389L149.919 104.374L146.328 102.272Z" fill="#171753"/>
<path d="M163.581 102.535L160.122 104.506L163.712 106.608L167.172 104.637L163.581 102.535Z" fill="#171753"/>
<path d="M156.093 103.06L152.633 105.075L156.224 107.178L159.683 105.163L156.093 103.06Z" fill="#171753"/>
<path d="M150.357 104.637L146.898 106.652L150.488 108.754L153.948 106.739L150.357 104.637Z" fill="#171753"/>
<path d="M167.872 105.032L164.413 107.003L168.004 109.105L171.463 107.134L167.872 105.032Z" fill="#171753"/>
<path d="M160.166 105.469L156.707 107.44L160.297 109.543L163.8 107.571L160.166 105.469Z" fill="#171753"/>
<path d="M143.92 105.82L140.416 107.791L144.007 109.893L147.51 107.922L143.92 105.82Z" fill="#171753"/>
<path d="M154.385 107.003L150.926 109.018L154.517 111.12L158.02 109.105L154.385 107.003Z" fill="#171753"/>
<path d="M172.163 107.528L168.66 109.5L172.251 111.602L175.754 109.631L172.163 107.528Z" fill="#171753"/>
<path d="M164.281 107.834L160.778 109.849L164.368 111.952L167.871 109.937L164.281 107.834Z" fill="#171753"/>
<path d="M147.905 108.141L144.402 110.156L147.992 112.259L151.495 110.244L147.905 108.141Z" fill="#171753"/>
<path d="M158.457 109.368L154.954 111.383L158.545 113.485L162.048 111.47L158.457 109.368Z" fill="#171753"/>
<path d="M151.933 110.506L148.474 112.521L152.065 114.58L155.524 112.609L151.933 110.506Z" fill="#171753"/>
<path d="M178.031 110.944L174.571 112.959L178.162 115.062L181.621 113.047L178.031 110.944Z" fill="#171753"/>
<path d="M162.487 111.733L158.983 113.748L162.574 115.851L166.077 113.836L162.487 111.733Z" fill="#171753"/>
<path d="M134.637 105.339L131.134 107.354L146.941 116.552L150.401 114.581L134.637 105.339Z" fill="#171753"/>
<path d="M155.918 112.829L152.459 114.844L156.049 116.946L159.552 114.931L155.918 112.829Z" fill="#171753"/>
<path d="M168.529 110.331L165.07 112.346L173.915 117.514L177.375 115.499L168.529 110.331Z" fill="#171753"/>
<path d="M166.515 114.099L163.056 116.114L169.624 119.968L173.127 117.953L166.515 114.099Z" fill="#171753"/>
<path d="M150.926 114.887L147.423 116.858L153.072 120.143L156.531 118.128L150.926 114.887Z" fill="#171753"/>
<path d="M160.034 115.237L156.531 117.209L165.376 122.377L168.879 120.406L160.034 115.237Z" fill="#171753"/>
<path d="M156.97 118.436L153.51 120.407L161.13 124.875L164.589 122.86L156.97 118.436Z" fill="#171753"/>
<path d="M139.848 118.303C139.673 118.653 139.366 118.96 138.884 119.267L135.775 121.106C134.418 121.895 132.36 121.983 131.178 121.282L123.077 116.595C122.77 116.42 122.551 116.201 122.42 115.981C122.07 115.324 122.42 114.536 123.383 113.967L126.492 112.127C127.85 111.338 129.908 111.251 131.09 111.952L139.191 116.595C139.979 117.033 140.154 117.69 139.848 118.303Z" fill="#171753"/>
<path d="M139.848 118.303C139.673 118.653 139.366 118.96 138.884 119.267L135.775 121.106C134.418 121.895 132.36 121.982 131.178 121.282L123.077 116.595C122.77 116.419 122.551 116.2 122.42 115.981C122.595 115.631 122.902 115.324 123.383 115.018L126.492 113.178C127.85 112.39 129.908 112.302 131.09 113.003L139.191 117.646C139.497 117.865 139.716 118.084 139.848 118.303Z" fill="white"/>
<path d="M141.118 80.9829L190.292 109.893V76.3836L141.118 47.4735V80.9829Z" fill="white"/>
<rect width="55.0028" height="2.49775" transform="matrix(0.859406 0.511293 0.0165799 0.999863 142.277 48.2998)" fill="#171753"/>
<rect width="8.57669" height="1.2489" rx="0.490567" transform="matrix(0.859406 0.511293 0.0165799 0.999863 181.116 72.0248)" fill="#E3E0EB"/>
<rect width="8.57669" height="1.2489" rx="0.490567" transform="matrix(0.859406 0.511293 0.0165799 0.999863 146.876 70.4265)" fill="#E3E0EB"/>
<circle cx="0.75477" cy="0.75477" r="0.75477" transform="matrix(0.859406 0.511293 0.0165799 0.999863 143.612 49.5826)" fill="#E3E0EB"/>
<rect width="16.6731" height="1.64673" transform="matrix(0.859406 0.511293 0.0165799 0.999863 144.999 55.8392)" fill="#171753"/>
<rect width="11.6643" height="1.64673" transform="matrix(0.859406 0.511293 0.0165799 0.999863 145.093 61.4904)" fill="#171753"/>
<rect width="12.6935" height="0.5793" transform="matrix(0.859406 0.511293 0.0165799 0.999863 145.14 64.3157)" fill="#171753"/>
<rect width="16.6731" height="0.5793" transform="matrix(0.859406 0.511293 0.0165799 0.999863 145.161 65.5506)" fill="#171753"/>
<rect width="13.4482" height="0.5793" transform="matrix(0.859406 0.511293 0.0165799 0.999863 145.181 66.7856)" fill="#171753"/>
<rect width="10.5323" height="0.453691" transform="matrix(0.859406 0.511293 0.0165799 0.999863 148.712 82.1984)" fill="#171753"/>
<rect width="10.5323" height="0.453691" transform="matrix(0.859406 0.511293 0.0165799 0.999863 161.536 89.7314)" fill="#171753"/>
<rect width="10.5323" height="0.453691" transform="matrix(0.859406 0.511293 0.0165799 0.999863 174.36 97.244)" fill="#171753"/>
<rect width="6.44833" height="0.453691" transform="matrix(0.859406 0.511293 0.0165799 0.999863 148.728 83.1654)" fill="#171753"/>
<rect width="6.44833" height="0.453691" transform="matrix(0.859406 0.511293 0.0165799 0.999863 161.552 90.6984)" fill="#171753"/>
<rect width="6.44833" height="0.453691" transform="matrix(0.859406 0.511293 0.0165799 0.999863 174.376 98.2112)" fill="#171753"/>
<rect width="19.1432" height="1.64673" transform="matrix(0.859406 0.511293 0.0165799 0.999863 145.046 58.6649)" fill="#171753"/>
<rect x="0.175599" y="0.302924" width="24.7557" height="13.7341" rx="1.58035" transform="matrix(0.859406 0.511293 0.0165799 0.999863 163.004 66.4494)" fill="#E3E0EB" stroke="#171753" stroke-width="0.400917"/>
<rect x="0.175599" y="0.302924" width="11.9584" height="6.54352" rx="1.33633" transform="matrix(0.859406 0.511293 0.0165799 0.999863 148.601 74.2418)" fill="#8989C7" stroke="#171753" stroke-width="0.400917"/>
<rect x="0.175599" y="0.302924" width="11.9584" height="6.54352" rx="1.33633" transform="matrix(0.859406 0.511293 0.0165799 0.999863 161.348 81.7292)" fill="#8989C7" stroke="#171753" stroke-width="0.400917"/>
<rect x="0.175599" y="0.302924" width="11.9584" height="6.54352" rx="1.33633" transform="matrix(0.859406 0.511293 0.0165799 0.999863 174.095 89.1959)" fill="#8989C7" stroke="#171753" stroke-width="0.400917"/>
<g style="mix-blend-mode:multiply">
<path d="M141.95 47.9553V80.5011L190.292 108.929V109.893L141.118 80.9829V47.4735L141.95 47.9553Z" fill="#171753"/>
</g>
<path d="M23.8 136V121.4H28.46L34.6 133.64H35.26L34.86 134V121.4H37.54V136H32.86L26.72 123.76H26.04L26.44 123.4V136H23.8ZM46.1438 136.38C45.1838 136.38 44.3371 136.227 43.6038 135.92C42.8704 135.613 42.2504 135.2 41.7438 134.68C41.2371 134.147 40.8504 133.547 40.5838 132.88C40.3304 132.213 40.2038 131.52 40.2038 130.8V130.38C40.2038 129.633 40.3371 128.927 40.6038 128.26C40.8838 127.58 41.2771 126.98 41.7838 126.46C42.3038 125.927 42.9304 125.513 43.6638 125.22C44.3971 124.913 45.2238 124.76 46.1438 124.76C47.0638 124.76 47.8904 124.913 48.6238 125.22C49.3571 125.513 49.9771 125.927 50.4838 126.46C51.0038 126.98 51.3971 127.58 51.6638 128.26C51.9304 128.927 52.0638 129.633 52.0638 130.38V130.8C52.0638 131.52 51.9304 132.213 51.6638 132.88C51.4104 133.547 51.0304 134.147 50.5238 134.68C50.0171 135.2 49.3971 135.613 48.6638 135.92C47.9304 136.227 47.0904 136.38 46.1438 136.38ZM46.1438 134C46.8238 134 47.3971 133.853 47.8638 133.56C48.3304 133.253 48.6838 132.847 48.9238 132.34C49.1638 131.82 49.2838 131.233 49.2838 130.58C49.2838 129.913 49.1571 129.327 48.9038 128.82C48.6638 128.3 48.3038 127.893 47.8238 127.6C47.3571 127.293 46.7971 127.14 46.1438 127.14C45.4904 127.14 44.9238 127.293 44.4438 127.6C43.9771 127.893 43.6171 128.3 43.3638 128.82C43.1104 129.327 42.9838 129.913 42.9838 130.58C42.9838 131.233 43.1038 131.82 43.3438 132.34C43.5971 132.847 43.9571 133.253 44.4238 133.56C44.8904 133.853 45.4638 134 46.1438 134ZM58.998 136.36C58.238 136.36 57.538 136.22 56.898 135.94C56.258 135.66 55.7046 135.267 55.238 134.76C54.7713 134.253 54.4113 133.667 54.158 133C53.9046 132.32 53.778 131.587 53.778 130.8V130.38C53.778 129.607 53.898 128.88 54.138 128.2C54.3913 127.52 54.738 126.927 55.178 126.42C55.6313 125.913 56.1713 125.52 56.798 125.24C57.438 124.947 58.1446 124.8 58.918 124.8C59.7713 124.8 60.518 124.987 61.158 125.36C61.8113 125.72 62.3313 126.267 62.718 127C63.1046 127.733 63.318 128.653 63.358 129.76L62.538 128.8V121.4H65.318V136H63.118V131.38H63.598C63.558 132.487 63.3313 133.413 62.918 134.16C62.5046 134.893 61.958 135.447 61.278 135.82C60.6113 136.18 59.8513 136.36 58.998 136.36ZM59.618 134.02C60.1646 134.02 60.6646 133.9 61.118 133.66C61.5713 133.407 61.9313 133.047 62.198 132.58C62.478 132.1 62.618 131.54 62.618 130.9V130.1C62.618 129.46 62.478 128.927 62.198 128.5C61.918 128.06 61.5513 127.727 61.098 127.5C60.6446 127.26 60.1513 127.14 59.618 127.14C59.018 127.14 58.4846 127.287 58.018 127.58C57.5646 127.86 57.2046 128.26 56.938 128.78C56.6846 129.3 56.558 129.907 56.558 130.6C56.558 131.293 56.6913 131.9 56.958 132.42C57.2246 132.927 57.5846 133.32 58.038 133.6C58.5046 133.88 59.0313 134.02 59.618 134.02ZM73.3423 136.38C72.409 136.38 71.589 136.22 70.8823 135.9C70.189 135.58 69.609 135.153 69.1423 134.62C68.689 134.073 68.3423 133.467 68.1023 132.8C67.8757 132.133 67.7623 131.453 67.7623 130.76V130.38C67.7623 129.66 67.8757 128.967 68.1023 128.3C68.3423 127.62 68.689 127.02 69.1423 126.5C69.609 125.967 70.1823 125.547 70.8623 125.24C71.5423 124.92 72.329 124.76 73.2223 124.76C74.3957 124.76 75.3757 125.02 76.1623 125.54C76.9623 126.047 77.5623 126.72 77.9623 127.56C78.3623 128.387 78.5623 129.28 78.5623 130.24V131.24H68.9423V129.54H76.8223L75.9623 130.38C75.9623 129.687 75.8623 129.093 75.6623 128.6C75.4623 128.107 75.1557 127.727 74.7423 127.46C74.3423 127.193 73.8357 127.06 73.2223 127.06C72.609 127.06 72.089 127.2 71.6623 127.48C71.2357 127.76 70.909 128.167 70.6823 128.7C70.469 129.22 70.3623 129.847 70.3623 130.58C70.3623 131.26 70.469 131.867 70.6823 132.4C70.8957 132.92 71.2223 133.333 71.6623 133.64C72.1023 133.933 72.6623 134.08 73.3423 134.08C74.0223 134.08 74.5757 133.947 75.0023 133.68C75.429 133.4 75.7023 133.06 75.8223 132.66H78.3823C78.2223 133.407 77.9157 134.06 77.4623 134.62C77.009 135.18 76.429 135.613 75.7223 135.92C75.029 136.227 74.2357 136.38 73.3423 136.38ZM89.9211 136.14C88.9211 136.14 88.0944 136.013 87.4411 135.76C86.8011 135.493 86.3211 135.053 86.0011 134.44C85.6811 133.813 85.5211 132.973 85.5211 131.92L85.5411 122.08H88.1411L88.1211 132.1C88.1211 132.633 88.2611 133.047 88.5411 133.34C88.8344 133.62 89.2478 133.76 89.7811 133.76H91.4811V136.14H89.9211ZM83.8011 127.18V125.14H91.4811V127.18H83.8011ZM98.9758 136.38C98.0158 136.38 97.1691 136.227 96.4358 135.92C95.7024 135.613 95.0824 135.2 94.5758 134.68C94.0691 134.147 93.6824 133.547 93.4158 132.88C93.1624 132.213 93.0358 131.52 93.0358 130.8V130.38C93.0358 129.633 93.1691 128.927 93.4358 128.26C93.7158 127.58 94.1091 126.98 94.6158 126.46C95.1358 125.927 95.7624 125.513 96.4958 125.22C97.2291 124.913 98.0558 124.76 98.9758 124.76C99.8958 124.76 100.722 124.913 101.456 125.22C102.189 125.513 102.809 125.927 103.316 126.46C103.836 126.98 104.229 127.58 104.496 128.26C104.762 128.927 104.896 129.633 104.896 130.38V130.8C104.896 131.52 104.762 132.213 104.496 132.88C104.242 133.547 103.862 134.147 103.356 134.68C102.849 135.2 102.229 135.613 101.496 135.92C100.762 136.227 99.9224 136.38 98.9758 136.38ZM98.9758 134C99.6558 134 100.229 133.853 100.696 133.56C101.162 133.253 101.516 132.847 101.756 132.34C101.996 131.82 102.116 131.233 102.116 130.58C102.116 129.913 101.989 129.327 101.736 128.82C101.496 128.3 101.136 127.893 100.656 127.6C100.189 127.293 99.6291 127.14 98.9758 127.14C98.3224 127.14 97.7558 127.293 97.2758 127.6C96.8091 127.893 96.4491 128.3 96.1958 128.82C95.9424 129.327 95.8158 129.913 95.8158 130.58C95.8158 131.233 95.9358 131.82 96.1758 132.34C96.4291 132.847 96.7891 133.253 97.2558 133.56C97.7224 133.853 98.2958 134 98.9758 134ZM23.8 160V145.4H28.46L34.6 157.64H35.26L34.86 158V145.4H37.54V160H32.86L26.72 147.76H26.04L26.44 147.4V160H23.8ZM46.1438 160.38C45.1838 160.38 44.3371 160.227 43.6038 159.92C42.8704 159.613 42.2504 159.2 41.7438 158.68C41.2371 158.147 40.8504 157.547 40.5838 156.88C40.3304 156.213 40.2038 155.52 40.2038 154.8V154.38C40.2038 153.633 40.3371 152.927 40.6038 152.26C40.8838 151.58 41.2771 150.98 41.7838 150.46C42.3038 149.927 42.9304 149.513 43.6638 149.22C44.3971 148.913 45.2238 148.76 46.1438 148.76C47.0638 148.76 47.8904 148.913 48.6238 149.22C49.3571 149.513 49.9771 149.927 50.4838 150.46C51.0038 150.98 51.3971 151.58 51.6638 152.26C51.9304 152.927 52.0638 153.633 52.0638 154.38V154.8C52.0638 155.52 51.9304 156.213 51.6638 156.88C51.4104 157.547 51.0304 158.147 50.5238 158.68C50.0171 159.2 49.3971 159.613 48.6638 159.92C47.9304 160.227 47.0904 160.38 46.1438 160.38ZM46.1438 158C46.8238 158 47.3971 157.853 47.8638 157.56C48.3304 157.253 48.6838 156.847 48.9238 156.34C49.1638 155.82 49.2838 155.233 49.2838 154.58C49.2838 153.913 49.1571 153.327 48.9038 152.82C48.6638 152.3 48.3038 151.893 47.8238 151.6C47.3571 151.293 46.7971 151.14 46.1438 151.14C45.4904 151.14 44.9238 151.293 44.4438 151.6C43.9771 151.893 43.6171 152.3 43.3638 152.82C43.1104 153.327 42.9838 153.913 42.9838 154.58C42.9838 155.233 43.1038 155.82 43.3438 156.34C43.5971 156.847 43.9571 157.253 44.4238 157.56C44.8904 157.853 45.4638 158 46.1438 158ZM58.998 160.36C58.238 160.36 57.538 160.22 56.898 159.94C56.258 159.66 55.7046 159.267 55.238 158.76C54.7713 158.253 54.4113 157.667 54.158 157C53.9046 156.32 53.778 155.587 53.778 154.8V154.38C53.778 153.607 53.898 152.88 54.138 152.2C54.3913 151.52 54.738 150.927 55.178 150.42C55.6313 149.913 56.1713 149.52 56.798 149.24C57.438 148.947 58.1446 148.8 58.918 148.8C59.7713 148.8 60.518 148.987 61.158 149.36C61.8113 149.72 62.3313 150.267 62.718 151C63.1046 151.733 63.318 152.653 63.358 153.76L62.538 152.8V145.4H65.318V160H63.118V155.38H63.598C63.558 156.487 63.3313 157.413 62.918 158.16C62.5046 158.893 61.958 159.447 61.278 159.82C60.6113 160.18 59.8513 160.36 58.998 160.36ZM59.618 158.02C60.1646 158.02 60.6646 157.9 61.118 157.66C61.5713 157.407 61.9313 157.047 62.198 156.58C62.478 156.1 62.618 155.54 62.618 154.9V154.1C62.618 153.46 62.478 152.927 62.198 152.5C61.918 152.06 61.5513 151.727 61.098 151.5C60.6446 151.26 60.1513 151.14 59.618 151.14C59.018 151.14 58.4846 151.287 58.018 151.58C57.5646 151.86 57.2046 152.26 56.938 152.78C56.6846 153.3 56.558 153.907 56.558 154.6C56.558 155.293 56.6913 155.9 56.958 156.42C57.2246 156.927 57.5846 157.32 58.038 157.6C58.5046 157.88 59.0313 158.02 59.618 158.02ZM73.3423 160.38C72.409 160.38 71.589 160.22 70.8823 159.9C70.189 159.58 69.609 159.153 69.1423 158.62C68.689 158.073 68.3423 157.467 68.1023 156.8C67.8757 156.133 67.7623 155.453 67.7623 154.76V154.38C67.7623 153.66 67.8757 152.967 68.1023 152.3C68.3423 151.62 68.689 151.02 69.1423 150.5C69.609 149.967 70.1823 149.547 70.8623 149.24C71.5423 148.92 72.329 148.76 73.2223 148.76C74.3957 148.76 75.3757 149.02 76.1623 149.54C76.9623 150.047 77.5623 150.72 77.9623 151.56C78.3623 152.387 78.5623 153.28 78.5623 154.24V155.24H68.9423V153.54H76.8223L75.9623 154.38C75.9623 153.687 75.8623 153.093 75.6623 152.6C75.4623 152.107 75.1557 151.727 74.7423 151.46C74.3423 151.193 73.8357 151.06 73.2223 151.06C72.609 151.06 72.089 151.2 71.6623 151.48C71.2357 151.76 70.909 152.167 70.6823 152.7C70.469 153.22 70.3623 153.847 70.3623 154.58C70.3623 155.26 70.469 155.867 70.6823 156.4C70.8957 156.92 71.2223 157.333 71.6623 157.64C72.1023 157.933 72.6623 158.08 73.3423 158.08C74.0223 158.08 74.5757 157.947 75.0023 157.68C75.429 157.4 75.7023 157.06 75.8223 156.66H78.3823C78.2223 157.407 77.9157 158.06 77.4623 158.62C77.009 159.18 76.429 159.613 75.7223 159.92C75.029 160.227 74.2357 160.38 73.3423 160.38ZM90.4011 160.38C89.1078 160.38 88.0144 160.173 87.1211 159.76C86.2411 159.347 85.5678 158.78 85.1011 158.06C84.6344 157.327 84.4011 156.5 84.4011 155.58H87.1811C87.1811 155.967 87.2878 156.347 87.5011 156.72C87.7144 157.08 88.0544 157.373 88.5211 157.6C89.0011 157.827 89.6278 157.94 90.4011 157.94C91.0944 157.94 91.6744 157.84 92.1411 157.64C92.6078 157.44 92.9544 157.18 93.1811 156.86C93.4078 156.527 93.5211 156.153 93.5211 155.74C93.5211 155.22 93.3011 154.807 92.8611 154.5C92.4211 154.18 91.7411 153.98 90.8211 153.9L89.5411 153.8C88.1411 153.68 87.0211 153.247 86.1811 152.5C85.3544 151.74 84.9411 150.74 84.9411 149.5C84.9411 148.567 85.1611 147.767 85.6011 147.1C86.0411 146.42 86.6544 145.9 87.4411 145.54C88.2411 145.167 89.1744 144.98 90.2411 144.98C91.3478 144.98 92.3011 145.173 93.1011 145.56C93.9011 145.947 94.5211 146.493 94.9611 147.2C95.4011 147.893 95.6211 148.713 95.6211 149.66H92.8411C92.8411 149.26 92.7411 148.893 92.5411 148.56C92.3544 148.213 92.0678 147.94 91.6811 147.74C91.3078 147.527 90.8278 147.42 90.2411 147.42C89.6811 147.42 89.2144 147.513 88.8411 147.7C88.4678 147.887 88.1878 148.14 88.0011 148.46C87.8144 148.78 87.7211 149.127 87.7211 149.5C87.7211 149.953 87.8878 150.353 88.2211 150.7C88.5544 151.033 89.0811 151.227 89.8011 151.28L91.0811 151.4C92.1211 151.48 93.0344 151.7 93.8211 152.06C94.6078 152.42 95.2144 152.907 95.6411 153.52C96.0811 154.133 96.3011 154.873 96.3011 155.74C96.3011 156.66 96.0611 157.473 95.5811 158.18C95.1011 158.873 94.4144 159.413 93.5211 159.8C92.6411 160.187 91.6011 160.38 90.4011 160.38ZM98.3577 164.28V161.9H100.398C100.784 161.9 101.104 161.847 101.358 161.74C101.624 161.647 101.844 161.487 102.018 161.26C102.191 161.047 102.324 160.747 102.418 160.36L105.338 149.14H107.998L104.778 160.96C104.564 161.773 104.264 162.42 103.878 162.9C103.491 163.393 102.991 163.747 102.378 163.96C101.778 164.173 101.031 164.28 100.138 164.28H98.3577ZM101.738 159.76V157.56H104.058V159.76H101.738ZM100.798 159.76L97.2777 149.14H100.078L103.418 159.76H100.798ZM109.908 160V149.14H112.108V153.8H111.908C111.908 152.693 112.055 151.773 112.348 151.04C112.641 150.293 113.075 149.733 113.648 149.36C114.235 148.987 114.961 148.8 115.828 148.8H115.948C117.241 148.8 118.221 149.22 118.888 150.06C119.555 150.887 119.888 152.127 119.888 153.78V160H117.108V153.54C117.108 152.873 116.915 152.333 116.528 151.92C116.155 151.507 115.635 151.3 114.968 151.3C114.288 151.3 113.735 151.513 113.308 151.94C112.895 152.353 112.688 152.913 112.688 153.62V160H109.908ZM127.697 160.38C126.75 160.38 125.93 160.22 125.237 159.9C124.557 159.58 123.984 159.153 123.517 158.62C123.064 158.087 122.724 157.487 122.497 156.82C122.27 156.153 122.157 155.473 122.157 154.78V154.4C122.157 153.667 122.27 152.967 122.497 152.3C122.737 151.62 123.09 151.02 123.557 150.5C124.024 149.967 124.597 149.547 125.277 149.24C125.97 148.92 126.77 148.76 127.677 148.76C128.624 148.76 129.47 148.947 130.217 149.32C130.964 149.68 131.557 150.187 131.997 150.84C132.45 151.493 132.704 152.253 132.757 153.12H130.057C129.99 152.56 129.75 152.093 129.337 151.72C128.937 151.347 128.384 151.16 127.677 151.16C127.064 151.16 126.55 151.307 126.137 151.6C125.737 151.893 125.437 152.3 125.237 152.82C125.037 153.327 124.937 153.913 124.937 154.58C124.937 155.22 125.03 155.8 125.217 156.32C125.417 156.84 125.717 157.247 126.117 157.54C126.53 157.833 127.057 157.98 127.697 157.98C128.177 157.98 128.59 157.893 128.937 157.72C129.284 157.547 129.557 157.307 129.757 157C129.97 156.693 130.104 156.347 130.157 155.96H132.857C132.804 156.84 132.544 157.613 132.077 158.28C131.624 158.933 131.017 159.447 130.257 159.82C129.51 160.193 128.657 160.38 127.697 160.38Z" fill="#171753"/>
<g opacity="0.7">
<path d="M46.6039 39.7829L45.3153 39.7829L45.3153 36.7807L46.6039 36.7807L46.6039 39.7829ZM46.6039 33.6713L45.3153 33.6713L45.3153 30.6691L46.6039 30.6691L46.6039 33.6713ZM46.6039 27.6669L45.3153 27.6669L45.3153 24.6647L46.6039 24.6647L46.6039 27.6669Z" fill="#171753"/>
<path d="M53.5839 32.8134L50.5771 32.8134L50.5771 31.5268L53.5839 31.5268L53.5839 32.8134ZM47.463 32.8134L44.4562 32.8134L44.4562 31.5268L47.463 31.5268L47.463 32.8134ZM41.3421 32.8134L38.3353 32.8134L38.3353 31.5268L41.3421 31.5268L41.3421 32.8134Z" fill="#171753"/>
<path d="M63.2485 42.2485L60.2417 42.2485L60.2417 40.9618L63.2485 40.9618L63.2485 42.2485ZM57.1275 42.2485L54.1208 42.2485L54.1208 40.9618L57.1275 40.9618L57.1275 42.2485Z" fill="#171753"/>
</g>
<g opacity="0.7">
<path d="M93.9761 78.1019L95.2621 78.1019L95.2621 81.1057L93.9761 81.1057L93.9761 78.1019ZM93.9761 84.2168L95.2621 84.2168L95.2621 87.2207L93.9761 87.2207L93.9761 84.2168ZM93.9761 90.2245L95.2621 90.2245L95.2621 93.2284L93.9761 93.2284L93.9761 90.2245Z" fill="#171753"/>
<path d="M87.0105 85.0751L90.0112 85.0751L90.0112 86.3624L87.0105 86.3624L87.0105 85.0751ZM93.1191 85.0751L96.1198 85.0751L96.1198 86.3624L93.1191 86.3624L93.1191 85.0751ZM99.2276 85.0751L102.228 85.0751L102.228 86.3624L99.2276 86.3624L99.2276 85.0751Z" fill="#171753"/>
<path d="M77.3656 75.6344L80.3663 75.6344L80.3663 76.9218L77.3656 76.9218L77.3656 75.6344ZM83.4742 75.6344L86.4749 75.6344L86.4749 76.9218L83.4742 76.9218L83.4742 75.6344Z" fill="#171753"/>
</g>
<g opacity="0.7">
<path d="M263.611 20.4674L264.897 20.4674L264.897 23.4713L263.611 23.4713L263.611 20.4674ZM263.611 26.5824L264.897 26.5824L264.897 29.5863L263.611 29.5863L263.611 26.5824ZM263.611 32.5901L264.897 32.5901L264.897 35.594L263.611 35.594L263.611 32.5901Z" fill="#171753"/>
<path d="M256.645 27.4407L259.646 27.4407L259.646 28.728L256.645 28.728L256.645 27.4407ZM262.753 27.4407L265.754 27.4407L265.754 28.728L262.753 28.728L262.753 27.4407ZM268.862 27.4407L271.863 27.4407L271.863 28.728L268.862 28.728L268.862 27.4407Z" fill="#171753"/>
<path d="M247 18L250.001 18L250.001 19.2874L247 19.2874L247 18ZM253.109 18L256.109 18L256.109 19.2874L253.109 19.2874L253.109 18Z" fill="#171753"/>
</g>
<g opacity="0.7">
<path d="M275.118 155.645L275.118 156.933L272.116 156.933L272.116 155.645L275.118 155.645ZM269.007 155.645L269.007 156.933L266.004 156.933L266.004 155.645L269.007 155.645ZM263.002 155.645L263.002 156.933L260 156.933L260 155.645L263.002 155.645Z" fill="#171753"/>
<path d="M268.149 148.665L268.149 151.671L266.862 151.671L266.862 148.665L268.149 148.665ZM268.149 154.786L268.149 157.792L266.862 157.792L266.862 154.786L268.149 154.786ZM268.149 160.906L268.149 163.913L266.862 163.913L266.862 160.906L268.149 160.906Z" fill="#171753"/>
<path d="M277.584 139L277.584 142.007L276.297 142.007L276.297 139L277.584 139ZM277.584 145.121L277.584 148.128L276.297 148.128L276.297 145.121L277.584 145.121Z" fill="#171753"/>
</g>
<path d="M138.606 105.418V87.7604L128.52 93.6149V111.273L138.606 105.418Z" fill="#8989C7"/>
<path d="M138.606 87.7601L129.463 82.4721L119.377 88.2323L128.614 93.5203L138.606 87.7601Z" fill="#8989C7"/>
<path d="M138.511 90.2156L129.462 85.022L119.376 90.7821L128.708 95.8813L138.511 90.2156Z" fill="#E3E0EB"/>
<path d="M129.463 82L139.077 87.4768V105.607L128.614 111.651L119 106.079V88.0434L129.463 82ZM128.992 110.517L138.229 105.229V88.5156L128.992 93.8036V110.517ZM137.758 87.7601L129.463 82.9443L120.225 88.2323L128.52 93.0481L137.758 87.7601Z" fill="#171753"/>
<path d="M151.802 112.784V102.208L141.716 108.063V118.544L151.802 112.784Z" fill="#8989C7"/>
<path d="M151.802 102.208L142.564 96.9202L132.573 102.775L141.716 108.063L151.802 102.208Z" fill="#8989C7"/>
<path d="M151.613 104.663L142.564 99.4697L132.572 105.324L141.81 110.329L151.613 104.663Z" fill="#E3E0EB"/>
<path d="M164.998 120.244V115.617L154.912 121.471V126.098L164.998 120.244Z" fill="#8989C7"/>
<path d="M164.998 115.523L155.855 110.235L145.769 116.089L155.006 121.377L164.998 115.523Z" fill="#8989C7"/>
<path d="M164.904 117.978L155.855 112.784L145.77 118.639L155.101 123.644L164.904 117.978Z" fill="#E3E0EB"/>
<path d="M155.855 109.763L165.47 115.334V120.527L155.007 126.571L145.392 121V115.806L155.855 109.763ZM155.384 125.343L164.621 120.055V116.373L155.384 121.661V125.343ZM164.15 115.523L155.855 110.707L146.618 115.995L154.912 120.811L164.15 115.523Z" fill="#171753"/>
<path d="M142.565 96.4482L152.179 102.02V112.973L141.716 119.017L132.102 113.445V102.492L142.565 96.4482ZM142.188 117.789L151.331 112.501V102.964L142.093 108.252V117.789H142.188ZM150.954 102.208L142.659 97.3925L133.421 102.681L141.716 107.496L150.954 102.208Z" fill="#171753"/>
<path d="M252.864 105.418V87.7604L262.95 93.6149V111.273L252.864 105.418Z" fill="#5ED9D1"/>
<path d="M252.864 87.7601L262.007 82.4721L272.093 88.2323L262.855 93.5203L252.864 87.7601Z" fill="#5ED9D1"/>
<path d="M252.959 90.2156L262.008 85.022L272.093 90.7821L262.762 95.8813L252.959 90.2156Z" fill="#BEF0ED"/>
<path d="M262.007 82L252.392 87.4768V105.607L262.855 111.651L272.47 106.079V88.0434L262.007 82ZM262.478 110.517L253.241 105.229V88.5156L262.478 93.8036V110.517ZM253.712 87.7601L262.007 82.9443L271.244 88.2323L262.949 93.0481L253.712 87.7601Z" fill="#171753"/>
<path d="M239.668 112.784V102.208L249.754 108.063V118.544L239.668 112.784Z" fill="#5ED9D1"/>
<path d="M239.668 102.208L248.905 96.9202L258.897 102.775L249.754 108.063L239.668 102.208Z" fill="#5ED9D1"/>
<path d="M239.857 104.663L248.906 99.4697L258.897 105.324L249.66 110.329L239.857 104.663Z" fill="#BEF0ED"/>
<path d="M226.472 120.244V115.617L236.558 121.471V126.098L226.472 120.244Z" fill="#5ED9D1"/>
<path d="M226.472 115.523L235.615 110.235L245.701 116.089L236.463 121.377L226.472 115.523Z" fill="#5ED9D1"/>
<path d="M226.565 117.978L235.614 112.784L245.7 118.639L236.368 123.644L226.565 117.978Z" fill="#BEF0ED"/>
<path d="M235.615 109.763L226 115.334V120.527L236.463 126.571L246.077 121V115.806L235.615 109.763ZM236.086 125.343L226.848 120.055V116.373L236.086 121.661V125.343ZM227.32 115.523L235.615 110.707L244.852 115.995L236.557 120.811L227.32 115.523Z" fill="#171753"/>
<path d="M248.905 96.4482L239.29 102.02V112.973L249.753 119.017L259.368 113.445V102.492L248.905 96.4482ZM249.282 117.789L240.139 112.501V102.964L249.376 108.252V117.789H249.282ZM240.516 102.208L248.811 97.3925L258.048 102.681L249.753 107.496L240.516 102.208Z" fill="#171753"/>
<path d="M154.679 115.855C153.631 114.286 153.412 111.149 154.111 108.883C154.854 106.617 156.295 106.094 157.344 107.663C158.392 109.231 158.654 112.369 157.912 114.635C157.125 116.857 155.684 117.423 154.679 115.855Z" fill="#8989C7"/>
<path d="M155.99 117.249C155.553 117.249 154.854 117.075 154.242 116.116C153.106 114.373 152.844 111.148 153.631 108.708C154.111 107.27 154.897 106.355 155.771 106.268C156.208 106.224 156.994 106.268 157.693 107.401C158.829 109.144 159.091 112.369 158.305 114.809C157.824 116.247 157.038 117.118 156.164 117.249C156.121 117.249 156.077 117.249 155.99 117.249ZM155.99 107.227C155.946 107.227 155.946 107.227 155.902 107.227C155.509 107.27 154.941 107.793 154.548 109.013C153.849 111.105 154.111 114.112 155.029 115.55C155.203 115.811 155.596 116.29 156.033 116.247C156.426 116.203 156.994 115.68 157.387 114.46C158.086 112.369 157.824 109.362 156.907 107.924C156.732 107.662 156.426 107.227 155.99 107.227Z" fill="#171753"/>
<path d="M158.741 114.286C157.212 115.157 154.766 115.157 153.281 114.286C151.752 113.414 151.752 112.02 153.281 111.149C154.81 110.277 157.256 110.277 158.741 111.149C160.227 111.976 160.227 113.414 158.741 114.286Z" fill="#171753"/>
<path d="M160.139 111.54C157.868 112.848 154.154 112.848 151.883 111.54C149.611 110.233 149.611 108.098 151.883 106.791C154.154 105.483 157.868 105.483 160.139 106.791C162.411 108.098 162.411 110.233 160.139 111.54Z" fill="#8989C7"/>
<path d="M155.989 113.022C154.416 113.022 152.8 112.673 151.62 111.976C150.354 111.235 149.655 110.233 149.655 109.187C149.655 108.098 150.354 107.096 151.62 106.399C154.023 105.004 157.955 105.004 160.358 106.399C161.624 107.139 162.323 108.098 162.323 109.187C162.323 110.277 161.624 111.279 160.358 111.976C159.178 112.673 157.562 113.022 155.989 113.022ZM155.989 106.268C154.591 106.268 153.193 106.573 152.101 107.183C151.14 107.706 150.616 108.403 150.616 109.144C150.616 109.841 151.14 110.538 152.101 111.105C154.242 112.325 157.736 112.325 159.877 111.105C160.838 110.582 161.362 109.885 161.362 109.144C161.362 108.447 160.838 107.749 159.877 107.183C158.829 106.616 157.387 106.268 155.989 106.268Z" fill="#171753"/>
<path d="M160.139 109.71C157.868 111.018 154.154 111.018 151.883 109.71C149.611 108.403 149.611 106.268 151.883 104.961C154.154 103.653 157.868 103.653 160.139 104.961C162.411 106.268 162.411 108.359 160.139 109.71Z" fill="#8989C7"/>
<path d="M155.989 111.148C154.416 111.148 152.8 110.8 151.62 110.102C150.354 109.362 149.655 108.403 149.655 107.314C149.655 106.224 150.354 105.222 151.62 104.525C154.023 103.13 157.955 103.13 160.358 104.525C161.624 105.266 162.323 106.268 162.323 107.314C162.323 108.403 161.624 109.405 160.358 110.102C159.178 110.8 157.562 111.148 155.989 111.148ZM155.989 104.438C154.591 104.438 153.193 104.743 152.101 105.353C151.14 105.919 150.616 106.573 150.616 107.314C150.616 108.011 151.14 108.708 152.101 109.275C154.242 110.495 157.736 110.495 159.877 109.275C160.838 108.752 161.362 108.054 161.362 107.314C161.362 106.616 160.838 105.919 159.877 105.353C158.829 104.743 157.387 104.438 155.989 104.438Z" fill="#171753"/>
<path d="M160.139 107.749C157.868 109.057 154.154 109.057 151.883 107.749C149.611 106.442 149.611 104.307 151.883 103C154.154 101.692 157.868 101.692 160.139 103C162.411 104.307 162.411 106.442 160.139 107.749Z" fill="#8989C7"/>
<path d="M155.989 109.231C154.416 109.231 152.8 108.882 151.62 108.185C150.354 107.444 149.655 106.442 149.655 105.396C149.655 104.307 150.354 103.305 151.62 102.608C154.023 101.213 157.955 101.213 160.358 102.608C161.624 103.348 162.323 104.351 162.323 105.396C162.323 106.486 161.624 107.488 160.358 108.185C159.178 108.882 157.562 109.231 155.989 109.231ZM155.989 102.52C154.591 102.52 153.193 102.825 152.101 103.435C151.14 103.958 150.616 104.656 150.616 105.396C150.616 106.137 151.14 106.791 152.101 107.357C154.242 108.577 157.736 108.577 159.877 107.357C160.838 106.834 161.362 106.137 161.362 105.396C161.362 104.699 160.838 104.002 159.877 103.435C158.829 102.825 157.387 102.52 155.989 102.52Z" fill="#171753"/>
<path d="M160.139 105.745C157.868 107.052 154.154 107.052 151.883 105.745C149.611 104.438 149.611 102.303 151.883 100.995C154.154 99.688 157.868 99.688 160.139 100.995C162.411 102.303 162.411 104.438 160.139 105.745Z" fill="#8989C7"/>
<path d="M155.989 107.227C154.416 107.227 152.8 106.878 151.62 106.181C150.354 105.44 149.655 104.481 149.655 103.392C149.655 102.303 150.354 101.3 151.62 100.603C154.023 99.2088 157.955 99.2088 160.358 100.603C161.624 101.344 162.323 102.303 162.323 103.392C162.323 104.481 161.624 105.484 160.358 106.181C159.178 106.878 157.562 107.227 155.989 107.227ZM155.989 100.472C154.591 100.472 153.193 100.778 152.101 101.388C151.14 101.954 150.616 102.608 150.616 103.348C150.616 104.046 151.14 104.743 152.101 105.309C154.242 106.529 157.736 106.529 159.877 105.309C160.838 104.743 161.362 104.089 161.362 103.348C161.362 102.651 160.838 101.954 159.877 101.388C158.829 100.778 157.387 100.472 155.989 100.472Z" fill="#171753"/>
<path d="M171.496 79.9485C171.496 71.4078 164.551 64.5228 155.988 64.5228C147.426 64.5228 140.48 71.4513 140.48 79.9921C140.48 83.4346 141.616 86.6156 143.538 89.1865C143.538 89.1865 147.994 94.7642 150.178 101.649C150.309 102.39 150.877 103.087 151.838 103.654C154.11 104.961 157.823 104.961 160.095 103.654C161.099 103.087 161.624 102.346 161.755 101.606C163.939 94.7206 168.395 89.143 168.395 89.143C170.361 86.572 171.496 83.391 171.496 79.9485Z" fill="#BEF0ED"/>
<path d="M155.989 105.135C154.416 105.135 152.8 104.787 151.62 104.089C150.528 103.479 149.873 102.651 149.698 101.736C147.558 95.0693 143.233 89.5352 143.145 89.4916C141.092 86.7028 140 83.4346 140 79.9922C140 71.1899 147.164 64 155.989 64C164.813 64 171.978 71.1464 171.978 79.9486C171.978 83.3911 170.885 86.6592 168.832 89.4045C168.788 89.4916 164.376 95.0257 162.236 101.78C162.148 102.39 161.712 103.305 160.357 104.089C159.178 104.787 157.561 105.135 155.989 105.135ZM155.989 65.0022C147.732 65.0022 141.005 71.7129 141.005 79.9486C141.005 83.1732 142.01 86.2235 143.975 88.838C144.019 88.8816 148.475 94.5464 150.659 101.475C150.79 102.172 151.314 102.739 152.101 103.218C154.241 104.438 157.736 104.438 159.877 103.218C160.707 102.739 161.187 102.172 161.275 101.518C163.459 94.5464 168.002 88.8816 168.046 88.838C169.968 86.2671 170.973 83.1732 170.973 79.9486C170.973 71.7129 164.245 65.0022 155.989 65.0022Z" fill="#171753"/>
<path d="M160.139 103.654C157.868 104.961 154.154 104.961 151.883 103.654C149.611 102.346 149.611 100.211 151.883 98.9038C154.154 97.5965 157.868 97.5965 160.139 98.9038C162.411 100.211 162.411 102.346 160.139 103.654Z" fill="#8989C7"/>
<path d="M155.989 105.135C154.416 105.135 152.8 104.787 151.62 104.089C150.354 103.349 149.655 102.346 149.655 101.301C149.655 100.211 150.354 99.209 151.62 98.5118C154.023 97.1174 157.955 97.1174 160.358 98.5118C161.624 99.2526 162.323 100.255 162.323 101.301C162.323 102.39 161.624 103.392 160.358 104.089C159.178 104.787 157.562 105.135 155.989 105.135ZM155.989 98.3811C154.591 98.3811 153.193 98.6861 152.101 99.2961C151.14 99.819 150.616 100.516 150.616 101.257C150.616 101.954 151.14 102.651 152.101 103.218C154.242 104.438 157.736 104.438 159.877 103.218C160.838 102.695 161.362 101.998 161.362 101.257C161.362 100.56 160.838 99.8626 159.877 99.2961C158.829 98.6861 157.387 98.3811 155.989 98.3811Z" fill="#171753"/>
<path d="M151.741 87.011C153.35 89.2024 153.959 95.6916 154.062 98.6623C153.895 99.4725 153.931 101.077 155.417 101.016C157.274 100.939 157.661 100.09 157.854 99.5111C158.047 98.9324 158.28 93.4539 159.169 90.5218C159.881 88.1761 161.736 85.1205 162.574 83.8859L158.28 84.8504L156.229 80.7995L154.062 85.0433L150.271 83.6544L151.741 87.011Z" fill="#ECFFFE"/>
<path d="M155.946 101.431C155.247 101.431 154.592 101.126 154.155 100.603C153.718 100.08 153.499 99.47 153.543 98.8599C153.674 97.0297 153.718 90.537 149.699 83.87C149.568 83.6521 149.568 83.347 149.786 83.1292C149.961 82.9113 150.267 82.8677 150.485 82.9984L153.805 84.6107C153.893 84.6543 153.936 84.6107 153.98 84.6107C154.024 84.6107 154.067 84.5672 154.111 84.48L155.727 80.6454C155.815 80.4275 156.077 80.2532 156.295 80.2532C156.557 80.2532 156.776 80.3839 156.863 80.6454C157.169 81.3426 157.955 83.347 158.348 84.3493C158.392 84.4364 158.48 84.48 158.611 84.48L162.499 83.2599C162.761 83.1727 163.023 83.2599 163.198 83.4778C163.329 83.6956 163.329 84.0007 163.154 84.2186C161.931 85.7437 157.912 91.3649 158.348 98.9035C158.392 99.3828 158.261 99.8621 158.043 100.254C157.65 100.908 156.951 101.344 156.208 101.431C156.077 101.431 156.033 101.431 155.946 101.431ZM151.097 84.3929C154.679 90.9292 154.592 97.1169 154.504 98.9471C154.46 99.2957 154.592 99.6443 154.854 99.9493C155.203 100.341 155.596 100.516 156.077 100.472C156.557 100.429 156.951 100.167 157.169 99.775C157.3 99.5571 157.387 99.2521 157.344 98.9471C156.951 92.1493 159.965 86.8767 161.669 84.5236L158.829 85.3951C158.217 85.5694 157.606 85.3079 157.387 84.6979C157.082 83.9571 156.601 82.737 156.208 81.8219L154.941 84.8722C154.81 85.1772 154.592 85.3951 154.286 85.5258C153.98 85.6565 153.63 85.613 153.368 85.4822L151.097 84.3929Z" fill="#171753"/>
<path d="M147.078 104.045C147.078 104.002 146.335 100.995 144.894 97.9012L145.768 97.509C147.209 100.69 147.995 103.697 147.995 103.827L147.078 104.045Z" fill="#171753"/>
<path d="M143.845 95.8099C142.928 94.1977 141.966 92.9775 140.962 92.1932L141.573 91.4088C142.665 92.2803 143.714 93.5876 144.675 95.287L143.845 95.8099Z" fill="#171753"/>
<path d="M174.818 82.3446L173.901 82.0832C174.512 79.9915 173.901 77.1591 173.901 77.1156L174.862 76.8977C174.862 77.0284 175.517 79.9915 174.818 82.3446Z" fill="#171753"/>
<path d="M233.679 115.855C232.631 114.286 232.412 111.149 233.111 108.883C233.854 106.617 235.295 106.094 236.344 107.663C237.392 109.231 237.654 112.369 236.912 114.635C236.125 116.857 234.684 117.423 233.679 115.855Z" fill="#8989C7"/>
<path d="M234.99 117.249C234.553 117.249 233.854 117.075 233.242 116.116C232.106 114.373 231.844 111.148 232.631 108.708C233.111 107.27 233.897 106.355 234.771 106.268C235.208 106.224 235.994 106.268 236.693 107.401C237.829 109.144 238.091 112.369 237.305 114.809C236.824 116.247 236.038 117.118 235.164 117.249C235.121 117.249 235.077 117.249 234.99 117.249ZM234.99 107.227C234.946 107.227 234.946 107.227 234.902 107.227C234.509 107.27 233.941 107.793 233.548 109.013C232.849 111.105 233.111 114.112 234.029 115.55C234.203 115.811 234.596 116.29 235.033 116.247C235.426 116.203 235.994 115.68 236.387 114.46C237.086 112.369 236.824 109.362 235.907 107.924C235.732 107.662 235.426 107.227 234.99 107.227Z" fill="#171753"/>
<path d="M237.741 114.286C236.212 115.157 233.766 115.157 232.281 114.286C230.752 113.414 230.752 112.02 232.281 111.149C233.81 110.277 236.256 110.277 237.741 111.149C239.227 111.976 239.227 113.414 237.741 114.286Z" fill="#171753"/>
<path d="M239.139 111.54C236.868 112.848 233.154 112.848 230.883 111.54C228.611 110.233 228.611 108.098 230.883 106.791C233.154 105.483 236.868 105.483 239.139 106.791C241.411 108.098 241.411 110.233 239.139 111.54Z" fill="#8989C7"/>
<path d="M234.989 113.022C233.416 113.022 231.8 112.673 230.62 111.976C229.354 111.235 228.655 110.233 228.655 109.187C228.655 108.098 229.354 107.096 230.62 106.399C233.023 105.004 236.955 105.004 239.358 106.399C240.624 107.139 241.323 108.098 241.323 109.187C241.323 110.277 240.624 111.279 239.358 111.976C238.178 112.673 236.562 113.022 234.989 113.022ZM234.989 106.268C233.591 106.268 232.193 106.573 231.101 107.183C230.14 107.706 229.616 108.403 229.616 109.144C229.616 109.841 230.14 110.538 231.101 111.105C233.242 112.325 236.736 112.325 238.877 111.105C239.838 110.582 240.362 109.885 240.362 109.144C240.362 108.447 239.838 107.749 238.877 107.183C237.829 106.616 236.387 106.268 234.989 106.268Z" fill="#171753"/>
<path d="M239.139 109.71C236.868 111.018 233.154 111.018 230.883 109.71C228.611 108.403 228.611 106.268 230.883 104.961C233.154 103.653 236.868 103.653 239.139 104.961C241.411 106.268 241.411 108.359 239.139 109.71Z" fill="#8989C7"/>
<path d="M234.989 111.148C233.416 111.148 231.8 110.8 230.62 110.102C229.354 109.362 228.655 108.403 228.655 107.314C228.655 106.224 229.354 105.222 230.62 104.525C233.023 103.13 236.955 103.13 239.358 104.525C240.624 105.266 241.323 106.268 241.323 107.314C241.323 108.403 240.624 109.405 239.358 110.102C238.178 110.8 236.562 111.148 234.989 111.148ZM234.989 104.438C233.591 104.438 232.193 104.743 231.101 105.353C230.14 105.919 229.616 106.573 229.616 107.314C229.616 108.011 230.14 108.708 231.101 109.275C233.242 110.495 236.736 110.495 238.877 109.275C239.838 108.752 240.362 108.054 240.362 107.314C240.362 106.616 239.838 105.919 238.877 105.353C237.829 104.743 236.387 104.438 234.989 104.438Z" fill="#171753"/>
<path d="M239.139 107.749C236.868 109.057 233.154 109.057 230.883 107.749C228.611 106.442 228.611 104.307 230.883 103C233.154 101.692 236.868 101.692 239.139 103C241.411 104.307 241.411 106.442 239.139 107.749Z" fill="#8989C7"/>
<path d="M234.989 109.231C233.416 109.231 231.8 108.882 230.62 108.185C229.354 107.444 228.655 106.442 228.655 105.396C228.655 104.307 229.354 103.305 230.62 102.608C233.023 101.213 236.955 101.213 239.358 102.608C240.624 103.348 241.323 104.351 241.323 105.396C241.323 106.486 240.624 107.488 239.358 108.185C238.178 108.882 236.562 109.231 234.989 109.231ZM234.989 102.52C233.591 102.52 232.193 102.825 231.101 103.435C230.14 103.958 229.616 104.656 229.616 105.396C229.616 106.137 230.14 106.791 231.101 107.357C233.242 108.577 236.736 108.577 238.877 107.357C239.838 106.834 240.362 106.137 240.362 105.396C240.362 104.699 239.838 104.002 238.877 103.435C237.829 102.825 236.387 102.52 234.989 102.52Z" fill="#171753"/>
<path d="M239.139 105.745C236.868 107.052 233.154 107.052 230.883 105.745C228.611 104.438 228.611 102.303 230.883 100.995C233.154 99.688 236.868 99.688 239.139 100.995C241.411 102.303 241.411 104.438 239.139 105.745Z" fill="#8989C7"/>
<path d="M234.989 107.227C233.416 107.227 231.8 106.878 230.62 106.181C229.354 105.44 228.655 104.481 228.655 103.392C228.655 102.303 229.354 101.3 230.62 100.603C233.023 99.2088 236.955 99.2088 239.358 100.603C240.624 101.344 241.323 102.303 241.323 103.392C241.323 104.481 240.624 105.484 239.358 106.181C238.178 106.878 236.562 107.227 234.989 107.227ZM234.989 100.472C233.591 100.472 232.193 100.778 231.101 101.388C230.14 101.954 229.616 102.608 229.616 103.348C229.616 104.046 230.14 104.743 231.101 105.309C233.242 106.529 236.736 106.529 238.877 105.309C239.838 104.743 240.362 104.089 240.362 103.348C240.362 102.651 239.838 101.954 238.877 101.388C237.829 100.778 236.387 100.472 234.989 100.472Z" fill="#171753"/>
<path d="M250.496 79.9485C250.496 71.4078 243.551 64.5228 234.988 64.5228C226.426 64.5228 219.48 71.4513 219.48 79.9921C219.48 83.4346 220.616 86.6156 222.538 89.1865C222.538 89.1865 226.994 94.7642 229.178 101.649C229.309 102.39 229.877 103.087 230.838 103.654C233.11 104.961 236.823 104.961 239.095 103.654C240.099 103.087 240.624 102.346 240.755 101.606C242.939 94.7206 247.395 89.143 247.395 89.143C249.361 86.572 250.496 83.391 250.496 79.9485Z" fill="#E3E0EB"/>
<path d="M234.989 105.135C233.416 105.135 231.8 104.787 230.62 104.089C229.528 103.479 228.873 102.651 228.698 101.736C226.558 95.0693 222.233 89.5352 222.145 89.4916C220.092 86.7028 219 83.4346 219 79.9922C219 71.1899 226.164 64 234.989 64C243.813 64 250.978 71.1464 250.978 79.9486C250.978 83.3911 249.885 86.6592 247.832 89.4045C247.788 89.4916 243.376 95.0257 241.236 101.78C241.148 102.39 240.712 103.305 239.357 104.089C238.178 104.787 236.561 105.135 234.989 105.135ZM234.989 65.0022C226.732 65.0022 220.005 71.7129 220.005 79.9486C220.005 83.1732 221.01 86.2235 222.975 88.838C223.019 88.8816 227.475 94.5464 229.659 101.475C229.79 102.172 230.314 102.739 231.101 103.218C233.241 104.438 236.736 104.438 238.877 103.218C239.707 102.739 240.187 102.172 240.275 101.518C242.459 94.5464 247.002 88.8816 247.046 88.838C248.968 86.2671 249.973 83.1732 249.973 79.9486C249.973 71.7129 243.245 65.0022 234.989 65.0022Z" fill="#171753"/>
<path d="M239.139 103.654C236.868 104.961 233.154 104.961 230.883 103.654C228.611 102.346 228.611 100.211 230.883 98.9038C233.154 97.5965 236.868 97.5965 239.139 98.9038C241.411 100.211 241.411 102.346 239.139 103.654Z" fill="#8989C7"/>
<path d="M234.989 105.135C233.416 105.135 231.8 104.787 230.62 104.089C229.354 103.349 228.655 102.346 228.655 101.301C228.655 100.211 229.354 99.209 230.62 98.5118C233.023 97.1174 236.955 97.1174 239.358 98.5118C240.624 99.2526 241.323 100.255 241.323 101.301C241.323 102.39 240.624 103.392 239.358 104.089C238.178 104.787 236.562 105.135 234.989 105.135ZM234.989 98.3811C233.591 98.3811 232.193 98.6861 231.101 99.2961C230.14 99.819 229.616 100.516 229.616 101.257C229.616 101.954 230.14 102.651 231.101 103.218C233.242 104.438 236.736 104.438 238.877 103.218C239.838 102.695 240.362 101.998 240.362 101.257C240.362 100.56 239.838 99.8626 238.877 99.2961C237.829 98.6861 236.387 98.3811 234.989 98.3811Z" fill="#171753"/>
<path d="M230.741 87.011C232.35 89.2024 232.959 95.6916 233.062 98.6623C232.895 99.4725 232.931 101.077 234.417 101.016C236.274 100.939 236.661 100.09 236.854 99.5111C237.047 98.9324 237.28 93.4539 238.169 90.5218C238.881 88.1761 240.736 85.1205 241.574 83.8859L237.28 84.8504L235.229 80.7995L233.062 85.0433L229.271 83.6544L230.741 87.011Z" fill="#ECFFFE"/>
<path d="M234.946 101.431C234.247 101.431 233.592 101.126 233.155 100.603C232.718 100.08 232.499 99.47 232.543 98.8599C232.674 97.0297 232.718 90.537 228.699 83.87C228.568 83.6521 228.568 83.347 228.786 83.1292C228.961 82.9113 229.267 82.8677 229.485 82.9984L232.805 84.6107C232.893 84.6543 232.936 84.6107 232.98 84.6107C233.024 84.6107 233.067 84.5672 233.111 84.48L234.727 80.6454C234.815 80.4275 235.077 80.2532 235.295 80.2532C235.557 80.2532 235.776 80.3839 235.863 80.6454C236.169 81.3426 236.955 83.347 237.348 84.3493C237.392 84.4364 237.48 84.48 237.611 84.48L241.499 83.2599C241.761 83.1727 242.023 83.2599 242.198 83.4778C242.329 83.6956 242.329 84.0007 242.154 84.2186C240.931 85.7437 236.912 91.3649 237.348 98.9035C237.392 99.3828 237.261 99.8621 237.043 100.254C236.65 100.908 235.951 101.344 235.208 101.431C235.077 101.431 235.033 101.431 234.946 101.431ZM230.097 84.3929C233.679 90.9292 233.592 97.1169 233.504 98.9471C233.46 99.2957 233.592 99.6443 233.854 99.9493C234.203 100.341 234.596 100.516 235.077 100.472C235.557 100.429 235.951 100.167 236.169 99.775C236.3 99.5571 236.387 99.2521 236.344 98.9471C235.951 92.1493 238.965 86.8767 240.669 84.5236L237.829 85.3951C237.217 85.5694 236.606 85.3079 236.387 84.6979C236.082 83.9571 235.601 82.737 235.208 81.8219L233.941 84.8722C233.81 85.1772 233.592 85.3951 233.286 85.5258C232.98 85.6565 232.63 85.613 232.368 85.4822L230.097 84.3929Z" fill="#171753"/>
<path d="M226.078 104.045C226.078 104.002 225.335 100.995 223.894 97.9012L224.768 97.509C226.209 100.69 226.995 103.697 226.995 103.827L226.078 104.045Z" fill="#171753"/>
<path d="M222.845 95.8099C221.928 94.1977 220.966 92.9775 219.962 92.1932L220.573 91.4088C221.665 92.2803 222.714 93.5876 223.675 95.287L222.845 95.8099Z" fill="#171753"/>
<path d="M253.818 82.3446L252.901 82.0832C253.512 79.9915 252.901 77.1591 252.901 77.1156L253.862 76.8977C253.862 77.0284 254.517 79.9915 253.818 82.3446Z" fill="#171753"/>
<path d="M49.4792 104.286V102.806H49.1428C48.6719 101.662 47.5955 100.518 46.0481 99.6438C41.4734 97.0201 34.073 97.0201 29.431 99.6438C27.7491 100.586 26.74 101.797 26.269 103.008L25.9999 102.94V104.42C25.9999 106.17 27.1436 107.919 29.431 109.197C34.0058 111.821 41.4061 111.821 46.0481 109.197C48.4028 107.851 49.5465 106.035 49.4792 104.286Z" fill="#5ED9D1" stroke="#171753" stroke-width="0.571994"/>
<path d="M46.0481 98.0963C50.6229 100.72 50.6229 105.026 46.0481 107.717C41.4734 110.34 34.073 110.34 29.431 107.717C24.8563 105.093 24.8563 100.787 29.431 98.0963C34.073 95.4725 41.4734 95.4725 46.0481 98.0963Z" fill="#BEF0ED" stroke="#171753" stroke-width="0.571994"/>
<path d="M37.7732 107.38C42.0461 107.38 45.5099 105.362 45.5099 102.873C45.5099 100.384 42.0461 98.3655 37.7732 98.3655C33.5003 98.3655 30.0365 100.384 30.0365 102.873C30.0365 105.362 33.5003 107.38 37.7732 107.38Z" fill="#ECFFFE"/>
<path d="M43.681 98.9473L43.6809 98.9474L43.6884 98.9516C45.317 99.8636 46.0631 101.044 46.0482 102.171C46.0332 103.301 45.2532 104.501 43.5543 105.449L43.5542 105.449L43.5479 105.453C41.9542 106.396 39.8381 106.876 37.6976 106.876C35.5582 106.876 33.4249 106.396 31.7965 105.452C29.8394 104.277 29.1529 102.78 29.5701 101.409L29.5702 101.409L29.5715 101.404C29.8137 100.557 30.5561 99.6665 31.7945 98.9495L31.7945 98.9496L31.7983 98.9473C32.4521 98.555 33.166 98.2313 33.9407 98.0376L34.0302 98.0152L34.0898 97.9447C36.914 94.6017 36.6176 90.9365 36.4422 88.7679C36.4074 88.338 36.3774 87.9669 36.3774 87.6688C36.3774 86.9774 36.0956 86.2006 35.704 85.4462C35.309 84.6854 34.7857 83.9164 34.2674 83.2325C33.7484 82.5476 33.2301 81.9422 32.8419 81.5084C32.7732 81.4316 32.7085 81.3601 32.6485 81.2945H42.7635C42.7035 81.3601 42.6388 81.4316 42.5701 81.5084C42.1819 81.9422 41.6636 82.5476 41.1446 83.2325C40.6264 83.9164 40.103 84.6854 39.708 85.4462C39.3164 86.2006 39.0346 86.9774 39.0346 87.6688C39.0346 87.9558 39.0088 88.3076 38.9791 88.7127C38.8212 90.8641 38.553 94.5183 41.4571 97.9451L41.5062 98.003L41.5775 98.029C42.3221 98.2997 43.0357 98.5601 43.681 98.9473Z" fill="#BEF0ED" stroke="#171753" stroke-width="0.571994"/>
<path d="M38.7152 83.2956C38.7825 83.2284 38.7152 83.2284 38.7152 83.2956C38.7825 83.2284 38.7825 83.1611 38.7152 83.1611H38.6479V83.2284C38.6479 83.2284 38.6479 83.2956 38.7152 83.2956Z" fill="#171753"/>
<path d="M34.9478 98.1635C34.8806 98.298 34.9478 98.1635 34.8133 98.2307C34.746 98.298 34.6787 98.3653 34.6787 98.3653C34.6787 98.3653 34.6115 98.4998 34.6787 98.4998C34.746 98.4998 34.6787 98.4998 34.746 98.4998H34.8806C34.9478 98.4998 34.9478 98.4998 35.0151 98.4326C35.0151 98.3653 35.0151 98.3653 35.0824 98.298C35.0151 98.298 35.0151 98.2307 34.9478 98.1635Z" fill="#171753"/>
<path d="M37.9752 105.16C37.9752 105.16 38.3116 105.093 38.3788 105.093C38.4461 105.026 38.5807 105.093 38.6479 105.093C38.7152 105.093 38.7152 105.16 38.7152 105.16C38.7152 105.16 38.5807 105.295 38.5134 105.295C38.4461 105.295 38.3116 105.295 38.177 105.295C38.0425 105.228 37.9752 105.16 37.9752 105.16Z" fill="#171753"/>
<path d="M31.853 103.277C31.853 103.142 31.9876 103.142 32.0549 103.142C32.1221 103.142 32.1221 103.209 32.1894 103.209C32.2567 103.277 32.2567 103.142 32.3912 103.277C32.5258 103.411 32.6603 103.479 32.4585 103.479C32.2567 103.479 32.2567 103.479 32.1221 103.479C32.0549 103.479 31.853 103.344 31.853 103.277Z" fill="#171753"/>
<path d="M43.6765 79.5954C43.6765 80.4343 43.0839 81.2485 42.0069 81.8689C40.9376 82.4849 39.4413 82.8751 37.7731 82.8751C36.1049 82.8751 34.6087 82.4849 33.5393 81.8689C32.4623 81.2485 31.8697 80.4343 31.8697 79.5954C31.8697 78.7566 32.4623 77.9424 33.5393 77.322C34.6087 76.706 36.1049 76.3158 37.7731 76.3158C39.4413 76.3158 40.9376 76.706 42.0069 77.322C43.0839 77.9424 43.6765 78.7566 43.6765 79.5954Z" fill="#5ED9D1" stroke="#171753" stroke-width="0.571994"/>
<path opacity="0.32" d="M44.8373 80.403C49.9503 75.5592 47.7975 68.5625 47.7975 68.5625H37.7734H27.7493C27.7493 68.5625 25.6637 75.5592 30.7094 80.403C30.7094 80.403 34.6114 83.6995 34.6114 85.516C34.6114 87.3324 27.4802 92.2436 27.4802 96.751C27.4802 101.259 28.8257 107.784 37.7734 107.784C46.7211 107.784 48.0666 101.259 48.0666 96.751C48.0666 92.2436 40.8681 87.2651 40.8681 85.516C40.8681 83.6323 44.8373 80.403 44.8373 80.403Z" fill="#5ED9D1"/>
<path opacity="0.59" d="M41.5406 73.5407C41.2715 73.608 41.137 73.8098 41.2042 74.0789C41.5406 75.1554 42.3479 78.0482 41.4061 80.1338C41.2042 80.6047 41.0024 81.0083 40.8679 81.3447C40.7333 81.7484 41.2715 82.0848 41.5406 81.7484C43.2898 79.7974 46.5863 75.6263 44.6353 73.1371C44.568 73.0025 44.3662 72.9353 44.2316 73.0025L41.5406 73.5407Z" fill="#F0FCFF"/>
<path opacity="0.59" d="M40.599 89.9561C41.8099 92.5126 43.8282 97.962 42.0117 102.604C41.8772 103.008 42.2136 103.344 42.6172 103.209C43.8282 102.739 45.7792 101.864 46.1156 100.653C46.5192 98.9711 46.1156 92.849 41.2717 89.4179C40.9353 89.0816 40.3971 89.4852 40.599 89.9561Z" fill="#F0FCFF"/>
<path d="M44.8374 80.403C49.9503 75.5592 47.7975 68.5625 47.7975 68.5625H37.7734H27.7493C27.7493 68.5625 25.6638 75.5592 30.7094 80.403C30.7094 80.403 34.6114 83.6995 34.6114 85.516C34.6114 87.3324 27.4802 92.2436 27.4802 96.751C27.4802 101.259 28.8257 107.784 37.7734 107.784C46.7211 107.784 48.0666 101.259 48.0666 96.751C48.0666 92.2436 40.8681 87.2652 40.8681 85.516C40.8681 83.6323 44.8374 80.403 44.8374 80.403Z" stroke="#171753" stroke-width="0.571994"/>
<path d="M49.4793 66.1404V64.6603H49.1429C48.6719 63.5166 47.5955 62.3729 46.0482 61.4984C41.4734 58.8746 34.0731 58.8746 29.4311 61.4984C27.7492 62.4402 26.74 63.6512 26.2691 64.8621L26 64.7949V66.2749C26 68.0241 27.1437 69.7733 29.4311 71.0515C34.0058 73.6753 41.4062 73.6753 46.0482 71.0515C48.4028 69.706 49.5465 67.8896 49.4793 66.1404Z" fill="#5ED9D1" stroke="#171753" stroke-width="0.571994"/>
<path d="M37.7733 71.5897C44.2383 71.5897 49.4793 68.5476 49.4793 64.7949C49.4793 61.0422 44.2383 58 37.7733 58C31.3082 58 26.0673 61.0422 26.0673 64.7949C26.0673 68.5476 31.3082 71.5897 37.7733 71.5897Z" fill="#BEF0ED" stroke="#171753" stroke-width="0.571994"/>
</svg>
