<svg width="300" height="180" viewBox="0 0 300 180" fill="none" xmlns="http://www.w3.org/2000/svg">
<g clip-path="url(#clip0_1711_1647)">
<rect width="300" height="180" fill="#ECFFFE"/>
<rect opacity="0.4" x="-7" y="-12" width="314" height="204" fill="#49CE8B"/>
<path d="M25.68 136V123.5H28.52V136H25.68ZM21.46 123.9V121.4H32.74V123.9H21.46ZM34.787 136V121.4H37.567V129.92H37.087C37.087 128.827 37.227 127.9 37.507 127.14C37.787 126.38 38.2004 125.8 38.747 125.4C39.307 125 40.0137 124.8 40.867 124.8H40.987C42.227 124.8 43.167 125.227 43.807 126.08C44.447 126.933 44.767 128.173 44.767 129.8V136H41.987V129.54C41.987 128.847 41.787 128.3 41.387 127.9C41.0004 127.5 40.487 127.3 39.847 127.3C39.167 127.3 38.6137 127.527 38.187 127.98C37.7737 128.42 37.567 129 37.567 129.72V136H34.787ZM52.6158 136.38C51.6824 136.38 50.8624 136.22 50.1558 135.9C49.4624 135.58 48.8824 135.153 48.4158 134.62C47.9624 134.073 47.6158 133.467 47.3758 132.8C47.1491 132.133 47.0358 131.453 47.0358 130.76V130.38C47.0358 129.66 47.1491 128.967 47.3758 128.3C47.6158 127.62 47.9624 127.02 48.4158 126.5C48.8824 125.967 49.4558 125.547 50.1358 125.24C50.8158 124.92 51.6024 124.76 52.4958 124.76C53.6691 124.76 54.6491 125.02 55.4358 125.54C56.2358 126.047 56.8358 126.72 57.2358 127.56C57.6358 128.387 57.8358 129.28 57.8358 130.24V131.24H48.2158V129.54H56.0958L55.2358 130.38C55.2358 129.687 55.1358 129.093 54.9358 128.6C54.7358 128.107 54.4291 127.727 54.0158 127.46C53.6158 127.193 53.1091 127.06 52.4958 127.06C51.8824 127.06 51.3624 127.2 50.9358 127.48C50.5091 127.76 50.1824 128.167 49.9558 128.7C49.7424 129.22 49.6358 129.847 49.6358 130.58C49.6358 131.26 49.7424 131.867 49.9558 132.4C50.1691 132.92 50.4958 133.333 50.9358 133.64C51.3758 133.933 51.9358 134.08 52.6158 134.08C53.2958 134.08 53.8491 133.947 54.2758 133.68C54.7024 133.4 54.9758 133.06 55.0958 132.66H57.6558C57.4958 133.407 57.1891 134.06 56.7358 134.62C56.2824 135.18 55.7024 135.613 54.9958 135.92C54.3024 136.227 53.5091 136.38 52.6158 136.38ZM67.5745 136V123.5H70.4145V136H67.5745ZM63.3545 123.9V121.4H74.6345V123.9H63.3545ZM82.5389 136V132.78H82.0789V129.2C82.0789 128.573 81.9256 128.107 81.6189 127.8C81.3122 127.493 80.8389 127.34 80.1989 127.34C79.8656 127.34 79.4656 127.347 78.9989 127.36C78.5322 127.373 78.0589 127.393 77.5789 127.42C77.1122 127.433 76.6922 127.453 76.3189 127.48V125.12C76.6256 125.093 76.9722 125.067 77.3589 125.04C77.7456 125.013 78.1389 125 78.5389 125C78.9522 124.987 79.3389 124.98 79.6989 124.98C80.8189 124.98 81.7456 125.127 82.4789 125.42C83.2256 125.713 83.7856 126.173 84.1589 126.8C84.5456 127.427 84.7389 128.247 84.7389 129.26V136H82.5389ZM79.0389 136.28C78.2522 136.28 77.5589 136.14 76.9589 135.86C76.3722 135.58 75.9122 135.18 75.5789 134.66C75.2589 134.14 75.0989 133.513 75.0989 132.78C75.0989 131.98 75.2922 131.327 75.6789 130.82C76.0789 130.313 76.6322 129.933 77.3389 129.68C78.0589 129.427 78.8989 129.3 79.8589 129.3H82.3789V130.96H79.8189C79.1789 130.96 78.6856 131.12 78.3389 131.44C78.0056 131.747 77.8389 132.147 77.8389 132.64C77.8389 133.133 78.0056 133.533 78.3389 133.84C78.6856 134.147 79.1789 134.3 79.8189 134.3C80.2056 134.3 80.5589 134.233 80.8789 134.1C81.2122 133.953 81.4856 133.713 81.6989 133.38C81.9256 133.033 82.0522 132.567 82.0789 131.98L82.7589 132.76C82.6922 133.52 82.5056 134.16 82.1989 134.68C81.9056 135.2 81.4922 135.6 80.9589 135.88C80.4389 136.147 79.7989 136.28 79.0389 136.28ZM91.6567 136.34C90.1634 136.34 88.9901 136.027 88.1367 135.4C87.2967 134.76 86.8567 133.88 86.8167 132.76H89.3167C89.3567 133.133 89.5634 133.473 89.9367 133.78C90.3101 134.087 90.8967 134.24 91.6967 134.24C92.3634 134.24 92.8901 134.12 93.2767 133.88C93.6767 133.64 93.8767 133.313 93.8767 132.9C93.8767 132.54 93.7234 132.253 93.4167 132.04C93.1234 131.827 92.6167 131.687 91.8967 131.62L90.9367 131.52C89.7234 131.387 88.7901 131.04 88.1367 130.48C87.4834 129.92 87.1567 129.173 87.1567 128.24C87.1567 127.493 87.3434 126.867 87.7167 126.36C88.0901 125.853 88.6034 125.473 89.2567 125.22C89.9234 124.953 90.6834 124.82 91.5367 124.82C92.8701 124.82 93.9501 125.113 94.7767 125.7C95.6034 126.287 96.0367 127.147 96.0767 128.28H93.5767C93.5501 127.907 93.3634 127.587 93.0167 127.32C92.6701 127.053 92.1701 126.92 91.5167 126.92C90.9301 126.92 90.4767 127.033 90.1567 127.26C89.8367 127.487 89.6767 127.78 89.6767 128.14C89.6767 128.487 89.8034 128.753 90.0567 128.94C90.3234 129.127 90.7501 129.253 91.3367 129.32L92.2967 129.42C93.5767 129.553 94.5767 129.907 95.2967 130.48C96.0301 131.053 96.3967 131.827 96.3967 132.8C96.3967 133.52 96.1967 134.147 95.7967 134.68C95.4101 135.2 94.8634 135.607 94.1567 135.9C93.4501 136.193 92.6167 136.34 91.6567 136.34ZM106.293 136L102.653 130.92H101.033L105.653 125.14H108.553L104.293 130.48L104.353 129.08L109.433 136H106.293ZM98.6933 136V121.4H101.473V136H98.6933ZM25.68 160V147.5H28.52V160H25.68ZM21.46 147.9V145.4H32.74V147.9H21.46ZM38.2994 160.38C37.366 160.38 36.546 160.22 35.8394 159.9C35.146 159.58 34.566 159.153 34.0994 158.62C33.646 158.073 33.2994 157.467 33.0594 156.8C32.8327 156.133 32.7194 155.453 32.7194 154.76V154.38C32.7194 153.66 32.8327 152.967 33.0594 152.3C33.2994 151.62 33.646 151.02 34.0994 150.5C34.566 149.967 35.1394 149.547 35.8194 149.24C36.4994 148.92 37.286 148.76 38.1794 148.76C39.3527 148.76 40.3327 149.02 41.1194 149.54C41.9194 150.047 42.5194 150.72 42.9194 151.56C43.3194 152.387 43.5194 153.28 43.5194 154.24V155.24H33.8994V153.54H41.7794L40.9194 154.38C40.9194 153.687 40.8194 153.093 40.6194 152.6C40.4194 152.107 40.1127 151.727 39.6994 151.46C39.2994 151.193 38.7927 151.06 38.1794 151.06C37.566 151.06 37.046 151.2 36.6194 151.48C36.1927 151.76 35.866 152.167 35.6394 152.7C35.426 153.22 35.3194 153.847 35.3194 154.58C35.3194 155.26 35.426 155.867 35.6394 156.4C35.8527 156.92 36.1794 157.333 36.6194 157.64C37.0594 157.933 37.6194 158.08 38.2994 158.08C38.9794 158.08 39.5327 157.947 39.9594 157.68C40.386 157.4 40.6594 157.06 40.7794 156.66H43.3394C43.1794 157.407 42.8727 158.06 42.4194 158.62C41.966 159.18 41.386 159.613 40.6794 159.92C39.986 160.227 39.1927 160.38 38.2994 160.38ZM45.8417 160V149.14H48.0417V153.8H47.8417C47.8417 152.707 47.9817 151.793 48.2617 151.06C48.5417 150.313 48.9551 149.753 49.5017 149.38C50.0617 148.993 50.7551 148.8 51.5817 148.8H51.7017C52.5417 148.8 53.2351 148.993 53.7817 149.38C54.3417 149.753 54.7551 150.313 55.0217 151.06C55.3017 151.793 55.4417 152.707 55.4417 153.8H54.7417C54.7417 152.707 54.8817 151.793 55.1617 151.06C55.4551 150.313 55.8751 149.753 56.4217 149.38C56.9817 148.993 57.6751 148.8 58.5017 148.8H58.6217C59.4617 148.8 60.1617 148.993 60.7217 149.38C61.2817 149.753 61.7017 150.313 61.9817 151.06C62.2751 151.793 62.4217 152.707 62.4217 153.8V160H59.6417V153.54C59.6417 152.86 59.4684 152.32 59.1217 151.92C58.7751 151.507 58.2817 151.3 57.6417 151.3C57.0017 151.3 56.4884 151.513 56.1017 151.94C55.7151 152.353 55.5217 152.913 55.5217 153.62V160H52.7417V153.54C52.7417 152.86 52.5684 152.32 52.2217 151.92C51.8751 151.507 51.3817 151.3 50.7417 151.3C50.1017 151.3 49.5884 151.513 49.2017 151.94C48.8151 152.353 48.6217 152.913 48.6217 153.62V160H45.8417ZM65.3925 164V149.14H67.5925V153.82L67.2525 153.8C67.3058 152.693 67.5325 151.767 67.9325 151.02C68.3458 150.273 68.8925 149.72 69.5725 149.36C70.2525 148.987 71.0125 148.8 71.8525 148.8C72.6258 148.8 73.3192 148.94 73.9325 149.22C74.5592 149.5 75.0925 149.893 75.5325 150.4C75.9858 150.907 76.3325 151.5 76.5725 152.18C76.8125 152.847 76.9325 153.567 76.9325 154.34V154.76C76.9325 155.547 76.8125 156.28 76.5725 156.96C76.3458 157.627 76.0058 158.22 75.5525 158.74C75.1125 159.247 74.5792 159.647 73.9525 159.94C73.3258 160.22 72.6258 160.36 71.8525 160.36C71.0392 160.36 70.2925 160.193 69.6125 159.86C68.9458 159.513 68.4058 158.987 67.9925 158.28C67.5792 157.56 67.3458 156.633 67.2925 155.5L68.1725 156.84V164H65.3925ZM71.1525 158.02C71.7525 158.02 72.2725 157.873 72.7125 157.58C73.1658 157.287 73.5192 156.88 73.7725 156.36C74.0258 155.827 74.1525 155.227 74.1525 154.56C74.1525 153.867 74.0258 153.267 73.7725 152.76C73.5192 152.253 73.1658 151.86 72.7125 151.58C72.2725 151.287 71.7525 151.14 71.1525 151.14C70.6058 151.14 70.0992 151.26 69.6325 151.5C69.1792 151.74 68.8058 152.093 68.5125 152.56C68.2325 153.027 68.0925 153.587 68.0925 154.24V155.04C68.0925 155.667 68.2392 156.2 68.5325 156.64C68.8258 157.08 69.2058 157.42 69.6725 157.66C70.1392 157.9 70.6325 158.02 71.1525 158.02ZM79.5169 160V145.4H82.2969V160H79.5169ZM78.1569 147.48V145.4H82.2969V147.48H78.1569ZM92.0506 160V156.78H91.5906V153.2C91.5906 152.573 91.4373 152.107 91.1306 151.8C90.824 151.493 90.3506 151.34 89.7106 151.34C89.3773 151.34 88.9773 151.347 88.5106 151.36C88.044 151.373 87.5706 151.393 87.0906 151.42C86.624 151.433 86.204 151.453 85.8306 151.48V149.12C86.1373 149.093 86.484 149.067 86.8706 149.04C87.2573 149.013 87.6506 149 88.0506 149C88.464 148.987 88.8506 148.98 89.2106 148.98C90.3306 148.98 91.2573 149.127 91.9906 149.42C92.7373 149.713 93.2973 150.173 93.6706 150.8C94.0573 151.427 94.2506 152.247 94.2506 153.26V160H92.0506ZM88.5506 160.28C87.764 160.28 87.0706 160.14 86.4706 159.86C85.884 159.58 85.424 159.18 85.0906 158.66C84.7706 158.14 84.6106 157.513 84.6106 156.78C84.6106 155.98 84.804 155.327 85.1906 154.82C85.5906 154.313 86.144 153.933 86.8506 153.68C87.5706 153.427 88.4106 153.3 89.3706 153.3H91.8906V154.96H89.3306C88.6906 154.96 88.1973 155.12 87.8506 155.44C87.5173 155.747 87.3506 156.147 87.3506 156.64C87.3506 157.133 87.5173 157.533 87.8506 157.84C88.1973 158.147 88.6906 158.3 89.3306 158.3C89.7173 158.3 90.0706 158.233 90.3906 158.1C90.724 157.953 90.9973 157.713 91.2106 157.38C91.4373 157.033 91.564 156.567 91.5906 155.98L92.2706 156.76C92.204 157.52 92.0173 158.16 91.7106 158.68C91.4173 159.2 91.004 159.6 90.4706 159.88C89.9506 160.147 89.3106 160.28 88.5506 160.28ZM101.948 160.14C100.948 160.14 100.122 160.013 99.4684 159.76C98.8284 159.493 98.3484 159.053 98.0284 158.44C97.7084 157.813 97.5484 156.973 97.5484 155.92L97.5684 146.08H100.168L100.148 156.1C100.148 156.633 100.288 157.047 100.568 157.34C100.862 157.62 101.275 157.76 101.808 157.76H103.508V160.14H101.948ZM95.8284 151.18V149.14H103.508V151.18H95.8284ZM110.643 160.38C109.71 160.38 108.89 160.22 108.183 159.9C107.49 159.58 106.91 159.153 106.443 158.62C105.99 158.073 105.643 157.467 105.403 156.8C105.176 156.133 105.063 155.453 105.063 154.76V154.38C105.063 153.66 105.176 152.967 105.403 152.3C105.643 151.62 105.99 151.02 106.443 150.5C106.91 149.967 107.483 149.547 108.163 149.24C108.843 148.92 109.63 148.76 110.523 148.76C111.696 148.76 112.676 149.02 113.463 149.54C114.263 150.047 114.863 150.72 115.263 151.56C115.663 152.387 115.863 153.28 115.863 154.24V155.24H106.243V153.54H114.123L113.263 154.38C113.263 153.687 113.163 153.093 112.963 152.6C112.763 152.107 112.456 151.727 112.043 151.46C111.643 151.193 111.136 151.06 110.523 151.06C109.91 151.06 109.39 151.2 108.963 151.48C108.536 151.76 108.21 152.167 107.983 152.7C107.77 153.22 107.663 153.847 107.663 154.58C107.663 155.26 107.77 155.867 107.983 156.4C108.196 156.92 108.523 157.333 108.963 157.64C109.403 157.933 109.963 158.08 110.643 158.08C111.323 158.08 111.876 157.947 112.303 157.68C112.73 157.4 113.003 157.06 113.123 156.66H115.683C115.523 157.407 115.216 158.06 114.763 158.62C114.31 159.18 113.73 159.613 113.023 159.92C112.33 160.227 111.536 160.38 110.643 160.38Z" fill="#171753"/>
<path d="M131.135 126.56C131.61 127.223 132.23 127.77 132.947 128.16L184.452 157.794C187.235 159.405 191.454 159.572 193.871 158.19L216.424 145.19C216.853 144.99 217.225 144.686 217.507 144.307C217.789 143.928 217.972 143.484 218.039 143.017C218.176 142.049 218.133 141.064 217.91 140.113L216.404 140.201C216.195 140.048 215.977 139.906 215.751 139.777L164.246 110.142C161.453 108.532 157.244 108.364 154.827 109.757L132.274 122.747L130.56 122.658C130.379 123.282 130.327 123.937 130.407 124.582C130.487 125.228 130.697 125.85 131.026 126.412C131.056 126.449 131.082 126.488 131.105 126.53L131.135 126.56Z" fill="#171753"/>
<path d="M189.791 159.503C191.278 159.54 192.75 159.2 194.07 158.516L216.622 145.516C217.096 145.286 217.506 144.947 217.82 144.525C218.134 144.104 218.341 143.614 218.425 143.096C218.568 142.075 218.521 141.037 218.287 140.034L218.207 139.737L216.523 139.826C216.345 139.698 216.157 139.579 215.949 139.451L164.444 109.816C161.552 108.157 157.165 107.979 154.649 109.431L132.195 122.362L130.303 122.263L130.214 122.53C130.011 123.206 129.952 123.917 130.039 124.617C130.126 125.318 130.357 125.993 130.719 126.599L130.798 126.738L131.145 126.57L130.828 126.777C131.346 127.495 132.024 128.083 132.809 128.496L184.313 158.13C185.993 159.042 187.878 159.515 189.791 159.503ZM217.712 142.839V143.037C217.646 143.442 217.482 143.825 217.233 144.152C216.985 144.479 216.659 144.741 216.286 144.913L193.723 157.913C191.425 159.237 187.364 159.059 184.69 157.518L133.185 127.883C132.519 127.523 131.943 127.016 131.501 126.402L131.422 126.283C130.856 125.322 130.668 124.184 130.897 123.093L132.413 123.172L132.512 123.112L155.065 110.123C157.372 108.789 161.424 108.967 164.108 110.508L215.612 140.142C215.828 140.265 216.037 140.4 216.236 140.547L216.682 140.873L216.751 140.606L217.662 140.547C217.795 141.304 217.811 142.077 217.712 142.839Z" fill="#171753"/>
<path d="M132.175 120.485L154.738 107.485C157.145 106.102 161.364 106.27 164.147 107.88L215.652 137.515C218.435 139.125 218.742 141.545 216.326 142.938L193.772 155.928C191.356 157.32 187.146 157.143 184.353 155.542L132.849 125.908C130.065 124.298 129.768 121.868 132.175 120.485Z" fill="#49CE8B"/>
<path d="M189.692 157.251C191.179 157.293 192.653 156.953 193.971 156.263L216.524 143.274C217.042 143.033 217.485 142.658 217.806 142.186C218.127 141.715 218.313 141.165 218.346 140.597C218.346 139.352 217.435 138.107 215.85 137.199L164.346 107.564C161.463 105.905 157.066 105.737 154.55 107.179L131.987 120.119C131.47 120.363 131.03 120.742 130.711 121.215C130.392 121.687 130.207 122.237 130.174 122.806C130.174 124.051 131.076 125.286 132.66 126.194L184.165 155.829C185.855 156.766 187.758 157.256 189.692 157.251ZM158.829 106.873C160.621 106.858 162.387 107.3 163.959 108.157L215.464 137.791C216.811 138.572 217.584 139.569 217.584 140.537C217.537 140.964 217.379 141.371 217.125 141.718C216.871 142.065 216.531 142.339 216.137 142.513L193.584 155.503C191.276 156.826 187.225 156.658 184.541 155.117L133.037 125.483C131.69 124.713 130.917 123.715 130.917 122.747C130.964 122.321 131.12 121.915 131.372 121.569C131.624 121.222 131.962 120.947 132.353 120.771L154.916 107.772C156.116 107.17 157.447 106.878 158.789 106.922L158.829 106.873Z" fill="#171753"/>
<path d="M188.778 156.882L189.303 156.887L189.283 158.843L188.758 158.837L188.778 156.882Z" fill="#9BE7C4"/>
<path d="M216.989 145.052C217.208 144.29 217.208 143.482 216.989 142.721L216.484 142.879C216.663 143.525 216.663 144.208 216.484 144.854L216.989 145.052Z" fill="#9BE7C4"/>
<path d="M216.088 145.575C216.299 144.812 216.299 144.007 216.088 143.244L215.583 143.412C215.76 144.059 215.76 144.741 215.583 145.387L216.088 145.575Z" fill="#9BE7C4"/>
<path d="M132.631 128.091L133.146 127.972C133.033 127.38 133.003 126.775 133.057 126.175H132.789H132.532C132.473 126.815 132.506 127.46 132.631 128.091Z" fill="#9BE7C4"/>
<path d="M131.63 127.469L132.146 127.35C132.031 126.778 132.004 126.192 132.066 125.611L131.799 125.552H131.541C131.473 126.192 131.503 126.838 131.63 127.469Z" fill="#9BE7C4"/>
<path d="M150.34 137.208C150.386 137.179 150.423 137.138 150.447 137.089C150.472 137.04 150.483 136.986 150.479 136.932C150.469 136.799 150.427 136.67 150.356 136.556C150.285 136.443 150.188 136.348 150.073 136.28L147.894 134.937C147.838 134.903 147.775 134.886 147.711 134.886C147.646 134.886 147.583 134.903 147.527 134.937C147.438 134.937 147.101 135.134 147.101 135.253H147.389C147.4 135.384 147.443 135.511 147.514 135.623C147.584 135.734 147.681 135.828 147.795 135.895L150.003 137.169C150.083 137.169 150.003 137.386 150.073 137.386C150.167 137.335 150.256 137.275 150.34 137.208Z" fill="#9BE7C4"/>
<path d="M150.033 137.653C150.142 137.653 150.231 137.594 150.42 137.465C150.508 137.415 150.58 137.341 150.629 137.252C150.678 137.163 150.702 137.063 150.697 136.962C150.694 136.773 150.642 136.589 150.547 136.426C150.451 136.263 150.315 136.128 150.152 136.033L147.944 134.759C147.845 134.703 147.734 134.674 147.622 134.674C147.509 134.674 147.398 134.703 147.3 134.759C147.032 134.897 146.745 135.055 146.745 135.312V135.579H147.072C147.159 135.837 147.335 136.057 147.567 136.201L149.687 137.416C149.686 137.496 149.714 137.573 149.766 137.633L149.845 137.712L150.033 137.653ZM150.212 136.981L150.142 136.922L147.924 135.648C147.85 135.603 147.786 135.543 147.738 135.471C147.69 135.4 147.659 135.318 147.646 135.233V135.134C147.646 135.134 147.646 135.134 147.755 135.134L149.964 136.408C150.039 136.454 150.103 136.516 150.152 136.589C150.2 136.663 150.23 136.746 150.241 136.833L150.212 136.981Z" fill="#9BE7C4"/>
<path d="M154.401 139.56C154.446 139.531 154.483 139.492 154.507 139.445C154.532 139.398 154.543 139.346 154.54 139.293V139.234C154.527 139.1 154.483 138.971 154.411 138.858C154.338 138.744 154.24 138.65 154.124 138.582L151.915 137.307C151.858 137.276 151.793 137.26 151.727 137.26C151.662 137.26 151.597 137.276 151.539 137.307C151.45 137.307 151.113 137.515 151.113 137.643H151.4C151.41 137.776 151.452 137.905 151.523 138.019C151.594 138.132 151.691 138.227 151.806 138.295L154.025 139.569C154.104 139.619 153.966 139.806 154.025 139.806C154.158 139.737 154.284 139.654 154.401 139.56Z" fill="#9BE7C4"/>
<path d="M154.034 140.034C154.134 140.034 154.223 140.034 154.48 139.826C154.566 139.777 154.637 139.704 154.684 139.617C154.732 139.53 154.753 139.431 154.748 139.332C154.743 139.144 154.692 138.96 154.599 138.796C154.506 138.632 154.373 138.494 154.213 138.394L151.994 137.12C151.898 137.062 151.789 137.032 151.677 137.032C151.566 137.032 151.456 137.062 151.36 137.12C151.093 137.258 150.796 137.416 150.796 137.683V137.9H151.132C151.221 138.153 151.397 138.366 151.628 138.503L153.708 139.698C153.675 139.777 153.675 139.866 153.708 139.945L153.787 140.044L154.034 140.034ZM154.262 139.332C154.24 139.307 154.213 139.287 154.183 139.273L151.974 137.999C151.899 137.953 151.835 137.892 151.787 137.818C151.739 137.745 151.708 137.661 151.697 137.574V137.475C151.733 137.466 151.77 137.466 151.806 137.475L154.015 138.75C154.09 138.792 154.155 138.852 154.203 138.924C154.251 138.996 154.282 139.078 154.292 139.164L154.262 139.332Z" fill="#9BE7C4"/>
<path d="M150.033 137.386C150.078 137.358 150.114 137.319 150.139 137.272C150.163 137.225 150.175 137.172 150.172 137.12V137.06C150.16 136.929 150.117 136.802 150.046 136.69C149.976 136.579 149.88 136.485 149.765 136.418L147.547 135.144C147.489 135.114 147.424 135.098 147.359 135.098C147.293 135.098 147.229 135.114 147.171 135.144C147.125 135.174 147.088 135.215 147.064 135.264C147.039 135.312 147.028 135.366 147.032 135.421C147.042 135.555 147.085 135.685 147.158 135.798C147.231 135.912 147.33 136.006 147.448 136.073L149.657 137.347C149.724 137.391 149.803 137.415 149.884 137.416C149.936 137.421 149.988 137.411 150.033 137.386Z" fill="#171753"/>
<path d="M149.875 137.692C149.971 137.691 150.066 137.667 150.152 137.623C150.24 137.572 150.311 137.498 150.36 137.409C150.409 137.321 150.433 137.221 150.43 137.119C150.434 136.922 150.386 136.726 150.29 136.553C150.194 136.379 150.055 136.234 149.885 136.132L147.676 134.867C147.579 134.81 147.467 134.78 147.354 134.78C147.241 134.78 147.13 134.81 147.032 134.867C146.947 134.921 146.878 134.995 146.831 135.084C146.784 135.172 146.762 135.271 146.765 135.371C146.768 135.558 146.819 135.742 146.912 135.904C147.006 136.067 147.139 136.203 147.3 136.3L149.518 137.574C149.624 137.646 149.747 137.687 149.875 137.692ZM149.875 137.159C149.875 137.159 149.875 137.159 149.766 137.159L147.557 135.885C147.482 135.839 147.418 135.778 147.37 135.704C147.322 135.63 147.291 135.547 147.28 135.46V135.361C147.315 135.352 147.353 135.352 147.389 135.361L149.598 136.635C149.672 136.68 149.735 136.74 149.783 136.812C149.831 136.884 149.862 136.965 149.875 137.05V137.159Z" fill="#9BE7C4"/>
<path d="M154.084 139.747C154.133 139.72 154.173 139.68 154.2 139.631C154.226 139.582 154.238 139.526 154.233 139.471V139.421C154.218 139.288 154.172 139.16 154.1 139.047C154.028 138.934 153.931 138.839 153.817 138.769L151.608 137.495C151.551 137.462 151.486 137.445 151.42 137.445C151.354 137.445 151.289 137.462 151.232 137.495C151.185 137.524 151.148 137.565 151.123 137.614C151.099 137.663 151.088 137.717 151.093 137.772C151.103 137.905 151.145 138.034 151.216 138.147C151.286 138.261 151.384 138.355 151.499 138.423L153.718 139.698C153.787 139.737 153.865 139.761 153.946 139.767C153.993 139.775 154.041 139.768 154.084 139.747Z" fill="#171753"/>
<path d="M153.945 140.053C154.02 140.052 154.093 140.036 154.162 140.006C154.23 139.976 154.291 139.932 154.342 139.878C154.393 139.823 154.432 139.759 154.458 139.689C154.483 139.619 154.494 139.545 154.49 139.471C154.486 139.284 154.435 139.1 154.341 138.938C154.248 138.776 154.115 138.64 153.955 138.542L151.736 137.268C151.641 137.21 151.531 137.18 151.42 137.18C151.308 137.18 151.198 137.21 151.103 137.268C151.015 137.318 150.942 137.392 150.893 137.481C150.844 137.57 150.821 137.67 150.825 137.772C150.829 137.96 150.882 138.144 150.977 138.306C151.072 138.469 151.208 138.604 151.37 138.7L153.579 139.974C153.692 140.032 153.818 140.059 153.945 140.053ZM153.945 139.52C153.945 139.52 153.945 139.52 153.836 139.52L151.628 138.246C151.552 138.201 151.487 138.139 151.439 138.066C151.391 137.992 151.361 137.908 151.35 137.821V137.722C151.386 137.714 151.423 137.714 151.459 137.722L153.668 138.987C153.742 139.034 153.804 139.096 153.852 139.17C153.9 139.243 153.932 139.325 153.945 139.411V139.52Z" fill="#9BE7C4"/>
<path d="M145.16 134.423C145.205 134.395 145.241 134.355 145.266 134.308C145.29 134.261 145.302 134.209 145.299 134.156V134.097C145.287 133.965 145.244 133.838 145.174 133.727C145.103 133.615 145.007 133.522 144.893 133.455L143.655 132.734C143.597 132.701 143.533 132.683 143.467 132.683C143.4 132.683 143.336 132.701 143.278 132.734C143.232 132.763 143.194 132.804 143.17 132.853C143.145 132.901 143.135 132.956 143.14 133.01V133.06C143.152 133.192 143.195 133.32 143.266 133.433C143.336 133.547 143.432 133.642 143.546 133.712L144.794 134.423C144.861 134.468 144.94 134.492 145.022 134.492C145.075 134.486 145.123 134.461 145.16 134.423Z" fill="#171753"/>
<path d="M145.021 134.729C145.118 134.726 145.212 134.703 145.298 134.66C145.383 134.606 145.451 134.531 145.498 134.443C145.545 134.355 145.568 134.256 145.566 134.156C145.57 133.958 145.522 133.763 145.426 133.589C145.331 133.416 145.191 133.271 145.021 133.168L143.783 132.457C143.686 132.4 143.574 132.37 143.461 132.37C143.348 132.37 143.237 132.4 143.139 132.457C143.053 132.509 142.983 132.583 142.935 132.672C142.888 132.761 142.866 132.861 142.872 132.961C142.876 133.149 142.928 133.333 143.023 133.496C143.119 133.658 143.254 133.794 143.417 133.889L144.655 134.601C144.763 134.675 144.89 134.719 145.021 134.729ZM145.021 134.196C145.021 134.196 144.972 134.196 144.912 134.196L143.664 133.485C143.591 133.437 143.528 133.375 143.48 133.302C143.432 133.228 143.401 133.146 143.387 133.06V132.961C143.422 132.948 143.461 132.948 143.496 132.961L144.744 133.682C144.818 133.726 144.881 133.787 144.929 133.858C144.977 133.93 145.009 134.012 145.021 134.097V134.196Z" fill="#9BE7C4"/>
<path d="M144.219 133.613V133.514C144.219 133.139 144.526 133.01 144.902 133.228L145.427 133.534C145.617 133.648 145.778 133.805 145.897 133.992C146.015 134.178 146.089 134.39 146.111 134.611V134.709C146.111 135.085 145.804 135.213 145.427 134.996L144.902 134.69C144.711 134.577 144.55 134.42 144.431 134.233C144.312 134.046 144.24 133.833 144.219 133.613Z" fill="#9BE7C4"/>
<path d="M189.612 159.069L190.137 159.059L190.117 157.044L189.583 157.054L189.612 159.069Z" fill="#9BE7C4"/>
<path d="M193.307 158.15L193.832 158.14L193.812 156.125L193.277 156.135L193.307 158.15Z" fill="#9BE7C4"/>
<path d="M185.745 156.644L186.27 156.65L186.25 158.595L185.725 158.59L185.745 156.644Z" fill="#9BE7C4"/>
<path d="M181.452 154.171L181.977 154.177L181.957 156.132L181.432 156.127L181.452 154.171Z" fill="#9BE7C4"/>
<path d="M215.246 139.125L163.078 109.253C161.82 108.62 160.431 108.291 159.022 108.291C157.613 108.291 156.223 108.62 154.965 109.253L133.304 121.769C133.041 121.863 132.813 122.036 132.652 122.264C132.49 122.492 132.404 122.764 132.404 123.043C132.404 123.322 132.49 123.594 132.652 123.823C132.813 124.051 133.041 124.223 133.304 124.317L185.432 154.209C186.69 154.842 188.08 155.171 189.489 155.171C190.898 155.171 192.287 154.842 193.545 154.209L215.246 141.663C215.51 141.572 215.74 141.401 215.902 141.173C216.064 140.946 216.152 140.673 216.152 140.394C216.152 140.115 216.064 139.843 215.902 139.615C215.74 139.388 215.51 139.216 215.246 139.125Z" fill="#ECFFFE"/>
<path d="M189.493 155.532C190.974 155.568 192.44 155.228 193.753 154.544L215.404 142.019C215.728 141.895 216.006 141.676 216.202 141.392C216.398 141.107 216.503 140.769 216.503 140.424C216.503 140.078 216.398 139.741 216.202 139.456C216.006 139.171 215.728 138.952 215.404 138.828L163.276 108.927C161.958 108.262 160.503 107.916 159.027 107.916C157.55 107.916 156.095 108.262 154.777 108.927L133.126 121.443C132.799 121.565 132.517 121.784 132.319 122.07C132.12 122.356 132.013 122.695 132.013 123.043C132.013 123.391 132.12 123.731 132.319 124.017C132.517 124.303 132.799 124.521 133.126 124.643L185.254 154.535C186.559 155.222 188.018 155.566 189.493 155.532ZM159.046 108.661C160.386 108.63 161.712 108.94 162.899 109.56L215.028 139.451C215.23 139.513 215.406 139.639 215.532 139.808C215.657 139.978 215.725 140.183 215.725 140.394C215.725 140.605 215.657 140.81 215.532 140.98C215.406 141.15 215.23 141.275 215.028 141.337L193.376 153.853C192.175 154.45 190.85 154.76 189.508 154.76C188.166 154.76 186.842 154.45 185.641 153.853L133.512 123.962C133.313 123.877 133.141 123.741 133.014 123.567C132.887 123.393 132.809 123.188 132.789 122.974C132.812 122.761 132.891 122.557 133.018 122.384C133.145 122.21 133.315 122.073 133.512 121.986L155.164 109.471C156.366 108.882 157.698 108.603 159.036 108.661H159.046Z" fill="#171753"/>
<path d="M215.186 139.876L163.058 109.984C161.8 109.351 160.411 109.022 159.002 109.022C157.593 109.022 156.204 109.351 154.946 109.984L133.294 122.5C132.929 122.688 132.639 122.994 132.472 123.369C132.234 122.786 132.472 122.144 133.294 121.69L154.946 109.174C156.204 108.541 157.593 108.212 159.002 108.212C160.411 108.212 161.8 108.541 163.058 109.174L215.186 139.066C215.979 139.52 216.246 140.162 216.018 140.745C215.845 140.371 215.552 140.065 215.186 139.876Z" fill="#171753"/>
<path d="M200.983 153.547C201.059 153.546 201.134 153.525 201.201 153.488C201.304 153.421 201.391 153.33 201.453 153.224C201.515 153.118 201.55 152.998 201.557 152.875C201.56 152.808 201.545 152.742 201.514 152.683C201.483 152.624 201.436 152.574 201.379 152.539C201.324 152.506 201.26 152.489 201.196 152.489C201.131 152.489 201.068 152.506 201.012 152.539C200.906 152.604 200.818 152.693 200.756 152.8C200.694 152.907 200.659 153.028 200.656 153.152C200.652 153.216 200.665 153.281 200.695 153.338C200.724 153.395 200.769 153.444 200.824 153.478C200.87 153.514 200.925 153.538 200.983 153.547Z" fill="#9BE7C4"/>
<path d="M199.784 154.238C199.861 154.236 199.936 154.216 200.003 154.179C200.105 154.112 200.19 154.021 200.25 153.915C200.31 153.808 200.344 153.689 200.349 153.567C200.355 153.501 200.343 153.434 200.313 153.376C200.282 153.317 200.236 153.268 200.178 153.234C200.121 153.201 200.055 153.185 199.989 153.188C199.923 153.191 199.858 153.212 199.804 153.251C199.701 153.317 199.616 153.408 199.556 153.514C199.495 153.621 199.462 153.741 199.458 153.863C199.453 153.927 199.467 153.992 199.496 154.049C199.526 154.107 199.571 154.155 199.626 154.189C199.673 154.22 199.728 154.237 199.784 154.238Z" fill="#9BE7C4"/>
<path d="M198.586 154.93C198.659 154.929 198.731 154.908 198.794 154.87C198.898 154.805 198.986 154.715 199.048 154.608C199.11 154.501 199.145 154.381 199.15 154.258C199.155 154.192 199.142 154.126 199.113 154.067C199.083 154.008 199.038 153.958 198.982 153.922C198.924 153.891 198.859 153.875 198.794 153.875C198.728 153.875 198.663 153.891 198.606 153.922C198.501 153.988 198.415 154.079 198.353 154.185C198.291 154.292 198.255 154.412 198.249 154.535C198.248 154.6 198.263 154.665 198.292 154.723C198.321 154.782 198.364 154.832 198.417 154.87C198.469 154.901 198.526 154.921 198.586 154.93Z" fill="#9BE7C4"/>
<path d="M197.418 155.621C197.491 155.619 197.562 155.599 197.625 155.562C197.729 155.495 197.815 155.405 197.877 155.298C197.939 155.192 197.975 155.073 197.982 154.95C197.985 154.883 197.97 154.817 197.939 154.758C197.907 154.698 197.861 154.649 197.804 154.614C197.748 154.581 197.685 154.563 197.621 154.563C197.556 154.563 197.493 154.581 197.437 154.614C197.331 154.678 197.243 154.768 197.181 154.875C197.119 154.982 197.084 155.103 197.081 155.226C197.077 155.292 197.09 155.358 197.12 155.417C197.149 155.476 197.194 155.526 197.249 155.562C197.299 155.597 197.357 155.618 197.418 155.621Z" fill="#9BE7C4"/>
<path d="M196.179 156.313C196.255 156.31 196.33 156.29 196.397 156.253C196.499 156.186 196.584 156.095 196.644 155.989C196.705 155.882 196.739 155.763 196.744 155.641C196.747 155.575 196.734 155.509 196.704 155.45C196.675 155.391 196.63 155.341 196.575 155.305C196.517 155.274 196.453 155.258 196.387 155.258C196.321 155.258 196.257 155.274 196.199 155.305C196.096 155.372 196.011 155.463 195.951 155.57C195.891 155.676 195.857 155.795 195.852 155.917C195.848 155.983 195.862 156.049 195.891 156.108C195.921 156.167 195.965 156.217 196.021 156.253C196.066 156.289 196.121 156.309 196.179 156.313Z" fill="#9BE7C4"/>
<path d="M213.68 146.247C213.754 146.246 213.825 146.225 213.888 146.188C213.993 146.122 214.079 146.031 214.142 145.925C214.204 145.818 214.239 145.698 214.245 145.575C214.251 145.509 214.237 145.443 214.205 145.385C214.173 145.328 214.125 145.28 214.067 145.249C214.012 145.215 213.948 145.197 213.884 145.197C213.819 145.197 213.755 145.215 213.7 145.249C213.594 145.316 213.506 145.407 213.444 145.516C213.382 145.625 213.347 145.747 213.344 145.872C213.34 145.936 213.353 146 213.382 146.058C213.412 146.115 213.457 146.164 213.512 146.198C213.563 146.229 213.621 146.246 213.68 146.247Z" fill="#9BE7C4"/>
<path d="M212.472 146.938C212.548 146.937 212.623 146.917 212.69 146.879C212.794 146.814 212.88 146.723 212.941 146.617C213.001 146.51 213.034 146.389 213.037 146.267C213.042 146.202 213.028 146.138 212.998 146.081C212.969 146.024 212.923 145.976 212.868 145.943C212.812 145.91 212.748 145.893 212.684 145.895C212.619 145.896 212.556 145.915 212.502 145.951C212.396 146.017 212.308 146.109 212.245 146.217C212.183 146.326 212.149 146.448 212.145 146.573C212.141 146.637 212.154 146.702 212.184 146.759C212.214 146.817 212.259 146.865 212.314 146.899C212.362 146.927 212.416 146.941 212.472 146.938Z" fill="#9BE7C4"/>
<path d="M211.284 147.64C211.358 147.635 211.429 147.611 211.492 147.571C211.598 147.507 211.687 147.418 211.749 147.31C211.812 147.203 211.846 147.082 211.848 146.958C211.853 146.894 211.839 146.829 211.809 146.772C211.78 146.715 211.735 146.666 211.68 146.632C211.624 146.596 211.558 146.577 211.492 146.577C211.425 146.577 211.36 146.596 211.304 146.632C211.198 146.697 211.11 146.787 211.048 146.894C210.986 147.001 210.951 147.121 210.947 147.245C210.944 147.31 210.959 147.375 210.99 147.433C211.022 147.49 211.068 147.538 211.125 147.571C211.17 147.609 211.225 147.633 211.284 147.64Z" fill="#9BE7C4"/>
<path d="M210.076 148.331C210.151 148.33 210.223 148.306 210.284 148.262C210.389 148.197 210.477 148.107 210.539 148C210.601 147.894 210.636 147.773 210.64 147.65C210.643 147.585 210.628 147.522 210.599 147.465C210.569 147.408 210.526 147.359 210.472 147.324C210.416 147.287 210.351 147.268 210.284 147.268C210.217 147.268 210.152 147.287 210.096 147.324C209.99 147.388 209.901 147.478 209.839 147.585C209.777 147.692 209.742 147.812 209.739 147.936C209.735 148.001 209.748 148.065 209.778 148.122C209.808 148.18 209.852 148.228 209.907 148.262C209.956 148.3 210.014 148.324 210.076 148.331Z" fill="#9BE7C4"/>
<path d="M208.867 149.023C208.943 149.02 209.018 149 209.085 148.963C209.188 148.895 209.273 148.802 209.333 148.694C209.394 148.586 209.427 148.465 209.431 148.341C209.436 148.277 209.422 148.212 209.393 148.155C209.363 148.097 209.318 148.049 209.263 148.015C209.206 147.981 209.141 147.963 209.075 147.963C209.009 147.963 208.944 147.981 208.887 148.015C208.783 148.081 208.696 148.171 208.636 148.278C208.575 148.385 208.542 148.505 208.54 148.628C208.536 148.692 208.549 148.756 208.579 148.814C208.609 148.871 208.653 148.92 208.708 148.954C208.753 148.992 208.808 149.016 208.867 149.023Z" fill="#9BE7C4"/>
<path d="M203.489 152.273C203.63 152.27 203.767 152.229 203.886 152.154L206.421 150.702C206.595 150.599 206.741 150.455 206.846 150.283C206.952 150.111 207.013 149.916 207.025 149.714C207.036 149.596 207.014 149.477 206.962 149.371C206.91 149.265 206.829 149.175 206.728 149.112C206.623 149.049 206.504 149.016 206.382 149.016C206.259 149.016 206.14 149.049 206.035 149.112L203.499 150.574C203.323 150.675 203.176 150.818 203.07 150.99C202.965 151.163 202.905 151.359 202.895 151.561C202.882 151.68 202.902 151.799 202.955 151.906C203.008 152.013 203.09 152.102 203.192 152.164C203.28 152.226 203.382 152.263 203.489 152.273ZM206.461 149.566C206.47 149.595 206.47 149.626 206.461 149.655C206.456 149.771 206.422 149.883 206.363 149.983C206.305 150.083 206.223 150.167 206.124 150.228L203.588 151.69C203.529 151.69 203.47 151.759 203.42 151.69C203.371 151.621 203.42 151.621 203.42 151.601C203.424 151.485 203.456 151.372 203.515 151.272C203.574 151.171 203.657 151.088 203.757 151.028L206.292 149.566C206.338 149.556 206.386 149.556 206.431 149.566H206.461Z" fill="#9BE7C4"/>
<path d="M160.572 108.582H161.097V109.481H160.572V108.582Z" fill="#9BE7C4"/>
<path d="M134.106 121.394H134.631V122.292H134.106V121.394Z" fill="#9BE7C4"/>
<path d="M213.681 138.443H214.206V139.342H213.681V138.443Z" fill="#9BE7C4"/>
<path d="M156.976 108.582H157.501V109.481H156.976V108.582Z" fill="#9BE7C4"/>
<rect width="27.7082" height="3.01772" rx="1.50886" transform="matrix(0.866044 -0.499967 0.866044 0.499967 139.57 125.28)" fill="#49CE8B"/>
<rect width="6.58412" height="3.01772" rx="1.50886" transform="matrix(0.866044 -0.499967 0.866044 0.499967 163.329 119.519)" fill="#49CE8B"/>
<path d="M145.378 128.483C144.938 128.229 144.938 127.817 145.378 127.563L150.653 124.518C151.093 124.264 151.806 124.264 152.246 124.518L157.521 127.563C157.961 127.817 157.961 128.229 157.521 128.483L152.246 131.528C151.806 131.782 151.093 131.782 150.653 131.528L145.378 128.483Z" fill="#9BE7C4" stroke="#171753" stroke-width="0.848361"/>
<path d="M156.544 134.381C156.104 134.127 156.104 133.715 156.544 133.461L177.737 121.226C178.177 120.972 178.891 120.972 179.331 121.226L191.733 128.386C192.173 128.64 192.173 129.052 191.733 129.306L170.54 141.541C170.1 141.795 169.386 141.795 168.947 141.541L156.544 134.381Z" fill="#49CE8B" stroke="#171753" stroke-width="0.848361"/>
<path d="M173.65 144.256C173.21 144.002 173.21 143.59 173.65 143.336L194.844 131.101C195.284 130.847 195.997 130.847 196.437 131.101L208.84 138.261C209.279 138.515 209.279 138.927 208.84 139.181L187.646 151.416C187.206 151.67 186.493 151.67 186.053 151.416L173.65 144.256Z" fill="#49CE8B" stroke="#171753" stroke-width="0.848361"/>
<path d="M153.227 132.131C153.191 132.09 153.267 132.046 153.338 132.067L153.712 132.177C153.743 132.186 153.782 132.183 153.807 132.168L154.104 131.997C154.16 131.964 154.256 131.992 154.243 132.038L154.178 132.277C154.172 132.297 154.19 132.317 154.221 132.327L154.595 132.437C154.666 132.458 154.649 132.519 154.571 132.526L154.156 132.564C154.121 132.567 154.094 132.583 154.088 132.603L154.022 132.842C154.01 132.888 153.904 132.897 153.868 132.856L153.677 132.641C153.661 132.622 153.626 132.612 153.591 132.615L153.177 132.653C153.098 132.661 153.05 132.605 153.106 132.573L153.403 132.402C153.428 132.387 153.434 132.365 153.418 132.346L153.227 132.131Z" fill="#49CE8B"/>
<path d="M155.366 130.896C155.329 130.855 155.405 130.812 155.476 130.832L155.85 130.942C155.882 130.952 155.92 130.948 155.945 130.934L156.242 130.762C156.298 130.73 156.394 130.758 156.381 130.804L156.316 131.043C156.31 131.063 156.328 131.083 156.36 131.092L156.733 131.202C156.804 131.223 156.788 131.284 156.709 131.291L156.295 131.329C156.26 131.333 156.232 131.349 156.226 131.369L156.161 131.608C156.148 131.653 156.042 131.663 156.006 131.622L155.816 131.406C155.8 131.388 155.765 131.378 155.73 131.381L155.315 131.419C155.237 131.426 155.188 131.371 155.244 131.338L155.541 131.167C155.566 131.153 155.572 131.13 155.556 131.112L155.366 130.896Z" fill="#49CE8B"/>
<path d="M157.357 129.853C157.309 129.81 157.396 129.76 157.471 129.787L157.695 129.871C157.727 129.883 157.77 129.88 157.798 129.864L157.963 129.768C158.014 129.739 158.101 129.759 158.104 129.8L158.119 130.004C158.12 130.02 158.134 130.034 158.157 130.042L158.465 130.157C158.535 130.183 158.5 130.246 158.417 130.244L158.226 130.24C158.178 130.238 158.138 130.261 158.14 130.289L158.148 130.399C158.152 130.447 158.042 130.468 157.997 130.427L157.799 130.249C157.784 130.236 157.76 130.228 157.733 130.227L157.379 130.218C157.307 130.217 157.274 130.167 157.324 130.137L157.49 130.042C157.518 130.026 157.522 130.001 157.501 129.982L157.357 129.853Z" fill="#49CE8B"/>
<path d="M159.167 128.702C159.131 128.661 159.206 128.617 159.277 128.638L159.651 128.748C159.683 128.757 159.721 128.754 159.747 128.739L160.043 128.568C160.099 128.535 160.195 128.563 160.182 128.609L160.117 128.848C160.111 128.868 160.129 128.888 160.161 128.898L160.534 129.008C160.605 129.028 160.589 129.09 160.51 129.097L160.096 129.135C160.061 129.138 160.033 129.154 160.027 129.174L159.962 129.413C159.949 129.459 159.843 129.468 159.807 129.427L159.617 129.212C159.601 129.193 159.566 129.183 159.531 129.186L159.117 129.224C159.038 129.231 158.989 129.176 159.045 129.144L159.342 128.973C159.367 128.958 159.373 128.936 159.357 128.917L159.167 128.702Z" fill="#49CE8B"/>
<path d="M161.305 127.467C161.269 127.426 161.345 127.383 161.416 127.403L161.789 127.513C161.821 127.523 161.86 127.519 161.885 127.505L162.181 127.333C162.238 127.301 162.333 127.329 162.321 127.374L162.255 127.613C162.25 127.634 162.267 127.654 162.299 127.663L162.673 127.773C162.744 127.794 162.727 127.855 162.648 127.862L162.234 127.9C162.199 127.903 162.171 127.919 162.166 127.94L162.1 128.179C162.088 128.224 161.982 128.234 161.945 128.193L161.755 127.977C161.739 127.959 161.704 127.949 161.669 127.952L161.255 127.99C161.176 127.997 161.127 127.942 161.184 127.909L161.48 127.738C161.505 127.724 161.512 127.701 161.495 127.683L161.305 127.467Z" fill="#49CE8B"/>
<rect width="20.8497" height="0.823015" transform="matrix(0.866044 -0.499967 0.866044 0.499967 170.456 142.836)" fill="#171753"/>
<rect width="20.8497" height="0.823015" transform="matrix(0.866044 -0.499967 0.866044 0.499967 187.8 152.849)" fill="#171753"/>
<circle cx="2.05754" cy="2.05754" r="2.05754" transform="matrix(0.866044 -0.499967 0.866044 0.499967 190.651 155.043)" fill="#49CE8B"/>
<circle cx="2.05754" cy="2.05754" r="2.05754" transform="matrix(0.866044 -0.499967 0.866044 0.499967 195.878 152.026)" fill="#49CE8B"/>
<circle cx="2.05754" cy="2.05754" r="2.05754" transform="matrix(0.866044 -0.499967 0.866044 0.499967 201.105 149.008)" fill="#49CE8B"/>
<circle cx="2.05754" cy="2.05754" r="2.05754" transform="matrix(0.866044 -0.499967 0.866044 0.499967 206.332 145.991)" fill="#49CE8B"/>
<circle cx="2.05754" cy="2.05754" r="2.05754" transform="matrix(0.866044 -0.499967 0.866044 0.499967 211.559 142.973)" fill="#49CE8B"/>
<path d="M280.435 105.398L212.953 66.5615C212.561 66.3175 212.219 65.7321 212.219 65.1954V15.9177C212.219 15.381 212.561 15.1371 212.953 15.381L280.435 54.2177C280.826 54.4616 281.169 55.0471 281.169 55.5838V104.861C281.169 105.398 280.826 105.642 280.435 105.398Z" fill="#ECFFFE"/>
<path d="M280.729 105.74C280.582 105.74 280.435 105.691 280.288 105.593L212.806 66.8055C212.317 66.5128 211.926 65.8297 211.926 65.1955V15.9178C211.926 15.5275 212.072 15.2347 212.317 15.0884C212.513 14.942 212.806 14.9908 213.051 15.1372L280.533 53.9738C281.022 54.2666 281.414 54.9496 281.414 55.5839V104.862C281.414 105.252 281.267 105.545 281.022 105.691C280.925 105.74 280.827 105.74 280.729 105.74ZM280.582 105.154C280.631 105.154 280.729 105.203 280.778 105.203C280.827 105.154 280.876 105.057 280.876 104.862V55.5839C280.876 55.1448 280.582 54.6081 280.288 54.4617L212.806 15.5763C212.758 15.5763 212.66 15.5275 212.611 15.5275C212.562 15.5763 212.513 15.6739 212.513 15.869V65.1467C212.513 65.5858 212.806 66.1225 213.1 66.2688L280.582 105.154Z" fill="#171753"/>
<path d="M256.563 49.2509L249.098 44.9446L249.098 53.5571L256.563 57.8634L256.563 49.2509Z" fill="#9BE7C4" stroke="#171753" stroke-width="0.593853" stroke-miterlimit="10" stroke-linejoin="round"/>
<path d="M266.611 55.0614L259.145 50.7551L259.145 59.3676L266.611 63.6739L266.611 55.0614Z" fill="#9BE7C4" stroke="#171753" stroke-width="0.593853" stroke-miterlimit="10" stroke-linejoin="round"/>
<path d="M276.659 61.1082L269.193 56.802L269.193 65.4145L276.659 69.7207L276.659 61.1082Z" fill="#9BE7C4" stroke="#171753" stroke-width="0.593853" stroke-miterlimit="10" stroke-linejoin="round"/>
<path d="M256.563 61.653L249.098 57.3467L249.098 65.9592L256.563 70.2655L256.563 61.653Z" fill="#9BE7C4" stroke="#171753" stroke-width="0.593853" stroke-miterlimit="10" stroke-linejoin="round"/>
<path d="M266.611 67.4635L259.145 63.1572L259.145 71.7697L266.611 76.076L266.611 67.4635Z" fill="#9BE7C4" stroke="#171753" stroke-width="0.593853" stroke-miterlimit="10" stroke-linejoin="round"/>
<path d="M276.659 73.5103L269.193 69.2041L269.193 77.8166L276.659 82.1228L276.659 73.5103Z" fill="#9BE7C4" stroke="#171753" stroke-width="0.593853" stroke-miterlimit="10" stroke-linejoin="round"/>
<rect width="11.7904" height="0.527928" transform="matrix(-0.866026 -0.5 -8.74228e-08 -1 229.509 55.1251)" fill="#171753"/>
<rect width="9.5027" height="0.527928" transform="matrix(-0.866026 -0.5 -8.74228e-08 -1 229.509 53.8933)" fill="#171753"/>
<rect width="13.1982" height="0.527928" transform="matrix(-0.866026 -0.5 -8.74228e-08 -1 229.509 52.6614)" fill="#171753"/>
<rect width="9.5027" height="0.527928" transform="matrix(-0.866026 -0.5 -8.74228e-08 -1 229.509 47.5582)" fill="#171753"/>
<rect width="2.99159" height="0.527928" transform="matrix(-0.866026 -0.5 -8.74228e-08 -1 229.509 48.966)" fill="#171753"/>
<rect width="2.99159" height="0.527928" transform="matrix(-0.866026 -0.5 -8.74228e-08 -1 229.509 44.3905)" fill="#171753"/>
<rect width="2.99159" height="0.527928" transform="matrix(-0.866026 -0.5 -8.74228e-08 -1 229.509 39.8152)" fill="#171753"/>
<rect width="13.1982" height="1.75976" rx="0.879879" transform="matrix(-0.866026 -0.5 -8.74228e-08 -1 229.509 42.4864)" stroke="#171753" stroke-width="0.424181"/>
<rect width="13.1982" height="1.75976" rx="0.879879" transform="matrix(-0.866026 -0.5 -8.74228e-08 -1 229.509 37.7349)" stroke="#171753" stroke-width="0.424181"/>
<path d="M229.509 33.3671C229.509 33.5615 229.373 33.6403 229.204 33.5431L223.718 30.3755C223.55 30.2783 223.413 30.042 223.413 29.8476L223.413 28.7917C223.413 28.5974 223.55 28.5186 223.718 28.6158L229.204 31.7833C229.373 31.8805 229.509 32.1169 229.509 32.3112L229.509 33.3671Z" fill="#49CE8B"/>
<rect x="-0.257146" y="-0.44539" width="13.1323" height="21.7494" rx="0.582953" transform="matrix(-0.866026 -0.5 -8.74228e-08 -1 244.3 62.5893)" fill="#49CE8B" stroke="#171753" stroke-width="0.593853"/>
<rect width="6.68708" height="0.527928" transform="matrix(-0.866026 -0.5 -8.74228e-08 -1 229.509 51.4296)" fill="#171753"/>
<circle cx="0.615916" cy="0.615916" r="0.615916" transform="matrix(-0.866026 -0.5 -8.74228e-08 -1 229.509 47.9101)" fill="#171753"/>
<circle cx="0.615916" cy="0.615916" r="0.615916" transform="matrix(-0.866026 -0.5 -8.74228e-08 -1 221.889 43.5106)" fill="#171753"/>
<path d="M271.186 119.913L203.704 81.0765C203.313 80.8325 202.97 80.247 202.97 79.7103V30.4327C202.97 29.896 203.313 29.652 203.704 29.896L271.186 68.7326C271.577 68.9766 271.92 69.5621 271.92 70.0988V119.376C271.92 119.913 271.577 120.157 271.186 119.913Z" fill="#9BE7C4"/>
<path d="M271.48 120.303C271.333 120.303 271.186 120.255 271.039 120.157L203.558 81.3203C203.068 81.0275 202.677 80.3445 202.677 79.7102V30.4326C202.677 30.0422 202.823 29.7495 203.068 29.6031C203.264 29.4568 203.558 29.5056 203.802 29.6519L271.284 68.4886C271.773 68.7813 272.165 69.4644 272.165 70.0986V119.376C272.165 119.767 272.018 120.059 271.773 120.206C271.725 120.255 271.578 120.303 271.48 120.303ZM271.333 119.669C271.382 119.669 271.48 119.718 271.529 119.718C271.578 119.669 271.627 119.571 271.627 119.376V70.0986C271.627 69.6595 271.333 69.1228 271.039 68.9765L203.558 30.091C203.509 30.091 203.411 30.0422 203.362 30.0422C203.313 30.091 203.264 30.1886 203.264 30.3838V79.6614C203.264 80.1005 203.558 80.6372 203.851 80.7836L271.333 119.669Z" fill="#171753"/>
<path d="M228.843 72.6543L236.309 76.9605V68.348L228.843 64.0418V72.6543Z" fill="#9BE7C4" stroke="#171753" stroke-width="0.593853" stroke-miterlimit="10" stroke-linejoin="round"/>
<path d="M218.796 66.8438L226.261 71.15V62.5375L218.796 58.2313V66.8438Z" fill="#9BE7C4" stroke="#171753" stroke-width="0.593853" stroke-miterlimit="10" stroke-linejoin="round"/>
<path d="M208.748 60.7969L216.213 65.1032V56.4907L208.748 52.1844V60.7969Z" fill="#9BE7C4" stroke="#171753" stroke-width="0.593853" stroke-miterlimit="10" stroke-linejoin="round"/>
<path d="M228.843 60.2522L236.309 64.5584V55.9459L228.843 51.6397V60.2522Z" fill="#9BE7C4" stroke="#171753" stroke-width="0.593853" stroke-miterlimit="10" stroke-linejoin="round"/>
<path d="M218.796 54.4416L226.261 58.7479V50.1354L218.796 45.8291V54.4416Z" fill="#9BE7C4" stroke="#171753" stroke-width="0.593853" stroke-miterlimit="10" stroke-linejoin="round"/>
<path d="M208.748 48.3948L216.213 52.7011V44.0886L208.748 39.7823V48.3948Z" fill="#9BE7C4" stroke="#171753" stroke-width="0.593853" stroke-miterlimit="10" stroke-linejoin="round"/>
<rect width="11.7904" height="0.527928" transform="matrix(0.866025 0.5 0 1 255.897 66.7803)" fill="#171753"/>
<rect width="9.5027" height="0.527928" transform="matrix(0.866025 0.5 0 1 255.897 68.012)" fill="#171753"/>
<rect width="13.1982" height="0.527928" transform="matrix(0.866025 0.5 0 1 255.897 69.244)" fill="#171753"/>
<rect width="9.5027" height="0.527928" transform="matrix(0.866025 0.5 0 1 255.897 74.3472)" fill="#171753"/>
<rect width="2.99159" height="0.527928" transform="matrix(0.866025 0.5 0 1 255.897 72.9394)" fill="#171753"/>
<rect width="2.99159" height="0.527928" transform="matrix(0.866025 0.5 0 1 255.897 77.5149)" fill="#171753"/>
<rect width="2.99159" height="0.527928" transform="matrix(0.866025 0.5 0 1 255.897 82.0901)" fill="#171753"/>
<rect width="13.1982" height="1.75976" rx="0.879879" transform="matrix(0.866025 0.5 0 1 255.897 79.4189)" stroke="#171753" stroke-width="0.424181"/>
<rect width="13.1982" height="1.75976" rx="0.879879" transform="matrix(0.866025 0.5 0 1 255.897 84.1705)" stroke="#171753" stroke-width="0.424181"/>
<path d="M255.897 88.5382C255.897 88.3439 256.034 88.2651 256.202 88.3623L261.688 91.5298C261.857 91.627 261.993 91.8634 261.993 92.0578V93.1136C261.993 93.308 261.857 93.3868 261.688 93.2896L256.202 90.122C256.034 90.0248 255.897 89.7885 255.897 89.5941V88.5382Z" fill="#49CE8B"/>
<rect x="0.257146" y="0.44539" width="13.1323" height="21.7494" rx="0.582953" transform="matrix(0.866025 0.5 0 1 240.661 58.1681)" fill="#49CE8B" stroke="#171753" stroke-width="0.593853"/>
<rect width="6.68708" height="0.527928" transform="matrix(0.866025 0.5 0 1 255.897 70.4757)" fill="#171753"/>
<circle cx="0.615916" cy="0.615916" r="0.615916" transform="matrix(0.866025 0.5 0 1 255.897 73.9953)" fill="#171753"/>
<circle cx="0.615916" cy="0.615916" r="0.615916" transform="matrix(0.866025 0.5 0 1 263.518 78.3947)" fill="#171753"/>
<path d="M259.687 81.9414L191.765 42.812C191.177 42.4705 190.59 42.4217 190.199 42.6168C187.703 43.739 185.99 45.0563 185.99 45.0563L189.269 48.2277V96.9198C189.269 98.7738 190.394 100.969 191.814 101.799L257.778 139.757L255.479 140.879L257.142 143.465C257.142 143.465 259.198 142.929 261.498 140.928C261.987 140.587 262.281 139.904 262.281 138.928V86.7716C262.232 84.9176 261.106 82.722 259.687 81.9414Z" fill="#171753"/>
<path d="M256.995 143.807L255.038 140.782L257.142 139.757L191.618 102.043C190.149 101.213 188.926 98.9202 188.926 96.9198V48.4228L185.501 45.1051L185.745 44.9099C185.794 44.8611 187.507 43.5438 190.003 42.4217C190.59 42.1289 191.226 42.2265 191.862 42.568L259.785 81.6486C261.253 82.5268 262.476 84.7712 262.476 86.7716V138.928C262.476 139.952 262.133 140.733 261.595 141.123C259.295 143.124 257.24 143.709 257.142 143.709L256.995 143.807ZM255.87 140.977L257.24 143.124C257.778 142.929 259.442 142.294 261.302 140.684C261.742 140.392 261.987 139.708 261.987 138.928V86.7716C261.987 85.0151 260.91 82.9172 259.589 82.1365L191.618 43.0559C191.128 42.7632 190.639 42.7144 190.296 42.9096H190.247C188.388 43.739 186.92 44.7148 186.381 45.1539L189.513 48.1788V96.9198C189.513 98.6763 190.59 100.774 191.911 101.555L258.365 139.806L255.87 140.977Z" fill="#171753"/>
<path d="M188.437 46.276L189.269 70.9636L232.625 95.944L258.121 81.0143L193.086 43.5925L188.437 46.276Z" fill="#171753"/>
<path d="M232.626 96.2368L188.975 71.1588L188.143 46.1297L193.086 43.2999L258.708 81.0144L232.626 96.2368ZM189.514 70.8173L232.626 95.6025L257.583 81.0144L193.086 43.9341L188.731 46.4224L189.514 70.8173Z" fill="#171753"/>
<path d="M242.071 140.587C241.924 139.952 241.484 139.416 240.946 139.074L238.303 137.562C235.612 136 233.41 132.195 233.41 129.121V111.654C233.41 111.654 233.41 111.606 233.361 111.606L230.718 110.093C230.669 110.044 230.62 110.093 230.62 110.142C230.816 110.825 230.963 111.508 230.963 112.191V124.828C230.963 125.608 230.816 126.242 230.522 126.73L230.229 124.681C230.229 124.632 230.18 124.632 230.18 124.632L224.65 125.267H224.601C223.427 123.754 222.644 121.803 222.644 120.095V107.458C222.644 106.775 222.791 106.19 222.986 105.751C222.986 105.702 222.986 105.702 222.986 105.653L220.295 104.092C220.246 104.092 220.197 104.092 220.197 104.141V121.461C220.197 124.584 217.946 125.901 215.254 124.291L212.514 122.73C212.221 122.583 212.025 122.534 211.829 122.632L211.78 122.681C211.78 122.681 209.284 123.657 206.642 125.657C206.593 125.657 206.593 125.706 206.642 125.755L208.697 127.609L234.095 141.66L236.59 144.587C236.59 144.587 236.639 144.636 236.639 144.587C237.031 144.441 240.065 143.27 241.875 141.514C242.071 141.367 242.169 141.026 242.071 140.587Z" fill="#9BE7C4"/>
<path d="M236.639 144.88C236.541 144.88 236.443 144.831 236.394 144.783L233.947 141.904L208.55 127.853L208.501 127.804L206.445 125.95C206.348 125.901 206.348 125.803 206.348 125.706C206.348 125.608 206.396 125.511 206.494 125.462C209.137 123.461 211.584 122.486 211.681 122.437H211.73C212.073 122.242 212.416 122.388 212.66 122.534L215.401 124.096C216.624 124.779 217.749 124.925 218.63 124.437C219.462 123.949 219.952 122.925 219.952 121.51V104.189C219.952 104.092 220 103.946 220.098 103.897C220.196 103.848 220.343 103.848 220.441 103.897L223.132 105.458C223.279 105.556 223.328 105.751 223.279 105.897C223.083 106.336 222.937 106.873 222.937 107.507V120.144C222.937 121.705 223.622 123.559 224.747 125.071L230.13 124.437C230.326 124.437 230.473 124.535 230.522 124.73L230.619 125.608C230.668 125.413 230.668 125.169 230.668 124.925V112.289C230.668 111.703 230.571 111.02 230.375 110.337C230.326 110.191 230.375 110.044 230.473 109.995C230.571 109.898 230.717 109.898 230.864 109.947L233.507 111.459C233.605 111.508 233.653 111.654 233.653 111.752V129.121C233.653 132.146 235.807 135.805 238.4 137.318L241.043 138.83C241.728 139.221 242.168 139.855 242.315 140.538C242.413 141.026 242.315 141.465 242.07 141.709C240.211 143.514 237.079 144.734 236.736 144.831C236.736 144.88 236.687 144.88 236.639 144.88ZM208.843 127.365L234.29 141.465L234.339 141.514L236.736 144.295C237.47 144.002 240.113 142.929 241.728 141.318C241.875 141.221 241.875 140.977 241.826 140.635C241.728 140.099 241.336 139.611 240.798 139.318L238.156 137.806C235.366 136.196 233.115 132.292 233.115 129.121V111.801L231.011 110.581C231.158 111.118 231.207 111.654 231.207 112.191V124.828C231.207 125.657 231.06 126.34 230.717 126.877L230.326 127.56L229.983 124.876L224.698 125.511C224.6 125.511 224.454 125.462 224.405 125.364C223.132 123.705 222.398 121.705 222.398 119.997V107.361C222.398 106.727 222.496 106.19 222.692 105.702L220.49 104.433V121.363C220.49 122.974 219.903 124.193 218.875 124.779C217.847 125.364 216.526 125.267 215.107 124.437L212.367 122.876C212.073 122.73 212.024 122.778 211.975 122.778L211.877 122.827C211.828 122.827 209.479 123.803 206.984 125.608L208.843 127.365Z" fill="#171753"/>
<path d="M236.638 144.929C236.54 144.929 236.442 144.88 236.393 144.831L234.778 142.929L236.54 142.685C236.883 142.538 239.868 141.27 241.678 139.806L241.923 139.611L242.119 139.855C242.315 140.099 242.315 140.196 242.363 140.392C242.363 140.44 242.363 140.489 242.412 140.587C242.51 141.075 242.412 141.514 242.168 141.758C240.308 143.563 237.176 144.783 236.834 144.88C236.736 144.929 236.687 144.929 236.638 144.929ZM235.855 143.319L236.736 144.343C237.47 144.051 240.112 142.977 241.727 141.367C241.874 141.27 241.874 141.026 241.825 140.684C241.825 140.587 241.776 140.538 241.776 140.44C239.77 141.904 236.834 143.124 236.736 143.173H236.687L235.855 143.319Z" fill="#171753"/>
<path d="M233.408 129.121V122.339C232.283 121.949 231.451 121.656 231.353 121.656C231.304 121.656 231.206 121.705 230.962 121.754V124.779C230.962 125.559 230.815 126.194 230.521 126.682L230.228 124.632C230.228 124.584 230.179 124.584 230.179 124.584L224.649 125.218H224.6C224.306 124.876 224.062 124.437 223.817 124.047C223.67 124.096 223.572 124.145 223.572 124.145L224.16 135.952L227.047 137.708L227.145 137.806L229.494 139.123L229.836 138.684C229.836 138.684 232.772 137.074 235.708 135.269C234.338 133.463 233.408 131.17 233.408 129.121Z" fill="#171753"/>
<path d="M235.904 142.197L233.066 140.538C230.374 138.977 228.221 135.22 228.221 132.146V114.631L225.383 113.021C225.627 113.752 225.774 114.484 225.774 115.216V127.853C225.774 130.487 223.915 131.561 221.615 130.243C219.315 128.926 217.455 125.706 217.455 123.071V110.435C217.455 109.752 217.602 109.166 217.847 108.678L215.008 107.068V124.584C215.008 127.657 212.855 128.926 210.164 127.365L207.326 125.706C206.787 125.364 206.298 125.657 206.298 126.291C206.298 126.926 206.738 127.706 207.326 128.048L235.953 144.539C236.491 144.88 236.98 144.587 236.98 143.953C236.931 143.319 236.491 142.538 235.904 142.197Z" fill="#49CE8B"/>
<path d="M236.393 144.929C236.198 144.929 236.002 144.88 235.806 144.734L207.179 128.292C206.543 127.901 206.005 127.023 206.005 126.291C206.005 125.852 206.151 125.559 206.445 125.413C206.739 125.267 207.081 125.267 207.424 125.462L210.262 127.121C211.485 127.804 212.611 127.95 213.394 127.462C214.226 126.974 214.666 125.95 214.666 124.584V106.58L218.141 108.581L218.043 108.825C217.798 109.264 217.7 109.8 217.7 110.435V123.071C217.7 125.608 219.511 128.731 221.713 129.999C222.74 130.585 223.67 130.682 224.355 130.292C225.04 129.902 225.432 129.024 225.432 127.853V115.216C225.432 114.582 225.334 113.85 225.089 113.118L224.845 112.435L228.417 114.484V132.195C228.417 135.171 230.521 138.83 233.115 140.343L235.953 142.002C236.589 142.392 237.128 143.27 237.128 144.002C237.128 144.441 236.981 144.734 236.687 144.88C236.638 144.929 236.54 144.929 236.393 144.929ZM206.836 125.852C206.788 125.852 206.739 125.852 206.69 125.901C206.592 125.95 206.543 126.096 206.543 126.291C206.543 126.828 206.934 127.511 207.424 127.804L236.051 144.295C236.247 144.392 236.393 144.441 236.491 144.343C236.589 144.295 236.638 144.148 236.638 143.953C236.638 143.416 236.247 142.733 235.757 142.441L232.919 140.782C230.179 139.172 227.928 135.317 227.928 132.146V114.777L225.823 113.557C225.97 114.094 226.019 114.631 226.019 115.167V127.804C226.019 129.17 225.53 130.243 224.649 130.731C223.768 131.219 222.643 131.121 221.419 130.438C219.021 129.072 217.113 125.755 217.113 123.022V110.386C217.113 109.752 217.211 109.215 217.407 108.727L215.204 107.458V124.486C215.204 126.096 214.666 127.267 213.639 127.853C212.611 128.438 211.29 128.292 209.919 127.511L207.081 125.852C207.032 125.901 206.934 125.852 206.836 125.852Z" fill="#171753"/>
<path d="M217.455 110.435V123.071C217.455 125.706 219.315 128.926 221.614 130.243C223.914 131.561 225.774 130.487 225.774 127.853V115.216C225.774 114.533 225.627 113.752 225.382 113.02L226.851 113.85V109.02H217.651C217.504 109.459 217.455 109.898 217.455 110.435Z" fill="#9BE7C4"/>
<path d="M223.474 131.122C222.838 131.122 222.153 130.926 221.468 130.536C219.07 129.17 217.162 125.852 217.162 123.12V110.483C217.162 109.947 217.26 109.459 217.406 109.02L217.455 108.825H227.144V114.435L225.823 113.704C225.97 114.24 226.019 114.777 226.019 115.314V127.95C226.019 129.316 225.53 130.39 224.649 130.878C224.306 131.024 223.915 131.122 223.474 131.122ZM217.847 109.361C217.749 109.703 217.7 110.044 217.7 110.483V123.12C217.7 125.657 219.511 128.78 221.713 130.048C222.74 130.634 223.67 130.731 224.355 130.341C225.04 129.951 225.432 129.072 225.432 127.901V115.265C225.432 114.631 225.334 113.899 225.089 113.167L224.845 112.484L226.508 113.46V109.361H217.847Z" fill="#171753"/>
<path d="M223.572 109.069H217.651C217.504 109.459 217.455 109.947 217.455 110.435V123.071C217.455 125.023 218.483 127.316 219.951 128.926C221.419 129.024 222.495 127.95 222.495 125.95V113.313C222.495 112.63 222.348 111.85 222.104 111.118L223.572 111.947V109.069Z" fill="#171753"/>
<path d="M220.146 129.219C220.048 129.219 219.999 129.219 219.901 129.219H219.803L219.705 129.121C218.14 127.413 217.112 125.072 217.112 123.12V110.483C217.112 109.947 217.21 109.459 217.357 109.02L217.406 108.825H223.816V112.533L222.495 111.801C222.642 112.337 222.691 112.874 222.691 113.411V126.047C222.691 127.218 222.348 128.097 221.761 128.682C221.369 129.024 220.782 129.219 220.146 129.219ZM220.048 128.633C220.586 128.633 221.027 128.487 221.369 128.194C221.859 127.706 222.152 126.974 222.152 125.999V113.362C222.152 112.728 222.054 111.996 221.81 111.264L221.565 110.581L223.229 111.557V109.41H217.797C217.699 109.752 217.65 110.093 217.65 110.532V123.169C217.699 124.925 218.629 127.072 220.048 128.633Z" fill="#171753"/>
<path d="M218.825 109.752V122.388C218.825 125.023 220.685 128.243 222.985 129.56C223.719 129.999 224.404 130.146 225.04 130.097C225.48 129.609 225.774 128.828 225.774 127.804V115.167C225.774 114.484 225.627 113.704 225.383 112.972L226.851 113.801V112.484C226.851 112.386 226.802 112.337 226.802 112.24L226.851 112.289V108.922H218.923C218.874 109.264 218.825 109.508 218.825 109.752Z" fill="#9BE7C4"/>
<path d="M224.893 130.438C224.257 130.438 223.572 130.243 222.887 129.853C220.489 128.487 218.581 125.169 218.581 122.437V109.8C218.581 109.556 218.581 109.312 218.63 109.069L218.679 108.825H227.193V114.435L225.872 113.704C226.019 114.24 226.068 114.777 226.068 115.314V127.95C226.068 128.975 225.774 129.804 225.285 130.39L225.187 130.487H225.089C224.991 130.438 224.942 130.438 224.893 130.438ZM219.168 109.361C219.168 109.508 219.168 109.654 219.168 109.8V122.437C219.168 124.974 220.979 128.097 223.181 129.365C223.817 129.707 224.404 129.902 224.942 129.902C225.334 129.414 225.53 128.731 225.53 127.901V115.265C225.53 114.631 225.432 113.899 225.187 113.167L224.942 112.484L226.606 113.46V112.63C226.606 112.581 226.606 112.533 226.557 112.484L226.313 111.801L226.606 111.947V109.361H219.168Z" fill="#171753"/>
<path d="M243.243 93.602L242.46 131.121L257.385 139.708L262.23 136.927V86.9666C262.23 85.7468 261.741 84.4295 261.055 83.4537L252.687 88.2839L243.243 93.602Z" fill="#171753"/>
<path d="M257.386 140.05L242.167 131.268V131.121L242.95 93.4557L252.541 87.9912L261.154 83.0635L261.3 83.2586C262.083 84.332 262.524 85.7469 262.524 86.9667V137.123L257.386 140.05ZM242.754 130.975L257.386 139.416L261.937 136.83V86.9667C261.937 85.9421 261.594 84.7711 260.958 83.7953L252.786 88.4791L243.488 93.7484L242.754 130.975Z" fill="#171753"/>
<path d="M255.576 143.27L187.653 104.19C186.234 103.36 185.109 101.213 185.109 99.3106V47.1543C185.109 45.3003 186.234 44.4221 187.653 45.2515L255.576 84.3321C256.995 85.1615 258.12 87.3083 258.12 89.2111V141.367C258.12 143.221 256.995 144.1 255.576 143.27Z" fill="#49CE8B"/>
<path d="M256.604 143.856C256.261 143.856 255.87 143.758 255.429 143.514L187.507 104.433C186.039 103.604 184.815 101.311 184.815 99.3105V47.1543C184.815 46.0809 185.207 45.2515 185.843 44.8611C186.381 44.5196 187.066 44.5684 187.8 45.0075L255.723 84.0881C257.191 84.9175 258.414 87.2106 258.414 89.211V141.367C258.414 142.441 258.023 143.27 257.387 143.66C257.142 143.807 256.848 143.856 256.604 143.856ZM255.723 143.075C256.261 143.368 256.75 143.416 257.093 143.221C257.582 142.929 257.827 142.294 257.827 141.416V89.211C257.827 87.4546 256.75 85.3566 255.429 84.576L187.507 45.4954C186.968 45.2027 186.479 45.1539 186.137 45.349C185.647 45.6418 185.403 46.276 185.403 47.1543V99.3593C185.403 101.116 186.479 103.214 187.8 103.994L255.723 143.075Z" fill="#171753"/>
<path d="M255.331 137.757L187.898 98.9203C187.507 98.6763 187.164 98.0909 187.164 97.5542V48.2765C187.164 47.7398 187.507 47.4959 187.898 47.7398L255.38 86.5765C255.772 86.8204 256.114 87.4059 256.114 87.9426V137.22C256.065 137.757 255.723 138.001 255.331 137.757Z" fill="#ECFFFE"/>
<path d="M255.625 138.098C255.478 138.098 255.332 138.05 255.185 137.952L187.752 99.1641C187.262 98.8714 186.871 98.1883 186.871 97.5541V48.2764C186.871 47.8861 187.018 47.5933 187.262 47.447C187.458 47.3006 187.752 47.3494 187.996 47.4957L255.478 86.3324C255.968 86.6252 256.359 87.3082 256.359 87.9425V137.22C256.359 137.61 256.212 137.903 255.968 138.05C255.87 138.098 255.772 138.098 255.625 138.098ZM255.478 137.513C255.527 137.513 255.625 137.562 255.674 137.562C255.723 137.513 255.772 137.415 255.772 137.22V87.9425C255.772 87.5034 255.478 86.9667 255.185 86.8203L187.752 47.9349C187.703 47.9349 187.605 47.8861 187.556 47.8861C187.507 47.9349 187.458 48.0324 187.458 48.2276V97.5053C187.458 97.9444 187.752 98.4811 188.045 98.6274L255.478 137.513Z" fill="#171753"/>
<path d="M255.967 137.367L188.534 98.5301C188.143 98.2861 187.8 97.7007 187.8 97.164V47.8863C187.8 47.8375 187.8 47.7399 187.8 47.6912C187.458 47.5448 187.164 47.7887 187.164 48.2766V97.5543C187.164 98.091 187.507 98.7253 187.898 98.9204L255.38 137.757C255.723 137.952 256.016 137.806 256.114 137.416C256.016 137.367 256.016 137.367 255.967 137.367Z" fill="#171753"/>
<path d="M255.625 138.099C255.478 138.099 255.332 138.05 255.185 137.952L187.752 99.1643C187.262 98.8715 186.871 98.1885 186.871 97.5542V48.2765C186.871 47.935 187.018 47.6423 187.213 47.4959C187.409 47.3495 187.654 47.3495 187.899 47.4471L188.094 47.5447V47.6911C188.094 47.7398 188.094 47.7886 188.094 47.8374V97.1151C188.094 97.5542 188.388 98.0909 188.682 98.2373L256.115 137.123L255.968 137.367L256.115 137.123L256.359 137.22V137.464C256.31 137.757 256.163 137.952 255.919 138.05C255.821 138.099 255.723 138.099 255.625 138.099ZM187.507 47.935C187.458 47.9838 187.458 48.0814 187.458 48.2277V97.5054C187.458 97.9445 187.752 98.4812 188.045 98.6276L255.527 137.464C255.625 137.513 255.674 137.513 255.723 137.513C255.723 137.513 255.723 137.513 255.772 137.513L188.388 98.774C187.899 98.4812 187.507 97.7982 187.507 97.1639V47.935Z" fill="#171753"/>
<path d="M224.061 122.876L219.168 120.046C218.972 119.9 218.776 119.607 218.776 119.314C218.776 119.022 218.972 118.875 219.168 119.022L224.061 121.852C224.257 121.998 224.453 122.291 224.453 122.583C224.453 122.876 224.257 123.023 224.061 122.876Z" fill="#171753"/>
<path d="M224.209 123.218C224.111 123.218 224.013 123.169 223.915 123.12L219.021 120.29C218.728 120.095 218.483 119.705 218.483 119.314C218.483 119.071 218.581 118.875 218.777 118.778C218.924 118.68 219.119 118.68 219.315 118.778L224.209 121.608C224.502 121.803 224.747 122.193 224.747 122.583C224.747 122.827 224.649 123.022 224.453 123.12C224.355 123.169 224.306 123.218 224.209 123.218ZM219.07 119.266C219.07 119.314 219.07 119.314 219.07 119.266C219.07 119.51 219.217 119.754 219.315 119.802L224.16 122.583V122.535C224.16 122.339 224.013 122.095 223.915 122.047L219.07 119.266Z" fill="#171753"/>
<path d="M219.675 126.438L218.699 126.997L218.968 127.462L219.943 126.903L219.675 126.438Z" fill="#ECFFFE"/>
<path d="M260.763 125.706L259.588 126.389C259.393 126.486 259.197 126.389 259.197 126.096V122.925C259.197 122.632 259.344 122.339 259.588 122.193L260.763 121.51C260.959 121.412 261.154 121.51 261.154 121.803V124.974C261.154 125.267 260.959 125.608 260.763 125.706Z" fill="#171753"/>
<path d="M260.763 119.51L259.588 120.193C259.393 120.29 259.197 120.193 259.197 119.9V116.729C259.197 116.436 259.344 116.143 259.588 115.997L260.763 115.314C260.959 115.216 261.154 115.314 261.154 115.606V118.778C261.154 119.022 260.959 119.363 260.763 119.51Z" fill="#171753"/>
<path d="M190.32 96.2688L187.396 97.9521L187.665 98.4168L190.589 96.7336L190.32 96.2688Z" fill="#ECFFFE"/>
<path d="M199.015 48.9327L198.745 49.3974L247.523 77.4759L247.792 77.0112L199.015 48.9327Z" fill="#171753"/>
<path d="M211.875 106.992L219.341 111.298V102.686L211.875 98.3797V106.992Z" fill="#9BE7C4" stroke="#171753" stroke-width="0.593853" stroke-miterlimit="10" stroke-linejoin="round"/>
<path d="M201.828 101.182L209.293 105.488V96.8754L201.828 92.5692V101.182Z" fill="#9BE7C4" stroke="#171753" stroke-width="0.593853" stroke-miterlimit="10" stroke-linejoin="round"/>
<path d="M191.78 95.1348L199.245 99.4411V90.8286L191.78 86.5223V95.1348Z" fill="#9BE7C4" stroke="#171753" stroke-width="0.593853" stroke-miterlimit="10" stroke-linejoin="round"/>
<path d="M211.875 94.5901L219.341 98.8963V90.2838L211.875 85.9776V94.5901Z" fill="#9BE7C4" stroke="#171753" stroke-width="0.593853" stroke-miterlimit="10" stroke-linejoin="round"/>
<path d="M201.828 88.7796L209.293 93.0858V84.4733L201.828 80.1671V88.7796Z" fill="#9BE7C4" stroke="#171753" stroke-width="0.593853" stroke-miterlimit="10" stroke-linejoin="round"/>
<path d="M191.78 82.7327L199.245 87.039V78.4265L191.78 74.1202V82.7327Z" fill="#9BE7C4" stroke="#171753" stroke-width="0.593853" stroke-miterlimit="10" stroke-linejoin="round"/>
<rect width="11.7904" height="0.527928" transform="matrix(0.866025 0.5 0 1 238.93 101.118)" fill="#171753"/>
<rect width="9.5027" height="0.527928" transform="matrix(0.866025 0.5 0 1 238.93 102.35)" fill="#171753"/>
<rect width="13.1982" height="0.527928" transform="matrix(0.866025 0.5 0 1 238.93 103.582)" fill="#171753"/>
<rect width="9.5027" height="0.527928" transform="matrix(0.866025 0.5 0 1 238.93 108.685)" fill="#171753"/>
<rect width="2.99159" height="0.527928" transform="matrix(0.866025 0.5 0 1 238.93 107.277)" fill="#171753"/>
<rect width="2.99159" height="0.527928" transform="matrix(0.866025 0.5 0 1 238.93 111.853)" fill="#171753"/>
<rect width="2.99159" height="0.527928" transform="matrix(0.866025 0.5 0 1 238.93 116.428)" fill="#171753"/>
<rect width="13.1982" height="1.75976" rx="0.879879" transform="matrix(0.866025 0.5 0 1 238.93 113.757)" stroke="#171753" stroke-width="0.424181"/>
<rect width="13.1982" height="1.75976" rx="0.879879" transform="matrix(0.866025 0.5 0 1 238.93 118.508)" stroke="#171753" stroke-width="0.424181"/>
<path d="M238.93 122.876C238.93 122.682 239.067 122.603 239.235 122.7L244.721 125.868C244.89 125.965 245.026 126.201 245.026 126.396V127.451C245.026 127.646 244.89 127.725 244.721 127.627L239.235 124.46C239.067 124.363 238.93 124.126 238.93 123.932V122.876Z" fill="#49CE8B"/>
<rect x="0.257146" y="0.44539" width="13.1323" height="21.7494" rx="0.582953" transform="matrix(0.866025 0.5 0 1 223.694 92.5058)" fill="#49CE8B" stroke="#171753" stroke-width="0.593853"/>
<rect width="6.68708" height="0.527928" transform="matrix(0.866025 0.5 0 1 238.93 104.813)" fill="#171753"/>
<circle cx="0.615916" cy="0.615916" r="0.615916" transform="matrix(0.866025 0.5 0 1 238.93 108.333)" fill="#171753"/>
<circle cx="0.615916" cy="0.615916" r="0.615916" transform="matrix(0.866025 0.5 0 1 246.551 112.732)" fill="#171753"/>
<rect width="78.3683" height="6.32442" transform="matrix(0.866025 0.501279 0 1 188.029 61.2451)" fill="#49CE8B" stroke="#171753" stroke-width="0.848361"/>
<rect width="78.3683" height="13.2353" transform="matrix(0.866025 0.501279 0 1 188.029 48.0745)" fill="#9BE7C4" stroke="#171753" stroke-width="0.848361"/>
<rect width="9.72988" height="2.43247" rx="0.351952" transform="matrix(0.866025 0.5 0 1 244.869 89.241)" fill="#171753"/>
<g clip-path="url(#clip1_1711_1647)">
<path d="M158.184 105.466V68.772C158.184 67.1358 159.184 66.378 160.427 67.0497L188.55 83.1532C189.234 83.6393 189.793 84.2773 190.183 85.0161C190.572 85.7549 190.782 86.5739 190.794 87.4074V124.092L158.184 105.466Z" fill="#ECFFFE"/>
<path d="M191.263 124.954L157.679 105.75V68.7718C157.638 68.3448 157.711 67.9145 157.891 67.5244C158.071 67.1343 158.352 66.7982 158.705 66.55C159.014 66.3907 159.361 66.317 159.708 66.3367C160.056 66.3565 160.391 66.4688 160.679 66.662L188.767 82.7312C189.53 83.2571 190.154 83.9559 190.588 84.7693C191.022 85.5827 191.254 86.4872 191.263 87.4072V124.954ZM158.679 105.147L190.272 123.231V87.4072C190.258 86.6605 190.07 85.9271 189.723 85.264C189.376 84.6008 188.879 84.0258 188.271 83.5837L160.175 67.5145C160.037 67.4169 159.876 67.3554 159.707 67.3359C159.538 67.3163 159.367 67.3392 159.21 67.4026C159.014 67.5697 158.863 67.7822 158.771 68.0212C158.678 68.2601 158.647 68.518 158.679 68.7718V105.147Z" fill="#171753"/>
<path d="M187.445 116.859L161.505 102.03C161.235 101.829 161.016 101.569 160.865 101.27C160.714 100.971 160.635 100.642 160.635 100.307V71.1487C160.635 70.4856 161.044 70.1842 161.505 70.4684L187.445 85.2975C187.716 85.4976 187.935 85.7575 188.086 86.0565C188.237 86.3556 188.315 86.6854 188.315 87.0198V116.187C188.341 116.833 187.941 117.143 187.445 116.859Z" fill="#49CE8B"/>
</g>
<g clip-path="url(#clip2_1711_1647)">
<path d="M147.835 96.9821V60.2884C147.835 58.6522 148.835 57.8944 150.079 58.5661L178.202 74.6697C178.885 75.1557 179.445 75.7937 179.834 76.5325C180.224 77.2713 180.433 78.0904 180.445 78.9238V115.609L147.835 96.9821Z" fill="#ECFFFE"/>
<path d="M180.914 116.47L147.331 97.2662V60.2883C147.289 59.8613 147.362 59.431 147.542 59.0409C147.723 58.6507 148.003 58.3146 148.357 58.0665C148.665 57.9072 149.012 57.8335 149.359 57.8532C149.707 57.8729 150.042 57.9853 150.331 58.1784L178.419 74.2476C179.181 74.7735 179.805 75.4723 180.239 76.2858C180.673 77.0992 180.905 78.0037 180.914 78.9237V116.47ZM148.331 96.6634L179.923 114.748V78.9237C179.909 78.177 179.721 77.4435 179.374 76.7804C179.027 76.1173 178.531 75.5423 177.923 75.1001L149.827 59.031C149.688 58.9333 149.527 58.8719 149.358 58.8523C149.19 58.8327 149.019 58.8557 148.861 58.919C148.665 59.0862 148.515 59.2987 148.422 59.5376C148.33 59.7765 148.298 60.0344 148.331 60.2883V96.6634Z" fill="#171753"/>
<path d="M177.097 108.375L151.157 93.5461C150.887 93.3456 150.667 93.0856 150.516 92.7866C150.366 92.4877 150.287 92.158 150.287 91.8238V62.6651C150.287 62.0021 150.696 61.7006 151.157 61.9848L177.097 76.8139C177.367 77.014 177.587 77.2739 177.737 77.5729C177.888 77.872 177.967 78.2019 177.966 78.5362V107.703C177.992 108.349 177.592 108.659 177.097 108.375Z" fill="#9BE7C4"/>
<path d="M175.106 97.3265L169.888 85.9765C169.784 85.7612 169.584 85.6234 169.462 85.6923L162.244 90.1617C161.862 90.4028 161.218 89.49 161.488 89.0938L163.905 85.5717C163.952 85.481 163.976 85.3807 163.976 85.2789C163.976 85.1772 163.952 85.0768 163.905 84.9861L160.74 77.7869C160.462 77.141 159.87 76.7621 159.531 77.0463C158.114 78.3466 154.67 81.4898 153.218 82.7988C152.982 83.046 152.801 83.339 152.686 83.6592C152.571 83.9794 152.524 84.3198 152.548 84.6589V90.5836C152.566 90.9276 152.665 91.2627 152.837 91.5619C153.009 91.8611 153.25 92.1159 153.54 92.3059L174.671 104.362C175.227 104.672 175.671 104.414 175.671 103.785V99.7635C175.654 98.9213 175.461 98.0917 175.106 97.3265Z" fill="#ECFFFE"/>
<path d="M175.14 104.999C174.895 104.998 174.654 104.929 174.445 104.801L153.313 92.7453C152.946 92.5166 152.639 92.2026 152.421 91.8306C152.203 91.4585 152.079 91.0395 152.061 90.6096V84.6849C152.038 84.2745 152.103 83.8639 152.253 83.4806C152.403 83.0974 152.634 82.7504 152.931 82.4631C154.392 81.1455 157.827 78.0109 159.244 76.7106C159.351 76.6132 159.482 76.544 159.623 76.5094C159.764 76.4748 159.912 76.4758 160.053 76.5125C160.324 76.5946 160.573 76.7365 160.781 76.9274C160.988 77.1183 161.15 77.3533 161.253 77.6148L164.418 84.8226C164.505 84.9844 164.55 85.1648 164.55 85.3479C164.55 85.5311 164.505 85.7115 164.418 85.8733L162.009 89.3954C162.054 89.5066 162.119 89.6088 162.201 89.6968L169.305 85.3049C169.386 85.2547 169.477 85.2232 169.572 85.2128C169.667 85.2024 169.763 85.2132 169.853 85.2446C169.985 85.2904 170.106 85.3631 170.208 85.458C170.31 85.553 170.39 85.668 170.445 85.7957L175.619 97.1544C176.018 97.9838 176.235 98.888 176.253 99.8067V103.828C176.268 104.039 176.224 104.249 176.128 104.437C176.031 104.625 175.885 104.783 175.706 104.896C175.532 104.985 175.335 105.021 175.14 104.999ZM159.835 77.4425C158.392 78.7601 155.009 81.8517 153.566 83.1434C153.385 83.3472 153.247 83.5847 153.161 83.8421C153.074 84.0994 153.04 84.3713 153.061 84.6418V90.5665C153.082 90.822 153.159 91.0698 153.289 91.2918C153.418 91.5138 153.596 91.7044 153.809 91.8497L174.94 103.906C175.002 103.947 175.075 103.971 175.149 103.975C175.185 103.909 175.2 103.834 175.193 103.759V99.7378C175.17 98.96 174.987 98.195 174.653 97.4902L169.505 86.2694L162.549 90.5751C162.364 90.6801 162.147 90.7143 161.939 90.6715C161.731 90.6286 161.545 90.5117 161.418 90.3427C161.207 90.1541 161.063 89.9022 161.01 89.6254C160.957 89.3487 160.996 89.0623 161.123 88.8098L163.531 85.2876C163.531 85.2876 163.531 85.2877 163.47 85.1757L160.305 77.9765C160.217 77.7533 160.05 77.5695 159.835 77.4598V77.4425Z" fill="#171753"/>
<path d="M168.567 79.6212C168.567 81.1885 167.454 81.8258 166.08 81.0421C165.358 80.5755 164.758 79.9472 164.328 79.2082C163.897 78.4691 163.648 77.64 163.601 76.788C163.601 75.2207 164.715 74.5835 166.08 75.3671C166.803 75.8323 167.406 76.46 167.838 77.1992C168.27 77.9385 168.52 78.7683 168.567 79.6212Z" fill="#ECFFFE"/>
<path d="M167.192 81.8689C166.712 81.8574 166.243 81.7175 165.836 81.4641C165.036 80.9574 164.371 80.2684 163.896 79.4548C163.421 78.6413 163.15 77.7268 163.105 76.788C163.043 76.3935 163.103 75.9897 163.276 75.6294C163.45 75.2691 163.73 74.9692 164.078 74.769C164.427 74.5688 164.829 74.4777 165.231 74.5076C165.633 74.5375 166.017 74.687 166.331 74.9366C167.13 75.4457 167.795 76.1364 168.27 76.9512C168.745 77.7661 169.016 78.6815 169.062 79.6213C169.098 80.0129 169.027 80.407 168.855 80.7618C168.684 81.1166 168.419 81.4188 168.088 81.6363C167.816 81.7926 167.507 81.8729 167.192 81.8689ZM164.975 75.5221C164.834 75.5196 164.696 75.5553 164.575 75.6255C164.401 75.7625 164.266 75.9413 164.182 76.1449C164.098 76.3485 164.069 76.5699 164.096 76.788C164.146 77.5529 164.373 78.296 164.761 78.9593C165.149 79.6226 165.686 80.1881 166.331 80.6115C166.507 80.7461 166.715 80.8328 166.934 80.863C167.154 80.8932 167.378 80.8659 167.584 80.7838C167.757 80.6468 167.892 80.468 167.976 80.2644C168.06 80.0608 168.089 79.8394 168.062 79.6213C168.014 78.857 167.788 78.1141 167.402 77.4508C167.016 76.7874 166.48 76.2216 165.836 75.7977C165.578 75.6323 165.281 75.5372 164.975 75.5221Z" fill="#171753"/>
</g>
<g clip-path="url(#clip3_1711_1647)">
<path d="M136.443 116.389V79.6952C136.443 78.0591 137.443 77.3012 138.687 77.9729L166.809 94.0765C167.493 94.5625 168.052 95.2006 168.442 95.9394C168.831 96.6782 169.041 97.4972 169.053 98.3306V135.016L136.443 116.389Z" fill="#ECFFFE"/>
<path d="M169.522 135.877L135.938 116.673V79.6952C135.897 79.2682 135.97 78.8378 136.15 78.4477C136.33 78.0576 136.611 77.7215 136.964 77.4734C137.273 77.3141 137.62 77.2404 137.967 77.2601C138.315 77.2798 138.65 77.3922 138.938 77.5853L167.026 93.6545C167.789 94.1804 168.413 94.8792 168.847 95.6926C169.281 96.5061 169.513 97.4105 169.522 98.3305V135.877ZM136.938 116.07L168.531 134.155V98.3305C168.516 97.5838 168.329 96.8504 167.982 96.1873C167.635 95.5241 167.138 94.9492 166.53 94.507L138.434 78.4379C138.296 78.3402 138.135 78.2788 137.966 78.2592C137.797 78.2396 137.626 78.2625 137.469 78.3259C137.273 78.493 137.122 78.7056 137.03 78.9445C136.937 79.1834 136.906 79.4413 136.938 79.6952V116.07Z" fill="#171753"/>
<path d="M165.705 127.782L139.765 112.953C139.495 112.752 139.276 112.492 139.125 112.193C138.974 111.895 138.895 111.565 138.895 111.231V82.072C138.895 81.4089 139.304 81.1075 139.765 81.3916L165.705 96.2207C165.976 96.4208 166.195 96.6807 166.346 96.9798C166.497 97.2788 166.575 97.6087 166.575 97.9431V127.11C166.601 127.756 166.201 128.066 165.705 127.782Z" fill="#49CE8B"/>
<path fill-rule="evenodd" clip-rule="evenodd" d="M146.119 96.3978C146.119 94.7443 147.786 94.6124 149.066 96.1668L149.067 96.1683L158.11 107.187C159.255 108.598 159.255 110.4 158.11 110.644L158.106 110.645L149.066 112.448C147.786 112.698 146.119 110.867 146.119 109.214V96.3978Z" fill="#ECFFFE" stroke="#171753" stroke-width="1.10287" stroke-miterlimit="10" stroke-linecap="round"/>
</g>
<path d="M235.469 84.7042L240.227 81.6639L235.469 81.5317L234.94 82.0605L234.543 83.6467L235.469 84.7042Z" fill="#171753"/>
<path d="M235.336 85.2329L234.014 83.6467V83.3823L234.41 81.664L234.542 81.5318L235.203 80.8708H235.336L240.359 81.1352L240.491 81.664L240.226 81.7961L235.336 85.2329ZM234.939 83.3823L235.6 84.0433L239.037 81.7961L235.732 81.664L235.336 82.0605L234.939 83.3823Z" fill="#171753"/>
<path d="M243.398 57.8708L228.593 49.2788C227.8 48.7501 227.007 48.7501 226.478 49.0145L221.588 52.0547C221.852 52.4513 223.835 56.6811 223.967 57.4743C224.099 57.7386 224.628 61.0432 225.421 64.7444V66.595C225.421 67.6524 225.817 68.8421 226.478 69.8996C227.271 73.8651 227.932 77.1697 227.932 77.1697L234.674 79.4168H235.202L234.806 78.3593C234.674 77.8306 234.674 77.3019 234.542 76.7731L240.886 83.9111C240.886 83.9111 240.886 83.9111 241.019 83.9111L245.645 81.003C245.645 81.003 245.645 81.003 245.777 81.003C246.306 80.6065 246.702 79.9455 246.702 79.0203V63.4225C246.702 61.4398 245.248 58.9283 243.398 57.8708Z" fill="#49CE8B"/>
<path d="M241.018 84.3077C240.886 84.3077 240.754 84.3077 240.622 84.1755L235.07 77.9628C235.07 78.095 235.07 78.2272 235.07 78.3594L235.467 79.4169C235.599 79.6812 235.467 79.8134 235.202 79.9456H235.07H234.409L227.536 77.5663V77.4341C227.536 77.3019 226.875 73.9973 226.082 70.164C225.421 68.9743 225.024 67.7847 225.024 66.7272V64.8766C224.099 60.3824 223.702 57.8709 223.57 57.6065C223.438 57.0778 222.248 54.5663 221.191 52.3191C221.059 52.0548 221.191 51.7904 221.323 51.7904L226.214 48.7502C227.007 48.3536 227.932 48.4858 228.857 49.0145L243.662 57.6065C245.513 58.664 247.099 61.3077 247.099 63.5548V78.8881C247.099 79.9456 246.702 80.8709 246.041 81.2675H245.909L241.283 84.1755C241.151 84.3077 241.151 84.3077 241.018 84.3077ZM234.145 75.7157L241.151 83.5146L245.513 80.7387L245.777 81.0031L245.513 80.6065C245.909 80.3422 246.174 79.6812 246.174 78.8881V63.4226C246.174 61.572 244.852 59.1927 243.133 58.1352L228.461 49.6755C227.8 49.2789 227.139 49.1467 226.61 49.4111L222.116 52.187C222.777 53.5088 224.231 56.6812 224.363 57.3421C224.495 57.6065 224.892 59.9858 225.817 64.6123V64.7444V66.595C225.817 67.5203 226.214 68.5778 226.742 69.6353V69.7674C227.403 73.072 227.932 75.9801 228.064 76.9054L234.409 79.0203L234.145 78.3594C234.013 77.8307 234.013 77.1697 233.88 76.641L234.145 75.7157Z" fill="#171753"/>
<path d="M243.398 57.8709L229.386 49.8076L222.38 54.1697L237.449 62.1008L240.622 62.6295L245.38 59.7215C244.852 58.9283 244.191 58.2674 243.398 57.8709Z" fill="#ECFFFE"/>
<path d="M240.622 63.026L237.185 62.4973L221.588 54.1697L229.386 49.2789L243.662 57.4743C244.455 57.8708 245.116 58.5318 245.777 59.457L246.042 59.8536L240.622 63.026ZM237.582 61.7042L240.49 62.1007L244.72 59.5892C244.191 58.9283 243.794 58.5318 243.134 58.2674L229.254 50.3363L223.042 54.1697L237.582 61.7042Z" fill="#171753"/>
<path d="M246.472 63.5113L241.717 66.3766L242.126 67.0559L246.881 64.1906L246.472 63.5113Z" fill="#171753"/>
<path d="M246.383 74.7321L241.628 77.5973L242.038 78.2766L246.793 75.4113L246.383 74.7321Z" fill="#171753"/>
<path d="M223.834 52.3191L238.639 60.9111C240.357 61.9686 241.812 64.3479 241.812 66.4628V81.9284C241.812 83.9111 240.357 84.8364 238.639 83.7789L236.921 82.8537C236.656 82.7215 236.392 82.7215 236.26 83.118C236.128 84.0433 235.467 85.7617 232.955 84.7042C232.426 84.572 232.162 83.7789 232.294 83.3824C232.426 82.8537 232.691 82.0605 232.691 81.1353C232.691 80.7387 232.426 80.21 232.03 80.0778L223.834 75.3192C222.116 74.2617 220.662 71.8824 220.662 69.7674V54.1697C220.662 52.0548 222.116 51.2617 223.834 52.3191Z" fill="#49CE8B"/>
<path d="M234.41 85.3651C234.013 85.3651 233.484 85.2329 232.956 84.9686C232.295 84.7042 231.766 83.7789 232.03 83.118C232.162 82.5892 232.295 81.9283 232.295 81.003C232.295 80.7387 232.03 80.3421 231.898 80.2099L223.703 75.4513C221.852 74.3938 220.266 71.7501 220.266 69.503V54.1697C220.266 52.98 220.662 52.1869 221.456 51.7903C222.249 51.3938 223.174 51.3938 224.099 52.0547L238.904 60.6467C240.754 61.7042 242.341 64.3478 242.341 66.595V82.0605C242.341 83.2502 241.944 84.0433 241.151 84.4398C240.358 84.8364 239.433 84.8364 238.507 84.1754L236.789 83.2502C236.657 83.9111 236.26 84.8364 235.467 85.2329C235.203 85.2329 234.806 85.3651 234.41 85.3651ZM222.513 52.1869C222.249 52.1869 222.117 52.1869 221.852 52.3191C221.323 52.5834 221.059 53.2444 221.059 54.0375V69.6352C221.059 71.4858 222.381 73.8651 224.099 74.7904L232.295 79.549C232.823 79.8134 233.088 80.4743 233.088 81.003C233.088 81.7961 232.956 82.5892 232.691 83.3823C232.559 83.6467 232.823 84.1754 233.22 84.3076C234.013 84.572 234.542 84.7042 235.071 84.4398C235.599 84.1754 235.864 83.3823 235.996 82.9858C235.996 82.7214 236.26 82.4571 236.392 82.4571C236.657 82.3249 236.921 82.3249 237.185 82.5892L238.904 83.5145C239.565 83.9111 240.226 84.0433 240.754 83.7789C241.283 83.5145 241.548 82.8536 241.548 82.0605V66.3306C241.548 64.48 240.226 62.1007 238.507 61.1754L223.703 52.5834C223.306 52.3191 222.777 52.1869 222.513 52.1869Z" fill="#171753"/>
<path d="M246.703 77.3019L241.944 80.21V82.3249L241.68 83.5146L245.777 81.0031L246.57 79.9456L246.703 78.756V77.3019Z" fill="#171753"/>
<path d="M238.646 74.5487C238.663 74.3705 238.671 74.1844 238.672 73.9932C238.672 70.6183 236.402 65.4571 233.411 63.7008C233.203 63.5787 232.987 63.4718 232.764 63.3807C232.388 62.8876 232.024 62.3737 231.662 61.8806C231.522 61.6842 231.341 61.398 231.159 61.2913C230.826 61.0961 230.531 61.3719 230.723 61.8377C230.669 61.7715 230.604 61.7152 230.531 61.6712C230.188 61.4682 229.917 61.8234 230.188 62.3438C230.147 62.2924 230.098 62.2484 230.042 62.2137C229.824 62.0836 229.647 62.2592 229.67 62.5285C229.693 62.7979 229.906 63.2077 230.054 63.5108C229.339 63.9584 228.817 64.7169 228.381 65.5417C227.987 66.2924 227.648 67.0912 227.295 67.8836C227.112 68.2869 226.784 69.4227 226.18 69.0701C226.063 68.9956 225.961 68.8999 225.878 68.7878C225.264 68.0072 224.946 66.6671 224.862 65.8488C224.823 65.3999 224.81 64.8079 225.09 64.6401C225.264 64.5451 225.52 64.6245 225.801 64.7884C226.52 65.2113 227.396 66.1948 227.427 66.2195C226.957 65.5768 225.886 64.1457 225.097 63.6826C224.69 63.4432 224.359 63.4627 224.224 63.9792C224.174 64.1922 224.15 64.4107 224.151 64.6297C224.172 65.3639 224.295 66.0914 224.516 66.7907C224.772 67.6585 225.127 68.6121 225.699 69.3693C225.851 69.5857 226.042 69.7706 226.262 69.9145C227.157 70.4349 227.598 68.9062 227.931 68.2895C228.508 67.1875 229.141 66.1012 230.054 65.4584C230.395 65.2156 230.791 65.0645 231.205 65.019C231.62 64.9735 232.038 65.0351 232.423 65.1982C232.608 65.269 232.787 65.3561 232.957 65.4584C233.206 65.6058 233.439 65.7779 233.654 65.9724C234.799 66.9898 235.804 68.6277 236.417 70.1512C237.002 71.6071 237.389 73.3088 237.216 74.5175C237.146 75.0821 236.961 75.6455 236.485 75.6884C236.21 75.7274 235.879 75.6038 235.546 75.4087C235.245 75.2253 234.96 75.0164 234.694 74.7842C234.003 74.1629 233.349 73.4999 232.736 72.7988C232.122 72.1262 229.609 69.1429 228.98 68.3155C230.082 69.9288 231.171 71.5511 232.372 73.059C232.274 73.1272 232.185 73.2067 232.105 73.2958C232.016 73.3986 232.105 73.6861 232.242 73.772C232.259 73.7826 232.279 73.7893 232.298 73.7918C232.318 73.7942 232.338 73.7924 232.357 73.7863C232.324 73.8836 232.323 73.9897 232.356 74.0873C232.389 74.185 232.453 74.2687 232.538 74.3249C232.556 74.3357 232.574 74.3444 232.594 74.3509C232.505 74.4928 232.643 74.7686 232.801 74.8609C232.839 74.8862 232.884 74.8968 232.929 74.8909L233.785 74.6905C234.341 75.2933 234.973 75.8183 235.665 76.2517C236.154 76.5393 236.638 76.7136 237.086 76.7071C237.843 76.6772 238.306 76.0982 238.52 75.2903C238.585 75.0469 238.628 74.7977 238.648 74.5461L238.646 74.5487ZM234.093 69.7323C234.108 69.9979 234.184 70.2563 234.315 70.4867C234.446 70.7172 234.628 70.9133 234.846 71.0594C235.266 71.3052 235.602 71.1101 235.604 70.6196C235.591 70.3536 235.516 70.0946 235.385 69.8639C235.254 69.6332 235.071 69.4373 234.852 69.2926C234.431 69.0467 234.094 69.2418 234.093 69.7323Z" fill="#ECFFFE"/>
<path fill-rule="evenodd" clip-rule="evenodd" d="M187.946 139.502C188.103 139.206 188.721 139.109 189.062 139.306L192.598 141.347C192.956 141.554 192.72 141.904 192.265 141.991L192.262 141.992L189.626 142.468C189.521 142.486 189.418 142.522 189.317 142.58L188.635 142.974C188.368 143.128 187.946 143.138 187.696 142.993L186.076 142.059C185.826 141.914 185.843 141.671 186.11 141.516L187.054 140.971C187.142 140.92 187.217 140.853 187.248 140.793L187.249 140.793L187.945 139.503L187.946 139.502Z" fill="#ECFFFE"/>
<path fill-rule="evenodd" clip-rule="evenodd" d="M191.104 138.886C191.257 138.798 191.462 138.773 191.561 138.83L193.969 140.221C194.069 140.278 194.026 140.396 193.873 140.485C193.72 140.573 193.515 140.598 193.416 140.54L191.008 139.15C190.908 139.093 190.951 138.974 191.104 138.886Z" fill="#ECFFFE"/>
<path fill-rule="evenodd" clip-rule="evenodd" d="M192.211 137.607C192.364 137.519 192.57 137.494 192.671 137.553L196.183 139.58C196.284 139.638 196.241 139.757 196.088 139.845C195.935 139.934 195.73 139.958 195.629 139.9L192.117 137.872C192.016 137.814 192.058 137.695 192.211 137.607Z" fill="#ECFFFE"/>
<path fill-rule="evenodd" clip-rule="evenodd" d="M173.064 130.103C173.221 129.808 173.839 129.71 174.181 129.907L177.716 131.949C178.074 132.155 177.838 132.505 177.383 132.592L177.38 132.593L174.744 133.069C174.639 133.088 174.536 133.123 174.436 133.181L173.753 133.575C173.486 133.729 173.064 133.739 172.814 133.595L171.195 132.66C170.944 132.515 170.961 132.272 171.228 132.117L172.172 131.573C172.26 131.522 172.335 131.454 172.366 131.394L172.367 131.394L173.064 130.104L173.064 130.103Z" fill="#ECFFFE"/>
<path fill-rule="evenodd" clip-rule="evenodd" d="M176.222 129.487C176.375 129.399 176.58 129.374 176.68 129.432L179.088 130.822C179.187 130.879 179.144 130.998 178.991 131.086C178.838 131.174 178.634 131.199 178.534 131.142L176.126 129.751C176.026 129.694 176.069 129.576 176.222 129.487Z" fill="#ECFFFE"/>
<path fill-rule="evenodd" clip-rule="evenodd" d="M177.33 128.208C177.483 128.12 177.688 128.096 177.789 128.154L181.301 130.181C181.402 130.24 181.359 130.358 181.206 130.447C181.053 130.535 180.848 130.559 180.747 130.501L177.235 128.474C177.134 128.415 177.177 128.297 177.33 128.208Z" fill="#ECFFFE"/>
<path d="M118.261 50.9832L107 44.4874V31.4958L118.261 37.9916V50.9832Z" fill="#49CE8B" stroke="#171753" stroke-miterlimit="10" stroke-linejoin="round"/>
<path d="M129.515 44.4874L118.261 50.9832V37.9916L129.515 31.4958V44.4874Z" fill="#171753" stroke="#171753" stroke-miterlimit="10" stroke-linejoin="round"/>
<path d="M118.261 37.9916L107 31.4958L118.261 25L129.515 31.4958L118.261 37.9916Z" fill="#9BE7C4" stroke="#171753" stroke-miterlimit="10" stroke-linejoin="round"/>
<path d="M276.261 131.983L265 125.487V112.496L276.261 118.992V131.983Z" fill="#49CE8B" stroke="#171753" stroke-miterlimit="10" stroke-linejoin="round"/>
<path d="M287.515 125.487L276.261 131.983V118.992L287.515 112.496V125.487Z" fill="#171753" stroke="#171753" stroke-miterlimit="10" stroke-linejoin="round"/>
<path d="M276.261 118.992L265 112.496L276.261 106L287.515 112.496L276.261 118.992Z" fill="#9BE7C4" stroke="#171753" stroke-miterlimit="10" stroke-linejoin="round"/>
<path d="M158.261 163.983L147 157.487V144.496L158.261 150.992V163.983Z" fill="#49CE8B" stroke="#171753" stroke-miterlimit="10" stroke-linejoin="round"/>
<path d="M169.515 157.487L158.261 163.983V150.992L169.515 144.496V157.487Z" fill="#171753" stroke="#171753" stroke-miterlimit="10" stroke-linejoin="round"/>
<path d="M158.261 150.992L147 144.496L158.261 138L169.515 144.496L158.261 150.992Z" fill="#9BE7C4" stroke="#171753" stroke-miterlimit="10" stroke-linejoin="round"/>
<g opacity="0.9">
<path d="M57.1182 37.6446L57.1182 38.9332L54.116 38.9332L54.116 37.6446L57.1182 37.6446ZM51.0066 37.6446L51.0066 38.9332L48.0044 38.9332L48.0044 37.6446L51.0066 37.6446ZM45.0022 37.6446L45.0022 38.9332L42 38.9332L42 37.6446L45.0022 37.6446Z" fill="#171753"/>
<path d="M50.1488 30.6646L50.1488 33.6713L48.8621 33.6713L48.8621 30.6646L50.1488 30.6646ZM50.1488 36.7855L50.1488 39.7923L48.8621 39.7923L48.8621 36.7855L50.1488 36.7855ZM50.1488 42.9064L50.1488 45.9132L48.8621 45.9132L48.8621 42.9064L50.1488 42.9064Z" fill="#171753"/>
<path d="M59.5838 21L59.5838 24.0068L58.2972 24.0068L58.2972 21L59.5838 21ZM59.5838 27.1209L59.5838 30.1277L58.2972 30.1277L58.2972 27.1209L59.5838 27.1209Z" fill="#171753"/>
</g>
<g opacity="0.9">
<path d="M102.467 77.2522L102.467 75.9662L105.471 75.9662L105.471 77.2522L102.467 77.2522ZM108.582 77.2522L108.582 75.9662L111.586 75.9662L111.586 77.2522L108.582 77.2522ZM114.59 77.2522L114.59 75.9662L117.594 75.9662L117.594 77.2522L114.59 77.2522Z" fill="#171753"/>
<path d="M109.441 84.2179L109.441 81.2172L110.728 81.2172L110.728 84.2179L109.441 84.2179ZM109.441 78.1093L109.441 75.1086L110.728 75.1086L110.728 78.1093L109.441 78.1093ZM109.441 72.0008L109.441 69.0001L110.728 69.0001L110.728 72.0008L109.441 72.0008Z" fill="#171753"/>
<path d="M100 93.8628L100 90.8621L101.287 90.8621L101.287 93.8628L100 93.8628ZM100 87.7542L100 84.7535L101.287 84.7535L101.287 87.7542L100 87.7542Z" fill="#171753"/>
</g>
<g opacity="0.9">
<path d="M275.467 26.2522L275.467 24.9662L278.471 24.9662L278.471 26.2522L275.467 26.2522ZM281.582 26.2522L281.582 24.9662L284.586 24.9662L284.586 26.2522L281.582 26.2522ZM287.59 26.2522L287.59 24.9662L290.594 24.9662L290.594 26.2522L287.59 26.2522Z" fill="#171753"/>
<path d="M282.441 33.2179L282.441 30.2172L283.728 30.2172L283.728 33.2179L282.441 33.2179ZM282.441 27.1093L282.441 24.1086L283.728 24.1086L283.728 27.1093L282.441 27.1093ZM282.441 21.0008L282.441 18.0001L283.728 18.0001L283.728 21.0008L282.441 21.0008Z" fill="#171753"/>
<path d="M273 42.8628L273 39.8621L274.287 39.8621L274.287 42.8628L273 42.8628ZM273 36.7542L273 33.7535L274.287 33.7535L274.287 36.7542L273 36.7542Z" fill="#171753"/>
</g>
<g opacity="0.9">
<path d="M247.645 154.466L248.933 154.466L248.933 157.468L247.645 157.468L247.645 154.466ZM247.645 160.577L248.933 160.577L248.933 163.579L247.645 163.579L247.645 160.577ZM247.645 166.582L248.933 166.582L248.933 169.584L247.645 169.584L247.645 166.582Z" fill="#171753"/>
<path d="M240.665 161.435L243.671 161.435L243.671 162.722L240.665 162.722L240.665 161.435ZM246.785 161.435L249.792 161.435L249.792 162.722L246.785 162.722L246.785 161.435ZM252.906 161.435L255.913 161.435L255.913 162.722L252.906 162.722L252.906 161.435Z" fill="#171753"/>
<path d="M231 152L234.007 152L234.007 153.287L231 153.287L231 152ZM237.121 152L240.128 152L240.128 153.287L237.121 153.287L237.121 152Z" fill="#171753"/>
</g>
</g>
<defs>
<clipPath id="clip0_1711_1647">
<rect width="300" height="180" fill="white"/>
</clipPath>
<clipPath id="clip1_1711_1647">
<rect width="33.5837" height="58.6188" fill="white" transform="translate(157.679 66.3262)"/>
</clipPath>
<clipPath id="clip2_1711_1647">
<rect width="33.5837" height="58.6188" fill="white" transform="translate(147.331 57.8426)"/>
</clipPath>
<clipPath id="clip3_1711_1647">
<rect width="33.5837" height="58.6188" fill="white" transform="translate(135.939 77.2495)"/>
</clipPath>
</defs>
</svg>
