<svg width="300" height="180" viewBox="0 0 300 180" fill="none" xmlns="http://www.w3.org/2000/svg">
<rect width="300" height="180" fill="#8989C7"/>
<path d="M208.007 142.388C240.633 142.388 267.094 116.338 267.094 84.189C267.094 52.0396 240.633 25.9904 208.007 25.9904C175.381 25.9904 148.92 52.0396 148.92 84.189C148.92 116.338 175.381 142.388 208.007 142.388Z" fill="#BEF0ED" stroke="#171753" stroke-width="0.995669"/>
<path d="M209.784 26.552C208.895 28.1389 207.689 29.4084 205.976 29.8528C202.103 30.8684 198.993 29.4719 197.089 27.5041C183.378 30.0432 171.253 37.3431 162.748 47.5629C165.604 47.1186 168.778 47.309 171.698 49.1499C171.698 49.1499 166.429 49.6577 166.62 53.6567C166.874 57.6558 171.444 53.7202 173.602 56.8941C175.824 60.0679 179.632 55.9419 176.966 53.7202C174.3 51.435 177.347 48.2612 179.759 49.7846C182.108 51.3081 182.552 54.2915 181.156 57.3384C179.759 60.4488 185.028 59.7505 186.298 62.607C187.631 65.4635 184.123 67.4347 186.171 68.2565C188.043 69.008 190.297 65.1461 190.297 65.1461C191.376 64.3209 192.836 64.4479 193.788 65.4C193.788 65.4 194.596 65.939 194.804 66.4791C195.314 67.8051 192.328 67.1139 192.137 68.9547C191.947 70.7956 196.263 70.1608 196.39 72.6364C196.517 75.1755 200.263 75.4929 200.643 72.1286C201.024 68.7008 202.865 68.32 202.865 68.32C202.865 68.32 202.294 64.8922 198.866 64.8287C195.375 64.7652 197.33 62.6656 196.454 61.2105C195.653 59.8798 193.534 60.6392 194.55 57.7193C195.565 54.7993 189.852 51.4985 196.962 49.0229C204.071 46.5473 201.532 43.5004 201.532 43.5004L198.104 42.5482C198.104 42.5482 203.5 41.0883 203.436 37.8509C203.436 34.6136 209.34 32.7093 210.609 37.9779C211.879 43.2465 208.769 44.8334 208.769 44.8334C208.769 44.8334 212.704 44.5795 212.641 46.8012C212.577 49.0229 209.403 50.3559 209.403 50.3559C209.403 50.3559 209.784 54.7358 207.689 55.1167C205.595 55.4976 205.849 53.1489 205.849 53.1489C205.849 53.1489 202.103 52.9585 202.992 55.5611C203.944 58.1636 201.976 60.4892 202.865 63.4322C203.526 65.6222 206.356 65.3365 205.785 68.5104C205.214 71.6843 204.071 75.0486 208.197 77.0798C212.323 79.0476 210.383 80.5081 212.006 82.5389C213.507 84.4173 215.162 84.9089 216.132 87.1092C216.707 88.4133 214.799 89.7753 216.957 90.6639C219.179 91.6161 219.623 88.2518 225.273 90.3466C230.922 92.4413 232.763 91.6796 233.588 90.6005C233.588 90.6005 238.158 92.0604 240.19 86.4745C240.19 86.4745 244.125 83.491 241.713 78.2859C241.713 78.2859 244.379 75.3659 242.665 72.0016C241.015 68.6374 243.173 65.4 245.077 65.3365C245.077 65.3365 244.316 61.8453 247.172 62.0357C250.029 62.2262 249.33 65.2096 249.33 65.2096C249.33 65.2096 253.33 61.0201 257.9 63.8766C257.9 63.8766 257.519 69.2086 260.629 68.8913C262.026 68.7643 263.613 69.3991 264.946 70.0973C258.662 45.5951 236.508 27.3137 209.784 26.552Z" fill="#6B5FA5" stroke="#171753" stroke-width="0.995669"/>
<path d="M222.974 130.107L222.973 130.107C221.728 129.959 220.776 130.026 219.997 130.243C219.214 130.46 218.634 130.822 218.127 131.222C217.861 131.433 217.621 131.645 217.387 131.853C216.712 132.452 216.082 133.011 214.987 133.361C213.532 133.826 211.984 133.864 210.48 133.901C210.123 133.91 209.769 133.918 209.419 133.933C207.663 134.005 205.925 134.219 204.934 135.611C204.136 136.691 202.849 137.198 201.703 137.428C201.135 137.541 200.619 137.583 200.245 137.596C200.059 137.603 199.908 137.602 199.806 137.6C199.755 137.599 199.716 137.598 199.69 137.597L199.682 137.596L199.671 137.594C199.642 137.588 199.601 137.58 199.549 137.57C199.447 137.55 199.305 137.525 199.143 137.5C198.829 137.452 198.409 137.402 198.073 137.42C197.916 137.429 197.709 137.454 197.541 137.551C197.448 137.605 197.34 137.695 197.28 137.84C197.218 137.989 197.231 138.137 197.27 138.257C197.339 138.467 197.512 138.655 197.701 138.822C197.905 139.002 198.192 139.21 198.573 139.453C199.761 140.226 199.965 140.87 199.965 141.319V141.686L200.329 141.738C202.574 142.059 204.814 142.186 207.106 142.25L207.106 142.25L207.111 142.25C219.32 142.442 230.764 138.99 240.29 132.916L240.584 132.729L240.457 132.404C240.014 131.272 240.685 129.488 243.532 128.25L243.532 128.25L243.539 128.247C246.529 126.882 247.576 125.345 247.781 124.039C247.882 123.399 247.772 122.855 247.637 122.472C247.57 122.281 247.496 122.128 247.437 122.021C247.408 121.967 247.382 121.924 247.363 121.894C247.353 121.879 247.345 121.866 247.339 121.857L247.331 121.846L247.328 121.842L247.327 121.84L247.327 121.839C247.326 121.839 247.326 121.839 246.981 122.085L247.326 121.839L247.208 121.674L247.006 121.662L247.006 121.662L247.006 121.662L247.006 121.662L247.005 121.662L246.998 121.661L246.966 121.659C246.938 121.657 246.895 121.653 246.84 121.647C246.731 121.635 246.573 121.616 246.388 121.583C246.013 121.518 245.538 121.404 245.106 121.213C244.667 121.02 244.319 120.767 244.133 120.451C243.961 120.158 243.891 119.748 244.138 119.132C244.728 117.656 244.67 116.73 244.309 116.155C244.131 115.871 243.9 115.709 243.712 115.62C243.619 115.575 243.536 115.548 243.473 115.532C243.442 115.523 243.415 115.518 243.394 115.514C243.384 115.512 243.375 115.51 243.367 115.509L243.358 115.508L243.354 115.507L243.352 115.507L243.351 115.507C243.351 115.507 243.35 115.507 243.3 115.928L243.35 115.507L243.05 115.471L242.918 115.743C242.727 116.14 242.503 116.363 242.274 116.49C242.042 116.619 241.768 116.67 241.444 116.658C240.883 116.636 240.272 116.435 239.624 116.221C239.489 116.176 239.353 116.131 239.215 116.087C238.834 115.966 238.439 115.852 238.071 115.811C237.704 115.77 237.308 115.793 236.964 116.004C236.61 116.22 236.387 116.586 236.272 117.067C236.158 117.541 236.139 118.16 236.213 118.95C236.35 120.429 236.121 121.424 235.695 122.141C235.267 122.859 234.608 123.352 233.777 123.766C233.183 124.063 232.535 124.305 231.843 124.563C231.551 124.672 231.251 124.784 230.943 124.905C229.929 125.302 228.874 125.778 227.932 126.511C227.363 126.954 227.049 127.479 226.819 127.973C226.736 128.152 226.66 128.334 226.59 128.503C226.566 128.562 226.542 128.62 226.519 128.675C226.427 128.895 226.339 129.089 226.236 129.263C226.04 129.594 225.788 129.851 225.336 130.01C224.862 130.177 224.136 130.246 222.974 130.107Z" fill="#6B5FA5" stroke="#171753" stroke-width="0.847582"/>
<path d="M149.82 83.7404L148.993 83.8689C148.865 103.823 159.035 121.6 174.699 132.086L175.234 131.434C175.237 131.437 175.227 131.426 175.204 131.398C175.183 131.372 175.155 131.337 175.125 131.294C175.063 131.209 174.991 131.099 174.928 130.978C174.788 130.707 174.755 130.503 174.794 130.392C174.813 130.34 174.909 130.146 175.558 130.094C176.197 130.043 177.243 130.149 178.895 130.558L179.617 130.737L179.403 130.025L178.997 130.147C179.403 130.025 179.403 130.025 179.403 130.024L179.403 130.024L179.403 130.023L179.402 130.02L179.399 130.01L179.388 129.978C179.379 129.95 179.366 129.911 179.348 129.862C179.312 129.763 179.258 129.621 179.182 129.445C179.03 129.093 178.79 128.602 178.437 128.034C177.729 126.899 176.564 125.455 174.728 124.21C172.977 123.021 171.757 121.768 171.232 120.762C170.969 120.257 170.91 119.872 170.975 119.609C171.032 119.375 171.207 119.149 171.648 118.993L172.665 118.634L171.676 118.205L171.676 118.205L171.676 118.205L171.676 118.205L171.676 118.205L171.671 118.203L171.649 118.193C171.639 118.188 171.628 118.183 171.615 118.177C171.598 118.169 171.579 118.159 171.556 118.148C171.475 118.107 171.36 118.045 171.225 117.963C170.952 117.798 170.613 117.559 170.322 117.254C170.03 116.948 169.806 116.596 169.726 116.206C169.659 115.876 169.687 115.486 169.913 115.026L171.748 115.082L171.976 115.089L172.108 114.902L171.761 114.658C172.108 114.902 172.108 114.902 172.108 114.901L172.108 114.901L172.109 114.9L172.111 114.897L172.117 114.888C172.121 114.882 172.127 114.873 172.135 114.861C172.149 114.839 172.169 114.808 172.192 114.768C172.239 114.689 172.3 114.576 172.364 114.434C172.492 114.153 172.633 113.751 172.682 113.274C172.784 112.292 172.489 111.052 171.07 109.944L170.729 109.678L170.47 110.023L170.47 110.023L170.47 110.023L170.47 110.024L170.47 110.024L170.469 110.025L170.459 110.037C170.45 110.048 170.436 110.066 170.417 110.089C170.378 110.135 170.319 110.201 170.242 110.278C170.088 110.433 169.87 110.624 169.609 110.778C169.096 111.082 168.455 111.234 167.746 110.753C167.017 110.258 166.543 109.08 166.637 107.973C166.683 107.434 166.862 106.956 167.172 106.611C167.474 106.274 167.93 106.032 168.604 106.004C170.05 105.945 170.7 106.413 171.005 106.808C171.166 107.016 171.25 107.228 171.293 107.388C171.315 107.468 171.326 107.533 171.332 107.575C171.335 107.597 171.336 107.612 171.337 107.621L171.337 107.628L171.337 107.628L171.337 107.628L171.356 108.254L171.932 108L171.761 107.612C171.932 108 171.932 108 171.933 108L171.933 107.999L171.935 107.999L171.939 107.997L171.949 107.992C171.957 107.988 171.968 107.983 171.98 107.977C172.006 107.964 172.041 107.946 172.084 107.921C172.168 107.873 172.282 107.802 172.411 107.703C172.666 107.508 172.983 107.201 173.221 106.757C173.715 105.837 173.798 104.468 172.63 102.566C172.032 101.592 171.312 101.017 170.55 100.727C169.794 100.438 169.034 100.445 168.373 100.57C167.713 100.695 167.136 100.942 166.727 101.153C166.522 101.259 166.356 101.358 166.24 101.431C166.209 101.451 166.182 101.469 166.158 101.484C166.144 101.485 166.128 101.486 166.111 101.486C166.009 101.489 165.859 101.49 165.672 101.477C165.298 101.452 164.786 101.377 164.233 101.176C163.142 100.778 161.866 99.8829 161.181 97.8296C160.997 97.2771 160.845 96.8734 160.719 96.5944C160.656 96.4556 160.596 96.3372 160.535 96.2433C160.486 96.1661 160.399 96.0424 160.264 95.9702C160.184 95.9274 160.064 95.8907 159.924 95.9233C159.787 95.9553 159.698 96.0388 159.648 96.1041C159.562 96.2174 159.533 96.3524 159.52 96.4262C159.489 96.6 159.485 96.8309 159.491 97.0621C159.503 97.538 159.563 98.1465 159.617 98.6275C159.645 98.8698 159.672 99.0831 159.692 99.236C159.697 99.2732 159.701 99.3068 159.705 99.3364C159.674 99.363 159.629 99.3806 159.565 99.3806C159.461 99.3806 159.367 99.3284 159.32 99.2384C159.115 98.7974 158.817 98.3179 158.422 97.9591C158.019 97.5938 157.487 97.3318 156.851 97.4166L156.849 97.4168C156.27 97.4967 155.837 97.7898 155.651 98.2947C155.481 98.7544 155.549 99.306 155.726 99.8554C156.086 100.967 156.986 102.352 158.176 103.703L158.176 103.703L158.18 103.707C159.246 104.888 159.328 106.109 159.149 107.049C159.102 107.298 159.035 107.527 158.964 107.73C158.898 107.577 158.819 107.412 158.725 107.237C158.233 106.321 157.33 105.142 155.686 104.024L155.682 104.022C154.21 103.041 153.395 101.034 153.388 99.3503C153.384 98.5111 153.582 97.824 153.927 97.4046C154.245 97.0171 154.73 96.8061 155.478 96.9799L156.269 97.1635L155.968 96.4097L154.991 93.9682L157.521 96.1277L157.725 96.302L157.97 96.1918L157.796 95.8054C157.97 96.1918 157.97 96.1917 157.971 96.1915L157.971 96.1912L157.973 96.1904L157.977 96.1885L157.988 96.1833C157.996 96.1792 158.007 96.1738 158.02 96.167C158.046 96.1535 158.08 96.1345 158.121 96.1095C158.201 96.0598 158.307 95.9852 158.419 95.8819C158.644 95.675 158.899 95.3445 158.997 94.8666C159.194 93.9009 158.714 92.5682 156.752 90.7349C152.927 87.1602 153.231 85.08 153.6 84.3885L153.932 83.7652L153.226 83.7652L153.226 84.189C153.226 83.7652 153.225 83.7652 153.225 83.7652L153.224 83.7652L153.222 83.7653L153.218 83.7653L153.207 83.7656C153.2 83.7658 153.19 83.7662 153.18 83.767C153.159 83.7684 153.131 83.771 153.099 83.7756C153.035 83.7848 152.95 83.8022 152.85 83.8348C152.649 83.9004 152.393 84.0263 152.131 84.264C151.653 84.6979 151.192 85.4678 150.963 86.8181C150.635 86.1104 150.224 84.9823 149.82 83.7404ZM160.36 96.5494C160.36 96.5495 160.36 96.5513 160.358 96.5545C160.359 96.5509 160.36 96.5493 160.36 96.5494ZM159.799 96.6687C159.799 96.6687 159.8 96.6697 159.802 96.672C159.8 96.67 159.799 96.6688 159.799 96.6687Z" fill="#6B5FA5" stroke="#171753" stroke-width="0.847582"/>
<path d="M153.788 80.6089L154.057 80.2816L153.788 80.6089C154.482 81.1799 157.065 83.5192 158.927 88.0942C160.029 90.802 161.737 91.9203 163.361 91.7746C164.953 91.6318 166.241 90.2826 166.493 88.5444C166.532 88.2743 166.408 88.048 166.247 87.9106C166.09 87.7766 165.874 87.7032 165.653 87.7276C165.29 87.7676 164.705 87.7293 164.171 87.2107C163.624 86.6804 163.061 85.5825 162.916 83.3368C162.558 77.7834 159.623 73.1835 159.161 72.4895C159.055 72.3315 158.899 72.2358 158.733 72.1989L158.641 72.6126L158.733 72.1989L155.79 71.545C155.327 71.442 154.899 71.8122 154.922 72.2786C154.979 73.4578 155.01 77.0407 153.606 79.708C153.446 80.0124 153.521 80.3895 153.788 80.6089Z" fill="#6B5FA5" stroke="#171753" stroke-width="0.847582"/>
<path d="M153.451 74.0492L153.451 74.0492L153.452 74.045C153.915 71.4858 154.738 70.2102 155.497 69.5806C156.248 68.9573 156.996 68.9196 157.427 68.9665C157.663 68.9923 157.886 68.9048 158.042 68.7641C158.199 68.6217 158.32 68.3943 158.286 68.1271L157.917 65.1762L157.497 65.2288L157.917 65.1762C157.889 64.9474 157.75 64.7469 157.546 64.6392L155.71 63.6703C155.962 62.8762 156.526 60.8124 156.4 58.56C156.381 58.2199 156.14 57.9811 155.854 57.9268C155.572 57.8732 155.264 58.0018 155.113 58.2974C151.958 64.476 149.832 71.3235 149.107 78.6281C149.053 79.1659 149.63 79.603 150.143 79.2936C151.609 78.41 152.915 76.8515 153.451 74.0492Z" fill="#6B5FA5" stroke="#171753" stroke-width="0.847582"/>
<path d="M177.199 67.0433L177.199 67.0434L177.206 67.0391C178.041 66.5298 178.763 66.5841 179.361 66.8399C179.983 67.1059 180.486 67.5996 180.803 67.9805C180.986 68.1995 181.259 68.2774 181.5 68.2355C181.746 68.1925 181.991 68.0151 182.064 67.7094C182.237 66.9769 182.474 65.6527 182.279 64.4076C182.181 63.7808 181.97 63.1496 181.564 62.6234C181.152 62.0898 180.559 61.6888 179.745 61.5033L179.746 61.5032L179.741 61.5022C178.873 61.315 178.201 61.36 177.645 61.5916C177.094 61.8209 176.709 62.2121 176.382 62.6056C176.268 62.7418 176.161 62.8783 176.055 63.013C175.534 63.6753 175.047 64.2933 174.064 64.6229C173.266 64.8655 172.762 65.5855 172.813 66.3979C172.819 66.4967 172.847 66.5851 172.884 66.6594L172.896 66.6822C173.099 67.7999 174.243 68.4291 175.295 68.0256C175.841 67.8205 176.442 67.4847 177.199 67.0433Z" fill="#6B5FA5" stroke="#171753" stroke-width="0.847582"/>
<path d="M162.303 73.9694C162.493 76.1911 165.921 75.8737 165.794 73.652V73.5885C165.54 70.9224 162.874 71.1764 162.43 73.0172C162.303 73.3981 162.303 73.7154 162.303 73.9694Z" fill="#6B5FA5" stroke="#171753" stroke-width="0.847582"/>
<path d="M189.28 135.161C189.28 135.161 190.423 133.003 186.297 133.066C183.885 133.066 182.425 134.336 179.949 134.844C180.584 135.161 181.155 135.479 181.79 135.796C181.79 135.733 186.36 134.019 189.28 135.161Z" fill="#6B5FA5" stroke="#171753" stroke-width="0.847582"/>
<path d="M221.998 96.3404C221.998 95.5341 221.369 94.7635 220.485 94.7635C219.6 94.7635 218.971 95.5341 218.971 96.3404C218.971 97.1468 219.6 97.9174 220.485 97.9174C221.369 97.9174 221.998 97.1468 221.998 96.3404Z" fill="#6B5FA5" stroke="#171753" stroke-width="0.995669"/>
<path d="M202.129 52.0516L202.136 52.0502L202.144 52.0486C202.658 51.9384 203.238 51.6936 203.699 51.193C204.166 50.6864 204.47 49.9632 204.505 48.977L204.514 48.7303L204.323 48.5739C203.423 47.8382 201.98 47.9629 201.36 49.0816C201 49.6158 200.626 49.9214 200.199 49.9214H199.32L199.772 50.6754L199.943 50.9612C200.314 51.8281 201.256 52.2102 202.129 52.0516Z" fill="#6B5FA5" stroke="#171753" stroke-width="0.995669"/>
<path d="M175.024 110.451L175.031 110.449L175.039 110.448C175.553 110.337 176.133 110.093 176.594 109.592C177.061 109.085 177.365 108.362 177.4 107.376L177.409 107.129L177.218 106.973C176.318 106.237 174.875 106.362 174.255 107.481C173.895 108.015 173.521 108.32 173.094 108.32H172.288L172.649 109.041L172.834 109.412C173.204 110.227 174.151 110.609 175.024 110.451Z" fill="#6B5FA5" stroke="#171753" stroke-width="0.995669"/>
<path d="M262.756 79.5285L262.72 79.5535L262.689 79.5843C262.541 79.7328 262.409 79.9375 262.374 80.1833C262.336 80.4495 262.42 80.7171 262.626 80.9231C263.703 82.0009 264.501 83.9695 265.039 85.783C265.472 87.2394 265.704 88.4614 265.806 88.9961C265.831 89.1298 265.849 89.2206 265.859 89.2613L266.837 89.1877C266.966 87.8405 267.03 86.4931 267.03 85.1457C267.094 81.3681 266.774 77.7217 266.199 74.1444L266.172 73.9792L266.051 73.8636C264.489 72.3698 262.915 71.9803 261.528 72.1502C260.171 72.3167 259.053 73.0116 258.349 73.5817C257.671 74.1256 258.058 75.2148 258.899 75.2289C259.968 75.2901 261.526 75.6471 262.735 76.9687C263.42 77.741 263.478 78.2955 263.397 78.6511C263.308 79.0393 263.02 79.3436 262.756 79.5285Z" fill="#6B5FA5" stroke="#171753" stroke-width="0.995669"/>
<path d="M158.401 52.5505L159.104 53.2343C160.458 52.2497 161.975 51.5749 163.436 51.7375C163.613 51.7675 163.793 51.7421 163.951 51.6541C164.113 51.5644 164.222 51.4262 164.284 51.2821C164.4 51.0118 164.372 50.6542 164.129 50.399C163.627 49.8297 162.734 49.1513 161.58 48.744L161.232 48.6213L161.013 48.9181L161.011 48.9216C160.124 50.1252 159.231 51.3372 158.401 52.5505Z" fill="#6B5FA5" stroke="#171753" stroke-width="0.995669"/>
<path d="M203.805 130.89C203.442 131.087 203.177 131.237 203.055 131.337C203.035 131.352 203.008 131.376 202.98 131.406C202.961 131.427 202.9 131.494 202.864 131.599C202.845 131.657 202.825 131.749 202.846 131.859C202.869 131.976 202.93 132.072 203.007 132.14C203.133 132.253 203.274 132.266 203.305 132.268L203.306 132.268C203.394 132.277 203.475 132.261 203.505 132.255C203.55 132.247 203.599 132.235 203.646 132.222C203.853 132.167 204.222 132.043 204.682 131.89C204.992 131.786 205.342 131.669 205.713 131.55C206.659 131.244 207.782 130.906 208.853 130.671C209.939 130.432 210.91 130.315 211.577 130.412C211.981 130.471 212.331 130.479 212.607 130.412C212.885 130.344 213.228 130.15 213.271 129.732C213.305 129.402 213.118 129.121 212.965 128.941C212.791 128.738 212.551 128.539 212.273 128.354C211.173 127.624 209.175 126.928 207.124 127.27C206.169 127.429 205.541 127.645 205.182 128.001C204.765 128.415 204.81 128.91 204.843 129.218C204.846 129.241 204.848 129.264 204.851 129.286C204.884 129.586 204.904 129.773 204.822 129.982C204.74 130.192 204.512 130.507 203.805 130.89ZM203.312 131.279C203.312 131.279 203.314 131.278 203.319 131.278C203.314 131.278 203.312 131.279 203.312 131.279Z" fill="#6B5FA5" stroke="#171753" stroke-width="0.995669"/>
<path d="M190.127 39.4772L190.124 39.4783L190.124 39.4784L190.124 39.4785L190.124 39.4785C190.124 39.4786 190.124 39.4786 190.124 39.4786L189.197 39.8189L190.023 40.3615C191.194 41.1311 192.695 41.6999 194.071 41.8603C195.412 42.0166 196.826 41.7992 197.561 40.7367L197.561 40.7367L197.566 40.7295C197.91 40.2142 198.025 39.708 197.958 39.234C197.893 38.7715 197.661 38.397 197.414 38.1167C197.167 37.8361 196.884 37.6269 196.671 37.4901C196.643 37.4723 196.616 37.4556 196.59 37.4399C196.612 36.444 196.217 35.6779 195.603 35.1496C194.943 34.5815 194.066 34.3156 193.27 34.2673C192.493 34.22 191.672 34.3749 191.16 34.7947C190.889 35.0171 190.683 35.3348 190.673 35.736C190.662 36.1238 190.836 36.4961 191.12 36.8364C191.54 37.3409 191.635 37.7212 191.62 37.9898C191.605 38.2635 191.471 38.5147 191.252 38.7467C191.031 38.98 190.751 39.1649 190.514 39.2942C190.398 39.3577 190.297 39.4051 190.226 39.4361C190.191 39.4516 190.164 39.4628 190.146 39.4699L190.127 39.4772Z" fill="#BEF0ED" stroke="#171753" stroke-width="0.995669"/>
<path d="M226.939 29.0582L226.869 29.0372H226.796C226.726 29.0372 226.673 29.0523 226.658 29.0565C226.635 29.0629 226.618 29.0696 226.608 29.0735C226.588 29.0815 226.571 29.0894 226.562 29.0936C226.544 29.1027 226.525 29.1129 226.51 29.121C226.484 29.1351 226.45 29.1542 226.413 29.1754C226.406 29.1795 226.398 29.1837 226.391 29.1879C226.295 29.242 226.161 29.3172 225.992 29.4063C225.654 29.5847 225.18 29.8181 224.615 30.0396C223.475 30.4862 222.01 30.8672 220.573 30.6914C219.795 30.5942 218.759 30.5091 217.726 30.5091C216.705 30.5091 215.641 30.592 214.835 30.855C214.432 30.9863 214.047 31.1769 213.77 31.4653C213.475 31.7722 213.322 32.1707 213.376 32.6351C213.426 33.0718 213.654 33.5231 214.015 33.9898C214.381 34.4615 214.911 34.9851 215.626 35.5698L215.887 35.7833L216.182 35.6204L216.182 35.6204L216.182 35.6203L216.183 35.6199L216.186 35.6179L216.203 35.6088C216.218 35.6005 216.241 35.5881 216.272 35.5717C216.334 35.5388 216.427 35.4903 216.548 35.4286C216.79 35.3051 217.147 35.129 217.6 34.9208C218.507 34.5042 219.797 33.96 221.327 33.4511C224.398 32.4299 228.39 31.5674 232.183 32.1224L232.457 31.1749C230.736 30.4102 228.873 29.6385 226.939 29.0582Z" fill="#BEF0ED" stroke="#171753" stroke-width="0.995669"/>
<path d="M157.546 113.237L157.393 113.169L157.327 113.323C153.927 121.235 152.078 128.032 151.799 133.439C151.52 138.844 152.809 142.891 155.724 145.256C157.538 146.746 159.863 147.451 162.684 147.451C166.287 147.451 170.608 146.291 175.421 144.123C180.235 141.954 185.551 138.772 191.148 134.716C202.341 126.606 214.665 114.995 226.352 100.99C237.277 87.9053 246.171 74.485 252.153 62.4903C258.131 50.503 261.212 39.9142 260.477 32.5021L260.477 32.5011C260.093 28.855 258.811 26.0778 256.607 24.3275C253.984 22.1904 250.213 21.6071 245.554 22.4927C240.894 23.3785 235.321 25.7375 229.059 29.5199L228.922 29.6027L229 29.7426L229.317 30.3139L229.4 30.464L229.548 30.3755C235.664 26.699 241.073 24.3923 245.554 23.5008C250.037 22.609 253.564 23.138 255.954 25.0931L255.954 25.0935C257.941 26.7077 259.134 29.2629 259.449 32.6607L259.449 32.6612C260.142 39.9124 257.098 50.3507 251.15 62.2468C245.206 74.1354 236.374 87.455 225.526 100.46C211.76 116.954 197.093 130.129 184.535 138.092C178.255 142.074 172.51 144.747 167.674 145.885C162.834 147.023 158.938 146.617 156.314 144.49C153.677 142.35 152.488 138.497 152.797 133.235C153.104 127.977 154.906 121.347 158.203 113.708L158.268 113.557L158.118 113.491L157.546 113.237Z" fill="#171753" stroke="#171753" stroke-width="0.33189"/>
<path d="M201.312 110.06L201.312 110.061C215.286 112.601 228.562 113.808 240.317 113.808C252.545 113.808 263.054 112.506 270.742 110.015C278.415 107.529 283.34 103.836 284.279 99.0109L284.279 99.0086C284.863 95.767 283.561 92.2746 280.569 88.7238C277.576 85.1721 272.876 81.5423 266.614 78.0141L266.469 77.9321L266.388 78.078L266.07 78.6493L265.99 78.7937L266.134 78.8746C272.282 82.329 276.866 85.8407 279.768 89.24C282.672 92.6404 283.876 95.9074 283.318 98.8849C282.697 102.174 279.98 104.958 275.53 107.159C271.084 109.358 264.939 110.96 257.53 111.899C242.713 113.777 222.878 113.001 201.562 109.099C184.655 105.991 169.116 101.376 156.767 96.026C144.411 90.6725 135.276 84.594 131.146 78.5726L131.144 78.5709C129.195 75.8037 128.516 73.182 128.95 70.7614C129.539 67.5381 132.29 64.7149 136.945 62.4625C141.595 60.2123 148.113 58.5492 156.165 57.6299L156.327 57.6114L156.311 57.4486L156.247 56.8138L156.231 56.647L156.064 56.6653C147.707 57.5868 141.037 59.2721 136.283 61.6168C131.532 63.9606 128.67 66.9778 127.989 70.5738C127.471 73.2953 128.252 76.1963 130.301 79.1415C134.518 85.3075 143.791 91.48 156.23 96.8858C168.678 102.295 184.321 106.948 201.312 110.06Z" fill="#171753" stroke="#171753" stroke-width="0.33189"/>
<path d="M209.748 141.947L209.607 142.053L209.721 142.187C214.043 147.304 218.196 151.22 222.052 153.857C225.907 156.493 229.479 157.861 232.636 157.861C233.923 157.861 235.086 157.668 236.251 157.215L236.255 157.213C238.843 156.114 240.965 153.854 242.374 150.396C245.249 143.496 245.448 132.475 243.313 119.297C241.176 106.111 236.697 90.7366 230.186 75.1114C221.898 55.1994 211.685 38.2188 201.887 26.8795C196.989 21.2106 192.188 16.9444 187.777 14.4291C183.368 11.9153 179.32 11.1358 175.952 12.4962C172.583 13.8566 170.195 17.1832 168.824 22.1593C167.452 27.1369 167.088 33.7922 167.787 41.8639L167.802 42.0315L167.969 42.0147L168.604 41.9513L168.767 41.9349L168.752 41.7714C168.055 33.9743 168.405 27.4893 169.707 22.6432C171.011 17.794 173.258 14.6168 176.33 13.3754C179.482 12.1176 183.333 12.8683 187.621 15.3643C191.906 17.8587 196.6 22.0807 201.414 27.7069C211.04 38.9577 221.125 55.7949 229.372 75.5564C235.843 91.0985 240.298 106.352 242.43 119.414C244.563 132.483 244.366 143.331 241.56 150.078L241.559 150.079C240.238 153.288 238.297 155.404 235.939 156.335L235.938 156.336C232.863 157.578 229.064 156.921 224.736 154.426C220.411 151.931 215.585 147.615 210.482 141.592L210.381 141.473L210.256 141.566L209.748 141.947Z" fill="#171753" stroke="#171753" stroke-width="0.33189"/>
<path d="M260.912 88.7034C261.349 86.8352 263.015 85.2682 265.794 84.4122C271.372 82.7042 279.359 84.5495 283.61 88.5235C285.736 90.5104 286.533 92.6605 286.109 94.5211L285.145 98.683C284.709 100.551 283.042 102.118 280.263 102.974C274.686 104.682 266.698 102.837 262.447 98.863C260.321 96.876 259.512 94.7336 259.949 92.8654L260.912 88.7034Z" fill="#5ED9D1"/>
<path d="M282.968 102.183C284.339 101.291 285.225 100.115 285.528 98.7842C285.536 98.7455 285.54 98.7261 285.537 98.6951L286.491 94.6222C286.973 92.5412 286.049 90.2734 283.889 88.2589C279.541 84.214 271.38 82.3318 265.686 84.0656C262.887 84.9175 261.018 86.583 260.533 88.6329L259.57 92.7948C259.088 94.8758 260.012 97.1437 262.172 99.1582C266.52 103.203 274.681 105.085 280.375 103.352C281.36 103.045 282.229 102.663 282.968 102.183ZM284.782 98.5855L284.777 98.6049C284.361 100.376 282.689 101.831 280.159 102.608C274.702 104.271 266.877 102.47 262.718 98.5866C260.761 96.7567 259.911 94.7573 260.324 92.9548L261.287 88.7929C261.703 87.0214 263.376 85.5669 265.906 84.7895C271.363 83.1266 279.188 84.9274 283.347 88.8111C285.304 90.641 286.153 92.6404 285.733 94.4312L284.782 98.5855Z" fill="#171753"/>
<path d="M259.957 92.877L260.92 88.715C261.356 86.8468 263.023 85.2799 265.802 84.4238C266.884 84.0873 268.065 83.9031 269.284 83.828L265.328 100.959C264.253 100.357 263.28 99.6559 262.443 98.8822C260.31 96.8835 259.52 94.7452 259.957 92.877Z" fill="#171753"/>
<path d="M265.545 101.268C265.627 101.215 265.686 101.127 265.707 101.03L269.651 83.906C269.676 83.79 269.642 83.6616 269.57 83.5754C269.489 83.4775 269.377 83.4336 269.253 83.4477C267.965 83.5181 266.756 83.7368 265.686 84.0658C262.887 84.9177 261.018 86.5832 260.533 88.6331L259.57 92.7951C259.088 94.876 260.012 97.1439 262.172 99.1584C262.989 99.928 263.989 100.645 265.126 101.291C265.234 101.354 265.354 101.359 265.467 101.302C265.51 101.291 265.522 101.284 265.545 101.268ZM268.79 84.249L265.071 100.359C264.166 99.8136 263.381 99.2228 262.714 98.6062C260.757 96.7763 259.907 94.7769 260.32 92.9744L261.283 88.8124C261.699 87.041 263.372 85.5865 265.902 84.809C266.782 84.5206 267.761 84.3341 268.79 84.249Z" fill="#171753"/>
<path d="M263.41 94.701C259.147 90.7346 260.217 86.1201 265.794 84.4122C271.371 82.7042 279.359 84.5495 283.61 88.5234C287.881 92.5015 286.804 97.1043 281.226 98.8122C275.649 100.52 267.669 98.6867 263.41 94.701Z" fill="#171753"/>
<path d="M265.367 94.1025C261.93 90.9047 262.793 87.1843 267.289 85.8073C271.786 84.4303 278.226 85.918 281.653 89.122C285.096 92.3292 284.228 96.0401 279.731 97.4172C275.235 98.7942 268.801 97.3159 265.367 94.1025Z" fill="#ECFFFE"/>
<path d="M283.923 98.0095C285.529 96.9654 286.453 95.5643 286.596 93.9371C286.765 92.0425 285.8 90.0185 283.873 88.2355C279.526 84.1906 271.364 82.3085 265.67 84.0422C262.549 84.9874 260.622 86.9237 260.417 89.2755C260.248 91.17 261.213 93.194 263.139 94.977C267.487 99.0219 275.656 100.916 281.342 99.1703C282.323 98.883 283.185 98.4896 283.923 98.0095ZM263.524 85.8713C264.192 85.4369 265.007 85.074 265.906 84.7896C271.363 83.1268 279.188 84.9275 283.347 88.8112C285.085 90.433 285.956 92.2349 285.829 93.8856C285.712 95.2455 284.899 96.4578 283.504 97.3647C282.836 97.7991 282.021 98.1621 281.122 98.4464C275.665 100.109 267.84 98.3085 263.681 94.4248C261.943 92.803 261.072 91.0011 261.207 89.3622C261.328 87.9829 262.129 86.7782 263.524 85.8713Z" fill="#171753"/>
<path d="M281.727 102.84C281.809 102.786 281.868 102.698 281.889 102.601L282.852 98.4392C282.897 98.2265 282.767 98.0272 282.566 97.9744C282.354 97.9293 282.154 98.0589 282.102 98.2599L281.138 102.422C281.093 102.635 281.223 102.834 281.424 102.887C281.528 102.919 281.645 102.893 281.727 102.84ZM270.591 103.258C270.673 103.205 270.732 103.116 270.753 103.019L271.716 98.8575C271.761 98.6447 271.632 98.4454 271.431 98.3926C271.23 98.3399 271.019 98.4771 270.966 98.6781L270.003 102.84C269.957 103.053 270.087 103.252 270.288 103.305C270.412 103.341 270.509 103.311 270.591 103.258ZM268.025 102.441C268.107 102.388 268.167 102.299 268.187 102.202L269.15 98.0405C269.196 97.8277 269.066 97.6284 268.865 97.5757C268.652 97.5306 268.453 97.6601 268.4 97.8612L267.437 102.023C267.392 102.236 267.521 102.435 267.722 102.488C267.838 102.513 267.943 102.494 268.025 102.441Z" fill="#171753"/>
<path d="M243.845 50.9836C245.565 50.1657 247.834 50.4751 250.247 52.1086C255.068 55.3949 258.629 62.7699 258.193 68.5902C257.981 71.4965 256.807 73.4608 255.075 74.2863L251.226 76.1384C249.494 76.9638 247.237 76.6469 244.824 75.0134C240.002 71.7271 236.442 64.352 236.873 58.5511C237.085 55.6448 238.26 53.6805 239.992 52.855L243.845 50.9836Z" fill="#5ED9D1"/>
<path d="M255.784 74.3256C257.39 73.2815 258.387 71.2492 258.584 68.6026C259.021 62.6815 255.385 55.1388 250.467 51.7816C248.02 50.1205 245.613 49.701 243.678 50.625L239.829 52.477C237.937 53.3899 236.718 55.567 236.502 58.4927C236.053 64.4213 239.701 71.9564 244.619 75.3136C247.066 76.9747 249.454 77.3901 251.377 76.4738C251.4 76.4585 251.412 76.4509 251.435 76.4357L255.25 74.6065C255.425 74.5426 255.608 74.44 255.784 74.3256ZM239.717 53.4337C239.858 53.3422 240.018 53.2549 240.166 53.1751L244.015 51.3231C245.681 50.524 247.821 50.9172 250.03 52.4164C254.736 55.6278 258.236 62.8586 257.809 68.5393C257.612 71.1859 256.562 73.1362 254.908 73.9277L251.059 75.7797C251.059 75.7797 251.059 75.7797 251.047 75.7874C249.382 76.5865 247.242 76.1933 245.033 74.694C240.315 71.4903 236.827 64.2519 237.253 58.5712C237.448 56.1766 238.31 54.3482 239.717 53.4337Z" fill="#171753"/>
<path d="M239.996 52.8356L243.845 50.9836C245.565 50.1657 247.834 50.475 250.247 52.1085C251.182 52.7515 252.076 53.5375 252.892 54.4583L237.061 62.0981C236.862 60.8935 236.794 59.6865 236.874 58.5511C237.097 55.6372 238.272 53.6728 239.996 52.8356Z" fill="#171753"/>
<path d="M253.109 54.7672C253.191 54.7138 253.262 54.6177 253.283 54.521C253.307 54.4049 253.274 54.2765 253.182 54.1863C252.312 53.2338 251.403 52.4243 250.468 51.7814C248.013 50.1086 245.613 49.7008 243.678 50.6248L239.829 52.4768C237.938 53.3897 236.718 55.5668 236.502 58.4925C236.415 59.6162 236.479 60.8425 236.693 62.1209C236.707 62.2452 236.787 62.3431 236.895 62.4064C237.003 62.4697 237.135 62.4673 237.236 62.4181L253.066 54.7783C253.074 54.79 253.086 54.7824 253.109 54.7672ZM239.717 53.4335C239.858 53.342 240.018 53.2547 240.166 53.1749L244.016 51.3229C245.681 50.5238 247.821 50.917 250.03 52.4162C250.788 52.9408 251.533 53.5738 252.253 54.3229L237.359 61.5042C237.216 60.4631 237.192 59.4778 237.253 58.571C237.448 56.1764 238.31 54.348 239.717 53.4335Z" fill="#171753"/>
<path d="M240.727 56.6796C241.151 50.867 245.425 48.822 250.247 52.1084C255.068 55.3947 258.629 62.7698 258.193 68.59C257.758 74.4102 253.495 76.4475 248.673 73.1612C243.852 69.8748 240.303 62.4922 240.727 56.6796Z" fill="#171753"/>
<path d="M242.461 57.8619C242.801 53.2035 246.227 51.5646 250.091 54.1984C253.955 56.8321 256.809 62.7427 256.459 67.4072C256.11 72.0717 252.694 73.7045 248.83 71.0707C244.966 68.437 242.122 62.5203 242.461 57.8619Z" fill="#ECFFFE"/>
<path d="M255.784 74.3254C257.39 73.2813 258.387 71.2489 258.585 68.6023C259.021 62.6813 255.385 55.1386 250.468 51.7813C247.793 49.9509 245.129 49.6486 243.159 50.929C241.553 51.9731 240.556 54.0055 240.359 56.6521C239.91 62.5807 243.558 70.1158 248.476 73.4731C251.142 75.2918 253.803 75.6134 255.784 74.3254ZM243.567 51.5814C245.266 50.4763 247.617 50.7827 250.037 52.4279C254.755 55.6316 258.244 62.8701 257.817 68.5508C257.642 70.9494 256.772 72.7661 255.365 73.6806C253.665 74.7857 251.315 74.4793 248.894 72.8341C244.176 69.6304 240.688 62.3919 241.114 56.7112C241.289 54.3126 242.16 52.4959 243.567 51.5814Z" fill="#171753"/>
<path d="M250.019 74.1543C250.183 74.0476 250.236 73.8465 250.153 73.6672C250.062 73.4761 249.826 73.3958 249.635 73.4866L245.786 75.3387C245.595 75.4296 245.515 75.6652 245.605 75.8563C245.696 76.0474 245.932 76.1277 246.123 76.0368L249.972 74.1848C249.996 74.1695 250.008 74.1619 250.019 74.1543ZM242.736 65.7473C242.9 65.6406 242.953 65.4395 242.87 65.2601C242.779 65.069 242.543 64.9888 242.352 65.0796L238.503 66.9317C238.323 67.0149 238.231 67.2582 238.322 67.4493C238.413 67.6404 238.649 67.7207 238.84 67.6298L242.689 65.7777C242.712 65.7625 242.724 65.7549 242.736 65.7473ZM241.764 63.2268C241.929 63.1201 241.981 62.919 241.898 62.7396C241.807 62.5485 241.572 62.4683 241.38 62.5591L237.531 64.4112C237.34 64.502 237.26 64.7377 237.351 64.9288C237.441 65.1199 237.677 65.2002 237.868 65.1093L241.718 63.2572C241.741 63.242 241.753 63.2344 241.764 63.2268Z" fill="#171753"/>
<path d="M201.115 56.5982C199.375 55.7946 198.18 53.8533 197.895 50.9529C197.349 45.1369 200.755 37.7027 205.514 34.3253C207.884 32.6346 210.161 32.2886 211.893 33.0804L215.77 34.8626C217.51 35.6662 218.705 37.6075 218.99 40.5079C219.535 46.3239 216.13 53.7581 211.371 57.1355C209.001 58.8262 206.724 59.1722 204.992 58.3804L201.115 56.5982Z" fill="#5ED9D1"/>
<path d="M211.181 57.7422C211.322 57.6508 211.463 57.5593 211.607 57.4485C216.46 54.0102 219.946 46.3908 219.382 40.4698C219.098 37.519 217.889 35.403 215.945 34.5157L212.056 32.741C210.123 31.8461 207.717 32.2759 205.297 34.0165C200.456 37.4472 196.97 45.0666 197.522 50.9952C197.806 53.946 199.015 56.062 200.959 56.9494L204.837 58.7316C206.661 59.5633 208.907 59.2208 211.181 57.7422ZM206.123 34.3634C208.162 33.0373 210.152 32.7113 211.718 33.4275L215.615 35.2138C217.3 35.9857 218.365 37.879 218.617 40.5502C219.152 46.2226 215.814 53.5296 211.161 56.8384C208.963 58.3837 206.841 58.813 205.167 58.0335L201.278 56.2588C199.603 55.4793 198.539 53.586 198.275 50.9225C197.74 45.25 201.078 37.943 205.732 34.6343C205.865 34.5311 205.994 34.4473 206.123 34.3634Z" fill="#171753"/>
<path d="M204.992 58.3804L201.103 56.6058C199.363 55.8023 198.168 53.8609 197.883 50.9605C197.78 49.8269 197.821 48.6328 198.005 47.4288L213.977 54.7572C213.175 55.6787 212.293 56.5023 211.366 57.1548C209.001 58.8262 206.732 59.184 204.992 58.3804Z" fill="#171753"/>
<path d="M211.181 57.7422C211.322 57.6507 211.463 57.5593 211.607 57.4485C212.534 56.796 213.428 55.9647 214.293 54.9857C214.371 54.9013 214.4 54.7659 214.374 54.6492C214.348 54.5326 214.268 54.4347 214.16 54.3714L198.188 47.043C198.076 46.9991 197.956 46.9938 197.843 47.0507C197.738 47.1193 197.667 47.2154 197.642 47.3315C197.453 48.6053 197.427 49.8228 197.53 50.9564C197.814 53.9072 199.023 56.0233 200.968 56.9106L204.837 58.7316C206.661 59.5632 208.907 59.2207 211.181 57.7422ZM213.348 54.8662C212.641 55.626 211.904 56.2884 211.153 56.8266C208.956 58.3719 206.833 58.8012 205.159 58.0217L201.27 56.247C199.596 55.4675 198.532 53.5742 198.268 50.9107C198.189 49.9945 198.197 49.0056 198.313 47.9792L213.348 54.8662Z" fill="#171753"/>
<path d="M207.493 55.3533C202.746 58.723 198.445 56.7497 197.907 50.9454C197.361 45.1294 200.767 37.6952 205.526 34.3178C210.273 30.9481 214.574 32.9214 215.112 38.7257C215.658 44.5418 212.241 51.9836 207.493 55.3533Z" fill="#171753"/>
<path d="M207.285 53.1267C203.543 55.783 200.152 54.2274 199.728 49.6519C199.298 45.0672 201.982 39.2068 205.734 36.5445C209.476 33.8881 212.867 35.4437 213.291 40.0192C213.721 44.604 211.027 50.4703 207.285 53.1267Z" fill="#ECFFFE"/>
<path d="M207.285 55.9559C207.425 55.8645 207.566 55.773 207.699 55.6698C212.552 52.2315 216.037 44.6121 215.474 38.6911C215.201 35.7831 214.007 33.6905 212.11 32.7727C210.166 31.835 207.729 32.2684 205.27 34.0007C200.429 37.4314 196.931 45.0585 197.495 50.9794C197.768 53.8874 198.962 55.98 200.859 56.8978C202.71 57.7957 204.987 57.4497 207.285 55.9559ZM206.122 34.3635C208.197 33.0145 210.206 32.6926 211.791 33.4633C213.43 34.2656 214.467 36.1431 214.72 38.7639C215.256 44.4363 211.918 51.7433 207.264 55.052C207.135 55.1359 207.002 55.2391 206.873 55.3229C204.798 56.6718 202.789 56.9938 201.204 56.2231C199.565 55.4208 198.528 53.5433 198.275 50.9225C197.74 45.2501 201.078 37.9431 205.732 34.6343C205.865 34.5312 205.994 34.4473 206.122 34.3635Z" fill="#171753"/>
<path d="M215.845 52.859C215.904 52.8209 215.955 52.7711 215.99 52.6978C216.082 52.505 215.999 52.2752 215.806 52.1838L211.918 50.4091C211.725 50.3177 211.495 50.4003 211.403 50.5932C211.312 50.7861 211.395 51.0158 211.588 51.1073L215.476 52.8819C215.596 52.9376 215.74 52.9276 215.845 52.859ZM217.171 50.5125C217.23 50.4743 217.281 50.4245 217.317 50.3512C217.408 50.1584 217.326 49.9286 217.133 49.8372L213.244 48.0625C213.051 47.9711 212.821 48.0538 212.73 48.2466C212.638 48.4395 212.721 48.6693 212.914 48.7607L216.803 50.5353C216.922 50.591 217.066 50.581 217.171 50.5125ZM218.997 39.5191C219.056 39.481 219.107 39.4312 219.142 39.3579C219.234 39.165 219.151 38.9352 218.958 38.8438L215.07 37.0692C214.877 36.9777 214.647 37.0604 214.555 37.2533C214.464 37.4461 214.547 37.6759 214.74 37.7673L218.628 39.542C218.756 39.6094 218.892 39.5877 218.997 39.5191Z" fill="#171753"/>
<path d="M153.02 51.1909C153.131 49.2841 154.483 47.4381 157.077 46.1184C162.277 43.4714 170.456 43.8916 175.341 47.0701C177.793 48.6614 178.941 50.6332 178.838 52.5518L178.61 56.8192C178.499 58.7261 177.147 60.572 174.553 61.8917C169.353 64.5387 161.174 64.1185 156.289 60.94C153.837 59.3487 152.689 57.3769 152.792 55.4583L153.02 51.1909Z" fill="#5ED9D1"/>
<path d="M175.793 61.6191C177.763 60.3388 178.911 58.6417 179.009 56.8433L179.237 52.5759C179.355 50.448 178.056 48.3736 175.569 46.7548C170.584 43.5247 162.22 43.0752 156.926 45.7832C154.32 47.1105 152.761 49.0743 152.66 51.1752L152.432 55.4426C152.322 57.5822 153.613 59.6448 156.111 61.2561C161.096 64.4861 169.461 64.9356 174.755 62.2277C175.11 62.0301 175.465 61.8325 175.793 61.6191ZM156.256 47.0359C156.561 46.8378 156.897 46.6361 157.248 46.4579C162.335 43.8677 170.35 44.2938 175.132 47.3897C177.38 48.8467 178.561 50.6638 178.45 52.5202L178.223 56.7877C178.135 58.3457 177.125 59.8195 175.367 60.9626C175.062 61.1608 174.718 61.3507 174.375 61.5407C169.288 64.1308 161.272 63.7047 156.491 60.6089C154.243 59.1518 153.073 57.3271 153.172 55.4783L153.4 51.2109C153.488 49.6528 154.498 48.1791 156.256 47.0359Z" fill="#171753"/>
<path d="M152.792 55.4583L153.02 51.1909C153.131 49.2841 154.483 47.4381 157.077 46.1184C158.095 45.6066 159.221 45.2085 160.403 44.9235L159.483 62.4662C158.316 62.0571 157.244 61.5367 156.282 60.9283C153.849 59.3411 152.693 57.3576 152.792 55.4583Z" fill="#171753"/>
<path d="M159.696 62.7944C159.802 62.7258 159.865 62.618 159.87 62.4978L160.795 44.9358C160.8 44.8156 160.755 44.6948 160.659 44.6239C160.562 44.553 160.439 44.5167 160.322 44.5425C159.066 44.8421 157.917 45.2554 156.918 45.7714C154.312 47.0987 152.754 49.0625 152.652 51.1634L152.424 55.4308C152.314 57.5704 153.605 59.633 156.103 61.2442C157.054 61.8602 158.153 62.3965 159.386 62.8296C159.478 62.8695 159.603 62.8554 159.696 62.7944ZM159.994 45.4229L159.132 61.9269C158.152 61.5471 157.276 61.0988 156.503 60.6012C154.255 59.1441 153.085 57.3194 153.184 55.4706L153.412 51.2032C153.514 49.3854 154.88 47.6637 157.267 46.4619C158.075 46.0368 158.998 45.6868 159.994 45.4229Z" fill="#171753"/>
<path d="M156.509 56.6609C151.624 53.4825 151.877 48.7655 157.077 46.1184C162.277 43.4714 170.456 43.8917 175.341 47.0702C180.226 50.2486 179.973 54.9657 174.773 57.6127C169.572 60.2597 161.406 59.8318 156.509 56.6609Z" fill="#171753"/>
<path d="M158.396 55.6999C154.49 53.1585 154.692 49.3868 158.85 47.2704C163.008 45.1539 169.548 45.4899 173.454 48.0313C177.359 50.5728 177.158 54.3444 173 56.4609C168.841 58.5774 162.312 58.2352 158.396 55.6999Z" fill="#ECFFFE"/>
<path d="M176.013 57.34C178.088 55.991 179.226 54.2007 179.225 52.3003C179.233 50.2604 177.914 48.2828 175.542 46.7389C170.557 43.5089 162.193 43.0594 156.899 45.7673C154.168 47.1591 152.62 49.2162 152.618 51.419C152.61 53.4589 153.929 55.4366 156.3 56.9804C161.285 60.2105 169.649 60.66 174.944 57.952C175.337 57.7627 175.685 57.5534 176.013 57.34ZM156.256 47.0359C156.561 46.8377 156.897 46.636 157.248 46.4578C162.335 43.8677 170.35 44.2938 175.132 47.3896C177.272 48.7834 178.458 50.5307 178.457 52.2992C178.453 53.9358 177.446 55.4911 175.594 56.6952C175.289 56.8934 174.953 57.095 174.602 57.2733C169.515 59.8634 161.5 59.4373 156.719 56.3414C154.578 54.9477 153.392 53.2004 153.393 51.4319C153.397 49.7952 154.415 48.2324 156.256 47.0359Z" fill="#171753"/>
<path d="M175.903 61.5312C176.008 61.4626 176.072 61.3548 176.077 61.2346L176.304 56.9672C176.319 56.7579 176.146 56.5698 175.945 56.5675C175.735 56.5534 175.547 56.7258 175.545 56.9274L175.317 61.1948C175.303 61.4041 175.468 61.5805 175.677 61.5946C175.766 61.6033 175.844 61.5693 175.903 61.5312ZM173.137 62.8955C173.243 62.8269 173.306 62.719 173.311 62.5989L173.539 58.3315C173.553 58.1222 173.388 57.9458 173.179 57.9317C172.97 57.9177 172.782 58.09 172.779 58.2917L172.552 62.5591C172.538 62.7683 172.702 62.9448 172.912 62.9588C173.001 62.9676 173.079 62.9336 173.137 62.8955ZM162.352 63.5194C162.458 63.4509 162.521 63.343 162.526 63.2228L162.754 58.9554C162.768 58.7461 162.596 58.558 162.394 58.5557C162.185 58.5416 161.997 58.714 161.994 58.9156L161.767 63.183C161.752 63.3923 161.925 63.5804 162.126 63.5828C162.208 63.5798 162.282 63.5652 162.352 63.5194Z" fill="#171753"/>
<path fill-rule="evenodd" clip-rule="evenodd" d="M161.378 47.2838C161.332 47.2174 161.358 47.1466 161.436 47.1257L162.85 46.7467C162.928 46.7258 163.029 46.7628 163.074 46.8292L163.871 47.9854C163.912 48.0446 163.997 48.0812 164.073 48.0737C164.477 48.0334 164.88 48.0363 165.282 48.0821C166.003 48.1646 166.673 48.369 167.292 48.6953C167.864 48.988 168.359 49.3738 168.778 49.8528C168.837 49.9201 168.814 49.9984 168.731 50.0207L167.179 50.4366C167.109 50.4552 167.021 50.4278 166.966 50.3739C166.745 50.1562 166.495 49.9835 166.216 49.8559C165.897 49.7103 165.553 49.6235 165.184 49.5957C164.822 49.5659 164.46 49.5994 164.099 49.6963C163.737 49.7933 163.453 49.9328 163.246 50.1149C163.039 50.2971 162.907 50.5114 162.849 50.7579C162.799 51.0024 162.816 51.2738 162.899 51.5721C162.985 51.8621 163.141 52.1707 163.367 52.498C163.588 52.8189 163.84 53.1018 164.122 53.3467C164.408 53.5833 164.716 53.7765 165.047 53.9265C165.38 54.0681 165.728 54.1539 166.09 54.1837C166.447 54.2072 166.81 54.1696 167.179 54.0706C167.741 53.9203 168.133 53.6773 168.356 53.3416C168.568 53.0319 168.598 52.683 168.447 52.2949C168.423 52.2335 168.452 52.1754 168.52 52.157L170.059 51.7446C170.144 51.722 170.252 51.7669 170.288 51.8413C170.518 52.3153 170.614 52.7849 170.576 53.2501C170.537 53.7524 170.321 54.2056 169.926 54.6096C169.689 54.8488 169.382 55.0536 169.005 55.224C168.943 55.2524 168.925 55.317 168.967 55.3771L169.733 56.488C169.778 56.5544 169.752 56.6252 169.674 56.6461L168.26 57.0251C168.182 57.046 168.082 57.009 168.036 56.9426L167.249 55.8005C167.209 55.7424 167.126 55.7059 167.051 55.7117C166.717 55.7378 166.391 55.7333 166.071 55.6983C165.395 55.6185 164.77 55.4469 164.195 55.1836C163.615 54.9139 163.103 54.5963 162.659 54.2308C162.217 53.857 161.862 53.4751 161.593 53.0849L161.45 52.8773C161.155 52.4494 160.946 52.006 160.822 51.5471C160.694 51.082 160.679 50.635 160.777 50.2062C160.882 49.7754 161.12 49.3911 161.491 49.0532C161.672 48.8851 161.892 48.7357 162.151 48.6049C162.21 48.5752 162.225 48.5123 162.184 48.454L161.378 47.2838Z" fill="#171753"/>
<path d="M129.653 97.5696C128.012 96.5849 127.023 94.5258 127.065 91.6136C127.14 85.7776 131.321 78.7402 136.411 75.898C138.956 74.4769 141.234 74.3636 142.886 75.3406L146.557 77.5239C148.198 78.5085 149.186 80.5677 149.145 83.4798C149.07 89.3159 144.889 96.3533 139.799 99.1955C137.254 100.617 134.968 100.718 133.323 99.7528L129.653 97.5696Z" fill="#5ED9D1"/>
<path d="M140.742 99.0822C145.596 95.927 149.452 89.0836 149.529 83.4803C149.571 80.5178 148.58 78.2763 146.739 77.1885C146.712 77.1727 146.693 77.1686 146.666 77.1527L143.068 75.0053C141.239 73.9098 138.793 74.0988 136.213 75.5427C131.01 78.4418 126.749 85.7149 126.673 91.6013C126.631 94.5638 127.621 96.8053 129.462 97.8931L133.133 100.076C134.975 101.164 137.408 100.983 139.989 99.5389C140.25 99.4023 140.496 99.2422 140.742 99.0822ZM146.355 77.855C147.942 78.808 148.803 80.7998 148.772 83.4716C148.707 88.8346 145.001 95.3966 140.335 98.4298C140.101 98.5822 139.858 98.7229 139.616 98.8636C137.278 100.167 135.123 100.367 133.525 99.4216L129.854 97.2383C128.267 96.2853 127.406 94.2936 127.448 91.6141C127.521 85.9798 131.616 79.015 136.593 76.2297C138.931 74.9264 141.086 74.7264 142.684 75.6718L146.355 77.855Z" fill="#171753"/>
<path d="M133.331 99.7645L129.66 97.5813C128.019 96.5966 127.031 94.5374 127.072 91.6253C127.089 90.4969 127.262 89.3005 127.563 88.1211L142.658 97.1031C141.753 97.942 140.802 98.6601 139.807 99.2071C137.261 100.628 134.964 100.737 133.331 99.7645Z" fill="#171753"/>
<path d="M140.731 99.0899C141.469 98.6097 142.197 98.0364 142.915 97.3698C143.013 97.2895 143.049 97.1658 143.035 97.0416C143.021 96.9173 142.952 96.8118 142.844 96.7485L127.749 87.7665C127.641 87.7032 127.521 87.6979 127.4 87.743C127.291 87.7806 127.209 87.8843 127.172 88.008C126.855 89.2648 126.682 90.4612 126.673 91.6013C126.631 94.5639 127.621 96.8054 129.463 97.8932L133.133 100.076C134.975 101.164 137.409 100.983 139.989 99.5389C140.239 99.41 140.485 99.2499 140.731 99.0899ZM142.01 97.1577C141.226 97.8506 140.428 98.4193 139.617 98.8637C137.278 100.167 135.124 100.367 133.525 99.4216L129.854 97.2384C128.267 96.2854 127.406 94.2936 127.449 91.6142C127.463 90.6874 127.579 89.7114 127.812 88.7096L142.01 97.1577Z" fill="#171753"/>
<path d="M136.136 97.0239C131.053 99.8778 126.989 97.4496 127.065 91.6136C127.14 85.7775 131.32 78.7401 136.411 75.8979C141.493 73.044 145.557 75.4722 145.482 81.3083C145.399 87.1325 141.218 94.17 136.136 97.0239Z" fill="#171753"/>
<path d="M136.161 95.0263C132.04 97.3405 128.745 95.3715 128.806 90.639C128.867 85.9065 132.257 80.1997 136.384 77.895C140.506 75.5807 143.801 77.5498 143.74 82.2823C143.673 87.0053 140.283 92.712 136.161 95.0263Z" fill="#ECFFFE"/>
<path d="M137.072 96.8989C141.925 93.7437 145.782 86.9004 145.858 81.2971C145.9 78.3345 144.91 76.093 143.068 75.0052C141.239 73.9098 138.801 74.1105 136.221 75.5544C131.017 78.4535 126.756 85.7266 126.681 91.613C126.639 94.5755 127.629 96.817 129.47 97.9048C131.3 99.0002 133.738 98.7996 136.318 97.3556C136.579 97.219 136.825 97.059 137.072 96.8989ZM135.874 76.6635C136.109 76.5111 136.351 76.3704 136.593 76.2297C138.931 74.9264 141.086 74.7264 142.684 75.6717C144.283 76.6171 145.133 78.6165 145.09 81.2959C145.024 86.6589 141.318 93.2209 136.653 96.2542C136.383 96.379 136.176 96.5473 135.934 96.688C133.596 97.9912 131.441 98.1913 129.854 97.2383C128.255 96.2929 127.406 94.2935 127.429 91.61C127.522 86.2628 131.22 79.6891 135.874 76.6635Z" fill="#171753"/>
<path d="M144.745 95.413C144.792 95.3825 144.831 95.3403 144.862 95.2864C144.973 95.0976 144.91 94.8719 144.733 94.7536L141.062 92.5703C140.873 92.4595 140.648 92.5229 140.529 92.6999C140.418 92.8887 140.482 93.1143 140.659 93.2327L144.33 95.416C144.464 95.4951 144.627 95.4892 144.745 95.413ZM149.218 85.5672C149.265 85.5367 149.304 85.4945 149.335 85.4405C149.446 85.2518 149.383 85.0261 149.206 84.9077L147.37 83.8161L145.535 82.7245C145.346 82.6137 145.121 82.677 145.002 82.8541C144.891 83.0428 144.955 83.2685 145.144 83.3793L148.814 85.5625C148.937 85.6493 149.1 85.6434 149.218 85.5672ZM149.296 82.4809C149.343 82.4504 149.382 82.4082 149.414 82.3543C149.525 82.1655 149.461 81.9399 149.272 81.8291L145.602 79.6459C145.413 79.5351 145.187 79.5984 145.069 79.7754C144.958 79.9642 145.021 80.1899 145.198 80.3083L148.869 82.4915C149.023 82.5747 149.179 82.5571 149.296 82.4809Z" fill="#171753"/>
<path d="M275.918 92.2979C276.124 91.9288 276.579 91.7234 276.943 91.8357C277.306 91.9479 277.432 92.333 277.226 92.7021C277.02 93.0712 276.565 93.2767 276.201 93.1644C275.838 93.0521 275.719 92.6547 275.918 92.2979Z" fill="#171753"/>
<path d="M279.123 95.0621C278.99 95.2481 278.857 95.4341 278.693 95.5971C278.143 96.1887 277.401 96.6541 276.544 96.7765C275.379 96.9244 274.371 96.426 273.633 95.8106C272.599 96.0655 272.599 96.0655 272.599 96.0655C272.367 96.1141 272.238 95.8739 272.433 95.7338C272.202 95.7025 272.241 95.501 272.386 95.3721C272.142 95.4435 272.119 95.1695 272.295 95.0636C272.409 94.9917 272.566 94.9199 272.685 94.8633C271.924 93.9738 271.333 92.9898 270.723 92.0134C271.106 92.5057 272.766 94.2471 273.194 94.6331C273.64 95.0381 274.086 95.4431 274.615 95.7533C275.056 96.0099 275.661 96.2633 276.268 96.1438C276.819 96.0469 277.242 95.6298 277.54 95.2275C278.198 94.3623 278.421 93.2291 278.33 92.2926C278.233 91.3143 277.742 90.3078 276.853 89.7527C276.53 89.546 276.156 89.4305 275.775 89.3796C274.894 89.2546 273.904 89.4831 273.025 89.8794C271.757 90.4493 270.63 91.29 269.559 92.1347C268.835 92.699 267.433 94.1894 266.648 93.1856C266.302 92.7315 266.264 92.1187 266.32 91.5481C266.369 90.9356 266.595 90.1639 267.081 89.6329C268.111 88.5217 269.377 90.1818 269.797 90.7656C269.766 90.7426 268.619 89.6538 267.797 89.9742C267.421 90.1251 267.204 90.5391 267.076 90.8468C266.852 91.4054 266.694 92.2915 267.077 92.7572C267.578 93.3527 268.595 92.2909 269.011 91.9385C269.71 91.3399 270.397 90.7373 271.128 90.1616C271.934 89.5291 272.809 88.931 273.782 88.5236C273.727 88.3332 273.63 88.0892 273.725 87.8917C273.821 87.6675 274.191 87.5015 274.377 87.6924C274.256 87.3076 274.89 86.9827 275.169 87.2691C275.134 86.9646 275.587 86.7303 275.867 86.8303C276.029 86.8804 276.121 87.0557 276.201 87.174C276.418 87.4678 276.627 87.773 276.856 88.0707C280.209 88.5854 280.841 92.5607 279.123 95.0621Z" fill="#171753"/>
<path d="M208.521 42.588C208.526 42.1746 208.795 41.7082 209.127 41.5388C209.458 41.3693 209.719 41.5645 209.714 41.978C209.708 42.3915 209.439 42.8579 209.107 43.0273C208.776 43.1968 208.516 42.9877 208.521 42.588Z" fill="#171753"/>
<path d="M212.191 42.3954C212.165 42.624 212.139 42.8526 212.08 43.0858C211.9 43.9005 211.516 44.7561 210.898 45.4401C210.05 46.3553 209.052 46.6881 208.216 46.7482C207.515 47.6516 207.515 47.6516 207.515 47.6516C207.355 47.8478 207.152 47.761 207.246 47.5231C207.052 47.6602 206.998 47.485 207.057 47.29C206.896 47.5118 206.763 47.3263 206.856 47.1266C206.914 46.9955 207.006 46.8341 207.076 46.7099C206.106 46.5844 205.23 46.272 204.341 45.9782C204.848 46.074 206.879 46.2019 207.376 46.1886C207.896 46.1765 208.415 46.1643 208.959 46.0257C209.412 45.9081 209.991 45.6754 210.416 45.1668C210.805 44.7139 210.96 44.115 211.023 43.6137C211.173 42.5229 210.869 41.537 210.403 40.9132C209.915 40.2628 209.107 39.8645 208.178 40.0732C207.839 40.1454 207.498 40.3198 207.179 40.5464C206.438 41.0647 205.761 41.9182 205.241 42.8179C204.49 44.1147 203.964 45.5122 203.483 46.8737C203.155 47.7895 202.688 49.8541 201.651 49.6614C201.19 49.5679 200.902 49.1447 200.704 48.6877C200.485 48.2041 200.336 47.4814 200.492 46.755C200.828 45.2265 202.518 45.5671 203.092 45.7046C203.058 45.7092 201.703 45.7048 201.195 46.5094C200.965 46.8809 200.97 47.3346 201 47.649C201.06 48.214 201.31 48.9737 201.806 49.0498C202.449 49.1396 202.795 47.6564 202.972 47.1098C203.266 46.1859 203.549 45.2678 203.877 44.3393C204.241 43.3167 204.672 42.272 205.261 41.2991C205.138 41.1971 204.958 41.0859 204.95 40.8747C204.93 40.6439 205.15 40.2654 205.375 40.2768C205.118 40.0786 205.477 39.4007 205.816 39.4177C205.66 39.2183 205.915 38.7331 206.176 38.6121C206.324 38.5365 206.47 38.6014 206.582 38.6326C206.875 38.6984 207.168 38.777 207.472 38.837C210.309 36.8918 212.478 39.3702 212.191 42.3954Z" fill="#171753"/>
<g clip-path="url(#clip0_1711_1651)">
<path d="M138.658 78.6394L138.433 79.0176L135.002 89.2913L135.074 89.3711L140.904 85.4461L138.658 78.6394Z" fill="#1A4063"/>
<path d="M138.658 78.6395L131.127 87.6583L135.074 89.3712L136.739 84.3846L138.658 78.6395Z" fill="#177593" fill-opacity="0.62"/>
<path d="M134.772 90.274L134.688 90.3592L133.466 94.0189L133.469 94.1767L140.605 86.3498L134.772 90.274Z" fill="#1A4063"/>
<path d="M133.469 94.1768L134.772 90.2741L130.825 88.5627L133.469 94.1768Z" fill="#177593" fill-opacity="0.62"/>
<path d="M135.074 89.3711L140.904 85.4461L136.739 84.3846L135.074 89.3711Z" fill="#030332"/>
<path d="M131.127 87.6583L135.074 89.3711L136.739 84.3847L131.127 87.6583Z" fill="#1B658E"/>
</g>
<g clip-path="url(#clip1_1711_1651)">
<path d="M245.907 59.7145C245.999 59.7625 246.074 59.8355 246.116 59.9183L249.864 67.4333C249.932 67.5706 249.783 67.6651 249.627 67.5831L247.244 66.3294C247.153 66.2814 247.077 66.2084 247.036 66.1256L243.288 58.6106C243.219 58.4733 243.368 58.3788 243.524 58.4608L245.907 59.7145Z" fill="#171753"/>
<path d="M252.041 58.8525C252.133 58.9029 252.209 58.9759 252.249 59.0564L255.997 66.5713C256.066 66.7087 255.917 66.8031 255.761 66.7211L253.378 65.4674C253.286 65.4194 253.211 65.3465 253.169 65.2636L249.421 57.7486C249.353 57.6113 249.502 57.5169 249.658 57.5988L252.041 58.8525Z" fill="#171753"/>
<path d="M252.165 65.638C252.199 65.5723 252.197 65.4891 252.156 65.4062L248.407 57.8912C248.339 57.7539 248.121 57.711 248.062 57.8232L247.16 59.5385C247.125 59.6042 247.128 59.6875 247.169 59.7704L250.917 67.2853C250.986 67.4226 251.203 67.4655 251.262 67.3534L252.165 65.638Z" fill="#171753"/>
</g>
<path d="M171.41 109.687C171.41 109.687 168.594 110.202 168.594 114V122.579H172.144L171.41 109.687Z" fill="#171753" stroke="#171753" stroke-width="0.167788" stroke-miterlimit="10"/>
<path d="M169.623 112.041C169.948 111.667 170.337 111.353 170.771 111.113L183.195 103.93L182.301 102.374L169.877 109.563C169.259 109.906 168.706 110.357 168.244 110.894L169.623 112.041Z" fill="#ECFFFE"/>
<path d="M176.054 88.6256L222.348 61.8903C224.761 60.6411 227.498 60.1562 230.193 60.5C231.602 60.6308 232.978 61.0073 234.257 61.6122C235.606 62.2807 236.517 63.1563 236.813 64.0793C237.204 65.3039 236.405 66.6292 234.684 67.629L188.36 94.3644C187.117 95.0868 186.085 96.1226 185.368 97.3684C184.65 98.6141 184.272 100.026 184.271 101.464V139.298L185.668 138.399L186.691 142.747L175.421 149.255L175.119 149.427C174.92 149.54 174.694 149.598 174.465 149.597C174.236 149.595 174.012 149.533 173.814 149.418C173.616 149.302 173.453 149.137 173.339 148.938C173.225 148.739 173.166 148.514 173.167 148.285V93.6485C173.167 92.632 173.434 91.6333 173.94 90.752C174.447 89.8707 175.176 89.1375 176.054 88.6256Z" fill="#171753" stroke="#171753" stroke-width="0.167788" stroke-miterlimit="10"/>
<path d="M179.195 147.764V92.9559L229.915 65.3213L231.216 66.191L183.697 146.906L180.698 148.633L179.195 147.764Z" fill="#171753" stroke="#171753" stroke-width="0.469807" stroke-miterlimit="10"/>
<path d="M182.089 94.6249V149.439L183.598 150.308L232.927 121.828V65.7597L182.089 94.6249Z" fill="#171753" stroke="#171753" stroke-width="0.167788" stroke-miterlimit="10"/>
<path d="M233.932 118.703C233.252 118.326 232.517 118.057 231.755 117.904C231.512 118.283 231.281 118.673 231.074 119.087C231.551 119.182 232.01 119.349 232.435 119.584C233.234 120.052 233.618 120.691 233.524 121.359C233.451 121.643 233.317 121.907 233.132 122.134C232.947 122.36 232.716 122.544 232.453 122.673L184.058 150.609L185.561 151.479L233.956 123.542C234.368 123.343 234.732 123.056 235.022 122.702C235.313 122.347 235.522 121.933 235.636 121.489C235.807 120.43 235.186 119.431 233.932 118.703Z" fill="#8989C7" stroke="#171753" stroke-width="0.167788" stroke-miterlimit="10"/>
<path d="M235.425 120.802V66.2572L231.467 69.5145L231.45 69.5278L231.432 69.5381L184.288 95.8986V150.439L185.558 151.171L235.425 120.802Z" fill="#8989C7" stroke="#171753" stroke-width="0.469807" stroke-miterlimit="10"/>
<path d="M185.562 96.63L184.059 95.7603L232.454 67.818C232.716 67.6902 232.947 67.5071 233.132 67.2814C233.317 67.0558 233.451 66.7928 233.524 66.5106C233.631 65.8598 233.235 65.2208 232.436 64.7357C231.504 64.244 230.452 64.0246 229.401 64.1027C228.609 64.1384 227.835 64.3506 227.135 64.7239L178.74 92.6662L177.232 91.7965L225.626 63.8542C226.72 63.2652 227.934 62.9334 229.176 62.8839C230.815 62.7619 232.456 63.1043 233.909 63.8719C235.163 64.5937 235.784 65.5935 235.613 66.6111C235.499 67.055 235.29 67.4687 235 67.8233C234.709 68.1778 234.345 68.4648 233.933 68.6641L185.562 96.63Z" fill="#ECFFFE" stroke="#171753" stroke-width="0.469807" stroke-miterlimit="10"/>
<path d="M183.598 95.494L182.095 94.6243L230.52 66.6642C230.589 66.6323 230.651 66.5848 230.699 66.5252C230.747 66.4657 230.781 66.3958 230.798 66.3211C230.803 66.2252 230.778 66.13 230.728 66.0485C230.677 65.967 230.602 65.9031 230.514 65.8655C230.271 65.7342 229.996 65.6766 229.721 65.6999C229.513 65.7073 229.31 65.7641 229.129 65.8655L180.705 93.8197L179.196 92.95L227.621 64.9959C228.201 64.6842 228.844 64.5082 229.502 64.4811C230.371 64.4141 231.24 64.5946 232.01 65.0018C232.294 65.1186 232.533 65.3212 232.696 65.5811C232.858 65.8411 232.935 66.1454 232.916 66.4512C232.854 66.6849 232.743 66.9026 232.59 67.0894C232.437 67.2762 232.245 67.4278 232.028 67.5339L183.598 95.494Z" fill="#ECFFFE" stroke="#171753" stroke-width="0.469807" stroke-miterlimit="10"/>
<path d="M170.765 93.6425V147.166C170.765 148.279 171.356 148.693 172.315 149.243C172.781 149.518 173.314 149.664 173.856 149.664C174.398 149.664 174.93 149.518 175.397 149.243L180.521 146.525L180.533 143.774L174.196 147.184C174.092 147.249 173.972 147.284 173.85 147.284C173.727 147.284 173.607 147.249 173.504 147.184C173.398 147.125 173.31 147.039 173.248 146.935C173.186 146.832 173.152 146.714 173.149 146.593V93.6425C173.151 92.6271 173.419 91.63 173.926 90.7507C174.434 89.8714 175.163 89.1406 176.042 88.6314L222.348 61.8901C224.763 60.6452 227.498 60.1624 230.193 60.5057C231.606 60.6263 232.985 61.0032 234.263 61.618H234.287C235.653 62.3091 236.536 63.1588 236.831 64.0791C237.221 65.3038 236.423 66.629 234.701 67.6288L188.377 94.3642C187.135 95.0861 186.104 96.121 185.387 97.3656C184.669 98.6103 184.291 100.021 184.289 101.458V154.361C184.289 156.191 184.756 156.447 185.56 156.888C185.647 156.936 185.738 156.986 185.833 157.041C186.303 157.316 186.838 157.461 187.383 157.461C187.928 157.461 188.463 157.316 188.933 157.041L211.285 144.137C211.166 143.28 211.066 142.416 210.971 141.552L187.732 154.97C187.626 155.035 187.505 155.07 187.38 155.07C187.256 155.07 187.134 155.035 187.028 154.97C186.923 154.911 186.835 154.825 186.773 154.721C186.712 154.617 186.679 154.499 186.679 154.378V101.458C186.679 100.441 186.947 99.4414 187.456 98.5607C187.965 97.68 188.697 96.9489 189.578 96.4408L235.89 69.6936C236.745 69.2189 237.503 68.5889 238.126 67.8359C238.66 67.2349 239.03 66.5067 239.201 65.7214C239.372 64.936 239.338 64.1199 239.103 63.3514C238.604 61.7952 237.317 60.4662 235.377 59.4978L235.364 59.4763C233.829 58.7515 232.183 58.2915 230.495 58.1156C227.283 57.7265 224.028 58.325 221.165 59.8313L174.835 86.5726C173.601 87.296 172.576 88.3284 171.863 89.5681C171.149 90.8078 170.771 92.212 170.765 93.6425Z" fill="#ECFFFE" stroke="#171753" stroke-width="0.469807" stroke-miterlimit="10"/>
<path d="M178.734 92.69V147.504L177.231 146.634V91.8203L178.734 92.69Z" fill="#8989C7" stroke="#171753" stroke-width="0.469807" stroke-miterlimit="10"/>
<path d="M180.509 93.8736V148.687L179.007 147.818V93.0039L180.509 93.8736Z" fill="#8989C7" stroke="#171753" stroke-width="0.469807" stroke-miterlimit="10"/>
<path d="M183.468 95.6069V150.462L181.965 149.592V94.7372L183.468 95.6069Z" fill="#8989C7" stroke="#171753" stroke-width="0.469807" stroke-miterlimit="10"/>
<path d="M189.579 96.4408L235.891 69.6935C236.277 69.4721 236.645 69.2209 236.991 68.9422C237.163 68.8061 237.323 68.6641 237.477 68.5221L237.607 68.4038C237.792 68.217 237.966 68.0195 238.127 67.8122C238.818 67.0045 239.233 65.997 239.311 64.9369V64.9073V125.134C239.228 126.951 238.015 128.684 235.891 129.927L188.898 157.052C187.307 157.922 186.68 156.804 186.68 155.662V101.458C186.68 100.441 186.948 99.4413 187.457 98.5606C187.966 97.6799 188.698 96.9488 189.579 96.4408Z" fill="#171753" stroke="#171753" stroke-width="0.469807" stroke-miterlimit="10"/>
<path d="M188.383 156.715C188.593 156.692 188.795 156.621 188.974 156.508L235.955 129.388C237.789 128.323 238.884 126.826 238.955 125.282V124.986V68.8651L238.665 69.1668C238.351 69.4567 238.174 69.6165 237.984 69.7585C237.612 70.0626 237.216 70.3375 236.801 70.5808L190.489 97.3221C189.737 97.7578 189.112 98.3832 188.677 99.1358C188.242 99.8885 188.012 100.742 188.01 101.611V155.851C188 156.105 188.055 156.358 188.17 156.585C188.241 156.703 188.3 156.715 188.377 156.715H188.383Z" fill="#171753" stroke="#171753" stroke-width="0.167788" stroke-miterlimit="10"/>
<path d="M168.225 114.208L169.103 116.223C169.334 116.392 169.573 116.55 169.819 116.694L178.179 121.568C181.231 123.359 186.035 123.359 189.112 121.568L196.824 116.975L198.09 116.223C198.534 115.96 199.049 115.876 199.368 116.444C199.368 116.473 199.404 116.521 199.421 116.557C199.458 116.649 199.49 116.742 199.516 116.838C199.592 117.073 199.632 117.319 199.634 117.566V117.966V128.716C199.633 129.606 199.401 130.48 198.961 131.252C198.52 132.023 197.888 132.664 197.126 133.112L189.112 137.889C187.423 138.803 185.531 139.265 183.616 139.233C181.721 139.267 179.849 138.81 178.179 137.907L169.819 133.034C169.198 132.725 168.653 132.279 168.225 131.729C167.797 131.179 167.497 130.539 167.346 129.857C167.322 129.683 167.31 129.507 167.311 129.331V113.207L168.225 114.208Z" fill="#171753"/>
<path d="M199.634 117.966V117.566C199.632 117.319 199.592 117.073 199.516 116.838C199.49 116.742 199.458 116.649 199.421 116.557C199.404 116.521 199.368 116.473 199.368 116.444C199.049 115.876 198.534 115.96 198.09 116.223L196.824 116.975L189.112 121.568C186.035 123.359 181.231 123.359 178.179 121.568L169.819 116.694C169.573 116.55 169.334 116.392 169.103 116.223L168.225 114.208L167.311 113.207V129.331C167.31 129.507 167.322 129.683 167.346 129.857C167.497 130.539 167.797 131.179 168.225 131.729C168.653 132.279 169.198 132.725 169.819 133.034L178.179 137.907C179.849 138.81 181.721 139.267 183.616 139.233C185.531 139.265 187.423 138.803 189.112 137.889L197.126 133.112C197.888 132.664 198.52 132.023 198.961 131.252C199.401 130.48 199.633 129.606 199.634 128.716V117.966ZM199.634 117.966C199.634 117.817 199.634 117.686 199.634 117.554M199.587 117.196H199.611" stroke="#ECFFFE" stroke-width="0.469807" stroke-miterlimit="10"/>
<path d="M167.328 113.408C167.333 113.549 167.346 113.689 167.369 113.828C167.605 114.885 168.228 115.816 169.115 116.437C169.345 116.605 169.584 116.761 169.83 116.905L178.19 121.732C181.243 123.507 186.047 123.507 189.123 121.732L196.973 117.013L198.239 116.268C198.683 116.008 199.198 115.925 199.517 116.487C199.305 116.055 198.967 115.698 198.547 115.463C198.172 115.243 197.745 115.126 197.311 115.126C196.876 115.126 196.449 115.243 196.074 115.463L188.236 120.176C185.751 121.614 181.562 121.62 179.101 120.176L170.741 115.354C170.361 115.178 170.022 114.923 169.748 114.606C169.474 114.289 169.27 113.917 169.15 113.515C169.114 113.248 169.137 112.977 169.219 112.722C169.301 112.466 169.439 112.231 169.623 112.036L168.245 110.894C167.632 111.585 167.304 112.484 167.328 113.408Z" fill="#ECFFFE"/>
<path d="M189.61 129.046C189.677 127.973 189.997 126.931 190.544 126.005C191.091 125.08 191.85 124.297 192.758 123.721C193.066 123.505 193.425 123.373 193.8 123.339C194.174 123.304 194.551 123.369 194.893 123.526H194.935L195.899 124.082L195.846 124.165C196.206 124.655 196.38 125.256 196.337 125.863C196.269 126.936 195.948 127.977 195.401 128.902C194.855 129.828 194.097 130.611 193.19 131.187C192.68 131.51 192.07 131.636 191.474 131.542L191.432 131.602L190.598 131.122C190.533 131.088 190.47 131.051 190.409 131.01C190.127 130.771 189.908 130.468 189.769 130.126C189.629 129.784 189.575 129.413 189.61 129.046Z" fill="#ECFFFE"/>
<path d="M190.516 129.561C190.516 131.549 191.859 132.383 193.574 131.43C194.481 130.853 195.239 130.071 195.786 129.145C196.333 128.22 196.654 127.178 196.722 126.106C196.722 124.118 195.379 123.278 193.663 124.236C192.755 124.812 191.996 125.595 191.449 126.52C190.902 127.446 190.582 128.488 190.516 129.561Z" fill="#E3E0EB" stroke="#171753" stroke-width="0.469807" stroke-miterlimit="10"/>
<path d="M218.78 107.998C218.78 107.017 219.449 105.823 220.284 105.311C221.12 104.799 221.789 105.173 221.789 106.154C221.789 107.135 221.12 108.329 220.284 108.841C219.449 109.354 218.78 108.946 218.78 107.998Z" fill="#E3E0EB"/>
<path d="M227.862 106.716C227.806 107.305 227.75 107.895 227.611 108.504C227.193 110.623 226.274 112.886 224.77 114.756C222.708 117.262 220.257 118.306 218.195 118.622C216.496 121.069 216.496 121.069 216.496 121.069C216.106 121.602 215.604 121.419 215.827 120.792C215.354 121.18 215.214 120.743 215.354 120.232C214.964 120.831 214.629 120.382 214.852 119.853C214.992 119.506 215.214 119.075 215.382 118.744C212.986 118.61 210.813 117.98 208.612 117.4C209.866 117.547 214.88 117.482 216.106 117.352C217.387 117.221 218.669 117.089 220.006 116.629C221.12 116.241 222.541 115.534 223.572 114.15C224.519 112.916 224.881 111.354 225.02 110.059C225.355 107.239 224.575 104.774 223.405 103.268C222.179 101.698 220.173 100.835 217.889 101.549C217.053 101.799 216.217 102.311 215.437 102.953C213.626 104.422 211.983 106.737 210.729 109.14C208.918 112.603 207.665 116.281 206.523 119.858C205.743 122.264 204.656 127.638 202.093 127.345C200.951 127.195 200.227 126.167 199.725 125.036C199.168 123.841 198.778 122.021 199.14 120.132C199.92 116.156 204.099 116.701 205.52 116.942C205.436 116.96 202.093 117.211 200.868 119.367C200.31 120.363 200.338 121.522 200.422 122.321C200.589 123.755 201.23 125.651 202.455 125.75C204.043 125.856 204.851 121.993 205.269 120.56C205.966 118.139 206.634 115.736 207.414 113.296C208.278 110.609 209.309 107.853 210.729 105.25C210.423 105.012 209.977 104.762 209.949 104.224C209.894 103.637 210.423 102.626 210.98 102.611C210.339 102.154 211.203 100.35 212.039 100.328C211.649 99.848 212.261 98.5571 212.902 98.1971C213.264 97.9752 213.626 98.1128 213.905 98.171C214.629 98.2829 215.354 98.4274 216.106 98.5223C223.042 92.9965 228.475 98.9191 227.862 106.716Z" fill="#E3E0EB"/>
<path d="M112.117 39.684C108.922 39.4355 105.291 36.4457 103.11 31.8918C100.928 27.3379 100.877 22.6424 102.679 19.9933L102.385 19.3695L104.567 18.3274C108.138 16.6136 113.274 19.9144 116.05 25.7014C118.826 31.4884 118.166 37.5571 114.595 39.271L112.414 40.313L112.117 39.684Z" fill="#8989C7"/>
<path d="M116.217 25.6204C113.409 19.7558 108.16 16.4043 104.488 18.1661L102.14 19.2892L102.469 19.9834C100.645 22.7691 100.829 27.567 102.945 31.9781C105.061 36.3892 108.679 39.5362 111.996 39.8613L112.326 40.5555L114.674 39.4324C118.331 37.677 119.023 31.4799 116.217 25.6204ZM102.632 19.4676L104.655 18.4971C108.13 16.8291 113.194 20.0871 115.892 25.773C118.59 31.459 117.998 37.4271 114.514 39.0743L112.489 40.0397L112.224 39.4883L112.119 39.4833C108.902 39.2257 105.346 36.1382 103.265 31.7974C101.184 27.4567 101.006 22.7471 102.821 20.0864L102.882 20.0004L102.632 19.4676Z" fill="#171753"/>
<path d="M112.427 40.3015C116 38.5928 116.642 32.4951 113.884 26.7371C111.126 20.9791 105.976 17.6596 102.4 19.3631C98.8251 21.0666 98.1854 27.1694 100.943 32.9275C103.702 38.6855 108.841 42.0217 112.427 40.3015Z" fill="#E3E0EB"/>
<path d="M101.45 32.6858C98.6815 26.9072 99.3328 20.8357 102.904 19.1248C106.476 17.414 111.615 20.7116 114.383 26.4902C117.152 32.2689 116.5 38.3403 112.929 40.0512C109.357 41.7621 104.218 38.4645 101.45 32.6858Z" fill="#E3E0EB"/>
<path d="M114.056 26.6538C111.248 20.7892 106.001 17.4428 102.327 19.1995C98.6522 20.9561 97.976 27.1468 100.769 33.0178C103.561 38.8889 108.825 42.234 112.498 40.4721C116.17 38.7103 116.843 32.5269 114.056 26.6538ZM101.119 32.8545C98.3987 27.172 99.014 21.2005 102.492 19.5554C105.97 17.9102 111.031 21.1454 113.731 26.8365C116.431 32.5276 115.837 38.4905 112.353 40.1378C108.87 41.7851 103.817 38.5404 101.099 32.8631L101.119 32.8545Z" fill="#171753"/>
<path d="M102.244 32.3054C100.033 27.6903 100.419 22.9055 103.106 21.6184C105.793 20.3312 109.763 23.029 111.974 27.6441C114.185 32.2593 113.799 37.044 111.112 38.3312C108.425 39.6183 104.454 36.9205 102.244 32.3054Z" fill="#ECFFFE"/>
<path d="M112.144 27.572C109.889 22.8672 105.802 20.1261 103.024 21.4571C100.247 22.7882 99.826 27.691 102.09 32.3865C104.354 37.0819 108.412 39.8285 111.194 38.5078C113.976 37.1871 114.393 32.2739 112.144 27.572ZM102.399 32.2101C100.24 27.6955 100.588 23.011 103.178 21.7695C105.768 20.5281 109.636 23.1958 111.8 27.7082C113.964 32.2207 113.614 36.9126 111.023 38.154C108.433 39.3954 104.573 36.7485 102.418 32.2265L102.399 32.2101Z" fill="#171753"/>
<path d="M102.241 32.3118C100.029 27.6979 100.419 22.9109 103.114 21.6443C103.355 21.5324 103.609 21.4517 103.87 21.4045C101.803 23.1204 101.656 27.4551 103.667 31.6552C105.677 35.8553 109.157 38.4776 111.784 37.9245C111.581 38.0963 111.359 38.2432 111.122 38.3619C108.427 39.6285 104.455 36.9308 102.241 32.3118Z" fill="#8989C7"/>
<path d="M112.076 37.634L111.735 37.7202C109.164 38.2446 105.762 35.5902 103.825 31.5536C101.888 27.517 101.958 23.2019 103.979 21.5229L104.305 21.2549L103.822 21.2002C103.546 21.2503 103.278 21.3367 103.025 21.4572C100.252 22.7861 99.8262 27.6911 102.09 32.3865C104.354 37.0819 108.412 39.8285 111.194 38.5078C111.445 38.381 111.679 38.225 111.893 38.0429L112.076 37.634ZM102.418 32.2266C100.259 27.712 100.607 23.0274 103.197 21.786L103.223 21.7753C101.567 23.8245 101.642 27.831 103.502 31.7114C105.362 35.5918 108.436 38.1575 111.072 38.1524L111.041 38.1653C108.426 39.4226 104.574 36.7485 102.418 32.2266Z" fill="#171753"/>
<path d="M101.686 30.8682L103.062 30.2081L102.387 27.6682L102.273 24.9023L102.931 22.5506L103.859 21.3787L102.599 21.8638L101.486 23.2636L100.912 25.0837L100.871 27.6528L101.498 30.473L101.686 30.8682Z" fill="#171753"/>
<path d="M114.391 27.9337L116.612 26.8693L117.393 29.5473L117.836 32.274L117.447 35.5089L116.278 37.9445L115.194 38.9747L113.442 39.7662L115.093 37.5434L115.563 34.4449L115.154 30.3342L114.391 27.9337Z" fill="#171753"/>
<path d="M107.272 24.3859L108.829 25.1284L108.778 26.6631C108.996 26.8206 109.198 26.9964 109.386 27.1904C109.773 27.5911 110.077 28.0368 110.298 28.5273C110.524 29.0147 110.65 29.521 110.675 30.0464L109.391 29.4339C109.363 29.1638 109.287 28.9087 109.163 28.6687C109.039 28.4287 108.875 28.2104 108.671 28.0137C108.471 27.8195 108.245 27.6618 107.991 27.5405C107.736 27.4192 107.509 27.3604 107.309 27.3641C107.108 27.3677 106.938 27.4264 106.797 27.5402C106.661 27.6564 106.553 27.8207 106.472 28.0331C106.397 28.2423 106.354 28.4962 106.344 28.795C106.335 29.088 106.359 29.3742 106.419 29.6534C106.483 29.9294 106.58 30.1915 106.709 30.4397C106.843 30.6846 107.01 30.9042 107.209 31.0984C107.408 31.2868 107.638 31.4429 107.897 31.5667C108.292 31.7548 108.627 31.8069 108.904 31.723C109.186 31.6416 109.362 31.4277 109.431 31.0815L110.708 31.6903C110.646 32.1277 110.492 32.4832 110.245 32.7568C110.005 33.0271 109.681 33.1819 109.274 33.2211C109.058 33.2405 108.821 33.2171 108.564 33.1511L108.516 34.6181L106.959 33.8757L107.009 32.3746C106.841 32.2468 106.684 32.109 106.54 31.9612C106.178 31.5844 105.886 31.1794 105.663 30.7463C105.441 30.3074 105.278 29.874 105.176 29.4461C105.08 29.0149 105.038 28.6212 105.049 28.2649L105.056 28.0753C105.069 27.6846 105.138 27.3269 105.265 27.0021C105.392 26.6716 105.577 26.4069 105.821 26.208C106.07 26.0116 106.376 25.9069 106.74 25.8938C106.891 25.8871 107.051 25.9012 107.221 25.9361L107.272 24.3859Z" fill="#171753"/>
<path d="M276.561 34.9874C279.277 34.7761 282.365 32.234 284.219 28.3621C286.074 24.4902 286.117 20.498 284.585 18.2456L284.835 17.7152L282.98 16.8292C279.944 15.372 275.577 18.1785 273.216 23.0988C270.856 28.0191 271.417 33.179 274.454 34.6362L276.309 35.5222L276.561 34.9874Z" fill="#BEF0ED"/>
<path d="M273.075 23.0299C275.462 18.0436 279.925 15.1939 283.047 16.6919L285.044 17.6468L284.763 18.2371C286.315 20.6055 286.158 24.6849 284.359 28.4354C282.56 32.1859 279.484 34.8616 276.663 35.138L276.383 35.7282L274.386 34.7733C271.277 33.2808 270.689 28.0118 273.075 23.0299ZM284.625 17.7985L282.905 16.9733C279.95 15.5551 275.645 18.3252 273.351 23.1596C271.057 27.994 271.561 33.0683 274.522 34.4689L276.245 35.2897L276.47 34.8209L276.559 34.8166C279.294 34.5976 282.318 31.9725 284.087 28.2818C285.856 24.5911 286.008 20.5869 284.464 18.3246L284.412 18.2515L284.625 17.7985Z" fill="#171753"/>
<path d="M276.297 35.5123C273.259 34.0596 272.713 28.8751 275.058 23.9794C277.403 19.0837 281.782 16.2613 284.822 17.7097C287.862 19.1581 288.406 24.347 286.061 29.2427C283.716 34.1384 279.346 36.975 276.297 35.5123Z" fill="#5ED9D1"/>
<path d="M285.63 29.0372C287.984 24.124 287.43 18.9618 284.394 17.5071C281.357 16.0525 276.987 18.8562 274.634 23.7695C272.28 28.6827 272.834 33.8449 275.871 35.2996C278.907 36.7542 283.277 33.9505 285.63 29.0372Z" fill="#5ED9D1"/>
<path d="M274.912 23.9085C277.3 18.9222 281.76 16.0769 284.885 17.5705C288.009 19.0641 288.584 24.3277 286.21 29.3195C283.835 34.3112 279.359 37.1554 276.237 35.6574C273.115 34.1594 272.542 28.9021 274.912 23.9085ZM285.911 29.1806C288.225 24.3491 287.701 19.2719 284.744 17.8732C281.787 16.4744 277.484 19.2251 275.188 24.0639C272.892 28.9027 273.398 33.9726 276.36 35.3732C279.321 36.7737 283.617 34.015 285.929 29.1879L285.911 29.1806Z" fill="#171753"/>
<path d="M284.955 28.7137C286.835 24.7898 286.507 20.7216 284.222 19.6272C281.938 18.5328 278.562 20.8266 276.682 24.7506C274.802 28.6745 275.131 32.7427 277.415 33.8371C279.7 34.9315 283.076 32.6377 284.955 28.7137Z" fill="#ECFFFE"/>
<path d="M276.538 24.6893C278.455 20.689 281.93 18.3585 284.292 19.4901C286.653 20.6218 287.011 24.7904 285.086 28.7827C283.161 32.7749 279.711 35.1102 277.345 33.9873C274.98 32.8644 274.626 28.687 276.538 24.6893ZM284.824 28.6327C286.659 24.7942 286.364 20.8113 284.161 19.7557C281.959 18.7002 278.67 20.9684 276.83 24.8051C274.99 28.6417 275.288 32.631 277.491 33.6865C279.693 34.742 282.975 32.4914 284.807 28.6467L284.824 28.6327Z" fill="#171753"/>
<path d="M284.958 28.7192C286.838 24.7963 286.507 20.7262 284.215 19.6493C284.011 19.5541 283.795 19.4855 283.573 19.4453C285.33 20.9043 285.455 24.5898 283.745 28.1609C282.036 31.732 279.077 33.9616 276.844 33.4913C277.016 33.6374 277.205 33.7623 277.407 33.8632C279.698 34.9401 283.075 32.6465 284.958 28.7192Z" fill="#BEF0ED"/>
<path d="M276.596 33.2443L276.885 33.3176C279.072 33.7635 281.964 31.5066 283.611 28.0745C285.258 24.6424 285.198 20.9736 283.479 19.546L283.203 19.3181L283.614 19.2716C283.848 19.3143 284.076 19.3877 284.291 19.4901C286.648 20.62 287.011 24.7904 285.086 28.7827C283.161 32.7749 279.71 35.1102 277.345 33.9873C277.132 33.8795 276.933 33.7468 276.751 33.592L276.596 33.2443ZM284.807 28.6467C286.643 24.8082 286.347 20.8252 284.145 19.7697L284.123 19.7606C285.531 21.5029 285.467 24.9094 283.885 28.2086C282.304 31.5079 279.69 33.6894 277.449 33.6851L277.476 33.696C279.699 34.765 282.974 32.4914 284.807 28.6467Z" fill="#171753"/>
<path d="M285.429 27.4918L284.26 26.9305L284.833 24.7711L284.93 22.4193L284.371 20.4199L283.582 19.4235L284.653 19.8359L285.599 21.0261L286.088 22.5736L286.122 24.7579L285.589 27.1558L285.429 27.4918Z" fill="#171753"/>
<path d="M274.627 24.9968L272.739 24.0918L272.075 26.3687L271.698 28.6871L272.029 31.4374L273.023 33.5083L273.944 34.3842L275.434 35.0572L274.03 33.1672L273.63 30.5328L273.978 27.0377L274.627 24.9968Z" fill="#171753"/>
<path d="M279.067 31.2594L280.515 30.6547L280.538 29.2579C280.742 29.1246 280.934 28.9739 281.113 28.806C281.483 28.4594 281.779 28.0681 282.002 27.6323C282.23 27.1996 282.366 26.7452 282.413 26.2689L281.218 26.7678C281.181 27.012 281.1 27.2403 280.977 27.4528C280.854 27.6653 280.695 27.8564 280.5 28.0259C280.311 28.1934 280.097 28.3266 279.861 28.4253C279.625 28.5241 279.415 28.5674 279.233 28.5551C279.052 28.5428 278.899 28.4818 278.776 28.3721C278.658 28.2604 278.567 28.1062 278.504 27.9096C278.444 27.7162 278.417 27.4835 278.422 27.2116C278.426 26.9449 278.461 26.686 278.528 26.435C278.599 26.1871 278.699 25.9533 278.827 25.7336C278.96 25.517 279.121 25.325 279.311 25.1575C279.5 24.9952 279.716 24.8637 279.957 24.7629C280.324 24.6097 280.631 24.5774 280.879 24.6661C281.131 24.7527 281.281 24.9549 281.329 25.2726L282.516 24.7767C282.479 24.3765 282.355 24.0466 282.144 23.7869C281.937 23.5305 281.65 23.3753 281.282 23.3214C281.087 23.2941 280.871 23.3047 280.634 23.3532L280.656 22.018L279.208 22.6228L279.186 23.9889C279.027 24.0975 278.879 24.2157 278.742 24.3435C278.396 24.6697 278.112 25.0245 277.89 25.4081C277.668 25.7968 277.501 26.1833 277.39 26.5676C277.283 26.9551 277.227 27.3109 277.221 27.6351L277.218 27.8077C277.213 28.1632 277.26 28.4914 277.36 28.7922C277.461 29.0982 277.617 29.347 277.83 29.5387C278.047 29.7283 278.321 29.8373 278.651 29.8655C278.787 29.8783 278.934 29.8727 279.09 29.8486L279.067 31.2594Z" fill="#171753"/>
<path d="M277.369 143.232C280.376 142.998 283.794 140.184 285.847 135.898C287.899 131.612 287.948 127.193 286.252 124.7L286.529 124.112L284.475 123.132C281.114 121.519 276.28 124.625 273.667 130.072C271.055 135.518 271.676 141.23 275.037 142.843L277.09 143.824L277.369 143.232Z" fill="#8989C7"/>
<path d="M273.51 129.996C276.153 124.476 281.093 121.322 284.549 122.98L286.76 124.037L286.449 124.69C288.166 127.312 287.993 131.828 286.001 135.979C284.01 140.131 280.605 143.093 277.483 143.399L277.172 144.052L274.962 142.995C271.52 141.343 270.869 135.51 273.51 129.996ZM286.296 124.205L284.392 123.291C281.122 121.721 276.355 124.788 273.816 130.139C271.277 135.491 271.835 141.108 275.113 142.658L277.019 143.566L277.268 143.048L277.367 143.043C280.395 142.8 283.742 139.895 285.701 135.809C287.659 131.724 287.827 127.291 286.118 124.787L286.06 124.706L286.296 124.205Z" fill="#171753"/>
<path d="M277.077 143.813C273.714 142.205 273.11 136.466 275.706 131.047C278.302 125.627 283.149 122.503 286.514 124.106C289.879 125.71 290.481 131.453 287.885 136.873C285.29 142.292 280.453 145.432 277.077 143.813Z" fill="#E3E0EB"/>
<path d="M287.409 136.645C290.014 131.207 289.401 125.492 286.04 123.882C282.678 122.272 277.841 125.375 275.236 130.814C272.631 136.253 273.244 141.967 276.605 143.577C279.967 145.188 284.804 142.084 287.409 136.645Z" fill="#E3E0EB"/>
<path d="M275.544 130.968C278.187 125.449 283.125 122.299 286.583 123.952C290.042 125.606 290.678 131.432 288.05 136.958C285.421 142.483 280.467 145.632 277.011 143.973C273.554 142.315 272.921 136.496 275.544 130.968ZM287.72 136.804C290.28 131.456 289.701 125.836 286.428 124.287C283.154 122.739 278.391 125.784 275.85 131.14C273.309 136.496 273.868 142.108 277.147 143.659C280.425 145.209 285.181 142.155 287.739 136.812L287.72 136.804Z" fill="#171753"/>
<path d="M286.662 136.287C288.742 131.944 288.379 127.44 285.85 126.229C283.321 125.018 279.584 127.557 277.504 131.9C275.423 136.244 275.786 140.747 278.315 141.959C280.844 143.17 284.581 140.631 286.662 136.287Z" fill="#ECFFFE"/>
<path d="M277.344 131.832C279.467 127.404 283.313 124.824 285.927 126.077C288.541 127.33 288.937 131.944 286.806 136.363C284.676 140.783 280.856 143.368 278.238 142.125C275.62 140.882 275.228 136.258 277.344 131.832ZM286.516 136.198C288.547 131.949 288.22 127.54 285.782 126.371C283.344 125.203 279.704 127.714 277.667 131.96C275.631 136.207 275.96 140.623 278.398 141.792C280.836 142.96 284.469 140.469 286.498 136.213L286.516 136.198Z" fill="#171753"/>
<path d="M286.664 136.293C288.746 131.951 288.379 127.445 285.842 126.253C285.616 126.148 285.377 126.072 285.131 126.028C287.076 127.643 287.214 131.722 285.322 135.675C283.43 139.628 280.155 142.096 277.683 141.576C277.873 141.737 278.082 141.876 278.306 141.987C280.842 143.179 284.58 140.64 286.664 136.293Z" fill="#8989C7"/>
<path d="M277.408 141.302L277.728 141.383C280.149 141.877 283.35 139.379 285.173 135.58C286.996 131.78 286.93 127.719 285.028 126.139L284.721 125.887L285.176 125.835C285.436 125.883 285.688 125.964 285.926 126.077C288.536 127.328 288.937 131.944 286.806 136.363C284.675 140.783 280.856 143.368 278.237 142.125C278.002 142.005 277.781 141.858 277.58 141.687L277.408 141.302ZM286.497 136.213C288.529 131.964 288.202 127.555 285.764 126.387L285.74 126.377C287.298 128.305 287.228 132.076 285.477 135.728C283.726 139.38 280.833 141.795 278.353 141.79L278.382 141.802C280.843 142.986 284.469 140.469 286.497 136.213Z" fill="#171753"/>
<path d="M287.186 134.935L285.891 134.313L286.527 131.923L286.634 129.32L286.014 127.106L285.141 126.003L286.327 126.46L287.374 127.777L287.915 129.49L287.953 131.908L287.363 134.563L287.186 134.935Z" fill="#171753"/>
<path d="M275.229 132.173L273.138 131.171L272.404 133.691L271.987 136.258L272.353 139.302L273.453 141.595L274.473 142.564L276.122 143.309L274.568 141.217L274.126 138.301L274.511 134.432L275.229 132.173Z" fill="#171753"/>
<path d="M280.144 139.105L281.746 138.436L281.771 136.89C281.998 136.742 282.21 136.575 282.408 136.389C282.818 136.006 283.146 135.573 283.392 135.09C283.644 134.611 283.796 134.108 283.847 133.581L282.525 134.133C282.483 134.403 282.394 134.656 282.258 134.891C282.121 135.127 281.945 135.338 281.73 135.526C281.52 135.711 281.284 135.859 281.023 135.968C280.761 136.077 280.529 136.125 280.328 136.112C280.126 136.098 279.958 136.03 279.822 135.909C279.691 135.785 279.591 135.615 279.52 135.397C279.454 135.183 279.424 134.925 279.429 134.624C279.434 134.329 279.473 134.043 279.547 133.765C279.625 133.49 279.736 133.232 279.878 132.988C280.025 132.749 280.203 132.536 280.413 132.351C280.623 132.171 280.862 132.025 281.129 131.914C281.535 131.744 281.875 131.709 282.149 131.807C282.429 131.903 282.595 132.126 282.647 132.478L283.961 131.929C283.921 131.486 283.784 131.121 283.55 130.834C283.321 130.55 283.003 130.378 282.595 130.318C282.379 130.288 282.14 130.3 281.878 130.353L281.903 128.875L280.3 129.545L280.275 131.057C280.1 131.177 279.936 131.308 279.783 131.45C279.401 131.811 279.087 132.203 278.841 132.628C278.595 133.058 278.411 133.486 278.287 133.912C278.168 134.34 278.106 134.734 278.1 135.093L278.097 135.284C278.091 135.678 278.143 136.041 278.255 136.374C278.366 136.713 278.539 136.988 278.774 137.2C279.015 137.41 279.318 137.531 279.683 137.562C279.834 137.576 279.996 137.57 280.169 137.543L280.144 139.105Z" fill="#171753"/>
<path d="M28.7009 126.48C32.9045 126.153 37.683 122.218 40.5529 116.226C43.4228 110.234 43.49 104.056 41.1191 100.57L41.5065 99.7495L38.6357 98.3783C33.9369 96.1232 27.1782 100.467 23.5254 108.081C19.8726 115.696 20.7409 123.681 25.4398 125.936L28.3106 127.307L28.7009 126.48Z" fill="#BEF0ED"/>
<path d="M23.3058 107.974C27.0009 100.258 33.9068 95.8477 38.739 98.166L41.829 99.6438L41.3953 100.557C43.7956 104.223 43.5529 110.536 40.7687 116.34C37.9845 122.144 33.2241 126.285 28.8592 126.713L28.4255 127.626L25.3355 126.148C20.5237 123.839 19.6135 115.684 23.3058 107.974ZM41.1815 99.8785L38.519 98.6015C33.9467 96.4067 27.2832 100.694 23.7333 108.175C20.1833 115.657 20.9629 123.51 25.5464 125.677L28.2117 126.947L28.5597 126.222L28.6981 126.215C32.9305 125.876 37.6106 121.814 40.3485 116.102C43.0865 110.391 43.3209 104.194 40.9323 100.693L40.8516 100.58L41.1815 99.8785Z" fill="#171753"/>
<path d="M28.2927 127.292C23.5911 125.044 22.7464 117.02 26.3755 109.444C30.0046 101.867 36.7814 97.4996 41.4858 99.741C46.1903 101.983 47.0321 110.013 43.403 117.589C39.7739 125.166 33.012 129.555 28.2927 127.292Z" fill="#5ED9D1"/>
<path d="M42.7369 117.271C46.3792 109.668 45.5222 101.679 40.8228 99.4275C36.1233 97.1763 29.3609 101.515 25.7186 109.119C22.0762 116.723 22.9332 124.711 27.6327 126.963C32.3322 129.214 39.0945 124.875 42.7369 117.271Z" fill="#5ED9D1"/>
<path d="M26.1497 109.334C29.8448 101.617 36.7479 97.2143 41.5829 99.5257C46.418 101.837 47.3077 109.983 43.6331 117.708C39.9584 125.433 33.0321 129.835 28.1998 127.517C23.3676 125.198 22.4819 117.062 26.1497 109.334ZM43.1716 117.493C46.7516 110.016 45.942 102.159 41.3652 99.994C36.7885 97.8294 30.1295 102.086 26.5767 109.575C23.0239 117.063 23.8063 124.909 28.3898 127.077C32.9733 129.244 39.6216 124.975 43.1988 117.504L43.1716 117.493Z" fill="#171753"/>
<path d="M41.6923 116.771C44.6012 110.698 44.0932 104.402 40.5576 102.709C37.0219 101.015 31.7976 104.565 28.8887 110.637C25.9797 116.71 26.4877 123.006 30.0234 124.699C33.559 126.393 38.7833 122.843 41.6923 116.771Z" fill="#ECFFFE"/>
<path d="M28.6651 110.542C31.6331 104.352 37.0101 100.745 40.665 102.496C44.3198 104.248 44.8736 110.699 41.8947 116.877C38.9159 123.056 33.5757 126.669 29.9153 124.932C26.2548 123.194 25.7067 116.729 28.6651 110.542ZM41.4881 116.645C44.3287 110.705 43.8715 104.541 40.463 102.907C37.0545 101.274 31.9648 104.784 29.1175 110.722C26.2701 116.659 26.7313 122.833 30.1398 124.466C33.5482 126.1 38.6267 122.617 41.4632 116.667L41.4881 116.645Z" fill="#171753"/>
<path d="M41.6956 116.779C44.6061 110.708 44.093 104.409 40.5467 102.743C40.2302 102.595 39.896 102.489 39.5525 102.427C42.2719 104.685 42.4649 110.389 39.8195 115.915C37.1741 121.442 32.5956 124.892 29.1396 124.164C29.4056 124.39 29.698 124.584 30.0102 124.74C33.5566 126.406 38.7823 122.857 41.6956 116.779Z" fill="#BEF0ED"/>
<path d="M28.7551 123.782L29.2028 123.895C32.5867 124.585 37.063 121.093 39.6114 115.781C42.1598 110.47 42.0678 104.792 39.4081 102.583L38.9797 102.23L39.6157 102.158C39.9787 102.224 40.3313 102.338 40.6644 102.496C44.3124 104.245 44.873 110.699 41.8941 116.877C38.9153 123.056 33.5752 126.67 29.9147 124.932C29.5851 124.765 29.2764 124.56 28.9952 124.32L28.7551 123.782ZM41.4627 116.667C44.3032 110.726 43.846 104.563 40.4375 102.929L40.4035 102.915C42.5825 105.611 42.4835 110.883 40.036 115.989C37.5886 121.095 33.5436 124.471 30.0763 124.464L30.1171 124.481C33.5568 126.135 38.6261 122.617 41.4627 116.667Z" fill="#171753"/>
<path d="M42.4257 114.88L40.6153 114.011L41.5033 110.669L41.6529 107.03L40.7873 103.935L39.5666 102.393L41.225 103.031L42.6885 104.873L43.4447 107.268L43.498 110.649L42.6727 114.36L42.4257 114.88Z" fill="#171753"/>
<path d="M25.7082 111.018L22.7857 109.618L21.7586 113.142L21.1757 116.729L21.6882 120.986L23.2261 124.191L24.6516 125.546L26.9568 126.588L24.7846 123.663L24.1659 119.586L24.7046 114.177L25.7082 111.018Z" fill="#171753"/>
<path d="M32.5794 120.71L34.8199 119.774L34.8552 117.613C35.1716 117.406 35.4684 117.173 35.7456 116.913C36.3181 116.377 36.7768 115.771 37.1216 115.097C37.4737 114.427 37.6855 113.724 37.7569 112.987L35.9085 113.759C35.8504 114.137 35.726 114.49 35.5352 114.819C35.3444 115.148 35.0985 115.444 34.7975 115.706C34.504 115.965 34.1742 116.171 33.8083 116.324C33.4424 116.477 33.1186 116.544 32.8371 116.525C32.5556 116.506 32.3197 116.412 32.1297 116.242C31.9471 116.069 31.8064 115.83 31.7075 115.526C31.616 115.227 31.5737 114.867 31.5806 114.446C31.5873 114.033 31.6421 113.632 31.7449 113.244C31.855 112.86 32.0092 112.499 32.2077 112.158C32.4134 111.823 32.663 111.526 32.9565 111.267C33.2499 111.016 33.5833 110.812 33.9567 110.656C34.5243 110.419 34.9998 110.369 35.3833 110.506C35.7742 110.641 36.0064 110.953 36.0799 111.445L37.9171 110.678C37.8605 110.058 37.6686 109.548 37.3414 109.146C37.0215 108.749 36.5767 108.509 36.007 108.425C35.7049 108.383 35.3709 108.4 35.0049 108.475L35.0387 106.408L32.7982 107.344L32.7636 109.459C32.5182 109.627 32.289 109.809 32.076 110.007C31.5411 110.512 31.1019 111.061 30.7585 111.655C30.4148 112.256 30.1566 112.855 29.9837 113.449C29.8181 114.049 29.7312 114.6 29.723 115.101L29.7186 115.368C29.7096 115.919 29.7829 116.426 29.9384 116.892C30.0938 117.366 30.336 117.751 30.6649 118.047C31.0013 118.341 31.425 118.509 31.9361 118.553C32.1467 118.573 32.373 118.564 32.6152 118.527L32.5794 120.71Z" fill="#171753"/>
<path d="M91.7103 68.7199L91.7103 67.8285L93.7923 67.8285L93.7923 68.7199L91.7103 68.7199ZM95.9486 68.7199L95.9486 67.8285L98.0307 67.8285L98.0307 68.7199L95.9486 68.7199ZM100.113 68.7199L100.113 67.8285L102.195 67.8285L102.195 68.7199L100.113 68.7199Z" fill="#171753"/>
<path d="M96.5436 73.5486L96.5436 71.4686L97.4359 71.4686L97.4359 73.5486L96.5436 73.5486ZM96.5436 69.3143L96.5436 67.2343L97.4359 67.2343L97.4359 69.3143L96.5436 69.3143ZM96.5436 65.08L96.5436 63L97.4359 63L97.4359 65.08L96.5436 65.08Z" fill="#171753"/>
<path d="M90 80.2342L90 78.1542L90.8923 78.1542L90.8923 80.2342L90 80.2342ZM90 75.9999L90 73.9199L90.8923 73.9199L90.8923 75.9999L90 75.9999Z" fill="#171753"/>
<path d="M28.4844 38.0989L28.4844 38.9581L26.4024 38.9581L26.4024 38.0989L28.4844 38.0989ZM24.246 38.0989L24.246 38.9581L22.164 38.9581L22.164 38.0989L24.246 38.0989ZM20.082 38.0989L20.082 38.9581L18 38.9581L18 38.0989L20.082 38.0989Z" fill="#171753"/>
<path d="M23.6511 33.4445L23.6511 35.4494L22.7588 35.4494L22.7588 33.4445L23.6511 33.4445ZM23.6511 37.526L23.6511 39.5309L22.7588 39.5309L22.7588 37.526L23.6511 37.526ZM23.6511 41.6075L23.6511 43.6124L22.7588 43.6124L22.7588 41.6075L23.6511 41.6075Z" fill="#171753"/>
<path d="M30.1946 27L30.1946 29.005L29.3023 29.005L29.3023 27L30.1946 27ZM30.1946 31.0815L30.1946 33.0865L29.3023 33.0865L29.3023 31.0815L30.1946 31.0815Z" fill="#171753"/>
<path d="M141.242 29.4405H140.269V27.1687H141.242V29.4405ZM141.242 24.8156H140.269V22.5438H141.242V24.8156ZM141.242 20.2719H140.269V18H141.242V20.2719Z" fill="#171753"/>
<path d="M146.511 24.1665H144.241V23.1929H146.511V24.1665ZM141.89 24.1665H139.62V23.1929H141.89V24.1665ZM137.27 24.1665H135V23.1929H137.27V24.1665Z" fill="#171753"/>
<path d="M153.806 31.3068H151.536V30.3331H153.806V31.3068ZM149.185 31.3068H146.916V30.3331H149.185V31.3068Z" fill="#171753"/>
<path d="M264.242 163.441H263.269V161.169H264.242V163.441ZM264.242 158.816H263.269V156.544H264.242V158.816ZM264.242 154.272H263.269V152H264.242V154.272Z" fill="#171753"/>
<path d="M269.51 158.166H267.241V157.193H269.51V158.166ZM264.89 158.166H262.62V157.193H264.89V158.166ZM260.27 158.166H258V157.193H260.27V158.166Z" fill="#171753"/>
<path d="M276.806 165.307H274.536V164.333H276.806V165.307ZM272.185 165.307H269.916V164.333H272.185V165.307Z" fill="#171753"/>
<path d="M25.68 152V139.5H28.52V152H25.68ZM21.46 139.9V137.4H32.74V139.9H21.46ZM38.6594 152.38C37.6994 152.38 36.8527 152.227 36.1194 151.92C35.386 151.613 34.766 151.2 34.2594 150.68C33.7527 150.147 33.366 149.547 33.0994 148.88C32.846 148.213 32.7194 147.52 32.7194 146.8V146.38C32.7194 145.633 32.8527 144.927 33.1194 144.26C33.3994 143.58 33.7927 142.98 34.2994 142.46C34.8194 141.927 35.446 141.513 36.1794 141.22C36.9127 140.913 37.7394 140.76 38.6594 140.76C39.5794 140.76 40.406 140.913 41.1394 141.22C41.8727 141.513 42.4927 141.927 42.9994 142.46C43.5194 142.98 43.9127 143.58 44.1794 144.26C44.446 144.927 44.5794 145.633 44.5794 146.38V146.8C44.5794 147.52 44.446 148.213 44.1794 148.88C43.926 149.547 43.546 150.147 43.0394 150.68C42.5327 151.2 41.9127 151.613 41.1794 151.92C40.446 152.227 39.606 152.38 38.6594 152.38ZM38.6594 150C39.3394 150 39.9127 149.853 40.3794 149.56C40.846 149.253 41.1994 148.847 41.4394 148.34C41.6794 147.82 41.7994 147.233 41.7994 146.58C41.7994 145.913 41.6727 145.327 41.4194 144.82C41.1794 144.3 40.8194 143.893 40.3394 143.6C39.8727 143.293 39.3127 143.14 38.6594 143.14C38.006 143.14 37.4394 143.293 36.9594 143.6C36.4927 143.893 36.1327 144.3 35.8794 144.82C35.626 145.327 35.4994 145.913 35.4994 146.58C35.4994 147.233 35.6194 147.82 35.8594 148.34C36.1127 148.847 36.4727 149.253 36.9394 149.56C37.406 149.853 37.9794 150 38.6594 150ZM54.6136 152L50.9736 146.92H49.3536L53.9736 141.14H56.8736L52.6136 146.48L52.6736 145.08L57.7536 152H54.6136ZM47.0136 152V137.4H49.7936V152H47.0136ZM63.8658 152.38C62.9324 152.38 62.1124 152.22 61.4058 151.9C60.7124 151.58 60.1324 151.153 59.6658 150.62C59.2124 150.073 58.8658 149.467 58.6258 148.8C58.3991 148.133 58.2858 147.453 58.2858 146.76V146.38C58.2858 145.66 58.3991 144.967 58.6258 144.3C58.8658 143.62 59.2124 143.02 59.6658 142.5C60.1324 141.967 60.7058 141.547 61.3858 141.24C62.0658 140.92 62.8524 140.76 63.7458 140.76C64.9191 140.76 65.8991 141.02 66.6858 141.54C67.4858 142.047 68.0858 142.72 68.4858 143.56C68.8858 144.387 69.0858 145.28 69.0858 146.24V147.24H59.4658V145.54H67.3458L66.4858 146.38C66.4858 145.687 66.3858 145.093 66.1858 144.6C65.9858 144.107 65.6791 143.727 65.2658 143.46C64.8658 143.193 64.3591 143.06 63.7458 143.06C63.1324 143.06 62.6124 143.2 62.1858 143.48C61.7591 143.76 61.4324 144.167 61.2058 144.7C60.9924 145.22 60.8858 145.847 60.8858 146.58C60.8858 147.26 60.9924 147.867 61.2058 148.4C61.4191 148.92 61.7458 149.333 62.1858 149.64C62.6258 149.933 63.1858 150.08 63.8658 150.08C64.5458 150.08 65.0991 149.947 65.5258 149.68C65.9524 149.4 66.2258 149.06 66.3458 148.66H68.9058C68.7458 149.407 68.4391 150.06 67.9858 150.62C67.5324 151.18 66.9524 151.613 66.2458 151.92C65.5524 152.227 64.7591 152.38 63.8658 152.38ZM71.4081 152V141.14H73.6081V145.8H73.4081C73.4081 144.693 73.5548 143.773 73.8481 143.04C74.1415 142.293 74.5748 141.733 75.1481 141.36C75.7348 140.987 76.4615 140.8 77.3281 140.8H77.4481C78.7415 140.8 79.7215 141.22 80.3881 142.06C81.0548 142.887 81.3881 144.127 81.3881 145.78V152H78.6081V145.54C78.6081 144.873 78.4148 144.333 78.0281 143.92C77.6548 143.507 77.1348 143.3 76.4681 143.3C75.7881 143.3 75.2348 143.513 74.8081 143.94C74.3948 144.353 74.1881 144.913 74.1881 145.62V152H71.4081ZM89.5969 152.38C88.6369 152.38 87.7902 152.227 87.0569 151.92C86.3235 151.613 85.7035 151.2 85.1969 150.68C84.6902 150.147 84.3035 149.547 84.0369 148.88C83.7835 148.213 83.6569 147.52 83.6569 146.8V146.38C83.6569 145.633 83.7902 144.927 84.0569 144.26C84.3369 143.58 84.7302 142.98 85.2369 142.46C85.7569 141.927 86.3835 141.513 87.1169 141.22C87.8502 140.913 88.6769 140.76 89.5969 140.76C90.5169 140.76 91.3435 140.913 92.0769 141.22C92.8102 141.513 93.4302 141.927 93.9369 142.46C94.4569 142.98 94.8502 143.58 95.1169 144.26C95.3835 144.927 95.5169 145.633 95.5169 146.38V146.8C95.5169 147.52 95.3835 148.213 95.1169 148.88C94.8635 149.547 94.4835 150.147 93.9769 150.68C93.4702 151.2 92.8502 151.613 92.1169 151.92C91.3835 152.227 90.5435 152.38 89.5969 152.38ZM89.5969 150C90.2769 150 90.8502 149.853 91.3169 149.56C91.7835 149.253 92.1369 148.847 92.3769 148.34C92.6169 147.82 92.7369 147.233 92.7369 146.58C92.7369 145.913 92.6102 145.327 92.3569 144.82C92.1169 144.3 91.7569 143.893 91.2769 143.6C90.8102 143.293 90.2502 143.14 89.5969 143.14C88.9435 143.14 88.3769 143.293 87.8969 143.6C87.4302 143.893 87.0702 144.3 86.8169 144.82C86.5635 145.327 86.4369 145.913 86.4369 146.58C86.4369 147.233 86.5569 147.82 86.7969 148.34C87.0502 148.847 87.4102 149.253 87.8769 149.56C88.3435 149.853 88.9169 150 89.5969 150ZM97.9511 152V141.14H100.151V145.8H99.9511C99.9511 144.707 100.091 143.793 100.371 143.06C100.651 142.313 101.064 141.753 101.611 141.38C102.171 140.993 102.864 140.8 103.691 140.8H103.811C104.651 140.8 105.344 140.993 105.891 141.38C106.451 141.753 106.864 142.313 107.131 143.06C107.411 143.793 107.551 144.707 107.551 145.8H106.851C106.851 144.707 106.991 143.793 107.271 143.06C107.564 142.313 107.984 141.753 108.531 141.38C109.091 140.993 109.784 140.8 110.611 140.8H110.731C111.571 140.8 112.271 140.993 112.831 141.38C113.391 141.753 113.811 142.313 114.091 143.06C114.384 143.793 114.531 144.707 114.531 145.8V152H111.751V145.54C111.751 144.86 111.578 144.32 111.231 143.92C110.884 143.507 110.391 143.3 109.751 143.3C109.111 143.3 108.598 143.513 108.211 143.94C107.824 144.353 107.631 144.913 107.631 145.62V152H104.851V145.54C104.851 144.86 104.678 144.32 104.331 143.92C103.984 143.507 103.491 143.3 102.851 143.3C102.211 143.3 101.698 143.513 101.311 143.94C100.924 144.353 100.731 144.913 100.731 145.62V152H97.9511ZM118.022 152V141.14H120.802V152H118.022ZM116.502 143.22V141.14H120.802V143.22H116.502ZM119.042 139.84C118.495 139.84 118.089 139.7 117.822 139.42C117.569 139.127 117.442 138.767 117.442 138.34C117.442 137.887 117.569 137.52 117.822 137.24C118.089 136.96 118.495 136.82 119.042 136.82C119.589 136.82 119.989 136.96 120.242 137.24C120.495 137.52 120.622 137.887 120.622 138.34C120.622 138.767 120.495 139.127 120.242 139.42C119.989 139.7 119.589 139.84 119.042 139.84ZM128.826 152.38C127.879 152.38 127.059 152.22 126.366 151.9C125.686 151.58 125.112 151.153 124.646 150.62C124.192 150.087 123.852 149.487 123.626 148.82C123.399 148.153 123.286 147.473 123.286 146.78V146.4C123.286 145.667 123.399 144.967 123.626 144.3C123.866 143.62 124.219 143.02 124.686 142.5C125.152 141.967 125.726 141.547 126.406 141.24C127.099 140.92 127.899 140.76 128.806 140.76C129.752 140.76 130.599 140.947 131.346 141.32C132.092 141.68 132.686 142.187 133.126 142.84C133.579 143.493 133.832 144.253 133.886 145.12H131.186C131.119 144.56 130.879 144.093 130.466 143.72C130.066 143.347 129.512 143.16 128.806 143.16C128.192 143.16 127.679 143.307 127.266 143.6C126.866 143.893 126.566 144.3 126.366 144.82C126.166 145.327 126.066 145.913 126.066 146.58C126.066 147.22 126.159 147.8 126.346 148.32C126.546 148.84 126.846 149.247 127.246 149.54C127.659 149.833 128.186 149.98 128.826 149.98C129.306 149.98 129.719 149.893 130.066 149.72C130.412 149.547 130.686 149.307 130.886 149C131.099 148.693 131.232 148.347 131.286 147.96H133.986C133.932 148.84 133.672 149.613 133.206 150.28C132.752 150.933 132.146 151.447 131.386 151.82C130.639 152.193 129.786 152.38 128.826 152.38ZM140.153 152.34C138.659 152.34 137.486 152.027 136.633 151.4C135.793 150.76 135.353 149.88 135.313 148.76H137.813C137.853 149.133 138.059 149.473 138.433 149.78C138.806 150.087 139.393 150.24 140.193 150.24C140.859 150.24 141.386 150.12 141.773 149.88C142.173 149.64 142.373 149.313 142.373 148.9C142.373 148.54 142.219 148.253 141.913 148.04C141.619 147.827 141.113 147.687 140.393 147.62L139.433 147.52C138.219 147.387 137.286 147.04 136.633 146.48C135.979 145.92 135.653 145.173 135.653 144.24C135.653 143.493 135.839 142.867 136.213 142.36C136.586 141.853 137.099 141.473 137.753 141.22C138.419 140.953 139.179 140.82 140.033 140.82C141.366 140.82 142.446 141.113 143.273 141.7C144.099 142.287 144.533 143.147 144.573 144.28H142.073C142.046 143.907 141.859 143.587 141.513 143.32C141.166 143.053 140.666 142.92 140.013 142.92C139.426 142.92 138.973 143.033 138.653 143.26C138.333 143.487 138.173 143.78 138.173 144.14C138.173 144.487 138.299 144.753 138.553 144.94C138.819 145.127 139.246 145.253 139.833 145.32L140.793 145.42C142.073 145.553 143.073 145.907 143.793 146.48C144.526 147.053 144.893 147.827 144.893 148.8C144.893 149.52 144.693 150.147 144.293 150.68C143.906 151.2 143.359 151.607 142.653 151.9C141.946 152.193 141.113 152.34 140.153 152.34Z" fill="#171753"/>
<defs>
<clipPath id="clip0_1711_1651">
<rect width="10.0265" height="16.3848" fill="white" transform="matrix(0.975342 -0.220697 -0.316808 0.94849 133.77 79.7457)"/>
</clipPath>
<clipPath id="clip1_1711_1651">
<rect width="10.5224" height="8.2473" fill="white" transform="matrix(0.446325 0.894871 -0.990273 0.139141 251.378 57.3092)"/>
</clipPath>
</defs>
</svg>
