<svg width="32" height="33" viewBox="0 0 32 33" fill="none" xmlns="http://www.w3.org/2000/svg">
<g clip-path="url(#clip0_289_10190)">
<path d="M29.5494 7.7844C28.5315 8.23466 27.452 8.53036 26.3467 8.66173C27.5117 7.96498 28.3837 6.86842 28.8001 5.5764C27.7067 6.22707 26.5081 6.68307 25.2587 6.92973C24.4195 6.03184 23.3072 5.43635 22.0947 5.23585C20.8821 5.03534 19.6373 5.24105 18.5538 5.821C17.4702 6.40095 16.6086 7.32264 16.1029 8.44279C15.5972 9.56293 15.4757 10.8188 15.7574 12.0151C13.5402 11.9039 11.3712 11.3278 9.39112 10.324C7.41106 9.32014 5.66424 7.91113 4.26407 6.1884C3.76846 7.03967 3.50801 8.00737 3.5094 8.9924C3.5094 10.9257 4.4934 12.6337 5.9894 13.6337C5.10408 13.6059 4.23825 13.3668 3.46407 12.9364V13.0057C3.46434 14.2933 3.9099 15.5412 4.7252 16.5378C5.54051 17.5344 6.67538 18.2184 7.9374 18.4737C7.11556 18.6964 6.25381 18.7293 5.4174 18.5697C5.77323 19.678 6.46675 20.6473 7.40086 21.3419C8.33497 22.0364 9.46291 22.4215 10.6267 22.4431C9.47004 23.3515 8.14564 24.023 6.72924 24.4193C5.31285 24.8155 3.83224 24.9287 2.37207 24.7524C4.921 26.3916 7.8882 27.2619 10.9187 27.2591C21.1761 27.2591 26.7854 18.7617 26.7854 11.3924C26.7854 11.1524 26.7787 10.9097 26.7681 10.6724C27.8599 9.88329 28.8022 8.90576 29.5507 7.78573L29.5494 7.7844Z" fill="#BEF0ED"/>
</g>
<defs>
<clipPath id="clip0_289_10190">
<rect width="32" height="32" fill="white" transform="translate(0 0.243164)"/>
</clipPath>
</defs>
</svg>
