<svg xmlns="http://www.w3.org/2000/svg" fill="currentColor" viewBox="0 0 24 24" width="16" height="16"><path d="M0 2.667v18.666A2.666 2.666 0 0 0 2.667 24h18.666A2.666 2.666 0 0 0 24 21.333V2.667A2.666 2.666 0 0 0 21.333 0H2.667A2.666 2.666 0 0 0 0 2.667M14.221 12.6h-2.824v8.732H9.121v-8.732H6.356v-1.934h7.865zm.443 8.234V18.5s1.275.961 2.805.961 1.471-1 1.471-1.137c0-1.452-4.335-1.452-4.335-4.668 0-4.375 6.316-2.648 6.316-2.648l-.078 2.079s-1.059-.707-2.256-.707-1.628.57-1.628 1.177c0 1.57 4.374 1.412 4.374 4.571 0 4.864-6.669 2.707-6.669 2.707"></path></svg>
