<svg width="300" height="180" viewBox="0 0 300 180" fill="none" xmlns="http://www.w3.org/2000/svg">
<rect width="300" height="180" fill="#9BE7C4"/>
<path d="M25.2 136L21.48 121.4H24.42L27.44 134.1L26.66 133.64H28.66L27.78 134.1L30.16 121.96H32.6L29.64 136H25.2ZM33.92 136L30.7 121.96H33.24L35.98 134.1L35.12 133.64H37.08L36.32 134.1L38.98 121.4H41.76L38.44 136H33.92ZM48.1627 136.38C47.2293 136.38 46.4093 136.22 45.7027 135.9C45.0093 135.58 44.4293 135.153 43.9627 134.62C43.5093 134.073 43.1627 133.467 42.9227 132.8C42.696 132.133 42.5827 131.453 42.5827 130.76V130.38C42.5827 129.66 42.696 128.967 42.9227 128.3C43.1627 127.62 43.5093 127.02 43.9627 126.5C44.4293 125.967 45.0027 125.547 45.6827 125.24C46.3627 124.92 47.1493 124.76 48.0427 124.76C49.216 124.76 50.196 125.02 50.9827 125.54C51.7827 126.047 52.3827 126.72 52.7827 127.56C53.1827 128.387 53.3827 129.28 53.3827 130.24V131.24H43.7627V129.54H51.6427L50.7827 130.38C50.7827 129.687 50.6827 129.093 50.4827 128.6C50.2827 128.107 49.976 127.727 49.5627 127.46C49.1627 127.193 48.656 127.06 48.0427 127.06C47.4293 127.06 46.9093 127.2 46.4827 127.48C46.056 127.76 45.7293 128.167 45.5027 128.7C45.2893 129.22 45.1827 129.847 45.1827 130.58C45.1827 131.26 45.2893 131.867 45.5027 132.4C45.716 132.92 46.0427 133.333 46.4827 133.64C46.9227 133.933 47.4827 134.08 48.1627 134.08C48.8427 134.08 49.396 133.947 49.8227 133.68C50.2493 133.4 50.5227 133.06 50.6427 132.66H53.2027C53.0427 133.407 52.736 134.06 52.2827 134.62C51.8293 135.18 51.2493 135.613 50.5427 135.92C49.8493 136.227 49.056 136.38 48.1627 136.38ZM62.085 136.36C61.1917 136.36 60.405 136.173 59.725 135.8C59.045 135.413 58.5117 134.853 58.125 134.12C57.7383 133.387 57.525 132.5 57.485 131.46H57.905V136H55.705V121.4H58.485V128.7L57.745 129.84C57.7983 128.72 58.0183 127.787 58.405 127.04C58.805 126.293 59.3383 125.733 60.005 125.36C60.6717 124.987 61.425 124.8 62.265 124.8C63.0117 124.8 63.6917 124.94 64.305 125.22C64.9183 125.5 65.445 125.893 65.885 126.4C66.325 126.893 66.6583 127.473 66.885 128.14C67.125 128.807 67.245 129.533 67.245 130.32V130.74C67.245 131.527 67.125 132.26 66.885 132.94C66.645 133.62 66.2983 134.22 65.845 134.74C65.3917 135.247 64.845 135.647 64.205 135.94C63.5783 136.22 62.8717 136.36 62.085 136.36ZM61.465 134.02C62.065 134.02 62.585 133.873 63.025 133.58C63.4783 133.273 63.8317 132.86 64.085 132.34C64.3383 131.82 64.465 131.22 64.465 130.54C64.465 129.847 64.3383 129.247 64.085 128.74C63.8317 128.233 63.4783 127.84 63.025 127.56C62.585 127.28 62.065 127.14 61.465 127.14C60.9183 127.14 60.4117 127.26 59.945 127.5C59.4917 127.74 59.1183 128.093 58.825 128.56C58.545 129.027 58.405 129.587 58.405 130.24V131.04C58.405 131.667 58.5517 132.2 58.845 132.64C59.1383 133.08 59.5183 133.42 59.985 133.66C60.4517 133.9 60.945 134.02 61.465 134.02ZM29.38 160.38C28.06 160.38 26.9267 160.147 25.98 159.68C25.0333 159.213 24.26 158.607 23.66 157.86C23.0733 157.113 22.64 156.3 22.36 155.42C22.08 154.54 21.94 153.693 21.94 152.88V152.44C21.94 151.533 22.08 150.64 22.36 149.76C22.6533 148.88 23.1 148.08 23.7 147.36C24.3 146.64 25.06 146.067 25.98 145.64C26.9133 145.2 28.0133 144.98 29.28 144.98C30.6 144.98 31.7467 145.22 32.72 145.7C33.7067 146.167 34.4933 146.833 35.08 147.7C35.6667 148.553 36.02 149.553 36.14 150.7H33.28C33.1733 150.033 32.9333 149.473 32.56 149.02C32.2 148.553 31.74 148.207 31.18 147.98C30.62 147.74 29.9867 147.62 29.28 147.62C28.56 147.62 27.92 147.747 27.36 148C26.8 148.24 26.3333 148.587 25.96 149.04C25.5867 149.493 25.3 150.027 25.1 150.64C24.9133 151.253 24.82 151.933 24.82 152.68C24.82 153.4 24.9133 154.067 25.1 154.68C25.3 155.293 25.5933 155.833 25.98 156.3C26.3667 156.753 26.84 157.107 27.4 157.36C27.9733 157.613 28.6333 157.74 29.38 157.74C30.4733 157.74 31.3933 157.473 32.14 156.94C32.9 156.393 33.36 155.633 33.52 154.66H36.38C36.2467 155.7 35.8933 156.653 35.32 157.52C34.7467 158.387 33.96 159.08 32.96 159.6C31.96 160.12 30.7667 160.38 29.38 160.38ZM38.5566 160V149.14H40.7566V153.74H40.6966C40.6966 152.18 41.0299 151 41.6966 150.2C42.3632 149.4 43.3432 149 44.6366 149H45.0366V151.42H44.2766C43.3432 151.42 42.6166 151.673 42.0966 152.18C41.5899 152.673 41.3366 153.393 41.3366 154.34V160H38.5566ZM53.4178 160V156.78H52.9578V153.2C52.9578 152.573 52.8045 152.107 52.4978 151.8C52.1911 151.493 51.7178 151.34 51.0778 151.34C50.7445 151.34 50.3445 151.347 49.8778 151.36C49.4111 151.373 48.9378 151.393 48.4578 151.42C47.9911 151.433 47.5711 151.453 47.1978 151.48V149.12C47.5045 149.093 47.8511 149.067 48.2378 149.04C48.6245 149.013 49.0178 149 49.4178 149C49.8311 148.987 50.2178 148.98 50.5778 148.98C51.6978 148.98 52.6245 149.127 53.3578 149.42C54.1045 149.713 54.6645 150.173 55.0378 150.8C55.4245 151.427 55.6178 152.247 55.6178 153.26V160H53.4178ZM49.9178 160.28C49.1311 160.28 48.4378 160.14 47.8378 159.86C47.2511 159.58 46.7911 159.18 46.4578 158.66C46.1378 158.14 45.9778 157.513 45.9778 156.78C45.9778 155.98 46.1711 155.327 46.5578 154.82C46.9578 154.313 47.5111 153.933 48.2178 153.68C48.9378 153.427 49.7778 153.3 50.7378 153.3H53.2578V154.96H50.6978C50.0578 154.96 49.5645 155.12 49.2178 155.44C48.8845 155.747 48.7178 156.147 48.7178 156.64C48.7178 157.133 48.8845 157.533 49.2178 157.84C49.5645 158.147 50.0578 158.3 50.6978 158.3C51.0845 158.3 51.4378 158.233 51.7578 158.1C52.0911 157.953 52.3645 157.713 52.5778 157.38C52.8045 157.033 52.9311 156.567 52.9578 155.98L53.6378 156.76C53.5711 157.52 53.3845 158.16 53.0778 158.68C52.7845 159.2 52.3711 159.6 51.8378 159.88C51.3178 160.147 50.6778 160.28 49.9178 160.28ZM62.1789 160L64.2389 149.5H67.4389L69.8189 160H67.6189L65.1989 149.56H66.3589L64.2189 160H62.1789ZM61.3589 160L61.3389 157.72H63.5589V160H61.3589ZM60.2389 160L57.2789 149.14H59.9789L62.7989 160H60.2389ZM68.3189 160V157.72H70.5389L70.5189 160H68.3189ZM69.1989 160L71.6989 149.14H74.2189L71.5989 160H69.1989ZM76.5481 160V145.4H79.3281V160H76.5481ZM75.1881 147.48V145.4H79.3281V147.48H75.1881ZM87.3619 160.38C86.4285 160.38 85.6085 160.22 84.9019 159.9C84.2085 159.58 83.6285 159.153 83.1619 158.62C82.7085 158.073 82.3619 157.467 82.1219 156.8C81.8952 156.133 81.7819 155.453 81.7819 154.76V154.38C81.7819 153.66 81.8952 152.967 82.1219 152.3C82.3619 151.62 82.7085 151.02 83.1619 150.5C83.6285 149.967 84.2019 149.547 84.8819 149.24C85.5619 148.92 86.3485 148.76 87.2419 148.76C88.4152 148.76 89.3952 149.02 90.1819 149.54C90.9819 150.047 91.5819 150.72 91.9819 151.56C92.3819 152.387 92.5819 153.28 92.5819 154.24V155.24H82.9619V153.54H90.8419L89.9819 154.38C89.9819 153.687 89.8819 153.093 89.6819 152.6C89.4819 152.107 89.1752 151.727 88.7619 151.46C88.3619 151.193 87.8552 151.06 87.2419 151.06C86.6285 151.06 86.1085 151.2 85.6819 151.48C85.2552 151.76 84.9285 152.167 84.7019 152.7C84.4885 153.22 84.3819 153.847 84.3819 154.58C84.3819 155.26 84.4885 155.867 84.7019 156.4C84.9152 156.92 85.2419 157.333 85.6819 157.64C86.1219 157.933 86.6819 158.08 87.3619 158.08C88.0419 158.08 88.5952 157.947 89.0219 157.68C89.4485 157.4 89.7219 157.06 89.8419 156.66H92.4019C92.2419 157.407 91.9352 158.06 91.4819 158.62C91.0285 159.18 90.4485 159.613 89.7419 159.92C89.0485 160.227 88.2552 160.38 87.3619 160.38ZM94.9042 160V149.14H97.1042V153.74H97.0442C97.0442 152.18 97.3776 151 98.0442 150.2C98.7109 149.4 99.6909 149 100.984 149H101.384V151.42H100.624C99.6909 151.42 98.9642 151.673 98.4442 152.18C97.9376 152.673 97.6842 153.393 97.6842 154.34V160H94.9042ZM107.184 160.34C105.691 160.34 104.517 160.027 103.664 159.4C102.824 158.76 102.384 157.88 102.344 156.76H104.844C104.884 157.133 105.091 157.473 105.464 157.78C105.837 158.087 106.424 158.24 107.224 158.24C107.891 158.24 108.417 158.12 108.804 157.88C109.204 157.64 109.404 157.313 109.404 156.9C109.404 156.54 109.251 156.253 108.944 156.04C108.651 155.827 108.144 155.687 107.424 155.62L106.464 155.52C105.251 155.387 104.317 155.04 103.664 154.48C103.011 153.92 102.684 153.173 102.684 152.24C102.684 151.493 102.871 150.867 103.244 150.36C103.617 149.853 104.131 149.473 104.784 149.22C105.451 148.953 106.211 148.82 107.064 148.82C108.397 148.82 109.477 149.113 110.304 149.7C111.131 150.287 111.564 151.147 111.604 152.28H109.104C109.077 151.907 108.891 151.587 108.544 151.32C108.197 151.053 107.697 150.92 107.044 150.92C106.457 150.92 106.004 151.033 105.684 151.26C105.364 151.487 105.204 151.78 105.204 152.14C105.204 152.487 105.331 152.753 105.584 152.94C105.851 153.127 106.277 153.253 106.864 153.32L107.824 153.42C109.104 153.553 110.104 153.907 110.824 154.48C111.557 155.053 111.924 155.827 111.924 156.8C111.924 157.52 111.724 158.147 111.324 158.68C110.937 159.2 110.391 159.607 109.684 159.9C108.977 160.193 108.144 160.34 107.184 160.34Z" fill="#171753"/>
<path d="M25.9719 95.5355C25.9719 83.3402 34.5215 68.523 45.1474 62.4254C50.0329 59.6205 54.4909 59.1327 57.8496 60.6571L58.155 60.84L61.6359 62.7913L63.5901 66.145C65.361 68.4621 64.2618 69.1938 64.2618 73.4621C64.2618 85.6573 55.7122 100.475 45.0863 106.572C41.3611 108.706 42.3382 108.584 39.4069 108.158L34.8879 109.804L31.6513 107.975L31.3459 107.792C28.0482 105.719 25.9719 101.511 25.9719 95.5355Z" fill="#49CE8B"/>
<path d="M34.8878 110.231L39.468 108.584C39.7123 108.645 39.8955 108.645 40.0787 108.706C41.8496 109.011 41.9107 108.95 43.6817 107.914C44.1092 107.67 44.5977 107.365 45.2695 106.999C55.9565 100.779 64.6892 85.7793 64.6892 73.4621C64.6892 72.0597 64.8114 71.084 64.9335 70.2913C65.0557 68.584 65.1778 67.6084 63.8954 65.9011L61.9412 62.4864L58.0328 60.3522C54.3687 58.7059 49.7275 59.3156 44.9031 62.1205C34.2772 68.2182 25.6054 83.2183 25.6054 95.5355C25.6054 101.45 27.6207 105.901 31.2237 108.097L31.5291 108.28L34.8878 110.231ZM39.4069 107.792L35.01 109.377L31.5901 107.426C28.2314 105.353 26.3993 101.145 26.3993 95.5355C26.3993 83.4622 34.8878 68.7669 45.3305 62.7303C49.9107 60.1083 54.3076 59.4986 57.7274 61.023L61.3916 63.0352L63.2847 66.3279C64.445 67.7913 64.3228 68.523 64.1396 70.1694C64.0175 71.0231 63.8954 72.0597 63.8954 73.4621C63.8954 85.5354 55.4068 100.231 44.9641 106.267C44.2924 106.633 43.8038 106.938 43.3764 107.243C41.7886 108.219 41.7886 108.219 40.2619 107.975C40.0176 107.914 39.7733 107.914 39.529 107.853L39.4069 107.792Z" fill="#171753"/>
<path d="M54.613 98.0355C51.8038 101.511 48.5672 104.499 45.0252 106.511C41.3001 108.645 42.2771 108.523 39.3459 108.097L34.8268 109.743L31.5902 107.914L31.2848 107.731C27.9261 105.658 25.8497 101.45 25.8497 95.4745C25.8497 89.9867 27.5596 83.95 30.4299 78.4622L46.7351 87.4257L54.613 98.0355Z" fill="#171753"/>
<path d="M34.5387 109.591C27.0615 105.28 27.0561 91.3122 34.5267 78.3928C41.9973 65.4733 54.1148 58.4944 61.592 62.8049C69.0692 67.1155 69.0745 81.0832 61.604 94.0027C54.1334 106.922 42.0158 113.901 34.5387 109.591Z" fill="#ECFFFE"/>
<path d="M39.5291 111.267C42.2161 111.267 45.2084 110.353 48.2618 108.584C58.9488 102.426 67.6205 87.4257 67.6205 75.1085C67.6205 69.0718 65.5442 64.5596 61.819 62.4254C58.0939 60.2913 53.1473 60.7181 47.8954 63.7669C37.2085 69.9255 28.5367 84.9256 28.5367 97.2428C28.5367 103.279 30.6131 107.792 34.3382 109.926C35.926 110.841 37.6359 111.267 39.5291 111.267ZM56.6282 61.8766C58.3992 61.8766 59.987 62.3035 61.4526 63.0962C64.9335 65.1084 66.8877 69.3767 66.8877 75.1085C66.8877 87.1818 58.3992 101.877 47.9565 107.914C42.9489 110.78 38.3077 111.267 34.8268 109.255C31.3459 107.243 29.3917 102.975 29.3917 97.2428C29.3917 85.1695 37.8802 70.4743 48.3229 64.4376C51.2542 62.7303 54.0633 61.8766 56.6282 61.8766Z" fill="#171753"/>
<path d="M37.8167 103.919C32.1471 100.651 32.1401 90.0648 37.8011 80.2748C43.4621 70.4847 52.6474 65.198 58.3171 68.4665C63.9867 71.735 63.9937 82.3211 58.3327 92.1112C52.6717 101.901 43.4864 107.188 37.8167 103.919Z" fill="#49CE8B"/>
<path d="M41.8064 105.796C43.8708 105.796 46.0983 105.08 48.4344 103.758C56.5293 99.0203 63.103 87.4525 63.103 77.9778C63.103 73.2956 61.5275 69.8252 58.7024 68.1726C55.8774 66.5201 52.0744 66.8506 48.1084 69.2193C40.0135 73.9566 33.4398 85.5245 33.4398 94.9991C33.4398 99.6814 35.0153 103.152 37.8404 104.804C39.0356 105.41 40.3938 105.796 41.8064 105.796ZM54.7365 67.7871C56.0404 67.7871 57.2899 68.1176 58.3221 68.7235C60.9842 70.2659 62.4511 73.5159 62.4511 77.9227C62.4511 87.177 56.0404 98.4695 48.1084 103.097C44.3598 105.3 40.8285 105.686 38.2207 104.143C35.613 102.601 34.1461 99.3508 34.1461 94.944C34.1461 85.6897 40.5568 74.3973 48.4887 69.7701C50.7162 68.4481 52.835 67.7871 54.7365 67.7871Z" fill="#171753" stroke="#171753" stroke-width="0.41935"/>
<path d="M45.8761 61.7569L48.849 63.4451L48.4565 64.1342L45.4836 62.446L45.8761 61.7569Z" fill="#171753"/>
<path d="M31.9368 75.9413L34.9097 77.6295L34.5172 78.3186L31.5443 76.6304L31.9368 75.9413Z" fill="#171753"/>
<path d="M51.5426 59.8L54.5155 61.4882L54.123 62.1773L51.1501 60.489L51.5426 59.8Z" fill="#171753"/>
<g clip-path="url(#clip0_1711_1650)">
<path d="M58.1278 76.8293C57.3891 77.5143 56.5997 78.0949 55.7858 78.5519C56.6252 77.6223 57.2343 76.4653 57.4997 75.2964C56.7118 76.1661 55.8395 76.9132 54.9227 77.5085C54.2716 77.0551 53.4283 76.9312 52.5239 77.1561C51.6195 77.3809 50.7047 77.9419 49.9218 78.7518C49.1388 79.5617 48.5315 80.5752 48.1943 81.6347C47.8571 82.6941 47.8088 83.7402 48.0571 84.6103C46.4119 85.2264 44.7868 85.4541 43.2875 85.2787C41.7882 85.1033 40.4482 84.5286 39.3543 83.5919C39.0156 84.4325 38.8549 85.2916 38.8887 86.0814C38.9529 87.6324 39.7381 88.6896 40.8789 89.0159C40.2225 89.2752 39.5735 89.3588 38.9861 89.2598L38.9884 89.3154C39.0313 90.3483 39.4026 91.2076 40.0393 91.7478C40.6761 92.2879 41.539 92.4756 42.4818 92.279C41.8808 92.7191 41.2438 93.0196 40.6193 93.1576C40.9195 93.9336 41.4652 94.4905 42.1798 94.7506C42.8945 95.0107 43.7424 94.9608 44.6047 94.6079C43.7785 95.7046 42.8203 96.6646 41.7848 97.433C40.7493 98.2014 39.6568 98.7632 38.5699 99.0862C40.5115 99.5904 42.7372 99.3447 44.9808 98.3785C52.575 95.1158 56.4459 86.5148 56.2012 80.6029C56.1932 80.4104 56.1802 80.2178 56.1645 80.0308C56.9466 79.0505 57.6118 77.9666 58.1288 76.83L58.1278 76.8293Z" fill="#171753"/>
</g>
<path d="M203.171 119.92C231.176 119.92 253.889 97.5599 253.889 69.9641C253.889 42.3684 231.176 20.0087 203.171 20.0087C175.166 20.0087 152.453 42.3684 152.453 69.9641C152.453 97.5599 175.166 119.92 203.171 119.92Z" fill="#BEF0ED" stroke="#171753" stroke-width="0.854644"/>
<path d="M204.696 20.4907C203.933 21.8529 202.898 22.9426 201.427 23.324C198.103 24.1958 195.434 22.9971 193.799 21.308C182.03 23.4875 171.623 29.7534 164.322 38.5257C166.774 38.1443 169.498 38.3078 172.004 39.8879C172.004 39.8879 167.482 40.3238 167.645 43.7564C167.863 47.189 171.786 43.8109 173.639 46.5352C175.546 49.2595 178.815 45.7179 176.527 43.8109C174.238 41.8494 176.854 39.1251 178.924 40.4327C180.94 41.7404 181.322 44.3013 180.123 46.9166C178.924 49.5864 183.446 48.9871 184.536 51.439C185.68 53.8909 182.669 55.5828 184.427 56.2883C186.035 56.9333 187.969 53.6184 187.969 53.6184C188.895 52.9101 190.148 53.0191 190.966 53.8364C190.966 53.8364 191.659 54.299 191.837 54.7627C192.275 55.9008 189.712 55.3075 189.549 56.8876C189.386 58.4677 193.091 57.9229 193.2 60.0478C193.309 62.2273 196.523 62.4997 196.85 59.6119C197.177 56.6697 198.757 56.3428 198.757 56.3428C198.757 56.3428 198.267 53.4005 195.325 53.346C192.328 53.2915 194.006 51.4893 193.254 50.2403C192.567 49.0981 190.748 49.7499 191.619 47.2435C192.491 44.7372 187.587 41.9039 193.69 39.7789C199.792 37.6539 197.613 35.0386 197.613 35.0386L194.671 34.2213C194.671 34.2213 199.302 32.9681 199.248 30.1893C199.248 27.4105 204.315 25.7759 205.405 30.2983C206.494 34.8206 203.824 36.1828 203.824 36.1828C203.824 36.1828 207.203 35.9649 207.148 37.8719C207.094 39.7789 204.369 40.9231 204.369 40.9231C204.369 40.9231 204.696 44.6827 202.898 45.0096C201.1 45.3365 201.318 43.3205 201.318 43.3205C201.318 43.3205 198.103 43.1571 198.866 45.391C199.683 47.6249 197.994 49.6211 198.757 52.1473C199.325 54.0271 201.754 53.7819 201.264 56.5062C200.773 59.2305 199.792 62.1183 203.334 63.8619C206.876 65.551 205.21 66.8046 206.603 68.5477C207.892 70.1601 209.312 70.5821 210.145 72.4707C210.638 73.5901 209.001 74.7592 210.853 75.522C212.76 76.3393 213.142 73.4515 217.991 75.2495C222.84 77.0476 224.42 76.3937 225.129 75.4675C225.129 75.4675 229.052 76.7207 230.795 71.9259C230.795 71.9259 234.173 69.365 232.103 64.8971C232.103 64.8971 234.391 62.3907 232.92 59.503C231.503 56.6152 233.356 53.8364 234.991 53.7819C234.991 53.7819 234.337 50.7851 236.789 50.9486C239.241 51.1121 238.641 53.6729 238.641 53.6729C238.641 53.6729 242.074 50.0768 245.997 52.5287C245.997 52.5287 245.67 57.1056 248.34 56.8331C249.538 56.7242 250.901 57.269 252.045 57.8684C246.651 36.8366 227.635 21.1446 204.696 20.4907Z" fill="#49CE8B" stroke="#171753" stroke-width="0.854644"/>
<path d="M216.018 109.378L216.017 109.378C214.948 109.251 214.131 109.309 213.462 109.495C212.791 109.682 212.293 109.992 211.857 110.336C211.629 110.516 211.423 110.699 211.222 110.877C210.642 111.392 210.102 111.871 209.162 112.172C207.913 112.571 206.585 112.603 205.293 112.635C204.987 112.643 204.683 112.65 204.382 112.662C202.876 112.724 201.384 112.908 200.533 114.103C199.848 115.03 198.743 115.465 197.759 115.662C197.272 115.76 196.829 115.795 196.508 115.807C196.348 115.813 196.219 115.812 196.131 115.81C196.087 115.809 196.054 115.808 196.032 115.807L196.025 115.807L196.015 115.805C195.99 115.8 195.955 115.793 195.911 115.784C195.823 115.767 195.701 115.745 195.562 115.724C195.293 115.683 194.932 115.64 194.644 115.656C194.509 115.663 194.332 115.685 194.187 115.768C194.107 115.814 194.015 115.892 193.963 116.016C193.91 116.144 193.921 116.271 193.954 116.374C194.014 116.555 194.162 116.716 194.325 116.859C194.5 117.013 194.746 117.192 195.073 117.401C196.093 118.064 196.268 118.617 196.268 119.002V119.317L196.58 119.362C198.507 119.637 200.43 119.747 202.397 119.802L202.402 119.802C212.881 119.966 222.704 117.003 230.881 111.79L231.134 111.629L231.025 111.35C230.644 110.378 231.221 108.847 233.664 107.784L233.664 107.785L233.67 107.782C236.236 106.61 237.135 105.291 237.311 104.17C237.397 103.621 237.303 103.154 237.188 102.825C237.13 102.661 237.067 102.529 237.016 102.437C236.991 102.391 236.969 102.355 236.952 102.328C236.949 102.323 236.946 102.318 236.943 102.314C236.939 102.307 236.935 102.302 236.932 102.297L236.925 102.287L236.923 102.284L236.922 102.282L236.921 102.282C236.921 102.281 236.921 102.281 236.625 102.493L236.921 102.281L236.82 102.14L236.646 102.129L236.646 102.129L236.646 102.129L236.646 102.129L236.645 102.129L236.639 102.129L236.612 102.127C236.588 102.125 236.551 102.122 236.504 102.117C236.409 102.107 236.275 102.09 236.115 102.062C235.794 102.006 235.386 101.908 235.015 101.744C234.638 101.578 234.339 101.361 234.18 101.09C234.033 100.839 233.972 100.486 234.184 99.9579C234.691 98.6906 234.641 97.8962 234.331 97.4023C234.178 97.1587 233.98 97.0199 233.819 96.943C233.739 96.9048 233.667 96.8815 233.613 96.8674C233.586 96.8603 233.564 96.8554 233.546 96.8521C233.537 96.8505 233.529 96.8492 233.523 96.8483L233.514 96.8471L233.511 96.8466L233.509 96.8464L233.509 96.8463C233.508 96.8463 233.508 96.8463 233.465 97.2074L233.508 96.8463L233.25 96.8153L233.137 97.0493C232.973 97.3893 232.78 97.5809 232.584 97.6901C232.385 97.8007 232.15 97.8447 231.872 97.834C231.39 97.8156 230.866 97.6425 230.309 97.4589C230.194 97.4208 230.077 97.3822 229.959 97.3445C229.632 97.24 229.293 97.1427 228.977 97.1072C228.661 97.0718 228.322 97.092 228.026 97.2725C227.722 97.4584 227.531 97.7728 227.432 98.1856C227.335 98.5923 227.318 99.1236 227.381 99.8019C227.499 101.071 227.303 101.925 226.937 102.541C226.569 103.157 226.004 103.58 225.291 103.936C224.781 104.19 224.225 104.398 223.63 104.62C223.38 104.713 223.122 104.81 222.858 104.913C221.988 105.254 221.082 105.663 220.273 106.292C219.786 106.672 219.515 107.122 219.318 107.547C219.247 107.7 219.182 107.857 219.122 108.002C219.101 108.053 219.081 108.102 219.061 108.149C218.981 108.338 218.906 108.505 218.818 108.654C218.649 108.938 218.433 109.159 218.045 109.295C217.638 109.439 217.015 109.498 216.018 109.378Z" fill="#49CE8B" stroke="#171753" stroke-width="0.727532"/>
<path d="M153.225 69.579L152.515 69.6893C152.406 86.8171 161.135 102.076 174.58 111.077L175.04 110.517C175.042 110.52 175.034 110.511 175.014 110.486C174.996 110.464 174.972 110.434 174.946 110.398C174.893 110.324 174.831 110.229 174.777 110.126C174.657 109.894 174.628 109.718 174.662 109.623C174.678 109.578 174.761 109.411 175.317 109.367C175.866 109.323 176.764 109.414 178.182 109.765L178.802 109.919L178.618 109.308L178.27 109.412C178.618 109.308 178.618 109.308 178.618 109.307L178.618 109.307L178.618 109.306L178.617 109.303L178.615 109.295L178.606 109.267C178.598 109.244 178.586 109.21 178.571 109.168C178.54 109.083 178.494 108.961 178.428 108.81C178.298 108.508 178.092 108.086 177.789 107.599C177.181 106.624 176.181 105.385 174.606 104.316C173.102 103.296 172.055 102.22 171.605 101.357C171.378 100.924 171.328 100.593 171.383 100.367C171.432 100.166 171.583 99.9724 171.962 99.8387L172.835 99.5306L171.986 99.1622L171.986 99.1622L171.986 99.1621L171.985 99.162L171.985 99.162L171.981 99.1602L171.962 99.1514C171.944 99.1431 171.917 99.1302 171.883 99.1128C171.813 99.0778 171.714 99.0248 171.598 98.9547C171.364 98.8131 171.073 98.6074 170.823 98.3457C170.573 98.0832 170.381 97.7812 170.312 97.4459C170.254 97.1632 170.278 96.8281 170.472 96.4334L172.047 96.4811L172.243 96.4871L172.356 96.3267L172.058 96.1175C172.356 96.3267 172.356 96.3265 172.356 96.3263L172.357 96.3259L172.357 96.325L172.359 96.3225L172.364 96.3153C172.368 96.3095 172.373 96.3018 172.379 96.2921C172.392 96.2728 172.409 96.2458 172.429 96.2117C172.469 96.1437 172.521 96.0467 172.576 95.9253C172.686 95.6838 172.807 95.3389 172.849 94.9292C172.937 94.0863 172.684 93.0224 171.465 92.0712L171.173 91.8431L170.951 92.139L170.951 92.1391L170.95 92.1393L170.95 92.1395L170.95 92.1397L170.949 92.1408L170.941 92.151C170.934 92.1606 170.921 92.1759 170.905 92.1955C170.871 92.235 170.821 92.2918 170.755 92.3578C170.623 92.4909 170.436 92.6545 170.211 92.7874C169.771 93.0482 169.221 93.1786 168.612 92.7653C167.987 92.341 167.579 91.3292 167.66 90.3796C167.7 89.9166 167.853 89.5061 168.119 89.2102C168.379 88.9212 168.77 88.7131 169.349 88.6895C170.59 88.6388 171.148 89.0404 171.41 89.3793C171.548 89.5581 171.62 89.7401 171.657 89.8774C171.676 89.9457 171.685 90.0015 171.69 90.0381C171.693 90.0563 171.694 90.0696 171.695 90.0769L171.695 90.083L171.695 90.0831L171.695 90.0834L171.695 90.0836L171.711 90.6209L172.205 90.4023L172.058 90.0696C172.205 90.4023 172.206 90.4022 172.206 90.4021L172.207 90.4018L172.208 90.4013L172.211 90.3999L172.22 90.3958C172.227 90.3925 172.236 90.3881 172.247 90.3826C172.269 90.3715 172.299 90.3558 172.335 90.3351C172.408 90.2938 172.506 90.2323 172.616 90.1479C172.835 89.9801 173.108 89.7163 173.312 89.3358C173.736 88.5459 173.807 87.3705 172.804 85.7383C172.291 84.9021 171.673 84.4084 171.019 84.1593C170.37 83.9119 169.718 83.9176 169.151 84.0251C168.584 84.1325 168.089 84.3438 167.738 84.5251C167.561 84.6162 167.419 84.701 167.32 84.7638C167.293 84.7808 167.269 84.7962 167.249 84.8097C167.237 84.8103 167.223 84.8108 167.209 84.8112C167.121 84.814 166.992 84.8143 166.832 84.8037C166.511 84.7824 166.072 84.7176 165.597 84.5447C164.66 84.2036 163.565 83.4351 162.977 81.6726C162.819 81.1984 162.689 80.8519 162.581 80.6124C162.527 80.4932 162.475 80.3916 162.423 80.311C162.381 80.2447 162.306 80.1385 162.19 80.0766C162.121 80.0399 162.018 80.0083 161.898 80.0363C161.781 80.0638 161.704 80.1354 161.662 80.1915C161.587 80.2888 161.562 80.4046 161.551 80.468C161.524 80.6172 161.521 80.8154 161.526 81.0139C161.537 81.4223 161.588 81.9446 161.635 82.3575C161.659 82.5655 161.682 82.7486 161.699 82.8798C161.703 82.9117 161.707 82.9406 161.71 82.966C161.684 82.9888 161.645 83.004 161.59 83.004C161.5 83.004 161.42 82.9591 161.379 82.8819C161.204 82.5034 160.948 82.0917 160.609 81.7838C160.263 81.4702 159.806 81.2453 159.261 81.3181L159.259 81.3183C158.762 81.3869 158.39 81.6385 158.23 82.0718C158.084 82.4665 158.143 82.9399 158.295 83.4115C158.603 84.3658 159.376 85.5541 160.398 86.7139L160.398 86.7139L160.401 86.7172C161.316 87.7317 161.387 88.7796 161.233 89.5859C161.192 89.7998 161.135 89.9966 161.074 90.1707C161.017 90.0396 160.949 89.8979 160.869 89.7476C160.446 88.9612 159.671 87.9496 158.26 86.9899L158.257 86.9881C156.994 86.1457 156.294 84.423 156.287 82.9779C156.284 82.2576 156.454 81.6678 156.75 81.3078C157.024 80.9752 157.44 80.7941 158.082 80.9433L158.761 81.1009L158.502 80.4538L157.664 78.3582L159.835 80.2118L160.011 80.3614L160.221 80.2668L160.071 79.9351C160.221 80.2668 160.221 80.2667 160.221 80.2666L160.222 80.2663L160.223 80.2656L160.227 80.264L160.236 80.2595C160.244 80.256 160.253 80.2513 160.264 80.2455C160.286 80.2339 160.316 80.2176 160.35 80.1962C160.419 80.1535 160.51 80.0895 160.607 80.0008C160.799 79.8232 161.018 79.5395 161.102 79.1293C161.271 78.3004 160.86 77.1564 159.176 75.5828C155.892 72.5144 156.153 70.7289 156.469 70.1353L156.755 69.6003L156.148 69.6003L156.148 69.9641C156.148 69.6003 156.148 69.6003 156.148 69.6003L156.147 69.6003L156.145 69.6003L156.142 69.6004L156.133 69.6006C156.126 69.6008 156.118 69.6012 156.109 69.6018C156.091 69.603 156.068 69.6052 156.04 69.6092C155.985 69.6171 155.912 69.632 155.826 69.66C155.654 69.7163 155.434 69.8244 155.209 70.0284C154.799 70.4009 154.403 71.0617 154.206 72.2207C153.925 71.6133 153.572 70.645 153.225 69.579ZM162.272 80.5737C162.272 80.5738 162.272 80.5754 162.271 80.5781C162.272 80.575 162.272 80.5736 162.272 80.5737ZM161.791 80.6762C161.791 80.6761 161.792 80.677 161.793 80.679C161.792 80.6772 161.791 80.6762 161.791 80.6762Z" fill="#49CE8B" stroke="#171753" stroke-width="0.727532"/>
<path d="M156.631 66.8912C157.227 67.3812 159.444 69.3893 161.042 73.3162C161.988 75.6405 163.454 76.6004 164.849 76.4753C166.215 76.3528 167.32 75.1946 167.537 73.7027C167.57 73.4708 167.464 73.2766 167.325 73.1586C167.19 73.0436 167.005 72.9806 166.815 73.0016C166.504 73.0359 166.002 73.003 165.543 72.5579C165.074 72.1027 164.591 71.1603 164.467 69.2327C164.159 64.4658 161.639 60.5174 161.243 59.9218C161.152 59.7861 161.018 59.704 160.876 59.6723L158.35 59.111C157.952 59.0226 157.585 59.3404 157.604 59.7408C157.653 60.7529 157.68 63.8283 156.475 66.1178C156.338 66.3791 156.402 66.7028 156.631 66.8912Z" fill="#49CE8B" stroke="#171753" stroke-width="0.727532"/>
<path d="M156.342 61.2605L156.342 61.2606L156.343 61.2569C156.741 59.0602 157.447 57.9652 158.098 57.4249C158.743 56.8898 159.385 56.8575 159.755 56.8977C159.958 56.9199 160.149 56.8448 160.282 56.724C160.418 56.6017 160.521 56.4066 160.492 56.1773L160.176 53.6443C160.151 53.4479 160.032 53.2758 159.857 53.1833L158.281 52.3517C158.498 51.6701 158.982 49.8986 158.873 47.9652C158.857 47.6733 158.65 47.4683 158.404 47.4217C158.162 47.3757 157.899 47.4861 157.769 47.7398C155.061 53.0432 153.236 58.9209 152.613 65.1908C152.567 65.6525 153.062 66.0277 153.503 65.7621C154.761 65.0036 155.882 63.6659 156.342 61.2605Z" fill="#49CE8B" stroke="#171753" stroke-width="0.727532"/>
<path d="M176.726 55.2469L176.726 55.247L176.732 55.2433C177.449 54.8061 178.069 54.8527 178.582 55.0723C179.116 55.3006 179.548 55.7244 179.82 56.0513C179.977 56.2393 180.211 56.3062 180.418 56.2702C180.63 56.2334 180.84 56.081 180.902 55.8187C181.051 55.1899 181.254 54.0532 181.087 52.9845C181.003 52.4465 180.822 51.9047 180.473 51.453C180.12 50.995 179.61 50.6508 178.912 50.4915L178.912 50.4915L178.908 50.4906C178.163 50.33 177.587 50.3686 177.109 50.5674C176.636 50.7642 176.306 51.0999 176.025 51.4377C175.928 51.5547 175.835 51.6718 175.744 51.7874C175.297 52.3559 174.88 52.8864 174.035 53.1693C173.35 53.3776 172.918 53.9956 172.961 54.6929C172.967 54.7777 172.991 54.8536 173.023 54.9173L173.033 54.937C173.207 55.8963 174.189 56.4364 175.092 56.0901C175.561 55.914 176.077 55.6258 176.726 55.2469Z" fill="#49CE8B" stroke="#171753" stroke-width="0.727532"/>
<path d="M163.94 61.1921C164.104 63.0991 167.046 62.8267 166.937 60.9197V60.8652C166.719 58.5767 164.43 58.7947 164.049 60.3748C163.94 60.7017 163.94 60.9741 163.94 61.1921Z" fill="#49CE8B" stroke="#171753" stroke-width="0.727532"/>
<path d="M187.096 113.717C187.096 113.717 188.077 111.864 184.536 111.919C182.465 111.919 181.212 113.008 179.087 113.444C179.632 113.717 180.122 113.989 180.667 114.262C180.667 114.207 184.59 112.736 187.096 113.717Z" fill="#49CE8B" stroke="#171753" stroke-width="0.727532"/>
<path d="M215.18 80.3945C215.18 79.7023 214.641 79.0409 213.881 79.0409C213.122 79.0409 212.582 79.7023 212.582 80.3945C212.582 81.0866 213.122 81.7481 213.881 81.7481C214.641 81.7481 215.18 81.0866 215.18 80.3945Z" fill="#49CE8B" stroke="#171753" stroke-width="0.854644"/>
<path d="M198.125 42.3786L198.125 42.3788L198.138 42.376C198.579 42.2814 199.077 42.0713 199.473 41.6416C199.874 41.2068 200.135 40.586 200.165 39.7395L200.172 39.5277L200.008 39.3935C199.236 38.762 197.998 38.869 197.465 39.8292C197.156 40.2878 196.835 40.5501 196.469 40.5501H195.714L196.102 41.1973L196.249 41.4426C196.567 42.1867 197.376 42.5147 198.125 42.3786Z" fill="#49CE8B" stroke="#171753" stroke-width="0.854644"/>
<path d="M174.859 92.5062L174.859 92.5064L174.872 92.5036C175.314 92.409 175.811 92.1989 176.207 91.7692C176.608 91.3344 176.869 90.7136 176.899 89.8671L176.906 89.6553L176.742 89.5211C175.971 88.8895 174.732 88.9966 174.199 89.9568C173.89 90.4154 173.569 90.6777 173.203 90.6777H172.511L172.82 91.2961L172.98 91.6151C173.297 92.3146 174.11 92.6423 174.859 92.5062Z" fill="#49CE8B" stroke="#171753" stroke-width="0.854644"/>
<path d="M250.165 65.9637L250.134 65.9852L250.108 66.0116C249.98 66.1391 249.867 66.3148 249.837 66.5258C249.804 66.7543 249.876 66.984 250.053 67.1608C250.978 68.0859 251.663 69.7758 252.125 71.3324C252.496 72.5825 252.696 73.6314 252.783 74.0904C252.805 74.2052 252.82 74.2831 252.829 74.318L253.668 74.2548C253.779 73.0984 253.834 71.9419 253.834 70.7853C253.889 67.5428 253.614 64.4129 253.12 61.3422L253.097 61.2005L252.994 61.1012C251.653 59.819 250.301 59.4847 249.111 59.6305C247.946 59.7734 246.987 60.3699 246.382 60.8593C245.801 61.3261 246.132 62.2611 246.854 62.2731C247.772 62.3257 249.11 62.6321 250.147 63.7665C250.735 64.4294 250.785 64.9054 250.715 65.2106C250.639 65.5439 250.391 65.805 250.165 65.9637Z" fill="#49CE8B" stroke="#171753" stroke-width="0.854644"/>
<path d="M160.591 42.8069L161.195 43.3937C162.357 42.5486 163.659 41.9694 164.913 42.109C165.065 42.1348 165.219 42.113 165.355 42.0374C165.494 41.9604 165.588 41.8418 165.641 41.7181C165.74 41.4861 165.716 41.1791 165.507 40.9601C165.077 40.4714 164.31 39.8891 163.32 39.5395L163.021 39.4341L162.833 39.6889L162.831 39.692C162.07 40.7251 161.303 41.7654 160.591 42.8069Z" fill="#49CE8B" stroke="#171753" stroke-width="0.854644"/>
<path d="M199.564 110.051C199.252 110.219 199.025 110.349 198.92 110.434C198.903 110.447 198.88 110.468 198.856 110.494C198.839 110.512 198.787 110.569 198.756 110.659C198.739 110.709 198.723 110.788 198.741 110.882C198.76 110.983 198.813 111.065 198.879 111.124C198.987 111.22 199.108 111.231 199.135 111.234L199.135 111.234C199.211 111.241 199.281 111.228 199.307 111.223C199.345 111.215 199.387 111.205 199.427 111.194C199.605 111.146 199.922 111.041 200.317 110.909C200.583 110.82 200.884 110.72 201.202 110.617C202.014 110.355 202.978 110.064 203.897 109.862C204.829 109.657 205.663 109.557 206.235 109.64C206.581 109.691 206.882 109.698 207.119 109.64C207.358 109.582 207.652 109.416 207.689 109.056C207.718 108.774 207.558 108.532 207.426 108.378C207.277 108.203 207.071 108.032 206.833 107.874C205.889 107.247 204.173 106.65 202.412 106.944C201.593 107.08 201.054 107.265 200.746 107.571C200.388 107.926 200.426 108.351 200.455 108.615C200.457 108.635 200.459 108.655 200.461 108.674C200.49 108.931 200.508 109.091 200.437 109.271C200.366 109.452 200.17 109.722 199.564 110.051ZM199.14 110.384C199.141 110.384 199.143 110.384 199.146 110.383C199.142 110.384 199.14 110.384 199.14 110.384Z" fill="#49CE8B" stroke="#171753" stroke-width="0.854644"/>
<path d="M187.823 31.5853L187.821 31.5863L187.821 31.5863L187.821 31.5864L187.821 31.5864C187.82 31.5865 187.82 31.5865 187.82 31.5865L187.025 31.8786L187.734 32.3444C188.739 33.0049 190.028 33.4932 191.209 33.6308C192.36 33.765 193.573 33.5784 194.205 32.6664L194.205 32.6664L194.209 32.6602C194.504 32.2179 194.603 31.7834 194.545 31.3765C194.489 30.9795 194.29 30.6581 194.078 30.4175C193.866 30.1766 193.623 29.9971 193.44 29.8796C193.416 29.8644 193.393 29.85 193.371 29.8366C193.39 28.9817 193.05 28.3241 192.524 27.8707C191.957 27.383 191.204 27.1548 190.521 27.1133C189.854 27.0727 189.15 27.2057 188.71 27.566C188.477 27.7569 188.301 28.0296 188.292 28.374C188.283 28.7069 188.432 29.0264 188.676 29.3186C189.036 29.7515 189.118 30.078 189.105 30.3085C189.092 30.5435 188.977 30.7591 188.789 30.9583C188.599 31.1585 188.359 31.3172 188.156 31.4282C188.056 31.4827 187.969 31.5234 187.908 31.55C187.878 31.5633 187.855 31.573 187.84 31.579L187.823 31.5853Z" fill="#BEF0ED" stroke="#171753" stroke-width="0.854644"/>
<path d="M219.421 22.642L219.361 22.624H219.298C219.238 22.624 219.193 22.637 219.18 22.6406C219.161 22.646 219.145 22.6518 219.137 22.6552C219.12 22.662 219.105 22.6688 219.098 22.6724C219.082 22.6802 219.066 22.689 219.053 22.6959C219.031 22.708 219.002 22.7245 218.97 22.7426C218.963 22.7462 218.957 22.7497 218.951 22.7534C218.868 22.7997 218.753 22.8644 218.608 22.9408C218.319 23.0939 217.911 23.2943 217.426 23.4844C216.448 23.8677 215.19 24.1948 213.957 24.0439C213.289 23.9605 212.4 23.8874 211.514 23.8874C210.637 23.8874 209.724 23.9585 209.031 24.1843C208.686 24.297 208.356 24.4606 208.118 24.7082C207.864 24.9716 207.733 25.3136 207.779 25.7123C207.822 26.0871 208.018 26.4745 208.328 26.8751C208.642 27.28 209.097 27.7294 209.711 28.2313L209.934 28.4145L210.188 28.2747L210.188 28.2747L210.188 28.2747L210.188 28.2744L210.192 28.2726L210.206 28.2648C210.219 28.2577 210.239 28.247 210.265 28.2329C210.318 28.2047 210.398 28.1631 210.502 28.1101C210.71 28.0041 211.016 27.8529 211.405 27.6742C212.183 27.3166 213.291 26.8495 214.604 26.4127C217.241 25.5362 220.667 24.7958 223.922 25.2722L224.158 24.4589C222.681 23.8025 221.081 23.1401 219.421 22.642Z" fill="#BEF0ED" stroke="#171753" stroke-width="0.854644"/>
<path d="M159.857 94.8978L159.726 94.8392L158.383 122.271L158.292 122.381C158.292 122.381 158.293 122.381 158.293 122.381C159.85 123.66 161.846 124.266 164.267 124.266C167.36 124.266 171.069 123.27 175.2 121.409C179.333 119.547 183.896 116.816 188.7 113.335C198.307 106.373 208.886 96.4071 218.918 84.3854C228.295 73.1543 235.93 61.6348 241.064 51.339C246.195 41.0495 248.84 31.9606 248.209 25.5983L248.209 25.5974C247.88 22.4678 246.779 20.0839 244.888 18.5816C242.636 16.7471 239.399 16.2465 235.4 17.0066C231.4 17.7669 226.616 19.7918 221.241 23.0385L221.123 23.1095L221.19 23.2296L221.462 23.72L221.534 23.8488L221.66 23.7729C226.911 20.6172 231.554 18.6371 235.4 17.8719C239.248 17.1064 242.276 17.5605 244.327 19.2387L244.327 19.239C246.032 20.6246 247.056 22.8179 247.326 25.7344L247.326 25.7348C247.922 31.959 245.308 40.9188 240.203 51.13C235.101 61.3347 227.52 72.7677 218.208 83.9304C206.392 98.0887 193.803 109.397 183.023 116.232C177.632 119.65 172.701 121.945 168.55 122.922C164.396 123.899 161.052 123.55 158.799 121.725C156.536 119.887 155.516 116.58 155.78 112.063C156.045 107.55 157.591 101.86 160.421 95.3024L160.476 95.173L160.348 95.1157L159.857 94.8978Z" fill="#171753" stroke="#171753" stroke-width="0.284881"/>
<path d="M197.424 92.1712L197.424 92.1712C182.84 89.4998 169.412 85.5058 158.728 80.8626C148.051 76.2225 140.091 70.9243 136.471 65.6316C134.712 63.1036 134.042 60.6134 134.487 58.2774M197.424 92.1712L134.627 58.304M197.424 92.1712C209.418 94.3521 220.815 95.3882 230.904 95.3882C241.401 95.3882 250.421 94.2707 257.02 92.1325C263.607 89.9982 267.833 86.8286 268.639 82.6866L268.64 82.6847C269.141 79.9022 268.024 76.9045 265.455 73.8566C262.886 70.808 258.852 67.6923 253.477 64.6638L253.352 64.5935L253.282 64.7187L253.01 65.2091L252.941 65.333L253.065 65.4025C258.342 68.3676 262.277 71.3819 264.768 74.2997C267.26 77.2186 268.294 80.0229 267.815 82.5787C267.282 85.4019 264.95 87.7912 261.13 89.6805C257.314 91.5684 252.039 92.9431 245.679 93.7491C232.961 95.361 215.936 94.6951 197.639 91.3461C183.127 88.6779 169.788 84.7168 159.188 80.1245C148.582 75.5293 140.741 70.3118 137.196 65.1432L137.195 65.1417C135.521 62.7665 134.939 60.5162 135.312 58.4384M197.424 92.1712L137.078 65.2238C135.389 62.8264 134.79 60.538 135.171 58.413M134.487 58.2774L134.627 58.304M134.487 58.2774C134.487 58.2774 134.487 58.2775 134.487 58.2775L134.627 58.304M134.487 58.2774C135.071 55.1907 137.528 52.6008 141.606 50.589C145.686 48.5764 151.412 47.1299 158.585 46.3389L158.728 46.3231L158.742 46.4663L158.797 47.0112L158.811 47.1509L158.671 47.1669C151.76 47.9559 146.165 49.3835 142.174 51.3149C138.178 53.2484 135.817 55.6716 135.312 58.4384M134.627 58.304C135.767 52.276 144.215 48.0883 158.459 46.4962L158.459 46.4946L158.601 46.4805L158.616 46.6221C158.616 46.6221 158.615 46.6222 158.615 46.6222L158.655 47.0253C144.816 48.6054 136.207 52.7464 135.171 58.413M135.312 58.4384C135.312 58.4383 135.312 58.4382 135.312 58.4382L135.171 58.413M135.312 58.4384C135.312 58.4384 135.312 58.4385 135.312 58.4386L135.171 58.413" fill="#171753" stroke="#171753" stroke-width="0.284881"/>
<path d="M204.665 119.542L204.544 119.632L232.67 126.794C235.138 120.871 235.309 111.411 233.476 100.1C231.642 88.7809 227.797 75.5845 222.209 62.1724C215.094 45.0807 206.328 30.5052 197.918 20.772C193.714 15.906 189.593 12.2441 185.806 10.085C182.022 7.92727 178.547 7.25821 175.656 8.42594C172.764 9.59361 170.715 12.449 169.537 16.7204C168.36 20.993 168.047 26.7055 168.647 33.634L168.66 33.7778L168.804 33.7635L169.348 33.709L169.489 33.695L169.476 33.5546C168.878 26.8619 169.178 21.2954 170.296 17.1357C171.415 12.9733 173.343 10.2462 175.98 9.18058C178.686 8.10096 181.992 8.74534 185.672 10.8878C189.351 13.0289 193.379 16.6529 197.511 21.4822C205.774 31.1395 214.431 45.5918 221.51 62.5544C227.064 75.8951 230.888 88.9884 232.718 100.2C234.549 111.418 234.38 120.729 231.971 126.521L231.971 126.521C230.837 129.276 229.171 131.093 227.147 131.892L227.145 131.892C224.507 132.958 221.245 132.394 217.531 130.253C213.818 128.112 209.676 124.406 205.295 119.237L205.208 119.134L205.101 119.215L204.665 119.542Z" fill="#171753" stroke="#171753" stroke-width="0.284881"/>
<path d="M234.404 98.8598L172.254 63.0555C171.716 62.743 171.179 62.6984 170.821 62.8769C168.537 63.9037 166.97 65.1091 166.97 65.1091L169.97 68.011V112.565C169.97 114.262 171 116.271 172.299 117.03L232.658 151.763L230.554 152.79L232.076 155.156C232.076 155.156 233.957 154.665 236.061 152.834C236.509 152.522 236.778 151.897 236.778 151.004V103.28C236.733 101.583 235.703 99.5741 234.404 98.8598Z" fill="#171753"/>
<path d="M231.941 155.468L230.15 152.7L232.076 151.763L172.119 117.253C170.776 116.494 169.656 114.396 169.656 112.565V68.1896L166.522 65.1538L166.746 64.9752C166.791 64.9306 168.358 63.7252 170.641 62.6984C171.179 62.4305 171.761 62.5198 172.343 62.8323L234.493 98.592C235.837 99.3956 236.956 101.449 236.956 103.28V151.004C236.956 151.941 236.643 152.656 236.15 153.013C234.046 154.843 232.165 155.379 232.076 155.379L231.941 155.468ZM230.911 152.879L232.165 154.843C232.658 154.665 234.18 154.084 235.882 152.611C236.285 152.343 236.508 151.718 236.508 151.004V103.28C236.508 101.672 235.523 99.7527 234.314 99.0384L172.119 63.2787C171.671 63.0109 171.224 62.9662 170.91 63.1448H170.865C169.164 63.9038 167.82 64.7966 167.328 65.1984L170.194 67.9663V112.565C170.194 114.173 171.179 116.092 172.388 116.807L233.195 151.807L230.911 152.879Z" fill="#171753"/>
<path d="M169.208 66.2252L169.97 88.815L209.642 111.673L232.971 98.0116L173.462 63.7698L169.208 66.2252Z" fill="#171753"/>
<path d="M209.642 111.94L169.701 88.9935L168.94 66.0913L173.463 63.5019L233.509 98.0116L209.642 111.94ZM170.194 88.681L209.642 111.36L232.479 98.0116L173.463 64.0823L169.477 66.3591L170.194 88.681Z" fill="#171753"/>
<path d="M218.285 152.522C218.151 151.941 217.748 151.45 217.255 151.138L214.837 149.754C212.374 148.325 210.36 144.843 210.36 142.03V126.048C210.36 126.048 210.36 126.003 210.315 126.003L207.897 124.619C207.852 124.575 207.807 124.619 207.807 124.664C207.986 125.289 208.121 125.914 208.121 126.539V138.102C208.121 138.816 207.986 139.396 207.718 139.843L207.449 137.968C207.449 137.923 207.404 137.923 207.404 137.923L202.344 138.504H202.3C201.225 137.12 200.509 135.334 200.509 133.771V122.209C200.509 121.584 200.643 121.048 200.822 120.646C200.822 120.601 200.822 120.601 200.822 120.557L198.359 119.128C198.314 119.128 198.27 119.128 198.27 119.173V135.021C198.27 137.879 196.21 139.084 193.747 137.611L191.24 136.182C190.971 136.048 190.792 136.003 190.613 136.093L190.568 136.137C190.568 136.137 188.284 137.03 185.866 138.861C185.822 138.861 185.822 138.905 185.866 138.95L187.747 140.646L210.986 153.504L213.27 156.182C213.27 156.182 213.315 156.227 213.315 156.182C213.673 156.049 216.449 154.977 218.106 153.37C218.285 153.236 218.375 152.923 218.285 152.522Z" fill="#9BE7C4"/>
<path d="M213.314 156.45C213.225 156.45 213.135 156.406 213.09 156.361L210.852 153.727L187.612 140.87L187.567 140.825L185.687 139.129C185.597 139.084 185.597 138.995 185.597 138.905C185.597 138.816 185.642 138.727 185.732 138.682C188.15 136.852 190.388 135.959 190.478 135.914H190.523C190.836 135.736 191.15 135.87 191.374 136.003L193.881 137.432C195 138.057 196.03 138.191 196.836 137.745C197.598 137.298 198.045 136.361 198.045 135.066V119.217C198.045 119.128 198.09 118.994 198.18 118.95C198.269 118.905 198.404 118.905 198.493 118.95L200.956 120.378C201.09 120.467 201.135 120.646 201.09 120.78C200.911 121.182 200.777 121.673 200.777 122.253V133.816C200.777 135.245 201.404 136.941 202.433 138.325L207.359 137.745C207.538 137.745 207.672 137.834 207.717 138.012L207.807 138.816C207.851 138.637 207.851 138.414 207.851 138.191V126.628C207.851 126.093 207.762 125.468 207.583 124.843C207.538 124.709 207.583 124.575 207.672 124.53C207.762 124.441 207.896 124.441 208.031 124.485L210.449 125.869C210.538 125.914 210.583 126.048 210.583 126.137V142.03C210.583 144.798 212.553 148.147 214.926 149.531L217.344 150.914C217.971 151.272 218.374 151.852 218.508 152.477C218.598 152.923 218.508 153.325 218.285 153.548C216.583 155.2 213.717 156.316 213.404 156.406C213.404 156.45 213.359 156.45 213.314 156.45ZM187.881 140.423L211.165 153.325L211.21 153.37L213.404 155.915C214.075 155.647 216.493 154.665 217.971 153.191C218.105 153.102 218.105 152.879 218.061 152.566C217.971 152.075 217.613 151.629 217.12 151.361L214.702 149.977C212.15 148.504 210.09 144.932 210.09 142.03V126.182L208.165 125.066C208.299 125.557 208.344 126.048 208.344 126.539V138.102C208.344 138.861 208.21 139.486 207.896 139.977L207.538 140.602L207.225 138.146L202.389 138.727C202.299 138.727 202.165 138.682 202.12 138.593C200.956 137.075 200.284 135.245 200.284 133.682V122.119C200.284 121.539 200.374 121.048 200.553 120.601L198.538 119.441V134.932C198.538 136.405 198.001 137.521 197.06 138.057C196.12 138.593 194.911 138.504 193.612 137.745L191.105 136.316C190.836 136.182 190.791 136.227 190.747 136.227L190.657 136.271C190.612 136.271 188.463 137.164 186.179 138.816L187.881 140.423Z" fill="#171753"/>
<path d="M213.314 156.495C213.224 156.495 213.135 156.45 213.09 156.406L211.612 154.665L213.224 154.441C213.538 154.307 216.269 153.147 217.926 151.807L218.15 151.629L218.329 151.852C218.508 152.075 218.508 152.165 218.553 152.343C218.553 152.388 218.553 152.432 218.598 152.522C218.687 152.968 218.598 153.37 218.374 153.593C216.672 155.245 213.806 156.361 213.493 156.45C213.403 156.495 213.359 156.495 213.314 156.495ZM212.597 155.022L213.403 155.959C214.075 155.691 216.493 154.709 217.971 153.236C218.105 153.147 218.105 152.923 218.06 152.611C218.06 152.522 218.015 152.477 218.015 152.388C216.18 153.727 213.493 154.843 213.403 154.888H213.359L212.597 155.022Z" fill="#171753"/>
<path d="M210.359 142.03V135.825C209.329 135.468 208.568 135.2 208.478 135.2C208.433 135.2 208.344 135.245 208.12 135.289V138.057C208.12 138.771 207.986 139.352 207.717 139.798L207.448 137.923C207.448 137.879 207.403 137.879 207.403 137.879L202.344 138.459H202.299C202.03 138.146 201.806 137.745 201.582 137.387C201.448 137.432 201.359 137.477 201.359 137.477L201.896 148.281L204.538 149.888L204.627 149.977L206.777 151.182L207.09 150.781C207.09 150.781 209.777 149.307 212.463 147.656C211.209 146.004 210.359 143.905 210.359 142.03Z" fill="#171753"/>
<path d="M212.642 153.995L210.045 152.477C207.582 151.048 205.612 147.611 205.612 144.798V128.771L203.015 127.298C203.239 127.968 203.373 128.637 203.373 129.307V140.87C203.373 143.28 201.672 144.263 199.567 143.057C197.463 141.852 195.761 138.905 195.761 136.495V124.932C195.761 124.307 195.895 123.771 196.119 123.325L193.522 121.851V137.879C193.522 140.691 191.552 141.852 189.089 140.423L186.492 138.905C186 138.593 185.552 138.861 185.552 139.441C185.552 140.021 185.955 140.736 186.492 141.048L212.687 156.138C213.179 156.45 213.627 156.183 213.627 155.602C213.582 155.022 213.179 154.307 212.642 153.995Z" fill="#49CE8B"/>
<path d="M213.09 156.495C212.911 156.495 212.732 156.45 212.553 156.316L186.358 141.271C185.776 140.914 185.284 140.111 185.284 139.441C185.284 139.039 185.418 138.771 185.687 138.637C185.955 138.504 186.269 138.504 186.582 138.682L189.179 140.2C190.299 140.825 191.328 140.959 192.045 140.512C192.806 140.066 193.209 139.129 193.209 137.879V121.405L196.388 123.235L196.299 123.459C196.075 123.86 195.985 124.351 195.985 124.932V136.495C195.985 138.816 197.642 141.673 199.657 142.834C200.597 143.37 201.448 143.459 202.075 143.102C202.702 142.745 203.06 141.941 203.06 140.87V129.307C203.06 128.727 202.971 128.057 202.747 127.387L202.523 126.762L205.791 128.637V144.843C205.791 147.566 207.717 150.914 210.09 152.298L212.687 153.816C213.269 154.173 213.762 154.977 213.762 155.647C213.762 156.049 213.627 156.316 213.359 156.45C213.314 156.495 213.224 156.495 213.09 156.495ZM186.045 139.039C186 139.039 185.955 139.039 185.91 139.084C185.821 139.129 185.776 139.262 185.776 139.441C185.776 139.932 186.134 140.557 186.582 140.825L212.777 155.915C212.956 156.004 213.09 156.049 213.18 155.959C213.269 155.915 213.314 155.781 213.314 155.602C213.314 155.111 212.956 154.486 212.508 154.218L209.911 152.7C207.403 151.227 205.344 147.7 205.344 144.798V128.905L203.418 127.789C203.553 128.28 203.597 128.771 203.597 129.262V140.825C203.597 142.075 203.15 143.057 202.344 143.504C201.538 143.95 200.508 143.861 199.388 143.236C197.194 141.986 195.448 138.95 195.448 136.45V124.887C195.448 124.307 195.538 123.816 195.717 123.369L193.702 122.209V137.789C193.702 139.262 193.209 140.334 192.269 140.87C191.328 141.405 190.119 141.271 188.866 140.557L186.269 139.039C186.224 139.084 186.134 139.039 186.045 139.039Z" fill="#171753"/>
<path d="M195.761 124.932V136.495C195.761 138.905 197.463 141.852 199.567 143.057C201.672 144.263 203.373 143.28 203.373 140.87V129.307C203.373 128.682 203.239 127.968 203.015 127.298L204.358 128.057V123.637H195.94C195.806 124.039 195.761 124.441 195.761 124.932Z" fill="#9BE7C4"/>
<path d="M201.269 143.861C200.687 143.861 200.06 143.682 199.433 143.325C197.239 142.075 195.493 139.039 195.493 136.539V124.976C195.493 124.485 195.582 124.039 195.717 123.637L195.761 123.459H204.627V128.593L203.418 127.923C203.553 128.414 203.597 128.905 203.597 129.396V140.959C203.597 142.209 203.15 143.191 202.344 143.638C202.03 143.772 201.672 143.861 201.269 143.861ZM196.12 123.95C196.03 124.262 195.985 124.575 195.985 124.976V136.539C195.985 138.861 197.642 141.718 199.657 142.879C200.597 143.414 201.448 143.504 202.075 143.147C202.702 142.789 203.06 141.986 203.06 140.914V129.352C203.06 128.771 202.97 128.102 202.747 127.432L202.523 126.807L204.045 127.7V123.95H196.12V123.95Z" fill="#171753"/>
<path d="M201.358 123.682H195.94C195.806 124.039 195.761 124.485 195.761 124.932V136.495C195.761 138.28 196.701 140.379 198.044 141.852C199.388 141.941 200.373 140.959 200.373 139.129V127.566C200.373 126.941 200.238 126.226 200.015 125.557L201.358 126.316V123.682Z" fill="#171753"/>
<path d="M198.223 142.12C198.134 142.12 198.089 142.12 197.999 142.12H197.91L197.82 142.03C196.387 140.468 195.447 138.325 195.447 136.539V124.976C195.447 124.485 195.537 124.039 195.671 123.637L195.716 123.459H201.581V126.852L200.372 126.182C200.507 126.673 200.552 127.164 200.552 127.655V139.218C200.552 140.289 200.238 141.093 199.701 141.629C199.343 141.941 198.805 142.12 198.223 142.12ZM198.134 141.584C198.626 141.584 199.029 141.45 199.343 141.182C199.79 140.736 200.059 140.066 200.059 139.173V127.61C200.059 127.03 199.97 126.36 199.746 125.691L199.522 125.066L201.044 125.959V123.994H196.074C195.984 124.307 195.94 124.619 195.94 125.021V136.584C195.984 138.191 196.835 140.155 198.134 141.584Z" fill="#171753"/>
<path d="M197.015 124.307V135.87C197.015 138.28 198.716 141.227 200.821 142.432C201.492 142.834 202.119 142.968 202.701 142.923C203.104 142.477 203.373 141.763 203.373 140.825V129.262C203.373 128.637 203.239 127.923 203.015 127.253L204.358 128.012V126.807C204.358 126.718 204.313 126.673 204.313 126.584L204.358 126.628V123.548H197.104C197.06 123.86 197.015 124.084 197.015 124.307Z" fill="#9BE7C4"/>
<path d="M202.567 143.236C201.985 143.236 201.358 143.057 200.732 142.7C198.537 141.45 196.791 138.414 196.791 135.914V124.351C196.791 124.128 196.791 123.905 196.836 123.682L196.881 123.459H204.672V128.593L203.463 127.923C203.597 128.414 203.642 128.905 203.642 129.396V140.959C203.642 141.896 203.373 142.655 202.926 143.191L202.836 143.28H202.746C202.657 143.236 202.612 143.236 202.567 143.236ZM197.328 123.95C197.328 124.084 197.328 124.218 197.328 124.351V135.914C197.328 138.236 198.985 141.093 201 142.254C201.582 142.566 202.12 142.745 202.612 142.745C202.97 142.298 203.149 141.673 203.149 140.914V129.352C203.149 128.771 203.06 128.102 202.836 127.432L202.612 126.807L204.135 127.7V126.941C204.135 126.896 204.135 126.852 204.09 126.807L203.866 126.182L204.135 126.316V123.95H197.328V123.95Z" fill="#171753"/>
<path d="M219.358 109.53L218.641 143.861L232.298 151.718L236.731 149.173V103.458C236.731 102.342 236.283 101.137 235.656 100.244L228 104.663L219.358 109.53Z" fill="#171753"/>
<path d="M232.298 152.031L218.373 143.995V143.861L219.089 109.396L227.866 104.396L235.746 99.8866L235.881 100.065C236.597 101.047 237 102.342 237 103.458V149.352L232.298 152.031ZM218.91 143.727L232.298 151.45L236.463 149.084V103.458C236.463 102.521 236.149 101.449 235.567 100.556L228.089 104.842L219.582 109.664L218.91 143.727Z" fill="#171753"/>
<path d="M230.642 154.977L168.492 119.217C167.193 118.459 166.163 116.494 166.163 114.753V67.0289C166.163 65.3324 167.193 64.5288 168.492 65.2878L230.642 101.047C231.941 101.806 232.971 103.771 232.971 105.512V153.236C232.971 154.932 231.941 155.736 230.642 154.977Z" fill="#49CE8B"/>
<path d="M231.583 155.513C231.269 155.513 230.911 155.424 230.508 155.2L168.358 119.441C167.014 118.682 165.895 116.583 165.895 114.753V67.0288C165.895 66.0467 166.253 65.2877 166.835 64.9306C167.328 64.6181 167.955 64.6627 168.626 65.0645L230.777 100.824C232.12 101.583 233.24 103.681 233.24 105.512V153.236C233.24 154.218 232.881 154.977 232.299 155.334C232.075 155.468 231.807 155.513 231.583 155.513ZM230.777 154.799C231.269 155.066 231.717 155.111 232.031 154.932C232.478 154.665 232.702 154.084 232.702 153.281V105.512C232.702 103.905 231.717 101.985 230.508 101.271L168.358 65.5109C167.865 65.2431 167.417 65.1984 167.104 65.377C166.656 65.6449 166.432 66.2252 166.432 67.0288V114.798C166.432 116.405 167.417 118.325 168.626 119.039L230.777 154.799Z" fill="#171753"/>
<path d="M230.419 149.932L168.716 114.396C168.358 114.173 168.044 113.637 168.044 113.146V68.0557C168.044 67.5647 168.358 67.3414 168.716 67.5647L230.463 103.101C230.822 103.324 231.135 103.86 231.135 104.351V149.441C231.09 149.932 230.777 150.156 230.419 149.932Z" fill="#ECFFFE"/>
<path d="M230.688 150.245C230.553 150.245 230.419 150.2 230.285 150.111L168.582 114.619C168.134 114.351 167.776 113.726 167.776 113.146V68.0556C167.776 67.6985 167.91 67.4306 168.134 67.2967C168.313 67.1627 168.582 67.2074 168.806 67.3413L230.553 102.878C231.001 103.146 231.359 103.771 231.359 104.351V149.441C231.359 149.798 231.225 150.066 231.001 150.2C230.912 150.245 230.822 150.245 230.688 150.245ZM230.553 149.709C230.598 149.709 230.688 149.754 230.732 149.754C230.777 149.709 230.822 149.62 230.822 149.441V104.351C230.822 103.949 230.553 103.458 230.285 103.324L168.582 67.7431C168.537 67.7431 168.448 67.6985 168.403 67.6985C168.358 67.7431 168.313 67.8324 168.313 68.011V113.101C168.313 113.503 168.582 113.994 168.851 114.128L230.553 149.709Z" fill="#171753"/>
<path d="M231.001 149.575L169.298 114.039C168.94 113.816 168.626 113.28 168.626 112.789V67.6987C168.626 67.654 168.626 67.5647 168.626 67.5201C168.313 67.3862 168.044 67.6094 168.044 68.0558V113.146C168.044 113.637 168.358 114.217 168.716 114.396L230.463 149.933C230.777 150.111 231.046 149.977 231.135 149.62C231.046 149.575 231.046 149.575 231.001 149.575Z" fill="#171753"/>
<path d="M230.688 150.245C230.553 150.245 230.419 150.2 230.285 150.111L168.582 114.619C168.134 114.351 167.776 113.726 167.776 113.146V68.0557C167.776 67.7432 167.91 67.4753 168.089 67.3414C168.268 67.2075 168.492 67.2075 168.716 67.2968L168.895 67.3861V67.52C168.895 67.5646 168.895 67.6093 168.895 67.6539V112.744C168.895 113.146 169.164 113.637 169.433 113.771L231.135 149.352L231.001 149.575L231.135 149.352L231.359 149.441V149.665C231.315 149.932 231.18 150.111 230.956 150.2C230.867 150.245 230.777 150.245 230.688 150.245ZM168.358 67.7432C168.313 67.7879 168.313 67.8771 168.313 68.0111V113.101C168.313 113.503 168.582 113.994 168.851 114.128L230.598 149.665C230.688 149.709 230.732 149.709 230.777 149.709C230.777 149.709 230.777 149.709 230.822 149.709L169.164 114.262C168.716 113.994 168.358 113.369 168.358 112.789V67.7432V67.7432Z" fill="#171753"/>
<path d="M201.806 136.316L197.328 133.727C197.149 133.593 196.97 133.325 196.97 133.057C196.97 132.789 197.149 132.655 197.328 132.789L201.806 135.379C201.985 135.513 202.164 135.78 202.164 136.048C202.164 136.316 201.985 136.45 201.806 136.316Z" fill="#171753"/>
<path d="M201.941 136.629C201.851 136.629 201.762 136.584 201.672 136.539L197.194 133.95C196.926 133.771 196.702 133.414 196.702 133.057C196.702 132.834 196.791 132.655 196.97 132.566C197.105 132.477 197.284 132.477 197.463 132.566L201.941 135.155C202.209 135.334 202.433 135.691 202.433 136.048C202.433 136.271 202.344 136.45 202.165 136.539C202.075 136.584 202.03 136.629 201.941 136.629ZM197.239 133.012C197.239 133.057 197.239 133.057 197.239 133.012C197.239 133.236 197.373 133.459 197.463 133.504L201.896 136.048V136.004C201.896 135.825 201.762 135.602 201.672 135.557L197.239 133.012Z" fill="#171753"/>
<path d="M197.792 139.575L196.9 140.087L197.145 140.513L198.038 140.001L197.792 139.575Z" fill="#ECFFFE"/>
<path d="M235.389 138.905L234.314 139.53C234.135 139.62 233.956 139.53 233.956 139.263V136.361C233.956 136.093 234.09 135.825 234.314 135.691L235.389 135.066C235.568 134.977 235.747 135.066 235.747 135.334V138.236C235.747 138.504 235.568 138.816 235.389 138.905Z" fill="#171753"/>
<path d="M235.389 133.236L234.314 133.861C234.135 133.95 233.956 133.861 233.956 133.593V130.691C233.956 130.423 234.09 130.155 234.314 130.021L235.389 129.396C235.568 129.307 235.747 129.396 235.747 129.664V132.566C235.747 132.789 235.568 133.102 235.389 133.236Z" fill="#171753"/>
<path d="M170.932 111.97L168.256 113.51L168.503 113.935L171.178 112.395L170.932 111.97Z" fill="#ECFFFE"/>
<path d="M178.887 68.6561L178.641 69.0813L223.273 94.7738L223.52 94.3486L178.887 68.6561Z" fill="#171753"/>
<path d="M190.656 121.782L197.487 125.722V117.842L190.656 113.901V121.782Z" fill="#BEF0ED" stroke="#171753" stroke-width="0.526499" stroke-miterlimit="10" stroke-linejoin="round"/>
<path d="M181.462 116.465L188.292 120.405V112.525L181.462 108.585V116.465Z" fill="#BEF0ED" stroke="#171753" stroke-width="0.526499" stroke-miterlimit="10" stroke-linejoin="round"/>
<path d="M172.268 110.932L179.099 114.872V106.992L172.268 103.051V110.932Z" fill="#BEF0ED" stroke="#171753" stroke-width="0.526499" stroke-miterlimit="10" stroke-linejoin="round"/>
<path d="M190.656 110.434L197.487 114.374V106.493L190.656 102.553V110.434Z" fill="#BEF0ED" stroke="#171753" stroke-width="0.526499" stroke-miterlimit="10" stroke-linejoin="round"/>
<path d="M181.462 105.117L188.292 109.057V101.177L181.462 97.2363V105.117Z" fill="#BEF0ED" stroke="#171753" stroke-width="0.526499" stroke-miterlimit="10" stroke-linejoin="round"/>
<path d="M172.268 99.5839L179.099 103.524V95.6436L172.268 91.7033V99.5839Z" fill="#BEF0ED" stroke="#171753" stroke-width="0.526499" stroke-miterlimit="10" stroke-linejoin="round"/>
<rect width="10.7885" height="0.483066" transform="matrix(0.866025 0.5 0 1 215.412 116.407)" fill="#171753"/>
<rect width="8.69519" height="0.483066" transform="matrix(0.866025 0.5 0 1 215.412 117.534)" fill="#171753"/>
<rect width="12.0767" height="0.483066" transform="matrix(0.866025 0.5 0 1 215.412 118.661)" fill="#171753"/>
<rect width="8.69519" height="0.483066" transform="matrix(0.866025 0.5 0 1 215.412 123.331)" fill="#171753"/>
<rect width="2.73738" height="0.483066" transform="matrix(0.866025 0.5 0 1 215.412 122.043)" fill="#171753"/>
<rect width="2.73738" height="0.483066" transform="matrix(0.866025 0.5 0 1 215.412 126.229)" fill="#171753"/>
<rect width="2.73738" height="0.483066" transform="matrix(0.866025 0.5 0 1 215.412 130.416)" fill="#171753"/>
<rect width="12.0767" height="1.61022" rx="0.80511" transform="matrix(0.866025 0.5 0 1 215.412 127.972)" stroke="#171753" stroke-width="0.376071"/>
<rect width="12.0767" height="1.61022" rx="0.80511" transform="matrix(0.866025 0.5 0 1 215.412 132.319)" stroke="#171753" stroke-width="0.376071"/>
<path d="M215.412 136.306C215.412 136.134 215.533 136.064 215.682 136.15L220.719 139.058C220.869 139.145 220.99 139.354 220.99 139.526V140.513C220.99 140.685 220.869 140.755 220.719 140.669L215.682 137.76C215.533 137.674 215.412 137.464 215.412 137.292V136.306Z" fill="#5ED9D1"/>
<rect x="0.227981" y="0.394874" width="12.0332" height="19.9181" rx="0.516835" transform="matrix(0.866025 0.5 0 1 201.469 108.53)" fill="#5ED9D1" stroke="#171753" stroke-width="0.526499"/>
<rect width="6.11884" height="0.483066" transform="matrix(0.866025 0.5 0 1 215.412 119.788)" fill="#171753"/>
<circle cx="0.563577" cy="0.563577" r="0.563577" transform="matrix(0.866025 0.5 0 1 215.412 123.009)" fill="#171753"/>
<circle cx="0.563577" cy="0.563577" r="0.563577" transform="matrix(0.866025 0.5 0 1 222.384 127.034)" fill="#171753"/>
<rect width="71.7089" height="5.78699" transform="matrix(0.866025 0.501279 0 1 168.835 79.9223)" fill="#5ED9D1" stroke="#171753" stroke-width="0.752141"/>
<rect width="71.7089" height="12.1106" transform="matrix(0.866025 0.501279 0 1 168.835 67.8709)" fill="#BEF0ED" stroke="#171753" stroke-width="0.752141"/>
<rect width="8.90307" height="2.22577" rx="0.312034" transform="matrix(0.866025 0.5 0 1 220.845 105.539)" fill="#171753"/>
<path d="M203.777 95.4561L210.281 91.3008L203.777 91.1202L203.055 91.8428L202.513 94.0108L203.777 95.4561Z" fill="#171753"/>
<path d="M203.596 96.1787L201.789 94.0108V93.6494L202.331 91.3008L202.512 91.1201L203.415 90.2168H203.596L210.461 90.5781L210.642 91.3008L210.281 91.4814L203.596 96.1787ZM203.054 93.6494L203.957 94.5527L208.655 91.4814L204.138 91.3008L203.596 91.8428L203.054 93.6494Z" fill="#171753"/>
<path d="M214.616 58.7811L194.381 47.0378C193.297 46.3152 192.213 46.3152 191.491 46.6765L184.806 50.8318C185.167 51.3738 187.877 57.1551 188.058 58.2391C188.239 58.6004 188.961 63.1171 190.045 68.1757V70.705C190.045 72.1503 190.587 73.7763 191.491 75.2216C192.575 80.6416 193.478 85.1582 193.478 85.1582L202.692 88.2295H203.415L202.873 86.7842C202.692 86.0616 202.692 85.3389 202.511 84.6162L211.183 94.3722C211.183 94.3722 211.183 94.3722 211.364 94.3722L217.687 90.3975C217.687 90.3975 217.687 90.3975 217.868 90.3975C218.59 89.8555 219.132 88.9522 219.132 87.6875V66.369C219.132 63.659 217.145 60.2264 214.616 58.7811Z" fill="#ECFFFE"/>
<path d="M211.363 94.9141C211.183 94.9141 211.002 94.9141 210.821 94.7335L203.234 86.2422C203.234 86.4229 203.234 86.6035 203.234 86.7842L203.776 88.2295C203.956 88.5908 203.776 88.7715 203.414 88.9522H203.234H202.33L192.936 85.7002V85.5195C192.936 85.3389 192.032 80.8222 190.948 75.5829C190.045 73.9569 189.503 72.331 189.503 70.8856V68.3563C188.238 62.2137 187.696 58.7811 187.516 58.4197C187.335 57.6971 185.709 54.2644 184.264 51.1931C184.083 50.8318 184.264 50.4704 184.444 50.4704L191.129 46.3151C192.213 45.7731 193.478 45.9538 194.742 46.6765L214.977 58.4197C217.506 59.865 219.674 63.4783 219.674 66.5497V87.5068C219.674 88.9522 219.132 90.2168 218.229 90.7588H218.048L211.725 94.7335C211.544 94.9141 211.544 94.9141 211.363 94.9141ZM201.969 83.1709L211.544 93.8301L217.506 90.0362L217.867 90.3975L217.506 89.8555C218.048 89.4942 218.409 88.5908 218.409 87.5068V66.369C218.409 63.8397 216.603 60.5877 214.254 59.1424L194.2 47.5798C193.297 47.0378 192.394 46.8571 191.671 47.2185L185.528 51.0124C186.432 52.8191 188.419 57.1551 188.6 58.0584C188.78 58.4197 189.322 61.6717 190.587 67.995V68.1756V70.705C190.587 71.9696 191.129 73.4149 191.852 74.8603V75.0409C192.755 79.5576 193.478 83.5322 193.658 84.7969L202.33 87.6875L201.969 86.7842C201.788 86.0615 201.788 85.1582 201.608 84.4355L201.969 83.1709Z" fill="#171753"/>
<path d="M214.615 58.781L195.465 47.7605L185.889 53.7224L206.485 64.5623L210.821 65.285L217.325 61.3104C216.602 60.2264 215.699 59.323 214.615 58.781Z" fill="#5ED9D1"/>
<path d="M210.822 65.827L206.124 65.1044L184.806 53.7224L195.465 47.0378L214.977 58.2391C216.061 58.7811 216.964 59.6844 217.868 60.9491L218.229 61.4911L210.822 65.827ZM206.666 64.0204L210.641 64.5624L216.422 61.1297C215.7 60.2264 215.158 59.6844 214.254 59.3231L195.285 48.4831L186.793 53.7224L206.666 64.0204Z" fill="#171753"/>
<path d="M218.818 66.4903L212.319 70.4064L212.879 71.3348L219.378 67.4187L218.818 66.4903Z" fill="#171753"/>
<path d="M218.696 81.8265L212.197 85.7426L212.756 86.671L219.255 82.7549L218.696 81.8265Z" fill="#171753"/>
<path d="M187.877 51.1931L208.112 62.9363C210.46 64.3817 212.448 67.6337 212.448 70.5243V91.6621C212.448 94.3721 210.46 95.6368 208.112 94.1915L205.763 92.9268C205.402 92.7461 205.04 92.7461 204.86 93.2881C204.679 94.5528 203.776 96.9014 200.343 95.4561C199.62 95.2755 199.259 94.1915 199.44 93.6495C199.62 92.9268 199.982 91.8428 199.982 90.5782C199.982 90.0362 199.62 89.3135 199.078 89.1328L187.877 82.6289C185.528 81.1836 183.541 77.9316 183.541 75.0409V53.7224C183.541 50.8318 185.528 49.7478 187.877 51.1931Z" fill="#BEF0ED"/>
<path d="M202.331 96.3595C201.789 96.3595 201.067 96.1788 200.344 95.8175C199.441 95.4562 198.718 94.1915 199.079 93.2882C199.26 92.5655 199.441 91.6622 199.441 90.3975C199.441 90.0362 199.079 89.4942 198.899 89.3135L187.697 82.8096C185.168 81.3643 183 77.7509 183 74.6796V53.7225C183 52.0965 183.542 51.0125 184.626 50.4705C185.71 49.9285 186.975 49.9285 188.239 50.8318L208.474 62.5751C211.003 64.0204 213.171 67.6337 213.171 70.705V91.8428C213.171 93.4688 212.629 94.5528 211.545 95.0948C210.461 95.6368 209.196 95.6368 207.932 94.7335L205.583 93.4688C205.403 94.3722 204.861 95.6368 203.777 96.1788C203.415 96.1788 202.873 96.3595 202.331 96.3595ZM186.071 51.0125C185.71 51.0125 185.529 51.0125 185.168 51.1931C184.445 51.5545 184.084 52.4578 184.084 53.5418V74.8603C184.084 77.3896 185.891 80.6416 188.239 81.9063L199.441 88.4102C200.163 88.7715 200.525 89.6749 200.525 90.3975C200.525 91.4815 200.344 92.5655 199.983 93.6495C199.802 94.0108 200.163 94.7335 200.705 94.9142C201.789 95.2755 202.512 95.4562 203.235 95.0948C203.957 94.7335 204.319 93.6495 204.499 93.1075C204.499 92.7462 204.861 92.3848 205.041 92.3848C205.403 92.2042 205.764 92.2042 206.125 92.5655L208.474 93.8302C209.377 94.3722 210.28 94.5528 211.003 94.1915C211.726 93.8302 212.087 92.9268 212.087 91.8428V70.3437C212.087 67.8144 210.28 64.5624 207.932 63.2977L187.697 51.5545C187.155 51.1931 186.433 51.0125 186.071 51.0125Z" fill="#171753"/>
<path d="M219.133 85.3389L212.629 89.3135V92.2042L212.268 93.8301L217.868 90.3975L218.952 88.9522L219.133 87.3262V85.3389Z" fill="#171753"/>
<path d="M196.638 77.9208C196.949 77.8477 197.315 77.9208 197.699 78.1404C198.705 78.7257 199.529 80.116 199.529 81.2319C199.529 81.6709 199.4 81.9819 199.181 82.2014C199.071 82.3112 198.833 82.4392 198.687 82.4758L198.065 82.8234L195.559 78.5062L196.254 78.1404C196.364 78.0306 196.492 77.9574 196.638 77.9208Z" fill="#5ED9D1"/>
<path d="M193.529 72.7074C194.389 72.2501 195.889 71.8842 197.937 73.0184C200.151 74.244 201.815 76.6587 202.73 78.305C203.224 79.1648 203.114 80.0795 202.529 80.2075L202.218 80.3722L201.413 80.8295L196.364 75.0855C195.742 75.0489 195.248 75.1952 194.901 75.3782C194.535 75.5611 193.986 75.305 193.602 74.7196C193.456 74.5184 193.346 74.2989 193.712 73.805L192.303 73.494L193.529 72.7074Z" fill="#5ED9D1"/>
<path d="M190.84 67.7316C192.102 67.0548 194.535 66.4145 197.956 68.1889C201.687 70.128 204.267 73.8598 205.511 76.0366C206.004 76.8781 205.913 77.8111 205.346 77.9574C205.309 77.9757 204.998 78.1586 204.943 78.1586L204.084 78.6343L200.096 73.2195L194.608 69.8719C193.437 69.8536 192.559 70.2012 192.01 70.4939C191.644 70.6951 191.077 70.4024 190.693 69.7987V69.7804C190.693 69.7621 190.675 69.7621 190.675 69.7439H190.327L189.614 68.5731L190.309 68.0243L190.84 67.7316Z" fill="#5ED9D1"/>
<path d="M186.87 63.4877L187.876 62.756C189.285 61.8047 192.632 60.3596 198.047 63.1218C198.102 63.1584 198.157 63.1767 198.212 63.2133C203.919 66.1951 207.504 71.372 209.041 74.0245C209.425 74.683 209.535 75.2867 209.261 75.6342L208.986 75.9086L208.821 76.0001C208.767 76.055 208.511 76.1647 208.437 76.2013L207.504 76.6952L205.858 74.4269L199.09 66.6341L195.303 64.6036C192.175 63.7438 190.181 64.6584 189.266 65.2804C188.919 65.5182 188.352 65.2621 187.967 64.6767C187.785 64.384 187.656 64.0731 187.62 63.7804L186.87 63.4877Z" fill="#5ED9D1"/>
<path d="M186.943 65.3902C187.327 65.9756 187.876 66.2317 188.224 65.9938C189.358 65.2255 192.23 63.9999 196.876 66.4512C196.931 66.4695 196.968 66.506 197.023 66.5243C201.888 69.1585 204.852 73.5672 206.078 75.7074C206.462 76.3843 207.102 76.805 207.559 76.677C208.145 76.5123 208.236 75.5977 207.742 74.7562C206.206 72.1037 202.693 66.9634 197.059 63.9816C197.004 63.945 196.949 63.9267 196.894 63.8901C191.571 61.1279 188.26 62.5365 186.87 63.4877C186.449 63.7804 186.486 64.6767 186.943 65.3902Z" fill="#171753"/>
<path d="M189.65 70.4939C190.034 71.0976 190.583 71.3903 190.949 71.1891C191.9 70.6586 193.967 69.9817 196.821 71.5183C196.858 71.5366 196.894 71.5549 196.931 71.5732C199.785 73.1464 201.742 76.0733 202.675 77.7014C203.059 78.3599 203.663 78.7624 204.102 78.6526C204.669 78.5063 204.742 77.5916 204.266 76.7501C203.023 74.5916 200.461 70.8781 196.803 68.939C193.272 67.0914 190.784 67.9146 189.614 68.5915C189.156 68.8476 189.175 69.7439 189.65 70.4939Z" fill="#171753"/>
<path d="M201.321 80.8477C201.907 80.738 201.998 79.8233 201.523 78.9636C200.608 77.3355 198.98 74.9208 196.785 73.6952C194.773 72.561 193.291 72.9269 192.449 73.3659C191.955 73.622 191.992 74.5915 192.523 75.3598C192.907 75.9269 193.437 76.2013 193.803 76.0184C194.388 75.7074 195.431 75.4696 196.767 76.2379C198.193 77.0611 199.309 78.744 199.95 79.8782C200.315 80.5368 200.882 80.9392 201.321 80.8477Z" fill="#171753"/>
<path d="M195.047 79.5855C195.047 80.6831 195.833 82.0368 196.821 82.6405C197.809 83.2441 198.632 82.8417 198.651 81.7258C198.651 80.6099 197.846 79.238 196.84 78.6526C195.852 78.0672 195.047 78.5062 195.047 79.5855Z" fill="#171753"/>
<path d="M153.408 137.102L150.408 134.727L149.658 138.477L142.658 137.477C141.158 138.102 137.157 144.102 136.907 145.727L139.407 151.603L135.907 153.228C135.907 153.228 135.907 153.228 135.907 153.353L138.907 155.728C139.282 156.103 139.908 156.103 140.658 155.853L149.533 152.228C151.033 151.603 152.408 149.853 152.658 148.227L154.033 138.852C154.033 138.102 153.908 137.477 153.408 137.102ZM142.658 145.352C142.783 144.477 143.533 143.477 144.408 143.227L148.533 141.602L148.283 142.852L148.908 143.352L144.658 149.477L144.033 148.977L142.158 149.853L142.658 145.352Z" fill="#9BE7C4"/>
<path d="M139.782 156.353C139.407 156.353 138.907 156.228 138.657 155.978L135.532 153.478V152.978L135.782 152.853L138.907 151.478L136.407 145.852V145.727C136.657 143.977 140.783 137.852 142.408 137.102H142.533L149.283 138.102L149.908 134.477L150.408 134.352L150.658 134.477L153.658 136.852C154.158 137.227 154.408 137.977 154.283 138.977L152.908 148.352C152.658 150.103 151.158 151.978 149.533 152.603L140.658 156.228C140.532 156.353 140.157 156.353 139.782 156.353ZM136.657 153.478L139.157 155.478C139.532 155.728 139.907 155.728 140.533 155.478L149.408 151.853C150.783 151.353 152.033 149.603 152.283 148.227L153.658 138.852C153.783 138.227 153.658 137.727 153.283 137.477L150.783 135.477L150.158 138.852L149.783 139.102L142.783 138.102C141.408 138.852 137.782 144.352 137.407 145.852L139.907 151.728V152.103L139.657 152.228L136.657 153.478ZM142.033 150.228L141.658 149.978V149.728L142.283 145.477C142.408 144.477 143.283 143.352 144.158 142.977L148.908 141.102L148.533 142.852C148.533 142.852 148.658 142.852 148.658 142.977C149.033 143.352 149.283 143.477 149.033 143.852L144.783 150.103H144.658C144.533 150.103 144.533 150.103 144.033 149.728L143.908 149.603L142.033 150.228ZM147.908 142.227L144.533 143.602C143.908 143.852 143.158 144.727 143.158 145.477L142.658 149.103L143.908 148.477C144.158 148.352 144.158 148.477 144.658 148.727L148.408 143.352C148.033 142.977 147.908 142.977 148.033 142.727L147.908 142.227Z" fill="#171753"/>
<path d="M136.782 142.227L135.407 151.728C135.157 153.353 136.157 154.103 137.657 153.478L146.532 149.852C148.033 149.227 149.408 147.477 149.658 145.977L151.033 136.477C151.283 134.852 150.283 134.102 148.783 134.727L139.907 138.352C138.407 138.977 137.032 140.727 136.782 142.227ZM146.282 138.977C147.032 138.602 147.657 139.102 147.532 139.977L146.782 145.227C146.657 146.102 145.907 146.977 145.157 147.352L140.282 149.352C139.532 149.727 138.907 149.227 139.032 148.352L139.782 143.102C139.907 142.227 140.657 141.352 141.407 140.977L146.282 138.977Z" fill="white"/>
<path d="M136.782 154.103C136.407 154.103 136.032 153.978 135.657 153.728C135.157 153.353 134.907 152.602 135.032 151.602L136.407 142.102C136.657 140.352 138.157 138.477 139.782 137.852L148.658 134.226C149.533 133.851 150.283 133.976 150.783 134.351C151.283 134.726 151.533 135.477 151.408 136.477L150.033 145.977C149.783 147.727 148.283 149.602 146.658 150.227L137.782 153.853C137.532 153.978 137.157 154.103 136.782 154.103ZM137.157 142.352L135.782 151.852C135.657 152.477 135.782 152.977 136.157 153.228C136.407 153.478 136.907 153.478 137.532 153.228L146.407 149.602C147.783 149.102 149.033 147.352 149.283 145.977L150.658 136.477C150.783 135.852 150.658 135.352 150.283 135.101C150.033 134.851 149.533 134.851 148.908 135.101L140.032 138.727C138.657 139.227 137.407 140.852 137.157 142.352ZM139.657 149.727C139.407 149.727 139.157 149.602 138.907 149.477C138.532 149.227 138.407 148.727 138.532 148.227L139.282 142.977C139.407 141.977 140.282 140.852 141.157 140.477L146.032 138.477C146.533 138.227 147.033 138.352 147.408 138.602C147.783 138.852 147.908 139.352 147.783 139.852L147.033 145.102C146.908 146.102 146.032 147.227 145.157 147.602L140.282 149.602C140.157 149.727 139.907 149.727 139.657 149.727ZM146.407 139.352L141.532 141.352C140.907 141.602 140.157 142.477 140.157 143.102L139.407 148.352C139.407 148.602 139.407 148.852 139.532 148.852C139.657 148.977 139.907 148.977 140.032 148.852L144.907 146.852C145.532 146.602 146.282 145.727 146.282 145.102L147.033 139.852C147.033 139.602 147.033 139.352 146.908 139.352C146.783 139.227 146.533 139.227 146.407 139.352Z" fill="#171753"/>
<path d="M148.903 147.972L148.363 148.66L151.314 150.975L151.854 150.286L148.903 147.972Z" fill="#171753"/>
<path d="M140.609 141.385L140.069 142.074L143.02 144.388L143.56 143.7L140.609 141.385Z" fill="#171753"/>
<path d="M138.876 152.723L138.336 153.412L141.287 155.726L141.827 155.038L138.876 152.723Z" fill="#171753"/>
<path d="M151.004 137.784L150.464 138.472L153.415 140.787L153.955 140.098L151.004 137.784Z" fill="#171753"/>
<path d="M289.126 105.474L291.626 102.724L287.876 101.724L289.376 94.7237C288.876 93.2236 283.125 88.7234 281.5 88.4734L275.5 90.5985L274.125 86.9733C274.125 86.9733 274.125 86.9733 274 86.9733L271.5 89.7235C271.125 90.0985 271 90.7235 271.25 91.4736L274.125 100.599C274.625 102.099 276.25 103.599 277.875 103.974L287.251 105.974C288.126 105.974 288.751 105.849 289.126 105.474ZM281.625 94.0987C282.5 94.2237 283.375 95.0988 283.625 95.9738L285 100.099L283.75 99.849L283.25 100.474L277.5 95.8488L278 95.2238L277.375 93.2236L281.625 94.0987Z" fill="#5ED9D1"/>
<path d="M288.001 106.224C287.751 106.224 287.501 106.224 287.376 106.099L278 104.099C276.25 103.724 274.5 102.099 274 100.474L271.125 91.3484C270.875 90.4733 271 89.7233 271.5 89.2233L274.125 86.2231L274.625 86.3481L274.75 86.5981L276 89.8483L281.751 87.8482H281.876C283.626 88.2232 289.501 92.8485 290.001 94.4736V94.5986L288.376 101.224L292.001 102.099L292.126 102.599L292.001 102.849L289.501 105.599C289.126 106.099 288.626 106.224 288.001 106.224ZM274 87.4732L271.875 89.8483C271.625 90.0983 271.5 90.5983 271.75 91.2234L274.625 100.349C275.125 101.724 276.625 103.099 278 103.474L287.376 105.474C288.001 105.599 288.501 105.474 288.751 105.224L290.876 102.849L287.501 101.974L287.376 101.599L288.876 94.5986C288.251 93.2235 283.001 89.0983 281.501 88.7232L275.5 90.8484L275.125 90.7233L275 90.4733L274 87.4732ZM283.251 100.724C283.126 100.724 283.126 100.724 283.001 100.599L277.125 95.8486V95.7236C277.125 95.5986 277.125 95.5986 277.5 95.0986L277.625 94.9736L276.875 93.0985L277.25 92.7235H277.5L281.751 93.5985C282.751 93.8485 283.751 94.7236 284.126 95.7236L285.751 100.599L284.126 100.099L284.001 100.224C283.626 100.599 283.376 100.724 283.251 100.724ZM278.125 95.7236L283.251 99.8489C283.626 99.4738 283.626 99.3488 283.876 99.4738L284.376 99.5988L283.251 96.0987C283.001 95.3486 282.251 94.7236 281.501 94.4736L278 93.7235L278.5 94.9736C278.5 95.2236 278.5 95.2236 278.125 95.7236Z" fill="#171753"/>
<path d="M285.251 88.4732L275.875 86.4731C274.375 86.098 273.5 87.0981 274 88.5982L277 97.7237C277.5 99.2238 279.126 100.724 280.751 101.099L290.126 103.099C291.626 103.474 292.501 102.474 292.001 100.974L289.001 91.8484C288.376 90.2233 286.751 88.7232 285.251 88.4732ZM287.751 98.0987C288.001 98.9738 287.501 99.4738 286.751 99.2238L281.626 98.0987C280.751 97.9737 279.876 97.0987 279.626 96.3486L278 91.3483C277.75 90.4733 278.25 89.9733 279.001 90.2233L284.126 91.3483C285.001 91.4733 285.876 92.3484 286.126 93.0984L287.751 98.0987Z" fill="white"/>
<path d="M290.501 103.474C290.251 103.474 290.001 103.474 289.876 103.349L280.501 101.349C278.75 100.974 277 99.3488 276.5 97.7237L273.5 88.7232C273.25 87.8482 273.375 87.0981 273.75 86.5981C274.25 86.0981 275 85.8481 275.875 86.0981L285.251 88.0982C287.001 88.4732 288.751 90.0983 289.251 91.7234L292.251 100.849C292.501 101.724 292.376 102.474 292.001 102.974C291.626 103.224 291.126 103.474 290.501 103.474ZM275.25 86.7231C274.875 86.7231 274.625 86.8481 274.375 86.9731C274.125 87.2231 274.125 87.7232 274.25 88.3482L277.25 97.4737C277.75 98.8488 279.251 100.224 280.626 100.599L290.001 102.599C290.626 102.724 291.126 102.599 291.376 102.349C291.626 102.099 291.626 101.599 291.501 100.974L288.501 91.8484C288.001 90.4733 286.501 89.0982 285.126 88.7232L275.75 86.7231C275.625 86.8481 275.375 86.7231 275.25 86.7231ZM287.126 99.7238C287.001 99.7238 286.876 99.7238 286.751 99.7238L281.626 98.5988C280.626 98.3488 279.626 97.4737 279.376 96.4737L277.75 91.4734C277.625 90.9734 277.625 90.4733 278 90.0983C278.25 89.7233 278.75 89.5983 279.376 89.7233L284.501 90.8483C285.501 91.0984 286.501 91.9734 286.751 92.9735L288.376 97.9737C288.501 98.4738 288.501 98.9738 288.126 99.3488C287.751 99.5988 287.501 99.7238 287.126 99.7238ZM278.75 90.4733C278.625 90.4733 278.5 90.4733 278.375 90.5983C278.25 90.7233 278.25 90.8483 278.375 91.0984L280.001 96.0986C280.251 96.7237 281.001 97.4737 281.751 97.5987L286.876 98.7238C287.126 98.7238 287.376 98.7238 287.376 98.5988C287.501 98.4738 287.501 98.3488 287.376 98.0988L285.751 93.0985C285.501 92.4734 284.751 91.7234 284.001 91.5984L278.875 90.4733C278.875 90.5983 278.75 90.4733 278.75 90.4733Z" fill="#171753"/>
<path d="M277.949 99.5228L275.43 102.301L276.078 102.888L278.597 100.111L277.949 99.5228Z" fill="#171753"/>
<path d="M285.126 91.7109L282.608 94.4902L283.256 95.0777L285.774 92.2984L285.126 91.7109Z" fill="#171753"/>
<path d="M273.988 89.2124L271.47 91.9916L272.119 92.5791L274.637 89.7999L273.988 89.2124Z" fill="#171753"/>
<path d="M287.929 102.253L285.411 105.033L286.06 105.62L288.578 102.841L287.929 102.253Z" fill="#171753"/>
<path opacity="0.3" d="M250.608 18.8558V47.8487V68.4307C268.275 71.9908 279.378 77.1753 279.378 82.916V33.3634C279.378 27.6004 268.275 22.416 250.608 18.8558Z" fill="#ECFFFE"/>
<path d="M270.656 39.9275V46.0243C270.656 46.358 270.856 46.6473 271.145 46.7808C274.038 48.1603 276.218 49.6289 277.62 51.1642C278.777 52.4325 279.378 53.7453 279.378 55.0804V47.1146C279.378 44.2887 276.708 41.6186 271.902 39.1933C271.323 38.8818 270.656 39.2823 270.656 39.9275Z" fill="#171753"/>
<path d="M279.378 82.9159C279.378 77.1529 268.275 71.9907 250.608 68.4306" stroke="#171753" stroke-width="1.03764" stroke-miterlimit="10" stroke-linejoin="round"/>
<path opacity="0.3" d="M250.608 47.8488C243.221 49.3396 234.676 50.5411 225.331 51.4089V100.984C257.016 98.0911 279.378 91.1044 279.378 82.9383V33.3635C279.378 39.1042 268.275 44.2886 250.608 47.8488Z" fill="#ECFFFE"/>
<path d="M225.331 100.984H225.286C256.994 98.0911 279.378 91.1044 279.378 82.9383" stroke="#171753" stroke-width="1.03764" stroke-miterlimit="10" stroke-linejoin="round"/>
<path d="M225.331 51.4087C257.016 48.5161 279.378 41.5293 279.378 33.3633C279.378 27.6003 268.275 22.4381 250.608 18.878" stroke="#171753" stroke-width="1.03764" stroke-miterlimit="10" stroke-linecap="round" stroke-linejoin="round"/>
<path d="M277.598 60.554C275.929 58.7294 273.126 56.9939 269.343 55.3918" stroke="#171753" stroke-width="0.518818" stroke-miterlimit="10" stroke-linecap="round" stroke-linejoin="round"/>
<path d="M277.598 63.3797C275.929 61.5551 273.126 59.8195 269.343 58.2175" stroke="#171753" stroke-width="0.518818" stroke-miterlimit="10" stroke-linecap="round" stroke-linejoin="round"/>
<path d="M277.598 66.2055C275.929 64.3809 273.126 62.6453 269.343 61.0433" stroke="#171753" stroke-width="0.518818" stroke-miterlimit="10" stroke-linecap="round" stroke-linejoin="round"/>
<path d="M277.598 69.0314C275.929 67.2068 273.126 65.4713 269.343 63.8692" stroke="#171753" stroke-width="0.518818" stroke-miterlimit="10" stroke-linecap="round" stroke-linejoin="round"/>
<path d="M274.394 69.2539C272.992 68.3639 271.301 67.4961 269.343 66.6729" stroke="#171753" stroke-width="0.518818" stroke-miterlimit="10" stroke-linecap="round" stroke-linejoin="round"/>
<path d="M266.384 31.6055C262.89 30.3372 258.752 29.1801 254.101 28.1121" stroke="#171753" stroke-width="1.03764" stroke-miterlimit="10" stroke-linecap="round" stroke-linejoin="round"/>
<path d="M266.384 36.8347C262.89 35.5664 258.752 34.4094 254.101 33.3413" stroke="#171753" stroke-width="0.518818" stroke-miterlimit="10" stroke-linecap="round" stroke-linejoin="round"/>
<path d="M266.384 39.2597C262.89 37.9914 258.752 36.8344 254.101 35.7663" stroke="#171753" stroke-width="0.518818" stroke-miterlimit="10" stroke-linecap="round" stroke-linejoin="round"/>
<path d="M266.384 41.6852C262.89 40.4169 258.752 39.2598 254.101 38.1918" stroke="#171753" stroke-width="0.518818" stroke-miterlimit="10" stroke-linecap="round" stroke-linejoin="round"/>
<path d="M266.384 44.1104C262.89 42.8421 258.752 41.685 254.101 40.617" stroke="#171753" stroke-width="0.518818" stroke-miterlimit="10" stroke-linecap="round" stroke-linejoin="round"/>
<path d="M266.384 46.5358C262.89 45.2675 258.752 44.1105 254.101 43.0424" stroke="#171753" stroke-width="0.518818" stroke-miterlimit="10" stroke-linecap="round" stroke-linejoin="round"/>
<path d="M250.808 75.1283C256.815 73.9045 262.067 72.5027 266.361 70.9451" stroke="#171753" stroke-width="0.518818" stroke-miterlimit="10" stroke-linecap="round" stroke-linejoin="round"/>
<path d="M250.808 77.8205C256.815 76.5967 262.067 75.1949 266.361 73.6373" stroke="#171753" stroke-width="0.518818" stroke-miterlimit="10" stroke-linecap="round" stroke-linejoin="round"/>
<path d="M250.808 80.4906C256.815 79.2668 262.067 77.865 266.361 76.3074" stroke="#171753" stroke-width="0.518818" stroke-miterlimit="10" stroke-linecap="round" stroke-linejoin="round"/>
<path d="M250.808 83.1606C256.815 81.9368 262.067 80.535 266.361 78.9774" stroke="#171753" stroke-width="0.518818" stroke-miterlimit="10" stroke-linecap="round" stroke-linejoin="round"/>
<path d="M250.808 85.8529C254.746 85.0518 258.351 84.1841 261.577 83.2273" stroke="#171753" stroke-width="0.518818" stroke-miterlimit="10" stroke-linecap="round" stroke-linejoin="round"/>
<path d="M277.598 51.6313V57.7502C277.598 58.173 278.132 58.3288 278.377 57.995C279.022 57.0382 279.356 56.0592 279.356 55.0579V47.0921C279.356 48.2714 278.889 49.4284 277.976 50.5632C277.732 50.8747 277.598 51.253 277.598 51.6313Z" fill="#171753"/>
<path opacity="0.3" d="M122 48.588V98.1628C122 94.1354 127.451 90.3973 136.775 87.2821V59.4686V37.7073C127.451 40.8224 122 44.5606 122 48.588Z" fill="#ECFFFE"/>
<path d="M124.848 81.0741C126.851 79.3608 129.855 77.7365 133.726 76.2457" stroke="#171753" stroke-width="0.518818" stroke-miterlimit="10" stroke-linecap="round" stroke-linejoin="round"/>
<path d="M124.848 84.1668C126.851 82.4535 129.855 80.8292 133.726 79.3384" stroke="#171753" stroke-width="0.518818" stroke-miterlimit="10" stroke-linecap="round" stroke-linejoin="round"/>
<path d="M124.848 87.2376C126.851 85.5243 129.855 83.9 133.726 82.4092" stroke="#171753" stroke-width="0.518818" stroke-miterlimit="10" stroke-linecap="round" stroke-linejoin="round"/>
<path d="M124.848 77.9813C126.851 76.268 129.855 74.6437 133.726 73.1529" stroke="#171753" stroke-width="0.518818" stroke-miterlimit="10" stroke-linecap="round" stroke-linejoin="round"/>
<path d="M122 98.1628C122 94.1354 127.452 90.3972 136.775 87.2821" stroke="#171753" stroke-width="1.03764" stroke-miterlimit="10" stroke-linecap="round" stroke-linejoin="round"/>
<path d="M167.681 115.318C140.49 112.047 122 105.594 122 98.1627" stroke="#171753" stroke-width="1.03764" stroke-miterlimit="10" stroke-linecap="round" stroke-linejoin="round"/>
<path opacity="0.3" d="M167.681 65.7655C155.243 64.2747 144.629 62.0941 136.752 59.4908C127.452 56.3534 122 52.6153 122 48.5879V98.1627C122 105.594 140.49 112.047 167.681 115.318" fill="#ECFFFE"/>
<path d="M167.681 65.7656C140.49 62.4725 122 56.0197 122 48.588C122 44.5606 127.451 40.8224 136.775 37.7073" stroke="#171753" stroke-width="1.03764" stroke-miterlimit="10" stroke-linecap="round" stroke-linejoin="round"/>
<path d="M130.5 82.2312V85.5466C130.5 86.5924 131.123 87.5492 132.102 87.9719C134.527 88.9955 137.331 89.9523 140.491 90.8646C142.159 91.3541 143.828 90.0858 143.828 88.328V84.7901C143.828 83.6108 143.027 82.565 141.892 82.2535C139 81.4747 136.374 80.6292 134.06 79.7614C132.347 79.1161 130.5 80.3844 130.5 82.2312Z" fill="#171753"/>
<path d="M146.632 102.39C141.914 101.3 137.754 100.099 134.26 98.7858" stroke="#171753" stroke-width="0.518818" stroke-miterlimit="10" stroke-linecap="round" stroke-linejoin="round"/>
<path d="M140.001 103.77C137.932 103.169 136.018 102.546 134.283 101.879" stroke="#171753" stroke-width="0.518818" stroke-miterlimit="10" stroke-linecap="round" stroke-linejoin="round"/>
<path d="M161.006 86.125C155.799 85.3462 150.971 84.4562 146.632 83.4549" stroke="#171753" stroke-width="0.518818" stroke-miterlimit="10" stroke-linecap="round" stroke-linejoin="round"/>
<path d="M161.006 89.0401C155.799 88.2613 150.971 87.3713 146.632 86.37" stroke="#171753" stroke-width="0.518818" stroke-miterlimit="10" stroke-linecap="round" stroke-linejoin="round"/>
<path d="M161.006 91.977C155.799 91.1982 150.971 90.3082 146.632 89.3069" stroke="#171753" stroke-width="0.518818" stroke-miterlimit="10" stroke-linecap="round" stroke-linejoin="round"/>
<path d="M161.006 94.8917C155.799 94.1129 150.971 93.2229 146.632 92.2216" stroke="#171753" stroke-width="0.518818" stroke-miterlimit="10" stroke-linecap="round" stroke-linejoin="round"/>
<path d="M155.487 96.9168C152.35 96.3606 149.391 95.782 146.632 95.1368" stroke="#171753" stroke-width="0.518818" stroke-miterlimit="10" stroke-linecap="round" stroke-linejoin="round"/>
<path d="M131.145 64.3859C131.145 65.6319 130.322 66.6332 129.276 66.6332C128.253 66.6332 127.407 65.6319 127.407 64.3859C127.407 63.1399 128.231 62.1386 129.276 62.1386C130.3 62.1386 131.145 63.1621 131.145 64.3859Z" fill="#171753"/>
<path d="M129.276 68.9477C131.365 68.9477 133.059 66.9055 133.059 64.3863C133.059 61.8671 131.365 59.8249 129.276 59.8249C127.187 59.8249 125.494 61.8671 125.494 64.3863C125.494 66.9055 127.187 68.9477 129.276 68.9477Z" stroke="#171753" stroke-width="0.518818" stroke-miterlimit="10" stroke-linecap="round" stroke-linejoin="round"/>
<path d="M129.276 70.2159C126.606 70.2159 124.448 67.6126 124.448 64.4085" stroke="#171753" stroke-width="0.518818" stroke-miterlimit="10" stroke-linecap="round" stroke-linejoin="round"/>
<path d="M129.277 58.5788C131.947 58.5788 134.105 61.1821 134.105 64.3862" stroke="#171753" stroke-width="0.518818" stroke-miterlimit="10" stroke-linecap="round" stroke-linejoin="round"/>
<g opacity="0.7">
<path d="M84.6105 26.4674L85.8965 26.4674L85.8965 29.4713L84.6105 29.4713L84.6105 26.4674ZM84.6105 32.5824L85.8965 32.5824L85.8965 35.5863L84.6105 35.5863L84.6105 32.5824ZM84.6105 38.5901L85.8965 38.5901L85.8965 41.594L84.6105 41.594L84.6105 38.5901Z" fill="#171753"/>
<path d="M77.6449 33.4407L80.6456 33.4407L80.6456 34.728L77.6449 34.728L77.6449 33.4407ZM83.7535 33.4407L86.7542 33.4407L86.7542 34.728L83.7535 34.728L83.7535 33.4407ZM89.862 33.4407L92.8627 33.4407L92.8627 34.728L89.862 34.728L89.862 33.4407Z" fill="#171753"/>
<path d="M68 24L71.0007 24L71.0007 25.2874L68 25.2874L68 24ZM74.1086 24L77.1093 24L77.1093 25.2874L74.1086 25.2874L74.1086 24Z" fill="#171753"/>
</g>
<g opacity="0.7">
<path d="M101.118 110.645L101.118 111.933L98.116 111.933L98.116 110.645L101.118 110.645ZM95.0066 110.645L95.0066 111.933L92.0044 111.933L92.0044 110.645L95.0066 110.645ZM89.0022 110.645L89.0022 111.933L86 111.933L86 110.645L89.0022 110.645Z" fill="#171753"/>
<path d="M94.1488 103.665L94.1488 106.671L92.8621 106.671L92.8621 103.665L94.1488 103.665ZM94.1488 109.785L94.1488 112.792L92.8621 112.792L92.8621 109.785L94.1488 109.785ZM94.1488 115.906L94.1488 118.913L92.8621 118.913L92.8621 115.906L94.1488 115.906Z" fill="#171753"/>
<path d="M103.584 94L103.584 97.0068L102.297 97.0068L102.297 94L103.584 94ZM103.584 100.121L103.584 103.128L102.297 103.128L102.297 100.121L103.584 100.121Z" fill="#171753"/>
</g>
<g opacity="0.7">
<path d="M22.7609 55.9761L22.7609 57.2621L19.7571 57.2621L19.7571 55.9761L22.7609 55.9761ZM16.6459 55.9761L16.6459 57.2621L13.6421 57.2621L13.6421 55.9761L16.6459 55.9761ZM10.6382 55.9761L10.6382 57.2621L7.6344 57.2621L7.6344 55.9761L10.6382 55.9761Z" fill="#171753"/>
<path d="M15.7877 49.0105L15.7877 52.0112L14.5004 52.0112L14.5004 49.0105L15.7877 49.0105ZM15.7877 55.119L15.7877 58.1197L14.5004 58.1197L14.5004 55.119L15.7877 55.119ZM15.7877 61.2276L15.7877 64.2283L14.5004 64.2283L14.5004 61.2276L15.7877 61.2276Z" fill="#171753"/>
<path d="M25.2283 39.3656L25.2283 42.3663L23.941 42.3663L23.941 39.3656L25.2283 39.3656ZM25.2283 45.4742L25.2283 48.4749L23.941 48.4749L23.941 45.4742L25.2283 45.4742Z" fill="#171753"/>
</g>
<g opacity="0.7">
<path d="M259.466 136.269L259.466 134.98L262.468 134.98L262.468 136.269L259.466 136.269ZM265.577 136.269L265.577 134.98L268.579 134.98L268.579 136.269L265.577 136.269ZM271.582 136.269L271.582 134.98L274.584 134.98L274.584 136.269L271.582 136.269Z" fill="#171753"/>
<path d="M266.435 143.249L266.435 140.242L267.722 140.242L267.722 143.249L266.435 143.249ZM266.435 137.128L266.435 134.121L267.722 134.121L267.722 137.128L266.435 137.128ZM266.435 131.007L266.435 128L267.722 128L267.722 131.007L266.435 131.007Z" fill="#171753"/>
<path d="M257 152.913L257 149.906L258.287 149.906L258.287 152.913L257 152.913ZM257 146.792L257 143.785L258.287 143.785L258.287 146.792L257 146.792Z" fill="#171753"/>
</g>
<defs>
<clipPath id="clip0_1711_1650">
<rect width="25.7858" height="25.6931" fill="white" transform="matrix(0.918791 -0.394744 0.0413525 0.999145 36 80.1788)"/>
</clipPath>
</defs>
</svg>
