<svg width="240" height="264" viewBox="0 0 240 264" fill="none" xmlns="http://www.w3.org/2000/svg">
<rect width="240" height="264" rx="24" fill="#FFEE81"/>
<path d="M202.892 94.9249L88.543 28.9447C87.2668 28.1789 85.8629 28.1789 84.5867 28.5618L80.3752 30.0932L81.5238 32.3904L52.2985 115.472C51.4051 117.897 52.4261 120.449 54.5957 121.725L167.541 186.94L170.221 191.024L174.943 189.365C176.346 188.982 177.495 187.833 178.006 186.429L206.465 104.752C207.869 101.051 206.337 96.9669 202.892 94.9249Z" fill="#ECFFFE"/>
<path d="M170.348 191.279C170.22 191.279 170.22 191.279 170.22 191.151L167.54 187.067L54.5955 121.981C52.2983 120.704 51.2773 117.897 52.1707 115.472L81.1407 32.3904L80.1197 30.0932V29.9656L80.2474 29.8379L84.4589 28.3065L84.5865 28.4341H84.4589C85.8627 27.9236 87.3942 28.0512 88.6704 28.817L203.019 94.9248C206.593 96.9668 208.124 101.178 206.72 105.007L178.261 186.685C177.75 188.216 176.602 189.365 175.07 189.748L170.348 191.279ZM80.5026 30.2208L81.5236 32.3904V32.518L52.5535 115.6C51.7878 117.897 52.6811 120.449 54.8507 121.598L167.796 186.812C167.796 186.812 167.796 186.812 167.923 186.94L170.603 190.896L175.198 189.365C176.602 188.982 177.622 187.833 178.133 186.557L206.593 104.879C207.869 101.178 206.337 97.222 203.019 95.3077L88.4151 29.0722C87.2665 28.4341 85.8627 28.3065 84.5865 28.6893L80.5026 30.2208Z" fill="#171753"/>
<path d="M207.104 102.327L202.764 103.858L197.404 104.114L165.499 183.239L165.754 185.919L167.669 187.068L170.349 191.152L175.071 189.492C176.474 189.11 177.623 187.961 178.134 186.557L206.593 104.879C206.848 103.986 206.976 103.22 207.104 102.327Z" fill="#171753"/>
<path d="M170.348 191.279C170.221 191.279 170.221 191.279 170.221 191.151L167.541 187.067L165.626 186.046L165.499 185.919L165.243 183.239V183.111L197.149 103.986C197.149 103.858 197.276 103.858 197.276 103.858L202.637 103.603L206.976 102.072C207.103 102.072 207.103 102.072 207.103 102.072L207.231 102.199C207.231 103.093 207.103 103.986 206.72 104.752L178.261 186.429C177.75 187.961 176.602 189.109 175.07 189.492L170.348 191.279ZM165.882 185.791L167.668 186.812C167.668 186.812 167.668 186.812 167.796 186.94L170.476 190.896L175.07 189.365C176.474 188.982 177.495 187.833 178.006 186.557L206.465 104.879C206.72 104.241 206.848 103.475 206.848 102.71L202.764 104.113L197.532 104.369L165.626 183.366L165.882 185.791Z" fill="#171753"/>
<path d="M89.6915 29.5828L88.5429 28.9447C87.2667 28.1789 85.8629 28.1789 84.5867 28.5618L80.2476 30.0932L81.3962 32.3904L81.2685 32.7733L89.6915 29.5828Z" fill="#171753"/>
<path d="M81.1408 33.0283H81.0132C81.0132 33.0283 80.8855 32.9007 81.0132 32.773L81.1408 32.3902L80.1198 30.093V29.9654L80.2474 29.8377L84.5866 28.3063C85.9904 27.7958 87.5219 27.9234 88.7981 28.6892L89.9467 29.3273C90.0743 29.3273 90.0743 29.4549 90.0743 29.5825C90.0743 29.7101 90.0743 29.7101 89.9467 29.7101L81.1408 33.0283C81.2684 33.0283 81.1408 33.0283 81.1408 33.0283ZM80.5027 30.2206L81.5236 32.3902V32.5178L89.3086 29.5825L88.5428 29.072C87.3942 28.4339 85.9904 28.3063 84.7142 28.6892L80.5027 30.2206Z" fill="#171753"/>
<path d="M166.392 190.768L49.8741 123.512C47.7045 122.235 46.6835 119.555 47.5769 117.258L76.8022 33.1556C77.8231 30.3479 81.1413 29.0717 83.6937 30.6031L200.212 97.8596C202.382 99.1358 203.403 101.816 202.509 104.113L173.284 188.088C172.391 191.023 169.072 192.299 166.392 190.768Z" fill="#FFEE81"/>
<path d="M166.122 191.142L166.13 191.146L166.137 191.15C166.935 191.549 167.871 191.818 168.817 191.818H168.847C169.457 191.818 170.022 191.818 170.588 191.54C172.075 190.994 173.145 189.778 173.678 188.313L173.68 188.309L202.903 104.339C202.903 104.338 202.904 104.337 202.904 104.336C203.844 101.782 202.769 98.8294 200.351 97.4849C200.351 97.4846 200.35 97.4842 200.35 97.4839L83.8396 30.2322C83.8389 30.2318 83.8382 30.2313 83.8375 30.2309C82.4857 29.4207 80.8655 29.2875 79.3848 29.8259C77.8901 30.3694 76.8142 31.5886 76.2796 33.0587L76.2783 33.0624L47.0547 117.032C47.0544 117.033 47.0541 117.034 47.0538 117.035C46.1141 119.589 47.1882 122.542 49.6061 123.887C49.6068 123.887 49.6074 123.887 49.6081 123.888L166.122 191.142ZM83.5586 30.9812L199.814 98.3609L199.814 98.3611L199.824 98.3662C201.859 99.444 202.709 101.845 201.985 104.022C201.985 104.022 201.984 104.023 201.984 104.023L172.76 187.995L172.76 187.995L172.756 188.007C172.403 189.185 171.456 190.143 170.254 190.627C169.052 190.985 167.734 190.862 166.66 190.266C166.659 190.266 166.658 190.265 166.658 190.265L50.1434 123.01L50.1435 123.01L50.1343 123.005C48.0984 121.928 47.2485 119.526 47.973 117.35C47.9733 117.349 47.9735 117.349 47.9737 117.348L77.3253 33.2494L77.3256 33.2495L77.3292 33.2375C77.6816 32.0627 78.6232 31.1073 79.8189 30.6215C79.9244 30.6003 80.0251 30.5795 80.1218 30.5595C80.6162 30.4573 81.005 30.377 81.3962 30.377C82.0974 30.377 82.815 30.6103 83.5586 30.9812Z" fill="#171753" stroke="#171753" stroke-width="0.56818"/>
<path d="M122.363 72.974C112.664 57.6594 95.307 54.2137 83.8211 65.3167C72.2076 76.2922 70.6761 97.6049 80.503 112.792C90.3298 127.979 107.559 131.425 119.172 120.449C130.658 109.474 132.062 88.1609 122.363 72.974ZM89.5641 104.114C84.0764 95.563 84.9697 83.5666 91.4784 77.3131C97.9871 71.0597 107.686 73.1016 113.174 81.6523C118.662 90.2029 117.768 102.199 111.26 108.453C104.751 114.579 95.0518 112.664 89.5641 104.114Z" fill="#171753"/>
<path d="M103.475 127.086C102.581 127.086 101.688 127.086 100.795 126.958C92.8821 125.937 85.48 120.832 80.3752 112.92C70.5483 97.6051 72.0798 76.1647 83.6933 65.1892C88.9258 60.3396 95.4345 58.0424 102.198 58.8082C110.111 59.8291 117.513 64.934 122.618 72.8465C132.445 88.1611 130.913 109.601 119.3 120.577C114.705 124.788 109.218 127.086 103.475 127.086ZM99.3907 59.0634C93.7754 59.0634 88.2877 61.233 83.9486 65.4445C72.4626 76.4199 70.9312 97.6051 80.6304 112.664C85.6076 120.449 93.0097 125.554 100.795 126.447C107.431 127.213 113.812 125.044 118.917 120.194C130.403 109.219 131.934 88.0335 122.235 72.9741C117.258 65.1892 109.856 60.0844 102.071 59.191C101.177 59.0634 100.284 59.0634 99.3907 59.0634ZM102.581 112.154C102.071 112.154 101.56 112.154 101.05 112.026C96.5831 111.516 92.3716 108.581 89.4363 104.114C83.9486 95.4355 84.7143 83.3115 91.3506 77.058C94.2859 74.2503 97.9869 72.9741 101.816 73.4846C106.282 73.9951 110.494 76.9304 113.429 81.3971C118.917 90.0754 118.151 102.199 111.515 108.453C108.962 110.878 105.772 112.154 102.581 112.154ZM89.8191 103.986C92.6268 108.325 96.7107 111.261 101.05 111.771C104.751 112.282 108.324 111.005 111.132 108.325C117.513 102.199 118.406 90.3306 113.046 81.9076C110.239 77.5685 106.155 74.6332 101.816 74.1227C98.1145 73.6122 94.5411 74.8885 91.7335 77.5685C85.2248 83.5667 84.3314 95.4355 89.8191 103.986Z" fill="#171753"/>
<path d="M121.342 71.5698C115.088 61.8706 105.772 56.8934 96.8385 57.5315L92.3717 57.9143C101.56 57.021 111.132 61.8706 117.513 71.9527C127.212 87.1396 125.809 108.452 114.195 119.428C110.239 123.129 105.772 125.171 101.05 125.681L105.006 125.298C109.601 124.788 114.067 122.618 118.024 119.045C129.51 108.07 131.041 86.7568 121.342 71.5698Z" fill="#ECFFFE"/>
<path d="M101.05 125.937C100.922 125.937 100.795 125.809 100.795 125.809C100.795 125.682 100.922 125.554 100.922 125.554C105.772 125.043 110.239 122.874 113.94 119.3C125.426 108.325 126.957 87.1399 117.258 72.0806C111.26 62.3813 101.943 57.1489 92.4992 58.1698C92.3716 58.1698 92.244 58.0422 92.244 58.0422C92.244 57.9146 92.3716 57.787 92.3716 57.787L96.8383 57.4041C106.155 56.766 115.471 62.1261 121.469 71.5701C131.296 86.8847 129.765 108.325 118.151 119.3C114.45 122.874 109.983 125.043 105.134 125.682L101.05 125.937ZM96.7107 57.6594C104.751 58.4251 112.408 63.4023 117.768 71.6977C127.595 87.0123 126.064 108.453 114.45 119.428C111.77 121.981 108.579 123.895 105.134 124.916C109.856 124.278 114.195 122.108 117.896 118.662C129.382 107.687 130.913 86.5018 121.214 71.4425C115.216 62.2537 106.155 57.0212 96.8383 57.6594H96.7107Z" fill="#171753"/>
<path d="M96.2 72.7189C92.8819 72.5913 89.5637 73.7399 86.756 76.2923C83.5655 79.2276 81.7788 83.5667 81.3959 88.2887L85.097 87.523C85.6074 83.0562 87.3941 78.8447 90.4571 75.9094C92.2438 74.378 94.1581 73.357 96.2 72.7189Z" fill="#ECFFFE"/>
<path d="M92.3714 58.1702C92.2438 58.1702 92.2438 58.0426 92.1161 58.0426C92.1161 57.915 92.1161 57.7874 92.2438 57.7874C92.2438 57.7874 92.2438 57.7874 92.3714 57.7874C92.499 57.7874 92.6266 57.915 92.6266 57.915C92.6266 58.0426 92.499 58.1702 92.3714 58.1702Z" fill="#171753"/>
<path d="M101.05 125.682L105.006 125.299C109.6 124.788 114.067 122.619 118.023 119.045C121.852 115.472 124.532 110.75 126.063 105.518L122.235 106.283C120.576 111.388 118.023 115.983 114.195 119.428C110.366 123.129 105.772 125.171 101.05 125.682Z" fill="#171753"/>
<path d="M75.8929 111.618L75.892 111.617C66.126 96.5239 67.6699 75.3676 79.1668 64.5025C84.9066 59.078 92.0558 57.2224 98.9689 58.5924C105.886 59.9632 112.588 64.5688 117.401 72.1062C127.041 87.1996 125.497 108.357 114.127 119.223C108.387 124.647 101.238 126.502 94.3255 125.132C87.4083 123.761 80.7067 119.156 75.8929 111.618ZM106.733 107.639L106.735 107.637C113.357 101.274 114.24 89.1238 108.691 80.4781C105.912 76.1483 102.054 73.4472 98.0438 72.632C94.028 71.8158 89.8813 72.8962 86.5597 76.0875C79.9377 82.4499 79.0544 94.6006 84.6031 103.246C87.3826 107.577 91.2413 110.246 95.2517 111.045C99.2663 111.844 103.411 110.765 106.733 107.639Z" fill="#FFE850" stroke="#171753" stroke-width="0.56818"/>
<path d="M117.513 71.8255C112.536 64.0406 105.645 59.4463 98.4978 58.17L88.9261 60.4672C96.0729 61.7434 102.965 66.4654 107.942 74.2503C109.856 77.3133 111.388 80.5038 112.408 83.9496L121.98 81.6524C120.959 78.2066 119.555 74.8884 117.513 71.8255Z" fill="#ECFFFE"/>
<path d="M112.536 84.0774C112.408 84.0774 112.408 84.0774 112.281 83.9497C111.26 80.504 109.728 77.1858 107.814 74.2505C103.092 66.7209 96.3281 61.8712 88.926 60.595C88.7984 60.595 88.7984 60.4674 88.7984 60.3398C88.7984 60.2122 88.7984 60.2122 88.926 60.0845L98.4976 57.7874C98.4976 57.7874 98.4976 57.7874 98.6252 57.7874C106.155 59.1912 112.919 64.0408 117.768 71.5705C119.683 74.5058 121.214 77.8239 122.235 81.2697V81.3973L122.108 81.5249L112.536 84.0774ZM89.947 60.3398C97.0938 61.8712 103.602 66.7209 108.197 73.9953C110.111 76.9306 111.515 80.1211 112.664 83.5669L121.725 81.3973C120.704 77.9515 119.172 74.8886 117.386 71.9533C112.664 64.5513 105.9 59.7017 98.4976 58.2978L89.947 60.3398Z" fill="#171753"/>
<path d="M99.1176 82.7724C96.3288 78.3385 92.4133 75.7523 88.4589 74.9147L89.3177 60.8055C96.2643 62.1431 102.962 66.6649 107.829 74.4016C109.686 77.3732 111.177 80.4607 112.189 83.7831L101.606 88.0407C100.984 86.2143 100.229 84.3798 99.1176 82.7724Z" fill="#FFE850" stroke="#171753" stroke-width="0.56818"/>
<path d="M101.433 88.289L110.877 85.9918L122.108 81.525L112.536 83.8222L101.433 88.289Z" fill="#171753"/>
<path d="M101.433 88.544C101.305 88.544 101.305 88.544 101.177 88.4164C101.177 88.2888 101.177 88.1612 101.305 88.1612L112.408 83.6944L121.98 81.3972C122.107 81.3972 122.235 81.3972 122.235 81.5248C122.235 81.6525 122.235 81.7801 122.107 81.7801L111.004 86.2468L101.433 88.544ZM119.427 82.4182L112.536 84.0773L103.985 87.523L110.749 85.864L119.427 82.4182Z" fill="#171753"/>
<path d="M112.536 83.8219L122.107 81.5247C121.725 80.1209 121.852 80.1209 121.214 78.717L111.643 81.0142C112.153 82.2904 112.153 82.5457 112.536 83.8219Z" fill="#171753"/>
<path d="M122.108 81.6521L114.578 83.4388C116.748 90.2027 117.003 97.4772 115.727 104.113L123.257 102.327C124.533 95.6904 124.15 88.416 122.108 81.6521Z" fill="#ECFFFE"/>
<path d="M115.599 104.241H115.471C115.471 104.241 115.344 104.113 115.471 104.113C116.748 97.3493 116.365 90.3302 114.323 83.5662V83.4386L114.45 83.311L121.98 81.5243C122.108 81.5243 122.235 81.5243 122.235 81.6519C124.405 88.4159 124.788 95.5626 123.384 102.454C123.384 102.582 123.256 102.582 123.256 102.582L115.599 104.241C115.727 104.241 115.727 104.241 115.599 104.241ZM114.706 83.5662C116.747 90.2026 117.13 97.2217 115.854 103.73L123.001 102.071C124.277 95.435 123.894 88.4159 121.852 81.7795L114.706 83.5662Z" fill="#171753"/>
<path d="M104.311 99.3421C105.013 95.7334 104.767 91.7886 103.693 88.0726L114.272 83.8166C116.31 90.3399 116.682 97.3227 115.389 103.725L104.311 99.3421Z" fill="#FFE850" stroke="#171753" stroke-width="0.56818"/>
<path d="M116.237 99.7741C116.109 101.306 115.982 102.709 115.599 104.113L123.129 102.327C123.384 100.923 123.639 99.3913 123.767 97.9874L116.237 99.7741Z" fill="#171753"/>
<path d="M117.386 107.177C117.003 108.325 116.237 110.75 115.727 111.771L120.449 110.75L120.576 110.623C121.087 109.602 121.852 107.304 122.235 106.156L117.386 107.177Z" fill="#171753"/>
<path d="M115.599 112.154C115.599 112.154 115.471 112.154 115.471 112.026C115.471 112.026 115.471 111.898 115.471 111.771C116.747 109.218 117.641 106.411 118.279 103.348C118.279 103.22 118.406 103.22 118.406 103.22L123.256 102.072C123.384 102.072 123.384 102.072 123.511 102.072C123.511 102.072 123.639 102.199 123.511 102.327C122.873 105.262 121.98 108.197 120.704 110.75L120.576 110.877C120.576 110.877 120.576 110.877 120.448 110.877L115.599 112.154ZM118.534 103.603C117.896 106.411 117.13 109.091 115.982 111.643L120.321 110.75L120.448 110.622C121.597 108.07 122.49 105.39 123.128 102.582L118.534 103.603Z" fill="#171753"/>
<path d="M115.623 104.378L115.705 104.411L115.792 104.39L118.03 103.857C117.43 106.497 116.616 109.029 115.494 111.453L105.474 103.51C105.56 103.289 105.652 103.064 105.747 102.835C106.011 102.192 106.291 101.513 106.481 100.796L115.623 104.378Z" fill="#ECFFFE" stroke="#171753" stroke-width="0.56818"/>
<path d="M116.365 113.813L107.176 106.538C107.049 106.793 107.049 106.793 106.921 106.921L115.472 118.024C116.365 116.876 118.279 114.706 118.917 113.302L116.365 113.813Z" fill="#171753"/>
<path d="M115.599 118.28C115.472 118.28 115.472 118.28 115.472 118.152L106.921 107.049C106.921 106.921 106.921 106.921 106.921 106.794C107.049 106.666 107.049 106.666 107.049 106.539C107.049 106.539 107.049 106.411 107.176 106.283L107.304 106.156H107.431L116.493 113.303L119.045 112.92C119.173 112.92 119.173 112.92 119.3 113.047C119.3 113.047 119.3 113.175 119.3 113.303C118.79 114.324 117.641 115.855 116.748 117.004C116.493 117.386 116.11 117.769 115.982 118.025C115.727 118.28 115.599 118.28 115.599 118.28ZM107.304 107.049L115.599 117.897C115.854 117.642 115.982 117.386 116.237 117.004C117.003 115.983 118.024 114.706 118.662 113.813L116.365 114.068H116.237L107.304 107.049C107.304 106.921 107.304 106.921 107.304 107.049Z" fill="#171753"/>
<path d="M120.193 110.878L117.641 111.389C117.003 112.792 116.237 114.069 115.471 115.217L118.151 114.707C118.917 113.558 119.683 112.282 120.193 110.878Z" fill="#FFE850"/>
<path d="M120.194 110.878L117.641 111.388C117.003 112.792 116.238 114.068 115.472 115.217L118.152 114.707C118.918 113.558 119.683 112.282 120.194 110.878Z" fill="#171753"/>
<path d="M115.344 115.472C115.216 115.472 115.216 115.472 115.216 115.344C115.216 115.217 115.216 115.217 115.216 115.089C115.982 113.941 116.748 112.537 117.386 111.261L117.513 111.133L120.066 110.622H120.193C120.321 110.622 120.321 110.622 120.449 110.75C120.449 110.75 120.449 110.878 120.449 111.005C119.811 112.409 119.045 113.813 118.152 114.962L118.024 115.089L115.344 115.472C115.471 115.472 115.344 115.472 115.344 115.472ZM117.769 111.643C117.131 112.792 116.492 113.941 115.854 115.089L118.024 114.706C118.79 113.558 119.428 112.409 120.066 111.261L117.769 111.643Z" fill="#171753"/>
<path d="M115.471 111.899L106.282 104.625C106.155 104.88 106.027 105.008 105.9 105.263L115.344 115.345C116.109 114.069 116.875 112.793 117.513 111.516L115.471 111.899Z" fill="#FFE850"/>
<path d="M115.344 115.472C115.344 115.472 115.216 115.472 115.216 115.345L105.772 105.262C105.645 105.135 105.645 105.135 105.772 105.007C105.9 104.88 105.9 104.752 106.027 104.624L106.155 104.497L106.283 104.369H106.41L115.471 111.516L117.513 111.133C117.641 111.133 117.641 111.133 117.769 111.261C117.769 111.261 117.769 111.388 117.769 111.516C117.13 112.92 116.365 114.196 115.471 115.472C115.471 115.472 115.471 115.472 115.344 115.472C115.471 115.472 115.344 115.472 115.344 115.472ZM106.283 105.262L115.471 114.962C116.11 113.941 116.748 112.792 117.386 111.644L115.727 112.026H115.599L106.666 105.007C106.41 105.135 106.283 105.135 106.283 105.262Z" fill="#171753"/>
<path d="M115.598 118.152H115.471C115.343 118.024 115.343 117.897 115.471 117.897C115.981 117.386 116.364 116.748 116.875 116.11C117.002 115.982 117.13 115.982 117.13 116.11C117.258 116.238 117.258 116.365 117.13 116.365C116.619 117.003 116.237 117.514 115.726 118.152C115.726 118.152 115.726 118.152 115.598 118.152Z" fill="#FFE850"/>
<path d="M117.769 115.344C117.641 115.217 117.641 115.089 117.641 115.089C120.704 110.75 121.852 106.666 121.852 106.538C121.852 106.411 121.98 106.411 122.108 106.411C122.235 106.411 122.235 106.538 122.235 106.666C122.235 106.666 120.959 110.877 117.896 115.344C117.896 115.344 117.896 115.344 117.769 115.344Z" fill="#FFE850"/>
<path d="M164.094 166.903L129.253 146.739C127.977 145.973 127.467 144.57 127.977 143.166L146.993 88.2885C147.375 87.2675 148.524 86.8847 149.417 87.3952L186.045 108.58C187.321 109.346 187.831 110.75 187.321 112.154L169.071 164.989C168.305 167.031 165.881 167.924 164.094 166.903Z" fill="#171753"/>
<path d="M165.753 167.542C165.115 167.542 164.477 167.414 163.967 167.031L129.126 146.867C127.85 146.101 127.212 144.442 127.722 143.038L146.738 88.1613C146.865 87.6508 147.376 87.2679 147.886 87.0127C148.397 86.7574 149.035 86.885 149.545 87.1403L186.173 108.325C187.449 109.091 188.087 110.75 187.576 112.154L169.327 164.989C168.944 166.01 168.178 166.776 167.157 167.159C166.647 167.414 166.136 167.542 165.753 167.542ZM164.094 166.648C164.987 167.159 165.881 167.159 166.774 166.904C167.668 166.521 168.433 165.883 168.689 164.989L186.938 112.154C187.321 110.878 186.811 109.474 185.662 108.836L149.035 87.6508C148.652 87.3955 148.141 87.3955 147.759 87.5232C147.376 87.6508 146.993 88.0336 146.865 88.4165L127.85 143.294C127.467 144.57 127.977 145.974 129.126 146.612L164.094 166.648Z" fill="#171753"/>
<path d="M185.28 104.369L149.163 83.4393C148.78 83.1841 147.887 83.3117 147.887 83.3117L145.079 84.4603C145.462 84.3327 145.972 84.3327 146.355 84.5879L182.983 105.773C184.259 106.539 184.769 107.943 184.259 109.346L165.243 164.224C165.116 164.734 164.733 164.989 164.222 165.245L167.158 164.096C167.54 163.968 167.923 163.586 168.051 163.203L186.939 108.708C187.577 107.049 186.811 105.263 185.28 104.369Z" fill="#ECFFFE"/>
<path d="M164.35 165.372C164.222 165.372 164.222 165.372 164.222 165.244V165.117C164.222 165.117 164.222 164.989 164.35 164.989C164.733 164.862 164.988 164.479 165.243 164.096L184.259 109.219C184.641 107.942 184.131 106.539 182.982 105.9L146.355 84.7153C145.972 84.46 145.589 84.46 145.206 84.5877C145.079 84.5877 144.951 84.5877 144.951 84.46V84.3324C144.951 84.3324 144.951 84.2048 145.079 84.2048L147.887 83.0562C148.014 83.0562 148.907 82.9286 149.29 83.1838L185.407 104.114C187.066 105.007 187.704 107.049 187.194 108.836L168.434 163.075C168.306 163.585 167.923 163.968 167.54 164.096L164.35 165.372C164.477 165.372 164.35 165.372 164.35 165.372ZM146.1 84.0772C146.227 84.0772 146.355 84.2048 146.483 84.2048L183.11 105.39C184.386 106.156 185.024 107.815 184.514 109.219L165.498 164.096C165.498 164.223 165.371 164.351 165.371 164.351L167.157 163.585C167.54 163.458 167.795 163.075 167.923 162.692L186.811 108.708C187.322 107.177 186.683 105.39 185.28 104.497L149.163 83.5667C148.907 83.4391 148.269 83.4391 148.014 83.4391L146.1 84.0772Z" fill="#171753"/>
<path d="M125.309 140.328L125.309 140.328L125.31 140.324L144.325 85.45C144.647 84.5975 145.599 84.2829 146.341 84.7064C146.341 84.7065 146.341 84.7066 146.341 84.7068L182.964 105.889C182.964 105.889 182.965 105.89 182.966 105.89C184.125 106.587 184.582 107.848 184.119 109.122L184.119 109.122L184.118 109.126L165.104 163.996C165.104 163.997 165.104 163.998 165.103 163.999C164.781 164.852 163.829 165.166 163.087 164.743C163.087 164.743 163.087 164.743 163.087 164.743L126.464 143.56C126.464 143.56 126.463 143.56 126.463 143.559C125.303 142.862 124.846 141.601 125.309 140.328Z" fill="#FFE850" stroke="#171753" stroke-width="0.56818"/>
<ellipse cx="0.706109" cy="0.707508" rx="0.706109" ry="0.707508" transform="matrix(0.866025 0.5 -0.324743 0.945802 135.529 122.753)" stroke="#171753" stroke-width="0.361657"/>
<ellipse cx="0.706109" cy="0.707508" rx="0.706109" ry="0.707508" transform="matrix(0.866025 0.5 -0.324743 0.945802 134.61 125.429)" fill="#171753"/>
<ellipse cx="0.706109" cy="0.707508" rx="0.706109" ry="0.707508" transform="matrix(0.866025 0.5 -0.324743 0.945802 133.691 128.106)" stroke="#171753" stroke-width="0.361657"/>
<ellipse cx="0.706109" cy="0.707508" rx="0.706109" ry="0.707508" transform="matrix(0.866025 0.5 -0.324743 0.945802 132.772 130.783)" stroke="#171753" stroke-width="0.361657"/>
<ellipse cx="0.706109" cy="0.707508" rx="0.706109" ry="0.707508" transform="matrix(0.866025 0.5 -0.324743 0.945802 131.853 133.46)" stroke="#171753" stroke-width="0.361657"/>
<ellipse cx="0.706109" cy="0.707508" rx="0.706109" ry="0.707508" transform="matrix(0.866025 0.5 -0.324743 0.945802 130.934 136.136)" fill="#171753"/>
<ellipse cx="0.706109" cy="0.707508" rx="0.706109" ry="0.707508" transform="matrix(0.866025 0.5 -0.324743 0.945802 130.015 138.813)" stroke="#171753" stroke-width="0.361657"/>
<rect width="10.8745" height="0.990552" rx="0.495276" transform="matrix(0.866025 0.5 -0.324743 0.945802 137.563 124.087)" stroke="#171753" stroke-width="0.361657"/>
<rect width="10.8745" height="0.990552" rx="0.495276" transform="matrix(0.866025 0.5 -0.324743 0.945802 147.836 130.019)" stroke="#171753" stroke-width="0.361657"/>
<rect width="10.8745" height="0.990552" rx="0.495276" transform="matrix(0.866025 0.5 -0.324743 0.945802 158.11 135.95)" stroke="#171753" stroke-width="0.361657"/>
<rect width="7.6263" height="0.990552" rx="0.495276" transform="matrix(0.866025 0.5 -0.324743 0.945802 136.643 126.764)" fill="#ECFFFE"/>
<rect width="18.2184" height="0.990552" rx="0.495276" transform="matrix(0.866025 0.5 -0.324743 0.945802 144.961 131.565)" fill="#ECFFFE"/>
<rect width="17.8936" height="0.990552" rx="0.495276" transform="matrix(0.866025 0.5 -0.324743 0.945802 135.724 129.441)" stroke="#171753" stroke-width="0.361657"/>
<rect width="17.8936" height="0.990552" rx="0.495276" transform="matrix(0.866025 0.5 -0.324743 0.945802 134.805 132.117)" fill="#171753"/>
<rect width="7.6263" height="0.990552" rx="0.495276" transform="matrix(0.866025 0.5 -0.324743 0.945802 133.886 134.794)" stroke="#171753" stroke-width="0.361657"/>
<rect width="18.2184" height="0.990552" rx="0.495276" transform="matrix(0.866025 0.5 -0.324743 0.945802 142.203 139.595)" stroke="#171753" stroke-width="0.361657"/>
<rect width="17.8936" height="0.990552" rx="0.495276" transform="matrix(0.866025 0.5 -0.324743 0.945802 132.967 137.471)" fill="#ECFFFE"/>
<rect width="10.8745" height="0.990552" rx="0.495276" transform="matrix(0.866025 0.5 -0.324743 0.945802 132.048 140.147)" fill="#171753"/>
<rect width="10.8745" height="0.990552" rx="0.495276" transform="matrix(0.866025 0.5 -0.324743 0.945802 142.322 146.079)" fill="#171753"/>
<rect width="10.8745" height="0.990552" rx="0.495276" transform="matrix(0.866025 0.5 -0.324743 0.945802 152.596 152.01)" fill="#171753"/>
<path d="M164.26 117.594C164.54 116.525 165.601 115.955 166.647 116.31C167.693 116.665 168.306 117.804 168.026 118.873C167.746 119.941 166.685 120.512 165.639 120.157C164.593 119.802 163.989 118.627 164.26 117.594Z" fill="#171753"/>
<path d="M174.524 126.251C174.295 126.834 174.066 127.418 173.741 127.929C172.683 129.786 171.042 131.251 168.881 131.645C165.935 132.122 162.987 130.577 160.668 128.663C158.131 129.473 158.131 129.473 158.131 129.473C157.557 129.628 157.068 128.879 157.488 128.438C156.865 128.343 156.839 127.713 157.136 127.308C156.543 127.534 156.31 126.678 156.703 126.344C156.952 126.118 157.316 125.892 157.592 125.713C155.041 122.942 152.872 119.873 150.659 116.829C151.972 118.363 157.411 123.786 158.773 124.987C160.196 126.247 161.619 127.508 163.196 128.471C164.511 129.267 166.249 130.052 167.759 129.67C169.136 129.36 169.975 128.051 170.496 126.789C171.664 124.075 171.526 120.529 170.692 117.603C169.816 114.545 167.895 111.405 165.222 109.681C164.247 109.039 163.197 108.683 162.17 108.528C159.792 108.149 157.354 108.876 155.311 110.127C152.363 111.925 149.956 114.568 147.698 117.223C146.166 118.997 143.454 123.674 140.768 120.547C139.576 119.131 139.087 117.216 138.869 115.431C138.608 113.515 138.708 111.1 139.64 109.433C141.62 105.946 145.981 111.12 147.448 112.939C147.352 112.868 143.667 109.479 141.725 110.491C140.838 110.968 140.536 112.265 140.398 113.229C140.169 114.978 140.319 117.75 141.616 119.201C143.302 121.057 145.28 117.724 146.142 116.617C147.587 114.736 148.997 112.843 150.539 111.034C152.241 109.046 154.144 107.165 156.424 105.878C156.161 105.283 155.75 104.522 155.874 103.903C155.982 103.201 156.843 102.677 157.45 103.272C156.888 102.07 158.338 101.046 159.247 101.938C158.963 100.986 159.995 100.248 160.791 100.557C161.246 100.711 161.598 101.258 161.882 101.627C162.633 102.543 163.375 103.495 164.16 104.422C173.239 105.988 177.417 118.408 174.524 126.251Z" fill="#171753"/>
<path d="M167.285 164.096C167.668 163.968 168.051 163.586 168.178 163.203L186.939 108.964C187.066 108.581 187.194 108.07 187.194 107.687L184.514 108.581C184.514 108.836 184.514 109.219 184.386 109.474L165.371 164.351C165.243 164.862 164.86 165.117 164.35 165.372L167.285 164.096Z" fill="#171753"/>
<path d="M185.025 114.451C184.897 114.451 184.769 114.323 184.769 114.196L186.173 109.984C186.173 109.856 186.301 109.856 186.428 109.856C186.556 109.856 186.556 109.984 186.556 110.112L185.152 114.323C185.28 114.323 185.152 114.451 185.025 114.451Z" fill="#FFE850"/>
<path d="M178.898 132.318C178.771 132.318 178.898 132.318 178.898 132.318C178.771 132.318 178.643 132.19 178.643 132.063L180.175 127.851C180.175 127.723 180.302 127.723 180.43 127.723C180.558 127.723 180.558 127.851 180.558 127.979L179.026 132.19C179.026 132.19 179.026 132.318 178.898 132.318Z" fill="#FFE850"/>
<path d="M165.498 164.862C165.37 164.862 165.37 164.862 165.243 164.734C165.243 164.606 165.243 164.479 165.37 164.479L166.519 163.968C166.902 163.841 167.285 163.585 167.54 163.202C167.795 162.947 167.923 162.564 168.051 162.309L177.877 133.85C177.877 133.722 178.005 133.722 178.133 133.722C178.26 133.722 178.26 133.85 178.26 133.977L168.433 162.437C168.306 162.82 168.051 163.202 167.795 163.458C167.412 163.841 167.03 164.096 166.647 164.223L165.498 164.862Z" fill="#FFE850"/>
<path d="M71.6969 121.343C70.676 119.939 69.0169 119.684 67.9959 120.705C66.9749 121.853 66.8473 123.895 67.8683 125.299C68.8893 126.703 70.5483 126.958 71.5693 125.937C72.7179 124.789 72.7179 122.747 71.6969 121.343Z" fill="#171753"/>
<path d="M70.0377 126.83H69.9101C69.1444 126.703 68.251 126.32 67.7405 125.427C66.7196 123.895 66.7196 121.726 67.8682 120.577C68.3786 120.067 69.0167 119.811 69.7825 119.811C70.5482 119.939 71.4416 120.322 71.952 121.215C72.973 122.747 72.973 124.916 71.8244 126.065C71.3139 126.575 70.6758 126.83 70.0377 126.83ZM69.5272 120.322C69.0167 120.322 68.5063 120.577 68.1234 120.96C67.1024 121.981 67.1024 123.895 67.9958 125.299C68.5063 125.937 69.1444 126.448 69.9101 126.448C70.5482 126.448 71.0587 126.32 71.4415 125.809C72.4625 124.789 72.4625 122.874 71.5692 121.47C71.0587 120.832 70.4206 120.322 69.6549 120.322C69.6549 120.322 69.6549 120.322 69.5272 120.322Z" fill="#171753"/>
<path d="M71.4421 119.684C70.804 118.79 69.9106 118.28 69.0173 118.408L67.103 118.663C67.9963 118.535 68.8897 118.918 69.5278 119.939C70.5487 121.343 70.4211 123.385 69.4002 124.533C69.0173 124.916 68.6344 125.172 68.1239 125.172L69.9106 124.916C70.2935 124.789 70.804 124.661 71.1868 124.278C72.3354 123.13 72.4631 121.088 71.4421 119.684Z" fill="#ECFFFE"/>
<path d="M68.2512 125.299C68.1236 125.299 68.1236 125.171 67.996 125.171C67.996 125.044 67.996 124.916 68.1236 124.916C68.5065 124.788 68.8894 124.661 69.2722 124.278C70.2932 123.257 70.2932 121.343 69.3998 119.939C68.7617 119.045 67.996 118.663 67.1027 118.79C66.975 118.79 66.8474 118.663 66.8474 118.663C66.8474 118.535 66.8474 118.407 66.975 118.407L68.8894 118.152C69.9103 118.024 70.8037 118.535 71.4418 119.428C72.4628 120.96 72.4628 123.129 71.3142 124.278C70.9313 124.661 70.4208 124.916 70.0379 125.044L68.2512 125.299ZM68.5065 118.663C69.017 118.918 69.3998 119.301 69.7827 119.811C70.8037 121.343 70.8037 123.512 69.6551 124.661L69.5275 124.788L70.1656 124.661C70.5484 124.533 70.9313 124.406 71.3142 124.023C72.3351 123.002 72.3351 121.087 71.4418 119.684C70.9313 118.918 70.0379 118.407 69.2722 118.535L68.5065 118.663Z" fill="#171753"/>
<path d="M72.2072 122.874L70.4205 123.13C70.2929 123.64 70.0376 124.15 69.6548 124.533C69.2719 124.916 68.889 125.171 68.3785 125.171L70.1652 124.916C70.5481 124.789 71.0586 124.661 71.4415 124.278C71.8243 123.895 72.0796 123.385 72.2072 122.874Z" fill="#171753"/>
<path d="M69.6549 119.939C68.6339 118.535 66.9748 118.28 65.9539 119.301C64.9329 120.45 64.8053 122.491 65.8262 123.895C66.8472 125.299 68.5063 125.554 69.5273 124.533C70.5482 123.385 70.6759 121.343 69.6549 119.939Z" fill="#FFE850"/>
<path d="M67.9957 125.427H67.868C67.1023 125.299 66.209 124.916 65.6985 124.023C64.6775 122.491 64.6775 120.322 65.8261 119.173C66.3366 118.663 66.9747 118.407 67.7404 118.407C68.5062 118.535 69.3995 118.918 69.91 119.811C70.931 121.343 70.931 123.512 69.7824 124.661C69.1443 125.044 68.6338 125.427 67.9957 125.427ZM67.4852 118.79C66.9747 118.79 66.4642 119.046 66.0813 119.428C65.0604 120.449 65.0604 122.364 65.9537 123.768C66.4642 124.406 67.1023 124.916 67.868 124.916C68.3785 124.916 69.0166 124.789 69.3995 124.278C70.4205 123.257 70.4205 121.343 69.5271 119.939C69.0166 119.301 68.3785 118.79 67.6128 118.79H67.4852Z" fill="#171753"/>
<path d="M69.3996 125.171C69.272 125.171 69.1443 125.043 69.1443 124.916C69.1443 124.788 69.272 124.66 69.3996 124.66C69.3996 124.66 70.8034 124.66 71.1863 124.022C71.1863 123.895 71.4415 123.895 71.4415 124.022C71.5692 124.022 71.5692 124.278 71.4415 124.278C71.0587 125.171 69.6548 125.171 69.3996 125.171Z" fill="#FFE850"/>
<path d="M80.2478 126.192C79.2269 124.788 77.5678 124.533 76.5468 125.554C75.5258 126.703 75.3982 128.745 76.4192 130.148C77.4402 131.552 79.0992 131.808 80.1202 130.787C81.1412 129.766 81.2688 127.724 80.2478 126.192Z" fill="#171753"/>
<path d="M78.5887 131.68H78.4611C77.6954 131.552 76.802 131.17 76.2916 130.276C75.2706 128.745 75.2706 126.575 76.4192 125.427C76.9297 124.916 77.5678 124.661 78.3335 124.661C79.0992 124.789 79.9926 125.171 80.5031 126.065C81.524 127.596 81.524 129.766 80.3754 130.914C79.865 131.425 79.2269 131.68 78.5887 131.68ZM78.0783 125.171C77.5678 125.171 77.0573 125.427 76.6744 125.809C75.6535 126.83 75.6535 128.745 76.5468 130.149C77.0573 130.787 77.6954 131.297 78.4611 131.297C79.0992 131.297 79.6097 131.17 79.9926 130.659C81.0136 129.638 81.0135 127.724 80.1202 126.32C79.6097 125.682 78.9716 125.171 78.2059 125.171H78.0783Z" fill="#171753"/>
<path d="M79.9923 124.533C79.3542 123.64 78.4609 123.129 77.5675 123.257L75.6532 123.512C76.5465 123.385 77.4399 123.767 78.078 124.788C79.099 126.192 78.9714 128.234 77.9504 129.383C77.5675 129.766 77.1847 130.021 76.6742 130.021L78.4609 129.766C78.8437 129.638 79.3542 129.51 79.7371 129.128C80.8857 128.107 81.0133 126.065 79.9923 124.533Z" fill="#ECFFFE"/>
<path d="M76.8015 130.276C76.6739 130.276 76.6739 130.148 76.5463 130.148C76.5463 130.021 76.5463 129.893 76.6739 129.893C77.0568 129.765 77.4396 129.638 77.8225 129.255C78.8435 128.234 78.8435 126.32 77.9501 124.916C77.312 124.022 76.5463 123.64 75.6529 123.767C75.5253 123.767 75.3977 123.64 75.3977 123.64C75.3977 123.512 75.3977 123.384 75.5253 123.384L77.4396 123.129C78.4606 123.002 79.354 123.512 79.9921 124.405C81.013 125.937 81.013 128.106 79.8645 129.255C79.4816 129.638 78.9711 129.893 78.5882 130.021L76.8015 130.276ZM77.0568 123.64C77.5673 123.895 77.9501 124.278 78.333 124.788C79.354 126.32 79.354 128.489 78.2054 129.638L78.0778 129.765L78.7159 129.638C79.0987 129.51 79.4816 129.383 79.8645 129C80.8854 127.979 80.8854 126.064 79.9921 124.661C79.4816 123.895 78.5882 123.384 77.8225 123.512L77.0568 123.64Z" fill="#171753"/>
<path d="M80.6303 127.724L78.8436 127.979C78.716 128.489 78.4607 129 78.0778 129.383C77.695 129.766 77.3121 130.021 76.8016 130.021L78.5883 129.766C78.9712 129.638 79.4817 129.51 79.8646 129.127C80.375 128.745 80.5027 128.362 80.6303 127.724Z" fill="#171753"/>
<path d="M78.2057 124.788C77.1848 123.385 75.5257 123.129 74.5047 124.15C73.4837 125.299 73.3561 127.341 74.3771 128.745C75.3981 130.149 77.0571 130.404 78.0781 129.383C79.0991 128.362 79.0991 126.192 78.2057 124.788Z" fill="#FFE850"/>
<path d="M76.4189 130.276H76.2913C75.5256 130.148 74.6322 129.766 74.1218 128.872C73.1008 127.341 73.1008 125.171 74.2494 124.023C74.7599 123.512 75.398 123.257 76.1637 123.257C76.9294 123.384 77.8228 123.767 78.3333 124.661C79.3542 126.192 79.3542 128.362 78.2056 129.51C77.6952 130.021 77.057 130.276 76.4189 130.276ZM75.9085 123.767C75.398 123.767 74.8875 124.023 74.5046 124.405C73.4836 125.426 73.4836 127.341 74.377 128.745C74.8875 129.383 75.5256 129.893 76.2913 129.893C76.9294 129.893 77.4399 129.766 77.8228 129.255C78.8438 128.234 78.8438 126.32 77.9504 124.916C77.4399 124.278 76.8018 123.767 76.0361 123.767C76.0361 123.767 76.0361 123.767 75.9085 123.767Z" fill="#171753"/>
<path d="M77.9505 130.148C77.8229 130.148 77.6953 130.021 77.6953 129.893C77.6953 129.765 77.8229 129.638 77.9505 129.638C77.9505 129.638 79.3543 129.638 79.7372 129C79.8648 128.872 79.9924 128.872 79.9924 129C80.1201 129 80.1201 129.255 79.9924 129.255C79.6096 130.021 78.0781 130.148 77.9505 130.148Z" fill="#FFE850"/>
<path d="M88.7981 131.17C87.7772 129.766 86.1181 129.511 85.0971 130.532C84.0761 131.681 83.9485 133.723 84.9695 135.126C85.9905 136.53 87.6495 136.785 88.6705 135.764C89.6915 134.616 89.8191 132.574 88.7981 131.17Z" fill="#171753"/>
<path d="M87.139 136.658H87.0113C86.2456 136.53 85.3523 136.147 84.8418 135.254C83.8208 133.722 83.8208 131.553 84.9694 130.404C85.4799 129.894 86.118 129.638 86.8837 129.638C87.6495 129.766 88.5428 130.149 89.0533 131.042C90.0743 132.574 90.0743 134.743 88.9257 135.892C88.2876 136.402 87.7771 136.658 87.139 136.658ZM86.6285 130.149C86.118 130.149 85.6075 130.404 85.2246 130.787C84.2037 131.808 84.2037 133.722 85.097 135.126C85.6075 135.764 86.2456 136.275 87.0113 136.275C87.6495 136.275 88.1599 136.147 88.5428 135.637C89.5638 134.616 89.5638 132.701 88.6704 131.298C88.1599 130.659 87.5218 130.149 86.7561 130.149H86.6285Z" fill="#171753"/>
<path d="M88.5426 129.511C87.9044 128.617 87.0111 128.107 86.1178 128.234L84.2034 128.49C85.0968 128.362 85.9901 128.745 86.6282 129.766C87.6492 131.17 87.5216 133.212 86.5006 134.36C86.1177 134.743 85.7349 134.998 85.2244 134.998L87.0111 134.743C87.394 134.616 87.9044 134.488 88.2873 134.105C89.4359 132.956 89.4359 130.915 88.5426 129.511Z" fill="#ECFFFE"/>
<path d="M85.3518 135.126C85.2241 135.126 85.2242 134.998 85.0965 134.998C85.0965 134.871 85.0965 134.743 85.2242 134.743C85.607 134.615 85.9899 134.488 86.3727 134.105C87.3937 133.084 87.3937 131.17 86.5004 129.766C85.8623 128.872 85.0965 128.49 84.2032 128.617C84.0756 128.617 83.9479 128.49 83.9479 128.49C83.9479 128.362 83.9479 128.234 84.0756 128.234L85.9899 127.979C87.0108 127.852 87.9042 128.362 88.5423 129.255C89.5633 130.787 89.5633 132.956 88.4147 134.105C88.0318 134.488 87.5213 134.743 87.1385 134.871L85.3518 135.126ZM85.607 128.49C86.1175 128.745 86.5004 129.128 86.8832 129.638C87.9042 131.17 87.9042 133.339 86.7556 134.488L86.628 134.615L87.2661 134.488C87.649 134.36 88.0318 134.233 88.4147 133.85C89.4357 132.829 89.4357 130.914 88.5423 129.511C88.0318 128.745 87.1385 128.234 86.3727 128.362L85.607 128.49Z" fill="#171753"/>
<path d="M89.1805 132.701L87.3938 132.957C87.2662 133.467 87.0109 133.978 86.6281 134.36C86.2452 134.743 85.8624 134.998 85.3519 134.998L87.1386 134.743C87.5214 134.616 88.0319 134.488 88.4148 134.105C88.7976 133.722 89.0529 133.212 89.1805 132.701Z" fill="#171753"/>
<path d="M86.6281 129.766C85.6072 128.362 83.9481 128.107 82.9271 129.128C81.9062 130.276 81.7785 132.318 82.7995 133.722C83.8205 135.126 85.4796 135.381 86.5005 134.36C87.6491 133.212 87.6491 131.17 86.6281 129.766Z" fill="#FFE850"/>
<path d="M84.9692 135.254H84.8416C84.0758 135.126 83.1825 134.743 82.672 133.85C81.651 132.318 81.651 130.149 82.7996 129C83.3101 128.49 83.9482 128.234 84.7139 128.234C85.4797 128.362 86.373 128.745 86.8835 129.638C87.9045 131.17 87.9045 133.339 86.7559 134.488C86.2454 134.998 85.6073 135.254 84.9692 135.254ZM84.4587 128.617C83.9482 128.617 83.4377 128.873 83.0549 129.255C82.0339 130.276 82.0339 132.191 82.9272 133.595C83.4377 134.233 84.0758 134.743 84.8416 134.743C85.4797 134.743 85.9901 134.616 86.373 134.105C87.394 133.084 87.394 131.17 86.5006 129.766C85.9901 129.128 85.352 128.617 84.5863 128.617C84.5863 128.617 84.5863 128.617 84.4587 128.617Z" fill="#171753"/>
<path d="M86.5007 134.998C86.3731 134.998 86.2455 134.871 86.2455 134.743C86.2455 134.615 86.3731 134.488 86.5007 134.488C86.5007 134.488 87.9046 134.488 88.2874 133.85C88.415 133.722 88.5427 133.722 88.5427 133.85C88.6703 133.85 88.6703 134.105 88.5427 134.105C88.0322 134.998 86.6283 134.998 86.5007 134.998Z" fill="#FFE850"/>
<path d="M97.3489 136.019C96.3279 134.616 94.6689 134.36 93.6479 135.381C92.6269 136.53 92.4993 138.572 93.5203 139.976C94.5412 141.379 96.2003 141.635 97.2213 140.614C98.2423 139.593 98.2423 137.551 97.3489 136.019Z" fill="#171753"/>
<path d="M95.562 141.507H95.4344C94.6687 141.379 93.7753 140.996 93.2648 140.103C92.2439 138.572 92.2439 136.402 93.3924 135.254C93.9029 134.743 94.541 134.488 95.3068 134.488C96.0725 134.615 96.9658 134.998 97.4763 135.892C98.4973 137.423 98.4973 139.593 97.3487 140.741C96.8382 141.252 96.2001 141.507 95.562 141.507ZM95.1791 134.998C94.6687 134.998 94.1582 135.254 93.7753 135.636C92.7543 136.657 92.7543 138.572 93.6477 139.976C94.1582 140.614 94.7963 141.124 95.562 141.124C96.2001 141.124 96.7106 140.996 97.0935 140.486C98.1144 139.465 98.1144 137.551 97.2211 136.147C96.7106 135.509 96.0725 134.998 95.3068 134.998C95.1791 134.998 95.1791 134.998 95.1791 134.998Z" fill="#171753"/>
<path d="M96.9663 134.36C96.3282 133.467 95.4349 132.956 94.5415 133.084L92.6272 133.339C93.5205 133.211 94.4139 133.594 95.052 134.615C96.073 136.019 95.9453 138.061 94.9244 139.21C94.5415 139.593 94.1586 139.848 93.6482 139.848L95.4349 139.593C95.8177 139.465 96.3282 139.337 96.7111 138.954C97.9873 137.933 97.9873 135.892 96.9663 134.36Z" fill="#ECFFFE"/>
<path d="M93.7755 140.103C93.6479 140.103 93.6479 139.975 93.5203 139.975C93.5203 139.848 93.5203 139.72 93.6479 139.72C94.0308 139.592 94.4136 139.465 94.7965 139.082C95.8175 138.061 95.8175 136.147 94.9241 134.743C94.286 133.85 93.5203 133.467 92.627 133.594C92.4993 133.594 92.3717 133.467 92.3717 133.467C92.3717 133.339 92.3717 133.211 92.4993 133.211L94.4137 132.956C95.4346 132.829 96.328 133.339 96.9661 134.232C97.9871 135.764 97.987 137.933 96.8385 139.082C96.4556 139.465 95.9451 139.72 95.5622 139.848L93.7755 140.103ZM94.1584 133.467C94.6689 133.722 95.0518 134.105 95.4346 134.615C96.4556 136.147 96.4556 138.316 95.307 139.465L95.1794 139.592L95.8175 139.465C96.2004 139.337 96.5832 139.21 96.9661 138.827C97.9871 137.806 97.9871 135.891 97.0937 134.488C96.5832 133.722 95.6899 133.211 94.9241 133.339L94.1584 133.467Z" fill="#171753"/>
<path d="M97.7315 137.551L95.9448 137.806C95.8172 138.316 95.5619 138.827 95.179 139.21C94.7962 139.593 94.4133 139.848 93.9028 139.848L95.6895 139.593C96.0724 139.465 96.5829 139.337 96.9657 138.954C97.3486 138.572 97.6039 138.061 97.7315 137.551Z" fill="#171753"/>
<path d="M95.1791 134.615C94.1581 133.211 92.499 132.956 91.478 133.977C90.4571 135.126 90.3294 137.168 91.3504 138.571C92.3714 139.975 94.0305 140.231 95.0514 139.21C96.0724 138.061 96.2 136.019 95.1791 134.615Z" fill="#FFE850"/>
<path d="M93.52 140.103H93.3923C92.6266 139.975 91.7333 139.592 91.2228 138.699C90.2018 137.168 90.2018 134.998 91.3504 133.849C91.8609 133.339 92.499 133.084 93.2647 133.084C94.0304 133.211 94.9238 133.594 95.4343 134.488C96.4552 136.019 96.4552 138.189 95.3067 139.337C94.7962 139.848 94.1581 140.103 93.52 140.103ZM93.0095 133.594C92.499 133.594 91.9885 133.849 91.6056 134.232C90.5847 135.253 90.5847 137.168 91.478 138.571C91.9885 139.21 92.6266 139.72 93.3923 139.72C94.0304 139.72 94.5409 139.592 94.9238 139.082C95.9448 138.061 95.9448 136.147 95.0514 134.743C94.5409 134.105 93.9028 133.594 93.1371 133.594H93.0095Z" fill="#171753"/>
<path d="M95.0516 139.848C94.924 139.848 94.7964 139.72 94.7964 139.593C94.7964 139.465 94.924 139.338 95.0516 139.338C95.0516 139.338 96.4555 139.338 96.8383 138.699C96.8383 138.572 96.966 138.572 97.0936 138.699C97.2212 138.699 97.2212 138.827 97.0936 138.955C96.5831 139.848 95.1793 139.848 95.0516 139.848Z" fill="#FFE850"/>
<path d="M146.994 169.838L126.064 157.714C124.788 156.948 124.277 155.545 124.66 154.141L124.788 153.63C125.171 152.609 126.319 152.226 127.212 152.737L148.27 164.861C149.546 165.627 150.057 167.03 149.674 168.434L149.546 168.945C149.036 169.966 147.887 170.349 146.994 169.838Z" fill="#171753"/>
<path d="M147.759 170.221C147.377 170.221 147.121 170.094 146.866 169.966L125.936 157.842C124.66 157.076 124.022 155.417 124.532 154.013L124.66 153.503C124.788 152.992 125.298 152.61 125.809 152.354C126.319 152.099 126.957 152.227 127.468 152.482L148.398 164.606C149.674 165.372 150.312 167.031 149.801 168.435L149.674 168.945C149.546 169.456 149.036 169.838 148.525 170.094C148.27 170.221 148.015 170.221 147.759 170.221ZM126.447 152.737C126.319 152.737 126.064 152.737 125.936 152.865C125.553 152.992 125.17 153.375 125.043 153.758L124.915 154.269C124.532 155.545 125.043 156.949 126.191 157.587L147.121 169.711C147.504 169.966 148.015 169.966 148.398 169.838C148.78 169.711 149.163 169.328 149.291 168.945L149.418 168.435C149.801 167.158 149.291 165.755 148.142 165.116L127.212 152.992C126.957 152.737 126.702 152.737 126.447 152.737Z" fill="#171753"/>
<path d="M148.142 162.181L127.723 150.312C127.212 150.057 126.702 150.057 126.319 150.185L124.532 150.823C124.915 150.695 125.553 150.695 125.936 150.95L146.866 163.074C148.142 163.84 148.653 165.244 148.27 166.648L148.142 167.158C148.015 167.541 147.632 167.924 147.249 168.052L148.78 167.541C149.291 167.413 149.674 167.031 149.801 166.52C150.312 164.861 149.674 163.074 148.142 162.181Z" fill="#ECFFFE"/>
<path d="M147.249 168.434C147.121 168.434 147.121 168.434 147.121 168.307C147.121 168.179 147.121 168.052 147.249 168.052C147.632 167.924 147.887 167.541 148.015 167.286L148.142 166.775C148.525 165.499 148.015 164.095 146.866 163.457L125.936 151.333C125.553 151.078 125.17 151.078 124.66 151.206C124.532 151.206 124.405 151.206 124.405 151.078C124.405 150.95 124.405 150.823 124.532 150.823L126.319 150.185C126.83 149.929 127.468 150.057 127.978 150.312L148.398 162.181C150.057 163.074 150.695 164.989 150.184 166.775C150.057 167.286 149.546 167.796 149.036 167.924L147.249 168.434ZM125.681 150.695C125.809 150.695 125.936 150.823 126.064 150.823L146.994 162.947C148.27 163.712 148.908 165.371 148.398 166.775L148.27 167.286C148.27 167.413 148.142 167.541 148.142 167.669L148.653 167.413C149.163 167.286 149.419 166.903 149.546 166.52C150.057 164.989 149.419 163.202 148.015 162.436L127.595 150.567C127.212 150.312 126.702 150.312 126.319 150.44L125.681 150.695Z" fill="#171753"/>
<path d="M145.59 168.179L124.66 156.055C123.384 155.289 122.873 153.885 123.256 152.481L123.384 151.971C123.767 150.95 124.915 150.567 125.809 151.077L146.738 163.201C148.015 163.967 148.525 165.371 148.142 166.775L148.015 167.285C147.759 168.179 146.483 168.689 145.59 168.179Z" fill="#FFE850"/>
<path d="M146.483 168.562C146.1 168.562 145.845 168.434 145.59 168.307L124.66 156.183C123.384 155.417 122.746 153.758 123.256 152.354L123.384 151.844C123.511 151.333 124.022 150.95 124.532 150.695C125.043 150.44 125.681 150.567 126.191 150.823L147.121 162.947C148.398 163.712 149.036 165.371 148.525 166.775L148.398 167.286C148.27 167.796 147.759 168.179 147.249 168.434C146.866 168.562 146.738 168.562 146.483 168.562ZM125.17 150.95C125.043 150.95 124.788 150.95 124.66 151.078C124.277 151.205 123.894 151.588 123.767 151.971L123.639 152.482C123.256 153.758 123.767 155.162 124.915 155.8L145.845 167.924C146.228 168.179 146.738 168.179 147.121 168.051C147.504 167.924 147.887 167.541 148.015 167.158L148.142 166.648C148.525 165.371 148.015 163.968 146.866 163.329L125.936 151.205C125.681 151.078 125.426 150.95 125.17 150.95Z" fill="#171753"/>
<path d="M148.78 167.541C149.291 167.413 149.674 167.031 149.801 166.52C149.929 166.265 149.929 166.01 149.929 165.754L148.27 166.265C148.27 166.393 148.27 166.52 148.142 166.648L148.014 167.158C147.887 167.541 147.504 167.924 147.121 168.052L148.78 167.541Z" fill="#171753"/>
<path d="M147.887 168.051C147.76 168.051 147.76 168.051 147.632 167.924C147.632 167.796 147.632 167.668 147.76 167.668L148.908 167.286C148.908 167.286 149.291 167.158 149.419 166.903C149.419 166.775 149.546 166.775 149.674 166.775C149.802 166.775 149.802 166.903 149.802 167.03C149.546 167.413 149.164 167.541 149.164 167.541L147.887 168.051C148.015 168.051 147.887 168.051 147.887 168.051Z" fill="#FFE850"/>
<path d="M155.417 174.815L153.885 173.921C152.609 173.156 152.098 171.752 152.481 170.348L152.609 169.838C152.992 168.817 154.14 168.434 155.034 168.944L156.565 169.838C157.841 170.603 158.352 172.007 157.969 173.411L157.841 173.921C157.458 174.815 156.31 175.325 155.417 174.815Z" fill="#171753"/>
<path d="M156.182 175.198C155.799 175.198 155.544 175.07 155.289 174.943L153.757 174.049C152.481 173.284 151.843 171.625 152.354 170.221L152.481 169.71C152.609 169.2 153.119 168.817 153.63 168.562C154.14 168.306 154.778 168.434 155.289 168.689L156.82 169.583C158.097 170.348 158.735 172.008 158.224 173.411L158.097 173.922C157.969 174.432 157.458 174.815 156.948 175.07C156.693 175.198 156.438 175.198 156.182 175.198ZM155.544 174.56C155.927 174.815 156.438 174.815 156.82 174.688C157.203 174.56 157.586 174.177 157.714 173.794L157.841 173.284C158.224 172.008 157.714 170.604 156.565 169.966L155.034 169.072C154.651 168.817 154.14 168.817 153.757 168.945C153.375 169.072 152.992 169.455 152.864 169.838L152.736 170.348C152.354 171.625 152.864 173.028 154.013 173.667L155.544 174.56Z" fill="#171753"/>
<path d="M156.565 167.158L155.544 166.52C155.034 166.265 154.523 166.265 154.14 166.393L152.354 167.031C152.737 166.903 153.375 166.903 153.758 167.158L155.289 168.052C156.565 168.817 157.076 170.221 156.693 171.625L156.565 172.136C156.438 172.518 156.055 172.901 155.672 173.029L157.203 172.518C157.714 172.391 158.097 172.008 158.224 171.498C158.735 169.838 158.097 168.052 156.565 167.158Z" fill="#ECFFFE"/>
<path d="M155.672 173.284C155.544 173.284 155.544 173.284 155.544 173.156C155.544 173.029 155.544 172.901 155.672 172.901C156.055 172.773 156.31 172.391 156.438 172.135L156.565 171.625C156.948 170.349 156.438 168.945 155.289 168.307L153.757 167.413C153.375 167.158 152.992 167.158 152.481 167.286C152.354 167.286 152.226 167.286 152.226 167.158C152.226 167.03 152.226 166.903 152.354 166.903L154.14 166.265C154.651 166.01 155.289 166.137 155.799 166.392L156.82 167.03C158.479 167.924 159.118 169.838 158.607 171.625C158.479 172.135 157.969 172.646 157.458 172.773L155.672 173.284ZM153.502 166.775C153.63 166.775 153.757 166.903 153.885 166.903L155.417 167.796C156.693 168.562 157.331 170.221 156.82 171.625L156.693 172.135C156.693 172.263 156.565 172.391 156.565 172.518L157.076 172.263C157.586 172.135 157.841 171.752 157.969 171.37C158.479 169.838 157.841 168.051 156.438 167.286L155.417 166.648C155.034 166.392 154.523 166.392 154.14 166.52L153.502 166.775Z" fill="#171753"/>
<path d="M154.013 173.029L152.481 172.135C151.205 171.37 150.694 169.966 151.077 168.562L151.205 168.052C151.588 167.031 152.736 166.648 153.63 167.158L155.161 168.052C156.437 168.817 156.948 170.221 156.565 171.625L156.437 172.135C156.182 173.156 154.906 173.539 154.013 173.029Z" fill="#FFE850"/>
<path d="M154.906 173.539C154.523 173.539 154.268 173.411 154.013 173.284L152.481 172.391C151.205 171.625 150.567 169.966 151.077 168.562L151.205 168.051C151.333 167.541 151.843 167.158 152.354 166.903C152.864 166.648 153.502 166.775 154.013 167.03L155.544 167.924C156.82 168.689 157.458 170.349 156.948 171.752L156.82 172.263C156.693 172.773 156.182 173.156 155.672 173.411C155.289 173.411 155.161 173.539 154.906 173.539ZM154.14 172.901C154.523 173.156 155.034 173.156 155.417 173.029C155.799 172.901 156.182 172.518 156.31 172.135L156.438 171.625C156.82 170.349 156.31 168.945 155.161 168.307L153.63 167.413C153.247 167.158 152.736 167.158 152.354 167.286C151.971 167.413 151.588 167.796 151.46 168.179L151.333 168.689C150.95 169.966 151.46 171.37 152.609 172.008L154.14 172.901Z" fill="#171753"/>
<path d="M157.203 172.518C157.714 172.39 158.097 172.007 158.224 171.497C158.352 171.242 158.352 170.859 158.352 170.604L156.693 171.242C156.693 171.369 156.693 171.497 156.565 171.624L156.438 172.135C156.31 172.518 155.927 172.901 155.544 173.028L157.203 172.518Z" fill="#171753"/>
<path d="M156.31 173.029C156.182 173.029 156.182 173.029 156.055 172.901C156.055 172.774 156.055 172.646 156.182 172.646L157.331 172.263C157.331 172.263 157.714 172.136 157.841 171.88C157.841 171.753 157.969 171.753 158.097 171.753C158.224 171.753 158.224 171.88 158.224 172.008C157.969 172.391 157.586 172.518 157.586 172.518L156.31 173.029Z" fill="#FFE850"/>
<path d="M117.641 136.146C117.513 136.146 117.513 136.019 117.385 136.019L117.13 135.636C117.003 135.381 116.62 135.381 116.364 135.381C116.237 135.381 115.982 135.381 115.854 135.253L115.471 134.998C115.343 134.87 115.216 134.87 114.961 134.87H114.195C113.94 134.743 113.684 134.487 113.557 134.232C113.429 133.594 113.301 132.956 113.174 132.573C113.046 131.68 112.791 130.531 112.153 130.659C111.387 130.914 111.77 132.573 111.898 133.722C112.025 134.87 111.898 135.764 111.898 135.764C111.515 136.274 111.515 136.912 111.515 136.912L111.387 137.167C111.004 137.167 111.004 137.04 110.621 137.295C110.239 137.55 110.111 138.061 110.111 138.444C110.239 138.826 110.366 139.465 110.494 139.847C110.621 140.23 111.004 140.486 111.26 140.613C111.77 140.868 112.281 141.251 112.663 141.762C112.791 141.889 112.791 142.017 112.791 142.017C113.046 142.4 112.281 143.293 112.281 143.293H117.258C117.258 143.293 117.003 142.4 117.258 140.741C117.513 139.72 117.896 138.444 118.023 137.678C118.406 136.912 118.023 136.402 117.641 136.146Z" fill="#ECFFFE" stroke="#171753" stroke-width="0.56818"/>
<path d="M68.8893 225.226C68.8893 225.226 68.3788 227.779 67.6131 229.183C66.975 230.586 66.0816 232.756 66.0816 232.756L73.9941 232.118L72.7179 229.693C72.2074 228.927 72.2074 227.906 72.4627 227.013C72.7179 226.375 72.8455 225.864 73.1008 225.354C73.8665 223.95 69.655 224.205 69.655 224.205L68.8893 225.226Z" fill="#ECFFFE" stroke="#171753" stroke-width="0.56818"/>
<path d="M96.5809 224.581L96.5846 224.589L96.5889 224.597C96.9619 225.28 97.4981 226.572 97.946 227.707C98.1686 228.272 98.3675 228.793 98.5107 229.173C98.5593 229.302 98.6015 229.415 98.636 229.507C98.6211 229.512 98.6056 229.516 98.5896 229.521C98.3758 229.583 98.0705 229.67 97.7057 229.768C96.9754 229.964 96.0096 230.206 95.0619 230.387C94.1074 230.57 93.1964 230.687 92.5648 230.648C92.2419 230.628 92.0408 230.569 91.9399 230.498C91.8962 230.468 91.8806 230.442 91.8736 230.421C91.8661 230.399 91.8592 230.356 91.8803 230.277C92.1382 229.31 92.4269 227.93 92.6503 226.797C92.7622 226.229 92.8581 225.722 92.9261 225.356C92.96 225.173 92.987 225.026 93.0055 224.924L93.0122 224.887C93.022 224.881 93.0326 224.874 93.0438 224.867C93.1292 224.814 93.2531 224.739 93.4046 224.655C93.7091 224.487 94.1191 224.284 94.5512 224.14C94.9883 223.994 95.4203 223.918 95.7798 223.974C96.1204 224.026 96.4015 224.196 96.5809 224.581Z" fill="#ECFFFE" stroke="#171753" stroke-width="0.56818"/>
<path d="M87.2666 181.069C87.2666 181.069 86.2456 182.346 87.7771 184.515C87.7771 184.515 89.0533 189.748 90.5848 194.725C92.2438 199.702 92.1162 202.637 92.1162 205.573C91.9886 208.508 91.3505 210.55 91.9886 216.421C92.6267 222.291 92.3715 225.226 92.3715 225.226C92.3715 225.226 95.0515 227.013 97.2211 225.099C97.2211 225.099 97.9868 220.504 99.0078 216.676C100.029 212.847 99.5183 208.508 99.5183 205.956C99.5183 202.893 100.029 198.809 101.177 194.597C102.326 190.386 102.709 182.984 101.05 178.006C99.263 173.029 87.2666 181.069 87.2666 181.069Z" fill="#171753"/>
<path d="M76.8017 176.347C76.8017 176.347 75.1426 177.751 74.3769 191.024C73.9941 198.426 74.1217 201.488 72.7178 205.317C71.1864 209.146 70.0378 211.571 69.5273 214.889C69.1444 218.207 68.634 222.418 68.1235 224.843C68.1235 224.843 70.5483 227.268 73.1007 225.609C73.1007 225.609 74.7598 221.78 76.4189 218.462C78.0779 215.272 78.7161 209.784 79.737 206.338C80.758 202.892 83.6933 196.511 85.3524 191.662C87.0114 186.684 88.0324 185.663 88.2877 181.197C88.5429 176.73 86.2457 170.349 86.2457 170.349L76.8017 176.347Z" fill="#171753"/>
<path d="M82.0342 169.456C81.9065 169.073 81.0132 167.031 80.7579 166.648C80.5027 166.265 80.1198 165.244 80.1198 165.244L77.0569 162.437L75.7807 166.776L76.9293 167.797C76.9293 167.797 77.1845 170.222 76.4188 171.498C75.6531 172.774 80.6303 173.029 80.6303 173.029C80.6303 173.029 82.1618 169.839 82.0342 169.456Z" fill="#ECFFFE" stroke="#171753" stroke-width="0.56818"/>
<path d="M71.2737 156.337L71.2739 156.337L71.2756 156.336L71.2831 156.33L71.314 156.307C71.3416 156.286 71.383 156.254 71.4369 156.212C71.5447 156.128 71.7027 156.002 71.9015 155.836C72.2991 155.503 72.8595 155.01 73.5073 154.37C74.7953 153.098 76.4245 151.25 77.8069 148.936L79.786 137.433C79.7509 137.432 79.7131 137.431 79.673 137.43C79.4079 137.424 79.0403 137.428 78.6311 137.467C77.8022 137.545 76.8555 137.761 76.2212 138.277C76.0827 138.403 75.8746 138.644 75.6062 138.993C75.3381 139.342 75.0201 139.784 74.6666 140.296C73.9599 141.321 73.1168 142.617 72.2565 143.987C70.535 146.729 68.7532 149.752 67.8652 151.464L67.8615 151.472L67.8614 151.472C67.7684 151.639 67.6763 151.804 67.5851 151.968C66.7323 153.499 65.9696 154.869 65.5162 156.016C65.2657 156.651 65.1188 157.195 65.0971 157.647C65.0756 158.092 65.1763 158.425 65.3994 158.673L65.4005 158.675C65.4443 158.724 65.4881 158.773 65.5324 158.823C66.0059 159.358 66.5256 159.945 67.4147 160.705C68.3887 161.538 69.8106 162.582 72.0978 163.98C73.4357 164.76 74.0297 165.46 74.7168 166.268C74.8382 166.411 74.9626 166.558 75.0945 166.709C75.2233 166.834 75.3548 166.863 75.4664 166.846C75.5868 166.828 75.7115 166.751 75.7997 166.618C76.3011 165.866 76.9333 164.729 77.441 163.714C77.4756 163.644 77.5096 163.577 77.5428 163.511C77.8699 162.865 78.1224 162.366 78.0666 161.712L77.2466 161.199C77.2071 161.213 77.1727 161.244 77.1339 161.302C77.0635 161.408 77.0109 161.559 76.9436 161.761L76.8295 162.103L76.5236 161.912L76.6741 161.671C76.5236 161.912 76.5235 161.912 76.5234 161.912L76.5233 161.912L76.5229 161.911L76.5218 161.911L76.5185 161.909L76.5076 161.902C76.4984 161.896 76.4853 161.887 76.4686 161.876C76.4352 161.853 76.387 161.82 76.3253 161.775C76.2021 161.685 76.0249 161.549 75.8039 161.361C75.362 160.984 74.7448 160.399 74.0325 159.557C73.3394 158.738 72.6455 158.044 72.1245 157.555C71.8643 157.31 71.6476 157.117 71.4965 156.986C71.4209 156.92 71.3617 156.87 71.3217 156.836L71.2763 156.798L71.2651 156.789L71.2624 156.787L71.2618 156.786L71.2618 156.786L71.2737 156.337ZM71.2737 156.337L71.2736 156.337L71.2736 156.337L71.2737 156.337Z" fill="#FFE850" stroke="#171753" stroke-width="0.56818"/>
<path d="M80.6375 156.712L80.6381 156.714C81.6635 159.213 81.8949 160.612 81.3418 162.029C81.0719 162.721 80.6213 163.401 80.0297 164.204C79.8049 164.51 79.5612 164.831 79.2972 165.179C78.856 165.761 78.3583 166.417 77.7984 167.197L77.7963 167.2L77.7963 167.2C76.9164 168.394 75.84 170.292 74.9785 171.903C74.5491 172.706 74.1752 173.434 73.9087 173.961C73.7755 174.225 73.6691 174.438 73.5961 174.585C73.591 174.595 73.5861 174.605 73.5813 174.615C73.68 174.697 73.8224 174.812 74.0065 174.954C74.398 175.257 74.978 175.683 75.7288 176.173C77.2284 177.152 79.4068 178.384 82.1214 179.395L83.5129 179.774L83.5327 179.78L80.6375 156.712ZM80.6375 156.712C79.6845 154.425 78.9216 152.2 78.3967 150.546C78.1344 149.719 77.9317 149.036 77.7948 148.559C77.7263 148.321 77.6742 148.135 77.6393 148.008C77.6287 147.969 77.6196 147.936 77.6122 147.909L81.0723 139.753L93.9455 140.003L97.9582 142.556V148.271V148.342L97.9914 148.404L97.9915 148.404L97.9918 148.405L97.9934 148.408L97.9999 148.42L98.0257 148.47C98.0483 148.513 98.0817 148.578 98.1241 148.663C98.2087 148.831 98.3292 149.076 98.4715 149.38C98.7562 149.989 99.1277 150.835 99.4751 151.782C99.8228 152.731 100.144 153.776 100.332 154.784C100.52 155.795 100.569 156.746 100.391 157.521C100.309 157.848 100.219 158.184 100.128 158.524C99.9403 159.224 99.7472 159.946 99.6066 160.659C99.396 161.728 99.2936 162.821 99.4945 163.893L99.4945 163.893L99.4951 163.896C99.8753 165.797 100.137 166.349 100.691 167.519C100.704 167.545 100.717 167.572 100.729 167.599C101.294 168.791 102.172 170.671 103.797 175.284C101.073 179.152 97.2592 180.026 91.5808 180.531L91.5784 180.531C88.9903 180.784 86.975 180.594 85.6113 180.343C84.9293 180.218 84.41 180.077 84.0634 179.969C83.8901 179.915 83.7599 179.868 83.6742 179.836C83.6313 179.82 83.5995 179.808 83.579 179.799L83.5567 179.79L83.552 179.788L83.5514 179.788L83.5513 179.788L83.5512 179.788L80.6375 156.712Z" fill="#FFE850" stroke="#171753" stroke-width="0.56818"/>
<path d="M78.2061 228.417C76.0366 226.758 73.9946 227.523 73.4841 227.651L74.6327 228.289C73.9946 228.034 73.4841 227.651 72.9736 227.141L72.4632 226.63L72.2079 227.651C72.0803 228.034 72.0803 228.544 72.2079 228.927C72.2079 229.182 72.3355 229.438 72.4632 229.948C72.7184 231.097 71.9527 231.48 71.5698 230.714C71.187 229.948 70.5488 229.055 70.0384 229.31C69.5279 229.565 68.7621 230.076 68.124 229.821C67.2307 229.438 67.7412 228.8 67.7412 228.8L68.2517 227.523C67.3583 227.523 66.9754 228.034 66.7202 228.8C66.465 229.693 66.0821 230.586 66.0821 232.628C66.0821 233.394 66.2097 233.777 66.3373 234.16C66.465 234.415 66.5926 234.543 66.7202 234.67C67.6135 235.181 68.124 235.436 68.7621 235.564C69.2726 235.691 69.7831 235.564 70.166 235.436C71.9527 234.67 77.1852 232.245 77.9509 231.607C77.9509 231.607 78.7166 231.224 78.8442 230.714C78.9719 230.203 78.9719 228.927 78.2061 228.417Z" fill="#FFE850"/>
<path d="M69.1448 235.819C69.0171 235.819 68.7619 235.819 68.6343 235.819C67.9962 235.691 67.3581 235.436 66.5923 234.925C66.3371 234.798 66.2095 234.543 66.0818 234.287C65.9542 234.032 65.8266 233.522 65.8266 232.756C65.8266 230.842 66.2095 229.821 66.4647 228.927V228.8C66.7199 227.906 67.1028 227.396 68.1238 227.396C68.1238 227.396 68.2514 227.396 68.2514 227.523C68.2514 227.523 68.2514 227.651 68.2514 227.779L67.7409 229.055C67.7409 229.055 67.6133 229.31 67.6133 229.565C67.6133 229.693 67.7409 229.821 67.9962 229.948C68.5066 230.076 69.0171 229.821 69.5276 229.565C69.6552 229.565 69.6552 229.438 69.7829 229.438C69.9105 229.31 70.1657 229.31 70.2933 229.438C70.9315 229.693 71.4419 230.586 71.5696 230.969C71.6972 231.097 71.8248 231.224 71.8248 231.224C71.9524 231.224 72.08 230.842 71.9524 230.331C71.9524 229.948 71.8248 229.693 71.6972 229.31C71.5696 228.8 71.5696 228.417 71.6972 227.906L71.9524 226.885C71.9524 226.758 72.08 226.758 72.08 226.758C72.2077 226.758 72.2077 226.758 72.3353 226.758L72.8458 227.268C72.9734 227.396 73.101 227.523 73.2286 227.651C73.9944 227.396 75.9087 226.758 78.0783 228.544C78.9716 229.182 78.9716 230.586 78.844 231.097C78.7164 231.607 77.9506 231.99 77.823 232.118C77.0573 232.756 72.08 234.925 70.0381 235.946C69.7829 235.691 69.5276 235.819 69.1448 235.819ZM67.8685 227.779C67.2304 227.906 67.1028 228.289 66.8476 228.927V229.055C66.5923 229.948 66.2095 230.842 66.2095 232.756C66.2095 233.394 66.3371 233.904 66.4647 234.16C66.4647 234.287 66.5923 234.543 66.8476 234.543C67.6133 235.053 68.1238 235.308 68.7619 235.436C69.2724 235.564 69.6552 235.436 70.0381 235.308C73.3563 233.777 77.1849 231.99 77.6954 231.607C77.9506 231.48 78.4611 231.224 78.4611 230.842C78.5887 230.459 78.5887 229.182 77.9506 228.672C76.1639 227.268 74.6325 227.523 73.8667 227.779L74.6325 228.289C74.7601 228.289 74.7601 228.417 74.7601 228.544C74.7601 228.672 74.6325 228.672 74.5048 228.672C73.8667 228.417 73.2286 228.034 72.7182 227.396L72.4629 227.141L72.3353 227.779C72.2077 228.162 72.2077 228.544 72.3353 228.927C72.4629 229.182 72.4629 229.565 72.5905 229.948C72.7182 230.714 72.4629 231.224 72.08 231.352C71.8248 231.48 71.5696 231.352 71.3143 230.842C70.9315 230.203 70.5486 229.693 70.2933 229.565C70.1657 229.565 70.1657 229.565 70.1657 229.565C70.0381 229.565 70.0381 229.693 69.9105 229.693C69.4 229.948 68.7619 230.331 67.9962 230.076C67.7409 229.948 67.4857 229.693 67.3581 229.438C67.2304 229.055 67.4857 228.672 67.4857 228.672L67.8685 227.779Z" fill="#171753"/>
<path d="M78.8437 230.714C78.9714 230.331 78.9714 229.438 78.5885 228.8C78.7161 229.31 78.078 230.076 76.8018 230.842C75.5256 231.48 70.676 233.649 69.655 234.16C69.5274 234.16 69.3998 234.288 69.2721 234.288C67.7407 234.288 66.3368 233.011 66.2092 233.011C66.2092 233.522 66.3369 234.032 66.4645 234.288C66.5921 234.543 66.7197 234.67 66.8473 234.798C67.7407 235.308 68.2512 235.564 68.8893 235.691C69.3998 235.819 69.9102 235.691 70.2931 235.564C72.0798 234.798 77.3123 232.373 78.078 231.735C77.8228 231.607 78.5885 231.225 78.8437 230.714Z" fill="#171753"/>
<path d="M97.0934 151.844C97.0934 151.844 98.4973 152.737 100.922 153.248C103.347 153.758 112.918 154.907 114.578 154.907C116.237 154.907 117.513 151.844 117.513 149.291C117.513 148.015 117.513 146.739 117.513 145.463C117.513 144.059 118.151 142.91 118.151 142.4C118.151 141.379 117.513 141.124 115.599 140.868C113.812 140.613 111.515 141.634 111.515 142.017C111.515 142.527 111.77 143.293 111.77 143.293L112.28 143.038C111.77 144.952 111.132 147.505 111.132 147.505C111.132 147.505 106.665 146.484 103.985 145.59C101.177 144.697 97.3487 141.251 97.3487 141.251L93.6476 139.847L88.4152 141.889L97.0934 151.844Z" fill="#FFE850" stroke="#171753" stroke-width="0.56818"/>
<path d="M98.9983 146.694L99.7086 153.512L81.6689 151.382L78.1177 148.257L77.1234 149.393L78.6859 138.882L82.3791 141.438L84.7938 145.7C85.4567 144.99 87.0898 143.711 88.345 143.711C89.1972 143.711 90.5703 143.285 90.9018 143.001L98.9983 146.694Z" fill="#FFE850"/>
<path d="M101.688 225.736C101.561 224.971 100.922 224.205 100.157 224.077C97.8595 223.312 97.4766 223.95 97.4766 223.95L97.2214 225.226C97.2214 225.226 97.2214 226.885 97.349 227.523C97.4766 228.416 97.6042 229.82 97.2214 229.437C96.9661 229.182 96.8385 228.544 96.8385 228.034C96.7109 227.268 95.8175 227.651 95.6899 228.544C95.6899 229.437 94.7966 229.437 93.9032 229.437C92.2441 229.31 92.2441 228.289 92.2441 228.289L92.4994 226.757C91.606 226.63 91.0956 228.161 90.8403 230.203C90.4574 233.138 90.9679 234.798 91.3508 235.436C91.8613 236.201 93.9032 236.457 95.0518 236.329C95.6899 236.329 96.328 235.946 96.7109 235.436C97.2214 234.67 98.7528 232.628 99.1357 231.735C99.6462 230.841 100.54 229.31 101.05 228.289C101.433 227.651 101.688 226.757 101.561 225.992C101.688 225.864 101.688 225.736 101.688 225.736Z" fill="#FFE850"/>
<path d="M94.6689 236.329C93.5203 236.329 91.7336 236.074 91.2231 235.308C90.9679 234.925 90.2021 233.394 90.585 229.948C90.8402 227.396 91.4783 226.247 92.3717 226.375C92.3717 226.375 92.4993 226.375 92.4993 226.502V226.63L92.2441 228.162C92.2441 228.162 92.3717 228.927 93.7755 229.055C94.286 229.055 94.9241 229.183 95.1794 228.927C95.307 228.8 95.4346 228.672 95.4346 228.417C95.4346 227.779 95.9451 227.396 96.328 227.396C96.7108 227.396 96.8384 227.651 96.9661 227.906C96.9661 228.034 96.9661 228.162 96.9661 228.162C96.9661 228.417 97.0937 228.8 97.2213 228.927C97.2213 228.672 97.2213 228.034 97.0937 227.396C96.9661 226.758 96.9661 225.099 96.9661 225.099L97.2213 223.822C97.3489 223.695 97.8594 223.057 100.157 223.822C100.922 224.078 101.688 224.716 101.816 225.609C101.816 225.737 101.816 225.737 101.816 225.864C101.943 226.63 101.688 227.523 101.178 228.289C100.667 229.183 99.7737 230.714 99.2632 231.735C98.7528 232.628 97.3489 234.798 96.7108 235.436C96.3279 235.946 95.5622 236.329 94.9241 236.329C94.9241 236.329 94.7965 236.329 94.6689 236.329ZM92.2441 226.885C91.7336 227.013 91.3507 228.162 91.0955 230.076C90.7126 233.522 91.4783 234.925 91.606 235.181C91.9888 235.819 93.9031 236.074 95.0517 236.074C95.5622 236.074 96.2003 235.691 96.5832 235.308C97.2213 234.543 98.6251 232.501 99.008 231.607C99.5185 230.714 100.412 229.055 100.922 228.162C101.305 227.523 101.56 226.758 101.433 225.992C101.433 225.864 101.433 225.864 101.433 225.737C101.305 224.971 100.667 224.461 100.029 224.205C98.2423 223.567 97.7318 223.95 97.6042 223.95L97.3489 225.099C97.3489 225.099 97.3489 226.63 97.4765 227.268C97.6042 228.034 97.7318 229.31 97.3489 229.438C97.2213 229.438 97.0937 229.565 96.9661 229.31C96.7108 229.055 96.5832 228.544 96.5832 228.162C96.5832 228.034 96.5832 227.906 96.5832 227.906C96.5832 227.651 96.4556 227.651 96.4556 227.651C96.2003 227.651 95.9451 227.906 95.9451 228.289C95.9451 228.672 95.8175 228.927 95.5622 229.055C95.1794 229.438 94.5413 229.438 93.9031 229.31C92.1164 229.183 91.9888 228.034 91.9888 228.034L92.2441 226.885Z" fill="#171753"/>
<path d="M101.178 228.162C101.56 227.524 101.816 226.631 101.688 225.865C101.688 225.737 101.688 225.737 101.688 225.61C101.56 225.227 101.433 224.716 101.178 224.461C101.56 225.227 101.05 226.375 101.05 226.375C101.05 226.375 98.8804 229.949 97.6042 231.991C96.8384 233.139 96.3279 233.777 96.0727 234.033C95.9451 234.288 95.6898 234.415 95.4346 234.415C93.7755 234.798 91.0955 233.905 91.0955 233.905C91.2231 234.543 91.3507 234.926 91.6059 235.181C92.1164 235.947 94.1584 236.202 95.307 236.074C95.9451 236.074 96.5832 235.692 96.9661 235.181C97.4765 234.415 99.008 232.373 99.3909 231.48C99.7737 230.714 100.667 229.183 101.178 228.162Z" fill="#171753"/>
<path d="M93.4566 133.955L93.3519 133.979L93.2894 134.067L93.5205 134.232C93.2894 134.067 93.2893 134.067 93.2892 134.067L93.289 134.067L93.2885 134.068L93.2871 134.07L93.2831 134.076L93.27 134.095C93.2591 134.112 93.244 134.135 93.2255 134.165C93.1885 134.225 93.1379 134.311 93.0804 134.423C92.9655 134.647 92.8225 134.971 92.705 135.382C92.4695 136.206 92.3372 137.378 92.7369 138.777L92.7366 138.777L92.7405 138.789C92.9632 139.456 93.0966 139.897 93.1722 140.181C93.1763 140.197 93.1802 140.212 93.184 140.227L92.9443 140.258C92.6827 140.293 92.3089 140.342 91.8604 140.401C90.9633 140.519 89.7673 140.674 88.5714 140.826C87.3752 140.977 86.1803 141.125 85.2849 141.226C84.8367 141.277 84.4659 141.316 84.2081 141.338C84.1204 141.346 84.0478 141.351 83.9907 141.355C83.817 141.053 83.428 140.406 83.0594 139.796C82.828 139.413 82.6005 139.038 82.431 138.759L82.3131 138.565C82.3858 138.525 82.4693 138.476 82.561 138.417C82.8833 138.21 83.3087 137.877 83.7362 137.365C84.5945 136.339 85.444 134.616 85.5092 131.814L85.5105 131.754L85.4879 131.699L85.4879 131.699L85.4879 131.699L85.4876 131.698L85.4862 131.695L85.4805 131.681C85.4753 131.668 85.4675 131.648 85.4574 131.622C85.4372 131.571 85.4076 131.494 85.3707 131.394C85.297 131.195 85.1942 130.905 85.079 130.544C84.8484 129.823 84.5689 128.823 84.3723 127.706C83.9755 125.452 83.9322 122.81 85.2026 120.995L85.2026 120.995L85.204 120.993C86.5453 119.042 89.1941 117.828 91.7709 117.782C94.3328 117.735 96.7444 118.839 97.715 121.425C97.7176 121.436 97.7215 121.453 97.7265 121.476C97.7366 121.521 97.7512 121.589 97.769 121.678C97.8045 121.856 97.8526 122.118 97.9016 122.451C97.9999 123.116 98.1022 124.065 98.118 125.191C98.1491 127.417 97.8415 130.321 96.5079 133.106C96.4682 133.119 96.4185 133.135 96.3598 133.154C96.1918 133.207 95.9502 133.282 95.657 133.369C95.0701 133.544 94.2785 133.766 93.4566 133.955Z" fill="#ECFFFE" stroke="#171753" stroke-width="0.56818"/>
<path d="M95.3072 128.234C95.3072 128.234 95.0519 127.213 94.1586 127.724C93.3928 128.107 93.2652 129.766 93.5205 130.531C93.7757 131.297 94.2862 131.297 94.5414 130.914L95.3072 128.234Z" fill="#ECFFFE"/>
<path d="M81.5243 135.508C81.5243 135.508 83.8215 139.337 86.5015 139.72C90.9683 140.23 93.2654 138.444 93.2654 138.444C93.2654 138.444 94.0312 137.933 95.9455 139.72C97.2217 140.996 97.2217 141.251 97.2217 141.251C97.2217 141.251 96.456 140.741 95.0521 140.996C94.2864 141.124 92.3721 142.4 91.3511 142.783C87.9053 144.187 83.9491 143.421 82.1624 140.741C80.2481 137.933 81.5243 135.508 81.5243 135.508Z" fill="#FFE850"/>
<path d="M87.7774 143.676C85.3526 143.676 83.183 142.656 81.9068 140.741C79.9925 137.934 81.3963 135.381 81.3963 135.253C81.3963 135.126 81.524 135.126 81.524 135.126C81.524 135.126 81.6516 135.126 81.6516 135.253C81.6516 135.253 83.9488 139.082 86.5012 139.337C90.8403 139.848 93.1375 138.061 93.1375 138.061C93.2651 137.934 94.1585 137.551 96.0728 139.337C97.2214 140.486 97.4766 140.869 97.349 141.124C97.349 141.252 97.349 141.252 97.2214 141.252C97.0938 141.252 97.0938 141.252 96.9662 141.252C96.9662 141.252 96.328 140.869 94.9242 140.996C94.5413 140.996 93.648 141.507 92.8823 141.89C92.2442 142.273 91.6061 142.528 91.2232 142.783C90.0746 143.549 88.926 143.676 87.7774 143.676Z" fill="#171753"/>
<path d="M85.0499 118.09L85.0624 118.077L85.0728 118.062L85.0729 118.062L85.073 118.062L85.073 118.062L85.0731 118.062L85.0747 118.06L85.0836 118.048C85.0921 118.037 85.1054 118.019 85.1238 117.996C85.1604 117.951 85.2169 117.883 85.2933 117.799C85.4464 117.631 85.6791 117.398 85.9932 117.145C86.6212 116.64 87.5724 116.056 88.8626 115.749C91.6239 115.122 95.0405 115.393 96.9848 118.31L96.9847 118.31L96.9909 118.318C97.7983 119.436 98.4187 120.835 98.6654 122.084C98.7887 122.708 98.8161 123.282 98.7358 123.758C98.6849 124.06 98.5925 124.315 98.4596 124.52C98.3928 124.366 98.3087 124.181 98.2107 123.979C97.9531 123.447 97.5893 122.782 97.1817 122.306L96.7525 121.806L96.6835 122.461L96.6835 122.461L96.6834 122.462L96.6833 122.463L96.6828 122.467L96.6807 122.487C96.6787 122.504 96.6757 122.53 96.6715 122.564C96.6633 122.631 96.6506 122.729 96.6329 122.852C96.5976 123.097 96.5427 123.438 96.4643 123.822C96.3064 124.596 96.0586 125.516 95.6983 126.179C95.3033 126.838 95.1311 127.346 95.0602 127.7C95.0484 127.759 95.0395 127.813 95.0328 127.864C94.9053 127.84 94.7501 127.822 94.5731 127.822C94.0695 127.822 93.4011 127.968 92.7096 128.519C92.311 128.811 92.0249 129.227 91.7874 129.661C91.6443 129.923 91.507 130.215 91.3735 130.499C91.2905 130.676 91.2089 130.85 91.1284 131.011C90.686 131.895 90.2034 132.565 89.2755 132.674L89.2755 132.674L89.2655 132.675C89.2454 132.678 89.2253 132.682 89.2051 132.685C88.3823 132.811 87.5017 132.947 86.6124 132.743C85.7204 132.538 84.7911 131.983 83.933 130.634L83.933 130.634L83.9313 130.631C83.0137 129.224 82.4475 126.989 82.5415 124.64C82.6353 122.295 83.3852 119.878 85.0499 118.09Z" fill="#FFE850" stroke="#171753" stroke-width="0.56818"/>
<path d="M82.8355 119.2L82.8458 119.199L82.856 119.197C83.3896 119.09 83.9341 119.305 84.2585 119.629C84.7801 120.151 85.0171 120.794 85.122 121.319C85.1742 121.58 85.1928 121.807 85.1984 121.969C85.2001 122.019 85.2006 122.062 85.2004 122.098C85.1951 122.103 85.1897 122.108 85.1841 122.113C85.1086 122.181 85.0067 122.282 84.8925 122.42C84.6638 122.697 84.387 123.12 84.1754 123.721C83.751 124.927 83.6002 126.813 84.574 129.604C85.5239 132.327 85.735 134.072 85.628 135.325C85.5322 136.447 85.1825 137.192 84.8315 137.941C84.7915 138.026 84.7515 138.111 84.7119 138.197L84.7118 138.197L84.7096 138.203C84.2898 139.162 83.3428 140.148 82.4699 140.91C82.0523 141.275 81.6599 141.581 81.3662 141.799L81.4235 141.283L80.9048 141.094C80.2953 142.008 79.3713 142.782 78.5854 143.332C78.3875 143.471 78.1996 143.594 78.0294 143.701C78.0675 143.619 78.107 143.532 78.1474 143.439C78.474 142.688 78.8637 141.582 79.1233 140.155C79.378 138.818 79.6092 137.538 79.4941 136.124C79.3784 134.703 78.9157 133.163 77.8135 131.282C76.6303 129.227 76.1972 126.989 76.383 125.039C76.5692 123.084 77.3725 121.449 78.6263 120.553C80.1238 119.483 81.4191 119.349 82.417 119.246C82.563 119.231 82.7026 119.216 82.8355 119.2Z" fill="#FFE850" stroke="#171753" stroke-width="0.56818"/>
<path d="M100.029 171.115C99.7736 167.541 99.2631 167.797 99.2631 167.797C94.4135 170.732 91.6058 170.987 91.6058 170.987L100.029 171.115Z" fill="#FFE850"/>
<path d="M86.3731 123.895C86.1178 123.895 85.8626 123.895 85.8626 123.895C85.735 123.895 85.735 123.767 85.735 123.639C85.735 123.512 85.8626 123.512 85.9902 123.512C85.9902 123.512 87.0112 123.767 87.7769 123.129C87.9045 123.001 88.0322 123.129 88.0322 123.129C88.1598 123.256 88.0322 123.384 88.0322 123.384C87.5217 123.767 86.8836 123.895 86.3731 123.895Z" fill="#FFE850"/>
<path d="M117.385 137.04C117.258 137.04 117.13 136.913 117.13 136.785C117.258 136.402 117.13 136.019 117.13 136.019C117.13 135.892 117.13 135.764 117.258 135.764C117.385 135.764 117.513 135.764 117.513 135.764C117.513 135.764 117.768 136.275 117.513 136.913C117.64 137.04 117.513 137.04 117.385 137.04Z" fill="#171753"/>
<path d="M115.726 135.763C115.599 135.763 115.726 135.763 115.726 135.763C115.599 135.763 115.471 135.636 115.471 135.508C115.471 135.253 115.343 134.87 115.343 134.87C115.343 134.742 115.343 134.615 115.471 134.615C115.599 134.615 115.726 134.615 115.726 134.742C115.726 134.742 115.854 135.125 115.854 135.508C115.854 135.636 115.726 135.763 115.726 135.763Z" fill="#171753"/>
</svg>
