<svg width="38" height="37" viewBox="0 0 38 37" fill="none" xmlns="http://www.w3.org/2000/svg">
<path fill-rule="evenodd" clip-rule="evenodd" d="M25.6087 28.6572L23.9984 26.7402C27.1423 25.8967 28.3692 23.7497 28.3692 23.7497C24.3818 27.507 13.493 27.6604 9.27558 23.7497C9.27558 23.7497 10.3491 25.7434 13.5697 26.7402L11.8061 28.6572C6.43837 28.5806 4.36798 24.9766 4.36798 24.9766C4.36798 17.0017 7.89532 10.6372 7.89532 10.6372C11.4993 8.10669 14.7966 8.10669 14.7966 8.10669L15.0267 8.41341C10.5792 9.64031 8.66213 11.634 8.66213 11.634C13.8765 8.10669 24.6118 8.41341 28.8293 11.634C28.906 11.5573 26.2988 9.48695 22.2347 8.41341L22.6181 8.10669C22.6181 8.10669 25.9154 8.10669 29.5194 10.6372C29.5194 10.6372 33.0468 17.0017 33.0468 24.9766C33.0468 24.9766 30.9764 28.5806 25.6087 28.6572ZM14.107 22.6762C15.5045 22.6762 16.6374 21.4746 16.6374 19.9924C16.6374 18.5102 15.5045 17.3086 14.107 17.3086C12.7094 17.3086 11.5765 18.5102 11.5765 19.9924C11.5765 21.4746 12.7094 22.6762 14.107 22.6762ZM25.5326 19.9924C25.5326 21.4746 24.3996 22.6762 23.0021 22.6762C21.6045 22.6762 20.4716 21.4746 20.4716 19.9924C20.4716 18.5102 21.6045 17.3086 23.0021 17.3086C24.3996 17.3086 25.5326 18.5102 25.5326 19.9924Z" fill="white"/>
</svg>
