<svg width="38" height="37" viewBox="0 0 38 37" fill="none" xmlns="http://www.w3.org/2000/svg">
<path d="M13.9359 31.333C13.0074 31.333 13.1399 32.4265 13.1399 32.4265H25.2111C25.2111 32.4265 25.268 31.957 25.0464 31.6333C24.9292 31.463 24.7351 31.333 24.4151 31.333C23.5529 31.333 23.3541 30.9471 23.3541 30.5612L23.4203 26.0592C23.4203 24.5154 22.8894 23.4863 22.226 22.9718C26.0071 22.5858 29.9861 21.1707 29.9861 14.867C29.9861 13.0666 29.3227 11.5872 28.2617 10.4294C28.4604 10.0435 28.9913 8.37109 28.0629 6.11978C28.0629 6.11978 27.702 6.00336 26.9195 6.16802C26.1643 6.32755 25.0162 6.74951 23.4203 7.79217C20.6348 7.02031 17.7162 7.02031 14.9306 7.79217C11.6813 5.66953 10.2882 6.11978 10.2882 6.11978C9.35968 8.37109 9.89054 10.0435 10.0893 10.4294C9.02831 11.5872 8.36491 13.0666 8.36491 14.867C8.36491 21.1707 12.2777 22.5858 16.058 22.9718C15.5941 23.422 15.1295 24.1296 14.9969 25.2229C14.0022 25.6089 11.548 26.3158 10.0893 23.8079C10.0893 23.8079 9.16086 22.2641 7.43642 22.1355C7.43642 22.1355 5.77824 22.1355 7.37015 23.1646C7.37015 23.1646 7.72627 23.3158 8.18081 23.8181C8.51085 24.1829 8.89242 24.7329 9.22713 25.5446C9.22713 25.5446 10.2219 28.3741 14.9306 27.345L14.9969 30.5612C14.9969 30.9471 14.7981 31.333 13.9359 31.333Z" fill="white"/>
</svg>
