<svg width="36" height="36" viewBox="0 0 36 36" fill="none" xmlns="http://www.w3.org/2000/svg">
<g clip-path="url(#clip0_94_1260)">
<path d="M11.3515 8.66785C11.3512 9.37506 11.0689 10.0532 10.5669 10.553C10.0648 11.0528 9.38408 11.3334 8.67442 11.333C7.96477 11.3327 7.28432 11.0514 6.78277 10.5511C6.28121 10.0508 5.99965 9.37239 6 8.66519C6.00036 7.95798 6.28261 7.27988 6.78466 6.78006C7.28671 6.28024 7.96744 5.99965 8.6771 6C9.38675 6.00035 10.0672 6.28163 10.5688 6.78195C11.0703 7.28227 11.3519 7.96065 11.3515 8.66785ZM11.4318 13.3076H6.08027V30H11.4318V13.3076ZM19.8872 13.3076H14.5624V30H19.8337V21.2405C19.8337 16.3608 26.2154 15.9075 26.2154 21.2405V30H31.5V19.4273C31.5 11.201 22.0546 11.5077 19.8337 15.5475L19.8872 13.3076Z" fill="white"/>
</g>
<defs>
<clipPath id="clip0_94_1260">
<rect width="36" height="36" fill="white"/>
</clipPath>
</defs>
</svg>
