<svg width="36" height="36" viewBox="0 0 36 36" fill="none" xmlns="http://www.w3.org/2000/svg">
<g clip-path="url(#clip0_94_1263)">
<path d="M33.243 8.48389C32.0978 8.99043 30.8834 9.3231 29.64 9.47089C30.9506 8.68704 31.9315 7.45341 32.4 5.99989C31.17 6.73189 29.8215 7.24489 28.416 7.52239C27.4719 6.51226 26.2205 5.84233 24.8564 5.61677C23.4923 5.3912 22.0919 5.62263 20.8729 6.27507C19.6539 6.92751 18.6846 7.96442 18.1157 9.22458C17.5468 10.4847 17.4101 11.8976 17.727 13.2434C15.2326 13.1184 12.7925 12.4702 10.5649 11.3409C8.33735 10.2116 6.37218 8.62646 4.79699 6.68839C4.23942 7.64607 3.94642 8.73473 3.94799 9.84289C3.94799 12.0179 5.05499 13.9394 6.73799 15.0644C5.742 15.033 4.76794 14.7641 3.89699 14.2799V14.3579C3.89729 15.8064 4.39854 17.2103 5.31576 18.3315C6.23298 19.4526 7.50971 20.2221 8.92949 20.5094C8.00491 20.7599 7.03545 20.7969 6.09449 20.6174C6.49479 21.8642 7.275 22.9547 8.32588 23.7361C9.37675 24.5174 10.6457 24.9506 11.955 24.9749C10.6537 25.9969 9.16375 26.7524 7.57031 27.1981C5.97686 27.6439 4.31118 27.7713 2.66849 27.5729C5.53603 29.417 8.87413 30.3961 12.2835 30.3929C23.823 30.3929 30.1335 20.8334 30.1335 12.5429C30.1335 12.2729 30.126 11.9999 30.114 11.7329C31.3423 10.8451 32.4024 9.74542 33.2445 8.48539L33.243 8.48389Z" fill="white"/>
</g>
<defs>
<clipPath id="clip0_94_1263">
<rect width="36" height="36" fill="white"/>
</clipPath>
</defs>
</svg>
