<svg width="40" height="33" viewBox="0 0 40 33" fill="none" xmlns="http://www.w3.org/2000/svg">
<path d="M32.7969 11.3477C32.7969 11.3477 32.0257 11.0909 31.5116 10.9625C31.5116 10.3203 31.7687 9.67822 31.8972 8.90767C33.5681 3.51388 27.9128 9.67822 27.9128 9.67822L29.8407 10.9625C29.8407 10.9625 27.6557 15.7141 27.6557 23.1627L30.4834 24.7038L32.2828 21.2363L33.4395 14.5583L32.7969 11.3477Z" fill="#FFE850"/>
<path d="M30.2261 25.0889L30.6117 24.9605L30.7402 24.8321L32.5396 21.3646L33.5679 14.5582L33.0538 10.9623L32.7967 10.8339C32.7967 10.8339 32.2826 10.7055 31.7684 10.5771C32.0255 10.1918 32.154 9.54968 32.2826 9.03598C32.5396 8.0086 32.7967 6.85278 32.154 6.46751C30.9973 5.8254 28.5552 8.26544 27.527 9.42126L27.2699 9.80653L29.3264 11.0908C28.8123 12.2466 27.1414 16.613 27.1414 23.1626V23.4194L27.3984 23.5478L30.2261 25.0889ZM31.7684 21.1078L30.2261 24.19L27.9125 22.9057C28.0411 15.714 30.0976 11.0908 30.0976 11.0908L30.2261 10.8339L28.4267 9.54968C29.969 7.88017 31.3829 6.85278 31.7684 6.98121C31.7684 6.98121 32.0255 7.23805 31.5114 8.77914C31.3829 9.42126 31.1258 10.1918 30.9973 10.8339V11.2192L31.3829 11.3476C31.7685 11.476 32.154 11.6045 32.4111 11.6045L32.7967 14.5582L31.7684 21.1078Z" fill="#171753"/>
<path d="M31.6399 13.5307C31.1258 15.3287 30.3546 19.1814 30.3546 24.5752L35.1102 21.8783C35.1102 21.6214 33.8249 16.0992 35.3673 10.7054C37.0382 5.31163 31.3828 11.6044 31.3828 11.6044C31.7684 12.1181 31.7684 12.8886 31.6399 13.5307Z" fill="#171753"/>
<path d="M30.3547 25.0889L30.6118 24.9604L35.6244 22.1351V21.8783C35.6244 21.6214 34.3391 16.2276 35.8815 10.9623C36.1385 9.93488 36.2671 8.65064 35.6244 8.26537C34.5962 7.75168 32.0256 10.1917 30.9973 11.3475L30.7403 11.6044L30.9973 11.7328C31.3829 12.2465 31.3829 12.8886 31.2544 13.5307C30.7403 15.3287 29.9691 19.3098 29.9691 24.7036V24.9604L30.3547 25.0889ZM34.7247 21.7498L30.7403 24.0615C30.8688 19.053 31.5115 15.4571 32.0256 13.6592C32.1541 13.017 32.1541 12.2465 31.7685 11.6044C33.4394 9.93488 34.9818 8.77907 35.2388 9.03591C35.2388 9.03591 35.4959 9.29276 34.9818 10.8338C33.5679 15.5855 34.4677 20.594 34.7247 21.7498Z" fill="#171753"/>
<path d="M39.609 6.21074C39.609 4.28439 38.1952 1.84434 36.5243 0.945375C35.7531 0.560105 35.1105 0.431681 34.4678 0.688528C34.4678 0.688528 32.5399 1.45907 30.4834 3.89912C28.4269 6.33917 26.6275 7.23813 26.6275 7.23813L28.5555 11.4761C28.5555 11.4761 31.3831 10.3203 33.9537 9.93503C36.9099 9.67818 38.7093 8.1371 38.7093 8.1371H38.8379C39.352 7.75183 39.609 7.10971 39.609 6.21074Z" fill="#FFE850"/>
<path d="M28.427 11.9897L28.8126 11.8613C28.8126 11.8613 31.5117 10.7055 34.0823 10.4486C37.0385 10.0634 38.9664 8.52228 38.9664 8.39385C39.7376 8.00858 39.9947 7.23804 39.9947 6.21065C39.9947 4.15587 38.5809 1.5874 36.7814 0.560014C36.0103 0.0463198 35.2391 -0.0821038 34.725 0.0463198L34.4679 0.174743C34.3394 0.174743 32.4114 0.945285 30.3549 3.38533C28.2985 5.69696 26.6276 6.72435 26.6276 6.72435L26.3705 6.85277L28.427 11.9897ZM35.1105 0.816861C35.4961 0.816861 35.8817 0.945285 36.2673 1.20213C37.9382 2.1011 39.2235 4.2843 39.2235 6.21065C39.2235 7.23804 38.8379 7.62331 38.5809 7.75173C38.5809 7.75173 36.7814 9.29282 33.9538 9.54967C31.7688 9.80651 29.5838 10.5771 28.8126 10.9623L27.1417 7.23804C27.7843 6.85277 29.1982 5.82538 30.8691 4.02745C32.5399 1.97267 34.0823 1.20213 34.4679 0.945285H34.5964C34.8535 0.816861 34.982 0.816861 35.1105 0.816861Z" fill="#171753"/>
<path d="M36.267 2.87139C36.267 2.87139 37.0382 2.3577 37.4238 1.58716C37.0382 1.33031 36.7811 1.07346 36.3955 0.94504C35.6243 0.559769 34.9817 0.431345 34.339 0.688193C34.339 0.688193 33.0537 1.20189 31.3829 2.87139L31.5114 3.51351C31.5114 3.51351 33.3108 4.15563 34.082 4.15563C34.7246 4.15563 36.267 2.87139 36.267 2.87139Z" fill="#ECFFFE"/>
<path d="M34.082 4.5409C34.8532 4.5409 36.1385 3.51352 36.5241 3.12825C36.6526 3.12825 37.4238 2.48613 37.6809 1.71558L37.8094 1.45874L37.5524 1.33031C37.2953 1.07347 36.9097 0.81662 36.6526 0.559772C35.8815 0.174502 35.2388 0.046078 34.5962 0.174502L34.2106 0.302925C34.2106 0.302925 32.7967 0.81662 31.1259 2.48613L30.9973 2.61455L31.2544 3.77036H31.3829C31.64 3.89879 33.3109 4.5409 34.082 4.5409ZM36.9097 1.58716C36.5241 2.22928 36.01 2.48613 36.01 2.61455C35.3673 3.25667 34.4676 3.77036 34.2106 3.77036C33.6965 3.77036 32.5397 3.38509 32.0256 3.12825V2.8714C33.1823 1.71559 34.2106 1.20189 34.5962 1.07347H34.7247C34.9818 0.81662 35.6244 0.81662 36.2671 1.20189C36.3956 1.33031 36.6526 1.45874 36.9097 1.58716Z" fill="#171753"/>
<path d="M37.424 4.41297C37.2955 4.41297 37.2955 4.41297 37.424 4.41297C37.424 4.54139 37.167 6.33933 36.9099 6.85302C36.6528 7.49514 36.9099 8.00883 37.0384 8.3941C37.0384 8.52253 37.167 8.65095 37.424 8.9078C38.3237 8.52253 38.7093 8.13726 38.7093 8.13726H38.8379C39.352 7.75199 39.609 7.10987 39.609 6.08248C39.609 5.05509 39.2234 3.89928 38.5808 2.87189C38.5808 3.89928 37.424 4.41297 37.424 4.41297Z" fill="#171753"/>
<path d="M37.2956 9.42132L37.5526 9.2929C38.4523 8.77921 38.9664 8.39394 38.9664 8.39394C39.7376 7.88024 39.9947 7.23812 39.9947 6.08231C39.9947 5.05492 39.6091 3.89911 38.9664 2.7433L38.8379 2.48645L38.1953 2.61487V2.87172C38.1953 3.51384 37.167 3.89911 37.167 4.02753L37.0385 4.15596V4.4128C36.91 4.9265 36.6529 6.33916 36.5244 6.85285C36.2673 7.49497 36.5244 8.26551 36.6529 8.65078C36.6529 8.77921 36.7814 8.90763 37.0385 9.2929L37.2956 9.42132ZM38.7094 3.89911C38.9664 4.66965 39.2235 5.44019 39.2235 6.08231C39.2235 7.1097 38.8379 7.49497 38.5809 7.62339V7.75182C38.5809 7.75182 38.1953 8.13709 37.5526 8.39394C37.4241 8.39394 37.4241 8.39394 37.4241 8.39394C37.2956 8.00866 37.167 7.49497 37.2956 7.1097C37.4241 6.46758 37.6811 5.18335 37.6811 4.66965C37.9382 4.54123 38.3238 4.28438 38.7094 3.89911Z" fill="#171753"/>
<path d="M38.195 7.6235C38.195 5.31188 36.5241 2.48656 34.5962 1.33074C33.6965 0.81705 32.7968 0.688627 32.2827 1.0739C32.2827 1.0739 30.0976 1.97286 27.527 4.79818C25.085 7.6235 22.9 8.77931 22.9 8.77931L25.2135 13.9163C25.2135 13.9163 28.5553 12.5036 31.64 12.1183C35.1103 11.7331 37.1668 9.93512 37.1668 9.93512L37.2953 9.8067C37.938 9.42143 38.195 8.77931 38.195 7.6235Z" fill="#FFE850"/>
<path d="M25.0849 14.4301L25.4705 14.3017C25.4705 14.3017 28.6838 12.889 31.7685 12.5037C35.2388 12.1185 37.4238 10.3205 37.4238 10.1921H37.5524C38.195 9.80686 38.5806 8.90789 38.5806 7.62365C38.5806 5.18361 36.9097 2.22986 34.7247 1.07405C33.825 0.560358 33.0538 0.431934 32.4112 0.560358L32.0256 0.688781C31.897 0.688781 29.712 1.58775 27.1414 4.54149C24.6993 7.36681 22.6429 8.3942 22.6429 8.3942L22.3858 8.52262L25.0849 14.4301ZM32.9253 1.20248C33.3109 1.20248 33.825 1.3309 34.3391 1.58775C36.2671 2.74356 37.8094 5.44045 37.8094 7.62365C37.8094 8.90789 37.4238 9.29316 37.0382 9.55001L36.9097 9.67843C36.9097 9.67843 34.8532 11.4764 31.5114 11.8616C28.9408 12.1185 26.3702 13.1459 25.342 13.5311L23.2855 9.03631C23.9282 8.65104 25.7276 7.36681 27.6555 5.18361C29.5835 2.87198 31.5114 1.84459 32.0256 1.58775L32.4112 1.3309C32.5397 1.3309 32.7967 1.20248 32.9253 1.20248Z" fill="#171753"/>
<path d="M34.5964 1.33074C33.6967 0.81705 32.797 0.688627 32.2829 1.0739C32.2829 1.0739 30.0979 1.97286 27.5273 4.79818C26.3705 6.21084 25.2137 7.10981 24.4425 7.75193V8.26562C24.4425 8.26562 24.6996 8.77931 25.4708 8.77931C26.1134 8.90774 27.7843 7.75193 27.7843 7.75193C27.7843 7.75193 30.4835 6.46769 33.1826 4.79818C35.7532 3.12868 36.0103 2.61498 36.0103 2.61498C35.6247 2.10129 35.1105 1.71602 34.5964 1.33074Z" fill="#ECFFFE"/>
<path d="M25.3423 9.16474C26.242 9.16474 27.7844 8.13735 27.9129 8.13735C27.9129 8.13735 30.612 6.85311 33.3112 5.18361C35.8818 3.64252 36.2674 3.00041 36.3959 2.74356L36.5244 2.48671L36.3959 2.22986C35.8818 1.71617 35.3676 1.3309 34.8535 1.07405C33.9538 0.560358 33.1826 0.431934 32.54 0.560358L32.1544 0.688781C32.0259 0.688781 29.8408 1.58775 27.2702 4.54149C26.242 5.6973 25.2138 6.72469 24.1855 7.49523L24.057 7.62365L23.9285 8.3942V8.52262C24.057 8.65104 24.5711 9.16474 25.3423 9.16474ZM35.4962 2.61514C35.2391 2.87198 34.4679 3.5141 32.9256 4.54149C30.355 6.211 27.6558 7.49523 27.6558 7.49523C27.0132 7.8805 25.8564 8.52262 25.4708 8.52262C25.0852 8.52262 24.9567 8.3942 24.8282 8.26577V8.00893C25.8564 7.10996 26.8847 6.08257 27.7844 5.05518C29.7123 2.74356 31.6403 1.71617 32.1544 1.45932L32.4115 1.3309C32.9256 1.07405 33.6968 1.20248 34.4679 1.58775C34.8535 1.97302 35.2391 2.22986 35.4962 2.61514Z" fill="#171753"/>
<path d="M33.9535 7.10992C32.2826 8.00889 28.9408 9.42155 28.9408 9.42155C28.9408 9.42155 27.7841 9.80682 27.3985 9.93524C27.0129 10.1921 27.27 11.6047 27.27 11.6047C27.27 11.6047 27.27 12.3753 27.3985 13.0174C28.5553 12.7606 30.0976 12.2469 31.64 12.1184C35.1103 11.7332 37.1668 9.93524 37.1668 9.93524L37.2953 9.80682C37.9379 9.42155 38.195 8.77943 38.195 7.62361C38.195 6.59623 37.8094 5.44041 37.2953 4.41302C37.2953 5.18357 35.6244 6.08253 33.9535 7.10992Z" fill="#171753"/>
<path d="M27.2699 13.531H27.3985C28.9408 13.0173 30.3547 12.7604 31.5114 12.632C35.2388 12.1183 37.4238 10.3204 37.4238 10.192H37.5524C38.195 9.80668 38.5806 8.90771 38.5806 7.62348C38.5806 6.59609 38.3235 5.44028 37.6809 4.28447L37.5524 4.02762L36.9097 4.15604V4.41289C36.9097 5.05501 34.9818 6.0824 33.825 6.72451C32.1541 7.62348 28.9408 9.03614 28.8123 9.16456C28.4267 9.29299 27.6555 9.54983 27.2699 9.67826C26.6273 9.9351 26.7558 11.0909 26.8844 11.733C26.8844 11.733 26.8844 12.5036 27.0129 13.1457V13.2741L27.2699 13.531ZM37.2953 5.31185C37.6809 6.0824 37.8094 6.85294 37.8094 7.62348C37.8094 8.90771 37.4238 9.29299 37.0382 9.54983L36.9097 9.67826C36.9097 9.67826 34.8532 11.4762 31.5114 11.8615C30.3547 11.9899 29.0694 12.2467 27.6555 12.7604C27.6555 12.2467 27.6555 11.8615 27.6555 11.8615C27.527 11.2193 27.527 10.7056 27.6555 10.5772C27.9126 10.192 28.6838 9.9351 29.0694 9.80668C29.1979 9.67826 32.4112 8.2656 34.2106 7.36663C35.6244 6.59609 36.7812 5.95397 37.2953 5.31185Z" fill="#171753"/>
<path d="M28.5556 11.8614C28.2985 10.3203 27.5273 8.90763 26.3706 7.88024C24.9567 6.596 23.5429 6.21073 22.6432 6.72443C19.3014 8.65078 15.317 7.49497 13.5176 6.72443C13.0034 6.46758 12.4893 6.85285 12.4893 7.36655C12.4893 9.03605 12.4893 11.9898 12.4893 11.9898C12.6179 12.1182 11.9752 15.2004 11.9752 15.2004L22.3861 23.9332C22.5147 24.0616 22.7717 23.9332 22.7717 23.8048C23.2858 18.1541 26.3706 15.9709 27.2703 15.3288C27.6559 15.4572 27.6559 15.4572 27.6559 15.4572L27.7844 15.3288C28.5556 14.8151 28.9412 13.6593 28.5556 11.8614Z" fill="#FFE850"/>
<path d="M22.7717 24.5754C22.9003 24.5754 22.9003 24.5754 23.0288 24.5754C23.2858 24.447 23.4144 24.3186 23.4144 24.0617C23.9285 18.5395 26.8847 16.4847 27.7844 15.971L27.9129 15.8426L28.0415 15.7142C28.9412 15.0721 29.3268 13.6594 28.9412 11.8615C28.5556 10.3204 27.7844 8.7793 26.6276 7.62349C25.2138 6.21083 23.6714 5.82556 22.5147 6.46768C19.4299 8.26561 15.7026 7.23822 13.7746 6.46768C13.389 6.33926 13.0034 6.33926 12.7464 6.5961C12.4893 6.85295 12.2323 7.1098 12.2323 7.49507C12.2323 11.2194 12.2323 11.9899 12.2323 12.2467C12.2323 12.5036 11.9752 14.0447 11.7181 15.3289V15.5858L22.3861 24.447C22.5147 24.447 22.6432 24.5754 22.7717 24.5754ZM27.5273 15.0721C27.5273 15.0721 27.3988 15.0721 27.5273 15.0721C26.3706 15.7142 23.2858 18.0258 22.6432 23.548L12.6179 15.2005C13.132 12.2467 13.0034 12.1183 13.0034 11.9899C13.0034 11.9899 13.0034 11.4762 13.0034 7.49507C13.0034 7.36665 13.0034 7.23822 13.132 7.23822C13.2605 7.23822 13.389 7.1098 13.389 7.23822C15.4455 8.00876 19.4299 9.16458 22.7717 7.23822C23.5429 6.72453 24.8282 7.1098 25.985 8.26561C27.0132 9.293 27.7844 10.5772 28.17 12.1183C28.4271 13.531 28.2985 14.6868 27.5273 15.0721Z" fill="#171753"/>
<path d="M26.2421 7.88039C24.8282 6.59616 23.4144 6.21089 22.5147 6.72458C19.1729 8.65093 15.1885 7.49512 13.3891 6.72458C12.8749 6.46773 12.3608 6.853 12.3608 7.3667C12.3608 9.0362 12.3608 11.9899 12.3608 11.9899C12.3608 12.1184 11.9752 14.9437 11.8467 15.2005C14.8029 16.7416 16.7308 16.7416 16.7308 16.7416L17.245 15.7142L20.2011 13.4026C20.2011 13.4026 21.4864 11.9899 23.5429 10.8341C25.4709 9.67832 26.2421 8.77936 26.4991 8.13724C26.6276 8.26566 26.3706 8.00882 26.2421 7.88039Z" fill="#ECFFFE"/>
<path d="M17.1162 17.3838L17.7588 16.2279L20.715 13.9163C20.715 13.9163 22.0003 12.5037 23.9283 11.3478C25.5992 10.3205 26.6274 9.42149 27.013 8.52252L27.1415 8.26568L27.013 8.00883C26.8845 7.88041 26.756 7.62356 26.4989 7.49514C25.0851 6.08248 23.5427 5.6972 22.3859 6.33932C19.3012 8.13725 15.5738 7.10986 13.6459 6.33932C13.2603 6.2109 12.8747 6.2109 12.6176 6.46775C12.3606 6.72459 12.1035 6.98144 12.1035 7.36671C12.1035 11.091 12.1035 11.8615 12.1035 12.1184C12.1035 12.3752 11.8465 13.9163 11.5894 15.2006V15.4574L11.8465 15.5858C14.9312 17.2553 16.7306 17.2553 16.8591 17.2553L17.1162 17.3838ZM26.2418 8.3941C25.8562 9.16464 24.828 9.93518 23.5427 10.7057C21.4862 11.99 20.2009 13.2742 20.2009 13.2742L17.1162 15.7142L16.7306 16.4848C16.2165 16.4848 14.6741 16.2279 12.4891 15.0721C13.0032 12.2468 13.0032 12.1184 12.8747 11.99C12.8747 11.8615 12.8747 10.5773 12.8747 7.49514C12.8747 7.36671 12.8747 7.23829 13.0032 7.23829C13.1318 7.23829 13.2603 7.10986 13.2603 7.23829C15.3168 8.00883 19.3012 9.16464 22.643 7.23829C23.4142 6.72459 24.6995 7.10986 25.8562 8.26568C26.1133 8.26568 26.1133 8.3941 26.2418 8.3941Z" fill="#171753"/>
<path d="M27.5272 15.4574C27.6557 15.4574 27.6557 15.4574 27.6557 15.4574L27.7842 15.329C28.5554 14.8153 28.941 13.6595 28.5554 11.8615C28.4269 11.4763 28.2983 10.9626 28.1698 10.4489C28.1698 10.4489 28.1698 10.4489 28.0413 10.4489C27.9127 11.091 27.5272 11.4763 25.3421 12.8889C23.0286 14.3016 22.0004 16.2279 21.8718 16.3564L19.4298 17.3838C19.4298 17.6406 19.8154 18.9248 19.8154 19.1817C19.8154 19.4385 21.3577 22.1354 22.2574 23.5481L22.5145 23.8049C22.643 23.9334 22.9001 23.8049 23.0286 23.6765C23.5427 18.2827 26.6274 15.9711 27.5272 15.4574Z" fill="#171753"/>
<path d="M22.7715 24.447C22.9 24.447 22.9 24.447 23.0286 24.447C23.2856 24.3185 23.4142 24.1901 23.4142 23.9333C23.9283 18.5395 26.7559 16.4847 27.6556 15.8426C27.7842 15.8426 27.7842 15.7141 27.7842 15.7141L27.9127 15.5857C28.8124 14.9436 29.198 13.5309 28.8124 11.733C28.8124 11.3477 28.6839 10.834 28.5554 10.3204L28.4268 10.0635L27.7842 10.1919V10.5772C27.7842 10.9625 27.3986 11.4762 25.3421 12.7604C23.2856 14.0446 22.1289 15.8426 21.8718 16.3563L19.3012 17.3837V17.7689C19.5583 18.6679 19.6868 19.31 19.6868 19.5669C19.6868 19.6953 19.6868 19.9521 22.1289 24.1901L22.0003 24.0617L22.2574 24.3185C22.3859 24.4469 22.643 24.447 22.7715 24.447ZM27.5271 15.072C27.5271 15.072 27.3986 15.072 27.5271 15.072L27.3986 15.2005C26.4989 15.7141 23.2856 18.0258 22.7715 23.6764H22.643C20.5865 20.0805 20.3294 19.5669 20.3294 19.4384C20.3294 19.1816 20.2009 18.411 20.0724 17.7689L22.2574 16.7415L22.3859 16.6131C22.3859 16.4847 23.5427 14.6868 25.7277 13.2741C27.013 12.3751 27.7842 11.8614 28.1698 11.4762C28.1698 11.6046 28.2983 11.8614 28.2983 11.9899C28.5554 13.4025 28.4268 14.5583 27.6556 14.9436L27.5271 15.072Z" fill="#171753"/>
<path d="M23.1566 22.392C23.1566 16.7413 19.1721 9.93489 14.4165 7.238C12.103 5.82534 9.91796 5.69691 8.3756 6.59588C8.3756 6.59588 8.24707 6.59588 8.24707 6.7243L6.19059 7.75169L6.44765 8.39381C5.93353 9.4212 5.54794 10.7054 5.54794 12.3749C5.54794 18.0256 9.53237 24.832 14.288 27.5289C15.7018 28.2995 16.9871 28.6847 18.1439 28.6847L18.5295 29.1984L20.7145 28.0426C22.2568 27.0152 23.1566 25.0889 23.1566 22.392Z" fill="#FFE850"/>
<path d="M18.5296 29.7121L20.8432 28.2994C22.5141 27.272 23.5423 25.0888 23.5423 22.3919C23.5423 16.7413 19.5579 9.67797 14.5452 6.85265C12.2317 5.56842 10.0466 5.31157 8.37575 6.08211L5.67661 7.62319L6.06221 8.39374C5.54809 9.42112 5.16249 10.8338 5.16249 12.3749C5.16249 18.0255 9.14693 25.0888 14.1596 27.9141C15.4449 28.6847 16.7302 29.0699 18.0155 29.1984L18.5296 29.7121ZM10.4322 6.33896C11.589 6.33896 12.8743 6.72423 14.1596 7.49477C18.9152 10.1917 22.7711 16.8697 22.7711 22.3919C22.7711 24.832 21.9999 26.7583 20.4576 27.6573L18.6582 28.6847L18.2726 28.2994H18.144C16.9873 28.2994 15.8305 27.9141 14.5452 27.1436C9.78958 24.4467 5.93368 17.7687 5.93368 12.2464C5.93368 10.7054 6.19074 9.54955 6.70486 8.52216L6.83339 8.39374L6.57633 7.88004L8.37575 6.85265C9.0184 6.46738 9.78958 6.33896 10.4322 6.33896Z" fill="#171753"/>
<path d="M18.5301 14.6866L20.458 13.6592C18.9156 10.9623 16.7306 8.52223 14.2886 7.238C11.975 5.82534 9.79001 5.69691 8.24765 6.59588C8.24765 6.59588 8.11912 6.59588 8.11912 6.7243L6.3197 7.75169V7.88011L6.57676 8.39381C6.06264 9.4212 5.67705 10.7054 5.67705 12.3749C5.67705 14.815 6.44823 17.5119 7.605 19.9519C8.63324 20.4656 9.66148 20.8509 10.3041 20.8509C12.6177 21.1077 14.2886 20.0804 14.2886 20.0804L18.5301 14.6866Z" fill="#ECFFFE"/>
<path d="M10.9468 21.1079C13.0033 21.1079 14.4171 20.2089 14.4171 20.2089L14.5456 20.0805L18.7871 14.9435L20.9721 13.6593L20.7151 13.274C19.0442 10.3203 16.7306 8.00866 14.4171 6.596C12.1036 5.31176 9.91855 5.05492 8.24766 5.82546L5.93412 7.10969C5.67706 7.23812 5.67706 7.49497 5.80559 7.75181L5.93412 8.13708C5.42 9.16447 5.16294 10.5771 5.16294 12.1182C5.16294 14.5583 5.80559 17.2552 7.21942 19.8236V19.9521H7.34795C8.50472 20.4657 9.53296 20.851 10.1756 20.9794C10.4327 21.1079 10.6897 21.1079 10.9468 21.1079ZM14.0315 19.5668C13.7745 19.6952 12.2321 20.4657 10.3041 20.3373C9.66149 20.3373 8.89031 19.9521 7.86207 19.4384C6.7053 16.9983 5.93412 14.4298 5.93412 12.2466C5.93412 10.7056 6.19118 9.54974 6.7053 8.52235L6.83383 8.39393L6.57677 7.88024L8.37619 6.85285C9.91855 6.08231 11.975 6.33915 14.0315 7.49497C16.2165 8.7792 18.273 10.834 19.8154 13.5309L18.1445 14.5583L14.0315 19.5668Z" fill="#171753"/>
<path d="M23.1566 22.3921C23.1566 20.4657 22.771 18.5394 21.8713 16.4846L19.9433 17.512L13.2598 20.0804C13.2598 20.0804 11.5889 21.1078 11.2033 21.3647C11.0748 21.4931 10.9462 22.9058 10.8177 24.5753C11.8459 25.7311 13.1312 26.7585 14.4165 27.529C15.8304 28.2996 17.1157 28.6848 18.2724 28.6848L18.658 29.1985L20.7145 28.0427C22.2569 27.0153 23.1566 25.089 23.1566 22.3921Z" fill="#171753"/>
<path d="M18.5296 29.7123L20.8432 28.2996C22.5141 27.2723 23.5423 25.0891 23.5423 22.3922C23.5423 20.4658 23.1567 18.411 22.257 16.3562L22.1285 15.971L19.8149 17.2552L13.1314 19.6953C13.0028 19.8237 11.3319 20.7227 11.0749 20.9795C10.9463 21.1079 10.6893 21.2363 10.4322 24.4469V24.5754L10.5608 24.7038C11.7175 25.988 13.0028 27.0154 14.1596 27.6575C15.4449 28.4281 16.7302 28.8133 18.0155 28.9418L18.5296 29.7123ZM21.7429 16.9984C22.3855 18.7963 22.7711 20.7227 22.7711 22.2637C22.7711 24.7038 21.9999 26.6301 20.4576 27.5291L18.6582 28.5565L18.2726 28.1712H18.144C16.9873 28.1712 15.8305 27.7859 14.5452 27.0154C13.3884 26.3733 12.2317 25.4743 11.2034 24.3185C11.3319 22.2637 11.4605 21.75 11.589 21.4932C11.9746 21.2363 13.1314 20.5942 13.517 20.3374L20.2005 17.8973L21.7429 16.9984Z" fill="#171753"/>
<path d="M6.23371 22.0347C2.79093 16.0767 2.79069 9.63689 6.23319 7.65095C9.67569 5.66501 15.2573 8.88497 18.7001 14.8429C22.1429 20.8009 22.1431 27.2407 18.7006 29.2266C15.2581 31.2126 9.67649 27.9926 6.23371 22.0347Z" fill="#FFE850"/>
<path d="M16.3453 30.0974C17.245 30.0974 18.1447 29.8406 18.7874 29.4553C20.5868 28.4279 21.615 26.2447 21.615 23.4194C21.615 17.7687 17.6306 10.7054 12.6179 7.88013C10.1758 6.46747 7.8623 6.33904 6.06288 7.36643C4.26346 8.39382 3.23522 10.577 3.23522 13.4023C3.23522 19.053 7.21965 26.1163 12.2323 28.9416C13.6462 29.7121 15.06 30.0974 16.3453 30.0974ZM8.50495 7.49486C9.66172 7.49486 10.947 7.88013 12.2323 8.65067C16.9879 11.3476 20.8438 18.0256 20.8438 23.5478C20.8438 26.1163 19.9441 28.0426 18.4018 28.9416C16.8594 29.8406 14.8029 29.5837 12.6179 28.2995C7.8623 25.4742 4.0064 18.7961 4.0064 13.2739C4.0064 10.7054 4.90611 8.77909 6.44847 7.88013C7.09112 7.62328 7.73377 7.49486 8.50495 7.49486Z" fill="#171753"/>
<path d="M18.7872 22.2639C18.9157 26.6303 15.9595 28.4283 12.3607 26.2451C8.76184 24.1903 5.67712 18.9249 5.67712 14.5585C5.54859 10.1921 8.50478 8.39419 12.1036 10.5774C15.7025 12.7606 18.7872 17.8975 18.7872 22.2639Z" fill="#FFE850"/>
<path d="M15.1881 27.5292C15.8308 27.5292 16.4734 27.4008 17.1161 27.0155C18.5299 26.245 19.3011 24.4471 19.1726 22.2639C19.044 17.769 15.9593 12.5037 12.2319 10.3205C10.4325 9.29307 8.6331 9.03622 7.21927 9.93519C5.80544 10.7057 5.03426 12.5037 5.16279 14.6869C5.29132 19.1817 8.37604 24.4471 12.1034 26.6303C13.2602 27.1439 14.2884 27.5292 15.1881 27.5292ZM18.4014 22.2639C18.4014 24.3186 17.8873 25.7313 16.7305 26.3734C15.7023 27.0155 14.1599 26.8871 12.6175 25.9881C9.01869 23.9334 6.19103 18.9248 6.0625 14.6869C6.0625 12.6321 6.57662 11.2194 7.73339 10.5773C8.76163 9.93519 10.304 10.0636 11.8464 10.9626C15.4452 12.8889 18.4014 18.0259 18.4014 22.2639Z" fill="#171753"/>
<path d="M12.1036 10.5772C10.6898 9.80664 9.40447 9.5498 8.37623 9.80664C7.34799 10.5772 6.70534 12.1183 6.70534 14.173C6.83387 18.5394 9.79006 23.6764 13.3889 25.8596C14.8027 26.6301 16.088 26.887 17.1163 26.6301C18.1445 25.8596 18.7872 24.3185 18.7872 22.2637C18.7872 17.8973 15.7024 12.632 12.1036 10.5772Z" fill="#FFE850"/>
<path d="M16.3451 27.0154C16.6022 27.0154 16.9878 27.0154 17.2448 26.887H17.3734C18.6587 25.988 19.3013 24.3185 19.1728 22.2638C19.0443 17.7689 15.9595 12.5036 12.2322 10.3204C10.8183 9.54983 9.40451 9.16455 8.24774 9.54983H8.11921C6.83391 10.4488 6.19125 12.1183 6.31979 14.1731C6.44831 18.6679 9.53304 23.9333 13.2604 26.1165C14.2887 26.7586 15.3169 27.0154 16.3451 27.0154ZM16.9878 26.1165C15.9595 26.3733 14.9313 26.1165 13.646 25.3459C10.0472 23.2912 7.2195 18.2826 7.09097 14.0447C7.09097 12.2467 7.60509 10.8341 8.5048 10.0635C9.53304 9.80667 10.5613 10.0635 11.8466 10.8341C15.4454 12.8888 18.2731 17.8974 18.4016 22.1353C18.5301 24.0617 18.016 25.4743 16.9878 26.1165Z" fill="#171753"/>
<path d="M17.6302 17.2552C16.4734 14.4299 14.417 11.8614 12.1034 10.5772C10.6896 9.80664 9.40429 9.5498 8.37605 9.80664C7.34781 10.5772 6.70516 12.1183 6.70516 14.173C6.70516 17.2552 8.24752 20.5942 10.4325 23.1627C10.4325 23.0343 10.6896 17.1268 17.6302 17.2552Z" fill="#171753"/>
<path d="M10.8181 24.1901V23.1627C10.8181 22.9059 11.0752 17.7689 17.5017 17.7689C17.6302 17.7689 17.6302 17.7689 17.7587 17.7689H18.4014L18.1443 17.2552C16.859 14.3015 14.674 11.733 12.3605 10.3204C10.9466 9.54983 9.53279 9.16455 8.37602 9.54983H8.24749C6.96219 10.4488 6.31954 12.1183 6.44807 14.1731C6.44807 17.2552 7.99043 20.7227 10.1754 23.4196L10.8181 24.1901ZM17.1161 16.87C11.9749 16.9984 10.561 20.4658 10.1754 22.1353C8.37602 19.6953 7.21925 16.6131 7.09072 14.0447C7.09072 12.2467 7.60484 10.8341 8.50455 10.0635C9.53279 9.80667 10.561 10.0635 11.8463 10.8341C13.9028 12.1183 15.8308 14.3015 17.1161 16.87Z" fill="#171753"/>
<path d="M11.8465 16.4847L13.7745 19.8237L17.8874 17.8974C17.2448 16.3563 16.3451 14.8152 15.3168 13.531L11.8465 16.4847Z" fill="#FFE850"/>
<path d="M13.5172 20.3373L18.4014 18.0257L18.2728 17.6404C17.6302 15.9709 16.7305 14.4298 15.7022 13.1456L15.4452 12.8888L11.3322 16.3562L13.5172 20.3373ZM17.3731 17.6404L13.9028 19.3099L12.3605 16.613L15.4452 14.0446C16.0878 15.072 16.859 16.3562 17.3731 17.6404Z" fill="#171753"/>
<path d="M13.7745 19.8237L17.8874 17.8973C17.6304 17.1268 17.2448 16.4847 16.8592 15.7141L13.7745 17.6405L13.2603 17.8973L12.7462 18.0257L13.7745 19.8237Z" fill="#171753"/>
<path d="M13.5172 20.3374L18.4014 18.0258L18.2728 17.6406C18.0158 16.87 17.6302 16.0995 17.2446 15.4574L16.9875 15.0721L13.0031 17.5121L12.1034 17.8974L13.5172 20.3374ZM17.3731 17.6406L13.9028 19.3101L13.2602 18.2827H13.3887L13.9028 18.0258L16.7305 16.2279C16.9875 16.7416 17.2446 17.1269 17.3731 17.6406Z" fill="#171753"/>
<path d="M14.16 18.9246C14.16 18.0257 13.5174 16.9983 12.7462 16.613C12.3606 16.3562 12.1035 16.3562 11.8465 16.4846C11.7179 16.613 11.5894 16.613 11.5894 16.8699C11.2038 17.512 11.4609 18.5394 11.4609 18.5394H11.7179C11.4609 18.5394 11.975 19.4383 11.975 19.4383C12.6176 19.952 13.1318 20.0805 13.3888 20.0805C13.5174 20.0805 13.6459 20.0805 13.7744 19.952C14.0315 19.5668 14.16 19.3099 14.16 18.9246Z" fill="#ECFFFE"/>
<path d="M13.2604 20.3373C13.389 20.3373 13.389 20.3373 13.389 20.3373C13.646 20.3373 13.7746 20.2089 14.0316 20.0804L14.1602 19.952C14.2887 19.8236 14.5457 19.4383 14.5457 18.9246C14.5457 17.8972 13.9031 16.7414 13.0034 16.2277C12.6178 15.9709 12.1037 15.9709 11.7181 16.0993C11.5896 16.2277 11.3325 16.3562 11.3325 16.613C10.8184 17.3835 11.0754 18.4109 11.204 18.5394L11.3325 18.7962H11.5896C11.5896 18.9246 11.7181 19.1815 11.9751 19.5667L11.7181 19.6952C12.2322 20.0804 12.7463 20.3373 13.2604 20.3373ZM12.2322 16.7414C12.3607 16.7414 12.4893 16.7414 12.6178 16.8699C13.2604 17.2551 13.7746 18.1541 13.7746 18.9246C13.7746 19.1815 13.7746 19.3099 13.646 19.4383L13.5175 19.5667C13.2604 19.5667 12.8749 19.5667 12.3607 19.0531C12.3607 18.9246 12.2322 18.9246 12.2322 18.7962H12.4893L12.1037 18.1541L11.7181 18.0257C11.7181 17.7688 11.7181 17.2551 11.8466 16.9983C11.8466 16.8699 11.9751 16.8699 11.9751 16.8699L12.2322 16.7414C12.1037 16.7414 12.1037 16.7414 12.2322 16.7414Z" fill="#171753"/>
<path d="M12.6179 19.0532C12.6179 19.4385 12.3608 19.6953 11.9752 19.4385C11.5896 19.1816 11.3326 18.6679 11.3326 18.2827C11.3326 17.8974 11.5896 17.6405 11.9752 17.8974C12.3608 18.0258 12.6179 18.6679 12.6179 19.0532Z" fill="#ECFFFE"/>
<path d="M12.2322 19.9523C12.3607 19.9523 12.4893 19.9523 12.6178 19.8239C12.8749 19.6955 13.0034 19.4386 13.0034 19.0534C13.0034 18.4112 12.6178 17.7691 12.1037 17.5123C11.8466 17.3838 11.461 17.3838 11.204 17.5123C10.9469 17.6407 10.8184 17.8975 10.8184 18.2828C10.8184 18.9249 11.204 19.567 11.7181 19.8239C11.9751 19.8239 12.1037 19.9523 12.2322 19.9523ZM11.7181 18.1544C11.9751 18.2828 12.2322 18.7965 12.2322 19.0534V19.1818C12.2322 19.1818 12.2322 19.1818 12.1037 19.1818C11.8466 18.9249 11.7181 18.5397 11.7181 18.1544C11.7181 18.2828 11.7181 18.1544 11.7181 18.1544Z" fill="#171753"/>
<path d="M35.1107 14.8151C35.1107 12.3751 35.7534 11.3477 35.8819 11.2192C37.9384 10.4487 38.4525 9.16447 38.581 8.65078L39.0951 8.39393C40.1234 7.62339 39.9949 6.21073 39.9949 6.08231L39.2237 6.21073C39.2237 6.21073 39.3522 7.23812 38.581 7.75181L37.8098 8.26551V8.39393C37.8098 8.39393 37.5528 9.67817 35.4963 10.4487L35.3678 10.5771C35.3678 10.7056 34.3395 11.6045 34.3395 14.8151H35.1107Z" fill="#FFE850"/>
<path d="M31.6404 12.5035C33.8254 12.1182 36.139 11.0908 36.2675 11.0908L35.8819 10.4487C35.8819 10.4487 33.5684 11.4761 31.5119 11.8614L31.6404 12.5035Z" fill="#FFE850"/>
</svg>
