<svg width="40" height="37" viewBox="0 0 40 37" fill="none" xmlns="http://www.w3.org/2000/svg">
<path d="M28.3271 3.47211L29.0854 3.90747V19.2435C29.0854 19.9668 28.5799 20.8446 27.9479 21.2097L2.05773 36.1596C1.74174 36.3421 1.45384 36.3562 1.2502 36.2368L0.498844 35.8014C0.295206 35.6821 0.168814 35.4293 0.168814 35.0641V19.7351L28.3271 3.47211Z" fill="#E3E0EB"/>
<path d="M1.55189 36.4828C1.74149 36.4828 1.9381 36.4266 2.14174 36.3072L28.0319 21.3574C28.713 20.9641 29.2467 20.0372 29.2467 19.2508V3.90766C29.2467 3.85149 29.2186 3.79531 29.1624 3.76722L28.4041 3.33186C28.3549 3.30377 28.2917 3.30377 28.2426 3.33186L0.0842953 19.5878C0.035141 19.6159 3.05176e-05 19.6721 3.05176e-05 19.7283V35.0643C3.05176e-05 35.4786 0.147493 35.7876 0.414331 35.9421L1.16568 36.3774C1.1727 36.3774 1.1727 36.3845 1.17973 36.3845C1.29208 36.4477 1.41847 36.4828 1.55189 36.4828ZM28.9237 4.00597V19.2508C28.9237 19.9178 28.4532 20.7394 27.8704 21.0695L1.98024 36.0193C1.73447 36.1598 1.49572 36.1878 1.33421 36.0966C1.32719 36.0966 1.32719 36.0895 1.32017 36.0895L0.582857 35.6612C0.42135 35.5699 0.330065 35.3592 0.330065 35.0713V19.8266L28.3268 3.66189L28.9237 4.00597Z" fill="#171753"/>
<path d="M29.0854 3.90796V19.244C29.0854 19.9673 28.5799 20.845 27.9479 21.2102L2.05773 36.16C1.43277 36.5252 0.920162 36.2303 0.920162 35.507V20.1709L29.0854 3.90796Z" fill="#E3E0EB"/>
<path d="M1.55189 36.4829C1.74149 36.4829 1.9381 36.4197 2.14174 36.3073L28.0319 21.3575C28.713 20.9642 29.2467 20.0373 29.2467 19.2509V3.90778C29.2467 3.85161 29.2186 3.79543 29.1624 3.76734C29.1133 3.73925 29.0501 3.73925 29.0009 3.76734L0.842672 20.0303C0.793518 20.0584 0.758406 20.1146 0.758406 20.1708V35.5068C0.758406 35.7947 0.828627 36.0335 0.969067 36.202C1.10951 36.3846 1.32017 36.4829 1.55189 36.4829ZM28.9237 4.19568V19.2509C28.9237 19.918 28.4532 20.7395 27.8704 21.0696L1.98024 36.0194C1.82575 36.1037 1.67829 36.1529 1.55189 36.1529C1.41847 36.1529 1.30612 36.1037 1.22888 36.0054C1.1376 35.893 1.08844 35.7245 1.08844 35.5138V20.262L28.9237 4.19568Z" fill="#171753"/>
<path d="M1.30589 15.2623L27.189 0.319492C27.505 0.136919 27.7929 0.122877 27.9966 0.242251L28.7479 0.677617C28.9515 0.796991 29.0779 1.04978 29.0779 1.4079V3.91476L0.919683 20.1707L0.161306 19.7353V17.2285C0.168329 16.5052 0.673912 15.6275 1.30589 15.2623Z" fill="#8989C7"/>
<path d="M0.926874 20.3322C0.954962 20.3322 0.983051 20.3252 1.01114 20.3112L29.1694 4.05521C29.2186 4.02712 29.2537 3.97095 29.2537 3.91477V1.40791C29.2537 1.00064 29.1062 0.684645 28.8394 0.530161L28.088 0.0947951C28.081 0.0877731 28.074 0.0877748 28.0669 0.0877748C27.8071 -0.0526654 27.463 -0.0245765 27.1119 0.17204L1.2218 15.1219C0.540665 15.5151 0.00698853 16.442 0.00698853 17.2285V19.7354C0.00698853 19.7915 0.035078 19.8477 0.0912533 19.8758L0.842609 20.3112C0.870697 20.3252 0.898787 20.3322 0.926874 20.3322ZM28.9236 3.81646L0.926874 19.9811L0.337023 19.6371V17.2285C0.337023 16.5614 0.807499 15.7398 1.39033 15.4098L27.2735 0.45994C27.5192 0.3195 27.758 0.291414 27.9195 0.3827C27.9265 0.389722 27.9335 0.389723 27.9405 0.396745L28.6708 0.818066C28.8323 0.909352 28.9236 1.12001 28.9236 1.40791V3.81646Z" fill="#171753"/>
<path d="M4.27655 18.2325L0.92705 20.1635L0.168674 19.7282V17.2213C0.168674 16.8491 0.309113 16.4278 0.526795 16.0627L4.27655 18.2325Z" fill="#171753"/>
<path d="M0.926921 20.332C0.955009 20.332 0.983098 20.325 1.01119 20.311L4.36068 18.3799C4.40984 18.3518 4.44495 18.2956 4.44495 18.2395C4.44495 18.1833 4.41686 18.1271 4.36068 18.099L0.61093 15.9363C0.533688 15.8941 0.435379 15.9152 0.386225 15.9924C0.140455 16.3997 0.00703478 16.8421 0.00703478 17.2353V19.7422C0.00703478 19.7984 0.0351238 19.8545 0.0912995 19.8826L0.842656 20.311C0.870744 20.325 0.898833 20.332 0.926921 20.332ZM3.94639 18.2324L0.919896 19.9739L0.33005 19.6298V17.2213C0.33005 16.9334 0.421337 16.6033 0.589865 16.2874L3.94639 18.2324Z" fill="#171753"/>
<path d="M0.926702 20.1705V17.6637C0.926702 16.9404 1.43229 16.0626 2.06427 15.6975L27.9474 0.754666C28.5724 0.396544 29.085 0.684445 29.085 1.40771V3.91457L0.926702 20.1705Z" fill="#8989C7"/>
<path d="M0.926878 20.3321C0.954966 20.3321 0.983053 20.3251 1.01114 20.3111L29.1694 4.05512C29.2186 4.02703 29.2537 3.97085 29.2537 3.91468V1.40782C29.2537 0.817969 28.9447 0.438782 28.4602 0.438782C28.2706 0.438782 28.074 0.494958 27.8703 0.614332L1.98018 15.5642C1.29904 15.9574 0.765371 16.8843 0.765371 17.6708V20.1706C0.765371 20.2268 0.793457 20.283 0.849632 20.3111C0.870699 20.3251 0.898788 20.3321 0.926878 20.3321ZM28.9236 3.81637L1.0954 19.8827V17.6638C1.0954 16.9967 1.56588 16.1751 2.1487 15.8451L28.0318 0.895212C28.1793 0.810948 28.3268 0.761792 28.4602 0.761792C28.7481 0.761792 28.9236 1.00054 28.9236 1.40782V3.81637Z" fill="#171753"/>
<path d="M2.90032 17.5794C3.118 17.453 3.29355 17.151 3.29355 16.8983C3.29355 16.6455 3.118 16.5472 2.90032 16.6736C2.68264 16.7999 2.50709 17.1019 2.50709 17.3547C2.50709 17.6005 2.68264 17.7058 2.90032 17.5794ZM4.7752 16.0416C4.7752 15.7888 4.95075 15.4868 5.16843 15.3604C5.38611 15.234 5.56166 15.3394 5.56166 15.5851C5.56166 15.8379 5.38611 16.1399 5.16843 16.2663C4.95777 16.3927 4.7752 16.2873 4.7752 16.0416ZM7.05033 14.7285C7.05033 14.4757 7.22588 14.1737 7.44356 14.0473C7.66124 13.9209 7.83679 14.0263 7.83679 14.272C7.83679 14.5248 7.66124 14.8268 7.44356 14.9532C7.22588 15.0796 7.05033 14.9812 7.05033 14.7285Z" fill="#171753"/>
<path d="M2.72457 17.7972C2.80884 17.7972 2.8931 17.7691 2.98439 17.7199C3.25123 17.5654 3.46189 17.2003 3.46189 16.8984C3.46189 16.5402 3.13887 16.3436 2.82288 16.5262C2.55605 16.6807 2.34539 17.0458 2.34539 17.3548C2.34539 17.6146 2.49987 17.7972 2.72457 17.7972ZM3.07567 16.779C3.12483 16.779 3.13185 16.8633 3.13185 16.8984C3.13185 17.088 2.98439 17.3407 2.82288 17.4391C2.77373 17.4671 2.74564 17.4742 2.72457 17.4742C2.67542 17.4742 2.6684 17.3899 2.6684 17.3548C2.6684 17.1652 2.81586 16.9124 2.98439 16.8141C3.03354 16.779 3.06163 16.779 3.07567 16.779ZM4.99268 16.4841C5.07695 16.4841 5.16121 16.456 5.2525 16.4068C5.51933 16.2523 5.72999 15.8872 5.72999 15.5852C5.72999 15.2271 5.40698 15.0305 5.09099 15.2131C4.82416 15.3676 4.6135 15.7327 4.6135 16.0417C4.6135 16.1681 4.6486 16.2734 4.7118 16.3506C4.78202 16.4349 4.88033 16.4841 4.99268 16.4841ZM5.35081 15.4659C5.39996 15.4659 5.40698 15.5501 5.40698 15.5852C5.40698 15.7748 5.25952 16.0276 5.09099 16.1259C5.04184 16.154 5.01375 16.161 4.99268 16.161C4.97162 16.161 4.97162 16.154 4.9646 16.147C4.95758 16.14 4.93651 16.1119 4.93651 16.0417C4.93651 15.8521 5.08397 15.5993 5.2525 15.501C5.30165 15.4729 5.33676 15.4659 5.35081 15.4659ZM7.26782 15.1709C7.35208 15.1709 7.43634 15.1429 7.52763 15.0937C7.79447 14.9392 8.00513 14.5741 8.00513 14.2651C8.00513 13.907 7.68212 13.7104 7.36613 13.9C7.09929 14.0544 6.88863 14.4196 6.88863 14.7286C6.88863 14.855 6.92374 14.9603 6.98694 15.0375C7.05013 15.1288 7.15546 15.1709 7.26782 15.1709ZM7.61892 14.1528C7.66807 14.1528 7.67509 14.237 7.67509 14.2721C7.67509 14.4617 7.52763 14.7145 7.3591 14.8128C7.24675 14.876 7.24675 14.8409 7.23271 14.8339C7.22568 14.8269 7.20462 14.7988 7.20462 14.7286C7.20462 14.539 7.35208 14.2862 7.52061 14.1879C7.57678 14.1598 7.60487 14.1528 7.61892 14.1528Z" fill="#171753"/>
<path d="M2.81581 33.2598C2.81581 33.3932 2.9071 33.4424 3.01945 33.3792C3.1318 33.316 3.22309 33.1545 3.22309 33.0281C3.22309 32.8947 3.1318 32.8455 3.01945 32.9087C2.9071 32.9719 2.81581 33.1334 2.81581 33.2598ZM4.55727 32.2557C4.55727 32.3891 4.46598 32.5436 4.35363 32.6138C4.24128 32.677 4.14999 32.6278 4.14999 32.4944C4.14999 32.361 4.24128 32.2065 4.35363 32.1363C4.46598 32.0731 4.55727 32.1223 4.55727 32.2557ZM5.89145 31.4903C5.89145 31.6237 5.80017 31.7782 5.68781 31.8414C5.57546 31.9046 5.48417 31.8554 5.48417 31.722C5.48417 31.5886 5.57546 31.4341 5.68781 31.3639C5.80017 31.3007 5.89145 31.3569 5.89145 31.4903ZM7.21861 30.7179C7.21861 30.8513 7.12733 31.0058 7.01498 31.069C6.90262 31.1322 6.81134 31.083 6.81134 30.9496C6.81134 30.8162 6.90262 30.6617 7.01498 30.5915C7.12733 30.5353 7.21861 30.5915 7.21861 30.7179ZM8.55279 29.9525C8.55279 30.0859 8.46151 30.2404 8.34916 30.3036C8.2368 30.3668 8.14552 30.3176 8.14552 30.1842C8.14552 30.0508 8.2368 29.8963 8.34916 29.8261C8.46151 29.7699 8.55279 29.819 8.55279 29.9525ZM9.88697 29.18C9.88697 29.3134 9.79569 29.4679 9.68334 29.5311C9.57099 29.5943 9.4797 29.5452 9.4797 29.4118C9.4797 29.2783 9.57099 29.1239 9.68334 29.0536C9.79569 28.9975 9.88697 29.0536 9.88697 29.18ZM11.2141 28.4146C11.2141 28.5481 11.1228 28.7025 11.0105 28.7657C10.8981 28.8289 10.8069 28.7798 10.8069 28.6464C10.8069 28.5129 10.8981 28.3585 11.0105 28.2882C11.1228 28.2321 11.2141 28.2812 11.2141 28.4146ZM12.5483 27.6422C12.5483 27.7756 12.457 27.9301 12.3447 27.9933C12.2323 28.0565 12.141 28.0074 12.141 27.8739C12.141 27.7405 12.2323 27.586 12.3447 27.5158C12.457 27.4596 12.5483 27.5158 12.5483 27.6422ZM13.8755 26.8768C13.8755 27.0102 13.7842 27.1647 13.6718 27.2279C13.5595 27.2911 13.4682 27.242 13.4682 27.1085C13.4682 26.9751 13.5595 26.8206 13.6718 26.7504C13.7842 26.6942 13.8755 26.7434 13.8755 26.8768ZM15.2097 26.1044C15.2097 26.2378 15.1184 26.3923 15.006 26.4625C14.8937 26.5257 14.8024 26.4766 14.8024 26.3431C14.8024 26.2097 14.8937 26.0552 15.006 25.985C15.1184 25.9218 15.2097 25.978 15.2097 26.1044ZM16.5438 25.339C16.5438 25.4724 16.4526 25.6269 16.3402 25.6971C16.2279 25.7603 16.1366 25.7112 16.1366 25.5777C16.1366 25.4443 16.2279 25.2898 16.3402 25.2196C16.4526 25.1564 16.5438 25.2056 16.5438 25.339ZM17.871 24.5666C17.871 24.7 17.7797 24.8545 17.6674 24.9177C17.555 24.9809 17.4637 24.9317 17.4637 24.7983C17.4637 24.6649 17.555 24.5104 17.6674 24.4402C17.7797 24.384 17.871 24.4402 17.871 24.5666ZM19.2052 23.8012C19.2052 23.9346 19.1139 24.0891 19.0015 24.1523C18.8892 24.2155 18.7979 24.1663 18.7979 24.0329C18.7979 23.8995 18.8892 23.745 19.0015 23.6748C19.1139 23.6186 19.2052 23.6678 19.2052 23.8012ZM20.5323 23.0288C20.5323 23.1622 20.4411 23.3167 20.3287 23.3799C20.2164 23.4431 20.1251 23.3939 20.1251 23.2605C20.1251 23.1271 20.2164 22.9726 20.3287 22.9024C20.4411 22.8462 20.5323 22.9024 20.5323 23.0288ZM21.8665 22.2634C21.8665 22.3968 21.7752 22.5513 21.6629 22.6145C21.5505 22.6777 21.4592 22.6285 21.4592 22.4951C21.4592 22.3617 21.5505 22.2072 21.6629 22.137C21.7752 22.0808 21.8665 22.1299 21.8665 22.2634ZM23.2007 21.4909C23.2007 21.6243 23.1094 21.7788 22.9971 21.842C22.8847 21.9052 22.7934 21.8561 22.7934 21.7227C22.7934 21.5892 22.8847 21.4348 22.9971 21.3645C23.1094 21.3084 23.2007 21.3645 23.2007 21.4909ZM24.5279 20.7255C24.5279 20.859 24.4366 21.0134 24.3242 21.0766C24.2119 21.1398 24.1206 21.0907 24.1206 20.9573C24.1206 20.8238 24.2119 20.6694 24.3242 20.5991C24.4366 20.543 24.5279 20.5921 24.5279 20.7255ZM25.862 19.9531C25.862 20.0865 25.7708 20.241 25.6584 20.3042C25.5461 20.3674 25.4548 20.3183 25.4548 20.1848C25.4548 20.0514 25.5461 19.8969 25.6584 19.8267C25.7708 19.7705 25.862 19.8267 25.862 19.9531ZM26.9856 19.0683C27.0979 19.0051 27.1892 19.0543 27.1892 19.1877C27.1892 19.3211 27.0979 19.4756 26.9856 19.5458C26.8732 19.609 26.7819 19.5599 26.7819 19.4265C26.7819 19.293 26.8732 19.1386 26.9856 19.0683Z" fill="#171753"/>
<path d="M2.92822 33.5689C2.98439 33.5689 3.04759 33.5548 3.10377 33.5197C3.26527 33.4284 3.39167 33.2108 3.39167 33.0212C3.39167 32.7333 3.13186 32.649 2.94226 32.7614C2.78075 32.8526 2.65436 33.0703 2.65436 33.2599C2.65436 33.4636 2.7948 33.5689 2.92822 33.5689ZM4.2624 32.8035C4.31857 32.8035 4.38177 32.7894 4.43795 32.7543C4.59945 32.663 4.72585 32.4454 4.72585 32.2558C4.72585 31.9679 4.47306 31.8836 4.27644 31.996C4.11494 32.0943 3.98854 32.3049 3.98854 32.4945C3.98854 32.5788 4.0096 32.649 4.05876 32.7052C4.10089 32.7684 4.17813 32.8035 4.2624 32.8035ZM5.58956 32.0311C5.64573 32.0311 5.70893 32.017 5.76511 31.9819C5.92661 31.8906 6.05301 31.6729 6.05301 31.4833C6.05301 31.1954 5.80022 31.1112 5.6036 31.2235C5.44209 31.3218 5.3157 31.5325 5.3157 31.7221C5.3157 31.8064 5.33677 31.8766 5.38592 31.9328C5.43507 31.996 5.51231 32.0311 5.58956 32.0311ZM6.92374 31.2657C6.97991 31.2657 7.04311 31.2516 7.09929 31.2165C7.2608 31.1252 7.38719 30.9075 7.38719 30.7179C7.38719 30.43 7.1344 30.3458 6.93778 30.4581C6.77628 30.5494 6.64988 30.7671 6.64988 30.9567C6.64988 31.041 6.67095 31.1112 6.7201 31.1674C6.76926 31.2306 6.83947 31.2657 6.92374 31.2657ZM8.25792 30.4932C8.31409 30.4932 8.37729 30.4792 8.43347 30.4441C8.59498 30.3528 8.72137 30.1351 8.72137 29.9455C8.72137 29.6576 8.46858 29.5734 8.27196 29.6857C8.11046 29.777 7.98406 29.9947 7.98406 30.1843C7.98406 30.2685 8.00513 30.3388 8.05429 30.3949C8.09642 30.4581 8.17365 30.4932 8.25792 30.4932ZM9.58508 29.7278C9.64126 29.7278 9.70445 29.7138 9.76063 29.6787C9.92214 29.5874 10.0485 29.3697 10.0485 29.1801C10.0485 28.8922 9.78872 28.808 9.59913 28.9203C9.43762 29.0116 9.31122 29.2293 9.31122 29.4189C9.31122 29.5031 9.33229 29.5734 9.38144 29.6295C9.4306 29.6927 9.50082 29.7278 9.58508 29.7278ZM10.9193 28.9554C10.9754 28.9554 11.0386 28.9414 11.0948 28.9063C11.2563 28.808 11.3827 28.5973 11.3827 28.4077C11.3827 28.1198 11.1299 28.0355 10.9333 28.1479C10.7718 28.2392 10.6454 28.4569 10.6454 28.6465C10.6454 28.7307 10.6665 28.8009 10.7156 28.8571C10.7578 28.9203 10.835 28.9554 10.9193 28.9554ZM12.2464 28.19C12.3026 28.19 12.3658 28.176 12.422 28.1409C12.5835 28.0496 12.7099 27.8319 12.7099 27.6423C12.7099 27.3544 12.4501 27.2701 12.2605 27.3825C12.099 27.4738 11.9726 27.6915 11.9726 27.8811C11.9726 27.9653 11.9936 28.0355 12.0428 28.0917C12.0919 28.1549 12.1692 28.19 12.2464 28.19ZM13.5806 27.4246C13.6368 27.4246 13.7 27.4106 13.7562 27.3755C13.9177 27.2842 14.0441 27.0665 14.0441 26.8769C14.0441 26.589 13.7842 26.5047 13.5946 26.6171C13.4331 26.7084 13.3067 26.9261 13.3067 27.1157C13.3067 27.1999 13.3278 27.2701 13.377 27.3263C13.4261 27.3825 13.4963 27.4246 13.5806 27.4246ZM14.9148 26.6522C14.971 26.6522 15.0342 26.6382 15.0903 26.603C15.2518 26.5118 15.3782 26.2941 15.3782 26.1045C15.3782 25.8166 15.1254 25.7323 14.9288 25.8447C14.7673 25.936 14.6409 26.1536 14.6409 26.3432C14.6409 26.4275 14.662 26.4977 14.7111 26.5539C14.7533 26.6171 14.8305 26.6522 14.9148 26.6522ZM16.2419 25.8868C16.2981 25.8868 16.3613 25.8728 16.4175 25.8377C16.579 25.7464 16.7054 25.5287 16.7054 25.3391C16.7054 25.0512 16.4526 24.9669 16.256 25.0793C16.0945 25.1706 15.9681 25.3882 15.9681 25.5778C15.9681 25.6621 15.9892 25.7323 16.0383 25.7885C16.0875 25.8517 16.1577 25.8868 16.2419 25.8868ZM17.5761 25.1144C17.6323 25.1144 17.6955 25.1003 17.7517 25.0652C17.9132 24.9739 18.0396 24.7563 18.0396 24.5667C18.0396 24.2788 17.7868 24.1945 17.5902 24.3069C17.4287 24.3981 17.3023 24.6158 17.3023 24.8054C17.3023 24.8897 17.3233 24.9599 17.3725 25.0161C17.4146 25.0793 17.4919 25.1144 17.5761 25.1144ZM18.9033 24.349C18.9595 24.349 19.0227 24.3349 19.0788 24.2998C19.2403 24.2085 19.3667 23.9909 19.3667 23.8013C19.3667 23.5134 19.1069 23.4291 18.9173 23.5415C18.7558 23.6327 18.6294 23.8504 18.6294 24.04C18.6294 24.1243 18.6505 24.1945 18.6996 24.2507C18.7488 24.3139 18.826 24.349 18.9033 24.349ZM20.2375 23.5766C20.2936 23.5766 20.3568 23.5625 20.413 23.5274C20.5745 23.4361 20.7009 23.2184 20.7009 23.0288C20.7009 22.7409 20.4411 22.6567 20.2515 22.769C20.09 22.8603 19.9636 23.078 19.9636 23.2676C19.9636 23.3519 19.9847 23.4221 20.0338 23.4783C20.083 23.5415 20.1532 23.5766 20.2375 23.5766ZM21.5717 22.8112C21.6278 22.8112 21.691 22.7971 21.7472 22.762C21.9087 22.6637 22.0351 22.453 22.0351 22.2634C22.0351 21.9755 21.7823 21.8913 21.5857 22.0036C21.4242 22.0949 21.2978 22.3126 21.2978 22.5022C21.2978 22.5865 21.3189 22.6567 21.368 22.7129C21.4101 22.7761 21.4874 22.8112 21.5717 22.8112ZM22.8988 22.0387C22.955 22.0387 23.0182 22.0247 23.0744 21.9896C23.2359 21.8983 23.3623 21.6806 23.3623 21.491C23.3623 21.2031 23.1095 21.1189 22.9129 21.2312C22.7513 21.3225 22.625 21.5402 22.625 21.7298C22.625 21.814 22.646 21.8843 22.6952 21.9404C22.7443 22.0036 22.8145 22.0387 22.8988 22.0387ZM24.233 21.2733C24.2892 21.2733 24.3524 21.2593 24.4085 21.2242C24.57 21.1329 24.6964 20.9152 24.6964 20.7256C24.6964 20.4377 24.4437 20.3535 24.247 20.4658C24.0855 20.5571 23.9591 20.7748 23.9591 20.9644C23.9591 21.0486 23.9802 21.1189 24.0294 21.175C24.0715 21.2382 24.1487 21.2733 24.233 21.2733ZM25.5672 20.5009C25.6234 20.5009 25.6865 20.4869 25.7427 20.4518C25.9042 20.3605 26.0306 20.1428 26.0306 19.9532C26.0306 19.6653 25.7708 19.581 25.5812 19.6934C25.4197 19.7847 25.2933 20.0024 25.2933 20.192C25.2933 20.2762 25.3144 20.3464 25.3635 20.4026C25.4057 20.4658 25.4829 20.5009 25.5672 20.5009ZM26.8943 19.7355C26.9505 19.7355 27.0137 19.7215 27.0699 19.6864C27.2314 19.5951 27.3578 19.3774 27.3578 19.1878C27.3578 18.8999 27.105 18.8156 26.9084 18.928C26.7469 19.0263 26.6205 19.237 26.6205 19.4266C26.6205 19.5108 26.6415 19.581 26.6907 19.6372C26.7399 19.7004 26.8101 19.7355 26.8943 19.7355Z" fill="#171753"/>
<path d="M2.69641 32.4172C2.7245 32.4172 2.75258 32.4102 2.78067 32.3962L3.42669 32.024C3.50394 31.9819 3.53203 31.8766 3.4899 31.7993C3.44777 31.7221 3.34243 31.694 3.26519 31.7361L2.61916 32.1083C2.54192 32.1504 2.51384 32.2557 2.55597 32.333C2.58406 32.3892 2.64023 32.4172 2.69641 32.4172ZM4.03059 31.6518C4.05868 31.6518 4.08676 31.6448 4.11485 31.6308L4.76088 31.2586C4.83812 31.2165 4.86621 31.1112 4.82408 31.0339C4.77492 30.9567 4.67661 30.9286 4.59937 30.9707L3.95335 31.3429C3.8761 31.385 3.84802 31.4903 3.89015 31.5676C3.91824 31.6167 3.97441 31.6518 4.03059 31.6518ZM2.69641 31.5746C2.7245 31.5746 2.75258 31.5676 2.78067 31.5535L3.42669 31.1814C3.50394 31.1392 3.53203 31.0339 3.4899 30.9567C3.44074 30.8794 3.34243 30.8513 3.26519 30.8935L2.61916 31.2656C2.54192 31.3078 2.51384 31.4131 2.55597 31.4903C2.58406 31.5465 2.64023 31.5746 2.69641 31.5746ZM5.35775 30.8794C5.38584 30.8794 5.41393 30.8724 5.44201 30.8584L6.08804 30.4862C6.16528 30.4441 6.19337 30.3387 6.15124 30.2615C6.10208 30.1842 6.00378 30.1562 5.92653 30.1983L5.28051 30.5705C5.20327 30.6126 5.17518 30.7179 5.21731 30.7952C5.25242 30.8513 5.30157 30.8794 5.35775 30.8794ZM4.03059 30.8092C4.05868 30.8092 4.08676 30.8022 4.11485 30.7881L4.76088 30.416C4.83812 30.3738 4.86621 30.2685 4.82408 30.1913C4.77492 30.114 4.67661 30.0859 4.59937 30.1281L3.95335 30.5002C3.8761 30.5424 3.84802 30.6477 3.89015 30.7249C3.91824 30.7811 3.97441 30.8092 4.03059 30.8092ZM2.69641 30.732C2.7245 30.732 2.75258 30.7249 2.78067 30.7109L3.42669 30.3387C3.50394 30.2966 3.53203 30.1913 3.4899 30.114C3.44074 30.0368 3.34243 30.0087 3.26519 30.0508L2.61916 30.423C2.54192 30.4651 2.51384 30.5705 2.55597 30.6477C2.58406 30.7039 2.64023 30.732 2.69641 30.732ZM6.69193 30.114C6.72002 30.114 6.74811 30.107 6.7762 30.093L7.42222 29.7208C7.49946 29.6787 7.52755 29.5733 7.48542 29.4961C7.43626 29.4188 7.33796 29.3908 7.26072 29.4329L6.61469 29.8051C6.53745 29.8472 6.50936 29.9525 6.55149 30.0298C6.57958 30.0789 6.63576 30.114 6.69193 30.114ZM5.35775 30.0368C5.38584 30.0368 5.41393 30.0298 5.44201 30.0157L6.08804 29.6436C6.16528 29.6014 6.19337 29.4961 6.15124 29.4188C6.1091 29.3416 6.00378 29.3135 5.92653 29.3557L5.28051 29.7278C5.20327 29.7699 5.17518 29.8753 5.21731 29.9525C5.25242 30.0087 5.30157 30.0368 5.35775 30.0368ZM4.03059 29.9666C4.05868 29.9666 4.08676 29.9595 4.11485 29.9455L4.76088 29.5733C4.83812 29.5312 4.86621 29.4259 4.82408 29.3486C4.77492 29.2714 4.67661 29.2433 4.59937 29.2854L3.95335 29.6576C3.8761 29.6997 3.84802 29.8051 3.89015 29.8823C3.91824 29.9385 3.97441 29.9666 4.03059 29.9666ZM2.69641 29.8963C2.7245 29.8963 2.75258 29.8893 2.78067 29.8753L3.42669 29.5031C3.50394 29.461 3.53203 29.3557 3.4899 29.2784C3.44074 29.2012 3.34243 29.1731 3.26519 29.2152L2.61916 29.5874C2.54192 29.6295 2.51384 29.7348 2.55597 29.8121C2.58406 29.8612 2.64023 29.8963 2.69641 29.8963ZM8.02611 29.3416C8.0542 29.3416 8.08229 29.3346 8.11038 29.3205L8.7564 28.9484C8.83365 28.9062 8.86173 28.8009 8.8196 28.7237C8.77044 28.6464 8.67214 28.6183 8.5949 28.6605L7.94887 29.0326C7.87163 29.0748 7.84354 29.1801 7.88567 29.2573C7.91376 29.3135 7.96994 29.3416 8.02611 29.3416ZM6.69193 29.2714C6.72002 29.2714 6.74811 29.2644 6.7762 29.2503L7.42222 28.8782C7.49946 28.836 7.52755 28.7307 7.48542 28.6535C7.43626 28.5762 7.33796 28.5481 7.26072 28.5903L6.61469 28.9624C6.53745 29.0046 6.50936 29.1099 6.55149 29.1871C6.57958 29.2433 6.63576 29.2714 6.69193 29.2714ZM5.35775 29.2012C5.38584 29.2012 5.41393 29.1941 5.44201 29.1801L6.08804 28.8079C6.16528 28.7658 6.19337 28.6605 6.15124 28.5832C6.1091 28.506 6.00378 28.4779 5.92653 28.52L5.28051 28.8922C5.20327 28.9343 5.17518 29.0397 5.21731 29.1169C5.25242 29.1661 5.30157 29.2012 5.35775 29.2012ZM4.03059 29.1239C4.05868 29.1239 4.08676 29.1169 4.11485 29.1029L4.76088 28.7307C4.83812 28.6886 4.86621 28.5832 4.82408 28.506C4.77492 28.4287 4.67661 28.4007 4.59937 28.4428L3.95335 28.815C3.8761 28.8571 3.84802 28.9624 3.89015 29.0397C3.91824 29.0958 3.97441 29.1239 4.03059 29.1239ZM2.69641 29.0537C2.7245 29.0537 2.75258 29.0467 2.78067 29.0326L3.42669 28.6605C3.50394 28.6183 3.53203 28.513 3.4899 28.4358C3.44777 28.3585 3.34243 28.3304 3.26519 28.3726L2.61916 28.7447C2.54192 28.7869 2.51384 28.8922 2.55597 28.9694C2.58406 29.0256 2.64023 29.0537 2.69641 29.0537ZM9.35327 28.5762C9.38136 28.5762 9.40945 28.5692 9.43754 28.5551L10.0836 28.183C10.1608 28.1408 10.1889 28.0355 10.1468 27.9583C10.1046 27.881 9.9993 27.8529 9.92205 27.8951L9.27603 28.2672C9.19879 28.3094 9.1707 28.4147 9.21284 28.4919C9.24092 28.5481 9.2971 28.5762 9.35327 28.5762ZM8.02611 28.499C8.0542 28.499 8.08229 28.4919 8.11038 28.4779L8.7564 28.1057C8.83365 28.0636 8.86173 27.9583 8.8196 27.881C8.77747 27.8038 8.67214 27.7757 8.5949 27.8178L7.94887 28.19C7.87163 28.2321 7.84354 28.3375 7.88567 28.4147C7.91376 28.4709 7.96994 28.499 8.02611 28.499ZM6.69193 28.4287C6.72002 28.4287 6.74811 28.4217 6.7762 28.4077L7.42222 28.0355C7.49946 27.9934 7.52755 27.8881 7.48542 27.8108C7.44328 27.7336 7.33796 27.7055 7.26072 27.7476L6.61469 28.1198C6.53745 28.1619 6.50936 28.2672 6.55149 28.3445C6.57958 28.4007 6.63576 28.4287 6.69193 28.4287ZM5.35775 28.3585C5.38584 28.3585 5.41393 28.3515 5.44201 28.3375L6.08804 27.9653C6.16528 27.9232 6.19337 27.8178 6.15124 27.7406C6.1091 27.6633 6.00378 27.6353 5.92653 27.6774L5.28051 28.0496C5.20327 28.0917 5.17518 28.197 5.21731 28.2743C5.25242 28.3304 5.30157 28.3585 5.35775 28.3585ZM4.03059 28.2813C4.05868 28.2813 4.08676 28.2743 4.11485 28.2602L4.76088 27.8881C4.83812 27.8459 4.86621 27.7406 4.82408 27.6633C4.77492 27.5861 4.67661 27.558 4.59937 27.6001L3.95335 27.9723C3.8761 28.0144 3.84802 28.1198 3.89015 28.197C3.91824 28.2532 3.97441 28.2813 4.03059 28.2813ZM2.69641 28.2111C2.7245 28.2111 2.75258 28.204 2.78067 28.19L3.42669 27.8178C3.50394 27.7757 3.53203 27.6704 3.4899 27.5931C3.44777 27.5159 3.34243 27.4878 3.26519 27.5299L2.61916 27.9021C2.54192 27.9442 2.51384 28.0496 2.55597 28.1268C2.58406 28.183 2.64023 28.2111 2.69641 28.2111ZM10.6875 27.8038C10.7155 27.8038 10.7436 27.7968 10.7717 27.7827L11.4177 27.4106C11.495 27.3684 11.5231 27.2631 11.4809 27.1859C11.4318 27.1086 11.3335 27.0805 11.2562 27.1227L10.6102 27.4948C10.533 27.537 10.5049 27.6423 10.547 27.7195C10.5751 27.7757 10.6313 27.8038 10.6875 27.8038ZM9.35327 27.7336C9.38136 27.7336 9.40945 27.7265 9.43754 27.7125L10.0836 27.3403C10.1608 27.2982 10.1889 27.1929 10.1468 27.1156C10.1046 27.0384 9.9993 27.0103 9.92205 27.0524L9.27603 27.4246C9.19879 27.4667 9.1707 27.5721 9.21284 27.6493C9.24092 27.7055 9.2971 27.7336 9.35327 27.7336ZM8.02611 27.6633C8.0542 27.6633 8.08229 27.6563 8.11038 27.6423L8.7564 27.2701C8.83365 27.228 8.86173 27.1227 8.8196 27.0454C8.77044 26.9682 8.67214 26.9401 8.5949 26.9822L7.94887 27.3544C7.87163 27.3965 7.84354 27.5018 7.88567 27.5791C7.91376 27.6282 7.96994 27.6633 8.02611 27.6633ZM6.69193 27.5861C6.72002 27.5861 6.74811 27.5791 6.7762 27.565L7.42222 27.1929C7.49946 27.1507 7.52755 27.0454 7.48542 26.9682C7.44328 26.8909 7.33796 26.8628 7.26072 26.905L6.61469 27.2771C6.53745 27.3193 6.50936 27.4246 6.55149 27.5018C6.57958 27.558 6.63576 27.5861 6.69193 27.5861ZM5.35775 27.5159C5.38584 27.5159 5.41393 27.5089 5.44201 27.4948L6.08804 27.1227C6.16528 27.0805 6.19337 26.9752 6.15124 26.8979C6.10208 26.8207 6.00378 26.7926 5.92653 26.8348L5.28051 27.2069C5.20327 27.2491 5.17518 27.3544 5.21731 27.4316C5.25242 27.4878 5.30157 27.5159 5.35775 27.5159ZM2.69641 27.3684C2.7245 27.3684 2.75258 27.3614 2.78067 27.3474L3.42669 26.9752C3.50394 26.9331 3.53203 26.8277 3.4899 26.7505C3.44777 26.6732 3.34243 26.6452 3.26519 26.6873L2.61916 27.0595C2.54192 27.1016 2.51384 27.2069 2.55597 27.2842C2.58406 27.3403 2.64023 27.3684 2.69641 27.3684ZM12.0216 27.0384C12.0497 27.0384 12.0778 27.0314 12.1059 27.0173L12.7519 26.6452C12.8292 26.603 12.8573 26.4977 12.8151 26.4205C12.766 26.3432 12.6677 26.3151 12.5904 26.3573L11.9444 26.7294C11.8672 26.7716 11.8391 26.8769 11.8812 26.9541C11.9093 27.0103 11.9655 27.0384 12.0216 27.0384ZM10.6875 26.9611C10.7155 26.9611 10.7436 26.9541 10.7717 26.9401L11.4177 26.5679C11.495 26.5258 11.5231 26.4205 11.4809 26.3432C11.4388 26.266 11.3335 26.2379 11.2562 26.28L10.6102 26.6522C10.533 26.6943 10.5049 26.7996 10.547 26.8769C10.5751 26.9331 10.6313 26.9611 10.6875 26.9611ZM9.35327 26.8909C9.38136 26.8909 9.40945 26.8839 9.43754 26.8699L10.0836 26.4977C10.1608 26.4556 10.1889 26.3502 10.1468 26.273C10.0976 26.1957 9.9993 26.1677 9.92205 26.2098L9.27603 26.582C9.19879 26.6241 9.1707 26.7294 9.21284 26.8067C9.24092 26.8628 9.2971 26.8909 9.35327 26.8909ZM6.69193 26.7505C6.72002 26.7505 6.74811 26.7435 6.7762 26.7294L7.42222 26.3573C7.49946 26.3151 7.52755 26.2098 7.48542 26.1326C7.44328 26.0553 7.33796 26.0272 7.26072 26.0694L6.61469 26.4415C6.53745 26.4836 6.50936 26.589 6.55149 26.6662C6.57958 26.7154 6.63576 26.7505 6.69193 26.7505ZM5.35775 26.6732C5.38584 26.6732 5.41393 26.6662 5.44201 26.6522L6.08804 26.28C6.16528 26.2379 6.19337 26.1325 6.15124 26.0553C6.10208 25.9781 6.00378 25.95 5.92653 25.9921L5.28051 26.3643C5.20327 26.4064 5.17518 26.5117 5.21731 26.589C5.25242 26.6452 5.30157 26.6732 5.35775 26.6732ZM2.69641 26.5328C2.7245 26.5328 2.75258 26.5258 2.78067 26.5117L3.42669 26.1396C3.50394 26.0974 3.53203 25.9921 3.4899 25.9149C3.44777 25.8376 3.34243 25.8095 3.26519 25.8517L2.61916 26.2238C2.54192 26.266 2.51384 26.3713 2.55597 26.4485C2.58406 26.4977 2.64023 26.5328 2.69641 26.5328ZM13.3488 26.266C13.3769 26.266 13.405 26.2589 13.4331 26.2449L14.0791 25.8727C14.1563 25.8306 14.1844 25.7253 14.1423 25.648C14.1002 25.5708 13.9948 25.5427 13.9176 25.5848L13.2716 25.957C13.1943 25.9991 13.1662 26.1045 13.2084 26.1817C13.2364 26.2379 13.2926 26.266 13.3488 26.266ZM12.0216 26.1957C12.0497 26.1957 12.0778 26.1887 12.1059 26.1747L12.7519 25.8025C12.8292 25.7604 12.8573 25.6551 12.8151 25.5778C12.766 25.5006 12.6677 25.4725 12.5904 25.5146L11.9444 25.8868C11.8672 25.9289 11.8391 26.0342 11.8812 26.1115C11.9093 26.1677 11.9655 26.1957 12.0216 26.1957ZM10.6875 26.1255C10.7155 26.1255 10.7436 26.1185 10.7717 26.1045L11.4177 25.7323C11.495 25.6902 11.5231 25.5848 11.4809 25.5076C11.4318 25.4303 11.3335 25.4023 11.2562 25.4444L10.6102 25.8166C10.533 25.8587 10.5049 25.964 10.547 26.0413C10.5751 26.0974 10.6313 26.1255 10.6875 26.1255ZM9.35327 26.0483C9.38136 26.0483 9.40945 26.0413 9.43754 26.0272L10.0836 25.6551C10.1608 25.6129 10.1889 25.5076 10.1468 25.4304C10.0976 25.3531 9.9993 25.325 9.92205 25.3671L9.27603 25.7393C9.19879 25.7814 9.1707 25.8868 9.21284 25.964C9.24092 26.0202 9.2971 26.0483 9.35327 26.0483ZM6.69193 25.9078C6.72002 25.9078 6.74811 25.9008 6.7762 25.8868L7.42222 25.5146C7.49946 25.4725 7.52755 25.3672 7.48542 25.2899C7.44328 25.2127 7.33796 25.1846 7.26072 25.2267L6.61469 25.5989C6.53745 25.641 6.50936 25.7463 6.55149 25.8236C6.57958 25.8798 6.63576 25.9078 6.69193 25.9078ZM5.35775 25.8306C5.38584 25.8306 5.41393 25.8236 5.44201 25.8095L6.08804 25.4374C6.16528 25.3952 6.19337 25.2899 6.15124 25.2127C6.10208 25.1354 6.00378 25.1073 5.92653 25.1495L5.28051 25.5216C5.20327 25.5638 5.17518 25.6691 5.21731 25.7463C5.25242 25.8025 5.30157 25.8306 5.35775 25.8306ZM2.69641 25.6902C2.7245 25.6902 2.75258 25.6831 2.78067 25.6691L3.42669 25.2969C3.50394 25.2548 3.53203 25.1495 3.4899 25.0722C3.44777 24.995 3.34243 24.9669 3.26519 25.009L2.61916 25.3812C2.54192 25.4233 2.51384 25.5287 2.55597 25.6059C2.58406 25.6621 2.64023 25.6902 2.69641 25.6902ZM14.683 25.5006C14.7111 25.5006 14.7392 25.4935 14.7672 25.4795L15.4133 25.1073C15.4905 25.0652 15.5186 24.9599 15.4765 24.8826C15.4273 24.8054 15.329 24.7773 15.2518 24.8194L14.6057 25.1916C14.5285 25.2337 14.5004 25.3391 14.5425 25.4163C14.5706 25.4725 14.6268 25.5006 14.683 25.5006ZM13.3488 25.4233C13.3769 25.4233 13.405 25.4163 13.4331 25.4023L14.0791 25.0301C14.1563 24.988 14.1844 24.8826 14.1423 24.8054C14.0931 24.7281 13.9948 24.7001 13.9176 24.7422L13.2716 25.1144C13.1943 25.1565 13.1662 25.2618 13.2084 25.3391C13.2364 25.3952 13.2926 25.4233 13.3488 25.4233ZM12.0216 25.3531C12.0497 25.3531 12.0778 25.3461 12.1059 25.332L12.7519 24.9599C12.8292 24.9177 12.8573 24.8124 12.8151 24.7352C12.773 24.6579 12.6677 24.6298 12.5904 24.672L11.9444 25.0441C11.8672 25.0863 11.8391 25.1916 11.8812 25.2688C11.9093 25.325 11.9655 25.3531 12.0216 25.3531ZM10.6875 25.2829C10.7155 25.2829 10.7436 25.2759 10.7717 25.2618L11.4177 24.8897C11.495 24.8475 11.5231 24.7422 11.4809 24.6649C11.4318 24.5877 11.3335 24.5596 11.2562 24.6017L10.6102 24.9739C10.533 25.0161 10.5049 25.1214 10.547 25.1986C10.5751 25.2548 10.6313 25.2829 10.6875 25.2829ZM9.35327 25.2127C9.38136 25.2127 9.40945 25.2056 9.43754 25.1916L10.0836 24.8194C10.1608 24.7773 10.1889 24.672 10.1468 24.5947C10.0976 24.5175 9.9993 24.4894 9.92205 24.5315L9.27603 24.9037C9.19879 24.9458 9.1707 25.0512 9.21284 25.1284C9.24092 25.1776 9.2971 25.2127 9.35327 25.2127ZM6.69193 25.0652C6.72002 25.0652 6.74811 25.0582 6.7762 25.0441L7.42222 24.672C7.49946 24.6298 7.52755 24.5245 7.48542 24.4473C7.44328 24.37 7.33796 24.3419 7.26072 24.3841L6.61469 24.7562C6.53745 24.7984 6.50936 24.9037 6.55149 24.9809C6.57958 25.0371 6.63576 25.0652 6.69193 25.0652ZM5.35775 24.995C5.38584 24.995 5.41393 24.988 5.44201 24.9739L6.08804 24.6017C6.16528 24.5596 6.19337 24.4543 6.15124 24.377C6.10208 24.2998 6.00378 24.2717 5.92653 24.3138L5.28051 24.686C5.20327 24.7281 5.17518 24.8335 5.21731 24.9107C5.25242 24.9669 5.30157 24.995 5.35775 24.995ZM2.69641 24.8475C2.7245 24.8475 2.75258 24.8405 2.78067 24.8265L3.42669 24.4543C3.50394 24.4122 3.53203 24.3068 3.4899 24.2296C3.44777 24.1523 3.34243 24.1243 3.26519 24.1664L2.61916 24.5386C2.54192 24.5807 2.51384 24.686 2.55597 24.7633C2.58406 24.8194 2.64023 24.8475 2.69641 24.8475ZM16.0101 24.7281C16.0382 24.7281 16.0663 24.7211 16.0944 24.7071L16.7404 24.3349C16.8177 24.2928 16.8458 24.1874 16.8036 24.1102C16.7615 24.033 16.6562 24.0049 16.5789 24.047L15.9329 24.4192C15.8557 24.4613 15.8276 24.5666 15.8697 24.6439C15.9048 24.7001 15.954 24.7281 16.0101 24.7281ZM13.3488 24.5877C13.3769 24.5877 13.405 24.5807 13.4331 24.5666L14.0791 24.1945C14.1563 24.1523 14.1844 24.047 14.1423 23.9698C14.0931 23.8925 13.9948 23.8644 13.9176 23.9066L13.2716 24.2787C13.1943 24.3209 13.1662 24.4262 13.2084 24.5034C13.2364 24.5596 13.2926 24.5877 13.3488 24.5877ZM12.0216 24.5105C12.0497 24.5105 12.0778 24.5034 12.1059 24.4894L12.7519 24.1172C12.8292 24.0751 12.8573 23.9698 12.8151 23.8925C12.773 23.8153 12.6677 23.7872 12.5904 23.8293L11.9444 24.2015C11.8672 24.2436 11.8391 24.349 11.8812 24.4262C11.9093 24.4824 11.9655 24.5105 12.0216 24.5105ZM10.6875 24.4402C10.7155 24.4402 10.7436 24.4332 10.7717 24.4192L11.4177 24.047C11.495 24.0049 11.5231 23.8995 11.4809 23.8223C11.4318 23.7451 11.3335 23.717 11.2562 23.7591L10.6102 24.1313C10.533 24.1734 10.5049 24.2787 10.547 24.356C10.5751 24.4122 10.6313 24.4402 10.6875 24.4402ZM9.35327 24.37C9.38136 24.37 9.40945 24.363 9.43754 24.349L10.0836 23.9768C10.1608 23.9347 10.1889 23.8293 10.1468 23.7521C10.0976 23.6748 9.9993 23.6468 9.92205 23.6889L9.27603 24.0611C9.19879 24.1032 9.1707 24.2085 9.21284 24.2858C9.24092 24.3419 9.2971 24.37 9.35327 24.37ZM6.69193 24.2226C6.72002 24.2226 6.74811 24.2155 6.7762 24.2015L7.42222 23.8293C7.49946 23.7872 7.52755 23.6819 7.48542 23.6046C7.44328 23.5274 7.33796 23.4993 7.26072 23.5414L6.61469 23.9136C6.53745 23.9557 6.50936 24.0611 6.55149 24.1383C6.57958 24.1945 6.63576 24.2226 6.69193 24.2226ZM5.35775 24.1523C5.38584 24.1523 5.41393 24.1453 5.44201 24.1313L6.08804 23.7591C6.16528 23.717 6.19337 23.6116 6.15124 23.5344C6.10208 23.4572 6.00378 23.4291 5.92653 23.4712L5.28051 23.8434C5.20327 23.8855 5.17518 23.9908 5.21731 24.0681C5.25242 24.1243 5.30157 24.1523 5.35775 24.1523ZM2.69641 24.0049C2.7245 24.0049 2.75258 23.9979 2.78067 23.9838L3.42669 23.6116C3.50394 23.5695 3.53203 23.4642 3.4899 23.3869C3.44777 23.3097 3.34243 23.2816 3.26519 23.3237L2.61916 23.6959C2.54192 23.738 2.51384 23.8434 2.55597 23.9206C2.58406 23.9768 2.64023 24.0049 2.69641 24.0049ZM17.3443 23.9627C17.3724 23.9627 17.4005 23.9557 17.4286 23.9417L18.0746 23.5695C18.1519 23.5274 18.1799 23.4221 18.1378 23.3448C18.0887 23.2676 17.9903 23.2395 17.9131 23.2816L17.2671 23.6538C17.1898 23.6959 17.1617 23.8012 17.2039 23.8785C17.232 23.9347 17.2881 23.9627 17.3443 23.9627ZM16.0101 23.8925C16.0382 23.8925 16.0663 23.8855 16.0944 23.8715L16.7404 23.4993C16.8177 23.4572 16.8458 23.3518 16.8036 23.2746C16.7615 23.1973 16.6562 23.1693 16.5789 23.2114L15.9329 23.5836C15.8557 23.6257 15.8276 23.731 15.8697 23.8083C15.9048 23.8574 15.954 23.8925 16.0101 23.8925ZM13.3488 23.7451C13.3769 23.7451 13.405 23.738 13.4331 23.724L14.0791 23.3518C14.1563 23.3097 14.1844 23.2044 14.1423 23.1271C14.0931 23.0499 13.9948 23.0218 13.9176 23.0639L13.2716 23.4361C13.1943 23.4782 13.1662 23.5836 13.2084 23.6608C13.2364 23.717 13.2926 23.7451 13.3488 23.7451ZM12.0216 23.6748C12.0497 23.6748 12.0778 23.6678 12.1059 23.6538L12.7519 23.2816C12.8292 23.2395 12.8573 23.1341 12.8151 23.0569C12.773 22.9797 12.6677 22.9516 12.5904 22.9937L11.9444 23.3659C11.8672 23.408 11.8391 23.5133 11.8812 23.5906C11.9093 23.6468 11.9655 23.6748 12.0216 23.6748ZM10.6875 23.5976C10.7155 23.5976 10.7436 23.5906 10.7717 23.5765L11.4177 23.2044C11.495 23.1622 11.5231 23.0569 11.4809 22.9797C11.4318 22.9024 11.3335 22.8743 11.2562 22.9165L10.6102 23.2886C10.533 23.3308 10.5049 23.4361 10.547 23.5133C10.5751 23.5695 10.6313 23.5976 10.6875 23.5976ZM9.35327 23.5274C9.38136 23.5274 9.40945 23.5204 9.43754 23.5063L10.0836 23.1342C10.1608 23.092 10.1889 22.9867 10.1468 22.9094C10.0976 22.8322 9.9993 22.8041 9.92205 22.8462L9.27603 23.2184C9.19879 23.2605 9.1707 23.3659 9.21284 23.4431C9.24092 23.4993 9.2971 23.5274 9.35327 23.5274ZM6.69193 23.3799C6.72002 23.3799 6.74811 23.3729 6.7762 23.3589L7.42222 22.9867C7.49946 22.9446 7.52755 22.8392 7.48542 22.762C7.43626 22.6847 7.33796 22.6567 7.26072 22.6988L6.61469 23.071C6.53745 23.1131 6.50936 23.2184 6.55149 23.2957C6.57958 23.3518 6.63576 23.3799 6.69193 23.3799ZM18.6785 23.1903C18.7066 23.1903 18.7347 23.1833 18.7628 23.1693L19.4088 22.7971C19.486 22.755 19.5141 22.6496 19.472 22.5724C19.4228 22.4951 19.3245 22.4671 19.2473 22.5092L18.6013 22.8814C18.524 22.9235 18.4959 23.0288 18.5381 23.1061C18.5662 23.1622 18.6223 23.1903 18.6785 23.1903ZM2.69641 23.1693C2.7245 23.1693 2.75258 23.1622 2.78067 23.1482L3.42669 22.776C3.50394 22.7339 3.53203 22.6286 3.4899 22.5513C3.44074 22.4741 3.34243 22.446 3.26519 22.4881L2.61916 22.8603C2.54192 22.9024 2.51384 23.0078 2.55597 23.085C2.58406 23.1342 2.64023 23.1693 2.69641 23.1693ZM17.3443 23.1201C17.3724 23.1201 17.4005 23.1131 17.4286 23.099L18.0746 22.7269C18.1519 22.6847 18.1799 22.5794 18.1378 22.5022C18.0957 22.4249 17.9903 22.3968 17.9131 22.439L17.2671 22.8111C17.1898 22.8533 17.1617 22.9586 17.2039 23.0358C17.232 23.092 17.2881 23.1201 17.3443 23.1201ZM16.0101 23.0499C16.0382 23.0499 16.0663 23.0429 16.0944 23.0288L16.7404 22.6567C16.8177 22.6145 16.8458 22.5092 16.8036 22.4319C16.7545 22.3547 16.6562 22.3266 16.5789 22.3688L15.9329 22.7409C15.8557 22.783 15.8276 22.8884 15.8697 22.9656C15.9048 23.0218 15.954 23.0499 16.0101 23.0499ZM12.0216 22.8322C12.0497 22.8322 12.0778 22.8252 12.1059 22.8111L12.7519 22.439C12.8292 22.3968 12.8573 22.2915 12.8151 22.2143C12.773 22.137 12.6677 22.1089 12.5904 22.1511L11.9444 22.5232C11.8672 22.5654 11.8391 22.6707 11.8812 22.7479C11.9093 22.8041 11.9655 22.8322 12.0216 22.8322ZM9.35327 22.6847C9.38136 22.6847 9.40945 22.6777 9.43754 22.6637L10.0836 22.2915C10.1608 22.2494 10.1889 22.144 10.1468 22.0668C10.0976 21.9896 9.9993 21.9615 9.92205 22.0036L9.27603 22.3758C9.19879 22.4179 9.1707 22.5232 9.21284 22.6005C9.24092 22.6567 9.2971 22.6847 9.35327 22.6847ZM6.69193 22.5443C6.72002 22.5443 6.74811 22.5373 6.7762 22.5232L7.42222 22.1511C7.49946 22.1089 7.52755 22.0036 7.48542 21.9264C7.43626 21.8491 7.33796 21.821 7.26072 21.8632L6.61469 22.2353C6.53745 22.2775 6.50936 22.3828 6.55149 22.46C6.57958 22.5162 6.63576 22.5443 6.69193 22.5443ZM20.0057 22.4249C20.0338 22.4249 20.0618 22.4179 20.0899 22.4039L20.736 22.0317C20.8132 21.9896 20.8413 21.8842 20.7992 21.807C20.757 21.7297 20.6517 21.7017 20.5744 21.7438L19.9284 22.116C19.8512 22.1581 19.8231 22.2634 19.8652 22.3407C19.8933 22.3968 19.9495 22.4249 20.0057 22.4249ZM18.6785 22.3547C18.7066 22.3547 18.7347 22.3477 18.7628 22.3336L19.4088 21.9615C19.486 21.9193 19.5141 21.814 19.472 21.7368C19.4228 21.6595 19.3245 21.6314 19.2473 21.6736L18.6013 22.0457C18.524 22.0879 18.4959 22.1932 18.5381 22.2704C18.5662 22.3196 18.6223 22.3547 18.6785 22.3547ZM2.69641 22.3266C2.7245 22.3266 2.75258 22.3196 2.78067 22.3056L3.42669 21.9334C3.50394 21.8913 3.53203 21.7859 3.4899 21.7087C3.44074 21.6314 3.34243 21.6034 3.26519 21.6455L2.61916 22.0176C2.54192 22.0598 2.51384 22.1651 2.55597 22.2424C2.58406 22.2985 2.64023 22.3266 2.69641 22.3266ZM17.3443 22.2775C17.3724 22.2775 17.4005 22.2704 17.4286 22.2564L18.0746 21.8842C18.1519 21.8421 18.1799 21.7368 18.1378 21.6595C18.0957 21.5823 17.9903 21.5542 17.9131 21.5963L17.2671 21.9685C17.1898 22.0106 17.1617 22.116 17.2039 22.1932C17.232 22.2494 17.2881 22.2775 17.3443 22.2775ZM16.0101 22.2072C16.0382 22.2072 16.0663 22.2002 16.0944 22.1862L16.7404 21.814C16.8177 21.7719 16.8458 21.6666 16.8036 21.5893C16.7545 21.5121 16.6562 21.484 16.5789 21.5261L15.9329 21.8983C15.8557 21.9404 15.8276 22.0457 15.8697 22.123C15.9048 22.1792 15.954 22.2072 16.0101 22.2072ZM12.0216 21.9896C12.0497 21.9896 12.0778 21.9825 12.1059 21.9685L12.7519 21.5963C12.8292 21.5542 12.8573 21.4489 12.8151 21.3716C12.773 21.2944 12.6677 21.2663 12.5904 21.3084L11.9444 21.6806C11.8672 21.7227 11.8391 21.8281 11.8812 21.9053C11.9093 21.9615 11.9655 21.9896 12.0216 21.9896ZM9.35327 21.8421C9.38136 21.8421 9.40945 21.8351 9.43754 21.821L10.0836 21.4489C10.1608 21.4067 10.1889 21.3014 10.1468 21.2242C10.1046 21.1469 9.9993 21.1188 9.92205 21.161L9.27603 21.5331C9.19879 21.5753 9.1707 21.6806 9.21284 21.7578C9.24092 21.814 9.2971 21.8421 9.35327 21.8421ZM6.69193 21.7017C6.72002 21.7017 6.74811 21.6946 6.7762 21.6806L7.42222 21.3084C7.49946 21.2663 7.52755 21.161 7.48542 21.0837C7.43626 21.0065 7.33796 20.9784 7.26072 21.0205L6.61469 21.3927C6.53745 21.4348 6.50936 21.5402 6.55149 21.6174C6.57958 21.6736 6.63576 21.7017 6.69193 21.7017ZM21.3398 21.6595C21.3679 21.6595 21.396 21.6525 21.4241 21.6385L22.0701 21.2663C22.1474 21.2242 22.1755 21.1188 22.1333 21.0416C22.0842 20.9644 21.9859 20.9363 21.9086 20.9784L21.2626 21.3506C21.1854 21.3927 21.1573 21.498 21.1994 21.5753C21.2275 21.6244 21.2837 21.6595 21.3398 21.6595ZM20.0057 21.5823C20.0338 21.5823 20.0618 21.5753 20.0899 21.5612L20.736 21.1891C20.8132 21.1469 20.8413 21.0416 20.7992 20.9643C20.75 20.8871 20.6517 20.859 20.5744 20.9012L19.9284 21.2733C19.8512 21.3155 19.8231 21.4208 19.8652 21.498C19.8933 21.5542 19.9495 21.5823 20.0057 21.5823ZM18.6785 21.5121C18.7066 21.5121 18.7347 21.505 18.7628 21.491L19.4088 21.1188C19.486 21.0767 19.5141 20.9714 19.472 20.8941C19.4299 20.8169 19.3245 20.7888 19.2473 20.8309L18.6013 21.2031C18.524 21.2452 18.4959 21.3506 18.5381 21.4278C18.5662 21.484 18.6223 21.5121 18.6785 21.5121ZM2.69641 21.484C2.7245 21.484 2.75258 21.477 2.78067 21.4629L3.42669 21.0907C3.50394 21.0486 3.53203 20.9433 3.4899 20.866C3.44074 20.7888 3.34243 20.7607 3.26519 20.8028L2.61916 21.175C2.54192 21.2171 2.51384 21.3225 2.55597 21.3997C2.58406 21.4559 2.64023 21.484 2.69641 21.484ZM17.3443 21.4418C17.3724 21.4418 17.4005 21.4348 17.4286 21.4208L18.0746 21.0486C18.1519 21.0065 18.1799 20.9011 18.1378 20.8239C18.0957 20.7467 17.9903 20.7186 17.9131 20.7607L17.2671 21.1329C17.1898 21.175 17.1617 21.2803 17.2039 21.3576C17.232 21.4067 17.2881 21.4418 17.3443 21.4418ZM16.0101 21.3646C16.0382 21.3646 16.0663 21.3576 16.0944 21.3435L16.7404 20.9714C16.8177 20.9292 16.8458 20.8239 16.8036 20.7467C16.7545 20.6694 16.6562 20.6413 16.5789 20.6835L15.9329 21.0556C15.8557 21.0978 15.8276 21.2031 15.8697 21.2803C15.9048 21.3365 15.954 21.3646 16.0101 21.3646ZM12.0216 21.1469C12.0497 21.1469 12.0778 21.1399 12.1059 21.1259L12.7519 20.7537C12.8292 20.7116 12.8573 20.6062 12.8151 20.529C12.773 20.4517 12.6677 20.4237 12.5904 20.4658L11.9444 20.838C11.8672 20.8801 11.8391 20.9854 11.8812 21.0627C11.9093 21.1188 11.9655 21.1469 12.0216 21.1469ZM9.35327 21.0065C9.38136 21.0065 9.40945 20.9995 9.43754 20.9854L10.0836 20.6132C10.1608 20.5711 10.1889 20.4658 10.1468 20.3885C10.1046 20.3113 9.9993 20.2832 9.92205 20.3253L9.27603 20.6975C9.19879 20.7396 9.1707 20.845 9.21284 20.9222C9.24092 20.9784 9.2971 21.0065 9.35327 21.0065ZM22.667 20.8871C22.6951 20.8871 22.7232 20.8801 22.7513 20.866L23.3973 20.4939C23.4745 20.4517 23.5026 20.3464 23.4605 20.2692C23.4113 20.1919 23.313 20.1638 23.2358 20.206L22.5898 20.5781C22.5125 20.6203 22.4844 20.7256 22.5266 20.8028C22.5617 20.859 22.6108 20.8871 22.667 20.8871ZM21.3398 20.8169C21.3679 20.8169 21.396 20.8099 21.4241 20.7958L22.0701 20.4237C22.1474 20.3815 22.1755 20.2762 22.1333 20.199C22.0912 20.1217 21.9859 20.0936 21.9086 20.1358L21.2626 20.5079C21.1854 20.55 21.1573 20.6554 21.1994 20.7326C21.2275 20.7818 21.2837 20.8169 21.3398 20.8169ZM18.6785 20.6694C18.7066 20.6694 18.7347 20.6624 18.7628 20.6484L19.4088 20.2762C19.486 20.2341 19.5141 20.1287 19.472 20.0515C19.4299 19.9742 19.3245 19.9462 19.2473 19.9883L18.6013 20.3605C18.524 20.4026 18.4959 20.5079 18.5381 20.5852C18.5662 20.6413 18.6223 20.6694 18.6785 20.6694ZM17.3443 20.5992C17.3724 20.5992 17.4005 20.5922 17.4286 20.5781L18.0746 20.206C18.1519 20.1638 18.1799 20.0585 18.1378 19.9813C18.0887 19.904 17.9903 19.8759 17.9131 19.9181L17.2671 20.2902C17.1898 20.3324 17.1617 20.4377 17.2039 20.5149C17.232 20.5711 17.2881 20.5992 17.3443 20.5992ZM16.0101 20.529C16.0382 20.529 16.0663 20.522 16.0944 20.5079L16.7404 20.1358C16.8177 20.0936 16.8458 19.9883 16.8036 19.911C16.7545 19.8338 16.6562 19.8057 16.5789 19.8479L15.9329 20.22C15.8557 20.2621 15.8276 20.3675 15.8697 20.4447C15.9048 20.4939 15.954 20.529 16.0101 20.529ZM12.0216 20.3113C12.0497 20.3113 12.0778 20.3043 12.1059 20.2902L12.7519 19.9181C12.8292 19.8759 12.8573 19.7706 12.8151 19.6934C12.766 19.6161 12.6677 19.588 12.5904 19.6302L11.9444 20.0023C11.8672 20.0445 11.8391 20.1498 11.8812 20.227C11.9093 20.2762 11.9655 20.3113 12.0216 20.3113ZM9.35327 20.1638C9.38136 20.1638 9.40945 20.1568 9.43754 20.1428L10.0836 19.7706C10.1608 19.7285 10.1889 19.6231 10.1468 19.5459C10.1046 19.4687 9.9993 19.4406 9.92205 19.4827L9.27603 19.8549C9.19879 19.897 9.1707 20.0023 9.21284 20.0796C9.24092 20.1358 9.2971 20.1638 9.35327 20.1638ZM24.0012 20.1217C24.0293 20.1217 24.0574 20.1147 24.0855 20.1006L24.7315 19.7285C24.8087 19.6863 24.8368 19.581 24.7947 19.5038C24.7455 19.4265 24.6472 19.3984 24.57 19.4406L23.9239 19.8127C23.8467 19.8549 23.8186 19.9602 23.8607 20.0374C23.8888 20.0866 23.945 20.1217 24.0012 20.1217ZM22.667 20.0445C22.6951 20.0445 22.7232 20.0374 22.7513 20.0234L23.3973 19.6512C23.4745 19.6091 23.5026 19.5038 23.4605 19.4265C23.4184 19.3493 23.313 19.3212 23.2358 19.3633L22.5898 19.7355C22.5125 19.7776 22.4844 19.883 22.5266 19.9602C22.5617 20.0164 22.6108 20.0445 22.667 20.0445ZM21.3398 19.9742C21.3679 19.9742 21.396 19.9672 21.4241 19.9532L22.0701 19.581C22.1474 19.5389 22.1755 19.4336 22.1333 19.3563C22.0842 19.2791 21.9859 19.251 21.9086 19.2931L21.2626 19.6653C21.1854 19.7074 21.1573 19.8127 21.1994 19.89C21.2275 19.9462 21.2837 19.9742 21.3398 19.9742ZM18.6785 19.8268C18.7066 19.8268 18.7347 19.8198 18.7628 19.8057L19.4088 19.4335C19.486 19.3914 19.5141 19.2861 19.472 19.2088C19.4299 19.1316 19.3245 19.1035 19.2473 19.1456L18.6013 19.5178C18.524 19.5599 18.4959 19.6653 18.5381 19.7425C18.5662 19.7987 18.6223 19.8268 18.6785 19.8268ZM17.3443 19.7566C17.3724 19.7566 17.4005 19.7495 17.4286 19.7355L18.0746 19.3633C18.1519 19.3212 18.1799 19.2159 18.1378 19.1386C18.0887 19.0614 17.9903 19.0333 17.9131 19.0754L17.2671 19.4476C17.1898 19.4897 17.1617 19.5951 17.2039 19.6723C17.232 19.7285 17.2881 19.7566 17.3443 19.7566ZM16.0101 19.6863C16.0382 19.6863 16.0663 19.6793 16.0944 19.6653L16.7404 19.2931C16.8177 19.251 16.8458 19.1456 16.8036 19.0684C16.7545 18.9912 16.6562 18.9631 16.5789 19.0052L15.9329 19.3774C15.8557 19.4195 15.8276 19.5248 15.8697 19.6021C15.9048 19.6583 15.954 19.6863 16.0101 19.6863ZM12.0216 19.4687C12.0497 19.4687 12.0778 19.4616 12.1059 19.4476L12.7519 19.0754C12.8292 19.0333 12.8573 18.928 12.8151 18.8507C12.766 18.7735 12.6677 18.7454 12.5904 18.7875L11.9444 19.1597C11.8672 19.2018 11.8391 19.3072 11.8812 19.3844C11.9093 19.4406 11.9655 19.4687 12.0216 19.4687ZM25.3283 19.3493C25.3564 19.3493 25.3845 19.3423 25.4126 19.3282L26.0586 18.9561C26.1359 18.9139 26.164 18.8086 26.1218 18.7313C26.0727 18.6541 25.9744 18.626 25.8971 18.6681L25.2511 19.0403C25.1739 19.0825 25.1458 19.1878 25.1879 19.265C25.223 19.3212 25.2722 19.3493 25.3283 19.3493ZM9.35327 19.3212C9.38136 19.3212 9.40945 19.3142 9.43754 19.3001L10.0836 18.928C10.1608 18.8858 10.1889 18.7805 10.1468 18.7033C10.1046 18.626 9.9993 18.5979 9.92205 18.6401L9.27603 19.0122C9.19879 19.0544 9.1707 19.1597 9.21284 19.2369C9.24092 19.2931 9.2971 19.3212 9.35327 19.3212ZM24.0012 19.2791C24.0293 19.2791 24.0574 19.272 24.0855 19.258L24.7315 18.8858C24.8087 18.8437 24.8368 18.7384 24.7947 18.6611C24.7455 18.5839 24.6472 18.5558 24.57 18.5979L23.9239 18.9701C23.8467 19.0122 23.8186 19.1176 23.8607 19.1948C23.8888 19.244 23.945 19.2791 24.0012 19.2791ZM22.667 19.2018C22.6951 19.2018 22.7232 19.1948 22.7513 19.1808L23.3973 18.8086C23.4745 18.7665 23.5026 18.6611 23.4605 18.5839C23.4184 18.5066 23.313 18.4786 23.2358 18.5207L22.5898 18.8929C22.5125 18.935 22.4844 19.0403 22.5266 19.1176C22.5617 19.1737 22.6108 19.2018 22.667 19.2018ZM21.3398 19.1316C21.3679 19.1316 21.396 19.1246 21.4241 19.1105L22.0701 18.7384C22.1474 18.6962 22.1755 18.5909 22.1333 18.5137C22.0842 18.4364 21.9859 18.4083 21.9086 18.4505L21.2626 18.8226C21.1854 18.8648 21.1573 18.9701 21.1994 19.0473C21.2275 19.1035 21.2837 19.1316 21.3398 19.1316ZM18.6785 18.9912C18.7066 18.9912 18.7347 18.9841 18.7628 18.9701L19.4088 18.5979C19.486 18.5558 19.5141 18.4505 19.472 18.3732C19.4299 18.296 19.3245 18.2679 19.2473 18.31L18.6013 18.6822C18.524 18.7243 18.4959 18.8297 18.5381 18.9069C18.5662 18.9561 18.6223 18.9912 18.6785 18.9912ZM17.3443 18.9139C17.3724 18.9139 17.4005 18.9069 17.4286 18.8929L18.0746 18.5207C18.1519 18.4786 18.1799 18.3732 18.1378 18.296C18.0887 18.2187 17.9903 18.1907 17.9131 18.2328L17.2671 18.605C17.1898 18.6471 17.1617 18.7524 17.2039 18.8297C17.232 18.8858 17.2881 18.9139 17.3443 18.9139ZM16.0101 18.8437C16.0382 18.8437 16.0663 18.8367 16.0944 18.8226L16.7404 18.4505C16.8177 18.4083 16.8458 18.303 16.8036 18.2258C16.7545 18.1485 16.6562 18.1204 16.5789 18.1626L15.9329 18.5347C15.8557 18.5769 15.8276 18.6822 15.8697 18.7594C15.9048 18.8156 15.954 18.8437 16.0101 18.8437ZM26.6625 18.5839C26.6906 18.5839 26.7187 18.5769 26.7468 18.5628L27.3928 18.1907C27.4701 18.1485 27.4981 18.0432 27.456 17.9659C27.4139 17.8887 27.3086 17.8606 27.2313 17.9028L26.5853 18.2749C26.508 18.3171 26.48 18.4224 26.5221 18.4996C26.5502 18.5488 26.6064 18.5839 26.6625 18.5839ZM25.3283 18.5066C25.3564 18.5066 25.3845 18.4996 25.4126 18.4856L26.0586 18.1134C26.1359 18.0713 26.164 17.966 26.1218 17.8887C26.0727 17.8115 25.9744 17.7834 25.8971 17.8255L25.2511 18.1977C25.1739 18.2398 25.1458 18.3451 25.1879 18.4224C25.223 18.4786 25.2722 18.5066 25.3283 18.5066ZM9.35327 18.4786C9.38136 18.4786 9.40945 18.4715 9.43754 18.4575L10.0836 18.0853C10.1608 18.0432 10.1889 17.9379 10.1468 17.8606C10.1046 17.7834 9.9993 17.7553 9.92205 17.7974L9.27603 18.1696C9.19879 18.2117 9.1707 18.3171 9.21284 18.3943C9.24092 18.4505 9.2971 18.4786 9.35327 18.4786ZM24.0012 18.4364C24.0293 18.4364 24.0574 18.4294 24.0855 18.4154L24.7315 18.0432C24.8087 18.0011 24.8368 17.8957 24.7947 17.8185C24.7525 17.7412 24.6472 17.7132 24.57 17.7553L23.9239 18.1275C23.8467 18.1696 23.8186 18.2749 23.8607 18.3522C23.8888 18.4083 23.945 18.4364 24.0012 18.4364ZM22.667 18.3662C22.6951 18.3662 22.7232 18.3592 22.7513 18.3451L23.3973 17.973C23.4745 17.9308 23.5026 17.8255 23.4605 17.7483C23.4184 17.671 23.313 17.6429 23.2358 17.6851L22.5898 18.0572C22.5125 18.0994 22.4844 18.2047 22.5266 18.2819C22.5617 18.3311 22.6108 18.3662 22.667 18.3662ZM21.3398 18.289C21.3679 18.289 21.396 18.2819 21.4241 18.2679L22.0701 17.8957C22.1474 17.8536 22.1755 17.7483 22.1333 17.671C22.0842 17.5938 21.9859 17.5657 21.9086 17.6078L21.2626 17.98C21.1854 18.0221 21.1573 18.1275 21.1994 18.2047C21.2275 18.2609 21.2837 18.289 21.3398 18.289ZM18.6785 18.1485C18.7066 18.1485 18.7347 18.1415 18.7628 18.1275L19.4088 17.7553C19.486 17.7132 19.5141 17.6078 19.472 17.5306C19.4299 17.4533 19.3245 17.4253 19.2473 17.4674L18.6013 17.8396C18.524 17.8817 18.4959 17.987 18.5381 18.0643C18.5662 18.1204 18.6223 18.1485 18.6785 18.1485ZM17.3443 18.0783C17.3724 18.0783 17.4005 18.0713 17.4286 18.0572L18.0746 17.6851C18.1519 17.6429 18.1799 17.5376 18.1378 17.4604C18.0887 17.3831 17.9903 17.355 17.9131 17.3972L17.2671 17.7693C17.1898 17.8115 17.1617 17.9168 17.2039 17.994C17.232 18.0432 17.2881 18.0783 17.3443 18.0783ZM16.0101 18.0011C16.0382 18.0011 16.0663 17.994 16.0944 17.98L16.7404 17.6078C16.8177 17.5657 16.8458 17.4604 16.8036 17.3831C16.7615 17.3059 16.6562 17.2778 16.5789 17.3199L15.9329 17.6921C15.8557 17.7342 15.8276 17.8396 15.8697 17.9168C15.9048 17.973 15.954 18.0011 16.0101 18.0011ZM26.6625 17.7412C26.6906 17.7412 26.7187 17.7342 26.7468 17.7202L27.3928 17.348C27.4701 17.3059 27.4981 17.2005 27.456 17.1233C27.4139 17.0461 27.3086 17.018 27.2313 17.0601L26.5853 17.4323C26.508 17.4744 26.48 17.5797 26.5221 17.657C26.5502 17.7132 26.6064 17.7412 26.6625 17.7412ZM25.3354 17.664C25.3635 17.664 25.3915 17.657 25.4196 17.6429L26.0657 17.2708C26.1429 17.2286 26.171 17.1233 26.1289 17.0461C26.0797 16.9688 25.9814 16.9407 25.9042 16.9829L25.2581 17.355C25.1809 17.3972 25.1528 17.5025 25.1949 17.5797C25.223 17.6359 25.2792 17.664 25.3354 17.664ZM9.35327 17.6429C9.38136 17.6429 9.40945 17.6359 9.43754 17.6219L10.0836 17.2497C10.1608 17.2076 10.1889 17.1022 10.1468 17.025C10.0976 16.9478 9.9993 16.9197 9.92205 16.9618L9.27603 17.334C9.19879 17.3761 9.1707 17.4814 9.21284 17.5587C9.24092 17.6148 9.2971 17.6429 9.35327 17.6429ZM24.0012 17.5938C24.0293 17.5938 24.0574 17.5868 24.0855 17.5727L24.7315 17.2006C24.8087 17.1584 24.8368 17.0531 24.7947 16.9758C24.7525 16.8986 24.6472 16.8705 24.57 16.9126L23.9239 17.2848C23.8467 17.3269 23.8186 17.4323 23.8607 17.5095C23.8888 17.5657 23.945 17.5938 24.0012 17.5938ZM22.667 17.5236C22.6951 17.5236 22.7232 17.5165 22.7513 17.5025L23.3973 17.1303C23.4745 17.0882 23.5026 16.9829 23.4605 16.9056C23.4113 16.8284 23.313 16.8003 23.2358 16.8424L22.5898 17.2146C22.5125 17.2567 22.4844 17.3621 22.5266 17.4393C22.5617 17.4955 22.6108 17.5236 22.667 17.5236ZM21.3398 17.4533C21.3679 17.4533 21.396 17.4463 21.4241 17.4323L22.0701 17.0601C22.1474 17.018 22.1755 16.9126 22.1333 16.8354C22.0842 16.7582 21.9859 16.7301 21.9086 16.7722L21.2626 17.1444C21.1854 17.1865 21.1573 17.2918 21.1994 17.3691C21.2275 17.4182 21.2837 17.4533 21.3398 17.4533ZM18.6785 17.3059C18.7066 17.3059 18.7347 17.2989 18.7628 17.2848L19.4088 16.9126C19.486 16.8705 19.5141 16.7652 19.472 16.6879C19.4299 16.6107 19.3245 16.5826 19.2473 16.6247L18.6013 16.9969C18.524 17.039 18.4959 17.1444 18.5381 17.2216C18.5662 17.2778 18.6223 17.3059 18.6785 17.3059ZM17.3443 17.2357C17.3724 17.2357 17.4005 17.2286 17.4286 17.2146L18.0746 16.8424C18.1519 16.8003 18.1799 16.695 18.1378 16.6177C18.0887 16.5405 17.9903 16.5124 17.9131 16.5545L17.2671 16.9267C17.1898 16.9688 17.1617 17.0742 17.2039 17.1514C17.232 17.2006 17.2881 17.2357 17.3443 17.2357ZM16.0101 17.1584C16.0382 17.1584 16.0663 17.1514 16.0944 17.1374L16.7404 16.7652C16.8177 16.7231 16.8458 16.6177 16.8036 16.5405C16.7615 16.4632 16.6562 16.4352 16.5789 16.4773L15.9329 16.8495C15.8557 16.8916 15.8276 16.9969 15.8697 17.0742C15.9048 17.1303 15.954 17.1584 16.0101 17.1584ZM26.6625 16.8986C26.6906 16.8986 26.7187 16.8916 26.7468 16.8775L27.3928 16.5054C27.4701 16.4632 27.4981 16.3579 27.456 16.2807C27.4069 16.2034 27.3086 16.1753 27.2313 16.2175L26.5853 16.5896C26.508 16.6318 26.48 16.7371 26.5221 16.8143C26.5502 16.8705 26.6064 16.8986 26.6625 16.8986ZM25.3354 16.8284C25.3635 16.8284 25.3915 16.8214 25.4196 16.8073L26.0657 16.4352C26.1429 16.393 26.171 16.2877 26.1289 16.2104C26.0797 16.1332 25.9814 16.1051 25.9042 16.1472L25.2581 16.5194C25.1809 16.5615 25.1528 16.6669 25.1949 16.7441C25.223 16.7933 25.2792 16.8284 25.3354 16.8284ZM24.0012 16.7511C24.0293 16.7511 24.0574 16.7441 24.0855 16.7301L24.7315 16.3579C24.8087 16.3158 24.8368 16.2104 24.7947 16.1332C24.7525 16.056 24.6472 16.0279 24.57 16.07L23.9239 16.4422C23.8467 16.4843 23.8186 16.5896 23.8607 16.6669C23.8888 16.7231 23.945 16.7511 24.0012 16.7511ZM22.667 16.6809C22.6951 16.6809 22.7232 16.6739 22.7513 16.6599L23.3973 16.2877C23.4745 16.2456 23.5026 16.1402 23.4605 16.063C23.4113 15.9857 23.313 15.9577 23.2358 15.9998L22.5898 16.372C22.5125 16.4141 22.4844 16.5194 22.5266 16.5967C22.5617 16.6528 22.6108 16.6809 22.667 16.6809ZM21.3398 16.6107C21.3679 16.6107 21.396 16.6037 21.4241 16.5896L22.0701 16.2175C22.1474 16.1753 22.1755 16.07 22.1333 15.9928C22.0842 15.9155 21.9859 15.8874 21.9086 15.9296L21.2626 16.3017C21.1854 16.3439 21.1573 16.4492 21.1994 16.5264C21.2275 16.5826 21.2837 16.6107 21.3398 16.6107ZM18.6785 16.4632C18.7066 16.4632 18.7347 16.4562 18.7628 16.4422L19.4088 16.07C19.486 16.0279 19.5141 15.9225 19.472 15.8453C19.4228 15.7681 19.3245 15.74 19.2473 15.7821L18.6013 16.1543C18.524 16.1964 18.4959 16.3017 18.5381 16.379C18.5662 16.4352 18.6223 16.4632 18.6785 16.4632ZM17.3443 16.393C17.3724 16.393 17.4005 16.386 17.4286 16.372L18.0746 15.9998C18.1519 15.9577 18.1799 15.8523 18.1378 15.7751C18.0887 15.6978 17.9903 15.6698 17.9131 15.7119L17.2671 16.0841C17.1898 16.1262 17.1617 16.2315 17.2039 16.3088C17.232 16.3649 17.2881 16.393 17.3443 16.393ZM26.6625 16.056C26.6906 16.056 26.7187 16.0489 26.7468 16.0349L27.3928 15.6627C27.4701 15.6206 27.4981 15.5153 27.456 15.438C27.4069 15.3608 27.3086 15.3327 27.2313 15.3748L26.5853 15.747C26.508 15.7891 26.48 15.8945 26.5221 15.9717C26.5502 16.0279 26.6064 16.056 26.6625 16.056ZM25.3354 15.9857C25.3635 15.9857 25.3915 15.9787 25.4196 15.9647L26.0657 15.5925C26.1429 15.5504 26.171 15.445 26.1289 15.3678C26.0867 15.2906 25.9814 15.2625 25.9042 15.3046L25.2581 15.6768C25.1809 15.7189 25.1528 15.8242 25.1949 15.9015C25.223 15.9577 25.2792 15.9857 25.3354 15.9857ZM24.0012 15.9155C24.0293 15.9155 24.0574 15.9085 24.0855 15.8945L24.7315 15.5223C24.8087 15.4802 24.8368 15.3748 24.7947 15.2976C24.7525 15.2203 24.6472 15.1923 24.57 15.2344L23.9239 15.6066C23.8467 15.6487 23.8186 15.754 23.8607 15.8313C23.8888 15.8804 23.945 15.9155 24.0012 15.9155ZM21.3398 15.7681C21.3679 15.7681 21.396 15.761 21.4241 15.747L22.0701 15.3748C22.1474 15.3327 22.1755 15.2274 22.1333 15.1501C22.0842 15.0729 21.9859 15.0448 21.9086 15.0869L21.2626 15.4591C21.1854 15.5012 21.1573 15.6066 21.1994 15.6838C21.2275 15.74 21.2837 15.7681 21.3398 15.7681ZM17.3443 15.5504C17.3724 15.5504 17.4005 15.5434 17.4286 15.5293L18.0746 15.1571C18.1519 15.115 18.1799 15.0097 18.1378 14.9324C18.0887 14.8552 17.9903 14.8271 17.9131 14.8692L17.2671 15.2414C17.1898 15.2835 17.1617 15.3889 17.2039 15.4661C17.232 15.5223 17.2881 15.5504 17.3443 15.5504ZM25.3354 15.1431C25.3635 15.1431 25.3915 15.1361 25.4196 15.122L26.0657 14.7499C26.1429 14.7077 26.171 14.6024 26.1289 14.5252C26.0867 14.4479 25.9814 14.4198 25.9042 14.462L25.2581 14.8341C25.1809 14.8763 25.1528 14.9816 25.1949 15.0588C25.223 15.115 25.2792 15.1431 25.3354 15.1431ZM24.0012 15.0729C24.0293 15.0729 24.0574 15.0659 24.0855 15.0518L24.7315 14.6796C24.8087 14.6375 24.8368 14.5322 24.7947 14.4549C24.7525 14.3777 24.6472 14.3496 24.57 14.3917L23.9239 14.7639C23.8467 14.806 23.8186 14.9114 23.8607 14.9886C23.8888 15.0448 23.945 15.0729 24.0012 15.0729ZM21.3398 14.9254C21.3679 14.9254 21.396 14.9184 21.4241 14.9044L22.0701 14.5322C22.1474 14.4901 22.1755 14.3847 22.1333 14.3075C22.0842 14.2302 21.9859 14.2022 21.9086 14.2443L21.2626 14.6165C21.1854 14.6586 21.1573 14.7639 21.1994 14.8412C21.2275 14.8973 21.2837 14.9254 21.3398 14.9254ZM17.3443 14.7077C17.3724 14.7077 17.4005 14.7007 17.4286 14.6867L18.0746 14.3145C18.1519 14.2724 18.1799 14.167 18.1378 14.0898C18.0957 14.0126 17.9903 13.9845 17.9131 14.0266L17.2671 14.3988C17.1898 14.4409 17.1617 14.5462 17.2039 14.6235C17.232 14.6796 17.2881 14.7077 17.3443 14.7077ZM25.3283 14.3005C25.3564 14.3005 25.3845 14.2934 25.4126 14.2794L26.0586 13.9072C26.1359 13.8651 26.164 13.7598 26.1218 13.6825C26.0727 13.6053 25.9744 13.5772 25.8971 13.6193L25.2511 13.9915C25.1739 14.0336 25.1458 14.139 25.1879 14.2162C25.223 14.2724 25.2722 14.3005 25.3283 14.3005ZM24.0012 14.2302C24.0293 14.2302 24.0574 14.2232 24.0855 14.2092L24.7315 13.837C24.8087 13.7949 24.8368 13.6895 24.7947 13.6123C24.7525 13.5351 24.6472 13.507 24.57 13.5491L23.9239 13.9213C23.8467 13.9634 23.8186 14.0687 23.8607 14.146C23.8888 14.2022 23.945 14.2302 24.0012 14.2302ZM21.3398 14.0898C21.3679 14.0898 21.396 14.0828 21.4241 14.0687L22.0701 13.6966C22.1474 13.6544 22.1755 13.5491 22.1333 13.4719C22.0842 13.3946 21.9859 13.3665 21.9086 13.4087L21.2626 13.7808C21.1854 13.823 21.1573 13.9283 21.1994 14.0055C21.2275 14.0547 21.2837 14.0898 21.3398 14.0898ZM17.3443 13.8721C17.3724 13.8721 17.4005 13.8651 17.4286 13.8511L18.0746 13.4789C18.1519 13.4368 18.1799 13.3314 18.1378 13.2542C18.0957 13.1769 17.9903 13.1488 17.9131 13.191L17.2671 13.5632C17.1898 13.6053 17.1617 13.7106 17.2039 13.7879C17.232 13.837 17.2881 13.8721 17.3443 13.8721ZM25.3283 13.4648C25.3564 13.4648 25.3845 13.4578 25.4126 13.4438L26.0586 13.0716C26.1359 13.0295 26.164 12.9241 26.1218 12.8469C26.0727 12.7697 25.9744 12.7416 25.8971 12.7837L25.2511 13.1559C25.1739 13.198 25.1458 13.3033 25.1879 13.3806C25.223 13.4297 25.2722 13.4648 25.3283 13.4648ZM24.0012 13.3876C24.0293 13.3876 24.0574 13.3806 24.0855 13.3665L24.7315 12.9944C24.8087 12.9522 24.8368 12.8469 24.7947 12.7697C24.7455 12.6924 24.6472 12.6643 24.57 12.7065L23.9239 13.0786C23.8467 13.1208 23.8186 13.2261 23.8607 13.3033C23.8888 13.3595 23.945 13.3876 24.0012 13.3876ZM21.3398 13.2472C21.3679 13.2472 21.396 13.2401 21.4241 13.2261L22.0701 12.8539C22.1474 12.8118 22.1755 12.7065 22.1333 12.6292C22.0842 12.552 21.9859 12.5239 21.9086 12.566L21.2626 12.9382C21.1854 12.9803 21.1573 13.0857 21.1994 13.1629C21.2275 13.2191 21.2837 13.2472 21.3398 13.2472ZM17.3443 13.0295C17.3724 13.0295 17.4005 13.0225 17.4286 13.0084L18.0746 12.6362C18.1519 12.5941 18.1799 12.4888 18.1378 12.4115C18.0957 12.3343 17.9903 12.3062 17.9131 12.3483L17.2671 12.7205C17.1898 12.7626 17.1617 12.868 17.2039 12.9452C17.232 13.0014 17.2881 13.0295 17.3443 13.0295ZM25.3283 12.6222C25.3564 12.6222 25.3845 12.6152 25.4126 12.6011L26.0586 12.229C26.1359 12.1868 26.164 12.0815 26.1218 12.0043C26.0727 11.927 25.9744 11.8989 25.8971 11.9411L25.2511 12.3132C25.1739 12.3554 25.1458 12.4607 25.1879 12.5379C25.223 12.5941 25.2722 12.6222 25.3283 12.6222ZM24.0012 12.552C24.0293 12.552 24.0574 12.545 24.0855 12.5309L24.7315 12.1587C24.8087 12.1166 24.8368 12.0113 24.7947 11.934C24.7455 11.8568 24.6472 11.8287 24.57 11.8708L23.9239 12.243C23.8467 12.2851 23.8186 12.3905 23.8607 12.4677C23.8888 12.5169 23.945 12.552 24.0012 12.552ZM21.3398 12.4045C21.3679 12.4045 21.396 12.3975 21.4241 12.3834L22.0701 12.0113C22.1474 11.9692 22.1755 11.8638 22.1333 11.7866C22.0842 11.7093 21.9859 11.6813 21.9086 11.7234L21.2626 12.0955C21.1854 12.1377 21.1573 12.243 21.1994 12.3203C21.2275 12.3764 21.2837 12.4045 21.3398 12.4045ZM25.3283 11.7796C25.3564 11.7796 25.3845 11.7725 25.4126 11.7585L26.0586 11.3863C26.1359 11.3442 26.164 11.2389 26.1218 11.1616C26.0727 11.0844 25.9744 11.0563 25.8971 11.0984L25.2511 11.4706C25.1739 11.5127 25.1458 11.6181 25.1879 11.6953C25.223 11.7515 25.2722 11.7796 25.3283 11.7796ZM24.0012 11.7093C24.0293 11.7093 24.0574 11.7023 24.0855 11.6883L24.7315 11.3161C24.8087 11.274 24.8368 11.1686 24.7947 11.0914C24.7455 11.0142 24.6472 10.9861 24.57 11.0282L23.9239 11.4004C23.8467 11.4425 23.8186 11.5478 23.8607 11.6251C23.8888 11.6812 23.945 11.7093 24.0012 11.7093ZM25.3283 10.9369C25.3564 10.9369 25.3845 10.9299 25.4126 10.9159L26.0586 10.5437C26.1359 10.5016 26.164 10.3962 26.1218 10.319C26.0727 10.2417 25.9744 10.2136 25.8971 10.2558L25.2511 10.6279C25.1739 10.6701 25.1458 10.7754 25.1879 10.8527C25.223 10.9088 25.2722 10.9369 25.3283 10.9369ZM24.0012 10.8667C24.0293 10.8667 24.0574 10.8597 24.0855 10.8456L24.7315 10.4735C24.8087 10.4313 24.8368 10.326 24.7947 10.2488C24.7455 10.1715 24.6472 10.1434 24.57 10.1856L23.9239 10.5577C23.8467 10.5999 23.8186 10.7052 23.8607 10.7824C23.8888 10.8386 23.945 10.8667 24.0012 10.8667ZM24.0012 10.0241C24.0293 10.0241 24.0574 10.017 24.0855 10.003L24.7315 9.63082C24.8087 9.58869 24.8368 9.48336 24.7947 9.40612C24.7455 9.32888 24.6472 9.30079 24.57 9.34292L23.9239 9.71509C23.8467 9.75722 23.8186 9.86255 23.8607 9.93979C23.8888 9.99597 23.945 10.0241 24.0012 10.0241ZM24.0012 9.18843C24.0293 9.18843 24.0574 9.18141 24.0855 9.16737L24.7315 8.7952C24.8087 8.75307 24.8368 8.64774 24.7947 8.5705C24.7525 8.49326 24.6472 8.46517 24.57 8.5073L23.9239 8.87947C23.8467 8.9216 23.8186 9.02693 23.8607 9.10417C23.8888 9.15333 23.945 9.18843 24.0012 9.18843Z" fill="#171753"/>
<path d="M26.6146 24.588C27.2118 23.8495 27.8442 23.9901 29.4954 23.6385C30.9007 23.322 32.3763 23.322 33.7464 23.7088C35.1166 24.0605 35.9598 24.3066 36.557 24.9396L37.2948 25.3265V26.8738V26.909C37.2597 27.9288 36.4165 28.9135 34.7301 29.6168C33.0438 30.3201 31.2169 30.4256 29.4603 30.0036C26.9659 29.4058 25.7362 28.175 25.7011 26.909V26.8386V25.3616L26.6146 24.588Z" fill="#171753"/>
<path d="M31.5331 30.3902C32.6573 30.3902 33.7816 30.1792 34.8004 29.7572C36.4868 29.0539 37.4353 28.0341 37.4705 26.8736V25.1856L36.6624 24.7636C36.03 24.0603 35.0815 23.8141 33.7816 23.4976C32.3763 23.1459 30.8656 23.1108 29.4251 23.4273C28.9684 23.5328 28.582 23.6031 28.2658 23.6383C27.4226 23.7789 26.9307 23.8493 26.4389 24.4471L25.4201 25.2208V26.8736C25.4552 28.3506 26.9307 29.5814 29.3549 30.1792C30.0927 30.3199 30.7953 30.3902 31.5331 30.3902ZM37.0489 25.4318V26.8384C37.0137 27.8583 36.1706 28.7374 34.6247 29.3704C33.0438 30.0386 31.2169 30.1441 29.4603 29.7221C27.2821 29.1946 25.9119 28.0693 25.8768 26.8384V26.7681V25.4318L26.7551 24.7284C27.1415 24.2713 27.528 24.2009 28.336 24.0603C28.6874 23.9899 29.0387 23.9548 29.5305 23.8493C30.9007 23.5328 32.3411 23.5679 33.7113 23.9196C35.1166 24.2713 35.8895 24.5174 36.4165 25.0801L36.4868 25.1153L37.0489 25.4318Z" fill="#171753"/>
<path d="M27.3523 22.9349C25.0687 24.2361 25.0687 26.3812 27.3523 27.6824C29.6359 28.9836 33.2897 28.9836 35.5733 27.6824C37.8569 26.3812 37.8569 24.2361 35.5733 22.9349C33.3248 21.5986 29.6359 21.5986 27.3523 22.9349Z" fill="#E3E0EB"/>
<path d="M31.4628 28.8783C32.9735 28.8783 34.5193 28.5266 35.6787 27.8585C36.8381 27.1903 37.4705 26.276 37.4705 25.2913C37.4705 24.3067 36.8381 23.3923 35.6787 22.7242C33.36 21.3878 29.5657 21.3878 27.2469 22.7242C26.0876 23.3923 25.4552 24.3067 25.4552 25.2913C25.4552 26.276 26.0876 27.1903 27.2469 27.8585C28.4063 28.5266 29.9521 28.8783 31.4628 28.8783ZM31.4628 22.1615C32.9032 22.1615 34.3437 22.478 35.4679 23.111C36.4868 23.7088 37.0489 24.4825 37.0489 25.2913C37.0489 26.1002 36.4868 26.8738 35.4679 27.4716C33.2546 28.7376 29.6711 28.7376 27.4577 27.4716C26.4389 26.8738 25.8768 26.1002 25.8768 25.2913C25.8768 24.4825 26.4389 23.7088 27.4577 23.111C28.582 22.478 30.0224 22.1615 31.4628 22.1615Z" fill="#171753"/>
<path d="M28.6169 23.8494C30.1979 23.0406 32.7626 23.0406 34.3435 23.8494C35.9245 24.6582 35.9245 25.9594 34.3435 26.7331C32.7626 27.5419 30.1979 27.5419 28.6169 26.7331C27.036 25.9242 27.036 24.6582 28.6169 23.8494Z" fill="#171753"/>
<path d="M31.4628 27.542C32.5519 27.542 33.6059 27.331 34.4139 26.909C35.2571 26.487 35.7138 25.8892 35.7138 25.2562C35.7138 24.6232 35.2571 24.0254 34.4139 23.6034C32.7627 22.7946 30.1278 22.7946 28.4765 23.6034C27.6334 24.0254 27.1766 24.6232 27.1766 25.2562C27.1766 25.8892 27.6334 26.487 28.4765 26.909C29.3197 27.331 30.4088 27.542 31.4628 27.542ZM31.4628 23.4627C32.4816 23.4627 33.4653 23.6386 34.2382 24.0254C34.9409 24.377 35.2922 24.8342 35.2922 25.2914C35.2922 25.7485 34.9058 26.2057 34.2382 26.5574C32.7276 27.331 30.2332 27.331 28.6873 26.5574C27.9847 26.2057 27.6334 25.7485 27.6334 25.2914C27.6334 24.8342 28.0198 24.377 28.6873 24.0254C29.4602 23.6386 30.4791 23.4627 31.4628 23.4627Z" fill="#171753"/>
<path d="M28.617 24.7286C30.198 23.9197 32.7626 23.9197 34.3436 24.7286C34.9057 25.0099 35.2921 25.3616 35.4327 25.7484C35.257 26.1352 34.9057 26.4869 34.3436 26.7682C32.7626 27.5771 30.198 27.5771 28.617 26.7682C28.0549 26.4869 27.6684 26.1352 27.5279 25.7484C27.6684 25.3616 28.0197 25.0099 28.617 24.7286Z" fill="#8989C7"/>
<path d="M31.4628 27.5418C32.5519 27.5418 33.6059 27.3308 34.4139 26.9088C35.0112 26.5923 35.4328 26.2055 35.6084 25.7835L35.6436 25.7132L35.6084 25.6428C35.4328 25.2208 35.0112 24.834 34.4139 24.5175C32.7627 23.7087 30.1278 23.7087 28.4765 24.5175C27.8793 24.834 27.4577 25.2208 27.282 25.6428L27.2469 25.7132L27.282 25.7835C27.4577 26.2055 27.8793 26.5923 28.4765 26.9088C29.3197 27.3308 30.4088 27.5418 31.4628 27.5418ZM35.1868 25.7132C35.0112 26.0297 34.695 26.311 34.2383 26.522C32.7276 27.2957 30.2332 27.2957 28.6873 26.522C28.2306 26.2758 27.9144 25.9945 27.7388 25.7132C27.9144 25.3967 28.2306 25.1153 28.6873 24.9043C30.198 24.1307 32.6924 24.1307 34.2383 24.9043C34.695 25.1505 35.0463 25.4318 35.1868 25.7132Z" fill="#171753"/>
<path d="M27.3523 27.8232H27.6685V29.0892H27.3523V27.8232Z" fill="#8989C7"/>
<path d="M36.276 27.1198H36.5922V28.3857H36.276V27.1198Z" fill="#8989C7"/>
<path d="M30.7953 23.2866H31.1115V24.0955H30.7953V23.2866Z" fill="#8989C7"/>
<path d="M28.7928 28.3858H29.109V29.6518H28.7928V28.3858Z" fill="#8989C7"/>
<path d="M29.1443 20.2624C29.7415 19.5239 30.3739 19.6645 32.0251 19.3129C33.4304 18.9964 34.906 18.9964 36.2762 19.3832C37.6463 19.7349 38.4895 19.981 39.0867 20.614L39.8245 21.0008V22.5482V22.5833C39.7894 23.6032 38.9462 24.5878 37.2599 25.2912C35.5735 25.9945 33.7466 26.1 31.99 25.678C29.4956 25.0802 28.266 23.8493 28.2308 22.5833V22.513V21.036L29.1443 20.2624Z" fill="#171753"/>
<path d="M34.0626 26.1C35.1869 26.1 36.3111 25.889 37.3299 25.467C39.0163 24.7637 39.9649 23.7439 40 22.5834V20.8954L39.192 20.4734C38.5596 19.7701 37.611 19.5239 36.3111 19.2074C34.9058 18.8557 33.3951 18.8206 31.9547 19.1371C31.498 19.2426 31.1115 19.3129 30.7953 19.3481C29.9521 19.4887 29.4603 19.5591 28.9684 20.1569L27.9496 20.9305V22.5834C27.9847 24.0604 29.4603 25.2912 31.8844 25.889C32.6222 25.9945 33.36 26.1 34.0626 26.1ZM39.6135 21.1064V22.513C39.5784 23.5329 38.7352 24.412 37.1894 25.045C35.6085 25.7132 33.7816 25.8187 32.025 25.3967C29.8467 24.8692 28.4766 23.7439 28.4414 22.513V22.4427V21.1064L29.3198 20.4031C29.7062 19.9459 30.0927 19.8756 30.9007 19.7349C31.252 19.6646 31.6034 19.6294 32.0952 19.5239C33.4654 19.2074 34.9058 19.2426 36.276 19.5942C37.6813 19.9459 38.4542 20.1921 38.9812 20.7547L39.0514 20.7899L39.6135 21.1064Z" fill="#171753"/>
<path d="M33.9925 24.3067C30.791 24.3067 28.1957 22.811 28.1957 20.9659C28.1957 19.1208 30.791 17.6251 33.9925 17.6251C37.194 17.6251 39.7894 19.1208 39.7894 20.9659C39.7894 22.811 37.194 24.3067 33.9925 24.3067Z" fill="#E3E0EB"/>
<path d="M33.9924 24.5527C35.5031 24.5527 37.0489 24.201 38.2082 23.5329C39.3676 22.8647 40 21.9504 40 20.9657C40 19.981 39.3676 19.0667 38.2082 18.3985C35.8895 17.0622 32.0952 17.0622 29.7765 18.3985C28.6171 19.0667 27.9847 19.981 27.9847 20.9657C27.9847 21.9504 28.6171 22.8647 29.7765 23.5329C30.971 24.201 32.4817 24.5527 33.9924 24.5527ZM33.9924 17.8359C35.4328 17.8359 36.8732 18.1524 37.9975 18.7854C39.0163 19.3832 39.5784 20.1569 39.5784 20.9657C39.5784 21.7745 39.0163 22.5482 37.9975 23.146C35.7841 24.412 32.2006 24.412 29.9873 23.146C28.9684 22.5482 28.4063 21.7745 28.4063 20.9657C28.4063 20.1569 28.9684 19.3832 29.9873 18.7854C31.1115 18.1524 32.5519 17.8359 33.9924 17.8359Z" fill="#171753"/>
<path d="M31.1467 19.5237C32.7276 18.7149 35.2923 18.7149 36.8732 19.5237C38.4542 20.3326 38.4542 21.6337 36.8732 22.4074C35.2923 23.2162 32.7276 23.2162 31.1467 22.4074C29.5657 21.6337 29.5657 20.3326 31.1467 19.5237Z" fill="#171753"/>
<path d="M33.9924 23.2514C35.0815 23.2514 36.1355 23.0404 36.9435 22.6184C37.7867 22.1964 38.2434 21.5986 38.2434 20.9656C38.2434 20.3326 37.7867 19.7348 36.9435 19.3128C35.2923 18.504 32.6574 18.504 31.0061 19.3128C30.163 19.7348 29.7062 20.3326 29.7062 20.9656C29.7062 21.5986 30.163 22.1964 31.0061 22.6184C31.8493 23.0404 32.9384 23.2514 33.9924 23.2514ZM33.9924 19.137C35.0112 19.137 35.9949 19.3128 36.7678 19.6996C37.4705 20.0513 37.8218 20.5085 37.8218 20.9656C37.8218 21.4228 37.4354 21.8799 36.7678 22.2316C35.2572 23.0053 32.7628 23.0053 31.2169 22.2316C30.5143 21.8799 30.163 21.4228 30.163 20.9656C30.163 20.5085 30.5494 20.0513 31.2169 19.6996C31.9898 19.348 33.0087 19.137 33.9924 19.137Z" fill="#171753"/>
<path d="M31.1468 20.403C32.7278 19.5942 35.2925 19.5942 36.8734 20.403C37.4355 20.6843 37.822 21.036 37.9625 21.4228C37.7869 21.8097 37.4355 22.1613 36.8734 22.4427C35.2925 23.2515 32.7278 23.2515 31.1468 22.4427C30.5847 22.1613 30.1983 21.8097 30.0577 21.4228C30.1983 21.036 30.5847 20.6843 31.1468 20.403Z" fill="#8989C7"/>
<path d="M33.9924 23.2516C35.0815 23.2516 36.1355 23.0406 36.9435 22.6186C37.5408 22.3021 37.9624 21.9153 38.138 21.4933L38.1732 21.423L38.138 21.3526C37.9624 20.9306 37.5408 20.5438 36.9435 20.2273C35.2923 19.4185 32.6574 19.4185 31.0062 20.2273C30.4089 20.5438 29.9873 20.9306 29.8117 21.3526L29.7765 21.423L29.8117 21.4933C29.9873 21.9153 30.4089 22.3021 31.0062 22.6186C31.8493 23.0406 32.9384 23.2516 33.9924 23.2516ZM37.7164 21.423C37.5408 21.7394 37.2246 22.0208 36.7679 22.2318C35.2572 23.0054 32.7628 23.0054 31.2169 22.2318C30.7602 21.9856 30.444 21.7043 30.2684 21.423C30.444 21.1065 30.7602 20.8251 31.2169 20.6141C32.7276 19.8405 35.222 19.8405 36.7679 20.6141C37.2246 20.8251 37.5759 21.1065 37.7164 21.423Z" fill="#171753"/>
<path d="M29.8819 23.4976H30.1981V24.7636H29.8819V23.4976Z" fill="#8989C7"/>
<path d="M38.8055 22.8295H39.1216V24.0955H38.8055V22.8295Z" fill="#8989C7"/>
<path d="M33.3249 18.9964H33.6411V19.8052H33.3249V18.9964Z" fill="#8989C7"/>
<path d="M31.3223 24.0956H31.6385V25.3616H31.3223V24.0956Z" fill="#8989C7"/>
<path d="M27.0362 16.3237C27.6334 15.5852 28.2658 15.7259 29.917 15.3742C31.3223 15.0577 32.7979 15.0577 34.1681 15.4445C35.5382 15.7962 36.3814 16.0424 36.9787 16.6754L37.7164 17.0622V18.6095V18.6447C37.6813 19.6645 36.8381 20.6492 35.1518 21.3525C33.4654 22.0558 31.6385 22.1613 29.8819 21.7393C27.3875 21.1415 26.1579 19.9107 26.1227 18.6447V18.5743V17.0974L27.0362 16.3237Z" fill="#171753"/>
<path d="M31.9548 22.1614C33.079 22.1614 34.2033 21.9504 35.2221 21.5284C36.9084 20.825 37.857 19.8052 37.8922 18.6447V16.9567L37.0841 16.5347C36.4517 15.8314 35.5031 15.5852 34.2033 15.2687C32.798 14.9171 31.2873 14.8819 29.8468 15.1984C29.3901 15.3039 29.0037 15.3742 28.6875 15.4094C27.8443 15.5501 27.3524 15.6204 26.8606 16.2182L25.8417 16.9919V18.6447C25.8769 20.1217 27.3524 21.3525 29.7766 21.9504C30.5144 22.0559 31.217 22.1614 31.9548 22.1614ZM37.4706 17.1677V18.5744C37.4354 19.5942 36.5923 20.4734 35.0464 21.1064C33.4655 21.7745 31.6386 21.88 29.882 21.458C27.7038 20.9305 26.3336 19.8052 26.2985 18.5744V18.504V17.1677L27.1768 16.4644C27.5632 16.0072 27.9497 15.9369 28.7577 15.7962C29.1091 15.7259 29.4604 15.6907 29.9522 15.5852C31.3224 15.2687 32.7628 15.3039 34.133 15.6556C35.5383 16.0072 36.3112 16.2534 36.8382 16.8161L36.9084 16.8512L37.4706 17.1677Z" fill="#171753"/>
<path d="M31.8845 20.4028C28.683 20.4028 26.0877 18.9071 26.0877 17.062C26.0877 15.2169 28.683 13.7212 31.8845 13.7212C35.086 13.7212 37.6813 15.2169 37.6813 17.062C37.6813 18.9071 35.086 20.4028 31.8845 20.4028Z" fill="#E3E0EB"/>
<path d="M31.8845 20.614C33.3952 20.614 34.941 20.2624 36.1004 19.5942C37.2598 18.926 37.8922 18.0117 37.8922 17.027C37.8922 16.0424 37.2598 15.128 36.1004 14.4599C33.7817 13.1236 29.9874 13.1236 27.6686 14.4599C26.5093 15.128 25.8769 16.0424 25.8769 17.027C25.8769 18.0117 26.5093 18.926 27.6686 19.5942C28.828 20.2975 30.3738 20.614 31.8845 20.614ZM31.8845 13.8972C33.3249 13.8972 34.7654 14.2137 35.8896 14.8467C36.9084 15.4445 37.4706 16.2182 37.4706 17.027C37.4706 17.8359 36.9084 18.6095 35.8896 19.2074C33.6763 20.4734 30.0928 20.4734 27.8794 19.2074C26.8606 18.6095 26.2985 17.8359 26.2985 17.027C26.2985 16.2182 26.8606 15.4445 27.8794 14.8467C29.0037 14.2137 30.4441 13.8972 31.8845 13.8972Z" fill="#171753"/>
<path d="M31.8844 19.1016C29.653 19.1016 27.8442 18.1884 27.8442 17.0619C27.8442 15.9355 29.653 15.0223 31.8844 15.0223C34.1158 15.0223 35.9246 15.9355 35.9246 17.0619C35.9246 18.1884 34.1158 19.1016 31.8844 19.1016Z" fill="#171753"/>
<path d="M31.8844 19.3131C32.9735 19.3131 34.0275 19.1022 34.8355 18.6802C35.6787 18.2582 36.1354 17.6603 36.1354 17.0273C36.1354 16.3943 35.6787 15.7965 34.8355 15.3745C33.1843 14.5657 30.5494 14.5657 28.8982 15.3745C28.055 15.7965 27.5983 16.3943 27.5983 17.0273C27.5983 17.6603 28.055 18.2582 28.8982 18.6802C29.7413 19.1022 30.8304 19.3131 31.8844 19.3131ZM31.8844 15.2338C32.9033 15.2338 33.887 15.4097 34.6599 15.7965C35.3625 16.1482 35.7138 16.6053 35.7138 17.0625C35.7138 17.5197 35.3274 17.9768 34.6599 18.3285C33.1492 19.1022 30.6548 19.1022 29.109 18.3285C28.4063 17.9768 28.055 17.5197 28.055 17.0625C28.055 16.6053 28.4414 16.1482 29.109 15.7965C29.8819 15.4097 30.9007 15.2338 31.8844 15.2338Z" fill="#171753"/>
<path d="M29.0387 16.4642C30.6196 15.6553 33.1843 15.6553 34.7653 16.4642C35.3274 16.7455 35.7138 17.0972 35.8544 17.484C35.6787 17.8708 35.3274 18.2225 34.7653 18.5038C33.1843 19.3127 30.6196 19.3127 29.0387 18.5038C28.4766 18.2225 28.0901 17.8708 27.9496 17.484C28.0901 17.0972 28.4414 16.7455 29.0387 16.4642Z" fill="#8989C7"/>
<path d="M31.8844 19.3129C32.9735 19.3129 34.0275 19.1019 34.8356 18.6799C35.4328 18.3634 35.8544 17.9766 36.0301 17.5546L36.0652 17.4842L36.0301 17.4139C35.8544 16.9919 35.4328 16.6051 34.8356 16.2886C33.1843 15.4797 30.5494 15.4797 28.8982 16.2886C28.3009 16.6051 27.8793 16.9919 27.7037 17.4139L27.6685 17.4842L27.7037 17.5546C27.8793 17.9766 28.3009 18.3634 28.8982 18.6799C29.7414 19.1019 30.8305 19.3129 31.8844 19.3129ZM35.6085 17.4842C35.4328 17.8007 35.1166 18.0821 34.6599 18.2931C33.1492 19.0667 30.6548 19.0667 29.109 18.2931C28.6523 18.0469 28.3361 17.7656 28.1604 17.4842C28.3361 17.1677 28.6523 16.8864 29.109 16.6754C30.6197 15.9017 33.1141 15.9017 34.6599 16.6754C35.1166 16.8864 35.4679 17.1677 35.6085 17.4842Z" fill="#171753"/>
<path d="M27.774 19.5944H28.0902V20.8604H27.774V19.5944Z" fill="#8989C7"/>
<path d="M36.6976 18.8909H37.0138V20.1569H36.6976V18.8909Z" fill="#8989C7"/>
<path d="M31.2169 15.0577H31.5331V15.8666H31.2169V15.0577Z" fill="#8989C7"/>
<path d="M29.2143 20.1566H29.5305V21.4226H29.2143V20.1566Z" fill="#8989C7"/>
</svg>
