<svg width="31" height="42" viewBox="0 0 31 42" fill="none" xmlns="http://www.w3.org/2000/svg">
<path d="M28.3077 21.7873C28.3077 21.7873 29.4403 21.9943 29.4403 23.5218V26.9719H28.0127L28.3077 21.7873Z" fill="#171753" stroke="#171753" stroke-width="0.5" stroke-miterlimit="10"/>
<path d="M29.0262 22.7342C28.8954 22.5835 28.7391 22.4571 28.5645 22.3606L23.5679 19.4721L23.9272 18.8463L28.9238 21.7372C29.1726 21.8755 29.395 22.0567 29.5805 22.2726L29.0262 22.7342Z" fill="#FFC78F"/>
<path d="M26.4401 13.3171L7.82195 2.56491C6.85145 2.06255 5.75101 1.86752 4.66697 2.00577C4.10019 2.0584 3.54701 2.20979 3.03241 2.45308C2.48992 2.72195 2.12349 3.07408 2.00453 3.44526C1.84749 3.93778 2.16866 4.47074 2.86105 4.87285L21.4911 15.625C21.991 15.9155 22.4059 16.3321 22.6944 16.8331C22.9829 17.3341 23.1349 17.902 23.1353 18.4802V33.696L22.5737 33.3343L22.1621 35.0831L26.6947 37.7004L26.8161 37.7693C26.8962 37.8148 26.9868 37.8384 27.0789 37.8377C27.171 37.8371 27.2614 37.8123 27.3409 37.7658C27.4204 37.7193 27.4863 37.6528 27.532 37.5728C27.5777 37.4928 27.6015 37.4022 27.6012 37.3101V15.3371C27.6011 14.9283 27.4939 14.5267 27.2902 14.1722C27.0864 13.8178 26.7933 13.5229 26.4401 13.3171Z" fill="#171753" stroke="#171753" stroke-width="0.5" stroke-miterlimit="10"/>
<path d="M25.1768 37.1006V15.0585L4.77885 3.94473L4.2554 4.29449L23.3661 36.7556L24.5724 37.4503L25.1768 37.1006Z" fill="#171753" stroke="#171753" stroke-width="0.5" stroke-miterlimit="10"/>
<path d="M24.013 15.7298V37.7742L23.4063 38.124L3.56754 26.6699V4.12112L24.013 15.7298Z" fill="#171753" stroke="#171753" stroke-width="0.5" stroke-miterlimit="10"/>
<path d="M3.16324 25.4131C3.4368 25.2615 3.73219 25.1532 4.03887 25.0919C4.13642 25.2441 4.22919 25.4012 4.31247 25.5677C4.12081 25.6056 3.93619 25.6731 3.76521 25.7676C3.444 25.9556 3.28938 26.2125 3.32745 26.4814C3.35678 26.5953 3.41047 26.7016 3.48482 26.7927C3.55916 26.8839 3.65236 26.9579 3.75807 27.0096L23.2209 38.2447L22.6166 38.5945L3.15371 27.3594C2.98777 27.2792 2.84138 27.1638 2.72466 27.0212C2.60795 26.8786 2.52376 26.7122 2.47802 26.5337C2.40902 26.1078 2.65882 25.7057 3.16324 25.4131Z" fill="#FFA54B" stroke="#171753" stroke-width="0.5" stroke-miterlimit="10"/>
<path d="M2.71835 26.1702V4.65061L4.05592 5.75128L4.07322 5.76551L4.09277 5.77644L22.9732 16.3333V38.0866L22.6199 38.2902L2.71835 26.1702Z" fill="#FFA54B" stroke="#171753" stroke-width="0.5" stroke-miterlimit="10"/>
<path d="M22.6163 16.5362L23.2206 16.1864L3.75779 4.9489C3.65234 4.89747 3.55928 4.82386 3.48494 4.7331C3.41061 4.64234 3.35681 4.53658 3.32717 4.42307C3.28435 4.16134 3.44372 3.90438 3.76493 3.70927C4.13984 3.51153 4.56286 3.4233 4.98555 3.45468C5.30413 3.46907 5.61542 3.55442 5.89679 3.70451L25.3596 14.942L25.9664 14.5923L6.50353 3.35475C6.0635 3.11789 5.57527 2.98444 5.07594 2.96454C4.41672 2.91546 3.75701 3.05317 3.17248 3.36189C2.66807 3.65216 2.41827 4.05427 2.48727 4.46351C2.53301 4.64202 2.61714 4.80839 2.73385 4.951C2.85057 5.0936 2.99701 5.209 3.16296 5.28914L22.6163 16.5362Z" fill="#FFC78F" stroke="#171753" stroke-width="0.5" stroke-miterlimit="10"/>
<path d="M23.406 16.0792L24.0103 15.7295L4.53556 4.48478C4.50754 4.47196 4.48287 4.45283 4.46347 4.42889C4.44407 4.40495 4.43048 4.37685 4.42374 4.34679C4.42164 4.30821 4.43148 4.26993 4.45191 4.23715C4.47235 4.20437 4.50239 4.17868 4.53794 4.16358C4.63545 4.11076 4.74629 4.0876 4.85679 4.09696C4.94027 4.09995 5.02183 4.12279 5.09472 4.16358L24.5694 15.4059L25.1762 15.0561L5.70146 3.81382C5.46815 3.68849 5.20941 3.61771 4.9448 3.60681C4.59549 3.57986 4.2457 3.65246 3.93597 3.81619C3.82201 3.86316 3.72563 3.94465 3.66034 4.0492C3.59505 4.15375 3.56412 4.27612 3.57192 4.39913C3.59661 4.4931 3.64132 4.58063 3.70292 4.65577C3.76451 4.73092 3.84153 4.79189 3.92882 4.83454L23.406 16.0792Z" fill="#FFC78F" stroke="#171753" stroke-width="0.5" stroke-miterlimit="10"/>
<path d="M28.5671 15.3346V36.8603C28.5671 37.3076 28.3292 37.4741 27.9437 37.6954C27.7559 37.8061 27.5419 37.8645 27.3239 37.8645C27.1059 37.8645 26.8919 37.8061 26.7041 37.6954L24.6434 36.6022L24.6386 35.4959L27.1871 36.8674C27.2288 36.8936 27.2771 36.9075 27.3263 36.9075C27.3755 36.9075 27.4238 36.8936 27.4655 36.8674C27.5078 36.8435 27.5433 36.809 27.5683 36.7673C27.5933 36.7256 27.6071 36.6781 27.6082 36.6295V15.3346C27.6075 14.9262 27.4997 14.5252 27.2955 14.1716C27.0913 13.8179 26.798 13.5241 26.4447 13.3193L7.8218 2.56474C6.85075 2.06405 5.75059 1.86991 4.66682 2.00798C4.09853 2.05645 3.54385 2.20802 3.02987 2.45528H3.02042C2.4711 2.73323 2.11588 3.07496 1.99725 3.44507C1.84022 3.93759 2.16145 4.47056 2.85383 4.87267L21.4839 15.6248C21.9834 15.9151 22.3981 16.3313 22.6865 16.8319C22.975 17.3324 23.1272 17.8999 23.128 18.4776V39.7535C23.128 40.4897 22.9402 40.5928 22.6169 40.7701C22.5819 40.7893 22.5452 40.8095 22.507 40.8314C22.3179 40.942 22.1027 41.0002 21.8836 41.0002C21.6645 41.0002 21.4494 40.942 21.2602 40.8314L12.2711 35.642C12.3187 35.297 12.3592 34.9497 12.3973 34.6023L21.7432 39.9986C21.7858 40.0249 21.8348 40.0389 21.8848 40.0389C21.9348 40.0389 21.9838 40.0249 22.0264 39.9986C22.0688 39.9749 22.1041 39.9405 22.1288 39.8986C22.1534 39.8568 22.1666 39.8092 22.1668 39.7607V18.4776C22.1667 18.0686 22.0589 17.6667 21.8542 17.3125C21.6496 16.9583 21.3552 16.6643 21.0009 16.46L2.37558 5.70305C2.03192 5.51214 1.7269 5.25876 1.47619 4.95594C1.26157 4.71424 1.11271 4.42139 1.04395 4.10554C0.975203 3.78969 0.988832 3.46147 1.08357 3.15242C1.28433 2.52654 1.80161 1.99209 2.58183 1.6026L2.5873 1.59397C3.20451 1.30249 3.86657 1.11747 4.54547 1.04673C5.83725 0.890255 7.14606 1.13093 8.29766 1.73673L26.9301 12.4913C27.4264 12.7822 27.8384 13.1974 28.1254 13.696C28.4125 14.1945 28.5647 14.7593 28.5671 15.3346Z" fill="#FFC78F" stroke="#171753" stroke-width="0.5" stroke-miterlimit="10"/>
<path d="M25.362 14.9517V36.9961L25.9664 36.6463V14.6019L25.362 14.9517Z" fill="#FFA54B" stroke="#171753" stroke-width="0.5" stroke-miterlimit="10"/>
<path d="M24.6481 15.4276V37.4721L25.2524 37.1223V15.0779L24.6481 15.4276Z" fill="#FFA54B" stroke="#171753" stroke-width="0.5" stroke-miterlimit="10"/>
<path d="M23.4584 16.1245V38.1856L24.0627 37.8358V15.7748L23.4584 16.1245Z" fill="#FFA54B" stroke="#171753" stroke-width="0.5" stroke-miterlimit="10"/>
<path d="M21.0007 16.46L2.37538 5.70305C2.22022 5.614 2.07222 5.51296 1.9328 5.40087C1.8638 5.34614 1.79954 5.28904 1.73768 5.23194L1.68534 5.18435C1.6109 5.10925 1.54101 5.0298 1.47599 4.94642C1.19806 4.62161 1.03131 4.21642 1.00012 3.79007V3.77817V27.9997C1.03343 28.7301 1.5212 29.4273 2.37538 29.9269L21.2743 40.8361C21.9143 41.1859 22.1666 40.7362 22.1666 40.277V18.4776C22.1665 18.0685 22.0587 17.6667 21.854 17.3125C21.6494 16.9583 21.355 16.6643 21.0007 16.46Z" fill="#171753" stroke="#171753" stroke-width="0.5" stroke-miterlimit="10"/>
<path d="M21.4816 40.7004C21.397 40.691 21.3156 40.6625 21.2436 40.6171L2.34946 29.7103C1.61187 29.282 1.17168 28.6801 1.14313 28.059V27.9401V5.36984L1.25971 5.49119C1.38582 5.60778 1.45723 5.67202 1.53337 5.72912C1.68326 5.85142 1.84235 5.96199 2.00923 6.05985L20.6346 16.8144C20.9371 16.9896 21.1884 17.2411 21.3633 17.5438C21.5382 17.8465 21.6307 18.1898 21.6315 18.5394V40.353C21.6355 40.4552 21.6134 40.5567 21.5672 40.648C21.5387 40.6956 21.5149 40.7004 21.4839 40.7004H21.4816Z" fill="#171753" stroke="#171753" stroke-width="0.5" stroke-miterlimit="10"/>
<path d="M29.5886 23.6056L29.2354 24.4157C29.1427 24.4839 29.0466 24.5472 28.9475 24.6054L25.5855 26.5653C24.3578 27.2858 22.4258 27.2858 21.1885 26.5653L18.0869 24.7183L17.5777 24.4157C17.3993 24.31 17.1923 24.2764 17.0638 24.5045C17.0638 24.5166 17.0495 24.5358 17.0424 24.5502C17.0275 24.587 17.0148 24.6247 17.0043 24.6631C16.9739 24.7577 16.9578 24.8565 16.9567 24.9561V25.117V29.4402C16.9573 29.7982 17.0507 30.1497 17.2277 30.4599C17.4047 30.77 17.6591 31.0279 17.9656 31.2079L21.1885 33.1294C21.8676 33.4967 22.6285 33.6827 23.3989 33.6698C24.1609 33.6833 24.9136 33.4997 25.5855 33.1366L28.9475 31.1767C29.1974 31.0524 29.4164 30.873 29.5886 30.6519C29.7607 30.4308 29.8815 30.1735 29.942 29.899C29.9516 29.8289 29.9564 29.7583 29.9563 29.6876V23.2028L29.5886 23.6056Z" fill="#171753"/>
<path d="M16.9567 25.117V24.9561C16.9578 24.8565 16.9739 24.7577 17.0043 24.6631C17.0148 24.6247 17.0275 24.587 17.0424 24.5502C17.0495 24.5358 17.0638 24.5166 17.0638 24.5045C17.1923 24.2764 17.3993 24.31 17.5777 24.4157L18.0869 24.7183L21.1885 26.5653C22.4258 27.2858 24.3578 27.2858 25.5855 26.5653L28.9475 24.6054C29.0466 24.5472 29.1427 24.4839 29.2354 24.4157L29.5886 23.6056L29.9563 23.2028V29.6876C29.9564 29.7583 29.9516 29.8289 29.942 29.899C29.8815 30.1735 29.7607 30.4308 29.5886 30.6519C29.4164 30.873 29.1974 31.0524 28.9475 31.1767L25.5855 33.1366C24.9136 33.4997 24.1609 33.6833 23.3989 33.6698C22.6285 33.6827 21.8676 33.4967 21.1885 33.1294L17.9656 31.2079C17.6591 31.0279 17.4047 30.77 17.2277 30.4599C17.0507 30.1497 16.9573 29.7982 16.9567 29.4402V25.117ZM16.9567 25.117C16.9567 25.057 16.9567 25.0041 16.9567 24.9513M16.9758 24.8072H16.9663" stroke="#FFC78F" stroke-width="0.5" stroke-miterlimit="10"/>
<path d="M29.9494 23.2837C29.9475 23.3403 29.9419 23.3968 29.9327 23.4527C29.8378 23.8777 29.5874 24.2519 29.2308 24.5019C29.1381 24.5695 29.042 24.6322 28.9429 24.6899L25.5809 26.6314C24.3532 27.3452 22.4212 27.3452 21.1839 26.6314L18.0269 24.7337L17.5177 24.4339C17.3392 24.3292 17.1322 24.2959 17.0037 24.5219C17.089 24.3482 17.2251 24.2046 17.394 24.1103C17.5447 24.0216 17.7163 23.9748 17.8912 23.9748C18.0661 23.9748 18.2378 24.0216 18.3885 24.1103L21.5408 26.0057C22.5401 26.5839 24.2247 26.5862 25.2145 26.0057L28.5765 24.0665C28.7295 23.9956 28.8657 23.893 28.9761 23.7654C29.0864 23.6378 29.1684 23.4882 29.2165 23.3266C29.2311 23.2195 29.2216 23.1105 29.1886 23.0076C29.1557 22.9047 29.1002 22.8105 29.0262 22.7317L29.5806 22.2725C29.8271 22.5507 29.9589 22.9121 29.9494 23.2837Z" fill="#FFC78F"/>
<path d="M20.9881 29.5727C20.9613 29.1411 20.8326 28.722 20.6126 28.3498C20.3926 27.9776 20.0875 27.6628 19.7223 27.4313C19.5984 27.3443 19.454 27.2913 19.3033 27.2775C19.1526 27.2637 19.0009 27.2897 18.8634 27.3528H18.8467L18.4589 27.5764L18.4803 27.6097C18.3355 27.8067 18.2655 28.0488 18.2828 28.2926C18.3101 28.724 18.439 29.1429 18.659 29.515C18.879 29.8871 19.1838 30.202 19.5486 30.434C19.7536 30.5638 19.9989 30.6145 20.2386 30.5767L20.2552 30.6005L20.5908 30.4078C20.617 30.3942 20.6423 30.3791 20.6669 30.3626C20.7801 30.2666 20.8685 30.1446 20.9244 30.0071C20.9804 29.8695 21.0022 29.7205 20.9881 29.5727Z" fill="#FFC78F"/>
<path d="M20.6239 29.7798C20.6239 30.5793 20.0838 30.9148 19.3938 30.5317C19.029 30.2997 18.7242 29.9848 18.5042 29.6127C18.2842 29.2406 18.1553 28.8217 18.128 28.3903C18.128 27.5908 18.6681 27.253 19.3581 27.6384C19.7232 27.87 20.0284 28.1847 20.2484 28.557C20.4684 28.9292 20.5971 29.3483 20.6239 29.7798Z" fill="#FFA54B" stroke="#171753" stroke-width="0.5" stroke-miterlimit="10"/>
<path d="M14.8737 27.4021C14.8861 27.2683 14.8919 27.1285 14.8929 26.9849C14.8929 24.4502 13.1878 20.574 10.9419 19.2548C10.7857 19.1632 10.6232 19.0828 10.4559 19.0145C10.1735 18.6441 9.89968 18.2582 9.62783 17.8878C9.52313 17.7403 9.38672 17.5253 9.25032 17.4452C9.00056 17.2986 8.77866 17.5058 8.92275 17.8556C8.88203 17.8059 8.8333 17.7636 8.77866 17.7305C8.52122 17.5781 8.31758 17.8448 8.52122 18.2357C8.49039 18.1971 8.45337 18.164 8.41172 18.138C8.24745 18.0403 8.11489 18.1722 8.13218 18.3744C8.14947 18.5767 8.30893 18.8845 8.42036 19.1122C7.88339 19.4483 7.49146 20.018 7.1639 20.6375C6.86804 21.2013 6.61348 21.8012 6.34835 22.3963C6.21099 22.6992 5.96412 23.5522 5.51071 23.2874C5.42298 23.2315 5.34613 23.1597 5.28401 23.0754C4.82293 22.4891 4.58374 21.4827 4.5213 20.8681C4.49152 20.531 4.48191 20.0864 4.69228 19.9603C4.82293 19.889 5.01504 19.9486 5.22638 20.0717C5.76623 20.3893 6.42424 21.128 6.4473 21.1465C6.09476 20.6638 5.28978 19.589 4.69709 19.2411C4.39162 19.0614 4.14282 19.076 4.04196 19.4639C4.0044 19.6239 3.98602 19.788 3.98721 19.9525C4.0028 20.5039 4.09497 21.0503 4.26098 21.5755C4.45309 22.2273 4.72014 22.9435 5.14953 23.5122C5.26365 23.6747 5.40708 23.8136 5.57219 23.9216C6.24461 24.3125 6.57601 23.1643 6.82577 22.7012C7.259 21.8735 7.73449 21.0576 8.42036 20.5749C8.67671 20.3926 8.97419 20.279 9.2852 20.2449C9.59622 20.2107 9.91068 20.257 10.1994 20.3795C10.3386 20.4326 10.4729 20.498 10.6009 20.5749C10.7876 20.6856 10.963 20.8149 11.1244 20.9609C11.9842 21.725 12.7392 22.9552 13.1993 24.0994C13.6383 25.1928 13.9294 26.4709 13.7997 27.3787C13.7469 27.8028 13.6076 28.2259 13.2502 28.2581C13.0437 28.2874 12.7949 28.1946 12.5452 28.048C12.3193 27.9103 12.1053 27.7534 11.9054 27.579C11.3863 27.1124 10.8952 26.6144 10.4347 26.0879C9.97365 25.5827 8.08607 23.3422 7.61346 22.7207C8.4415 23.9324 9.25896 25.1508 10.161 26.2833C10.0878 26.3345 10.0208 26.3942 9.96116 26.4612C9.89392 26.5384 9.96116 26.7543 10.0639 26.8188C10.0768 26.8267 10.0911 26.8318 10.106 26.8337C10.1209 26.8355 10.1361 26.8341 10.1504 26.8295C10.1252 26.9027 10.1248 26.9823 10.1494 27.0556C10.1739 27.129 10.222 27.1918 10.2858 27.2341C10.2992 27.2422 10.3134 27.2487 10.3281 27.2536C10.2609 27.3601 10.3646 27.5673 10.4837 27.6367C10.512 27.6556 10.5461 27.6636 10.5798 27.6591L11.2224 27.5086C11.64 27.9614 12.1148 28.3557 12.6345 28.6812C13.0014 28.8972 13.3655 29.0281 13.7017 29.0232C14.2704 29.0007 14.6181 28.5659 14.7786 27.9591C14.828 27.7763 14.8601 27.5892 14.8746 27.4002L14.8737 27.4021ZM11.4539 23.7848C11.4653 23.9843 11.5223 24.1784 11.6206 24.3514C11.7188 24.5245 11.8555 24.6718 12.0197 24.7815C12.3348 24.9662 12.5874 24.8196 12.5884 24.4512C12.5786 24.2514 12.5223 24.0569 12.4241 23.8836C12.3259 23.7103 12.1886 23.5633 12.0236 23.4545C11.7075 23.2699 11.4549 23.4164 11.4539 23.7848Z" fill="#FFC78F"/>
</svg>
