<svg width="31" height="42" viewBox="0 0 31 42" fill="none" xmlns="http://www.w3.org/2000/svg">
<path d="M10.771 39.2814L11.0539 38.9985C10.771 39.2814 10.7711 39.2815 10.7712 39.2815L10.7713 39.2817L10.7716 39.282L10.7722 39.2826L10.7736 39.2839L10.7768 39.287L10.7851 39.2949C10.7915 39.3008 10.8 39.3085 10.8103 39.3171C10.8267 39.3308 10.8643 39.361 10.915 39.3863C10.9405 39.3991 10.985 39.4186 11.0428 39.4282C11.1013 39.438 11.1979 39.4412 11.3002 39.39C11.3565 39.3619 11.3992 39.3265 11.4317 39.2884L17.0096 36.0674L17.2096 35.9519V35.721V35.6411V35.5762L17.189 35.5146L16.8008 34.3498C16.7766 34.18 16.7525 34.0029 16.7284 33.8206L23.1474 40.945L23.2665 41.0773H23.4446H23.5245H23.6386L23.7356 41.0171L28.9568 37.7735C28.9765 37.7669 28.9975 37.7584 29.0194 37.7475C29.0768 37.7188 29.1464 37.6694 29.2008 37.5879C29.2012 37.5873 29.2016 37.5866 29.2021 37.586C29.9245 37.0736 30.3197 36.1538 30.3197 35.0016V17.4218C30.3611 16.2078 29.9299 14.8573 29.2466 13.6771C28.5619 12.4943 27.5968 11.4354 26.5199 10.8317C26.5192 10.8313 26.5185 10.8309 26.5178 10.8305L9.73658 1.16127C9.73627 1.16109 9.73596 1.16091 9.73565 1.16073C8.7088 0.562015 7.68104 0.427735 6.87801 0.829253L6.84775 0.844384L6.82045 0.864385L1.30461 4.90658L1.14105 5.02645V5.22922V6.21918V6.3136L1.18328 6.39806C1.25739 6.5463 1.46678 6.86415 1.71133 7.23194C1.76458 7.31203 1.82047 7.39588 1.87842 7.48284C2.09778 7.81198 2.34674 8.18553 2.59444 8.56732C2.90785 9.05036 3.21483 9.53987 3.4523 9.96037C3.57109 10.1707 3.66981 10.3591 3.74255 10.5178C3.81818 10.6827 3.85467 10.7921 3.86545 10.8514L3.86539 10.8514L3.86677 10.8582L3.86677 10.8583C3.94639 11.2563 4.66158 14.8323 5.4578 19.051V21.172C5.4578 22.4284 5.86644 23.8331 6.59933 25.0007C7.03299 27.1703 7.42682 29.1988 7.71319 30.6998C7.85799 31.4588 7.97525 32.0825 8.05625 32.5211C8.09677 32.7406 8.12809 32.913 8.14921 33.0326C8.15981 33.0927 8.16762 33.1382 8.17269 33.1692C8.17394 33.1768 8.17495 33.1831 8.17575 33.1883V33.2444L8.20757 33.3193L10.6857 39.1549L10.7161 39.2264L10.771 39.2814ZM8.17858 33.2081C8.17853 33.2079 8.17825 33.2059 8.17788 33.2025C8.17844 33.2065 8.17862 33.2082 8.17858 33.2081Z" fill="#FFE850" stroke="#171753" stroke-width="0.8"/>
<path d="M26.475 11.2132L26.4859 11.2196L26.4971 11.2252C27.1089 11.5311 27.6938 12.1183 28.2497 12.8334L22.382 16.4038L20.0652 15.2287L3.33391 6.3619L10.4559 1.90165L26.475 11.2132Z" fill="white" stroke="#171753" stroke-width="0.8"/>
<path d="M24.4042 19.4133C24.4042 19.4133 17.6093 21.0121 17.1297 21.172C16.73 21.3319 10.095 26.6879 7.85669 29.166C8.33633 31.4843 8.65609 33.0831 8.65609 33.163L11.1342 38.9986C11.1342 38.9986 11.2142 39.0785 11.2142 38.9986L16.8899 35.7211V35.6411L16.4902 34.442C16.4102 33.8825 16.3303 33.2429 16.2504 32.6034L23.5249 40.6773H23.6048L28.8809 37.3998C28.8809 37.3998 28.9608 37.3998 28.9608 37.3199C29.6003 36.9202 30 36.1208 30 35.0016V17.4149C30 17.0152 29.9201 16.5355 29.8401 16.0559L24.4042 19.4133Z" fill="#171753"/>
<path d="M10.9014 38.5169L10.9013 38.5169L10.9032 38.5252C10.9348 38.6674 10.9329 38.7655 10.9219 38.8234C10.92 38.8336 10.9179 38.8419 10.9159 38.8487C10.8816 38.841 10.8195 38.8179 10.7317 38.7559C8.13709 36.7688 7.44422 34.0952 7.21085 32.8526C7.16037 32.5539 7.03819 32.2645 6.88258 32.0251C6.73232 31.7939 6.5289 31.576 6.28925 31.4522L4.38264 30.34C3.45614 29.7834 2.60183 28.8416 1.97839 27.7482C1.35438 26.6538 0.981696 25.4426 0.981696 24.369V6.78225C0.981696 5.70515 1.34996 5.07419 1.82878 4.80163C2.31061 4.52736 3.05136 4.5316 3.98084 5.0513L20.7629 14.8009C21.6891 15.3573 22.543 16.2987 23.1662 17.4012C23.7897 18.5043 24.1636 19.736 24.1636 20.8517V38.4384C24.1636 39.5155 23.7954 40.1465 23.3165 40.419C22.8347 40.6933 22.094 40.6891 21.1645 40.1694C21.1636 40.1689 21.1627 40.1684 21.1618 40.1678L11.8192 34.7379C11.8183 34.7374 11.8175 34.7369 11.8166 34.7364C11.5573 34.5816 11.2193 34.4945 10.9141 34.6588C10.6015 34.8272 10.4939 35.166 10.4939 35.4806C10.4939 36.4941 10.7112 37.5726 10.8682 38.3515C10.8796 38.4083 10.8907 38.4634 10.9014 38.5169ZM10.9055 38.8737C10.9055 38.8737 10.9057 38.8734 10.9061 38.8729L10.9055 38.8737Z" fill="#FFE850" stroke="#171753" stroke-width="0.8"/>
<g clip-path="url(#clip0_92_5219)">
<path d="M34.7154 8.38703C34.7154 6.43093 33.2753 4.18134 31.4989 3.3624L-97.8407 -56.2639C-99.6171 -57.0829 -101.057 -56.161 -101.057 -54.2049V88.217C-101.057 90.1731 -99.6171 92.4227 -97.8407 93.2416L31.4989 152.868C33.2753 153.687 34.7154 152.765 34.7154 150.809V8.38703Z" fill="#171753"/>
<path d="M16.0089 19.8525C16.0089 17.6031 14.3646 15.0461 12.3091 14.0985C10.2536 13.1509 8.60937 14.1919 8.60937 16.4413C8.60937 18.6903 10.2536 21.2477 12.3091 22.1953C14.3646 23.1429 16.0089 22.0265 16.0089 19.8525Z" fill="white"/>
<path d="M15.5468 38.0643C15.285 38.2355 15.0189 38.3967 14.7501 38.5537L13.5932 38.0203C14.4809 37.3895 15.3147 36.6625 15.9209 35.676C16.4628 34.7975 16.7709 33.6209 16.5892 32.292C16.5152 31.7197 16.3513 31.1015 16.0613 30.4752C15.2827 28.7639 13.8816 27.2166 12.5226 26.2392C11.2222 25.3062 9.65147 24.6397 8.45674 24.8078C7.90103 24.8741 7.32642 25.1018 7.19684 25.7827C7.03641 26.5224 7.3939 27.5789 7.7541 28.4121C8.18949 29.4123 8.75562 30.3803 9.32175 31.3482C9.86127 32.2738 12.2935 36.0755 12.98 37.0307C11.7124 35.4594 10.4359 33.9048 9.26351 32.2272C9.11003 32.0077 8.96194 31.7835 8.82002 31.5546L7.97816 30.1995C7.64187 29.6582 7.33606 29.0955 7.07883 28.5171C6.52774 27.2779 6.16986 25.9706 6.31564 24.8551C6.47761 23.7709 7.11662 23.142 7.93265 22.8891C8.15748 22.8019 8.41432 22.7776 8.67116 22.753C12.1269 22.5247 17.6494 26.8242 18.3948 31.9182C18.6089 34.1338 18.047 36.0018 16.8357 37.058C16.3571 37.4775 15.887 37.8401 15.5468 38.0643Z" fill="white"/>
</g>
<defs>
<clipPath id="clip0_92_5219">
<rect width="21.2567" height="21.2567" rx="10.6283" transform="matrix(-0.908143 -0.41866 0 1 21.7398 16.5337)" fill="white"/>
</clipPath>
</defs>
</svg>
