<svg width="49" height="62" viewBox="0 0 49 62" fill="none" xmlns="http://www.w3.org/2000/svg">
<path d="M20.5396 43.3676C20.1593 43.0634 20.0072 42.4551 20.0833 41.6946L21.6042 28.8427C21.7563 27.626 22.5928 26.4092 23.5814 25.8008L30.4256 21.8464C31.4142 21.3141 33.2394 22.1506 33.4675 23.1392L34.1519 33.6336C34.228 34.242 34.9884 35.1546 34.6082 35.915C34.228 36.6755 33.5435 37.6641 32.9352 37.9683L22.6689 44.2802C21.6803 44.5083 20.9198 43.7479 20.5396 43.3676ZM25.3305 27.0176C24.9503 27.2457 23.3533 28.7667 23.2772 29.2229L21.3761 41.3144C21.3 41.6185 21.3761 41.8467 21.5282 41.9227C21.6803 42.0748 21.9084 41.9988 22.1365 41.9227L32.1747 36.1432C32.4028 35.9911 32.631 35.763 32.7831 35.4588C32.9352 35.1546 33.0112 34.8504 32.9352 34.6223L31.1861 23.6715C31.1101 23.2913 30.8059 23.2152 30.5017 23.3673L25.3305 27.0176Z" fill="#FFE850"/>
<path d="M22.2887 44.4324C21.5283 44.4324 20.9959 43.9 20.6157 43.5958C20.5397 43.5198 20.5397 43.5198 20.4636 43.4437C20.0073 43.1396 19.8552 42.4551 20.0073 41.6186L21.5283 28.7667C21.6803 27.55 22.5169 26.2572 23.5815 25.6488L30.4257 21.6944C31.0341 21.3142 31.8706 21.5423 32.4029 21.7704C33.0874 22.0746 33.4676 22.5309 33.6197 23.0632L34.3041 33.5577C34.3041 33.7098 34.4562 33.9379 34.5322 34.1661C34.7604 34.6984 34.9885 35.3068 34.7604 35.9151C34.3802 36.6756 33.6957 37.6642 33.0113 38.0444L22.745 44.3563C22.5169 44.4324 22.3648 44.4324 22.2887 44.4324ZM31.1862 21.7704C30.9581 21.7704 30.6539 21.8465 30.5018 21.9225L23.6576 25.877C22.745 26.4093 21.9085 27.626 21.7564 28.8428L20.2355 41.6947C20.1594 42.3791 20.3115 42.9875 20.6157 43.2917C20.6917 43.3677 20.6917 43.3677 20.7678 43.4437C21.148 43.824 21.8324 44.3563 22.5929 44.1282L32.8592 37.8163C33.4676 37.5121 34.076 36.5995 34.4562 35.763C34.6843 35.3068 34.4562 34.6984 34.2281 34.2421C34.152 34.014 33.9999 33.7858 33.9999 33.5577L33.3155 23.0632C33.2394 22.683 32.8592 22.2267 32.2508 21.9986C31.8706 21.9225 31.4904 21.7704 31.1862 21.7704ZM21.7564 42.0749C21.6043 42.0749 21.5283 42.0749 21.4522 41.9989C21.3001 41.8468 21.2241 41.5426 21.2241 41.2384L23.1252 29.147C23.2013 28.6907 24.8743 27.0937 25.2545 26.8656L30.3497 23.1393C30.5778 22.9872 30.806 22.9872 30.9581 23.0632C31.1101 23.1393 31.1862 23.2914 31.2622 23.5195L33.0113 34.5463C33.0874 34.7744 33.0113 35.1547 32.8592 35.4588C32.7071 35.763 32.479 36.0672 32.2508 36.1433L22.2127 41.9228C21.9845 42.0749 21.9085 42.0749 21.7564 42.0749ZM30.7299 23.3674C30.6539 23.3674 30.5778 23.3674 30.5018 23.4435L25.4066 27.1698C25.0264 27.3979 23.4294 28.9188 23.4294 29.223L21.5283 41.3144C21.5283 41.5426 21.5283 41.7707 21.6804 41.8468C21.7564 41.9228 21.9845 41.9228 22.1366 41.8468L32.1748 36.0672C32.4029 35.9151 32.555 35.687 32.7071 35.4588C32.8592 35.1547 32.9353 34.9265 32.8592 34.6984L31.1101 23.6716C31.1101 23.5956 31.0341 23.4435 30.9581 23.4435C30.806 23.3674 30.806 23.3674 30.7299 23.3674Z" fill="#171753"/>
<path d="M22.4408 43.5958L21.6803 42.8354L21.8324 41.9988C21.9084 41.9988 21.9084 41.9988 21.9845 41.9228L32.0226 36.1432L33.0873 36.8277L22.4408 43.5958Z" fill="#ECFFFE"/>
<path d="M22.4407 43.748H22.3646L21.6042 42.9875C21.6042 42.9875 21.5281 42.9115 21.6042 42.9115L21.7563 42.075C21.7563 41.9989 21.7563 41.9989 21.8323 41.9989C21.8323 41.9989 21.9084 41.9989 21.9084 41.9229L31.9465 36.1433C32.0226 36.1433 32.0226 36.1433 32.0986 36.1433L33.1633 36.8277L33.2393 36.9038C33.2393 36.9798 33.2393 36.9798 33.1633 36.9798L22.4407 43.748C22.5167 43.748 22.5167 43.6719 22.4407 43.748ZM21.8323 42.7594L22.4407 43.3677L32.8591 36.7517L32.0226 36.2194L22.0605 41.9989C22.0605 41.9989 21.9844 41.9989 21.9844 42.075L21.8323 42.7594Z" fill="#171753"/>
<path d="M31.1862 23.5956C31.1101 23.2153 30.806 23.1393 30.5018 23.2914L25.4066 27.0177C25.1785 27.1698 24.418 27.8542 23.8857 28.4626L23.2013 28.2344L22.1366 27.55C22.5169 26.7895 23.0492 26.1812 23.6576 25.8009L30.3497 21.9225L31.7185 22.4549L31.1862 23.5956Z" fill="#ECFFFE"/>
<path d="M23.8098 28.5384C23.7338 28.5384 23.7338 28.5384 23.8098 28.5384L23.1254 28.3103L21.9847 27.6259C21.9087 27.6259 21.9087 27.5498 21.9087 27.4738C22.2889 26.7133 22.8973 26.0289 23.5056 25.6486L30.1978 21.7703H30.2738L31.6426 22.3026C31.6426 22.3026 31.7187 22.3026 31.7187 22.3786V22.4547L31.1864 23.5954C31.1864 23.6714 31.1103 23.6714 31.0343 23.6714C30.9582 23.6714 30.9582 23.5954 30.9582 23.5954C30.9582 23.5193 30.8822 23.3672 30.8061 23.3672C30.7301 23.2912 30.578 23.3672 30.4259 23.4433L25.3308 27.1696C25.1026 27.3217 24.3422 28.0061 23.8098 28.6145C23.8098 28.5384 23.8098 28.5384 23.8098 28.5384ZM22.2129 27.4738L23.2015 28.0821L23.7338 28.2342C24.2661 27.6259 25.0266 26.9414 25.2547 26.7893L30.3498 23.0631C30.578 22.911 30.8061 22.911 30.9582 22.987C31.0343 22.987 31.1103 23.0631 31.1103 23.1391L31.4906 22.3786L30.2738 21.9224L23.5817 25.8007C23.0494 26.257 22.5931 26.7893 22.2129 27.4738Z" fill="#171753"/>
<path d="M23.1251 29.9832L21.3 41.3142C21.224 41.6183 21.3 41.8465 21.4521 41.9225C21.6042 42.0746 21.8324 41.9986 22.0605 41.9225L21.7563 42.8351C21.3 44.0518 24.1898 42.683 23.8096 43.5956L22.5928 44.356C21.6042 44.5842 20.9198 43.8237 20.5396 43.4435C20.1593 43.1393 20.0072 42.5309 20.0833 41.7704L21.6042 28.9185L22.6689 29.603L23.1251 29.9832Z" fill="#171753"/>
<path d="M22.2888 44.4322C21.5283 44.4322 20.996 43.8999 20.6157 43.5957C20.5397 43.5196 20.5397 43.5196 20.4636 43.4436C20.0074 43.1394 19.8553 42.455 20.0074 41.6185L21.5283 28.7666C21.5283 28.6905 21.5283 28.6905 21.6043 28.6905C21.6804 28.6905 21.6804 28.6905 21.7564 28.6905L22.8211 29.3749L23.2774 29.7552L23.3534 29.8312L21.5283 41.1622C21.5283 41.3903 21.5283 41.6185 21.6804 41.6945C21.7564 41.7706 21.9846 41.7706 22.1367 41.6945C22.2127 41.6945 22.2127 41.6945 22.2888 41.6945C22.3648 41.6945 22.3648 41.7706 22.2888 41.8466L21.9846 42.7592C21.9846 42.8352 21.9085 42.9873 21.9846 43.0633C22.1367 43.2154 22.5929 43.1394 22.9732 43.0633C23.4295 42.9873 23.8857 42.9113 24.0378 43.1394C24.1139 43.2154 24.1139 43.3675 24.0378 43.5196C24.0378 43.5196 24.0378 43.5957 23.9618 43.5957L22.745 44.3561C22.5169 44.4322 22.4408 44.4322 22.2888 44.4322ZM21.6804 29.0708L20.1595 41.7706C20.0834 42.455 20.2355 43.0633 20.5397 43.3675C20.6157 43.4436 20.6157 43.4436 20.6918 43.5196C21.072 43.8999 21.7564 44.4322 22.5169 44.204L23.6576 43.5196C23.6576 43.4436 23.6576 43.4436 23.6576 43.4436C23.5815 43.3675 23.1253 43.4436 22.8211 43.4436C22.2888 43.5196 21.8325 43.5957 21.6043 43.2915C21.5283 43.1394 21.5283 42.9873 21.6043 42.7592L21.8325 42.0747C21.6804 42.0747 21.5283 42.0747 21.3762 41.9987C21.2241 41.8466 21.1481 41.5424 21.1481 41.2382L22.9732 29.9833L22.5929 29.6031L21.6804 29.0708Z" fill="#171753"/>
<path d="M32.7074 35.4585C32.8595 35.1544 32.9355 34.8502 32.8595 34.622L31.1865 23.8234L32.4032 23.139L33.4679 23.3671L34.1523 33.6334C34.2283 34.2418 34.9128 35.0783 34.6086 35.8388C34.1523 35.9909 33.8481 36.143 33.8481 36.143L32.7074 35.4585Z" fill="#171753"/>
<path d="M33.7719 36.2192L32.6312 35.4587C32.5552 35.4587 32.5552 35.3826 32.5552 35.3066C32.7073 35.0024 32.7833 34.7743 32.7073 34.5461L31.0342 23.7475C31.0342 23.6714 31.0342 23.6714 31.1103 23.5954L32.327 22.911H32.4031L33.4677 23.1391C33.5438 23.1391 33.5438 23.2152 33.5438 23.2152L34.2282 33.4815C34.2282 33.6336 34.3803 33.8617 34.4563 34.0898C34.6845 34.6222 34.9126 35.1545 34.6845 35.7629L34.6084 35.8389C34.2282 36.1431 33.848 36.2192 33.7719 36.2192C33.848 36.2192 33.848 36.2192 33.7719 36.2192ZM32.8594 35.3826L33.7719 35.991C33.848 35.915 34.1522 35.8389 34.4563 35.7629C34.6084 35.3066 34.3803 34.7743 34.2282 34.318C34.1522 34.0898 34.0001 33.8617 34.0001 33.6336L33.3156 23.4433L32.327 23.2152L31.2624 23.8235L32.9354 34.5461C33.0115 34.7743 33.0115 35.0785 32.8594 35.3826Z" fill="#171753"/>
<path d="M21.6041 44.1281C21.2238 43.8239 21.0717 43.2155 21.1478 42.455L22.6687 29.6031C22.8208 28.3864 23.6573 27.1696 24.6459 26.5613L31.4902 22.6068C32.4788 22.0745 33.3153 22.3787 33.4674 23.3673L35.2164 34.318C35.2925 34.9264 35.1404 35.7629 34.7602 36.5234C34.3799 37.2839 33.7715 37.8922 33.1632 38.2725L23.125 44.052C22.5927 44.3562 21.9843 44.4322 21.6041 44.1281ZM24.6459 28.0062C24.2657 28.2343 24.0376 28.6906 23.9615 29.0708L22.4406 41.9227C22.3646 42.2269 22.4406 42.455 22.5927 42.5311C22.7448 42.6832 22.9729 42.6071 23.2011 42.5311L33.2392 36.7515C33.4674 36.5994 33.6955 36.3713 33.8476 36.0671C33.9997 35.7629 34.0757 35.4587 33.9997 35.2306L32.2506 24.2799C32.1746 23.8996 31.8704 23.8236 31.5662 23.9757L24.6459 28.0062Z" fill="#FFE850"/>
<path d="M22.2886 44.4323C21.9845 44.4323 21.7563 44.3563 21.5282 44.2042C21.0719 43.9 20.9198 43.2156 21.0719 42.3791L22.5928 29.5272C22.7449 28.3104 23.5814 27.0177 24.6461 26.4093L31.4903 22.4548C32.0226 22.1507 32.5549 22.0746 32.9352 22.3028C33.3154 22.4548 33.5436 22.8351 33.6196 23.3674L35.3687 34.3942C35.4447 35.0786 35.2926 35.8391 34.9124 36.6756C34.5322 37.436 33.9238 38.1205 33.3154 38.5007L23.2772 44.2803C22.897 44.3563 22.5928 44.4323 22.2886 44.4323ZM32.4029 22.3788C32.1747 22.3788 31.8705 22.4548 31.5663 22.6069L24.7221 26.5614C23.8096 27.0937 22.9731 28.3104 22.821 29.5272L21.3 42.3791C21.224 43.0635 21.3761 43.6719 21.6803 43.9761C22.0605 44.2803 22.5168 44.2042 23.1252 43.9L33.1633 38.1205C33.7717 37.8163 34.304 37.1319 34.6843 36.4474C35.0645 35.687 35.2166 34.9265 35.1405 34.3181L33.3915 23.3674C33.3154 22.9872 33.1633 22.683 32.8591 22.5309C32.707 22.4548 32.5549 22.3788 32.4029 22.3788ZM22.821 42.8354C22.6689 42.8354 22.5928 42.8354 22.5168 42.7593C22.3647 42.6072 22.2886 42.303 22.2886 41.9989L23.8096 29.147C23.8856 28.6907 24.1898 28.1584 24.57 27.9302L31.4142 23.9758C31.6424 23.8237 31.8705 23.8237 32.0226 23.8997C32.1747 23.9758 32.2508 24.1279 32.3268 24.356L34.0759 35.3828C34.1519 35.6109 34.0759 35.9912 33.9238 36.2953C33.7717 36.5995 33.5435 36.8277 33.3154 36.9798L23.2772 42.7593C23.1252 42.7593 22.9731 42.8354 22.821 42.8354ZM24.7221 28.0823C24.418 28.2344 24.1138 28.6907 24.1138 29.0709L22.5928 41.9228C22.5928 42.1509 22.5928 42.3791 22.7449 42.4551C22.821 42.5312 23.0491 42.5312 23.2012 42.4551L33.2394 36.6756C33.4675 36.5235 33.6196 36.2954 33.7717 36.0672C33.9238 35.8391 33.9998 35.5349 33.9238 35.3067L32.1747 24.28C32.1747 24.2039 32.0987 24.0518 32.0226 24.0518C31.9466 23.9758 31.7945 24.0518 31.6424 24.1279L24.7221 28.0823Z" fill="#171753"/>
<path d="M22.441 30.3637C22.365 30.3637 22.365 30.3637 22.441 30.3637L21.6045 29.8314C21.5284 29.8314 21.5284 29.7554 21.5284 29.6793C21.5284 29.6033 21.6045 29.6033 21.6805 29.6033L22.441 30.0596C22.5171 30.0596 22.5171 30.1356 22.5171 30.2116C22.5171 30.3637 22.441 30.3637 22.441 30.3637Z" fill="#FFE850"/>
<path d="M32.1748 25.2684L31.3383 24.7361C31.2622 24.7361 31.2622 24.6601 31.2622 24.584C31.2622 24.508 31.3383 24.508 31.4143 24.508L32.1748 24.9642C32.2508 24.9642 32.2508 25.0403 32.2508 25.1163C32.3269 25.2684 32.2508 25.2684 32.1748 25.2684Z" fill="#FFE850"/>
<path d="M33.848 35.3829C33.7719 35.3829 33.7719 35.3829 33.848 35.3829L33.0115 34.8505C32.9354 34.8505 32.9354 34.7745 32.9354 34.6985C32.9354 34.6224 33.0115 34.6224 33.0875 34.6224L33.848 35.0787C33.924 35.0787 33.924 35.1547 33.924 35.2308C33.924 35.3829 33.848 35.3829 33.848 35.3829Z" fill="#FFE850"/>
<path d="M21.0718 42.3028C20.9957 42.3028 20.9957 42.3028 21.0718 42.3028L20.1592 41.7705C20.0832 41.7705 20.0832 41.6945 20.0832 41.6184C20.0832 41.5424 20.1592 41.5424 20.2353 41.5424L21.0718 42.0747C21.1478 42.0747 21.1478 42.1507 21.1478 42.2268C21.1478 42.3028 21.0718 42.3028 21.0718 42.3028Z" fill="#FFE850"/>
<path d="M22.1365 34.0139L23.2012 34.09L23.7335 34.5462L31.4142 30.2116C32.783 29.4511 33.7716 28.1583 34.1519 26.5613L36.8135 14.8502L35.6728 14.4699C35.6728 14.4699 35.977 13.2532 36.9656 12.949C38.1063 12.6448 38.9428 13.1771 38.9428 13.1771L47.5361 18.1962C48.2966 18.6525 48.6768 19.489 48.5247 20.4016L45.8631 33.4055C45.5589 34.9265 44.5703 36.2953 43.2014 37.1318L34.1519 42.303C33.2393 42.8353 32.1747 42.8353 31.2621 42.303L22.4407 37.0558C22.4407 37.0558 21.3 36.4474 21.3 35.5349C21.1479 34.4702 22.1365 34.0139 22.1365 34.0139Z" fill="#FFE850"/>
<path d="M32.5551 42.7593C32.0227 42.7593 31.4904 42.6072 31.0341 42.3791L22.2127 37.1318C22.1367 37.1318 20.996 36.4474 20.996 35.5349C20.996 34.4702 21.9846 33.9379 22.0606 33.9379H22.1367L23.2013 34.0139H23.2774L23.7337 34.3942L31.3383 30.1355C32.7072 29.3751 33.6197 28.0823 34 26.6374L36.5855 15.0023L35.5969 14.6981C35.5209 14.6981 35.5209 14.622 35.5209 14.546C35.5209 14.4699 35.8251 13.2532 36.8897 12.949C38.0304 12.5688 38.943 13.1771 38.943 13.1771L47.5363 18.1202C48.3728 18.5765 48.753 19.489 48.6009 20.4016L45.9393 33.4056C45.6351 35.0025 44.5704 36.3714 43.2016 37.2079L34 42.3791C33.5437 42.6072 33.0874 42.7593 32.5551 42.7593ZM22.1367 34.09C21.9846 34.166 21.3002 34.6223 21.3002 35.4588C21.3002 36.2193 22.3648 36.8277 22.3648 36.8277L31.1862 42.0749C32.0227 42.6072 33.0874 42.6072 33.9239 42.0749L42.9735 36.9037C44.3423 36.1432 45.2549 34.8504 45.6351 33.3295L48.2967 20.3255C48.4488 19.489 48.0686 18.7285 47.3842 18.2723L38.7909 13.2532C38.7909 13.2532 37.9544 12.7209 36.8897 13.025C36.1293 13.2532 35.8251 14.0897 35.673 14.3178L36.6616 14.622C36.7376 14.622 36.7376 14.6981 36.7376 14.7741L34.076 26.4853C33.6958 28.0823 32.7072 29.3751 31.3383 30.2116L23.6576 34.5463C23.5816 34.5463 23.5816 34.5463 23.5055 34.5463L23.0492 34.09H22.1367Z" fill="#171753"/>
<path d="M36.3575 16.4472L36.7377 14.8502L35.597 14.47C35.597 14.47 35.9012 13.2533 36.8898 12.9491C38.0305 12.6449 38.867 13.1772 38.867 13.1772L47.4603 18.1963C47.8405 18.4244 48.2208 18.8047 48.3729 19.261L47.1561 19.9454L36.3575 16.4472Z" fill="#ECFFFE"/>
<path d="M47.0799 20.0974L36.2813 16.5992C36.2053 16.5992 36.2053 16.5232 36.2053 16.4471L36.5095 15.0023L35.5208 14.6981C35.4448 14.6981 35.4448 14.622 35.4448 14.546C35.4448 14.4699 35.749 13.2532 36.8136 12.949C37.9543 12.5688 38.8669 13.1771 38.8669 13.1771L47.4602 18.1202C47.9165 18.3483 48.2206 18.7285 48.3727 19.2609C48.3727 19.3369 48.3727 19.413 48.2967 19.413L47.0799 20.0974C47.156 20.0974 47.156 20.0974 47.0799 20.0974ZM36.5095 16.3711L47.0799 19.7932L48.1446 19.1848C47.9925 18.8046 47.6883 18.5004 47.3841 18.2723L38.7909 13.2532C38.7909 13.2532 37.9543 12.7209 36.8897 13.025C36.1292 13.2532 35.825 14.0897 35.6729 14.3178L36.6615 14.622C36.7376 14.622 36.7376 14.6981 36.7376 14.7741L36.5095 16.3711Z" fill="#171753"/>
<path d="M22.1365 34.0139L23.2011 34.09L23.7335 34.5463L26.3951 33.0253L30.8818 36.0672L32.5549 41.2384V42.5312C32.0986 42.5312 31.5663 42.3791 31.11 42.1509L22.2886 36.9037C22.2886 36.9037 21.1479 36.2953 21.1479 35.3828C21.1479 34.4702 22.1365 34.0139 22.1365 34.0139Z" fill="#171753"/>
<path d="M44.6463 32.5689L47.0798 20.8578C47.2319 20.0212 46.8516 19.1087 46.0912 18.6524L37.5739 13.7094C36.8135 13.2531 35.8249 13.7094 35.5967 14.5459L33.0111 25.8008C32.6309 27.3217 31.6423 28.6145 30.2734 29.451L22.1365 34.0138C21.452 34.3941 21.452 35.3066 22.1365 35.6869L30.9579 40.9341C31.8704 41.4664 32.9351 41.4664 33.8477 40.9341L42.0607 36.2192C43.3535 35.4587 44.3421 34.1659 44.6463 32.5689Z" fill="#FFE850"/>
<path d="M32.3266 41.4664C31.7943 41.4664 31.262 41.3143 30.8057 41.0861L21.9843 35.8389C21.6801 35.6108 21.452 35.3066 21.452 34.8503C21.452 34.4701 21.6801 34.0898 21.9843 33.9378L30.1213 29.3749C31.4901 28.6145 32.4027 27.3217 32.7829 25.8768L35.3685 14.6219C35.4446 14.1656 35.7487 13.7854 36.205 13.6333C36.6613 13.4812 37.1176 13.4812 37.4978 13.7093L46.0911 18.7284C46.9276 19.1847 47.3078 20.0973 47.1558 21.0098L44.7222 32.721C44.4181 34.318 43.3534 35.6868 41.9846 36.5233L33.7715 41.2382C33.3913 41.3143 32.859 41.4664 32.3266 41.4664ZM36.8894 13.6333C36.7374 13.6333 36.5853 13.6333 36.4332 13.7093C36.0529 13.8614 35.8248 14.1656 35.7487 14.5458L33.1632 25.8008C32.7829 27.3977 31.7943 28.6905 30.4255 29.527L22.2885 34.0898C21.9843 34.2419 21.8322 34.5461 21.8322 34.8503C21.8322 35.1545 21.9843 35.4587 22.2124 35.6108L31.0338 40.858C31.8704 41.3903 32.935 41.3903 33.7715 40.858L41.9846 36.1431C43.3534 35.3826 44.266 34.0898 44.6462 32.5689L47.0797 20.8577C47.2318 20.0212 46.8516 19.2607 46.1671 18.8045L37.5739 13.7854C37.2697 13.6333 37.1176 13.6333 36.8894 13.6333Z" fill="#171753"/>
<path d="M35.5967 14.5461C35.8249 13.6336 36.8135 13.2533 37.5739 13.7096L46.1672 18.7287C46.9277 19.185 47.3079 20.0215 47.1558 20.934L44.7223 32.6452L33.0111 25.801L35.5967 14.5461Z" fill="#171753"/>
<path d="M44.6462 32.7213L32.935 25.9531C32.8589 25.9531 32.8589 25.8771 32.8589 25.801L35.4445 14.5461C35.5205 14.0898 35.8247 13.7096 36.281 13.5575C36.7373 13.4054 37.1936 13.4054 37.5738 13.6336L46.1671 18.6526C47.0036 19.1089 47.3838 20.0215 47.2317 20.934L44.7982 32.6452C44.7982 32.6452 44.7222 32.6452 44.6462 32.7213C44.7222 32.7213 44.6462 32.7213 44.6462 32.7213ZM33.1631 25.725L44.5701 32.4171L47.0036 20.858C47.1557 20.0215 46.7755 19.261 46.091 18.8047L37.4978 13.7856C37.1936 13.5575 36.7373 13.5575 36.4331 13.7096C36.0529 13.8617 35.8247 14.1659 35.7487 14.5461L33.1631 25.725Z" fill="#171753"/>
<path d="M33.4674 42.6072C33.3913 42.6072 33.3153 42.5312 33.3153 42.4551V41.0863C33.3153 41.0103 33.3913 40.9342 33.4674 40.9342C33.5434 40.9342 33.6195 41.0103 33.6195 41.0863V42.4551C33.6195 42.5312 33.5434 42.6072 33.4674 42.6072Z" fill="#171753"/>
<path d="M35.0644 41.6945C34.9884 41.6945 34.9123 41.6185 34.9123 41.5424V40.1736C34.9123 40.0975 34.9884 40.0215 35.0644 40.0215C35.1405 40.0215 35.2165 40.0975 35.2165 40.1736V41.5424C35.2165 41.6185 35.1405 41.6945 35.0644 41.6945Z" fill="#171753"/>
<path d="M22.2885 36.9799C22.2885 36.9799 22.2124 36.9799 22.2124 36.9038C21.9082 36.5236 21.9843 35.9152 21.9843 35.8392C21.9843 35.7631 22.0603 35.7631 22.1364 35.7631C22.2124 35.7631 22.2124 35.8392 22.2124 35.9152C22.2124 35.9152 22.1364 36.4475 22.3645 36.7517C22.4406 36.8278 22.3645 36.9038 22.3645 36.9038C22.3645 36.9038 22.3645 36.9799 22.2885 36.9799Z" fill="#FFE850"/>
<path d="M21.2239 36.4475C21.2239 36.4475 21.1479 36.4475 21.1479 36.3715C21.0718 36.2194 20.9958 36.0673 20.9197 35.9152C20.8437 35.611 20.9197 35.3829 20.9958 35.0787L21.1479 34.6985C21.1479 34.6224 21.2239 34.6224 21.3 34.6224C21.376 34.6224 21.376 34.6985 21.376 34.7745L21.2239 35.1547C21.1479 35.3829 21.0718 35.611 21.1479 35.8392C21.1479 35.9912 21.2239 36.0673 21.3 36.2194C21.376 36.2954 21.3 36.3715 21.3 36.3715C21.3 36.4475 21.3 36.4475 21.2239 36.4475Z" fill="#FFE850"/>
<path d="M37.5741 13.7855C37.5741 13.7855 37.498 13.7855 37.498 13.7094C37.422 13.6334 37.422 13.5573 37.498 13.5573C38.0303 13.1011 39.2471 13.3292 39.3231 13.3292C39.3992 13.3292 39.3992 13.4052 39.3992 13.4813C39.3992 13.5573 39.3231 13.5573 39.2471 13.5573C38.9429 13.4813 37.9543 13.4052 37.6501 13.7094C37.5741 13.7855 37.5741 13.7855 37.5741 13.7855Z" fill="#171753"/>
<path d="M31.4143 42.3032C31.3383 42.3032 31.2622 42.2271 31.2622 42.1511V41.2385C31.2622 41.1625 31.3383 41.0864 31.4143 41.0864C31.4904 41.0864 31.5664 41.1625 31.5664 41.2385V42.1511C31.4904 42.3032 31.4904 42.3032 31.4143 42.3032Z" fill="#FFE850"/>
<path d="M35.7489 25.5728L41.6045 28.9949C41.9847 29.2231 42.441 28.9949 42.517 28.6147L43.6577 23.4435C43.7338 23.0633 43.5817 22.607 43.2015 22.3789L37.3459 18.9568C36.9656 18.7286 36.5093 18.9568 36.4333 19.337L35.2926 24.5082C35.2166 24.9645 35.3687 25.3447 35.7489 25.5728Z" fill="#171753"/>
<path d="M41.9088 29.223C41.7567 29.223 41.6807 29.223 41.5286 29.1469L40.6921 28.6146C40.616 28.6146 40.616 28.5385 40.616 28.4625C40.616 28.3864 40.6921 28.3864 40.7681 28.3864L41.6046 28.9188C41.7567 28.9948 41.9849 28.9948 42.1369 28.9188C42.213 28.9188 42.289 28.9188 42.289 28.9948C42.289 29.0709 42.289 29.1469 42.213 29.1469C42.213 29.1469 42.0609 29.223 41.9088 29.223ZM39.7035 28.0062C39.6274 28.0062 39.7035 28.0062 39.7035 28.0062L38.1825 27.1697C38.1065 27.1697 38.1065 27.0936 38.1065 27.0176C38.1065 26.9416 38.1825 26.9416 38.2586 26.9416L39.7035 27.7781C39.7795 27.7781 39.7795 27.8541 39.7795 27.9302L39.7035 28.0062ZM42.7453 28.0062C42.6693 28.0062 42.6693 28.0062 42.7453 28.0062C42.6693 28.0062 42.5932 27.9302 42.5932 27.8541L42.9735 26.2571C42.9735 26.1811 43.0495 26.1811 43.1256 26.1811C43.2016 26.1811 43.2016 26.2571 43.2016 26.3332L42.8214 27.9302L42.7453 28.0062ZM37.1939 26.5613C37.1179 26.4853 37.1939 26.5613 37.1939 26.5613L35.673 25.7248L35.8251 25.4967L37.27 26.3332C37.346 26.3332 37.346 26.4092 37.346 26.4853C37.27 26.4853 37.1939 26.5613 37.1939 26.5613ZM43.3537 25.1164C43.2777 25.1164 43.2016 25.0404 43.2016 24.9643L43.5818 23.3674C43.5818 23.2913 43.6579 23.2913 43.7339 23.2913C43.81 23.2913 43.81 23.3674 43.81 23.4434L43.4297 25.0404C43.4297 25.1164 43.4297 25.1164 43.3537 25.1164ZM35.2927 24.5841C35.2167 24.5841 35.1407 24.5081 35.1407 24.432L35.5209 22.835C35.5209 22.759 35.5969 22.759 35.673 22.759C35.749 22.759 35.749 22.835 35.749 22.9111L35.3688 24.5081C35.3688 24.5841 35.3688 24.5841 35.2927 24.5841ZM43.2016 22.4548L41.7567 21.6183C41.6807 21.6183 41.6807 21.5422 41.6807 21.4662C41.6807 21.3901 41.7567 21.3901 41.8328 21.3901L43.2776 22.2267L43.2016 22.3027V22.4548ZM35.9011 21.7704C35.8251 21.7704 35.749 21.6943 35.749 21.6183L36.1293 20.0213C36.1293 19.9453 36.2053 19.9453 36.2814 19.9453C36.3574 19.9453 36.3574 20.0213 36.3574 20.0974L35.9772 21.6943C36.0532 21.7704 35.9772 21.7704 35.9011 21.7704ZM40.7681 21.0099C40.6921 21.0099 40.6921 21.0099 40.7681 21.0099L39.2472 20.1734C39.1711 20.1734 39.1711 20.0974 39.1711 20.0213C39.1711 19.9453 39.2472 19.9453 39.3232 19.9453L40.7681 20.7818C40.8442 20.7818 40.8442 20.8578 40.8442 20.9339C40.8442 21.0099 40.7681 21.0099 40.7681 21.0099ZM38.2586 19.565C38.1825 19.565 38.1825 19.565 38.2586 19.565L37.346 19.0327C37.1939 18.9567 36.9658 18.9567 36.8137 19.0327C36.7376 19.0327 36.6616 19.0327 36.6616 18.9567C36.6616 18.8806 36.6616 18.8046 36.7376 18.8046C36.9658 18.6525 37.27 18.6525 37.4981 18.8046L38.3346 19.3369C38.4107 19.3369 38.4107 19.4129 38.4107 19.489C38.3346 19.489 38.2586 19.565 38.2586 19.565Z" fill="#FFE850"/>
<path d="M41.3765 30.0591C41.3765 30.0591 42.2891 31.504 41.2244 33.8615C39.019 38.8045 31.9467 35.7626 31.9467 35.7626C31.9467 35.7626 29.8174 37.6638 27.1558 39.2608C26.9276 39.4129 26.9276 39.641 27.0037 39.8692C27.4599 40.4775 28.0683 42.0745 28.0683 45.3445C28.0683 48.6906 28.4486 52.645 28.6767 54.3941C28.7527 54.8504 28.3725 55.3066 27.9162 55.3827L26.6995 55.6108C26.2432 55.6869 25.7869 55.3827 25.6348 54.9264C24.8744 52.0366 22.4409 42.3787 22.2888 41.0859C22.1367 39.565 22.2888 39.3368 22.2888 39.3368C22.2888 39.3368 20.7678 41.238 17.4218 42.3787C14.8362 43.2152 12.0225 45.0403 10.8057 45.8768C10.5015 46.105 10.0452 46.0289 9.81711 45.6487L9.20873 44.6601C8.98059 44.3559 9.05664 43.9757 9.36083 43.7475C11.338 42.0745 18.8667 35.8387 20.9199 33.9375C23.2774 31.8082 23.2774 31.428 25.1785 30.7436C27.0797 30.0591 31.8706 28.3861 31.8706 28.3861L41.3765 30.0591Z" fill="#171753"/>
<path d="M26.5473 55.687C26.091 55.687 25.6348 55.3828 25.5587 54.9265C24.7982 51.9607 22.3647 42.3027 22.2127 41.0099C22.1366 40.3255 22.1366 39.9453 22.1366 39.6411C21.5282 40.2495 20.0833 41.5423 17.4978 42.3788C14.9122 43.2153 12.0224 45.1165 10.8817 45.8769C10.7296 46.029 10.5015 46.029 10.2733 46.029C10.0452 45.953 9.89309 45.8769 9.74099 45.6488L9.13262 44.6602C8.90448 44.2799 8.98053 43.8237 9.28472 43.5955C11.4901 41.7704 18.7906 35.6106 20.8438 33.7855C21.4522 33.1771 21.9085 32.7969 22.2887 32.4167C23.2773 31.4281 23.6575 31.0478 25.1024 30.5155C27.0036 29.8311 31.7945 28.1581 31.7945 28.1581H31.8706L41.4525 29.9071C41.4525 29.9071 41.5285 29.9071 41.5285 29.9832C41.6046 30.0592 42.4411 31.5041 41.3764 33.8616C39.2471 38.5764 32.7831 36.143 32.0227 35.9148C31.6424 36.219 29.6652 37.892 27.2317 39.413C27.1557 39.489 27.0796 39.489 27.0796 39.6411C27.0796 39.7171 27.0796 39.7932 27.1557 39.8692C27.4599 40.3255 28.2203 41.7704 28.2203 45.3446C28.2203 48.7667 28.6766 52.7972 28.8287 54.3942C28.9048 54.9265 28.5245 55.4588 27.9922 55.5349L26.7755 55.763C26.6234 55.687 26.5473 55.687 26.5473 55.687ZM22.4408 39.3369C22.4408 39.3369 22.2887 39.6411 22.4408 41.0099C22.5929 42.3027 25.0264 51.9607 25.7868 54.8504C25.8629 55.2307 26.2431 55.5349 26.6994 55.4588L27.9162 55.2307C28.3724 55.1546 28.6006 54.7744 28.6006 54.3942C28.4485 52.7972 27.9922 48.7667 27.9922 45.3446C27.9922 41.7704 27.3078 40.4016 27.0036 39.9453C26.9276 39.7932 26.8515 39.6411 26.9275 39.5651C26.9275 39.413 27.0796 39.2609 27.1557 39.1848C29.7413 37.5878 31.9466 35.6867 31.9466 35.6867C31.9466 35.6867 32.0227 35.6106 32.0987 35.6867C32.1748 35.6867 39.095 38.5764 41.2243 33.7855C42.1369 31.7322 41.5285 30.4395 41.3764 30.1353L31.8706 28.3862C31.4903 28.5383 27.0036 30.0592 25.1785 30.7436C23.8096 31.276 23.4294 31.5802 22.4408 32.5688C22.0606 32.949 21.6043 33.4053 20.9959 33.9376C18.9426 35.7627 11.6422 41.9225 9.43681 43.7476C9.20867 43.8997 9.13262 44.2799 9.28472 44.5081L9.96913 45.4967C10.0452 45.6488 10.1973 45.7248 10.3494 45.7248C10.5015 45.7248 10.6536 45.7248 10.8056 45.6488C11.9464 44.8883 14.9122 42.9111 17.4978 42.0746C20.7678 41.0099 22.2887 39.1088 22.2887 39.1088C22.3647 39.0327 22.4408 39.0327 22.4408 39.1088C22.4408 39.1848 22.4408 39.2609 22.4408 39.3369Z" fill="#171753"/>
<path d="M36.5097 28.9945L40.312 30.4394C40.4641 30.5154 40.4641 30.6675 40.312 30.7436C39.0953 31.0477 35.9773 31.6561 35.369 31.504C29.8176 29.6789 27.0038 28.6142 26.5475 28.3861L36.5097 28.9945Z" fill="#ECFFFE"/>
<path d="M35.7491 31.5802C35.597 31.5802 35.445 31.5802 35.3689 31.5041C29.8175 29.679 27.0038 28.6143 26.5475 28.3862C26.4714 28.3862 26.4714 28.3101 26.4714 28.2341C26.4714 28.1581 26.5475 28.1581 26.6235 28.1581L36.5856 28.8425L40.388 30.2874C40.464 30.3634 40.5401 30.4395 40.5401 30.5915C40.5401 30.7436 40.464 30.8197 40.3119 30.8197C39.0191 31.1239 36.7377 31.5802 35.7491 31.5802ZM27.308 28.4622C28.5247 28.9185 31.1863 29.9071 35.4449 31.276C35.9012 31.4281 38.2587 30.9718 40.3119 30.5155C40.3119 30.4395 40.3119 30.4395 40.3119 30.4395L36.5096 28.9946L27.308 28.4622Z" fill="#171753"/>
<path d="M30.502 17.8921C30.502 17.8921 28.6008 20.3256 26.8517 21.2381C25.1026 22.1507 25.9392 18.2723 25.9392 18.2723L28.2966 15.2304C28.2966 15.2304 29.1331 14.3179 29.2092 14.3179C29.2852 14.3179 30.8822 14.47 30.8822 14.47L31.4145 16.2951L30.502 17.8921Z" fill="#ECFFFE"/>
<path d="M26.3193 21.5422C26.1672 21.5422 26.0912 21.5422 25.9391 21.3901C25.1786 20.8578 25.7109 18.5004 25.7109 18.2722C25.7109 18.2722 25.7109 18.2722 25.7109 18.1962L28.0684 15.1543C28.9809 14.2418 28.9809 14.2418 29.057 14.2418C29.133 14.2418 30.1216 14.3178 30.73 14.3939C30.8061 14.3939 30.8061 14.4699 30.8061 14.4699L31.3384 16.295V16.3711L30.4258 17.968C30.3498 18.0441 28.4486 20.4015 26.6995 21.3901C26.6995 21.4662 26.4714 21.5422 26.3193 21.5422ZM26.0151 18.3483C25.863 19.0327 25.6349 20.8578 26.0912 21.2381C26.2432 21.3141 26.4714 21.3141 26.6995 21.162C28.3726 20.2494 30.1977 17.968 30.3498 17.816L31.2623 16.295L30.8061 14.622C30.5019 14.622 29.4372 14.5459 29.2091 14.4699C29.133 14.5459 28.6767 14.9262 28.3726 15.3064L26.0151 18.3483Z" fill="#171753"/>
<path d="M38.9428 10.8958C40.0075 11.0479 40.9961 11.5042 41.7565 12.1126C42.6691 12.797 43.8098 13.7856 44.7224 14.9263C46.5475 17.0556 47.308 21.1621 47.308 21.1621C47.308 21.1621 46.9277 23.1394 43.8098 23.2154L42.9733 21.7705C42.9733 21.7705 42.0607 23.3675 42.2128 25.4968C42.2889 27.6261 42.6691 28.2345 42.6691 28.2345V29.2991C42.6691 29.7554 42.2889 30.1357 41.8326 30.1357C39.9314 30.2117 34.9884 30.0596 31.2621 26.6375C31.2621 26.6375 31.4142 24.8124 31.2621 21.9987C31.11 19.7173 31.2621 18.1963 31.5663 17.2838C31.6423 17.1317 31.4142 16.9796 31.2621 17.1317L30.5016 17.8161C30.5016 17.8161 30.9579 14.9263 28.1442 14.0138C28.1442 14.0138 31.8705 9.67909 35.7489 10.3635L38.9428 10.8958Z" fill="#FFEE81" stroke="#171753" stroke-width="0.4"/>
<path d="M30.8821 17.5879C30.8821 17.5879 30.806 17.5879 30.806 17.5119C30.73 17.4358 30.73 17.3598 30.806 17.3598C31.9467 16.3712 32.1749 15.4586 32.1749 15.4586C32.1749 15.3826 32.2509 15.3826 32.327 15.3826C32.403 15.3826 32.403 15.4586 32.403 15.5347C32.403 15.6107 32.0988 16.5233 30.9581 17.5119C30.9581 17.5879 30.9581 17.5879 30.8821 17.5879Z" fill="#171753"/>
<path d="M31.4904 17.5118C31.4144 17.5118 31.3383 17.4358 31.3383 17.3597C31.4904 16.9034 31.7946 16.219 31.8707 16.219C31.8707 16.143 31.9467 16.143 32.0228 16.143C32.0988 16.143 32.0988 16.219 32.0988 16.2951C32.0988 16.2951 31.7186 16.9034 31.6425 17.3597C31.6425 17.4358 31.5665 17.5118 31.4904 17.5118Z" fill="#171753"/>
<path d="M43.5057 5.34413C43.5057 5.34413 43.8859 7.16925 42.365 8.69019C40.844 10.2111 39.247 7.16925 39.247 7.16925L42.1368 5.03995L43.5057 5.34413Z" fill="#171753"/>
<path d="M35.673 2.37842C35.673 2.37842 34.2281 3.44307 34.3041 5.57238C34.3802 7.70169 37.2699 6.10471 37.2699 6.10471L36.0532 3.13888L35.673 2.37842Z" fill="#171753"/>
<path d="M40.1597 9.37477C40.1597 9.37477 39.7034 10.2113 39.7794 12.0364C39.7794 12.2645 39.7034 12.5687 39.5513 12.7208C38.9429 13.4813 37.422 15.3064 35.9771 14.698C34.9885 14.2418 34.8364 13.4052 34.9125 12.7208C34.9885 12.2645 35.1406 11.8843 35.4448 11.5041C35.6729 11.1999 35.9771 10.5155 35.825 9.52686C35.6729 8.00593 38.1825 7.39755 38.1825 7.39755L40.1597 9.37477Z" fill="#ECFFFE" stroke="#171753" stroke-width="0.4"/>
<path d="M35.4767 4.06122L35.4829 4.03863C35.7392 3.38267 36.0395 2.95426 36.5183 2.66355C37.0081 2.36614 37.7092 2.19757 38.8013 2.122C40.8899 2.05158 41.9633 3.48702 42.2489 4.48672L42.2484 4.48686L42.2532 4.50013C42.3826 4.85591 42.3227 5.33552 42.1916 5.80373C42.0872 6.17654 41.9477 6.51013 41.8558 6.73018C41.8406 6.76639 41.8268 6.79952 41.8146 6.82925C41.8047 6.83955 41.7947 6.85064 41.786 6.86153C41.7688 6.88301 41.7279 6.93777 41.7279 7.01737C41.7279 7.09697 41.7688 7.15173 41.786 7.1732C41.8027 7.19412 41.8244 7.21575 41.8399 7.23119C41.8411 7.23245 41.8423 7.23366 41.8435 7.23484C41.9085 7.29982 41.9862 7.39469 42.0056 7.53045C42.0242 7.66115 41.9946 7.87413 41.751 8.18737L41.7508 8.18722L41.745 8.19547C41.4914 8.55776 41.2926 8.69329 41.1648 8.74037C41.0453 8.78442 40.9699 8.75776 40.9337 8.73965L40.8914 8.71853H40.8442H40.8438H40.8433H40.8429H40.8425H40.842H40.8416H40.8411H40.8407H40.8403H40.8399H40.8394H40.839H40.8386H40.8382H40.8377H40.8373H40.8369H40.8365H40.8361H40.8357H40.8352H40.8348H40.8344H40.834H40.8336H40.8332H40.8328H40.8324H40.832H40.8316H40.8312H40.8308H40.8304H40.83H40.8296H40.8293H40.8289H40.8285H40.8281H40.8277H40.8273H40.827H40.8266H40.8262H40.8258H40.8255H40.8251H40.8247H40.8243H40.824H40.8236H40.8232H40.8229H40.8225H40.8222H40.8218H40.8214H40.8211H40.8207H40.8204H40.82H40.8197H40.8193H40.819H40.8186H40.8183H40.8179H40.8176H40.8173H40.8169H40.8166H40.8162H40.8159H40.8156H40.8152H40.8149H40.8146H40.8142H40.8139H40.8136H40.8132H40.8129H40.8126H40.8123H40.8119H40.8116H40.8113H40.811H40.8107H40.8103H40.81H40.8097H40.8094H40.8091H40.8088H40.8085H40.8082H40.8079H40.8075H40.8072H40.8069H40.8066H40.8063H40.806H40.8057H40.8054H40.8051H40.8048H40.8045H40.8042H40.8039H40.8036H40.8034H40.8031H40.8028H40.8025H40.8022H40.8019H40.8016H40.8013H40.801H40.8008H40.8005H40.8002H40.7999H40.7996H40.7994H40.7991H40.7988H40.7985H40.7982H40.798H40.7977H40.7974H40.7971H40.7969H40.7966H40.7963H40.7961H40.7958H40.7955H40.7953H40.795H40.7947H40.7945H40.7942H40.7939H40.7937H40.7934H40.7931H40.7929H40.7926H40.7924H40.7921H40.7918H40.7916H40.7913H40.7911H40.7908H40.7906H40.7903H40.7901H40.7898H40.7896H40.7893H40.7891H40.7888H40.7886H40.7883H40.7881H40.7878H40.7876H40.7873H40.7871H40.7868H40.7866H40.7863H40.7861H40.7859H40.7856H40.7854H40.7851H40.7849H40.7846H40.7844H40.7842H40.7839H40.7837H40.7834H40.7832H40.783H40.7827H40.7825H40.7823H40.782H40.7818H40.7816H40.7813H40.7811H40.7809H40.7806H40.7804H40.7802H40.7799H40.7797H40.7795H40.7792H40.779H40.7788H40.7785H40.7783H40.7781H40.7779H40.7776H40.7774H40.7772H40.7769H40.7767H40.7765H40.7763H40.776H40.7758H40.7756H40.7753H40.7751H40.7749H40.7747H40.7744H40.7742H40.774H40.7738H40.7735H40.7733H40.7731H40.7729H40.7726H40.7724H40.7722H40.772H40.7717H40.7715H40.7713H40.7711H40.7709H40.7706H40.7704H40.7702H40.77H40.7697H40.7695H40.7693H40.7691H40.7688H40.7686H40.7684H40.7682H40.768H40.7677H40.7675H40.7673H40.7671H40.7668H40.7666H40.7664H40.7662H40.766H40.7657H40.7655H40.7653H40.7651H40.7648H40.7646H40.7644H40.7642H40.7639H40.7637H40.7635H40.7633H40.763H40.7628H40.7626H40.7624H40.7621H40.7619H40.7617H40.7615H40.7612H40.761H40.7608H40.7606H40.7603H40.7601H40.7599H40.7597H40.7594H40.7592H40.759H40.7587H40.7585H40.7583H40.7581H40.7578H40.7576H40.7574H40.7571H40.7569H40.7567H40.7564H40.7562H40.756H40.7557H40.7555H40.7553H40.755H40.7548H40.7546H40.7543H40.7541H40.7539H40.7536H40.7534H40.7532H40.7529H40.7527H40.7524H40.7522H40.752H40.7517H40.7515H40.7512H40.751H40.7508H40.7505H40.7503H40.75H40.7498H40.7495H40.7493H40.749H40.7488H40.7485H40.7483H40.7481H40.7478H40.7476H40.7473H40.7471H40.7468H40.7466H40.7463H40.746H40.7458H40.7455H40.7453H40.745H40.7448H40.7445H40.7443H40.744H40.7437H40.7435H40.7432H40.743H40.7427H40.7424H40.7422H40.7419H40.7416H40.7414H40.7411H40.7408H40.7406H40.7403H40.74H40.7398H40.7395H40.7392H40.7389H40.7387H40.7384H40.7381H40.7378H40.7376H40.7373H40.737H40.7367H40.7364H40.7362H40.7359H40.7356H40.7353H40.735H40.7347H40.7345H40.7342H40.7339H40.7336H40.7333H40.733H40.7327H40.7324H40.7321H40.7318H40.7315H40.7312H40.7309H40.7306H40.7303H40.73H40.7297H40.7294H40.7291H40.7288H40.7285H40.7282H40.7279H40.7276H40.7273H40.727H40.7266H40.7263H40.726H40.7257H40.7254H40.7251H40.7247H40.7244H40.7241H40.7238H40.7234H40.7231H40.7228H40.7225H40.7221H40.7218H40.7215H40.7211H40.7208H40.7205H40.7201H40.7198H40.7195H40.7191H40.7188H40.7184H40.7181H40.7177H40.7174H40.717H40.7167H40.7163H40.716H40.7156H40.7153H40.7149H40.7146H40.7142H40.7138H40.7135H40.7131H40.7127H40.7124H40.712H40.7116H40.7113H40.7109H40.7105H40.7102H40.7098H40.7094H40.709H40.7086H40.7083H40.7079H40.7075H40.7071H40.7067H40.7063H40.7059H40.7055H40.7051H40.7048H40.7044H40.704H40.7036H40.7032H40.7027H40.7023H40.7019H40.7015H40.7011H40.7007H40.7003H40.6999H40.6995H40.699H40.6986H40.6982H40.6978H40.6974H40.6969H40.6965H40.6961H40.6956H40.6952H40.6948H40.6943H40.6939H40.6935H40.693H40.6926H40.6921H40.6255L40.5721 8.75853L40.2679 8.98667L40.3879 9.14667L40.2679 8.98667C39.9765 9.20526 39.6102 9.4257 39.2314 9.653L38.0264 10.1802L38.0263 10.1799L38.0171 10.1845C37.9708 10.2077 37.9044 10.2228 37.7951 10.2427C37.7863 10.2443 37.7773 10.2459 37.7681 10.2476C37.6807 10.2633 37.5745 10.2824 37.4662 10.3158C37.3111 10.3182 37.1757 10.3379 37.059 10.3559C37.0516 10.357 37.0443 10.3581 37.0371 10.3592C36.9188 10.3775 36.8276 10.3916 36.7377 10.3916C36.3443 10.3916 36.0786 10.3892 35.8884 10.3258L35.8735 10.3208L35.858 10.3182C35.486 10.2562 35.2479 10.0181 35.1859 9.64612L35.186 9.64611L35.185 9.64083C34.9246 8.30165 34.9982 6.89969 35.1394 5.82671C35.2098 5.29143 35.2967 4.84077 35.3658 4.52438C35.4004 4.36624 35.4305 4.2418 35.4518 4.15726C35.4625 4.115 35.471 4.08272 35.4767 4.06122Z" fill="#ECFFFE" stroke="#171753" stroke-width="0.4"/>
<path d="M43.3535 5.8005C43.9619 4.58376 43.9619 3.06282 43.2775 1.92212C43.0493 1.61794 42.8212 1.2377 42.441 1.00956C41.0721 -0.0550916 39.0949 0.173048 39.0949 0.173048C39.0949 0.173048 38.3344 -0.435325 36.5093 0.629329C34.6842 1.69398 34.4561 3.89934 35.0644 5.26818L35.977 4.27957C36.053 4.20352 36.053 4.20352 36.1291 4.27957C36.3572 4.50771 37.2698 5.11608 38.5626 5.26818C38.6386 5.26818 38.7147 5.19213 38.6386 5.11608L38.3344 4.05143C38.3344 4.05143 38.3344 3.97538 38.4105 4.05143C38.7147 4.35562 39.7033 5.19213 41.3763 4.27957C41.3763 4.27957 41.9086 5.11608 41.4524 6.18074C41.3003 6.56097 41.3003 6.9412 41.3003 7.24539C41.3003 7.39748 41.4524 7.47353 41.6044 7.39748C42.0607 7.0933 42.9733 6.48492 43.3535 5.8005Z" fill="#171753"/>
<path d="M28.1442 19.3371C27.764 20.0975 27.4598 20.7059 27.3077 20.934C26.3952 22.0747 24.494 21.0861 24.8742 19.1089C25.1784 17.5119 27.5359 13.2533 28.4484 11.5803C28.6766 11.124 29.0568 10.8198 29.437 10.5156L30.4256 9.90727C30.6538 9.75518 30.8819 9.67913 31.1101 9.67913L32.1747 9.83122L34.6082 9.45099C34.9884 9.45099 35.3687 9.52704 35.7489 9.67913C36.1291 9.83122 36.5094 10.1354 36.7375 10.5156L38.0303 12.3408C38.4105 13.4054 37.0417 12.9491 37.0417 12.9491C37.0417 12.9491 36.9657 12.8731 36.8896 12.797C36.8896 12.797 36.4333 13.0252 36.2052 12.721C35.977 12.4168 35.5208 11.7324 35.5208 11.7324C35.1405 11.5042 33.9238 11.8845 33.6196 11.8845C32.9352 11.8845 32.5549 11.7324 31.9466 11.6563C31.6424 11.6563 31.4903 11.8084 31.2621 12.1126L30.8819 12.797C30.8819 12.8731 30.8059 12.8731 30.8059 12.9491C30.6538 13.2533 29.437 16.2191 28.8287 17.8161L28.1442 19.3371Z" fill="#ECFFFE" stroke="#171753" stroke-width="0.4"/>
<path d="M22.1365 39.5654C22.0605 39.5654 22.0605 39.4894 21.9844 39.4894C21.9844 39.4894 21.9084 38.805 22.0605 37.9684C22.0605 37.8924 22.1365 37.8924 22.2126 37.8924C22.2886 37.8924 22.2886 37.9684 22.2886 38.0445C22.1365 38.805 22.2126 39.4133 22.2126 39.4133C22.2886 39.4894 22.2126 39.5654 22.1365 39.5654Z" fill="#FFE850"/>
<path d="M22.6688 37.0556C22.5167 36.9795 22.5167 36.9035 22.5928 36.8274C23.0491 36.143 24.4179 34.47 27.0035 34.7742C28.6765 35.0023 31.4142 35.4586 31.4142 35.4586C31.4902 35.4586 31.4902 35.5346 31.4902 35.6107C31.4902 35.6867 31.4142 35.6867 31.3381 35.6867C31.3381 35.6867 28.6005 35.2304 26.9274 35.0023C24.4939 34.6981 23.2011 36.2951 22.7449 36.9795C22.7449 37.0556 22.7449 37.0556 22.6688 37.0556Z" fill="#FFE850"/>
<path d="M34.1519 51.2766C33.7716 50.9724 33.6195 50.364 33.6956 49.6035L35.2165 36.7516C35.3686 35.5349 36.2051 34.3181 37.1937 33.7098L44.0379 29.7553C45.0265 29.223 46.8517 30.0595 47.0798 31.0481L47.7642 41.5426C47.8403 42.151 48.6007 43.0635 48.2205 43.824C47.8403 44.5844 47.1559 45.5731 46.5475 45.8772L36.2812 52.1891C35.2926 52.3412 34.5321 51.5807 34.1519 51.2766ZM38.9428 34.8505C38.5626 35.0786 36.9656 36.5995 36.8896 37.0558L34.9884 49.1472C34.9123 49.4514 34.9884 49.6796 35.1405 49.7556C35.2926 49.9077 35.5207 49.8317 35.7489 49.7556L45.787 43.9761C46.0152 43.824 46.2433 43.5958 46.3954 43.2917C46.5475 42.9875 46.6235 42.6833 46.5475 42.4551L44.7984 31.5044C44.7224 31.1242 44.4182 31.0481 44.114 31.2002L38.9428 34.8505Z" fill="#FFE850"/>
<path d="M35.901 52.265C35.1405 52.265 34.6082 51.7326 34.2279 51.4285C34.1519 51.3524 34.1519 51.3524 34.0758 51.2764C33.6196 50.9722 33.4675 50.2878 33.6196 49.4512L35.1405 36.5993C35.2926 35.3826 36.1291 34.0898 37.1938 33.4814L44.038 29.527C44.6463 29.1468 45.4829 29.3749 46.0152 29.6031C46.6996 29.9072 47.0798 30.3635 47.2319 30.8958L47.9163 41.3903C47.9163 41.5424 48.0684 41.7705 48.1445 41.9987C48.3726 42.531 48.6008 43.1394 48.3726 43.7477C47.9924 44.5082 47.308 45.4968 46.6235 45.877L36.2812 52.265C36.1291 52.265 35.977 52.265 35.901 52.265ZM44.7984 29.6791C44.5703 29.6791 44.2661 29.7551 44.114 29.8312L37.2698 33.7856C36.3572 34.3179 35.5207 35.5347 35.3686 36.7514L33.8477 49.6033C33.7717 50.2878 33.9238 50.8961 34.2279 51.2003C34.304 51.2764 34.304 51.2764 34.38 51.3524C34.7603 51.7326 35.4447 52.265 36.2051 52.0368L46.4715 45.725C47.0798 45.4208 47.6882 44.5082 48.0684 43.6717C48.2966 43.2154 48.0684 42.607 47.8403 42.1508C47.7642 41.9226 47.6122 41.6945 47.6122 41.4663L46.9277 30.9719C46.8517 30.5917 46.4715 30.1354 45.8631 29.9072C45.5589 29.7551 45.1787 29.6791 44.7984 29.6791ZM35.3686 49.9075C35.2165 49.9075 35.1405 49.9075 35.0644 49.8315C34.9124 49.6794 34.8363 49.3752 34.8363 49.071L36.7375 36.9796C36.8135 36.5233 38.4866 34.9263 38.8668 34.6982L43.9619 30.9719C44.1901 30.8198 44.4182 30.8198 44.5703 30.8958C44.7224 30.9719 44.7984 31.124 44.8745 31.3521L46.6235 42.3789C46.6996 42.607 46.6235 42.9873 46.4715 43.2915C46.3194 43.5956 46.0912 43.8998 45.8631 43.9759L35.8249 49.7554C35.5968 49.9075 35.5207 49.9075 35.3686 49.9075ZM44.3421 31.2C44.2661 31.2 44.1901 31.2 44.114 31.2761L39.0189 35.0024C38.6386 35.2305 37.0417 36.7514 37.0417 37.0556L35.1405 49.1471C35.1405 49.3752 35.1405 49.6033 35.2926 49.6794C35.3686 49.7554 35.5968 49.7554 35.7489 49.6794L45.787 43.8998C46.0152 43.7477 46.1673 43.5196 46.3194 43.2915C46.4715 42.9873 46.5475 42.7591 46.4715 42.531L44.7224 31.5042C44.7224 31.4282 44.6463 31.2761 44.5703 31.2761C44.4182 31.2 44.4182 31.2 44.3421 31.2Z" fill="#171753"/>
<path d="M36.053 51.4288L35.2926 50.6683L35.4447 49.8318C35.5207 49.8318 35.5207 49.8318 35.5968 49.7558L45.6349 43.9762L46.6996 44.6606L36.053 51.4288Z" fill="#ECFFFE"/>
<path d="M36.053 51.5809H35.9769L35.2164 50.8204C35.2164 50.8204 35.1404 50.7444 35.2164 50.7444L35.3685 49.9079C35.3685 49.8318 35.3685 49.8318 35.4446 49.8318C35.4446 49.8318 35.5206 49.8318 35.5206 49.7558L45.5588 43.9762C45.6348 43.9762 45.6348 43.9762 45.7109 43.9762L46.7756 44.6606L46.8516 44.7367C46.8516 44.8127 46.8516 44.8127 46.7756 44.8127L36.053 51.5809C36.129 51.5809 36.129 51.5809 36.053 51.5809ZM35.4446 50.6683L36.053 51.2767L46.4714 44.6606L45.6349 44.1283L35.6727 49.9079C35.6727 49.9079 35.5967 49.9079 35.5967 49.9839L35.4446 50.6683Z" fill="#171753"/>
<path d="M44.7984 31.4283C44.7224 31.0481 44.4182 30.972 44.114 31.1241L39.0189 34.8504C38.7907 35.0025 38.0303 35.6869 37.4979 36.2953L36.8135 36.0672L35.7489 35.3827C36.1291 34.6223 36.6614 34.0139 37.2698 33.6337L43.9619 29.7553L45.3307 30.2876L44.7984 31.4283Z" fill="#ECFFFE"/>
<path d="M37.4221 36.4473C37.346 36.4473 37.346 36.4473 37.4221 36.4473L36.7376 36.2191L35.5969 35.5347C35.5209 35.5347 35.5209 35.4587 35.5209 35.3826C35.9011 34.6221 36.5095 33.9377 37.1179 33.5575L43.81 29.6791H43.886L45.2549 30.2114C45.2549 30.2114 45.3309 30.2114 45.3309 30.2875C45.3309 30.3635 45.3309 30.3635 45.3309 30.3635L44.7986 31.5042C44.7986 31.5803 44.7226 31.5803 44.6465 31.5803C44.5705 31.5803 44.5705 31.5042 44.5705 31.5042C44.5705 31.4282 44.4944 31.2761 44.4184 31.2761C44.3423 31.2 44.1902 31.2761 44.0381 31.3521L38.943 35.0784C38.7149 35.2305 37.9544 35.9149 37.4221 36.5233C37.4981 36.3712 37.4221 36.4473 37.4221 36.4473ZM35.8251 35.3826L36.8137 35.991L37.346 36.1431C37.8783 35.5347 38.6388 34.8503 38.867 34.6982L43.9621 30.9719C44.1902 30.8198 44.4184 30.8198 44.5705 30.8959C44.6465 30.8959 44.7225 30.9719 44.7225 31.0479L45.1028 30.2875L43.886 29.8312L37.1939 33.7096C36.6616 34.0898 36.2053 34.6221 35.8251 35.3826Z" fill="#171753"/>
<path d="M36.7375 37.8159L34.9124 49.1469C34.8363 49.4511 34.9124 49.6792 35.0645 49.7552C35.2166 49.9073 35.4447 49.8313 35.6728 49.7552L35.3687 50.6678C34.9124 51.8845 37.8021 50.5157 37.4219 51.4283L36.2052 52.1887C35.2166 52.4169 34.5321 51.6564 34.1519 51.2762C33.7717 50.972 33.6196 50.3636 33.6956 49.6031L35.2166 36.7513L36.2812 37.4357L36.7375 37.8159Z" fill="#171753"/>
<path d="M35.901 52.2651C35.1405 52.2651 34.6082 51.7327 34.2279 51.4286C34.1519 51.3525 34.1519 51.3525 34.0758 51.2765C33.6196 50.9723 33.4675 50.2879 33.6196 49.4513L35.1405 36.5995C35.1405 36.5234 35.1405 36.5234 35.2165 36.5234C35.2926 36.5234 35.2926 36.5234 35.3686 36.5234L36.4333 37.2078L36.8896 37.5881L36.9656 37.6641L35.1405 48.9951C35.1405 49.2232 35.1405 49.4513 35.2926 49.5274C35.3686 49.6034 35.5968 49.6034 35.7489 49.5274C35.8249 49.5274 35.8249 49.5274 35.901 49.5274C35.977 49.5274 35.977 49.6034 35.901 49.6795L35.5968 50.592C35.5968 50.6681 35.5207 50.8202 35.5968 50.8962C35.7489 51.0483 36.2051 50.9723 36.5854 50.8962C37.0417 50.8202 37.498 50.7441 37.65 50.9723C37.7261 51.0483 37.7261 51.2004 37.65 51.3525C37.65 51.3525 37.65 51.4286 37.574 51.4286L36.3572 52.189C36.1291 52.2651 36.0531 52.2651 35.901 52.2651ZM35.2926 36.9036L33.7717 49.6034C33.6956 50.2879 33.8477 50.8962 34.1519 51.2004C34.2279 51.2765 34.2279 51.2765 34.304 51.3525C34.6842 51.7327 35.3686 52.2651 36.1291 52.0369L37.2698 51.3525C37.2698 51.2765 37.2698 51.2765 37.2698 51.2765C37.1938 51.2004 36.7375 51.2765 36.4333 51.2765C35.901 51.3525 35.4447 51.4286 35.2165 51.1244C35.1405 50.9723 35.1405 50.8202 35.2165 50.592L35.4447 49.9076C35.2926 49.9076 35.1405 49.9076 34.9884 49.8316C34.8363 49.6795 34.7603 49.3753 34.7603 49.0711L36.5854 37.8162L36.2051 37.436L35.2926 36.9036Z" fill="#171753"/>
<path d="M46.3197 43.2915C46.4718 42.9873 46.5479 42.6831 46.4718 42.455L44.7988 31.6563L45.9395 30.9719L47.0041 31.2001L47.6886 41.4664C47.7646 42.0747 48.449 42.9113 48.1448 43.6717C47.6886 43.8238 47.3844 43.9759 47.3844 43.9759L46.3197 43.2915Z" fill="#171753"/>
<path d="M47.3843 44.128C47.3843 44.052 47.3843 44.128 47.3843 44.128L46.2435 43.3675C46.1675 43.3675 46.1675 43.2915 46.1675 43.2154C46.3196 42.9113 46.3956 42.6831 46.3196 42.455L44.6466 31.6563C44.6466 31.5803 44.6466 31.5803 44.7226 31.5042L45.9394 30.8198H46.0154L47.0801 31.048C47.1561 31.048 47.1561 31.124 47.1561 31.124L47.8405 41.3903C47.8405 41.5424 47.9926 41.7706 48.0687 41.9987C48.2968 42.531 48.525 43.0633 48.2968 43.6717C48.2968 43.6717 48.2968 43.7478 48.2208 43.7478C47.8405 43.9759 47.4603 44.052 47.3843 44.128C47.4603 44.128 47.4603 44.128 47.3843 44.128ZM46.4717 43.2154L47.3843 43.8238C47.4603 43.7478 47.7645 43.6717 48.0687 43.5957C48.2208 43.1394 47.9926 42.6071 47.8405 42.1508C47.7645 41.9226 47.6124 41.6945 47.6124 41.4664L46.928 31.2761L45.9394 31.048L44.8747 31.6563L46.5477 42.3789C46.6238 42.6831 46.6238 42.9113 46.4717 43.2154Z" fill="#171753"/>
<path d="M35.2164 51.9609C34.8362 51.6567 34.6841 51.0484 34.7602 50.2879L36.2811 37.436C36.4332 36.2193 37.2697 35.0025 38.2583 34.3941L45.1025 30.4397C46.0911 29.9074 46.9276 30.2116 47.0797 31.2002L48.8288 42.1509C48.9048 42.7593 48.7527 43.5958 48.3725 44.3562C47.9923 45.1167 47.3839 45.7251 46.7755 46.1053L36.8134 51.8849C36.205 52.2651 35.5967 52.2651 35.2164 51.9609ZM38.2583 35.839C37.8781 36.0672 37.6499 36.5234 37.5739 36.9037L36.053 49.7556C35.9769 50.0597 36.053 50.2879 36.205 50.3639C36.3571 50.516 36.5853 50.44 36.8134 50.3639L46.8516 44.5844C47.0797 44.4323 47.3079 44.2042 47.46 43.9C47.6121 43.5958 47.6881 43.2916 47.612 43.0635L45.863 32.1127C45.7869 31.7325 45.4827 31.6564 45.1786 31.8085L38.2583 35.839Z" fill="#FFE850"/>
<path d="M35.9009 52.2652C35.5967 52.2652 35.3686 52.1892 35.1405 52.0371C34.6842 51.7329 34.5321 51.0485 34.6842 50.212L36.2051 37.3601C36.3572 36.1433 37.1937 34.8505 38.2584 34.2422L45.1026 30.2877C45.6349 29.9835 46.1672 29.9075 46.5475 30.1356C46.9277 30.2877 47.1558 30.668 47.2319 31.2003L48.981 42.2271C49.057 42.9115 48.9049 43.672 48.5247 44.5085C48.1444 45.2689 47.5361 45.9534 46.9277 46.3336L36.8895 52.1131C36.5093 52.1892 36.2051 52.2652 35.9009 52.2652ZM46.0151 30.2877C45.787 30.2877 45.4828 30.3638 45.1786 30.5159L38.3344 34.4703C37.4219 35.0026 36.5853 36.2194 36.4332 37.4361L34.9123 50.288C34.8363 50.9724 34.9884 51.5808 35.2925 51.885C35.6728 52.1892 36.1291 52.1131 36.7374 51.809L46.7756 46.0294C47.384 45.7252 47.9163 45.0408 48.2965 44.3564C48.6768 43.5959 48.8289 42.8354 48.7528 42.2271L47.0037 31.2003C46.9277 30.8201 46.7756 30.5159 46.4714 30.3638C46.3193 30.2877 46.1672 30.2877 46.0151 30.2877ZM36.4332 50.6683C36.2812 50.6683 36.2051 50.6683 36.1291 50.5922C35.977 50.4401 35.9009 50.1359 35.9009 49.8317L37.4219 36.9798C37.4979 36.5236 37.8021 35.9912 38.1823 35.7631L45.0265 31.8087C45.2547 31.6566 45.4828 31.6566 45.6349 31.7326C45.787 31.8087 45.863 31.9608 45.9391 32.1889L47.6882 43.2157C47.7642 43.4438 47.6882 43.824 47.5361 44.1282C47.384 44.4324 47.1558 44.7366 46.9277 44.8127L36.8895 50.5922C36.7374 50.5922 36.5853 50.6683 36.4332 50.6683ZM45.4828 31.8847C45.4068 31.8847 45.3307 31.8847 45.2547 31.9608L38.4105 35.9152C38.1063 36.0673 37.8021 36.5236 37.8021 36.9038L36.2812 49.7557C36.2812 49.9838 36.2812 50.212 36.4332 50.288C36.5093 50.3641 36.7374 50.3641 36.8895 50.288L46.9277 44.5085C47.1558 44.3564 47.3079 44.1282 47.46 43.9001C47.6121 43.672 47.6882 43.3678 47.6121 43.1396L45.863 32.1129C45.863 32.0368 45.787 31.8847 45.7109 31.8847C45.5588 31.8847 45.4828 31.8847 45.4828 31.8847Z" fill="#171753"/>
<path d="M36.0532 38.2727C35.9772 38.1966 35.9772 38.2727 36.0532 38.2727L35.2167 37.7403C35.1407 37.7403 35.1407 37.6643 35.1407 37.5883C35.1407 37.5122 35.2167 37.5122 35.2928 37.5122L36.0532 37.9685C36.1293 37.9685 36.1293 38.0445 36.1293 38.1206C36.1293 38.1966 36.0532 38.2727 36.0532 38.2727Z" fill="#FFE850"/>
<path d="M45.8632 33.1012C45.7872 33.1012 45.7872 33.1012 45.8632 33.1012L45.0267 32.5689C44.9507 32.5689 44.9507 32.4929 44.9507 32.4168C44.9507 32.3408 45.0267 32.3408 45.1028 32.3408L45.8632 32.797C45.9393 32.797 45.9393 32.8731 45.9393 32.9491C45.9393 33.1012 45.8632 33.1012 45.8632 33.1012Z" fill="#FFE850"/>
<path d="M47.4603 43.2915C47.3842 43.2155 47.4603 43.2915 47.4603 43.2915L46.6238 42.7592C46.5477 42.7592 46.5477 42.6832 46.5477 42.6071C46.5477 42.5311 46.6238 42.5311 46.6998 42.5311L47.4603 42.9873C47.5363 42.9873 47.5363 43.0634 47.5363 43.1394C47.5363 43.2155 47.4603 43.2915 47.4603 43.2915Z" fill="#FFE850"/>
<path d="M34.6841 50.2118C34.6081 50.2118 34.6081 50.2118 34.6841 50.2118L33.7715 49.6795C33.6955 49.6795 33.6955 49.6034 33.6955 49.5274C33.6955 49.4513 33.7716 49.4513 33.8476 49.4513L34.6841 49.9836C34.7602 49.9836 34.7602 50.0597 34.7602 50.1357L34.6841 50.2118Z" fill="#FFE850"/>
<path d="M36.4334 28.7666L40.2358 30.2114C40.3878 30.2875 40.3878 30.4396 40.2358 30.5156C39.019 30.8198 35.9011 31.4282 35.2927 31.2761C34.5322 31.048 30.5018 28.3103 30.5018 28.3103L36.4334 28.7666Z" fill="#ECFFFE"/>
<path d="M35.5967 31.3524C35.4446 31.3524 35.2925 31.3524 35.2165 31.2764C34.456 31.0482 30.5777 28.4626 30.4256 28.3105C30.3495 28.3105 30.3495 28.2345 30.3495 28.1584C30.3495 28.0824 30.4256 28.0824 30.5016 28.0824L36.4333 28.5387L40.2356 29.9836C40.3877 30.0596 40.3877 30.1357 40.3877 30.2878C40.3877 30.4398 40.3116 30.5159 40.1595 30.5159C38.8667 30.8961 36.5853 31.3524 35.5967 31.3524ZM30.9579 28.4626C32.0225 29.1471 34.6842 30.8961 35.2926 31.1243C35.6728 31.2764 37.4979 30.9722 40.1595 30.3638C40.1595 30.2878 40.1595 30.2878 40.1595 30.2878L36.3572 28.8429L30.9579 28.4626Z" fill="#171753"/>
<path d="M34.3804 27.3216C35.5211 26.6372 35.7493 26.7132 35.7493 26.7132L35.8253 26.4851C35.5211 26.333 35.2169 26.257 34.9128 26.409L34.4565 26.6372C34.3044 26.7132 34.2283 26.409 34.2283 26.257C34.2283 25.8767 34.3804 25.5725 34.7607 25.4204L35.1409 25.2683C35.369 25.1163 35.6732 25.1163 35.9014 25.1923L38.4109 25.7246C38.4109 25.7246 42.2132 26.1049 44.4946 27.0935L44.8749 27.1695C44.8749 27.1695 44.4186 25.3444 43.8863 23.2911C45.9395 22.9869 46.8521 22.0744 47.1563 21.6181H47.2323C47.2323 21.6181 47.8407 23.6714 48.4491 26.6372C48.9054 28.6904 48.6772 30.2114 48.6012 30.9718C48.5251 31.276 48.297 31.5802 47.9167 31.5802C47.3844 31.5802 46.4719 31.4281 45.103 30.6677C43.2018 29.603 41.1486 28.8425 40.3881 28.5384C40.236 28.4623 40.0079 28.4623 39.7797 28.3863C39.3995 28.3863 39.0193 28.3863 38.639 28.6144L37.7265 28.9946C37.4983 29.0707 37.2702 29.1467 37.0421 29.2228L36.4337 29.3749C35.8253 29.527 35.1409 29.4509 34.5325 29.2988L33.8481 29.0707C33.5439 28.9946 33.3918 28.6144 33.5439 28.3102C33.5439 28.006 33.8481 27.6258 34.3804 27.3216Z" fill="#ECFFFE" stroke="#171753" stroke-width="0.4"/>
<path d="M45.8634 27.93C45.7873 27.93 45.7873 27.93 45.8634 27.93C45.7873 27.93 45.1029 27.5498 44.4185 27.2456C44.3424 27.2456 44.3424 27.1696 44.3424 27.0935C44.3424 27.0175 44.4185 27.0175 44.4945 27.0175C45.179 27.2456 45.9394 27.7019 45.9394 27.7019C46.0155 27.7019 46.0155 27.7779 46.0155 27.854C45.9394 27.854 45.8634 27.93 45.8634 27.93Z" fill="#171753"/>
<path d="M41.9847 30.8958C41.9087 30.8958 41.9087 30.8958 41.9847 30.8958C41.9087 30.8958 41.8326 30.8197 41.8326 30.7437L41.9087 30.2113C41.9087 30.1353 41.9847 30.1353 42.0607 30.1353C42.1368 30.1353 42.1368 30.2113 42.1368 30.2874L42.0607 30.8197C42.0607 30.8957 41.9847 30.8958 41.9847 30.8958Z" fill="#FFE850"/>
<path d="M32.6736 23.6697L35.5107 30.9865L26.9133 28.1962L26.9022 28.1926L26.8908 28.1903C26.5932 28.1308 26.3351 27.8866 26.2012 27.5527L23.2543 19.9212L31.9556 23.0234L31.9693 23.0282L31.9835 23.0311C32.2811 23.0906 32.5393 23.3349 32.6732 23.6688C32.6733 23.6691 32.6734 23.6694 32.6736 23.6697Z" fill="#FFE850" stroke="#171753" stroke-width="0.4"/>
<path d="M28.7673 25.9177L28.7625 25.9105L28.7571 25.9037C28.627 25.741 28.5469 25.5465 28.5234 25.3743C28.5022 25.2188 28.5296 25.1121 28.5706 25.0531C28.7571 24.9865 29.0891 25.0682 29.3471 25.4552C29.485 25.6621 29.5672 25.881 29.591 26.0557C29.6143 26.2266 29.5774 26.2943 29.5603 26.3134C29.3774 26.391 29.0331 26.3164 28.7673 25.9177Z" fill="#ECFFFE" stroke="#171753" stroke-width="0.4"/>
<path d="M37.27 13.1769C37.194 13.1769 37.194 13.1769 37.194 13.1008L36.3575 11.9601C36.2814 11.8841 36.3575 11.808 36.3575 11.808C36.4335 11.808 36.5096 11.808 36.5096 11.808L37.3461 12.9487C37.4221 13.0248 37.4221 13.1008 37.27 13.1769C37.3461 13.1769 37.3461 13.1769 37.27 13.1769Z" fill="#171753"/>
<path d="M35.2926 28.8428C35.0645 28.8428 34.7603 28.7668 34.6082 28.5386C34.6082 28.4626 34.6082 28.3865 34.6842 28.3865C34.7603 28.3865 34.8363 28.3865 34.8363 28.4626C34.9884 28.7668 35.5968 28.6147 35.5968 28.6147C35.6728 28.6147 35.7489 28.6147 35.7489 28.6907C35.7489 28.7668 35.7489 28.8428 35.6728 28.8428C35.6728 28.7668 35.4447 28.8428 35.2926 28.8428Z" fill="#171753"/>
<path d="M27.1922 56.3364C27.2036 56.1801 27.1799 55.9236 27.1296 55.6196C26.916 55.6507 26.6762 55.6844 26.4106 55.7204C26.3472 55.8691 26.2789 56.0159 26.2077 56.1599L27.1818 56.4561C27.1854 56.4207 27.189 56.3809 27.1922 56.3364ZM25.9927 57.8325L26.0954 56.3804C25.9943 56.5736 25.8894 56.7607 25.7857 56.9397C25.5836 57.2882 25.3223 57.7079 25.0775 58.101C24.9037 58.3801 24.7383 58.6458 24.6083 58.8632C24.42 59.178 24.268 59.4615 24.1547 59.7035C24.2208 59.6989 24.2905 59.6922 24.3633 59.683C24.8495 59.6212 25.2504 59.4722 25.4755 59.3079C25.563 59.244 25.7278 59.0071 25.8585 58.5426C25.9142 58.345 25.9489 58.1586 25.9695 58.0212C25.9796 57.9536 25.9858 57.9008 25.9893 57.8678C25.991 57.8514 25.9921 57.8402 25.9925 57.8347C25.9926 57.8338 25.9927 57.8331 25.9927 57.8325ZM23.9213 60.3637C23.9213 60.3637 23.9215 60.362 23.9216 60.3588C23.9213 60.3622 23.9212 60.3638 23.9213 60.3637Z" fill="#171753" stroke="#171753" stroke-width="2.72692"/>
<path d="M5.97315 46.9216L6.31052 46.7798L6.67352 46.8261C6.90599 46.8557 6.90267 46.8477 6.90225 46.8467C6.90222 46.8466 6.90221 46.8466 6.90224 46.8466C6.93828 46.8391 7.0971 46.7962 7.52575 46.5457C7.8558 46.3528 8.33064 45.9535 8.77776 45.5346C8.7984 45.5153 8.81879 45.4961 8.83889 45.4771C8.7763 45.3832 8.70288 45.2793 8.61702 45.1659C8.01134 45.3369 7.34894 45.4702 6.71662 45.5805C5.97336 45.7102 5.18796 45.8211 4.48893 45.9198C4.23132 45.9562 3.98544 45.9909 3.75771 46.0243C3.01333 46.1335 2.37677 46.2718 1.93268 46.4273C1.99077 46.5091 2.05899 46.5939 2.13672 46.678C2.4373 47.0031 2.78559 47.2196 3.08319 47.2918C3.49914 47.3927 4.02716 47.3948 4.50864 47.3518C4.73788 47.3312 4.93418 47.3026 5.0709 47.2796C5.10333 47.2741 5.13215 47.269 5.157 47.2644L5.15806 47.264L5.15953 47.2634L5.161 47.2627L5.16249 47.2621L5.16398 47.2615L5.16549 47.2609L5.16701 47.2602L5.16854 47.2596L5.17008 47.2589L5.17164 47.2583L5.1732 47.2576L5.17478 47.257L5.17637 47.2563L5.17797 47.2556L5.17958 47.2549L5.1812 47.2543L5.18283 47.2536L5.18448 47.2529L5.18614 47.2522L5.18781 47.2515L5.18949 47.2508L5.19119 47.2501L5.19289 47.2493L5.19461 47.2486L5.19634 47.2479L5.19808 47.2472L5.19983 47.2464L5.2016 47.2457L5.20338 47.2449L5.20517 47.2442L5.20697 47.2434L5.20879 47.2427L5.21062 47.2419L5.21246 47.2411L5.21431 47.2404L5.21618 47.2396L5.21805 47.2388L5.21994 47.238L5.22185 47.2372L5.22376 47.2364L5.22569 47.2356L5.22763 47.2348L5.22959 47.2339L5.23155 47.2331L5.23353 47.2323L5.23553 47.2314L5.23753 47.2306L5.23955 47.2297L5.24158 47.2289L5.24363 47.228L5.24569 47.2272L5.24776 47.2263L5.24984 47.2254L5.25194 47.2245L5.25405 47.2237L5.25617 47.2228L5.25831 47.2219L5.26046 47.221L5.26263 47.2201L5.26481 47.2191L5.267 47.2182L5.2692 47.2173L5.27142 47.2164L5.27366 47.2154L5.2759 47.2145L5.27816 47.2135L5.28044 47.2126L5.28273 47.2116L5.28503 47.2106L5.28734 47.2097L5.28967 47.2087L5.29202 47.2077L5.29438 47.2067L5.29675 47.2057L5.29913 47.2047L5.30154 47.2037L5.30395 47.2027L5.30638 47.2017L5.30882 47.2006L5.31128 47.1996L5.31375 47.1986L5.31624 47.1975L5.31874 47.1965L5.32126 47.1954L5.32379 47.1944L5.32633 47.1933L5.32889 47.1922L5.33147 47.1911L5.33405 47.19L5.33666 47.189L5.33928 47.1879L5.34191 47.1867L5.34456 47.1856L5.34722 47.1845L5.3499 47.1834L5.35259 47.1823L5.3553 47.1811L5.35803 47.18L5.36077 47.1788L5.36352 47.1777L5.36629 47.1765L5.36907 47.1753L5.37187 47.1742L5.37469 47.173L5.37752 47.1718L5.38037 47.1706L5.38323 47.1694L5.38611 47.1682L5.389 47.167L5.39191 47.1657L5.39483 47.1645L5.39777 47.1633L5.40073 47.162L5.4037 47.1608L5.40669 47.1595L5.40969 47.1583L5.41271 47.157L5.41574 47.1557L5.4188 47.1544L5.42186 47.1532L5.42495 47.1519L5.42805 47.1506L5.43116 47.1492L5.43429 47.1479L5.43744 47.1466L5.44061 47.1453L5.44379 47.1439L5.44699 47.1426L5.4502 47.1413L5.45343 47.1399L5.45668 47.1385L5.45994 47.1372L5.46322 47.1358L5.46652 47.1344L5.46983 47.133L5.47316 47.1316L5.47651 47.1302L5.47987 47.1288L5.48325 47.1274L5.48665 47.1259L5.49006 47.1245L5.49349 47.1231L5.49694 47.1216L5.50041 47.1202L5.50389 47.1187L5.50739 47.1172L5.51091 47.1157L5.51444 47.1143L5.51799 47.1128L5.52156 47.1113L5.52515 47.1098L5.52875 47.1083L5.53237 47.1067L5.53601 47.1052L5.53966 47.1037L5.54334 47.1021L5.54703 47.1006L5.55074 47.099L5.55446 47.0974L5.55821 47.0959L5.56197 47.0943L5.56575 47.0927L5.56955 47.0911L5.57336 47.0895L5.5772 47.0879L5.58105 47.0863L5.58492 47.0847L5.58881 47.083L5.59271 47.0814L5.59664 47.0797L5.60058 47.0781L5.60454 47.0764L5.60852 47.0747L5.61252 47.0731L5.61653 47.0714L5.62056 47.0697L5.62462 47.068L5.62869 47.0663L5.63278 47.0645L5.63689 47.0628L5.64101 47.0611L5.64516 47.0593L5.64932 47.0576L5.6535 47.0558L5.65771 47.0541L5.66193 47.0523L5.66616 47.0505L5.67042 47.0487L5.6747 47.0469L5.679 47.0451L5.68331 47.0433L5.68765 47.0415L5.692 47.0397L5.69637 47.0378L5.70076 47.036L5.70518 47.0341L5.70961 47.0323L5.71406 47.0304L5.71852 47.0285L5.72301 47.0266L5.72752 47.0247L5.73205 47.0228L5.7366 47.0209L5.74116 47.019L5.74575 47.0171L5.75036 47.0152L5.75498 47.0132L5.75963 47.0113L5.76429 47.0093L5.76898 47.0073L5.77368 47.0054L5.77841 47.0034L5.78315 47.0014L5.78792 46.9994L5.7927 46.9974L5.79751 46.9953L5.80233 46.9933L5.80718 46.9913L5.81205 46.9892L5.81693 46.9872L5.82184 46.9851L5.82676 46.9831L5.83171 46.981L5.83668 46.9789L5.84167 46.9768L5.84668 46.9747L5.85171 46.9726L5.85676 46.9705L5.86183 46.9683L5.86692 46.9662L5.87203 46.964L5.87716 46.9619L5.88231 46.9597L5.88749 46.9575L5.89268 46.9554L5.8979 46.9532L5.90314 46.951L5.9084 46.9488L5.91368 46.9465L5.91898 46.9443L5.9243 46.9421L5.92964 46.9398L5.935 46.9376L5.94039 46.9353L5.9458 46.933L5.95122 46.9308L5.95667 46.9285L5.96214 46.9262L5.96764 46.9239L5.97315 46.9216Z" fill="#171753" stroke="#171753" stroke-width="2.72692"/>
</svg>
