<svg width="25" height="40" viewBox="0 0 25 40" fill="none" xmlns="http://www.w3.org/2000/svg">
<path d="M24.6098 32.7755C24.6098 32.7228 24.6098 32.7228 24.5571 32.6701L23.8722 30.5606C23.8722 30.5079 23.8195 30.5079 23.8195 30.5079L21.1326 30.1387C21.1326 30.1387 21.1326 30.1387 21.0799 30.1387L13.8621 25.9726C12.545 25.2343 10.2796 25.2871 8.75174 26.1836L2.74571 29.6114H2.69302L1.21785 29.4004C1.16517 29.4004 1.11248 29.4005 1.11248 29.4532L0.480269 31.4044C0.3749 31.6153 0.269526 31.7736 0.269526 31.9845C0.216842 32.5119 0.480271 33.0392 1.16517 33.4084L11.1225 39.1038C12.4397 39.8421 14.7051 39.7894 16.2329 38.8929L23.5034 34.7268C24.3991 34.2521 24.8205 33.4611 24.6098 32.7755Z" fill="#171753"/>
<path d="M13.2821 39.9475C12.3865 39.9475 11.5435 39.7893 10.964 39.4201L1.00664 33.7247C0.269053 33.3028 -0.0470589 32.7227 0.00562565 32.0371C0.00562565 31.8262 0.111 31.6153 0.216369 31.4043L0.848581 29.4531C0.901266 29.2949 1.05932 29.1894 1.21737 29.2422L2.63985 29.4531L8.59321 26.0253C10.1737 25.1288 12.5445 25.0233 13.967 25.8143L21.1848 29.9277L23.8717 30.2969C23.9771 30.2969 24.0825 30.4023 24.1351 30.5078L24.82 32.6172V32.67L24.6093 32.7754L24.82 32.7227C25.0835 33.5665 24.6093 34.463 23.5029 35.0431L16.2325 39.2092C15.4422 39.6838 14.3358 39.9475 13.2821 39.9475ZM1.27006 29.7168L0.637847 31.6153C0.532477 31.7735 0.479791 31.9317 0.479791 32.0899C0.427107 32.5645 0.690526 32.9337 1.21737 33.2501L11.1748 38.9455C12.3865 39.6838 14.5992 39.5784 16.0217 38.7346L23.2922 34.5685C24.1352 34.0938 24.5566 33.4083 24.3459 32.8282V32.7754L23.661 30.7715L20.9214 30.3496L13.7036 26.1835C12.4392 25.4452 10.2791 25.5507 8.85663 26.3944L2.8506 29.8223C2.79791 29.875 2.69254 29.875 2.63985 29.875L1.27006 29.7168Z" fill="#171753"/>
<path d="M12.9666 30.1387L13.8095 26.0254C12.4924 25.2871 10.227 25.3398 8.69913 26.2363L2.6931 29.6641H2.64041L1.16525 29.4532C1.11257 29.4532 1.05988 29.4532 1.05988 29.5059L0.480351 31.1935C0.374982 31.4044 0.164241 32.09 0.164241 32.09C0.111556 32.6173 0.374977 33.1447 1.05988 33.5138L11.0173 39.2093C11.4914 39.473 12.1236 39.6839 12.8085 39.6839L12.9666 30.1387Z" fill="#8989C7"/>
<path d="M13.1241 40.0002H12.8607C12.1231 39.9475 11.4382 39.7893 10.964 39.4729L1.00664 33.7774C0.269053 33.3555 -0.0470589 32.7754 0.00562565 32.0899C0.0583102 31.9317 0.216367 31.3516 0.321736 31.1406L0.901269 29.5058C0.953954 29.3476 1.11201 29.2422 1.27006 29.2949L2.69254 29.5058L8.6459 26.078C10.2264 25.1815 12.5972 25.076 14.0197 25.8671L14.1778 25.9725L13.2821 30.2441L13.1241 40.0002ZM1.27006 29.7168L0.743214 31.2989C0.69053 31.4043 0.532476 31.8262 0.479791 32.0899C0.427107 32.5118 0.690526 32.9337 1.21737 33.2501L11.1748 38.9455C11.5435 39.1565 12.0704 39.3147 12.5972 39.3674L12.7026 29.9805L13.5456 26.078C12.2811 25.4452 10.2264 25.5507 8.85663 26.3944L2.8506 29.8223C2.79791 29.875 2.69254 29.875 2.63985 29.875L1.27006 29.7168Z" fill="#171753"/>
<path d="M10.9647 36.414L1.85024 31.1932C0.58581 30.4549 0.74387 29.1892 2.21904 28.3982L9.01534 24.4957C10.4378 23.652 12.6506 23.5465 13.915 24.2848L23.0294 29.5056C24.2939 30.2439 24.1358 31.5096 22.6606 32.3006L15.8643 36.2031C14.3892 37.0468 12.2291 37.1523 10.9647 36.414Z" fill="white"/>
<path d="M13.0715 37.1523C12.2285 37.1523 11.4382 36.9941 10.806 36.6249L1.69161 31.4041C1.05939 31.0349 0.743286 30.5076 0.743286 29.9802C0.743286 29.2947 1.21745 28.6618 2.0604 28.1872L8.8567 24.2848C10.3846 23.3883 12.65 23.3355 13.9671 24.0738L23.0815 29.2947C23.7137 29.6638 24.0299 30.1912 24.0299 30.7185C24.0299 31.4041 23.5557 32.0369 22.7127 32.5115L15.9164 36.414C15.1789 36.8886 14.1252 37.1523 13.0715 37.1523ZM11.807 23.9684C10.9114 23.9684 9.9104 24.1793 9.17281 24.6539L2.3765 28.5564C1.6916 28.9255 1.32281 29.4529 1.32281 29.9275C1.32281 30.2966 1.58624 30.6658 2.0604 30.9295L11.1748 36.1503C12.3339 36.8359 14.4413 36.7304 15.8111 35.9394L22.6074 32.0369C23.2923 31.6678 23.6611 31.1404 23.6611 30.6658C23.6611 30.2966 23.3976 29.9275 22.9235 29.6638L13.8091 24.443C13.2822 24.1266 12.5446 23.9684 11.807 23.9684Z" fill="#171753"/>
<path d="M17.708 30.5075L17.3918 28.82C17.3918 28.82 17.3918 28.82 17.3392 28.7673L16.1801 28.6091L13.1244 26.816C12.5449 26.4996 11.5439 26.5524 10.9117 26.9215L8.27742 28.3981C8.27742 28.3981 8.27742 28.3981 8.22474 28.3981L7.59252 28.2926C7.59252 28.2926 7.53983 28.2926 7.53983 28.3454L7.27641 29.9274C7.22373 30.0329 7.17104 30.0856 7.17104 30.1911C7.11836 30.4021 7.27641 30.6657 7.53983 30.824L11.8073 33.3025C12.3868 33.6189 13.3878 33.5662 14.02 33.1971L17.1811 31.404C17.6026 31.1404 17.8133 30.824 17.708 30.5075Z" fill="#171753"/>
<path d="M12.755 33.7774C12.3336 33.7774 11.9648 33.6719 11.6487 33.5137L7.38122 31.0351C7.01242 30.8242 6.85437 30.5078 6.85437 30.1913C6.85437 30.0859 6.90706 29.9804 6.95975 29.8749L7.22317 28.3456C7.27585 28.1874 7.4339 28.0819 7.53927 28.1347L8.1188 28.2401L10.6477 26.7635C11.3852 26.3416 12.4916 26.2889 13.1238 26.6581L16.1795 28.4511L17.444 28.6093L17.5493 28.7675L17.8654 30.455C18.0235 30.8769 17.7601 31.3515 17.2332 31.6152L14.0722 33.4082C13.7561 33.6719 13.2292 33.7774 12.755 33.7774ZM7.75001 28.662L7.48659 30.0859C7.43391 30.1386 7.4339 30.1913 7.4339 30.2441C7.4339 30.4023 7.53927 30.5605 7.69733 30.6132L11.9648 33.0918C12.4389 33.3555 13.3346 33.3555 13.9141 32.9863L17.0752 31.1933C17.3913 31.0351 17.5493 30.7714 17.4967 30.6132L17.7601 30.5605L17.4967 30.6132V30.5605L17.2332 29.0839L16.1269 28.9257L13.0185 27.1327C12.5443 26.869 11.6487 26.869 11.0691 27.2381L8.38223 28.7675H8.27686L7.75001 28.662Z" fill="#171753"/>
<path d="M12.5965 29.7165L13.0706 26.8688C12.4911 26.5524 11.4901 26.6051 10.8579 26.9742L8.22365 28.4508C8.22365 28.4508 8.22365 28.4508 8.17096 28.4508L7.53875 28.3454C7.53875 28.3454 7.48607 28.3454 7.48607 28.3981L7.22265 29.7165C7.16996 29.822 7.16996 30.1384 7.11727 30.2439C7.06459 30.4548 7.22265 30.7185 7.48607 30.8767L11.7535 33.3553C11.9643 33.4607 12.2277 33.5662 12.5438 33.5662L12.5965 29.7165Z" fill="#8989C7"/>
<path d="M12.8605 33.8301H12.597C12.2282 33.8301 11.9648 33.7246 11.7014 33.5664L7.43395 31.0879C7.06516 30.8769 6.9071 30.5605 6.9071 30.2441V30.1913C6.9071 29.9277 6.95979 29.7695 7.01247 29.664L7.27589 28.3983C7.32858 28.2401 7.48664 28.1347 7.59201 28.1874L8.17153 28.2929L10.7004 26.8163C11.438 26.3944 12.5443 26.3416 13.1766 26.7108L13.3346 26.8163L12.8078 29.8222L12.8605 33.8301ZM7.75006 28.662L7.48664 29.8222C7.48664 29.8222 7.48663 29.9804 7.43395 30.1913V30.2441C7.43395 30.4023 7.53932 30.5605 7.69737 30.6132L11.9648 33.0918C12.0702 33.1445 12.2282 33.1973 12.3863 33.25V29.7167L12.8605 27.0272C12.3336 26.8163 11.5433 26.869 11.0692 27.1854L8.38227 28.7147H8.27691L7.75006 28.662Z" fill="#171753"/>
<path d="M11.7541 31.4041L7.85549 29.1364C7.32864 28.82 7.38133 28.2927 8.01354 27.9235L10.9639 26.236C11.5961 25.8668 12.5444 25.8141 13.0713 26.1305L16.9699 28.3981C17.4968 28.7145 17.4441 29.2419 16.8119 29.611L13.8615 31.2986C13.282 31.6677 12.3337 31.7205 11.7541 31.4041Z" fill="#8989C7"/>
<path d="M12.7024 31.879C12.3336 31.879 11.9648 31.7735 11.6487 31.6153L7.75004 29.3476C7.43394 29.1894 7.27588 28.873 7.27588 28.6093C7.27588 28.2929 7.48662 27.9238 7.90809 27.7128L10.8584 26.0253C11.5433 25.6034 12.597 25.6034 13.2292 25.9198L17.1279 28.1875C17.444 28.3457 17.6021 28.6621 17.6021 28.9258C17.6021 29.2422 17.3913 29.6113 16.9698 29.8223L14.0195 31.5098C13.6507 31.7207 13.1765 31.879 12.7024 31.879ZM11.9121 31.1934C12.3863 31.4571 13.2292 31.4043 13.8088 31.0879L16.7591 29.4004C17.0225 29.2422 17.1279 29.084 17.1279 28.9258C17.1279 28.7675 17.0225 28.6621 16.8645 28.6093L12.9658 26.3417C12.4917 26.078 11.6487 26.1308 11.0692 26.4472L8.11883 28.1347C7.85541 28.2929 7.75004 28.4511 7.75004 28.6093C7.75004 28.7675 7.85541 28.873 8.01347 28.9258L11.9121 31.1934Z" fill="#171753"/>
<path d="M15.2833 28.1347C15.2833 28.082 15.2833 28.082 15.2306 28.0292C15.0199 27.3964 13.8608 23.8104 13.8608 18.8532L12.5437 19.0114L11.2266 18.8532C11.2266 23.8104 10.0675 27.3964 9.85678 28.0292C9.85678 28.0292 9.85678 28.082 9.8041 28.082C9.64604 28.5566 9.90947 29.0839 10.5944 29.4531C11.7007 30.0859 13.4393 30.0859 14.493 29.4531C15.1779 29.1367 15.4413 28.6093 15.2833 28.1347Z" fill="#8989C7"/>
<path d="M12.5964 30.2441C11.8589 30.2441 11.1213 30.0859 10.4891 29.7167C9.85684 29.3476 9.54073 28.873 9.54073 28.3456H9.43536L9.59342 27.9765C9.59342 27.9237 9.59341 27.9237 9.6461 27.871C9.85684 27.2382 11.0159 23.7049 11.0159 18.8005V18.5368L12.5964 18.695L14.177 18.5368V18.8005C14.177 23.7049 15.336 27.2382 15.5468 27.9237C15.5468 27.9765 15.5468 27.9765 15.5995 28.0292L15.7048 28.3456H15.6521C15.6521 28.873 15.336 29.3476 14.7038 29.7167C14.0716 30.0859 13.334 30.2441 12.5964 30.2441ZM10.0676 28.1347C9.96221 28.5566 10.1729 28.9784 10.6998 29.2421C11.7008 29.8222 13.334 29.8222 14.3877 29.2421C14.9146 28.9257 15.178 28.5566 15.0199 28.1347V28.0819C14.8092 27.3964 13.6501 23.9158 13.6501 19.0641L12.5964 19.1696L11.5427 19.0641C11.4901 23.9158 10.3837 27.3964 10.1729 28.0292C10.1203 28.1347 10.1203 28.1347 10.0676 28.1347Z" fill="#171753"/>
<path d="M12.9654 20.4879C12.9654 20.4879 12.5439 25.6033 13.0708 29.9276C13.5976 29.8749 14.1245 29.7167 14.5459 29.5057C15.1782 29.1366 15.4416 28.6092 15.3362 28.1346C15.3362 28.1346 15.3362 28.0819 15.2835 28.0819C15.0728 27.449 14.0191 24.1267 13.9137 19.5387L12.9654 20.4879Z" fill="#171753"/>
<path d="M12.807 30.244L12.7544 29.9804C12.2275 25.656 12.649 20.5407 12.649 20.4879V20.3825L13.7554 19.275L14.0715 19.3805V19.5914C14.1768 24.1794 15.2305 27.3963 15.4413 28.0291C15.4413 28.0819 15.4413 28.0819 15.494 28.1346L15.5993 28.451H15.5466C15.5466 28.9784 15.2305 29.453 14.5983 29.8222C14.1768 30.0858 13.5973 30.244 13.0178 30.2968L12.807 30.244ZM13.1758 20.5934C13.1231 21.279 12.807 25.7615 13.2285 29.664C13.65 29.6112 14.0715 29.453 14.3876 29.2948C14.9144 28.9784 15.1778 28.6092 15.0198 28.1874V28.1346C14.8091 27.5545 13.8081 24.4959 13.65 20.1188L13.1758 20.5934Z" fill="#171753"/>
<path d="M23.1859 6.3548H12.5436H1.90131C1.90131 6.3548 1.63788 13.5268 9.48788 19.5914C9.64594 19.7497 9.80399 19.9079 10.0674 20.0133C11.4372 20.8044 13.65 20.8044 15.0724 20.0133C15.2832 19.9079 15.4939 19.7497 15.652 19.5914C23.4493 13.4741 23.1859 6.3548 23.1859 6.3548Z" fill="#8989C7"/>
<path d="M12.5964 20.8571C11.6481 20.8571 10.6998 20.6462 9.9622 20.2243C9.75147 20.0661 9.54073 19.9079 9.32999 19.7497C1.47999 13.6851 1.69073 6.40757 1.69073 6.35483V6.09116H23.3968V6.35483C23.3968 6.40757 23.6075 13.6851 15.7575 19.8024C15.5995 19.9606 15.3887 20.1188 15.178 20.2243C14.4931 20.6462 13.5448 20.8571 12.5964 20.8571ZM2.21758 6.61851C2.27026 7.88417 2.84979 14.107 9.69878 19.3805C9.85684 19.5388 10.0149 19.697 10.2256 19.8024C11.5427 20.5407 13.6501 20.5407 14.9672 19.8024C15.178 19.697 15.336 19.5388 15.4941 19.4333C22.3431 14.107 22.9226 7.88417 22.9753 6.61851H2.21758Z" fill="#171753"/>
<path d="M4.21943 7.51498H14.8617H23.1332C23.2386 6.77668 23.1859 6.3548 23.1859 6.3548H12.5436H1.90131C1.90131 6.3548 1.63788 13.5268 9.48788 19.5914C9.64594 19.7497 9.80399 19.9079 10.0674 20.0133C10.4889 20.2243 10.9631 20.3825 11.4899 20.488C3.95601 14.4761 4.21943 7.51498 4.21943 7.51498Z" fill="white"/>
<path d="M12.4384 20.9099L11.4374 20.6989C10.8578 20.5935 10.3837 20.4353 9.9622 20.1716C9.75147 20.0134 9.54073 19.8552 9.32999 19.697C1.47999 13.6324 1.69073 6.35484 1.69073 6.3021V6.03842H23.3968V6.3021C23.3968 6.3021 23.3968 6.77672 23.3441 7.51502V7.72596H4.48301C4.53569 8.99162 5.11523 15.0035 11.6481 20.2771L12.4384 20.9099ZM2.21758 6.61851C2.27026 7.88417 2.84979 14.107 9.69878 19.3805C9.85683 19.5388 10.0149 19.697 10.2256 19.8024C10.2783 19.8552 10.331 19.8552 10.3837 19.8552C3.8508 14.0015 4.00885 7.56775 4.00885 7.46228V7.1986H22.9226C22.9753 6.93493 22.9753 6.67125 22.9753 6.56578H2.21758V6.61851Z" fill="#171753"/>
<path d="M23.1867 6.3548H16.6011C16.7065 9.51894 16.3377 15.9527 12.439 20.5934C13.4927 20.7516 14.3357 20.4352 15.0733 20.0133C15.284 19.9079 15.4947 19.7497 15.6528 19.5914C23.4501 13.4741 23.1867 6.3548 23.1867 6.3548Z" fill="#171753"/>
<path d="M12.9654 20.9099C12.8073 20.9099 12.5966 20.9099 12.4385 20.8571L12.017 20.8044L12.2805 20.4353C16.0737 15.9 16.4952 9.67718 16.3898 6.35483V6.09116H23.5023V6.35483C23.5023 6.40757 23.713 13.6851 15.863 19.8024C15.7049 19.9606 15.4942 20.1188 15.2835 20.2243C14.6513 20.5407 13.9137 20.9099 12.9654 20.9099ZM12.9127 20.3825C13.7556 20.3825 14.4405 20.0661 14.9147 19.8024C15.1254 19.697 15.2835 19.5388 15.4415 19.4333C22.2905 14.107 22.87 7.88417 22.9227 6.61851H16.8113C16.9167 9.94086 16.4952 15.9 12.9127 20.3825Z" fill="#171753"/>
<path d="M12.5961 12.4721C18.4737 12.4721 23.2384 9.73331 23.2384 6.35479C23.2384 2.97628 18.4737 0.237457 12.5961 0.237457C6.71857 0.237457 1.95386 2.97628 1.95386 6.35479C1.95386 9.73331 6.71857 12.4721 12.5961 12.4721Z" fill="white"/>
<path d="M12.5966 12.7357C9.85701 12.7357 7.06473 12.1028 4.95735 10.8899C2.84997 9.67699 1.74359 8.04219 1.74359 6.35465C1.74359 4.61437 2.90265 2.97957 4.95735 1.81938C9.17211 -0.60646 16.0211 -0.60646 20.2359 1.81938C22.3433 3.0323 23.4496 4.66711 23.4496 6.35465C23.4496 8.09492 22.2906 9.72973 20.2359 10.8899C18.0758 12.1028 15.3362 12.7357 12.5966 12.7357ZM12.5966 0.448252C9.9097 0.448252 7.27547 1.02834 5.22077 2.18853C3.27145 3.29598 2.21776 4.77258 2.21776 6.30191C2.21776 7.83125 3.27145 9.30785 5.22077 10.4153C9.27748 12.7884 15.9157 12.7884 19.9724 10.4153C21.9218 9.30785 22.9755 7.83125 22.9755 6.30191C22.9755 4.77258 21.9218 3.29598 19.9724 2.18853C17.9177 1.02834 15.2308 0.448252 12.5966 0.448252Z" fill="#171753"/>
<path d="M18.4967 2.92691C21.7631 4.8254 21.7631 7.88407 18.4967 9.78255C15.2302 11.681 9.96176 11.681 6.69531 9.78255C3.42887 7.88407 3.42887 4.8254 6.69531 2.92691C9.90907 1.02843 15.2302 1.02843 18.4967 2.92691Z" fill="#8989C7"/>
<path d="M12.5966 11.4174C10.4365 11.4174 8.22375 10.9427 6.53785 9.9935C4.90463 9.04426 3.9563 7.72587 3.9563 6.35474C3.9563 4.98361 4.85194 3.66522 6.53785 2.71598C9.85697 0.817493 15.2835 0.817493 18.6026 2.71598C20.2358 3.66522 21.1842 4.98361 21.1842 6.35474C21.1842 7.72587 20.2885 9.04426 18.6026 9.9935C16.9694 10.9427 14.7566 11.4174 12.5966 11.4174ZM12.5966 1.76674C10.4892 1.76674 8.38181 2.24136 6.80127 3.13786C5.3261 3.98163 4.48314 5.14182 4.48314 6.35474C4.48314 7.56766 5.3261 8.67511 6.80127 9.57161C10.015 11.4174 15.1781 11.4174 18.3919 9.57161C19.867 8.72784 20.71 7.56766 20.71 6.35474C20.71 5.14182 19.867 4.03437 18.3919 3.13786C16.7586 2.24136 14.6513 1.76674 12.5966 1.76674Z" fill="#171753"/>
<path d="M12.4906 4.08723C13.9658 3.24346 15.8624 2.71611 17.8117 2.5579C14.5453 1.02856 9.69833 1.13404 6.69531 2.92705C3.42887 4.82553 3.42887 7.8842 6.69531 9.78269C8.1178 10.5737 9.90907 11.0483 11.7003 11.1538C8.90807 9.04439 9.17149 6.03845 12.4906 4.08723Z" fill="#171753"/>
<path d="M12.4912 11.4701L11.6482 11.4173C9.69892 11.3119 7.90764 10.7845 6.53785 9.99347C4.90463 9.04423 3.9563 7.72583 3.9563 6.35471C3.9563 4.98358 4.85194 3.66519 6.53785 2.71594C9.64623 0.922931 14.4932 0.764726 17.9177 2.3468L18.7607 2.76868L17.8123 2.82142C15.8103 2.97962 14.0191 3.50698 12.5966 4.29801C11.016 5.19452 10.0677 6.40744 10.015 7.72583C9.96234 8.88602 10.5946 10.0462 11.8063 10.9427L12.4912 11.4701ZM12.5966 1.7667C10.4892 1.7667 8.3818 2.24132 6.80127 3.13783C5.3261 3.9816 4.48314 5.14179 4.48314 6.35471C4.48314 7.56763 5.3261 8.67508 6.80127 9.57158C7.90764 10.2044 9.38281 10.679 10.9633 10.8372C10.015 9.888 9.48818 8.78055 9.59355 7.6731C9.69892 6.24924 10.6999 4.87811 12.4385 3.87613C13.6503 3.19057 15.1781 2.66321 16.864 2.45227C15.4942 1.97764 14.0191 1.7667 12.5966 1.7667Z" fill="#171753"/>
</svg>
