<svg width="36" height="40" viewBox="0 0 36 40" fill="none" xmlns="http://www.w3.org/2000/svg">
<path d="M0.0898469 30.8111L14.7709 39.2643V39.9104L0.0718994 31.4572L0.0898469 30.8111C0.0718994 30.8111 0.0718994 30.8111 0.0898469 30.8111Z" fill="#8989C7"/>
<path d="M14.7528 40L14.7169 39.9821L0 31.5109V31.457V30.7571L0.0717899 30.7032L0.107685 30.7212L14.8246 39.1924V39.2462V39.9462L14.7528 40ZM0.161527 31.4211L14.681 39.7846V39.318L0.161527 30.9365V31.4211Z" fill="#171753"/>
<path d="M35.4464 28.0113L14.753 39.9105V39.2644L35.4464 27.3473V28.0113Z" fill="#171753"/>
<path d="M14.7528 40.0001L14.681 39.9462V39.8924V39.1925L14.7169 39.1745L35.4462 27.2394L35.518 27.2933V27.3471V28.0471L35.4821 28.083L14.7528 40.0001ZM14.8426 39.3001V39.7668L35.3745 27.9394V27.4907L14.8426 39.3001Z" fill="#171753"/>
<path d="M0.0896935 30.8109L21.0344 18.9117L35.4641 27.3112L14.7528 39.2642L0.0896935 30.8109C0.071746 30.8109 0.071746 30.8109 0.0896935 30.8109Z" fill="#ECFFFE"/>
<path d="M14.7708 39.3538L14.7169 39.3359L0 30.8467V30.757L0.0358949 30.739L21.0165 18.804L21.0524 18.8219L35.518 27.2393V27.329L35.4821 27.347L14.7708 39.3538ZM0.233317 30.8108L14.7528 39.1744L35.2847 27.2931L20.9985 18.9835L0.233317 30.8108Z" fill="#171753"/>
<path d="M1.45374 30.1112L15.1656 38.0081V38.4389L1.45374 30.542V30.1112Z" fill="#8989C7"/>
<path d="M15.1656 38.5284L15.1297 38.5105L1.38196 30.5777V30.0572L1.45375 30.0034L1.48964 30.0213L15.2553 37.9541V38.4746L15.1656 38.5284ZM1.52554 30.488L15.0938 38.2951V38.0439L1.52554 30.2367V30.488Z" fill="#171753"/>
<path d="M34.5849 27.2573L15.1837 38.4385V38.0078L34.5849 26.8445V27.2573Z" fill="#171753"/>
<path d="M15.1835 38.5283L15.1118 38.4744V37.9719L15.1477 37.9539L34.5848 26.7547L34.6565 26.8086V27.329L34.6206 27.347L15.1835 38.5283ZM15.2553 38.0437V38.2949L34.495 27.2034V26.9522L15.2553 38.0437Z" fill="#171753"/>
<path d="M1.45386 30.111L20.9627 19.0374L34.5669 26.8446L15.1837 38.0079L1.45386 30.111Z" fill="#ECFFFE"/>
<path d="M15.1837 38.0976L15.1478 38.0617L1.38208 30.1469V30.0571L1.41798 30.0212L20.9628 18.9297L20.9987 18.9477L34.6567 26.7728V26.8625L34.6208 26.8804L15.1837 38.0976ZM1.6154 30.111L15.1837 37.9181L34.4234 26.8266L20.9628 19.1092L1.6154 30.111Z" fill="#171753"/>
<path d="M32.1437 26.683L15.3808 36.3746V27.6163L32.1437 17.9247V26.683Z" fill="#171753"/>
<path d="M15.3629 36.4464L15.2732 36.4105V36.3567V27.5445L15.3091 27.5265L32.1079 17.8169L32.1976 17.8528V17.9067V26.7189L32.1618 26.7548L15.3629 36.4464ZM15.4527 27.6521V36.231L32.072 26.6291V18.0502L15.4527 27.6521Z" fill="#171753"/>
<path d="M3.58929 29.6083L15.3628 36.3566V27.5982L14.3578 28.1725L3.60724 21.9268L3.58929 29.6083Z" fill="#8989C7"/>
<path d="M15.3629 36.4464L15.327 36.4284L3.57142 29.6802L3.51758 29.6622V29.6084V21.891L3.58937 21.8371L3.62526 21.8551L14.3578 28.0828L15.3629 27.5085L15.4347 27.5624V27.6162V36.4284L15.3629 36.4464ZM3.67911 29.5545L15.2911 36.213V27.7239L14.3578 28.2623L14.3219 28.2264L3.67911 22.0704V29.5545Z" fill="#171753"/>
<path d="M16.5296 35.6566V35.9079C16.5296 36.0156 16.6014 36.1053 16.727 36.1951C16.9962 36.3566 17.427 36.3566 17.6962 36.1951C17.8218 36.1233 17.8936 36.0156 17.8936 35.9079V35.6566H16.5296Z" fill="#8989C7"/>
<path d="M17.2116 36.3925C17.0321 36.3925 16.8347 36.3566 16.6911 36.2669C16.5296 36.1771 16.4578 36.0515 16.4578 35.9259V35.5849H17.9834V35.9259C17.9834 36.0515 17.8936 36.1771 17.75 36.2669C17.5885 36.3566 17.409 36.3925 17.2116 36.3925ZM16.6194 35.7464V35.9259C16.6194 35.9977 16.6732 36.0694 16.7809 36.1412C17.0142 36.2848 17.427 36.2848 17.6603 36.1412C17.768 36.0874 17.8218 36.0156 17.8218 35.9259V35.7464H16.6194Z" fill="#171753"/>
<path d="M17.2117 35.9797C17.5883 35.9797 17.8937 35.8029 17.8937 35.5848C17.8937 35.3668 17.5883 35.19 17.2117 35.19C16.835 35.19 16.5297 35.3668 16.5297 35.5848C16.5297 35.8029 16.835 35.9797 17.2117 35.9797Z" fill="#8989C7"/>
<path d="M17.2116 36.0514C17.0321 36.0514 16.8347 36.0155 16.6911 35.9258C16.5296 35.836 16.4578 35.7104 16.4578 35.5848C16.4578 35.4591 16.5476 35.3335 16.6911 35.2438C16.9783 35.0822 17.4449 35.0822 17.7321 35.2438C17.8936 35.3335 17.9654 35.4591 17.9654 35.5848C17.9654 35.7104 17.8757 35.836 17.7321 35.9258C17.5885 36.0155 17.409 36.0514 17.2116 36.0514ZM17.2116 35.2617C17.0501 35.2617 16.8886 35.2976 16.7629 35.3694C16.6552 35.4232 16.6014 35.495 16.6014 35.5848C16.6014 35.6566 16.6552 35.7283 16.7629 35.8001C16.9962 35.9437 17.409 35.9437 17.6424 35.8001C17.75 35.7463 17.8039 35.6745 17.8039 35.5848C17.8039 35.513 17.75 35.4412 17.6424 35.3694C17.5347 35.2976 17.3731 35.2617 17.2116 35.2617Z" fill="#171753"/>
<path d="M16.7448 25.8572V35.3694C16.7448 35.4412 16.7986 35.513 16.8883 35.5668C17.0678 35.6745 17.3729 35.6745 17.5524 35.5668C17.6421 35.513 17.696 35.4412 17.696 35.3694V25.4803L16.7448 25.8572Z" fill="#8989C7"/>
<path d="M17.2116 35.7105C17.086 35.7105 16.9424 35.6746 16.8347 35.6207C16.727 35.5489 16.6552 35.4592 16.6552 35.3694V25.8035L17.75 25.3548V35.3694C17.75 35.4771 17.6962 35.5669 17.5705 35.6207C17.4808 35.6746 17.3552 35.7105 17.2116 35.7105ZM16.8347 25.9111V35.3694C16.8347 35.4053 16.8706 35.4592 16.9244 35.4951C17.086 35.5848 17.3552 35.5848 17.4987 35.4951C17.5526 35.4592 17.5885 35.4233 17.5885 35.3694V25.5881L16.8347 25.9111Z" fill="#171753"/>
<path d="M19.4368 33.9694V34.2207C19.4368 34.3284 19.5086 34.4181 19.6342 34.5078C19.9034 34.6694 20.3341 34.6694 20.6034 34.5078C20.729 34.4361 20.8008 34.3284 20.8008 34.2207V33.9694H19.4368Z" fill="#8989C7"/>
<path d="M20.1188 34.7052C19.9394 34.7052 19.7419 34.6694 19.5984 34.5796C19.4368 34.4899 19.3651 34.3642 19.3651 34.2386V33.8976H20.8906V34.2386C20.8906 34.3642 20.8008 34.4899 20.6573 34.5796C20.4957 34.6694 20.3163 34.7052 20.1188 34.7052ZM19.5266 34.0591V34.2386C19.5266 34.3104 19.5804 34.3822 19.6881 34.454C19.9214 34.5976 20.3342 34.5976 20.5675 34.454C20.6752 34.4001 20.7291 34.3284 20.7291 34.2386V34.0591H19.5266Z" fill="#171753"/>
<path d="M20.6034 33.6105C20.8726 33.772 20.8726 34.0053 20.6034 34.1669C20.3342 34.3284 19.9034 34.3284 19.6342 34.1669C19.365 34.0053 19.365 33.772 19.6342 33.6105C19.9034 33.449 20.3342 33.449 20.6034 33.6105Z" fill="#8989C7"/>
<path d="M20.119 34.3644C19.9395 34.3644 19.7421 34.3285 19.5985 34.2387C19.437 34.149 19.3652 34.0234 19.3652 33.8977C19.3652 33.7721 19.4549 33.6465 19.5985 33.5567C19.8856 33.3952 20.3523 33.3952 20.6394 33.5567C20.801 33.6465 20.8728 33.7721 20.8728 33.8977C20.8728 34.0234 20.783 34.149 20.6394 34.2387C20.4959 34.3285 20.3164 34.3644 20.119 34.3644ZM20.119 33.5747C19.9574 33.5747 19.7959 33.6106 19.6703 33.6824C19.5626 33.7362 19.5088 33.808 19.5088 33.8977C19.5088 33.9695 19.5626 34.0413 19.6703 34.1131C19.9036 34.2567 20.3164 34.2567 20.5497 34.1131C20.6574 34.0592 20.7112 33.9875 20.7112 33.8977C20.7112 33.8259 20.6574 33.7541 20.5497 33.6824C20.442 33.6106 20.2805 33.5747 20.119 33.5747Z" fill="#171753"/>
<path d="M19.6523 24.1524V33.6645C19.6523 33.7363 19.7062 33.8081 19.7959 33.862C19.9754 33.9696 20.2805 33.9696 20.46 33.862C20.5497 33.8081 20.6036 33.7363 20.6036 33.6645V23.7755L19.6523 24.1524Z" fill="#8989C7"/>
<path d="M20.1189 34.0235C19.9933 34.0235 19.8497 33.9876 19.742 33.9337C19.6344 33.8619 19.5626 33.7722 19.5626 33.6825V24.1165L20.6574 23.6678V33.6645C20.6574 33.7722 20.6035 33.8619 20.4779 33.9158C20.3881 33.9876 20.2625 34.0235 20.1189 34.0235ZM19.742 24.2062V33.6645C19.742 33.7004 19.7779 33.7543 19.8318 33.7902C19.9933 33.8799 20.2625 33.8799 20.4061 33.7902C20.4599 33.7543 20.4958 33.7184 20.4958 33.6645V23.9011L19.742 24.2062Z" fill="#171753"/>
<path d="M26.5266 29.8954V30.1467C26.5266 30.2544 26.5983 30.3441 26.724 30.4338C26.9932 30.5954 27.4239 30.5954 27.6931 30.4338C27.8188 30.3621 27.8906 30.2544 27.8906 30.1467V29.8954H26.5266Z" fill="#8989C7"/>
<path d="M27.2084 30.6314C27.029 30.6314 26.8315 30.5955 26.688 30.5057C26.5264 30.416 26.4547 30.2904 26.4547 30.1647V29.8237H27.9802V30.1647C27.9802 30.2904 27.8905 30.416 27.7469 30.5057C27.5853 30.5955 27.4059 30.6314 27.2084 30.6314ZM26.6162 29.9853V30.1647C26.6162 30.2365 26.67 30.3083 26.7777 30.3801C27.011 30.5237 27.4238 30.5237 27.6571 30.3801C27.7648 30.3263 27.8187 30.2545 27.8187 30.1647V29.9853H26.6162Z" fill="#171753"/>
<path d="M27.2085 30.2007C27.5852 30.2007 27.8905 30.0239 27.8905 29.8058C27.8905 29.5878 27.5852 29.411 27.2085 29.411C26.8318 29.411 26.5265 29.5878 26.5265 29.8058C26.5265 30.0239 26.8318 30.2007 27.2085 30.2007Z" fill="#8989C7"/>
<path d="M27.2084 30.2904C27.0289 30.2904 26.8315 30.2545 26.6879 30.1648C26.5264 30.0751 26.4546 29.9494 26.4546 29.8238C26.4546 29.6982 26.5443 29.5725 26.6879 29.4828C26.9751 29.3213 27.4417 29.3213 27.7289 29.4828C27.8904 29.5725 27.9622 29.6982 27.9622 29.8238C27.9622 29.9494 27.8724 30.0751 27.7289 30.1648C27.5853 30.2366 27.4058 30.2904 27.2084 30.2904ZM27.2084 29.5008C27.0469 29.5008 26.8853 29.5367 26.7597 29.6084C26.652 29.6623 26.5982 29.7341 26.5982 29.8238C26.5982 29.8956 26.652 29.9674 26.7597 30.0392C26.993 30.1828 27.4058 30.1828 27.6391 30.0392C27.7468 29.9853 27.8006 29.9135 27.8006 29.8238C27.8006 29.752 27.7468 29.6802 27.6391 29.6084C27.5314 29.5367 27.3699 29.5008 27.2084 29.5008Z" fill="#171753"/>
<path d="M26.7418 20.0784V29.5906C26.7418 29.6623 26.7956 29.7341 26.8853 29.788C27.0648 29.8957 27.3699 29.8957 27.5494 29.788C27.6391 29.7341 27.693 29.6623 27.693 29.5906V19.7015L26.7418 20.0784Z" fill="#8989C7"/>
<path d="M27.2084 29.9494C27.0828 29.9494 26.9392 29.9135 26.8315 29.8597C26.7238 29.7879 26.652 29.6982 26.652 29.6084V20.0245L27.7468 19.5758V29.5905C27.7468 29.6982 27.693 29.7879 27.5674 29.8418C27.4776 29.9135 27.352 29.9494 27.2084 29.9494ZM26.8315 20.1322V29.5905C26.8315 29.6264 26.8674 29.6802 26.9213 29.7161C27.0828 29.8059 27.352 29.8059 27.4956 29.7161C27.5494 29.6802 27.5853 29.6443 27.5853 29.5905V19.8271L26.8315 20.1322Z" fill="#171753"/>
<path d="M29.4335 28.2084V28.4597C29.4335 28.5674 29.5053 28.6571 29.631 28.7468C29.9002 28.9084 30.3309 28.9084 30.6001 28.7468C30.7257 28.675 30.7975 28.5674 30.7975 28.4597V28.2084H29.4335Z" fill="#8989C7"/>
<path d="M30.1155 28.9444C29.9361 28.9444 29.7386 28.9085 29.5951 28.8188C29.4335 28.729 29.3618 28.6034 29.3618 28.4778V28.1368H30.8873V28.4778C30.8873 28.6034 30.7976 28.729 30.654 28.8188C30.4924 28.8906 30.313 28.9444 30.1155 28.9444ZM29.5233 28.2804V28.4598C29.5233 28.5316 29.5771 28.6034 29.6848 28.6752C29.9181 28.8188 30.3309 28.8188 30.5642 28.6752C30.6719 28.6214 30.7258 28.5496 30.7258 28.4598V28.2804H29.5233Z" fill="#171753"/>
<path d="M30.6001 27.8496C30.8694 28.0112 30.8694 28.2445 30.6001 28.406C30.3309 28.5675 29.9002 28.5675 29.631 28.406C29.3618 28.2445 29.3618 28.0112 29.631 27.8496C29.9002 27.6881 30.3309 27.6881 30.6001 27.8496Z" fill="#8989C7"/>
<path d="M30.1157 28.6034C29.9362 28.6034 29.7388 28.5675 29.5952 28.4778C29.4337 28.3881 29.3619 28.2624 29.3619 28.1368C29.3619 28.0112 29.4516 27.8855 29.5952 27.7958C29.8824 27.6343 30.349 27.6343 30.6361 27.7958C30.7977 27.8855 30.8695 28.0112 30.8695 28.1368C30.8695 28.2624 30.7797 28.3881 30.6361 28.4778C30.4926 28.5496 30.3131 28.6034 30.1157 28.6034ZM30.1157 27.8137C29.9541 27.8137 29.7926 27.8496 29.667 27.9214C29.5593 27.9753 29.5055 28.0471 29.5055 28.1368C29.5055 28.2086 29.5593 28.2804 29.667 28.3522C29.9003 28.4957 30.3131 28.4957 30.5464 28.3522C30.6541 28.2983 30.7079 28.2265 30.7079 28.1368C30.7079 28.065 30.6541 27.9932 30.5464 27.9214C30.4387 27.8496 30.2772 27.8137 30.1157 27.8137Z" fill="#171753"/>
<path d="M29.649 18.3915V27.9036C29.649 27.9754 29.7029 28.0472 29.7926 28.101C29.9721 28.2087 30.2772 28.2087 30.4567 28.101C30.5464 28.0472 30.6003 27.9754 30.6003 27.9036V18.0146L29.649 18.3915Z" fill="#8989C7"/>
<path d="M30.1156 28.2624C29.9899 28.2624 29.8464 28.2265 29.7387 28.1727C29.631 28.1009 29.5592 28.0112 29.5592 27.9214V18.3375L30.654 17.8888V27.9035C30.654 28.0112 30.6002 28.1009 30.4745 28.1547C30.3848 28.2265 30.2592 28.2624 30.1156 28.2624ZM29.7387 18.4452V27.9035C29.7387 27.9394 29.7746 27.9932 29.8284 28.0291C29.9899 28.1188 30.2592 28.1188 30.4027 28.0291C30.4566 27.9932 30.4925 27.9573 30.4925 27.9035V18.1401L29.7387 18.4452Z" fill="#171753"/>
<path d="M5.49194 30.8288V31.0801C5.49194 31.1878 5.42015 31.2775 5.29451 31.3673C5.0253 31.5288 4.59456 31.5288 4.32535 31.3673C4.19972 31.2955 4.12793 31.1878 4.12793 31.0801V30.8288H5.49194Z" fill="#8989C7"/>
<path d="M4.81001 31.5647C4.63053 31.5647 4.43311 31.5288 4.28953 31.4391C4.128 31.3493 4.05621 31.2237 4.05621 31.0981V30.757H5.58175V31.0981C5.58175 31.2237 5.49201 31.3493 5.34843 31.4391C5.1869 31.5288 5.00743 31.5647 4.81001 31.5647ZM4.21774 30.9186V31.0981C4.21774 31.1698 4.27158 31.2416 4.37927 31.3134C4.61258 31.457 5.02538 31.457 5.25869 31.3134C5.36638 31.2596 5.42022 31.1878 5.42022 31.0981V30.9186H4.21774Z" fill="#171753"/>
<path d="M4.32538 30.4698C4.05617 30.6314 4.05617 30.8647 4.32538 31.0262C4.59459 31.1877 5.02533 31.1877 5.29455 31.0262C5.56376 30.8647 5.56376 30.6314 5.29455 30.4698C5.02533 30.3263 4.59459 30.3263 4.32538 30.4698Z" fill="#8989C7"/>
<path d="M4.81007 31.2236C4.63059 31.2236 4.43317 31.1877 4.28959 31.0979C4.12806 31.0082 4.05627 30.8826 4.05627 30.7569C4.05627 30.6313 4.14601 30.5057 4.28959 30.4159C4.57675 30.2544 5.04338 30.2544 5.33054 30.4159C5.49207 30.5057 5.56386 30.6313 5.56386 30.7569C5.56386 30.8826 5.47412 31.0082 5.33054 31.0979C5.18696 31.1877 5.00749 31.2236 4.81007 31.2236ZM4.81007 30.4339C4.64854 30.4339 4.48701 30.4698 4.36138 30.5416C4.2537 30.5954 4.19985 30.6672 4.19985 30.7569C4.19985 30.8287 4.2537 30.9005 4.36138 30.9723C4.5947 31.1159 5.00749 31.1159 5.24081 30.9723C5.34849 30.9185 5.40233 30.8467 5.40233 30.7569C5.40233 30.6852 5.34849 30.6134 5.24081 30.5416C5.13312 30.4698 4.97159 30.4339 4.81007 30.4339Z" fill="#171753"/>
<path d="M5.27653 21.0294V30.5416C5.27653 30.6134 5.22269 30.6852 5.13295 30.739C4.95348 30.8467 4.64837 30.8467 4.4689 30.739C4.37916 30.6852 4.32532 30.6134 4.32532 30.5416V20.6346L5.27653 21.0294Z" fill="#8989C7"/>
<path d="M4.81003 30.8826C4.6844 30.8826 4.54082 30.8467 4.43314 30.7929C4.32545 30.7211 4.25366 30.6313 4.25366 30.5416V20.5269L5.34846 20.9756V30.5416C5.34846 30.6493 5.29461 30.739 5.16898 30.7929C5.07925 30.8467 4.95361 30.8826 4.81003 30.8826ZM4.43314 20.7602V30.5416C4.43314 30.5775 4.46903 30.6313 4.52287 30.6672C4.6844 30.757 4.95361 30.757 5.09719 30.6672C5.15103 30.6313 5.18693 30.5954 5.18693 30.5416V21.0653L4.43314 20.7602Z" fill="#171753"/>
<path d="M8.81234 24.9061H8.65082V25.5522H8.81234V24.9061Z" fill="#171753"/>
<path d="M2.74618 32.3544H2.58466V32.9646H2.74618V32.3544Z" fill="#171753"/>
<path d="M13.9812 38.7617H13.8197V39.3719H13.9812V38.7617Z" fill="#171753"/>
<path d="M4.89981 31.9955H4.73828V32.498H4.89981V31.9955Z" fill="#171753"/>
<path d="M14.6634 37.6309H14.5018V38.1334H14.6634V37.6309Z" fill="#171753"/>
<path d="M8.39947 32.5157V32.767C8.39947 32.8747 8.32768 32.9644 8.20205 33.0542C7.93283 33.2157 7.5021 33.2157 7.23288 33.0542C7.10725 32.9824 7.03546 32.8747 7.03546 32.767V32.5157H8.39947Z" fill="#8989C7"/>
<path d="M7.71742 33.2516C7.53794 33.2516 7.34052 33.2157 7.19694 33.126C7.03541 33.0362 6.96362 32.9106 6.96362 32.785V32.444H8.48916V32.785C8.48916 32.9106 8.39942 33.0362 8.25584 33.126C8.09431 33.2157 7.91484 33.2516 7.71742 33.2516ZM7.12515 32.6055V32.785C7.12515 32.8568 7.17899 32.9285 7.28668 33.0003C7.51999 33.1439 7.93279 33.1439 8.1661 33.0003C8.27379 32.9465 8.32763 32.8747 8.32763 32.785V32.6055H7.12515Z" fill="#171753"/>
<path d="M7.23279 32.1568C6.96358 32.3183 6.96358 32.5516 7.23279 32.7131C7.502 32.8747 7.93274 32.8747 8.20196 32.7131C8.47117 32.5516 8.47117 32.3183 8.20196 32.1568C7.93274 32.0132 7.502 32.0132 7.23279 32.1568Z" fill="#8989C7"/>
<path d="M7.71736 32.9107C7.53788 32.9107 7.34046 32.8748 7.19688 32.785C7.03535 32.6953 6.96356 32.5697 6.96356 32.444C6.96356 32.3184 7.0533 32.1928 7.19688 32.103C7.48404 31.9415 7.95067 31.9415 8.23783 32.103C8.39936 32.1928 8.47115 32.3184 8.47115 32.444C8.47115 32.5697 8.38141 32.6953 8.23783 32.785C8.09425 32.8748 7.91478 32.9107 7.71736 32.9107ZM7.71736 32.121C7.55583 32.121 7.3943 32.1569 7.26867 32.2286C7.16098 32.2825 7.10714 32.3543 7.10714 32.444C7.10714 32.5158 7.16098 32.5876 7.26867 32.6594C7.50199 32.803 7.91478 32.803 8.14809 32.6594C8.25578 32.6055 8.30962 32.5338 8.30962 32.444C8.30962 32.3722 8.25578 32.3004 8.14809 32.2286C8.04041 32.1569 7.87888 32.121 7.71736 32.121Z" fill="#171753"/>
<path d="M8.18388 22.7167V32.2288C8.18388 32.3006 8.13004 32.3724 8.0403 32.4263C7.86083 32.5339 7.55572 32.5339 7.37625 32.4263C7.28651 32.3724 7.23267 32.3006 7.23267 32.2288V22.3398L8.18388 22.7167Z" fill="#8989C7"/>
<path d="M7.71732 32.5698C7.59169 32.5698 7.44811 32.5339 7.34042 32.4801C7.23274 32.4083 7.16095 32.3185 7.16095 32.2288V22.2141L8.25574 22.6628V32.2288C8.25574 32.3365 8.2019 32.4262 8.07627 32.4801C7.98653 32.5339 7.8609 32.5698 7.71732 32.5698ZM7.34042 22.4474V32.2288C7.34042 32.2647 7.37632 32.3185 7.43016 32.3544C7.59169 32.4442 7.8609 32.4442 8.00448 32.3544C8.05832 32.3185 8.09422 32.2826 8.09422 32.2288V22.7705L7.34042 22.4474Z" fill="#171753"/>
<path d="M11.3065 34.221V34.4722C11.3065 34.5799 11.2347 34.6697 11.1091 34.7594C10.8399 34.9209 10.4091 34.9209 10.1399 34.7594C10.0143 34.6876 9.9425 34.5799 9.9425 34.4722V34.221H11.3065Z" fill="#8989C7"/>
<path d="M10.6246 34.9568C10.4451 34.9568 10.2477 34.9209 10.1041 34.8312C9.94258 34.7414 9.87079 34.6158 9.87079 34.4902V34.1312H11.3963V34.4722C11.3963 34.5979 11.3066 34.7235 11.163 34.8132C11.0015 34.903 10.822 34.9568 10.6246 34.9568ZM10.0323 34.2928V34.4722C10.0323 34.544 10.0862 34.6158 10.1938 34.6876C10.4272 34.8312 10.84 34.8312 11.0733 34.6876C11.181 34.6338 11.2348 34.562 11.2348 34.4722V34.2928H10.0323Z" fill="#171753"/>
<path d="M10.14 33.8619C9.87081 34.0235 9.87081 34.2568 10.14 34.4183C10.4092 34.5798 10.84 34.5798 11.1092 34.4183C11.3784 34.2568 11.3784 34.0235 11.1092 33.8619C10.84 33.7004 10.4092 33.7004 10.14 33.8619Z" fill="#8989C7"/>
<path d="M10.6247 34.5978C10.4452 34.5978 10.2478 34.5619 10.1042 34.4722C9.9427 34.3824 9.87091 34.2568 9.87091 34.1312C9.87091 34.0055 9.96065 33.8799 10.1042 33.7902C10.3914 33.6286 10.858 33.6286 11.1452 33.7902C11.3067 33.8799 11.3785 34.0055 11.3785 34.1312C11.3785 34.2568 11.2888 34.3824 11.1452 34.4722C11.0016 34.5619 10.8221 34.5978 10.6247 34.5978ZM10.6247 33.826C10.4632 33.826 10.3016 33.8619 10.176 33.9337C10.0683 33.9876 10.0145 34.0594 10.0145 34.1491C10.0145 34.2209 10.0683 34.2927 10.176 34.3645C10.4093 34.508 10.8221 34.508 11.0554 34.3645C11.1631 34.3106 11.217 34.2388 11.217 34.1491C11.217 34.0773 11.1631 34.0055 11.0554 33.9337C10.9478 33.844 10.7862 33.826 10.6247 33.826Z" fill="#171753"/>
<path d="M11.0915 24.4037V33.9158C11.0915 33.9876 11.0377 34.0594 10.948 34.1132C10.7685 34.2209 10.4634 34.2209 10.2839 34.1132C10.1942 34.0594 10.1403 33.9876 10.1403 33.9158V24.0268L11.0915 24.4037Z" fill="#8989C7"/>
<path d="M10.6247 34.2567C10.499 34.2567 10.3555 34.2209 10.2478 34.167C10.1401 34.0952 10.0683 34.0055 10.0683 33.9157V23.9011L11.1631 24.3497V33.9157C11.1631 34.0234 11.1093 34.1132 10.9836 34.167C10.8939 34.2388 10.7682 34.2567 10.6247 34.2567ZM10.2478 24.1344V33.9157C10.2478 33.9516 10.2837 34.0055 10.3375 34.0414C10.499 34.1311 10.7682 34.1311 10.9118 34.0414C10.9657 34.0055 11.0016 33.9696 11.0016 33.9157V24.4574L10.2478 24.1344Z" fill="#171753"/>
<path d="M14.2142 35.908V36.1593C14.2142 36.2669 14.1424 36.3567 14.0168 36.4464C13.7476 36.6079 13.3169 36.6079 13.0476 36.4464C12.922 36.3746 12.8502 36.2669 12.8502 36.1593V35.908H14.2142Z" fill="#8989C7"/>
<path d="M13.5323 36.6438C13.3528 36.6438 13.1554 36.6079 13.0118 36.5182C12.8503 36.4284 12.7785 36.3028 12.7785 36.1772V35.8362H14.304V36.1772C14.304 36.3028 14.2143 36.4284 14.0707 36.5182C13.9092 36.6079 13.7297 36.6438 13.5323 36.6438ZM12.9221 35.9977V36.1772C12.9221 36.2489 12.9759 36.3207 13.0836 36.3925C13.3169 36.5361 13.7297 36.5361 13.963 36.3925C14.0707 36.3387 14.1246 36.2669 14.1246 36.1772V35.9977H12.9221Z" fill="#171753"/>
<path d="M13.0477 35.549C12.7785 35.7105 12.7785 35.9438 13.0477 36.1054C13.3169 36.2669 13.7476 36.2669 14.0168 36.1054C14.286 35.9438 14.286 35.7105 14.0168 35.549C13.7476 35.3875 13.3169 35.3875 13.0477 35.549Z" fill="#8989C7"/>
<path d="M13.5324 36.3029C13.3529 36.3029 13.1555 36.267 13.0119 36.1772C12.8504 36.0875 12.7786 35.9619 12.7786 35.8362C12.7786 35.7106 12.8683 35.585 13.0119 35.4952C13.299 35.3337 13.7657 35.3337 14.0528 35.4952C14.2144 35.585 14.2862 35.7106 14.2862 35.8362C14.2862 35.9619 14.1964 36.0875 14.0528 36.1772C13.9093 36.249 13.7298 36.3029 13.5324 36.3029ZM13.0837 35.6209C12.976 35.6747 12.9221 35.7465 12.9221 35.8362C12.9221 35.908 12.976 35.9798 13.0837 36.0516C13.317 36.1952 13.7298 36.1952 13.9631 36.0516C14.0708 35.9978 14.1246 35.926 14.1246 35.8362C14.1246 35.7644 14.0708 35.6927 13.9631 35.6209C13.7298 35.4773 13.3349 35.4773 13.0837 35.6209Z" fill="#171753"/>
<path d="M13.9991 26.0908V35.6029C13.9991 35.6747 13.9452 35.7465 13.8555 35.8004C13.676 35.9081 13.3709 35.9081 13.1914 35.8004C13.1017 35.7465 13.0479 35.6747 13.0479 35.6029V25.7139L13.9991 26.0908Z" fill="#8989C7"/>
<path d="M13.5323 35.9618C13.4066 35.9618 13.2631 35.9259 13.1554 35.8721C13.0477 35.8003 12.9759 35.7106 12.9759 35.6208V25.6061L14.0707 26.0548V35.6208C14.0707 35.7285 14.0168 35.8182 13.8912 35.8721C13.8015 35.9259 13.6579 35.9618 13.5323 35.9618ZM13.1374 25.8395V35.6208C13.1374 35.6567 13.1733 35.7106 13.2272 35.7465C13.3887 35.8362 13.6579 35.8362 13.8015 35.7465C13.8553 35.7106 13.8912 35.6747 13.8912 35.6208V26.1625L13.1374 25.8395Z" fill="#171753"/>
<path d="M2.35095 21.2091L14.3578 28.1727V27.7958L2.35095 20.8681V21.2091Z" fill="#171753"/>
<path d="M14.4476 28.3163L2.26129 21.245V20.7245L14.4476 27.742V28.3163ZM2.42282 21.1553L14.2861 28.0292V27.8497L2.42282 21.0117V21.1553Z" fill="#171753"/>
<path d="M2.06382 20.4373L14.0886 27.365V27.9753L2.06382 21.0475V20.4373Z" fill="#8989C7"/>
<path d="M14.0708 28.0471L14.0349 28.0291L1.97418 21.0834V21.0296V20.3835L2.04597 20.3297L2.08187 20.3476L14.1605 27.3112V27.3651V28.0112L14.0708 28.0471ZM2.13571 20.9937L13.999 27.8317V27.401L2.13571 20.563V20.9937Z" fill="#171753"/>
<path d="M2.0639 20.4374L14.0887 27.3651L34.2617 15.7351L22.2369 8.8074L2.0639 20.4374Z" fill="#ECFFFE"/>
<path d="M14.0708 27.4548L14.0349 27.4189L2.02802 20.5091L1.97418 20.4912V20.4014L2.01008 20.3835L22.2189 8.71762L22.2548 8.75352L34.3155 15.6992V15.7889L34.2796 15.8069L14.0708 27.4548ZM2.2075 20.4373L14.0708 27.2753L34.0822 15.7171L22.2189 8.87915L2.2075 20.4373Z" fill="#171753"/>
<path d="M34.2437 16.3092L14.0707 27.9571V27.3469L34.2437 15.717V16.3092Z" fill="#8989C7"/>
<path d="M14.0708 28.0469L13.999 27.9931V27.9392V27.2931L14.0349 27.2752L34.2437 15.6093L34.3155 15.6632V15.6991V16.3452L34.2796 16.3811L14.0708 28.0469ZM14.1605 27.3829V27.8136L34.1719 16.2734V15.8426L14.1605 27.3829Z" fill="#171753"/>
<path d="M33.9565 16.8657L14.3578 28.1726V27.7777L33.9565 16.4708V16.8657Z" fill="#171753"/>
<path d="M14.3041 28.2802V27.7418L14.34 27.7238L34.0283 16.3631V16.9015L33.9924 16.9194L14.3041 28.2802ZM14.4297 27.8135V28.0648L33.9027 16.8297V16.5784L14.4297 27.8135Z" fill="#171753"/>
<path d="M31.8416 17.9878L15.4772 27.4409L15.558 27.5808L31.9224 18.1276L31.8416 17.9878Z" fill="#8989C7"/>
<path d="M19.0958 28.9084L18.2343 29.4109V27.688C18.2343 27.4008 18.4138 27.0598 18.6292 26.9342L18.683 26.8983C18.8984 26.7726 19.0778 26.8983 19.0778 27.2034V28.9084H19.0958Z" fill="#171753"/>
<path d="M18.1806 29.5007V27.6701C18.1806 27.347 18.3601 26.9881 18.6113 26.8624L18.6652 26.8265C18.7729 26.7547 18.8985 26.7547 18.9882 26.8086C19.0959 26.8624 19.1498 27.006 19.1498 27.1855V28.9443L18.1806 29.5007ZM18.8447 26.8983C18.7908 26.8983 18.7549 26.9163 18.719 26.9342L18.6652 26.9701C18.4678 27.0957 18.3062 27.4008 18.3062 27.6701V29.2853L19.0421 28.8546V27.1675C19.0421 27.0419 19.0062 26.9342 18.9344 26.8983C18.8985 26.8983 18.8806 26.8983 18.8447 26.8983Z" fill="#8989C7"/>
<path d="M19.2933 29.1419L18.037 29.8598V29.5188L19.2933 28.7829V29.1419Z" fill="#171753"/>
<path d="M17.9832 29.9674V29.4829L19.3652 28.6932V29.1778L17.9832 29.9674ZM18.1088 29.5547V29.7521L19.2395 29.106V28.9085L18.1088 29.5547Z" fill="#8989C7"/>
<path d="M19.0958 32.5518L18.2343 33.0543V31.3313C18.2343 31.0442 18.4138 30.7032 18.6292 30.5775L18.683 30.5416C18.8984 30.416 19.0778 30.5416 19.0778 30.8468V32.5518H19.0958Z" fill="#171753"/>
<path d="M18.1806 33.144V31.3134C18.1806 30.9903 18.3601 30.6314 18.6113 30.5057L18.6652 30.4698C18.7729 30.3981 18.8985 30.398 18.9882 30.4519C19.0959 30.5057 19.1498 30.6493 19.1498 30.8288V32.5876L18.1806 33.144ZM18.8447 30.5416C18.7908 30.5416 18.7549 30.5596 18.719 30.5775L18.6652 30.6134C18.4678 30.7391 18.3062 31.0442 18.3062 31.3134V32.9286L19.0421 32.4979V30.8108C19.0421 30.6852 19.0062 30.5775 18.9344 30.5416C18.8985 30.5416 18.8806 30.5416 18.8447 30.5416Z" fill="#8989C7"/>
<path d="M19.2933 32.7672L18.037 33.4851V33.1441L19.2933 32.4262V32.7672Z" fill="#171753"/>
<path d="M17.9832 33.5928V33.1082L19.3652 32.3185V32.8031L17.9832 33.5928ZM18.0909 33.18V33.3774L19.2216 32.7313V32.5339L18.0909 33.18Z" fill="#8989C7"/>
<path d="M22.7395 26.8085L21.878 27.311V25.5881C21.878 25.3009 22.0575 24.9599 22.2728 24.8343L22.3267 24.7984C22.542 24.6728 22.7215 24.7984 22.7215 25.1035V26.8085H22.7395Z" fill="#171753"/>
<path d="M21.8242 27.4008V25.5701C21.8242 25.2471 22.0036 24.8881 22.2549 24.7625L22.3087 24.7266C22.4164 24.6548 22.5421 24.6548 22.6318 24.7087C22.7395 24.7625 22.7933 24.9061 22.7933 25.0856V26.8444L21.8242 27.4008ZM22.5062 24.7984C22.4523 24.7984 22.4164 24.8164 22.3805 24.8343L22.3267 24.8702C22.1293 24.9958 21.9677 25.3009 21.9677 25.5701V27.1854L22.7036 26.7547V25.0676C22.7036 24.942 22.6677 24.8343 22.5959 24.7984C22.56 24.7984 22.5241 24.7984 22.5062 24.7984Z" fill="#8989C7"/>
<path d="M22.9552 27.0241L21.6989 27.742V27.401L22.9552 26.6831V27.0241Z" fill="#171753"/>
<path d="M21.6268 27.8495V27.3649L23.0088 26.5753V27.0598L21.6268 27.8495ZM21.7525 27.4367V27.6342L22.8832 26.988V26.7906L21.7525 27.4367Z" fill="#8989C7"/>
<path d="M24.1032 26.019L23.2418 26.5215V24.7986C23.2418 24.5114 23.4212 24.1704 23.6366 24.0448L23.6904 24.0089C23.9058 23.8833 24.0853 24.0089 24.0853 24.314V26.019H24.1032Z" fill="#171753"/>
<path d="M23.188 26.6113V24.7986C23.188 24.4755 23.3675 24.1166 23.6188 23.991L23.6726 23.9551C23.7803 23.8833 23.9059 23.8833 23.9957 23.9371C24.1034 23.991 24.1572 24.1345 24.1572 24.314V26.0729L23.188 26.6113ZM23.8521 24.0089C23.7983 24.0089 23.7624 24.0269 23.7265 24.0448L23.6726 24.0807C23.4752 24.2063 23.3137 24.5114 23.3137 24.7807V26.3959L24.0495 25.9652V24.2781C24.0495 24.1525 24.0136 24.0448 23.9418 24.0089C23.9059 24.0089 23.888 24.0089 23.8521 24.0089Z" fill="#8989C7"/>
<path d="M24.3009 26.2524L23.0446 26.9703V26.6293L24.3009 25.8935V26.2524Z" fill="#171753"/>
<path d="M22.9907 27.0779V26.5933L24.3726 25.8036V26.2882L22.9907 27.0779ZM23.1163 26.6651V26.8626L24.247 26.2164V26.019L23.1163 26.6651Z" fill="#8989C7"/>
<path d="M25.4491 25.229L24.5876 25.7315V24.0086C24.5876 23.7214 24.7671 23.3804 24.9825 23.2548L25.0363 23.2189C25.2517 23.0933 25.4312 23.2189 25.4312 23.524V25.229H25.4491Z" fill="#171753"/>
<path d="M24.534 25.8393V24.0086C24.534 23.6856 24.7135 23.3266 24.9647 23.201L25.0186 23.1651C25.1263 23.0933 25.2519 23.0933 25.3416 23.1471C25.4493 23.201 25.5032 23.3446 25.5032 23.524V25.2829L24.534 25.8393ZM25.216 23.2189C25.1622 23.2189 25.1263 23.2369 25.0904 23.2548L25.0365 23.2907C24.8391 23.4164 24.6776 23.7215 24.6776 23.9907V25.6059L25.4134 25.1752V23.4881C25.4134 23.3625 25.3775 23.2548 25.3057 23.2189C25.2519 23.2369 25.2339 23.2189 25.216 23.2189Z" fill="#8989C7"/>
<path d="M25.6469 25.4623L24.4085 26.1802V25.8392L25.6469 25.1213V25.4623Z" fill="#171753"/>
<path d="M24.3367 26.2879V25.8034L25.7186 25.0137V25.4983L24.3367 26.2879ZM24.4623 25.8752V26.0726L25.593 25.4265V25.229L24.4623 25.8752Z" fill="#8989C7"/>
<path d="M29.0927 23.1293L28.2313 23.6318V21.9089C28.2313 21.6217 28.4107 21.2807 28.6261 21.1551L28.6799 21.1192C28.8953 20.9936 29.0748 21.1192 29.0748 21.4243V23.1293H29.0927Z" fill="#171753"/>
<path d="M28.1774 23.7396V21.909C28.1774 21.5859 28.3568 21.2269 28.6081 21.1013L28.6619 21.0654C28.7696 20.9936 28.8953 20.9936 28.985 21.0475C29.0927 21.1013 29.1465 21.2449 29.1465 21.4244V23.1832L28.1774 23.7396ZM28.8414 21.1193C28.7876 21.1193 28.7517 21.1372 28.7158 21.1552L28.6619 21.1911C28.4645 21.3167 28.303 21.6218 28.303 21.891V23.5063L29.0388 23.0755V21.3885C29.0388 21.2628 29.003 21.1552 28.9312 21.1193C28.8953 21.1372 28.8773 21.1193 28.8414 21.1193Z" fill="#8989C7"/>
<path d="M29.29 23.3627L28.0337 24.0806V23.7396L29.29 23.0217V23.3627Z" fill="#171753"/>
<path d="M27.98 24.1883V23.7037L29.362 22.914V23.3986L27.98 24.1883ZM28.1057 23.7755V23.9729L29.2364 23.3268V23.1294L28.1057 23.7755Z" fill="#8989C7"/>
<path d="M29.0927 26.7725L28.2312 27.2751V25.5521C28.2312 25.2649 28.4107 24.9239 28.626 24.7983L28.6799 24.7624C28.8953 24.6368 29.0747 24.7624 29.0747 25.0675V26.7725H29.0927Z" fill="#171753"/>
<path d="M28.1774 27.3648V25.5342C28.1774 25.2111 28.3568 24.8522 28.6081 24.7266L28.6619 24.6907C28.7696 24.6189 28.8953 24.6189 28.985 24.6727C29.0927 24.7266 29.1465 24.8701 29.1465 25.0496V26.8085L28.1774 27.3648ZM28.8414 24.7625C28.7876 24.7625 28.7517 24.7804 28.7158 24.7983L28.6619 24.8342C28.4645 24.9599 28.303 25.265 28.303 25.5342V27.1495L29.0388 26.7187V25.0317C29.0388 24.906 29.003 24.7984 28.9312 24.7625C28.8953 24.7625 28.8773 24.7625 28.8414 24.7625Z" fill="#8989C7"/>
<path d="M29.29 27.0058L28.0337 27.7237V27.3827L29.29 26.6469V27.0058Z" fill="#171753"/>
<path d="M27.98 27.8315V27.3469L29.362 26.5572V27.0418L27.98 27.8315ZM28.1057 27.4187V27.6161L29.2364 26.97V26.7726L28.1057 27.4187Z" fill="#8989C7"/>
<path d="M25.5752 27.4727L21.7883 29.6623V29.411L23.6908 27.4727L25.5932 27.2214V27.4727H25.5752Z" fill="#8989C7"/>
<path d="M21.6986 29.7879V29.3751L23.6369 27.383L25.647 27.1138V27.5086L21.6986 29.7879ZM21.8601 29.429V29.5187L25.4855 27.4189V27.3112L23.7087 27.5445L21.8601 29.429Z" fill="#8989C7"/>
<path d="M22.1831 32.2466H22.0216V29.4288L25.3598 27.4905V30.398H25.1983V27.7777L22.1831 29.5186V32.2466Z" fill="#8989C7"/>
<path d="M23.7266 28.5674H23.601V31.3672H23.7266V28.5674Z" fill="#8989C7"/>
<path d="M31.9464 18.5528H31.8208V24.4575H31.9464V18.5528Z" fill="#8989C7"/>
<path d="M31.9466 24.8164H31.8209V25.4266H31.9466V24.8164Z" fill="#8989C7"/>
<path d="M15.6861 34.2927H15.5604V35.8721H15.6861V34.2927Z" fill="#8989C7"/>
<path d="M15.6861 28.4239H15.5604V33.6286H15.6861V28.4239Z" fill="#8989C7"/>
<path d="M16.8167 37.2181H16.6911V37.5232H16.8167V37.2181Z" fill="#8989C7"/>
<path d="M33.2207 27.7239H33.0951V28.029H33.2207V27.7239Z" fill="#8989C7"/>
<path d="M27.9622 30.7391H27.8365V31.0442H27.9622V30.7391Z" fill="#8989C7"/>
<path d="M27.1005 31.2057H26.9749V31.5108H27.1005V31.2057Z" fill="#8989C7"/>
<path d="M19.7242 35.4772H19.5986V35.7823H19.7242V35.4772Z" fill="#8989C7"/>
<path d="M19.0601 36.895H18.9344V37.4155H19.0601V36.895Z" fill="#8989C7"/>
<path d="M32.4669 29.1417H32.3412V29.6622H32.4669V29.1417Z" fill="#8989C7"/>
<path d="M31.4079 29.6982H31.2823V30.2187H31.4079V29.6982Z" fill="#8989C7"/>
<path d="M33.0592 15.527L14.3759 26.3135V25.0751L23.7265 15.4911L33.0771 14.2887L33.0592 15.527ZM15.5245 24.7879L31.8926 15.3296L23.7085 16.3885L15.5245 24.7879Z" fill="#171753"/>
<path d="M14.3579 26.4032L14.2861 26.3493V26.3134V25.0392L14.304 25.0212L23.6367 15.4373L23.6546 15.4193H23.6905L33.0771 14.1989L33.1309 14.2527V14.2886V15.5808L33.095 15.5988L14.3579 26.4032ZM14.4476 25.093V26.1698L32.9873 15.4732V14.3604L23.7623 15.5629L14.4476 25.093ZM15.5065 24.8956L15.4168 24.7879L15.4706 24.734L23.6546 16.3526L23.6726 16.3346H23.7085L31.9643 15.2578L32.0182 15.3834L31.9643 15.4193L15.5603 24.8597L15.5065 24.8956ZM23.7444 16.4782L15.9731 24.4469L31.5156 15.4732L23.7444 16.4782Z" fill="#171753"/>
<path d="M15.5242 24.7879L31.8923 15.3296L23.7083 16.3885L15.5242 24.7879Z" fill="#E3E0EB"/>
<path d="M15.5065 24.8956L15.4167 24.7879L15.4706 24.734L23.6726 16.3167H23.7085L31.9643 15.2398L32.0002 15.3655L31.9464 15.4014L15.5603 24.8597L15.5065 24.8956ZM23.7444 16.4782L15.9731 24.4469L31.5156 15.4732L23.7444 16.4782Z" fill="#8989C7"/>
<path d="M3.85858 20.1934L14.3578 26.3135V25.0751L3.85858 18.955V20.1934Z" fill="#8989C7"/>
<path d="M14.3579 26.4032L14.322 26.3853L3.80482 20.2652L3.76892 20.2472V20.2113V18.9191L3.84071 18.8653L3.87661 18.8832L14.4297 25.0212V25.0751V26.3673L14.3579 26.4032ZM3.93045 20.1575L14.2861 26.1878V25.111L3.93045 19.0806V20.1575Z" fill="#171753"/>
<path d="M13.2092 8.86865L23.7084 14.9887L13.8912 25.0932L3.37396 18.9731L13.1912 8.86865H13.2092Z" fill="#8989C7"/>
<path d="M13.9091 25.2007L13.8553 25.1648L3.30219 19.0268L3.28424 18.955L3.30219 18.9191L13.1733 8.7608L13.2271 8.7967L23.7623 14.9347L23.7802 15.0065L23.7623 15.0424L13.9091 25.2007ZM3.49961 18.955L13.8732 24.9853L23.5828 14.9886L13.2092 8.95823L3.49961 18.955Z" fill="#171753"/>
<path d="M4.93539 17.3577L3.37396 18.973L13.8912 25.0931L15.4526 23.4957V23.4778L4.93539 17.3577Z" fill="#ECFFFE"/>
<path d="M13.9091 25.1827L13.8553 25.1647L3.30219 19.0267L3.28424 18.9549L3.30219 18.919L4.89951 17.2679L4.95335 17.3037L15.4885 23.4418L15.5065 23.5136L13.9091 25.1827ZM3.49961 18.9549L13.8732 24.9853L15.327 23.4956L4.95335 17.4653L3.49961 18.9549Z" fill="#171753"/>
<path d="M23.0264 7.64807L33.5436 13.7682L23.7264 14.9886L13.2092 8.8685L23.0264 7.64807Z" fill="#8989C7"/>
<path d="M23.6905 15.0604L23.6726 15.0424L13.1194 8.90441L13.1374 8.79672H13.1912L23.0264 7.55835L23.0444 7.5763L33.5975 13.7323L33.5796 13.84L23.6905 15.0604ZM13.4425 8.92236L23.7264 14.9168L33.2924 13.7143L23.0085 7.71988L13.4425 8.92236Z" fill="#171753"/>
<path d="M32.5205 13.8937L33.5256 13.7681L23.0263 7.64798L22.0212 7.77361L32.5205 13.8937Z" fill="#ECFFFE"/>
<path d="M32.5027 13.9656L32.4848 13.9476L21.9137 7.80958L21.9316 7.7019H21.9855L23.0264 7.57626L23.0444 7.59421L33.5975 13.7322L33.5795 13.8399H33.5257L32.5027 13.9656ZM22.2547 7.80958L32.5386 13.804L33.2924 13.7143L23.0085 7.71984L22.2547 7.80958Z" fill="#171753"/>
<path d="M23.7086 14.9885L13.8913 25.0929L14.3579 25.0571L23.7086 15.4731L33.0592 14.2706L33.5258 13.7502L23.7086 14.9885Z" fill="#8989C7"/>
<path d="M13.8552 25.1828L13.8014 25.093L13.8373 25.0571L23.6725 14.9168H23.7084L33.5615 13.6784L33.6154 13.7682L33.5795 13.8041L33.1129 14.3066L33.0949 14.3425H33.0411L23.7263 15.545L14.4116 25.1469H14.3757L13.8552 25.1828ZM23.7443 15.0604L14.0886 25.0033L14.3219 24.9853L23.6366 15.4373L23.6545 15.4193H23.6904L33.0231 14.1989L33.3282 13.8579L23.7443 15.0604Z" fill="#171753"/>
<path d="M8.3992 21.8445H8.23767V22.4188H8.3992V21.8445Z" fill="#171753"/>
<path d="M12.93 23.653L12.8488 23.7926L14.3222 24.6506L14.4035 24.511L12.93 23.653Z" fill="#171753"/>
<path d="M3.90416 18.3913L3.82288 18.5309L12.3845 23.5161L12.4658 23.3765L3.90416 18.3913Z" fill="#171753"/>
<path d="M7.47117 11.6008C7.62314 12.6428 8.12247 13.6849 8.90404 14.0757C9.68561 14.4665 10.7711 15.1178 11.1402 13.6415C11.4876 12.1652 18.0223 6.45544 18.1743 6.43373C18.3263 6.41202 23.363 2.67787 23.363 2.67787C23.363 2.67787 23.0808 1.65749 21.2788 0.875921C19.4769 0.116064 16.85 0.0726439 14.8526 0.76737C12.6599 1.52723 11.3356 2.743 9.6639 4.69691C7.94879 6.73767 7.05867 8.80014 7.47117 11.6008Z" fill="#8989C7"/>
<path d="M10.2501 14.6402C9.83757 14.6402 9.38166 14.4013 8.99088 14.206L8.86061 14.1408C7.99221 13.7066 7.53629 12.5343 7.38432 11.6007C6.99354 9.03893 7.66655 6.88962 9.57705 4.65347C11.2704 2.67785 12.6165 1.46208 14.8092 0.702219C16.85 -0.0142172 19.5203 0.0292032 21.3006 0.81077C23.1459 1.59234 23.4282 2.61272 23.4499 2.65614L23.4716 2.72127L23.4282 2.76469C21.5828 4.13243 18.5216 6.39029 18.2177 6.52055C17.8703 6.71594 11.5744 12.2303 11.227 13.6632C11.1185 14.1408 10.9014 14.4448 10.6191 14.575C10.5106 14.6184 10.3803 14.6402 10.2501 14.6402ZM17.9789 0.376566C16.9151 0.376566 15.8296 0.550248 14.8743 0.8759C12.7033 1.63576 11.4007 2.82982 9.72902 4.78373C7.86195 6.97646 7.18893 9.08235 7.57971 11.579C7.70997 12.4691 8.14418 13.5764 8.94746 13.9889L9.07772 14.054C9.55534 14.2928 10.1415 14.5967 10.5323 14.4013C10.7711 14.2928 10.9448 14.0323 11.0316 13.6198C11.227 12.8165 13.1158 10.8843 14.6572 9.42971C16.0901 8.06197 18.0006 6.36858 18.1526 6.34687C18.3263 6.26003 21.2788 4.11072 23.2545 2.65614C23.1676 2.43903 22.7334 1.63576 21.2354 0.984451C20.3236 0.571958 19.1512 0.376566 17.9789 0.376566Z" fill="#171753"/>
<path d="M21.8866 1.17997C19.8675 1.028 17.1755 1.50562 14.5051 3.76348C10.0111 7.56277 10.2499 12.0568 9.85915 13.316C9.49008 14.5317 8.33944 13.6199 8.29602 13.5548C8.4697 13.7719 8.6868 13.9456 8.90391 14.0541C9.68547 14.4449 10.771 15.0962 11.1401 13.6199C11.4874 12.1436 18.0222 6.43384 18.1742 6.41213C18.3261 6.39042 23.3629 2.65626 23.3629 2.65626C23.3629 2.65626 22.9287 2.00496 21.8866 1.17997Z" fill="#171753"/>
<path d="M10.25 14.6403C9.83755 14.6403 9.38164 14.4014 8.99086 14.2061L8.8606 14.1409C8.62178 14.0324 8.40468 13.837 8.20929 13.6199L8.33955 13.4896C8.36126 13.5113 8.90402 13.9455 9.33822 13.837C9.53361 13.7718 9.68558 13.5982 9.77242 13.2942C9.83755 13.0771 9.88097 12.7298 9.9461 12.3173C10.2283 10.4068 10.7494 6.82459 14.4401 3.72003C17.2841 1.3102 20.0631 0.962838 21.8867 1.0931H21.9084L21.9301 1.11481C22.9939 1.91809 23.4281 2.5911 23.4281 2.61281L23.4715 2.67794L23.4064 2.72136C21.5611 4.08911 18.4999 6.34696 18.196 6.47723C17.8486 6.67262 11.5527 12.187 11.2053 13.6199C11.0967 14.0975 10.8796 14.4014 10.5974 14.5317C10.4889 14.6185 10.3803 14.6403 10.25 14.6403ZM9.01257 14.0324L9.05599 14.0541C9.53361 14.2929 10.1198 14.5968 10.5106 14.4014C10.7494 14.2929 10.9231 14.0324 11.0099 13.6199C11.2053 12.8166 13.0941 10.8844 14.6355 9.42981C16.0684 8.06207 17.9789 6.36867 18.1308 6.34696C18.3045 6.26012 21.2354 4.13253 23.211 2.65623C23.0808 2.46084 22.6466 1.91809 21.8433 1.28849C20.0413 1.15823 17.3276 1.50559 14.5487 3.85029C10.9231 6.91143 10.402 10.4502 10.1415 12.339C10.0764 12.7732 10.0329 13.1205 9.9461 13.3594C9.83755 13.7284 9.64216 13.9455 9.38164 14.0324C9.27309 14.0541 9.14283 14.0541 9.01257 14.0324Z" fill="#171753"/>
<path d="M9.31675 13.8587C8.86084 13.8587 8.47005 13.5982 8.18782 13.2725C7.88388 12.9252 7.84046 12.4692 8.25295 12.2738C8.53518 12.1436 8.88255 12.2087 9.07794 12.4475C9.18649 12.5561 9.27333 12.6429 9.31675 12.6429C9.33846 12.6429 9.33846 12.6429 9.33846 12.5995C9.4253 12.3824 9.31675 11.8179 8.96939 11.1883C8.62202 10.5587 8.55689 9.79889 8.81742 9.16929C9.05623 8.58312 9.57727 8.14891 10.2503 7.95352C10.5542 7.86668 10.8365 7.84497 11.0753 7.84497C11.7917 7.86668 12.0305 8.82193 11.3792 9.14758C11.3792 9.14758 11.3792 9.16929 11.4009 9.191C11.4009 9.191 11.2272 8.95219 10.5759 9.14758C10.272 9.23442 10.0549 9.4081 9.94634 9.64692C9.83779 9.92915 9.8595 10.2765 10.0332 10.5805C10.2286 10.9278 10.8148 12.1002 10.4674 13.012C10.3371 13.3811 10.0549 13.6416 9.68582 13.7719C9.57727 13.837 9.44701 13.8587 9.31675 13.8587Z" fill="#9C9CDF"/>
<path d="M9.31651 13.9454C8.90402 13.9454 8.49152 13.7283 8.12245 13.3158C7.90535 13.0987 7.81851 12.8165 7.86193 12.5777C7.90535 12.404 8.0139 12.2738 8.20929 12.1652C8.53495 12.0132 8.92573 12.0784 9.14283 12.3606C9.18625 12.4257 9.22967 12.4691 9.27309 12.4909C9.31651 12.252 9.20796 11.7744 8.90402 11.2317C8.53495 10.5804 8.46981 9.79879 8.75205 9.12578C9.01257 8.49618 9.53361 8.06198 10.25 7.86659C10.554 7.77975 10.8362 7.73632 11.1185 7.75803C11.5527 7.77975 11.8132 8.08369 11.8783 8.36592C11.9652 8.73499 11.7915 9.06065 11.4658 9.23433L11.4441 9.19091L11.379 9.23433C11.379 9.23433 11.227 9.06065 10.6408 9.21262C10.3586 9.29946 10.1632 9.42972 10.0764 9.64682C9.96782 9.90734 10.0112 10.233 10.1632 10.5152C10.3586 10.8626 10.9665 12.0784 10.6191 13.0336C10.4672 13.4244 10.1849 13.7066 9.79414 13.8586C9.62045 13.9237 9.46848 13.9454 9.31651 13.9454ZM8.55666 12.2738C8.46981 12.2738 8.38297 12.2955 8.29613 12.3389C8.14416 12.404 8.07903 12.5126 8.03561 12.6211C7.99219 12.7948 8.07903 13.0119 8.25271 13.1856C8.49152 13.4461 8.8606 13.75 9.31651 13.75C9.44677 13.75 9.57703 13.7283 9.7073 13.6849C10.0329 13.5547 10.2935 13.3158 10.4237 12.9685C10.7494 12.0784 10.1632 10.9277 9.98953 10.6021C9.81585 10.2764 9.77243 9.88563 9.90269 9.58169C10.0112 9.29946 10.25 9.12578 10.5974 9.03894C11.0533 8.90867 11.2921 8.9738 11.4224 9.03894C11.7046 8.88696 11.7481 8.60473 11.7046 8.38763C11.6612 8.17053 11.4875 7.93172 11.1185 7.91001C10.8579 7.91001 10.5974 7.93172 10.3152 8.01856C9.66387 8.19224 9.18625 8.60473 8.94744 9.1692C8.68692 9.77708 8.75205 10.4935 9.09941 11.1014C9.46848 11.7527 9.55532 12.3389 9.46848 12.5777C9.44677 12.6211 9.44677 12.6428 9.40335 12.6645L9.38164 12.6862H9.33822C9.25138 12.6645 9.16454 12.5994 9.03428 12.4474C8.88231 12.3606 8.73034 12.2738 8.55666 12.2738Z" fill="#171753"/>
<path d="M8.18781 11.5791C7.86216 11.8396 7.36282 11.7093 7.23256 11.2968C7.12401 10.9929 7.03717 10.5804 7.03717 10.0811C7.03717 9.4949 7.16743 9.01727 7.34111 8.66991C7.51479 8.30084 8.01413 8.19229 8.31807 8.49623C8.51346 8.66991 8.55688 8.95214 8.44833 9.19096C8.36149 9.40806 8.25294 9.69029 8.27465 10.0594C8.27465 10.4067 8.33978 10.689 8.40491 10.8844C8.47004 11.1449 8.3832 11.4271 8.18781 11.5791Z" fill="#9C9CDF"/>
<path d="M7.79687 11.8179C7.73174 11.8179 7.66661 11.8179 7.60148 11.7962C7.38438 11.731 7.2107 11.5791 7.14557 11.362C7.01531 10.9712 6.95018 10.5587 6.92847 10.1028C6.92847 9.58173 7.01531 9.1041 7.23241 8.64819C7.31925 8.4528 7.51464 8.30083 7.73174 8.25741C7.94885 8.21399 8.18766 8.27912 8.36134 8.43109C8.57844 8.64819 8.64357 8.97384 8.51331 9.23437C8.38305 9.49489 8.33963 9.77712 8.33963 10.0594C8.33963 10.3416 8.38305 10.6238 8.46989 10.8626C8.55673 11.1449 8.46989 11.4705 8.23108 11.6442C8.12253 11.7527 7.94885 11.8179 7.79687 11.8179ZM7.862 8.43109C7.81858 8.43109 7.79687 8.43109 7.75345 8.43109C7.57977 8.4528 7.44951 8.56135 7.38438 8.71332C7.18899 9.14752 7.08044 9.60344 7.10215 10.0811C7.10215 10.5153 7.16728 10.906 7.29754 11.2751C7.34096 11.4271 7.47122 11.5574 7.6449 11.6008C7.81858 11.6442 7.99227 11.6225 8.12253 11.5139C8.29621 11.3837 8.36134 11.1449 8.29621 10.9278C8.20937 10.6672 8.16595 10.385 8.16595 10.0594C8.16595 9.7337 8.23108 9.42976 8.36134 9.14752C8.44818 8.95213 8.40476 8.71332 8.25279 8.56135C8.12253 8.47451 8.01398 8.43109 7.862 8.43109Z" fill="#171753"/>
<path d="M8.49154 7.84499C8.16589 7.56275 8.20931 7.06342 8.57838 6.84632C9.12114 6.52066 10.0113 6.19501 11.227 6.41211C11.6178 6.47724 11.8349 6.3904 11.8783 6.30356C11.9218 6.23843 11.9218 6.12988 11.8566 6.04304C11.7481 5.91278 11.4441 5.60884 10.8145 5.67397C10.554 5.71739 10.3152 5.78252 10.1198 5.86936C9.85928 5.97791 9.55534 5.89107 9.40337 5.67397C9.16456 5.34831 9.29482 4.8924 9.66389 4.74043C9.92441 4.63188 10.2718 4.52333 10.6626 4.47991C11.9869 4.30622 12.6599 5.08779 12.8336 5.3266C13.2027 5.82594 13.2461 6.47724 12.9204 6.97658C12.5731 7.54104 11.8566 7.80157 11.0099 7.64959C10.1632 7.49762 9.55534 7.71472 9.22969 7.93183C8.99088 8.04038 8.70864 8.01867 8.49154 7.84499Z" fill="#9C9CDF"/>
<path d="M8.90406 8.08373C8.73038 8.08373 8.57841 8.0186 8.44815 7.91005C8.27446 7.75808 8.18762 7.54098 8.20933 7.32388C8.23104 7.08506 8.3613 6.88967 8.5567 6.78112C9.09945 6.45547 10.0113 6.1081 11.2488 6.32521C11.6395 6.39034 11.7915 6.3035 11.8132 6.26008C11.8349 6.21666 11.8349 6.15153 11.7915 6.08639C11.7047 5.95613 11.4224 5.69561 10.8363 5.76074C10.6192 5.78245 10.4021 5.84758 10.185 5.93442C9.88102 6.06468 9.53365 5.95613 9.35997 5.69561C9.22971 5.52193 9.18629 5.30483 9.25142 5.08773C9.31655 4.87062 9.44681 4.71865 9.66392 4.63181C9.98957 4.50155 10.3369 4.393 10.6843 4.34958C12.052 4.1759 12.7685 4.97918 12.9422 5.2397C13.3329 5.76074 13.3764 6.45547 13.029 6.99822C12.6599 7.60611 11.9001 7.86663 11.0099 7.71466C10.185 7.56269 9.6205 7.77979 9.27313 7.97518C9.16458 8.04031 9.03432 8.08373 8.90406 8.08373ZM8.5567 7.77979C8.73038 7.93176 8.96919 7.93176 9.16458 7.82321C9.53365 7.60611 10.1415 7.38901 11.0099 7.54098C11.8132 7.67124 12.4862 7.45414 12.8336 6.91138C13.1158 6.43376 13.0941 5.82587 12.7468 5.36996C12.5731 5.13115 11.9218 4.393 10.6626 4.56668C10.3369 4.6101 10.0113 4.69694 9.68563 4.8272C9.53365 4.89233 9.4251 5.00089 9.38168 5.17457C9.33826 5.32654 9.35997 5.50022 9.46852 5.63048C9.6205 5.82587 9.85931 5.891 10.0764 5.80416C10.3152 5.69561 10.554 5.65219 10.7928 5.60877C11.4876 5.52193 11.8132 5.84758 11.9218 5.99955C12.0086 6.1081 12.0303 6.26008 11.9652 6.36863C11.9218 6.43376 11.7698 6.62915 11.2053 6.5206C10.0113 6.3035 9.14287 6.62915 8.62183 6.9548C8.46986 7.04164 8.38301 7.19361 8.3613 7.3673C8.3613 7.49756 8.42644 7.67124 8.5567 7.77979L8.49157 7.84492L8.5567 7.77979Z" fill="#171753"/>
<path d="M15.6342 4.37125C15.4171 4.65348 15.0264 4.71861 14.7441 4.50151C14.0928 3.95876 13.2895 3.13377 13.3547 2.3522C13.4198 1.78774 13.702 1.33182 14.1579 1.15814C14.6356 0.962749 15.2 1.0713 15.7211 1.48379L15.8079 1.52721C16.025 1.7009 16.4809 2.06997 16.6329 2.02655C16.6546 2.02655 16.7198 1.98313 16.8283 1.80945C16.85 1.78774 16.85 1.78774 16.85 1.78774C16.8283 1.7009 16.6763 1.54892 16.4592 1.41866C16.2204 1.26669 16.1119 0.941039 16.2204 0.680517C16.3724 0.333154 16.7849 0.181182 17.1105 0.376574C17.4579 0.615386 17.8704 0.941039 18.0224 1.39695C18.1526 1.74432 18.1092 2.11339 17.9138 2.43904C17.6533 2.89496 17.3059 3.17719 16.8717 3.24232C16.1553 3.37258 15.5474 2.87325 15.0481 2.48246L14.9395 2.39562C14.7658 2.26536 14.6573 2.24365 14.6356 2.26536C14.6356 2.26536 14.5922 2.33049 14.5704 2.46075C14.5922 2.65614 15.0046 3.11206 15.5257 3.54626C15.7645 3.74165 15.8079 4.11073 15.6342 4.37125Z" fill="#9C9CDF"/>
<path d="M15.135 4.71873C14.9613 4.71873 14.8093 4.6536 14.6791 4.56676C13.9843 4.00229 13.181 3.13389 13.2679 2.33061C13.333 1.72272 13.637 1.2451 14.1363 1.04971C14.6573 0.832607 15.2435 0.941158 15.7863 1.37536L15.8948 1.4622C16.3942 1.8747 16.5678 1.96154 16.6113 1.96154C16.6113 1.96154 16.6547 1.91812 16.7415 1.80957C16.7198 1.76615 16.6113 1.65759 16.3942 1.52733C16.1119 1.35365 16.0034 0.984578 16.1119 0.680636C16.1988 0.485244 16.3507 0.333273 16.5461 0.268142C16.7415 0.203012 16.9586 0.224722 17.1323 0.333273C17.6316 0.637215 17.9356 1.00629 18.0658 1.39707C18.1961 1.78786 18.1527 2.15693 17.9356 2.526C17.6533 3.00363 17.2843 3.28586 16.8501 3.3727C16.0902 3.50296 15.4606 3.00363 14.9613 2.59113L14.8527 2.50429C14.7659 2.43916 14.7008 2.39574 14.6573 2.39574C14.6573 2.41745 14.6356 2.46087 14.6356 2.50429C14.6573 2.61284 15.0047 3.04705 15.5692 3.52467C15.8514 3.76348 15.8948 4.17598 15.6777 4.47992C15.5692 4.63189 15.3955 4.74044 15.2001 4.78386C15.1784 4.71873 15.1567 4.71873 15.135 4.71873ZM14.6356 1.11484C14.4837 1.11484 14.3317 1.13655 14.1797 1.20168C13.7672 1.37536 13.485 1.78786 13.4416 2.33061C13.3764 3.06876 14.1363 3.87203 14.7876 4.41479C14.8962 4.50163 15.0481 4.54505 15.1784 4.52334C15.3304 4.50163 15.4606 4.4365 15.5257 4.30624C15.6777 4.08914 15.6343 3.78519 15.4389 3.61151C14.9613 3.22073 14.4619 2.69968 14.4402 2.46087C14.4619 2.3089 14.4837 2.22206 14.5271 2.20035L14.5488 2.17864H14.5705C14.6139 2.15693 14.7659 2.17864 14.9613 2.33061L15.0698 2.41745C15.5475 2.80823 16.1336 3.28586 16.8066 3.1556C17.1974 3.09047 17.5231 2.82994 17.7836 2.39574C17.9573 2.0918 18.0007 1.74444 17.8922 1.41878C17.7402 0.984578 17.3277 0.658926 17.0238 0.441824C16.8935 0.354983 16.7415 0.333273 16.5895 0.376693C16.4376 0.420114 16.329 0.528665 16.2639 0.680636C16.1771 0.919448 16.2639 1.17997 16.4593 1.31023C16.6113 1.41878 16.8718 1.59246 16.8935 1.74444C16.8935 1.76615 16.8935 1.78786 16.8718 1.83128C16.7849 1.98325 16.6981 2.07009 16.6113 2.0918C16.481 2.17864 16.1771 1.96154 15.7646 1.61417L15.6343 1.52733C15.3304 1.26681 14.983 1.11484 14.6356 1.11484Z" fill="#171753"/>
<path d="M13.8105 5.23966C13.55 5.36992 13.2461 5.30479 13.0724 5.08769C12.9421 4.91401 12.7467 4.71862 12.4862 4.52323C12.2474 4.32783 11.8783 4.19757 11.5527 4.08902C11.2704 4.00218 11.0968 3.71995 11.1402 3.43772V3.3943C11.2053 3.02522 11.5527 2.80812 11.9 2.91667C12.3125 3.02522 12.8336 3.24233 13.2243 3.54627C13.5717 3.80679 13.8322 4.08902 14.0276 4.32783C14.2664 4.63178 14.1796 5.06598 13.8322 5.23966H13.8105Z" fill="#9C9CDF"/>
<path d="M13.55 5.39169C13.3546 5.39169 13.1375 5.30485 13.0072 5.13117C12.8336 4.91407 12.6382 4.74039 12.4428 4.5667C12.1823 4.37131 11.8132 4.24105 11.5527 4.15421C11.227 4.06737 11.0099 3.72001 11.075 3.39435V3.35093C11.0967 3.15554 11.227 2.98186 11.379 2.87331C11.5527 2.76476 11.748 2.74305 11.9434 2.78647C12.3342 2.89502 12.877 3.11212 13.3112 3.43778C13.6151 3.67659 13.8974 3.93711 14.1362 4.24105C14.2664 4.41473 14.3098 4.61013 14.2664 4.82723C14.223 5.02262 14.0927 5.1963 13.8974 5.30485L13.8756 5.32656C13.7454 5.36998 13.6585 5.39169 13.55 5.39169ZM11.748 2.96015C11.6612 2.96015 11.5527 2.98186 11.4658 3.04699C11.3356 3.13383 11.2704 3.24238 11.2487 3.39435V3.43778C11.2053 3.67659 11.3573 3.9154 11.5961 4.00224C11.8783 4.08908 12.2691 4.21934 12.5513 4.43644C12.7684 4.61013 12.9855 4.80552 13.1592 5.02262C13.3112 5.21801 13.5717 5.26143 13.7888 5.15288L13.8105 5.13117C13.9408 5.06604 14.0493 4.93578 14.071 4.78381C14.0927 4.63184 14.071 4.47986 13.9625 4.3496C13.7237 4.06737 13.4632 3.80685 13.1809 3.58975C12.7684 3.26409 12.2474 3.09041 11.8783 2.98186C11.8349 2.96015 11.7915 2.96015 11.748 2.96015Z" fill="#171753"/>
<path d="M11.1621 15.2264C11.5529 15.9428 12.7903 17.202 15.135 17.4842C17.306 17.7447 19.7159 17.1586 22.625 15.552C25.5559 13.9237 28.096 12.7297 27.7269 8.69159C27.3796 4.63179 24.8829 3.13379 23.7974 2.69958C22.6902 2.24367 20.3889 2.24367 18.5652 3.17721C16.9587 4.00219 13.941 6.1515 12.443 8.9087C11.0101 11.5139 10.4891 13.9889 11.1621 15.2264Z" fill="#8989C7"/>
<path d="M16.1119 17.6362C15.7646 17.6362 15.4389 17.6144 15.1132 17.571C12.9205 17.3105 11.5528 16.1599 11.0752 15.2697C10.4021 14.0323 10.9015 11.5139 12.3561 8.86524C13.9409 5.97778 17.0672 3.82848 18.5217 3.09033C20.3237 2.15679 22.6467 2.11337 23.8407 2.591C24.9262 3.0252 27.4663 4.50149 27.8354 8.66985C28.1828 12.5994 25.8164 13.8803 23.0809 15.4L22.6684 15.6171C20.2368 16.9848 18.0658 17.6362 16.1119 17.6362ZM11.2488 15.1829C11.7047 16.0296 13.0074 17.1368 15.135 17.3973C17.306 17.6579 19.7375 17.0283 22.5815 15.4651L22.994 15.248C25.7729 13.7066 27.9874 12.5126 27.6617 8.71327C27.3144 4.65346 24.8394 3.22059 23.7756 2.78639C22.6467 2.33047 20.3671 2.37389 18.6086 3.26401C17.1757 4.00216 14.0712 6.12976 12.5297 8.95208C11.0969 11.5573 10.5975 13.9888 11.2488 15.1829Z" fill="#171753"/>
<path d="M23.7972 2.65633C23.7104 2.61291 23.6236 2.5912 23.515 2.56949C25.0999 3.91552 25.2084 6.2168 24.3834 9.58188C23.2762 14.1193 19.7809 16.8548 19.7592 16.8548C20.671 16.5943 21.7131 16.0081 22.6249 15.5088C25.5341 13.9022 28.0959 12.7081 27.7268 8.67005C27.3794 4.61025 24.9045 3.11224 23.7972 2.65633Z" fill="#171753"/>
<path d="M19.1729 17.1152L19.7157 16.7678C19.7374 16.7678 23.1893 14.0541 24.2965 9.56006C25.1866 5.95617 24.9261 3.89371 23.4715 2.65623L23.1459 2.37399L23.5584 2.50425C23.6669 2.54767 23.7538 2.56938 23.8406 2.61281C24.9261 3.04701 27.4662 4.5233 27.8353 8.69166C28.1826 12.6212 25.8162 13.9021 23.0807 15.4218L22.5814 15.6389C21.6913 16.1383 20.6709 16.7027 19.7808 16.9415L19.1729 17.1152ZM23.9057 2.8082C25.1432 4.13252 25.2952 6.19498 24.4702 9.58177C23.5801 13.2508 21.1051 15.7909 20.1716 16.6376C20.9314 16.3554 21.7564 15.8994 22.4946 15.4869L22.9722 15.2264C25.7511 13.685 27.9655 12.4909 27.6399 8.69166C27.2925 4.80553 25.0347 3.30753 23.9057 2.8082Z" fill="#171753"/>
<path d="M15.3523 17.1368C15.1787 17.1368 15.0267 17.1368 14.853 17.1151C13.5938 16.9848 12.6169 16.4855 12.2044 15.769C11.9656 15.3566 11.9221 14.8789 12.0958 14.4664C12.4866 13.5329 14.0063 13.6849 15.4175 14.0539C15.7648 14.1408 15.9385 14.5099 15.8517 14.8355C15.7431 15.1395 15.4175 15.3348 15.1135 15.248C14.3103 15.0309 13.5287 14.9441 13.2247 15.0092C13.2247 15.0526 13.2465 15.096 13.2682 15.1395C13.4419 15.4217 13.9846 15.769 14.9833 15.8776C15.7866 15.9644 16.4596 15.769 16.7635 15.4C16.9589 15.1612 16.9806 14.8572 16.8721 14.5099C16.6767 13.9671 14.8747 13.5546 13.3767 13.5329L12.2695 13.5112C11.8787 13.5112 11.7702 12.9684 12.1175 12.7948L13.1379 12.3388C13.1379 12.3388 14.1583 11.8395 13.9629 11.2533C13.8326 10.8843 13.4853 10.754 13.2899 10.7106C12.8991 10.6237 12.4866 10.7323 12.2695 10.9711C12.0958 11.1665 12.0741 11.3836 12.0958 11.5573C12.1175 11.7961 11.9873 12.0132 11.7702 12.1217H11.7485C11.3577 12.3171 10.88 12.0566 10.8583 11.6224C10.8149 11.1448 10.9235 10.602 11.3577 10.1244C11.857 9.55993 12.7254 9.32112 13.5504 9.4948C14.332 9.64677 14.8964 10.1461 15.1352 10.8408C15.3306 11.427 15.2004 11.9481 14.9181 12.3823C16.1556 12.5559 17.6753 12.9901 18.0444 14.0539C18.3049 14.8138 18.1964 15.5302 17.7405 16.1164C17.2194 16.8111 16.3727 17.1368 15.3523 17.1368Z" fill="#9C9CDF"/>
<path d="M15.3521 17.2455C15.1784 17.2455 15.0047 17.2455 14.831 17.2238C13.5284 17.0935 12.5514 16.5942 12.0955 15.8343C11.835 15.4001 11.7916 14.8791 11.9653 14.4448C12.3126 13.6199 13.4633 13.4679 15.3955 13.9889C15.5909 14.0324 15.7428 14.1626 15.8297 14.3363C15.9165 14.51 15.9382 14.7054 15.8731 14.9008C15.7645 15.2698 15.3955 15.4652 15.0264 15.3784C14.31 15.2047 13.6369 15.0962 13.2896 15.1179C13.4416 15.3784 13.9626 15.704 14.9396 15.8126C15.7211 15.8994 16.3507 15.7257 16.633 15.3567C16.8066 15.1396 16.8283 14.8791 16.7198 14.5534C16.5678 14.0975 14.9396 13.6633 13.3113 13.6416L12.2041 13.6199C11.9436 13.6199 11.7916 13.4245 11.7482 13.2508C11.7047 13.0771 11.7699 12.8383 12.0087 12.7297L13.0291 12.2738C13.0291 12.2738 13.9626 11.8179 13.7889 11.2969C13.6804 10.9712 13.3547 10.8627 13.181 10.8192C12.812 10.7541 12.4429 10.841 12.2475 11.0581C12.1172 11.1883 12.0738 11.3837 12.0955 11.5791C12.1172 11.8613 11.987 12.1219 11.7265 12.2521C11.5094 12.3607 11.2488 12.3607 11.0317 12.2521C10.8146 12.1436 10.6844 11.9265 10.6627 11.6877C10.6409 11.2752 10.6844 10.6673 11.1837 10.1245C11.7047 9.53835 12.5949 9.27782 13.4633 9.45151C14.2665 9.62519 14.8744 10.1462 15.1132 10.8627C15.2869 11.3837 15.2435 11.883 14.9613 12.3607C16.177 12.5561 17.6533 13.012 18.0224 14.0758C18.2829 14.8573 18.1744 15.6172 17.6968 16.2251C17.2625 16.8764 16.4159 17.2455 15.3521 17.2455ZM13.5501 13.8587C12.8988 13.8587 12.3778 14.0324 12.1607 14.51C12.0087 14.9008 12.0304 15.335 12.2692 15.7257C12.6817 16.4205 13.6152 16.8981 14.8527 17.0284C15.0264 17.0501 15.1784 17.0501 15.3521 17.0501C16.3507 17.0501 17.154 16.7244 17.6316 16.1165C18.0658 15.5738 18.1744 14.8791 17.9139 14.1626C17.5665 13.1422 16.0685 12.708 14.8527 12.5561L14.7442 12.5126L14.831 12.3824C15.135 11.9265 15.2001 11.4271 15.0264 10.9278C14.8093 10.2548 14.2448 9.79887 13.5067 9.62519C12.7251 9.45151 11.9001 9.69032 11.4225 10.2331C10.9883 10.7324 10.9232 11.2752 10.9449 11.6659C10.9666 11.8396 11.0534 11.9916 11.2054 12.0784C11.3574 12.1653 11.5311 12.1653 11.7047 12.0784C11.9001 11.9699 12.0087 11.7962 11.987 11.5791C11.9653 11.3186 12.0304 11.0798 12.1824 10.9061C12.4212 10.6456 12.8771 10.537 13.2896 10.6239C13.5067 10.6673 13.8975 10.7975 14.0277 11.2317C14.2448 11.9048 13.1593 12.4258 13.1593 12.4258L12.1389 12.8817C11.987 12.9468 11.9653 13.0988 11.987 13.1857C12.0087 13.2942 12.0955 13.4028 12.2475 13.4028L13.3547 13.4245C14.7225 13.4462 16.7198 13.8153 16.9369 14.4448C17.0672 14.8356 17.0237 15.1613 16.8066 15.4218C16.481 15.8343 15.7863 16.0297 14.9396 15.9429C13.8975 15.8343 13.333 15.4652 13.1376 15.1613C13.0942 15.0962 13.0942 15.0527 13.0725 15.0093L13.0508 14.9225L13.1376 14.9008C13.4416 14.8139 14.2231 14.9225 15.0698 15.1396C15.3303 15.2047 15.6126 15.0527 15.6994 14.7922C15.7428 14.662 15.7211 14.51 15.656 14.3797C15.5909 14.2495 15.4823 14.1626 15.3303 14.1192C14.7876 14.0106 14.1146 13.8587 13.5501 13.8587Z" fill="#171753"/>
<path d="M11.683 15.6173C11.4225 15.8995 10.9449 15.8561 10.7495 15.5087C10.5758 15.2265 10.4238 14.8791 10.4238 14.4666C10.4238 14.2061 10.4672 13.9673 10.5107 13.7502C10.6192 13.3594 11.0534 13.1857 11.4008 13.3811L11.4225 13.4028C11.6613 13.5331 11.7699 13.8153 11.7047 14.0758C11.6613 14.1844 11.6396 14.3146 11.6613 14.4232C11.6613 14.5752 11.7264 14.7271 11.8133 14.8574C11.9435 15.0962 11.9218 15.3784 11.7264 15.5738L11.683 15.6173Z" fill="#9C9CDF"/>
<path d="M11.2488 15.8995C11.2271 15.8995 11.2054 15.8995 11.1619 15.8995C10.9448 15.8778 10.7712 15.7475 10.6626 15.5738C10.4455 15.2047 10.337 14.8574 10.3152 14.4883C10.3152 14.2495 10.337 14.0107 10.4021 13.7502C10.4672 13.5331 10.6192 13.3594 10.8146 13.2942C11.01 13.2074 11.2271 13.2291 11.4225 13.3377L11.4442 13.3594C11.7047 13.5113 11.8567 13.837 11.7698 14.1409C11.7264 14.2712 11.7264 14.3798 11.7264 14.4666C11.7264 14.5751 11.7698 14.7054 11.8567 14.8574C12.0086 15.1396 11.9869 15.4653 11.7698 15.6824L11.7481 15.7041C11.6179 15.8126 11.4225 15.8995 11.2488 15.8995ZM11.0751 13.4028C11.01 13.4028 10.9448 13.4245 10.8797 13.4462C10.7277 13.5113 10.6192 13.6199 10.5758 13.7936C10.5106 14.0324 10.4889 14.2712 10.4889 14.4883C10.4889 14.814 10.5975 15.1396 10.8146 15.487C10.9014 15.6172 11.0317 15.7041 11.1837 15.7258C11.3356 15.7475 11.5093 15.6824 11.6179 15.5738L11.6396 15.5521C11.7915 15.3784 11.8132 15.1396 11.7047 14.9442C11.5961 14.7705 11.5527 14.6186 11.5527 14.4666C11.5527 14.358 11.5744 14.2278 11.6179 14.0758C11.683 13.8587 11.5744 13.6416 11.379 13.5113L11.3573 13.4896C11.2488 13.4245 11.1619 13.4028 11.0751 13.4028Z" fill="#171753"/>
<path d="M18.8255 16.9852C18.4348 17.0937 18.0657 16.8115 18.044 16.4207C18.0223 16.0517 18.0874 15.6392 18.3479 15.3569C18.4999 15.1832 18.8255 14.9227 19.39 14.9879C19.9328 15.053 20.2801 14.9444 20.4104 14.8359C20.4538 14.8142 20.5407 14.7273 20.5189 14.4885C20.4972 14.2063 20.3235 14.0326 20.1282 13.9241C19.9111 13.7938 19.8025 13.5333 19.8459 13.2727V13.251C19.9328 12.8603 20.3887 12.6649 20.736 12.8603C21.2137 13.1642 21.6913 13.6635 21.713 14.4234C21.7564 15.0964 21.4525 15.5089 21.2137 15.7477C20.7795 16.1602 20.0847 16.3339 19.238 16.2253C19.238 16.2688 19.238 16.3339 19.238 16.399C19.2815 16.6595 19.0861 16.9201 18.8255 16.9852Z" fill="#9C9CDF"/>
<path d="M18.6518 17.1153C18.4999 17.1153 18.3479 17.0719 18.2394 16.985C18.0657 16.8548 17.9571 16.6594 17.9571 16.4423C17.9354 15.9646 18.0657 15.5739 18.2828 15.3133C18.4347 15.1397 18.7821 14.8357 19.4117 14.9226C19.9328 14.9877 20.2367 14.9008 20.3452 14.7923C20.367 14.7706 20.4321 14.7055 20.4321 14.5101C20.4321 14.3147 20.3018 14.141 20.0847 14.0107C19.8242 13.8588 19.6939 13.5548 19.7591 13.2726V13.2509C19.8025 13.0338 19.9545 12.8601 20.1716 12.7733C20.367 12.6864 20.6058 12.7081 20.7794 12.8167C21.2354 13.0772 21.7781 13.5982 21.7998 14.4666C21.8432 15.1831 21.5393 15.6173 21.2788 15.8561C20.8446 16.2686 20.1499 16.4423 19.3249 16.3771C19.3249 16.3989 19.3249 16.4206 19.3249 16.4423C19.3466 16.7679 19.1295 17.0502 18.8038 17.137C18.7821 17.0936 18.717 17.1153 18.6518 17.1153ZM19.1946 15.0745C18.7821 15.0745 18.5216 15.2699 18.413 15.4219C18.2176 15.6607 18.1091 16.0081 18.1308 16.4423C18.1308 16.5942 18.2176 16.7462 18.3479 16.8548C18.4782 16.9416 18.6518 16.985 18.8038 16.9416C19.0426 16.8765 19.1946 16.6594 19.1729 16.4206C19.1729 16.3554 19.1729 16.2903 19.1729 16.2252L19.1946 16.1383L19.2814 16.16C20.0847 16.2469 20.7577 16.0949 21.1702 15.7041C21.409 15.487 21.6696 15.0962 21.6479 14.4666C21.6044 13.6851 21.1051 13.2292 20.7143 12.9686C20.5841 12.8818 20.4104 12.8818 20.2584 12.9469C20.1064 13.0121 19.9979 13.1423 19.9545 13.316V13.3377C19.911 13.5548 19.9979 13.7719 20.1933 13.8805C20.4538 14.0542 20.6058 14.2713 20.6275 14.5318C20.6492 14.7923 20.5623 14.9008 20.4972 14.966C20.3018 15.1397 19.8893 15.2048 19.4117 15.1397C19.3249 15.0745 19.2597 15.0745 19.1946 15.0745Z" fill="#171753"/>
<path d="M22.6031 13.9022C22.5162 13.9022 22.4077 13.8805 22.3209 13.8587C21.6913 13.6634 21.1051 12.7732 21.561 10.841C21.7781 9.9292 21.2571 9.495 20.3452 8.88711C19.7373 8.49633 18.9775 7.99699 19.2163 7.12859C19.3466 6.65096 19.6505 6.3036 20.1064 6.17334C21.04 5.8911 22.1906 6.56412 22.7333 7.02003C22.9505 7.21543 23.1458 7.3674 23.2761 7.49766C23.5583 7.75818 23.5366 8.21409 23.2327 8.4312L22.8202 8.75685C22.8202 8.75685 22.6248 8.53975 21.9301 7.95357C21.3873 7.49766 20.7143 7.25885 20.4538 7.32398C20.4321 7.32398 20.4104 7.32398 20.4104 7.38911C20.4972 7.49766 20.8011 7.71476 21.0182 7.84502C21.8215 8.38778 23.1893 9.27789 22.7551 11.1015C22.6031 11.7746 22.6031 12.2088 22.6682 12.4476C22.6899 12.4042 22.6899 12.3825 22.7116 12.339C23.0373 11.4489 23.58 9.97262 25.0129 10.168C25.4688 10.2331 25.8379 10.5371 26.0333 10.9713C26.1636 11.2535 26.1853 11.5358 26.1418 11.8397C26.0767 12.2739 25.5557 12.491 25.1866 12.2522C24.9912 12.1219 24.9044 11.8831 24.9261 11.6443C24.9261 11.5792 24.9261 11.514 24.9044 11.4706C24.8827 11.4272 24.8392 11.3838 24.8175 11.3838C24.5787 11.3404 24.3182 11.4272 23.8406 12.7515C23.5583 13.5982 23.059 13.9022 22.6031 13.9022Z" fill="#9C9CDF"/>
<path d="M22.6032 14.0106C22.4946 14.0106 22.3861 13.9889 22.2992 13.9672C21.6262 13.7718 20.9966 12.8166 21.4743 10.841C21.6696 10.016 21.2571 9.62519 20.3019 8.99559C19.7157 8.60481 18.8907 8.06205 19.1296 7.15023C19.2598 6.65089 19.6072 6.28182 20.0848 6.12985C21.04 5.8259 22.2558 6.54234 22.7986 6.99825C23.0157 7.17194 23.1894 7.32391 23.3413 7.47588C23.4933 7.60614 23.5801 7.82324 23.5801 8.01863C23.5801 8.23573 23.4716 8.43113 23.2979 8.53968L22.7986 8.93046L22.7334 8.86533C22.7117 8.84362 22.5163 8.62652 21.865 8.08376C21.3874 7.67127 20.8229 7.47588 20.5624 7.47588C20.6927 7.58443 20.9098 7.7364 21.0618 7.82324C21.8867 8.366 23.2762 9.29953 22.8203 11.1883C22.7334 11.5791 22.69 11.883 22.69 12.1001C23.0374 11.1883 23.6236 9.95084 24.9913 10.1462C25.4689 10.2114 25.8814 10.537 26.0985 10.9929C26.2288 11.2752 26.2722 11.6008 26.2071 11.9265C26.1637 12.1653 26.0117 12.3607 25.7946 12.4475C25.5775 12.5561 25.317 12.5126 25.0999 12.3824C24.8828 12.2304 24.7742 11.9699 24.7959 11.6877C24.7959 11.6442 24.7959 11.6008 24.7742 11.5574C24.7525 11.5357 24.7525 11.514 24.7525 11.514C24.6005 11.4923 24.3834 11.4706 23.9058 12.8166C23.667 13.5764 23.1676 14.0106 22.6032 14.0106ZM20.5841 6.2384C20.4322 6.2384 20.2802 6.26011 20.1282 6.30353C19.7157 6.43379 19.4335 6.75944 19.3032 7.19365C19.0861 7.97521 19.7809 8.43113 20.3887 8.84362C21.3006 9.4515 21.865 9.90742 21.6479 10.8844C21.2137 12.7297 21.7565 13.5982 22.3427 13.7718C22.4295 13.7935 22.5163 13.8153 22.6032 13.8153C23.1025 13.8153 23.5367 13.4245 23.7755 12.7732C24.2314 11.4923 24.492 11.2969 24.8393 11.3403C24.9045 11.3403 24.9479 11.4054 24.9913 11.4706C25.013 11.5357 25.0347 11.6008 25.013 11.6877C24.9913 11.9048 25.0781 12.1001 25.2301 12.2087C25.3821 12.3172 25.5775 12.3172 25.7294 12.2521C25.9031 12.187 26.0117 12.035 26.0334 11.8613C26.0768 11.5791 26.0334 11.2969 25.9248 11.0363C25.7512 10.6239 25.3821 10.3416 24.9696 10.2982C23.6018 10.1028 23.0808 11.5357 22.7769 12.4041C22.7552 12.4475 22.7334 12.4909 22.7334 12.5344L22.6032 12.7949L22.5598 12.5126C22.5163 12.2738 22.4946 11.8396 22.6466 11.1232C23.0591 9.36466 21.7565 8.49626 20.9532 7.97521C20.671 7.80153 20.4322 7.62785 20.3236 7.49759L20.2802 7.45417L20.3019 7.41075C20.3236 7.32391 20.367 7.3022 20.4105 7.3022C20.7144 7.21536 21.4525 7.49759 21.9736 7.93179C22.4729 8.34429 22.7117 8.5831 22.7986 8.66994L23.1459 8.38771C23.2762 8.30086 23.3413 8.14889 23.3413 7.99692C23.3413 7.84495 23.2762 7.69298 23.1676 7.58443C23.0157 7.45417 22.8203 7.28049 22.6249 7.1068C22.2341 6.75944 21.3657 6.2384 20.5841 6.2384Z" fill="#171753"/>
<path d="M22.6247 15.5521C22.3424 15.5521 22.1253 15.3132 22.1688 15.031L22.1905 14.9225V14.9007C22.2339 14.5968 22.4727 14.358 22.7766 14.2929C22.9937 14.2494 23.276 14.1626 23.4931 13.9672C23.7102 13.7718 23.8404 13.5547 23.9273 13.381C24.0141 13.1639 24.2312 13.012 24.47 13.012H24.5135C24.9477 13.012 25.2299 13.4462 25.0562 13.8369C24.9259 14.1626 24.6871 14.5317 24.3181 14.879C23.6668 15.4435 23.0589 15.5521 22.6247 15.5521Z" fill="#9C9CDF"/>
<path d="M22.6248 15.6389C22.4512 15.6389 22.2992 15.5738 22.2123 15.4435C22.1038 15.3133 22.0604 15.1613 22.0821 15.0093L22.1038 14.8791C22.1472 14.5317 22.4295 14.2712 22.7768 14.2061C23.0373 14.1626 23.2761 14.0541 23.4498 13.9021C23.6235 13.7284 23.7755 13.5548 23.8623 13.3594C23.9709 13.0988 24.2314 12.9469 24.4919 12.9469H24.5136C24.7524 12.9469 24.9478 13.0554 25.0781 13.2508C25.2084 13.4462 25.2301 13.685 25.1432 13.9021C24.9695 14.2929 24.709 14.662 24.3617 14.9659C23.6886 15.5738 23.0373 15.6389 22.6248 15.6389ZM24.4702 13.0988C24.2748 13.0988 24.1011 13.2291 24.0143 13.4028C23.9057 13.6199 23.7538 13.837 23.5584 14.0107C23.363 14.1843 23.1025 14.3146 22.7985 14.3797C22.538 14.4232 22.3209 14.6403 22.2775 14.9008L22.2558 15.031C22.2341 15.1396 22.2775 15.2481 22.3426 15.3133C22.4077 15.4001 22.5163 15.4435 22.6248 15.4435V15.5304V15.4435C23.0156 15.4435 23.6018 15.3784 24.2531 14.7922C24.5788 14.51 24.8176 14.1626 24.9695 13.7936C25.0347 13.6416 25.013 13.4679 24.9261 13.3159C24.8393 13.164 24.6873 13.0988 24.5136 13.0988H24.4702Z" fill="#171753"/>
<path d="M26.7284 10.4284C26.3159 10.4284 25.9468 10.233 25.6646 10.0593C25.4909 9.97246 25.2955 9.86391 25.0784 9.77707C24.6659 9.6251 24.362 9.73365 24.1666 9.88562C23.9929 10.0159 23.7324 10.0376 23.5587 9.92904L23.5153 9.90733C23.1245 9.66852 23.1245 9.12576 23.4719 8.88695C23.9495 8.53959 24.6659 8.32248 25.5126 8.64814C25.7949 8.75669 26.012 8.88695 26.2291 8.9955C26.685 9.23431 26.7067 9.23431 26.7935 9.14747C26.8153 9.12576 26.8153 9.12576 26.8153 9.12576C26.8153 9.08234 26.7284 8.82182 26.2508 8.49617C25.9251 8.25735 25.4475 8.19222 25.0567 8.19222C24.7528 8.19222 24.514 7.97512 24.4706 7.67118C24.4054 7.30211 24.7094 6.95474 25.0784 6.95474C25.6212 6.95474 26.3593 7.06329 26.9455 7.47579C27.6185 7.95341 28.0093 8.51788 28.031 9.08234C28.0527 9.47312 27.8791 9.8422 27.5751 10.1027C27.2929 10.3415 26.9889 10.4284 26.7284 10.4284Z" fill="#9C9CDF"/>
<path d="M26.7282 10.5153C26.294 10.5153 25.9249 10.3199 25.621 10.1462C25.4473 10.0594 25.2519 9.95084 25.0565 9.864C24.7526 9.75545 24.4704 9.77716 24.2315 9.95084C24.0144 10.1028 23.7322 10.1245 23.5151 9.99426L23.4717 9.97255C23.2763 9.84229 23.146 9.62519 23.1243 9.38637C23.1243 9.14756 23.2329 8.93046 23.4283 8.77849C23.8842 8.45284 24.6006 8.1706 25.5559 8.53968C25.8381 8.64823 26.0769 8.77849 26.2723 8.88704C26.5762 9.06072 26.6631 9.08243 26.7065 9.08243C26.6631 9.0173 26.5545 8.8002 26.1855 8.56139C25.8381 8.32258 25.3171 8.27916 25.0348 8.27916C24.6875 8.27916 24.4052 8.01863 24.3401 7.67127C24.3184 7.45417 24.3618 7.25878 24.5138 7.08509C24.644 6.93312 24.8394 6.84628 25.0565 6.84628C25.5993 6.84628 26.3591 6.95483 26.9887 7.38904C27.6835 7.88837 28.096 8.47455 28.1177 9.06072C28.1394 9.47322 27.9657 9.864 27.6183 10.1462C27.3578 10.4068 27.0539 10.5153 26.7282 10.5153ZM24.7092 9.62519C24.8394 9.62519 24.9697 9.6469 25.1217 9.71203C25.3388 9.79887 25.5342 9.90742 25.7078 9.99426C25.9901 10.1462 26.3591 10.3416 26.7282 10.3416C27.0105 10.3416 27.271 10.2331 27.5098 10.0377C27.792 9.79887 27.944 9.47322 27.944 9.10414C27.9223 8.5831 27.5532 8.04034 26.9019 7.58443C26.3157 7.17194 25.5776 7.0851 25.0782 7.06338C24.9263 7.06338 24.7743 7.12852 24.6875 7.23707C24.5789 7.34562 24.5355 7.5193 24.5572 7.67127C24.6006 7.91008 24.8177 8.10547 25.0565 8.10547C25.4256 8.10547 25.9467 8.1706 26.294 8.43113C26.7933 8.77849 26.9019 9.06072 26.9019 9.14756V9.21269L26.8585 9.2344C26.8585 9.2344 26.8368 9.2344 26.8368 9.25611C26.6848 9.36466 26.6197 9.34295 26.1638 9.10414C25.9684 8.99559 25.7296 8.86533 25.469 8.75678C24.6006 8.40942 23.9276 8.69165 23.5151 8.97388C23.3631 9.08243 23.298 9.2344 23.298 9.40808C23.298 9.58177 23.4066 9.73374 23.5585 9.84229L23.602 9.864C23.7539 9.95084 23.971 9.95084 24.123 9.82058C24.2533 9.71203 24.4487 9.62519 24.7092 9.62519Z" fill="#171753"/>
<path d="M12.7253 8.86535C12.3997 8.71338 12.2694 8.3226 12.4431 8.01866C12.8122 7.34564 13.4852 6.26013 14.4187 5.45685C15.4391 4.56674 16.5246 4.63187 17.1108 5.08778C17.6535 5.50028 17.8055 6.23842 17.4799 6.88973C17.6101 6.93315 17.8272 6.97657 18.066 6.97657C18.37 6.99828 18.6088 7.21538 18.6522 7.51932C18.6956 7.88839 18.3917 8.21405 18.0226 8.19234C17.4581 8.17063 16.7634 8.04037 16.4161 7.56274C16.2858 7.36735 16.0904 6.93315 16.3726 6.32526C16.4595 6.12987 16.3726 6.06474 16.3509 6.04303C16.199 5.91277 15.743 5.89106 15.2003 6.36868C14.4187 7.0417 13.8108 8.01866 13.5069 8.60483C13.3549 8.88706 13.0076 8.99561 12.7253 8.86535Z" fill="#9C9CDF"/>
<path d="M12.9639 9.01724C12.8771 9.01724 12.7685 8.99553 12.6817 8.95211C12.508 8.86527 12.3561 8.7133 12.2909 8.53962C12.2258 8.34423 12.2475 8.14884 12.3343 7.97515C12.66 7.36727 13.3764 6.21663 14.3317 5.39164C15.3955 4.4581 16.5244 4.54494 17.154 5.02257C17.7185 5.45677 17.8921 6.17321 17.6099 6.84622C17.7185 6.86793 17.8921 6.88965 18.0658 6.88965C18.4132 6.91136 18.6954 7.17188 18.7388 7.51924C18.7606 7.73634 18.6954 7.93173 18.5435 8.08371C18.4132 8.23568 18.2178 8.32252 18.0007 8.30081C17.4362 8.2791 16.6764 8.14884 16.329 7.62779C16.177 7.41069 15.9599 6.95478 16.2856 6.30347C16.3507 6.17321 16.3073 6.1515 16.2856 6.12979C16.177 6.04295 15.7646 5.99953 15.2435 6.45544C14.4619 7.12846 13.8541 8.12713 13.5718 8.66988C13.4633 8.88698 13.2245 9.01724 12.9639 9.01724ZM16.0685 4.84889C15.5692 4.84889 15.0047 5.04428 14.4619 5.5219C13.5284 6.32518 12.8337 7.45411 12.508 8.06199C12.4429 8.19226 12.4212 8.34423 12.4646 8.47449C12.508 8.60475 12.6166 8.7133 12.7468 8.77843C12.9856 8.88698 13.2896 8.80014 13.4199 8.56133C13.7238 8.01858 14.3317 6.9982 15.135 6.30347C15.7211 5.80414 16.2205 5.82585 16.3941 5.97782C16.5027 6.06466 16.5244 6.19492 16.4376 6.3686C16.1553 6.93307 16.329 7.32385 16.4593 7.51924C16.7849 7.97515 17.4797 8.08371 18.0007 8.10542C18.1527 8.10542 18.2829 8.04028 18.3915 7.93173C18.5 7.82318 18.5435 7.67121 18.5217 7.51924C18.5 7.25872 18.2829 7.06333 18.0224 7.06333C17.7619 7.06333 17.5448 7.01991 17.4145 6.97649L17.3928 6.95478V6.93307L17.3711 6.91136L17.3928 6.84622C17.6968 6.21663 17.5665 5.54361 17.0455 5.15283C16.8066 4.95744 16.4593 4.84889 16.0685 4.84889Z" fill="#171753"/>
<path d="M21.3657 10.4284C21.1703 9.73369 20.4539 9.19094 19.1513 8.71331C17.4796 8.10543 16.1553 8.56134 16.1119 8.58305C15.7862 8.6916 15.4171 8.73502 15.2434 8.73502C15.2869 8.53963 15.504 8.30082 15.7428 8.12714C15.9382 7.97517 16.025 7.69294 15.8947 7.47583L15.8079 7.32386C15.6559 7.01992 15.2869 6.93308 15.0046 7.12847C14.527 7.47583 13.9191 8.10543 13.9843 8.93042C14.006 9.27778 14.1796 9.58172 14.4836 9.7554C14.7224 9.90737 15.0263 9.97251 15.3303 9.97251C15.8513 9.97251 16.3724 9.79882 16.6112 9.73369C16.8934 9.66856 17.6967 9.51659 18.7388 9.88566C20.0414 10.3633 20.1934 10.7324 20.1934 10.7758C20.2151 10.8192 20.1717 10.8843 20.1065 10.9712C20.0848 10.9929 20.0631 11.0146 20.0631 11.0146C19.9546 10.9929 19.6506 10.8192 19.4335 10.7107C19.2815 10.6238 19.0861 10.5153 18.8908 10.4067C18.1092 10.0159 16.5461 9.79882 15.7428 10.385C15.352 10.6672 15.1783 11.1014 15.2434 11.5791C15.3954 12.6863 16.2421 12.6863 16.698 12.708C17.0237 12.708 17.371 12.708 17.7618 12.9251C18.196 13.1639 18.2612 13.5547 18.2394 13.8369C18.2177 14.0757 18.3697 14.2928 18.5868 14.3797L18.7388 14.4448C19.0644 14.5751 19.4335 14.3363 19.4552 13.9889C19.4986 13.2942 19.3032 12.404 18.348 11.8613C17.675 11.4922 17.0888 11.4922 16.698 11.4922C16.6112 11.4922 16.5243 11.4922 16.4592 11.4922C16.4592 11.4705 16.4592 11.4488 16.4375 11.4271C16.6546 11.2317 17.7184 11.2317 18.3263 11.5356C18.5 11.6225 18.6519 11.7093 18.8039 11.8179C19.4118 12.1652 20.3236 12.708 21.0618 11.7745C21.4743 11.21 21.4526 10.7324 21.3657 10.4284Z" fill="#9C9CDF"/>
<path d="M18.9342 14.5317C18.8691 14.5317 18.7822 14.51 18.7171 14.4883L18.5651 14.4232C18.3046 14.3363 18.1309 14.0758 18.1526 13.7936C18.1743 13.4245 18.0224 13.1423 17.7184 12.9686C17.3494 12.7515 17.002 12.7515 16.6981 12.7515C16.2421 12.7515 15.3086 12.7298 15.1349 11.5574C15.0698 11.0364 15.2652 10.5805 15.6777 10.2765C16.5244 9.66863 18.1309 9.88573 18.9342 10.2982C19.1296 10.4068 19.325 10.5153 19.477 10.6022C19.6289 10.689 19.8894 10.841 20.0197 10.8844C20.0848 10.7976 20.0848 10.7758 20.0848 10.7758C20.0848 10.7758 19.9763 10.4068 18.6737 9.95086C17.675 9.6035 16.8934 9.71205 16.6112 9.79889C16.3507 9.88573 15.8296 10.0377 15.3086 10.0377C14.9395 10.0377 14.6573 9.97257 14.4185 9.8206C14.1145 9.62521 13.9191 9.29955 13.8757 8.93048C13.8106 8.06207 14.4185 7.43248 14.9395 7.04169C15.0915 6.93314 15.2869 6.88972 15.4606 6.93314C15.6343 6.97656 15.7862 7.10682 15.8731 7.2588L15.9599 7.41077C16.0902 7.67129 16.0033 7.99694 15.7645 8.17062C15.5474 8.32259 15.4172 8.47457 15.3303 8.62654C15.504 8.62654 15.7645 8.56141 16.0033 8.49628L16.0467 8.47457C16.1119 8.45286 17.4362 7.99694 19.1513 8.60483C20.4756 9.08245 21.2355 9.66863 21.4309 10.3851C21.5177 10.7107 21.5394 11.21 21.1052 11.7528C20.3237 12.7298 19.325 12.1653 18.7388 11.8179C18.5868 11.7311 18.4349 11.6443 18.2612 11.5574C17.827 11.3403 17.1323 11.2969 16.7415 11.3403C17.154 11.3403 17.7184 11.362 18.3914 11.7311C19.4987 12.339 19.5855 13.3811 19.5421 13.9455C19.5204 14.1409 19.4335 14.3146 19.2599 14.4232C19.173 14.51 19.0645 14.5317 18.9342 14.5317ZM17.1323 10.1028C16.6329 10.1028 16.1336 10.2114 15.7862 10.4502C15.4172 10.7107 15.2652 11.1015 15.3303 11.5574C15.4823 12.5778 16.2421 12.5995 16.6981 12.5995C17.0454 12.5995 17.3928 12.5995 17.8053 12.8383C18.2829 13.0988 18.348 13.533 18.348 13.837C18.3263 14.0324 18.4566 14.2061 18.6303 14.2712L18.7822 14.3363C18.9125 14.3797 19.0645 14.3797 19.173 14.2929C19.2816 14.2278 19.3684 14.0975 19.3684 13.9672C19.4118 13.4462 19.325 12.491 18.3046 11.9265C17.6533 11.5791 17.0888 11.5574 16.6981 11.5574C16.6112 11.5574 16.5027 11.5574 16.4375 11.5574H16.3724L16.3507 11.4923C16.3507 11.4706 16.3507 11.4489 16.329 11.4272V11.3837L16.3724 11.3403C16.6329 11.1232 17.7619 11.1232 18.348 11.4489C18.5217 11.5357 18.6737 11.6225 18.8474 11.7311C19.4552 12.0785 20.2802 12.5778 20.975 11.7094C21.3657 11.2318 21.344 10.7976 21.2572 10.4936C21.0835 9.84231 20.3671 9.29955 19.0862 8.84364C17.6533 8.32259 16.5244 8.58312 16.1987 8.66996L16.1119 8.71338C15.7862 8.82193 15.3954 8.88706 15.2 8.86535H15.0915L15.1132 8.7568C15.1566 8.49628 15.4823 8.21404 15.656 8.08378C15.8296 7.95352 15.8731 7.73642 15.7862 7.54103L15.6994 7.38906C15.6343 7.28051 15.5257 7.19367 15.4172 7.15024C15.2869 7.12853 15.1566 7.15024 15.0481 7.21538C14.5705 7.56274 14.006 8.17062 14.0711 8.93048C14.0928 9.25613 14.2665 9.51665 14.527 9.69034C14.7224 9.8206 15.0047 9.88573 15.3086 9.88573C15.8296 9.88573 16.3507 9.71205 16.5461 9.64692C16.8717 9.56008 17.6967 9.42981 18.7171 9.79889C20.0414 10.2765 20.2151 10.689 20.2368 10.7541C20.2585 10.841 20.2368 10.9278 20.1283 11.0364C20.1066 11.0581 20.0848 11.0798 20.0631 11.1015L20.0414 11.1232H19.998C19.8677 11.1015 19.6289 10.9712 19.3467 10.7976C19.1947 10.7107 18.9993 10.6022 18.8039 10.4936C18.4132 10.2548 17.7619 10.1028 17.1323 10.1028Z" fill="#171753"/>
<path d="M25.2737 4.1107C25.0783 4.32781 24.7527 4.37123 24.4922 4.19754C24.0362 3.8936 23.2112 3.50282 22.1474 3.50282C22.1474 3.50282 22.1474 3.50282 22.1257 3.50282C20.9317 3.50282 20.1718 3.74163 19.7593 3.91531C19.5205 4.02386 19.2166 3.95873 19.0429 3.74163C18.7824 3.41598 18.8909 2.93835 19.26 2.78638C19.8245 2.54757 20.7363 2.28705 22.1257 2.28705C22.1257 2.28705 22.1257 2.28705 22.1474 2.28705C23.4935 2.28705 24.5356 2.78638 25.1435 3.17717C25.4691 3.37256 25.5342 3.82847 25.2737 4.1107L24.9046 4.50149L25.3171 4.04557L25.2737 4.1107Z" fill="#9C9CDF"/>
<path d="M24.9695 4.56665L24.8393 4.43639L24.8827 4.39297C24.7307 4.39297 24.5787 4.37126 24.4485 4.28442C23.9491 3.98047 23.1676 3.58969 22.1472 3.58969C20.9748 3.58969 20.215 3.80679 19.8025 4.00218C19.5203 4.13244 19.1946 4.0456 18.9775 3.80679C18.8255 3.63311 18.7821 3.41601 18.8255 3.19891C18.8689 2.9818 19.0209 2.80812 19.238 2.69957C19.7808 2.46076 20.7143 2.17853 22.1255 2.17853C23.4932 2.17853 24.557 2.67786 25.1866 3.09036C25.3603 3.19891 25.4906 3.3943 25.5123 3.58969C25.534 3.78508 25.4906 3.95876 25.3603 4.11073L25.3169 4.15415L25.2952 4.17586L24.9695 4.56665ZM22.1255 3.3943C23.1893 3.3943 24.0143 3.78508 24.5353 4.11073C24.7524 4.241 25.0129 4.21929 25.1866 4.0456L25.2083 4.02389C25.3169 3.91534 25.3603 3.76337 25.3386 3.6114C25.3169 3.45943 25.23 3.32917 25.0998 3.24233C24.4702 2.82983 23.4498 2.35221 22.1472 2.35221C20.7577 2.35221 19.8459 2.63444 19.3032 2.85154C19.1512 2.91667 19.0426 3.04694 18.9992 3.22062C18.9558 3.37259 18.9992 3.54627 19.1078 3.67653C19.2597 3.85021 19.4985 3.91534 19.7156 3.8285C20.1499 3.63311 20.9314 3.3943 22.1255 3.3943Z" fill="#171753"/>
<path d="M27.0969 6.45543C26.9666 6.73766 26.6627 6.88963 26.3804 6.80279C25.9028 6.67253 25.1213 6.52056 24.318 6.67253C23.1673 6.88964 22.4075 6.75937 21.9516 6.28175C21.7128 6.04294 21.4957 5.58702 21.691 4.82717C21.7779 4.52322 21.9733 4.28441 22.2338 4.13244C22.5595 3.95876 22.9502 3.93705 23.2976 3.95876C23.6884 4.00218 23.9489 4.37125 23.8404 4.76204C23.7535 5.04427 23.493 5.21795 23.2108 5.19624C23.0805 5.17453 22.9502 5.17453 22.8851 5.19624C22.8417 5.39163 22.8634 5.45676 22.8634 5.45676C22.8634 5.45676 23.0805 5.65215 24.0792 5.45676C25.0995 5.26137 26.0765 5.43505 26.7061 5.60873C27.0535 5.71728 27.2489 6.10807 27.0969 6.45543Z" fill="#9C9CDF"/>
<path d="M26.5327 6.91146C26.4675 6.91146 26.4024 6.91146 26.359 6.88975C25.8596 6.75949 25.0998 6.62922 24.3182 6.75949C23.1459 6.97659 22.3426 6.84633 21.865 6.34699C21.6262 6.08647 21.3656 5.58714 21.5827 4.80557C21.6696 4.47992 21.8867 4.21939 22.1906 4.04571C22.4728 3.89374 22.8419 3.82861 23.2978 3.87203C23.5149 3.89374 23.7103 4.00229 23.8406 4.19768C23.9491 4.37137 23.9926 4.58847 23.9274 4.80557C23.8189 5.13122 23.5149 5.32661 23.1893 5.28319C23.1024 5.28319 23.0156 5.26148 22.9505 5.28319C22.9505 5.34832 22.9288 5.37003 22.9505 5.39174C23.0156 5.41345 23.2978 5.5003 24.0794 5.37003C25.1215 5.17464 26.0985 5.34832 26.7498 5.52201C26.9451 5.56543 27.1188 5.7174 27.2057 5.89108C27.2925 6.08647 27.2925 6.28186 27.2274 6.47725C27.0754 6.75949 26.8149 6.91146 26.5327 6.91146ZM25.0347 6.52067C25.5557 6.52067 26.055 6.60751 26.4024 6.71607C26.6412 6.7812 26.9017 6.65093 27.0103 6.41212C27.0754 6.28186 27.0754 6.10818 27.0103 5.97792C26.9451 5.84766 26.8149 5.73911 26.6846 5.69569C26.055 5.52201 25.1215 5.37003 24.1011 5.56543C23.0156 5.76082 22.7985 5.54372 22.7985 5.52201L22.7768 5.50029C22.7551 5.47858 22.7334 5.39174 22.7985 5.19635L22.8202 5.15293L22.8636 5.13122C22.9722 5.10951 23.1242 5.10951 23.2327 5.13122C23.4715 5.15293 23.7103 5.00096 23.7755 4.76215C23.8189 4.61018 23.7972 4.45821 23.7103 4.32794C23.6235 4.19768 23.4715 4.11084 23.3195 4.08913C22.9071 4.04571 22.5814 4.11084 22.3209 4.2411C22.0604 4.37137 21.8867 4.61018 21.8215 4.8707C21.6262 5.58714 21.8433 5.99963 22.0604 6.23844C22.4728 6.69436 23.211 6.80291 24.3399 6.5858C24.5353 6.54238 24.7958 6.52067 25.0347 6.52067Z" fill="#171753"/>
<path d="M18.8475 6.02141C18.7607 6.02141 18.6521 5.9997 18.5653 5.97799C18.1094 5.82602 17.8923 5.39182 17.7403 5.00103C17.6969 4.87077 17.4798 4.76222 17.2627 4.7188C17.0022 4.65367 16.8068 4.41486 16.8068 4.13263C16.8068 3.72013 17.1758 3.4379 17.5666 3.52474C18.0442 3.655 18.6304 3.93723 18.8692 4.56683C18.8909 4.61025 18.9127 4.67538 18.9344 4.69709C18.9561 4.67538 18.9778 4.67538 18.9995 4.65367C19.3034 4.45828 19.7376 4.17605 20.3238 4.21947C20.4324 4.21947 20.5409 4.24118 20.6278 4.26289C21.0837 4.34973 21.2791 4.89248 20.9751 5.26156L20.7146 5.5655C20.7146 5.5655 20.7146 5.5655 20.7363 5.58721C20.7363 5.58721 20.5626 5.47866 20.237 5.45695C20.0633 5.43524 19.8679 5.5655 19.6725 5.69576C19.4554 5.84773 19.1732 6.02141 18.8475 6.02141Z" fill="#9C9CDF"/>
<path d="M18.8475 6.10814C18.739 6.10814 18.6304 6.08643 18.5436 6.06472C18.0442 5.91275 17.8271 5.43513 17.6752 5.04435C17.6318 4.9575 17.5015 4.87066 17.2627 4.80553C16.9587 4.71869 16.7416 4.45817 16.7416 4.13252C16.7416 3.91542 16.8285 3.69831 17.0239 3.56805C17.1976 3.43779 17.4147 3.39437 17.6318 3.43779C18.1094 3.56805 18.739 3.85028 18.9995 4.5233C18.9995 4.5233 18.9995 4.54501 19.0212 4.54501C19.3252 4.34962 19.7811 4.06739 20.3672 4.11081C20.4758 4.11081 20.5843 4.13252 20.6929 4.15423C20.9534 4.19765 21.1488 4.37133 21.2356 4.61014C21.3225 4.84895 21.2791 5.10948 21.1054 5.30487L20.8449 5.60881L20.7797 5.56539L20.7363 5.63052C20.7363 5.63052 20.5843 5.52197 20.2804 5.50026C20.1284 5.50026 19.9547 5.60881 19.7594 5.73907C19.4988 5.91275 19.1949 6.10814 18.8475 6.10814ZM17.4364 3.61147C17.3278 3.61147 17.2193 3.65489 17.1107 3.72002C16.9805 3.82857 16.9153 3.98055 16.9153 4.13252C16.9153 4.37133 17.0673 4.56672 17.2844 4.63185C17.4798 4.67527 17.7403 4.78382 17.8271 4.97921C17.9574 5.32658 18.1745 5.76078 18.587 5.89104C18.6738 5.91275 18.7607 5.93446 18.8475 5.93446C19.1515 5.93446 19.412 5.76078 19.6291 5.63052C19.8462 5.47855 20.0416 5.34829 20.2587 5.37C20.4758 5.39171 20.6278 5.43513 20.7146 5.47855L20.9317 5.21803C21.062 5.06606 21.0837 4.89237 21.0185 4.69698C20.9534 4.5233 20.8014 4.39304 20.6278 4.37133C20.5409 4.34962 20.4324 4.34962 20.3238 4.32791C19.7594 4.28449 19.3469 4.56672 19.0646 4.76211L18.9127 4.87066L18.8692 4.76211C18.8475 4.71869 18.8258 4.67527 18.8041 4.63185C18.5653 4.02397 18.0008 3.76344 17.5666 3.65489C17.5232 3.61147 17.4798 3.61147 17.4364 3.61147Z" fill="#171753"/>
<path d="M18.4999 1.13649C18.2611 0.789126 18.4565 0.311502 18.8473 0.202951C19.1729 0.11611 19.5854 0.0726895 20.0847 0.0943997C20.6709 0.13782 21.1268 0.311502 21.4742 0.506893C21.8433 0.723995 21.8867 1.22333 21.5827 1.50556C21.3874 1.67924 21.1051 1.70095 20.8663 1.5924C20.6709 1.48385 20.3887 1.35359 20.0196 1.33188C19.6722 1.31017 19.39 1.35359 19.1729 1.39701C18.9124 1.46214 18.6302 1.35359 18.4999 1.13649Z" fill="#9C9CDF"/>
<path d="M21.1486 1.76609C21.04 1.76609 20.9097 1.74438 20.8012 1.67925C20.5624 1.54899 20.2801 1.46215 19.9762 1.44044C19.694 1.41873 19.4117 1.44044 19.1729 1.50557C18.869 1.5707 18.565 1.46215 18.4131 1.20163C18.2828 1.00623 18.2611 0.767422 18.3479 0.55032C18.4348 0.333218 18.6085 0.181247 18.8256 0.116116C19.2163 0.00756533 19.6506 -0.0141449 20.0848 0.00756533C20.5841 0.0509857 21.0617 0.181247 21.4959 0.441769C21.6913 0.55032 21.8216 0.745712 21.8433 0.984524C21.865 1.22334 21.7782 1.44044 21.6045 1.59241C21.4959 1.70096 21.3222 1.76609 21.1486 1.76609ZM19.7808 1.24505C19.8459 1.24505 19.9328 1.24505 19.9979 1.24505C20.3236 1.26676 20.6275 1.3536 20.888 1.50557C21.0834 1.61412 21.3222 1.59241 21.4959 1.44044C21.6262 1.33189 21.6913 1.15821 21.6696 0.984524C21.6479 0.810842 21.561 0.680581 21.4091 0.59374C20.9966 0.354928 20.5407 0.224667 20.063 0.202957C19.6288 0.181247 19.2381 0.202957 18.8473 0.311508C18.6953 0.354928 18.565 0.463479 18.4999 0.615451C18.4348 0.767422 18.4565 0.941103 18.5433 1.09307C18.6736 1.26676 18.8907 1.3536 19.1078 1.31018C19.3466 1.26676 19.5637 1.24505 19.7808 1.24505Z" fill="#171753"/>
<path d="M27.792 11.362C27.792 11.7093 27.5098 11.9916 27.1624 11.9916C26.8151 11.9916 26.5328 11.7093 26.5328 11.362C26.5328 11.0146 26.8151 10.7324 27.1624 10.7324C27.5098 10.7107 27.792 11.0146 27.792 11.362Z" fill="#9C9CDF"/>
<path d="M27.1623 12.0784C26.7715 12.0784 26.4459 11.7528 26.4459 11.362C26.4459 10.9712 26.7715 10.6455 27.1623 10.6455C27.5531 10.6455 27.8787 10.9712 27.8787 11.362C27.8787 11.7528 27.5531 12.0784 27.1623 12.0784ZM27.1623 10.8192C26.8584 10.8192 26.6195 11.058 26.6195 11.362C26.6195 11.6659 26.8584 11.9047 27.1623 11.9047C27.4662 11.9047 27.7051 11.6659 27.7051 11.362C27.6833 11.058 27.4445 10.8192 27.1623 10.8192Z" fill="#171753"/>
</svg>
