<svg width="40" height="42" viewBox="0 0 40 42" fill="none" xmlns="http://www.w3.org/2000/svg">
<path d="M38.1538 12.9074L38.1538 12.9074L38.1517 12.9062L17.1697 0.713108C17.1697 0.713101 17.1697 0.713096 17.1697 0.713089C16.9162 0.565871 16.7215 0.570497 16.602 0.636753C16.4842 0.702039 16.3804 0.860233 16.3804 1.15277L16.3804 1.15361L16.3069 16.2473C16.3069 16.2474 16.3069 16.2476 16.3069 16.2477C16.307 16.5415 16.4102 16.8796 16.5851 17.1863C16.7601 17.4932 16.9977 17.7525 17.2498 17.8989L17.2498 17.899L38.2319 30.0921C38.2319 30.0921 38.2319 30.0921 38.2319 30.0921C38.4854 30.2393 38.68 30.2347 38.7995 30.1684C38.9173 30.1032 39.0212 29.945 39.0212 29.6524L39.0212 29.6514L39.113 14.5579C39.113 14.5577 39.113 14.5576 39.113 14.5574C39.1128 14.2637 39.0098 13.9259 38.833 13.6197C38.6561 13.3133 38.4145 13.0541 38.1538 12.9074Z" fill="#BEF0ED" stroke="#171753" stroke-width="0.342206"/>
<path d="M19.028 19.9422H18.4222V19.1159H19.028V19.9422Z" fill="#BEF0ED"/>
<path d="M16.9252 19.204L16.8919 19.2612C16.6199 19.1033 16.2559 19.0223 15.888 19.0223C15.5201 19.0223 15.1561 19.1033 14.8841 19.2612L14.8841 19.2613L14.8811 19.2629L0.0662498 26.8651V28.1621C0.0831413 28.3365 0.195026 28.5207 0.455864 28.6774C0.456009 28.6775 0.456154 28.6776 0.456299 28.6776L21.4559 40.8703L21.4226 40.9276L21.4559 40.8703C21.7279 41.0283 22.0921 41.1093 22.4602 41.1115C22.8281 41.1138 23.1923 41.0373 23.4645 40.8882C23.4647 40.8881 23.4649 40.888 23.4651 40.8879L37.8732 32.5706C37.8733 32.5705 37.8735 32.5704 37.8736 32.5703C38.1344 32.4137 38.2463 32.2295 38.2632 32.0551V30.7839H37.8634V31.3237V31.4387L37.7638 31.381L16.8919 19.2613L16.9252 19.204Z" fill="#171753" stroke="#171753" stroke-width="0.132511"/>
<path d="M18.5505 19.2004L18.6881 19.1253L16.8393 18.0478C16.8392 18.0478 16.8392 18.0478 16.8391 18.0477C16.5871 17.9014 16.2425 17.8231 15.8881 17.8231C15.5335 17.8231 15.1889 17.9014 14.9368 18.0478L14.9364 18.0481L0.526161 26.3666L0.526184 26.3666L0.522915 26.3684C0.273205 26.5054 0.184921 26.6726 0.184921 26.8083C0.184921 26.9454 0.274754 27.1178 0.526535 27.264L21.527 39.4572L21.527 39.4571L21.5305 39.4593C21.7819 39.6134 22.1255 39.6959 22.4793 39.698C22.833 39.7002 23.1775 39.6219 23.4295 39.4756L23.4299 39.4753L37.8397 31.157C38.0915 31.0108 38.1814 30.8384 38.1814 30.7013C38.1814 30.5656 38.0931 30.3984 37.8434 30.2614L37.8433 30.2615L37.8396 30.2593L34.2357 28.1608L33.9729 28.313L33.8872 28.3626L33.8015 28.313L18.5468 19.4987L18.283 19.3463L18.5505 19.2004Z" fill="#BEF0ED" stroke="#171753" stroke-width="0.342206"/>
<path d="M16.9436 0.234715C17.0354 0.179626 17.1455 0.124536 17.2373 0.0694465C17.4209 -0.0407326 17.6962 -0.0223694 17.9716 0.142899L38.972 12.336C39.5411 12.6666 40 13.4746 40 14.1356L39.9266 29.2118C39.9266 29.5423 39.8164 29.7627 39.6145 29.8729C39.3575 30.0198 39.1189 30.1667 38.8802 30.2952C39.0638 30.1851 39.1739 29.9647 39.1739 29.6342L39.2657 14.5764C39.2657 13.9153 38.8068 13.1073 38.2377 12.7768L17.2373 0.565252C16.9436 0.399984 16.6866 0.38162 16.503 0.4918C16.5214 0.473436 16.8334 0.289805 16.9436 0.234715Z" fill="#171753"/>
<path d="M16.6683 22.0138L15.1997 22.8585L16.705 23.7399L18.1735 22.8952L16.6683 22.0138Z" fill="#171753"/>
<path d="M14.3369 22.7296L12.8867 23.556L14.392 24.4374L15.8422 23.611L14.3369 22.7296Z" fill="#171753"/>
<path d="M12.2442 21.6099L10.5554 22.5831L9.58246 23.134L9.08682 23.4278L11.6384 24.8969L13.0886 24.0705L12.3177 23.6115L13.9881 22.6382L12.2442 21.6099Z" fill="#171753"/>
<path d="M16.0256 23.7211L14.5754 24.5475L16.0807 25.4289L17.5309 24.6026L16.0256 23.7211Z" fill="#171753"/>
<path d="M8.75636 23.6115L7.30615 24.4562L10.4085 26.2742L11.8587 25.4295L8.75636 23.6115Z" fill="#171753"/>
<path d="M12.0056 25.5212L10.5554 26.3476L12.9051 27.7248L14.3737 26.8801L12.0056 25.5212Z" fill="#171753"/>
<path d="M16.6499 26.1453L15.1997 26.99L16.7049 27.8714L18.1552 27.0267L16.6499 26.1453Z" fill="#171753"/>
<path d="M15.8972 19.498L14.447 20.3428L15.9522 21.2242L17.4208 20.3795L15.8972 19.498Z" fill="#171753"/>
<path d="M17.6962 20.5445L16.246 21.3892L17.7513 22.2706L19.2015 21.4259L17.6962 20.5445Z" fill="#171753"/>
<path d="M14.1166 20.5262L12.6664 21.3709L14.9978 22.7298L16.448 21.9035L14.1166 20.5262Z" fill="#171753"/>
<path d="M19.4952 21.5916L18.0267 22.4363L19.5319 23.3178L21.0005 22.473L19.4952 21.5916Z" fill="#171753"/>
<path d="M21.2758 22.6566L19.8256 23.483L21.3309 24.3644L22.7811 23.538L21.2758 22.6566Z" fill="#171753"/>
<path d="M18.3754 23.0234L16.9252 23.8497L18.4305 24.7311L19.8807 23.8864L18.3754 23.0234Z" fill="#171753"/>
<path d="M23.0749 23.7029L21.6063 24.5292L23.13 25.4107L24.5802 24.5659L23.0749 23.7029Z" fill="#171753"/>
<path d="M20.0826 24.0151L18.6324 24.8598L20.1377 25.7412L21.5879 24.8965L20.0826 24.0151Z" fill="#171753"/>
<path d="M13.2905 24.1803L11.8219 25.025L13.3272 25.9064L14.7958 25.0617L13.2905 24.1803Z" fill="#171753"/>
<path d="M24.8739 24.7318L23.4053 25.5765L24.9106 26.4579L26.3792 25.6315L24.8739 24.7318Z" fill="#171753"/>
<path d="M17.7329 24.7131L16.2643 25.5395L17.7696 26.4209L19.2198 25.5762L17.7329 24.7131Z" fill="#171753"/>
<path d="M21.8082 25.0254L20.3396 25.8517L21.8449 26.7332L23.3134 25.9068L21.8082 25.0254Z" fill="#171753"/>
<path d="M14.9795 25.1724L13.5293 26.0171L15.0162 26.8801L16.4847 26.0538L14.9795 25.1724Z" fill="#171753"/>
<path d="M19.4217 25.6861L17.9531 26.5308L19.4584 27.4122L20.927 26.5675L19.4217 25.6861Z" fill="#171753"/>
<path d="M26.6545 25.7964L25.2043 26.6228L26.7096 27.5042L28.1598 26.6779L26.6545 25.7964Z" fill="#171753"/>
<path d="M23.5154 26.0169L22.0652 26.8616L23.5705 27.7431L25.0207 26.8983L23.5154 26.0169Z" fill="#171753"/>
<path d="M21.1106 26.6776L19.6604 27.5223L21.1657 28.4037L22.6159 27.559L21.1106 26.6776Z" fill="#171753"/>
<path d="M28.4535 26.8432L27.0033 27.6695L28.5086 28.551L29.9588 27.7246L28.4535 26.8432Z" fill="#171753"/>
<path d="M25.2226 27.0267L23.7724 27.853L25.2777 28.7345L26.7462 27.9081L25.2226 27.0267Z" fill="#171753"/>
<path d="M18.4121 27.1736L16.9436 28L18.4489 28.8814L19.9174 28.0551L18.4121 27.1736Z" fill="#171753"/>
<path d="M22.7995 27.6695L21.3493 28.5142L22.8546 29.3956L24.3232 28.5509L22.7995 27.6695Z" fill="#171753"/>
<path d="M30.2525 27.89L28.7839 28.7163L30.2892 29.5977L31.7577 28.7714L30.2525 27.89Z" fill="#171753"/>
<path d="M26.9481 28.0182L25.4796 28.8629L26.9849 29.7443L28.4534 28.8996L26.9481 28.0182Z" fill="#171753"/>
<path d="M20.0826 28.1469L18.6141 28.9916L20.1193 29.873L21.5879 29.0283L20.0826 28.1469Z" fill="#171753"/>
<path d="M24.5067 28.661L23.0382 29.5057L24.5434 30.3871L26.012 29.5424L24.5067 28.661Z" fill="#171753"/>
<path d="M21.7715 29.1384L20.3213 29.9831L21.8265 30.8462L23.2767 30.0199L21.7715 29.1384Z" fill="#171753"/>
<path d="M32.7123 29.3219L31.2621 30.1666L32.7674 31.048L34.2176 30.2033L32.7123 29.3219Z" fill="#171753"/>
<path d="M26.1957 29.6525L24.7271 30.4972L26.2324 31.3787L27.701 30.534L26.1957 29.6525Z" fill="#171753"/>
<path d="M14.5205 26.9719L13.0519 27.8166L19.6788 31.6729L21.129 30.8466L14.5205 26.9719Z" fill="#171753"/>
<path d="M23.4419 30.1121L21.9917 30.9568L23.4969 31.8382L24.9655 30.9935L23.4419 30.1121Z" fill="#171753"/>
<path d="M28.7289 29.0646L27.2786 29.9093L30.9868 32.0762L32.437 31.2315L28.7289 29.0646Z" fill="#171753"/>
<path d="M27.8845 30.6444L26.4343 31.4891L29.1878 33.1051L30.6564 32.2604L27.8845 30.6444Z" fill="#171753"/>
<path d="M21.3493 30.9747L19.8807 31.801L22.2488 33.1782L23.699 32.3335L21.3493 30.9747Z" fill="#171753"/>
<path d="M25.1676 31.1217L23.699 31.948L27.4071 34.1149L28.8757 33.2886L25.1676 31.1217Z" fill="#171753"/>
<path d="M23.8826 32.4626L22.4324 33.2889L25.6266 35.162L27.0768 34.3173L23.8826 32.4626Z" fill="#171753"/>
<path d="M16.705 32.407C16.6315 32.5539 16.503 32.6824 16.3011 32.811L14.9978 33.5822C14.4287 33.9128 13.5659 33.9495 13.0703 33.6557L9.67422 31.6908C9.54572 31.6174 9.45393 31.5256 9.39886 31.4337C9.252 31.1583 9.39886 30.8278 9.80271 30.589L11.1061 29.8178C11.6751 29.4872 12.5379 29.4505 13.0336 29.7443L16.4296 31.6908C16.76 31.8745 16.8335 32.1499 16.705 32.407Z" fill="#171753"/>
<path d="M16.705 32.407C16.6315 32.5539 16.503 32.6825 16.3011 32.811L14.9978 33.5822C14.4287 33.9128 13.5659 33.9495 13.0703 33.6557L9.67422 31.6908C9.54573 31.6174 9.45394 31.5256 9.39887 31.4338C9.4723 31.2869 9.6008 31.1583 9.80272 31.0298L11.1061 30.2585C11.6751 29.928 12.5379 29.8913 13.0336 30.1851L16.4296 32.1316C16.5581 32.2234 16.6499 32.3152 16.705 32.407Z" fill="#9BE7C4"/>
<path d="M17.2373 16.7616L37.8522 28.8813V14.8335L17.2373 2.71381V16.7616Z" fill="#9BE7C4"/>
<g style="mix-blend-mode:multiply">
<path d="M17.5861 2.9158V16.5596L37.8522 28.4773V28.8813L17.2373 16.7616V2.71381L17.5861 2.9158Z" fill="#353570"/>
</g>
<path d="M27.0771 18.3496L28.8713 17.3147C29.0361 17.0742 29.1658 16.7878 29.2577 16.4609C28.8632 16.1312 28.5632 15.4476 28.5632 14.8315C28.5632 14.6451 28.593 14.4884 28.6416 14.3587L29.2577 14.0047C29.1685 13.5724 29.0388 13.1373 28.8713 12.705C28.5281 12.7563 28.0039 12.3375 27.6256 11.6863C27.2473 11.0324 27.1474 10.3704 27.3635 10.1002C27.0744 9.74083 26.761 9.41117 26.4313 9.11665L25.8179 9.47062C25.6801 9.449 25.5288 9.39496 25.3667 9.30309C24.8317 8.99505 24.3912 8.39519 24.3021 7.88721C23.9724 7.80074 23.659 7.76831 23.3699 7.79263L21.8648 8.6627C21.8648 8.6627 21.8648 8.6627 21.8648 8.66L20.0679 9.69219C19.9031 9.93267 19.7734 10.2191 19.6815 10.546C20.076 10.8784 20.376 11.5593 20.376 12.1754C20.376 12.3618 20.3462 12.5186 20.2976 12.6483L19.6842 13.0022C19.7734 13.4346 19.9031 13.8696 20.0706 14.3019C20.4111 14.2506 20.938 14.6694 21.3136 15.3206C21.6919 15.9745 21.7919 16.6365 21.5757 16.9067C21.8648 17.2661 22.1783 17.5957 22.5079 17.8903L23.1213 17.5363C23.2591 17.5579 23.4104 17.612 23.5725 17.7038C24.1075 18.0119 24.548 18.6117 24.6371 19.1197C24.9668 19.2062 25.2802 19.2386 25.5693 19.2143L27.0771 18.3496ZM25.7936 15.7908C25.6558 15.7421 25.5126 15.6773 25.3667 15.5935C24.1183 14.8721 23.1051 13.1211 23.1051 11.6809C23.1051 11.5134 23.1213 11.3594 23.1456 11.2162C23.2834 11.2648 23.4266 11.3296 23.5725 11.4134C24.8209 12.1349 25.8342 13.8885 25.8342 15.326C25.8342 15.4935 25.8179 15.6475 25.7936 15.7908Z" fill="#9BE7C4"/>
<path d="M25.3802 19.2872C25.1397 19.2872 24.883 19.2521 24.6209 19.1846C24.5966 19.1792 24.5804 19.1575 24.575 19.1332C24.4858 18.6333 24.0508 18.0551 23.5401 17.7606C23.4023 17.6795 23.2645 17.6282 23.1321 17.6038L22.5376 17.947C22.5133 17.9605 22.4836 17.9578 22.4647 17.9389C22.1323 17.6417 21.8162 17.3093 21.5244 16.9472C21.5055 16.9229 21.5055 16.8905 21.5244 16.8689C21.7243 16.6176 21.6108 15.9664 21.2569 15.353C20.9083 14.7478 20.4003 14.3154 20.0761 14.3641C20.0463 14.3695 20.0193 14.3533 20.0085 14.3235C19.841 13.8885 19.7113 13.4481 19.6194 13.0157C19.614 12.9887 19.6248 12.9617 19.6491 12.9482L20.2436 12.605C20.2868 12.478 20.3111 12.3348 20.3111 12.1754C20.3111 11.5863 20.0274 10.9216 19.6383 10.5947C19.6194 10.5785 19.6113 10.5542 19.6194 10.5298C19.7113 10.1948 19.8437 9.90295 20.0139 9.65706C20.0193 9.64896 20.0274 9.64355 20.0355 9.63815L21.8297 8.60326C21.8351 8.60056 21.8378 8.59785 21.8432 8.59785L23.3348 7.73589C23.3429 7.73049 23.351 7.72779 23.3618 7.72779C23.659 7.70347 23.9805 7.73589 24.3156 7.82506C24.3399 7.83047 24.3561 7.85208 24.3615 7.8737C24.4507 8.37358 24.8857 8.94912 25.3964 9.24635C25.5342 9.32471 25.672 9.37875 25.8044 9.40307L26.3989 9.05991C26.4232 9.0464 26.4529 9.0491 26.4719 9.06801C26.8042 9.36524 27.1204 9.6976 27.4122 10.057C27.4311 10.0813 27.4311 10.1137 27.4122 10.1353C27.2095 10.3866 27.3257 11.0405 27.6797 11.6512C28.0282 12.2565 28.5362 12.6888 28.8605 12.6401C28.8902 12.6347 28.9172 12.651 28.928 12.6807C29.0956 13.113 29.2253 13.5534 29.3171 13.9885C29.3225 14.0155 29.3117 14.0425 29.2874 14.056L28.693 14.3992C28.647 14.5262 28.6254 14.6721 28.6254 14.8288C28.6254 15.4179 28.9091 16.0826 29.2982 16.4095C29.3171 16.4257 29.3252 16.4501 29.3171 16.4744C29.2253 16.8094 29.0929 17.104 28.9226 17.3472C28.9172 17.3553 28.9091 17.3607 28.901 17.3661L27.1068 18.401C27.1014 18.4037 27.0987 18.4064 27.0933 18.4064L25.6018 19.271C25.5937 19.2764 25.5856 19.2791 25.5748 19.2791C25.5126 19.2845 25.4478 19.2872 25.3802 19.2872ZM24.6912 19.0711C24.9938 19.1467 25.2829 19.1737 25.5505 19.1548L27.042 18.2929C27.0474 18.2902 27.0501 18.2875 27.0555 18.2875L28.8254 17.2661C28.9767 17.0445 29.0983 16.7797 29.182 16.4798C28.7821 16.1231 28.4957 15.4368 28.4957 14.8288C28.4957 14.6478 28.5227 14.4803 28.5795 14.3343C28.5849 14.3208 28.593 14.31 28.6065 14.3019L29.182 13.9696C29.0956 13.5697 28.9767 13.1671 28.8254 12.7698C28.4417 12.7861 27.9391 12.3564 27.5689 11.7133C27.2014 11.0784 27.0852 10.4136 27.2825 10.0975C27.0123 9.76785 26.7231 9.46252 26.4205 9.18961L25.8504 9.52196C25.8369 9.53007 25.8234 9.53277 25.8098 9.53007C25.6558 9.50575 25.4964 9.4463 25.337 9.35443C24.8101 9.0491 24.3588 8.46005 24.2481 7.93585C23.9454 7.86019 23.6563 7.83047 23.3888 7.85208L21.8973 8.71404C21.8918 8.71674 21.8891 8.71945 21.8837 8.71945L20.1139 9.74083C19.9626 9.9624 19.841 10.2272 19.7572 10.5244C20.1571 10.8811 20.4435 11.5674 20.4435 12.1754C20.4435 12.3564 20.4165 12.524 20.3598 12.6699C20.3544 12.6834 20.3463 12.6942 20.3328 12.7023L19.7572 13.0347C19.8437 13.4346 19.9626 13.8372 20.1139 14.2344C20.4841 14.2155 21.0056 14.6586 21.3704 15.2909C21.7432 15.9367 21.8567 16.5879 21.6568 16.9067C21.927 17.2364 22.2161 17.5417 22.5187 17.8146L23.0916 17.4823C23.1051 17.4741 23.1186 17.4714 23.1321 17.4741C23.2888 17.4985 23.4482 17.5579 23.605 17.6498C24.1319 17.9551 24.5831 18.5469 24.6912 19.0711ZM25.7936 15.8556C25.7855 15.8556 25.7801 15.8556 25.772 15.8529C25.6234 15.7989 25.4775 15.7313 25.3343 15.6503C24.0697 14.9207 23.0429 13.14 23.0402 11.6836C23.0402 11.5188 23.0537 11.3594 23.0835 11.2081C23.0862 11.1891 23.097 11.1729 23.1132 11.1648C23.1294 11.1567 23.1483 11.154 23.1645 11.1594C23.3131 11.2135 23.459 11.281 23.5996 11.3621C24.8641 12.0916 25.8936 13.8723 25.8936 15.3314C25.8936 15.4935 25.8801 15.653 25.8504 15.807C25.8477 15.8259 25.8369 15.8421 25.8207 15.8502C25.8153 15.8502 25.8044 15.8556 25.7936 15.8556ZM23.1969 11.2999C23.178 11.4215 23.1699 11.5485 23.1699 11.6782C23.1699 13.0968 24.1697 14.8261 25.3991 15.5368C25.5126 15.6016 25.6261 15.6584 25.745 15.7043C25.7639 15.58 25.772 15.4557 25.772 15.326C25.772 13.9074 24.7723 12.1781 23.5428 11.4675C23.4293 11.4026 23.3131 11.3459 23.1969 11.2999Z" fill="#171753"/>
<path d="M27.4635 15.0395C27.3716 14.6072 27.2446 14.1722 27.0771 13.7398C26.7339 13.7912 26.2097 13.3724 25.8314 12.7212C25.4531 12.0673 25.3532 11.4053 25.5693 11.1351C25.2802 10.7757 24.9668 10.446 24.6371 10.1515C24.5479 10.5541 24.1048 10.646 23.5725 10.3379C23.0375 10.0299 22.597 9.43005 22.5079 8.92206C22.1782 8.83559 21.8648 8.80317 21.5757 8.82748C21.7918 9.34628 21.6919 9.8948 21.3136 10.111C20.9353 10.3271 20.4111 10.1407 20.0679 9.69485C19.9031 9.93533 19.7734 10.2218 19.6815 10.5487C20.076 10.8811 20.3759 11.562 20.3759 12.178C20.3759 12.7941 20.076 13.1292 19.6815 13.0049C19.7707 13.4372 19.9004 13.8722 20.0679 14.3046C20.4084 14.2532 20.9353 14.6721 21.3109 15.3233C21.6892 15.9772 21.7891 16.6392 21.573 16.9094C21.8621 17.2687 22.1755 17.5984 22.5052 17.8929C22.5943 17.4903 23.0375 17.3984 23.5698 17.7065C24.1048 18.0145 24.5452 18.6144 24.6344 19.1224C24.9641 19.2088 25.2775 19.2413 25.5666 19.2169C25.3505 18.6981 25.4504 18.1496 25.8287 17.9335C26.207 17.7173 26.7312 17.9037 27.0717 18.3523C27.2392 18.1118 27.3662 17.8254 27.4581 17.4984C27.069 17.1634 26.769 16.4824 26.769 15.8664C26.769 15.2503 27.069 14.9152 27.4635 15.0395ZM25.8341 15.326C25.8341 16.7662 24.8209 17.3498 23.5725 16.6284C22.3241 15.9069 21.3109 14.156 21.3109 12.7158C21.3109 11.2756 22.3241 10.6919 23.5725 11.4134C24.8209 12.1348 25.8341 13.8858 25.8341 15.326Z" fill="#BEF0ED"/>
<path d="M25.3802 19.2872C25.1397 19.2872 24.883 19.2521 24.6209 19.1845C24.5966 19.1791 24.5804 19.1575 24.575 19.1332C24.4858 18.6333 24.0508 18.0551 23.5401 17.7605C23.3401 17.6443 23.151 17.5849 22.9862 17.5849C22.7619 17.5849 22.6133 17.6984 22.5673 17.9037C22.5619 17.9254 22.5457 17.9443 22.5241 17.9497C22.5025 17.9578 22.4809 17.9524 22.462 17.9362C22.1296 17.6389 21.8135 17.3066 21.5216 16.9445C21.5027 16.9202 21.5027 16.8878 21.5216 16.8661C21.7216 16.6148 21.6081 15.9637 21.2541 15.3503C20.9056 14.745 20.3976 14.3127 20.0733 14.3613C20.0436 14.3667 20.0166 14.3505 20.0058 14.3208C19.8382 13.8858 19.7085 13.4453 19.6167 13.013C19.6113 12.9914 19.6194 12.9671 19.6356 12.9535C19.6518 12.9373 19.6761 12.9346 19.6977 12.94C20.0544 13.0535 20.3111 12.7266 20.3111 12.1726C20.3111 11.5836 20.0274 10.9189 19.6383 10.5919C19.6194 10.5757 19.6113 10.5514 19.6194 10.5271C19.7112 10.192 19.8436 9.90021 20.0139 9.65432C20.0247 9.63811 20.0436 9.6273 20.0652 9.6273C20.0841 9.6246 20.1057 9.63541 20.1166 9.65162C20.3489 9.95425 20.6651 10.1353 20.9623 10.1353C21.0785 10.1353 21.1839 10.1083 21.2784 10.0542C21.6216 9.85698 21.7216 9.34899 21.5135 8.8491C21.5054 8.83019 21.5081 8.80857 21.5189 8.79236C21.5297 8.77615 21.5487 8.76264 21.5676 8.76264C21.8648 8.73832 22.1863 8.77074 22.5214 8.85991C22.5457 8.86532 22.5619 8.88693 22.5673 8.90855C22.6565 9.40843 23.0915 9.98668 23.6022 10.2812C23.8022 10.3947 23.9913 10.4568 24.1561 10.4568C24.3804 10.4568 24.529 10.3433 24.575 10.138C24.5804 10.1164 24.5966 10.0975 24.6182 10.0921C24.6398 10.0867 24.6641 10.0894 24.6803 10.1056C25.0127 10.4028 25.3288 10.7351 25.6207 11.0972C25.6396 11.1215 25.6396 11.154 25.6207 11.1756C25.418 11.4269 25.5342 12.0781 25.8882 12.6914C26.2367 13.2967 26.7501 13.729 27.069 13.6804C27.0987 13.675 27.1257 13.6912 27.1365 13.7209C27.3014 14.1452 27.4284 14.5802 27.5202 15.0125C27.5256 15.0206 27.5283 15.0314 27.5283 15.0449C27.5283 15.0801 27.5013 15.1071 27.4635 15.1071C27.4554 15.1071 27.45 15.1071 27.4419 15.1044C27.0852 14.9909 26.8285 15.3179 26.8285 15.8718C26.8285 16.4608 27.1122 17.1255 27.5013 17.4525C27.5202 17.4687 27.5283 17.493 27.5202 17.5173C27.4284 17.8524 27.296 18.1469 27.1257 18.3901C27.1149 18.4063 27.096 18.4171 27.0744 18.4171C27.0528 18.4171 27.0339 18.409 27.023 18.3928C26.7907 18.0902 26.4745 17.9091 26.1773 17.9091C26.0611 17.9091 25.9557 17.9362 25.8612 17.9902C25.518 18.1875 25.418 18.6954 25.6261 19.1953C25.6342 19.2142 25.6315 19.2359 25.6207 19.2521C25.6099 19.2683 25.5909 19.2791 25.572 19.2818C25.5126 19.2845 25.4477 19.2872 25.3802 19.2872ZM24.6912 19.071C24.9668 19.1413 25.2343 19.171 25.4802 19.1575C25.291 18.6252 25.4207 18.0956 25.799 17.8767C25.9125 17.8119 26.0395 17.7767 26.1773 17.7767C26.4907 17.7767 26.8204 17.9497 27.069 18.2415C27.2014 18.0334 27.3095 17.7902 27.3878 17.5146C26.9879 17.158 26.7015 16.4716 26.7015 15.8637C26.7015 15.2773 26.9825 14.899 27.377 14.9531C27.2905 14.5694 27.1744 14.183 27.0311 13.8047C26.6583 13.8155 26.1449 13.3913 25.7747 12.7482C25.4072 12.1132 25.291 11.4485 25.4883 11.1324C25.2316 10.8189 24.956 10.5244 24.6641 10.2596C24.5831 10.4649 24.3993 10.5784 24.1534 10.5784C23.9697 10.5784 23.7562 10.5109 23.5374 10.3866C23.0105 10.0812 22.5592 9.4922 22.4484 8.968C22.1728 8.89774 21.9053 8.86802 21.6594 8.87883C21.8486 9.41113 21.7189 9.94074 21.3406 10.1596C21.2271 10.2245 21.1001 10.2596 20.9623 10.2596C20.6489 10.2596 20.3192 10.0867 20.0706 9.79483C19.9382 10.0029 19.8301 10.2488 19.7518 10.5217C20.1517 10.8784 20.4381 11.5647 20.4381 12.1726C20.4381 12.759 20.1544 13.14 19.7626 13.0832C19.8463 13.4642 19.9625 13.8506 20.1084 14.2316C20.4786 14.2127 21.0001 14.6558 21.3649 15.2881C21.7378 15.9339 21.8513 16.5851 21.6513 16.904C21.908 17.2201 22.1863 17.5119 22.4755 17.7767C22.5565 17.5714 22.7403 17.4579 22.9862 17.4579C23.1726 17.4579 23.3834 17.5254 23.6022 17.6497C24.1318 17.9551 24.5831 18.5468 24.6912 19.071ZM24.5831 17.0012C24.2561 17.0012 23.9049 16.8959 23.5401 16.6824C22.2755 15.9528 21.2487 14.1722 21.2487 12.7131C21.2487 12.2051 21.373 11.7808 21.6108 11.4836C22.0404 10.9459 22.8051 10.8919 23.6049 11.3539C24.8695 12.0835 25.899 13.8641 25.899 15.3233C25.8963 16.3446 25.3802 17.0012 24.5831 17.0012ZM22.5619 11.1675C22.2107 11.1675 21.9161 11.3053 21.7081 11.5674C21.4892 11.8403 21.3757 12.2375 21.3757 12.7158C21.3757 14.1344 22.3755 15.8637 23.6049 16.5743C23.9508 16.7743 24.2804 16.8742 24.5831 16.8742C25.3153 16.8742 25.7693 16.2798 25.7693 15.326C25.7693 13.9074 24.7695 12.1781 23.5401 11.4674C23.1942 11.2675 22.8673 11.1675 22.5619 11.1675Z" fill="#171753"/>
<path d="M27.4635 15.1017C27.4419 15.1017 27.4203 15.0909 27.4095 15.0693C27.3933 15.0396 27.4014 15.0017 27.4338 14.9828L29.228 13.9479C29.2577 13.9317 29.2955 13.9398 29.3144 13.9722C29.3306 14.002 29.3225 14.0398 29.2901 14.0587L27.4959 15.0936C27.4851 15.099 27.4743 15.1017 27.4635 15.1017Z" fill="#171753"/>
<path d="M27.0771 13.802C27.0555 13.802 27.0338 13.7912 27.023 13.7695C27.0068 13.7398 27.0149 13.702 27.0474 13.6831L28.8415 12.6482C28.8713 12.632 28.9091 12.6401 28.928 12.6725C28.9442 12.7022 28.9361 12.7401 28.9037 12.759L27.1095 13.7939C27.0987 13.7993 27.0879 13.802 27.0771 13.802Z" fill="#171753"/>
<path d="M27.4635 17.5579C27.4419 17.5579 27.4203 17.5471 27.4095 17.5255C27.3933 17.4957 27.4014 17.4579 27.4338 17.439L29.228 16.4041C29.2577 16.3879 29.2955 16.396 29.3144 16.4284C29.3306 16.4581 29.3225 16.496 29.2901 16.5149L27.4959 17.5498C27.4851 17.5552 27.4743 17.5579 27.4635 17.5579Z" fill="#171753"/>
<path d="M25.5693 11.1972C25.5477 11.1972 25.5261 11.1864 25.5153 11.1648C25.4991 11.1351 25.5072 11.0973 25.5396 11.0783L27.3338 10.0434C27.3635 10.0272 27.4013 10.0353 27.4202 10.0678C27.4364 10.0975 27.4283 10.1353 27.3959 10.1542L25.6017 11.1891C25.5936 11.1918 25.5801 11.1972 25.5693 11.1972Z" fill="#171753"/>
<path d="M24.6371 10.2136C24.6155 10.2136 24.5939 10.2028 24.5831 10.1812C24.5669 10.1515 24.575 10.1137 24.6074 10.0948L26.4016 9.05986C26.4313 9.04365 26.4691 9.05176 26.4881 9.08418C26.5043 9.11391 26.4962 9.15173 26.4637 9.17065L24.6696 10.2055C24.6588 10.2109 24.6479 10.2136 24.6371 10.2136Z" fill="#171753"/>
<path d="M22.5079 8.98426C22.4863 8.98426 22.4647 8.97345 22.4539 8.95183C22.4377 8.92211 22.4458 8.88428 22.4782 8.86537L24.2724 7.83047C24.3021 7.81156 24.3399 7.82237 24.3588 7.85479C24.375 7.88452 24.3669 7.92234 24.3345 7.94126L22.5403 8.97615C22.5295 8.97885 22.5187 8.98426 22.5079 8.98426Z" fill="#171753"/>
<path d="M25.8315 17.9306C26.2098 17.7144 26.734 17.9009 27.0744 18.3494C27.0744 18.3494 27.0744 18.3494 27.0744 18.3467L25.5721 19.2168C25.3559 18.6953 25.4532 18.1495 25.8315 17.9306Z" fill="#171753"/>
<path d="M25.5721 19.279C25.564 19.279 25.5586 19.279 25.5532 19.2763C25.537 19.2709 25.5235 19.2574 25.5153 19.2412C25.283 18.6819 25.4046 18.109 25.8045 17.8766C25.918 17.8118 26.0449 17.7767 26.1828 17.7767C26.5151 17.7767 26.8637 17.9712 27.1204 18.2982C27.1366 18.309 27.1474 18.3279 27.1474 18.3495C27.1474 18.3792 27.1258 18.4063 27.0961 18.4117L25.6018 19.2709C25.5937 19.2763 25.5829 19.279 25.5721 19.279ZM26.1801 17.9037C26.0639 17.9037 25.9585 17.9307 25.8639 17.9847C25.5343 18.1739 25.4316 18.644 25.6018 19.1223L26.9799 18.3279C26.7529 18.0631 26.4584 17.9037 26.1801 17.9037Z" fill="#171753"/>
<path d="M26.769 15.8662C26.769 15.2501 27.0689 14.9151 27.4634 15.0394L28.6415 14.3585C28.5929 14.4882 28.5632 14.6449 28.5632 14.8313C28.5632 15.4474 28.8631 16.1283 29.2576 16.4607L27.4634 17.4956C27.0689 17.1632 26.769 16.4823 26.769 15.8662Z" fill="#9BE7C4"/>
<path d="M27.4634 17.5578C27.4499 17.5578 27.4337 17.5524 27.4229 17.5443C27.0068 17.1958 26.7069 16.4905 26.7069 15.8663C26.7069 15.3178 26.9473 14.9503 27.3067 14.9503C27.3554 14.9503 27.4067 14.9584 27.4553 14.972L28.6118 14.3045C28.6361 14.291 28.6632 14.2937 28.6848 14.31C28.7064 14.3262 28.7118 14.3559 28.7037 14.3802C28.655 14.5126 28.628 14.6639 28.628 14.8315C28.628 15.4205 28.9117 16.0852 29.3008 16.4122C29.3171 16.4257 29.3252 16.4446 29.3225 16.4662C29.3198 16.4878 29.3089 16.504 29.29 16.5148L27.4959 17.5497C27.4851 17.5551 27.4742 17.5578 27.4634 17.5578ZM27.304 15.0746C27.0176 15.0746 26.8312 15.3854 26.8312 15.8636C26.8312 16.4365 27.0987 17.0796 27.4688 17.4146L29.1495 16.4446C28.7685 16.0825 28.4983 15.4205 28.4983 14.8288C28.4983 14.7099 28.5091 14.5964 28.5335 14.491L27.4932 15.0936C27.4769 15.1017 27.458 15.1044 27.4418 15.099C27.3959 15.0827 27.3499 15.0746 27.304 15.0746Z" fill="#171753"/>
<path d="M27.4635 17.4959L29.2577 16.461C29.1685 16.7907 29.0388 17.0771 28.8713 17.3149L27.0771 18.3497C27.2419 18.1093 27.3716 17.8228 27.4635 17.4959Z" fill="#171753"/>
<path d="M27.0771 18.4118C27.0609 18.4118 27.042 18.4037 27.0311 18.3902C27.0122 18.3686 27.0095 18.3361 27.0257 18.3118C27.1879 18.0794 27.3149 17.7984 27.404 17.4769C27.4094 17.4607 27.4202 17.4472 27.4338 17.4391L29.2279 16.4042C29.2495 16.3906 29.2766 16.3933 29.2982 16.4096C29.3171 16.4258 29.3279 16.4501 29.3198 16.4771C29.2279 16.8122 29.0955 17.1067 28.9253 17.3499C28.9199 17.358 28.9118 17.3634 28.9037 17.3688L27.1095 18.4037C27.0987 18.4091 27.0879 18.4118 27.0771 18.4118ZM27.5175 17.5363C27.4527 17.7687 27.3662 17.9795 27.2635 18.1686L28.828 17.2661C28.9604 17.0716 29.0685 16.8473 29.1523 16.5933L27.5175 17.5363Z" fill="#171753"/>
<path d="M25.7612 14.6449L24.3912 15.4366C24.1805 15.5555 23.894 15.5393 23.5725 15.3555C22.9321 14.988 22.416 14.091 22.416 13.3533C22.416 12.9858 22.5457 12.7264 22.7565 12.6048L24.1264 11.8131C24.9289 12.5102 25.5585 13.6019 25.7612 14.6449Z" fill="#171753"/>
<path d="M24.0886 15.5772C23.9156 15.5772 23.7319 15.5205 23.5401 15.4097C22.8835 15.0314 22.3512 14.11 22.3512 13.3534C22.3512 12.9724 22.4836 12.6887 22.7213 12.5509L24.094 11.7592C24.1183 11.7457 24.1453 11.7484 24.1669 11.7673C24.983 12.4752 25.618 13.575 25.826 14.6342C25.8314 14.6612 25.8179 14.6882 25.7963 14.7017L24.4236 15.4934C24.4209 15.4934 24.4209 15.4961 24.4182 15.4961C24.3183 15.5502 24.2102 15.5772 24.0886 15.5772ZM24.1183 11.8916L22.7862 12.659C22.5862 12.7725 22.4781 13.021 22.4781 13.3534C22.4781 14.0694 22.9834 14.9449 23.6022 15.3016C23.8886 15.4664 24.1588 15.4961 24.3561 15.3826C24.3588 15.3826 24.3588 15.3799 24.3615 15.3799L25.6882 14.6126C25.4855 13.6074 24.8857 12.5725 24.1183 11.8916Z" fill="#171753"/>
<path d="M23.5725 12.686C22.9321 12.3158 22.416 12.6157 22.416 13.3534C22.416 14.0911 22.9348 14.9882 23.5725 15.3556C24.2129 15.7258 24.729 15.4259 24.729 14.6882C24.729 13.9506 24.2129 13.0562 23.5725 12.686Z" fill="#BEF0ED"/>
<path d="M24.0913 15.5773C23.9184 15.5773 23.7346 15.5205 23.5428 15.4097C22.8862 15.0314 22.3539 14.11 22.3539 13.3535C22.3539 13.086 22.4187 12.8617 22.5457 12.705C22.7754 12.4185 23.1834 12.3861 23.6049 12.632C24.2615 13.0103 24.7938 13.9344 24.7938 14.691C24.7938 14.9585 24.729 15.1828 24.602 15.3395C24.475 15.4935 24.2994 15.5773 24.0913 15.5773ZM23.0564 12.5915C22.8862 12.5915 22.743 12.659 22.643 12.7833C22.5349 12.9184 22.4782 13.113 22.4782 13.3535C22.4782 14.0695 22.9834 14.945 23.6022 15.3017C23.7725 15.3989 23.94 15.453 24.0886 15.453C24.2588 15.453 24.3993 15.3854 24.502 15.2611C24.6101 15.126 24.6668 14.9315 24.6668 14.691C24.6668 13.9749 24.1616 13.1022 23.5401 12.7428C23.3725 12.6428 23.2023 12.5915 23.0564 12.5915Z" fill="#171753"/>
<path d="M33.0892 21.2164L31.6544 22.046C31.3869 22.0271 31.1086 21.9514 30.8221 21.8244C30.76 21.384 30.4384 20.8192 29.9845 20.4166C29.5306 20.0167 29.0901 19.9005 28.8604 20.0816C28.747 19.9195 28.6335 19.7492 28.5308 19.5709C28.4281 19.3926 28.3362 19.2115 28.2525 19.0305C28.5254 18.9224 28.647 18.4847 28.5254 17.8902C28.4038 17.2957 28.0768 16.7364 27.7256 16.4608C27.7553 16.1501 27.831 15.8718 27.9498 15.6313L29.7413 14.5964L31.1761 13.7668C31.4436 13.7858 31.7219 13.8587 32.0083 13.9884C32.0705 14.4316 32.392 14.9936 32.846 15.3962C33.2999 15.7988 33.7404 15.9123 33.9701 15.7285C34.0862 15.8907 34.197 16.0609 34.2997 16.2392C34.4024 16.4176 34.4943 16.6013 34.578 16.7797C34.3051 16.8877 34.1835 17.3255 34.3051 17.9199C34.4267 18.5117 34.7537 19.0737 35.1076 19.3493C35.0779 19.6601 35.0022 19.9384 34.8833 20.1789L33.0892 21.2164C33.0919 21.2192 33.0892 21.2164 33.0892 21.2164Z" fill="#49CE8B"/>
<path d="M31.6544 22.1081C31.6517 22.1081 31.6517 22.1081 31.649 22.1081C31.3734 22.0892 31.087 22.0136 30.7952 21.8812C30.7762 21.8731 30.7627 21.8542 30.76 21.8325C30.6979 21.3921 30.3709 20.8436 29.944 20.4626C29.5387 20.1032 29.1064 19.9681 28.901 20.1302C28.8875 20.141 28.8713 20.1464 28.8524 20.1437C28.8362 20.141 28.8199 20.1329 28.8091 20.1167C28.6767 19.9276 28.5686 19.7628 28.4768 19.6006C28.3822 19.4358 28.2903 19.2575 28.1958 19.0548C28.1877 19.0386 28.1877 19.0197 28.1931 19.0035C28.1985 18.9873 28.212 18.9737 28.2282 18.9683C28.4795 18.8684 28.5741 18.4414 28.4633 17.901C28.3498 17.3417 28.0363 16.7824 27.6851 16.5095C27.6689 16.4959 27.6581 16.4743 27.6608 16.4527C27.6905 16.1366 27.7688 15.8502 27.8904 15.6016C27.8958 15.5908 27.9039 15.5799 27.9147 15.5745L29.7089 14.5397C29.7143 14.5369 29.717 14.5342 29.7224 14.5342L31.1464 13.7128C31.1572 13.7074 31.1707 13.7047 31.1815 13.7047C31.4545 13.7236 31.7409 13.7993 32.0354 13.9317C32.0543 13.9398 32.0678 13.9587 32.0705 13.9803C32.1327 14.4208 32.4596 14.972 32.8866 15.3503C33.2892 15.7096 33.7242 15.8448 33.9296 15.6826C33.9431 15.6718 33.9593 15.6664 33.9782 15.6691C33.9944 15.6718 34.0106 15.6799 34.0214 15.6961C34.1484 15.8772 34.2592 16.0474 34.3538 16.2122C34.4483 16.3771 34.5402 16.5554 34.6348 16.758C34.6429 16.7743 34.6429 16.7932 34.6348 16.8067C34.6294 16.8229 34.6159 16.8364 34.5997 16.8418C34.3484 16.9391 34.2538 17.3687 34.3646 17.9091C34.4781 18.4685 34.7915 19.0278 35.1428 19.3007C35.159 19.3142 35.1698 19.3358 35.1671 19.3574C35.1347 19.6763 35.059 19.9627 34.9374 20.2086C34.932 20.2194 34.9239 20.2302 34.9131 20.2356L33.1189 21.2705C33.1135 21.2732 33.1108 21.2759 33.1054 21.2759L31.6868 22.1C31.676 22.1054 31.6652 22.1081 31.6544 22.1081ZM30.8789 21.7785C31.1383 21.892 31.395 21.9595 31.6382 21.9811L33.0568 21.1624C33.0622 21.1597 33.0649 21.157 33.0703 21.157L34.8347 20.1383C34.9401 19.9195 35.0104 19.6628 35.0401 19.3818C34.678 19.0845 34.3619 18.509 34.243 17.9389C34.1268 17.3687 34.2241 16.9148 34.4943 16.758C34.4105 16.5797 34.3295 16.423 34.2457 16.2771C34.1592 16.1312 34.0647 15.9799 33.9539 15.8204C33.8836 15.861 33.7971 15.8799 33.7026 15.8799C33.4378 15.8799 33.1189 15.7259 32.8028 15.4448C32.3596 15.053 32.0273 14.5018 31.9489 14.0344C31.6868 13.9209 31.4328 13.8506 31.1897 13.8344L29.7711 14.6531C29.7657 14.6558 29.763 14.6585 29.7576 14.6585L27.9958 15.6772C27.8904 15.8988 27.8202 16.1528 27.7905 16.4338C28.1525 16.731 28.4687 17.3066 28.5876 17.8767C28.7038 18.4468 28.6065 18.9008 28.3363 19.0575C28.42 19.2331 28.5011 19.3926 28.5876 19.5385C28.6713 19.6817 28.7632 19.8303 28.8794 19.9951C28.9496 19.9546 29.0361 19.9357 29.1307 19.9357C29.3955 19.9357 29.7143 20.0897 30.0305 20.3707C30.4628 20.7571 30.8033 21.3191 30.8789 21.7785Z" fill="#171753"/>
<path d="M32.5082 17.2794C32.4028 17.1011 32.2921 16.9308 32.1786 16.7687C31.9489 16.9525 31.5057 16.8363 31.0545 16.4364C30.6006 16.0337 30.279 15.4717 30.2169 15.0286C29.9304 14.8989 29.6521 14.8259 29.3846 14.807C29.5062 15.2664 29.3927 15.7095 29.0604 15.9013C28.728 16.0932 28.2849 15.9689 27.9498 15.6338C27.8336 15.8743 27.758 16.1526 27.7256 16.4634C28.0768 16.7363 28.4038 17.2983 28.5254 17.8928C28.647 18.4845 28.5254 18.925 28.2525 19.033C28.3362 19.2141 28.4281 19.3951 28.5308 19.5735C28.6335 19.7518 28.7469 19.922 28.8604 20.0841C29.0901 19.9031 29.5332 20.0166 29.9845 20.4192C30.4384 20.8218 30.76 21.3865 30.8221 21.827C31.1058 21.9567 31.3869 22.0296 31.6544 22.0486C31.5328 21.5892 31.6463 21.1434 31.9786 20.9542C32.311 20.7624 32.7541 20.8867 33.0892 21.2217C33.2081 20.9812 33.281 20.7029 33.3134 20.3922C32.9622 20.1166 32.6325 19.5572 32.5109 18.9628C32.3893 18.371 32.5109 17.9306 32.7838 17.8225C32.7028 17.6388 32.6136 17.4577 32.5082 17.2794ZM31.3706 17.9333C31.8408 18.7493 31.8408 19.6275 31.3706 19.9004C30.9005 20.1706 30.1358 19.7329 29.6656 18.9169C29.1955 18.1035 29.1955 17.2227 29.6656 16.9524C30.1385 16.6795 30.9005 17.12 31.3706 17.9333Z" fill="#BEF0ED"/>
<path d="M31.6544 22.1081C31.6517 22.1081 31.6517 22.1081 31.649 22.1081C31.3734 22.0892 31.087 22.0135 30.7951 21.8811C30.7762 21.873 30.7627 21.8541 30.76 21.8325C30.6979 21.3921 30.3709 20.8436 29.944 20.4626C29.5387 20.1032 29.1064 19.9681 28.901 20.1302C28.8875 20.141 28.8713 20.1464 28.8524 20.1437C28.8361 20.141 28.8199 20.1329 28.8091 20.1167C28.6767 19.9276 28.5686 19.7627 28.4768 19.6006C28.3822 19.4358 28.2903 19.2574 28.1958 19.0548C28.1876 19.0386 28.1876 19.0197 28.1931 19.0034C28.1985 18.9872 28.212 18.9737 28.2282 18.9683C28.4795 18.8683 28.574 18.4414 28.4633 17.901C28.3498 17.3417 28.0363 16.7823 27.6851 16.5094C27.6689 16.4959 27.658 16.4743 27.6607 16.4527C27.6905 16.1365 27.7688 15.8501 27.8904 15.6015C27.8985 15.5826 27.9174 15.5718 27.9364 15.5664C27.9553 15.561 27.9769 15.5691 27.9904 15.5853C28.3092 15.9042 28.7335 16.0123 29.0253 15.842C29.3198 15.6718 29.4387 15.2611 29.3198 14.8179C29.3144 14.799 29.3198 14.7774 29.3333 14.7612C29.3468 14.745 29.3658 14.7369 29.3874 14.7369C29.6603 14.7558 29.9467 14.8314 30.2412 14.9639C30.2601 14.972 30.2736 14.9909 30.2763 15.0125C30.3385 15.4529 30.6654 16.0014 31.0924 16.3824C31.4977 16.7418 31.93 16.8769 32.1354 16.7148C32.1489 16.704 32.1678 16.6986 32.184 16.7013C32.2002 16.704 32.2164 16.7121 32.2272 16.7283C32.3569 16.9147 32.465 17.0823 32.5596 17.2444C32.6542 17.4092 32.746 17.5876 32.8406 17.7902C32.8487 17.8064 32.8487 17.8253 32.8406 17.8389C32.8352 17.8551 32.8217 17.8686 32.8055 17.874C32.5542 17.9713 32.4596 18.4009 32.5704 18.9413C32.6839 19.5006 32.9973 20.06 33.3486 20.3329C33.3648 20.3464 33.3756 20.368 33.3729 20.3896C33.3405 20.7084 33.2648 20.9949 33.1432 21.2408C33.1351 21.2597 33.1162 21.2705 33.0973 21.2759C33.0757 21.2786 33.0568 21.2732 33.0433 21.2597C32.7244 20.9408 32.3002 20.8327 32.0084 21.003C31.7166 21.1705 31.5977 21.5731 31.7084 22.0081C31.7138 22.019 31.7193 22.0298 31.7193 22.0433C31.7193 22.0811 31.6895 22.1081 31.6544 22.1081ZM30.8789 21.7785C31.1167 21.8838 31.3491 21.9487 31.5733 21.973C31.4788 21.5083 31.6247 21.0813 31.9489 20.8949C32.2705 20.7112 32.7217 20.8003 33.0703 21.1111C33.1595 20.9057 33.2189 20.6706 33.2486 20.4139C32.8865 20.1167 32.5704 19.5412 32.4515 18.971C32.3353 18.4009 32.4326 17.9469 32.7028 17.7902C32.619 17.6119 32.538 17.4552 32.4515 17.3092C32.3677 17.166 32.2732 17.0147 32.1597 16.8526C32.0894 16.8931 32.003 16.912 31.9084 16.912C31.6436 16.912 31.3248 16.758 31.0086 16.477C30.5709 16.0906 30.2331 15.5286 30.1548 15.0665C29.917 14.9611 29.6846 14.8963 29.463 14.872C29.5576 15.3367 29.4144 15.7637 29.0874 15.9501C28.7659 16.1338 28.3146 16.0447 27.9634 15.7339C27.8742 15.9393 27.8148 16.1744 27.785 16.4311C28.1471 16.7283 28.4633 17.3038 28.5822 17.874C28.6983 18.4441 28.6011 18.8981 28.3309 19.0548C28.4146 19.2304 28.4957 19.3898 28.5822 19.5358C28.6659 19.679 28.7578 19.8276 28.874 19.9924C28.9442 19.9519 29.0307 19.933 29.1253 19.933C29.3901 19.933 29.7089 20.087 30.0251 20.368C30.4628 20.7571 30.8033 21.3191 30.8789 21.7785ZM31.0599 20.0437C30.5736 20.0437 29.9926 19.6033 29.6143 18.9494C29.3036 18.409 29.182 17.8064 29.2955 17.3768C29.3549 17.1579 29.4738 16.9904 29.636 16.8958C29.7386 16.8364 29.8548 16.8067 29.9791 16.8067C30.4655 16.8067 31.0464 17.2471 31.4247 17.901C31.7355 18.4414 31.8598 19.044 31.7436 19.4736C31.6841 19.6925 31.5679 19.86 31.4031 19.9546C31.3004 20.014 31.1842 20.0437 31.0599 20.0437ZM29.9818 16.9337C29.8764 16.9337 29.7819 16.958 29.7008 17.0039C29.5657 17.0823 29.4684 17.2201 29.4171 17.4065C29.309 17.8064 29.4279 18.3712 29.7224 18.8818C30.0791 19.5006 30.6168 19.914 31.0599 19.914C31.1653 19.914 31.2599 19.8897 31.341 19.8438C31.4761 19.7654 31.5733 19.6276 31.6247 19.4412C31.7328 19.0413 31.6139 18.4765 31.3193 17.9658C30.96 17.3471 30.4223 16.9337 29.9818 16.9337Z" fill="#171753"/>
<path d="M33.3134 20.4517C33.2918 20.4517 33.2702 20.4409 33.2594 20.4193C33.2432 20.3896 33.2513 20.3518 33.2837 20.3329L35.0779 19.298C35.1076 19.2817 35.1454 19.2899 35.1644 19.3223C35.1806 19.352 35.1725 19.3898 35.14 19.4087L33.3459 20.4436C33.3351 20.449 33.3243 20.4517 33.3134 20.4517Z" fill="#171753"/>
<path d="M31.9786 20.9517C32.311 20.7598 32.7541 20.8841 33.0891 21.2165L31.6543 22.046C31.5328 21.5867 31.6462 21.1408 31.9786 20.9517Z" fill="#171753"/>
<path d="M31.6544 22.1082C31.6463 22.1082 31.6382 22.1055 31.6301 22.1028C31.6111 22.0947 31.5976 22.0785 31.5922 22.0595C31.4598 21.5597 31.6003 21.0922 31.9462 20.8949C32.2867 20.6977 32.773 20.8139 33.1324 21.1706C33.1459 21.1841 33.154 21.203 33.1513 21.2246C33.1486 21.2435 33.1378 21.2624 33.1216 21.2705L31.6868 22.1001C31.676 22.1055 31.6652 22.1082 31.6544 22.1082ZM32.3272 20.9247C32.211 20.9247 32.1056 20.9517 32.0111 21.0057C31.7327 21.1652 31.6138 21.538 31.6976 21.9488L32.9865 21.2057C32.7811 21.0246 32.5461 20.9247 32.3272 20.9247Z" fill="#171753"/>
<path d="M33.3134 20.3895L35.1076 19.3546C35.0779 19.6654 35.0022 19.9437 34.8833 20.1841L33.0919 21.219C33.2081 20.9786 33.2837 20.6975 33.3134 20.3895Z" fill="#171753"/>
<path d="M33.0918 21.2814C33.0756 21.2814 33.0621 21.276 33.0486 21.2652C33.027 21.2463 33.0216 21.2165 33.0351 21.1922C33.1486 20.9598 33.2215 20.6869 33.254 20.3843C33.2567 20.3627 33.2675 20.3465 33.2864 20.3357L35.0806 19.3008C35.0995 19.29 35.1265 19.29 35.1454 19.3035C35.1643 19.317 35.1751 19.3386 35.1751 19.3629C35.1427 19.6818 35.0671 19.9682 34.9455 20.2141C34.9401 20.2249 34.932 20.2357 34.9211 20.2411L33.127 21.276C33.1135 21.2787 33.1027 21.2814 33.0918 21.2814ZM33.3729 20.4275C33.3485 20.6599 33.2972 20.8761 33.2243 21.0679L34.8374 20.1384C34.932 19.9412 34.9968 19.7196 35.0319 19.471L33.3729 20.4275Z" fill="#171753"/>
<path d="M32.7865 17.8849C32.7649 17.8849 32.7433 17.8741 32.7325 17.8525C32.7163 17.8228 32.7244 17.7849 32.7568 17.766L34.551 16.7311C34.5807 16.7149 34.6185 16.723 34.6375 16.7554C34.6537 16.7852 34.6456 16.823 34.6131 16.8419L32.819 17.8768C32.8082 17.8822 32.7974 17.8849 32.7865 17.8849Z" fill="#171753"/>
<path d="M32.1786 16.8311C32.157 16.8311 32.1353 16.8203 32.1245 16.7987C32.1083 16.7689 32.1164 16.7311 32.1488 16.7122L33.943 15.6773C33.9727 15.6611 34.0106 15.6692 34.0295 15.7016C34.0457 15.7313 34.0376 15.7692 34.0052 15.7881L32.211 16.823C32.2002 16.8284 32.1894 16.8311 32.1786 16.8311Z" fill="#171753"/>
<path d="M30.2169 15.0881C30.1952 15.0881 30.1736 15.0773 30.1628 15.0557C30.1466 15.026 30.1547 14.9881 30.1871 14.9692L31.9813 13.9343C32.011 13.9181 32.0489 13.9262 32.0678 13.9586C32.084 13.9884 32.0759 14.0262 32.0435 14.0451L30.2493 15.08C30.2385 15.0854 30.2277 15.0881 30.2169 15.0881Z" fill="#171753"/>
<path d="M30.806 18.9198C30.6493 19.0089 30.3926 18.863 30.2358 18.5901C30.0791 18.3172 30.0791 18.0227 30.2358 17.9308L31.0383 17.4688C31.1599 17.6039 31.2734 17.7606 31.3734 17.9335C31.4734 18.1064 31.5517 18.2821 31.6085 18.455L30.806 18.9198Z" fill="#171753"/>
<path d="M30.7006 19.0089C30.5196 19.0089 30.3169 18.8576 30.1791 18.6198C30.0683 18.4253 30.0251 18.2172 30.0683 18.0605C30.0899 17.9767 30.1386 17.9119 30.2034 17.874L31.0059 17.412C31.0302 17.3958 31.0654 17.4012 31.0843 17.4255C31.214 17.5687 31.3275 17.7308 31.4275 17.9011C31.5247 18.0713 31.6058 18.2496 31.6679 18.4361C31.6787 18.4658 31.6652 18.4955 31.6409 18.5117L30.8357 18.9738C30.7952 18.9981 30.7492 19.0089 30.7006 19.0089ZM31.0221 17.5471L30.2656 17.9848C30.2304 18.0064 30.2034 18.0416 30.1899 18.0956C30.1575 18.2199 30.1953 18.3955 30.2872 18.5577C30.4196 18.79 30.6493 18.9359 30.7708 18.8657L31.5274 18.428C31.4707 18.2685 31.4004 18.1145 31.314 17.9659C31.2302 17.8173 31.1329 17.6768 31.0221 17.5471Z" fill="#171753"/>
<path d="M30.2331 17.9306C30.0764 18.0224 30.0764 18.317 30.2331 18.5899C30.3898 18.8628 30.6465 19.0114 30.8033 18.9195C30.96 18.8277 30.9627 18.5331 30.8033 18.2602C30.6465 17.9873 30.3925 17.8387 30.2331 17.9306Z" fill="#BEF0ED"/>
<path d="M30.7006 19.0089C30.5196 19.0089 30.3169 18.8576 30.1791 18.6198C30.0683 18.4253 30.0251 18.2172 30.0683 18.0605C30.0899 17.9767 30.1386 17.9119 30.2034 17.8741C30.3872 17.7687 30.6898 17.9281 30.86 18.228C30.9708 18.4199 31.014 18.6306 30.9708 18.7874C30.9492 18.8711 30.9005 18.936 30.8357 18.9738C30.7952 18.9981 30.7492 19.0089 30.7006 19.0089ZM30.3385 17.9659C30.3115 17.9659 30.2872 17.9713 30.2656 17.9848C30.2304 18.0065 30.2034 18.0416 30.1899 18.0956C30.1575 18.2199 30.1953 18.3956 30.2872 18.5577C30.398 18.7495 30.5682 18.8819 30.6979 18.8819C30.7249 18.8819 30.7492 18.8765 30.7708 18.863C30.806 18.8414 30.833 18.8063 30.8465 18.7522C30.8789 18.6279 30.8411 18.4523 30.7492 18.2902C30.6411 18.101 30.4709 17.9659 30.3385 17.9659Z" fill="#171753"/>
</svg>
