<svg width="44" height="41" viewBox="0 0 44 41" fill="none" xmlns="http://www.w3.org/2000/svg">
<g style="mix-blend-mode:lighten">
<path d="M20.2792 16.7968C20.1653 16.7923 20.0544 16.7583 19.9575 16.6983L17.7018 15.3978L17.7361 15.3378L19.9897 16.6383C20.0491 16.6974 20.1262 16.7354 20.2093 16.7466C20.2924 16.7577 20.3768 16.7414 20.4497 16.7001C20.5226 16.6588 20.58 16.5949 20.6131 16.5179C20.6462 16.441 20.6532 16.3553 20.633 16.2741V15.7299C20.6147 15.638 20.6256 15.5428 20.6642 15.4574C20.7027 15.3721 20.7669 15.3008 20.8479 15.2537C20.9288 15.2065 21.0225 15.1857 21.1158 15.1943C21.2091 15.2028 21.2974 15.2403 21.3684 15.3014L21.8381 15.5735L21.8059 15.6313L21.3341 15.3592C21.2738 15.3046 21.1977 15.2706 21.1168 15.2621C21.0359 15.2536 20.9544 15.2709 20.884 15.3117C20.8137 15.3525 20.758 15.4145 20.7253 15.4889C20.6925 15.5633 20.6842 15.6462 20.7016 15.7256V16.2741C20.7112 16.3646 20.6964 16.4561 20.6587 16.539C20.621 16.6219 20.5618 16.6931 20.4872 16.7454C20.4242 16.7822 20.352 16.8 20.2792 16.7968Z" fill="#FFA54B"/>
<path d="M20.2792 16.7968C20.1653 16.7923 20.0544 16.7583 19.9575 16.6983L17.7018 15.3978L17.7361 15.3378L19.9897 16.6383C20.0491 16.6974 20.1262 16.7354 20.2093 16.7466C20.2924 16.7577 20.3768 16.7414 20.4497 16.7001C20.5226 16.6588 20.58 16.5949 20.6131 16.5179C20.6462 16.441 20.6532 16.3553 20.633 16.2741V15.7299C20.6147 15.638 20.6256 15.5428 20.6642 15.4574C20.7027 15.3721 20.7669 15.3008 20.8479 15.2537C20.9288 15.2065 21.0225 15.1857 21.1158 15.1943C21.2091 15.2028 21.2974 15.2403 21.3684 15.3014L21.8381 15.5735L21.8059 15.6313L21.3341 15.3592C21.2738 15.3046 21.1977 15.2706 21.1168 15.2621C21.0359 15.2536 20.9544 15.2709 20.884 15.3117C20.8137 15.3525 20.758 15.4145 20.7253 15.4889C20.6925 15.5633 20.6842 15.6462 20.7016 15.7256V16.2741C20.7112 16.3646 20.6964 16.4561 20.6587 16.539C20.621 16.6219 20.5618 16.6931 20.4872 16.7454C20.4242 16.7822 20.352 16.8 20.2792 16.7968Z" stroke="#171753" stroke-width="0.3" stroke-linejoin="round"/>
</g>
<g style="mix-blend-mode:lighten">
<path d="M19.4021 17.3004C19.2882 17.2955 19.1775 17.2616 19.0805 17.2018L16.8269 15.9013L16.8591 15.8435L19.1148 17.1418C19.1782 17.1895 19.2533 17.2192 19.3321 17.2279C19.411 17.2366 19.4907 17.2239 19.5629 17.1911C19.6277 17.1448 19.6789 17.082 19.7113 17.0094C19.7437 16.9367 19.7562 16.8567 19.7474 16.7776V16.2334C19.7291 16.1416 19.74 16.0463 19.7785 15.961C19.817 15.8756 19.8813 15.8044 19.9622 15.7572C20.0432 15.71 20.1368 15.6893 20.2302 15.6978C20.3235 15.7064 20.4118 15.7438 20.4828 15.8049L20.9546 16.077L20.9203 16.1348L20.4486 15.8649C20.3847 15.8173 20.3093 15.7876 20.2301 15.7789C20.1509 15.7702 20.0709 15.7829 19.9982 15.8156C19.9342 15.8625 19.8837 15.9254 19.8517 15.998C19.8197 16.0706 19.8074 16.1503 19.816 16.2291V16.7733C19.8256 16.8639 19.8108 16.9553 19.7731 17.0382C19.7354 17.1211 19.6761 17.1924 19.6015 17.2447C19.5415 17.2814 19.4725 17.3006 19.4021 17.3004Z" fill="#FFA54B"/>
<path d="M19.4021 17.3004C19.2882 17.2955 19.1775 17.2616 19.0805 17.2018L16.8269 15.9013L16.8591 15.8435L19.1148 17.1418C19.1782 17.1895 19.2533 17.2192 19.3321 17.2279C19.411 17.2366 19.4907 17.2239 19.5629 17.1911C19.6277 17.1448 19.6789 17.082 19.7113 17.0094C19.7437 16.9367 19.7562 16.8567 19.7474 16.7776V16.2334C19.7291 16.1416 19.74 16.0463 19.7785 15.961C19.817 15.8756 19.8813 15.8044 19.9622 15.7572C20.0432 15.71 20.1368 15.6893 20.2302 15.6978C20.3235 15.7064 20.4118 15.7438 20.4828 15.8049L20.9546 16.077L20.9203 16.1348L20.4486 15.8649C20.3847 15.8173 20.3093 15.7876 20.2301 15.7789C20.1509 15.7702 20.0709 15.7829 19.9982 15.8156C19.9342 15.8625 19.8837 15.9254 19.8517 15.998C19.8197 16.0706 19.8074 16.1503 19.816 16.2291V16.7733C19.8256 16.8639 19.8108 16.9553 19.7731 17.0382C19.7354 17.1211 19.6761 17.1924 19.6015 17.2447C19.5415 17.2814 19.4725 17.3006 19.4021 17.3004Z" stroke="#171753" stroke-width="0.3" stroke-linejoin="round"/>
</g>
<g style="mix-blend-mode:lighten">
<path d="M18.5249 17.8038C18.411 17.799 18.3003 17.7651 18.2033 17.7053L15.9496 16.4048L15.984 16.3469L18.2376 17.6474C18.2979 17.702 18.374 17.736 18.4549 17.7445C18.5358 17.7531 18.6173 17.7357 18.6877 17.6949C18.7581 17.6542 18.8137 17.5921 18.8465 17.5177C18.8793 17.4433 18.8876 17.3605 18.8702 17.2811V16.7369C18.8519 16.645 18.8628 16.5498 18.9014 16.4644C18.9399 16.3791 19.0041 16.3078 19.0851 16.2607C19.166 16.2135 19.2597 16.1927 19.353 16.2013C19.4463 16.2098 19.5346 16.2473 19.6056 16.3084L20.0773 16.5805L20.0431 16.6405L19.5735 16.3684C19.5092 16.3217 19.4338 16.2926 19.3549 16.284C19.2759 16.2754 19.196 16.2875 19.1232 16.3191C19.0584 16.3654 19.0072 16.4281 18.9748 16.5008C18.9424 16.5735 18.93 16.6535 18.9388 16.7326V17.2768C18.9482 17.3673 18.9333 17.4587 18.8956 17.5415C18.8579 17.6244 18.7988 17.6957 18.7244 17.7481C18.6642 17.7845 18.5952 17.8038 18.5249 17.8038Z" fill="#FFA54B"/>
<path d="M18.5249 17.8038C18.411 17.799 18.3003 17.7651 18.2033 17.7053L15.9496 16.4048L15.984 16.3469L18.2376 17.6474C18.2979 17.702 18.374 17.736 18.4549 17.7445C18.5358 17.7531 18.6173 17.7357 18.6877 17.6949C18.7581 17.6542 18.8137 17.5921 18.8465 17.5177C18.8793 17.4433 18.8876 17.3605 18.8702 17.2811V16.7369C18.8519 16.645 18.8628 16.5498 18.9014 16.4644C18.9399 16.3791 19.0041 16.3078 19.0851 16.2607C19.166 16.2135 19.2597 16.1927 19.353 16.2013C19.4463 16.2098 19.5346 16.2473 19.6056 16.3084L20.0773 16.5805L20.0431 16.6405L19.5735 16.3684C19.5092 16.3217 19.4338 16.2926 19.3549 16.284C19.2759 16.2754 19.196 16.2875 19.1232 16.3191C19.0584 16.3654 19.0072 16.4281 18.9748 16.5008C18.9424 16.5735 18.93 16.6535 18.9388 16.7326V17.2768C18.9482 17.3673 18.9333 17.4587 18.8956 17.5415C18.8579 17.6244 18.7988 17.6957 18.7244 17.7481C18.6642 17.7845 18.5952 17.8038 18.5249 17.8038Z" stroke="#171753" stroke-width="0.3" stroke-linejoin="round"/>
</g>
<g style="mix-blend-mode:lighten">
<path d="M17.6503 18.3074C17.5355 18.304 17.4237 18.27 17.3265 18.2088L15.0729 16.9169L15.1072 16.8591L17.3608 18.1596C17.4211 18.2141 17.4972 18.2481 17.5781 18.2567C17.659 18.2652 17.7405 18.2478 17.8109 18.2071C17.8813 18.1663 17.9369 18.1043 17.9697 18.0299C18.0025 17.9555 18.0108 17.8726 17.9934 17.7932V17.2511C17.9746 17.1589 17.9852 17.0631 18.0238 16.9772C18.0623 16.8913 18.1269 16.8197 18.2083 16.7724C18.2897 16.7251 18.384 16.7045 18.4778 16.7135C18.5715 16.7225 18.6601 16.7607 18.731 16.8226L19.2006 17.0926L19.1663 17.1526L18.6967 16.8805C18.6366 16.8228 18.5595 16.786 18.4768 16.7757C18.3941 16.7654 18.3103 16.7821 18.2379 16.8233C18.1655 16.8646 18.1085 16.9281 18.0752 17.0044C18.042 17.0808 18.0343 17.1658 18.0534 17.2468V17.7889C18.063 17.8798 18.0482 17.9715 18.0105 18.0547C17.9728 18.1379 17.9136 18.2096 17.839 18.2624C17.7807 18.2925 17.7159 18.3079 17.6503 18.3074Z" fill="#FFA54B"/>
<path d="M17.6503 18.3074C17.5355 18.304 17.4237 18.27 17.3265 18.2088L15.0729 16.9169L15.1072 16.8591L17.3608 18.1596C17.4211 18.2141 17.4972 18.2481 17.5781 18.2567C17.659 18.2652 17.7405 18.2478 17.8109 18.2071C17.8813 18.1663 17.9369 18.1043 17.9697 18.0299C18.0025 17.9555 18.0108 17.8726 17.9934 17.7932V17.2511C17.9746 17.1589 17.9852 17.0631 18.0238 16.9772C18.0623 16.8913 18.1269 16.8197 18.2083 16.7724C18.2897 16.7251 18.384 16.7045 18.4778 16.7135C18.5715 16.7225 18.6601 16.7607 18.731 16.8226L19.2006 17.0926L19.1663 17.1526L18.6967 16.8805C18.6366 16.8228 18.5595 16.786 18.4768 16.7757C18.3941 16.7654 18.3103 16.7821 18.2379 16.8233C18.1655 16.8646 18.1085 16.9281 18.0752 17.0044C18.042 17.0808 18.0343 17.1658 18.0534 17.2468V17.7889C18.063 17.8798 18.0482 17.9715 18.0105 18.0547C17.9728 18.1379 17.9136 18.2096 17.839 18.2624C17.7807 18.2925 17.7159 18.3079 17.6503 18.3074Z" stroke="#171753" stroke-width="0.3" stroke-linejoin="round"/>
</g>
<g style="mix-blend-mode:lighten">
<path d="M16.7732 18.8108C16.6584 18.8074 16.5466 18.7734 16.4494 18.7122L14.1958 17.4117L14.2301 17.3538L16.4838 18.6544C16.5438 18.7121 16.6209 18.7488 16.7036 18.7591C16.7863 18.7694 16.8701 18.7527 16.9425 18.7115C17.0148 18.6703 17.0719 18.6067 17.1052 18.5304C17.1385 18.4541 17.1462 18.369 17.127 18.288V17.7459C17.1175 17.6551 17.1323 17.5633 17.17 17.4801C17.2077 17.3969 17.2669 17.3252 17.3415 17.2724C17.4244 17.2333 17.5163 17.2172 17.6077 17.2259C17.699 17.2346 17.7863 17.2677 17.8604 17.3217L18.3299 17.5917L18.2956 17.6517L17.826 17.3796C17.766 17.3218 17.6889 17.2851 17.6062 17.2748C17.5235 17.2645 17.4397 17.2812 17.3673 17.3224C17.2949 17.3637 17.2378 17.4272 17.2046 17.5035C17.1713 17.5799 17.1636 17.6649 17.1827 17.7459V18.288C17.1923 18.3788 17.1775 18.4706 17.1398 18.5538C17.1021 18.637 17.0429 18.7087 16.9683 18.7615C16.9086 18.7943 16.8414 18.8113 16.7732 18.8108Z" fill="#FFA54B"/>
<path d="M16.7732 18.8108C16.6584 18.8074 16.5466 18.7734 16.4494 18.7122L14.1958 17.4117L14.2301 17.3538L16.4838 18.6544C16.5438 18.7121 16.6209 18.7488 16.7036 18.7591C16.7863 18.7694 16.8701 18.7527 16.9425 18.7115C17.0148 18.6703 17.0719 18.6067 17.1052 18.5304C17.1385 18.4541 17.1462 18.369 17.127 18.288V17.7459C17.1175 17.6551 17.1323 17.5633 17.17 17.4801C17.2077 17.3969 17.2669 17.3252 17.3415 17.2724C17.4244 17.2333 17.5163 17.2172 17.6077 17.2259C17.699 17.2346 17.7863 17.2677 17.8604 17.3217L18.3299 17.5917L18.2956 17.6517L17.826 17.3796C17.766 17.3218 17.6889 17.2851 17.6062 17.2748C17.5235 17.2645 17.4397 17.2812 17.3673 17.3224C17.2949 17.3637 17.2378 17.4272 17.2046 17.5035C17.1713 17.5799 17.1636 17.6649 17.1827 17.7459V18.288C17.1923 18.3788 17.1775 18.4706 17.1398 18.5538C17.1021 18.637 17.0429 18.7087 16.9683 18.7615C16.9086 18.7943 16.8414 18.8113 16.7732 18.8108Z" stroke="#171753" stroke-width="0.3" stroke-linejoin="round"/>
</g>
<g style="mix-blend-mode:lighten">
<path d="M15.8963 19.3144C15.7815 19.311 15.6697 19.2769 15.5726 19.2158L13.3189 17.9174L13.3532 17.8575L15.6068 19.158C15.6669 19.2157 15.744 19.2524 15.8267 19.2627C15.9094 19.273 15.9932 19.2563 16.0656 19.2151C16.138 19.1739 16.1951 19.1103 16.2283 19.034C16.2616 18.9577 16.2692 18.8726 16.2501 18.7916V18.2495C16.2319 18.1577 16.2428 18.0624 16.2813 17.9771C16.3198 17.8917 16.384 17.8205 16.465 17.7733C16.5459 17.7262 16.6396 17.7054 16.7329 17.7139C16.8263 17.7225 16.9146 17.7599 16.9856 17.821L17.4552 18.0931L17.423 18.151L16.9513 17.8789C16.8913 17.8211 16.8141 17.7844 16.7314 17.7741C16.6487 17.7638 16.5649 17.7805 16.4926 17.8217C16.4202 17.863 16.3631 17.9265 16.3298 18.0028C16.2965 18.0792 16.2889 18.1642 16.308 18.2452V18.7873C16.3176 18.8781 16.3028 18.9699 16.2651 19.0531C16.2274 19.1363 16.1682 19.208 16.0936 19.2608C16.034 19.2964 15.9657 19.315 15.8963 19.3144Z" fill="#FFA54B"/>
<path d="M15.8963 19.3144C15.7815 19.311 15.6697 19.2769 15.5726 19.2158L13.3189 17.9174L13.3532 17.8575L15.6068 19.158C15.6669 19.2157 15.744 19.2524 15.8267 19.2627C15.9094 19.273 15.9932 19.2563 16.0656 19.2151C16.138 19.1739 16.1951 19.1103 16.2283 19.034C16.2616 18.9577 16.2692 18.8726 16.2501 18.7916V18.2495C16.2319 18.1577 16.2428 18.0624 16.2813 17.9771C16.3198 17.8917 16.384 17.8205 16.465 17.7733C16.5459 17.7262 16.6396 17.7054 16.7329 17.7139C16.8263 17.7225 16.9146 17.7599 16.9856 17.821L17.4552 18.0931L17.423 18.151L16.9513 17.8789C16.8913 17.8211 16.8141 17.7844 16.7314 17.7741C16.6487 17.7638 16.5649 17.7805 16.4926 17.8217C16.4202 17.863 16.3631 17.9265 16.3298 18.0028C16.2965 18.0792 16.2889 18.1642 16.308 18.2452V18.7873C16.3176 18.8781 16.3028 18.9699 16.2651 19.0531C16.2274 19.1363 16.1682 19.208 16.0936 19.2608C16.034 19.2964 15.9657 19.315 15.8963 19.3144Z" stroke="#171753" stroke-width="0.3" stroke-linejoin="round"/>
</g>
<g style="mix-blend-mode:lighten">
<path d="M15.0106 19.82C14.8967 19.8154 14.7859 19.7815 14.689 19.7214L12.4375 18.4166L12.4697 18.3566L14.7233 19.6571C14.7827 19.7162 14.8598 19.7542 14.9429 19.7654C15.026 19.7766 15.1104 19.7603 15.1833 19.719C15.2562 19.6777 15.3136 19.6137 15.3467 19.5368C15.3798 19.4598 15.3868 19.3742 15.3666 19.2929V18.7487C15.3483 18.6569 15.3593 18.5616 15.3978 18.4763C15.4363 18.3909 15.5005 18.3197 15.5815 18.2725C15.6624 18.2253 15.7561 18.2046 15.8494 18.2131C15.9427 18.2217 16.0311 18.2591 16.1021 18.3202L16.5738 18.5923L16.5395 18.6502L16.0677 18.378C16.0083 18.3186 15.9309 18.2803 15.8475 18.2691C15.7641 18.2578 15.6793 18.2743 15.6062 18.316C15.5331 18.3576 15.4757 18.4221 15.4429 18.4995C15.4101 18.5769 15.4036 18.663 15.4245 18.7444V19.2886C15.4341 19.3792 15.4193 19.4706 15.3816 19.5535C15.3439 19.6364 15.2846 19.7077 15.21 19.76C15.1505 19.7982 15.0814 19.8189 15.0106 19.82Z" fill="#FFA54B"/>
<path d="M15.0106 19.82C14.8967 19.8154 14.7859 19.7815 14.689 19.7214L12.4375 18.4166L12.4697 18.3566L14.7233 19.6571C14.7827 19.7162 14.8598 19.7542 14.9429 19.7654C15.026 19.7766 15.1104 19.7603 15.1833 19.719C15.2562 19.6777 15.3136 19.6137 15.3467 19.5368C15.3798 19.4598 15.3868 19.3742 15.3666 19.2929V18.7487C15.3483 18.6569 15.3593 18.5616 15.3978 18.4763C15.4363 18.3909 15.5005 18.3197 15.5815 18.2725C15.6624 18.2253 15.7561 18.2046 15.8494 18.2131C15.9427 18.2217 16.0311 18.2591 16.1021 18.3202L16.5738 18.5923L16.5395 18.6502L16.0677 18.378C16.0083 18.3186 15.9309 18.2803 15.8475 18.2691C15.7641 18.2578 15.6793 18.2743 15.6062 18.316C15.5331 18.3576 15.4757 18.4221 15.4429 18.4995C15.4101 18.5769 15.4036 18.663 15.4245 18.7444V19.2886C15.4341 19.3792 15.4193 19.4706 15.3816 19.5535C15.3439 19.6364 15.2846 19.7077 15.21 19.76C15.1505 19.7982 15.0814 19.8189 15.0106 19.82Z" stroke="#171753" stroke-width="0.3" stroke-linejoin="round"/>
</g>
<g style="mix-blend-mode:lighten">
<path d="M14.1531 20.3235C14.0392 20.3186 13.9285 20.2847 13.8315 20.2249L11.5779 18.9244L11.6121 18.8666L13.8658 20.1649C13.9296 20.2126 14.005 20.2423 14.0842 20.251C14.1634 20.2596 14.2435 20.2469 14.3161 20.2142C14.3801 20.1673 14.4306 20.1044 14.4626 20.0319C14.4946 19.9593 14.5069 19.8796 14.4984 19.8007V19.2565C14.4801 19.1647 14.491 19.0694 14.5295 18.9841C14.568 18.8987 14.6322 18.8275 14.7132 18.7803C14.7942 18.7331 14.8878 18.7124 14.9811 18.7209C15.0744 18.7295 15.1628 18.7669 15.2338 18.828L15.7055 19.1001L15.6713 19.158L15.1995 18.888C15.1361 18.8403 15.061 18.8106 14.9822 18.8019C14.9033 18.7933 14.8236 18.806 14.7514 18.8387C14.6866 18.8851 14.6354 18.9478 14.603 19.0205C14.5706 19.0932 14.5581 19.1732 14.5669 19.2522V19.7964C14.5766 19.887 14.5618 19.9784 14.5241 20.0613C14.4864 20.1442 14.4271 20.2155 14.3525 20.2678C14.2925 20.3045 14.2235 20.3238 14.1531 20.3235Z" fill="#FFA54B"/>
<path d="M14.1531 20.3235C14.0392 20.3186 13.9285 20.2847 13.8315 20.2249L11.5779 18.9244L11.6121 18.8666L13.8658 20.1649C13.9296 20.2126 14.005 20.2423 14.0842 20.251C14.1634 20.2596 14.2435 20.2469 14.3161 20.2142C14.3801 20.1673 14.4306 20.1044 14.4626 20.0319C14.4946 19.9593 14.5069 19.8796 14.4984 19.8007V19.2565C14.4801 19.1647 14.491 19.0694 14.5295 18.9841C14.568 18.8987 14.6322 18.8275 14.7132 18.7803C14.7942 18.7331 14.8878 18.7124 14.9811 18.7209C15.0744 18.7295 15.1628 18.7669 15.2338 18.828L15.7055 19.1001L15.6713 19.158L15.1995 18.888C15.1361 18.8403 15.061 18.8106 14.9822 18.8019C14.9033 18.7933 14.8236 18.806 14.7514 18.8387C14.6866 18.8851 14.6354 18.9478 14.603 19.0205C14.5706 19.0932 14.5581 19.1732 14.5669 19.2522V19.7964C14.5766 19.887 14.5618 19.9784 14.5241 20.0613C14.4864 20.1442 14.4271 20.2155 14.3525 20.2678C14.2925 20.3045 14.2235 20.3238 14.1531 20.3235Z" stroke="#171753" stroke-width="0.3" stroke-linejoin="round"/>
</g>
<path d="M13.2673 20.827C13.1525 20.8236 13.0407 20.7896 12.9435 20.7285L10.6899 19.428L10.7242 19.3701L12.9778 20.6706C13.0381 20.7252 13.1142 20.7592 13.1951 20.7677C13.276 20.7763 13.3575 20.7589 13.4279 20.7181C13.4983 20.6774 13.5539 20.6153 13.5867 20.5409C13.6195 20.4665 13.6278 20.3837 13.6104 20.3042V19.7601C13.5921 19.6682 13.603 19.573 13.6416 19.4876C13.6801 19.4022 13.7443 19.331 13.8253 19.2838C13.9062 19.2367 13.9999 19.2159 14.0932 19.2245C14.1865 19.233 14.2748 19.2705 14.3458 19.3315L14.8176 19.6036L14.7833 19.6636L14.3137 19.3915C14.2543 19.3325 14.1772 19.2944 14.0941 19.2833C14.0111 19.2721 13.9266 19.2884 13.8537 19.3297C13.7808 19.371 13.7234 19.435 13.6903 19.5119C13.6572 19.5888 13.6502 19.6745 13.6704 19.7558V20.3C13.6798 20.3905 13.6649 20.4819 13.6272 20.5647C13.5895 20.6476 13.5304 20.7189 13.456 20.7713C13.399 20.8059 13.334 20.8252 13.2673 20.827Z" fill="#171753" stroke="#171753" stroke-width="0.3" stroke-linejoin="round"/>
<path d="M12.3903 21.3305C12.2755 21.3271 12.1637 21.2931 12.0665 21.232L9.81293 19.9314L9.84722 19.8736L12.1008 21.1741C12.1609 21.2318 12.238 21.2686 12.3207 21.2789C12.4034 21.2892 12.4872 21.2725 12.5596 21.2312C12.632 21.19 12.6891 21.1265 12.7223 21.0501C12.7556 20.9738 12.7632 20.8888 12.7441 20.8077V20.2657C12.7345 20.1748 12.7494 20.0831 12.787 19.9999C12.8247 19.9166 12.8839 19.845 12.9585 19.7922C13.0415 19.753 13.1335 19.737 13.2248 19.7456C13.3161 19.7543 13.4034 19.7874 13.4775 19.8415L13.9471 20.1114L13.9127 20.1714L13.4431 19.8993C13.3831 19.8416 13.306 19.8048 13.2233 19.7945C13.1406 19.7842 13.0568 19.8009 12.9844 19.8422C12.912 19.8834 12.855 19.9469 12.8217 20.0233C12.7884 20.0996 12.7808 20.1846 12.7999 20.2657V20.8077C12.809 20.8985 12.794 20.9901 12.7563 21.0733C12.7187 21.1564 12.6597 21.2281 12.5854 21.2812C12.5257 21.3141 12.4585 21.331 12.3903 21.3305Z" fill="#171753" stroke="#171753" stroke-width="0.3" stroke-linejoin="round"/>
<path d="M11.5134 21.8447C11.3986 21.8414 11.2868 21.8073 11.1897 21.7462L8.93604 20.4457L8.97038 20.3878L11.224 21.6883C11.284 21.7461 11.3611 21.7828 11.4438 21.7931C11.5265 21.8034 11.6103 21.7867 11.6827 21.7455C11.7551 21.7042 11.8122 21.6407 11.8454 21.5644C11.8787 21.488 11.8864 21.403 11.8673 21.322V20.7735C11.849 20.6816 11.8599 20.5864 11.8984 20.501C11.9369 20.4157 12.0012 20.3444 12.0821 20.2973C12.1631 20.2501 12.2567 20.2294 12.35 20.2379C12.4434 20.2465 12.5317 20.2839 12.6027 20.345L13.0723 20.6171L13.0402 20.6749L12.5684 20.4028C12.5084 20.3451 12.4313 20.3083 12.3486 20.298C12.2659 20.2877 12.1821 20.3045 12.1097 20.3457C12.0373 20.3869 11.9802 20.4504 11.9469 20.5268C11.9137 20.6031 11.9061 20.6882 11.9252 20.7692V21.3113C11.9347 21.4021 11.9199 21.4938 11.8822 21.5771C11.8445 21.6603 11.7854 21.732 11.7107 21.7847C11.6514 21.8217 11.5833 21.8424 11.5134 21.8447Z" fill="#171753" stroke="#171753" stroke-width="0.3" stroke-linejoin="round"/>
<g style="mix-blend-mode:darken">
<path d="M10.6364 22.3375C10.5223 22.3337 10.4113 22.2997 10.3147 22.2389L8.06113 20.9406L8.09327 20.8806L10.3469 22.1811C10.4111 22.228 10.4866 22.257 10.5657 22.2653C10.6447 22.2736 10.7247 22.2608 10.7972 22.2282C10.8623 22.1822 10.9137 22.1195 10.9461 22.0467C10.9786 21.974 10.9908 21.8938 10.9816 21.8147V21.2727C10.9633 21.1808 10.9743 21.0856 11.0128 21.0002C11.0513 20.9148 11.1155 20.8436 11.1965 20.7964C11.2774 20.7493 11.3711 20.7285 11.4644 20.7371C11.5577 20.7456 11.646 20.7831 11.717 20.8442L12.1888 21.1162L12.1545 21.1741L11.6828 20.902C11.6225 20.8474 11.5464 20.8134 11.4654 20.8049C11.3845 20.7963 11.303 20.8137 11.2326 20.8545C11.1623 20.8952 11.1067 20.9573 11.0739 21.0317C11.0411 21.1061 11.0328 21.189 11.0502 21.2684V21.8104C11.06 21.9013 11.0453 21.9931 11.0076 22.0764C10.9699 22.1596 10.9106 22.2313 10.8358 22.2839C10.7756 22.3199 10.7065 22.3385 10.6364 22.3375Z" fill="#171753"/>
<path d="M10.6364 22.3375C10.5223 22.3337 10.4113 22.2997 10.3147 22.2389L8.06113 20.9406L8.09327 20.8806L10.3469 22.1811C10.4111 22.228 10.4866 22.257 10.5657 22.2653C10.6447 22.2736 10.7247 22.2608 10.7972 22.2282C10.8623 22.1822 10.9137 22.1195 10.9461 22.0467C10.9786 21.974 10.9908 21.8938 10.9816 21.8147V21.2727C10.9633 21.1808 10.9743 21.0856 11.0128 21.0002C11.0513 20.9148 11.1155 20.8436 11.1965 20.7964C11.2774 20.7493 11.3711 20.7285 11.4644 20.7371C11.5577 20.7456 11.646 20.7831 11.717 20.8442L12.1888 21.1162L12.1545 21.1741L11.6828 20.902C11.6225 20.8474 11.5464 20.8134 11.4654 20.8049C11.3845 20.7963 11.303 20.8137 11.2326 20.8545C11.1623 20.8952 11.1067 20.9573 11.0739 21.0317C11.0411 21.1061 11.0328 21.189 11.0502 21.2684V21.8104C11.06 21.9013 11.0453 21.9931 11.0076 22.0764C10.9699 22.1596 10.9106 22.2313 10.8358 22.2839C10.7756 22.3199 10.7065 22.3385 10.6364 22.3375Z" stroke="#171753" stroke-width="0.3" stroke-linejoin="round"/>
</g>
<path d="M9.75949 22.8431C9.64561 22.8382 9.53487 22.8043 9.43785 22.7445L7.18423 21.444L7.21852 21.3862L9.47214 22.6845C9.53595 22.7322 9.61141 22.7619 9.6906 22.7706C9.76978 22.7792 9.84983 22.7665 9.92246 22.7338C9.98647 22.6869 10.037 22.624 10.069 22.5514C10.101 22.4789 10.1133 22.3991 10.1047 22.3203V21.7761C10.0865 21.6843 10.0974 21.589 10.1359 21.5036C10.1744 21.4183 10.2386 21.3471 10.3196 21.2999C10.4005 21.2527 10.4942 21.232 10.5875 21.2405C10.6808 21.2491 10.7692 21.2865 10.8402 21.3476L11.3119 21.6197L11.2776 21.6775L10.8059 21.4076C10.742 21.36 10.6666 21.3302 10.5875 21.3216C10.5083 21.3129 10.4282 21.3256 10.3556 21.3583C10.2916 21.4052 10.2411 21.4681 10.2091 21.5407C10.1771 21.6133 10.1647 21.693 10.1733 21.7718V22.316C10.1829 22.4066 10.1681 22.498 10.1304 22.5809C10.0927 22.6638 10.0335 22.7351 9.95889 22.7874C9.89887 22.8241 9.82984 22.8433 9.75949 22.8431Z" fill="#171753" stroke="#171753" stroke-width="0.3" stroke-linejoin="round"/>
<path d="M8.88241 23.3445C8.76853 23.3396 8.6578 23.3057 8.56078 23.2459L6.30716 21.9454L6.3415 21.8876L8.59512 23.1859C8.65893 23.2336 8.73433 23.2633 8.81352 23.2719C8.89271 23.2806 8.97276 23.2679 9.04538 23.2352C9.10939 23.1883 9.15997 23.1254 9.19196 23.0528C9.22395 22.9802 9.23625 22.9005 9.22766 22.8217V22.2732C9.20943 22.1814 9.22035 22.0861 9.25886 22.0007C9.29738 21.9154 9.36155 21.8442 9.44251 21.797C9.52346 21.7498 9.61717 21.7291 9.71049 21.7376C9.80381 21.7462 9.89211 21.7836 9.96313 21.8447L10.4349 22.1168L10.4006 22.1746L9.93099 21.9047C9.87158 21.8456 9.79444 21.8076 9.71138 21.7964C9.62832 21.7853 9.5439 21.8016 9.47099 21.8428C9.39807 21.8841 9.3407 21.9481 9.3076 22.0251C9.27451 22.102 9.26751 22.1876 9.28771 22.2689V22.8131C9.29688 22.9036 9.28188 22.9949 9.24421 23.0777C9.20654 23.1605 9.14755 23.2319 9.07328 23.2845C9.01605 23.3209 8.9502 23.3416 8.88241 23.3445Z" fill="#171753" stroke="#171753" stroke-width="0.3" stroke-linejoin="round"/>
<path d="M8.00755 23.8502C7.89295 23.8456 7.78145 23.8116 7.68376 23.7516L5.43015 22.4511L5.46443 22.3932L7.71805 23.6938C7.7781 23.7515 7.85524 23.7882 7.93792 23.7985C8.02061 23.8088 8.1044 23.7921 8.17679 23.7509C8.24919 23.7097 8.30629 23.6461 8.33955 23.5698C8.37281 23.4935 8.38044 23.4084 8.36133 23.3274V22.7832C8.3431 22.6913 8.35401 22.5961 8.39253 22.5107C8.43105 22.4254 8.49527 22.3541 8.57623 22.307C8.65718 22.2598 8.75083 22.2391 8.84415 22.2476C8.93747 22.2562 9.02577 22.2936 9.09679 22.3547L9.56643 22.6268L9.53208 22.6868L9.0625 22.4147C9.0031 22.3556 8.92596 22.3176 8.8429 22.3064C8.75984 22.2952 8.67542 22.3115 8.6025 22.3528C8.52959 22.3941 8.47222 22.4581 8.43912 22.5351C8.40603 22.612 8.39903 22.6976 8.41923 22.7789V23.3231C8.42863 23.4136 8.41373 23.505 8.37604 23.5878C8.33835 23.6707 8.27924 23.742 8.2048 23.7944C8.1454 23.8307 8.07717 23.85 8.00755 23.8502Z" fill="#171753" stroke="#171753" stroke-width="0.3" stroke-linejoin="round"/>
<path d="M7.13047 24.3536C7.01567 24.3503 6.90387 24.3162 6.80669 24.2551L4.55307 22.9546L4.58736 22.8967L6.84098 24.2015C6.90102 24.2592 6.97816 24.296 7.06085 24.3063C7.14353 24.3166 7.22733 24.2999 7.29972 24.2587C7.37211 24.2174 7.42921 24.1539 7.46248 24.0776C7.49574 24.0012 7.50337 23.9162 7.48425 23.8351V23.2931C7.47468 23.2023 7.48955 23.1105 7.52723 23.0273C7.56492 22.9441 7.62407 22.8724 7.69868 22.8196C7.78162 22.7805 7.87361 22.7644 7.96493 22.773C8.05625 22.7817 8.14355 22.8148 8.21762 22.8689L8.6872 23.1388L8.65291 23.1988L8.18328 22.9267C8.12324 22.869 8.04615 22.8322 7.96346 22.8219C7.88078 22.8116 7.79698 22.8284 7.72459 22.8696C7.6522 22.9108 7.5951 22.9743 7.56184 23.0507C7.52857 23.127 7.52089 23.2121 7.54001 23.2931V23.8351C7.54913 23.9259 7.5341 24.0175 7.49645 24.1007C7.4588 24.1838 7.39986 24.2556 7.32558 24.3086C7.26543 24.34 7.19828 24.3555 7.13047 24.3536Z" fill="#171753" stroke="#171753" stroke-width="0.3" stroke-linejoin="round"/>
<path d="M6.25349 24.857C6.13869 24.8537 6.02689 24.8196 5.9297 24.7585L3.67609 23.458L3.71043 23.4001L5.96405 24.7006C6.02825 24.7475 6.10372 24.7766 6.18282 24.7849C6.26191 24.7932 6.34177 24.7803 6.41431 24.7478C6.47921 24.7016 6.53055 24.6389 6.56298 24.5662C6.59541 24.4934 6.60777 24.4134 6.59874 24.3343V23.7922C6.58051 23.7004 6.59142 23.6051 6.62994 23.5198C6.66845 23.4344 6.73263 23.3632 6.81358 23.316C6.89454 23.2688 6.98824 23.2481 7.08156 23.2566C7.17488 23.2652 7.26318 23.3026 7.3342 23.3637L7.80378 23.6358L7.77164 23.6937L7.29991 23.4216C7.23961 23.367 7.16351 23.333 7.08261 23.3244C7.00171 23.3159 6.92019 23.3333 6.84981 23.374C6.77942 23.4148 6.72382 23.4769 6.69103 23.5513C6.65824 23.6256 6.64995 23.7085 6.66737 23.7879V24.33C6.67717 24.4208 6.66241 24.5127 6.6247 24.5959C6.587 24.6792 6.52772 24.7509 6.45294 24.8035C6.39233 24.8385 6.32351 24.857 6.25349 24.857Z" fill="#171753" stroke="#171753" stroke-width="0.3" stroke-linejoin="round"/>
<path d="M5.37662 25.3605C5.26255 25.3568 5.15154 25.3228 5.05498 25.262L2.80136 23.9636L2.8335 23.9036L5.08927 25.2041C5.14946 25.2584 5.22529 25.2922 5.30589 25.3007C5.3865 25.3092 5.46773 25.2921 5.53796 25.2516C5.60819 25.2112 5.66382 25.1496 5.69684 25.0756C5.72987 25.0016 5.7386 24.9191 5.72181 24.8399V24.2957C5.70358 24.2039 5.7145 24.1086 5.75301 24.0232C5.79153 23.9379 5.85576 23.8667 5.93671 23.8195C6.01767 23.7723 6.11132 23.7516 6.20464 23.7601C6.29796 23.7687 6.38631 23.8061 6.45733 23.8672L6.92906 24.1393L6.89472 24.1971L6.42299 23.925C6.36269 23.8705 6.28659 23.8365 6.20569 23.8279C6.12478 23.8194 6.04327 23.8368 5.97288 23.8775C5.9025 23.9183 5.8469 23.9804 5.81411 24.0547C5.78132 24.1291 5.77303 24.212 5.79045 24.2914V24.8442C5.80007 24.9347 5.78528 25.0262 5.74757 25.1091C5.70986 25.192 5.65062 25.2633 5.57602 25.3155C5.51496 25.3486 5.44597 25.3641 5.37662 25.3605Z" fill="#171753" stroke="#171753" stroke-width="0.3" stroke-linejoin="round"/>
<path d="M4.50383 25.8661C4.38995 25.8613 4.27922 25.8273 4.1822 25.7676L1.93073 24.4671L1.96501 24.4071L4.21863 25.7076C4.28244 25.7552 4.3579 25.7849 4.43709 25.7936C4.51627 25.8023 4.59632 25.7896 4.66895 25.7569C4.73296 25.71 4.78348 25.6471 4.81547 25.5745C4.84747 25.5019 4.85982 25.4222 4.85123 25.3434V24.7991C4.833 24.7073 4.84386 24.6121 4.88238 24.5267C4.92089 24.4413 4.98512 24.3701 5.06607 24.3229C5.14703 24.2758 5.24068 24.255 5.334 24.2636C5.42732 24.2721 5.51567 24.3096 5.58669 24.3706L6.05842 24.6427L6.02413 24.7006L5.55235 24.4285C5.49287 24.369 5.41551 24.3307 5.33212 24.3195C5.24872 24.3083 5.16394 24.3248 5.09083 24.3664C5.01773 24.408 4.96034 24.4725 4.9275 24.55C4.89467 24.6274 4.88817 24.7134 4.90908 24.7949V25.3391C4.91825 25.4296 4.90324 25.5209 4.86557 25.6037C4.8279 25.6865 4.76892 25.7578 4.69465 25.8104C4.637 25.8453 4.57122 25.8645 4.50383 25.8661Z" fill="#171753" stroke="#171753" stroke-width="0.3" stroke-linejoin="round"/>
<path d="M3.62458 26.3697C3.50998 26.3651 3.39849 26.3311 3.3008 26.2711L1.04718 24.9706L1.08152 24.9127L3.33514 26.2111C3.39895 26.2588 3.47436 26.2885 3.55354 26.2971C3.63273 26.3058 3.71278 26.2931 3.7854 26.2604C3.84941 26.2135 3.89999 26.1506 3.93198 26.078C3.96397 26.0054 3.97627 25.9257 3.96768 25.8469V25.3027C3.95027 25.2108 3.96183 25.1158 4.00072 25.0307C4.03961 24.9457 4.10392 24.8748 4.18483 24.8278C4.26574 24.7808 4.35923 24.76 4.45245 24.7683C4.54566 24.7766 4.634 24.8136 4.7053 24.8742L5.17488 25.1463L5.14059 25.2041L4.67101 24.9342C4.61161 24.8751 4.53446 24.8371 4.4514 24.8259C4.36834 24.8147 4.28392 24.831 4.21101 24.8723C4.13809 24.9136 4.08072 24.9776 4.04762 25.0545C4.01453 25.1315 4.00754 25.2171 4.02773 25.2984V25.8426C4.03691 25.9331 4.0219 26.0244 3.98423 26.1072C3.94656 26.19 3.88758 26.2614 3.8133 26.3139C3.75632 26.3486 3.69126 26.3678 3.62458 26.3697Z" fill="#171753" stroke="#171753" stroke-width="0.3" stroke-linejoin="round"/>
<g style="mix-blend-mode:lighten">
<path d="M23.8708 16.8376C23.8023 16.8383 23.7348 16.8206 23.6756 16.7862C23.6014 16.7336 23.5424 16.6622 23.5047 16.5794C23.467 16.4966 23.452 16.4053 23.4612 16.3148V15.7706C23.4696 15.6916 23.4569 15.6117 23.4246 15.5391C23.3922 15.4665 23.3412 15.4037 23.2768 15.3571C23.2042 15.3244 23.1241 15.3117 23.0449 15.3204C22.9657 15.329 22.8903 15.3587 22.8265 15.4064L22.3569 15.6763L22.3226 15.6185L22.7922 15.3464C22.8632 15.2853 22.9515 15.2479 23.0449 15.2393C23.1382 15.2308 23.2319 15.2515 23.3128 15.2987C23.3938 15.3458 23.458 15.4171 23.4965 15.5024C23.535 15.5878 23.5459 15.683 23.5277 15.7749V16.3191C23.5086 16.4001 23.5162 16.4852 23.5495 16.5615C23.5827 16.6378 23.6398 16.7014 23.7122 16.7426C23.7846 16.7838 23.8684 16.8005 23.9511 16.7902C24.0338 16.7799 24.1109 16.7432 24.171 16.6855L26.4246 15.3849L26.4589 15.4428L24.2053 16.7433C24.104 16.8036 23.9887 16.8361 23.8708 16.8376Z" fill="#FFA54B"/>
<path d="M23.8708 16.8376C23.8023 16.8383 23.7348 16.8206 23.6756 16.7862C23.6014 16.7336 23.5424 16.6622 23.5047 16.5794C23.467 16.4966 23.452 16.4053 23.4612 16.3148V15.7706C23.4696 15.6916 23.4569 15.6117 23.4246 15.5391C23.3922 15.4665 23.3412 15.4037 23.2768 15.3571C23.2042 15.3244 23.1241 15.3117 23.0449 15.3204C22.9657 15.329 22.8903 15.3587 22.8265 15.4064L22.3569 15.6763L22.3226 15.6185L22.7922 15.3464C22.8632 15.2853 22.9515 15.2479 23.0449 15.2393C23.1382 15.2308 23.2319 15.2515 23.3128 15.2987C23.3938 15.3458 23.458 15.4171 23.4965 15.5024C23.535 15.5878 23.5459 15.683 23.5277 15.7749V16.3191C23.5086 16.4001 23.5162 16.4852 23.5495 16.5615C23.5827 16.6378 23.6398 16.7014 23.7122 16.7426C23.7846 16.7838 23.8684 16.8005 23.9511 16.7902C24.0338 16.7799 24.1109 16.7432 24.171 16.6855L26.4246 15.3849L26.4589 15.4428L24.2053 16.7433C24.104 16.8036 23.9887 16.8361 23.8708 16.8376Z" stroke="#171753" stroke-width="0.3" stroke-linejoin="round"/>
</g>
<g style="mix-blend-mode:lighten">
<path d="M24.7477 17.3454C24.6792 17.3461 24.6117 17.3284 24.5525 17.2939C24.4781 17.2415 24.419 17.1702 24.3813 17.0873C24.3436 17.0045 24.3287 16.9131 24.3381 16.8226V16.2741C24.3583 16.1928 24.3513 16.1072 24.3182 16.0302C24.2851 15.9533 24.2278 15.8893 24.1548 15.848C24.0819 15.8067 23.9975 15.7904 23.9144 15.8016C23.8313 15.8128 23.7542 15.8508 23.6948 15.9099L23.2231 16.182L23.1909 16.122L23.6606 15.8499C23.7316 15.7888 23.8199 15.7514 23.9132 15.7428C24.0065 15.7343 24.1002 15.755 24.1811 15.8022C24.2621 15.8494 24.3263 15.9206 24.3648 16.0059C24.4033 16.0913 24.4142 16.1865 24.396 16.2784V16.8226C24.3769 16.9036 24.3845 16.9887 24.4178 17.065C24.4511 17.1413 24.5082 17.2049 24.5805 17.2461C24.6529 17.2873 24.7367 17.304 24.8194 17.2937C24.9021 17.2834 24.9792 17.2467 25.0393 17.189L27.2929 15.8885L27.3272 15.9463L25.0736 17.2468C24.9753 17.3072 24.863 17.3412 24.7477 17.3454Z" fill="#FFA54B"/>
<path d="M24.7477 17.3454C24.6792 17.3461 24.6117 17.3284 24.5525 17.2939C24.4781 17.2415 24.419 17.1702 24.3813 17.0873C24.3436 17.0045 24.3287 16.9131 24.3381 16.8226V16.2741C24.3583 16.1928 24.3513 16.1072 24.3182 16.0302C24.2851 15.9533 24.2278 15.8893 24.1548 15.848C24.0819 15.8067 23.9975 15.7904 23.9144 15.8016C23.8313 15.8128 23.7542 15.8508 23.6948 15.9099L23.2231 16.182L23.1909 16.122L23.6606 15.8499C23.7316 15.7888 23.8199 15.7514 23.9132 15.7428C24.0065 15.7343 24.1002 15.755 24.1811 15.8022C24.2621 15.8494 24.3263 15.9206 24.3648 16.0059C24.4033 16.0913 24.4142 16.1865 24.396 16.2784V16.8226C24.3769 16.9036 24.3845 16.9887 24.4178 17.065C24.4511 17.1413 24.5082 17.2049 24.5805 17.2461C24.6529 17.2873 24.7367 17.304 24.8194 17.2937C24.9021 17.2834 24.9792 17.2467 25.0393 17.189L27.2929 15.8885L27.3272 15.9463L25.0736 17.2468C24.9753 17.3072 24.863 17.3412 24.7477 17.3454Z" stroke="#171753" stroke-width="0.3" stroke-linejoin="round"/>
</g>
<g style="mix-blend-mode:lighten">
<path d="M25.6246 17.8446C25.5565 17.8451 25.4893 17.8281 25.4295 17.7953C25.3548 17.7427 25.2954 17.671 25.2577 17.5878C25.22 17.5045 25.2053 17.4127 25.2151 17.3218V16.7797C25.236 16.6983 25.2295 16.6122 25.1967 16.5348C25.1638 16.4574 25.1065 16.3929 25.0334 16.3513C24.9602 16.3097 24.8755 16.2932 24.7921 16.3044C24.7087 16.3156 24.6313 16.3539 24.5718 16.4134L24.1001 16.6855L24.0658 16.6255L24.5375 16.3555C24.6116 16.3015 24.6989 16.2684 24.7902 16.2597C24.8815 16.251 24.9735 16.2671 25.0564 16.3063C25.131 16.359 25.1902 16.4307 25.2279 16.5139C25.2656 16.5972 25.2804 16.6889 25.2709 16.7797V17.3218C25.2618 17.4009 25.2741 17.481 25.3066 17.5537C25.339 17.6264 25.3903 17.6891 25.4552 17.7353C25.5278 17.7679 25.6076 17.7807 25.6867 17.7724C25.7658 17.7641 25.8413 17.7351 25.9056 17.6882L28.1592 16.3877L28.1913 16.4455L25.9463 17.746C25.8497 17.8068 25.7387 17.8408 25.6246 17.8446Z" fill="#FFA54B"/>
<path d="M25.6246 17.8446C25.5565 17.8451 25.4893 17.8281 25.4295 17.7953C25.3548 17.7427 25.2954 17.671 25.2577 17.5878C25.22 17.5045 25.2053 17.4127 25.2151 17.3218V16.7797C25.236 16.6983 25.2295 16.6122 25.1967 16.5348C25.1638 16.4574 25.1065 16.3929 25.0334 16.3513C24.9602 16.3097 24.8755 16.2932 24.7921 16.3044C24.7087 16.3156 24.6313 16.3539 24.5718 16.4134L24.1001 16.6855L24.0658 16.6255L24.5375 16.3555C24.6116 16.3015 24.6989 16.2684 24.7902 16.2597C24.8815 16.251 24.9735 16.2671 25.0564 16.3063C25.131 16.359 25.1902 16.4307 25.2279 16.5139C25.2656 16.5972 25.2804 16.6889 25.2709 16.7797V17.3218C25.2618 17.4009 25.2741 17.481 25.3066 17.5537C25.339 17.6264 25.3903 17.6891 25.4552 17.7353C25.5278 17.7679 25.6076 17.7807 25.6867 17.7724C25.7658 17.7641 25.8413 17.7351 25.9056 17.6882L28.1592 16.3877L28.1913 16.4455L25.9463 17.746C25.8497 17.8068 25.7387 17.8408 25.6246 17.8446Z" stroke="#171753" stroke-width="0.3" stroke-linejoin="round"/>
</g>
<g style="mix-blend-mode:lighten">
<path d="M26.5018 18.348C26.4336 18.3485 26.3664 18.3316 26.3067 18.2987C26.2319 18.2461 26.1726 18.1744 26.1349 18.0912C26.0972 18.0079 26.0825 17.9161 26.0923 17.8252V17.2832C26.1097 17.2038 26.1014 17.1209 26.0686 17.0465C26.0358 16.9721 25.9802 16.9101 25.9098 16.8693C25.8394 16.8285 25.7579 16.8112 25.677 16.8197C25.5961 16.8282 25.52 16.8622 25.4597 16.9168L24.988 17.1889L24.9537 17.1311L25.4254 16.859C25.4964 16.7979 25.5847 16.7604 25.6781 16.7519C25.7714 16.7433 25.865 16.7641 25.946 16.8112C26.0269 16.8584 26.0912 16.9297 26.1297 17.015C26.1682 17.1004 26.1791 17.1956 26.1609 17.2875V17.8295C26.1435 17.9089 26.1518 17.9918 26.1845 18.0662C26.2173 18.1406 26.2729 18.2026 26.3433 18.2434C26.4137 18.2842 26.4952 18.3015 26.5761 18.293C26.657 18.2844 26.7331 18.2504 26.7934 18.1959L29.047 16.8954L29.0814 16.9532L26.8278 18.2537C26.7295 18.3137 26.617 18.3463 26.5018 18.348Z" fill="#FFA54B"/>
<path d="M26.5018 18.348C26.4336 18.3485 26.3664 18.3316 26.3067 18.2987C26.2319 18.2461 26.1726 18.1744 26.1349 18.0912C26.0972 18.0079 26.0825 17.9161 26.0923 17.8252V17.2832C26.1097 17.2038 26.1014 17.1209 26.0686 17.0465C26.0358 16.9721 25.9802 16.9101 25.9098 16.8693C25.8394 16.8285 25.7579 16.8112 25.677 16.8197C25.5961 16.8282 25.52 16.8622 25.4597 16.9168L24.988 17.1889L24.9537 17.1311L25.4254 16.859C25.4964 16.7979 25.5847 16.7604 25.6781 16.7519C25.7714 16.7433 25.865 16.7641 25.946 16.8112C26.0269 16.8584 26.0912 16.9297 26.1297 17.015C26.1682 17.1004 26.1791 17.1956 26.1609 17.2875V17.8295C26.1435 17.9089 26.1518 17.9918 26.1845 18.0662C26.2173 18.1406 26.2729 18.2026 26.3433 18.2434C26.4137 18.2842 26.4952 18.3015 26.5761 18.293C26.657 18.2844 26.7331 18.2504 26.7934 18.1959L29.047 16.8954L29.0814 16.9532L26.8278 18.2537C26.7295 18.3137 26.617 18.3463 26.5018 18.348Z" stroke="#171753" stroke-width="0.3" stroke-linejoin="round"/>
</g>
<g style="mix-blend-mode:lighten">
<path d="M27.3766 18.845C27.3083 18.8463 27.241 18.8292 27.1815 18.7958C27.1069 18.743 27.0477 18.6713 27.01 18.5881C26.9723 18.5049 26.9575 18.4131 26.967 18.3223V17.7802C26.9761 17.7011 26.9637 17.621 26.9313 17.5483C26.8989 17.4756 26.8475 17.4129 26.7826 17.3667C26.7101 17.3341 26.6302 17.3213 26.5511 17.3296C26.472 17.3379 26.3966 17.367 26.3324 17.4138L25.8628 17.6859L25.8284 17.6281L26.3002 17.356C26.3712 17.2949 26.4595 17.2575 26.5528 17.2489C26.6462 17.2404 26.7398 17.2611 26.8208 17.3083C26.9017 17.3555 26.966 17.4267 27.0045 17.5121C27.043 17.5974 27.0539 17.6926 27.0357 17.7845V18.3266C27.0183 18.406 27.0265 18.4888 27.0593 18.5632C27.0921 18.6376 27.1477 18.6997 27.2181 18.7404C27.2885 18.7812 27.37 18.7986 27.4509 18.79C27.5318 18.7815 27.6079 18.7475 27.6682 18.6929L29.9218 17.3924L29.9561 17.4524L27.7025 18.7508C27.6043 18.8108 27.4917 18.8433 27.3766 18.845Z" fill="#FFA54B"/>
<path d="M27.3766 18.845C27.3083 18.8463 27.241 18.8292 27.1815 18.7958C27.1069 18.743 27.0477 18.6713 27.01 18.5881C26.9723 18.5049 26.9575 18.4131 26.967 18.3223V17.7802C26.9761 17.7011 26.9637 17.621 26.9313 17.5483C26.8989 17.4756 26.8475 17.4129 26.7826 17.3667C26.7101 17.3341 26.6302 17.3213 26.5511 17.3296C26.472 17.3379 26.3966 17.367 26.3324 17.4138L25.8628 17.6859L25.8284 17.6281L26.3002 17.356C26.3712 17.2949 26.4595 17.2575 26.5528 17.2489C26.6462 17.2404 26.7398 17.2611 26.8208 17.3083C26.9017 17.3555 26.966 17.4267 27.0045 17.5121C27.043 17.5974 27.0539 17.6926 27.0357 17.7845V18.3266C27.0183 18.406 27.0265 18.4888 27.0593 18.5632C27.0921 18.6376 27.1477 18.6997 27.2181 18.7404C27.2885 18.7812 27.37 18.7986 27.4509 18.79C27.5318 18.7815 27.6079 18.7475 27.6682 18.6929L29.9218 17.3924L29.9561 17.4524L27.7025 18.7508C27.6043 18.8108 27.4917 18.8433 27.3766 18.845Z" stroke="#171753" stroke-width="0.3" stroke-linejoin="round"/>
</g>
<g style="mix-blend-mode:lighten">
<path d="M28.2536 19.3572C28.1852 19.358 28.1177 19.3402 28.0585 19.3058C27.9843 19.2532 27.9253 19.1819 27.8876 19.0991C27.8499 19.0163 27.8349 18.925 27.8441 18.8345V18.2902C27.8632 18.2092 27.8555 18.1242 27.8223 18.0478C27.789 17.9715 27.7319 17.908 27.6595 17.8667C27.5871 17.8255 27.5033 17.8088 27.4207 17.8191C27.338 17.8294 27.2609 17.8662 27.2008 17.9239L26.7312 18.196L26.6969 18.1381L27.1665 17.866C27.2375 17.8049 27.3259 17.7675 27.4192 17.759C27.5125 17.7504 27.6062 17.7712 27.6871 17.8183C27.7681 17.8655 27.8323 17.9367 27.8708 18.0221C27.9093 18.1074 27.9202 18.2027 27.902 18.2945V18.8452C27.8818 18.9264 27.8888 19.0121 27.9219 19.089C27.9549 19.166 28.0124 19.23 28.0853 19.2712C28.1582 19.3125 28.2426 19.3288 28.3257 19.3177C28.4087 19.3065 28.4859 19.2685 28.5453 19.2094L30.7989 17.9089L30.8332 17.9689L28.5796 19.2694C28.4802 19.326 28.368 19.3563 28.2536 19.3572Z" fill="#FFA54B"/>
<path d="M28.2536 19.3572C28.1852 19.358 28.1177 19.3402 28.0585 19.3058C27.9843 19.2532 27.9253 19.1819 27.8876 19.0991C27.8499 19.0163 27.8349 18.925 27.8441 18.8345V18.2902C27.8632 18.2092 27.8555 18.1242 27.8223 18.0478C27.789 17.9715 27.7319 17.908 27.6595 17.8667C27.5871 17.8255 27.5033 17.8088 27.4207 17.8191C27.338 17.8294 27.2609 17.8662 27.2008 17.9239L26.7312 18.196L26.6969 18.1381L27.1665 17.866C27.2375 17.8049 27.3259 17.7675 27.4192 17.759C27.5125 17.7504 27.6062 17.7712 27.6871 17.8183C27.7681 17.8655 27.8323 17.9367 27.8708 18.0221C27.9093 18.1074 27.9202 18.2027 27.902 18.2945V18.8452C27.8818 18.9264 27.8888 19.0121 27.9219 19.089C27.9549 19.166 28.0124 19.23 28.0853 19.2712C28.1582 19.3125 28.2426 19.3288 28.3257 19.3177C28.4087 19.3065 28.4859 19.2685 28.5453 19.2094L30.7989 17.9089L30.8332 17.9689L28.5796 19.2694C28.4802 19.326 28.368 19.3563 28.2536 19.3572Z" stroke="#171753" stroke-width="0.3" stroke-linejoin="round"/>
</g>
<g style="mix-blend-mode:lighten">
<path d="M29.1307 19.8607C29.0622 19.8614 28.9948 19.8437 28.9356 19.8093C28.8613 19.7567 28.8023 19.6853 28.7647 19.6025C28.727 19.5197 28.712 19.4284 28.7212 19.3379V18.7937C28.7413 18.7124 28.7344 18.6268 28.7013 18.5499C28.6682 18.4729 28.6108 18.4089 28.5379 18.3676C28.465 18.3264 28.3805 18.31 28.2975 18.3212C28.2144 18.3324 28.1373 18.3704 28.0779 18.4295L27.6083 18.6994L27.574 18.6416L28.0436 18.3695C28.1146 18.3084 28.2029 18.271 28.2962 18.2624C28.3895 18.2539 28.4833 18.2746 28.5642 18.3218C28.6452 18.3689 28.7093 18.4402 28.7478 18.5255C28.7864 18.6109 28.7973 18.7062 28.7791 18.798V19.3422C28.7707 19.4212 28.7834 19.5011 28.8157 19.5737C28.8481 19.6463 28.8991 19.7091 28.9635 19.7557C29.0361 19.7884 29.1162 19.8011 29.1953 19.7924C29.2745 19.7838 29.3499 19.7541 29.4137 19.7064L31.6674 18.4081L31.7017 18.4659L29.4481 19.7664C29.3519 19.8239 29.2428 19.8563 29.1307 19.8607Z" fill="#FFA54B"/>
<path d="M29.1307 19.8607C29.0622 19.8614 28.9948 19.8437 28.9356 19.8093C28.8613 19.7567 28.8023 19.6853 28.7647 19.6025C28.727 19.5197 28.712 19.4284 28.7212 19.3379V18.7937C28.7413 18.7124 28.7344 18.6268 28.7013 18.5499C28.6682 18.4729 28.6108 18.4089 28.5379 18.3676C28.465 18.3264 28.3805 18.31 28.2975 18.3212C28.2144 18.3324 28.1373 18.3704 28.0779 18.4295L27.6083 18.6994L27.574 18.6416L28.0436 18.3695C28.1146 18.3084 28.2029 18.271 28.2962 18.2624C28.3895 18.2539 28.4833 18.2746 28.5642 18.3218C28.6452 18.3689 28.7093 18.4402 28.7478 18.5255C28.7864 18.6109 28.7973 18.7062 28.7791 18.798V19.3422C28.7707 19.4212 28.7834 19.5011 28.8157 19.5737C28.8481 19.6463 28.8991 19.7091 28.9635 19.7557C29.0361 19.7884 29.1162 19.8011 29.1953 19.7924C29.2745 19.7838 29.3499 19.7541 29.4137 19.7064L31.6674 18.4081L31.7017 18.4659L29.4481 19.7664C29.3519 19.8239 29.2428 19.8563 29.1307 19.8607Z" stroke="#171753" stroke-width="0.3" stroke-linejoin="round"/>
</g>
<g style="mix-blend-mode:lighten">
<path d="M30.0076 20.3641C29.9391 20.3649 29.8717 20.3471 29.8125 20.3127C29.7378 20.2606 29.6784 20.1893 29.6407 20.1064C29.6029 20.0234 29.5882 19.9319 29.5981 19.8413V19.2971C29.607 19.2186 29.5947 19.1391 29.5627 19.0668C29.5307 18.9945 29.48 18.932 29.4158 18.8858C29.3433 18.8532 29.2634 18.8404 29.1843 18.8487C29.1052 18.8569 29.0298 18.886 28.9656 18.9329L28.4938 19.205L28.4616 19.145L28.9312 18.8751C29.0018 18.8125 29.0904 18.7739 29.1843 18.7646C29.2782 18.7553 29.3726 18.7759 29.4541 18.8234C29.5357 18.8709 29.6001 18.9429 29.6383 19.0291C29.6764 19.1153 29.6864 19.2114 29.6667 19.3036V19.8478C29.6476 19.9288 29.6553 20.0138 29.6885 20.0902C29.7218 20.1665 29.7789 20.23 29.8513 20.2713C29.9237 20.3125 30.0075 20.3292 30.0901 20.3189C30.1728 20.3086 30.25 20.2719 30.31 20.2141L32.5636 18.9136L32.5979 18.9715L30.3422 20.272C30.2412 20.3327 30.1255 20.3646 30.0076 20.3641Z" fill="#FFA54B"/>
<path d="M30.0076 20.3641C29.9391 20.3649 29.8717 20.3471 29.8125 20.3127C29.7378 20.2606 29.6784 20.1893 29.6407 20.1064C29.6029 20.0234 29.5882 19.9319 29.5981 19.8413V19.2971C29.607 19.2186 29.5947 19.1391 29.5627 19.0668C29.5307 18.9945 29.48 18.932 29.4158 18.8858C29.3433 18.8532 29.2634 18.8404 29.1843 18.8487C29.1052 18.8569 29.0298 18.886 28.9656 18.9329L28.4938 19.205L28.4616 19.145L28.9312 18.8751C29.0018 18.8125 29.0904 18.7739 29.1843 18.7646C29.2782 18.7553 29.3726 18.7759 29.4541 18.8234C29.5357 18.8709 29.6001 18.9429 29.6383 19.0291C29.6764 19.1153 29.6864 19.2114 29.6667 19.3036V19.8478C29.6476 19.9288 29.6553 20.0138 29.6885 20.0902C29.7218 20.1665 29.7789 20.23 29.8513 20.2713C29.9237 20.3125 30.0075 20.3292 30.0901 20.3189C30.1728 20.3086 30.25 20.2719 30.31 20.2141L32.5636 18.9136L32.5979 18.9715L30.3422 20.272C30.2412 20.3327 30.1255 20.3646 30.0076 20.3641Z" stroke="#171753" stroke-width="0.3" stroke-linejoin="round"/>
</g>
<g style="mix-blend-mode:lighten">
<path d="M30.8783 20.8677C30.8101 20.8682 30.7429 20.8513 30.6832 20.8184C30.6084 20.7658 30.5491 20.6941 30.5114 20.6109C30.4737 20.5276 30.459 20.4358 30.4688 20.3449V19.8029C30.4862 19.7235 30.4779 19.6406 30.4451 19.5662C30.4123 19.4918 30.3567 19.4297 30.2863 19.389C30.2159 19.3482 30.1344 19.3309 30.0535 19.3394C29.9726 19.3479 29.8965 19.3819 29.8362 19.4365L29.3773 19.7022L29.343 19.6422L29.8147 19.3722C29.8884 19.3181 29.9754 19.285 30.0663 19.2763C30.1573 19.2677 30.2489 19.2838 30.3315 19.3229C30.4063 19.3756 30.4656 19.4472 30.5033 19.5305C30.541 19.6138 30.5557 19.7056 30.5459 19.7964V20.3449C30.5369 20.424 30.5492 20.5041 30.5817 20.5768C30.6141 20.6495 30.6654 20.7122 30.7303 20.7584C30.8029 20.791 30.8827 20.8038 30.9618 20.7955C31.0409 20.7873 31.1164 20.7582 31.1806 20.7113L33.4342 19.4108L33.4664 19.4686L31.2064 20.7734C31.1075 20.8338 30.9941 20.8664 30.8783 20.8677Z" fill="#FFA54B"/>
<path d="M30.8783 20.8677C30.8101 20.8682 30.7429 20.8513 30.6832 20.8184C30.6084 20.7658 30.5491 20.6941 30.5114 20.6109C30.4737 20.5276 30.459 20.4358 30.4688 20.3449V19.8029C30.4862 19.7235 30.4779 19.6406 30.4451 19.5662C30.4123 19.4918 30.3567 19.4297 30.2863 19.389C30.2159 19.3482 30.1344 19.3309 30.0535 19.3394C29.9726 19.3479 29.8965 19.3819 29.8362 19.4365L29.3773 19.7022L29.343 19.6422L29.8147 19.3722C29.8884 19.3181 29.9754 19.285 30.0663 19.2763C30.1573 19.2677 30.2489 19.2838 30.3315 19.3229C30.4063 19.3756 30.4656 19.4472 30.5033 19.5305C30.541 19.6138 30.5557 19.7056 30.5459 19.7964V20.3449C30.5369 20.424 30.5492 20.5041 30.5817 20.5768C30.6141 20.6495 30.6654 20.7122 30.7303 20.7584C30.8029 20.791 30.8827 20.8038 30.9618 20.7955C31.0409 20.7873 31.1164 20.7582 31.1806 20.7113L33.4342 19.4108L33.4664 19.4686L31.2064 20.7734C31.1075 20.8338 30.9941 20.8664 30.8783 20.8677Z" stroke="#171753" stroke-width="0.3" stroke-linejoin="round"/>
</g>
<path d="M31.7618 21.3711C31.6936 21.3718 31.6263 21.3549 31.5666 21.3219C31.4918 21.2692 31.4325 21.1976 31.3948 21.1143C31.3571 21.031 31.3424 20.9392 31.3522 20.8484V20.3063C31.3731 20.2249 31.3666 20.1388 31.3338 20.0614C31.301 19.984 31.2436 19.9195 31.1705 19.8778C31.0974 19.8362 31.0126 19.8197 30.9292 19.8309C30.8458 19.8422 30.7684 19.8805 30.7089 19.9399L30.2372 20.212L30.2029 20.1542L30.6746 19.8821C30.7456 19.821 30.8339 19.7836 30.9273 19.775C31.0206 19.7665 31.1143 19.7872 31.1952 19.8344C31.2762 19.8815 31.3404 19.9528 31.3789 20.0381C31.4174 20.1235 31.4283 20.2187 31.4101 20.3106V20.8526C31.3927 20.932 31.401 21.0149 31.4338 21.0893C31.4665 21.1637 31.5221 21.2258 31.5925 21.2665C31.6629 21.3073 31.7444 21.3247 31.8253 21.3161C31.9062 21.3076 31.9823 21.2736 32.0426 21.219L34.3091 19.9164L34.3434 19.9764L32.0898 21.2747C31.9912 21.3358 31.8778 21.3692 31.7618 21.3711Z" fill="#171753" stroke="#171753" stroke-width="0.3" stroke-linejoin="round"/>
<path d="M32.6364 21.8747C32.5681 21.8759 32.5008 21.8589 32.4413 21.8254C32.3667 21.7726 32.3075 21.7009 32.2698 21.6177C32.2321 21.5345 32.2173 21.4427 32.2269 21.3519V20.8098C32.246 20.7288 32.2383 20.6438 32.205 20.5674C32.1718 20.4911 32.1147 20.4276 32.0423 20.3863C31.97 20.3451 31.8862 20.3284 31.8035 20.3387C31.7208 20.349 31.6436 20.3858 31.5836 20.4435L31.114 20.7156L31.0797 20.6577L31.5514 20.3856C31.6224 20.3245 31.7108 20.2871 31.8041 20.2786C31.8974 20.27 31.9911 20.2908 32.072 20.3379C32.153 20.3851 32.2172 20.4563 32.2557 20.5417C32.2942 20.627 32.3052 20.7223 32.2869 20.8141V21.3562C32.266 21.4376 32.2725 21.5237 32.3053 21.6011C32.3381 21.6785 32.3955 21.743 32.4686 21.7846C32.5417 21.8263 32.6265 21.8428 32.7099 21.8315C32.7933 21.8203 32.8707 21.782 32.9302 21.7226L35.1838 20.422L35.2181 20.482L32.9645 21.7825C32.865 21.8412 32.7519 21.873 32.6364 21.8747Z" fill="#171753" stroke="#171753" stroke-width="0.3" stroke-linejoin="round"/>
<path d="M33.5134 22.3803C33.4449 22.381 33.3774 22.3633 33.3182 22.3289C33.244 22.2763 33.185 22.2049 33.1474 22.1221C33.1097 22.0393 33.0946 21.948 33.1038 21.8575V21.3133C33.1229 21.2323 33.1153 21.1472 33.082 21.0709C33.0488 20.9945 32.9917 20.931 32.9193 20.8898C32.8469 20.8486 32.7631 20.8318 32.6804 20.8421C32.5977 20.8524 32.5206 20.8892 32.4605 20.9469L31.991 21.219L31.9567 21.1612L32.4262 20.8891C32.4973 20.828 32.5856 20.7906 32.6789 20.782C32.7723 20.7735 32.8659 20.7942 32.9469 20.8414C33.0278 20.8885 33.092 20.9598 33.1306 21.0451C33.1691 21.1305 33.1799 21.2257 33.1617 21.3176V21.8618C33.1415 21.9431 33.1485 22.0287 33.1816 22.1056C33.2147 22.1826 33.2721 22.2466 33.345 22.2879C33.418 22.3291 33.5024 22.3454 33.5854 22.3343C33.6685 22.3231 33.7456 22.2851 33.805 22.226L36.0586 20.9255L36.0929 20.9855L33.8372 22.2731C33.7403 22.3362 33.6288 22.3731 33.5134 22.3803Z" fill="#171753" stroke="#171753" stroke-width="0.3" stroke-linejoin="round"/>
<path d="M34.3905 22.8838C34.322 22.8846 34.2546 22.8668 34.1954 22.8324C34.1212 22.7798 34.0622 22.7084 34.0245 22.6256C33.9868 22.5428 33.9718 22.4515 33.981 22.361V21.8168C34.0012 21.7356 33.9942 21.6499 33.9611 21.573C33.928 21.496 33.8706 21.432 33.7977 21.3908C33.7248 21.3495 33.6404 21.3332 33.5573 21.3443C33.4743 21.3555 33.3971 21.3935 33.3377 21.4526L32.866 21.7226L32.8339 21.6647L33.3034 21.3926C33.3745 21.3315 33.4628 21.2941 33.5561 21.2855C33.6494 21.277 33.7431 21.2977 33.8241 21.3449C33.905 21.3921 33.9692 21.4633 34.0077 21.5487C34.0462 21.634 34.0571 21.7293 34.0389 21.8211V22.3653C34.0306 22.4444 34.0432 22.5242 34.0756 22.5968C34.108 22.6694 34.1589 22.7322 34.2233 22.7788C34.296 22.8115 34.376 22.8242 34.4552 22.8155C34.5344 22.8069 34.6098 22.7772 34.6736 22.7295L36.9272 21.4312L36.9616 21.489L34.7079 22.7895C34.6117 22.847 34.5026 22.8794 34.3905 22.8838Z" fill="#171753" stroke="#171753" stroke-width="0.3" stroke-linejoin="round"/>
<path d="M35.2674 23.3873C35.1989 23.388 35.1315 23.3703 35.0723 23.3358C34.9975 23.2837 34.9381 23.2124 34.9004 23.1295C34.8627 23.0466 34.848 22.955 34.8579 22.8645V22.3224C34.8753 22.243 34.867 22.1601 34.8342 22.0858C34.8014 22.0114 34.7458 21.9493 34.6754 21.9085C34.605 21.8678 34.5235 21.8504 34.4426 21.859C34.3617 21.8675 34.2856 21.9015 34.2253 21.9561L33.7535 22.2282L33.7192 22.1682L34.191 21.8961C34.262 21.835 34.3503 21.7975 34.4437 21.789C34.537 21.7804 34.6306 21.8012 34.7116 21.8484C34.7925 21.8955 34.8568 21.9668 34.8953 22.0521C34.9338 22.1375 34.9447 22.2327 34.9264 22.3246V22.8666C34.9174 22.9457 34.9298 23.0258 34.9622 23.0985C34.9946 23.1712 35.046 23.234 35.1109 23.2801C35.1834 23.3127 35.2633 23.3255 35.3424 23.3172C35.4214 23.3089 35.497 23.2799 35.5612 23.233L37.8148 21.9325L37.8469 21.9903L35.5955 23.2887C35.497 23.3506 35.3836 23.3846 35.2674 23.3873Z" fill="#171753" stroke="#171753" stroke-width="0.3" stroke-linejoin="round"/>
<path d="M36.1445 23.8907C36.0763 23.8914 36.0091 23.8745 35.9494 23.8415C35.8746 23.7888 35.8153 23.7172 35.7776 23.6339C35.7399 23.5507 35.7252 23.4588 35.735 23.368V22.8259C35.7559 22.7445 35.7494 22.6584 35.7166 22.581C35.6837 22.5036 35.6264 22.4391 35.5532 22.3974C35.4801 22.3558 35.3954 22.3393 35.312 22.3505C35.2286 22.3618 35.1512 22.4001 35.0917 22.4595L34.62 22.7316L34.5857 22.6716L35.0574 22.4017C35.1284 22.3406 35.2168 22.3032 35.3101 22.2946C35.4034 22.2861 35.4971 22.3068 35.578 22.354C35.659 22.4011 35.7232 22.4724 35.7617 22.5577C35.8002 22.6431 35.8111 22.7383 35.7929 22.8302V23.3722C35.772 23.4537 35.7784 23.5397 35.8113 23.6172C35.8441 23.6946 35.9015 23.7591 35.9746 23.8007C36.0477 23.8423 36.1325 23.8588 36.2159 23.8476C36.2993 23.8364 36.3766 23.7981 36.4361 23.7386L38.6897 22.4381L38.7241 22.4959L36.4705 23.7965C36.3722 23.8565 36.2597 23.889 36.1445 23.8907Z" fill="#171753" stroke="#171753" stroke-width="0.3" stroke-linejoin="round"/>
<path d="M37.0194 24.3942C36.9512 24.3945 36.8842 24.3775 36.8243 24.345C36.7497 24.2922 36.6905 24.2205 36.6528 24.1373C36.6151 24.054 36.6003 23.9623 36.6099 23.8715V23.3294C36.6189 23.2503 36.6065 23.1702 36.5741 23.0975C36.5417 23.0248 36.4904 22.9621 36.4255 22.9159C36.353 22.8833 36.273 22.8705 36.1939 22.8788C36.1149 22.8871 36.0394 22.9161 35.9752 22.963L35.5056 23.2351L35.4713 23.1773L35.943 22.9052C36.0141 22.8441 36.1024 22.8067 36.1957 22.7981C36.289 22.7896 36.3826 22.8103 36.4636 22.8575C36.5446 22.9046 36.6088 22.9759 36.6473 23.0612C36.6858 23.1466 36.6967 23.2418 36.6785 23.3337V23.8757C36.6611 23.9551 36.6694 24.038 36.7022 24.1124C36.735 24.1868 36.7906 24.2489 36.8609 24.2896C36.9313 24.3304 37.0128 24.3478 37.0937 24.3392C37.1746 24.3307 37.2507 24.2967 37.311 24.2421L39.5647 22.9416L39.599 23.0016L37.3453 24.3C37.2471 24.36 37.1345 24.3925 37.0194 24.3942Z" fill="#171753" stroke="#171753" stroke-width="0.3" stroke-linejoin="round"/>
<path d="M37.8964 24.8977C37.8281 24.8992 37.7606 24.8822 37.7013 24.8484C37.6267 24.7957 37.5675 24.724 37.5298 24.6408C37.4921 24.5575 37.4773 24.4658 37.4868 24.3749V23.8329C37.506 23.7519 37.4983 23.6668 37.465 23.5905C37.4317 23.5141 37.3747 23.4506 37.3023 23.4094C37.2299 23.3682 37.1461 23.3514 37.0634 23.3617C36.9808 23.372 36.9036 23.4088 36.8436 23.4665L36.3739 23.7386L36.3396 23.6808L36.8092 23.4087C36.8802 23.3476 36.9686 23.3101 37.0619 23.3016C37.1552 23.293 37.2489 23.3138 37.3298 23.361C37.4108 23.4081 37.475 23.4794 37.5135 23.5647C37.5521 23.6501 37.563 23.7453 37.5447 23.8372V24.3792C37.5256 24.4603 37.5333 24.5453 37.5665 24.6216C37.5998 24.698 37.6569 24.7615 37.7293 24.8027C37.8017 24.844 37.8855 24.8607 37.9681 24.8504C38.0508 24.8401 38.128 24.8033 38.188 24.7456L40.4416 23.4451L40.4759 23.5051L38.2223 24.8056C38.1235 24.8639 38.0112 24.8956 37.8964 24.8977Z" fill="#171753" stroke="#171753" stroke-width="0.3" stroke-linejoin="round"/>
<path d="M38.7734 25.4034C38.7049 25.4042 38.6374 25.3864 38.5782 25.352C38.5039 25.2994 38.445 25.228 38.4073 25.1452C38.3696 25.0624 38.3546 24.9711 38.3638 24.8806V24.3364C38.3721 24.2574 38.3595 24.1775 38.3271 24.1049C38.2948 24.0324 38.2438 23.9696 38.1794 23.9229C38.1068 23.8902 38.0267 23.8775 37.9475 23.8862C37.8683 23.8949 37.7929 23.9245 37.7291 23.9722L37.2574 24.2422L37.2252 24.1843L37.6948 23.9122C37.7658 23.8511 37.8541 23.8137 37.9474 23.8051C38.0408 23.7966 38.1345 23.8173 38.2154 23.8645C38.2964 23.9117 38.3605 23.9829 38.3991 24.0683C38.4376 24.1536 38.4485 24.2489 38.4303 24.3407V24.8849C38.4101 24.9662 38.4171 25.0518 38.4502 25.1288C38.4833 25.2057 38.5406 25.2697 38.6135 25.311C38.6865 25.3523 38.7709 25.3686 38.854 25.3574C38.937 25.3462 39.0141 25.3082 39.0735 25.2491L41.3272 23.9508L41.3614 24.0086L39.1078 25.3091C39.0066 25.3694 38.8912 25.402 38.7734 25.4034Z" fill="#171753" stroke="#171753" stroke-width="0.3" stroke-linejoin="round"/>
<path d="M39.6505 25.9154C39.582 25.9162 39.5146 25.8984 39.4553 25.864C39.3806 25.8119 39.3212 25.7406 39.2835 25.6577C39.2458 25.5747 39.2311 25.4832 39.2409 25.3926V24.8441C39.2495 24.7653 39.2372 24.6856 39.2052 24.613C39.1732 24.5404 39.1227 24.4775 39.0586 24.4306C38.986 24.3979 38.906 24.3852 38.8268 24.3939C38.7476 24.4026 38.6722 24.4323 38.6084 24.4799L38.1367 24.7499L38.1023 24.692L38.574 24.4199C38.6451 24.3588 38.7334 24.3214 38.8267 24.3129C38.9201 24.3043 39.0137 24.3251 39.0947 24.3722C39.1756 24.4194 39.2398 24.4906 39.2784 24.576C39.3169 24.6613 39.3278 24.7566 39.3096 24.8484V25.3926C39.2904 25.4737 39.2981 25.5587 39.3313 25.635C39.3646 25.7114 39.4217 25.7749 39.4941 25.8161C39.5665 25.8574 39.6503 25.8741 39.733 25.8638C39.8156 25.8535 39.8928 25.8167 39.9528 25.759L42.2064 24.4585L42.2386 24.5163L39.985 25.8168C39.8843 25.879 39.7688 25.9131 39.6505 25.9154Z" fill="#171753" stroke="#171753" stroke-width="0.3" stroke-linejoin="round"/>
<path d="M40.5274 26.4104C40.4589 26.4112 40.3915 26.3934 40.3323 26.359C40.2576 26.3069 40.1982 26.2356 40.1605 26.1527C40.1227 26.0698 40.108 25.9782 40.1179 25.8876V25.3456C40.1388 25.2641 40.1323 25.1781 40.0995 25.1007C40.0666 25.0233 40.0092 24.9588 39.9361 24.9171C39.863 24.8755 39.7783 24.859 39.6949 24.8702C39.6115 24.8814 39.5341 24.9197 39.4746 24.9792L39.0028 25.2513L38.9686 25.1913L39.4403 24.9214C39.5139 24.8673 39.6009 24.8341 39.6919 24.8255C39.7829 24.8168 39.8745 24.8329 39.9571 24.8721C40.0319 24.9247 40.0911 24.9964 40.1288 25.0796C40.1665 25.1629 40.1813 25.2547 40.1715 25.3456V25.8876C40.1506 25.9691 40.157 26.0551 40.1899 26.1326C40.2227 26.21 40.2801 26.2745 40.3532 26.3161C40.4263 26.3577 40.5111 26.3742 40.5945 26.363C40.6779 26.3518 40.7553 26.3135 40.8148 26.254L43.0705 24.9535L43.1027 25.0114L40.8491 26.3119C40.7525 26.3726 40.6415 26.4067 40.5274 26.4104Z" fill="#171753" stroke="#171753" stroke-width="0.3" stroke-linejoin="round"/>
<path d="M26.4138 39.756L24.1601 38.4555C23.956 38.3223 23.7862 38.1429 23.6643 37.9318C23.5425 37.7208 23.4721 37.484 23.459 37.2407V36.6987C23.4459 36.467 23.3785 36.2416 23.2623 36.0406C23.1461 35.8397 22.9843 35.6688 22.79 35.5417L22.3204 35.2717L22.3547 35.2118L22.8243 35.4839C23.0287 35.6168 23.1987 35.7962 23.3206 36.0073C23.4424 36.2184 23.5126 36.4553 23.5255 36.6987V37.2407C23.5381 37.4725 23.6052 37.6981 23.7214 37.8992C23.8377 38.1002 23.9998 38.271 24.1945 38.3977L26.4481 39.696L26.4138 39.756Z" fill="#171753" stroke="#171753" stroke-width="0.3" stroke-linejoin="round"/>
<path d="M27.2907 39.2505L25.0371 37.95C24.8329 37.8174 24.6629 37.6384 24.5411 37.4276C24.4192 37.2169 24.3489 36.9804 24.3359 36.7373V36.1996C24.323 35.9681 24.2557 35.743 24.1394 35.5423C24.0232 35.3417 23.8614 35.1712 23.6669 35.0448L23.1973 34.7727L23.2295 34.7148L23.7012 34.9869C23.9051 35.1199 24.0748 35.299 24.1966 35.5097C24.3184 35.7203 24.3889 35.9567 24.4024 36.1996V36.7438C24.4153 36.9752 24.4826 37.2004 24.5989 37.401C24.7151 37.6017 24.8769 37.7721 25.0714 37.8986L27.325 39.1991L27.2907 39.2505Z" fill="#171753" stroke="#171753" stroke-width="0.3" stroke-linejoin="round"/>
<path d="M28.1678 38.7469L25.9142 37.4464C25.7096 37.3134 25.5393 37.1341 25.4171 36.923C25.2949 36.712 25.2243 36.4751 25.2108 36.2316V35.6895C25.1986 35.4579 25.1319 35.2323 25.016 35.0313C24.9001 34.8303 24.7384 34.6594 24.5439 34.5326L24.0722 34.2626L24.1065 34.2026L24.5783 34.4747C24.7824 34.608 24.9523 34.7874 25.0741 34.9984C25.1959 35.2095 25.2662 35.4463 25.2794 35.6895V36.2316C25.2926 36.463 25.3598 36.6882 25.4756 36.8891C25.5914 37.09 25.7526 37.261 25.9463 37.3886L28.1999 38.6869L28.1678 38.7469Z" fill="#171753" stroke="#171753" stroke-width="0.3" stroke-linejoin="round"/>
<path d="M29.0425 38.2414L26.7889 36.9409C26.585 36.8078 26.4153 36.6288 26.2935 36.4181C26.1717 36.2074 26.1012 35.9711 26.0877 35.7282V35.184C26.0751 34.9527 26.0083 34.7276 25.8924 34.527C25.7765 34.3263 25.615 34.1558 25.4208 34.0292L24.9491 33.7571L24.9834 33.6992L25.4551 33.9692C25.6589 34.1028 25.8285 34.2823 25.9503 34.4933C26.0721 34.7043 26.1426 34.9408 26.1563 35.184V35.7282C26.1692 35.9594 26.2362 36.1844 26.352 36.385C26.4679 36.5856 26.6293 36.7562 26.8232 36.883L29.0768 38.1835L29.0425 38.2414Z" fill="#171753" stroke="#171753" stroke-width="0.3" stroke-linejoin="round"/>
<path d="M29.9196 37.7379L27.6617 36.4373C27.4579 36.3037 27.2883 36.1242 27.1665 35.9132C27.0448 35.7023 26.9742 35.4657 26.9605 35.2225V34.6783C26.9476 34.4471 26.8806 34.2221 26.7648 34.0215C26.6489 33.821 26.4876 33.6504 26.2937 33.5235L25.8219 33.2514L25.8562 33.1936L26.3258 33.4657C26.5303 33.5982 26.7006 33.7771 26.8228 33.9878C26.945 34.1986 27.0157 34.4352 27.0291 34.6783V35.2225C27.0417 35.4538 27.1085 35.6789 27.2244 35.8796C27.3403 36.0802 27.5018 36.2508 27.696 36.3774L29.9496 37.6779L29.9196 37.7379Z" fill="#171753" stroke="#171753" stroke-width="0.3" stroke-linejoin="round"/>
<path d="M30.7966 37.2322L28.543 35.9317C28.3388 35.7985 28.1689 35.6191 28.0471 35.408C27.9253 35.197 27.855 34.9602 27.8418 34.7169V34.1749C27.8287 33.9432 27.7613 33.7178 27.6451 33.5168C27.5289 33.3159 27.3671 33.145 27.1728 33.0179L26.7032 32.748L26.7375 32.688L27.207 32.9601C27.4113 33.0932 27.5813 33.2726 27.7031 33.4836C27.8249 33.6947 27.8952 33.9315 27.9082 34.1749V34.7169C27.9208 34.9488 27.988 35.1743 28.1042 35.3754C28.2205 35.5764 28.3825 35.7472 28.5773 35.8739L30.8309 37.1744L30.7966 37.2322Z" fill="#171753" stroke="#171753" stroke-width="0.3" stroke-linejoin="round"/>
<path d="M31.6736 36.7265L29.42 35.4281C29.216 35.2948 29.0462 35.1153 28.9244 34.9043C28.8026 34.6933 28.7322 34.4566 28.7188 34.2133V33.6691C28.7059 33.4377 28.6386 33.2125 28.5224 33.0119C28.4061 32.8112 28.2443 32.6408 28.0498 32.5143L27.5803 32.2422L27.6146 32.1844L28.0841 32.4565C28.2883 32.5891 28.4583 32.7681 28.5801 32.9788C28.702 33.1896 28.7723 33.4261 28.7853 33.6691V34.2133C28.7982 34.4448 28.8655 34.6699 28.9818 34.8706C29.098 35.0712 29.2599 35.2416 29.4543 35.3681L31.708 36.6686L31.6736 36.7265Z" fill="#171753" stroke="#171753" stroke-width="0.3" stroke-linejoin="round"/>
<path d="M32.5505 36.2231L30.2969 34.914C30.0923 34.7812 29.9219 34.6019 29.7997 34.3908C29.6774 34.1797 29.6069 33.9427 29.5936 33.6992V33.1572C29.5812 32.9255 29.5144 32.7001 29.3985 32.4991C29.2827 32.298 29.121 32.1271 28.9267 32.0002L28.4571 31.7303L28.4893 31.6703L28.9611 31.9424C29.1652 32.0756 29.335 32.255 29.4569 32.4661C29.5787 32.6771 29.6491 32.9139 29.6622 33.1572V33.6992C29.6751 33.9307 29.7421 34.156 29.8579 34.357C29.9737 34.5579 30.1351 34.7289 30.3291 34.8562L32.5848 36.1545L32.5505 36.2231Z" fill="#171753" stroke="#171753" stroke-width="0.3" stroke-linejoin="round"/>
<path d="M33.4275 35.7175L31.1739 34.417C30.9694 34.2845 30.7991 34.1056 30.6769 33.8948C30.5547 33.6841 30.484 33.4475 30.4706 33.2044V32.6601C30.4581 32.4288 30.3911 32.2037 30.2753 32.0031C30.1594 31.8025 29.9978 31.6319 29.8037 31.5053L29.332 31.2332L29.3663 31.1754L29.838 31.4453C30.0418 31.579 30.2114 31.7585 30.3332 31.9694C30.4549 32.1804 30.5255 32.417 30.5392 32.6601V33.2001C30.552 33.4313 30.6191 33.6563 30.7349 33.8569C30.8507 34.0574 31.0121 34.228 31.2061 34.3549L33.4597 35.6554L33.4275 35.7175Z" fill="#171753" stroke="#171753" stroke-width="0.3" stroke-linejoin="round"/>
<path d="M34.3088 35.2139L32.0552 33.9134C31.8513 33.7799 31.6816 33.6004 31.5598 33.3894C31.438 33.1784 31.3675 32.9418 31.354 32.6986V32.1565C31.3413 31.925 31.2744 31.6996 31.1585 31.4987C31.0427 31.2977 30.8813 31.1267 30.6872 30.9996L30.2154 30.7275L30.2497 30.6696L30.7215 30.9417C30.9256 31.075 31.0955 31.2544 31.2173 31.4654C31.3391 31.6765 31.4095 31.9132 31.4227 32.1565V32.6986C31.4352 32.9299 31.5021 33.155 31.6179 33.3556C31.7338 33.5563 31.8953 33.7268 32.0895 33.8534L34.3431 35.1539L34.3088 35.2139Z" fill="#171753" stroke="#171753" stroke-width="0.3" stroke-linejoin="round"/>
<path d="M35.1794 34.6997L32.9258 33.4142C32.722 33.2812 32.5523 33.1021 32.4305 32.8914C32.3087 32.6808 32.2382 32.4445 32.2246 32.2015V31.6573C32.2118 31.4261 32.1447 31.2011 32.0289 31.0006C31.9131 30.8 31.7517 30.6294 31.5578 30.5025L31.086 30.2304L31.1203 30.1726L31.59 30.4425C31.7945 30.5755 31.9648 30.7548 32.087 30.9659C32.2092 31.177 32.2799 31.4139 32.2933 31.6573V32.2015C32.3058 32.4329 32.3727 32.658 32.4885 32.8586C32.6044 33.0592 32.766 33.2298 32.9601 33.3564L35.2137 34.6569L35.1794 34.6997Z" fill="#171753" stroke="#171753" stroke-width="0.3" stroke-linejoin="round"/>
<path d="M36.0565 34.2026L33.8029 32.9043C33.5991 32.7706 33.4295 32.5911 33.3077 32.3802C33.186 32.1692 33.1154 31.9326 33.1017 31.6895V31.1453C33.0888 30.9138 33.0215 30.6886 32.9053 30.488C32.789 30.2874 32.6271 30.1169 32.4327 29.9904L31.9631 29.7183L31.9974 29.6605L32.467 29.9326C32.6712 30.0652 32.8412 30.2442 32.9631 30.455C33.0849 30.6657 33.1552 30.9022 33.1682 31.1453V31.7002C33.1811 31.9316 33.2484 32.1568 33.3646 32.3574C33.4809 32.558 33.6428 32.7285 33.8372 32.855L36.0908 34.1555L36.0565 34.2026Z" fill="#171753" stroke="#171753" stroke-width="0.3" stroke-linejoin="round"/>
<path d="M36.9334 33.6992L34.6798 32.3986C34.4754 32.2657 34.3054 32.0863 34.1835 31.8752C34.0617 31.6641 33.9915 31.4272 33.9786 31.1838V30.6418C33.9655 30.4101 33.8981 30.1847 33.7819 29.9837C33.6657 29.7828 33.504 29.6119 33.3096 29.4848L32.84 29.2149L32.8722 29.1549L33.3439 29.427C33.5478 29.5605 33.7175 29.7399 33.8393 29.9509C33.9611 30.1619 34.0316 30.3986 34.0451 30.6418V31.1838C34.0577 31.4157 34.1249 31.6413 34.2411 31.8423C34.3574 32.0433 34.5194 32.2141 34.7141 32.3408L36.9677 33.6413L36.9334 33.6992Z" fill="#171753" stroke="#171753" stroke-width="0.3" stroke-linejoin="round"/>
<path d="M37.8106 33.2L35.557 31.8995C35.3525 31.767 35.1822 31.5881 35.06 31.3774C34.9378 31.1666 34.8671 30.9301 34.8537 30.6869V30.1363C34.8411 29.9049 34.7742 29.6798 34.6583 29.4792C34.5425 29.2786 34.3809 29.108 34.1868 28.9814L33.715 28.7093L33.7493 28.6515L34.2211 28.9236C34.425 29.0566 34.5946 29.2357 34.7164 29.4464C34.8383 29.657 34.9088 29.8933 34.9223 30.1363V30.6804C34.9351 30.9117 35.0022 31.1366 35.118 31.3372C35.2339 31.5378 35.3952 31.7084 35.5891 31.8353L37.8427 33.1358L37.8106 33.2Z" fill="#171753" stroke="#171753" stroke-width="0.3" stroke-linejoin="round"/>
<path d="M38.6853 32.69L36.4317 31.3895C36.2275 31.2563 36.0577 31.0769 35.9359 30.8658C35.814 30.6548 35.7437 30.418 35.7305 30.1747V29.6327C35.7178 29.4011 35.6509 29.1758 35.535 28.9748C35.4192 28.7739 35.2577 28.6029 35.0637 28.4757L34.5919 28.2057L34.6262 28.1458L35.0979 28.4179C35.3021 28.5511 35.472 28.7305 35.5938 28.9416C35.7156 29.1526 35.7859 29.3894 35.7991 29.6327V30.1747C35.8117 30.406 35.8786 30.6311 35.9944 30.8318C36.1103 31.0324 36.2719 31.2029 36.466 31.3295L38.7196 32.6301L38.6853 32.69Z" fill="#171753" stroke="#171753" stroke-width="0.3" stroke-linejoin="round"/>
<path d="M39.5623 32.1845L37.3109 30.884C37.107 30.751 36.9373 30.5719 36.8155 30.3612C36.6937 30.1506 36.6232 29.9142 36.6097 29.6713V29.1293C36.5968 28.898 36.5298 28.6731 36.4139 28.4725C36.2981 28.2719 36.1368 28.1013 35.9428 27.9744L35.4711 27.7024L35.5054 27.6445L35.975 27.9145C36.1773 28.0489 36.3453 28.2288 36.4656 28.4397C36.5858 28.6507 36.655 28.8868 36.6676 29.1293V29.6735C36.6801 29.9048 36.747 30.1299 36.8629 30.3305C36.9788 30.5311 37.1403 30.7017 37.3345 30.8283L39.5881 32.1288L39.5623 32.1845Z" fill="#171753" stroke="#171753" stroke-width="0.3" stroke-linejoin="round"/>
<path d="M40.4394 31.681L38.1858 30.3805C37.9819 30.247 37.8122 30.0675 37.6904 29.8565C37.5686 29.6455 37.4981 29.4089 37.4846 29.1657V28.6236C37.472 28.3918 37.4049 28.1662 37.2886 27.9652C37.1724 27.7641 37.0103 27.5933 36.8156 27.4666L36.346 27.201L36.3803 27.1431L36.8499 27.4152C37.0543 27.5482 37.2243 27.7276 37.3461 27.9387C37.468 28.1498 37.5382 28.3867 37.5511 28.63V29.1721C37.564 29.4036 37.6313 29.6287 37.7475 29.8293C37.8637 30.03 38.0256 30.2004 38.2201 30.3269L40.4737 31.6274L40.4394 31.681Z" fill="#171753" stroke="#171753" stroke-width="0.3" stroke-linejoin="round"/>
<path d="M41.3164 31.1753L39.0628 29.8748C38.8584 29.7418 38.6884 29.5624 38.5665 29.3513C38.4447 29.1402 38.3745 28.9033 38.3616 28.66V28.1179C38.3487 27.8865 38.2814 27.6613 38.1652 27.4607C38.0489 27.26 37.8871 27.0896 37.6927 26.9631L37.2231 26.691L37.2552 26.631L37.727 26.9031C37.9309 27.0366 38.1006 27.2161 38.2223 27.4271C38.3441 27.6381 38.4146 27.8747 38.4281 28.1179V28.66C38.4407 28.8918 38.5079 29.1174 38.6241 29.3184C38.7404 29.5194 38.9025 29.6902 39.0972 29.8169L41.3508 31.1174L41.3164 31.1753Z" fill="#171753" stroke="#171753" stroke-width="0.3" stroke-linejoin="round"/>
<path d="M42.1934 30.6697L39.9397 29.3713C39.7354 29.2381 39.5653 29.0587 39.4432 28.8477C39.321 28.6367 39.2502 28.3999 39.2364 28.1565V27.6123C39.2239 27.381 39.157 27.1559 39.0412 26.9553C38.9253 26.7546 38.7637 26.5841 38.5696 26.4575L38.0978 26.1854L38.1322 26.1276L38.6039 26.3997C38.8077 26.5327 38.9774 26.7118 39.0992 26.9224C39.221 27.1331 39.2915 27.3694 39.3051 27.6123V28.1565C39.3179 28.3878 39.385 28.6127 39.5008 28.8133C39.6166 29.0139 39.778 29.1845 39.9719 29.3113L42.2255 30.6118L42.1934 30.6697Z" fill="#171753" stroke="#171753" stroke-width="0.3" stroke-linejoin="round"/>
<path d="M43.0704 30.1662L40.8146 28.8657C40.6105 28.7325 40.4406 28.5531 40.3187 28.342C40.1969 28.131 40.1266 27.8942 40.1134 27.6509V27.1089C40.1011 26.8772 40.0342 26.6517 39.9184 26.4507C39.8025 26.2497 39.6408 26.0788 39.4465 25.9519L38.9748 25.6819L39.0091 25.6219L39.4809 25.8941C39.685 26.0273 39.8549 26.2067 39.9767 26.4178C40.0985 26.6288 40.1688 26.8656 40.182 27.1089V27.6509C40.1949 27.8824 40.2619 28.1077 40.3777 28.3086C40.4936 28.5096 40.6549 28.6806 40.8489 28.8079L43.1025 30.1062L43.0704 30.1662Z" fill="#171753" stroke="#171753" stroke-width="0.3" stroke-linejoin="round"/>
<path d="M39.4016 25.4161V27.4172L22.0824 37.4078L4.76321 27.4172V25.4161H39.4016Z" fill="#171753" stroke="#171753" stroke-width="0.3" stroke-miterlimit="10"/>
<path d="M22.0824 35.4068L4.76321 25.4162L22.0824 15.4257L39.4016 25.4162L22.0824 35.4068Z" fill="#FFC78F"/>
<path opacity="0.5" d="M22.0825 33.1035L8.76236 25.4183L22.0825 17.7352L35.4026 25.4183L22.0825 33.1035Z" fill="#FFA54B"/>
<path opacity="0.5" d="M22.0824 15.7963L35.4025 23.4815V25.4184L22.0824 17.7353V15.7963Z" fill="#FFA54B"/>
<path opacity="0.5" d="M22.0825 17.7352L8.76236 25.4183V23.4814L22.0825 15.7962V17.7352Z" fill="#FFA54B"/>
<path d="M22.0824 31.1666V33.1034L35.4025 25.4182V23.4814L22.0824 31.1666Z" fill="#171753" stroke="#171753" stroke-width="0.3" stroke-miterlimit="10"/>
<path d="M8.76236 23.4814V25.4182L22.0825 33.1034V31.1666L8.76236 23.4814Z" fill="#FFA54B" stroke="#171753" stroke-width="0.3" stroke-miterlimit="10" stroke-linejoin="round"/>
<path d="M22.0825 31.1666L8.76236 23.4814L22.0825 15.7962L35.4026 23.4814L22.0825 31.1666Z" fill="#FFC78F" stroke="#171753" stroke-width="0.3" stroke-linejoin="round"/>
<path opacity="0.5" d="M22.0824 26.5517L16.7603 23.4815L22.0824 20.4113L27.4044 23.4815L22.0824 26.5517Z" fill="#FFA54B"/>
<g style="mix-blend-mode:color-burn">
<path d="M17.6889 40.0002L17.6568 39.9402L19.9104 38.6419C20.1045 38.5147 20.2659 38.3437 20.3817 38.1427C20.4976 37.9418 20.5645 37.7164 20.5772 37.4849V36.9428C20.5904 36.6996 20.6608 36.4628 20.7826 36.2517C20.9044 36.0407 21.0743 35.8613 21.2784 35.728L21.7501 35.4559L21.7845 35.5159L21.3127 35.7859C21.1186 35.9131 20.9572 36.084 20.8413 36.285C20.7255 36.4859 20.6586 36.7113 20.6459 36.9428V37.4849C20.6326 37.7284 20.562 37.9654 20.4398 38.1764C20.3175 38.3875 20.1472 38.5668 19.9425 38.6997L17.6889 40.0002Z" fill="#171753"/>
<path d="M17.6889 40.0002L17.6568 39.9402L19.9104 38.6419C20.1045 38.5147 20.2659 38.3437 20.3817 38.1427C20.4976 37.9418 20.5645 37.7164 20.5772 37.4849V36.9428C20.5904 36.6996 20.6608 36.4628 20.7826 36.2517C20.9044 36.0407 21.0743 35.8613 21.2784 35.728L21.7501 35.4559L21.7845 35.5159L21.3127 35.7859C21.1186 35.9131 20.9572 36.084 20.8413 36.285C20.7255 36.4859 20.6586 36.7113 20.6459 36.9428V37.4849C20.6326 37.7284 20.562 37.9654 20.4398 38.1764C20.3175 38.3875 20.1472 38.5668 19.9425 38.6997L17.6889 40.0002Z" stroke="#171753" stroke-width="0.3"/>
</g>
<g style="mix-blend-mode:color-burn">
<path d="M16.814 39.4947L16.7798 39.4368L19.0334 38.1363C19.2275 38.0097 19.3891 37.8392 19.5049 37.6386C19.6208 37.4379 19.6877 37.2128 19.7003 36.9815V36.4437C19.7138 36.2008 19.7842 35.9645 19.906 35.7538C20.0278 35.5432 20.1975 35.3641 20.4014 35.2311L20.8732 34.959L20.9074 35.0168L20.4357 35.2889C20.2418 35.4158 20.0804 35.5864 19.9646 35.787C19.8487 35.9875 19.7817 36.2125 19.7688 36.4437V36.9879C19.7553 37.2309 19.6849 37.4672 19.563 37.6779C19.4412 37.8885 19.2715 38.0676 19.0677 38.2006L16.814 39.4947Z" fill="#171753"/>
<path d="M16.814 39.4947L16.7798 39.4368L19.0334 38.1363C19.2275 38.0097 19.3891 37.8392 19.5049 37.6386C19.6208 37.4379 19.6877 37.2128 19.7003 36.9815V36.4437C19.7138 36.2008 19.7842 35.9645 19.906 35.7538C20.0278 35.5432 20.1975 35.3641 20.4014 35.2311L20.8732 34.959L20.9074 35.0168L20.4357 35.2889C20.2418 35.4158 20.0804 35.5864 19.9646 35.787C19.8487 35.9875 19.7817 36.2125 19.7688 36.4437V36.9879C19.7553 37.2309 19.6849 37.4672 19.563 37.6779C19.4412 37.8885 19.2715 38.0676 19.0677 38.2006L16.814 39.4947Z" stroke="#171753" stroke-width="0.3"/>
</g>
<g style="mix-blend-mode:color-burn">
<path d="M15.937 38.9911L15.9027 38.9311L18.1563 37.6327C18.3504 37.5055 18.5118 37.3346 18.6277 37.1336C18.7435 36.9327 18.8105 36.7073 18.8232 36.4758V35.9337C18.8364 35.6902 18.907 35.4533 19.0292 35.2422C19.1514 35.0311 19.3218 34.8518 19.5265 34.7189L19.9961 34.4468L20.0304 34.5068L19.5587 34.7768C19.3646 34.9039 19.2031 35.0749 19.0873 35.2759C18.9715 35.4768 18.9045 35.7022 18.8918 35.9337V36.4758C18.8783 36.719 18.8078 36.9556 18.686 37.1666C18.5642 37.3776 18.3945 37.5571 18.1906 37.6906L15.937 38.9911Z" fill="#171753"/>
<path d="M15.937 38.9911L15.9027 38.9311L18.1563 37.6327C18.3504 37.5055 18.5118 37.3346 18.6277 37.1336C18.7435 36.9327 18.8105 36.7073 18.8232 36.4758V35.9337C18.8364 35.6902 18.907 35.4533 19.0292 35.2422C19.1514 35.0311 19.3218 34.8518 19.5265 34.7189L19.9961 34.4468L20.0304 34.5068L19.5587 34.7768C19.3646 34.9039 19.2031 35.0749 19.0873 35.2759C18.9715 35.4768 18.9045 35.7022 18.8918 35.9337V36.4758C18.8783 36.719 18.8078 36.9556 18.686 37.1666C18.5642 37.3776 18.3945 37.5571 18.1906 37.6906L15.937 38.9911Z" stroke="#171753" stroke-width="0.3"/>
</g>
<g style="mix-blend-mode:color-burn">
<path d="M15.06 38.4855L15.0257 38.4276L17.2793 37.1271C17.4737 37.0006 17.6356 36.8302 17.7518 36.6295C17.8681 36.4289 17.9354 36.2037 17.9483 35.9723V35.4281C17.9616 35.1848 18.0321 34.9481 18.1539 34.7371C18.2757 34.5261 18.4454 34.3467 18.6495 34.2133L19.1191 33.9433L19.1534 34.0012L18.6838 34.2733C18.4893 34.3998 18.3275 34.5702 18.2112 34.7708C18.095 34.9715 18.0277 35.1966 18.0148 35.4281V35.9723C18.0013 36.2152 17.9307 36.4515 17.8089 36.6622C17.6871 36.8728 17.5175 37.0519 17.3136 37.185L15.06 38.4855Z" fill="#171753"/>
<path d="M15.06 38.4855L15.0257 38.4276L17.2793 37.1271C17.4737 37.0006 17.6356 36.8302 17.7518 36.6295C17.8681 36.4289 17.9354 36.2037 17.9483 35.9723V35.4281C17.9616 35.1848 18.0321 34.9481 18.1539 34.7371C18.2757 34.5261 18.4454 34.3467 18.6495 34.2133L19.1191 33.9433L19.1534 34.0012L18.6838 34.2733C18.4893 34.3998 18.3275 34.5702 18.2112 34.7708C18.095 34.9715 18.0277 35.1966 18.0148 35.4281V35.9723C18.0013 36.2152 17.9307 36.4515 17.8089 36.6622C17.6871 36.8728 17.5175 37.0519 17.3136 37.185L15.06 38.4855Z" stroke="#171753" stroke-width="0.3"/>
</g>
<g style="mix-blend-mode:color-burn">
<path d="M14.1829 37.9819L14.1486 37.9219L16.4022 36.6214C16.5967 36.495 16.7586 36.3245 16.8748 36.1239C16.991 35.9232 17.0583 35.6981 17.0713 35.4666V34.9224C17.0848 34.6795 17.1553 34.4432 17.2771 34.2325C17.3989 34.0219 17.5685 33.8428 17.7724 33.7098L18.2442 33.4377L18.2763 33.4955L17.8067 33.7676C17.6123 33.8941 17.4504 34.0645 17.3342 34.2652C17.2179 34.4658 17.1506 34.691 17.1377 34.9224V35.4666C17.1244 35.7099 17.0539 35.9466 16.9321 36.1576C16.8103 36.3686 16.6406 36.5481 16.4365 36.6814L14.1829 37.9819Z" fill="#171753"/>
<path d="M14.1829 37.9819L14.1486 37.9219L16.4022 36.6214C16.5967 36.495 16.7586 36.3245 16.8748 36.1239C16.991 35.9232 17.0583 35.6981 17.0713 35.4666V34.9224C17.0848 34.6795 17.1553 34.4432 17.2771 34.2325C17.3989 34.0219 17.5685 33.8428 17.7724 33.7098L18.2442 33.4377L18.2763 33.4955L17.8067 33.7676C17.6123 33.8941 17.4504 34.0645 17.3342 34.2652C17.2179 34.4658 17.1506 34.691 17.1377 34.9224V35.4666C17.1244 35.7099 17.0539 35.9466 16.9321 36.1576C16.8103 36.3686 16.6406 36.5481 16.4365 36.6814L14.1829 37.9819Z" stroke="#171753" stroke-width="0.3"/>
</g>
<g style="mix-blend-mode:color-burn">
<path d="M13.306 37.4764L13.2738 37.4185L15.5274 36.118C15.7215 35.9908 15.883 35.8198 15.9988 35.6189C16.1146 35.4179 16.1816 35.1926 16.1943 34.961V34.419C16.2078 34.1758 16.2783 33.9391 16.4001 33.7281C16.5219 33.5171 16.6915 33.3377 16.8955 33.2042L17.3672 32.9321L17.4015 32.9921L16.9297 33.262C16.7357 33.3892 16.5742 33.5602 16.4584 33.7611C16.3426 33.9621 16.2756 34.1874 16.2629 34.419V34.961C16.2497 35.2046 16.179 35.4415 16.0568 35.6526C15.9346 35.8637 15.7642 36.043 15.5596 36.1758L13.306 37.4764Z" fill="#171753"/>
<path d="M13.306 37.4764L13.2738 37.4185L15.5274 36.118C15.7215 35.9908 15.883 35.8198 15.9988 35.6189C16.1146 35.4179 16.1816 35.1926 16.1943 34.961V34.419C16.2078 34.1758 16.2783 33.9391 16.4001 33.7281C16.5219 33.5171 16.6915 33.3377 16.8955 33.2042L17.3672 32.9321L17.4015 32.9921L16.9297 33.262C16.7357 33.3892 16.5742 33.5602 16.4584 33.7611C16.3426 33.9621 16.2756 34.1874 16.2629 34.419V34.961C16.2497 35.2046 16.179 35.4415 16.0568 35.6526C15.9346 35.8637 15.7642 36.043 15.5596 36.1758L13.306 37.4764Z" stroke="#171753" stroke-width="0.3"/>
</g>
<g style="mix-blend-mode:color-burn">
<path d="M12.4375 36.9707L12.4032 36.9129L14.6568 35.6124C14.8508 35.4855 15.0121 35.3149 15.1279 35.1143C15.2438 34.9138 15.3108 34.6888 15.3237 34.4575V33.9134C15.3372 33.6704 15.4077 33.4341 15.5295 33.2235C15.6513 33.0128 15.821 32.8337 16.0249 32.7007L16.4966 32.4286L16.5309 32.4864L16.0591 32.7585C15.8652 32.8854 15.7039 33.056 15.588 33.2566C15.4722 33.4572 15.4052 33.6821 15.3923 33.9134V34.4575C15.3786 34.7007 15.308 34.9373 15.1863 35.1483C15.0645 35.3592 14.8949 35.5387 14.6911 35.6724L12.4375 36.9707Z" fill="#171753"/>
<path d="M12.4375 36.9707L12.4032 36.9129L14.6568 35.6124C14.8508 35.4855 15.0121 35.3149 15.1279 35.1143C15.2438 34.9138 15.3108 34.6888 15.3237 34.4575V33.9134C15.3372 33.6704 15.4077 33.4341 15.5295 33.2235C15.6513 33.0128 15.821 32.8337 16.0249 32.7007L16.4966 32.4286L16.5309 32.4864L16.0591 32.7585C15.8652 32.8854 15.7039 33.056 15.588 33.2566C15.4722 33.4572 15.4052 33.6821 15.3923 33.9134V34.4575C15.3786 34.7007 15.308 34.9373 15.1863 35.1483C15.0645 35.3592 14.8949 35.5387 14.6911 35.6724L12.4375 36.9707Z" stroke="#171753" stroke-width="0.3"/>
</g>
<g style="mix-blend-mode:color-burn">
<path d="M11.554 36.4671L11.5197 36.4071L13.7733 35.1088C13.9676 34.9818 14.1293 34.8109 14.2452 34.6099C14.361 34.4089 14.4279 34.1834 14.4402 33.9518V33.4098C14.4535 33.1662 14.5241 32.9293 14.6463 32.7182C14.7685 32.5071 14.9389 32.3278 15.1435 32.1949L15.6131 31.9229L15.6474 31.9828L15.1757 32.2528C14.9817 32.3801 14.8203 32.5511 14.7045 32.752C14.5887 32.953 14.5217 33.1782 14.5088 33.4098V33.9518C14.4956 34.1951 14.4253 34.4319 14.3035 34.6429C14.1817 34.854 14.0118 35.0334 13.8076 35.1666L11.554 36.4671Z" fill="#171753"/>
<path d="M11.554 36.4671L11.5197 36.4071L13.7733 35.1088C13.9676 34.9818 14.1293 34.8109 14.2452 34.6099C14.361 34.4089 14.4279 34.1834 14.4402 33.9518V33.4098C14.4535 33.1662 14.5241 32.9293 14.6463 32.7182C14.7685 32.5071 14.9389 32.3278 15.1435 32.1949L15.6131 31.9229L15.6474 31.9828L15.1757 32.2528C14.9817 32.3801 14.8203 32.5511 14.7045 32.752C14.5887 32.953 14.5217 33.1782 14.5088 33.4098V33.9518C14.4956 34.1951 14.4253 34.4319 14.3035 34.6429C14.1817 34.854 14.0118 35.0334 13.8076 35.1666L11.554 36.4671Z" stroke="#171753" stroke-width="0.3"/>
</g>
<g style="mix-blend-mode:color-burn">
<path d="M9.80022 35.4581L9.76593 35.3981L12.0195 34.0976C12.214 33.9711 12.3758 33.8006 12.4921 33.6C12.6083 33.3994 12.6756 33.1742 12.6885 32.9427V32.4007C12.7014 32.1573 12.7716 31.9204 12.8934 31.7093C13.0153 31.4982 13.1853 31.3189 13.3897 31.1859L13.8593 30.9138L13.8936 30.9716L13.424 31.2437C13.2293 31.3704 13.0673 31.5412 12.951 31.7422C12.8348 31.9433 12.7676 32.1689 12.755 32.4007V32.9427C12.742 33.1861 12.6717 33.4229 12.5499 33.634C12.4281 33.8451 12.2581 34.0244 12.0538 34.1576L9.80022 35.4581Z" fill="#171753"/>
<path d="M9.80022 35.4581L9.76593 35.3981L12.0195 34.0976C12.214 33.9711 12.3758 33.8006 12.4921 33.6C12.6083 33.3994 12.6756 33.1742 12.6885 32.9427V32.4007C12.7014 32.1573 12.7716 31.9204 12.8934 31.7093C13.0153 31.4982 13.1853 31.3189 13.3897 31.1859L13.8593 30.9138L13.8936 30.9716L13.424 31.2437C13.2293 31.3704 13.0673 31.5412 12.951 31.7422C12.8348 31.9433 12.7676 32.1689 12.755 32.4007V32.9427C12.742 33.1861 12.6717 33.4229 12.5499 33.634C12.4281 33.8451 12.2581 34.0244 12.0538 34.1576L9.80022 35.4581Z" stroke="#171753" stroke-width="0.3"/>
</g>
<g style="mix-blend-mode:color-burn">
<path d="M10.677 35.9562L10.6427 35.8962L12.8963 34.5957C13.0908 34.4693 13.2526 34.2988 13.3689 34.0982C13.4851 33.8975 13.5524 33.6724 13.5653 33.4409V32.8989C13.5782 32.6555 13.6484 32.4186 13.7702 32.2075C13.8921 31.9964 14.0621 31.817 14.2665 31.6841L14.7361 31.412L14.7704 31.4698L14.3008 31.7419C14.1061 31.8686 13.9441 32.0394 13.8278 32.2404C13.7116 32.4414 13.6444 32.667 13.6318 32.8989V33.4409C13.6188 33.6842 13.5485 33.9211 13.4267 34.1321C13.3049 34.3432 13.1349 34.5226 12.9306 34.6557L10.677 35.9562Z" fill="#171753"/>
<path d="M10.677 35.9562L10.6427 35.8962L12.8963 34.5957C13.0908 34.4693 13.2526 34.2988 13.3689 34.0982C13.4851 33.8975 13.5524 33.6724 13.5653 33.4409V32.8989C13.5782 32.6555 13.6484 32.4186 13.7702 32.2075C13.8921 31.9964 14.0621 31.817 14.2665 31.6841L14.7361 31.412L14.7704 31.4698L14.3008 31.7419C14.1061 31.8686 13.9441 32.0394 13.8278 32.2404C13.7116 32.4414 13.6444 32.667 13.6318 32.8989V33.4409C13.6188 33.6842 13.5485 33.9211 13.4267 34.1321C13.3049 34.3432 13.1349 34.5226 12.9306 34.6557L10.677 35.9562Z" stroke="#171753" stroke-width="0.3"/>
</g>
<g style="mix-blend-mode:color-burn">
<path d="M8.9232 34.9439L8.88885 34.886L11.1511 33.5941C11.345 33.4673 11.5063 33.2967 11.6222 33.0961C11.738 32.8955 11.8051 32.6705 11.8179 32.4393V31.8951C11.8315 31.6519 11.9019 31.4153 12.0237 31.2043C12.1455 30.9933 12.3152 30.8138 12.5191 30.6803L12.9908 30.4103L13.023 30.4682L12.5534 30.7403C12.3593 30.8669 12.1977 31.0374 12.0818 31.2381C11.966 31.4387 11.899 31.6638 11.8865 31.8951V32.4393C11.8731 32.6825 11.8024 32.9191 11.6802 33.1298C11.558 33.3405 11.3877 33.5194 11.1832 33.652L8.9232 34.9439Z" fill="#171753"/>
<path d="M8.9232 34.9439L8.88885 34.886L11.1511 33.5941C11.345 33.4673 11.5063 33.2967 11.6222 33.0961C11.738 32.8955 11.8051 32.6705 11.8179 32.4393V31.8951C11.8315 31.6519 11.9019 31.4153 12.0237 31.2043C12.1455 30.9933 12.3152 30.8138 12.5191 30.6803L12.9908 30.4103L13.023 30.4682L12.5534 30.7403C12.3593 30.8669 12.1977 31.0374 12.0818 31.2381C11.966 31.4387 11.899 31.6638 11.8865 31.8951V32.4393C11.8731 32.6825 11.8024 32.9191 11.6802 33.1298C11.558 33.3405 11.3877 33.5194 11.1832 33.652L8.9232 34.9439Z" stroke="#171753" stroke-width="0.3"/>
</g>
<g style="mix-blend-mode:color-burn">
<path d="M8.04606 34.4468L8.01392 34.3889L10.2675 33.0884C10.4604 32.9629 10.6213 32.7941 10.7375 32.5955C10.8536 32.3968 10.9218 32.1739 10.9365 31.9443V31.4001C10.95 31.1572 11.0206 30.9209 11.1424 30.7102C11.2642 30.4996 11.4338 30.3205 11.6377 30.1875L12.1094 29.9154L12.1437 29.9732L11.672 30.2453C11.4778 30.3719 11.3163 30.5424 11.2004 30.7431C11.0845 30.9437 11.0177 31.1688 11.0051 31.4001V31.9443C10.9915 32.1875 10.9209 32.4241 10.7991 32.635C10.6773 32.846 10.5078 33.0255 10.304 33.1591L8.04606 34.4468Z" fill="#171753"/>
<path d="M8.04606 34.4468L8.01392 34.3889L10.2675 33.0884C10.4604 32.9629 10.6213 32.7941 10.7375 32.5955C10.8536 32.3968 10.9218 32.1739 10.9365 31.9443V31.4001C10.95 31.1572 11.0206 30.9209 11.1424 30.7102C11.2642 30.4996 11.4338 30.3205 11.6377 30.1875L12.1094 29.9154L12.1437 29.9732L11.672 30.2453C11.4778 30.3719 11.3163 30.5424 11.2004 30.7431C11.0845 30.9437 11.0177 31.1688 11.0051 31.4001V31.9443C10.9915 32.1875 10.9209 32.4241 10.7991 32.635C10.6773 32.846 10.5078 33.0255 10.304 33.1591L8.04606 34.4468Z" stroke="#171753" stroke-width="0.3"/>
</g>
<g style="mix-blend-mode:color-burn">
<path d="M7.17134 33.9433L7.13705 33.8855L9.39067 32.585C9.5851 32.4582 9.74683 32.2873 9.86271 32.0863C9.97859 31.8852 10.0453 31.6597 10.0575 31.428V30.886C10.071 30.6428 10.1416 30.4061 10.2633 30.1951C10.3851 29.9841 10.5548 29.8046 10.7587 29.6712L11.2305 29.399L11.2648 29.459L10.793 29.729C10.5993 29.8565 10.4381 30.0276 10.3223 30.2285C10.2065 30.4294 10.1393 30.6545 10.1261 30.886V31.428C10.113 31.6713 10.0426 31.908 9.92077 32.1191C9.79895 32.3302 9.6291 32.5096 9.42496 32.6428L7.17134 33.9433Z" fill="#171753"/>
<path d="M7.17134 33.9433L7.13705 33.8855L9.39067 32.585C9.5851 32.4582 9.74683 32.2873 9.86271 32.0863C9.97859 31.8852 10.0453 31.6597 10.0575 31.428V30.886C10.071 30.6428 10.1416 30.4061 10.2633 30.1951C10.3851 29.9841 10.5548 29.8046 10.7587 29.6712L11.2305 29.399L11.2648 29.459L10.793 29.729C10.5993 29.8565 10.4381 30.0276 10.3223 30.2285C10.2065 30.4294 10.1393 30.6545 10.1261 30.886V31.428C10.113 31.6713 10.0426 31.908 9.92077 32.1191C9.79895 32.3302 9.6291 32.5096 9.42496 32.6428L7.17134 33.9433Z" stroke="#171753" stroke-width="0.3"/>
</g>
<g style="mix-blend-mode:color-burn">
<path d="M6.29429 33.4442L6.25995 33.3863L8.51357 32.0858C8.70771 31.9592 8.86927 31.7887 8.98513 31.588C9.101 31.3874 9.16793 31.1623 9.18045 30.931V30.3804C9.19387 30.1372 9.26455 29.9006 9.38676 29.6899C9.50898 29.4792 9.67928 29.3002 9.88377 29.1677L10.3534 28.8956L10.3876 28.9534L9.91806 29.2255C9.72363 29.352 9.56173 29.5225 9.4455 29.7231C9.32927 29.9237 9.26196 30.1489 9.24903 30.3804V30.9246C9.23552 31.1675 9.16505 31.4038 9.04324 31.6145C8.92144 31.8251 8.75177 32.0042 8.54791 32.1372L6.29429 33.4442Z" fill="#171753"/>
<path d="M6.29429 33.4442L6.25995 33.3863L8.51357 32.0858C8.70771 31.9592 8.86927 31.7887 8.98513 31.588C9.101 31.3874 9.16793 31.1623 9.18045 30.931V30.3804C9.19387 30.1372 9.26455 29.9006 9.38676 29.6899C9.50898 29.4792 9.67928 29.3002 9.88377 29.1677L10.3534 28.8956L10.3876 28.9534L9.91806 29.2255C9.72363 29.352 9.56173 29.5225 9.4455 29.7231C9.32927 29.9237 9.26196 30.1489 9.24903 30.3804V30.9246C9.23552 31.1675 9.16505 31.4038 9.04324 31.6145C8.92144 31.8251 8.75177 32.0042 8.54791 32.1372L6.29429 33.4442Z" stroke="#171753" stroke-width="0.3"/>
</g>
<g style="mix-blend-mode:color-burn">
<path d="M5.41725 32.9343L5.38297 32.8743L7.63658 31.5738C7.83101 31.4473 7.99287 31.2768 8.10909 31.0762C8.22532 30.8756 8.29263 30.6504 8.30556 30.419V29.8769C8.31841 29.6335 8.38861 29.3967 8.51046 29.1855C8.63231 28.9744 8.80236 28.7951 9.00674 28.6621L9.47632 28.39L9.51066 28.45L9.04103 28.7199C8.84632 28.8466 8.68429 29.0174 8.56805 29.2185C8.4518 29.4195 8.38465 29.6451 8.37205 29.8769V30.419C8.3592 30.6623 8.289 30.8992 8.16715 31.1103C8.0453 31.3214 7.87525 31.5008 7.67087 31.6338L5.41725 32.9343Z" fill="#171753"/>
<path d="M5.41725 32.9343L5.38297 32.8743L7.63658 31.5738C7.83101 31.4473 7.99287 31.2768 8.10909 31.0762C8.22532 30.8756 8.29263 30.6504 8.30556 30.419V29.8769C8.31841 29.6335 8.38861 29.3967 8.51046 29.1855C8.63231 28.9744 8.80236 28.7951 9.00674 28.6621L9.47632 28.39L9.51066 28.45L9.04103 28.7199C8.84632 28.8466 8.68429 29.0174 8.56805 29.2185C8.4518 29.4195 8.38465 29.6451 8.37205 29.8769V30.419C8.3592 30.6623 8.289 30.8992 8.16715 31.1103C8.0453 31.3214 7.87525 31.5008 7.67087 31.6338L5.41725 32.9343Z" stroke="#171753" stroke-width="0.3"/>
</g>
<g style="mix-blend-mode:color-burn">
<path d="M4.54019 32.4285L4.50375 32.3728L6.75737 31.0723C6.9518 30.9458 7.11371 30.7754 7.22993 30.5747C7.34616 30.3741 7.41342 30.1489 7.42635 29.9175V29.3733C7.44004 29.1301 7.51063 28.8935 7.6324 28.6826C7.75417 28.4716 7.92374 28.2921 8.12753 28.1585L8.59931 27.8885L8.63145 27.9464L8.16187 28.2185C7.96983 28.3464 7.81042 28.5174 7.69648 28.718C7.58253 28.9185 7.51721 29.143 7.50571 29.3733V29.9175C7.49271 30.1605 7.4224 30.397 7.30055 30.6078C7.1787 30.8185 7.00875 30.9975 6.80454 31.1301L4.54019 32.4285Z" fill="#171753"/>
<path d="M4.54019 32.4285L4.50375 32.3728L6.75737 31.0723C6.9518 30.9458 7.11371 30.7754 7.22993 30.5747C7.34616 30.3741 7.41342 30.1489 7.42635 29.9175V29.3733C7.44004 29.1301 7.51063 28.8935 7.6324 28.6826C7.75417 28.4716 7.92374 28.2921 8.12753 28.1585L8.59931 27.8885L8.63145 27.9464L8.16187 28.2185C7.96983 28.3464 7.81042 28.5174 7.69648 28.718C7.58253 28.9185 7.51721 29.143 7.50571 29.3733V29.9175C7.49271 30.1605 7.4224 30.397 7.30055 30.6078C7.1787 30.8185 7.00875 30.9975 6.80454 31.1301L4.54019 32.4285Z" stroke="#171753" stroke-width="0.3"/>
</g>
<g style="mix-blend-mode:color-burn">
<path d="M3.66336 31.9251L3.63116 31.8651L5.88478 30.5646C6.07869 30.4378 6.2401 30.2672 6.35593 30.0666C6.47176 29.866 6.53881 29.641 6.55167 29.4098V28.8678C6.56485 28.6245 6.63517 28.3877 6.75698 28.1767C6.8788 27.9656 7.0487 27.7862 7.25284 27.653L7.72457 27.3809L7.75886 27.4387L7.28713 27.7108C7.0927 27.8376 6.93097 28.0085 6.81509 28.2095C6.69922 28.4106 6.63249 28.6361 6.6203 28.8678V29.4098C6.60688 29.6533 6.53619 29.8902 6.41399 30.1012C6.29179 30.3123 6.12152 30.4916 5.91698 30.6246L3.66336 31.9251Z" fill="#171753"/>
<path d="M3.66336 31.9251L3.63116 31.8651L5.88478 30.5646C6.07869 30.4378 6.2401 30.2672 6.35593 30.0666C6.47176 29.866 6.53881 29.641 6.55167 29.4098V28.8678C6.56485 28.6245 6.63517 28.3877 6.75698 28.1767C6.8788 27.9656 7.0487 27.7862 7.25284 27.653L7.72457 27.3809L7.75886 27.4387L7.28713 27.7108C7.0927 27.8376 6.93097 28.0085 6.81509 28.2095C6.69922 28.4106 6.63249 28.6361 6.6203 28.8678V29.4098C6.60688 29.6533 6.53619 29.8902 6.41399 30.1012C6.29179 30.3123 6.12152 30.4916 5.91698 30.6246L3.66336 31.9251Z" stroke="#171753" stroke-width="0.3"/>
</g>
<g style="mix-blend-mode:color-burn">
<path d="M2.78847 31.4195L2.75418 31.3616L5.0078 30.0611C5.20223 29.9343 5.36396 29.7634 5.47984 29.5624C5.59572 29.3613 5.66244 29.1358 5.67463 28.9041V28.3621C5.68815 28.1189 5.75863 27.8823 5.88042 27.6713C6.00221 27.4602 6.1719 27.2808 6.37581 27.1473L6.84754 26.8752L6.88188 26.9352L6.4101 27.2073C6.21619 27.3341 6.05483 27.5047 5.939 27.7053C5.82317 27.9059 5.75613 28.1309 5.74326 28.3621V28.9041C5.73008 29.1474 5.65971 29.3842 5.53789 29.5952C5.41608 29.8063 5.24623 29.9857 5.04209 30.1189L2.78847 31.4195Z" fill="#171753"/>
<path d="M2.78847 31.4195L2.75418 31.3616L5.0078 30.0611C5.20223 29.9343 5.36396 29.7634 5.47984 29.5624C5.59572 29.3613 5.66244 29.1358 5.67463 28.9041V28.3621C5.68815 28.1189 5.75863 27.8823 5.88042 27.6713C6.00221 27.4602 6.1719 27.2808 6.37581 27.1473L6.84754 26.8752L6.88188 26.9352L6.4101 27.2073C6.21619 27.3341 6.05483 27.5047 5.939 27.7053C5.82317 27.9059 5.75613 28.1309 5.74326 28.3621V28.9041C5.73008 29.1474 5.65971 29.3842 5.53789 29.5952C5.41608 29.8063 5.24623 29.9857 5.04209 30.1189L2.78847 31.4195Z" stroke="#171753" stroke-width="0.3"/>
</g>
<g style="mix-blend-mode:color-burn">
<path d="M1.91127 30.9138L1.87698 30.8559L4.1306 29.5554C4.32475 29.4288 4.48631 29.2583 4.60217 29.0577C4.71803 28.857 4.78496 28.6319 4.79749 28.4006V27.8564C4.8109 27.6132 4.88158 27.3766 5.0038 27.1659C5.12601 26.9552 5.29626 26.7763 5.50076 26.6437L5.97039 26.3716L6.00468 26.4295L5.53295 26.7016C5.33904 26.8284 5.17763 26.999 5.0618 27.1996C4.94597 27.4002 4.87893 27.6252 4.86607 27.8564V28.4006C4.85238 28.6438 4.78184 28.8803 4.66007 29.0913C4.5383 29.3023 4.36868 29.4818 4.16489 29.6154L1.91127 30.9138Z" fill="#171753"/>
<path d="M1.91127 30.9138L1.87698 30.8559L4.1306 29.5554C4.32475 29.4288 4.48631 29.2583 4.60217 29.0577C4.71803 28.857 4.78496 28.6319 4.79749 28.4006V27.8564C4.8109 27.6132 4.88158 27.3766 5.0038 27.1659C5.12601 26.9552 5.29626 26.7763 5.50076 26.6437L5.97039 26.3716L6.00468 26.4295L5.53295 26.7016C5.33904 26.8284 5.17763 26.999 5.0618 27.1996C4.94597 27.4002 4.87893 27.6252 4.86607 27.8564V28.4006C4.85238 28.6438 4.78184 28.8803 4.66007 29.0913C4.5383 29.3023 4.36868 29.4818 4.16489 29.6154L1.91127 30.9138Z" stroke="#171753" stroke-width="0.3"/>
</g>
<g style="mix-blend-mode:color-burn">
<path d="M1.03434 30.4104L1 30.3504L3.25362 29.052C3.44821 28.9252 3.61021 28.7544 3.72644 28.5534C3.84267 28.3524 3.90988 28.1268 3.92265 27.895V27.353C3.93549 27.1096 4.0057 26.8727 4.12755 26.6616C4.2494 26.4505 4.41945 26.2712 4.62383 26.1382L5.09341 25.8661L5.1277 25.9261L4.65812 26.196C4.46352 26.3229 4.30157 26.4937 4.18534 26.6947C4.06912 26.8957 4.00191 27.1212 3.98914 27.353V27.895C3.97595 28.1383 3.90558 28.3751 3.78377 28.5861C3.66195 28.7972 3.4921 28.9766 3.28796 29.1099L1.03434 30.4104Z" fill="#171753"/>
<path d="M1.03434 30.4104L1 30.3504L3.25362 29.052C3.44821 28.9252 3.61021 28.7544 3.72644 28.5534C3.84267 28.3524 3.90988 28.1268 3.92265 27.895V27.353C3.93549 27.1096 4.0057 26.8727 4.12755 26.6616C4.2494 26.4505 4.41945 26.2712 4.62383 26.1382L5.09341 25.8661L5.1277 25.9261L4.65812 26.196C4.46352 26.3229 4.30157 26.4937 4.18534 26.6947C4.06912 26.8957 4.00191 27.1212 3.98914 27.353V27.895C3.97595 28.1383 3.90558 28.3751 3.78377 28.5861C3.66195 28.7972 3.4921 28.9766 3.28796 29.1099L1.03434 30.4104Z" stroke="#171753" stroke-width="0.3"/>
</g>
<path d="M19.2663 21.1158C21.9992 20.9032 25.1057 18.3456 26.9715 14.4501C28.8372 10.5546 28.881 6.53799 27.3396 4.27188L27.5915 3.73822L25.7251 2.8468C22.6703 1.38073 18.2764 4.20438 15.9017 9.1547C13.5269 14.105 14.0915 19.2964 17.1462 20.7625L19.0126 21.6539L19.2663 21.1158Z" fill="#FFA54B"/>
<path d="M15.7591 9.08542C18.1613 4.06868 22.651 1.20165 25.7925 2.70879L27.8013 3.66953L27.5193 4.26336C29.0798 6.64626 28.922 10.7505 27.112 14.5239C25.302 18.2973 22.2072 20.9894 19.3695 21.2674L19.0875 21.8613L17.0787 20.9005C13.9504 19.3989 13.3587 14.0977 15.7591 9.08542ZM27.3804 3.82209L25.6494 2.99188C22.6769 1.56505 18.3449 4.35206 16.037 9.21595C13.7291 14.0798 14.2359 19.1851 17.2157 20.5942L18.9485 21.42L19.1748 20.9483L19.2647 20.944C22.0163 20.7237 25.0589 18.0826 26.8388 14.3694C28.6188 10.6562 28.7712 6.6275 27.2184 4.35147L27.1659 4.27789L27.3804 3.82209Z" fill="#171753"/>
<path d="M19.001 21.6439C15.9444 20.1822 15.3953 14.9661 17.7546 10.0405C20.114 5.11496 24.5196 2.27542 27.5781 3.73263C30.6365 5.18985 31.1838 10.4104 28.8245 15.336C26.4651 20.2615 22.0691 23.1154 19.001 21.6439Z" fill="#FFEE81"/>
<path d="M28.3915 15.1293C30.7594 10.1861 30.2023 4.99238 27.1471 3.52886C24.0919 2.06534 19.6956 4.88618 17.3277 9.82939C14.9597 14.7726 15.5169 19.9663 18.5721 21.4298C21.6273 22.8933 26.0236 20.0725 28.3915 15.1293Z" fill="#FFEE81"/>
<path d="M17.6078 9.96948C20.01 4.95274 24.4978 2.09016 27.6412 3.59287C30.7845 5.09558 31.3629 10.3912 28.974 15.4135C26.585 20.4357 22.0821 23.2972 18.9406 21.7901C15.7991 20.283 15.2233 14.9935 17.6078 9.96948ZM28.6739 15.2738C31.0014 10.4128 30.475 5.30463 27.4996 3.89734C24.5243 2.49005 20.1951 5.25751 17.8854 10.1258C15.5757 14.9941 16.0843 20.095 19.0641 21.5041C22.0439 22.9132 26.3661 20.1377 28.6916 15.2811L28.6739 15.2738Z" fill="#171753"/>
<path d="M27.7124 14.8038C29.6035 10.8559 29.2732 6.76296 26.9747 5.66189C24.6761 4.56082 21.2797 6.86861 19.3886 10.8165C17.4974 14.7644 17.8277 18.8574 20.1262 19.9584C22.4248 21.0595 25.8212 18.7517 27.7124 14.8038Z" fill="#FFC78F"/>
<path d="M19.2431 10.7549C21.1727 6.73018 24.6683 4.38543 27.0444 5.52402C29.4205 6.66262 29.7805 10.8566 27.8439 14.8732C25.9073 18.8898 22.4356 21.2393 20.0559 20.1096C17.6761 18.9799 17.3198 14.777 19.2431 10.7549ZM27.5796 14.7224C29.4262 10.8605 29.129 6.85319 26.9131 5.79123C24.6972 4.72928 21.3883 7.01127 19.5372 10.8714C17.6861 14.7314 17.9859 18.745 20.2018 19.807C22.4177 20.8689 25.7193 18.6046 27.5634 14.7364L27.5796 14.7224Z" fill="#171753"/>
<path d="M27.7147 14.8094C29.6069 10.8626 29.2733 6.76766 26.9678 5.68418C26.762 5.58839 26.5448 5.51943 26.3214 5.479C28.0894 6.94684 28.2148 10.6549 26.495 14.2477C24.7752 17.8406 21.7987 20.0838 19.5518 19.6106C19.7248 19.7576 19.9149 19.8833 20.1179 19.9848C22.4234 21.0683 25.8207 18.7607 27.7147 14.8094Z" fill="#FFA54B"/>
<path d="M19.302 19.3621L19.5931 19.4358C21.793 19.8844 24.7031 17.6137 26.3599 14.1607C28.0166 10.7077 27.9568 7.01646 26.2277 5.58023L25.9492 5.35091L26.3627 5.30417C26.5986 5.34703 26.8279 5.42095 27.0444 5.52399C29.4161 6.66076 29.7805 10.8566 27.8439 14.8732C25.9073 18.8898 22.4356 21.2393 20.0559 20.1096C19.8416 20.0011 19.641 19.8676 19.4581 19.7118L19.302 19.3621ZM27.5634 14.7364C29.4101 10.8745 29.1128 6.86721 26.897 5.80525L26.8748 5.79609C28.2914 7.54902 28.2271 10.9763 26.6359 14.2957C25.0448 17.6151 22.4151 19.8098 20.1609 19.8055L20.1875 19.8165C22.4237 20.8921 25.7193 18.6046 27.5634 14.7364Z" fill="#171753"/>
<path d="M28.1893 13.5745L27.0123 13.0097L27.5896 10.8371L27.6869 8.47103L27.1241 6.4594L26.3305 5.4569L27.4087 5.87183L28.3602 7.06931L28.8518 8.62624L28.8864 10.8239L28.3499 13.2364L28.1893 13.5745Z" fill="#171753"/>
<path d="M17.3209 11.0642L15.421 10.1537L14.7532 12.4445L14.3743 14.777L14.7075 17.5442L15.7073 19.6277L16.634 20.509L18.1327 21.1861L16.7205 19.2846L16.3183 16.6341L16.6685 13.1176L17.3209 11.0642Z" fill="#171753"/>
<path d="M24.6125 11.7003C24.6684 11.4209 24.8639 11.1275 25.0454 11.0436C25.227 10.9598 25.3248 11.1275 25.2549 11.3929C25.1991 11.6723 25.0036 11.9657 24.822 12.0496C24.6544 12.1474 24.5566 11.9797 24.6125 11.7003Z" fill="#171753"/>
<path d="M26.2467 11.9793C26.2048 12.133 26.163 12.2867 26.1071 12.4404C25.9116 12.9852 25.6322 13.5441 25.2691 13.9632C24.7663 14.55 24.2635 14.7176 23.8585 14.7176C23.3837 15.3463 23.3837 15.3463 23.3837 15.3463C23.2719 15.486 23.1881 15.4162 23.2719 15.2346C23.1602 15.3324 23.1462 15.1926 23.2161 15.0529C23.1043 15.2066 23.0624 15.0669 23.1323 14.9132C23.1881 14.8154 23.258 14.7037 23.2999 14.6198C22.825 14.4662 22.406 14.1588 21.9591 13.8514C22.2244 13.9772 23.2859 14.2286 23.5373 14.2566C23.7887 14.2845 24.0401 14.3125 24.3194 14.2566C24.5429 14.2007 24.8361 14.075 25.1015 13.7536C25.3389 13.4742 25.4926 13.0551 25.5903 12.7198C25.8138 11.9653 25.8278 11.2389 25.73 10.7219C25.6183 10.1771 25.325 9.75792 24.8641 9.75792C24.6965 9.75792 24.501 9.82778 24.3054 9.95352C23.8585 10.2329 23.3697 10.8057 22.9507 11.4344C22.3362 12.3705 21.8194 13.4463 21.3306 14.5081C20.9954 15.2346 20.3949 16.8831 19.7664 16.7015C19.4731 16.6177 19.3474 16.2405 19.2915 15.8493C19.2217 15.4162 19.2357 14.7875 19.4591 14.1728C19.934 12.8735 20.9535 13.3485 21.2887 13.5301C21.2608 13.5301 20.4368 13.3904 19.9759 14.0331C19.7664 14.3264 19.6965 14.7176 19.6686 14.9971C19.6127 15.486 19.6686 16.1287 19.9759 16.2125C20.3669 16.3103 20.8138 15.1088 21.0094 14.6757C21.3306 13.9492 21.6379 13.2227 21.9731 12.4962C22.3362 11.7139 22.7412 10.9175 23.2161 10.2329C23.1602 10.1351 23.0904 10.0094 23.1183 9.84175C23.1462 9.64616 23.3278 9.38071 23.4395 9.43659C23.3278 9.22703 23.635 8.75201 23.8026 8.82187C23.7607 8.62627 23.9702 8.29097 24.1099 8.24906C24.1937 8.22111 24.2635 8.30494 24.3054 8.34685C24.4451 8.45862 24.5708 8.58436 24.7105 8.68216C26.2886 7.76007 26.8054 9.91161 26.2467 11.9793Z" fill="#171753"/>
</svg>
