<svg width="43" height="48" viewBox="0 0 43 48" fill="none" xmlns="http://www.w3.org/2000/svg">
<path d="M15.8494 41.2268C21.185 40.8118 27.2505 35.8182 30.8933 28.2125C34.536 20.6067 34.6214 12.7644 31.6119 8.33996L32.1037 7.29801L28.4597 5.55755C22.4954 2.69513 13.9166 8.20816 9.28003 17.8734C4.64346 27.5386 5.74567 37.6745 11.71 40.5369L15.354 42.2774L15.8494 41.2268Z" fill="#8989C7"/>
<path d="M9.00167 17.7383C13.6919 7.94336 22.4577 2.34565 28.5913 5.28825L32.5134 7.16404L31.9629 8.32346C35.0096 12.976 34.7016 20.9893 31.1676 28.3566C27.6336 35.7239 21.5912 40.9801 16.0507 41.523L15.5001 42.6824L11.578 40.8066C5.47031 37.8748 4.31502 27.5246 9.00167 17.7383ZM31.6915 7.46192L28.312 5.84098C22.5084 3.05516 14.0503 8.49664 9.54425 17.9931C5.03825 27.4896 6.02775 37.4574 11.8457 40.2086L15.2288 41.8209L15.6706 40.9L15.8461 40.8916C21.2185 40.4614 27.159 35.3048 30.6343 28.055C34.1095 20.8051 34.4071 12.9393 31.3753 8.4955L31.2728 8.35183L31.6915 7.46192Z" fill="#171753"/>
<path d="M15.3314 42.258C9.36351 39.4042 8.2914 29.2201 12.8979 19.6031C17.5043 9.98618 26.1061 4.44214 32.0776 7.28727C38.049 10.1324 39.1176 20.3252 34.5111 29.9422C29.9046 39.5591 21.3216 45.1311 15.3314 42.258Z" fill="#E3E0EB"/>
<path d="M33.6657 29.5383C38.289 19.887 37.2012 9.7466 31.2361 6.88915C25.271 4.0317 16.6874 9.53924 12.0642 19.1906C7.4409 28.842 8.52867 38.9824 14.4938 41.8398C20.4589 44.6973 29.0425 39.1897 33.6657 29.5383Z" fill="#E3E0EB"/>
<path d="M12.6112 19.4643C17.3014 9.66938 26.0636 4.08034 32.2008 7.0143C38.338 9.94826 39.4673 20.2877 34.8031 30.0934C30.1388 39.899 21.3471 45.486 15.2134 42.5434C9.0798 39.6008 7.95553 29.2735 12.6112 19.4643ZM34.2172 29.8206C38.7614 20.3298 37.7337 10.3564 31.9245 7.60876C26.1152 4.8611 17.6627 10.2644 13.1532 19.7696C8.64358 29.2747 9.63666 39.2338 15.4546 41.985C21.2725 44.7363 29.7112 39.3171 34.2518 29.8349L34.2172 29.8206Z" fill="#171753"/>
<path d="M32.3398 28.9031C36.0321 21.1951 35.3873 13.2037 30.8995 11.054C26.4117 8.90418 19.7803 13.41 16.088 21.1181C12.3956 28.8261 13.0404 36.8174 17.5282 38.9672C22.0161 41.117 28.6474 36.6112 32.3398 28.9031Z" fill="#8989C7"/>
<path d="M15.804 20.9977C19.5714 13.1397 26.3965 8.56166 31.0356 10.7847C35.6747 13.0078 36.3776 21.1964 32.5965 29.0386C28.8154 36.8808 22.0372 41.468 17.3909 39.2623C12.7446 37.0565 12.0489 28.8506 15.804 20.9977ZM32.0805 28.744C35.686 21.2039 35.1057 13.3798 30.7793 11.3064C26.4529 9.23301 19.9924 13.6885 16.3782 21.2251C12.764 28.7617 13.3495 36.598 17.6759 38.6714C22.0023 40.7448 28.4484 36.3239 32.0489 28.7715L32.0805 28.744Z" fill="#171753"/>
<path d="M32.3444 28.914C36.0387 21.2081 35.3874 13.2129 30.886 11.0975C30.4843 10.9105 30.0601 10.7758 29.6241 10.6969C33.0759 13.5628 33.3208 20.8025 29.9629 27.8174C26.6051 34.8323 20.7936 39.212 16.4068 38.2881C16.7445 38.5751 17.1156 38.8204 17.512 39.0187C22.0133 41.1342 28.6465 36.6286 32.3444 28.914Z" fill="#8989C7"/>
<path d="M15.9191 37.8028L16.4873 37.9467C20.7826 38.8226 26.4644 34.3892 29.6992 27.6474C32.9339 20.9056 32.8171 13.6987 29.4411 10.8945L28.8973 10.4468L29.7046 10.3555C30.1653 10.4392 30.6129 10.5835 31.0357 10.7847C35.6662 13.0042 36.3777 21.1964 32.5966 29.0386C28.8155 36.8807 22.0373 41.468 17.391 39.2622C16.9726 39.0505 16.5808 38.7898 16.2238 38.4857L15.9191 37.8028ZM32.049 28.7715C35.6545 21.2313 35.0742 13.4072 30.7478 11.3338L30.7046 11.316C33.4704 14.7384 33.3447 21.43 30.2382 27.9109C27.1316 34.3919 21.9971 38.677 17.5961 38.6687L17.6479 38.6901C22.014 40.7901 28.4485 36.3239 32.049 28.7715Z" fill="#171753"/>
<path d="M33.2709 26.5029L30.973 25.4003L32.1002 21.1583L32.2901 16.5387L31.1912 12.6111L29.6418 10.6537L31.7469 11.4639L33.6046 13.8019L34.5644 16.8417L34.6321 21.1325L33.5845 25.8428L33.2709 26.5029Z" fill="#171753"/>
<path d="M12.0511 21.6017L8.34149 19.824L7.03782 24.2967L6.2979 28.8508L6.94844 34.2535L8.90047 38.3215L10.7099 40.0421L13.636 41.364L10.8787 37.6515L10.0935 32.4765L10.7772 25.6109L12.0511 21.6017Z" fill="#171753"/>
<path d="M26.2875 22.8435C26.3965 22.298 26.7783 21.7251 27.1328 21.5615C27.4873 21.3978 27.6782 21.7251 27.5418 22.2434C27.4327 22.789 27.051 23.3618 26.6965 23.5255C26.3693 23.7164 26.1784 23.3891 26.2875 22.8435Z" fill="#171753"/>
<path d="M29.4783 23.3882C29.3965 23.6883 29.3147 23.9883 29.2056 24.2884C28.8239 25.3522 28.2785 26.4433 27.5695 27.2616C26.5878 28.4073 25.6062 28.7346 24.8154 28.7346C23.8883 29.9621 23.8883 29.9621 23.8883 29.9621C23.6701 30.2349 23.5065 30.0985 23.6701 29.7439C23.452 29.9349 23.4247 29.6621 23.561 29.3893C23.3429 29.6894 23.2611 29.4166 23.3974 29.1165C23.5065 28.9256 23.6428 28.7074 23.7246 28.5437C22.7975 28.2436 21.9795 27.6435 21.1069 27.0434C21.625 27.2889 23.6974 27.7799 24.1882 27.8345C24.679 27.889 25.1699 27.9436 25.7152 27.8345C26.1515 27.7254 26.7242 27.4799 27.2423 26.8525C27.7059 26.3069 28.0058 25.4886 28.1967 24.8339C28.633 23.3609 28.6602 21.9425 28.4694 20.9332C28.2512 19.8694 27.6786 19.0511 26.7787 19.0511C26.4515 19.0511 26.0697 19.1875 25.688 19.433C24.8154 19.9785 23.861 21.0969 23.0429 22.3244C21.8431 24.152 20.8342 26.2524 19.8798 28.3255C19.2253 29.7439 18.0528 32.9627 16.8257 32.6081C16.2531 32.4444 16.0077 31.7079 15.8986 30.9441C15.7622 30.0985 15.7895 28.871 16.2258 27.6708C17.1529 25.134 19.1435 26.0614 19.798 26.416C19.7434 26.416 18.1346 26.1433 17.2347 27.398C16.8257 27.9709 16.6894 28.7346 16.6348 29.2802C16.5258 30.2349 16.6348 31.4897 17.2347 31.6533C17.9983 31.8443 18.8709 29.4984 19.2526 28.6528C19.8798 27.2344 20.4797 25.8159 21.1341 24.3975C21.8431 22.8699 22.6339 21.3151 23.561 19.9785C23.452 19.7876 23.3156 19.5421 23.3702 19.2147C23.4247 18.8329 23.7792 18.3146 23.9973 18.4237C23.7792 18.0145 24.3791 17.0871 24.7063 17.2235C24.6245 16.8416 25.0335 16.1869 25.3062 16.1051C25.4698 16.0505 25.6062 16.2142 25.688 16.296C25.9607 16.5142 26.2061 16.7597 26.4788 16.9507C29.5601 15.1504 30.569 19.3511 29.4783 23.3882Z" fill="#171753"/>
</svg>
