<svg width="64" height="41" viewBox="0 0 64 41" fill="none" xmlns="http://www.w3.org/2000/svg">
<path d="M53.0241 29.5643C53.3922 28.8998 54.1963 28.483 55.3474 28.4571C57.6564 28.4091 60.4997 29.975 61.6898 31.9481C62.2848 32.9346 62.3563 33.8398 61.9934 34.5026L61.1768 35.9839C60.8087 36.6484 60.0046 37.0653 58.8535 37.0911C56.5444 37.1391 53.7012 35.5733 52.5111 33.6002C51.916 32.6136 51.8393 31.7101 52.2074 31.0456L53.0241 29.5643Z" fill="#FFA54B"/>
<path d="M59.9692 37.0822C60.588 36.8907 61.0527 36.5383 61.3116 36.0641C61.319 36.0502 61.3226 36.0433 61.3246 36.0311L62.1283 34.5828C62.5366 33.8421 62.4296 32.8784 61.8244 31.8776C60.6054 29.8671 57.6998 28.2684 55.3435 28.3136C54.1854 28.3358 53.2935 28.7683 52.8872 29.4967L52.0706 30.9781C51.6622 31.7187 51.7692 32.6824 52.3744 33.6832C53.5935 35.6937 56.4991 37.2924 58.8554 37.2472C59.2636 37.2368 59.636 37.1853 59.9692 37.0822ZM61.0489 35.9078L61.0452 35.9147C60.6953 36.5446 59.901 36.9179 58.8533 36.9407C56.595 36.9846 53.8088 35.4532 52.6441 33.5244C52.0964 32.616 51.9888 31.7626 52.3407 31.1205L53.1573 29.6392C53.5072 29.0093 54.3015 28.636 55.3492 28.6132C57.6074 28.5693 60.3937 30.1007 61.5584 32.0295C62.1061 32.9379 62.2137 33.7913 61.8602 34.4281L61.0489 35.9078Z" fill="#171753"/>
<path d="M52.2091 31.0508L53.0258 29.5695C53.3939 28.9051 54.198 28.4882 55.3491 28.4623C55.7976 28.4511 56.2674 28.5085 56.7398 28.6116L53.382 34.71C53.0375 34.3645 52.7426 33.9921 52.5075 33.607C51.9108 32.6152 51.841 31.7153 52.2091 31.0508Z" fill="#171753"/>
<path d="M53.4314 34.8511C53.4684 34.8396 53.5005 34.8123 53.5188 34.7777L56.8713 28.6809C56.8932 28.6393 56.8943 28.5868 56.8759 28.5462C56.8559 28.5002 56.818 28.4714 56.7692 28.4633C56.2708 28.3509 55.7867 28.3037 55.3435 28.3133C54.1854 28.3355 53.2935 28.768 52.8872 29.4964L52.0706 30.9777C51.6622 31.7184 51.7692 32.6821 52.3744 33.6829C52.6026 34.0643 52.906 34.4457 53.2693 34.8143C53.3035 34.8501 53.3487 34.865 53.398 34.8556C53.4155 34.856 53.4208 34.8543 53.4314 34.8511ZM56.5062 28.7185L53.3489 34.4535C53.0631 34.1479 52.8281 33.8381 52.6404 33.5311C52.0927 32.6226 51.9851 31.7692 52.337 31.1271L53.1536 29.6458C53.5035 29.016 54.2979 28.6427 55.3456 28.6198C55.7119 28.605 56.1051 28.6398 56.5062 28.7185Z" fill="#171753"/>
<path d="M53.3277 32.1189C52.1323 30.1474 53.0382 28.5052 55.3473 28.4571C57.6564 28.4091 60.4997 29.975 61.6897 31.9481C62.8867 33.9248 61.9792 35.5618 59.6701 35.6098C57.361 35.6578 54.5194 34.0972 53.3277 32.1189Z" fill="#171753"/>
<path d="M54.1378 32.1024C53.1741 30.5129 53.9044 29.1889 55.7661 29.1502C57.6278 29.1114 59.9201 30.3739 60.8796 31.9647C61.8447 33.5584 61.113 34.8782 59.2513 34.9169C57.3896 34.9556 55.0986 33.6974 54.1378 32.1024Z" fill="#FFC78F"/>
<path d="M60.7841 35.5953C61.5087 35.3711 62.0119 34.9372 62.2422 34.3328C62.5113 33.6294 62.3622 32.7541 61.821 31.8668C60.602 29.8563 57.6964 28.2575 55.3401 28.3028C54.049 28.3256 53.1059 28.855 52.7735 29.7287C52.5043 30.4321 52.6535 31.3074 53.1946 32.1947C54.4137 34.2052 57.3209 35.8092 59.6756 35.7587C60.0802 35.7552 60.4509 35.6984 60.7841 35.5953ZM54.3248 28.7676C54.6263 28.6743 54.9759 28.6241 55.3491 28.613C57.6074 28.5691 60.3936 30.1004 61.5583 32.0292C62.0452 32.8348 62.1824 33.6153 61.9555 34.2303C61.7641 34.7357 61.3235 35.1097 60.6941 35.3044C60.3926 35.3977 60.043 35.4479 59.6698 35.4591C57.4116 35.503 54.6254 33.9716 53.4606 32.0429C52.9737 31.2373 52.8365 30.4568 53.0651 29.8471C53.2601 29.3347 53.6955 28.9624 54.3248 28.7676Z" fill="#171753"/>
<path d="M59.4255 37.1982C59.4625 37.1867 59.4947 37.1594 59.5129 37.1248L60.3295 35.6435C60.3697 35.5673 60.3419 35.4774 60.271 35.4356C60.1948 35.3954 60.1049 35.4232 60.0631 35.4941L59.2465 36.9754C59.2063 37.0516 59.2341 37.1415 59.305 37.1833C59.3413 37.2069 59.3885 37.2097 59.4255 37.1982ZM55.1385 36.1544C55.1755 36.143 55.2076 36.1156 55.2259 36.081L56.0425 34.5997C56.0827 34.5235 56.0549 34.4336 55.984 34.3918C55.9131 34.35 55.8179 34.3794 55.7761 34.4503L54.9594 35.9316C54.9193 36.0078 54.9471 36.0977 55.018 36.1396C55.0612 36.1668 55.1015 36.1659 55.1385 36.1544ZM54.2494 35.566C54.2864 35.5546 54.3185 35.5272 54.3368 35.4926L55.1534 34.0113C55.1936 33.9351 55.1658 33.8452 55.0949 33.8034C55.0187 33.7632 54.9288 33.791 54.887 33.8619L54.0703 35.3432C54.0302 35.4194 54.058 35.5093 54.1289 35.5512C54.1704 35.5731 54.2124 35.5775 54.2494 35.566Z" fill="#171753"/>
<path d="M50.5979 13.3521C51.3414 13.2264 52.1723 13.5893 52.915 14.4723C54.3966 16.245 54.956 19.4391 54.1613 21.6091C53.7665 22.6932 53.1069 23.3146 52.3581 23.442L50.6917 23.7316C49.943 23.859 49.1173 23.4944 48.3747 22.6114C46.893 20.8387 46.3336 17.6447 47.1247 15.4816C47.5194 14.3974 48.1791 13.776 48.9279 13.6486L50.5979 13.3521Z" fill="#FFA54B"/>
<path d="M52.6241 23.5338C53.3487 23.3096 53.948 22.6431 54.3091 21.6563C55.1152 19.448 54.5451 16.1819 53.0345 14.3717C52.2817 13.4746 51.4099 13.0547 50.5733 13.1977L48.9069 13.4873C48.0877 13.6306 47.3879 14.3282 46.9895 15.4193C46.1781 17.6292 46.7536 20.8936 48.2641 22.7038C49.017 23.601 49.8818 24.0172 50.7131 23.8759C50.7237 23.8726 50.729 23.871 50.7396 23.8677L52.3901 23.583C52.4638 23.5776 52.5448 23.5583 52.6241 23.5338ZM48.7609 13.8396C48.8244 13.82 48.8948 13.804 48.9599 13.7896L50.6263 13.5C51.3469 13.3755 52.1197 13.7565 52.7991 14.5663C54.2449 16.298 54.7969 19.4306 54.0208 21.5484C53.6597 22.5353 53.0489 23.1647 52.3335 23.2876L50.6671 23.5772C50.6671 23.5772 50.6671 23.5772 50.6618 23.5788C49.9411 23.7033 49.1683 23.3223 48.4889 22.5126C47.0379 20.7825 46.4911 17.6483 47.2673 15.5304C47.6001 14.6393 48.1262 14.036 48.7609 13.8396Z" fill="#171753"/>
<path d="M48.9315 13.6417L50.5979 13.3521C51.3414 13.2263 52.1723 13.5893 52.915 14.4722C53.2017 14.8182 53.4575 15.2142 53.6686 15.6531L46.8131 16.853C46.8672 16.3726 46.9719 15.9055 47.1247 15.4815C47.5247 14.3957 48.1844 13.7743 48.9315 13.6417Z" fill="#171753"/>
<path d="M53.7181 15.794C53.7551 15.7825 53.7925 15.7536 53.8108 15.719C53.8327 15.6774 53.8338 15.6249 53.8085 15.5806C53.5803 15.1238 53.3212 14.7172 53.0344 14.3712C52.28 13.4688 51.4099 13.0542 50.5732 13.1971L48.9068 13.4868C48.0877 13.6301 47.3878 14.3277 46.9894 15.4188C46.835 15.8375 46.7267 16.3115 46.6701 16.8216C46.662 16.8704 46.6821 16.9164 46.7163 16.9522C46.7506 16.9879 46.8011 17.0013 46.845 16.9935L53.7006 15.7936C53.7022 15.7989 53.7075 15.7973 53.7181 15.794ZM48.7608 13.8391C48.8243 13.8194 48.8947 13.8035 48.9598 13.7891L50.6262 13.4995C51.3469 13.375 52.1197 13.756 52.7991 14.5658C53.0311 14.8475 53.2466 15.1691 53.4401 15.5323L46.9906 16.6587C47.0486 16.2466 47.1461 15.8687 47.2672 15.5299C47.6 14.6387 48.1262 14.0355 48.7608 13.8391Z" fill="#171753"/>
<path d="M48.7948 15.1851C49.5843 13.0167 51.4334 12.6996 52.915 14.4723C54.3967 16.2451 54.9561 19.4391 54.1613 21.6091C53.3666 23.7791 51.5228 24.0947 50.0411 22.3219C48.5595 20.5491 48.0054 17.3535 48.7948 15.1851Z" fill="#171753"/>
<path d="M49.3278 15.8227C49.9605 14.0849 51.4424 13.8307 52.6298 15.2514C53.8172 16.6722 54.2656 19.232 53.6287 20.9711C52.9917 22.7102 51.514 22.9631 50.3266 21.5423C49.1392 20.1216 48.6951 17.5605 49.3278 15.8227Z" fill="#FFC78F"/>
<path d="M52.6241 23.5334C53.3487 23.3092 53.948 22.6427 54.3091 21.6559C55.1153 19.4476 54.5451 16.1815 53.0345 14.3713C52.2136 13.3852 51.2311 12.9821 50.3426 13.2571C49.618 13.4813 49.0187 14.1477 48.6575 15.1346C47.8461 17.3445 48.4216 20.6089 49.9322 22.4191C50.7515 23.4 51.7303 23.81 52.6241 23.5334ZM50.4273 13.5496C51.1942 13.3123 52.0565 13.683 52.8008 14.5712C54.2518 16.3013 54.7986 19.4355 54.0224 21.5533C53.6966 22.4481 53.1688 23.0461 52.5341 23.2425C51.7672 23.4798 50.9049 23.1091 50.1606 22.2209C48.7096 20.4908 48.1628 17.3566 48.939 15.2388C49.2648 14.344 49.7926 13.746 50.4273 13.5496Z" fill="#171753"/>
<path d="M50.4465 22.8455C50.5206 22.8226 50.5624 22.7517 50.5501 22.6743C50.5361 22.5917 50.455 22.5357 50.3724 22.5497L48.706 22.8393C48.6234 22.8532 48.5673 22.9343 48.5813 23.0169C48.5953 23.0995 48.6764 23.1556 48.759 23.1416L50.4254 22.852C50.436 22.8487 50.4412 22.8471 50.4465 22.8455ZM48.5804 18.8561C48.6545 18.8332 48.6963 18.7623 48.6839 18.685C48.67 18.6024 48.5889 18.5463 48.5063 18.5603L46.8399 18.8499C46.7626 18.8623 46.7012 18.945 46.7152 19.0276C46.7292 19.1102 46.8103 19.1662 46.8929 19.1523L48.5593 18.8627C48.5698 18.8594 48.5751 18.8578 48.5804 18.8561ZM48.4827 17.791C48.5567 17.7681 48.5985 17.6972 48.5862 17.6199C48.5722 17.5373 48.4911 17.4813 48.4085 17.4952L46.7421 17.7848C46.6595 17.7988 46.6035 17.8799 46.6174 17.9625C46.6314 18.0451 46.7125 18.1012 46.7951 18.0872L48.4615 17.7976C48.4721 17.7943 48.4774 17.7927 48.4827 17.791Z" fill="#171753"/>
<path d="M33.7143 10.874C33.1384 10.3799 32.8928 9.51127 33.0977 8.3757C33.5183 6.10127 35.6188 3.63735 37.7965 2.86498C38.8819 2.47697 39.7865 2.59114 40.3608 3.0799L41.6451 4.1777C42.2211 4.67176 42.4667 5.54041 42.2617 6.67599C41.8412 8.95041 39.7407 11.4143 37.563 12.1867C36.4776 12.5747 35.573 12.4605 34.9987 11.9718L33.7143 10.874Z" fill="#FFA54B"/>
<path d="M37.4253 12.3974C37.4888 12.3778 37.5522 12.3581 37.6194 12.3316C39.8394 11.5461 41.9903 9.02023 42.4152 6.70388C42.6258 5.54916 42.394 4.61251 41.7492 4.06443L40.4595 2.96827C39.82 2.41855 38.8572 2.32239 37.747 2.72387C35.5323 3.50769 33.3814 6.03356 32.9511 8.35156C32.7405 9.50627 32.9724 10.4429 33.6172 10.991L34.9015 12.0888C35.5068 12.6028 36.3992 12.7149 37.4253 12.3974ZM38.0241 2.94527C38.9444 2.6605 39.7375 2.75124 40.2568 3.19328L41.548 4.29473C42.1068 4.7709 42.3076 5.60706 42.1151 6.65184C41.7063 8.87049 39.6452 11.2932 37.5151 12.0509C36.5111 12.4021 35.6562 12.3363 35.1027 11.8585L33.813 10.7623C33.2595 10.2845 33.0587 9.44838 33.2459 8.40523C33.6547 6.18659 35.7158 3.76384 37.8459 3.0062C37.9078 2.98127 37.9659 2.96327 38.0241 2.94527Z" fill="#171753"/>
<path d="M34.9987 11.9719L33.709 10.8757C33.1331 10.3817 32.8875 9.51304 33.0925 8.37746C33.1756 7.93446 33.3202 7.48404 33.5206 7.04534L38.8129 11.5625C38.4079 11.8269 37.9828 12.0453 37.5593 12.1938C36.4776 12.5748 35.5746 12.466 34.9987 11.9719Z" fill="#171753"/>
<path d="M37.4254 12.3972C37.4888 12.3775 37.5523 12.3579 37.6194 12.3313C38.0429 12.1829 38.4732 11.9628 38.9083 11.6833C38.9473 11.6596 38.9729 11.6111 38.9757 11.5639C38.9785 11.5167 38.9584 11.4707 38.9242 11.435L33.6319 6.91783C33.594 6.88899 33.5488 6.874 33.4996 6.88344C33.452 6.89817 33.4146 6.92713 33.3927 6.96868C33.183 7.43346 33.0416 7.89445 32.9585 8.33745C32.7479 9.49217 32.9797 10.4288 33.6245 10.9769L34.9016 12.0886C35.5069 12.6025 36.3993 12.7147 37.4254 12.3972ZM38.5613 11.5357C38.2099 11.7487 37.8577 11.9214 37.5135 12.0453C36.5095 12.3966 35.6546 12.3308 35.1011 11.853L33.8114 10.7568C33.2579 10.279 33.0571 9.44283 33.2443 8.39968C33.3134 8.04219 33.4231 7.66631 33.5784 7.28792L38.5613 11.5357Z" fill="#171753"/>
<path d="M36.2786 11.0888C34.1062 11.8596 32.6808 10.6431 33.103 8.37399C33.5235 6.09956 35.624 3.63564 37.8017 2.86327C39.9741 2.09254 41.3995 3.30898 40.9773 5.57811C40.5568 7.85254 38.451 10.3181 36.2786 11.0888Z" fill="#171753"/>
<path d="M36.4398 10.2179C34.7273 10.8254 33.6037 9.86652 33.9365 8.07777C34.268 6.28485 35.9238 4.34255 37.6405 3.73369C39.353 3.12613 40.4766 4.08504 40.1438 5.87379C39.8123 7.66671 38.1523 9.61031 36.4398 10.2179Z" fill="#FFC78F"/>
<path d="M36.134 11.2957C36.1975 11.276 36.2609 11.2564 36.3228 11.2315C38.5428 10.446 40.6937 7.92013 41.1186 5.60377C41.3289 4.46656 41.1003 3.54049 40.4766 2.98586C39.8375 2.41864 38.8624 2.32046 37.7384 2.71463C35.5237 3.49845 33.3675 6.02597 32.9426 8.34232C32.7323 9.47954 32.9609 10.4056 33.5846 10.9602C34.1927 11.5023 35.0974 11.6164 36.134 11.2957ZM38.0241 2.94497C38.9603 2.6553 39.7603 2.74969 40.2808 3.21452C40.8184 3.69724 41.0107 4.52446 40.8238 5.5501C40.415 7.76874 38.3539 10.1915 36.2238 10.9491C36.1657 10.9671 36.1038 10.9921 36.0456 11.0101C35.1095 11.2997 34.3095 11.2054 33.789 10.7405C33.2513 10.2578 33.0591 9.43058 33.2459 8.40494C33.6547 6.1863 35.7158 3.76354 37.8459 3.00591C37.9077 2.98098 37.9659 2.96298 38.0241 2.94497Z" fill="#171753"/>
<path d="M39.7294 11.041C39.7559 11.0329 39.7807 11.0194 39.8022 10.9953C39.8579 10.9318 39.8512 10.8353 39.7876 10.7796L38.498 9.68347C38.4344 9.62781 38.338 9.63447 38.2823 9.69806C38.2266 9.76165 38.2333 9.85811 38.2969 9.91377L39.5865 11.0099C39.6261 11.0441 39.6818 11.0558 39.7294 11.041ZM40.4882 10.2905C40.5147 10.2823 40.5395 10.2688 40.561 10.2448C40.6167 10.1812 40.61 10.0847 40.5464 10.0291L39.2568 8.9329C39.1932 8.87723 39.0967 8.8839 39.0411 8.94748C38.9854 9.01107 38.9921 9.10753 39.0557 9.1632L40.3453 10.2594C40.3848 10.2935 40.4406 10.3052 40.4882 10.2905ZM42.3714 6.30006C42.3978 6.29188 42.4226 6.27841 42.4442 6.25436C42.4998 6.19077 42.4932 6.09431 42.4296 6.03865L41.1399 4.94249C41.0764 4.88682 40.9799 4.89349 40.9242 4.95707C40.8686 5.02066 40.8752 5.11712 40.9388 5.17279L42.2285 6.26895C42.2696 6.30837 42.3238 6.31479 42.3714 6.30006Z" fill="#171753"/>
<path d="M15.9779 3.61803C16.2263 2.90368 16.9406 2.34652 18.0714 2.1241C20.3384 1.67764 23.4083 2.72132 24.9257 4.45985C25.6879 5.33094 25.9123 6.20613 25.6656 6.92578L25.1178 8.52674C24.8694 9.2411 24.1551 9.79825 23.0243 10.0207C20.7573 10.4671 17.6874 9.42345 16.17 7.68493C15.4078 6.81384 15.1834 5.93864 15.4301 5.21899L15.9779 3.61803Z" fill="#FFA54B"/>
<path d="M23.526 10.0505C24.4146 9.77553 25.0353 9.25311 25.267 8.57868L25.8148 6.97771C26.0895 6.17987 25.819 5.24939 25.0467 4.36407C23.4967 2.59507 20.3591 1.52015 18.0498 1.97971C16.9137 2.20376 16.1079 2.78345 15.8421 3.57273L15.2943 5.17369C15.0212 5.97682 15.2901 6.90202 16.0678 7.7857C17.6178 9.5547 20.7553 10.6296 23.0646 10.1701C23.2213 10.1332 23.3779 10.0963 23.526 10.0505ZM17.6593 2.38453C17.7968 2.34198 17.9465 2.30144 18.0995 2.27148C20.3172 1.83446 23.3245 2.86277 24.8113 4.5586C25.5102 5.35653 25.7639 6.17632 25.5212 6.87153L24.9734 8.4725C24.7716 9.05652 24.2277 9.5088 23.4344 9.75429C23.2968 9.79684 23.1455 9.83208 22.9941 9.86733C20.7764 10.3044 17.7691 9.27604 16.2824 7.58021C15.5834 6.78229 15.335 5.96086 15.5725 5.26728L16.1203 3.66631C16.322 3.08229 16.8659 2.63001 17.6593 2.38453Z" fill="#171753"/>
<path d="M15.4302 5.21867L15.9779 3.6177C16.2263 2.90335 16.9406 2.34619 18.0714 2.12377C18.5146 2.03881 18.9863 2.00876 19.4675 2.02794L17.2217 8.61099C16.8215 8.32914 16.4693 8.01505 16.1684 7.67931C15.4131 6.81187 15.1871 5.93138 15.4302 5.21867Z" fill="#171753"/>
<path d="M17.2675 8.75934C17.3151 8.74461 17.3509 8.71036 17.3659 8.66516L19.6153 2.07518C19.6303 2.02997 19.6262 1.9791 19.5972 1.9417C19.5683 1.90429 19.5251 1.87709 19.4778 1.87431C18.967 1.85274 18.4847 1.88607 18.0485 1.97468C16.9123 2.19873 16.1065 2.77842 15.8407 3.5677L15.2929 5.16867C15.0199 5.97179 15.2888 6.89699 16.0664 7.78067C16.362 8.11805 16.7228 8.44108 17.1454 8.73918C17.1764 8.76437 17.2252 8.77243 17.2675 8.75934ZM19.2577 2.17425L17.1464 8.36795C16.8139 8.11733 16.5289 7.85199 16.2879 7.57883C15.589 6.78091 15.3406 5.95948 15.578 5.2659L16.1258 3.66494C16.3612 2.98358 17.0675 2.47528 18.1067 2.2754C18.4603 2.20075 18.8498 2.16716 19.2577 2.17425Z" fill="#171753"/>
<path d="M16.7161 6.07878C15.1987 4.34025 15.8045 2.57067 18.0714 2.12421C20.3383 1.67775 23.4083 2.72143 24.9257 4.45995C26.4431 6.19848 25.8373 7.96805 23.5704 8.41452C21.3034 8.86098 18.2388 7.81567 16.7161 6.07878Z" fill="#171753"/>
<path d="M17.5388 5.9168C16.3255 4.52672 16.8098 3.11181 18.6224 2.75482C20.435 2.39784 22.8897 3.23234 24.1029 4.62243C25.3162 6.01252 24.8319 7.42743 23.0193 7.78441C21.2067 8.14139 18.7562 7.30558 17.5388 5.9168Z" fill="#FFC78F"/>
<path d="M24.0723 8.44478C25.0085 8.1551 25.6353 7.59605 25.8401 6.87199C26.0635 6.09581 25.7747 5.19995 25.0383 4.35569C23.4883 2.58669 20.3507 1.51177 18.0414 1.97133C16.8508 2.20646 16.0389 2.82279 15.8001 3.66168C15.5766 4.43787 15.8654 5.33372 16.6019 6.17799C18.1519 7.94699 21.2895 9.02191 23.5987 8.56235C23.7692 8.53277 23.9242 8.4906 24.0723 8.44478ZM17.6595 2.38509C17.797 2.34254 17.9467 2.302 18.0997 2.27204C20.3174 1.83502 23.3247 2.86333 24.8115 4.55916C25.4762 5.32132 25.7392 6.11505 25.5477 6.78861C25.3696 7.41167 24.818 7.8953 23.9823 8.15388C23.8448 8.19643 23.6951 8.23697 23.5421 8.26692C21.3244 8.70395 18.3171 7.67564 16.8303 5.9798C16.1656 5.21765 15.9027 4.42392 16.0941 3.75036C16.2722 3.1273 16.8291 2.64203 17.6595 2.38509Z" fill="#171753"/>
<path d="M23.5774 10.0295C23.625 10.0148 23.6608 9.98056 23.6758 9.93535L24.2235 8.33438C24.2515 8.25619 24.2062 8.16589 24.1296 8.14322C24.0514 8.11526 23.9611 8.16058 23.9385 8.23714L23.3907 9.83811C23.3627 9.91631 23.4064 10.0013 23.4846 10.0293C23.5176 10.0422 23.551 10.0377 23.5774 10.0295ZM22.3766 10.2504C22.4242 10.2357 22.4599 10.2015 22.4749 10.1562L23.0227 8.55528C23.0507 8.47708 23.007 8.39208 22.9288 8.36412C22.8506 8.33616 22.7603 8.38148 22.7376 8.45804L22.1898 10.059C22.1619 10.1372 22.2056 10.2222 22.2838 10.2502C22.3167 10.2631 22.3501 10.2586 22.3766 10.2504ZM18.2008 9.32289C18.2484 9.30816 18.2842 9.27391 18.2992 9.2287L18.847 7.62774C18.8749 7.54954 18.8296 7.45925 18.7531 7.43657C18.6749 7.40861 18.5846 7.45394 18.5619 7.5305L18.0141 9.13146C17.9861 9.20966 18.0315 9.29995 18.108 9.32263C18.1394 9.33031 18.1691 9.33271 18.2008 9.32289Z" fill="#171753"/>
<path d="M2.06594 18.7603C1.5473 18.2079 1.39324 17.3167 1.72363 16.2119C2.38279 13.9969 4.73564 11.7679 6.98169 11.2351C8.10471 10.9688 8.98466 11.1717 9.50859 11.7224L10.671 12.9507C11.1897 13.503 11.3437 14.3942 11.0133 15.4991C10.3542 17.714 8.00132 19.9431 5.75527 20.4758C4.63225 20.7422 3.75066 20.5339 3.22837 19.9885L2.06594 18.7603Z" fill="#FFA54B"/>
<path d="M6.12696 20.5348C8.3166 19.8573 10.525 17.6672 11.1595 15.541C11.4955 14.417 11.3605 13.4562 10.7766 12.8429C10.7681 12.8339 10.7612 12.8303 10.7526 12.8213L9.6142 11.6146C9.03563 10.9997 8.08366 10.8074 6.94476 11.0787C4.64948 11.6209 2.24058 13.931 1.57576 16.1651C1.23969 17.2891 1.37473 18.2499 1.9586 18.8632L3.12103 20.0915C3.7049 20.7048 4.65158 20.8986 5.79047 20.6274C5.90482 20.6036 6.01589 20.5692 6.12696 20.5348ZM10.5584 13.0553C11.0599 13.5897 11.1728 14.4415 10.8724 15.4559C10.2679 17.4917 8.14726 19.591 6.04223 20.2423C5.93645 20.275 5.82904 20.3025 5.72162 20.3299C4.69015 20.5738 3.84772 20.4172 3.34092 19.8843L2.17848 18.6561C1.67697 18.1216 1.56408 17.2698 1.86979 16.2538C2.50627 14.1154 4.81845 11.9047 7.01526 11.3814C8.04673 11.1376 8.88916 11.2942 9.39596 11.827L10.5584 13.0553Z" fill="#171753"/>
<path d="M3.23003 19.9938L2.0676 18.7655C1.54896 18.2132 1.3949 17.322 1.72529 16.2171C1.85365 15.7891 2.04874 15.3521 2.29068 14.9353L7.0705 19.9877C6.6349 20.2094 6.19516 20.3802 5.75693 20.4811C4.63391 20.7474 3.74704 20.5408 3.23003 19.9938Z" fill="#171753"/>
<path d="M6.12172 20.536C6.45493 20.4329 6.79418 20.2932 7.13948 20.1168C7.18545 20.0968 7.21265 20.0536 7.22071 20.0047C7.22878 19.9559 7.21405 19.9083 7.1798 19.8725L2.39998 14.8201C2.36573 14.7843 2.32053 14.7693 2.26965 14.7735C2.22407 14.776 2.18138 14.8066 2.15417 14.8498C1.89762 15.2943 1.70253 15.7313 1.57581 16.1646C1.23975 17.2886 1.37479 18.2494 1.95865 18.8628L3.12109 20.091C3.70495 20.7043 4.65164 20.8982 5.79053 20.6269C5.89958 20.6048 6.01065 20.5704 6.12172 20.536ZM6.81763 19.9382C6.44425 20.1175 6.07893 20.2479 5.72167 20.3295C4.6902 20.5733 3.84777 20.4167 3.34097 19.8839L2.17853 18.6556C1.67702 18.1212 1.56414 17.2694 1.86984 16.2533C1.97553 15.9019 2.12516 15.5426 2.32201 15.1861L6.81763 19.9382Z" fill="#171753"/>
<path d="M4.59444 19.2532C2.35002 19.7912 1.06444 18.4272 1.7236 16.2122C2.38275 13.9973 4.73561 11.7682 6.98165 11.2355C9.22606 10.6975 10.5116 12.0615 9.85248 14.2765C9.19169 16.4861 6.83885 18.7152 4.59444 19.2532Z" fill="#171753"/>
<path d="M4.82009 18.495C3.00007 18.9313 1.95758 17.8252 2.49209 16.0291C3.02661 14.2329 4.93457 12.4254 6.75592 11.9934C8.57594 11.5571 9.61843 12.6632 9.08391 14.4593C8.54807 16.2512 6.64011 18.0587 4.82009 18.495Z" fill="#FFC78F"/>
<path d="M4.9645 19.3063C7.15414 18.6287 9.36255 16.4386 9.99702 14.3124C10.3331 13.1884 10.198 12.2276 9.61418 11.6143C9.03561 10.9993 8.08527 10.8124 6.94638 11.0836C4.65109 11.6258 2.2422 13.936 1.57737 16.1701C1.24131 17.294 1.37635 18.2549 1.96021 18.8682C2.53878 19.4831 3.48912 19.6701 4.62801 19.3988C4.74236 19.375 4.85343 19.3406 4.9645 19.3063ZM6.69462 11.4687C6.8004 11.436 6.90782 11.4085 7.01523 11.3811C8.04671 11.1373 8.88914 11.2939 9.39594 11.8267C9.90274 12.3595 10.0103 13.2129 9.70463 14.229C9.10014 16.2648 6.97951 18.364 4.87449 19.0154C4.75851 19.0339 4.66129 19.0755 4.55387 19.103C3.5224 19.3468 2.67997 19.1902 2.17846 18.6557C1.67166 18.1229 1.56406 17.2695 1.86284 16.2498C2.47589 14.223 4.59489 12.1184 6.69462 11.4687Z" fill="#171753"/>
<path d="M8.04793 19.5694C8.06908 19.5629 8.0886 19.551 8.10649 19.5339C8.16908 19.474 8.16933 19.3812 8.11469 19.3169L6.95225 18.0887C6.89232 18.0261 6.79951 18.0258 6.73528 18.0805C6.67269 18.1404 6.67243 18.2332 6.72708 18.2975L7.88952 19.5257C7.93233 19.5704 7.99504 19.5858 8.04793 19.5694ZM10.8155 16.3021C10.8367 16.2956 10.8562 16.2838 10.8741 16.2666C10.9367 16.2067 10.9369 16.1139 10.8823 16.0497L10.3011 15.4355L9.71986 14.8214C9.65993 14.7588 9.56712 14.7586 9.50289 14.8132C9.4403 14.8731 9.44005 14.966 9.49998 15.0285L10.6624 16.2568C10.6999 16.3031 10.7626 16.3185 10.8155 16.3021ZM11.1788 15.135C11.2 15.1284 11.2195 15.1166 11.2374 15.0995C11.3 15.0395 11.3002 14.9467 11.2403 14.8841L10.0778 13.6559C10.0179 13.5933 9.9251 13.593 9.86087 13.6477C9.79828 13.7076 9.79803 13.8004 9.85267 13.8646L11.0151 15.0929C11.0648 15.1413 11.1259 15.1513 11.1788 15.135Z" fill="#171753"/>
<path d="M6.60964 14.7118C6.6341 14.5389 6.77102 14.3556 6.91772 14.2993C7.06443 14.243 7.16223 14.3362 7.13778 14.5091C7.11333 14.682 6.97641 14.8653 6.8297 14.9216C6.683 14.978 6.58601 14.8789 6.60964 14.7118Z" fill="#171753"/>
<path d="M8.14394 14.7933C8.12104 14.8878 8.09814 14.9824 8.0609 15.0775C7.94239 15.4106 7.73706 15.7519 7.44341 16.011C7.0423 16.3567 6.60998 16.452 6.25944 16.4402C5.91999 16.7875 5.91999 16.7875 5.91999 16.7875C5.84274 16.8626 5.76347 16.8173 5.81505 16.7218C5.72723 16.7707 5.71414 16.6949 5.74912 16.6159C5.67036 16.7017 5.62506 16.6181 5.67438 16.5386C5.70558 16.4863 5.75263 16.4228 5.78811 16.3738C5.39227 16.2785 5.045 16.109 4.69194 15.9468C4.89728 16.0093 5.73375 16.1525 5.94085 16.1689C6.15727 16.1867 6.37368 16.2046 6.60695 16.1705C6.80147 16.1413 7.05437 16.0695 7.25794 15.8752C7.44415 15.7028 7.54052 15.4589 7.59361 15.2518C7.71438 14.8017 7.64139 14.3755 7.48134 14.0938C7.31348 13.7999 6.99942 13.5975 6.60258 13.6438C6.45764 13.6591 6.30665 13.717 6.16196 13.7978C5.82653 13.9821 5.4994 14.3095 5.23519 14.6633C4.85372 15.1731 4.56007 15.735 4.28731 16.2838C4.10186 16.6527 3.7969 17.4965 3.37691 17.3701C3.19018 17.3105 3.0933 17.1206 3.03591 16.9206C2.97073 16.7084 2.94782 16.3993 3.05174 16.102C3.27341 15.4769 3.95663 15.6941 4.18764 15.777C4.1733 15.7775 3.61087 15.7158 3.35698 16.0302C3.24123 16.1756 3.21909 16.3658 3.21456 16.4987C3.20929 16.738 3.27221 17.0671 3.47403 17.1208C3.73599 17.1868 3.95968 16.5811 4.06234 16.36C4.2342 15.9862 4.40103 15.6143 4.58723 15.2401C4.79306 14.828 5.02833 14.4096 5.325 14.0283C5.27946 13.9801 5.21101 13.9257 5.2188 13.8369C5.22308 13.7393 5.33455 13.5906 5.42766 13.6053C5.33153 13.511 5.51698 13.243 5.65664 13.2651C5.60279 13.1747 5.73464 12.9828 5.84964 12.9437C5.91507 12.9186 5.97219 12.9522 6.01724 12.9702C6.13526 13.0107 6.25252 13.0565 6.37558 13.0951C7.65818 12.4059 8.42598 13.5394 8.14394 14.7933Z" fill="#171753"/>
<path d="M21.6284 5.6521C21.7468 5.53376 21.9488 5.49379 22.083 5.56218C22.2172 5.63056 22.2299 5.77994 22.1116 5.89828C21.9932 6.01662 21.7912 6.05659 21.657 5.98821C21.5228 5.91982 21.514 5.7665 21.6284 5.6521Z" fill="#171753"/>
<path d="M22.6385 6.89907C22.5672 6.95647 22.4959 7.01388 22.4144 7.0606C22.1372 7.23363 21.7953 7.34616 21.4407 7.32542C20.9612 7.29064 20.6072 7.03306 20.3724 6.75353C19.9345 6.7675 19.9345 6.7675 19.9345 6.7675C19.8372 6.76754 19.8091 6.67052 19.9007 6.63449C19.8115 6.60557 19.8469 6.53539 19.9174 6.49963C19.8128 6.50697 19.8306 6.40576 19.9113 6.3807C19.9635 6.3632 20.0332 6.34909 20.0864 6.3376C19.8694 5.95686 19.7295 5.5547 19.5813 5.15386C19.6862 5.3617 20.1789 6.12003 20.312 6.29266C20.4508 6.47363 20.5895 6.65459 20.7703 6.80738C20.9216 6.93409 21.1381 7.072 21.3925 7.07478C21.6221 7.08148 21.8317 6.96221 21.9899 6.83878C22.3374 6.5747 22.5372 6.18025 22.5923 5.83332C22.649 5.47075 22.5513 5.06805 22.2505 4.79898C22.1416 4.69938 22.0035 4.629 21.8563 4.58158C21.5169 4.46928 21.0991 4.47699 20.7093 4.55407C20.147 4.6646 19.6147 4.88414 19.1045 5.10942C18.7601 5.25926 18.0545 5.69379 17.8391 5.26975C17.7453 5.07859 17.79 4.85322 17.8679 4.65026C17.9475 4.43166 18.1131 4.16868 18.3593 4.01288C18.8791 3.6877 19.2227 4.38661 19.3333 4.63045C19.3231 4.61976 18.9715 4.13734 18.6119 4.1912C18.4467 4.21734 18.3198 4.35119 18.2387 4.45321C18.0946 4.63897 17.9448 4.94863 18.0524 5.14682C18.1943 5.40108 18.7041 5.09287 18.9046 4.99655C19.2425 4.83237 19.5759 4.66584 19.924 4.51235C20.3078 4.34398 20.7156 4.19334 21.144 4.11938C21.1408 4.04608 21.1256 3.9501 21.1831 3.88566C21.2433 3.81156 21.4075 3.77942 21.463 3.86287C21.4521 3.71394 21.7373 3.64419 21.8206 3.76936C21.8365 3.65616 22.0401 3.60549 22.1424 3.66309C22.2022 3.69359 22.2219 3.76427 22.2424 3.8133C22.3 3.93639 22.3539 4.06314 22.4161 4.18858C23.705 4.63024 23.569 6.12146 22.6385 6.89907Z" fill="#171753"/>
<path d="M58.3517 32.5548C58.4701 32.4365 58.6658 32.4074 58.7921 32.4895C58.9185 32.5715 58.9248 32.7318 58.8065 32.8501C58.6882 32.9685 58.4924 32.9975 58.3661 32.9155C58.2398 32.8335 58.2373 32.6692 58.3517 32.5548Z" fill="#171753"/>
<path d="M59.274 33.954C59.2033 34.0105 59.1325 34.0669 59.0524 34.1113C58.7792 34.2773 58.4462 34.3744 58.1062 34.3284C57.6467 34.2589 57.3165 33.9601 57.1018 33.6459C56.6803 33.6313 56.6803 33.6313 56.6803 33.6313C56.5868 33.6248 56.5636 33.5193 56.653 33.4871C56.5684 33.4502 56.6052 33.3777 56.6743 33.3442C56.5735 33.345 56.5945 33.2382 56.6731 33.2169C56.7239 33.2017 56.7915 33.1914 56.8431 33.1827C56.6494 32.7617 56.5305 32.323 56.4037 31.8851C56.4964 32.114 56.9404 32.9567 57.0617 33.1499C57.188 33.3524 57.3142 33.5549 57.4821 33.7302C57.6225 33.8757 57.8253 34.0375 58.0697 34.0576C58.2901 34.0802 58.4962 33.967 58.653 33.8459C58.9972 33.5875 59.2047 33.1799 59.271 32.8133C59.3397 32.4301 59.2615 31.9937 58.9828 31.6862C58.882 31.5726 58.752 31.4881 58.6124 31.4276C58.2906 31.2849 57.8888 31.2649 57.5111 31.3209C56.9664 31.401 56.4463 31.5995 55.9471 31.8055C55.6103 31.9423 54.9153 32.3585 54.7248 31.8914C54.6421 31.681 54.6938 31.4435 54.7765 31.2321C54.8615 31.0041 55.031 30.7346 55.2736 30.5849C55.7858 30.2728 56.0888 31.042 56.1857 31.3097C56.1763 31.2976 55.8572 30.759 55.5094 30.7922C55.3497 30.809 55.2225 30.9433 55.1405 31.0468C54.9949 31.2353 54.8388 31.5558 54.9345 31.7746C55.061 32.0555 55.5629 31.7609 55.7594 31.6716C56.0906 31.5191 56.4174 31.3638 56.758 31.2235C57.1334 31.0696 57.5312 30.9363 57.9458 30.8862C57.9456 30.8078 57.9347 30.7043 57.9925 30.6394C58.0532 30.5644 58.2123 30.5411 58.2624 30.6339C58.2577 30.4742 58.5345 30.419 58.6097 30.5582C58.6294 30.4385 58.8271 30.3981 58.9231 30.4665C58.9794 30.5031 58.9956 30.5798 59.0133 30.6336C59.0639 30.7688 59.1108 30.9078 59.1657 31.0458C60.3873 31.6041 60.1986 33.1867 59.274 33.954Z" fill="#171753"/>
<path d="M38.0491 6.3374C38.0958 6.18047 38.2488 6.03193 38.3933 6.00318C38.5379 5.97444 38.6161 6.07698 38.5694 6.2339C38.5227 6.39083 38.3697 6.53937 38.2251 6.56811C38.0806 6.59686 38.0039 6.48909 38.0491 6.3374Z" fill="#171753"/>
<path d="M39.4678 6.66029C39.4334 6.74461 39.399 6.82893 39.3511 6.91136C39.1945 7.20226 38.9559 7.48668 38.6464 7.68041C38.2247 7.93746 37.8085 7.95643 37.4835 7.88894C37.119 8.15739 37.119 8.15739 37.119 8.15739C37.0366 8.21479 36.969 8.15989 37.0303 8.07934C36.9417 8.11063 36.94 8.03806 36.9835 7.97016C36.8982 8.03725 36.8676 7.95221 36.9245 7.88619C36.9609 7.84251 37.0135 7.79103 37.0534 7.7512C36.6976 7.59867 36.3974 7.38496 36.0908 7.17709C36.2736 7.26833 37.0333 7.53645 37.2241 7.58509C37.4233 7.6366 37.6226 7.68811 37.8447 7.69405C38.03 7.6982 38.2757 7.67212 38.4923 7.52422C38.6897 7.39381 38.8133 7.18239 38.8915 6.99824C39.0663 6.59889 39.0573 6.19056 38.9471 5.9026C38.8314 5.60208 38.5667 5.36308 38.1904 5.34223C38.0532 5.33306 37.9044 5.36265 37.7584 5.41448C37.4203 5.53187 37.0701 5.78381 36.7748 6.07039C36.3487 6.48325 35.9972 6.95873 35.6671 7.42543C35.4431 7.73883 35.0421 8.47482 34.6682 8.28945C34.5024 8.20394 34.4384 8.01161 34.4126 7.81623C34.3812 7.60829 34.4026 7.31694 34.5406 7.05708C34.8338 6.51117 35.4405 6.8234 35.6443 6.9378C35.6309 6.93591 35.1152 6.78785 34.8351 7.03953C34.7071 7.15613 34.6601 7.32952 34.6375 7.4525C34.5994 7.67425 34.6125 7.99064 34.7932 8.07318C35.0282 8.17682 35.3205 7.6493 35.4468 7.46012C35.6587 7.13999 35.8657 6.82085 36.0911 6.5026C36.34 6.15233 36.6171 5.80099 36.9464 5.49396C36.9107 5.44184 36.8544 5.38012 36.874 5.29876C36.8914 5.2087 37.0159 5.08824 37.1007 5.11695C37.0241 5.0137 37.2341 4.79421 37.3612 4.83728C37.3235 4.74453 37.473 4.5872 37.5856 4.56936C37.65 4.55654 37.6986 4.597 37.7381 4.62105C37.8425 4.67775 37.9454 4.7393 38.0548 4.79502C39.3456 4.36053 39.9043 5.53904 39.4678 6.66029Z" fill="#171753"/>
<path d="M51.3292 17.4812C51.1733 17.4491 51.0577 17.3092 51.0691 17.1664C51.0805 17.0236 51.2143 16.9351 51.3702 16.9671C51.5261 16.9992 51.6417 17.1391 51.6303 17.2819C51.6189 17.4247 51.4799 17.5122 51.3292 17.4812Z" fill="#171753"/>
<path d="M52.0953 16.0218C52.1764 16.0485 52.2574 16.0751 52.3324 16.1155C52.6009 16.2454 52.8382 16.4586 52.9567 16.7518C53.1106 17.152 53.0089 17.5692 52.8404 17.903C53.0235 18.2444 53.0235 18.2444 53.0235 18.2444C53.0613 18.3219 52.9821 18.3952 52.9131 18.3412C52.9208 18.4274 52.8419 18.4361 52.7813 18.3987C52.8288 18.4782 52.7278 18.5171 52.6732 18.4661C52.6367 18.4336 52.5965 18.3855 52.5651 18.3492C52.2957 18.722 51.9765 19.0447 51.6617 19.3732C51.8141 19.1805 52.3271 18.3899 52.4357 18.1931C52.55 17.9876 52.6642 17.7821 52.7359 17.5578C52.7948 17.3708 52.8388 17.1259 52.7426 16.9219C52.6596 16.7355 52.4674 16.6312 52.2913 16.5701C51.911 16.432 51.467 16.4801 51.1233 16.6184C50.7644 16.7637 50.4283 17.053 50.2952 17.4339C50.245 17.5729 50.2333 17.7199 50.2464 17.862C50.274 18.1913 50.4434 18.52 50.6664 18.7899C50.9875 19.1797 51.3982 19.4883 51.8057 19.7763C52.0786 19.9719 52.7564 20.3056 52.4461 20.6998C52.305 20.8749 52.0783 20.9577 51.8595 21.0023C51.6255 21.0537 51.3169 21.0599 51.0765 20.9457C50.5726 20.7025 51.0883 20.0618 51.2719 19.8457C51.2659 19.8594 50.9543 20.3927 51.1441 20.6509C51.2325 20.7687 51.4061 20.7994 51.5324 20.8105C51.7609 20.8276 52.1068 20.7843 52.2491 20.5945C52.4302 20.348 51.9458 20.1039 51.7785 19.9947C51.4947 19.8119 51.2105 19.6339 50.9327 19.4373C50.6272 19.22 50.3289 18.9744 50.0938 18.6721C50.0269 18.7131 49.9437 18.7756 49.8615 18.7637C49.7692 18.7547 49.6756 18.6408 49.7315 18.5527C49.5974 18.6396 49.4219 18.4491 49.5058 18.317C49.3944 18.3638 49.2683 18.2283 49.2821 18.1166C49.2872 18.053 49.3452 18.0002 49.3828 17.9581C49.4747 17.8476 49.5715 17.738 49.6639 17.6226C49.5735 16.3642 51.0116 15.6892 52.0953 16.0218Z" fill="#171753"/>
<path d="M49.4998 33.2803V31.3319L47.3498 31.3655L27.5964 20.0778C26.7229 19.5739 25.6479 19.5739 24.7745 20.0778L17.3502 24.4451L13.722 25.117V27.0654C13.6884 27.4685 13.8564 27.8717 14.2595 28.1068L35.6254 40.3351C36.4988 40.839 37.5739 40.839 38.4473 40.3351L48.9287 34.1874C49.2982 34.0194 49.4662 33.6499 49.4998 33.2803Z" fill="#FFA54B"/>
<path d="M37.0362 40.8724C36.5323 40.8724 36.0284 40.738 35.5581 40.4692L14.1922 28.2409C13.7891 28.0058 13.5539 27.5355 13.5875 27.0651V25.0159L17.2829 24.3104L24.6736 19.9432C25.5806 19.4057 26.7228 19.4057 27.6299 19.9432L47.3497 31.2308L49.6005 31.1636V33.3808C49.5669 33.7504 49.3317 34.0863 48.9958 34.2879L38.5144 40.4356C38.0441 40.738 37.5402 40.8724 37.0362 40.8724ZM13.8562 25.2511V27.0987C13.8227 27.5019 13.9906 27.8378 14.3266 28.0058L35.6925 40.2341C36.5323 40.7044 37.5402 40.7044 38.3464 40.2341L48.8278 34.0863C49.1302 33.9184 49.2981 33.616 49.2981 33.2801V33.2465V31.4996L47.2489 31.5332L27.4619 20.2119C26.622 19.7416 25.6142 19.7416 24.808 20.2119L17.3836 24.5792L13.8562 25.2511Z" fill="#171753"/>
<path d="M14.2594 26.1918L35.6253 38.4201C36.4988 38.924 37.5738 38.924 38.4472 38.4201L48.9286 32.2723C49.6677 31.8356 49.6677 30.7942 48.9286 30.3911L27.5627 18.1628C26.6893 17.6589 25.6143 17.6589 24.7408 18.1628L14.2594 24.2769C13.5539 24.7137 13.5539 25.7551 14.2594 26.1918Z" fill="#FFC78F"/>
<path d="M37.0364 38.9241C36.5325 38.9241 36.0286 38.7897 35.5583 38.521L14.1924 26.2927C13.8228 26.0575 13.5877 25.6544 13.5877 25.2177C13.5877 24.781 13.8228 24.3778 14.1924 24.1427L24.6738 17.9949C25.5808 17.4574 26.723 17.4574 27.6301 17.9949L48.996 30.2232C49.3991 30.4584 49.6007 30.8615 49.6007 31.2982C49.6007 31.735 49.3655 32.1381 48.996 32.3732L38.5146 38.521C38.0443 38.7897 37.5403 38.9241 37.0364 38.9241ZM14.3267 26.0575L35.6927 38.2858C36.5325 38.7561 37.5403 38.7561 38.3466 38.2858L48.828 32.1381C49.1303 31.9701 49.2983 31.6678 49.2983 31.2982C49.2983 30.9623 49.1303 30.6263 48.828 30.4584L27.4957 18.2637C26.6558 17.7934 25.648 17.7934 24.8417 18.2637L14.3603 24.4114C14.058 24.5794 13.89 24.8817 13.89 25.2513C13.8564 25.5872 14.058 25.8896 14.3267 26.0575Z" fill="#171753"/>
<path d="M14.9647 26.494H14.696V28.5097H14.9647V26.494Z" fill="#171753"/>
<path d="M37.1036 38.7226H36.8348V40.7382H37.1036V38.7226Z" fill="#171753"/>
<path d="M38.3463 38.4539H38.0775V40.4695H38.3463V38.4539Z" fill="#171753"/>
<path d="M48.6264 32.4404H48.3576V34.4561H48.6264V32.4404Z" fill="#171753"/>
<path d="M38.6823 38.2521V40.2005L48.0887 34.6911V32.7426L38.6823 38.2521Z" fill="#171753"/>
<path d="M31.1888 25.4681V23.0682H22.8812V25.4681C22.8812 26.0818 23.2882 26.6955 24.0989 27.1638C25.7204 28.1005 28.3528 28.1005 29.9743 27.1638C30.785 26.6955 31.1888 26.0818 31.1888 25.4681Z" fill="#171753"/>
<path d="M27.035 28.0101C25.9013 28.0101 24.8321 27.7549 24.0246 27.2865C23.1945 26.8053 22.7359 26.1593 22.7359 25.4648V23.0649C22.7359 22.9842 22.8005 22.9196 22.8812 22.9196H31.192C31.2728 22.9196 31.3374 22.9842 31.3374 23.0649V25.4648C31.3374 26.1593 30.8787 26.8053 30.0486 27.2865C29.2379 27.7549 28.1687 28.0101 27.035 28.0101ZM23.0266 23.2135V25.468C23.0266 26.0559 23.4336 26.6115 24.17 27.0378C25.7495 27.9487 28.3206 27.9487 29.9 27.0378C30.6365 26.6115 31.0435 26.0527 31.0435 25.468V23.2135H23.0266Z" fill="#171753"/>
<path d="M27.035 25.4684C29.3291 25.4684 31.1888 24.3939 31.1888 23.0685C31.1888 21.743 29.3291 20.6686 27.035 20.6686C24.7409 20.6686 22.8812 21.743 22.8812 23.0685C22.8812 24.3939 24.7409 25.4684 27.035 25.4684Z" fill="#FFC78F"/>
<path d="M27.035 25.6139C25.9013 25.6139 24.8322 25.3588 24.0247 24.8904C23.1946 24.4091 22.7359 23.7631 22.7359 23.0687C22.7359 22.3742 23.1946 21.7282 24.0247 21.247C24.8322 20.7818 25.9013 20.5234 27.035 20.5234C28.1688 20.5234 29.2379 20.7786 30.0454 21.247C30.8755 21.7282 31.3342 22.3742 31.3342 23.0687C31.3342 23.7631 30.8755 24.4091 30.0454 24.8904C29.2379 25.3555 28.1688 25.6139 27.035 25.6139ZM27.035 20.8141C25.9982 20.8141 24.9614 21.0435 24.17 21.4989C23.4336 21.9253 23.0266 22.4841 23.0266 23.0687C23.0266 23.6533 23.4336 24.2121 24.17 24.6385C25.7495 25.5493 28.3206 25.5493 29.9001 24.6385C30.6365 24.2121 31.0435 23.6533 31.0435 23.0687C31.0435 22.4808 30.6365 21.9253 29.9001 21.4989C29.1087 21.0435 28.0719 20.8141 27.035 20.8141Z" fill="#171753"/>
<path d="M24.8515 23.8077C24.816 23.8077 24.7805 23.7948 24.7514 23.7689C24.7159 23.7366 24.6997 23.6882 24.7062 23.643L24.8774 22.4866C24.8903 22.4059 24.9613 22.351 25.0421 22.3639C25.1228 22.3768 25.1777 22.4511 25.1648 22.5286L25.0227 23.4782L28.9988 22.6417C29.0764 22.6255 29.1539 22.674 29.17 22.7547C29.1862 22.8322 29.1377 22.9098 29.057 22.9259L24.8806 23.8045C24.8709 23.8045 24.8612 23.8077 24.8515 23.8077Z" fill="#171753"/>
<path d="M41.1889 31.3437V28.9438H32.8781V31.3437C32.8781 31.9574 33.2851 32.5712 34.0958 33.0395C35.7173 33.9762 38.3497 33.9762 39.9712 33.0395C40.7819 32.5712 41.1889 31.9574 41.1889 31.3437Z" fill="#171753"/>
<path d="M37.0351 33.8888C35.9014 33.8888 34.8323 33.6336 34.0248 33.1653C33.1947 32.684 32.736 32.038 32.736 31.3435V28.9436C32.736 28.8629 32.8006 28.7983 32.8813 28.7983H41.1922C41.2729 28.7983 41.3375 28.8629 41.3375 28.9436V31.3435C41.3375 32.038 40.8788 32.684 40.0487 33.1653C39.238 33.6304 38.1689 33.8888 37.0351 33.8888ZM33.0235 29.089V31.3435C33.0235 31.9314 33.4304 32.487 34.1669 32.9133C35.7464 33.8242 38.3174 33.8242 39.8969 32.9133C40.6334 32.487 41.0403 31.9282 41.0403 31.3435V29.089H33.0235Z" fill="#272245"/>
<path d="M37.0351 31.3437C39.3292 31.3437 41.1889 30.2692 41.1889 28.9438C41.1889 27.6184 39.3292 26.5439 37.0351 26.5439C34.741 26.5439 32.8813 27.6184 32.8813 28.9438C32.8813 30.2692 34.741 31.3437 37.0351 31.3437Z" fill="#FFC78F"/>
<path d="M37.0351 31.4888C35.9014 31.4888 34.8323 31.2336 34.0248 30.7652C33.1947 30.284 32.736 29.638 32.736 28.9435C32.736 28.249 33.1947 27.603 34.0248 27.1218C34.8323 26.6567 35.9014 26.3983 37.0351 26.3983C38.1689 26.3983 39.238 26.6534 40.0455 27.1218C40.8756 27.603 41.3343 28.249 41.3343 28.9435C41.3343 29.638 40.8756 30.284 40.0455 30.7652C39.238 31.2336 38.1689 31.4888 37.0351 31.4888ZM37.0351 26.689C35.9983 26.689 34.9615 26.9183 34.1701 27.3737C33.4337 27.8001 33.0267 28.3589 33.0267 28.9435C33.0267 29.5314 33.4337 30.0869 34.1701 30.5133C35.7496 31.4241 38.3207 31.4241 39.9002 30.5133L39.9712 30.6393L39.9002 30.5133C40.6366 30.0869 41.0436 29.5281 41.0436 28.9435C41.0436 28.3556 40.6366 27.8001 39.9002 27.3737C39.1088 26.9183 38.072 26.689 37.0351 26.689Z" fill="#272245"/>
<path d="M37.0351 30.5457C36.9544 30.5457 36.8898 30.4811 36.8898 30.4004V27.5192C36.8898 27.4384 36.9544 27.3738 37.0351 27.3738C37.1159 27.3738 37.1805 27.4384 37.1805 27.5192V30.4004C37.1805 30.4811 37.1159 30.5457 37.0351 30.5457Z" fill="#272245"/>
<path d="M39.5287 29.1055H34.5383C34.4576 29.1055 34.393 29.0409 34.393 28.9601C34.393 28.8794 34.4576 28.8148 34.5383 28.8148H39.5287C39.6094 28.8148 39.674 28.8794 39.674 28.9601C39.674 29.0409 39.6094 29.1055 39.5287 29.1055Z" fill="#272245"/>
</svg>
