<svg width="51" height="53" viewBox="0 0 51 53" fill="none" xmlns="http://www.w3.org/2000/svg">
<path d="M49.6442 21.7557L13.963 1.16736C13.5648 0.928426 13.1267 0.928426 12.7285 1.04789L11.4143 1.52577L11.7727 2.24258L2.65333 28.1672C2.37457 28.9238 2.69315 29.7203 3.37014 30.1185L38.6133 50.468L39.4496 51.7423L40.923 51.2246C41.3611 51.1051 41.7195 50.7467 41.8788 50.3087L50.7592 24.8221C51.1973 23.6672 50.7194 22.3929 49.6442 21.7557Z" fill="#ECFFFE"/>
<path d="M39.4893 51.8218C39.4495 51.8218 39.4495 51.8218 39.4495 51.782L38.6132 50.5076L3.37007 30.198C2.65326 29.7998 2.33468 28.9237 2.61344 28.1671L11.6532 2.24243L11.3346 1.52562V1.4858L11.3745 1.44598L12.6886 0.968105L12.7284 1.00793H12.6886C13.1267 0.848637 13.6045 0.88846 14.0028 1.1274L49.684 21.7556C50.799 22.3928 51.2769 23.7069 50.8388 24.9016L41.9583 50.3882C41.7991 50.8661 41.4407 51.2245 40.9628 51.3439L39.4893 51.8218ZM11.4541 1.56545L11.7727 2.24243V2.28226L2.73291 28.2069C2.49397 28.9237 2.77273 29.7202 3.44972 30.0786L38.6929 50.428C38.6929 50.428 38.6929 50.428 38.7327 50.4678L39.569 51.7023L41.0026 51.2245C41.4407 51.105 41.7592 50.7466 41.9185 50.3484L50.799 24.8618C51.1972 23.7069 50.7194 22.4724 49.684 21.8751L13.9231 1.20704C13.5647 1.00793 13.1267 0.968105 12.7284 1.08757L11.4541 1.56545Z" fill="#171753"/>
<path d="M50.9585 24.0654L49.6045 24.5433L47.9319 24.6229L37.9762 49.3131L38.0559 50.1494L38.6532 50.5078L39.4895 51.7821L40.963 51.2644C41.401 51.1449 41.7594 50.7865 41.9187 50.3485L50.7992 24.8619C50.8788 24.5831 50.9186 24.3442 50.9585 24.0654Z" fill="#171753"/>
<path d="M39.4894 51.8219C39.4496 51.8219 39.4496 51.8219 39.4496 51.7821L38.6133 50.5077L38.016 50.1892L37.9762 50.1493L37.8965 49.3131V49.2732L47.8522 24.5831C47.8522 24.5433 47.892 24.5433 47.892 24.5433L49.5646 24.4637L50.9186 23.9858C50.9584 23.9858 50.9584 23.9858 50.9584 23.9858L50.9982 24.0256C50.9982 24.3044 50.9584 24.5831 50.8389 24.8221L41.9584 50.3086C41.7991 50.7865 41.4407 51.1449 40.9629 51.2644L39.4894 51.8219ZM38.0956 50.1095L38.6531 50.4281C38.6531 50.4281 38.6531 50.4281 38.693 50.4679L39.5292 51.7024L40.9629 51.2246C41.4009 51.1051 41.7195 50.7467 41.8788 50.3485L50.7593 24.8619C50.8389 24.6628 50.8787 24.4238 50.8787 24.1849L49.6044 24.6229L47.9717 24.7026L38.016 49.3529L38.0956 50.1095Z" fill="#171753"/>
<path d="M14.3214 1.36648L13.963 1.16736C13.5648 0.928426 13.1267 0.928426 12.7285 1.04789L11.3745 1.52577L11.7329 2.24258L11.6931 2.36205L14.3214 1.36648Z" fill="#171753"/>
<path d="M11.6532 2.44158H11.6134C11.6134 2.44158 11.5736 2.40175 11.6134 2.36193L11.6532 2.24246L11.3347 1.52565V1.48583L11.3745 1.44601L12.7285 0.968133C13.1665 0.808842 13.6444 0.848665 14.0426 1.0876L14.401 1.28672C14.4408 1.28672 14.4408 1.32654 14.4408 1.36636C14.4408 1.40618 14.4408 1.40618 14.401 1.40618L11.6532 2.44158C11.6931 2.44158 11.6532 2.44158 11.6532 2.44158ZM11.4541 1.56548L11.7727 2.24246V2.28228L14.2019 1.36636L13.963 1.20707C13.6046 1.00796 13.1665 0.968133 12.7683 1.0876L11.4541 1.56548Z" fill="#171753"/>
<path d="M38.255 51.6623L1.89681 30.6757C1.21982 30.2775 0.901239 29.4412 1.18 28.7244L10.2994 2.48117C10.618 1.60507 11.6534 1.20684 12.4498 1.68472L48.808 22.6713C49.485 23.0696 49.8036 23.9058 49.5249 24.6226L40.4054 50.826C40.1267 51.742 39.0913 52.1402 38.255 51.6623Z" fill="#FFC78F"/>
<path d="M38.1401 51.8322L38.14 51.8325L38.148 51.8365C38.4036 51.9643 38.7052 52.0514 39.0116 52.0514H39.0258C39.2117 52.0515 39.3998 52.0516 39.5884 51.9599C40.0703 51.7818 40.415 51.3878 40.5862 50.9173L40.5868 50.9154L49.7053 24.7145C49.7055 24.7141 49.7057 24.7136 49.7058 24.7131C50.009 23.8881 49.6624 22.9355 48.8819 22.5012C48.8816 22.501 48.8812 22.5008 48.8808 22.5006L12.5269 1.51647C12.5265 1.51625 12.5262 1.51602 12.5258 1.5158C12.0877 1.25339 11.563 1.21062 11.0843 1.38466C10.5983 1.56139 10.2507 1.95706 10.0787 2.43011L10.078 2.43207L0.959504 28.6329C0.959343 28.6333 0.959182 28.6338 0.959022 28.6342C0.655784 29.4593 1.00243 30.4119 1.78298 30.8463C1.78333 30.8465 1.78369 30.8467 1.78404 30.8469L38.1401 51.8322ZM1.10023 28.6848L1.10026 28.6848L1.10023 28.6848ZM1.36169 28.773C1.3618 28.7727 1.36192 28.7724 1.36203 28.772L10.5206 2.5308L10.5207 2.53085L10.5226 2.52448C10.6261 2.17973 10.9029 1.89577 11.2586 1.74957C11.2906 1.74313 11.3209 1.73687 11.3498 1.73091C11.5037 1.69915 11.6177 1.67563 11.7329 1.67563C11.9379 1.67563 12.1514 1.74373 12.3786 1.85687L48.6531 22.8809L48.653 22.881L48.6581 22.8837C49.2646 23.2048 49.5203 23.9215 49.3031 24.5745C49.303 24.5748 49.3029 24.5751 49.3028 24.5754L40.184 50.7769L40.1839 50.7769L40.182 50.7831C40.078 51.1299 39.7986 51.4151 39.4399 51.5606C39.0803 51.6666 38.6876 51.6291 38.3686 51.4523C38.3682 51.4521 38.3679 51.4519 38.3676 51.4517L2.01152 30.4663L2.01157 30.4663L2.00672 30.4637C1.40031 30.1427 1.14453 29.426 1.36169 28.773ZM49.5646 24.6627L49.5646 24.6627L49.5646 24.6627Z" fill="#171753" stroke="#171753" stroke-width="0.3"/>
<path d="M24.5161 14.9062C21.4896 10.1275 16.0737 9.05228 12.4896 12.5169C8.86574 15.9416 8.38786 22.592 11.4542 27.3309C14.5206 32.0698 19.8966 33.1451 23.5205 29.7203C27.1046 26.2955 27.5426 19.6451 24.5161 14.9062ZM14.2816 24.623C12.5693 21.9549 12.848 18.2115 14.879 16.2602C16.9099 14.3089 19.9365 14.946 21.6488 17.6142C23.3612 20.2823 23.0825 24.0256 21.0515 25.977C19.0205 27.8885 15.994 27.2911 14.2816 24.623Z" fill="#171753"/>
<path d="M18.6223 31.791C18.3435 31.791 18.0647 31.791 17.786 31.7512C15.317 31.4326 13.0072 29.8397 11.4143 27.3707C8.34798 22.592 8.82585 15.9018 12.4497 12.477C14.0825 10.9637 16.1134 10.2469 18.224 10.4859C20.693 10.8044 23.0028 12.3973 24.5957 14.8664C27.662 19.6451 27.1842 26.3353 23.5603 29.7601C22.1267 31.0742 20.4143 31.791 18.6223 31.791ZM17.3479 10.5655C15.5957 10.5655 13.8833 11.2425 12.5294 12.5566C8.94532 15.9814 8.46744 22.592 11.494 27.2911C13.0471 29.7203 15.3568 31.3132 17.786 31.5919C19.8568 31.8309 21.8479 31.1539 23.4408 29.6406C27.0249 26.2158 27.5027 19.6053 24.4762 14.9062C22.9231 12.477 20.6134 10.8841 18.1842 10.6053C17.9054 10.5655 17.6267 10.5655 17.3479 10.5655ZM18.3435 27.1318C18.1842 27.1318 18.0249 27.1318 17.8656 27.092C16.4718 26.9327 15.1577 26.0167 14.2417 24.6229C12.5294 21.915 12.7683 18.1318 14.8391 16.1805C15.755 15.3044 16.9099 14.9062 18.1046 15.0655C19.4984 15.2248 20.8125 16.1407 21.7284 17.5345C23.4408 20.2424 23.2019 24.0256 21.1311 25.9769C20.3346 26.7335 19.3391 27.1318 18.3435 27.1318ZM14.3612 24.5831C15.2373 25.9371 16.5116 26.853 17.8656 27.0123C19.0205 27.1716 20.1355 26.7734 21.0116 25.9371C23.0028 24.0256 23.2815 20.3221 21.609 17.6938C20.7329 16.3398 19.4585 15.4239 18.1046 15.2646C16.9497 15.1053 15.8347 15.5035 14.9586 16.3398C12.9276 18.2115 12.6488 21.915 14.3612 24.5831Z" fill="#171753"/>
<path d="M24.1975 14.4681C22.2462 11.4416 19.3391 9.88853 16.5515 10.0876L15.1577 10.2071C18.025 9.92835 21.0117 11.4416 23.0028 14.5876C26.0293 19.3265 25.5913 25.9769 21.9674 29.4017C20.7329 30.5566 19.3391 31.1937 17.8657 31.353L19.1002 31.2335C20.5338 31.0742 21.9276 30.3973 23.1621 29.2822C26.7461 25.8575 27.224 19.2071 24.1975 14.4681Z" fill="#ECFFFE"/>
<path d="M17.8656 31.4326C17.8258 31.4326 17.786 31.3927 17.786 31.3927C17.786 31.3529 17.8258 31.3131 17.8258 31.3131C19.3391 31.1538 20.7329 30.4768 21.8877 29.3618C25.4718 25.937 25.9497 19.3264 22.9231 14.6273C21.0515 11.6008 18.1444 9.96807 15.1975 10.2867C15.1577 10.2867 15.1179 10.2468 15.1179 10.2468C15.1179 10.207 15.1577 10.1672 15.1577 10.1672L16.5515 10.0477C19.4585 9.8486 22.3656 11.5212 24.2373 14.468C27.3036 19.2468 26.8258 25.937 23.2019 29.3618C22.047 30.4768 20.6532 31.1538 19.14 31.3529L17.8656 31.4326ZM16.5117 10.1274C19.0205 10.3663 21.4099 11.9194 23.0824 14.5079C26.1488 19.2866 25.6709 25.9768 22.047 29.4016C21.2107 30.198 20.2152 30.7954 19.14 31.114C20.6134 30.9149 21.9674 30.2379 23.1222 29.1627C26.7063 25.7379 27.1842 19.1273 24.1576 14.4282C22.286 11.561 19.4585 9.92825 16.5515 10.1274H16.5117Z" fill="#171753"/>
<path d="M16.3523 14.8267C15.3169 14.7868 14.2815 15.1452 13.4054 15.9417C12.4098 16.8576 11.8523 18.2116 11.7328 19.685L12.8877 19.4461C13.047 18.0523 13.6045 16.7381 14.5603 15.8222C15.1178 15.3443 15.7151 15.0258 16.3523 14.8267Z" fill="#ECFFFE"/>
<path d="M15.1576 10.2869C15.1178 10.2869 15.1178 10.2471 15.078 10.2471C15.078 10.2072 15.078 10.1674 15.1178 10.1674C15.1178 10.1674 15.1178 10.1674 15.1576 10.1674C15.1974 10.1674 15.2373 10.2072 15.2373 10.2072C15.2373 10.2471 15.1974 10.2869 15.1576 10.2869Z" fill="#171753"/>
<path d="M17.8656 31.3531L19.1001 31.2336C20.5337 31.0743 21.9275 30.3973 23.162 29.2823C24.3567 28.1673 25.193 26.6938 25.6708 25.0611L24.4762 25.3C23.9585 26.8929 23.162 28.3266 21.9673 29.4018C20.7726 30.5566 19.339 31.1938 17.8656 31.3531Z" fill="#171753"/>
<path d="M10.0674 26.9316L10.0669 26.9308C7.03268 22.2416 7.51712 15.6738 11.0794 12.3073C12.856 10.6283 15.0667 10.0551 17.2044 10.4787C19.3442 10.9028 21.4219 12.3285 22.9163 14.6684C25.9112 19.3579 25.4269 25.9263 21.9039 29.293C20.1273 30.9717 17.9168 31.5449 15.7793 31.1213C13.6394 30.6972 11.5617 29.2714 10.0674 26.9316ZM19.6809 25.7676L19.682 25.7665C21.7728 23.7577 22.0463 19.9329 20.3017 17.2146C19.427 15.8517 18.2099 14.9974 16.9398 14.7393C15.667 14.4806 14.3526 14.8236 13.3016 15.8334C11.2108 17.8423 10.9374 21.6671 12.682 24.3854C13.557 25.7487 14.7744 26.5929 16.0444 26.8458C17.3166 27.0992 18.6301 26.7565 19.6809 25.7676L19.6809 25.7676Z" fill="#FFA54B" stroke="#171753" stroke-width="0.3"/>
<path d="M23.0029 14.5477C21.4498 12.1185 19.2994 10.6848 17.0693 10.2866L14.0826 11.0034C16.3127 11.4017 18.4631 12.8751 20.0162 15.3043C20.6135 16.26 21.0914 17.2556 21.41 18.3308L24.3967 17.614C24.0781 16.5388 23.64 15.5034 23.0029 14.5477Z" fill="#ECFFFE"/>
<path d="M21.4498 18.3709C21.4099 18.3709 21.4099 18.3709 21.3701 18.331C21.0515 17.2558 20.5737 16.2204 19.9763 15.3045C18.5029 12.955 16.3923 11.4417 14.0825 11.0435C14.0427 11.0435 14.0427 11.0036 14.0427 10.9638C14.0427 10.924 14.0427 10.924 14.0825 10.8842L17.0693 10.1674C17.0693 10.1674 17.0693 10.1674 17.1091 10.1674C19.4586 10.6054 21.5692 12.1187 23.0825 14.4682C23.6798 15.3841 24.1577 16.4195 24.4763 17.4948V17.5346L24.4365 17.5744L21.4498 18.3709ZM14.4011 10.9638C16.6312 11.4417 18.6622 12.955 20.0958 15.2249C20.6931 16.1408 21.1312 17.1363 21.4896 18.2116L24.317 17.5346C23.9984 16.4594 23.5205 15.5036 22.963 14.5877C21.4896 12.278 19.379 10.7647 17.0693 10.3267L14.4011 10.9638Z" fill="#171753"/>
<path d="M17.3139 17.9298C16.4476 16.5531 15.2344 15.7392 14.0012 15.4629L14.2617 11.1828C16.3862 11.613 18.4343 13.0082 19.9289 15.3843C20.496 16.2917 20.9529 17.2329 21.2663 18.2431L18.0763 19.5265C17.8856 18.9749 17.6526 18.4198 17.3139 17.9298Z" fill="#FFA54B" stroke="#171753" stroke-width="0.3"/>
<path d="M17.9852 19.6849L20.9321 18.9681L24.4365 17.5743L21.4497 18.2911L17.9852 19.6849Z" fill="#171753"/>
<path d="M17.9851 19.7646C17.9453 19.7646 17.9452 19.7646 17.9054 19.7247C17.9054 19.6849 17.9054 19.6451 17.9452 19.6451L21.4098 18.2513L24.3965 17.5345C24.4364 17.5345 24.4762 17.5345 24.4762 17.5743C24.4762 17.6141 24.4762 17.654 24.4364 17.654L20.9718 19.0478L17.9851 19.7646ZM23.6001 17.8531L21.4497 18.3708L18.7815 19.446L20.8921 18.9283L23.6001 17.8531Z" fill="#171753"/>
<path d="M21.4497 18.2912L24.4364 17.5744C24.317 17.1364 24.3568 17.1364 24.1577 16.6983L21.171 17.4151C21.3303 17.8133 21.3302 17.893 21.4497 18.2912Z" fill="#171753"/>
<path d="M24.4366 17.614L22.087 18.1715C22.764 20.2821 22.8437 22.552 22.4454 24.6228L24.795 24.0652C25.1932 21.9945 25.0737 19.7246 24.4366 17.614Z" fill="#ECFFFE"/>
<path d="M22.4055 24.6626H22.3657C22.3657 24.6626 22.3259 24.6227 22.3657 24.6227C22.7639 22.5121 22.6445 20.3219 22.0073 18.2113V18.1714L22.0471 18.1316L24.3967 17.5741C24.4365 17.5741 24.4763 17.5741 24.4763 17.6139C25.1533 19.7245 25.2728 21.9546 24.8347 24.105C24.8347 24.1449 24.7949 24.1449 24.7949 24.1449L22.4055 24.6626C22.4453 24.6626 22.4453 24.6626 22.4055 24.6626ZM22.1268 18.2113C22.7639 20.282 22.8834 22.4723 22.4852 24.5033L24.7152 23.9856C25.1135 21.9148 24.994 19.7245 24.3568 17.6537L22.1268 18.2113Z" fill="#171753"/>
<path d="M18.9529 23.0955C19.159 21.99 19.0844 20.7888 18.7645 19.6537L21.9525 18.3711C22.5608 20.3544 22.6743 22.4705 22.2942 24.4173L18.9529 23.0955Z" fill="#FFA54B" stroke="#171753" stroke-width="0.3"/>
<path d="M22.6046 23.2689C22.5648 23.7468 22.525 24.1848 22.4055 24.6229L24.7551 24.0653C24.8347 23.6273 24.9144 23.1494 24.9542 22.7114L22.6046 23.2689Z" fill="#171753"/>
<path d="M22.963 25.5788C22.8436 25.9372 22.6046 26.6938 22.4453 27.0124L23.9188 26.6938L23.9586 26.654C24.1179 26.3354 24.3568 25.6186 24.4763 25.2602L22.963 25.5788Z" fill="#171753"/>
<path d="M22.4055 27.1318C22.4055 27.1318 22.3657 27.1318 22.3657 27.092C22.3657 27.092 22.3657 27.0521 22.3657 27.0123C22.7639 26.2159 23.0426 25.3398 23.2418 24.384C23.2418 24.3442 23.2816 24.3442 23.2816 24.3442L24.7949 23.9858C24.8347 23.9858 24.8347 23.9858 24.8745 23.9858C24.8745 23.9858 24.9143 24.0256 24.8745 24.0654C24.6754 24.9813 24.3966 25.8973 23.9984 26.6937L23.9586 26.7335C23.9586 26.7335 23.9586 26.7335 23.9187 26.7335L22.4055 27.1318ZM23.3214 24.4637C23.1223 25.3398 22.8834 26.176 22.525 26.9725L23.8789 26.6937L23.9187 26.6539C24.2772 25.8574 24.5559 25.0212 24.755 24.1451L23.3214 24.4637Z" fill="#171753"/>
<path d="M22.3905 24.7627L22.4343 24.7798L22.48 24.7689L23.0822 24.6255C22.904 25.3856 22.6676 26.1156 22.3496 26.8165L19.3198 24.4148C19.3409 24.362 19.3631 24.3078 19.3859 24.2525C19.461 24.0699 19.5415 23.8745 19.6012 23.6696L22.3905 24.7627Z" fill="#ECFFFE" stroke="#171753" stroke-width="0.3"/>
<path d="M22.6445 27.6494L19.7773 25.3795C19.7375 25.4592 19.7375 25.4592 19.6976 25.499L22.3658 28.9636C22.6445 28.6052 23.2419 27.9282 23.441 27.4901L22.6445 27.6494Z" fill="#171753"/>
<path d="M22.4056 29.0435C22.3658 29.0435 22.3658 29.0435 22.3658 29.0037L19.6976 25.5391C19.6976 25.4993 19.6976 25.4993 19.6976 25.4594C19.7375 25.4196 19.7375 25.4196 19.7375 25.3798C19.7375 25.3798 19.7375 25.34 19.7773 25.3001L19.8171 25.2603H19.8569L22.6843 27.4904L23.4808 27.3709C23.5206 27.3709 23.5206 27.3709 23.5604 27.4107C23.5604 27.4107 23.5604 27.4506 23.5604 27.4904C23.4012 27.809 23.0427 28.2868 22.764 28.6453C22.6843 28.7647 22.5649 28.8842 22.525 28.9638C22.4454 29.0435 22.4056 29.0435 22.4056 29.0435ZM19.8171 25.5391L22.4056 28.924C22.4852 28.8444 22.5251 28.7647 22.6047 28.6453C22.8436 28.3267 23.1622 27.9284 23.3613 27.6497L22.6445 27.7293H22.6047L19.8171 25.5391C19.8171 25.4993 19.8171 25.4993 19.8171 25.5391Z" fill="#171753"/>
<path d="M23.8391 26.7338L23.0426 26.8931C22.8435 27.3312 22.6046 27.7294 22.3656 28.0878L23.2019 27.9285C23.4408 27.5701 23.6798 27.1719 23.8391 26.7338Z" fill="#FFA54B"/>
<path d="M23.8393 26.7339L23.0428 26.8932C22.8437 27.3312 22.6048 27.7295 22.3658 28.0879L23.2021 27.9286C23.441 27.5702 23.68 27.1719 23.8393 26.7339Z" fill="#171753"/>
<path d="M22.3259 28.1673C22.2861 28.1673 22.2861 28.1673 22.2861 28.1274C22.2861 28.0876 22.2861 28.0876 22.2861 28.0478C22.525 27.6894 22.764 27.2513 22.9631 26.8531L23.0029 26.8133L23.7994 26.654H23.8392C23.879 26.654 23.879 26.654 23.9188 26.6938C23.9188 26.6938 23.9188 26.7336 23.9188 26.7735C23.7197 27.2115 23.4808 27.6496 23.202 28.008L23.1622 28.0478L22.3259 28.1673C22.3657 28.1673 22.3259 28.1673 22.3259 28.1673ZM23.0826 26.9726C22.8834 27.331 22.6843 27.6894 22.4852 28.0478L23.1622 27.9283C23.4011 27.5699 23.6003 27.2115 23.7994 26.8531L23.0826 26.9726Z" fill="#171753"/>
<path d="M22.3656 27.0524L19.4984 24.7825C19.4586 24.8621 19.4188 24.9019 19.3789 24.9816L22.3258 28.1276C22.5648 27.7294 22.8037 27.3311 23.0028 26.9329L22.3656 27.0524Z" fill="#FFA54B"/>
<path d="M22.3259 28.1673C22.3259 28.1673 22.286 28.1673 22.286 28.1275L19.3392 24.9815C19.2993 24.9417 19.2993 24.9417 19.3392 24.9019C19.379 24.862 19.379 24.8222 19.4188 24.7824L19.4586 24.7426L19.4985 24.7028H19.5383L22.3657 26.9328L23.0029 26.8134C23.0427 26.8134 23.0427 26.8134 23.0825 26.8532C23.0825 26.8532 23.0825 26.893 23.0825 26.9328C22.8834 27.3709 22.6445 27.7691 22.3657 28.1673C22.3657 28.1673 22.3657 28.1673 22.3259 28.1673C22.3657 28.1673 22.3259 28.1673 22.3259 28.1673ZM19.4985 24.9815L22.3657 28.0081C22.5648 27.6895 22.7639 27.3311 22.963 26.9727L22.4453 27.0921H22.4055L19.6179 24.9019C19.5383 24.9417 19.4985 24.9417 19.4985 24.9815Z" fill="#171753"/>
<path d="M22.4054 29.0036H22.3656C22.3257 28.9638 22.3257 28.9239 22.3656 28.9239C22.5249 28.7646 22.6443 28.5655 22.8036 28.3664C22.8434 28.3266 22.8833 28.3266 22.8833 28.3664C22.9231 28.4062 22.9231 28.4461 22.8833 28.4461C22.724 28.6452 22.6045 28.8045 22.4452 29.0036C22.4452 29.0036 22.4452 29.0036 22.4054 29.0036Z" fill="#FFA54B"/>
<path d="M23.0825 28.1273C23.0427 28.0874 23.0427 28.0476 23.0427 28.0476C23.9984 26.6936 24.3568 25.4193 24.3568 25.3795C24.3568 25.3397 24.3967 25.3397 24.4365 25.3397C24.4763 25.3397 24.4763 25.3795 24.4763 25.4193C24.4763 25.4193 24.0781 26.7335 23.1223 28.1273C23.1223 28.1273 23.1223 28.1273 23.0825 28.1273Z" fill="#FFA54B"/>
<path d="M37.5378 44.2158L26.6662 37.9238C26.268 37.6849 26.1087 37.2469 26.268 36.8088L32.2015 19.685C32.321 19.3664 32.6794 19.247 32.9582 19.4062L44.3873 26.0168C44.7855 26.2558 44.9448 26.6938 44.7855 27.1319L39.0909 43.6185C38.852 44.2557 38.0953 44.5344 37.5378 44.2158Z" fill="#171753"/>
<path d="M38.0556 44.4151C37.8565 44.4151 37.6574 44.3752 37.4981 44.2558L26.6265 37.9638C26.2282 37.7248 26.0291 37.2071 26.1884 36.7691L32.122 19.6453C32.1618 19.486 32.3211 19.3665 32.4804 19.2869C32.6397 19.2072 32.8388 19.2471 32.9981 19.3267L44.4272 25.9373C44.8255 26.1762 45.0246 26.6939 44.8653 27.132L39.1706 43.6186C39.0512 43.9372 38.8122 44.1761 38.4937 44.2956C38.3344 44.3752 38.1751 44.4151 38.0556 44.4151ZM37.5379 44.1363C37.8167 44.2956 38.0954 44.2956 38.3742 44.2159C38.6529 44.0965 38.8919 43.8974 38.9715 43.6186L44.6662 27.132C44.7857 26.7337 44.6264 26.2957 44.268 26.0966L32.8388 19.486C32.7193 19.4064 32.5601 19.4064 32.4406 19.4462C32.3211 19.486 32.2017 19.6055 32.1618 19.7249L26.2282 36.8487C26.1088 37.247 26.2681 37.685 26.6265 37.8841L37.5379 44.1363Z" fill="#171753"/>
<path d="M44.1486 24.7027L32.8788 18.1718C32.7593 18.0921 32.4805 18.132 32.4805 18.132L31.6044 18.4904C31.7239 18.4505 31.8832 18.4505 32.0027 18.5302L43.4318 25.1408C43.83 25.3797 43.9893 25.8178 43.83 26.2558L37.8964 43.3796C37.8566 43.5389 37.7371 43.6185 37.5778 43.6982L38.4938 43.3398C38.6132 43.3 38.7327 43.1805 38.7725 43.061L44.6663 26.0567C44.8654 25.539 44.6265 24.9815 44.1486 24.7027Z" fill="#ECFFFE"/>
<path d="M37.6176 43.738C37.5778 43.738 37.5778 43.738 37.5778 43.6982V43.6584C37.5778 43.6584 37.5778 43.6185 37.6176 43.6185C37.7371 43.5787 37.8167 43.4592 37.8964 43.3398L43.83 26.216C43.9494 25.8178 43.7902 25.3797 43.4317 25.1806L32.0026 18.57C31.8831 18.4904 31.7637 18.4904 31.6442 18.5302C31.6044 18.5302 31.5646 18.5302 31.5646 18.4904V18.4505C31.5646 18.4505 31.5646 18.4107 31.6044 18.4107L32.4805 18.0523C32.5203 18.0523 32.7991 18.0125 32.9185 18.0921L44.1884 24.6231C44.7061 24.9018 44.9052 25.539 44.7459 26.0965L38.892 43.0212C38.8521 43.1805 38.7327 43.3 38.6132 43.3398L37.6176 43.738C37.6574 43.738 37.6176 43.738 37.6176 43.738ZM31.923 18.3709C31.9628 18.3709 32.0026 18.4107 32.0424 18.4107L43.4716 25.0213C43.8698 25.2602 44.0689 25.7779 43.9096 26.216L37.976 43.3398C37.976 43.3796 37.9362 43.4194 37.9362 43.4194L38.4937 43.1805C38.6132 43.1407 38.6928 43.0212 38.7327 42.9017L44.6264 26.0567C44.7857 25.5788 44.5866 25.0213 44.1486 24.7425L32.8787 18.2116C32.7991 18.1718 32.6 18.1718 32.5203 18.1718L31.923 18.3709Z" fill="#171753"/>
<path d="M25.4931 35.9442L25.4939 35.9421L31.4268 18.8202C31.514 18.5905 31.7687 18.507 31.9676 18.6205C31.9677 18.6205 31.9678 18.6206 31.9679 18.6207L43.3943 25.2296C43.3947 25.2298 43.395 25.23 43.3953 25.2302C43.7321 25.4328 43.863 25.7955 43.7287 26.1648L43.728 26.1669L37.7951 43.2888C37.7079 43.5185 37.4532 43.602 37.2543 43.4886C37.2542 43.4885 37.254 43.4884 37.2539 43.4884L25.8275 36.8794C25.8272 36.8792 25.8269 36.879 25.8266 36.8788C25.4898 36.6762 25.3588 36.3135 25.4931 35.9442Z" fill="#FFA54B" stroke="#171753" stroke-width="0.3"/>
<ellipse cx="0.220333" cy="0.22077" rx="0.220333" ry="0.22077" transform="matrix(0.866025 0.5 -0.324743 0.945802 28.6247 30.4391)" fill="#171753"/>
<ellipse cx="0.220333" cy="0.22077" rx="0.220333" ry="0.22077" transform="matrix(0.866025 0.5 -0.324743 0.945802 28.3377 31.2745)" fill="#171753"/>
<ellipse cx="0.220333" cy="0.22077" rx="0.220333" ry="0.22077" transform="matrix(0.866025 0.5 -0.324743 0.945802 28.0509 32.1096)" fill="#171753"/>
<ellipse cx="0.220333" cy="0.22077" rx="0.220333" ry="0.22077" transform="matrix(0.866025 0.5 -0.324743 0.945802 27.7642 32.945)" fill="#171753"/>
<ellipse cx="0.220333" cy="0.22077" rx="0.220333" ry="0.22077" transform="matrix(0.866025 0.5 -0.324743 0.945802 27.4774 33.7801)" fill="#171753"/>
<ellipse cx="0.220333" cy="0.22077" rx="0.220333" ry="0.22077" transform="matrix(0.866025 0.5 -0.324743 0.945802 27.1906 34.6154)" fill="#171753"/>
<ellipse cx="0.220333" cy="0.22077" rx="0.220333" ry="0.22077" transform="matrix(0.866025 0.5 -0.324743 0.945802 26.9038 35.4504)" fill="#171753"/>
<rect width="3.39327" height="0.30909" rx="0.154545" transform="matrix(0.866025 0.5 -0.324743 0.945802 29.2591 30.8555)" fill="#171753"/>
<rect width="3.39327" height="0.30909" rx="0.154545" transform="matrix(0.866025 0.5 -0.324743 0.945802 32.4647 32.7062)" fill="#171753"/>
<rect width="3.39327" height="0.30909" rx="0.154545" transform="matrix(0.866025 0.5 -0.324743 0.945802 35.6706 34.5572)" fill="#171753"/>
<rect width="2.3797" height="0.30909" rx="0.154545" transform="matrix(0.866025 0.5 -0.324743 0.945802 28.9722 31.6908)" fill="#171753"/>
<rect width="5.68483" height="0.30909" rx="0.154545" transform="matrix(0.866025 0.5 -0.324743 0.945802 31.5675 33.189)" fill="#171753"/>
<rect width="5.58348" height="0.30909" rx="0.154545" transform="matrix(0.866025 0.5 -0.324743 0.945802 28.6854 32.5261)" fill="#171753"/>
<rect width="5.58348" height="0.30909" rx="0.154545" transform="matrix(0.866025 0.5 -0.324743 0.945802 28.3986 33.3611)" fill="#171753"/>
<rect width="2.3797" height="0.30909" rx="0.154545" transform="matrix(0.866025 0.5 -0.324743 0.945802 28.1118 34.1964)" fill="#171753"/>
<rect width="5.68483" height="0.30909" rx="0.154545" transform="matrix(0.866025 0.5 -0.324743 0.945802 30.707 35.6948)" fill="#171753"/>
<rect width="5.58348" height="0.30909" rx="0.154545" transform="matrix(0.866025 0.5 -0.324743 0.945802 27.8251 35.0317)" fill="#171753"/>
<rect width="3.39327" height="0.30909" rx="0.154545" transform="matrix(0.866025 0.5 -0.324743 0.945802 27.5383 35.8669)" fill="#171753"/>
<rect width="3.39327" height="0.30909" rx="0.154545" transform="matrix(0.866025 0.5 -0.324743 0.945802 30.7441 37.7178)" fill="#171753"/>
<rect width="3.39327" height="0.30909" rx="0.154545" transform="matrix(0.866025 0.5 -0.324743 0.945802 33.9499 39.5686)" fill="#171753"/>
<path d="M37.5896 28.8293C37.677 28.4959 38.008 28.3177 38.3345 28.4285C38.6609 28.5393 38.8522 28.8948 38.7648 29.2283C38.6774 29.5617 38.3464 29.7399 38.0199 29.6291C37.6935 29.5183 37.5052 29.1517 37.5896 28.8293Z" fill="#171753"/>
<path d="M40.7923 31.5309C40.7208 31.7129 40.6494 31.8948 40.5481 32.0545C40.2179 32.634 39.7058 33.0909 39.0315 33.2138C38.1125 33.3629 37.1923 32.8807 36.4689 32.2833C35.6773 32.5362 35.6773 32.5362 35.6773 32.5362C35.4981 32.5846 35.3453 32.3508 35.4765 32.2133C35.2821 32.1837 35.2742 31.9869 35.3667 31.8606C35.1817 31.9313 35.109 31.664 35.2314 31.56C35.3094 31.4894 35.423 31.4188 35.509 31.363C34.7128 30.4983 34.0362 29.5408 33.3457 28.5906C33.7553 29.0694 35.4525 30.7615 35.8775 31.1363C36.3215 31.5297 36.7654 31.923 37.2575 32.2235C37.668 32.472 38.2104 32.7167 38.6816 32.5977C39.1112 32.5009 39.3728 32.0923 39.5354 31.6987C39.8999 30.8519 39.8568 29.7455 39.5966 28.8322C39.3234 27.8781 38.7239 26.8983 37.8897 26.3603C37.5855 26.16 37.2579 26.0488 36.9375 26.0007C36.1956 25.8823 35.4346 26.1092 34.7972 26.4994C33.8773 27.0606 33.1261 27.8853 32.4216 28.7137C31.9436 29.2672 31.0975 30.7268 30.2592 29.7508C29.8873 29.3092 29.7347 28.7115 29.6666 28.1545C29.5853 27.5568 29.6163 26.8031 29.9071 26.2831C30.5252 25.1948 31.8859 26.8092 32.3436 27.3771C32.3138 27.3548 31.1639 26.2972 30.5579 26.6132C30.2811 26.7618 30.187 27.1666 30.1439 27.4674C30.0722 28.0132 30.1191 28.8783 30.5237 29.3311C31.0498 29.91 31.6671 28.87 31.936 28.5246C32.387 27.9377 32.8272 27.3471 33.308 26.7824C33.8392 26.1621 34.4329 25.5751 35.1445 25.1737C35.0624 24.9881 34.9343 24.7506 34.973 24.5575C35.0066 24.3384 35.2754 24.1749 35.4646 24.3604C35.2893 23.9855 35.7417 23.6659 36.0255 23.9442C35.9368 23.6472 36.2588 23.4169 36.507 23.5133C36.649 23.5615 36.7589 23.7322 36.8476 23.8472C37.082 24.133 37.3133 24.4299 37.5586 24.7194C40.3915 25.2079 41.695 29.0835 40.7923 31.5309Z" fill="#171753"/>
<path d="M38.5336 43.3398C38.6531 43.2999 38.7725 43.1805 38.8124 43.061L44.6663 26.1363C44.7061 26.0169 44.746 25.8576 44.746 25.7381L43.9097 26.0169C43.9097 26.0965 43.9097 26.216 43.8699 26.2956L37.9363 43.4194C37.8964 43.5787 37.777 43.6584 37.6177 43.738L38.5336 43.3398Z" fill="#171753"/>
<path d="M44.069 27.8487C44.0292 27.8487 43.9893 27.8088 43.9893 27.769L44.4274 26.4549C44.4274 26.415 44.4672 26.415 44.507 26.415C44.5469 26.415 44.5469 26.4549 44.5469 26.4947L44.1088 27.8088C44.1486 27.8088 44.1088 27.8487 44.069 27.8487Z" fill="#FFA54B"/>
<path d="M42.1574 33.4239C42.1176 33.4239 42.1574 33.4239 42.1574 33.4239C42.1176 33.4239 42.0778 33.384 42.0778 33.3442L42.5556 32.0301C42.5556 31.9902 42.5955 31.9902 42.6353 31.9902C42.6751 31.9902 42.6751 32.0301 42.6751 32.0699L42.1972 33.384C42.1972 33.384 42.1972 33.4239 42.1574 33.4239Z" fill="#FFA54B"/>
<path d="M37.976 43.5787C37.9362 43.5787 37.9362 43.5787 37.8963 43.5389C37.8963 43.4991 37.8963 43.4592 37.9362 43.4592L38.2946 43.2999C38.414 43.2601 38.5335 43.1805 38.6131 43.061C38.6928 42.9814 38.7326 42.8619 38.7724 42.7822L41.8388 33.9018C41.8388 33.8619 41.8786 33.8619 41.9184 33.8619C41.9583 33.8619 41.9583 33.9018 41.9583 33.9416L38.8919 42.8221C38.8521 42.9415 38.7724 43.061 38.6928 43.1406C38.5733 43.2601 38.4538 43.3398 38.3344 43.3796L37.976 43.5787Z" fill="#FFA54B"/>
<path d="M8.70642 29.9993C8.38784 29.5612 7.87014 29.4816 7.55156 29.8002C7.23297 30.1586 7.19315 30.7957 7.51174 31.2338C7.83032 31.6718 8.34801 31.7515 8.6666 31.4329C9.025 31.0745 9.025 30.4373 8.70642 29.9993Z" fill="#171753"/>
<path d="M8.18866 31.7116H8.14884C7.9099 31.6718 7.63114 31.5523 7.47185 31.2736C7.15327 30.7957 7.15327 30.1187 7.51167 29.7603C7.67096 29.601 7.87008 29.5214 8.10901 29.5214C8.34795 29.5612 8.62671 29.6807 8.786 29.9594C9.10458 30.4373 9.10458 31.1143 8.74618 31.4727C8.58689 31.632 8.38777 31.7116 8.18866 31.7116ZM8.02937 29.6807C7.87008 29.6807 7.71079 29.7603 7.59132 29.8798C7.27274 30.1984 7.27273 30.7957 7.55149 31.2337C7.71079 31.4329 7.9099 31.5921 8.14884 31.5921C8.34795 31.5921 8.50724 31.5523 8.62671 31.393C8.94529 31.0745 8.94529 30.4771 8.66653 30.0391C8.50724 29.8399 8.30813 29.6807 8.06919 29.6807C8.06919 29.6807 8.06919 29.6807 8.02937 29.6807Z" fill="#171753"/>
<path d="M8.62689 29.4816C8.42778 29.2028 8.14902 29.0435 7.87026 29.0833L7.27292 29.163C7.55168 29.1232 7.83044 29.2426 8.02955 29.5612C8.34813 29.9993 8.30831 30.6364 7.98973 30.9948C7.87026 31.1143 7.75079 31.1939 7.5915 31.1939L8.14902 31.1143C8.26849 31.0745 8.42778 31.0346 8.54725 30.9152C8.90565 30.5568 8.94547 29.9196 8.62689 29.4816Z" fill="#ECFFFE"/>
<path d="M7.63123 31.2337C7.5914 31.2337 7.5914 31.1939 7.55158 31.1939C7.55158 31.154 7.55158 31.1142 7.5914 31.1142C7.71087 31.0744 7.83034 31.0346 7.94981 30.9151C8.26839 30.5965 8.26839 29.9992 7.98963 29.5611C7.79052 29.2824 7.55158 29.1629 7.27282 29.2027C7.233 29.2027 7.19318 29.1629 7.19318 29.1629C7.19318 29.1231 7.19318 29.0833 7.233 29.0833L7.83034 29.0036C8.14892 28.9638 8.42768 29.1231 8.6268 29.4018C8.94538 29.8797 8.94538 30.5567 8.58697 30.9151C8.46751 31.0346 8.30821 31.1142 8.18875 31.154L7.63123 31.2337ZM7.71087 29.1629C7.87016 29.2426 7.98963 29.362 8.1091 29.5213C8.42768 29.9992 8.42768 30.6762 8.06928 31.0346L8.02945 31.0744L8.22857 31.0346C8.34804 30.9948 8.46751 30.9549 8.58697 30.8355C8.90556 30.5169 8.90556 29.9195 8.6268 29.4815C8.4675 29.2425 8.18874 29.0833 7.94981 29.1231L7.71087 29.1629Z" fill="#171753"/>
<path d="M8.86561 30.477L8.30809 30.5566C8.26827 30.7159 8.18863 30.8752 8.06916 30.9947C7.94969 31.1142 7.83022 31.1938 7.67093 31.1938L8.22845 31.1142C8.34792 31.0743 8.50721 31.0345 8.62667 30.915C8.74614 30.7956 8.82579 30.6363 8.86561 30.477Z" fill="#171753"/>
<path d="M8.06918 29.561C7.7506 29.123 7.2329 29.0433 6.91432 29.3619C6.59574 29.7203 6.55592 30.3575 6.8745 30.7955C7.19308 31.2336 7.71078 31.3132 8.02936 30.9947C8.34794 30.6363 8.38776 29.9991 8.06918 29.561Z" fill="#FFA54B"/>
<path d="M7.55148 31.2736H7.51166C7.27272 31.2337 6.99396 31.1143 6.83467 30.8355C6.51609 30.3576 6.51609 29.6807 6.8745 29.3222C7.03379 29.163 7.2329 29.0833 7.47184 29.0833C7.71077 29.1231 7.98953 29.2426 8.14882 29.5214C8.46741 29.9992 8.46741 30.6762 8.109 31.0346C7.90989 31.1541 7.7506 31.2736 7.55148 31.2736ZM7.39219 29.2028C7.2329 29.2028 7.07361 29.2824 6.95414 29.4019C6.63556 29.7205 6.63556 30.3178 6.91432 30.7559C7.07361 30.955 7.27272 31.1143 7.51166 31.1143C7.67095 31.1143 7.87007 31.0745 7.98953 30.9152C8.30812 30.5966 8.30812 29.9992 8.02936 29.5612C7.87006 29.3621 7.67095 29.2028 7.43201 29.2028H7.39219Z" fill="#171753"/>
<path d="M7.98956 31.1938C7.94974 31.1938 7.90991 31.1539 7.90991 31.1141C7.90991 31.0743 7.94974 31.0345 7.98956 31.0345C7.98956 31.0345 8.42761 31.0345 8.54708 30.8353C8.54708 30.7955 8.62672 30.7955 8.62672 30.8353C8.66654 30.8353 8.66654 30.915 8.62672 30.915C8.50725 31.1938 8.0692 31.1938 7.98956 31.1938Z" fill="#FFA54B"/>
<path d="M11.3746 31.5124C11.056 31.0743 10.5384 30.9947 10.2198 31.3133C9.90119 31.6717 9.86136 32.3089 10.1799 32.7469C10.4985 33.185 11.0162 33.2646 11.3348 32.946C11.6534 32.6274 11.6932 31.9903 11.3746 31.5124Z" fill="#171753"/>
<path d="M10.8569 33.2248H10.8171C10.5782 33.185 10.2994 33.0655 10.1401 32.7867C9.82154 32.3089 9.82154 31.6319 10.1799 31.2735C10.3392 31.1142 10.5384 31.0345 10.7773 31.0345C11.0162 31.0744 11.295 31.1938 11.4543 31.4726C11.7729 31.9505 11.7729 32.6275 11.4145 32.9859C11.2552 33.1452 11.056 33.2248 10.8569 33.2248ZM10.6976 31.1938C10.5384 31.1938 10.3791 31.2735 10.2596 31.393C9.94101 31.7115 9.94101 32.3089 10.2198 32.7469C10.3791 32.946 10.5782 33.1053 10.8171 33.1053C11.0162 33.1053 11.1755 33.0655 11.295 32.9062C11.6136 32.5876 11.6136 31.9903 11.3348 31.5522C11.1755 31.3531 10.9764 31.1938 10.7375 31.1938H10.6976Z" fill="#171753"/>
<path d="M11.2949 30.9949C11.0957 30.7161 10.817 30.5568 10.5382 30.5966L9.94089 30.6763C10.2196 30.6365 10.4984 30.7559 10.6975 31.0745C11.0161 31.5126 10.9763 32.1497 10.6577 32.5081C10.5382 32.6276 10.4188 32.7072 10.2595 32.7072L10.817 32.6276C10.9365 32.5878 11.0957 32.5479 11.2152 32.4285C11.5736 32.1099 11.6134 31.4727 11.2949 30.9949Z" fill="#ECFFFE"/>
<path d="M10.2992 32.7867C10.2594 32.7867 10.2594 32.7468 10.2196 32.7468C10.2196 32.707 10.2196 32.6672 10.2594 32.6672C10.3789 32.6274 10.4983 32.5876 10.6178 32.4681C10.9364 32.1495 10.9364 31.5522 10.6576 31.1141C10.4585 30.8353 10.2196 30.7159 9.94082 30.7557C9.901 30.7557 9.86118 30.7159 9.86118 30.7159C9.86118 30.6761 9.86117 30.6362 9.901 30.6362L10.4983 30.5566C10.8169 30.5168 11.0957 30.6761 11.2948 30.9548C11.6134 31.4327 11.6134 32.1097 11.255 32.4681C11.1355 32.5876 10.9762 32.6672 10.8567 32.707L10.2992 32.7867ZM10.3789 30.7159C10.5382 30.7955 10.6576 30.915 10.7771 31.0743C11.0957 31.5522 11.0957 32.2291 10.7373 32.5876L10.6975 32.6274L10.8966 32.5876C11.016 32.5477 11.1355 32.5079 11.255 32.3884C11.5736 32.0699 11.5736 31.4725 11.2948 31.0345C11.1355 30.7955 10.8567 30.6362 10.6178 30.6761L10.3789 30.7159Z" fill="#171753"/>
<path d="M11.4939 31.9904L10.9364 32.07C10.8966 32.2293 10.817 32.3886 10.6975 32.5081C10.578 32.6275 10.4585 32.7072 10.2993 32.7072L10.8568 32.6275C10.9762 32.5877 11.1355 32.5479 11.255 32.4284C11.4143 32.3089 11.4541 32.1895 11.4939 31.9904Z" fill="#171753"/>
<path d="M10.7374 31.0743C10.4188 30.6363 9.90115 30.5567 9.58256 30.8752C9.26398 31.2336 9.22416 31.8708 9.54274 32.3089C9.86132 32.7469 10.379 32.8266 10.6976 32.508C11.0162 32.1894 11.0162 31.5124 10.7374 31.0743Z" fill="#FFA54B"/>
<path d="M10.1799 32.7867H10.14C9.90111 32.7469 9.62235 32.6275 9.46306 32.3487C9.14448 31.8708 9.14448 31.1938 9.50288 30.8354C9.66217 30.6761 9.86129 30.5965 10.1002 30.5965C10.3392 30.6363 10.6179 30.7558 10.7772 31.0345C11.0958 31.5124 11.0958 32.1894 10.7374 32.5478C10.5781 32.7071 10.379 32.7867 10.1799 32.7867ZM10.0206 30.7558C9.86129 30.7558 9.702 30.8354 9.58253 30.9549C9.26394 31.2735 9.26395 31.8708 9.54271 32.3089C9.702 32.508 9.90111 32.6673 10.14 32.6673C10.3392 32.6673 10.4985 32.6275 10.6179 32.4682C10.9365 32.1496 10.9365 31.5522 10.6577 31.1142C10.4985 30.9151 10.2993 30.7558 10.0604 30.7558C10.0604 30.7558 10.0604 30.7558 10.0206 30.7558Z" fill="#171753"/>
<path d="M10.6577 32.7469C10.6179 32.7469 10.5781 32.7071 10.5781 32.6673C10.5781 32.6274 10.6179 32.5876 10.6577 32.5876C10.6577 32.5876 11.0958 32.5876 11.2153 32.3885C11.2551 32.3487 11.2949 32.3487 11.2949 32.3885C11.3347 32.3885 11.3347 32.4682 11.2949 32.4682C11.1754 32.7071 10.6976 32.7469 10.6577 32.7469Z" fill="#FFA54B"/>
<path d="M14.0426 33.0656C13.724 32.6276 13.2063 32.5479 12.8877 32.8665C12.5692 33.2249 12.5293 33.8621 12.8479 34.3001C13.1665 34.7382 13.6842 34.8178 14.0028 34.4992C14.3214 34.1408 14.3612 33.5037 14.0426 33.0656Z" fill="#171753"/>
<path d="M13.5249 34.7779H13.485C13.2461 34.7381 12.9674 34.6186 12.8081 34.3398C12.4895 33.862 12.4895 33.185 12.8479 32.8266C13.0072 32.6673 13.2063 32.5876 13.4452 32.5876C13.6842 32.6275 13.9629 32.7469 14.1222 33.0257C14.4408 33.5036 14.4408 34.1806 14.0824 34.539C13.8833 34.6983 13.724 34.7779 13.5249 34.7779ZM13.3656 32.7469C13.2063 32.7469 13.047 32.8266 12.9275 32.9461C12.6089 33.2646 12.6089 33.862 12.8877 34.3C13.047 34.4991 13.2461 34.6584 13.485 34.6584C13.6842 34.6584 13.8435 34.6186 13.9629 34.4593C14.2815 34.1407 14.2815 33.5434 14.0027 33.1053C13.8435 32.9062 13.6443 32.7469 13.4054 32.7469H13.3656Z" fill="#171753"/>
<path d="M13.9629 32.5477C13.7637 32.2689 13.485 32.1096 13.2062 32.1494L12.6089 32.2291C12.8876 32.1892 13.1664 32.3087 13.3655 32.6273C13.6841 33.0653 13.6443 33.7025 13.3257 34.0609C13.2062 34.1804 13.0868 34.26 12.9275 34.26L13.485 34.1804C13.6045 34.1406 13.7637 34.1007 13.8832 33.9813C14.2416 33.6229 14.2416 32.9857 13.9629 32.5477Z" fill="#ECFFFE"/>
<path d="M12.9672 34.3C12.9274 34.3 12.9274 34.2602 12.8876 34.2602C12.8876 34.2203 12.8876 34.1805 12.9274 34.1805C13.0469 34.1407 13.1663 34.1009 13.2858 33.9814C13.6044 33.6628 13.6044 33.0655 13.3256 32.6274C13.1265 32.3487 12.8876 32.2292 12.6088 32.269C12.569 32.269 12.5292 32.2292 12.5292 32.2292C12.5292 32.1894 12.5292 32.1495 12.569 32.1495L13.1663 32.0699C13.4849 32.0301 13.7637 32.1894 13.9628 32.4681C14.2814 32.946 14.2814 33.623 13.923 33.9814C13.8035 34.1009 13.6442 34.1805 13.5247 34.2203L12.9672 34.3ZM13.0469 32.2292C13.2062 32.3088 13.3256 32.4283 13.4451 32.5876C13.7637 33.0655 13.7637 33.7425 13.4053 34.1009L13.3655 34.1407L13.5646 34.1009C13.684 34.061 13.8035 34.0212 13.923 33.9017C14.2416 33.5832 14.2416 32.9858 13.9628 32.5478C13.8035 32.3088 13.5247 32.1495 13.2858 32.1894L13.0469 32.2292Z" fill="#171753"/>
<path d="M14.1619 33.5433L13.6044 33.623C13.5646 33.7823 13.485 33.9416 13.3655 34.061C13.246 34.1805 13.1265 34.2601 12.9673 34.2601L13.5248 34.1805C13.6442 34.1407 13.8035 34.1009 13.923 33.9814C14.0425 33.8619 14.1221 33.7026 14.1619 33.5433Z" fill="#171753"/>
<path d="M13.3655 32.6274C13.0469 32.1894 12.5292 32.1098 12.2106 32.4283C11.8921 32.7867 11.8522 33.4239 12.1708 33.862C12.4894 34.3 13.0071 34.3797 13.3257 34.0611C13.6841 33.7027 13.6841 33.0655 13.3655 32.6274Z" fill="#FFA54B"/>
<path d="M12.8478 34.3399H12.808C12.5691 34.3001 12.2903 34.1806 12.131 33.9019C11.8124 33.424 11.8124 32.747 12.1709 32.3886C12.3301 32.2293 12.5293 32.1497 12.7682 32.1497C13.0071 32.1895 13.2859 32.3089 13.4452 32.5877C13.7638 33.0656 13.7638 33.7426 13.4054 34.101C13.2461 34.2603 13.047 34.3399 12.8478 34.3399ZM12.6885 32.2691C12.5293 32.2691 12.37 32.3488 12.2505 32.4682C11.9319 32.7868 11.9319 33.3842 12.2107 33.8222C12.37 34.0213 12.5691 34.1806 12.808 34.1806C13.0071 34.1806 13.1664 34.1408 13.2859 33.9815C13.6045 33.6629 13.6045 33.0656 13.3257 32.6275C13.1664 32.4284 12.9673 32.2691 12.7284 32.2691C12.7284 32.2691 12.7284 32.2691 12.6885 32.2691Z" fill="#171753"/>
<path d="M13.3257 34.26C13.2859 34.26 13.2461 34.2202 13.2461 34.1804C13.2461 34.1406 13.2859 34.1007 13.3257 34.1007C13.3257 34.1007 13.7638 34.1007 13.8832 33.9016C13.923 33.8618 13.9629 33.8618 13.9629 33.9016C14.0027 33.9016 14.0027 33.9813 13.9629 33.9813C13.8036 34.26 13.3655 34.26 13.3257 34.26Z" fill="#FFA54B"/>
<path d="M16.7108 34.579C16.3922 34.1409 15.8745 34.0613 15.556 34.3799C15.2374 34.7383 15.1975 35.3754 15.5161 35.8135C15.8347 36.2515 16.3524 36.3312 16.671 36.0126C16.9896 35.694 16.9896 35.0569 16.7108 34.579Z" fill="#171753"/>
<path d="M16.1533 36.2913H16.1134C15.8745 36.2515 15.5957 36.132 15.4364 35.8533C15.1179 35.3754 15.1179 34.6984 15.4763 34.34C15.6356 34.1807 15.8347 34.1011 16.0736 34.1011C16.3126 34.1409 16.5913 34.2604 16.7506 34.5391C17.0692 35.017 17.0692 35.694 16.7108 36.0524C16.5515 36.2117 16.3524 36.2913 16.1533 36.2913ZM16.0338 34.2604C15.8745 34.2604 15.7152 34.34 15.5957 34.4595C15.2772 34.7781 15.2772 35.3754 15.5559 35.8135C15.7152 36.0126 15.9143 36.1719 16.1533 36.1719C16.3524 36.1719 16.5117 36.132 16.6311 35.9727C16.9497 35.6542 16.9497 35.0568 16.671 34.6188C16.5117 34.4197 16.3126 34.2604 16.0736 34.2604C16.0338 34.2604 16.0338 34.2604 16.0338 34.2604Z" fill="#171753"/>
<path d="M16.5914 34.0614C16.3923 33.7827 16.1136 33.6234 15.8348 33.6632L15.2375 33.7429C15.5162 33.703 15.795 33.8225 15.9941 34.1411C16.3127 34.5791 16.2728 35.2163 15.9543 35.5747C15.8348 35.6942 15.7153 35.7738 15.556 35.7738L16.1136 35.6942C16.233 35.6544 16.3923 35.6145 16.5118 35.4951C16.91 35.1765 16.91 34.5393 16.5914 34.0614Z" fill="#ECFFFE"/>
<path d="M15.5958 35.8532C15.556 35.8532 15.556 35.8134 15.5162 35.8134C15.5162 35.7736 15.5162 35.7337 15.556 35.7337C15.6754 35.6939 15.7949 35.6541 15.9144 35.5346C16.233 35.216 16.233 34.6187 15.9542 34.1806C15.7551 33.9019 15.5162 33.7824 15.2374 33.8222C15.1976 33.8222 15.1577 33.7824 15.1577 33.7824C15.1577 33.7426 15.1577 33.7028 15.1976 33.7028L15.7949 33.6231C16.1135 33.5833 16.3923 33.7426 16.5914 34.0213C16.91 34.4992 16.9099 35.1762 16.5515 35.5346C16.4321 35.6541 16.2728 35.7337 16.1533 35.7736L15.5958 35.8532ZM15.7153 33.7824C15.8746 33.8621 15.994 33.9815 16.1135 34.1408C16.4321 34.6187 16.4321 35.2957 16.0737 35.6541L16.0338 35.6939L16.233 35.6541C16.3524 35.6143 16.4719 35.5744 16.5914 35.455C16.91 35.1364 16.9099 34.539 16.6312 34.101C16.4719 33.8621 16.1931 33.7028 15.9542 33.7426L15.7153 33.7824Z" fill="#171753"/>
<path d="M16.8302 35.0569L16.2727 35.1365C16.2328 35.2958 16.1532 35.4551 16.0337 35.5746C15.9143 35.6941 15.7948 35.7737 15.6355 35.7737L16.193 35.694C16.3125 35.6542 16.4718 35.6144 16.5912 35.4949C16.7107 35.3755 16.7904 35.2162 16.8302 35.0569Z" fill="#171753"/>
<path d="M16.0338 34.1408C15.7152 33.7027 15.1975 33.6231 14.8789 33.9416C14.5603 34.3 14.5205 34.9372 14.8391 35.3753C15.1577 35.8133 15.6754 35.893 15.994 35.5744C16.3125 35.216 16.3524 34.5788 16.0338 34.1408Z" fill="#FFA54B"/>
<path d="M15.5161 35.8533H15.4762C15.2373 35.8135 14.9585 35.694 14.7992 35.4152C14.4807 34.9374 14.4807 34.2604 14.8391 33.902C14.9984 33.7427 15.1975 33.663 15.4364 33.663C15.6753 33.7028 15.9541 33.8223 16.1134 34.1011C16.432 34.5789 16.432 35.2559 16.0736 35.6143C15.9143 35.7736 15.7152 35.8533 15.5161 35.8533ZM15.3568 33.8223C15.1975 33.8223 15.0382 33.902 14.9187 34.0214C14.6001 34.34 14.6001 34.9374 14.8789 35.3754C15.0382 35.5745 15.2373 35.7338 15.4762 35.7338C15.6753 35.7338 15.8346 35.694 15.9541 35.5347C16.2727 35.2161 16.2727 34.6188 15.9939 34.1807C15.8346 33.9816 15.6355 33.8223 15.3966 33.8223H15.3568Z" fill="#171753"/>
<path d="M15.994 35.7736C15.9542 35.7736 15.9143 35.7338 15.9143 35.694C15.9143 35.6542 15.9542 35.6144 15.994 35.6144C15.994 35.6144 16.432 35.6144 16.5515 35.4152C16.5515 35.3754 16.5913 35.3754 16.6311 35.4152C16.671 35.4152 16.671 35.4551 16.6311 35.4949C16.4719 35.7736 16.0338 35.7736 15.994 35.7736Z" fill="#FFA54B"/>
<path d="M32.2019 45.1315L25.671 41.3484C25.2728 41.1094 25.1135 40.6714 25.2329 40.2333L25.2728 40.074C25.3922 39.7555 25.7506 39.636 26.0294 39.7953L32.6002 43.5785C32.9984 43.8174 33.1577 44.2554 33.0382 44.6935L32.9984 44.8528C32.8391 45.1714 32.4807 45.2908 32.2019 45.1315Z" fill="#171753"/>
<path d="M32.4408 45.2512C32.3213 45.2512 32.2417 45.2113 32.1621 45.1715L25.6311 41.3884C25.2329 41.1494 25.0338 40.6317 25.1931 40.1937L25.2329 40.0344C25.2727 39.8751 25.432 39.7556 25.5913 39.676C25.7506 39.5963 25.9497 39.6362 26.109 39.7158L32.6399 43.499C33.0382 43.7379 33.2373 44.2556 33.078 44.6937L33.0382 44.8529C32.9983 45.0122 32.839 45.1317 32.6797 45.2114C32.6001 45.2512 32.5205 45.2512 32.4408 45.2512ZM25.7904 39.7955C25.7506 39.7955 25.6709 39.7955 25.6311 39.8353C25.5116 39.8751 25.3922 39.9946 25.3524 40.114L25.3125 40.2733C25.1931 40.6716 25.3524 41.1096 25.7108 41.3087L32.2417 45.0919C32.3612 45.1715 32.5205 45.1715 32.6399 45.1317C32.7594 45.0919 32.8789 44.9724 32.9187 44.8529L32.9585 44.6937C33.078 44.2954 32.9187 43.8574 32.5603 43.6583L26.0293 39.8751C25.9497 39.7954 25.8701 39.7955 25.7904 39.7955Z" fill="#171753"/>
<path d="M32.5603 42.7424L26.1887 39.0389C26.0294 38.9592 25.8701 38.9592 25.7506 38.9991L25.1931 39.1982C25.3126 39.1583 25.5117 39.1583 25.6312 39.238L32.1621 43.0212C32.5603 43.2601 32.7196 43.6981 32.6001 44.1362L32.5603 44.2955C32.5205 44.415 32.401 44.5344 32.2816 44.5742L32.7594 44.415C32.9187 44.3751 33.0382 44.2557 33.078 44.0964C33.2373 43.5787 33.0382 43.0212 32.5603 42.7424Z" fill="#ECFFFE"/>
<path d="M32.2815 44.6935C32.2417 44.6935 32.2417 44.6935 32.2417 44.6537C32.2417 44.6139 32.2417 44.574 32.2815 44.574C32.401 44.5342 32.4806 44.4148 32.5205 44.3351L32.5603 44.1758C32.6797 43.7776 32.5205 43.3395 32.1621 43.1404L25.6311 39.3573C25.5116 39.2776 25.3922 39.2776 25.2329 39.3174C25.1931 39.3174 25.1532 39.3174 25.1532 39.2776C25.1532 39.2378 25.1532 39.198 25.1931 39.198L25.7506 38.9989C25.9099 38.9192 26.109 38.959 26.2683 39.0387L32.6399 42.7422C33.1576 43.021 33.3567 43.6183 33.1974 44.1758C33.1576 44.3351 32.9983 44.4944 32.839 44.5342L32.2815 44.6935ZM25.5515 39.1581C25.5913 39.1581 25.6311 39.198 25.6709 39.198L32.2019 42.9811C32.6001 43.2201 32.7992 43.7378 32.6399 44.1758L32.6001 44.3351C32.6001 44.3749 32.5603 44.4148 32.5603 44.4546L32.7196 44.3749C32.8789 44.3351 32.9585 44.2156 32.9983 44.0962C33.1576 43.6183 32.9585 43.0608 32.5205 42.8218L26.1488 39.1183C26.0293 39.0387 25.8701 39.0387 25.7506 39.0785L25.5515 39.1581Z" fill="#171753"/>
<path d="M31.7638 44.6137L25.2329 40.8305C24.8347 40.5916 24.6754 40.1535 24.7948 39.7155L24.8347 39.5562C24.9541 39.2376 25.3125 39.1181 25.5913 39.2774L32.1222 43.0606C32.5204 43.2995 32.6797 43.7376 32.5603 44.1756L32.5204 44.3349C32.4408 44.6137 32.0426 44.7729 31.7638 44.6137Z" fill="#FFA54B"/>
<path d="M32.0426 44.7333C31.9231 44.7333 31.8435 44.6935 31.7638 44.6536L25.2329 40.8705C24.8347 40.6315 24.6356 40.1138 24.7948 39.6758L24.8347 39.5165C24.8745 39.3572 25.0338 39.2377 25.1931 39.1581C25.3524 39.0785 25.5515 39.1183 25.7108 39.1979L32.2417 42.9811C32.6399 43.22 32.839 43.7377 32.6798 44.1758L32.6399 44.3351C32.6001 44.4943 32.4408 44.6138 32.2815 44.6935C32.1621 44.7333 32.1222 44.7333 32.0426 44.7333ZM25.3922 39.2377C25.3524 39.2377 25.2727 39.2377 25.2329 39.2776C25.1134 39.3174 24.994 39.4369 24.9541 39.5563L24.9143 39.7156C24.7948 40.1138 24.9541 40.5519 25.3125 40.751L31.8435 44.5342C31.9629 44.6138 32.1222 44.6138 32.2417 44.574C32.3612 44.5342 32.4806 44.4147 32.5205 44.2952L32.5603 44.1359C32.6798 43.7377 32.5205 43.2997 32.1621 43.1006L25.6311 39.3174C25.5515 39.2776 25.4718 39.2377 25.3922 39.2377Z" fill="#171753"/>
<path d="M32.7594 44.4148C32.9186 44.375 33.0381 44.2555 33.0779 44.0962C33.1178 44.0166 33.1178 43.9369 33.1178 43.8573L32.6001 44.0166C32.6001 44.0564 32.6001 44.0962 32.5602 44.1361L32.5204 44.2954C32.4806 44.4148 32.3611 44.5343 32.2417 44.5741L32.7594 44.4148Z" fill="#171753"/>
<path d="M32.4807 44.5741C32.4409 44.5741 32.4409 44.5741 32.4011 44.5342C32.4011 44.4944 32.4011 44.4546 32.4409 44.4546L32.7993 44.3351C32.7993 44.3351 32.9188 44.2953 32.9586 44.2157C32.9586 44.1758 32.9984 44.1758 33.0383 44.1758C33.0781 44.1758 33.0781 44.2157 33.0781 44.2555C32.9984 44.375 32.879 44.4148 32.879 44.4148L32.4807 44.5741C32.5206 44.5741 32.4807 44.5741 32.4807 44.5741Z" fill="#FFA54B"/>
<path d="M34.8301 46.6845L34.3522 46.4058C33.954 46.1668 33.7947 45.7288 33.9142 45.2907L33.954 45.1314C34.0735 44.8128 34.4319 44.6934 34.7107 44.8527L35.1885 45.1314C35.5868 45.3704 35.746 45.8084 35.6266 46.2465L35.5868 46.4058C35.4673 46.6845 35.1089 46.8438 34.8301 46.6845Z" fill="#171753"/>
<path d="M35.0691 46.8041C34.9496 46.8041 34.87 46.7643 34.7903 46.7245L34.3124 46.4457C33.9142 46.2068 33.7151 45.6891 33.8744 45.2511L33.9142 45.0918C33.954 44.9325 34.1133 44.813 34.2726 44.7334C34.4319 44.6537 34.631 44.6935 34.7903 44.7732L35.2682 45.0519C35.6664 45.2909 35.8655 45.8086 35.7062 46.2466L35.6664 46.4059C35.6266 46.5652 35.4673 46.6847 35.308 46.7643C35.2284 46.8041 35.1487 46.8041 35.0691 46.8041ZM34.87 46.605C34.9894 46.6847 35.1487 46.6847 35.2682 46.6448C35.3877 46.605 35.5071 46.4856 35.5469 46.3661L35.5868 46.2068C35.7062 45.8086 35.5469 45.3705 35.1885 45.1714L34.7107 44.8926C34.5912 44.813 34.4319 44.813 34.3124 44.8528C34.193 44.8926 34.0735 45.0121 34.0337 45.1316L33.9939 45.2909C33.8744 45.6891 34.0337 46.1272 34.3921 46.3263L34.87 46.605Z" fill="#171753"/>
<path d="M35.1886 44.2953L34.87 44.0962C34.7107 44.0165 34.5514 44.0165 34.4319 44.0564L33.8744 44.2555C33.9939 44.2157 34.193 44.2157 34.3125 44.2953L34.7903 44.5741C35.1886 44.813 35.3479 45.2511 35.2284 45.6891L35.1886 45.8484C35.1488 45.9679 35.0293 46.0873 34.9098 46.1272L35.3877 45.9679C35.547 45.928 35.6664 45.8086 35.7063 45.6493C35.8656 45.1316 35.6664 44.5741 35.1886 44.2953Z" fill="#ECFFFE"/>
<path d="M34.9098 46.2069C34.87 46.2069 34.87 46.2069 34.87 46.167C34.87 46.1272 34.87 46.0874 34.9098 46.0874C35.0292 46.0476 35.1089 45.9281 35.1487 45.8485L35.1885 45.6892C35.308 45.2909 35.1487 44.8529 34.7903 44.6538L34.3124 44.375C34.193 44.2954 34.0735 44.2954 33.9142 44.3352C33.8744 44.3352 33.8346 44.3352 33.8346 44.2954C33.8346 44.2556 33.8346 44.2157 33.8744 44.2157L34.4319 44.0166C34.5912 43.937 34.7903 43.9768 34.9496 44.0564L35.2682 44.2556C35.7859 44.5343 35.985 45.1317 35.8257 45.6892C35.7859 45.8485 35.6266 46.0078 35.4673 46.0476L34.9098 46.2069ZM34.2328 44.1759C34.2726 44.1759 34.3124 44.2157 34.3523 44.2157L34.8301 44.4945C35.2284 44.7334 35.4275 45.2511 35.2682 45.6892L35.2284 45.8485C35.2284 45.8883 35.1885 45.9281 35.1885 45.9679L35.3478 45.8883C35.5071 45.8485 35.5868 45.729 35.6266 45.6095C35.7859 45.1317 35.5868 44.5741 35.1487 44.3352L34.8301 44.1361C34.7107 44.0564 34.5514 44.0564 34.4319 44.0963L34.2328 44.1759Z" fill="#171753"/>
<path d="M34.392 46.1272L33.9142 45.8484C33.5159 45.6095 33.3566 45.1714 33.4761 44.7334L33.5159 44.5741C33.6354 44.2555 33.9938 44.1361 34.2726 44.2953L34.7504 44.5741C35.1487 44.813 35.308 45.2511 35.1885 45.6891L35.1487 45.8484C35.069 46.167 34.6708 46.2865 34.392 46.1272Z" fill="#FFA54B"/>
<path d="M34.6708 46.2865C34.5514 46.2865 34.4717 46.2467 34.3921 46.2069L33.9142 45.9281C33.516 45.6892 33.3169 45.1715 33.4762 44.7334L33.516 44.5741C33.5558 44.4148 33.7151 44.2954 33.8744 44.2157C34.0337 44.1361 34.2328 44.1759 34.3921 44.2555L34.87 44.5343C35.2682 44.7732 35.4673 45.2909 35.308 45.729L35.2682 45.8883C35.2284 46.0476 35.0691 46.167 34.9098 46.2467C34.7903 46.2467 34.7505 46.2865 34.6708 46.2865ZM34.4319 46.0874C34.5514 46.167 34.7107 46.167 34.8301 46.1272C34.9496 46.0874 35.0691 45.9679 35.1089 45.8484L35.1487 45.6892C35.2682 45.2909 35.1089 44.8529 34.7505 44.6538L34.2726 44.375C34.1531 44.2954 33.9939 44.2954 33.8744 44.3352C33.7549 44.375 33.6355 44.4945 33.5956 44.6139L33.5558 44.7732C33.4363 45.1715 33.5956 45.6095 33.954 45.8086L34.4319 46.0874Z" fill="#171753"/>
<path d="M35.3877 45.9678C35.547 45.9279 35.6665 45.8085 35.7063 45.6492C35.7461 45.5695 35.7461 45.4501 35.7461 45.3704L35.2284 45.5695C35.2284 45.6094 35.2284 45.6492 35.1886 45.689L35.1488 45.8483C35.1089 45.9678 34.9895 46.0872 34.87 46.1271L35.3877 45.9678Z" fill="#171753"/>
<path d="M35.1089 46.1272C35.0691 46.1272 35.0691 46.1272 35.0292 46.0874C35.0292 46.0476 35.0292 46.0078 35.0691 46.0078L35.4275 45.8883C35.4275 45.8883 35.5469 45.8485 35.5868 45.7688C35.5868 45.729 35.6266 45.729 35.6664 45.729C35.7062 45.729 35.7062 45.7688 35.7062 45.8087C35.6266 45.9281 35.5071 45.9679 35.5071 45.9679L35.1089 46.1272Z" fill="#FFA54B"/>
</svg>
