<svg width="40" height="50" viewBox="0 0 40 50" fill="none" xmlns="http://www.w3.org/2000/svg">
<path d="M39.5665 40.028L9.68566 22.8313C9.51231 22.7232 9.36063 22.464 9.36063 22.2263V0.406323C9.36063 0.16868 9.51231 0.0606595 9.68566 0.168679L39.5665 17.3654C39.7398 17.4735 39.8915 17.7327 39.8915 17.9704V39.7904C39.8915 40.028 39.7398 40.136 39.5665 40.028Z" fill="#ECFFFE"/>
<path d="M39.6966 40.1793C39.6316 40.1793 39.5666 40.1577 39.5016 40.1145L9.6208 22.9393C9.40412 22.8097 9.23077 22.5073 9.23077 22.2264V0.406401C9.23077 0.233569 9.29577 0.103945 9.40412 0.0391333C9.49079 -0.0256786 9.6208 -0.00407497 9.72914 0.060737L39.61 17.2575C39.8267 17.3871 40 17.6896 40 17.9704V39.7904C40 39.9633 39.935 40.0929 39.8267 40.1577C39.7833 40.1793 39.74 40.1793 39.6966 40.1793ZM39.6316 39.9201C39.6533 39.9201 39.6966 39.9417 39.7183 39.9417C39.74 39.9201 39.7616 39.8769 39.7616 39.7904V17.9704C39.7616 17.776 39.6316 17.5384 39.5016 17.4735L9.6208 0.255173C9.59913 0.255173 9.5558 0.233569 9.53413 0.233569C9.51246 0.255173 9.49079 0.298381 9.49079 0.384797V22.2048C9.49079 22.3992 9.6208 22.6369 9.75081 22.7017L39.6316 39.9201Z" fill="#171753"/>
<path d="M28.9961 15.1661L25.6905 13.2593L25.6905 17.0729L28.9961 18.9797L28.9961 15.1661Z" fill="#9BE7C4" stroke="#171753" stroke-width="0.3" stroke-miterlimit="10" stroke-linejoin="round"/>
<path d="M33.4452 17.7391L30.1396 15.8323L30.1396 19.6459L33.4452 21.5527L33.4452 17.7391Z" fill="#9BE7C4" stroke="#171753" stroke-width="0.3" stroke-miterlimit="10" stroke-linejoin="round"/>
<path d="M37.8943 20.4165L34.5887 18.5097L34.5887 22.3233L37.8943 24.2301L37.8943 20.4165Z" fill="#9BE7C4" stroke="#171753" stroke-width="0.3" stroke-miterlimit="10" stroke-linejoin="round"/>
<path d="M28.9961 20.6578L25.6905 18.751L25.6905 22.5646L28.9961 24.4714L28.9961 20.6578Z" fill="#9BE7C4" stroke="#171753" stroke-width="0.3" stroke-miterlimit="10" stroke-linejoin="round"/>
<path d="M33.4452 23.2307L30.1396 21.3239L30.1396 25.1375L33.4452 27.0443L33.4452 23.2307Z" fill="#9BE7C4" stroke="#171753" stroke-width="0.3" stroke-miterlimit="10" stroke-linejoin="round"/>
<path d="M37.8943 25.9082L34.5887 24.0014L34.5887 27.815L37.8943 29.7218L37.8943 25.9082Z" fill="#9BE7C4" stroke="#171753" stroke-width="0.3" stroke-miterlimit="10" stroke-linejoin="round"/>
<rect width="5.22075" height="0.233765" transform="matrix(0.866025 0.5 -6.13305e-08 1 18.7173 8.4913)" fill="#171753"/>
<rect width="4.20777" height="0.233765" transform="matrix(0.866025 0.5 -6.13305e-08 1 18.7173 9.03674)" fill="#171753"/>
<rect width="5.84412" height="0.233765" transform="matrix(0.866025 0.5 -6.13305e-08 1 18.7173 9.58224)" fill="#171753"/>
<rect width="4.20777" height="0.233765" transform="matrix(0.866025 0.5 -6.13305e-08 1 18.7173 11.8419)" fill="#171753"/>
<rect width="1.32467" height="0.233765" transform="matrix(0.866025 0.5 -6.13305e-08 1 18.7173 11.2185)" fill="#171753"/>
<rect width="1.32467" height="0.233765" transform="matrix(0.866025 0.5 -6.13305e-08 1 18.7173 13.2446)" fill="#171753"/>
<rect width="1.32467" height="0.233765" transform="matrix(0.866025 0.5 -6.13305e-08 1 18.7173 15.2705)" fill="#171753"/>
<rect width="5.84412" height="0.779216" transform="matrix(0.866025 0.5 -6.13305e-08 1 18.7173 14.0877)" stroke="#171753" stroke-width="0.3"/>
<rect width="5.84412" height="0.779216" transform="matrix(0.866025 0.5 -6.13305e-08 1 18.7173 16.1917)" stroke="#171753" stroke-width="0.3"/>
<path d="M18.7173 17.9698L21.4166 19.5283L21.4166 20.3075L18.7173 18.7491L18.7173 17.9698Z" fill="#BEF0ED"/>
<rect x="0.129904" y="0.225" width="5.77789" height="9.59352" transform="matrix(0.866025 0.5 -6.13305e-08 1 11.973 4.66985)" fill="#BEF0ED" stroke="#171753" stroke-width="0.3"/>
<rect width="2.96102" height="0.233765" transform="matrix(0.866025 0.5 -6.13305e-08 1 18.7173 10.1277)" fill="#171753"/>
<circle cx="0.272726" cy="0.272726" r="0.272726" transform="matrix(0.866025 0.5 -6.13305e-08 1 18.7173 11.6862)" fill="#171753"/>
<circle cx="0.272726" cy="0.272726" r="0.272726" transform="matrix(0.866025 0.5 -6.13305e-08 1 22.0916 13.6342)" fill="#171753"/>
<rect width="29.7961" height="5.03213" transform="matrix(0.866025 0.501279 0 1 11.9379 16.4165)" fill="#BEF0ED" stroke="#171753" stroke-width="0.3"/>
<path d="M34.9511 44.6434L5.07027 27.4466C4.89693 27.3386 4.74525 27.0794 4.74525 26.8417V5.02171C4.74525 4.78407 4.89693 4.67605 5.07027 4.78407L34.9511 21.9808C35.1244 22.0889 35.2761 22.3481 35.2761 22.5857V44.4058C35.2761 44.6434 35.1244 44.7514 34.9511 44.6434Z" fill="#ECFFFE"/>
<path d="M35.0813 44.7947C35.0163 44.7947 34.9513 44.7731 34.8862 44.7299L5.00542 27.5547C4.78873 27.4251 4.61539 27.1227 4.61539 26.8418V5.02179C4.61539 4.84896 4.68039 4.71933 4.78873 4.65452C4.87541 4.58971 5.00542 4.61131 5.11376 4.67612L34.9946 21.8729C35.2113 22.0025 35.3846 22.305 35.3846 22.5858V44.4058C35.3846 44.5787 35.3196 44.7083 35.2113 44.7731C35.1679 44.7947 35.1246 44.7947 35.0813 44.7947ZM35.0163 44.5355C35.0379 44.5355 35.0813 44.5571 35.1029 44.5571C35.1246 44.5355 35.1463 44.4922 35.1463 44.4058V22.5858C35.1463 22.3914 35.0163 22.1537 34.8862 22.0889L5.00542 4.87056C4.98375 4.87056 4.94041 4.84896 4.91875 4.84896C4.89708 4.87056 4.87541 4.91377 4.87541 5.00018V26.8202C4.87541 27.0146 5.00542 27.2523 5.13543 27.3171L35.0163 44.5355Z" fill="#171753"/>
<path d="M24.3807 19.7815L21.0751 17.8747L21.0751 21.6883L24.3807 23.5951L24.3807 19.7815Z" fill="#9BE7C4" stroke="#171753" stroke-width="0.3" stroke-miterlimit="10" stroke-linejoin="round"/>
<path d="M28.8298 22.3545L25.5242 20.4477L25.5242 24.2613L28.8298 26.1681L28.8298 22.3545Z" fill="#9BE7C4" stroke="#171753" stroke-width="0.3" stroke-miterlimit="10" stroke-linejoin="round"/>
<path d="M33.2789 25.0319L29.9733 23.1251L29.9733 26.9387L33.2789 28.8455L33.2789 25.0319Z" fill="#9BE7C4" stroke="#171753" stroke-width="0.3" stroke-miterlimit="10" stroke-linejoin="round"/>
<path d="M24.3807 25.2732L21.0751 23.3664L21.0751 27.18L24.3807 29.0868L24.3807 25.2732Z" fill="#9BE7C4" stroke="#171753" stroke-width="0.3" stroke-miterlimit="10" stroke-linejoin="round"/>
<path d="M28.8298 27.8461L25.5242 25.9393L25.5242 29.7529L28.8298 31.6597L28.8298 27.8461Z" fill="#9BE7C4" stroke="#171753" stroke-width="0.3" stroke-miterlimit="10" stroke-linejoin="round"/>
<path d="M33.2789 30.5236L29.9733 28.6168L29.9733 32.4304L33.2789 34.3372L33.2789 30.5236Z" fill="#9BE7C4" stroke="#171753" stroke-width="0.3" stroke-miterlimit="10" stroke-linejoin="round"/>
<rect width="5.22075" height="0.233765" transform="matrix(0.866025 0.5 -6.13305e-08 1 14.1019 13.1067)" fill="#171753"/>
<rect width="4.20777" height="0.233765" transform="matrix(0.866025 0.5 -6.13305e-08 1 14.1019 13.6521)" fill="#171753"/>
<rect width="5.84412" height="0.233765" transform="matrix(0.866025 0.5 -6.13305e-08 1 14.1019 14.1976)" fill="#171753"/>
<rect width="4.20777" height="0.233765" transform="matrix(0.866025 0.5 -6.13305e-08 1 14.1019 16.4573)" fill="#171753"/>
<rect width="1.32467" height="0.233765" transform="matrix(0.866025 0.5 -6.13305e-08 1 14.1019 15.8339)" fill="#171753"/>
<rect width="1.32467" height="0.233765" transform="matrix(0.866025 0.5 -6.13305e-08 1 14.1019 17.86)" fill="#171753"/>
<rect width="1.32467" height="0.233765" transform="matrix(0.866025 0.5 -6.13305e-08 1 14.1019 19.8859)" fill="#171753"/>
<rect width="5.84412" height="0.779216" transform="matrix(0.866025 0.5 -6.13305e-08 1 14.1019 18.7031)" stroke="#171753" stroke-width="0.3"/>
<rect width="5.84412" height="0.779216" transform="matrix(0.866025 0.5 -6.13305e-08 1 14.1019 20.8071)" stroke="#171753" stroke-width="0.3"/>
<path d="M14.1019 22.5852L16.8012 24.1437L16.8012 24.9229L14.1019 23.3645L14.1019 22.5852Z" fill="#BEF0ED"/>
<rect x="0.129904" y="0.225" width="5.77789" height="9.59352" transform="matrix(0.866025 0.5 -6.13305e-08 1 7.35757 9.28524)" fill="#BEF0ED" stroke="#171753" stroke-width="0.3"/>
<rect width="2.96102" height="0.233765" transform="matrix(0.866025 0.5 -6.13305e-08 1 14.1019 14.7431)" fill="#171753"/>
<circle cx="0.272726" cy="0.272726" r="0.272726" transform="matrix(0.866025 0.5 -6.13305e-08 1 14.1019 16.3015)" fill="#171753"/>
<circle cx="0.272726" cy="0.272726" r="0.272726" transform="matrix(0.866025 0.5 -6.13305e-08 1 17.4762 18.2496)" fill="#171753"/>
<rect width="29.7961" height="5.03213" transform="matrix(0.866025 0.501279 0 1 7.32251 21.0319)" fill="#BEF0ED" stroke="#171753" stroke-width="0.3"/>
<path d="M30.3357 49.2588L0.454891 32.062C0.281543 31.954 0.129864 31.6948 0.129864 31.4571V9.6371C0.129864 9.39945 0.281543 9.29143 0.454891 9.39945L30.3357 26.5962C30.509 26.7042 30.6607 26.9635 30.6607 27.2011V49.0211C30.6607 49.2588 30.509 49.3668 30.3357 49.2588Z" fill="#ECFFFE"/>
<path d="M30.4659 49.4101C30.4009 49.4101 30.3359 49.3885 30.2709 49.3453L0.390031 32.1701C0.173347 32.0405 0 31.738 0 31.4572V9.63717C0 9.46434 0.0650044 9.33472 0.173347 9.26991C0.260021 9.2051 0.390031 9.2267 0.498374 9.29151L30.3792 26.4883C30.5959 26.6179 30.7692 26.9204 30.7692 27.2012V49.0212C30.7692 49.1941 30.7042 49.3237 30.5959 49.3885C30.5525 49.4101 30.5092 49.4101 30.4659 49.4101ZM30.4009 49.1508C30.4225 49.1508 30.4659 49.1724 30.4875 49.1724C30.5092 49.1508 30.5309 49.1076 30.5309 49.0212V27.2012C30.5309 27.0068 30.4009 26.7691 30.2709 26.7043L0.390031 9.48595C0.368363 9.48595 0.325027 9.46434 0.303359 9.46434C0.28169 9.48595 0.260021 9.52915 0.260021 9.61557V31.4356C0.260021 31.63 0.390033 31.8677 0.520044 31.9325L30.4009 49.1508Z" fill="#171753"/>
<path d="M19.7653 24.3969L16.4597 22.4901L16.4597 26.3037L19.7653 28.2105L19.7653 24.3969Z" fill="#9BE7C4" stroke="#171753" stroke-width="0.3" stroke-miterlimit="10" stroke-linejoin="round"/>
<path d="M24.2144 26.9699L20.9088 25.0631L20.9088 28.8767L24.2144 30.7834L24.2144 26.9699Z" fill="#9BE7C4" stroke="#171753" stroke-width="0.3" stroke-miterlimit="10" stroke-linejoin="round"/>
<path d="M28.6636 29.6473L25.358 27.7405L25.358 31.5541L28.6636 33.4609L28.6636 29.6473Z" fill="#9BE7C4" stroke="#171753" stroke-width="0.3" stroke-miterlimit="10" stroke-linejoin="round"/>
<path d="M19.7653 29.8886L16.4597 27.9818L16.4597 31.7954L19.7653 33.7022L19.7653 29.8886Z" fill="#9BE7C4" stroke="#171753" stroke-width="0.3" stroke-miterlimit="10" stroke-linejoin="round"/>
<path d="M24.2144 32.4615L20.9088 30.5547L20.9088 34.3683L24.2144 36.2751L24.2144 32.4615Z" fill="#9BE7C4" stroke="#171753" stroke-width="0.3" stroke-miterlimit="10" stroke-linejoin="round"/>
<path d="M28.6636 35.139L25.358 33.2322L25.358 37.0458L28.6636 38.9526L28.6636 35.139Z" fill="#9BE7C4" stroke="#171753" stroke-width="0.3" stroke-miterlimit="10" stroke-linejoin="round"/>
<rect width="5.22075" height="0.233765" transform="matrix(0.866025 0.5 -6.13305e-08 1 9.48652 17.7221)" fill="#171753"/>
<rect width="4.20777" height="0.233765" transform="matrix(0.866025 0.5 -6.13305e-08 1 9.48652 18.2675)" fill="#171753"/>
<rect width="5.84412" height="0.233765" transform="matrix(0.866025 0.5 -6.13305e-08 1 9.48652 18.813)" fill="#171753"/>
<rect width="4.20777" height="0.233765" transform="matrix(0.866025 0.5 -6.13305e-08 1 9.48652 21.0727)" fill="#171753"/>
<rect width="1.32467" height="0.233765" transform="matrix(0.866025 0.5 -6.13305e-08 1 9.48652 20.4493)" fill="#171753"/>
<rect width="1.32467" height="0.233765" transform="matrix(0.866025 0.5 -6.13305e-08 1 9.48652 22.4754)" fill="#171753"/>
<rect width="1.32467" height="0.233765" transform="matrix(0.866025 0.5 -6.13305e-08 1 9.48652 24.5013)" fill="#171753"/>
<rect width="5.84412" height="0.779216" transform="matrix(0.866025 0.5 -6.13305e-08 1 9.48652 23.3185)" stroke="#171753" stroke-width="0.3"/>
<rect width="5.84412" height="0.779216" transform="matrix(0.866025 0.5 -6.13305e-08 1 9.48652 25.4225)" stroke="#171753" stroke-width="0.3"/>
<path d="M9.48652 27.2006L12.1858 28.7591L12.1858 29.5383L9.48651 27.9798L9.48652 27.2006Z" fill="#BEF0ED"/>
<rect x="0.129904" y="0.225" width="5.77789" height="9.59352" transform="matrix(0.866025 0.5 -6.13305e-08 1 2.74218 13.9006)" fill="#BEF0ED" stroke="#171753" stroke-width="0.3"/>
<rect width="2.96102" height="0.233765" transform="matrix(0.866025 0.5 -6.13305e-08 1 9.48652 19.3585)" fill="#171753"/>
<circle cx="0.272726" cy="0.272726" r="0.272726" transform="matrix(0.866025 0.5 -6.13305e-08 1 9.48652 20.9169)" fill="#171753"/>
<circle cx="0.272726" cy="0.272726" r="0.272726" transform="matrix(0.866025 0.5 -6.13305e-08 1 12.8608 22.8649)" fill="#171753"/>
<rect width="29.7961" height="5.03213" transform="matrix(0.866025 0.501279 0 1 2.70713 25.6473)" fill="#BEF0ED" stroke="#171753" stroke-width="0.3"/>
</svg>
