<svg width="25" height="52" viewBox="0 0 25 52" fill="none" xmlns="http://www.w3.org/2000/svg">
<path d="M24.7067 49.801C24.8371 49.5397 24.9023 49.2131 24.9023 48.7885V15.4742C24.9023 14.1025 24.0874 12.5348 23.0444 11.9469L2.80319 0.319513C2.37946 0.0582244 1.98833 0.0255633 1.66238 0.188869C1.10827 0.384835 0.619354 0.84209 0.619354 0.84209L0.977894 1.36467C0.977894 1.46265 0.9453 1.59329 0.9453 1.69128V35.0382C0.9453 36.41 1.76016 37.9777 2.80319 38.5656L23.0444 50.1603L23.3703 50.8135C23.3703 50.8135 24.1852 50.6502 24.6415 49.8337C24.7067 49.8663 24.7067 49.8337 24.7067 49.801Z" fill="#171753"/>
<path d="M23.3052 51.0094L22.9467 50.2909L2.73804 38.6962C1.69502 38.0757 0.814963 36.4426 0.814963 35.0382V1.72389C0.814963 1.62591 0.814963 1.52792 0.814963 1.42994L0.423828 0.842041L0.521613 0.776719C0.554207 0.744058 1.04313 0.286803 1.59723 0.0908369C1.95577 -0.0724684 2.4121 -0.00714628 2.83583 0.221481L23.077 11.8162C24.1201 12.4367 25.0001 14.0698 25.0001 15.4742V48.8212C25.0001 49.2457 24.9349 49.605 24.772 49.899V49.9316C24.772 49.9316 24.772 49.9643 24.7394 49.9643C24.2504 50.8461 23.403 51.0094 23.3704 51.0094H23.3052ZM1.14091 1.20131L1.10831 1.39728C1.10831 1.52792 1.07572 1.62591 1.07572 1.72389V35.0708C1.07572 36.3773 1.89058 37.9124 2.86842 38.5003L23.1422 50.1276L23.4356 50.7155C23.6637 50.6502 24.1853 50.4215 24.5112 49.8336L24.5438 49.7683C24.6742 49.507 24.7394 49.1804 24.7394 48.8212V15.4742C24.7394 14.1678 23.9245 12.6327 22.9467 12.0448L2.73804 0.450109C2.34691 0.221481 2.02096 0.18882 1.72761 0.319464L1.66242 0.352125C1.30388 0.48277 0.977936 0.744058 0.814963 0.874703L1.04313 1.23397L1.14091 1.20131Z" fill="#171753"/>
<path d="M22.2622 50.7155L2.02098 39.1208C1.01054 38.5329 0.163086 36.9325 0.163086 35.5934V2.24649C0.163086 0.87473 0.97795 0.25417 2.02098 0.842069L22.2622 12.4367C23.2726 13.0246 24.1201 14.625 24.1201 15.9641V49.3111C24.1201 50.6829 23.2726 51.3034 22.2622 50.7155Z" fill="#171753"/>
<path d="M22.9793 51.0748C22.7185 51.0748 22.4578 51.0095 22.1644 50.8461L1.9232 39.2515C0.880175 38.6309 0.00012207 36.9978 0.00012207 35.5934V2.24647C0.00012207 1.4626 0.260879 0.874704 0.717202 0.613416C1.10834 0.384788 1.56466 0.417449 2.05358 0.711399L22.2948 12.3061C23.3378 12.9266 24.2179 14.5597 24.2179 15.9641V49.3111C24.2179 50.0949 23.9571 50.6828 23.5008 50.9441C23.3704 51.0421 23.1748 51.0748 22.9793 51.0748ZM1.27131 0.74406C1.10834 0.74406 0.977959 0.776721 0.880175 0.842043C0.521635 1.03801 0.293473 1.56059 0.293473 2.21381V35.5608C0.293473 36.8672 1.10834 38.4023 2.08617 38.9902L22.3274 50.5849C22.7185 50.8135 23.1097 50.8461 23.403 50.6828C23.7615 50.4869 23.9897 49.9643 23.9897 49.3111V15.9641C23.9897 14.6577 23.1748 13.1226 22.197 12.5347L1.9232 0.940026C1.69504 0.809382 1.46688 0.74406 1.27131 0.74406Z" fill="#171753"/>
<path d="M21.6755 12.8939L1.7928 1.49519C1.27129 1.20124 0.880157 1.46253 0.880157 2.05042V35.6587C0.880157 36.7365 1.66243 38.1082 2.60767 38.6308L22.4903 50.0295C23.0119 50.3235 23.4356 50.0949 23.4356 49.4743V15.8661C23.403 14.7882 22.6207 13.4491 21.6755 12.8939Z" fill="#FFC78F"/>
<path d="M22.8815 50.2909C22.7185 50.2909 22.5555 50.2582 22.3925 50.1603L2.50986 38.7615C1.53203 38.2063 0.717163 36.8019 0.717163 35.6587V2.0505C0.717163 1.72389 0.847541 1.4626 1.0757 1.33196C1.30386 1.20131 1.56462 1.23397 1.85797 1.39728L21.7406 12.796C22.7185 13.3512 23.5333 14.7557 23.5333 15.8988V49.507C23.5333 49.8336 23.403 50.0949 23.1748 50.2256C23.1096 50.2909 22.9792 50.2909 22.8815 50.2909ZM1.36905 1.52792C1.30386 1.52792 1.23868 1.52792 1.20608 1.56058C1.0757 1.62591 1.01051 1.82187 1.01051 2.0505V35.6587C1.01051 36.7039 1.76019 38.0103 2.67284 38.5329L22.5555 49.9316C22.7511 50.0623 22.9466 50.0623 23.077 49.9969C23.2074 49.9316 23.2726 49.7357 23.2726 49.507V15.8661C23.2726 14.821 22.5229 13.5145 21.6103 12.992L1.72759 1.59324C1.59722 1.56058 1.49943 1.52792 1.36905 1.52792Z" fill="#171753"/>
<path d="M22.6859 49.8989L2.80321 38.5002C1.85796 37.9449 1.07569 36.6058 1.07569 35.528V1.88712C1.07569 1.65849 1.0757 1.59317 1.17348 1.46252C0.945318 1.52785 0.847534 1.65849 0.847534 2.01776V35.626C0.847534 36.7038 1.6298 38.0756 2.57504 38.5982L22.4577 49.9969C22.7837 50.1928 22.9792 50.1275 23.1422 49.9315C22.9792 49.9969 22.8814 49.9969 22.6859 49.8989Z" fill="#171753"/>
<path d="M22.7837 50.2909C22.6533 50.2909 22.5229 50.2582 22.3599 50.1602L2.47727 38.7615C1.49943 38.2063 0.68457 36.8018 0.68457 35.6587V2.05047C0.68457 1.65854 0.814948 1.42991 1.1083 1.36459L1.56462 1.23395L1.27127 1.59322C1.20608 1.65854 1.20608 1.6912 1.20608 1.91983V35.5281C1.20608 36.5732 1.95576 37.8797 2.8684 38.4022L22.7511 49.801C22.9141 49.8989 22.9792 49.8989 23.1096 49.8663L23.5659 49.7356L23.2726 50.0949C23.1096 50.1929 22.9792 50.2909 22.7837 50.2909Z" fill="#171753"/>
<path d="M23.7289 14.0371L23.6312 13.9065L24.3808 13.4819L24.446 13.6452L23.7289 14.0371Z" fill="#FFC78F"/>
<path d="M1.95579 0.809388L1.858 0.711405C1.858 0.711405 2.18395 0.352134 2.67287 0.25415L2.70546 0.417456C2.24914 0.482778 1.98838 0.809388 1.95579 0.809388Z" fill="#FFC78F"/>
<path d="M2.3469 1.03797L2.21652 0.939982C2.21652 0.939982 2.54247 0.58071 3.03139 0.482727L3.06398 0.613371C2.64025 0.711355 2.3469 1.03797 2.3469 1.03797Z" fill="#FFC78F"/>
<path d="M24.7199 14.4886L23.9903 14.8521L24.0629 14.9983L24.7925 14.6348L24.7199 14.4886Z" fill="#FFC78F"/>
<path d="M24.2178 48.1352L24.1526 48.0046C24.1526 48.0046 24.609 47.7433 24.8697 47.5146L24.9675 47.6453C24.7068 47.8739 24.2178 48.1025 24.2178 48.1352Z" fill="#FFC78F"/>
<path d="M24.2178 49.3112L24.1526 49.1805C24.1526 49.1805 24.609 48.9192 24.8697 48.6906L24.9675 48.8213C24.7068 49.0499 24.2178 49.3112 24.2178 49.3112Z" fill="#FFC78F"/>
<path d="M24.2178 49.8011L24.1526 49.6705C24.1526 49.6705 24.609 49.4092 24.8697 49.1805L24.9675 49.3112C24.7068 49.5398 24.2178 49.7684 24.2178 49.8011Z" fill="#FFC78F"/>
<path d="M24.5438 26.5462C24.4134 26.6442 24.3156 26.5462 24.3156 26.4156V24.7172C24.3156 24.5539 24.4134 24.3906 24.5112 24.3253L24.5438 24.2926C24.6416 24.2273 24.7394 24.2926 24.7394 24.4559V26.1543C24.7394 26.3176 24.6416 26.4809 24.5438 26.5462Z" fill="#171753"/>
<path d="M24.4134 26.6768C24.3808 26.6768 24.3482 26.6768 24.3156 26.6442C24.2504 26.6115 24.2178 26.5135 24.2178 26.4155V24.7172C24.2178 24.5212 24.3156 24.3252 24.4786 24.2599L24.5112 24.2273C24.5764 24.1946 24.6742 24.1946 24.7394 24.2273C24.8046 24.2599 24.8371 24.3579 24.8371 24.4559V26.1543C24.8371 26.3502 24.7394 26.5462 24.5764 26.6115L24.5438 26.6442C24.5112 26.6442 24.446 26.6768 24.4134 26.6768ZM24.609 24.3252H24.5764L24.5438 24.3579C24.446 24.4232 24.3808 24.5539 24.3808 24.6845V26.4155C24.3808 26.4809 24.3808 26.5135 24.4134 26.5135C24.4134 26.5135 24.446 26.5135 24.4786 26.5135L24.5112 26.4809C24.609 26.4155 24.6742 26.2849 24.6742 26.1543V24.4559C24.6416 24.3906 24.6416 24.3579 24.609 24.3252Z" fill="#FFC78F"/>
<path d="M24.5438 23.8029C24.4134 23.9009 24.3156 23.8029 24.3156 23.6723V21.9739C24.3156 21.8106 24.4134 21.6473 24.5112 21.582L24.5438 21.5493C24.6416 21.484 24.7394 21.5493 24.7394 21.7126V23.411C24.7394 23.5743 24.6416 23.7376 24.5438 23.8029Z" fill="#171753"/>
<path d="M24.4134 23.9334C24.3808 23.9334 24.3482 23.9334 24.3156 23.9007C24.2504 23.868 24.2178 23.7701 24.2178 23.6721V21.9737C24.2178 21.7777 24.3156 21.5818 24.4786 21.5164L24.5112 21.4838C24.5764 21.4511 24.6742 21.4511 24.7393 21.4838C24.8045 21.5164 24.8371 21.6144 24.8371 21.7124V23.4108C24.8371 23.6068 24.7393 23.8027 24.5764 23.868L24.5438 23.9007C24.5112 23.9007 24.446 23.9334 24.4134 23.9334Z" fill="#FFC78F"/>
<path d="M24.5438 20.6675C24.4134 20.7654 24.3156 20.6675 24.3156 20.5368V19.557C24.3156 19.3937 24.4134 19.2304 24.5112 19.1651L24.5438 19.1324C24.6416 19.0671 24.7394 19.1324 24.7394 19.2957V20.2429C24.7394 20.4388 24.6416 20.6021 24.5438 20.6675Z" fill="#171753"/>
<path d="M24.4134 20.7981C24.3808 20.7981 24.3482 20.7981 24.3156 20.7654C24.2504 20.7328 24.2178 20.6348 24.2178 20.5368V19.557C24.2178 19.361 24.3156 19.165 24.4786 19.0997L24.5112 19.067C24.5764 19.0344 24.6742 19.0344 24.7394 19.067C24.8046 19.0997 24.8371 19.1977 24.8371 19.2957V20.2428C24.8371 20.4388 24.7394 20.6348 24.5764 20.7001L24.5438 20.7328C24.5112 20.7654 24.446 20.7981 24.4134 20.7981ZM24.609 19.1977H24.5764L24.5438 19.2303C24.446 19.2957 24.3808 19.4263 24.3808 19.557V20.5368C24.3808 20.6021 24.3808 20.6348 24.4134 20.6348C24.446 20.6348 24.446 20.6348 24.4786 20.6348L24.5112 20.6021C24.609 20.5368 24.6742 20.4061 24.6742 20.2755V19.3283C24.6416 19.263 24.6416 19.2303 24.609 19.1977Z" fill="#FFC78F"/>
<path d="M24.5438 19.9163C24.4134 20.0142 24.3156 19.9163 24.3156 19.7856V19.557C24.3156 19.3937 24.4134 19.2304 24.5112 19.1651L24.5438 19.1324C24.6416 19.0671 24.7394 19.1324 24.7394 19.2957V19.5243C24.7394 19.6876 24.6416 19.8509 24.5438 19.9163Z" fill="#FFC78F"/>
<path d="M24.4134 20.0469C24.3808 20.0469 24.3482 20.0469 24.3156 20.0142C24.2504 19.9815 24.2178 19.8836 24.2178 19.7856V19.557C24.2178 19.361 24.3156 19.165 24.4786 19.0997L24.5112 19.067C24.5764 19.0344 24.6742 19.0344 24.7394 19.067C24.8046 19.0997 24.8371 19.1977 24.8371 19.2957V19.5243C24.8371 19.7203 24.7394 19.9162 24.5764 19.9815L24.5438 20.0142C24.5112 20.0469 24.446 20.0469 24.4134 20.0469ZM24.609 19.1977H24.5764L24.5438 19.2303C24.446 19.2957 24.3808 19.4263 24.3808 19.557V19.7856C24.3808 19.8509 24.3808 19.8836 24.4134 19.8836C24.446 19.8836 24.446 19.8836 24.4786 19.8836L24.5112 19.8509C24.609 19.7856 24.6742 19.6549 24.6742 19.5243V19.2957C24.6416 19.263 24.6416 19.2303 24.609 19.1977Z" fill="#FFC78F"/>
<path d="M24.1519 13.0846L23.4232 13.5181L23.5064 13.6585L24.2351 13.225L24.1519 13.0846Z" fill="#FFC78F"/>
<path d="M24.5438 42.387C24.4134 42.485 24.3156 42.387 24.3156 42.2563V38.8923C24.3156 38.7289 24.4134 38.5656 24.5112 38.5003L24.5438 38.4677C24.6416 38.4023 24.7394 38.4677 24.7394 38.631V41.9951C24.7394 42.1257 24.6416 42.3217 24.5438 42.387Z" fill="#171753"/>
<path d="M24.4134 42.5175C24.3808 42.5175 24.3482 42.5175 24.3156 42.4848C24.2504 42.4522 24.2178 42.3542 24.2178 42.2562V38.8921C24.2178 38.6961 24.3156 38.5002 24.4786 38.4348L24.5112 38.4022C24.5764 38.3695 24.6742 38.3695 24.7393 38.4022C24.8045 38.4348 24.8371 38.5328 24.8371 38.6308V41.9949C24.8371 42.1909 24.7393 42.3868 24.5764 42.4522L24.5438 42.4848C24.5112 42.4848 24.446 42.5175 24.4134 42.5175Z" fill="#FFC78F"/>
<path d="M24.4134 41.8316C24.4134 41.897 24.446 41.897 24.5112 41.897C24.5438 41.8643 24.609 41.799 24.609 41.7337C24.609 41.6683 24.5764 41.6683 24.5112 41.6683C24.4786 41.7337 24.4134 41.799 24.4134 41.8316Z" fill="#FFC78F"/>
<path d="M18.1879 9.59537C18.0575 9.69336 18.0575 9.79134 18.1879 9.85666L19.6872 10.7059C19.8176 10.7712 20.0132 10.7712 20.1436 10.7059L20.1762 10.6732C20.2739 10.6079 20.2739 10.4772 20.1436 10.4119L18.6442 9.56271C18.4812 9.53005 18.2857 9.53005 18.1879 9.59537Z" fill="#171753"/>
<path d="M19.9154 10.8691C19.8176 10.8691 19.7198 10.8364 19.622 10.8037L18.1227 9.95455C18.0249 9.88923 17.9597 9.82391 17.9597 9.72592C17.9597 9.6606 17.9923 9.59528 18.0901 9.52996L18.1227 9.49729C18.2531 9.43197 18.4812 9.43197 18.6442 9.49729L20.1436 10.3465C20.2413 10.4118 20.3065 10.4771 20.3065 10.5751C20.3065 10.6404 20.2739 10.7058 20.1761 10.7711L20.1436 10.8037C20.0784 10.8364 20.0132 10.8691 19.9154 10.8691ZM18.2205 9.6606C18.1879 9.69326 18.1553 9.69326 18.1553 9.72592C18.1553 9.75858 18.1879 9.75858 18.2205 9.79124L19.7198 10.6404C19.8176 10.7058 19.9806 10.7058 20.0784 10.6404L20.111 10.6078L20.1436 10.5751C20.1436 10.5424 20.111 10.5424 20.0784 10.5098L18.579 9.6606C18.4812 9.62794 18.3183 9.62794 18.2205 9.6606Z" fill="#FFC78F"/>
<path d="M5.11743 2.11586L5.08483 2.14852C4.95446 2.24651 4.95445 2.37715 5.11743 2.47514L5.18262 2.5078C5.34559 2.60578 5.60635 2.60578 5.73672 2.54046L5.76932 2.5078C5.8997 2.40981 5.8997 2.27917 5.73672 2.18119L5.67153 2.14852C5.50856 2.05054 5.2804 2.01788 5.11743 2.11586Z" fill="#171753"/>
<path d="M5.50861 2.63853C5.37823 2.63853 5.24785 2.60587 5.15007 2.54055L5.08488 2.50789C4.9545 2.44256 4.88931 2.34458 4.88931 2.2466C4.88931 2.14862 4.92191 2.08329 5.01969 2.01797L5.05229 1.98531C5.21526 1.88733 5.50861 1.88733 5.70418 2.01797L5.76936 2.05063C5.89974 2.11595 5.96493 2.21394 5.96493 2.31192C5.96493 2.4099 5.93234 2.47523 5.83455 2.54055L5.80196 2.57321C5.73677 2.63853 5.60639 2.63853 5.50861 2.63853ZM5.37823 2.14862C5.31304 2.14862 5.21526 2.14862 5.18266 2.18128L5.11747 2.21394C5.08488 2.21394 5.05229 2.2466 5.05229 2.27926C5.05229 2.31192 5.08488 2.34458 5.15007 2.4099L5.21526 2.44256C5.37823 2.54055 5.60639 2.54055 5.70418 2.47523L5.76936 2.4099C5.80196 2.4099 5.83455 2.37724 5.83455 2.34458C5.83455 2.31192 5.80196 2.27926 5.73677 2.21394L5.67158 2.18128C5.5738 2.14862 5.47601 2.14862 5.37823 2.14862Z" fill="#FFC78F"/>
<path d="M5.83457 2.4752C5.80198 2.44254 5.76938 2.44254 5.76938 2.40987L5.7042 2.37721C5.54122 2.27923 5.28047 2.27923 5.15009 2.34455L5.11749 2.37721C5.11749 2.37721 5.0849 2.37721 5.0849 2.40987C4.98712 2.31189 4.98712 2.21391 5.11749 2.14859V2.11592C5.24787 2.01794 5.50863 2.0506 5.6716 2.14859H5.76938C5.89976 2.24657 5.93236 2.37721 5.83457 2.4752Z" fill="#171753"/>
<path d="M5.83458 2.57308L5.76939 2.54042C5.7368 2.50776 5.7368 2.50776 5.70421 2.50776L5.63901 2.4751C5.47604 2.37711 5.28047 2.37711 5.1501 2.44244L5.05231 2.50776L5.01972 2.4751C4.95453 2.40977 4.92194 2.34445 4.92194 2.24647C4.92194 2.18115 4.98713 2.11582 5.05231 2.0505L5.08491 2.01784C5.24788 1.91986 5.54123 1.91986 5.7368 2.0505L5.80199 2.08316C5.93237 2.14849 5.99755 2.24647 5.99755 2.31179C5.99755 2.37711 5.96496 2.4751 5.89977 2.50776L5.83458 2.57308ZM5.37826 2.24647C5.50864 2.24647 5.63902 2.27913 5.7368 2.34445L5.80199 2.37711H5.83458C5.83458 2.37711 5.83458 2.37711 5.83458 2.34445C5.83458 2.31179 5.80199 2.27913 5.7368 2.24647L5.67161 2.21381C5.50864 2.11582 5.31307 2.11582 5.18269 2.18115L5.1175 2.21381C5.08491 2.21381 5.05231 2.24647 5.05231 2.27913V2.31179C5.1501 2.24647 5.28048 2.24647 5.37826 2.24647Z" fill="#FFC78F"/>
<path d="M5.57369 8.22314L14.8305 13.5795C15.0261 13.6775 15.1565 13.5795 15.1565 13.3183C15.1565 13.057 14.9935 12.7957 14.8305 12.665L5.57369 7.34129C5.37812 7.2433 5.24774 7.34129 5.24774 7.60258C5.24774 7.8312 5.37812 8.12515 5.57369 8.22314Z" fill="#FFC78F"/>
<path d="M14.9609 13.7429C14.8957 13.7429 14.8305 13.7102 14.7654 13.6775L5.5085 8.32113C5.28034 8.19049 5.11737 7.86388 5.11737 7.56993C5.11737 7.40662 5.18256 7.27598 5.28034 7.21066C5.37813 7.14533 5.47591 7.17799 5.60629 7.24332L14.8957 12.5997C15.1239 12.7304 15.2869 13.057 15.2869 13.3509C15.2869 13.5142 15.2217 13.6449 15.1239 13.7102C15.0587 13.7102 15.0261 13.7429 14.9609 13.7429ZM5.63888 8.12516L14.8957 13.4816C14.9283 13.4816 14.9609 13.5142 15.0261 13.5142C15.0587 13.4816 15.0913 13.4489 15.0913 13.3183C15.0913 13.1223 14.9609 12.861 14.7979 12.763L5.5085 7.40662C5.47591 7.40662 5.44332 7.37396 5.37813 7.37396C5.34553 7.40662 5.31294 7.43928 5.31294 7.56993C5.34553 7.79855 5.47591 8.05984 5.63888 8.12516Z" fill="#171753"/>
<path d="M3.74838 6.75334C3.74838 7.01463 3.91136 7.30858 4.13952 7.43923C4.36768 7.56987 4.53065 7.47189 4.53065 7.2106C4.53065 6.94931 4.36768 6.65536 4.13952 6.52472C3.94395 6.39407 3.74838 6.49206 3.74838 6.75334Z" fill="#FFC78F"/>
<path d="M4.33512 7.60262C4.26993 7.60262 4.17215 7.56996 4.10696 7.5373C3.8462 7.40665 3.65063 7.04738 3.65063 6.75343C3.65063 6.59012 3.71582 6.45948 3.81361 6.39416C3.91139 6.32884 4.07436 6.32884 4.20474 6.42682C4.4655 6.55746 4.66107 6.91674 4.66107 7.21069C4.66107 7.37399 4.59588 7.50463 4.49809 7.56996C4.4329 7.60262 4.40031 7.60262 4.33512 7.60262ZM3.97658 6.59012C3.94399 6.59012 3.94399 6.59012 3.91139 6.59012C3.8788 6.62279 3.8462 6.68811 3.8462 6.75343C3.8462 6.98206 4.00917 7.24335 4.20474 7.34133C4.26993 7.37399 4.33512 7.40665 4.36771 7.37399C4.40031 7.34133 4.4329 7.27601 4.4329 7.21069C4.4329 6.98206 4.26993 6.72077 4.07436 6.62279C4.04177 6.59012 4.00917 6.59012 3.97658 6.59012Z" fill="#171753"/>
<path d="M14.9609 15.7025C14.8957 15.7025 14.8305 15.6698 14.7654 15.6372L5.5085 10.3134C5.28034 10.1828 5.11737 9.85616 5.11737 9.56221C5.11737 9.3989 5.18256 9.26826 5.28034 9.20294C5.37813 9.13761 5.47591 9.13761 5.60629 9.2356L14.8957 14.5594C15.1239 14.69 15.2869 15.0166 15.2869 15.3106C15.2869 15.4739 15.2217 15.6045 15.1239 15.6698C15.0587 15.7025 15.0261 15.7025 14.9609 15.7025ZM5.63888 10.1174L14.8957 15.4739C14.9283 15.4739 14.9609 15.5065 15.0261 15.5065C15.0587 15.4739 15.0913 15.4412 15.0913 15.3106C15.0913 15.1146 14.9609 14.8533 14.7979 14.7553L5.5085 9.3989C5.47591 9.3989 5.44332 9.36624 5.37813 9.36624C5.34553 9.3989 5.31294 9.43156 5.31294 9.56221C5.34553 9.79083 5.47591 10.0195 5.63888 10.1174Z" fill="#171753"/>
<path d="M3.74841 8.74553C3.74841 9.00682 3.91139 9.30077 4.13955 9.43141C4.36771 9.56206 4.53068 9.46408 4.53068 9.20279C4.53068 8.9415 4.36771 8.64755 4.13955 8.51691C3.94398 8.38626 3.74841 8.48424 3.74841 8.74553Z" fill="#FFC78F"/>
<path d="M4.33515 9.59474C4.26996 9.59474 4.17218 9.56208 4.10699 9.52942C3.84623 9.39878 3.65067 9.03951 3.65067 8.74556C3.65067 8.58225 3.71585 8.45161 3.81364 8.38628C3.91142 8.32096 4.07439 8.32096 4.20477 8.41895C4.46553 8.54959 4.6611 8.90886 4.6611 9.20281C4.6611 9.36612 4.59591 9.49676 4.49812 9.56208C4.43293 9.56208 4.40034 9.59474 4.33515 9.59474ZM3.97661 8.54959C3.94402 8.54959 3.94402 8.54959 3.91142 8.54959C3.87883 8.58225 3.84623 8.64757 3.84623 8.7129C3.84623 8.94152 4.0092 9.20281 4.20477 9.3008C4.26996 9.33346 4.33515 9.36612 4.36774 9.33346C4.40034 9.3008 4.43293 9.23547 4.43293 9.17015C4.43293 8.94152 4.26996 8.68023 4.0744 8.58225C4.0418 8.58225 4.00921 8.54959 3.97661 8.54959Z" fill="#171753"/>
<path d="M5.57369 12.175L14.8305 17.5314C15.0261 17.6294 15.1565 17.5314 15.1565 17.2701C15.1565 17.0088 14.9935 16.7475 14.8305 16.6169L5.57369 11.2931C5.37812 11.1951 5.24774 11.2931 5.24774 11.5544C5.24774 11.783 5.37812 12.077 5.57369 12.175Z" fill="#FFC78F"/>
<path d="M14.9609 17.6946C14.8957 17.6946 14.8305 17.662 14.7654 17.6293L5.5085 12.2729C5.28034 12.1422 5.11737 11.8156 5.11737 11.5217C5.11737 11.3584 5.18256 11.2277 5.28034 11.1624C5.37813 11.0971 5.47591 11.0971 5.60629 11.1951L14.8957 16.5515C15.1239 16.6821 15.2869 17.0087 15.2869 17.3027C15.2869 17.466 15.2217 17.5966 15.1239 17.662C15.0587 17.662 15.0261 17.6946 14.9609 17.6946ZM5.63888 12.1096L14.8957 17.4333C14.9283 17.4333 14.9609 17.466 15.0261 17.466C15.0587 17.4333 15.0913 17.4007 15.0913 17.27C15.0913 17.0741 14.9609 16.8128 14.7979 16.7148L5.5085 11.391C5.47591 11.391 5.44332 11.3584 5.37813 11.3584C5.34553 11.391 5.31294 11.4237 5.31294 11.5543C5.34553 11.7503 5.47591 12.0116 5.63888 12.1096Z" fill="#FFC78F"/>
<path d="M3.74838 10.7052C3.74838 10.9665 3.91136 11.2605 4.13952 11.3911C4.36768 11.5218 4.53065 11.4238 4.53065 11.1625C4.53065 10.9012 4.36768 10.6073 4.13952 10.4766C3.94395 10.346 3.74838 10.444 3.74838 10.7052Z" fill="#171753"/>
<path d="M4.33512 11.5545C4.26993 11.5545 4.17215 11.5218 4.10696 11.4891C3.8462 11.3585 3.65063 10.9992 3.65063 10.7053C3.65063 10.542 3.71582 10.4113 3.81361 10.346C3.91139 10.2807 4.07436 10.2807 4.20474 10.3787C4.4655 10.5093 4.66107 10.8686 4.66107 11.1625C4.66107 11.3258 4.59588 11.4565 4.49809 11.5218C4.4329 11.5545 4.40031 11.5545 4.33512 11.5545ZM3.97658 10.542C3.94399 10.542 3.94399 10.542 3.91139 10.542C3.8788 10.5746 3.8462 10.64 3.8462 10.7053C3.8462 10.9339 4.00917 11.1952 4.20474 11.2932C4.26993 11.3258 4.33512 11.3585 4.36771 11.3258C4.40031 11.2932 4.4329 11.2279 4.4329 11.1625C4.4329 10.9339 4.26993 10.6726 4.07436 10.5746C4.04177 10.542 4.00917 10.542 3.97658 10.542Z" fill="#171753"/>
<path d="M5.57369 14.1347L14.8305 19.4911C15.0261 19.5891 15.1565 19.4911 15.1565 19.2298C15.1565 18.9685 14.9935 18.7072 14.8305 18.5766L5.57369 13.2528C5.37812 13.1549 5.24774 13.2528 5.24774 13.5141C5.24774 13.7428 5.37812 14.0367 5.57369 14.1347Z" fill="#FFC78F"/>
<path d="M14.9609 19.6543C14.8957 19.6543 14.8305 19.6217 14.7654 19.589L5.5085 14.2326C5.28034 14.102 5.11737 13.7753 5.11737 13.4814C5.11737 13.3181 5.18256 13.1874 5.28034 13.1221C5.37813 13.0568 5.47591 13.0568 5.60629 13.1548L14.8957 18.5112C15.1239 18.6418 15.2869 18.9685 15.2869 19.2624C15.2869 19.4257 15.2217 19.5564 15.1239 19.6217C15.0587 19.6217 15.0261 19.6543 14.9609 19.6543ZM5.63888 14.0366L14.8957 19.393C14.9283 19.393 14.9609 19.4257 15.0261 19.4257C15.0587 19.393 15.0913 19.3604 15.0913 19.2297C15.0913 19.0338 14.9609 18.7725 14.7979 18.6745L5.5085 13.3181C5.47591 13.3181 5.44332 13.2854 5.37813 13.2854C5.34553 13.3181 5.31294 13.3508 5.31294 13.4814C5.34553 13.71 5.47591 13.9713 5.63888 14.0366Z" fill="#171753"/>
<path d="M4.33512 13.5142C4.26993 13.5142 4.17215 13.4815 4.10696 13.4489C3.8462 13.3182 3.65063 12.9589 3.65063 12.665C3.65063 12.5017 3.71582 12.371 3.81361 12.3057C3.91139 12.2404 4.07436 12.2404 4.20474 12.3384C4.4655 12.469 4.66107 12.8283 4.66107 13.1222C4.66107 13.2855 4.59588 13.4162 4.49809 13.4815C4.4329 13.5142 4.40031 13.5142 4.33512 13.5142ZM3.97658 12.5017C3.94399 12.5017 3.94399 12.5017 3.91139 12.5017C3.8788 12.5343 3.8462 12.5997 3.8462 12.665C3.8462 12.8936 4.00917 13.1549 4.20474 13.2529C4.26993 13.2856 4.33512 13.3182 4.36771 13.2855C4.40031 13.2529 4.4329 13.1876 4.4329 13.1222C4.4329 12.8936 4.26993 12.6323 4.07436 12.5343C4.04177 12.5017 4.00917 12.5017 3.97658 12.5017Z" fill="#171753"/>
<path d="M5.57369 16.1271L14.8305 21.4835C15.0261 21.5815 15.1565 21.4835 15.1565 21.2222C15.1565 20.9609 14.9935 20.6996 14.8305 20.569L5.57369 15.2126C5.37812 15.1146 5.24774 15.2126 5.24774 15.4739C5.24774 15.7351 5.37812 15.9964 5.57369 16.1271Z" fill="#FFC78F"/>
<path d="M14.9609 21.6142C14.8957 21.6142 14.8305 21.5815 14.7654 21.5489L5.5085 16.2251C5.28034 16.0945 5.11737 15.7679 5.11737 15.4739C5.11737 15.3106 5.18256 15.18 5.28034 15.1146C5.37813 15.0493 5.47591 15.082 5.60629 15.1473L14.8957 20.4711C15.1239 20.6017 15.2869 20.9283 15.2869 21.2223C15.2869 21.3856 15.2217 21.5162 15.1239 21.5815C15.0587 21.6142 15.0261 21.6142 14.9609 21.6142ZM5.63888 16.0292L14.8957 21.3856C14.9283 21.3856 14.9609 21.4182 15.0261 21.4182C15.0587 21.3856 15.0913 21.3529 15.0913 21.2223C15.0913 21.0263 14.9609 20.765 14.7979 20.667L5.5085 15.3106C5.47591 15.3106 5.44332 15.278 5.37813 15.278C5.34553 15.3106 5.31294 15.3433 5.31294 15.4739C5.34553 15.6699 5.47591 15.9312 5.63888 16.0292Z" fill="#171753"/>
<path d="M3.74838 14.6572C3.74838 14.9184 3.91136 15.2124 4.13952 15.343C4.36768 15.4737 4.53065 15.3757 4.53065 15.1144C4.53065 14.8531 4.36768 14.5592 4.13952 14.4285C3.94395 14.2979 3.74838 14.3959 3.74838 14.6572Z" fill="#FFC78F"/>
<path d="M4.33512 15.5064C4.26993 15.5064 4.17215 15.4737 4.10696 15.441C3.8462 15.3104 3.65063 14.9511 3.65063 14.6572C3.65063 14.4939 3.71582 14.3632 3.81361 14.2979C3.91139 14.2326 4.07436 14.2326 4.20474 14.3306C4.4655 14.4612 4.66107 14.8205 4.66107 15.1144C4.66107 15.2777 4.59588 15.4084 4.49809 15.4737C4.4329 15.4737 4.40031 15.5064 4.33512 15.5064ZM3.97658 14.4612C3.94399 14.4612 3.94399 14.4612 3.91139 14.4612C3.8788 14.4939 3.8462 14.5592 3.8462 14.6245C3.8462 14.8531 4.00917 15.1144 4.20474 15.2124C4.26993 15.2451 4.33512 15.2777 4.36771 15.2451C4.40031 15.2124 4.4329 15.1471 4.4329 15.0818C4.4329 14.8531 4.26993 14.5919 4.07436 14.4939C4.04177 14.4939 4.00917 14.4612 3.97658 14.4612Z" fill="#171753"/>
<path d="M10.8541 22.5944L20.111 27.9508C20.3065 28.0488 20.4369 27.9508 20.4369 27.6895C20.4369 27.4282 20.2739 27.1669 20.111 27.0363L10.8541 21.6798C10.6585 21.5819 10.5282 21.6798 10.5282 21.9411C10.5282 22.2024 10.6585 22.4964 10.8541 22.5944Z" fill="#FFC78F"/>
<path d="M20.2414 28.0812C20.1762 28.0812 20.111 28.0486 20.0458 28.0159L10.8215 22.6922C10.5934 22.5615 10.4304 22.2349 10.4304 21.941C10.4304 21.7777 10.4956 21.647 10.5934 21.5817C10.6912 21.5164 10.7889 21.549 10.9193 21.6144L20.1762 26.9708C20.4043 27.1014 20.5673 27.428 20.5673 27.722C20.5673 27.8853 20.5021 28.0159 20.4043 28.0812C20.3391 28.0812 20.3066 28.0812 20.2414 28.0812ZM10.9193 22.4962L20.1762 27.8526C20.2088 27.8526 20.2414 27.8853 20.3066 27.8853C20.3391 27.8526 20.3717 27.82 20.3717 27.6893C20.3717 27.4933 20.2414 27.2321 20.0784 27.1341L10.8215 21.7777C10.7889 21.7777 10.7563 21.745 10.6912 21.745C10.6586 21.7777 10.626 21.8103 10.626 21.941C10.626 22.1696 10.7564 22.3982 10.9193 22.4962Z" fill="#171753"/>
<path d="M9.72862 21.8251C9.88451 21.7349 9.88685 21.4465 9.73383 21.181C9.58082 20.9154 9.3304 20.7732 9.17451 20.8634C9.01862 20.9536 9.01628 21.242 9.1693 21.5076C9.32231 21.7731 9.57273 21.9153 9.72862 21.8251Z" fill="#FFC78F"/>
<path d="M9.61555 21.9735C9.55036 21.9735 9.45257 21.9409 9.38738 21.9082C9.12663 21.7776 8.93106 21.4183 8.93106 21.1243C8.93106 20.961 8.99625 20.8304 9.09403 20.7651C9.19182 20.6997 9.35479 20.6997 9.48517 20.7977C9.74593 20.9284 9.94149 21.2876 9.94149 21.5816C9.94149 21.7449 9.8763 21.8755 9.77852 21.9409C9.71333 21.9409 9.68074 21.9735 9.61555 21.9735ZM9.25701 20.9284C9.22441 20.9284 9.22441 20.9284 9.19182 20.9284C9.15922 20.961 9.12663 21.0264 9.12663 21.0917C9.12663 21.3203 9.2896 21.5816 9.48517 21.6796C9.55036 21.7122 9.61555 21.7449 9.64814 21.7122C9.68074 21.6796 9.71333 21.6143 9.71333 21.5489C9.71333 21.3203 9.55036 21.059 9.35479 20.961C9.35479 20.961 9.2896 20.9284 9.25701 20.9284Z" fill="#171753"/>
<path d="M20.2414 30.0735C20.1762 30.0735 20.111 30.0408 20.0458 30.0081L10.8216 24.6517C10.5934 24.5211 10.4304 24.1945 10.4304 23.9005C10.4304 23.7372 10.4956 23.6066 10.5934 23.5413C10.6912 23.4759 10.789 23.4759 10.9193 23.5739L20.1762 28.9303C20.4043 29.061 20.5673 29.3876 20.5673 29.6815C20.5673 29.8448 20.5021 29.9755 20.4044 30.0408C20.3392 30.0735 20.3066 30.0735 20.2414 30.0735ZM10.9193 24.4884L20.1762 29.8448C20.2088 29.8448 20.2414 29.8775 20.3066 29.8775C20.3392 29.8448 20.3718 29.8122 20.3718 29.6815C20.3718 29.4856 20.2414 29.2243 20.0784 29.1263L10.8216 23.7699C10.789 23.7699 10.7564 23.7372 10.6912 23.7372C10.6586 23.7699 10.626 23.8025 10.626 23.9332C10.626 24.1292 10.7564 24.3904 10.9193 24.4884Z" fill="#171753"/>
<path d="M9.02887 23.0842C9.02887 23.3454 9.19184 23.6394 9.42 23.77C9.64816 23.9007 9.81114 23.8027 9.81114 23.5414C9.81114 23.2801 9.64816 22.9862 9.42 22.8555C9.22444 22.7575 9.02887 22.8555 9.02887 23.0842Z" fill="#FFC78F"/>
<path d="M9.61555 23.9332C9.55036 23.9332 9.45257 23.9006 9.38738 23.8679C9.12663 23.7373 8.93106 23.378 8.93106 23.0841C8.93106 22.9208 8.99625 22.7901 9.09403 22.7248C9.19182 22.6595 9.35479 22.6595 9.48517 22.7574C9.74593 22.8881 9.94149 23.2474 9.94149 23.5413C9.94149 23.7046 9.8763 23.8353 9.77852 23.9006C9.71333 23.9332 9.68074 23.9332 9.61555 23.9332ZM9.25701 22.9208C9.22441 22.9208 9.22441 22.9208 9.19182 22.9208C9.15922 22.9534 9.12663 23.0187 9.12663 23.0841C9.12663 23.3127 9.2896 23.574 9.48517 23.672C9.55036 23.7046 9.61555 23.7373 9.64814 23.7046C9.68074 23.672 9.71333 23.6066 9.71333 23.5413C9.71333 23.3127 9.55036 23.0514 9.35479 22.9534C9.35479 22.9208 9.2896 22.9208 9.25701 22.9208Z" fill="#171753"/>
<path d="M10.8541 26.5461L20.111 31.9025C20.3066 32.0005 20.4369 31.9025 20.4369 31.6413C20.4369 31.38 20.274 31.1187 20.111 30.988L10.8541 25.6643C10.6586 25.5663 10.5282 25.6643 10.5282 25.9256C10.5282 26.1542 10.6586 26.4482 10.8541 26.5461Z" fill="#FFC78F"/>
<path d="M20.2414 32.033C20.1762 32.033 20.111 32.0003 20.0458 31.9677L10.8216 26.6439C10.5934 26.5133 10.4304 26.1867 10.4304 25.8927C10.4304 25.7294 10.4956 25.5988 10.5934 25.5334C10.6912 25.4681 10.789 25.4681 10.9193 25.5661L20.1762 30.9225C20.4043 31.0532 20.5673 31.3798 20.5673 31.6737C20.5673 31.837 20.5021 31.9677 20.4044 32.033C20.3392 32.033 20.3066 32.033 20.2414 32.033ZM10.9193 26.4479L20.1762 31.8044C20.2088 31.8044 20.2414 31.837 20.3066 31.837C20.3392 31.8044 20.3718 31.7717 20.3718 31.6411C20.3718 31.4451 20.2414 31.1838 20.0784 31.0858L10.8216 25.7294C10.789 25.7294 10.7564 25.6967 10.6912 25.6967C10.6586 25.7294 10.626 25.7621 10.626 25.8927C10.626 26.1213 10.7564 26.3826 10.9193 26.4479Z" fill="#171753"/>
<path d="M9.02887 25.0763C9.02887 25.3376 9.19184 25.6315 9.42 25.7622C9.64816 25.8928 9.81114 25.7948 9.81114 25.5335C9.81114 25.2723 9.64816 24.9783 9.42 24.8477C9.22444 24.717 9.02887 24.815 9.02887 25.0763Z" fill="#FFC78F"/>
<path d="M9.61555 25.9257C9.55036 25.9257 9.45257 25.893 9.38738 25.8604C9.12663 25.7297 8.93106 25.3704 8.93106 25.0765C8.93106 24.9132 8.99625 24.7825 9.09403 24.7172C9.19182 24.6519 9.35479 24.6519 9.48517 24.7499C9.74593 24.8805 9.94149 25.2398 9.94149 25.5337C9.94149 25.697 9.8763 25.8277 9.77852 25.893C9.71333 25.9257 9.68074 25.9257 9.61555 25.9257ZM9.25701 24.9132C9.22441 24.9132 9.22441 24.9132 9.19182 24.9132C9.15922 24.9458 9.12663 25.0112 9.12663 25.0765C9.12663 25.3051 9.2896 25.5664 9.48517 25.6644C9.55036 25.697 9.61555 25.7297 9.64814 25.697C9.68074 25.6644 9.71333 25.5991 9.71333 25.5337C9.71333 25.3051 9.55036 25.0438 9.35479 24.9458C9.35479 24.9132 9.2896 24.9132 9.25701 24.9132Z" fill="#171753"/>
<path d="M10.8541 28.5058L20.111 33.8622C20.3066 33.9602 20.4369 33.8622 20.4369 33.6009C20.4369 33.3396 20.274 33.0783 20.111 32.9477L10.8541 27.5913C10.6586 27.4933 10.5282 27.5913 10.5282 27.8526C10.5282 28.1139 10.6586 28.4078 10.8541 28.5058Z" fill="#FFA54B"/>
<path d="M20.2414 33.9928C20.1762 33.9928 20.111 33.9601 20.0458 33.9274L10.8216 28.6037C10.5934 28.473 10.4304 28.1464 10.4304 27.8525C10.4304 27.6892 10.4956 27.5585 10.5934 27.4932C10.6912 27.4279 10.789 27.4279 10.9193 27.5259L20.1762 32.8823C20.4043 33.0129 20.5673 33.3395 20.5673 33.6335C20.5673 33.7968 20.5021 33.9274 20.4044 33.9928C20.3392 33.9928 20.3066 33.9928 20.2414 33.9928ZM10.9193 28.4077L20.1762 33.7641C20.2088 33.7641 20.2414 33.7968 20.3066 33.7968C20.3392 33.7641 20.3718 33.7315 20.3718 33.6008C20.3718 33.4049 20.2414 33.1436 20.0784 33.0456L10.8216 27.6892C10.789 27.6892 10.7564 27.6565 10.6912 27.6565C10.6586 27.6892 10.626 27.7218 10.626 27.8525C10.626 28.0811 10.7564 28.3097 10.9193 28.4077Z" fill="#FFA54B"/>
<path d="M9.02887 27.036C9.02887 27.2973 9.19184 27.5912 9.42 27.7219C9.64816 27.8525 9.81114 27.7545 9.81114 27.4933C9.81114 27.232 9.64816 26.938 9.42 26.8074C9.22444 26.6767 9.02887 26.7747 9.02887 27.036Z" fill="#171753"/>
<path d="M9.61555 27.8852C9.55036 27.8852 9.45257 27.8525 9.38738 27.8199C9.12663 27.6892 8.93106 27.33 8.93106 27.036C8.93106 26.8727 8.99625 26.7421 9.09403 26.6768C9.19182 26.6114 9.35479 26.6114 9.48517 26.7094C9.74593 26.8401 9.94149 27.1993 9.94149 27.4933C9.94149 27.6566 9.8763 27.7872 9.77852 27.8525C9.71333 27.8525 9.68074 27.8852 9.61555 27.8852ZM9.25701 26.8401C9.22441 26.8401 9.22441 26.8401 9.19182 26.8401C9.15922 26.8727 9.12663 26.938 9.12663 27.0034C9.12663 27.232 9.2896 27.4933 9.48517 27.5913C9.55036 27.6239 9.61555 27.6566 9.64814 27.6239C9.68074 27.5913 9.71333 27.5259 9.71333 27.4606C9.71333 27.232 9.55036 26.9707 9.35479 26.8727C9.35479 26.8727 9.2896 26.8401 9.25701 26.8401Z" fill="#171753"/>
<path d="M10.8541 30.4982L20.111 35.8546C20.3066 35.9526 20.4369 35.8546 20.4369 35.5933C20.4369 35.332 20.274 35.0707 20.111 34.9401L10.8541 29.5837C10.6586 29.4857 10.5282 29.5837 10.5282 29.8449C10.5282 30.0736 10.6586 30.3675 10.8541 30.4982Z" fill="#FFC78F"/>
<path d="M20.2414 35.9852C20.1762 35.9852 20.111 35.9525 20.0458 35.9199L10.8216 30.5634C10.5934 30.4328 10.4304 30.1062 10.4304 29.8122C10.4304 29.6489 10.4956 29.5183 10.5934 29.453C10.6912 29.3876 10.789 29.4203 10.9193 29.4856L20.1762 34.842C20.4043 34.9727 20.5673 35.2993 20.5673 35.5932C20.5673 35.7565 20.5021 35.8872 20.4044 35.9525C20.3392 35.9525 20.3066 35.9852 20.2414 35.9852ZM10.9193 30.4001L20.1762 35.7565C20.2088 35.7565 20.2414 35.7892 20.3066 35.7892C20.3392 35.7565 20.3718 35.7239 20.3718 35.5932C20.3718 35.3973 20.2414 35.136 20.0784 35.038L10.8216 29.6816C10.789 29.6816 10.7564 29.6489 10.6912 29.6489C10.6586 29.6816 10.626 29.7143 10.626 29.8449C10.626 30.0409 10.7564 30.3022 10.9193 30.4001Z" fill="#171753"/>
<path d="M9.02887 28.9956C9.02887 29.2568 9.19184 29.5508 9.42 29.6814C9.64816 29.8121 9.81114 29.7141 9.81114 29.4528C9.81114 29.1915 9.64816 28.8976 9.42 28.7669C9.22444 28.6363 9.02887 28.7669 9.02887 28.9956Z" fill="#FFC78F"/>
<path d="M9.61555 29.8449C9.55036 29.8449 9.45257 29.8122 9.38738 29.7795C9.12663 29.6489 8.93106 29.2896 8.93106 28.9957C8.93106 28.8324 8.99625 28.7017 9.09403 28.6364C9.19182 28.5711 9.35479 28.5711 9.48517 28.6691C9.74593 28.7997 9.94149 29.159 9.94149 29.4529C9.94149 29.6162 9.8763 29.7469 9.77852 29.8122C9.71333 29.8449 9.68074 29.8449 9.61555 29.8449ZM9.25701 28.8324C9.22441 28.8324 9.22441 28.8324 9.19182 28.8324C9.15922 28.865 9.12663 28.9304 9.12663 28.9957C9.12663 29.2243 9.2896 29.4856 9.48517 29.5836C9.55036 29.6162 9.61555 29.6489 9.64814 29.6162C9.68074 29.5836 9.71333 29.5183 9.71333 29.4529C9.71333 29.2243 9.55036 28.963 9.35479 28.865C9.35479 28.8324 9.2896 28.8324 9.25701 28.8324Z" fill="#171753"/>
<path d="M20.2087 19.7199L17.2426 18.0216C17.1122 17.9236 16.9818 17.7276 16.9818 17.5317V14.2002C16.9818 14.0043 17.1122 13.9063 17.2426 14.0043L20.2087 15.7026C20.339 15.8006 20.4694 15.9966 20.4694 16.1926V19.524C20.4694 19.7199 20.339 19.8179 20.2087 19.7199Z" fill="white"/>
<path d="M20.3066 19.8506C20.2414 19.8506 20.2088 19.8506 20.1437 19.818L17.1776 18.1196C17.0146 18.0216 16.8516 17.7603 16.8516 17.5317V14.2003C16.8516 14.0696 16.9168 13.939 16.982 13.9063C17.0472 13.8737 17.1776 13.8737 17.2427 13.9063L20.2088 15.6047C20.3718 15.7027 20.5348 15.964 20.5348 16.1926V19.524C20.5348 19.6547 20.4696 19.7853 20.4044 19.818C20.3718 19.8506 20.3392 19.8506 20.3066 19.8506ZM20.2414 19.622C20.274 19.622 20.3066 19.6547 20.3066 19.622C20.3066 19.622 20.3392 19.5894 20.3392 19.4914V16.1926C20.3392 16.0293 20.2414 15.866 20.1437 15.8007L17.1776 14.1023C17.145 14.1023 17.1124 14.0696 17.1124 14.1023C17.1124 14.1023 17.0798 14.135 17.0798 14.2329V17.5644C17.0798 17.7277 17.1776 17.891 17.2753 17.9563L20.2414 19.622Z" fill="#171753"/>
<path d="M18.9375 15.9309C18.8723 15.8656 18.7745 15.8002 18.7094 15.7676V16.9107L18.9375 15.9309Z" fill="white"/>
<path d="M18.7746 17.0089L18.6442 16.9762V15.6371L18.7746 15.7024C18.8723 15.7351 18.9375 15.8004 19.0027 15.8657L19.0353 15.8984L18.7746 17.0089ZM18.7746 15.8984V16.225L18.8397 15.9637C18.8397 15.931 18.8072 15.931 18.7746 15.8984Z" fill="#171753"/>
<path d="M18.7094 16.9106L19.3939 16.5187C19.2635 16.2901 19.1005 16.0941 18.9375 15.9308L18.7094 16.9106Z" fill="white"/>
<path d="M18.6768 17.0088L18.579 16.9108L18.6116 16.8782L18.8724 15.8004L18.9701 15.8983C19.1657 16.0616 19.3287 16.2903 19.4591 16.5189V16.5516V16.5842L18.6768 17.0088ZM19.0027 16.0616L18.8398 16.7475L19.2961 16.4862C19.1983 16.3229 19.1005 16.1923 19.0027 16.0616Z" fill="#171753"/>
<path d="M18.7094 16.9109L19.6546 17.4334C19.6546 17.1395 19.5568 16.8129 19.3938 16.5189L18.7094 16.9109Z" fill="white"/>
<path d="M19.6546 17.5314L18.6442 16.9762V16.8782L19.4264 16.4536L19.4916 16.5189C19.6546 16.8455 19.7524 17.1722 19.7524 17.4661V17.4988L19.6546 17.5314ZM18.8723 16.9109L19.5568 17.3028C19.5242 17.1068 19.459 16.8455 19.3612 16.6496L18.8723 16.9109Z" fill="#171753"/>
<path d="M18.7093 16.9107L18.2204 17.5313C18.3508 17.7272 18.5464 17.8579 18.7093 17.9559C19.2309 18.2498 19.6546 18.0212 19.6546 17.4333L18.7093 16.9107Z" fill="white"/>
<path d="M19.133 18.1519C19.0027 18.1519 18.8397 18.1192 18.6767 18.0212C18.4812 17.9232 18.3182 17.7599 18.1552 17.564L18.1226 17.5313V17.466L18.6767 16.7801L19.7198 17.368V17.4007C19.7198 17.7273 19.5894 17.9559 19.3938 18.0539C19.3286 18.1519 19.2308 18.1519 19.133 18.1519ZM18.3182 17.4986C18.4486 17.6619 18.6115 17.7926 18.7419 17.8579C18.9701 17.9885 19.1656 18.0212 19.3286 17.9232C19.459 17.8579 19.5568 17.6619 19.5568 17.4333L18.7093 16.9761L18.3182 17.4986Z" fill="#171753"/>
<path d="M18.2204 17.4987L18.7093 16.8781V15.735C18.1878 15.441 17.7641 15.6697 17.7641 16.2902C17.7641 16.7148 17.9596 17.1721 18.2204 17.4987Z" fill="white"/>
<path d="M18.2204 17.5968L18.1878 17.5641C17.8945 17.1722 17.6989 16.715 17.6989 16.2904C17.6989 15.9637 17.7967 15.7351 18.0248 15.6045C18.2204 15.4738 18.4812 15.5065 18.7745 15.6698L18.8071 15.7025V15.7351V16.9436L18.2856 17.5968H18.2204ZM18.2856 15.7025C18.2204 15.7025 18.1552 15.7351 18.09 15.7678C17.9271 15.8658 17.8619 16.0617 17.8619 16.323C17.8619 16.6496 17.9923 17.0742 18.253 17.4008L18.6441 16.8783V15.8004C18.5138 15.7351 18.3834 15.7025 18.2856 15.7025Z" fill="#171753"/>
<path d="M20.2086 24.717L17.2425 23.0186C17.1122 22.9206 16.9818 22.7246 16.9818 22.5287V19.1972C16.9818 19.0013 17.1122 18.9033 17.2425 19.0013L20.2086 20.6996C20.339 20.7976 20.4694 20.9936 20.4694 21.1896V24.521C20.4694 24.717 20.339 24.8149 20.2086 24.717Z" fill="#FFA54B"/>
<path d="M20.3064 24.8805C20.2412 24.8805 20.2086 24.8805 20.1435 24.8478L17.1774 23.1495C17.0144 23.0515 16.8514 22.7902 16.8514 22.5616V19.1975C16.8514 19.0668 16.9166 18.9362 16.9818 18.9035C17.047 18.8709 17.1774 18.8709 17.2425 18.9035L20.2086 20.6019C20.3716 20.6999 20.5346 20.9612 20.5346 21.1898V24.5212C20.5346 24.6519 20.4694 24.7825 20.4042 24.8152C20.3716 24.8478 20.339 24.8805 20.3064 24.8805ZM20.2412 24.6519C20.2738 24.6519 20.3064 24.6845 20.3064 24.6519C20.3064 24.6519 20.339 24.6192 20.339 24.5212V21.1898C20.339 21.0265 20.2412 20.8632 20.1435 20.7979L17.1774 19.0995C17.1448 19.0995 17.1122 19.0668 17.1122 19.0995C17.1122 19.0995 17.0796 19.1322 17.0796 19.2301V22.5616C17.0796 22.7249 17.1774 22.8882 17.2751 22.9535L20.2412 24.6519Z" fill="#171753"/>
<path d="M19.0027 21.1898L18.4486 20.8632C18.0574 20.6345 17.7641 20.8305 17.7641 21.2551C17.7641 21.6797 18.0574 22.2349 18.4486 22.4309V22.7575C18.4486 22.7575 18.8071 22.9535 18.8071 22.6269L19.0027 22.7248C19.3938 22.9535 19.6872 22.7575 19.6872 22.3329C19.6872 21.9083 19.3612 21.4184 19.0027 21.1898Z" fill="#171753"/>
<path d="M19.296 22.9533C19.1982 22.9533 19.0679 22.9207 18.9375 22.8553L18.8397 22.8227C18.8071 22.888 18.7745 22.9207 18.7419 22.9533C18.6115 23.0186 18.3834 22.9207 18.3834 22.9207L18.3508 22.888V22.5614C17.9597 22.3328 17.6663 21.7775 17.6663 21.3203C17.6663 21.0916 17.7641 20.8957 17.8945 20.7977C18.0574 20.6997 18.253 20.7324 18.4486 20.8303L19.0027 21.157C19.3938 21.3856 19.7198 21.9408 19.7198 22.3981C19.7198 22.6267 19.622 22.8227 19.4916 22.9207C19.459 22.9207 19.3612 22.9533 19.296 22.9533ZM18.7419 22.5287L19.0353 22.692C19.1982 22.79 19.3286 22.79 19.4264 22.7247C19.5242 22.6594 19.5894 22.5287 19.5894 22.3654C19.5894 21.9408 19.296 21.4509 18.9375 21.2549L18.3834 20.9283C18.2204 20.8303 18.09 20.8303 17.9923 20.8957C17.8945 20.961 17.8293 21.0916 17.8293 21.2549C17.8293 21.6795 18.1226 22.1695 18.4812 22.3654L18.5138 22.3981V22.7247C18.579 22.7573 18.6441 22.7574 18.6767 22.7574C18.7093 22.7574 18.7093 22.692 18.7093 22.6594L18.7419 22.5287Z" fill="#FFC78F"/>
<path d="M6.91015 23.3128L3.94405 21.6144C3.81367 21.5164 3.68329 21.3205 3.68329 21.1245V17.7931C3.68329 17.5971 3.81367 17.4991 3.94405 17.5971L6.91015 19.2955C7.04053 19.3935 7.17091 19.5894 7.17091 19.7854V23.1168C7.17091 23.3128 7.07312 23.4108 6.91015 23.3128Z" fill="white"/>
<path d="M7.04059 23.4434C6.9754 23.4434 6.94281 23.4434 6.87762 23.4107L3.91152 21.7123C3.74855 21.6143 3.58557 21.3531 3.58557 21.1244V17.793C3.58557 17.6623 3.65076 17.5317 3.71595 17.499C3.78114 17.4664 3.91152 17.4664 3.97671 17.499L6.94281 19.1974C7.10578 19.2954 7.26875 19.5567 7.26875 19.7853V23.1167C7.26875 23.2474 7.20357 23.378 7.13838 23.4107C7.10578 23.4434 7.07319 23.4434 7.04059 23.4434ZM3.84633 17.6623C3.81373 17.6623 3.78114 17.695 3.78114 17.793V21.1244C3.78114 21.2877 3.87892 21.451 3.97671 21.5164L6.94281 23.2147C6.9754 23.2147 7.008 23.2474 7.008 23.2147C7.008 23.2147 7.04059 23.1821 7.04059 23.0841V19.7853C7.04059 19.622 6.94281 19.4587 6.84503 19.3934L3.87892 17.695C3.87892 17.6623 3.87892 17.6623 3.84633 17.6623Z" fill="#171753"/>
<path d="M5.93236 20.7651V19.7852C5.93236 19.7526 5.89977 19.7199 5.89977 19.7199L4.98712 19.1973C4.95452 19.1973 4.95453 19.1973 4.95453 19.23V20.2098C4.95453 20.2425 4.92193 20.2425 4.92193 20.2425L4.72636 20.1445C4.69377 20.1118 4.66117 20.1772 4.69377 20.2098L5.41085 21.6469C5.44344 21.6796 5.47604 21.7122 5.47604 21.6796L6.19312 21.059C6.22571 21.0263 6.19312 20.961 6.16052 20.961L5.96496 20.863C5.96496 20.8304 5.93236 20.7977 5.93236 20.7651Z" fill="white"/>
<path d="M5.47603 21.7451C5.44343 21.7451 5.44343 21.7451 5.47603 21.7451C5.41084 21.7451 5.37825 21.7124 5.34565 21.6471L4.62857 20.21C4.59598 20.1447 4.59598 20.0794 4.62857 20.0467C4.66117 20.0141 4.72636 20.0141 4.75895 20.0467L4.85673 20.1121V19.2302C4.85673 19.1975 4.88933 19.1649 4.92192 19.1322C4.95452 19.0996 4.98711 19.0996 5.01971 19.1322L5.93235 19.6548C5.99754 19.6875 6.03014 19.7528 6.03014 19.7854V20.7653L6.2257 20.8959C6.2583 20.9286 6.29089 20.9612 6.32349 21.0266C6.32349 21.0592 6.32349 21.0919 6.29089 21.1245L5.57381 21.7451C5.50862 21.7124 5.47603 21.7451 5.47603 21.7451ZM4.82414 20.2427L5.47603 21.5491L6.12792 20.9939L5.96495 20.8959C5.89976 20.8633 5.86717 20.7979 5.86717 20.7653V19.7854L5.01971 19.2955V20.1774C5.01971 20.21 4.98711 20.2427 4.95452 20.2754C4.92192 20.308 4.88933 20.308 4.85673 20.2754L4.82414 20.2427Z" fill="#171753"/>
<path d="M6.91018 28.3101L3.94408 26.6117C3.8137 26.5137 3.68332 26.3178 3.68332 26.1218V22.7904C3.68332 22.5944 3.8137 22.4964 3.94408 22.5944L6.91018 24.2928C7.04056 24.3908 7.17094 24.5867 7.17094 24.7827V28.1141C7.17094 28.3101 7.07315 28.4081 6.91018 28.3101Z" fill="#FFA54B"/>
<path d="M7.04056 28.4732C6.97537 28.4732 6.94278 28.4732 6.87759 28.4405L3.91149 26.7422C3.74851 26.6442 3.58554 26.3829 3.58554 26.1543V22.7902C3.58554 22.6595 3.65073 22.5289 3.71592 22.4962C3.78111 22.4636 3.91149 22.4636 3.97668 22.4962L6.94278 24.1946C7.10575 24.2926 7.26872 24.5539 7.26872 24.7825V28.1139C7.26872 28.2446 7.20353 28.3752 7.13835 28.4079C7.10575 28.4405 7.07316 28.4732 7.04056 28.4732ZM6.97537 28.2446C7.00797 28.2446 7.04056 28.2772 7.04056 28.2446C7.04056 28.2446 7.07316 28.2119 7.07316 28.1139V24.7825C7.07316 24.6192 6.97537 24.4559 6.87759 24.3906L3.91149 22.6922C3.87889 22.6922 3.8463 22.6595 3.8463 22.6922C3.8463 22.6922 3.8137 22.7249 3.8137 22.8228V26.1543C3.8137 26.3176 3.91149 26.4809 4.00927 26.5462L6.97537 28.2446Z" fill="#171753"/>
<path d="M6.38871 25.9913C6.38871 26.5792 5.96499 26.8405 5.44347 26.5466C4.92196 26.2526 4.49823 25.5014 4.49823 24.9135C4.49823 24.3256 4.92196 24.0643 5.44347 24.3583C5.96499 24.6522 6.38871 25.4034 6.38871 25.9913Z" fill="#171753"/>
<path d="M5.8672 26.7424C5.73683 26.7424 5.57385 26.7098 5.41088 26.6118C4.85677 26.2852 4.43304 25.534 4.43304 24.9134C4.43304 24.5868 4.53083 24.3582 4.75899 24.2275C4.95456 24.0969 5.21531 24.1295 5.50866 24.2928C6.06277 24.6195 6.4865 25.3707 6.4865 25.9912C6.4865 26.3178 6.38872 26.5465 6.16055 26.6771C6.06277 26.7424 5.96499 26.7424 5.8672 26.7424ZM5.01974 24.3255C4.95456 24.3255 4.88937 24.3582 4.82418 24.3908C4.66121 24.4888 4.59602 24.6848 4.59602 24.9461C4.59602 25.534 4.98715 26.2199 5.50866 26.5138C5.73682 26.6444 5.93239 26.6771 6.09537 26.5791C6.25834 26.4811 6.32353 26.2852 6.32353 26.0239C6.32353 25.436 5.93239 24.7501 5.41088 24.4562C5.2805 24.3582 5.15012 24.3255 5.01974 24.3255Z" fill="#FFC78F"/>
<path d="M6.16057 25.8606C6.16057 26.3178 5.83462 26.4811 5.44349 26.2852C5.05235 26.0565 4.72641 25.5013 4.72641 25.044C4.72641 24.5868 5.05235 24.4235 5.44349 24.6194C5.83462 24.8481 6.16057 25.4033 6.16057 25.8606Z" fill="#FFC78F"/>
<path d="M5.76944 26.4485C5.67166 26.4485 5.54128 26.4159 5.4109 26.3505C4.98717 26.1219 4.66122 25.534 4.66122 25.0441C4.66122 24.7828 4.75901 24.6195 4.92198 24.5215C5.08495 24.4235 5.28052 24.4562 5.50868 24.5868C5.93241 24.8155 6.25836 25.4034 6.25836 25.8933C6.25836 26.1546 6.16057 26.3179 5.9976 26.4159C5.93241 26.4159 5.83463 26.4485 5.76944 26.4485ZM5.11755 24.6195C5.05236 24.6195 5.01976 24.6195 4.98717 24.6522C4.88939 24.7175 4.8242 24.8481 4.8242 25.0441C4.8242 25.4687 5.11755 25.9913 5.47609 26.1872C5.63906 26.2852 5.80203 26.2852 5.89982 26.2525C5.9976 26.1872 6.06279 26.0566 6.06279 25.8606C6.06279 25.436 5.76944 24.9134 5.4109 24.6848C5.31312 24.6522 5.21533 24.6195 5.11755 24.6195Z" fill="#171753"/>
<path d="M5.76949 26.0566L5.37836 25.4687V24.9788H5.50873V25.4361L5.89987 25.9587L5.76949 26.0566Z" fill="#171753"/>
<path d="M3.7485 35.2667L20.4369 44.9671V37.4223L16.5256 38.5328L14.7655 37.4223L9.68071 37.455L6.38866 35.8873L3.7485 35.2667C3.7485 35.2667 3.7485 35.2341 3.7485 35.2667Z" fill="#FFA54B"/>
<path d="M20.4369 45.065L20.3717 45.0324L3.68332 35.332L3.61813 35.2994L3.68332 35.1034L3.78111 35.1361L6.45386 35.7893L9.71331 37.357L14.7981 37.2917L14.8307 37.3243L16.5582 38.4348L20.4695 37.2917L20.5673 37.357V37.4223V45.0324L20.4369 45.065ZM4.4004 35.4953L20.3717 44.7711V37.5203L16.5256 38.6308L16.493 38.5981L14.7329 37.4877L9.68072 37.553H9.64812L6.35608 35.9852L4.4004 35.4953Z" fill="#FFA54B"/>
<path d="M19.1657 40.4598L18.6116 37.4877H16.7863L16.7537 37.4223L16.0367 35.332L13.6898 34.2869L11.832 35.2994L12.6142 37.9776L12.4187 38.0429L11.6364 35.3974L10.5934 35.9853H10.5608H9.55034L6.48645 34.2542L3.71592 35.332L3.61813 35.1687L3.68332 35.1034L6.35608 32.5885L8.05099 32.2619L8.08359 32.2946L9.48515 33.8623L11.3104 33.601L11.343 33.699L11.7668 35.0708L13.6898 34.0256L13.755 34.0583L16.2322 35.1361L16.9819 37.259H18.8398L18.8724 37.357L19.4265 40.4272L19.1657 40.4598ZM6.48645 34.0256L6.55164 34.0583L9.61553 35.7566H10.5282L11.5712 35.1687L11.1801 33.8296L9.41996 34.0909L9.38737 34.0583L7.9858 32.4905L6.45386 32.7845L4.17224 34.9074L6.48645 34.0256Z" fill="#171753"/>
</svg>
