<svg width="39" height="40" viewBox="0 0 39 40" fill="none" xmlns="http://www.w3.org/2000/svg">
<path d="M1.97856 12.6115L1.97857 12.6115L1.98157 12.6097L22.3635 0.765376C22.3635 0.765368 22.3635 0.765359 22.3635 0.76535C22.5945 0.631183 22.7509 0.646933 22.8322 0.692033C22.911 0.735715 23.0043 0.854445 23.0043 1.12001L23.0043 1.12123L23.0757 15.7828C23.0757 15.7829 23.0757 15.7831 23.0757 15.7832C23.0756 16.0507 22.9811 16.3648 22.8165 16.6534C22.6518 16.9423 22.4305 17.1818 22.2015 17.3147L22.2015 17.3148L1.81956 29.1591C1.58852 29.2933 1.43218 29.2776 1.35083 29.2325C1.27204 29.1888 1.1787 29.0701 1.1787 28.8045L1.17869 28.803L1.08954 14.1417C1.08954 14.1415 1.08954 14.1412 1.08954 14.141C1.08971 13.8737 1.18414 13.56 1.35028 13.2722C1.51656 12.9842 1.74148 12.7449 1.97856 12.6115Z" fill="#E3E0EB" stroke="#171753" stroke-width="0.5"/>
<path d="M20.5162 19.3719H21.1047V18.5692H20.5162V19.3719Z" fill="#E3E0EB"/>
<path d="M24.4598 18.8771L38.75 26.2101V27.3465C38.7382 27.4414 38.6737 27.5703 38.4627 27.6973C38.4622 27.6976 38.4617 27.6979 38.4612 27.6982L18.0646 39.5408L18.0645 39.5408C17.8356 39.6738 17.5159 39.748 17.1811 39.75C16.8475 39.7521 16.5275 39.6823 16.2976 39.5569L2.30392 31.4788C2.09313 31.3518 2.02871 31.223 2.01686 31.1281V30.0891H2.03398V30.4277V30.862L2.40952 30.6439L22.6845 18.8709L22.6845 18.8709C22.9134 18.7379 23.2328 18.6639 23.5664 18.6639C23.9001 18.6639 24.2195 18.7379 24.4484 18.8709L24.4482 18.8712L24.4598 18.8771Z" fill="#171753" stroke="#171753" stroke-width="0.5"/>
<path d="M21.017 18.5758L21.0203 18.5775L21.411 18.7907L21.0256 19.0134L6.20721 27.5757L6.08199 27.648L5.95685 27.5755L5.74367 27.4521L2.2849 29.4661L2.27938 29.4693L2.27934 29.4692C2.05383 29.5929 1.99451 29.7315 1.99451 29.8231C1.99451 29.9165 2.05603 30.0604 2.28435 30.1931C2.28445 30.1932 2.28456 30.1933 2.28467 30.1933L16.2822 38.2736L16.2828 38.2739C16.5116 38.4068 16.8306 38.4807 17.1632 38.4787C17.4958 38.4766 17.8136 38.3989 18.0415 38.2591L18.0466 38.256L18.0467 38.256L38.4464 26.4117C38.4464 26.4117 38.4465 26.4117 38.4465 26.4116C38.675 26.2789 38.7366 26.1349 38.7366 26.0414C38.7366 25.9499 38.6773 25.8113 38.4518 25.6876L38.447 25.6849L38.447 25.6849L24.4489 17.6043L24.4483 17.604C24.2194 17.471 23.9001 17.397 23.5664 17.397C23.2329 17.397 22.9137 17.4709 22.6848 17.6038L21.017 18.5758ZM21.017 18.5758L22.6844 17.604L21.017 18.5758Z" fill="#E3E0EB" stroke="#171753" stroke-width="0.5"/>
<path d="M22.5414 0.228002C22.4522 0.174488 22.3452 0.120974 22.2561 0.0674602C22.0777 -0.0395675 21.8103 -0.0217296 21.5428 0.138812L1.143 11.9832C0.590209 12.3043 0.144409 13.0892 0.144409 13.7313L0.215737 28.3763C0.215737 28.6974 0.322729 28.9114 0.518881 29.0184C0.768528 29.1612 1.00034 29.3039 1.23216 29.4287C1.05384 29.3217 0.946848 29.1076 0.946848 28.7866L0.857688 14.1594C0.857688 13.5173 1.30349 12.7324 1.85628 12.4113L22.2561 0.549085C22.5414 0.388543 22.791 0.370705 22.9693 0.477733C22.9515 0.459895 22.6484 0.281516 22.5414 0.228002Z" fill="#171753"/>
<path d="M22.8083 21.3844L24.2349 22.2049L22.7726 23.0612L21.3461 22.2406L22.8083 21.3844Z" fill="#171753"/>
<path d="M25.0729 22.0796L26.4817 22.8823L25.0194 23.7385L23.6107 22.9358L25.0729 22.0796Z" fill="#171753"/>
<path d="M27.1058 20.9916L28.7464 21.9371L29.6915 22.4722L30.1729 22.7576L27.6943 24.1846L26.2856 23.3819L27.0345 22.936L25.4118 21.9906L27.1058 20.9916Z" fill="#171753"/>
<path d="M23.4326 23.0425L24.8413 23.8452L23.3791 24.7015L21.9704 23.8988L23.4326 23.0425Z" fill="#171753"/>
<path d="M30.4939 22.9362L31.9027 23.7568L28.8891 25.5227L27.4803 24.7022L30.4939 22.9362Z" fill="#171753"/>
<path d="M27.3376 24.7913L28.7463 25.594L26.4638 26.9319L25.0373 26.1113L27.3376 24.7913Z" fill="#171753"/>
<path d="M22.8262 25.3977L24.235 26.2183L22.7727 27.0745L21.364 26.2539L22.8262 25.3977Z" fill="#171753"/>
<path d="M23.5574 18.9404L24.9661 19.761L23.5039 20.6172L22.0773 19.7967L23.5574 18.9404Z" fill="#171753"/>
<path d="M21.8098 19.9571L23.2185 20.7776L21.7563 21.6339L20.3476 20.8133L21.8098 19.9571Z" fill="#171753"/>
<path d="M25.287 19.9392L26.6957 20.7598L24.4311 22.0798L23.0223 21.2771L25.287 19.9392Z" fill="#171753"/>
<path d="M20.0622 20.9741L21.4888 21.7947L20.0265 22.6509L18.6 21.8303L20.0622 20.9741Z" fill="#171753"/>
<path d="M18.3326 22.0087L19.7414 22.8114L18.2791 23.6677L16.8704 22.8649L18.3326 22.0087Z" fill="#171753"/>
<path d="M21.15 22.3649L22.5588 23.1676L21.0965 24.0238L19.6878 23.2033L21.15 22.3649Z" fill="#171753"/>
<path d="M16.585 23.025L18.0116 23.8277L16.5315 24.684L15.1228 23.8634L16.585 23.025Z" fill="#171753"/>
<path d="M19.4917 23.3282L20.9004 24.1487L19.4382 25.005L18.0295 24.1844L19.4917 23.3282Z" fill="#171753"/>
<path d="M26.0895 23.4886L27.5161 24.3091L26.0539 25.1654L24.6273 24.3448L26.0895 23.4886Z" fill="#171753"/>
<path d="M14.8373 24.0245L16.2639 24.8451L14.8017 25.7013L13.3751 24.8986L14.8373 24.0245Z" fill="#171753"/>
<path d="M21.7741 24.0062L23.2007 24.8089L21.7384 25.6652L20.3297 24.8446L21.7741 24.0062Z" fill="#171753"/>
<path d="M17.8154 24.3098L19.242 25.1125L17.7798 25.9687L16.3532 25.166L17.8154 24.3098Z" fill="#171753"/>
<path d="M24.4489 24.4523L25.8576 25.2728L24.4132 26.1112L22.9866 25.3085L24.4489 24.4523Z" fill="#171753"/>
<path d="M20.1336 24.9517L21.5602 25.7722L20.0979 26.6284L18.6714 25.8079L20.1336 24.9517Z" fill="#171753"/>
<path d="M13.1077 25.0587L14.5165 25.8614L13.0542 26.7176L11.6455 25.9149L13.1077 25.0587Z" fill="#171753"/>
<path d="M16.157 25.2728L17.5658 26.0933L16.1036 26.9495L14.6948 26.129L16.157 25.2728Z" fill="#171753"/>
<path d="M18.493 25.9146L19.9017 26.7352L18.4395 27.5914L17.0308 26.7708L18.493 25.9146Z" fill="#171753"/>
<path d="M11.3602 26.0754L12.7689 26.8781L11.3067 27.7343L9.89795 26.9316L11.3602 26.0754Z" fill="#171753"/>
<path d="M14.4985 26.2537L15.9073 27.0564L14.4451 27.9126L13.0185 27.1099L14.4985 26.2537Z" fill="#171753"/>
<path d="M21.1144 26.3965L22.5409 27.1992L21.0787 28.0554L19.6522 27.2527L21.1144 26.3965Z" fill="#171753"/>
<path d="M16.8524 26.8784L18.2612 27.6989L16.7989 28.5551L15.3724 27.7346L16.8524 26.8784Z" fill="#171753"/>
<path d="M9.61273 27.0924L11.0393 27.8951L9.57707 28.7513L8.15051 27.9486L9.61273 27.0924Z" fill="#171753"/>
<path d="M12.8225 27.217L14.2491 28.0375L12.7868 28.8937L11.3603 28.0732L12.8225 27.217Z" fill="#171753"/>
<path d="M19.4917 27.3419L20.9183 28.1625L19.456 29.0187L18.0295 28.1981L19.4917 27.3419Z" fill="#171753"/>
<path d="M15.1941 27.8413L16.6207 28.6618L15.1584 29.5181L13.7319 28.6975L15.1941 27.8413Z" fill="#171753"/>
<path d="M17.8511 28.3052L19.2599 29.1258L17.7976 29.9642L16.3889 29.1615L17.8511 28.3052Z" fill="#171753"/>
<path d="M7.22321 28.4832L8.63193 29.3037L7.16971 30.1599L5.76099 29.3394L7.22321 28.4832Z" fill="#171753"/>
<path d="M13.5534 28.8046L14.98 29.6252L13.5177 30.4814L12.0912 29.6609L13.5534 28.8046Z" fill="#171753"/>
<path d="M24.8947 26.2007L26.3212 27.0212L19.8839 30.7672L18.4752 29.9645L24.8947 26.2007Z" fill="#171753"/>
<path d="M16.2285 29.2507L17.6372 30.0712L16.175 30.9274L14.7484 30.1069L16.2285 29.2507Z" fill="#171753"/>
<path d="M11.0928 28.2333L12.5015 29.0538L8.89945 31.1587L7.49072 30.3382L11.0928 28.2333Z" fill="#171753"/>
<path d="M11.9129 29.768L13.3216 30.5886L10.6468 32.1583L9.22028 31.3377L11.9129 29.768Z" fill="#171753"/>
<path d="M18.2612 30.0887L19.6877 30.8914L17.3874 32.2292L15.9787 31.4087L18.2612 30.0887Z" fill="#171753"/>
<path d="M14.5521 30.2316L15.9786 31.0343L12.3766 33.1392L10.95 32.3365L14.5521 30.2316Z" fill="#171753"/>
<path d="M15.8003 31.5343L17.2091 32.337L14.1063 34.1565L12.6976 33.3359L15.8003 31.5343Z" fill="#171753"/>
<path d="M22.7729 31.4802C22.8442 31.6229 22.969 31.7477 23.1652 31.8726L24.4312 32.6218C24.984 32.9429 25.8221 32.9786 26.3036 32.6931L29.6025 30.7845C29.7273 30.7131 29.8165 30.6239 29.87 30.5348C30.0126 30.2672 29.87 29.9461 29.4777 29.7142L28.2116 28.965C27.6588 28.6439 26.8207 28.6083 26.3393 28.8937L23.0403 30.7845C22.7194 30.9629 22.648 31.2304 22.7729 31.4802Z" fill="#171753"/>
<path d="M22.7726 31.4802C22.844 31.6229 22.9688 31.7477 23.1649 31.8726L24.431 32.6218C24.9838 32.9429 25.8219 32.9785 26.3034 32.6931L29.6023 30.7845C29.7271 30.7131 29.8163 30.6239 29.8698 30.5347C29.7984 30.392 29.6736 30.2672 29.4775 30.1423L28.2114 29.3931C27.6586 29.072 26.8205 29.0364 26.339 29.3218L23.0401 31.2126C22.9153 31.3018 22.8261 31.391 22.7726 31.4802Z" fill="#8989C7"/>
<path d="M22.2558 16.2824L2.23047 28.0554V14.4094L22.2558 2.63635V16.2824Z" fill="#8989C7"/>
<g style="mix-blend-mode:multiply">
<path d="M21.917 2.83257V16.0862L2.23047 27.663V28.0554L22.2558 16.2824V2.63635L21.917 2.83257Z" fill="#171753"/>
</g>
</svg>
