<svg width="32" height="40" viewBox="0 0 32 40" fill="none" xmlns="http://www.w3.org/2000/svg">
<g clip-path="url(#clip0_78_8411)">
<path d="M15.1051 28.8336L11.4906 30.8782L7.44464 28.5715L11.0591 26.5793L15.1051 28.8336Z" fill="#8989C7"/>
<path d="M11.4906 31.1403L7.01306 28.5715L11.0591 26.3172L15.5906 28.8336L11.4906 31.1403ZM7.87621 28.5715L11.4906 30.616L14.6735 28.8336L11.0591 26.789L7.87621 28.5715Z" fill="#171753"/>
<path d="M10.8433 28.2569L14.9432 30.5636L11.3288 32.5557L7.22888 30.3015L10.8433 28.2569Z" fill="#E3E0EB"/>
<path d="M11.3288 32.8178L7.12097 30.4587L7.33676 30.0917L11.3288 32.346L14.4577 30.5636L10.7354 28.4142L10.9512 28.0472L15.3748 30.5636L11.3288 32.8178Z" fill="#171753"/>
<path d="M22.3879 39.7379L19.7445 38.27C18.9892 37.8506 18.3958 37.1691 18.0722 36.3827C17.6406 35.2818 16.8314 34.3906 15.8064 33.8139L10.3578 30.7733L19.3669 25.6881L24.5997 28.5715C25.7326 29.1481 26.5418 30.0918 26.9733 31.2451L27.0273 31.4024C27.351 32.2412 27.9983 32.9751 28.8075 33.3945L31.2351 34.7051L22.3879 39.7379Z" fill="#E3E0EB"/>
<path d="M22.3879 40L19.6366 38.4797C18.8274 38.0079 18.18 37.3264 17.8564 36.4351C17.4787 35.3867 16.6695 34.4954 15.6985 33.9712L9.92621 30.7209L19.3669 25.4784L24.7076 28.4142C25.8405 29.0433 26.7576 30.0393 27.1891 31.2451L27.2431 31.4024C27.5128 32.1887 28.1062 32.8703 28.9154 33.2897L31.6667 34.81L22.3879 40ZM10.7894 30.7209L15.8603 33.6042C16.9393 34.1809 17.8024 35.177 18.234 36.2779C18.5037 37.0642 19.0971 37.6933 19.7984 38.0603L22.3339 39.4758L30.6957 34.7576L28.5917 33.6042C27.7286 33.1324 27.0273 32.3984 26.7036 31.5072L26.6497 31.35C26.2181 30.249 25.4628 29.3054 24.3839 28.7811L19.259 25.9502L10.7894 30.7209Z" fill="#171753"/>
<path d="M21.0932 37.7982L20.9313 37.5361L21.5247 37.2215L21.6866 37.4836L21.0932 37.7982ZM22.0103 37.3264L21.8484 37.0642L22.4418 36.7497L22.6037 37.0118L22.0103 37.3264ZM22.8734 36.8545L22.7116 36.5924L23.305 36.2779L23.4668 36.54L22.8734 36.8545ZM23.7366 36.3303L23.5747 36.0682L24.1681 35.7536L24.33 36.0157L23.7366 36.3303ZM24.6537 35.8585L24.4918 35.5963L25.0852 35.2818L25.2471 35.5439L24.6537 35.8585ZM25.5168 35.3866L25.355 35.0721L25.9484 34.7576L26.1102 35.0197L25.5168 35.3866ZM26.4339 34.8624L26.2721 34.6003L26.8655 34.2857L27.0273 34.5479L26.4339 34.8624ZM27.297 34.3906L27.1352 34.076L27.5668 33.8663L27.7286 34.1285L27.297 34.3906Z" fill="#171753"/>
<path d="M16.6696 32.6605C16.5077 32.6605 16.3459 32.6081 16.184 32.5557L13.8104 31.1927C13.6485 31.0878 13.5406 30.983 13.5406 30.8257C13.5406 30.7208 13.5946 30.616 13.7564 30.5111L15.8604 29.3054C16.0761 29.2005 16.4538 29.2005 16.7235 29.3578L19.0972 30.7208C19.259 30.8257 19.3669 30.9305 19.3669 31.0878C19.3669 31.1927 19.3129 31.2975 19.1511 31.4024L17.0472 32.6081C16.9393 32.6081 16.8314 32.6605 16.6696 32.6605ZM13.9183 30.8781C13.9183 30.8781 13.9183 30.9305 13.9722 30.9305L16.3459 32.2936C16.5077 32.3984 16.7235 32.3984 16.8314 32.346L18.9353 31.1402H18.9893C18.9893 31.1402 18.9893 31.0878 18.9353 31.0878L16.5617 29.7248C16.3998 29.6199 16.184 29.6199 16.0761 29.6723L13.9183 30.8781C13.9183 30.8781 13.9183 30.8257 13.9183 30.8781Z" fill="#171753"/>
<path d="M25.0953 30.9581L18.7234 34.4923L18.8838 34.7655L25.2558 31.2313L25.0953 30.9581Z" fill="#171753"/>
<path d="M24.4498 30.1212L18.0778 33.6554L18.2383 33.9286L24.6102 30.3944L24.4498 30.1212Z" fill="#171753"/>
<path d="M20.1551 27.3095L17.3907 28.8428L17.5512 29.116L20.3155 27.5827L20.1551 27.3095Z" fill="#171753"/>
<path d="M21.2701 27.8732L18.5058 29.4064L18.6662 29.6796L21.4306 28.1464L21.2701 27.8732Z" fill="#171753"/>
<path d="M22.3529 28.5112L19.5886 30.0444L19.7491 30.3176L22.5134 28.7844L22.3529 28.5112Z" fill="#171753"/>
<path d="M28.406 34.412L22.0341 37.9462L22.1945 38.2194L28.5665 34.6852L28.406 34.412Z" fill="#171753"/>
<path d="M23.6825 29.3054C23.3589 26.5793 22.6036 25.793 22.6036 25.793L21.5786 26.6842L20.4997 27.4181C20.4997 27.4181 21.0392 28.3094 23.6825 29.3054Z" fill="#E3E0EB"/>
<path d="M23.9523 29.6199L23.6286 29.5151C20.9313 28.519 20.3379 27.5754 20.2839 27.523L20.176 27.3657L21.4707 26.5269L22.6036 25.5308L22.7655 25.6881C22.8194 25.7405 23.5747 26.5269 23.8983 29.3054L23.9523 29.6199ZM20.8234 27.4705C21.0931 27.7327 21.7944 28.3618 23.4668 28.9908C23.251 27.2608 22.8194 26.4745 22.6036 26.1599L21.7944 26.8939L20.8234 27.4705Z" fill="#171753"/>
<path d="M23.6825 29.3054C23.6286 29.253 23.5747 29.2005 23.5207 29.1481C22.6036 28.4666 21.7944 27.2608 21.7944 27.2608C21.7944 27.2608 21.4707 27.1036 21.1471 26.9463L20.4997 27.4181C20.4997 27.4181 21.0392 28.3093 23.6825 29.3054Z" fill="#171753"/>
<path d="M23.9523 29.6199L23.6286 29.5151C20.9313 28.519 20.3379 27.5754 20.2839 27.5229L20.176 27.3657L21.1471 26.7366L21.255 26.789C21.6326 26.9463 21.9563 27.1035 21.9563 27.1035L22.0102 27.156L22.0642 27.2084C22.0642 27.2084 22.8194 28.4142 23.7365 29.0433C23.7904 29.0957 23.8983 29.1481 23.9523 29.253L24.0062 29.3054V29.6199H23.9523ZM20.8234 27.4705C21.0392 27.6802 21.5786 28.152 22.6576 28.6239C22.172 28.0996 21.7944 27.5754 21.6865 27.4181C21.5786 27.3657 21.4168 27.3132 21.201 27.2084L20.8234 27.4705Z" fill="#171753"/>
<path d="M23.8035 29.0421L23.4623 29.2989L23.9579 29.9206L24.2991 29.6638L23.8035 29.0421Z" fill="#171753"/>
<path d="M21.7944 24.9541C22.3879 24.8493 22.8194 25.8454 22.6036 26.3696C22.3879 26.8939 21.6866 27.4181 21.0931 27.5229C20.4997 27.6278 19.5826 27.0511 19.8524 26.4745C20.0682 25.9502 21.201 25.059 21.7944 24.9541Z" fill="#171753"/>
<path d="M20.9853 27.785C20.5537 27.785 20.0682 27.5754 19.7984 27.2084C19.5826 26.9463 19.5287 26.6841 19.6366 26.422C19.9063 25.7929 21.1471 24.8493 21.7945 24.7444C22.0642 24.692 22.3879 24.8493 22.5497 25.1114C22.8734 25.4784 22.9813 26.1075 22.7655 26.4744C22.4958 27.1035 21.7405 27.6802 21.0931 27.7326C21.0931 27.7326 21.0392 27.785 20.9853 27.785ZM21.8484 25.1638C21.3089 25.2162 20.23 26.055 20.0142 26.5793C19.9603 26.6841 20.0142 26.789 20.1221 26.9463C20.3379 27.2084 20.7695 27.3657 21.0931 27.3657C21.6326 27.3132 22.226 26.8414 22.4418 26.3696C22.5497 26.1075 22.4958 25.6881 22.28 25.4259C22.1181 25.2687 22.0102 25.1638 21.8484 25.1638Z" fill="#171753"/>
<path d="M22.0102 27.1036C22.0642 27.1036 22.0642 27.1036 22.0102 27.1036C22.28 26.8939 22.4957 26.6318 22.6036 26.3696C22.8194 25.8454 22.4418 24.9542 21.9023 24.9542C21.4168 25.2687 20.9852 25.7405 20.8234 26.0551C20.6076 26.5793 21.4168 27.156 22.0102 27.1036Z" fill="#8989C7"/>
<path d="M21.9563 27.3132C21.5247 27.3132 20.9852 27.0511 20.7155 26.6842C20.5536 26.422 20.4997 26.1599 20.6076 25.9502C20.7694 25.5308 21.3628 25.059 21.7405 24.7444L21.7944 24.692H21.8484C22.1181 24.692 22.3878 24.8493 22.6036 25.1114C22.8733 25.4784 22.9273 26.0551 22.8194 26.422C22.7115 26.6842 22.4957 26.9987 22.172 27.2084C22.1181 27.2608 22.0641 27.2608 22.0102 27.2608C22.0102 27.3132 22.0102 27.3132 21.9563 27.3132ZM21.9563 25.1638C21.5247 25.4784 21.1471 25.8978 21.0392 26.1075C20.9852 26.2123 21.0392 26.3172 21.0931 26.422C21.2549 26.6842 21.6326 26.8414 21.9563 26.8414C22.172 26.6842 22.3339 26.4745 22.3878 26.2648C22.4957 26.0026 22.4418 25.6357 22.226 25.3735C22.226 25.3211 22.1181 25.2163 21.9563 25.1638Z" fill="#171753"/>
<path d="M22.4418 26.6842C22.4957 26.5793 22.5497 26.4745 22.6036 26.4221C22.8194 25.8978 22.4418 25.0066 21.9023 25.0066C21.8483 25.059 21.7944 25.1114 21.7405 25.1114C21.5786 25.5833 21.5786 26.0027 21.5786 26.1075C21.5786 26.2124 21.8483 26.1599 21.8483 26.1599C21.8483 26.1599 22.1181 26.5269 22.4418 26.6842Z" fill="#E3E0EB"/>
<path d="M22.5497 26.9463L22.3878 26.8939C22.1181 26.789 21.8484 26.5269 21.7405 26.3696C21.6326 26.3696 21.5247 26.3696 21.4168 26.3172C21.3628 26.2648 21.3089 26.1599 21.3089 26.1075V26.0551C21.3089 25.8978 21.3628 25.4784 21.4707 25.059V25.0066L21.5247 24.9541C21.5786 24.9017 21.6326 24.8493 21.6865 24.7969L21.7405 24.7444H21.7944C22.0642 24.7444 22.3339 24.9017 22.5497 25.1638C22.8194 25.5308 22.8734 26.1075 22.7655 26.4745C22.7115 26.5793 22.6576 26.6842 22.6036 26.789L22.5497 26.9463ZM21.9023 25.8978L22.0102 26.0026C22.0642 26.0551 22.226 26.2648 22.3878 26.3696C22.3878 26.3696 22.3878 26.3172 22.4418 26.3172C22.5497 26.0551 22.4957 25.6881 22.2799 25.426C22.226 25.3211 22.1181 25.2163 21.9563 25.2163C21.9563 25.2163 21.9023 25.2163 21.9023 25.2687C21.8484 25.5308 21.7944 25.7929 21.7944 26.0026L21.9023 25.8978Z" fill="#171753"/>
<path d="M9.71037 11.7431L8.41565 12.7392L19.7444 26.6842C19.9063 26.8414 20.1221 26.9463 20.4457 26.8939C21.0931 26.789 21.8484 26.2123 22.1181 25.6357C22.226 25.3211 22.226 25.059 22.0641 24.9017L11.0051 10.7471L9.71037 11.7431Z" fill="#171753"/>
<path d="M20.2839 27.156C19.9602 27.156 19.6905 27.0511 19.5826 26.8414L8.09198 12.6868L11.059 10.4325L22.2799 24.7444C22.4957 25.0065 22.4957 25.3211 22.3339 25.6881C22.0642 26.3696 21.255 26.9987 20.4997 27.1035C20.3918 27.156 20.3379 27.156 20.2839 27.156ZM8.73934 12.7916L19.9063 26.5793C20.0142 26.6841 20.176 26.7366 20.4458 26.6841C21.0392 26.6317 21.7405 26.1075 21.9563 25.5308C22.0642 25.3211 22.0642 25.1114 21.9563 25.0065L11.0051 11.0616L8.73934 12.7916Z" fill="#171753"/>
<path d="M22.1181 25.6357C22.226 25.3211 22.226 25.059 22.0642 24.9017L11.1669 10.9568L10.5735 11.3762L9.27881 12.3723L20.6076 26.3172C20.7155 26.4745 20.9852 26.5793 21.3089 26.5269C21.6865 26.3172 22.0102 26.0027 22.1181 25.6357Z" fill="#8989C7"/>
<path d="M21.201 26.789C20.8774 26.789 20.6076 26.6842 20.4997 26.4745L9.00909 12.3722L11.2209 10.6946L22.28 24.7969C22.4958 25.059 22.4958 25.3735 22.3339 25.7405C22.1721 26.1075 21.8484 26.4745 21.4168 26.7366L21.3629 26.789H21.3089C21.3089 26.789 21.255 26.789 21.201 26.789ZM9.60251 12.4247L20.8234 26.2123C20.8774 26.3172 21.0392 26.3696 21.255 26.3696C21.5787 26.1599 21.8484 25.8454 21.9563 25.5832C22.0642 25.3735 22.0642 25.1638 21.9563 25.059L11.167 11.3237L9.60251 12.4247Z" fill="#171753"/>
<path d="M22.1181 25.6357C22.226 25.3211 22.226 25.059 22.0641 24.9017L13.7563 14.2071H13.7024C13.5945 14.3119 13.109 14.6789 12.5695 14.4692C12.5156 14.4692 12.5156 14.4692 12.5156 14.5216C13.4866 15.7798 20.2839 24.5872 21.6865 26.0026C21.7404 26.0026 21.7944 26.0026 21.9023 26.0026C22.0102 25.8978 22.0641 25.7405 22.1181 25.6357Z" fill="#E3E0EB"/>
<path d="M21.6326 26.2123L21.5786 26.1599C20.1221 24.7444 13.163 15.675 12.3538 14.6789C12.2998 14.5741 12.2998 14.4692 12.3538 14.3644C12.4077 14.2595 12.5695 14.2595 12.6774 14.3119C13.0551 14.4692 13.4327 14.1547 13.5406 14.1022L13.5945 14.0498H13.7024C13.7564 14.0498 13.8643 14.1022 13.8643 14.1547L22.226 24.7969C22.4418 25.059 22.4418 25.3735 22.2799 25.7405C22.226 25.8978 22.1181 26.055 22.0102 26.1599V26.2123H21.6326ZM12.9472 14.7313C14.4577 16.671 20.3379 24.2726 21.7944 25.7929C21.8484 25.6881 21.9023 25.6356 21.9563 25.5308C22.0641 25.3211 22.0641 25.1114 21.9563 25.0066L13.7024 14.4692C13.5406 14.5741 13.2708 14.7313 12.9472 14.7313Z" fill="#171753"/>
<path d="M4.15389 1.78244C3.77626 1.31061 3.2368 0.838792 2.69733 0.576668C2.04997 0.209696 1.29472 -2.5034e-06 0.701307 0.471819C0.107894 0.891216 0.161841 1.67759 0.323681 2.30668C0.485521 2.93578 0.8092 3.51245 1.18683 4.03669C4.53152 8.44036 8.09199 12.5819 8.09199 12.5819C8.25383 12.7916 8.57751 12.8965 8.95514 12.844C9.76434 12.7392 10.6814 12.0577 10.9512 11.3237C11.113 10.9567 11.0591 10.6422 10.8972 10.4325C10.9512 10.4325 7.71437 6.02883 4.15389 1.78244Z" fill="#171753"/>
<path d="M8.73934 13.0538C8.36172 13.0538 8.09198 12.9489 7.93014 12.6868C7.8762 12.6868 4.31572 8.49281 0.97103 4.19399C0.539457 3.61732 0.269724 2.98822 0.107884 2.35913C-0.161849 1.41548 0.0539371 0.681539 0.593403 0.262141C1.13287 -0.157256 1.88812 -0.157256 2.80521 0.314566C3.39863 0.629114 3.88415 1.04851 4.36967 1.57276C7.8762 5.76673 11.113 10.1704 11.1669 10.2228C11.3827 10.4849 11.3827 10.9043 11.2209 11.3237C10.8972 12.1101 9.92617 12.8441 9.00908 12.9489C8.90118 13.0538 8.84724 13.0538 8.73934 13.0538ZM1.5105 0.419415C1.24076 0.419415 1.02498 0.524265 0.863136 0.629114C0.431563 0.943662 0.32367 1.46791 0.539457 2.25428C0.701297 2.83095 0.97103 3.35519 1.34866 3.87944C4.6394 8.23069 8.25382 12.3722 8.25382 12.4247C8.36172 12.5819 8.63145 12.6344 8.90118 12.5819C9.60249 12.4771 10.4656 11.848 10.7354 11.2189C10.8433 10.9568 10.8433 10.6946 10.7354 10.5374C10.6814 10.4849 7.44462 6.08128 3.93809 1.88731C3.56047 1.41548 3.07495 1.04851 2.58943 0.733963C2.15786 0.524265 1.78023 0.419415 1.5105 0.419415Z" fill="#171753"/>
<path d="M10.9512 11.3237C11.113 10.9568 11.0591 10.6422 10.8972 10.4325C10.8972 10.4325 7.66043 6.02885 4.09996 1.78246C3.77628 1.31063 3.23681 0.891237 2.69735 0.576689C2.21183 0.366991 1.72631 0.157292 1.24079 0.262141C0.971053 0.681538 1.025 1.25821 1.13289 1.83488C1.29473 2.41155 1.61841 2.98822 1.99604 3.51247C5.34073 7.91614 8.90121 12.0577 8.90121 12.0577C9.06305 12.2674 9.38673 12.3722 9.76435 12.3198C9.98014 12.2674 10.1959 12.215 10.4117 12.1101C10.6275 11.9004 10.8433 11.6383 10.9512 11.3237Z" fill="#8989C7"/>
<path d="M9.54854 12.5295C9.17092 12.5295 8.90119 12.4246 8.73935 12.1625C8.6854 12.1101 5.12492 7.96855 1.83418 3.6173C1.4026 3.09306 1.07892 2.46396 0.917085 1.88729C0.755245 1.15335 0.809191 0.576675 1.07892 0.157278L1.13287 0.0524289H1.24076C1.67234 -0.0524204 2.2118 0.104854 2.80522 0.419401C3.39863 0.733949 3.88415 1.15335 4.36967 1.67759C7.8762 5.87156 11.113 10.2752 11.1669 10.3277C11.3827 10.5898 11.3827 11.0092 11.2209 11.4286C11.113 11.7431 10.8972 12.0052 10.5735 12.2674L10.5196 12.3198C10.3038 12.4246 10.0341 12.4771 9.81828 12.5295C9.71039 12.5295 9.65644 12.5295 9.54854 12.5295ZM1.4026 0.471826C1.18682 0.838799 1.24076 1.36304 1.34866 1.78244C1.5105 2.30669 1.78023 2.88336 2.15786 3.40761C5.4486 7.75885 9.06302 11.9004 9.06302 11.9528C9.17092 12.1101 9.44065 12.1625 9.71038 12.1101C9.87222 12.1101 10.0341 12.0577 10.2499 11.9528C10.4656 11.7431 10.6275 11.481 10.7354 11.2713C10.8433 11.0092 10.8433 10.7471 10.7354 10.5898C10.6814 10.5374 7.44463 6.13369 3.9381 1.93972C3.56047 1.46789 3.07495 1.0485 2.58943 0.786374C2.10391 0.524251 1.72628 0.419401 1.4026 0.471826Z" fill="#171753"/>
<path d="M1.02496 0.996096C1.40259 1.36307 2.04995 1.99216 2.85915 2.98823L3.72229 4.03673C3.72229 4.03673 4.47755 4.71825 4.96307 3.04066C4.96307 2.98823 5.01701 2.93581 5.01701 2.88338C4.74728 2.51641 4.4236 2.14944 4.15387 1.78247C3.72229 1.31064 3.23677 0.838822 2.64336 0.576699C2.21179 0.314576 1.67232 0.157302 1.1868 0.262151C1.07891 0.47185 1.02496 0.733973 1.02496 0.996096Z" fill="#E3E0EB"/>
<path d="M4.09994 4.35126C3.88415 4.35126 3.66837 4.24641 3.56047 4.14156L2.69733 3.09307C1.88813 2.14943 1.24077 1.52033 0.863142 1.15336L0.755249 1.04851V0.94366C0.755249 0.629112 0.863142 0.314564 0.971035 0.104866L1.07893 0.052441H1.18682C1.61839 -0.0524082 2.15786 0.052441 2.75127 0.366989C3.34469 0.681537 3.83021 1.10093 4.31573 1.62518C4.63941 1.99215 4.90914 2.35913 5.23282 2.7261L5.28677 2.83095L5.23282 2.98822C5.23282 3.04065 5.23282 3.04065 5.17887 3.09307C4.96309 3.82702 4.63941 4.24641 4.26178 4.35126C4.20783 4.35126 4.15389 4.35126 4.09994 4.35126ZM3.88415 3.87944C3.9381 3.87944 4.04599 3.98429 4.15389 3.93186C4.26178 3.87944 4.53151 3.72217 4.7473 2.98822V2.9358C4.47757 2.62125 4.20783 2.25428 3.9381 1.93973C3.56047 1.41548 3.07495 1.04851 2.53549 0.733961C2.10391 0.524263 1.67234 0.419414 1.34866 0.419414C1.29472 0.576688 1.24077 0.733961 1.24077 0.891235C1.61839 1.25821 2.26575 1.8873 3.02101 2.83095L3.88415 3.87944Z" fill="#171753"/>
<path d="M1.51048 4.03674C1.13286 4.03674 0.863125 3.87947 0.647339 3.66977L0.971019 3.40765C1.07891 3.56492 1.34864 3.61734 1.67232 3.56492C2.42758 3.46007 3.29072 2.83097 3.56046 2.14945C3.66835 1.83491 3.66835 1.62521 3.56046 1.46793L3.88414 1.20581C4.09992 1.46793 4.15387 1.88733 3.93808 2.35915C3.66835 3.14552 2.64336 3.87947 1.72627 3.98432C1.67232 4.03674 1.56443 4.03674 1.51048 4.03674Z" fill="#171753"/>
<path d="M7.98412 12.1101C7.60649 12.1101 7.33676 12.0053 7.12097 11.7431L7.44465 11.481C7.55254 11.6383 7.82228 11.6907 8.14596 11.6383C8.90121 11.5334 9.76436 10.9043 10.0341 10.2228C10.142 9.96069 10.142 9.69857 10.0341 9.5413L10.3578 9.27917C10.5736 9.5413 10.6275 9.96069 10.4117 10.3801C10.088 11.2189 9.06305 11.9528 8.1999 12.0577C8.14596 12.1101 8.03806 12.1101 7.98412 12.1101Z" fill="#171753"/>
<path d="M1.18681 0.262179C1.51049 0.209754 1.67233 0.419453 1.56443 0.734001C1.45654 1.04855 1.07891 1.31067 0.755233 1.3631C0.431553 1.41552 0.215767 1.20582 0.377607 0.891275C0.4855 0.576727 0.863126 0.314604 1.18681 0.262179Z" fill="#8989C7"/>
<path d="M0.647358 1.57277C0.485518 1.57277 0.323678 1.52035 0.215785 1.36307C0.107892 1.25822 0.0539451 1.04852 0.161838 0.786401C0.323678 0.419428 0.755251 0.10488 1.13288 0.0524556C1.40261 3.09199e-05 1.6184 0.10488 1.72629 0.262154C1.83418 0.419428 1.83418 0.629127 1.78024 0.838825C1.6184 1.2058 1.18682 1.52035 0.755251 1.57277C0.701304 1.57277 0.701305 1.57277 0.647358 1.57277ZM1.29472 0.471853H1.24077C0.971038 0.524277 0.647358 0.733976 0.593411 0.996099C0.539465 1.04852 0.539465 1.10095 0.539465 1.10095C0.539465 1.10095 0.593411 1.15337 0.701304 1.10095C0.971038 1.04852 1.24077 0.838825 1.34866 0.629127C1.40261 0.524277 1.34866 0.471853 1.34866 0.471853C1.34866 0.471853 1.34866 0.471853 1.29472 0.471853Z" fill="#171753"/>
<path d="M12.1379 13.2111L5.66434 5.08525C5.44855 4.82313 5.3946 4.29888 5.55644 3.87948C5.71828 3.51251 6.41959 3.30281 6.63537 3.56493L12.6774 11.7956C12.8932 12.0577 13.3248 12.6868 13.1629 13.0538C13.0011 13.4732 12.3537 13.4732 12.1379 13.2111Z" fill="#171753"/>
<path d="M12.6235 13.6305C12.3537 13.6305 12.084 13.5256 11.9222 13.3159L5.44858 5.19011C5.23279 4.87556 5.17884 4.24647 5.34068 3.82707C5.50252 3.51252 5.88015 3.30282 6.14988 3.30282C6.41962 3.2504 6.6354 3.35525 6.79724 3.51252L12.8393 11.7432C13.0011 11.9529 13.5406 12.6868 13.3248 13.2111C13.2169 13.4208 13.0011 13.578 12.7314 13.6305C12.7314 13.6305 12.6774 13.6305 12.6235 13.6305ZM6.31172 3.66979H6.25778C6.04199 3.72222 5.8262 3.82707 5.77226 3.93192C5.66436 4.24647 5.66436 4.66586 5.88015 4.87556L12.3537 13.0014C12.4077 13.1062 12.6235 13.1587 12.7853 13.1062C12.8393 13.1062 13.0011 13.0538 13.0011 12.949C13.109 12.7393 12.8393 12.2674 12.5695 11.9005L6.47356 3.72222C6.41962 3.66979 6.36567 3.66979 6.31172 3.66979Z" fill="#171753"/>
<path d="M12.5695 13.1062L6.09591 4.98039C5.88013 4.71826 5.82618 4.19402 5.98802 3.82704C6.14986 3.46007 6.47354 3.35522 6.68933 3.66977L13.1629 11.7956C13.3787 12.0577 13.4327 12.582 13.2708 13.0014C13.109 13.3159 12.7853 13.4208 12.5695 13.1062Z" fill="#E3E0EB"/>
<path d="M12.8393 13.5256C12.6774 13.5256 12.5156 13.4207 12.3537 13.2635L5.93409 5.13765C5.66436 4.82311 5.61041 4.19401 5.77225 3.72219C5.88014 3.46006 6.09593 3.30279 6.31171 3.25037C6.5275 3.25037 6.68934 3.30279 6.85118 3.51249L13.3248 11.6383C13.5945 11.9529 13.6485 12.582 13.4866 13.0538C13.3787 13.3159 13.1629 13.4732 12.9471 13.5256C12.8932 13.5256 12.8932 13.5256 12.8393 13.5256ZM12.7314 13.0013C12.7314 13.0538 12.7853 13.1062 12.8393 13.1062C12.8932 13.1062 12.9471 13.0538 13.0011 12.8965C13.109 12.582 13.109 12.1626 12.8932 11.9529L6.41961 3.82704C6.41961 3.77461 6.31171 3.72219 6.31171 3.72219C6.25777 3.72219 6.20382 3.77461 6.14987 3.93189C6.04198 4.24643 6.04198 4.66583 6.25777 4.87553L12.7314 13.0013Z" fill="#171753"/>
<path d="M1.51051 3.98428C1.40262 3.98428 1.29472 3.98428 1.18683 3.93185L1.29472 3.6173C1.56445 3.72215 1.94208 3.61731 2.10392 3.56488L2.15787 3.87943C2.15787 3.87943 1.83419 3.98428 1.51051 3.98428Z" fill="#8989C7"/>
<path d="M7.93014 12.0577C7.8762 12.0577 7.7683 12.0577 7.71436 12.0577L7.7683 11.7432C8.03803 11.7956 8.46961 11.6907 8.63145 11.6383L8.73934 11.9529C8.68539 11.9529 8.30777 12.0577 7.93014 12.0577Z" fill="#8989C7"/>
<path d="M8.73935 13.0537C8.6854 13.0537 8.57751 13.0537 8.52356 13.0537L8.57751 12.7392C8.84724 12.7916 9.27881 12.6868 9.44065 12.6343L9.54855 12.9489C9.54855 12.8965 9.11697 13.0537 8.73935 13.0537Z" fill="#8989C7"/>
<path d="M20.23 27.1035C20.176 27.1035 20.1221 27.1035 20.0681 27.1035L20.1221 26.789C20.3918 26.8414 20.8234 26.6841 20.9313 26.6317L21.0931 26.9463C21.0392 26.8938 20.6076 27.1035 20.23 27.1035Z" fill="#8989C7"/>
<path d="M20.9852 27.7326C20.9313 27.7326 20.8773 27.7326 20.8234 27.7326L20.8773 27.4181C21.147 27.4705 21.5786 27.3132 21.6865 27.2608L21.8484 27.5754C21.7944 27.5229 21.3628 27.7326 20.9852 27.7326Z" fill="#8989C7"/>
<path d="M5.90296 4.47856L5.47656 4.54327L5.52651 4.85405L5.9529 4.78933L5.90296 4.47856Z" fill="#8989C7"/>
<path d="M10.4886 10.4024L10.0622 10.4671L10.1121 10.7779L10.5385 10.7132L10.4886 10.4024Z" fill="#8989C7"/>
<path d="M11.3027 11.4504L10.8763 11.5151L10.9263 11.8258L11.3527 11.7611L11.3027 11.4504Z" fill="#8989C7"/>
<path d="M3.17096 23.893H2.53632V22.4554H3.17096V23.893ZM3.17096 20.9665H2.53632V19.5289H3.17096V20.9665ZM3.17096 18.0913H2.53632V16.6537H3.17096V18.0913Z" fill="#171753"/>
<path d="M6.60861 20.5557H5.12777V19.9396H6.60861V20.5557ZM3.59404 20.5557H2.1132V19.9396H3.59404V20.5557ZM0.579473 20.5557H-0.901367V19.9396H0.579473V20.5557Z" fill="#171753"/>
<path d="M11.3685 25.0739H9.88761V24.4578H11.3685V25.0739ZM8.35389 25.0739H6.87305V24.4578H8.35389V25.0739Z" fill="#171753"/>
</g>
<defs>
<clipPath id="clip0_78_8411">
<rect width="31.6667" height="40" fill="white"/>
</clipPath>
</defs>
</svg>
