<svg width="32" height="36" viewBox="0 0 32 36" fill="none" xmlns="http://www.w3.org/2000/svg">
<path d="M15.8858 0.288687L31.2327 9.16169L15.8468 18.0352L0.499936 9.16222L15.8858 0.288687Z" fill="#8989C7" stroke="#171753" stroke-width="0.5"/>
<path d="M0.249939 9.59515L15.5966 18.468V34.7202L0.249939 25.8473V9.59515Z" fill="#8989C7" stroke="#171753" stroke-width="0.5"/>
<path d="M16.0966 34.7216V18.4292L31.4825 9.59369V25.8861L16.0966 34.7216Z" fill="#8989C7" stroke="#171753" stroke-width="0.5"/>
<path d="M25.8532 20.3108C25.8683 20.3163 25.8839 20.322 25.9 20.3279C26.0894 20.3973 26.3433 20.4943 26.6004 20.6042C26.857 20.7138 27.1191 20.8372 27.3239 20.9599C27.4262 21.021 27.5166 21.0835 27.5855 21.1455C27.6109 21.1683 27.6358 21.1931 27.658 21.2202C27.6804 21.1918 27.7059 21.1587 27.734 21.1211C27.8524 20.9631 28.0107 20.7364 28.1697 20.4799C28.329 20.223 28.4861 19.941 28.6046 19.6716C28.7243 19.3994 28.7972 19.157 28.8043 18.9694L28.8043 18.9694L28.8044 18.9678C28.8061 18.9303 28.7963 18.8984 28.735 18.883C28.6675 18.8661 28.5568 18.8776 28.4032 18.9227C28.0994 19.0121 27.6821 19.2164 27.2536 19.455C26.8274 19.6923 26.3989 19.9585 26.0764 20.1658C25.9945 20.2185 25.9195 20.2673 25.8532 20.3108Z" fill="#8989C7" stroke="#171753" stroke-width="0.3"/>
<path d="M21.4989 26.1474L21.5334 25.9815L21.5335 25.9815L21.5339 25.9814L21.5354 25.9812L21.5416 25.9805L21.566 25.9777L21.6595 25.9666C21.7405 25.9569 21.8567 25.9424 21.998 25.9236C22.2806 25.8859 22.6626 25.8312 23.0611 25.7624C23.4601 25.6936 23.8733 25.6111 24.219 25.5185C24.3919 25.4721 24.5455 25.4238 24.6707 25.3744C24.8003 25.3232 24.8844 25.2763 24.9276 25.2401C25.1638 25.0423 25.2372 24.8747 25.2626 24.7759C25.2764 24.7219 25.2788 24.6776 25.2777 24.6472C25.2772 24.6321 25.2758 24.621 25.2748 24.6144L25.2738 24.6086L25.2305 24.443L25.3928 24.3606L25.4008 24.5131L25.3929 24.3605L25.393 24.3605L25.3931 24.3604L25.3935 24.3602L25.3943 24.3598L25.3961 24.3589L25.4007 24.3567L25.4167 24.3494C25.4309 24.3431 25.4536 24.3334 25.4892 24.3187C25.5595 24.2896 25.6815 24.2407 25.8909 24.1601C25.9489 24.1288 25.9845 24.0886 26.0092 24.0486C26.0373 24.0033 26.0584 23.9467 26.0729 23.8833C26.0873 23.8203 26.0931 23.7595 26.095 23.713C26.0959 23.6902 26.0958 23.6718 26.0956 23.6596L26.0952 23.6464L26.0951 23.644L26.095 23.6439L26.095 23.6438L26.095 23.6437L26.095 23.6435L26.0833 23.4748L26.2301 23.4166L26.2301 23.4166L26.2301 23.4166L26.2302 23.4165L26.2302 23.4165L26.2303 23.4165L26.2309 23.4163L26.2353 23.4144C26.2394 23.4127 26.246 23.4098 26.2549 23.4058C26.2725 23.3979 26.2992 23.3854 26.3332 23.3679C26.4013 23.333 26.4985 23.2785 26.6129 23.2013C26.7142 23.1328 26.7703 23.0646 26.8026 23.0093C26.8354 22.9534 26.8528 22.8954 26.8604 22.8377C26.8682 22.7788 26.8652 22.7244 26.8594 22.6831C26.8565 22.663 26.8532 22.6471 26.8507 22.6368L26.8478 22.6258L26.8474 22.6243L26.8473 22.624L26.8473 22.624L26.8473 22.624L26.7796 22.4153L26.9897 22.3578C27.3042 22.2716 27.4106 22.1361 27.4517 22.0493C27.5033 21.9402 27.5075 21.8014 27.4929 21.647C27.483 21.5419 27.4361 21.4456 27.2901 21.3281C27.1426 21.2094 26.9099 21.0811 26.5532 20.8988C26.2072 20.7261 25.4993 20.5337 24.8693 20.3834C24.5559 20.3087 24.2646 20.2449 24.0516 20.1999C23.9451 20.1774 23.8583 20.1596 23.7981 20.1474L23.7286 20.1334L23.7105 20.1298L23.706 20.1289L23.7048 20.1287L23.7045 20.1286L23.7045 20.1286L23.766 19.9637L23.7045 20.1286L23.5598 20.1003L23.6659 19.9059L23.6659 19.9059L23.6659 19.9058L23.666 19.9056L23.6665 19.9047L23.6686 19.901L23.6768 19.8858L23.708 19.8277C23.7347 19.7776 23.7724 19.7062 23.8161 19.6216C23.9038 19.4517 24.0145 19.2307 24.1092 19.0214C24.1942 18.8334 24.2578 18.6732 24.2861 18.5692C24.1486 18.6551 23.988 18.7183 23.8263 18.7676C23.6486 18.8217 23.4597 18.8619 23.282 18.8947C23.1842 18.9128 23.0828 18.9298 22.9895 18.9454C22.9193 18.9572 22.8537 18.9681 22.7975 18.9783C22.6525 19.0044 22.5599 19.0267 22.5189 19.0468C22.5087 19.0518 22.475 19.0746 22.4108 19.1283C22.3513 19.1781 22.2769 19.2447 22.1921 19.3235C22.0225 19.481 21.8175 19.6814 21.6168 19.8805C21.4575 20.0387 21.3021 20.1949 21.1704 20.3273C21.1363 20.3616 21.1039 20.3942 21.0733 20.4248C20.9993 20.4991 20.9362 20.5624 20.8897 20.6081C20.8803 20.6173 20.8714 20.626 20.8631 20.634L19.8094 25.5894C20.0898 25.941 20.5014 26.0459 20.8567 26.0582C21.0405 26.0645 21.2064 26.046 21.326 26.0259C21.3857 26.0158 21.4337 26.0054 21.4664 25.9977C21.4827 25.9938 21.4951 25.9906 21.5033 25.9884L21.5122 25.986L21.5142 25.9854L21.5144 25.9854L21.5144 25.9853L21.5145 25.9853L21.5145 25.9853L21.524 25.9825L21.5334 25.9815L21.4989 26.1474ZM24.3011 18.4914C24.3011 18.4914 24.3011 18.4922 24.3012 18.4934C24.3012 18.4919 24.3012 18.4913 24.3011 18.4914ZM24.3487 18.5316C24.3487 18.5315 24.348 18.5317 24.3462 18.5324C24.3477 18.5321 24.3486 18.5317 24.3487 18.5316ZM25.2737 24.6083L25.2738 24.6084L25.2737 24.6083Z" fill="#ECFFFE" stroke="#171753" stroke-width="0.3"/>
<path d="M24.5322 20.2725C24.5328 20.2741 24.5334 20.2756 24.5341 20.2771L24.5332 20.275C24.5329 20.2742 24.5326 20.2734 24.5322 20.2725ZM24.1938 20.4419C24.312 20.3359 24.41 20.2435 24.4789 20.1756C24.3803 20.0357 24.2094 19.9438 23.9883 19.9068C23.7213 19.8621 23.3974 19.9007 23.0871 20.0111C22.7746 20.1222 22.4914 20.3006 22.2962 20.5196C22.1105 20.7279 21.999 20.9771 22.0141 21.2803C22.0226 21.432 22.0641 21.5184 22.1219 21.5664C22.1812 21.6157 22.2678 21.6327 22.3835 21.6152C22.6191 21.5796 22.9411 21.406 23.2789 21.1726C23.6127 20.9419 23.9453 20.6645 24.1938 20.4419Z" fill="#171753" stroke="#171753" stroke-width="0.3"/>
<mask id="path-7-inside-1_78_9106" fill="white">
<path d="M26.9397 20.3021C26.0335 20.9416 24.212 19.8231 23.7624 20.0949C23.3052 20.3709 23.005 20.9451 22.709 21.5629C22.413 22.1808 21.5384 22.3882 21.487 22.2699C21.4355 22.1516 22.022 20.4312 22.1723 20.0611C22.3226 19.6911 23.9833 18.3411 23.9833 18.3411C25.6121 17.8468 26.3356 17.3195 26.3356 17.3195C26.9896 17.0799 28.9472 19.0421 28.9472 19.0421"/>
</mask>
<path d="M26.9397 20.3021C26.0335 20.9416 24.212 19.8231 23.7624 20.0949C23.3052 20.3709 23.005 20.9451 22.709 21.5629C22.413 22.1808 21.5384 22.3882 21.487 22.2699C21.4355 22.1516 22.022 20.4312 22.1723 20.0611C22.3226 19.6911 23.9833 18.3411 23.9833 18.3411C25.6121 17.8468 26.3356 17.3195 26.3356 17.3195C26.9896 17.0799 28.9472 19.0421 28.9472 19.0421" fill="#ECFFFE"/>
<path d="M26.8814 20.0225C27.0229 19.9226 27.1638 19.9668 27.196 20.1212C27.2282 20.2756 27.1396 20.4818 26.998 20.5817L26.8814 20.0225ZM23.7624 20.0949L23.7995 20.3884L23.7993 20.3885L23.7624 20.0949ZM23.9833 18.3411L23.9037 18.0777L23.9568 18.0345L24.0122 18.0177L23.9833 18.3411ZM26.3356 17.3195L26.2725 17.0433L26.3111 17.0152L26.3507 17.0007L26.3356 17.3195ZM29.1497 18.7546C29.2423 18.8474 29.2267 19.0513 29.1148 19.2101C29.003 19.3689 28.8373 19.4224 28.7447 19.3296L29.1497 18.7546ZM26.998 20.5817C26.6906 20.7986 26.3438 20.8452 26.0276 20.8342C25.7024 20.8228 25.3611 20.7474 25.0465 20.6639C24.7219 20.5778 24.4394 20.4876 24.1931 20.4314C24.0723 20.4038 23.9727 20.3876 23.8942 20.3849C23.805 20.3817 23.7829 20.3984 23.7995 20.3884L23.7254 19.8014C23.8543 19.7234 23.9875 19.7156 24.0875 19.7191C24.1983 19.723 24.3217 19.7446 24.4491 19.7737C24.6991 19.8308 25.0129 19.9292 25.3132 20.0088C25.6234 20.0911 25.9355 20.1584 26.2207 20.1684C26.515 20.1787 26.7357 20.1253 26.8814 20.0225L26.998 20.5817ZM23.7993 20.3885C23.4684 20.5883 23.2281 21.0147 22.9223 21.6529L22.4957 21.4729C22.7819 20.8754 23.142 20.1535 23.7255 19.8013L23.7993 20.3885ZM22.9223 21.6529C22.6963 22.1246 22.2876 22.3825 22.0065 22.5051C21.8552 22.5711 21.7099 22.612 21.5933 22.6275C21.5357 22.6351 21.4773 22.6377 21.4259 22.6299C21.4003 22.626 21.3703 22.6187 21.3415 22.6038C21.3151 22.5901 21.2729 22.5615 21.2459 22.4995L21.728 22.0402C21.7075 21.9931 21.6781 21.9767 21.6704 21.9727C21.6601 21.9674 21.6544 21.9671 21.6583 21.9677C21.6658 21.9688 21.6864 21.9697 21.7227 21.9649C21.7938 21.9555 21.8952 21.9281 22.006 21.8798C22.249 21.7738 22.4257 21.619 22.4957 21.4729L22.9223 21.6529ZM21.2459 22.4995C21.2142 22.4267 21.2207 22.341 21.2229 22.3134C21.2261 22.2716 21.2332 22.2287 21.2405 22.191C21.2552 22.1146 21.2782 22.0225 21.3045 21.9262C21.3577 21.7313 21.4336 21.4849 21.5141 21.2363C21.6737 20.7432 21.8628 20.2054 21.9456 20.0014L22.3991 20.1208C22.3316 20.2869 22.1522 20.7943 21.9939 21.2835C21.9153 21.5261 21.845 21.7551 21.7979 21.9276C21.7741 22.015 21.7585 22.0796 21.7505 22.1213C21.7463 22.1428 21.7459 22.1493 21.7462 22.1459C21.7463 22.144 21.7471 22.1338 21.7463 22.1189C21.7455 22.106 21.7427 22.0741 21.728 22.0402L21.2459 22.4995ZM21.9456 20.0014C21.998 19.8723 22.0874 19.7568 22.1499 19.6813C22.2228 19.593 22.3111 19.4986 22.4043 19.4044C22.5915 19.2153 22.8217 19.0044 23.0413 18.8102C23.2621 18.6149 23.4774 18.432 23.6372 18.2982C23.7173 18.2312 23.7836 18.1763 23.8301 18.138C23.8533 18.1189 23.8716 18.1039 23.8841 18.0937C23.8904 18.0886 23.8952 18.0846 23.8985 18.0819C23.9001 18.0806 23.9014 18.0795 23.9023 18.0788C23.9027 18.0785 23.9031 18.0782 23.9033 18.078C23.9034 18.0779 23.9035 18.0778 23.9036 18.0778C23.9036 18.0777 23.9037 18.0777 23.9037 18.0777C23.9037 18.0777 23.9037 18.0777 23.9833 18.3411C24.0629 18.6046 24.0629 18.6046 24.0629 18.6046C24.0629 18.6046 24.0629 18.6046 24.0629 18.6046C24.0629 18.6046 24.0628 18.6047 24.0627 18.6047C24.0626 18.6049 24.0623 18.6051 24.0619 18.6054C24.0612 18.606 24.0601 18.6069 24.0586 18.6081C24.0556 18.6105 24.0511 18.6142 24.0452 18.6191C24.0333 18.6288 24.0157 18.6431 23.9933 18.6617C23.9483 18.6987 23.8837 18.7521 23.8057 18.8175C23.6494 18.9483 23.4402 19.126 23.2271 19.3145C23.0128 19.504 22.7995 19.7 22.6331 19.8681C22.5495 19.9525 22.4834 20.0243 22.4367 20.0807C22.3796 20.1498 22.3842 20.1574 22.3991 20.1208L21.9456 20.0014ZM24.0122 18.0177C24.8129 17.7747 25.3862 17.5251 25.7551 17.3393C25.9395 17.2464 26.073 17.1694 26.1582 17.1172C26.2008 17.0911 26.2314 17.0711 26.2504 17.0584C26.2598 17.0521 26.2664 17.0476 26.2701 17.045C26.2719 17.0437 26.273 17.0429 26.2734 17.0426C26.2736 17.0425 26.2737 17.0425 26.2735 17.0426C26.2734 17.0426 26.2733 17.0427 26.2731 17.0428C26.2731 17.0429 26.273 17.043 26.2729 17.043C26.2728 17.0431 26.2727 17.0431 26.2727 17.0431C26.2726 17.0432 26.2725 17.0433 26.3356 17.3195C26.3986 17.5957 26.3985 17.5958 26.3984 17.5958C26.3984 17.5959 26.3983 17.5959 26.3982 17.596C26.3981 17.5961 26.3979 17.5962 26.3977 17.5963C26.3974 17.5966 26.397 17.5969 26.3966 17.5972C26.3957 17.5978 26.3947 17.5985 26.3935 17.5994C26.391 17.6011 26.3879 17.6034 26.384 17.6061C26.3763 17.6114 26.3657 17.6187 26.3522 17.6278C26.3252 17.6459 26.2866 17.671 26.2359 17.702C26.1346 17.7641 25.9854 17.8499 25.7854 17.9506C25.3853 18.152 24.7825 18.4132 23.9544 18.6645L24.0122 18.0177ZM26.3507 17.0007C26.4966 16.9472 26.6431 16.9639 26.7688 16.9971C26.9014 17.0322 27.0434 17.0953 27.1867 17.1735C27.4739 17.3301 27.7881 17.5594 28.0764 17.792C28.3658 18.0253 28.6339 18.2658 28.8293 18.4475C28.9271 18.5385 29.0069 18.615 29.0625 18.6689C29.0902 18.6958 29.1119 18.7171 29.1267 18.7317C29.1341 18.739 29.1398 18.7447 29.1437 18.7485C29.1456 18.7504 29.1471 18.7519 29.1481 18.7529C29.1486 18.7534 29.149 18.7538 29.1493 18.7541C29.1494 18.7542 29.1495 18.7543 29.1496 18.7544C29.1496 18.7545 29.1496 18.7545 29.1497 18.7545C29.1497 18.7545 29.1497 18.7546 28.9472 19.0421C28.7447 19.3296 28.7447 19.3296 28.7447 19.3296C28.7447 19.3296 28.7447 19.3296 28.7447 19.3295C28.7446 19.3295 28.7445 19.3294 28.7444 19.3293C28.7442 19.3291 28.7439 19.3288 28.7435 19.3284C28.7426 19.3275 28.7413 19.3262 28.7395 19.3244C28.7359 19.3208 28.7305 19.3155 28.7234 19.3085C28.7092 19.2945 28.6882 19.2738 28.6612 19.2476C28.607 19.1951 28.5289 19.1201 28.4329 19.0309C28.2408 18.8523 27.9786 18.6171 27.6968 18.3899C27.414 18.1618 27.1162 17.9455 26.8524 17.8016C26.7202 17.7295 26.6019 17.6786 26.5023 17.6523C26.3958 17.6241 26.3381 17.6318 26.3204 17.6383L26.3507 17.0007Z" fill="#171753" mask="url(#path-7-inside-1_78_9106)"/>
<path d="M20.4892 26.2169C20.4305 26.2214 20.3776 26.2311 20.335 26.2413C20.3305 26.2705 20.3258 26.3033 20.3209 26.3389C20.3011 26.4845 20.2808 26.6733 20.2773 26.8529C20.2738 27.0364 20.2883 27.1923 20.3277 27.2867C20.3468 27.3324 20.3691 27.3574 20.3921 27.3686C20.4135 27.3791 20.4424 27.3811 20.4868 27.3626L20.4868 27.3625L20.4888 27.3617C20.678 27.2863 20.7961 27.0672 20.8723 26.7875C20.9086 26.654 20.9298 26.5245 20.9418 26.4269C20.946 26.3925 20.9491 26.3626 20.9512 26.3384C20.8036 26.2262 20.6313 26.2061 20.4892 26.2169Z" fill="#ECFFFE" stroke="#171753" stroke-width="0.3"/>
<path d="M21.768 26.2389C21.7851 26.335 21.8118 26.4524 21.8533 26.5563C21.8957 26.6625 21.9493 26.7434 22.0139 26.7806C22.0731 26.8147 22.1449 26.815 22.2456 26.7484C22.5143 26.571 22.7141 26.3597 22.8175 26.1587C22.912 25.9753 22.9418 25.7704 22.8288 25.5556L22.8285 25.555C22.7831 25.4673 22.7208 25.4542 22.6463 25.4762C22.5621 25.501 22.4567 25.5738 22.3439 25.676C22.2334 25.776 22.1284 25.8928 22.0498 25.9864C22.0109 26.0328 21.9791 26.0726 21.9574 26.1006C21.9465 26.1145 21.9381 26.1255 21.9327 26.1328L21.9266 26.1408L21.9253 26.1426L21.9251 26.1428L21.9251 26.1428L21.9251 26.1429L21.9251 26.1429L21.8862 26.1956L21.8371 26.2136L21.768 26.2389Z" fill="#ECFFFE" stroke="#171753" stroke-width="0.3"/>
<path d="M24.5092 25.345L24.5092 25.345L24.506 25.3465C24.4696 25.3637 24.4142 25.4126 24.3418 25.5055C24.2723 25.5947 24.201 25.7063 24.1353 25.8196C24.0702 25.932 24.0135 26.0409 23.9729 26.1222C23.9543 26.1596 23.9392 26.1909 23.9284 26.2135C23.9285 26.2303 23.9304 26.2497 23.9362 26.267C23.9451 26.2938 23.97 26.3414 24.084 26.317C24.2067 26.2908 24.3956 26.1706 24.5558 26.0069C24.7242 25.8348 24.7981 25.6823 24.7973 25.5902C24.7958 25.4184 24.7646 25.3443 24.7288 25.3155C24.6961 25.2891 24.6354 25.2818 24.5092 25.345Z" fill="#ECFFFE" stroke="#171753" stroke-width="0.3"/>
<path d="M23.0172 25.9954L23.0138 26.158C23.0241 26.1659 23.0361 26.175 23.0498 26.1847C23.0945 26.2165 23.1557 26.2541 23.2272 26.2791C23.3752 26.3307 23.5332 26.3187 23.6809 26.1619L23.6816 26.1612C23.9011 25.93 24.1619 25.6482 24.3241 25.3848C24.4045 25.2542 24.4482 25.1478 24.4599 25.0649C24.4705 24.9909 24.459 24.9118 24.3856 24.8375L24.3856 24.8375L24.3852 24.8372C24.3121 24.7624 24.2346 24.7478 24.1584 24.7642C24.0794 24.7811 23.9909 24.8339 23.8967 24.9167C23.7056 25.0848 23.5215 25.3503 23.4152 25.549C23.2798 25.8018 23.1412 25.9348 23.0205 25.9938C23.0194 25.9943 23.0183 25.9949 23.0172 25.9954Z" fill="#ECFFFE" stroke="#171753" stroke-width="0.3"/>
<path d="M29.2778 18.4703C29.4189 18.2624 29.4323 18.0011 29.3076 17.8891L27.5768 16.3347C27.4504 16.2212 27.2319 16.3057 27.0944 16.5212C27.0055 16.6607 26.9668 16.8338 26.9833 16.9976C26.9998 17.1619 27.0704 17.2961 27.1754 17.3529C27.758 17.668 28.4095 18.2679 28.782 18.6355C28.908 18.7599 29.1326 18.6843 29.2778 18.4703Z" fill="#8989C7" stroke="#171753" stroke-width="0.3"/>
<path d="M20.6015 20.7488C20.5395 20.7978 20.4603 20.8721 20.3765 20.9599C20.281 21.0599 20.1864 21.17 20.1139 21.2653C20.0775 21.3132 20.0488 21.3544 20.0289 21.3867C20.0127 21.4131 20.0075 21.4252 20.0069 21.426L19.0536 24.9311C18.9742 25.223 19.0729 25.4671 19.2811 25.4939C19.4637 25.5174 19.6424 25.3704 19.7079 25.166C19.9222 24.4979 20.1391 23.4424 20.3091 22.5046C20.4498 21.729 20.5565 21.0449 20.6015 20.7488Z" fill="#8989C7" stroke="#171753" stroke-width="0.3"/>
<path d="M25.3282 24.4016C25.3282 24.4016 24.6483 24.384 24.269 24.2886C23.8897 24.1931 23.4776 24.0511 23.4776 24.0511" stroke="#171753" stroke-width="0.3" stroke-linecap="round"/>
<path d="M26.2049 23.4501C26.2049 23.4501 25.5249 23.4325 25.1456 23.3371C24.7664 23.2416 24.3543 23.0996 24.3543 23.0996" stroke="#171753" stroke-width="0.3" stroke-linecap="round"/>
<path d="M26.8979 22.4224C26.8979 22.4224 26.2179 22.4049 25.8386 22.3094C25.4594 22.2139 25.0472 22.0719 25.0472 22.0719" stroke="#171753" stroke-width="0.3" stroke-linecap="round"/>
<g clip-path="url(#clip0_78_9106)">
<path d="M6.99036 23.0085V16.4379C6.99036 16.1449 7.16773 16.0092 7.38832 16.1295L12.3771 19.0131C12.4984 19.1001 12.5976 19.2144 12.6667 19.3466C12.7358 19.4789 12.773 19.6256 12.7751 19.7748V26.3439L6.99036 23.0085Z" fill="#E3E0EB"/>
<path d="M12.8584 26.498L6.90088 23.0593V16.4379C6.89351 16.3614 6.90646 16.2844 6.93843 16.2145C6.97039 16.1447 7.02021 16.0845 7.08289 16.04C7.13765 16.0115 7.19912 15.9983 7.26077 16.0018C7.32241 16.0054 7.38193 16.0255 7.43307 16.0601L12.4157 18.9375C12.5509 19.0317 12.6616 19.1568 12.7386 19.3025C12.8157 19.4481 12.8567 19.6101 12.8584 19.7748V26.498ZM7.07826 22.9514L12.6825 26.1896V19.7748C12.68 19.6411 12.6467 19.5098 12.5852 19.391C12.5236 19.2723 12.4355 19.1693 12.3277 19.0902L7.34362 16.2127C7.31908 16.1953 7.29051 16.1843 7.26058 16.1808C7.23064 16.1772 7.2003 16.1814 7.17238 16.1927C7.13766 16.2226 7.11091 16.2607 7.09449 16.3035C7.07807 16.3462 7.07248 16.3924 7.07826 16.4379V22.9514Z" fill="#171753"/>
<path d="M12.1811 25.0486L7.57955 22.3932C7.53166 22.3573 7.49278 22.3108 7.466 22.2572C7.43923 22.2037 7.42529 22.1447 7.42529 22.0848V16.8635C7.42529 16.7448 7.4978 16.6908 7.57955 16.7417L12.1811 19.3971C12.2291 19.4329 12.268 19.4794 12.2948 19.533C12.3216 19.5865 12.3355 19.6456 12.3354 19.7055V24.9283C12.34 25.044 12.2691 25.0995 12.1811 25.0486Z" fill="#8989C7"/>
<path d="M11.8279 23.0702L10.9024 21.0378C10.8839 20.9992 10.8484 20.9746 10.8268 20.9869L9.54642 21.7872C9.47855 21.8304 9.36442 21.6669 9.41224 21.596L9.84108 20.9653C9.84935 20.9491 9.85366 20.9311 9.85366 20.9129C9.85366 20.8947 9.84935 20.8767 9.84108 20.8604L9.27956 19.5713C9.23019 19.4557 9.12531 19.3878 9.06515 19.4387C8.81371 19.6715 8.20284 20.2344 7.94523 20.4688C7.90343 20.513 7.87129 20.5655 7.85085 20.6228C7.8304 20.6802 7.82209 20.7411 7.82644 20.8018V21.8628C7.82951 21.9244 7.84704 21.9844 7.87759 22.0379C7.90814 22.0915 7.95083 22.1371 8.00228 22.1712L11.7508 24.33C11.8495 24.3855 11.9282 24.3393 11.9282 24.2267V23.5066C11.9252 23.3557 11.891 23.2072 11.8279 23.0702Z" fill="#E3E0EB"/>
<path d="M11.8341 24.4441C11.7905 24.4437 11.7478 24.4315 11.7107 24.4086L7.96217 22.2498C7.89689 22.2088 7.84258 22.1526 7.80388 22.086C7.76518 22.0194 7.74327 21.9443 7.74004 21.8674V20.8064C7.73583 20.733 7.7474 20.6594 7.77401 20.5908C7.80062 20.5222 7.84165 20.46 7.8943 20.4086C8.15346 20.1727 8.76279 19.6114 9.01423 19.3785C9.03326 19.3611 9.05639 19.3487 9.08145 19.3425C9.10652 19.3363 9.13271 19.3365 9.15768 19.343C9.20576 19.3578 9.24992 19.3832 9.28678 19.4173C9.32365 19.4515 9.35229 19.4936 9.37058 19.5404L9.93207 20.8311C9.94746 20.8601 9.95553 20.8924 9.95553 20.9252C9.95553 20.958 9.94746 20.9903 9.93207 21.0192L9.50477 21.6499C9.51266 21.6698 9.5242 21.6881 9.53874 21.7039L10.799 20.9175C10.8134 20.9085 10.8295 20.9028 10.8464 20.901C10.8632 20.8991 10.8802 20.901 10.8962 20.9067C10.9196 20.9149 10.9411 20.9279 10.9591 20.9449C10.9772 20.9619 10.9915 20.9825 11.0011 21.0054L11.919 23.0393C11.9898 23.1878 12.0282 23.3497 12.0316 23.5142V24.2344C12.0341 24.272 12.0264 24.3097 12.0093 24.3433C11.9922 24.377 11.9663 24.4054 11.9344 24.4256C11.9035 24.4415 11.8686 24.4479 11.8341 24.4441ZM9.11912 19.5096C8.86304 19.7455 8.26298 20.2991 8.00691 20.5304C7.97484 20.5669 7.95042 20.6094 7.93505 20.6555C7.91969 20.7016 7.91371 20.7503 7.91746 20.7987V21.8596C7.92108 21.9054 7.93485 21.9498 7.9578 21.9895C7.98075 22.0293 8.01229 22.0634 8.05011 22.0894L11.7986 24.2482C11.8096 24.2556 11.8224 24.2598 11.8356 24.2606C11.8421 24.2488 11.8448 24.2353 11.8434 24.222V23.5019C11.8394 23.3626 11.8068 23.2256 11.7477 23.0994L10.8345 21.0902L9.60042 21.8612C9.56769 21.88 9.52922 21.8861 9.49226 21.8784C9.4553 21.8708 9.42242 21.8498 9.39988 21.8195C9.36239 21.7858 9.33696 21.7407 9.32749 21.6911C9.31803 21.6416 9.32506 21.5903 9.34745 21.5451L9.77472 20.9144C9.77472 20.9144 9.77475 20.9144 9.76395 20.8943L9.20242 19.6052C9.18687 19.5652 9.15724 19.5323 9.11912 19.5127V19.5096Z" fill="#171753"/>
<path d="M10.6679 19.8998C10.6679 20.1804 10.4705 20.2945 10.2268 20.1542C10.0988 20.0706 9.99233 19.9581 9.91595 19.8258C9.83957 19.6935 9.79542 19.545 9.78711 19.3924C9.78711 19.1118 9.98458 18.9977 10.2268 19.138C10.3551 19.2213 10.4619 19.3337 10.5386 19.4661C10.6153 19.5984 10.6596 19.747 10.6679 19.8998Z" fill="#E3E0EB"/>
<path d="M10.4241 20.3022C10.3388 20.3002 10.2557 20.2751 10.1835 20.2297C10.0417 20.139 9.9237 20.0156 9.83943 19.87C9.75515 19.7243 9.70701 19.5605 9.69906 19.3924C9.68804 19.3218 9.69864 19.2495 9.72945 19.185C9.76027 19.1204 9.80986 19.0667 9.87174 19.0309C9.93362 18.995 10.0049 18.9787 10.0762 18.9841C10.1475 18.9894 10.2156 19.0162 10.2714 19.0609C10.4131 19.1521 10.531 19.2757 10.6152 19.4217C10.6995 19.5676 10.7477 19.7315 10.7558 19.8998C10.7622 19.9699 10.7496 20.0405 10.7192 20.104C10.6887 20.1675 10.6417 20.2216 10.583 20.2606C10.5348 20.2886 10.4799 20.303 10.4241 20.3022ZM10.0307 19.1658C10.0058 19.1653 9.9813 19.1717 9.95979 19.1843C9.92899 19.2088 9.90501 19.2408 9.89015 19.2773C9.8753 19.3137 9.87006 19.3534 9.87494 19.3924C9.88372 19.5294 9.92408 19.6625 9.99286 19.7812C10.0616 19.9 10.157 20.0013 10.2714 20.0771C10.3025 20.1012 10.3394 20.1167 10.3784 20.1221C10.4173 20.1275 10.457 20.1226 10.4935 20.1079C10.5243 20.0834 10.5483 20.0514 10.5632 20.0149C10.578 19.9785 10.5833 19.9388 10.5784 19.8998C10.5699 19.7629 10.5298 19.6299 10.4613 19.5111C10.3928 19.3923 10.2977 19.291 10.1835 19.2151C10.1378 19.1855 10.0851 19.1684 10.0307 19.1658Z" fill="#171753"/>
</g>
<g clip-path="url(#clip1_78_9106)">
<path d="M5.14746 24.0014V17.4308C5.14746 17.1378 5.32695 17.0021 5.55016 17.1224L10.5983 20.006C10.7211 20.093 10.8214 20.2073 10.8914 20.3396C10.9613 20.4719 10.9989 20.6185 11.0011 20.7678V27.3368L5.14746 24.0014Z" fill="#E3E0EB"/>
<path d="M11.0854 27.491L5.05697 24.0523V17.4308C5.04951 17.3543 5.06262 17.2773 5.09496 17.2074C5.12731 17.1376 5.17772 17.0774 5.24115 17.033C5.29656 17.0044 5.35877 16.9912 5.42114 16.9948C5.48352 16.9983 5.54374 17.0184 5.59549 17.053L10.6374 19.9304C10.7742 20.0246 10.8863 20.1497 10.9642 20.2954C11.0422 20.441 11.0837 20.603 11.0854 20.7677V27.491ZM5.23646 23.9443L10.9074 27.1826V20.7677C10.9049 20.634 10.8712 20.5027 10.8089 20.384C10.7467 20.2652 10.6575 20.1623 10.5484 20.0831L5.50498 17.2057C5.48015 17.1882 5.45124 17.1772 5.42095 17.1737C5.39066 17.1702 5.35995 17.1743 5.3317 17.1856C5.29657 17.2155 5.2695 17.2536 5.25289 17.2964C5.23627 17.3392 5.23061 17.3853 5.23646 17.4308V23.9443Z" fill="#171753"/>
<path d="M10.4 26.0415L5.74368 23.3861C5.69522 23.3502 5.65588 23.3037 5.62878 23.2501C5.60169 23.1966 5.58759 23.1376 5.58759 23.0777V17.8564C5.58759 17.7377 5.66095 17.6837 5.74368 17.7346L10.4 20.39C10.4486 20.4258 10.488 20.4724 10.5151 20.5259C10.5422 20.5795 10.5563 20.6385 10.5561 20.6984V25.9212C10.5608 26.0369 10.489 26.0924 10.4 26.0415Z" fill="#8989C7"/>
<path d="M10.0426 24.0631L9.10606 22.0307C9.08733 21.9922 9.05143 21.9675 9.02957 21.9798L7.73397 22.7801C7.66528 22.8233 7.54979 22.6598 7.59818 22.5889L8.03213 21.9582C8.0405 21.942 8.04486 21.924 8.04486 21.9058C8.04486 21.8876 8.0405 21.8696 8.03213 21.8534L7.46392 20.5642C7.41397 20.4486 7.30784 20.3807 7.24697 20.4316C6.99253 20.6645 6.37439 21.2273 6.11371 21.4617C6.07142 21.506 6.0389 21.5584 6.0182 21.6158C5.99751 21.6731 5.9891 21.7341 5.99351 21.7948V22.8557C5.99661 22.9173 6.01435 22.9773 6.04526 23.0309C6.07617 23.0844 6.11938 23.1301 6.17144 23.1641L9.96459 25.3229C10.0645 25.3784 10.1441 25.3322 10.1441 25.2196V24.4995C10.141 24.3487 10.1065 24.2001 10.0426 24.0631Z" fill="#E3E0EB"/>
<path d="M10.0489 25.437C10.0047 25.4366 9.96156 25.4244 9.92398 25.4015L6.13084 23.2427C6.06478 23.2017 6.00982 23.1455 5.97066 23.0789C5.9315 23.0123 5.90933 22.9372 5.90607 22.8603V21.7994C5.9018 21.7259 5.91352 21.6523 5.94044 21.5837C5.96737 21.5151 6.00888 21.453 6.06217 21.4015C6.32441 21.1656 6.94099 20.6043 7.19542 20.3714C7.21468 20.354 7.23809 20.3416 7.26345 20.3354C7.28881 20.3292 7.31531 20.3294 7.34058 20.336C7.38924 20.3507 7.43392 20.3761 7.47122 20.4103C7.50853 20.4444 7.53751 20.4865 7.55602 20.5334L8.12419 21.824C8.13977 21.853 8.14793 21.8853 8.14793 21.9181C8.14793 21.9509 8.13977 21.9832 8.12419 22.0122L7.6918 22.6428C7.69979 22.6628 7.71147 22.6811 7.72617 22.6968L9.00147 21.9104C9.01598 21.9014 9.03234 21.8958 9.04937 21.8939C9.0664 21.892 9.08363 21.894 9.09979 21.8996C9.12348 21.9078 9.14519 21.9208 9.16347 21.9378C9.18175 21.9548 9.19624 21.9754 9.20596 21.9983L10.1347 24.0322C10.2064 24.1807 10.2453 24.3426 10.2487 24.5072V25.2273C10.2512 25.2649 10.2434 25.3026 10.2261 25.3362C10.2088 25.3699 10.1826 25.3983 10.1503 25.4185C10.1191 25.4344 10.0838 25.4409 10.0489 25.437ZM7.30156 20.5025C7.04244 20.7384 6.43523 21.292 6.17611 21.5233C6.14366 21.5598 6.11895 21.6024 6.1034 21.6484C6.08785 21.6945 6.0818 21.7432 6.0856 21.7916V22.8526C6.08926 22.8983 6.10319 22.9427 6.12642 22.9824C6.14964 23.0222 6.18155 23.0563 6.21982 23.0823L10.013 25.2412C10.0241 25.2485 10.037 25.2528 10.0504 25.2535C10.0569 25.2417 10.0596 25.2283 10.0582 25.2149V24.4948C10.0542 24.3555 10.0213 24.2185 9.96144 24.0923L9.03737 22.0831L7.7886 22.8541C7.75547 22.8729 7.71654 22.879 7.67915 22.8713C7.64175 22.8637 7.60848 22.8427 7.58566 22.8125C7.54773 22.7787 7.522 22.7336 7.51242 22.684C7.50284 22.6345 7.50995 22.5832 7.53262 22.538L7.96497 21.9073C7.96497 21.9073 7.965 21.9073 7.95407 21.8873L7.38586 20.5981C7.37012 20.5582 7.34014 20.5252 7.30156 20.5056V20.5025Z" fill="#171753"/>
<path d="M8.86878 20.8927C8.86878 21.1733 8.669 21.2874 8.42237 21.1471C8.29288 21.0636 8.18514 20.9511 8.10785 20.8187C8.03056 20.6864 7.98588 20.5379 7.97748 20.3854C7.97748 20.1047 8.1773 19.9906 8.42237 20.1309C8.55223 20.2142 8.66034 20.3266 8.73791 20.459C8.81549 20.5914 8.86033 20.74 8.86878 20.8927Z" fill="#E3E0EB"/>
<path d="M8.62219 21.2951C8.53589 21.2931 8.45175 21.268 8.37867 21.2227C8.23519 21.1319 8.11582 21.0086 8.03054 20.8629C7.94526 20.7172 7.89654 20.5534 7.88851 20.3853C7.87735 20.3147 7.88808 20.2424 7.91926 20.1779C7.95044 20.1134 8.00062 20.0597 8.06324 20.0238C8.12585 19.988 8.19797 19.9717 8.27013 19.977C8.3423 19.9824 8.41116 20.0091 8.46765 20.0538C8.61107 20.145 8.73034 20.2687 8.81559 20.4146C8.90085 20.5605 8.9496 20.7244 8.95778 20.8927C8.96432 20.9628 8.95152 21.0334 8.92074 21.0969C8.88996 21.1604 8.84237 21.2146 8.78297 21.2535C8.73417 21.2815 8.6786 21.2959 8.62219 21.2951ZM8.22413 20.1587C8.19893 20.1582 8.1741 20.1646 8.15234 20.1772C8.12117 20.2017 8.09691 20.2337 8.08187 20.2702C8.06684 20.3066 8.06154 20.3463 8.06648 20.3853C8.07537 20.5223 8.1162 20.6554 8.1858 20.7741C8.25539 20.8929 8.35186 20.9942 8.46765 21.07C8.49913 21.0941 8.53645 21.1096 8.57588 21.115C8.61532 21.1204 8.65549 21.1156 8.69242 21.1009C8.72359 21.0763 8.74785 21.0443 8.76289 21.0078C8.77792 20.9714 8.78322 20.9317 8.77828 20.8927C8.76969 20.7558 8.72913 20.6228 8.6598 20.504C8.59047 20.3852 8.49425 20.2839 8.37867 20.208C8.33247 20.1784 8.27915 20.1614 8.22413 20.1587Z" fill="#171753"/>
</g>
<g clip-path="url(#clip2_78_9106)">
<path d="M3.0907 25.5853V19.0591C3.0907 18.7681 3.27018 18.6333 3.4934 18.7528L8.54156 21.6169C8.6643 21.7033 8.76468 21.8168 8.83462 21.9482C8.90456 22.0796 8.94213 22.2253 8.9443 22.3735V28.8981L3.0907 25.5853Z" fill="#E3E0EB"/>
<path d="M9.02853 29.0513L3.00008 25.6358V19.0591C2.99262 18.9831 3.00574 18.9066 3.03808 18.8372C3.07042 18.7678 3.12084 18.7081 3.18427 18.6639C3.23967 18.6356 3.30188 18.6225 3.36426 18.626C3.42663 18.6295 3.48686 18.6495 3.53861 18.6838L8.58052 21.5418C8.71736 21.6353 8.82941 21.7596 8.90734 21.9043C8.98528 22.049 9.02685 22.2098 9.02853 22.3735V29.0513ZM3.17958 25.5286L8.85056 28.7449V22.3735C8.84803 22.2407 8.81432 22.1102 8.75205 21.9923C8.68978 21.8743 8.60063 21.7721 8.49153 21.6934L3.4481 18.8355C3.42326 18.8181 3.39436 18.8072 3.36407 18.8037C3.33378 18.8002 3.30307 18.8043 3.27481 18.8155C3.23969 18.8453 3.21262 18.8831 3.196 18.9256C3.17939 18.9681 3.17373 19.0139 3.17958 19.0591V25.5286Z" fill="#171753"/>
<path d="M8.34322 27.6116L3.68686 24.9741C3.63839 24.9385 3.59905 24.8922 3.57196 24.8391C3.54486 24.7859 3.53076 24.7273 3.53076 24.6678V19.4818C3.53076 19.3639 3.60413 19.3103 3.68686 19.3608L8.34322 21.9982C8.39177 22.0338 8.43117 22.08 8.45827 22.1332C8.48537 22.1864 8.49943 22.2451 8.49931 22.3046V27.4921C8.504 27.607 8.43219 27.6621 8.34322 27.6116Z" fill="#8989C7"/>
<path d="M7.98581 25.6466L7.04923 23.6279C7.0305 23.5896 6.9946 23.5651 6.97275 23.5774L5.67714 24.3723C5.60846 24.4151 5.49297 24.2528 5.54136 24.1823L5.97531 23.5559C5.98367 23.5398 5.98804 23.5219 5.98804 23.5038C5.98804 23.4857 5.98367 23.4679 5.97531 23.4518L5.4071 22.1713C5.35715 22.0565 5.25102 21.9891 5.19014 22.0396C4.93571 22.2709 4.31756 22.8299 4.05688 23.0627C4.01459 23.1067 3.98207 23.1588 3.96138 23.2158C3.94069 23.2727 3.93228 23.3333 3.93669 23.3936V24.4473C3.93979 24.5085 3.95753 24.5681 3.98844 24.6213C4.01935 24.6745 4.06256 24.7198 4.11462 24.7536L7.90776 26.8979C8.00766 26.953 8.0873 26.9071 8.0873 26.7953V26.08C8.08422 25.9302 8.04966 25.7827 7.98581 25.6466Z" fill="#E3E0EB"/>
<path d="M7.99204 27.0112C7.94792 27.0109 7.90473 26.9987 7.86716 26.976L4.07401 24.8317C4.00796 24.7911 3.953 24.7352 3.91384 24.6691C3.87468 24.6029 3.85251 24.5284 3.84925 24.4519V23.3982C3.84498 23.3252 3.85669 23.2521 3.88362 23.184C3.91055 23.1158 3.95206 23.0541 4.00534 23.003C4.26758 22.7687 4.88416 22.2112 5.1386 21.9799C5.15786 21.9626 5.18126 21.9503 5.20663 21.9441C5.23199 21.938 5.25849 21.9382 5.28376 21.9447C5.33241 21.9593 5.37709 21.9845 5.4144 22.0185C5.4517 22.0524 5.48069 22.0942 5.49919 22.1407L6.06737 23.4227C6.08294 23.4514 6.09111 23.4835 6.09111 23.5161C6.09111 23.5487 6.08294 23.5808 6.06737 23.6095L5.63498 24.236C5.64297 24.2557 5.65464 24.2739 5.66935 24.2896L6.94464 23.5084C6.95916 23.4995 6.97552 23.4939 6.99255 23.4921C7.00957 23.4902 7.02681 23.4921 7.04297 23.4977C7.06666 23.5059 7.08836 23.5188 7.10665 23.5357C7.12493 23.5526 7.13942 23.573 7.14914 23.5957L8.0779 25.6159C8.14961 25.7634 8.18845 25.9243 8.19185 26.0877V26.8029C8.1944 26.8403 8.1866 26.8777 8.16929 26.9111C8.15198 26.9446 8.12578 26.9728 8.09349 26.9928C8.06226 27.0087 8.02697 27.0151 7.99204 27.0112ZM5.24474 22.1101C4.98562 22.3444 4.37841 22.8943 4.11929 23.124C4.08684 23.1603 4.06212 23.2025 4.04658 23.2483C4.03103 23.294 4.02498 23.3424 4.02878 23.3905V24.4442C4.03244 24.4897 4.04637 24.5338 4.06959 24.5732C4.09282 24.6127 4.12473 24.6466 4.163 24.6725L7.95614 26.8167C7.96729 26.824 7.98023 26.8282 7.9936 26.829C8.00009 26.8173 8.00282 26.8039 8.00142 26.7907V26.0754C7.99739 25.9371 7.96443 25.801 7.90462 25.6757L6.98054 23.68L5.73177 24.4458C5.69865 24.4644 5.65972 24.4705 5.62232 24.4629C5.58493 24.4553 5.55165 24.4345 5.52884 24.4044C5.4909 24.3709 5.46518 24.3261 5.45559 24.2769C5.44601 24.2277 5.45313 24.1767 5.47579 24.1318L5.90814 23.5054C5.90814 23.5054 5.90817 23.5054 5.89724 23.4855L5.32903 22.205C5.3133 22.1653 5.28332 22.1327 5.24474 22.1132V22.1101Z" fill="#171753"/>
<path d="M6.81196 22.4976C6.81196 22.7764 6.61218 22.8897 6.36554 22.7503C6.23606 22.6673 6.12832 22.5556 6.05103 22.4241C5.97374 22.2927 5.92906 22.1452 5.92065 21.9937C5.92065 21.715 6.12047 21.6016 6.36554 21.741C6.49541 21.8237 6.60351 21.9354 6.68109 22.0668C6.75867 22.1983 6.8035 22.3459 6.81196 22.4976Z" fill="#E3E0EB"/>
<path d="M6.5653 22.8973C6.47901 22.8953 6.39486 22.8704 6.32178 22.8253C6.17831 22.7352 6.05893 22.6127 5.97365 22.468C5.88838 22.3233 5.83966 22.1606 5.83162 21.9937C5.82046 21.9235 5.8312 21.8517 5.86237 21.7876C5.89355 21.7235 5.94374 21.6702 6.00635 21.6346C6.06897 21.599 6.14108 21.5828 6.21325 21.5881C6.28541 21.5934 6.35428 21.62 6.41077 21.6644C6.55418 21.7549 6.67345 21.8778 6.75871 22.0227C6.84396 22.1676 6.89272 22.3304 6.90089 22.4976C6.90744 22.5672 6.89463 22.6373 6.86385 22.7004C6.83307 22.7635 6.78548 22.8173 6.72609 22.856C6.67729 22.8837 6.62172 22.898 6.5653 22.8973ZM6.16725 21.7685C6.14205 21.7681 6.11721 21.7744 6.09545 21.7869C6.06429 21.8113 6.04002 21.8431 6.02499 21.8793C6.00995 21.9155 6.00465 21.9549 6.00959 21.9937C6.01848 22.1297 6.05932 22.2619 6.12891 22.3798C6.19851 22.4978 6.29498 22.5984 6.41077 22.6737C6.44224 22.6976 6.47956 22.713 6.519 22.7184C6.55844 22.7238 6.59861 22.7189 6.63554 22.7043C6.6667 22.68 6.69097 22.6482 6.706 22.612C6.72104 22.5757 6.72634 22.5364 6.7214 22.4976C6.7128 22.3616 6.67224 22.2295 6.60292 22.1115C6.53359 21.9936 6.43737 21.8929 6.32178 21.8175C6.27558 21.7881 6.22227 21.7712 6.16725 21.7685Z" fill="#171753"/>
</g>
<path d="M23.078 8.94831L22.7781 8.77108L18.9471 6.56246L18.6335 6.38522L18.4017 6.24889L18.0882 6.07165L17.4065 5.67628L17.0929 5.49905L15.9886 4.85828L15.7705 4.98098L15.4569 5.15821L15.1706 5.32181L14.857 5.49905L14.448 5.73082L14.1481 5.90805L13.6028 6.22162L13.2892 6.39886L12.7575 6.69879L12.4439 6.87603L12.1576 7.03963L11.844 7.21686L10.9306 7.74857L10.6307 7.9258L10.3171 8.10304L10.0035 8.28027L8.99466 8.86651L8.68109 9.04375L8.46295 9.16645L9.33549 9.67089L9.64906 9.84812L10.3853 10.2708L10.6988 10.448L11.5577 10.9524L11.8713 11.1297L12.553 11.525L12.8666 11.7023L14.8298 12.8338L15.1297 13.0111L15.975 13.5019L16.3704 13.2701L16.6839 13.0929L17.6792 12.5203L17.9927 12.343L18.5381 12.0295L18.838 11.8522L19.2879 11.5932L19.5879 11.416L19.9014 11.2387L20.215 11.0615L21.3875 10.3798L21.6874 10.2026L22.26 9.87539L22.5736 9.69815L23.4598 9.18008L23.078 8.94831ZM16.0023 13.0247L9.36276 9.19372L16.0023 5.36271L22.6417 9.19372L16.0023 13.0247Z" fill="#171753"/>
<path d="M8.28568 6.94403L10.5488 8.25284L10.2489 8.43008L8.10844 7.18943H5.28632L5.72259 6.94403H8.28568Z" fill="#171753"/>
<path d="M8.62656 6.4126L11.0533 7.81684L10.7534 7.99408L8.44933 6.658H6.21344L6.63608 6.4126H8.62656Z" fill="#171753"/>
<path d="M9.28081 5.37637L12.3347 7.13509L12.0211 7.31232L9.08994 5.62178H7.99927L8.43554 5.37637H9.28081Z" fill="#171753"/>
<path d="M9.73075 4.93997L12.9755 6.82139L12.6619 6.99862L9.55352 5.19901H8.74915L9.18542 4.93997H9.73075Z" fill="#171753"/>
<path d="M11.5986 3.54947L12.0349 3.8085V5.30818L13.8345 6.35796L13.5346 6.5352L11.5986 5.41725V3.91757L11.285 3.7267L11.5986 3.54947Z" fill="#171753"/>
<path d="M12.4574 3.05844L12.8937 3.31748V4.81716L14.6933 5.8533L14.3797 6.03054L12.4574 4.92623V3.41291L12.1439 3.23568L12.4574 3.05844Z" fill="#171753"/>
<path d="M16.0022 1L16.1385 1.0818V1.62714L13.6436 3.07229V4.43563L15.4023 5.44451L15.1024 5.62174L13.2073 4.53106V2.96322L15.7023 1.5317V1.17724L16.0022 1Z" fill="#171753"/>
<path d="M17.1474 1.66818L17.461 1.84542L14.3116 3.65867V4.13584L15.9886 5.10381L15.6886 5.28105L13.8754 4.23127V3.5496L17.1474 1.66818Z" fill="#171753"/>
<path d="M9.11725 8.94837L8.80368 9.12561L8.72188 9.07108L7.33127 8.2667H6.00883L3.17307 9.91635L2.8595 9.73912L5.83159 8.0213H7.50851L9.03545 8.89384L9.11725 8.94837Z" fill="#171753"/>
<path d="M19.3698 11.2796L22.1374 12.8747V13.8699L21.7011 14.1153V12.9838L19.0562 11.4568L19.3698 11.2796Z" fill="#171753"/>
<path d="M19.9831 10.9117L23.0506 12.6841V13.3385L22.6144 13.5839V12.7932L19.6832 11.1026L19.9831 10.9117Z" fill="#171753"/>
<path d="M18.5381 11.6751L20.4604 12.7931V14.2928L20.9239 14.5654L20.624 14.7427L20.0241 14.4018V12.8885L18.2245 11.8524L18.5381 11.6751Z" fill="#171753"/>
<path d="M17.679 12.1657L19.6149 13.2837V14.7833L20.0785 15.056L19.7785 15.2332L19.1786 14.8924V13.3927L17.379 12.3429L17.679 12.1657Z" fill="#171753"/>
<path d="M18.1835 13.9653V14.647L14.7888 16.6239L14.4752 16.4466L17.7609 14.5516V14.0744L16.4112 13.2973L16.0703 13.0928L16.3839 12.9156L16.7111 13.1201L18.1835 13.9653Z" fill="#171753"/>
<path d="M19.397 2.96323L19.7106 3.14046L18.8517 3.63127V4.84464L17.0793 5.88079L16.7657 5.70355L18.4154 4.74921V3.53583L19.397 2.96323Z" fill="#171753"/>
<path d="M19.9559 5.36269L18.1699 6.3852L17.87 6.20797L19.5196 5.25363V3.89028L20.2695 3.45401L20.5831 3.63125L19.9559 3.99935V5.36269Z" fill="#171753"/>
<path d="M23.2279 5.17194L23.5278 5.34917L22.4235 5.98994H21.0601L19.5059 6.88975L19.206 6.71252L20.8829 5.73091H22.2463L23.2279 5.17194Z" fill="#171753"/>
<path d="M22.2872 4.62639L18.7289 6.68504L18.4153 6.50781L21.9872 4.44916L22.2872 4.62639Z" fill="#171753"/>
<path d="M24.1823 5.71713L24.4822 5.908L23.2961 6.58967H21.9464L20.474 7.43495L20.1604 7.25771L21.7691 6.34427H23.1189L24.1823 5.71713Z" fill="#171753"/>
<path d="M25.3956 6.42615L25.7092 6.60338L24.8912 7.06692H22.8871L21.3601 7.9531L21.0602 7.77586L22.7098 6.82152H24.7139L25.3956 6.42615Z" fill="#171753"/>
<path d="M25.9137 7.27145L29.7174 9.46644L29.4175 9.64367L25.7365 7.51685H23.8823L22.2463 8.4712L21.9327 8.29396L23.7051 7.27145H25.9137Z" fill="#171753"/>
<path d="M25.7637 7.87125L29.1312 9.8072L28.8176 9.98443L25.5729 8.11665H24.5231L22.9825 9.01646L22.6689 8.83922L24.3459 7.87125H25.7637Z" fill="#171753"/>
<path d="M24.8367 10.8571L26.0773 11.566L25.7637 11.7569L24.6594 11.1025H22.6689L21.1965 10.2572L21.4965 10.08L22.8598 10.8571H24.8367Z" fill="#171753"/>
<path d="M25.6137 10.2981L26.9498 11.0616L26.6498 11.2388L25.4365 10.5435L23.4596 10.5572L21.9736 9.69826L22.2735 9.52103L23.6369 10.2981H25.6137Z" fill="#171753"/>
<path d="M13.0573 11.6342L12.8937 11.7296L11.4077 12.5885V13.8019L10.6578 14.2382L10.3579 14.0609L10.9714 13.6928V12.4794L12.5802 11.5524L12.7574 11.4569L13.0573 11.6342Z" fill="#171753"/>
<path d="M12.0759 11.0614L11.8987 11.1569L10.4262 12.0158V13.3655L9.78547 13.7336L9.48553 13.5564L9.98997 13.2701V11.9067L11.5987 10.9797L11.7623 10.8842L12.0759 11.0614Z" fill="#171753"/>
<path d="M15.2251 13.0113L15.1706 13.0386L13.5482 13.9793H12.1848L11.2032 14.5519L10.8896 14.3747L12.0076 13.7203H13.3709L14.857 12.8614L14.9252 12.8341L15.2251 13.0113Z" fill="#171753"/>
<path d="M10.9169 10.3661L10.726 10.4752L9.25359 11.3341H7.24947L6.4451 11.7976L6.13153 11.6204L7.07224 11.0751H9.07636L10.4261 10.2979L10.6169 10.2025L10.9169 10.3661Z" fill="#171753"/>
<path d="M9.85359 9.77996L9.68999 9.87539L7.93127 10.8979H5.28638L5.08188 11.007L4.76831 10.8297L5.09551 10.6389H7.75404L9.39005 9.69816L9.55365 9.60272L9.85359 9.77996Z" fill="#171753"/>
<path d="M19.8914 8.83987V9.32862C19.8914 9.41241 19.8356 9.49619 19.7239 9.56601V9.07727C19.8356 9.00744 19.8914 8.92366 19.8914 8.83987Z" fill="#8989C7"/>
<path d="M19.8916 8.83994V9.32868C19.8916 9.41247 19.8357 9.49625 19.724 9.56608V9.07733C19.8357 9.00751 19.8916 8.92372 19.8916 8.83994Z" fill="#8989C7"/>
<path d="M12.1971 9.32862V8.83987C12.1971 8.92366 12.2529 9.00744 12.3647 9.07727V9.56601C12.2529 9.49619 12.1971 9.41241 12.1971 9.32862Z" fill="#8989C7"/>
<path d="M12.3785 9.07742V9.56617C12.2668 9.49635 12.2109 9.41256 12.2109 9.32878V8.84003C12.197 8.92381 12.2668 9.0076 12.3785 9.07742Z" fill="#8989C7"/>
<path d="M19.7237 9.07736V9.56611L16.47 11.4513V10.9765L19.7237 9.07736Z" fill="#8989C7"/>
<path d="M15.6463 10.9765V11.4513L12.3787 9.56611V9.07736L15.6463 10.9765Z" fill="#8989C7"/>
<path d="M16.4699 10.9763V11.4651C16.2465 11.5907 15.8834 11.5907 15.6461 11.4651V10.9763C15.8834 11.102 16.2465 11.102 16.4699 10.9763Z" fill="#8989C7"/>
<path d="M19.7238 8.6024C19.9472 8.72808 19.9472 8.95151 19.7238 9.07719L16.4701 10.9763C16.2467 11.102 15.8836 11.102 15.6462 10.9763L12.3646 9.07719C12.1412 8.95151 12.1412 8.72808 12.3646 8.6024L15.6183 6.70327C15.8417 6.57759 16.2048 6.57759 16.4422 6.70327L19.7238 8.6024Z" fill="#171753"/>
<path d="M19.8913 8.39304V8.67232C19.8913 8.75611 19.8355 8.83989 19.7238 8.90971V8.63043C19.8355 8.56061 19.8913 8.47682 19.8913 8.39304Z" fill="#171753"/>
<path d="M19.8914 8.39304V8.67232C19.8914 8.75611 19.8355 8.83989 19.7238 8.90971V8.63043C19.8355 8.56061 19.8914 8.47682 19.8914 8.39304Z" fill="#171753"/>
<path d="M12.1968 8.67232V8.39304C12.1968 8.47682 12.2527 8.56061 12.3644 8.63043V8.90971C12.2527 8.83989 12.1968 8.75611 12.1968 8.67232Z" fill="#171753"/>
<path d="M12.3784 8.63061V8.9099C12.2667 8.84008 12.2108 8.75629 12.2108 8.6725V8.39322C12.1969 8.477 12.2527 8.56079 12.3784 8.63061Z" fill="#171753"/>
<path d="M19.7236 8.63052V8.90981L16.4699 10.795V10.5297L19.7236 8.63052Z" fill="#171753"/>
<path d="M15.6459 10.5297V10.795L12.3783 8.90981V8.63052L15.6459 10.5297Z" fill="#171753"/>
<path d="M16.4699 10.5297V10.809C16.2465 10.9347 15.8834 10.9347 15.6461 10.809V10.5297C15.8834 10.6554 16.2465 10.6554 16.4699 10.5297Z" fill="#171753"/>
<path d="M19.7236 8.15566C19.947 8.28134 19.947 8.50476 19.7236 8.63044L16.4699 10.5296C16.2465 10.6553 15.8834 10.6553 15.646 10.5296L12.3644 8.63044C12.141 8.50476 12.141 8.28134 12.3644 8.15566L15.6181 6.25652C15.8415 6.13084 16.2046 6.13084 16.442 6.25652L19.7236 8.15566Z" fill="#E3E0EB"/>
<defs>
<clipPath id="clip0_78_9106">
<rect width="5.95751" height="10.4966" fill="white" transform="translate(6.90088 16)"/>
</clipPath>
<clipPath id="clip1_78_9106">
<rect width="6.02843" height="10.4966" fill="white" transform="translate(5.05688 16.9929)"/>
</clipPath>
<clipPath id="clip2_78_9106">
<rect width="6.02843" height="10.4256" fill="white" transform="translate(3.00012 18.6241)"/>
</clipPath>
</defs>
</svg>
