<svg width="43" height="54" viewBox="0 0 43 54" fill="none" xmlns="http://www.w3.org/2000/svg">
<path d="M1.34904 5.09671L0.236851 5.73519V28.2262C0.236851 29.2869 0.978312 30.5741 1.90514 31.1096L39.8741 53.0342C40.3375 53.302 40.7598 53.3226 41.0584 53.1475L42.1603 52.509C42.4589 52.334 42.6443 51.9632 42.6443 51.4277V28.9367L1.34904 5.09671Z" fill="#BEF0ED"/>
<path d="M40.6156 53.4977C40.3375 53.4977 40.0492 53.4153 39.7506 53.2403L1.78157 31.3157C0.782661 30.739 7.62939e-06 29.3796 7.62939e-06 28.2262V5.73526C7.62939e-06 5.65288 0.0411999 5.57049 0.123584 5.5293L1.23578 4.89082C1.30786 4.84963 1.40055 4.84963 1.47263 4.89082L42.7679 28.7309C42.84 28.772 42.8915 28.8544 42.8915 28.9368V51.4278C42.8915 52.0354 42.6752 52.4885 42.2839 52.7151L41.182 53.3535C41.1717 53.3535 41.1614 53.3638 41.1614 53.3638C40.9966 53.4565 40.8113 53.4977 40.6156 53.4977ZM0.484017 5.86914V28.2262C0.484017 29.2046 1.17399 30.4094 2.02873 30.8934L39.9977 52.8283C40.3581 53.0343 40.7083 53.0755 40.9451 52.9416C40.9554 52.9416 40.9657 52.9313 40.9657 52.9313L42.047 52.3134C42.2839 52.1796 42.4178 51.8706 42.4178 51.4484V29.081L1.34905 5.37483L0.484017 5.86914Z" fill="#171753"/>
<path d="M0.236851 5.73526V28.2262C0.236851 29.2869 0.978312 30.5742 1.90514 31.1097L39.8741 53.0343C40.7906 53.5698 41.5424 53.1373 41.5424 52.0766V29.5753L0.236851 5.73526Z" fill="#BEF0ED"/>
<path d="M40.6156 53.4977C40.3375 53.4977 40.0492 53.4051 39.7506 53.2403L1.78157 31.3157C0.782661 30.739 7.62939e-06 29.3797 7.62939e-06 28.2263V5.7353C7.62939e-06 5.65291 0.0411999 5.57053 0.123584 5.52934C0.195671 5.48815 0.288354 5.48815 0.36044 5.52934L41.6557 29.3694C41.7278 29.4106 41.7793 29.4929 41.7793 29.5753V52.0663C41.7793 52.4885 41.6763 52.8387 41.4703 53.0858C41.2644 53.3536 40.9657 53.4977 40.6156 53.4977ZM0.484017 6.14722V28.2263C0.484017 29.2046 1.17399 30.4095 2.02873 30.8935L39.9977 52.8284C40.2243 52.952 40.4405 53.024 40.6259 53.024C40.8216 53.024 40.9863 52.9519 41.0996 52.8078C41.2335 52.643 41.3056 52.3959 41.3056 52.0869V29.7195L0.484017 6.14722Z" fill="#171753"/>
<path d="M40.9863 22.3872L3.01732 0.462658C2.55391 0.194908 2.13169 0.174312 1.83304 0.349379L0.73115 0.987859C0.422208 1.16293 0.236843 1.53366 0.236843 2.05886V5.73527L41.5321 29.5753L42.6443 28.9368V25.2604C42.6443 24.21 41.9028 22.9227 40.9863 22.3872Z" fill="#49CE8B"/>
<path d="M41.5424 29.8224C41.5012 29.8224 41.46 29.8121 41.4188 29.7915L0.123577 5.94122C0.0514904 5.90003 0 5.81765 0 5.73526V2.05885C0 1.46156 0.216259 1.00845 0.607586 0.781891L1.70948 0.143411C1.71978 0.133113 1.73008 0.133113 1.74037 0.133113C2.1214 -0.0831467 2.62601 -0.0316563 3.14091 0.25669L41.1099 22.1813C42.1088 22.758 42.8915 24.1173 42.8915 25.2707V28.9471C42.8915 29.0295 42.8503 29.1119 42.7679 29.1531L41.6557 29.7915C41.6248 29.8121 41.5836 29.8224 41.5424 29.8224ZM0.484009 5.60139L41.5424 29.3075L42.4074 28.8029V25.2707C42.4074 24.2924 41.7175 23.0875 40.8627 22.6035L2.89376 0.668612C2.53333 0.462651 2.18319 0.421459 1.94634 0.555334C1.93604 0.565632 1.92574 0.565632 1.91544 0.57593L0.844442 1.19381C0.607586 1.33799 0.484009 1.63663 0.484009 2.05885V5.60139Z" fill="#171753"/>
<path d="M36.6198 26.7433L41.532 29.5753L42.6442 28.9368V25.2604C42.6442 24.7146 42.4382 24.0967 42.119 23.5612L36.6198 26.7433Z" fill="#171753"/>
<path d="M41.5423 29.8225C41.5012 29.8225 41.46 29.8122 41.4188 29.7916L36.5066 26.9596C36.4345 26.9184 36.383 26.836 36.383 26.7536C36.383 26.6712 36.4242 26.5889 36.5066 26.5477L42.0058 23.3759C42.119 23.3141 42.2632 23.345 42.3353 23.4582C42.6957 24.0555 42.9017 24.7043 42.9017 25.281V28.9574C42.9017 29.0398 42.8605 29.1222 42.7781 29.1634L41.6659 29.8019C41.6247 29.8122 41.5835 29.8225 41.5423 29.8225ZM37.1039 26.7433L41.5423 29.3075L42.4074 28.8029V25.2707C42.4074 24.8485 42.2735 24.3645 42.0264 23.9011L37.1039 26.7433Z" fill="#171753"/>
<path d="M41.5424 29.5753V25.8989C41.5424 24.8382 40.8009 23.551 39.8741 23.0155L1.90514 1.10118C0.98861 0.575976 0.236851 1.00849 0.236851 2.0589V5.73531L41.5424 29.5753Z" fill="#49CE8B"/>
<path d="M41.5424 29.8225C41.5012 29.8225 41.46 29.8122 41.4188 29.7916L0.123584 5.94123C0.051498 5.90004 7.62939e-06 5.81765 7.62939e-06 5.73527V2.05886C7.62939e-06 1.19382 0.453123 0.637726 1.16369 0.637726C1.44174 0.637726 1.73008 0.72011 2.02873 0.895178L39.9977 22.8198C40.9966 23.3965 41.7793 24.7558 41.7793 25.9092V29.5856C41.7793 29.668 41.7381 29.7504 41.6557 29.7916C41.6248 29.8122 41.5836 29.8225 41.5424 29.8225ZM0.484017 5.6014L41.2953 29.1634V25.9092C41.2953 24.9309 40.6053 23.726 39.7506 23.242L1.78157 1.3174C1.55502 1.19382 1.34905 1.12174 1.15339 1.12174C0.731171 1.12174 0.473719 1.47187 0.473719 2.06916V5.6014H0.484017Z" fill="#171753"/>
<path d="M38.6384 25.7753C38.3192 25.5899 38.0617 25.1471 38.0617 24.7764C38.0617 24.4056 38.3192 24.2615 38.6384 24.4468C38.9577 24.6322 39.2151 25.075 39.2151 25.4457C39.2151 25.8165 38.9577 25.9606 38.6384 25.7753ZM35.8888 23.52C35.8888 23.1493 35.6314 22.7065 35.3121 22.5211C34.9929 22.3357 34.7354 22.4902 34.7354 22.8506C34.7354 23.2111 34.9929 23.6642 35.3121 23.8495C35.6314 24.0349 35.8888 23.8907 35.8888 23.52ZM32.5626 21.6046C32.5626 21.2338 32.3051 20.791 31.9859 20.6056C31.6666 20.4203 31.4092 20.5748 31.4092 20.9352C31.4092 21.3059 31.6666 21.7487 31.9859 21.9341C32.2948 22.1195 32.5626 21.965 32.5626 21.6046Z" fill="#171753"/>
<path d="M38.8959 26.0945C38.7723 26.0945 38.6487 26.0534 38.5148 25.9813C38.1235 25.7547 37.8146 25.2192 37.8146 24.7764C37.8146 24.2512 38.2883 23.9628 38.7517 24.2306C39.143 24.4572 39.452 24.9927 39.452 25.4458C39.452 25.6311 39.4005 25.7856 39.3078 25.8989C39.2151 26.0225 39.0606 26.0945 38.8959 26.0945ZM38.381 24.6013C38.3089 24.6013 38.2986 24.7249 38.2986 24.7764C38.2986 25.0544 38.5148 25.4252 38.762 25.5693C38.9165 25.662 38.9268 25.6105 38.9474 25.6002C38.9577 25.5899 38.9783 25.5487 38.9783 25.4458C38.9783 25.1677 38.762 24.797 38.5148 24.6528C38.4428 24.6116 38.4016 24.6013 38.381 24.6013ZM35.5696 24.1688C35.446 24.1688 35.3224 24.1276 35.1886 24.0555C34.7972 23.829 34.4883 23.2935 34.4883 22.8507C34.4883 22.3255 34.962 22.0371 35.4254 22.3049C35.8167 22.5314 36.1257 23.0669 36.1257 23.52C36.1257 23.7054 36.0742 23.8599 35.9815 23.9731C35.8888 24.107 35.7344 24.1688 35.5696 24.1688ZM35.0444 22.6756C34.9723 22.6756 34.962 22.7992 34.962 22.8507C34.962 23.1287 35.1783 23.4994 35.4254 23.6436C35.4975 23.6848 35.5387 23.6951 35.5593 23.6951C35.5902 23.6951 35.6005 23.6848 35.6005 23.6745C35.6108 23.6642 35.6314 23.623 35.6314 23.52C35.6314 23.242 35.4151 22.8712 35.168 22.7271C35.1165 22.6859 35.0753 22.6756 35.0444 22.6756ZM32.233 22.2534C32.1094 22.2534 31.9859 22.2122 31.852 22.1401C31.4607 21.9135 31.1517 21.378 31.1517 20.9249C31.1517 20.3997 31.6254 20.1114 32.0888 20.3791C32.4802 20.6057 32.7891 21.1412 32.7891 21.5943C32.7994 21.9856 32.5729 22.2534 32.233 22.2534ZM31.7181 20.7601C31.646 20.7601 31.6357 20.8837 31.6357 20.9352C31.6357 21.2133 31.852 21.584 32.0991 21.7282C32.1712 21.7694 32.2124 21.7797 32.233 21.7797C32.3051 21.7797 32.3154 21.6561 32.3154 21.6046C32.3154 21.3265 32.0991 20.9558 31.852 20.8116C31.7902 20.7601 31.7387 20.7601 31.7181 20.7601Z" fill="#171753"/>
<path d="M38.2058 46.7834C38.1646 46.7834 38.1234 46.7731 38.0822 46.7525L26.3012 39.9557C26.188 39.894 26.1468 39.7395 26.2086 39.6262C26.2703 39.5129 26.4248 39.4717 26.5381 39.5335L38.3191 46.3302C38.4324 46.392 38.4735 46.5465 38.4118 46.6598C38.3706 46.7319 38.2882 46.7834 38.2058 46.7834ZM31.0486 44.5693C31.0075 44.5693 30.9663 44.559 30.9251 44.5384L21.7289 39.2246C21.6156 39.1628 21.5744 39.0083 21.6362 38.895C21.698 38.7818 21.8525 38.7406 21.9657 38.8024L31.1619 44.1162C31.2752 44.1779 31.3164 44.3324 31.2546 44.4457C31.2134 44.5281 31.131 44.5693 31.0486 44.5693ZM33.8703 42.3552C33.8291 42.3552 33.7879 42.3449 33.7467 42.3243L27.4134 38.6685C27.3001 38.6067 27.259 38.4522 27.3207 38.3389C27.3825 38.2257 27.537 38.1845 27.6503 38.2463L33.9836 41.9021C34.0969 41.9639 34.1381 42.1183 34.0763 42.2316C34.0351 42.314 33.963 42.3552 33.8703 42.3552ZM33.8703 40.4398C33.8291 40.4398 33.7879 40.4295 33.7467 40.4089L24.8698 35.2804C24.7565 35.2186 24.7153 35.0642 24.7771 34.9509C24.8389 34.8376 24.9934 34.7964 25.1067 34.8582L33.9836 39.9866C34.0969 40.0484 34.1381 40.2029 34.0763 40.3162C34.0351 40.3986 33.9527 40.4398 33.8703 40.4398ZM38.2058 39.1113C38.1646 39.1113 38.1234 39.101 38.0822 39.0804L26.3012 32.2837C26.188 32.2219 26.1468 32.0674 26.2086 31.9541C26.2703 31.8409 26.4248 31.7997 26.5381 31.8615L38.3191 38.6582C38.4324 38.72 38.4735 38.8744 38.4118 38.9877C38.3706 39.0701 38.2882 39.1113 38.2058 39.1113ZM24.4888 38.8538C24.4476 38.8538 24.4064 38.8435 24.3652 38.823L22.2438 37.5975C22.1305 37.5357 22.0893 37.3812 22.1511 37.2679C22.2129 37.1547 22.3674 37.1135 22.4806 37.1753L24.6124 38.411C24.7256 38.4728 24.7668 38.6273 24.705 38.7406C24.6535 38.8127 24.5712 38.8538 24.4888 38.8538ZM19.6796 37.9991C19.6384 37.9991 19.5972 37.9888 19.556 37.9682L13.82 34.6625C13.7067 34.6007 13.6655 34.4463 13.7273 34.333C13.7891 34.2197 13.9436 34.1785 14.0568 34.2403L19.7929 37.546C19.9061 37.6078 19.9473 37.7623 19.8855 37.8755C19.8443 37.9579 19.762 37.9991 19.6796 37.9991ZM25.1376 37.3194C25.0964 37.3194 25.0552 37.3091 25.014 37.2885L17.1051 32.7265C16.9918 32.6647 16.9506 32.5102 17.0124 32.397C17.0742 32.2837 17.2286 32.2425 17.3419 32.3043L25.2508 36.8663C25.3641 36.9281 25.4053 37.0826 25.3435 37.1959C25.3023 37.2679 25.2199 37.3194 25.1376 37.3194ZM31.0486 36.8972C31.0075 36.8972 30.9663 36.8869 30.9251 36.8663L21.7289 31.5525C21.6156 31.4907 21.5744 31.3363 21.6362 31.223C21.698 31.1097 21.8525 31.0685 21.9657 31.1303L31.1619 36.4441C31.2752 36.5059 31.3164 36.6604 31.2546 36.7736C31.2134 36.856 31.1413 36.8972 31.0486 36.8972ZM20.2769 36.4338C20.2357 36.4338 20.1945 36.4235 20.1533 36.4029L15.756 33.8696C15.6427 33.8078 15.6015 33.6533 15.6633 33.54C15.7251 33.4268 15.8796 33.3856 15.9929 33.4474L20.3901 35.9807C20.5034 36.0425 20.5446 36.1969 20.4828 36.3102C20.4416 36.3823 20.3592 36.4338 20.2769 36.4338ZM33.8703 34.6934C33.8291 34.6934 33.7879 34.6831 33.7467 34.6625L27.4237 30.9964C27.3104 30.9346 27.2693 30.7802 27.331 30.6669C27.3928 30.5536 27.5473 30.5124 27.6606 30.5742L33.9939 34.23C34.1072 34.2918 34.1484 34.4463 34.0866 34.5596C34.0351 34.6419 33.9527 34.6934 33.8703 34.6934ZM22.6866 33.9829C22.6454 33.9829 22.6042 33.9726 22.563 33.952L19.1441 31.9747C19.0308 31.9129 18.9896 31.7585 19.0514 31.6452C19.1132 31.5319 19.2677 31.4907 19.3809 31.5525L22.7999 33.5297C22.9132 33.5915 22.9544 33.746 22.8926 33.8593C22.8514 33.9417 22.769 33.9829 22.6866 33.9829ZM11.8633 33.4886C11.8221 33.4886 11.781 33.4783 11.7398 33.4577L8.75332 31.7379C8.64004 31.6761 8.59885 31.5216 8.66064 31.4083C8.72243 31.2951 8.8769 31.2539 8.99018 31.3157L11.9766 33.0354C12.0899 33.0972 12.1311 33.2517 12.0693 33.365C12.0281 33.4474 11.9457 33.4886 11.8633 33.4886ZM33.8703 32.7677C33.8291 32.7677 33.7879 32.7574 33.7467 32.7368L24.8698 27.6084C24.7565 27.5466 24.7153 27.3921 24.7771 27.2788C24.8389 27.1655 24.9934 27.1243 25.1067 27.1861L33.9836 32.3146C34.0969 32.3764 34.1381 32.5308 34.0763 32.6441C34.0351 32.7265 33.963 32.7677 33.8703 32.7677ZM13.7582 32.6647C13.717 32.6647 13.6758 32.6544 13.6346 32.6338L5.98314 28.2159C5.86986 28.1542 5.82867 27.9997 5.89046 27.8864C5.95225 27.7731 6.10672 27.7319 6.22 27.7937L13.8715 32.2116C13.9847 32.2734 14.0259 32.4279 13.9641 32.5411C13.923 32.6235 13.8406 32.6647 13.7582 32.6647ZM15.4265 31.707C15.3853 31.707 15.3441 31.6967 15.3029 31.6761L13.0373 30.3682C12.924 30.3064 12.8828 30.152 12.9446 30.0387C13.0064 29.9254 13.1609 29.8842 13.2742 29.946L15.5398 31.2539C15.653 31.3157 15.6942 31.4701 15.6324 31.5834C15.5912 31.6658 15.5089 31.707 15.4265 31.707ZM38.2058 31.4392C38.1646 31.4392 38.1234 31.4289 38.0822 31.4083L26.3012 24.6116C26.188 24.5498 26.1468 24.3954 26.2086 24.2821C26.2703 24.1688 26.4248 24.1276 26.5381 24.1894L38.3191 30.9861C38.4324 31.0479 38.4735 31.2024 38.4118 31.3157C38.3706 31.398 38.2882 31.4392 38.2058 31.4392ZM24.4888 31.1921C24.4476 31.1921 24.4064 31.1818 24.3652 31.1612L22.2438 29.9254C22.1305 29.8636 22.0893 29.7092 22.1511 29.5959C22.2129 29.4826 22.3674 29.4414 22.4806 29.5032L24.6021 30.7287C24.7153 30.7905 24.7565 30.9449 24.6947 31.0582C24.6535 31.1406 24.5712 31.1921 24.4888 31.1921ZM16.9918 30.6978C16.9506 30.6978 16.9094 30.6875 16.8682 30.6669L11.6883 27.6804C11.575 27.6187 11.5338 27.4642 11.5956 27.3509C11.6574 27.2376 11.8119 27.1964 11.9251 27.2582L17.1051 30.2447C17.2183 30.3065 17.2595 30.4609 17.1977 30.5742C17.1565 30.6566 17.0845 30.6978 16.9918 30.6978ZM19.6796 30.327C19.6384 30.327 19.5972 30.3167 19.556 30.2962L13.82 26.9905C13.7067 26.9287 13.6655 26.7742 13.7273 26.6609C13.7891 26.5477 13.9436 26.5065 14.0568 26.5683L19.7929 29.8739C19.9061 29.9357 19.9473 30.0902 19.8855 30.2035C19.8443 30.2859 19.762 30.327 19.6796 30.327ZM25.1376 29.6474C25.0964 29.6474 25.0552 29.6371 25.014 29.6165L17.1051 25.0544C16.9918 24.9926 16.9506 24.8382 17.0124 24.7249C17.0742 24.6116 17.2286 24.5704 17.3419 24.6322L25.2508 29.1943C25.3641 29.256 25.4053 29.4105 25.3435 29.5238C25.3023 29.5959 25.2199 29.6474 25.1376 29.6474ZM31.0486 29.2252C31.0075 29.2252 30.9663 29.2149 30.9251 29.1943L21.7289 23.8805C21.6156 23.8187 21.5744 23.6642 21.6362 23.5509C21.698 23.4376 21.8525 23.3964 21.9657 23.4582L31.1619 28.772C31.2752 28.8338 31.3164 28.9883 31.2546 29.1016C31.2134 29.184 31.131 29.2252 31.0486 29.2252ZM20.2769 28.7617C20.2357 28.7617 20.1945 28.7514 20.1533 28.7308L15.756 26.1975C15.6427 26.1357 15.6015 25.9813 15.6633 25.868C15.7251 25.7547 15.8796 25.7135 15.9929 25.7753L20.3901 28.3086C20.5034 28.3704 20.5446 28.5249 20.4828 28.6382C20.4416 28.7103 20.3592 28.7617 20.2769 28.7617ZM22.6866 26.3108C22.6454 26.3108 22.6042 26.3005 22.563 26.2799L19.1441 24.3027C19.0308 24.2409 18.9896 24.0864 19.0514 23.9731C19.1132 23.8599 19.2677 23.8187 19.3809 23.8805L22.7999 25.8577C22.9132 25.9195 22.9544 26.0739 22.8926 26.1872C22.8514 26.2696 22.769 26.3108 22.6866 26.3108ZM11.8633 25.8165C11.8221 25.8165 11.781 25.8062 11.7398 25.7856L8.75332 24.0658C8.64004 24.004 8.59885 23.8496 8.66064 23.7363C8.72243 23.623 8.8769 23.5818 8.99018 23.6436L11.9766 25.3634C12.0899 25.4252 12.1311 25.5796 12.0693 25.6929C12.0281 25.7753 11.9457 25.8165 11.8633 25.8165ZM13.7582 24.9926C13.717 24.9926 13.6758 24.9823 13.6346 24.9618L5.98314 20.5439C5.86986 20.4821 5.82867 20.3276 5.89046 20.2143C5.95225 20.1011 6.10672 20.0599 6.22 20.1217L13.8715 24.5395C13.9847 24.6013 14.0259 24.7558 13.9641 24.8691C13.923 24.9515 13.8406 24.9926 13.7582 24.9926ZM15.4265 24.0349C15.3853 24.0349 15.3441 24.0246 15.3029 24.004L13.0373 22.6962C12.924 22.6344 12.8828 22.4799 12.9446 22.3666C13.0064 22.2534 13.1609 22.2122 13.2742 22.274L15.5398 23.5818C15.653 23.6436 15.6942 23.7981 15.6324 23.9113C15.5912 23.9937 15.5089 24.0349 15.4265 24.0349ZM24.4888 23.52C24.4476 23.52 24.4064 23.5097 24.3652 23.4891L22.2438 22.2534C22.1305 22.1916 22.0893 22.0371 22.1511 21.9238C22.2129 21.8105 22.3674 21.7694 22.4806 21.8311L24.6124 23.0669C24.7256 23.1287 24.7668 23.2832 24.705 23.3964C24.6535 23.4788 24.5712 23.52 24.4888 23.52ZM17.0021 23.0257C16.9609 23.0257 16.9197 23.0154 16.8785 22.9948L11.6986 20.0084C11.5853 19.9466 11.5441 19.7921 11.6059 19.6788C11.6677 19.5656 11.8221 19.5244 11.9354 19.5862L17.1154 22.5726C17.2286 22.6344 17.2698 22.7889 17.208 22.9021C17.1565 22.9845 17.0845 23.0257 17.0021 23.0257ZM19.6796 22.655C19.6384 22.655 19.5972 22.6447 19.556 22.6241L13.82 19.3184C13.7067 19.2566 13.6655 19.1022 13.7273 18.9889C13.7891 18.8756 13.9436 18.8344 14.0568 18.8962L19.7929 22.2019C19.9061 22.2637 19.9473 22.4181 19.8855 22.5314C19.8443 22.6138 19.762 22.655 19.6796 22.655ZM20.2769 21.0897C20.2357 21.0897 20.1945 21.0794 20.1533 21.0588L15.756 18.5255C15.6427 18.4637 15.6015 18.3092 15.6633 18.1959C15.7251 18.0826 15.8796 18.0415 15.9929 18.1032L20.3901 20.6366C20.5034 20.6984 20.5446 20.8528 20.4828 20.9661C20.4416 21.0485 20.3592 21.0897 20.2769 21.0897ZM11.8633 18.1444C11.8221 18.1444 11.781 18.1341 11.7398 18.1135L8.75332 16.3938C8.64004 16.332 8.59885 16.1775 8.66064 16.0642C8.72243 15.9509 8.8769 15.9098 8.99018 15.9715L11.9766 17.6913C12.0899 17.7531 12.1311 17.9076 12.0693 18.0209C12.0281 18.1032 11.9457 18.1444 11.8633 18.1444ZM13.7582 17.3206C13.717 17.3206 13.6758 17.3103 13.6346 17.2897L5.98314 12.8718C5.86986 12.81 5.82867 12.6556 5.89046 12.5423C5.95225 12.429 6.10672 12.3878 6.22 12.4496L13.8715 16.8675C13.9847 16.9293 14.0259 17.0837 13.9641 17.197C13.923 17.2794 13.8406 17.3206 13.7582 17.3206Z" fill="#171753"/>
<path d="M3.61466 11.2241C3.61466 11.4198 3.48078 11.4919 3.31601 11.3992C3.15124 11.3065 3.01737 11.0697 3.01737 10.8843C3.01737 10.6886 3.15124 10.6165 3.31601 10.7092C3.48078 10.8019 3.61466 11.0388 3.61466 11.2241ZM3.31601 12.6247C3.15124 12.532 3.01737 12.6041 3.01737 12.7997C3.01737 12.9851 3.15124 13.222 3.31601 13.3249C3.48078 13.4176 3.61466 13.3455 3.61466 13.1499C3.61466 12.9542 3.48078 12.7174 3.31601 12.6247ZM3.31601 14.5401C3.15124 14.4474 3.01737 14.5195 3.01737 14.7152C3.01737 14.9108 3.15124 15.1374 3.31601 15.2404C3.48078 15.3331 3.61466 15.261 3.61466 15.0653C3.61466 14.8696 3.48078 14.6328 3.31601 14.5401ZM3.31601 16.4556C3.15124 16.3629 3.01737 16.435 3.01737 16.6306C3.01737 16.8263 3.15124 17.0528 3.31601 17.1558C3.48078 17.2485 3.61466 17.1764 3.61466 16.9808C3.61466 16.7851 3.48078 16.5585 3.31601 16.4556ZM3.31601 18.3813C3.15124 18.2886 3.01737 18.3607 3.01737 18.5564C3.01737 18.752 3.15124 18.9786 3.31601 19.0713C3.48078 19.1639 3.61466 19.0919 3.61466 18.8962C3.61466 18.7005 3.48078 18.474 3.31601 18.3813ZM3.31601 20.2967C3.15124 20.204 3.01737 20.2761 3.01737 20.4718C3.01737 20.6675 3.15124 20.894 3.31601 20.9867C3.48078 21.0794 3.61466 21.0073 3.61466 20.8116C3.61466 20.6263 3.48078 20.3894 3.31601 20.2967ZM3.31601 22.2122C3.15124 22.1195 3.01737 22.1916 3.01737 22.3872C3.01737 22.5829 3.15124 22.8095 3.31601 22.9124C3.48078 23.0051 3.61466 22.933 3.61466 22.7374C3.61466 22.5417 3.48078 22.3049 3.31601 22.2122ZM3.31601 24.1276C3.15124 24.0349 3.01737 24.107 3.01737 24.3027C3.01737 24.4983 3.15124 24.7249 3.31601 24.8279C3.48078 24.9206 3.61466 24.8485 3.61466 24.6528C3.61466 24.4572 3.48078 24.2203 3.31601 24.1276ZM3.31601 26.0431C3.15124 25.9504 3.01737 26.0225 3.01737 26.2181C3.01737 26.4138 3.15124 26.6403 3.31601 26.733C3.48078 26.8257 3.61466 26.7536 3.61466 26.558C3.61466 26.3726 3.48078 26.146 3.31601 26.0431ZM3.31601 27.9688C3.15124 27.8761 3.01737 27.9482 3.01737 28.1439C3.01737 28.3395 3.15124 28.5661 3.31601 28.6588C3.48078 28.7514 3.61466 28.6794 3.61466 28.4837C3.61466 28.2983 3.48078 28.0615 3.31601 27.9688Z" fill="#171753"/>
<path d="M3.44991 28.9368C3.36753 28.9368 3.27484 28.9162 3.19246 28.8647C2.9556 28.7206 2.77024 28.4116 2.77024 28.1336C2.77024 27.7114 3.15127 27.5878 3.42931 27.7526C3.66617 27.8967 3.85153 28.2057 3.85153 28.4837C3.85153 28.6073 3.82064 28.7103 3.74855 28.7927C3.68677 28.8853 3.57349 28.9368 3.44991 28.9368ZM3.44991 27.0214C3.36753 27.0214 3.28514 27.0008 3.19246 26.9493C2.9556 26.8154 2.77024 26.4962 2.77024 26.2181C2.77024 26.0431 2.84232 25.9401 2.89381 25.8783C3.02769 25.7444 3.23365 25.7238 3.42931 25.8371C3.66617 25.971 3.85153 26.2902 3.85153 26.5683C3.85153 26.6918 3.82064 26.7948 3.74855 26.8772C3.68677 26.9699 3.57349 27.0214 3.44991 27.0214ZM3.44991 25.1059C3.36753 25.1059 3.27484 25.0854 3.19246 25.0339C2.9556 24.9 2.77024 24.5807 2.77024 24.3027C2.77024 23.8805 3.15127 23.7569 3.42931 23.9217C3.66617 24.0555 3.85153 24.3748 3.85153 24.6528C3.85153 24.7764 3.82064 24.8794 3.74855 24.9618C3.68677 25.0545 3.57349 25.1059 3.44991 25.1059ZM3.44991 23.1905C3.36753 23.1905 3.27484 23.1699 3.19246 23.1184C2.9556 22.9845 2.77024 22.6653 2.77024 22.3873C2.77024 21.965 3.15127 21.8415 3.42931 22.0062C3.66617 22.1401 3.85153 22.4593 3.85153 22.7374C3.85153 22.861 3.82064 22.9639 3.74855 23.0463C3.68677 23.139 3.57349 23.1905 3.44991 23.1905ZM3.44991 21.2648C3.36753 21.2648 3.27484 21.2442 3.19246 21.1927C2.9556 21.0588 2.77024 20.7396 2.77024 20.4615C2.77024 20.0393 3.15127 19.9157 3.42931 20.0805C3.66617 20.2144 3.85153 20.5336 3.85153 20.8117C3.85153 20.9352 3.82064 21.0382 3.74855 21.1206C3.68677 21.2133 3.57349 21.2648 3.44991 21.2648ZM3.44991 19.3493C3.36753 19.3493 3.27484 19.3287 3.19246 19.2772C2.9556 19.1331 2.77024 18.8241 2.77024 18.5461C2.77024 18.1239 3.15127 18.0003 3.42931 18.165C3.66617 18.2989 3.85153 18.6182 3.85153 18.8962C3.85153 19.0198 3.82064 19.1228 3.74855 19.2052C3.68677 19.2978 3.57349 19.3493 3.44991 19.3493ZM3.44991 17.4339C3.36753 17.4339 3.28514 17.4133 3.19246 17.3618C2.9556 17.2279 2.77024 16.9087 2.77024 16.6306C2.77024 16.2084 3.15127 16.0848 3.42931 16.2496C3.66617 16.3835 3.85153 16.7027 3.85153 16.9808C3.85153 17.1043 3.82064 17.2073 3.74855 17.2897C3.68677 17.3824 3.57349 17.4339 3.44991 17.4339ZM3.44991 15.5184C3.36753 15.5184 3.27484 15.4978 3.19246 15.4464C2.9556 15.3125 2.77024 14.9932 2.77024 14.7152C2.77024 14.293 3.14097 14.1694 3.42931 14.3342C3.66617 14.468 3.85153 14.7873 3.85153 15.0653C3.85153 15.1889 3.82064 15.2919 3.74855 15.3743C3.68677 15.467 3.57349 15.5184 3.44991 15.5184ZM3.44991 13.603C3.36753 13.603 3.28514 13.5824 3.19246 13.5309C2.9556 13.397 2.77024 13.0778 2.77024 12.7998C2.77024 12.3775 3.15127 12.254 3.42931 12.4187C3.66617 12.5526 3.85153 12.8718 3.85153 13.1499C3.85153 13.2735 3.82064 13.3764 3.74855 13.4588C3.67647 13.5515 3.57349 13.603 3.44991 13.603ZM3.44991 11.6773C3.36753 11.6773 3.27484 11.6567 3.19246 11.6052C2.9556 11.4713 2.77024 11.1521 2.77024 10.874C2.77024 10.4518 3.14097 10.3282 3.42931 10.493C3.66617 10.6269 3.85153 10.9461 3.85153 11.2241C3.86183 11.5228 3.65587 11.6773 3.44991 11.6773Z" fill="#171753"/>
</svg>
