<svg width="32" height="40" viewBox="0 0 32 40" fill="none" xmlns="http://www.w3.org/2000/svg">
<path d="M30.2888 15.463L2.81107 0.219888C2.57351 0.0868428 2.33595 0.0678369 2.17758 0.143863C1.16795 0.58101 0.475067 1.09418 0.475067 1.09418L1.80144 2.3296V21.298C1.80144 22.0202 2.25676 22.8755 2.83087 23.1986L29.5167 37.9856L28.5863 38.4228L29.2594 39.4301C29.2594 39.4301 30.0908 39.221 31.0213 38.4418C31.2193 38.3087 31.338 38.0426 31.338 37.6625V17.3447C31.3182 16.6224 30.8629 15.7671 30.2888 15.463Z" fill="#171753"/>
<path d="M29.2001 39.5631L28.4082 38.3847L29.2595 37.9856L2.75177 23.2936C2.15787 22.9705 1.66296 22.0772 1.66296 21.2979V2.40556L0.277191 1.11312L0.376174 1.0371C0.395971 1.01809 1.08885 0.504916 2.09848 0.0677684C2.33604 -0.0462701 2.5934 -0.0082574 2.85075 0.124787L30.3285 15.3489C30.9224 15.691 31.4173 16.5653 31.4173 17.3446V37.6625C31.4173 38.0616 31.2787 38.3657 31.061 38.5177C30.1305 39.297 29.2991 39.5251 29.2595 39.5251L29.2001 39.5631ZM28.7448 38.4607L29.2991 39.297C29.5168 39.221 30.1899 38.9739 30.9422 38.3467C31.1204 38.2326 31.2193 37.9666 31.2193 37.6625V17.3446C31.2193 16.6604 30.7838 15.8431 30.2493 15.539L2.75177 0.314852C2.55381 0.200813 2.35584 0.181807 2.21726 0.257833H2.19747C1.44519 0.580942 0.851294 0.96107 0.633531 1.13213L1.90052 2.31053V21.2979C1.90052 21.9822 2.33604 22.7994 2.87055 23.1035L29.7544 38.0046L28.7448 38.4607Z" fill="#171753"/>
<path d="M1.465 1.56925L1.80154 11.1865L19.3414 20.9178L29.6554 15.1018L3.34568 0.523895L1.465 1.56925Z" fill="#171753"/>
<path d="M19.3415 21.0318L1.68286 11.2625L1.34631 1.51222L3.34577 0.409851L29.8931 15.1018L19.3415 21.0318ZM1.90062 11.1295L19.3415 20.7847L29.4377 15.1018L3.34577 0.656935L1.58387 1.62626L1.90062 11.1295Z" fill="#171753"/>
<path d="M23.1624 38.3087C23.103 38.0616 22.9248 37.8525 22.7071 37.7195L21.6381 37.1303C20.5492 36.5221 19.6584 35.0396 19.6584 33.8422V27.0379C19.6584 27.0379 19.6584 27.0189 19.6386 27.0189L18.5696 26.4297C18.5498 26.4107 18.53 26.4297 18.53 26.4487C18.6092 26.7148 18.6686 26.9809 18.6686 27.247V32.1696C18.6686 32.4737 18.6092 32.7208 18.4904 32.9109L18.3716 32.1126C18.3716 32.0936 18.3518 32.0936 18.3518 32.0936L16.1148 32.3407H16.095C15.6199 31.7515 15.3031 30.9912 15.3031 30.326V25.4033C15.3031 25.1372 15.3625 24.9092 15.4417 24.7381C15.4417 24.7191 15.4417 24.7191 15.4417 24.7001L14.3529 24.0919C14.3331 24.0919 14.3133 24.0919 14.3133 24.1109V30.8582C14.3133 32.0746 13.4027 32.5878 12.3138 31.9605L11.2052 31.3523C11.0865 31.2953 11.0073 31.2763 10.9281 31.3143L10.9083 31.3333C10.9083 31.3333 9.89865 31.7135 8.82964 32.4927C8.80984 32.4927 8.80984 32.5117 8.82964 32.5307L9.66109 33.253L19.9356 38.7268L20.9452 39.8672C20.9452 39.8672 20.965 39.8862 20.965 39.8672C21.1233 39.8102 22.3507 39.354 23.0832 38.6698C23.1624 38.6128 23.202 38.4797 23.1624 38.3087Z" fill="#FFC78F"/>
<path d="M20.9649 39.9812C20.9253 39.9812 20.8857 39.9622 20.8659 39.9432L19.8761 38.8218L9.60163 33.3479L9.58184 33.3289L8.75038 32.6067C8.71078 32.5877 8.71078 32.5497 8.71078 32.5116C8.71078 32.4736 8.73058 32.4356 8.77017 32.4166C9.83919 31.6374 10.829 31.2572 10.8686 31.2382H10.8884C11.027 31.1622 11.1656 31.2192 11.2646 31.2762L12.3732 31.8844C12.8681 32.1505 13.3234 32.2075 13.6797 32.0175C14.0163 31.8274 14.2142 31.4283 14.2142 30.8771V24.1298C14.2142 24.0918 14.234 24.0348 14.2736 24.0158C14.3132 23.9968 14.3726 23.9968 14.4122 24.0158L15.501 24.624C15.5604 24.662 15.5802 24.738 15.5604 24.795C15.4812 24.9661 15.4218 25.1752 15.4218 25.4223V30.3449C15.4218 30.9531 15.699 31.6754 16.1543 32.2646L18.332 32.0175C18.4111 32.0175 18.4705 32.0555 18.4903 32.1315L18.5299 32.4736C18.5497 32.3976 18.5497 32.3026 18.5497 32.2075V27.2849C18.5497 27.0568 18.5101 26.7907 18.4309 26.5246C18.4111 26.4676 18.4309 26.4106 18.4705 26.3916C18.5101 26.3536 18.5695 26.3536 18.6289 26.3726L19.6979 26.9618C19.7375 26.9808 19.7573 27.0378 19.7573 27.0758V33.8421C19.7573 35.0205 20.6284 36.446 21.6776 37.0352L22.7466 37.6244C23.0238 37.7764 23.2019 38.0235 23.2613 38.2896C23.3009 38.4797 23.2613 38.6507 23.1623 38.7457C22.4101 39.449 21.1431 39.9241 21.0045 39.9622C21.0045 39.9812 20.9847 39.9812 20.9649 39.9812ZM9.72041 33.1579L20.0147 38.6507L20.0345 38.6697L21.0045 39.7531C21.3014 39.6391 22.3705 39.2209 23.0238 38.5937C23.0831 38.5557 23.0831 38.4607 23.0633 38.3276C23.0238 38.1185 22.8654 37.9285 22.6476 37.8144L21.5786 37.2252C20.4502 36.598 19.5395 35.0775 19.5395 33.8421V27.0948L18.6883 26.6197C18.7477 26.8287 18.7675 27.0378 18.7675 27.2469V32.1695C18.7675 32.4926 18.7081 32.7587 18.5695 32.9678L18.4111 33.2339L18.2726 32.1885L16.1345 32.4356C16.0949 32.4356 16.0355 32.4166 16.0157 32.3786C15.501 31.7324 15.2041 30.9531 15.2041 30.2879V25.3652C15.2041 25.1182 15.2437 24.9091 15.3229 24.719L14.432 24.2248V30.8201C14.432 31.4473 14.1945 31.9224 13.7787 32.1505C13.363 32.3786 12.8285 32.3406 12.2544 32.0175L11.1458 31.4093C11.027 31.3523 11.0072 31.3713 10.9874 31.3713L10.9478 31.3903C10.928 31.3903 9.97777 31.7704 8.96814 32.4736L9.72041 33.1579Z" fill="#171753"/>
<path d="M20.9649 40.0002C20.9253 40.0002 20.8857 39.9812 20.8659 39.9622L20.2126 39.221L20.9253 39.1259C21.0638 39.0689 22.2714 38.5747 23.0039 38.0046L23.1029 37.9285L23.1821 38.0236C23.2613 38.1186 23.2613 38.1566 23.2811 38.2326C23.2811 38.2516 23.2811 38.2706 23.3009 38.3087C23.3405 38.4987 23.3009 38.6698 23.2019 38.7648C22.4496 39.468 21.1826 39.9432 21.044 39.9812C21.0045 40.0002 20.9847 40.0002 20.9649 40.0002ZM20.6481 39.373L21.0045 39.7722C21.3014 39.6581 22.3704 39.24 23.0237 38.6128C23.0831 38.5747 23.0831 38.4797 23.0633 38.3467C23.0633 38.3087 23.0435 38.2896 23.0435 38.2516C22.2318 38.8218 21.044 39.297 21.0045 39.316H20.9847L20.6481 39.373Z" fill="#171753"/>
<path d="M19.6582 33.8422V31.2003C19.2028 31.0482 18.8663 30.9342 18.8267 30.9342C18.8069 30.9342 18.7673 30.9532 18.6683 30.9722V32.1506C18.6683 32.4547 18.6089 32.7018 18.4902 32.8919L18.3714 32.0936C18.3714 32.0746 18.3516 32.0746 18.3516 32.0746L16.1146 32.3217H16.0948C15.976 32.1886 15.877 32.0176 15.778 31.8655C15.7186 31.8845 15.679 31.9035 15.679 31.9035L15.9166 36.5031L17.0846 37.1873L17.1242 37.2253L18.0744 37.7385L18.213 37.5674C18.213 37.5674 19.4008 36.9402 20.5886 36.237C20.0343 35.5338 19.6582 34.6405 19.6582 33.8422Z" fill="#171753"/>
<path d="M20.6677 38.9357L19.5195 38.2895C18.4307 37.6813 17.5596 36.2178 17.5596 35.0204V28.1971L16.4114 27.5699C16.5104 27.855 16.5698 28.1401 16.5698 28.4252V33.3479C16.5698 34.3742 15.8175 34.7923 14.8871 34.2792C13.9566 33.766 13.2044 32.5116 13.2044 31.4852V26.5626C13.2044 26.2965 13.2638 26.0684 13.3627 25.8783L12.2145 25.2511V32.0744C12.2145 33.2718 11.3435 33.766 10.2547 33.1578L9.10647 32.5116C8.8887 32.3785 8.69073 32.4926 8.69073 32.7397C8.69073 32.9867 8.86891 33.2908 9.10647 33.4239L20.6875 39.8481C20.9053 39.9811 21.1032 39.8671 21.1032 39.62C21.0834 39.3729 20.9053 39.0688 20.6677 38.9357Z" fill="#FFC78F"/>
<path d="M20.8658 40.0002C20.7866 40.0002 20.7075 39.9812 20.6283 39.9242L9.04723 33.519C8.78988 33.367 8.57211 33.0248 8.57211 32.7397C8.57211 32.5687 8.6315 32.4547 8.75028 32.3976C8.86906 32.3406 9.00764 32.3406 9.14622 32.4166L10.2944 33.0629C10.7893 33.3289 11.2447 33.386 11.5614 33.1959C11.8979 33.0058 12.0761 32.6067 12.0761 32.0745V25.0612L13.4817 25.8404L13.4421 25.9355C13.3431 26.1065 13.3035 26.3156 13.3035 26.5627V31.4853C13.3035 32.4737 14.036 33.6901 14.9268 34.1842C15.3426 34.4123 15.7187 34.4503 15.9959 34.2983C16.273 34.1462 16.4314 33.8041 16.4314 33.348V28.4253C16.4314 28.1782 16.3918 27.8931 16.2928 27.608L16.1938 27.3419L17.639 28.1402V35.0395C17.639 36.1989 18.4902 37.6244 19.5395 38.2136L20.6877 38.8598C20.945 39.0119 21.1628 39.354 21.1628 39.6391C21.1628 39.8101 21.1034 39.9242 20.9846 39.9812C20.9648 40.0002 20.9252 40.0002 20.8658 40.0002ZM8.90866 32.5687C8.88886 32.5687 8.86906 32.5687 8.84927 32.5877C8.80967 32.6067 8.78988 32.6637 8.78988 32.7397C8.78988 32.9488 8.94825 33.2149 9.14622 33.3289L20.7272 39.7531C20.8064 39.7911 20.8658 39.8101 20.9054 39.7721C20.945 39.7531 20.9648 39.6961 20.9648 39.6201C20.9648 39.411 20.8064 39.1449 20.6085 39.0309L19.4603 38.3847C18.3517 37.7574 17.441 36.2559 17.441 35.0205V28.2542L16.5898 27.7791C16.6491 27.9881 16.6689 28.1972 16.6689 28.4063V33.3289C16.6689 33.8611 16.471 34.2793 16.1146 34.4693C15.7583 34.6594 15.303 34.6214 14.8081 34.3553C13.838 33.8231 13.066 32.5307 13.066 31.4663V26.5437C13.066 26.2966 13.1055 26.0875 13.1847 25.8974L12.2939 25.4033V32.0365C12.2939 32.6637 12.0761 33.1199 11.6604 33.348C11.2447 33.576 10.7102 33.519 10.1558 33.2149L9.00764 32.5687C8.98784 32.5877 8.94825 32.5687 8.90866 32.5687Z" fill="#171753"/>
<path d="M13.2044 26.5627V31.4853C13.2044 32.5117 13.9567 33.7661 14.8872 34.2793C15.8176 34.7924 16.5699 34.3743 16.5699 33.348V28.4253C16.5699 28.1592 16.5105 27.8551 16.4115 27.57L17.0054 27.8931V26.0115H13.2836C13.2242 26.1825 13.2044 26.3536 13.2044 26.5627Z" fill="#FFC78F"/>
<path d="M15.6396 34.6214C15.3822 34.6214 15.1051 34.5454 14.8279 34.3933C13.8579 33.8611 13.0858 32.5687 13.0858 31.5043V26.5817C13.0858 26.3726 13.1254 26.1825 13.1848 26.0115L13.2046 25.9355H17.1243V28.1212L16.5898 27.8361C16.6492 28.0452 16.669 28.2542 16.669 28.4633V33.386C16.669 33.9182 16.471 34.3363 16.1147 34.5264C15.9761 34.5834 15.8178 34.6214 15.6396 34.6214ZM13.363 26.1445C13.3234 26.2776 13.3036 26.4106 13.3036 26.5817V31.5043C13.3036 32.4927 14.0361 33.7091 14.9269 34.2032C15.3426 34.4313 15.7188 34.4693 15.9959 34.3173C16.2731 34.1652 16.4314 33.8231 16.4314 33.367V28.4443C16.4314 28.1972 16.3919 27.9121 16.2929 27.627L16.1939 27.3609L16.867 27.7411V26.1445H13.363Z" fill="#171753"/>
<path d="M15.679 26.0304H13.2837C13.2243 26.1824 13.2045 26.3725 13.2045 26.5626V31.4852C13.2045 32.2455 13.6202 33.1388 14.2141 33.766C14.808 33.804 15.2435 33.3859 15.2435 32.6066V27.684C15.2435 27.4179 15.1841 27.1138 15.0851 26.8287L15.679 27.1518V26.0304Z" fill="#171753"/>
<path d="M14.2932 33.8801C14.2536 33.8801 14.2338 33.8801 14.1942 33.8801H14.1546L14.115 33.8421C13.4815 33.1769 13.0658 32.2646 13.0658 31.5043V26.5817C13.0658 26.3726 13.1054 26.1825 13.1647 26.0115L13.1845 25.9355H15.7779V27.3799L15.2434 27.0948C15.3028 27.3039 15.3226 27.513 15.3226 27.7221V32.6447C15.3226 33.1009 15.184 33.443 14.9464 33.6711C14.7881 33.8041 14.5505 33.8801 14.2932 33.8801ZM14.2536 33.6521C14.4713 33.6521 14.6495 33.595 14.7881 33.481C14.986 33.2909 15.1048 33.0058 15.1048 32.6257V27.7031C15.1048 27.456 15.0652 27.1709 14.9662 26.8858L14.8673 26.6197L15.5403 26.9998V26.1635H13.3429C13.3033 26.2966 13.2835 26.4296 13.2835 26.6007V31.5233C13.3033 32.2076 13.6795 33.0439 14.2536 33.6521Z" fill="#171753"/>
<path d="M13.7588 26.2965V31.2191C13.7588 32.2455 14.5111 33.4999 15.4415 34.0131C15.7385 34.1841 16.0156 34.2411 16.273 34.2221C16.4512 34.0321 16.5699 33.728 16.5699 33.3288V28.4062C16.5699 28.1401 16.5106 27.836 16.4116 27.5509L17.0055 27.874V27.3608C17.0055 27.3228 16.9857 27.3038 16.9857 27.2658L17.0055 27.2848V25.9734H13.7984C13.7786 26.1064 13.7588 26.2014 13.7588 26.2965Z" fill="#FFC78F"/>
<path d="M16.2136 34.3553C15.9563 34.3553 15.6791 34.2793 15.402 34.1272C14.4319 33.595 13.6599 32.3026 13.6599 31.2382V26.3156C13.6599 26.2206 13.6599 26.1255 13.6797 26.0305L13.6995 25.9355H17.1441V28.1212L16.6096 27.8361C16.669 28.0452 16.6888 28.2542 16.6888 28.4633V33.386C16.6888 33.7851 16.57 34.1082 16.372 34.3363L16.3324 34.3743H16.2928C16.2532 34.3553 16.2334 34.3553 16.2136 34.3553ZM13.8974 26.1445C13.8974 26.2015 13.8974 26.2586 13.8974 26.3156V31.2382C13.8974 32.2266 14.6299 33.443 15.5208 33.9372C15.7781 34.0702 16.0157 34.1462 16.2334 34.1462C16.3918 33.9562 16.471 33.6901 16.471 33.367V28.4443C16.471 28.1972 16.4314 27.9121 16.3324 27.627L16.2334 27.3609L16.9065 27.7411V27.418C16.9065 27.399 16.9065 27.3799 16.8867 27.3609L16.7877 27.0948L16.9065 27.1519V26.1445H13.8974Z" fill="#171753"/>
<path d="M23.637 20.0055L23.3203 34.6214L29.3583 37.9665L31.3181 36.8832V17.4206C31.3181 16.9455 31.1202 16.4323 30.843 16.0522L27.4578 17.9338L23.637 20.0055Z" fill="#171753"/>
<path d="M29.3583 38.0996L23.2015 34.6784V34.6214L23.5183 19.9485L27.3984 17.8198L30.8826 15.9001L30.942 15.9761C31.2588 16.3943 31.4369 16.9455 31.4369 17.4206V36.9592L29.3583 38.0996ZM23.4391 34.5644L29.3583 37.8525L31.1994 36.8452V17.4206C31.1994 17.0215 31.0608 16.5653 30.8034 16.1852L27.4974 18.0098L23.736 20.0625L23.4391 34.5644Z" fill="#171753"/>
<path d="M28.626 39.3539L1.14823 24.1298C0.574127 23.8067 0.118805 22.9704 0.118805 22.2292V1.91131C0.118805 1.18906 0.574127 0.846948 1.14823 1.17006L28.626 16.3942C29.2001 16.7173 29.6554 17.5536 29.6554 18.2948V38.6127C29.6554 39.3349 29.2001 39.6771 28.626 39.3539Z" fill="#FFA54B"/>
<path d="M29.0418 39.5821C28.9032 39.5821 28.7448 39.5441 28.5667 39.4491L1.08894 24.225C0.495038 23.9018 0.00012207 23.0085 0.00012207 22.2293V1.91143C0.00012207 1.49329 0.158496 1.17018 0.415852 1.01813C0.633615 0.885083 0.910768 0.904089 1.20772 1.07515L28.6854 16.2993C29.2793 16.6224 29.7743 17.5157 29.7743 18.295V38.6128C29.7743 39.031 29.6159 39.3541 29.3585 39.5061C29.2596 39.5631 29.1408 39.5821 29.0418 39.5821ZM28.6854 39.278C28.9032 39.3921 29.1012 39.4111 29.2398 39.3351C29.4377 39.221 29.5367 38.9739 29.5367 38.6318V18.295C29.5367 17.6107 29.1012 16.7934 28.5667 16.4893L1.08894 1.26521C0.871174 1.15117 0.673208 1.13217 0.534631 1.20819C0.336665 1.32223 0.237682 1.56931 0.237682 1.91143V22.2483C0.237682 22.9325 0.673208 23.7498 1.20772 24.0539L28.6854 39.278Z" fill="#171753"/>
<path d="M28.527 37.2063L1.24721 22.0772C1.08883 21.9822 0.950256 21.7541 0.950256 21.545V2.34856C0.950256 2.13949 1.08883 2.04446 1.24721 2.13949L28.5468 17.2686C28.7051 17.3636 28.8437 17.5917 28.8437 17.8008V36.9973C28.8239 37.2063 28.6854 37.3014 28.527 37.2063Z" fill="#FFC78F"/>
<path d="M28.6459 37.3393C28.5865 37.3393 28.5271 37.3203 28.4677 37.2823L1.18791 22.1722C0.989946 22.0581 0.831573 21.792 0.831573 21.545V2.34847C0.831573 2.19642 0.890963 2.08238 0.989946 2.02536C1.06913 1.96834 1.18791 1.98735 1.2869 2.04437L28.5865 17.1735C28.7844 17.2875 28.9428 17.5536 28.9428 17.8007V36.9972C28.9428 37.1492 28.8834 37.2633 28.7844 37.3203C28.7448 37.3393 28.7052 37.3393 28.6459 37.3393ZM28.5865 37.1112C28.6063 37.1112 28.6459 37.1302 28.6657 37.1302C28.6854 37.1112 28.7052 37.0732 28.7052 36.9972V17.8007C28.7052 17.6296 28.5865 17.4206 28.4677 17.3635L1.18791 2.21543C1.16812 2.21543 1.12852 2.19642 1.10873 2.19642C1.08893 2.21543 1.06913 2.25344 1.06913 2.32947V21.5259C1.06913 21.697 1.18791 21.9061 1.30669 21.9631L28.5865 37.1112Z" fill="#171753"/>
<path d="M28.7843 37.0543L1.50456 21.9252C1.34619 21.8301 1.20761 21.6021 1.20761 21.393V2.19652C1.20761 2.17752 1.20761 2.13951 1.20761 2.1205C1.06904 2.06348 0.950256 2.15851 0.950256 2.34858V21.5451C0.950256 21.7541 1.08883 22.0012 1.24721 22.0772L28.5468 37.2063C28.6854 37.2824 28.8041 37.2253 28.8437 37.0733C28.8041 37.0543 28.8041 37.0543 28.7843 37.0543Z" fill="#171753"/>
<path d="M28.6459 37.3393C28.5865 37.3393 28.5271 37.3203 28.4677 37.2823L1.18791 22.1722C0.989946 22.0581 0.831573 21.792 0.831573 21.5449V2.34847C0.831573 2.21543 0.890964 2.10139 0.97015 2.04437C1.04934 1.98735 1.14832 1.98735 1.2473 2.02536L1.32649 2.06338V2.1204C1.32649 2.1394 1.32649 2.15841 1.32649 2.17742V21.3739C1.32649 21.5449 1.44527 21.754 1.56405 21.811L28.8438 36.9591L28.7844 37.0542L28.8438 36.9591L28.9428 36.9972V37.0922C28.923 37.2062 28.8636 37.2823 28.7646 37.3203C28.725 37.3393 28.6854 37.3393 28.6459 37.3393ZM1.08893 2.21543C1.06913 2.23443 1.06913 2.27245 1.06913 2.32947V21.5259C1.06913 21.697 1.18791 21.9061 1.30669 21.9631L28.6063 37.0922C28.6459 37.1112 28.6657 37.1112 28.6854 37.1112C28.6854 37.1112 28.6854 37.1112 28.7052 37.1112L1.44527 22.0201C1.2473 21.9061 1.08893 21.64 1.08893 21.3929V2.21543Z" fill="#171753"/>
<path d="M15.8769 31.4093L13.8972 30.3069C13.818 30.2499 13.7389 30.1359 13.7389 30.0218C13.7389 29.9078 13.818 29.8508 13.8972 29.9078L15.8769 31.0102C15.9561 31.0672 16.0353 31.1812 16.0353 31.2953C16.0353 31.4093 15.9561 31.4663 15.8769 31.4093Z" fill="#171753"/>
<path d="M15.9364 31.5423C15.8968 31.5423 15.8572 31.5233 15.8176 31.5043L13.8379 30.4019C13.7191 30.3259 13.6201 30.1739 13.6201 30.0218C13.6201 29.9268 13.6597 29.8508 13.7389 29.8128C13.7983 29.7747 13.8775 29.7747 13.9567 29.8128L15.9364 30.9151C16.0551 30.9911 16.1541 31.1432 16.1541 31.2952C16.1541 31.3903 16.1145 31.4663 16.0353 31.5043C15.9957 31.5233 15.9759 31.5423 15.9364 31.5423ZM13.8577 30.0028C13.8577 30.0218 13.8577 30.0218 13.8577 30.0028C13.8577 30.0978 13.9171 30.1929 13.9567 30.2119L15.9166 31.2952V31.2762C15.9166 31.2002 15.8572 31.1052 15.8176 31.0862L13.8577 30.0028Z" fill="#171753"/>
<path d="M14.1025 32.7969L13.7077 33.0148L13.8163 33.196L14.211 32.9781L14.1025 32.7969Z" fill="#FFC78F"/>
<path d="M30.7245 32.5118L30.2493 32.7779C30.1701 32.8159 30.091 32.7779 30.091 32.6638V31.4284C30.091 31.3144 30.1503 31.2003 30.2493 31.1433L30.7245 30.8772C30.8036 30.8392 30.8828 30.8772 30.8828 30.9913V32.2267C30.8828 32.3407 30.8036 32.4738 30.7245 32.5118Z" fill="#171753"/>
<path d="M30.7245 30.0979L30.2493 30.364C30.1701 30.402 30.091 30.364 30.091 30.25V29.0145C30.091 28.9005 30.1503 28.7865 30.2493 28.7294L30.7245 28.4634C30.8036 28.4253 30.8828 28.4634 30.8828 28.5774V29.8128C30.8828 29.9078 30.8036 30.0409 30.7245 30.0979Z" fill="#171753"/>
<path d="M2.22703 21.0444L1.0441 21.7001L1.15298 21.8812L2.33591 21.2255L2.22703 21.0444Z" fill="#FFC78F"/>
<path d="M5.74462 2.60416L5.63574 2.78522L25.3684 13.7234L25.4772 13.5424L5.74462 2.60416Z" fill="#171753"/>
<path d="M19.4664 23.736C19.4784 23.6099 19.4839 23.4782 19.4849 23.3429C19.4849 20.9552 17.8461 17.3036 15.6876 16.061C15.5374 15.9747 15.3813 15.899 15.2205 15.8346C14.949 15.4857 14.6859 15.1221 14.4247 14.7732C14.324 14.6343 14.1929 14.4317 14.0618 14.3563C13.8218 14.2182 13.6085 14.4133 13.747 14.7429C13.7079 14.6961 13.661 14.6562 13.6085 14.625C13.3611 14.4815 13.1654 14.7327 13.3611 15.1009C13.3315 15.0646 13.2959 15.0334 13.2559 15.0089C13.098 14.9168 12.9706 15.0411 12.9872 15.2316C13.0038 15.4222 13.1571 15.7121 13.2642 15.9266C12.7481 16.2433 12.3714 16.7799 12.0566 17.3635C11.7722 17.8946 11.5276 18.4598 11.2728 19.0203C11.1407 19.3057 10.9035 20.1093 10.4677 19.8598C10.3834 19.8072 10.3095 19.7394 10.2498 19.6601C9.80668 19.1078 9.57679 18.1597 9.51678 17.5807C9.48816 17.2631 9.47893 16.8443 9.68112 16.7256C9.80668 16.6584 9.99132 16.7145 10.1944 16.8305C10.7133 17.1297 11.3457 17.8256 11.3679 17.843C11.029 17.3883 10.2554 16.3758 9.68573 16.0481C9.39215 15.8787 9.15303 15.8925 9.05609 16.258C9.02 16.4087 9.00233 16.5633 9.00347 16.7182C9.01846 17.2377 9.10704 17.7524 9.26659 18.2471C9.45123 18.8611 9.70789 19.5358 10.1206 20.0715C10.2303 20.2246 10.3681 20.3555 10.5268 20.4572C11.1731 20.8254 11.4916 19.7438 11.7316 19.3075C12.148 18.5279 12.605 17.7593 13.2642 17.3046C13.5105 17.1328 13.7964 17.0258 14.0954 16.9936C14.3943 16.9614 14.6965 17.0051 14.974 17.1205C15.1077 17.1705 15.2369 17.2321 15.3599 17.3046C15.5393 17.4088 15.7078 17.5306 15.863 17.6682C16.6893 18.388 17.415 19.5469 17.8572 20.6247C18.2791 21.6548 18.5589 22.8587 18.4342 23.7139C18.3835 24.1134 18.2496 24.5119 17.9061 24.5423C17.7076 24.5699 17.4685 24.4825 17.2285 24.3444C17.0114 24.2147 16.8057 24.0669 16.6136 23.9026C16.1147 23.463 15.6427 22.9939 15.2002 22.4979C14.757 22.022 12.9429 19.9114 12.4887 19.3259C13.2845 20.4673 14.0701 21.6152 14.937 22.682C14.8667 22.7302 14.8023 22.7865 14.745 22.8495C14.6804 22.9223 14.745 23.1257 14.8438 23.1864C14.8561 23.1939 14.8699 23.1987 14.8843 23.2004C14.8986 23.2022 14.9131 23.2009 14.9269 23.1966C14.9026 23.2654 14.9023 23.3404 14.9259 23.4095C14.9495 23.4786 14.9957 23.5378 15.0571 23.5776C15.0699 23.5853 15.0835 23.5914 15.0977 23.5961C15.0331 23.6964 15.1328 23.8915 15.2473 23.9569C15.2745 23.9748 15.3072 23.9823 15.3396 23.978L15.9572 23.8363C16.3585 24.2628 16.8149 24.6342 17.3144 24.9409C17.667 25.1443 18.0169 25.2676 18.3401 25.263C18.8866 25.2419 19.2208 24.8323 19.375 24.2606C19.4225 24.0885 19.4534 23.9122 19.4673 23.7341L19.4664 23.736ZM16.1797 20.3283C16.1906 20.5163 16.2455 20.6991 16.3399 20.8621C16.4343 21.0251 16.5657 21.1639 16.7235 21.2672C17.0263 21.4412 17.2691 21.3031 17.27 20.9561C17.2606 20.7679 17.2065 20.5847 17.1121 20.4214C17.0177 20.2582 16.8858 20.1197 16.7272 20.0172C16.4234 19.8433 16.1806 19.9813 16.1797 20.3283Z" fill="#171753"/>
</svg>
