<svg width="40" height="54" viewBox="0 0 40 54" fill="none" xmlns="http://www.w3.org/2000/svg">
<path d="M39.5946 37.4325L11.6514 21.3508C11.4893 21.2498 11.3474 21.0074 11.3474 20.7851V0.380013C11.3474 0.157779 11.4893 0.0567637 11.6514 0.157779L39.5946 16.2394C39.7567 16.3405 39.8985 16.5829 39.8985 16.8051V37.2102C39.8985 37.4325 39.7567 37.5335 39.5946 37.4325Z" fill="#ECFFFE"/>
<path d="M39.7163 37.5739C39.6555 37.5739 39.5947 37.5537 39.5339 37.5133L11.5907 21.4519C11.3881 21.3306 11.226 21.0478 11.226 20.7852V0.380048C11.226 0.218423 11.2868 0.097205 11.3881 0.0365958C11.4691 -0.0240135 11.5907 -0.00381073 11.692 0.0567985L39.6353 16.1385C39.8379 16.2597 40 16.5425 40 16.8052V37.2103C40 37.3719 39.9392 37.4931 39.8379 37.5537C39.7974 37.5739 39.7568 37.5739 39.7163 37.5739ZM39.6555 37.3315C39.6758 37.3315 39.7163 37.3517 39.7366 37.3517C39.7568 37.3315 39.7771 37.2911 39.7771 37.2103V16.8052C39.7771 16.6233 39.6555 16.4011 39.5339 16.3405L11.5907 0.238627C11.5705 0.238627 11.5299 0.218423 11.5097 0.218423C11.4894 0.238627 11.4691 0.279032 11.4691 0.359845V20.765C11.4691 20.9468 11.5907 21.169 11.7123 21.2296L39.6555 37.3315Z" fill="#171753"/>
<path d="M29.7096 14.1827L26.6184 12.3996L26.6184 15.9659L29.7097 17.749L29.7096 14.1827Z" fill="#9BE7C4" stroke="#171753" stroke-width="0.3" stroke-miterlimit="10" stroke-linejoin="round"/>
<path d="M33.8703 16.5888L30.779 14.8057L30.779 18.372L33.8703 20.1552L33.8703 16.5888Z" fill="#9BE7C4" stroke="#171753" stroke-width="0.3" stroke-miterlimit="10" stroke-linejoin="round"/>
<path d="M38.0309 19.0927L34.9396 17.3095L34.9396 20.8758L38.0309 22.659L38.0309 19.0927Z" fill="#9BE7C4" stroke="#171753" stroke-width="0.3" stroke-miterlimit="10" stroke-linejoin="round"/>
<path d="M29.7096 19.3183L26.6184 17.5351L26.6184 21.1014L29.7097 22.8846L29.7096 19.3183Z" fill="#9BE7C4" stroke="#171753" stroke-width="0.3" stroke-miterlimit="10" stroke-linejoin="round"/>
<path d="M33.8703 21.7242L30.779 19.9411L30.779 23.5074L33.8703 25.2905L33.8703 21.7242Z" fill="#9BE7C4" stroke="#171753" stroke-width="0.3" stroke-miterlimit="10" stroke-linejoin="round"/>
<path d="M38.0309 24.2281L34.9396 22.445L34.9396 26.0113L38.0309 27.7944L38.0309 24.2281Z" fill="#9BE7C4" stroke="#171753" stroke-width="0.3" stroke-miterlimit="10" stroke-linejoin="round"/>
<rect width="4.88222" height="0.218607" transform="matrix(-0.866026 -0.5 -8.74228e-08 -1 18.5071 16.6151)" fill="#171753"/>
<rect width="3.93492" height="0.218607" transform="matrix(-0.866026 -0.5 -8.74228e-08 -1 18.5071 16.105)" fill="#171753"/>
<rect width="5.46517" height="0.218607" transform="matrix(-0.866026 -0.5 -8.74228e-08 -1 18.5071 15.5948)" fill="#171753"/>
<rect width="3.93492" height="0.218607" transform="matrix(-0.866026 -0.5 -8.74228e-08 -1 18.5071 13.4817)" fill="#171753"/>
<rect width="1.23877" height="0.218607" transform="matrix(-0.866026 -0.5 -8.74228e-08 -1 18.5071 14.0646)" fill="#171753"/>
<rect width="1.23877" height="0.218607" transform="matrix(-0.866026 -0.5 -8.74228e-08 -1 18.5071 12.17)" fill="#171753"/>
<rect width="1.23877" height="0.218607" transform="matrix(-0.866026 -0.5 -8.74228e-08 -1 18.5071 10.2755)" fill="#171753"/>
<rect width="5.46517" height="0.728689" rx="0.364344" transform="matrix(-0.866026 -0.5 -8.74228e-08 -1 18.5071 11.3816)" stroke="#171753" stroke-width="0.3"/>
<rect width="5.46517" height="0.728689" rx="0.364344" transform="matrix(-0.866026 -0.5 -8.74228e-08 -1 18.5071 9.414)" stroke="#171753" stroke-width="0.3"/>
<path d="M18.5071 7.42048C18.5071 7.60311 18.3789 7.67713 18.2207 7.58582L16.2692 6.45912C16.1111 6.36781 15.9829 6.14573 15.9829 5.9631L15.9829 5.89577C15.9829 5.71314 16.1111 5.63912 16.2692 5.73043L18.2207 6.85713C18.3789 6.94845 18.5071 7.17052 18.5071 7.35315L18.5071 7.42048Z" fill="#49CE8B"/>
<rect x="-0.129904" y="-0.225" width="5.38377" height="8.95198" rx="0.676695" transform="matrix(-0.866026 -0.5 -8.74228e-08 -1 24.588 19.613)" fill="#49CE8B" stroke="#171753" stroke-width="0.3"/>
<rect width="2.76902" height="0.218607" transform="matrix(-0.866026 -0.5 -8.74228e-08 -1 18.5071 15.0849)" fill="#171753"/>
<circle cx="0.255041" cy="0.255041" r="0.255041" transform="matrix(-0.866026 -0.5 -8.74228e-08 -1 18.5071 13.6274)" fill="#171753"/>
<circle cx="0.255041" cy="0.255041" r="0.255041" transform="matrix(-0.866026 -0.5 -8.74228e-08 -1 15.3516 11.8057)" fill="#171753"/>
<path d="M35.7647 43.4429L7.82148 27.3612C7.65937 27.2602 7.51752 27.0177 7.51752 26.7955V6.39039C7.51752 6.16816 7.65937 6.06714 7.82148 6.16816L35.7647 22.2498C35.9268 22.3508 36.0686 22.5933 36.0686 22.8155V43.2206C36.0686 43.4429 35.9268 43.5439 35.7647 43.4429Z" fill="#9BE7C4"/>
<path d="M35.8864 43.6044C35.8256 43.6044 35.7648 43.5842 35.7041 43.5438L7.76083 27.4621C7.5582 27.3409 7.39609 27.0581 7.39609 26.7954V6.3903C7.39609 6.22868 7.45688 6.10746 7.5582 6.04685C7.63925 5.98624 7.76083 6.00644 7.86215 6.06705L35.8054 22.1487C36.008 22.2699 36.1701 22.5528 36.1701 22.8154V43.2205C36.1701 43.3822 36.1093 43.5034 36.008 43.564C35.9877 43.5842 35.927 43.6044 35.8864 43.6044ZM35.8256 43.3418C35.8459 43.3418 35.8864 43.362 35.9067 43.362C35.927 43.3418 35.9472 43.3014 35.9472 43.2205V22.8154C35.9472 22.6336 35.8256 22.4114 35.7041 22.3507L7.76083 6.24888C7.74057 6.24888 7.70004 6.22868 7.67978 6.22868C7.65952 6.24888 7.63925 6.28929 7.63925 6.3701V26.7752C7.63925 26.9571 7.76083 27.1793 7.88241 27.2399L35.8256 43.3418Z" fill="#171753"/>
<path d="M18.2313 23.8737L21.3225 25.6568V22.0905L18.2313 20.3074V23.8737Z" fill="#9BE7C4" stroke="#171753" stroke-width="0.3" stroke-miterlimit="10" stroke-linejoin="round"/>
<path d="M14.0707 21.4675L17.1619 23.2507V19.6844L14.0707 17.9012V21.4675Z" fill="#9BE7C4" stroke="#171753" stroke-width="0.3" stroke-miterlimit="10" stroke-linejoin="round"/>
<path d="M9.91004 18.9637L13.0013 20.7469V17.1806L9.91004 15.3974V18.9637Z" fill="#9BE7C4" stroke="#171753" stroke-width="0.3" stroke-miterlimit="10" stroke-linejoin="round"/>
<path d="M18.2313 18.7381L21.3225 20.5213V16.955L18.2313 15.1718V18.7381Z" fill="#9BE7C4" stroke="#171753" stroke-width="0.3" stroke-miterlimit="10" stroke-linejoin="round"/>
<path d="M14.0707 16.3321L17.1619 18.1152V14.5489L14.0707 12.7657V16.3321Z" fill="#9BE7C4" stroke="#171753" stroke-width="0.3" stroke-miterlimit="10" stroke-linejoin="round"/>
<path d="M9.91004 13.8281L13.0013 15.6113V12.045L9.91004 10.2618V13.8281Z" fill="#9BE7C4" stroke="#171753" stroke-width="0.3" stroke-miterlimit="10" stroke-linejoin="round"/>
<rect width="4.88222" height="0.218607" transform="matrix(0.866025 0.5 0 1 29.4339 21.4412)" fill="#171753"/>
<rect width="3.93492" height="0.218607" transform="matrix(0.866025 0.5 0 1 29.4339 21.9513)" fill="#171753"/>
<rect width="5.46517" height="0.218607" transform="matrix(0.866025 0.5 0 1 29.4339 22.4614)" fill="#171753"/>
<rect width="3.93492" height="0.218607" transform="matrix(0.866025 0.5 0 1 29.4339 24.5746)" fill="#171753"/>
<rect width="1.23877" height="0.218607" transform="matrix(0.866025 0.5 0 1 29.4339 23.9916)" fill="#171753"/>
<rect width="1.23877" height="0.218607" transform="matrix(0.866025 0.5 0 1 29.4339 25.8862)" fill="#171753"/>
<rect width="1.23877" height="0.218607" transform="matrix(0.866025 0.5 0 1 29.4339 27.7808)" fill="#171753"/>
<rect width="5.46517" height="0.728689" rx="0.364344" transform="matrix(0.866025 0.5 0 1 29.4339 26.6747)" stroke="#171753" stroke-width="0.3"/>
<rect width="5.46517" height="0.728689" rx="0.364344" transform="matrix(0.866025 0.5 0 1 29.4339 28.6422)" stroke="#171753" stroke-width="0.3"/>
<path d="M29.4339 30.6358C29.4339 30.4532 29.5621 30.3791 29.7202 30.4705L31.6717 31.5972C31.8299 31.6885 31.9581 31.9105 31.9581 32.0932V32.1605C31.9581 32.3431 31.8299 32.4172 31.6717 32.3258L29.7202 31.1991C29.5621 31.1078 29.4339 30.8858 29.4339 30.7031V30.6358Z" fill="#49CE8B"/>
<rect x="0.129904" y="0.225" width="5.38377" height="8.95198" rx="0.676695" transform="matrix(0.866025 0.5 0 1 23.128 17.8634)" fill="#49CE8B" stroke="#171753" stroke-width="0.3"/>
<rect width="2.76902" height="0.218607" transform="matrix(0.866025 0.5 0 1 29.4339 22.9714)" fill="#171753"/>
<circle cx="0.255041" cy="0.255041" r="0.255041" transform="matrix(0.866025 0.5 0 1 29.4339 24.4289)" fill="#171753"/>
<circle cx="0.255041" cy="0.255041" r="0.255041" transform="matrix(0.866025 0.5 0 1 32.5893 26.2505)" fill="#171753"/>
<path d="M31.0032 27.7196L2.8776 11.5168C2.63444 11.3753 2.39127 11.3551 2.22917 11.4359C1.19573 11.9006 0.486515 12.4461 0.486515 12.4461L1.84416 13.7593V33.922C1.84416 34.6897 2.31022 35.5988 2.89786 35.9423L30.2129 51.6603L29.2605 52.125L29.9495 53.1957C29.9495 53.1957 30.8006 52.9735 31.7529 52.1452C31.9556 52.0037 32.0772 51.7209 32.0772 51.3168V29.7197C32.0569 28.952 31.5908 28.0429 31.0032 27.7196Z" fill="#171753"/>
<path d="M29.8886 53.337L29.0781 52.0844L29.9494 51.6601L2.81672 36.0432C2.20881 35.6997 1.70223 34.7502 1.70223 33.9218V13.84L0.283791 12.4661L0.385108 12.3853C0.405371 12.3651 1.11459 11.8196 2.14802 11.355C2.39118 11.2338 2.65461 11.2742 2.91803 11.4156L31.0436 27.5983C31.6515 27.9619 32.1581 28.8913 32.1581 29.7196V51.3167C32.1581 51.741 32.0163 52.0642 31.7934 52.2258C30.841 53.0542 29.9899 53.2966 29.9494 53.2966L29.8886 53.337ZM29.4226 52.1652L29.9899 53.0542C30.2128 52.9733 30.9018 52.7107 31.6718 52.044C31.8542 51.9228 31.9555 51.6399 31.9555 51.3167V29.7196C31.9555 28.9923 31.5097 28.1235 30.9626 27.8003L2.81672 11.6176C2.61408 11.4964 2.41145 11.4762 2.2696 11.557H2.24934C1.47933 11.9005 0.871429 12.3045 0.648532 12.4864L1.94539 13.7389V33.9218C1.94539 34.6491 2.39118 35.5179 2.9383 35.8411L30.456 51.6803L29.4226 52.1652Z" fill="#171753"/>
<path d="M1.49951 12.951L1.84399 23.1738L19.7974 33.5178L30.3546 27.3356L3.42453 11.8398L1.49951 12.951Z" fill="#171753"/>
<path d="M19.7975 33.639L1.72255 23.2547L1.37807 12.8905L3.42467 11.7187L30.5979 27.3357L19.7975 33.639ZM1.94545 23.1132L19.7975 33.3764L30.1318 27.3357L3.42467 11.9813L1.62123 13.0117L1.94545 23.1132Z" fill="#171753"/>
<path d="M23.7087 52.0036C23.6479 51.741 23.4655 51.5188 23.2427 51.3773L22.1484 50.751C21.0339 50.1045 20.1221 48.5287 20.1221 47.2559V40.0232C20.1221 40.0232 20.1221 40.003 20.1018 40.003L19.0076 39.3767C18.9873 39.3565 18.9671 39.3767 18.9671 39.3969C19.0481 39.6798 19.1089 39.9626 19.1089 40.2454V45.478C19.1089 45.8013 19.0481 46.0639 18.9265 46.266L18.805 45.4174C18.805 45.3972 18.7847 45.3972 18.7847 45.3972L16.4949 45.6599H16.4747C15.9884 45.0336 15.6641 44.2254 15.6641 43.5183V38.2857C15.6641 38.0029 15.7249 37.7605 15.806 37.5786C15.806 37.5584 15.806 37.5584 15.806 37.5382L14.6915 36.8917C14.6712 36.8917 14.651 36.8917 14.651 36.9119V44.084C14.651 45.377 13.7189 45.9225 12.6044 45.2558L11.4696 44.6093C11.348 44.5487 11.267 44.5285 11.1859 44.5689L11.1657 44.5891C11.1657 44.5891 10.1322 44.9932 9.03801 45.8215C9.01775 45.8215 9.01775 45.8417 9.03801 45.8619L9.88908 46.6296L20.4058 52.4481L21.4392 53.6603C21.4392 53.6603 21.4595 53.6805 21.4595 53.6603C21.6216 53.5997 22.8779 53.1148 23.6277 52.3875C23.7087 52.3269 23.7492 52.1855 23.7087 52.0036Z" fill="#9BE7C4"/>
<path d="M21.4591 53.7813C21.4186 53.7813 21.3781 53.7611 21.3578 53.7409L20.3446 52.5489L9.82794 46.7305L9.80768 46.7103L8.95662 45.9425C8.91609 45.9223 8.91609 45.8819 8.91609 45.8415C8.91609 45.8011 8.93635 45.7607 8.97688 45.7405C10.0711 44.9122 11.0843 44.5081 11.1248 44.4879H11.1451C11.2869 44.4071 11.4288 44.4677 11.5301 44.5283L12.6648 45.1748C13.1714 45.4577 13.6375 45.5183 14.0022 45.3162C14.3467 45.1142 14.5493 44.6899 14.5493 44.1041V36.932C14.5493 36.8916 14.5696 36.8309 14.6101 36.8107C14.6506 36.7905 14.7114 36.7905 14.7519 36.8107L15.8664 37.4572C15.9272 37.4976 15.9475 37.5785 15.9272 37.6391C15.8462 37.8209 15.7854 38.0431 15.7854 38.3058V43.5384C15.7854 44.1849 16.0691 44.9526 16.5351 45.5789L18.7641 45.3162C18.8452 45.3162 18.9059 45.3567 18.9262 45.4375L18.9667 45.8011C18.987 45.7203 18.987 45.6193 18.987 45.5183V40.2857C18.987 40.0432 18.9465 39.7604 18.8654 39.4776C18.8452 39.4169 18.8654 39.3563 18.9059 39.3361C18.9465 39.2957 19.0073 39.2957 19.0681 39.3159L20.1623 39.9422C20.2028 39.9624 20.2231 40.023 20.2231 40.0634V47.2557C20.2231 48.5083 21.1147 50.0236 22.1886 50.6499L23.2828 51.2762C23.5665 51.4378 23.7489 51.7004 23.8097 51.9833C23.8502 52.1853 23.8097 52.3671 23.7084 52.4681C22.9384 53.2157 21.6415 53.7207 21.4997 53.7611C21.4997 53.7813 21.4794 53.7813 21.4591 53.7813ZM9.94952 46.5284L20.4865 52.3671L20.5068 52.3873L21.4997 53.5389C21.8036 53.4177 22.8978 52.9732 23.5665 52.3065C23.6273 52.2661 23.6273 52.1651 23.6071 52.0237C23.5665 51.8014 23.4044 51.5994 23.1815 51.4782L22.0873 50.8519C20.9323 50.1852 20.0002 48.5689 20.0002 47.2557V40.0836L19.1288 39.5786C19.1896 39.8008 19.2099 40.023 19.2099 40.2453V45.4779C19.2099 45.8213 19.1491 46.1042 19.0073 46.3264L18.8452 46.6092L18.7033 45.4981L16.5149 45.7607C16.4743 45.7607 16.4135 45.7405 16.3933 45.7001C15.8664 45.0132 15.5625 44.1849 15.5625 43.4778V38.2452C15.5625 37.9825 15.603 37.7603 15.6841 37.5583L14.7722 37.033V44.0435C14.7722 44.7102 14.5291 45.2152 14.1035 45.4577C13.678 45.7001 13.1309 45.6597 12.5432 45.3162L11.4085 44.6697C11.2869 44.6091 11.2666 44.6293 11.2464 44.6293L11.2059 44.6495C11.1856 44.6495 10.2129 45.0536 9.17952 45.8011L9.94952 46.5284Z" fill="#171753"/>
<path d="M21.459 53.8017C21.4184 53.8017 21.3779 53.7815 21.3576 53.7613L20.689 52.9734L21.4184 52.8723C21.5603 52.8117 22.7963 52.2865 23.5461 51.6804L23.6474 51.5995L23.7285 51.7006C23.8095 51.8016 23.8095 51.842 23.8298 51.9228C23.8298 51.943 23.8298 51.9632 23.85 52.0036C23.8906 52.2056 23.85 52.3875 23.7487 52.4885C22.9787 53.236 21.6819 53.7411 21.54 53.7815C21.4995 53.8017 21.4792 53.8017 21.459 53.8017ZM21.1348 53.135L21.4995 53.5592C21.8034 53.438 22.8977 52.9936 23.5664 52.3269C23.6271 52.2865 23.6271 52.1854 23.6069 52.044C23.6069 52.0036 23.5866 51.9834 23.5866 51.943C22.7558 52.5491 21.54 53.0542 21.4995 53.0744H21.4792L21.1348 53.135Z" fill="#171753"/>
<path d="M20.1216 47.2558V44.4476C19.6556 44.286 19.3111 44.1647 19.2706 44.1647C19.2503 44.1647 19.2098 44.1849 19.1084 44.2051V45.4577C19.1084 45.781 19.0477 46.0436 18.9261 46.2457L18.8045 45.3971C18.8045 45.3769 18.7842 45.3769 18.7842 45.3769L16.4945 45.6396H16.4742C16.3526 45.4981 16.2513 45.3163 16.15 45.1547C16.0892 45.1749 16.0487 45.1951 16.0487 45.1951L16.2918 50.0842L17.4874 50.8115L17.5279 50.852L18.5005 51.3974L18.6424 51.2156C18.6424 51.2156 19.8582 50.5489 21.074 49.8014C20.5066 49.0539 20.1216 48.1043 20.1216 47.2558Z" fill="#171753"/>
<path d="M21.1549 52.6703L19.9796 51.9834C18.8651 51.3369 17.9735 49.7813 17.9735 48.5085V41.2556L16.7982 40.5889C16.8996 40.8919 16.9603 41.195 16.9603 41.498V46.7306C16.9603 47.8216 16.1903 48.266 15.238 47.7205C14.2856 47.1751 13.5156 45.8417 13.5156 44.7507V39.5181C13.5156 39.2353 13.5764 38.9928 13.6777 38.7908L12.5024 38.1241V45.377C12.5024 46.6498 11.6108 47.1751 10.4963 46.5286L9.32105 45.8417C9.09815 45.7002 8.89552 45.8215 8.89552 46.0841C8.89552 46.3467 9.07789 46.67 9.32105 46.8114L21.1751 53.6401C21.398 53.7815 21.6007 53.6603 21.6007 53.3976C21.5804 53.135 21.398 52.8117 21.1549 52.6703Z" fill="#49CE8B"/>
<path d="M21.3576 53.8017C21.2766 53.8017 21.1955 53.7815 21.1145 53.7209L9.2604 46.9124C8.99698 46.7508 8.77408 46.3872 8.77408 46.0841C8.77408 45.9023 8.83487 45.7811 8.95645 45.7204C9.07803 45.6598 9.21988 45.6598 9.36172 45.7407L10.537 46.4276C11.0436 46.7104 11.5096 46.771 11.8339 46.569C12.1783 46.367 12.3607 45.9427 12.3607 45.377V37.9221L13.7994 38.7504L13.7589 38.8514C13.6576 39.0332 13.617 39.2555 13.617 39.5181V44.7507C13.617 45.8013 14.3668 47.0943 15.2786 47.6195C15.7042 47.862 16.0892 47.9024 16.3729 47.7408C16.6565 47.5791 16.8187 47.2155 16.8187 46.7306V41.498C16.8187 41.2354 16.7781 40.9323 16.6768 40.6293L16.5755 40.3464L18.0547 41.195V48.5287C18.0547 49.7611 18.926 51.2763 20 51.9026L21.1753 52.5895C21.4387 52.7511 21.6616 53.1148 21.6616 53.4178C21.6616 53.5997 21.6008 53.7209 21.4792 53.7815C21.459 53.8017 21.4184 53.8017 21.3576 53.8017ZM9.11856 45.9023C9.0983 45.9023 9.07803 45.9023 9.05777 45.9225C9.01724 45.9427 8.99698 46.0033 8.99698 46.0841C8.99698 46.3063 9.15909 46.5892 9.36172 46.7104L21.2158 53.539C21.2969 53.5795 21.3576 53.5997 21.3982 53.5592C21.4387 53.539 21.459 53.4784 21.459 53.3976C21.459 53.1754 21.2969 52.8925 21.0942 52.7713L19.919 52.0844C18.7842 51.4177 17.8521 49.8217 17.8521 48.5085V41.3162L16.9808 40.8111C17.0415 41.0333 17.0618 41.2556 17.0618 41.4778V46.7104C17.0618 47.2761 16.8592 47.7206 16.4944 47.9226C16.1297 48.1246 15.6636 48.0842 15.1571 47.8014C14.1641 47.2357 13.3739 45.8619 13.3739 44.7305V39.4979C13.3739 39.2353 13.4144 39.013 13.4955 38.811L12.5836 38.2857V45.3366C12.5836 46.0033 12.3607 46.4882 11.9352 46.7306C11.5096 46.973 10.9625 46.9124 10.3952 46.5892L9.21988 45.9023C9.19961 45.9225 9.15909 45.9023 9.11856 45.9023Z" fill="#171753"/>
<path d="M13.5156 39.5181V44.7507C13.5156 45.8417 14.2856 47.1751 15.2379 47.7205C16.1903 48.266 16.9603 47.8216 16.9603 46.7306V41.498C16.9603 41.2151 16.8995 40.8919 16.7982 40.5888L17.4061 40.9323V38.9322H13.5966C13.5358 39.114 13.5156 39.2958 13.5156 39.5181Z" fill="#9BE7C4"/>
<path d="M16.0081 48.0842C15.7447 48.0842 15.461 48.0034 15.1773 47.8418C14.1844 47.2761 13.3941 45.9023 13.3941 44.7709V39.5383C13.3941 39.3161 13.4346 39.114 13.4954 38.9322L13.5157 38.8514H17.5278V41.1747L16.9807 40.8717C17.0415 41.0939 17.0618 41.3162 17.0618 41.5384V46.771C17.0618 47.3367 16.8592 47.7812 16.4944 47.9832C16.3526 48.0438 16.1905 48.0842 16.0081 48.0842ZM13.6778 39.0736C13.6373 39.215 13.617 39.3565 13.617 39.5383V44.7709C13.617 45.8214 14.3668 47.1144 15.2786 47.6397C15.7041 47.8822 16.0891 47.9226 16.3728 47.7609C16.6565 47.5993 16.8186 47.2357 16.8186 46.7508V41.5182C16.8186 41.2556 16.7781 40.9525 16.6768 40.6495L16.5755 40.3666L17.2644 40.7707V39.0736H13.6778Z" fill="#171753"/>
<path d="M16.0485 38.9524H13.5966C13.5358 39.114 13.5155 39.316 13.5155 39.5181V44.7507C13.5155 45.5588 13.9411 46.5084 14.549 47.1751C15.1569 47.2155 15.6027 46.771 15.6027 45.9427V40.7101C15.6027 40.4272 15.5419 40.104 15.4406 39.8009L16.0485 40.1444V38.9524Z" fill="#171753"/>
<path d="M14.6298 47.2963C14.5893 47.2963 14.569 47.2963 14.5285 47.2963H14.488L14.4474 47.2559C13.799 46.5488 13.3735 45.579 13.3735 44.7709V39.5383C13.3735 39.3161 13.414 39.114 13.4748 38.9322L13.4951 38.8514H16.1496V40.3868L15.6025 40.0838C15.6633 40.306 15.6835 40.5282 15.6835 40.7505V45.9831C15.6835 46.4679 15.5417 46.8316 15.2985 47.074C15.1364 47.2155 14.8932 47.2963 14.6298 47.2963ZM14.5893 47.0538C14.8122 47.0538 14.9946 46.9932 15.1364 46.872C15.339 46.67 15.4606 46.3669 15.4606 45.9629V40.7303C15.4606 40.4676 15.4201 40.1646 15.3188 39.8615L15.2175 39.5787L15.9064 39.9828V39.0938H13.6572C13.6166 39.2352 13.5964 39.3767 13.5964 39.5585V44.7911C13.6166 45.5184 14.0017 46.4073 14.5893 47.0538Z" fill="#171753"/>
<path d="M14.0829 39.2352V44.4678C14.0829 45.5587 14.8529 46.8921 15.8053 47.4376C16.1093 47.6195 16.393 47.6801 16.6564 47.6599C16.8387 47.4578 16.9603 47.1346 16.9603 46.7103V41.4777C16.9603 41.1949 16.8995 40.8716 16.7982 40.5686L17.4061 40.912V40.3665C17.4061 40.3261 17.3859 40.3059 17.3859 40.2655L17.4061 40.2857V38.8917H14.1235C14.1032 39.0331 14.0829 39.1342 14.0829 39.2352Z" fill="#9BE7C4"/>
<path d="M16.5957 47.8014C16.3323 47.8014 16.0486 47.7205 15.7649 47.5589C14.772 46.9932 13.9818 45.6194 13.9818 44.488V39.2554C13.9818 39.1544 13.9818 39.0534 14.002 38.9524L14.0223 38.8514H17.5481V41.1747L17.001 40.8717C17.0618 41.0939 17.0821 41.3162 17.0821 41.5384V46.771C17.0821 47.1953 16.9605 47.5387 16.7578 47.7811L16.7173 47.8216H16.6768C16.6363 47.8014 16.616 47.8014 16.5957 47.8014ZM14.2249 39.0736C14.2249 39.1342 14.2249 39.1948 14.2249 39.2554V44.488C14.2249 45.5386 14.9747 46.8316 15.8865 47.3569C16.1499 47.4983 16.3931 47.5791 16.616 47.5791C16.7781 47.3771 16.8592 47.0942 16.8592 46.7508V41.5182C16.8592 41.2556 16.8186 40.9525 16.7173 40.6495L16.616 40.3666L17.305 40.7707V40.4272C17.305 40.407 17.305 40.3868 17.2847 40.3666L17.1834 40.0838L17.305 40.1444V39.0736H14.2249Z" fill="#171753"/>
<path d="M24.1939 32.5478L23.8697 48.0839L30.0501 51.6397L32.0561 50.4881V29.8001C32.0561 29.2951 31.8535 28.7496 31.5698 28.3455L28.1048 30.3456L24.1939 32.5478Z" fill="#171753"/>
<path d="M30.0502 51.7813L23.7483 48.1447V48.0841L24.0725 32.4873L28.0441 30.2246L31.6105 28.1841L31.6713 28.2649C31.9955 28.7094 32.1779 29.2953 32.1779 29.8003V50.5691L30.0502 51.7813ZM23.9915 48.0235L30.0502 51.5186L31.9347 50.4479V29.8003C31.9347 29.3761 31.7929 28.8912 31.5294 28.4871L28.1455 30.4266L24.2954 32.6086L23.9915 48.0235Z" fill="#171753"/>
<path d="M29.3008 53.1148L1.1752 36.9321C0.587563 36.5887 0.121506 35.6997 0.121506 34.9118V13.3147C0.121506 12.547 0.587563 12.1834 1.1752 12.5268L29.3008 28.7095C29.8884 29.0529 30.3545 29.9419 30.3545 30.7298V52.3269C30.3545 53.0946 29.8884 53.4583 29.3008 53.1148Z" fill="#49CE8B"/>
<path d="M29.7264 53.3572C29.5846 53.3572 29.4225 53.3168 29.2401 53.2158L1.11454 37.0331C0.506634 36.6897 4.95911e-05 35.7401 4.95911e-05 34.9118V13.3147C4.95911e-05 12.8702 0.162157 12.5268 0.425581 12.3651C0.648479 12.2237 0.932166 12.2439 1.23612 12.4258L29.3617 28.6084C29.9696 28.9519 30.4762 29.9014 30.4762 30.7298V52.3269C30.4762 52.7713 30.3141 53.1148 30.0507 53.2764C29.9493 53.337 29.8278 53.3572 29.7264 53.3572ZM29.3617 53.034C29.5846 53.1552 29.7872 53.1754 29.9291 53.0946C30.1317 52.9733 30.233 52.7107 30.233 52.3471V30.7298C30.233 30.0024 29.7872 29.1337 29.2401 28.8105L1.11454 12.6278C0.891639 12.5066 0.689005 12.4864 0.547161 12.5672C0.344527 12.6884 0.24321 12.951 0.24321 13.3147V34.932C0.24321 35.6593 0.689005 36.528 1.23612 36.8513L29.3617 53.034Z" fill="#171753"/>
<path d="M29.1996 50.832L1.27662 34.7503C1.11452 34.6493 0.972672 34.4068 0.972672 34.1846V13.7795C0.972672 13.5573 1.11452 13.4562 1.27662 13.5573L29.2198 29.6389C29.382 29.7399 29.5238 29.9824 29.5238 30.2046V50.6097C29.5035 50.832 29.3617 50.933 29.1996 50.832Z" fill="#ECFFFE"/>
<path d="M29.3213 50.9732C29.2605 50.9732 29.1997 50.953 29.1389 50.9126L1.21598 34.8512C1.01335 34.7299 0.851238 34.4471 0.851238 34.1845V13.7793C0.851238 13.6177 0.912028 13.4965 1.01335 13.4359C1.0944 13.3753 1.21598 13.3955 1.3173 13.4561L29.2605 29.5378C29.4632 29.659 29.6253 29.9418 29.6253 30.2045V50.6096C29.6253 50.7712 29.5645 50.8924 29.4632 50.953C29.4226 50.9732 29.3821 50.9732 29.3213 50.9732ZM29.2605 50.7308C29.2808 50.7308 29.3213 50.751 29.3416 50.751C29.3618 50.7308 29.3821 50.6904 29.3821 50.6096V30.2045C29.3821 30.0226 29.2605 29.8004 29.1389 29.7398L1.21598 13.6379C1.19572 13.6379 1.15519 13.6177 1.13493 13.6177C1.11466 13.6379 1.0944 13.6783 1.0944 13.7591V34.1643C1.0944 34.3461 1.21598 34.5683 1.33756 34.6289L29.2605 50.7308Z" fill="#171753"/>
<path d="M29.463 50.6703L1.54005 34.5887C1.37794 34.4877 1.2361 34.2452 1.2361 34.023V13.6179C1.2361 13.5977 1.2361 13.5573 1.2361 13.5371C1.09425 13.4765 0.972672 13.5775 0.972672 13.7795V34.1846C0.972672 34.4069 1.11452 34.6695 1.27662 34.7503L29.2198 50.832C29.3617 50.9128 29.4833 50.8522 29.5238 50.6905C29.4833 50.6703 29.4833 50.6703 29.463 50.6703Z" fill="#171753"/>
<path d="M29.3213 50.9732C29.2605 50.9732 29.1997 50.953 29.1389 50.9126L1.21598 34.8512C1.01335 34.7299 0.851238 34.4471 0.851238 34.1845V13.7793C0.851238 13.6379 0.912029 13.5167 0.993082 13.4561C1.07414 13.3955 1.17545 13.3955 1.27677 13.4359L1.35782 13.4763V13.5369C1.35782 13.5571 1.35782 13.5773 1.35782 13.5975V34.0026C1.35782 34.1844 1.4794 34.4067 1.60098 34.4673L29.5239 50.5692L29.4632 50.6702L29.5239 50.5692L29.6253 50.6096V50.7106C29.605 50.8318 29.5442 50.9126 29.4429 50.953C29.4024 50.9732 29.3618 50.9732 29.3213 50.9732ZM1.11466 13.6379C1.0944 13.6581 1.0944 13.6985 1.0944 13.7591V34.1642C1.0944 34.3461 1.21598 34.5683 1.33756 34.6289L29.2808 50.7106C29.3213 50.7308 29.3416 50.7308 29.3618 50.7308C29.3618 50.7308 29.3618 50.7308 29.3821 50.7308L1.4794 34.6895C1.27677 34.5683 1.11466 34.2855 1.11466 34.0228V13.6379Z" fill="#171753"/>
<path d="M16.2512 44.67L14.2248 43.4982C14.1438 43.4376 14.0627 43.3164 14.0627 43.1952C14.0627 43.0739 14.1438 43.0133 14.2248 43.0739L16.2512 44.2457C16.3322 44.3063 16.4133 44.4276 16.4133 44.5488C16.4133 44.67 16.3322 44.7306 16.2512 44.67Z" fill="#171753"/>
<path d="M16.3121 44.8113C16.2716 44.8113 16.2311 44.7911 16.1905 44.7709L14.1642 43.5992C14.0426 43.5184 13.9413 43.3567 13.9413 43.1951C13.9413 43.0941 13.9818 43.0133 14.0629 42.9729C14.1237 42.9325 14.2047 42.9325 14.2858 42.9729L16.3121 44.1446C16.4337 44.2255 16.535 44.3871 16.535 44.5487C16.535 44.6497 16.4945 44.7305 16.4134 44.7709C16.3729 44.7911 16.3527 44.8113 16.3121 44.8113ZM14.1845 43.1749C14.1845 43.1951 14.1845 43.1951 14.1845 43.1749C14.1845 43.2759 14.2453 43.3769 14.2858 43.3971L16.2919 44.5487V44.5285C16.2919 44.4477 16.2311 44.3467 16.1905 44.3265L14.1845 43.1749Z" fill="#171753"/>
<path d="M14.4348 46.1448L14.0308 46.3764L14.1419 46.5691L14.546 46.3374L14.4348 46.1448Z" fill="#ECFFFE"/>
<path d="M31.4487 45.8417L30.9624 46.1245C30.8813 46.1649 30.8002 46.1245 30.8002 46.0033V44.6901C30.8002 44.5689 30.861 44.4477 30.9624 44.387L31.4487 44.1042C31.5297 44.0638 31.6108 44.1042 31.6108 44.2254V45.5386C31.6108 45.6598 31.5297 45.8013 31.4487 45.8417Z" fill="#171753"/>
<path d="M31.4487 43.2758L30.9624 43.5587C30.8813 43.5991 30.8002 43.5587 30.8002 43.4374V42.1242C30.8002 42.003 30.861 41.8818 30.9624 41.8212L31.4487 41.5383C31.5297 41.4979 31.6108 41.5383 31.6108 41.6596V42.9728C31.6108 43.0738 31.5297 43.2152 31.4487 43.2758Z" fill="#171753"/>
<path d="M2.27949 33.6522L1.06867 34.3492L1.18012 34.5417L2.39094 33.8447L2.27949 33.6522Z" fill="#ECFFFE"/>
<path d="M5.87973 14.0511L5.76828 14.2436L25.9661 25.8705L26.0776 25.678L5.87973 14.0511Z" fill="#171753"/>
<path d="M11.2052 38.0925L14.2964 39.8757V36.3094L11.2052 34.5262V38.0925Z" fill="#9BE7C4" stroke="#171753" stroke-width="0.3" stroke-miterlimit="10" stroke-linejoin="round"/>
<path d="M7.04457 35.6864L10.1358 37.4696V33.9033L7.04457 32.1201V35.6864Z" fill="#9BE7C4" stroke="#171753" stroke-width="0.3" stroke-miterlimit="10" stroke-linejoin="round"/>
<path d="M2.88395 33.1826L5.9752 34.9657V31.3994L2.88395 29.6163V33.1826Z" fill="#9BE7C4" stroke="#171753" stroke-width="0.3" stroke-miterlimit="10" stroke-linejoin="round"/>
<path d="M11.2052 32.957L14.2964 34.7401V31.1738L11.2052 29.3907V32.957Z" fill="#9BE7C4" stroke="#171753" stroke-width="0.3" stroke-miterlimit="10" stroke-linejoin="round"/>
<path d="M7.04457 30.5509L10.1358 32.334V28.7677L7.04457 26.9846V30.5509Z" fill="#9BE7C4" stroke="#171753" stroke-width="0.3" stroke-miterlimit="10" stroke-linejoin="round"/>
<path d="M2.88395 28.047L5.9752 29.8302V26.2639L2.88395 24.4807V28.047Z" fill="#9BE7C4" stroke="#171753" stroke-width="0.3" stroke-miterlimit="10" stroke-linejoin="round"/>
<rect width="4.88222" height="0.218607" transform="matrix(0.866025 0.5 0 1 22.4082 35.6602)" fill="#171753"/>
<rect width="3.93492" height="0.218607" transform="matrix(0.866025 0.5 0 1 22.4082 36.1702)" fill="#171753"/>
<rect width="5.46517" height="0.218607" transform="matrix(0.866025 0.5 0 1 22.4082 36.6804)" fill="#171753"/>
<rect width="3.93492" height="0.218607" transform="matrix(0.866025 0.5 0 1 22.4082 38.7936)" fill="#171753"/>
<rect width="1.23877" height="0.218607" transform="matrix(0.866025 0.5 0 1 22.4082 38.2106)" fill="#171753"/>
<rect width="1.23877" height="0.218607" transform="matrix(0.866025 0.5 0 1 22.4082 40.1053)" fill="#171753"/>
<rect width="1.23877" height="0.218607" transform="matrix(0.866025 0.5 0 1 22.4082 41.9998)" fill="#171753"/>
<rect width="5.46517" height="0.728689" rx="0.364344" transform="matrix(0.866025 0.5 0 1 22.4082 40.8937)" stroke="#171753" stroke-width="0.3"/>
<rect width="5.46517" height="0.728689" rx="0.364344" transform="matrix(0.866025 0.5 0 1 22.4082 42.8612)" stroke="#171753" stroke-width="0.3"/>
<path d="M22.4082 44.8548C22.4082 44.6722 22.5364 44.5982 22.6945 44.6895L24.646 45.8162C24.8042 45.9075 24.9324 46.1296 24.9324 46.3122V46.3796C24.9324 46.5622 24.8042 46.6362 24.646 46.5449L22.6945 45.4182C22.5364 45.3269 22.4082 45.1048 22.4082 44.9222V44.8548Z" fill="#49CE8B"/>
<rect x="0.129904" y="0.225" width="5.38377" height="8.95198" rx="0.676695" transform="matrix(0.866025 0.5 0 1 16.1023 32.0823)" fill="#49CE8B" stroke="#171753" stroke-width="0.3"/>
<rect width="2.76902" height="0.218607" transform="matrix(0.866025 0.5 0 1 22.4082 37.1904)" fill="#171753"/>
<circle cx="0.255041" cy="0.255041" r="0.255041" transform="matrix(0.866025 0.5 0 1 22.4082 38.6478)" fill="#171753"/>
<circle cx="0.255041" cy="0.255041" r="0.255041" transform="matrix(0.866025 0.5 0 1 25.5636 40.4696)" fill="#171753"/>
<rect width="32.4511" height="2.61884" transform="matrix(0.866025 0.501279 0 1 1.33055 19.1494)" fill="#49CE8B" stroke="#171753" stroke-width="0.3"/>
<rect width="32.4511" height="5.48051" transform="matrix(0.866025 0.501279 0 1 1.33056 13.6957)" fill="#9BE7C4" stroke="#171753" stroke-width="0.3"/>
<rect width="4.02899" height="1.00725" rx="0.330678" transform="matrix(0.866025 0.5 0 1 24.8672 30.7421)" fill="#171753"/>
</svg>
