<svg width="30" height="40" viewBox="0 0 30 40" fill="none" xmlns="http://www.w3.org/2000/svg">
<path d="M9.05146 1.05752L9.05145 1.05753L9.05315 1.05851L25.5165 10.5688C26.4442 11.1259 27.3061 12.0772 27.9366 13.1755C28.5676 14.2747 28.9534 15.4973 28.9534 16.583V33.6033C28.9534 34.6609 28.5851 35.3438 28.0679 35.6729L28.0447 35.6877L28.0253 35.7071L27.9899 35.7425L22.9831 38.8648L15.9833 31.0998L15.4869 30.5492L15.5485 31.288C15.604 31.9538 15.6605 32.5795 15.775 33.1518L15.778 33.167L15.783 33.1818L16.1235 34.2033L10.8958 37.2352L8.53237 31.703C8.53078 31.692 8.52885 31.6795 8.52668 31.6661C8.52084 31.6299 8.51237 31.581 8.50159 31.5208C8.47996 31.4001 8.44828 31.2297 8.40783 31.0157C8.32688 30.5875 8.21033 29.9821 8.06779 29.2452C7.98351 28.8094 7.89012 28.3275 7.78961 27.8088C7.55007 26.5728 7.27004 25.1278 6.97619 23.5998L6.96835 23.559L6.94775 23.523C6.29278 22.3769 5.86818 21.141 5.86818 20.0316V17.9736V17.9485L5.8632 17.9239C5.47264 15.9973 5.11865 14.1926 4.84109 12.7774C4.82229 12.6816 4.80384 12.5876 4.78576 12.4954C4.50374 11.0579 4.30628 10.0549 4.24605 9.84194C4.18407 9.61099 3.99499 9.14495 3.75476 8.58904C3.51032 8.02336 3.2035 7.34354 2.8973 6.67551C2.53483 5.88471 2.17497 5.1141 1.91778 4.56335C1.79753 4.30585 1.69972 4.09641 1.63459 3.95544L6.19141 1.16791L6.84945 0.78407C7.41887 0.502618 8.15912 0.532651 9.05146 1.05752Z" fill="#FFE850" stroke="#171753" stroke-width="0.5"/>
<path d="M15.6732 31.0506L22.8433 38.9996L22.983 39.1544L23.1604 39.0448L27.9428 36.0896L28.081 36.2278L28.4658 35.9123L28.3776 35.7801C28.8915 35.3523 29.1196 34.6436 29.1196 33.7705V16.5834C29.1196 15.4705 28.7117 14.2314 28.0775 13.1412C27.4433 12.051 26.567 11.0825 25.6015 10.5266L15.6732 31.0506ZM15.6732 31.0506L15.7128 31.4663L15.7139 31.4782V31.49C15.7139 32.0153 15.8186 32.6542 15.9292 33.2634L16.2573 34.2477L16.3218 34.4412L16.1452 34.5432L11.1389 37.4356L10.8947 37.5766L10.784 37.3173L8.50332 31.9776L8.49039 31.9473L8.48574 31.9147C8.46088 31.7407 8.29812 30.9115 8.05448 29.6703C7.76293 28.1849 7.35557 26.1095 6.93008 23.8607L6.92572 23.8376V23.8142V23.8065L6.92156 23.8024L6.90572 23.776C6.2212 22.6352 5.81321 21.3674 5.81321 20.2544V18.1964V18.1096C5.31797 15.6062 4.93146 13.6737 4.66094 12.3211C4.38912 10.962 4.23442 10.1885 4.2042 10.0098C4.16704 9.82782 4.03508 9.46267 3.83465 8.9747C3.63641 8.49204 3.38054 7.91112 3.10988 7.31431C2.56871 6.12103 1.97175 4.87163 1.66577 4.23191L1.5694 4.03041L1.75881 3.91204L6.20801 1.13146L6.819 0.742673L6.82988 0.735749L6.84142 0.729982C7.50609 0.397666 8.32432 0.551205 9.13538 1.01464L9.1364 1.01522L25.6012 10.5264L15.6732 31.0506ZM16.1736 33.1857L16.5588 34.2861C16.5748 34.3565 16.5704 34.4124 16.5565 34.4512C16.5438 34.4869 16.5191 34.5209 16.4646 34.5481L16.4575 34.5517L16.4506 34.5557L10.809 37.8419L10.7121 37.8176C10.6686 37.7954 10.6457 37.7821 10.6273 37.7663C10.6123 37.7534 10.5967 37.7358 10.5835 37.6963L10.5806 37.6873L10.5769 37.6787L8.14315 31.8712C8.14153 31.8599 8.13956 31.8471 8.13732 31.8333C8.13148 31.7971 8.12301 31.7482 8.11223 31.688C8.09061 31.5673 8.05892 31.3969 8.01847 31.1829C7.93753 30.7547 7.82097 30.1493 7.67844 29.4124C7.59411 28.9764 7.50067 28.4942 7.4001 27.9752C7.1606 26.7393 6.88063 25.2946 6.58684 23.767L6.57911 23.7268L6.55898 23.6912C5.85088 22.4385 5.47883 21.2015 5.47883 20.0875V18.0295V18.0054L5.47422 17.9817C4.93967 15.2363 4.5749 13.3927 4.33362 12.1732C4.29867 11.9966 4.26632 11.8331 4.23642 11.6819C4.11815 11.0836 4.03843 10.6781 3.98827 10.4117C3.96316 10.2784 3.94581 10.1818 3.93481 10.1141C3.92531 10.0557 3.92243 10.0294 3.92162 10.022C3.92138 10.0198 3.92132 10.0193 3.92132 10.02V9.98919L3.91385 9.95933C3.86671 9.77076 3.72997 9.41552 3.54742 8.9781C3.36186 8.53349 3.12088 7.98526 2.85611 7.40003C2.32661 6.22961 1.69943 4.90561 1.2249 3.95661C1.20166 3.91015 1.20255 3.86998 1.21587 3.83268C1.23046 3.79183 1.26201 3.7512 1.3033 3.72262L6.6817 0.451429C7.4171 0.11353 8.27177 0.198008 9.27999 0.72758L25.7381 10.2349C25.7385 10.2351 25.739 10.2354 25.7394 10.2356C26.7236 10.8212 27.6411 11.815 28.3129 12.9686C28.9851 14.1227 29.3984 15.4145 29.3984 16.5834V33.8262C29.3984 34.998 29.0282 35.791 28.3451 36.2301L28.3225 36.2446L28.3211 36.246H28.2985L28.2384 36.2829L23.0752 39.4472C23.0419 39.4632 23.0261 39.4668 23.0157 39.4685C22.9982 39.4714 22.9783 39.4721 22.9177 39.4721C22.8965 39.4721 22.8465 39.4628 22.7652 39.3828L16.4844 32.3799L16.0611 32.6259C16.0804 32.6838 16.0917 32.7573 16.1064 32.8603L16.1078 32.87C16.1207 32.9604 16.1373 33.077 16.1723 33.1821L16.1736 33.1857ZM28.28 36.2867C28.2796 36.2871 28.2797 36.287 28.2801 36.2866L28.28 36.2867Z" fill="#171753" stroke="#171753" stroke-width="0.5"/>
<path d="M19.0482 14.7863L2.94886 6.33064L10.1848 1.80194L25.4609 10.57C26.1858 11.0053 26.8293 11.6202 27.389 12.34L22.3672 15.3216L19.0482 14.7863Z" fill="white" stroke="#171753" stroke-width="0.5"/>
<path d="M18.9631 14.9141L19.0003 14.9337L19.0419 14.94L22.3238 15.4406L22.4126 15.4542L22.4897 15.4081L27.3291 12.5157L27.5801 12.3657L27.3929 12.1411C26.8294 11.4649 26.2512 10.883 25.5468 10.4721L25.5455 10.4714L10.3598 1.73872L10.2296 1.66386L10.1023 1.74363L3.09353 6.13776L2.72549 6.3685L3.10989 6.57081L18.9631 14.9141ZM27.9039 12.4991L22.4231 15.7663L18.8263 15.1758L2.11399 6.38612L10.1293 1.3572L25.6279 10.2917C26.4284 10.7724 27.1808 11.4693 27.8291 12.387L27.9039 12.4991Z" fill="#171753" stroke="#171753" stroke-width="0.5"/>
<path d="M23.752 18.4193L23.8088 18.6627L23.8454 18.6542L23.8779 18.6352L28.9226 15.6927C28.9805 15.9911 29.0089 16.2732 29.0089 16.5837V33.7153C29.0089 34.7729 28.6407 35.4557 28.1234 35.7849L28.1003 35.7996L28.0809 35.819L28.0454 35.8544L23.0387 38.9767L16.0389 31.2118L15.5425 30.6611L15.604 31.3999C15.6595 32.0657 15.716 32.6914 15.8305 33.2637L15.8336 33.279L15.8385 33.2938L16.179 34.3153L10.9513 37.3472L8.57362 31.7816L8.56206 31.7545C8.55997 31.7474 8.55738 31.7381 8.55429 31.7263C8.54197 31.6796 8.52576 31.6097 8.50554 31.516C8.4653 31.3293 8.41185 31.0605 8.34579 30.7198C8.29479 30.4567 8.23624 30.1506 8.17069 29.808C8.07341 29.2995 7.96073 28.7105 7.8345 28.0623C8.95859 26.8491 11.083 24.9813 12.9959 23.3806C13.9747 22.5615 14.8941 21.8157 15.589 21.2681C15.9366 20.9942 16.2269 20.7708 16.4399 20.613C16.5466 20.5339 16.6321 20.4726 16.6949 20.43C16.7264 20.4086 16.7501 20.3933 16.7667 20.3834C16.7723 20.38 16.7763 20.3778 16.7787 20.3765L16.786 20.3733C16.7859 20.3734 16.7885 20.3723 16.795 20.37C16.8011 20.3678 16.8092 20.365 16.8196 20.3616C16.8403 20.3548 16.8675 20.3465 16.9013 20.3366C16.9688 20.3169 17.0582 20.2922 17.1672 20.2631C17.3851 20.2051 17.6762 20.131 18.016 20.0463C18.6954 19.8772 19.5654 19.6671 20.4239 19.462C21.2822 19.257 22.1284 19.0572 22.7601 18.9086C23.076 18.8343 23.3382 18.7728 23.5214 18.7299L23.7338 18.6802L23.7896 18.6672L23.8039 18.6639L23.8076 18.663L23.8085 18.6628L23.8087 18.6628L23.752 18.4193Z" fill="#171753" stroke="#171753" stroke-width="0.5"/>
<path d="M24.9661 20.2791L24.9658 20.2786L28.4882 18.1474L28.4885 18.148L24.9661 20.2791Z" fill="#FFE850" stroke="#171753" stroke-width="0.5"/>
<path d="M24.8369 35.6825L24.8366 35.682L28.359 33.5508L28.3593 33.5513L24.8369 35.6825Z" fill="#FFE850" stroke="#171753" stroke-width="0.5"/>
<path d="M5.92379 30.4476L5.91564 30.4421L5.90707 30.4373L4.01921 29.3824C3.09091 28.8245 2.22962 27.8866 1.5999 26.8033C0.969301 25.7184 0.583832 24.5101 0.583832 23.4247V6.18192C0.583832 5.09535 0.965944 4.4064 1.50754 4.09777C2.05047 3.78837 2.84165 3.81077 3.76933 4.34068C3.76949 4.34078 3.76966 4.34087 3.76983 4.34097L20.233 13.8512C20.2332 13.8513 20.2333 13.8514 20.2335 13.8515C21.1889 14.4089 22.0505 15.3465 22.6807 16.4307C23.3105 17.5141 23.6974 18.7236 23.7246 19.8124V37.0521C23.7246 38.1387 23.3425 38.8276 22.8009 39.1362C22.258 39.4456 21.4668 39.4232 20.5391 38.8933C20.5389 38.8932 20.5388 38.8931 20.5386 38.893L11.3611 33.6094L11.3604 33.609C11.1211 33.4722 10.846 33.4262 10.6124 33.5492C10.3726 33.6754 10.2633 33.933 10.2633 34.2154C10.2633 35.1929 10.4689 36.2172 10.6313 37.0261C10.6402 37.0703 10.6489 37.1139 10.6575 37.1567L10.6572 37.1568L10.6601 37.1683C10.7319 37.4555 10.6513 37.5808 10.6107 37.6121C10.584 37.6328 10.4794 37.6793 10.2774 37.5222L10.2774 37.5222L10.2739 37.5196C7.67738 35.5723 6.97219 32.9209 6.75455 31.6695L6.75299 31.6606L6.75078 31.6517C6.62518 31.1494 6.31175 30.7062 5.92379 30.4476Z" fill="#FFE850" stroke="#171753" stroke-width="0.5"/>
<path d="M20.3263 39.2329L20.3264 39.2327L20.3168 39.2271L11.162 33.9565C11.1123 33.9143 11.0611 33.8887 11.0164 33.8739C10.9902 33.8651 10.9668 33.8602 10.9475 33.8575C10.9379 33.8561 10.9293 33.8552 10.9218 33.8547L10.9113 33.8542L10.9068 33.8541L10.9046 33.8541L10.9036 33.8541L10.9031 33.8541H10.9029C10.9028 33.8541 10.9026 33.8541 10.9026 34.1041L10.9026 33.8541L10.6526 33.8541V34.1041V34.1041V34.1041V34.1041V34.1042V34.1042V34.1042V34.1042V34.1042V34.1042V34.1043V34.1043V34.1043V34.1043V34.1044V34.1044V34.1044V34.1044V34.1045V34.1045V34.1045V34.1046V34.1046V34.1046V34.1047V34.1047V34.1048V34.1048V34.1048V34.1049V34.1049V34.105V34.105V34.1051V34.1051V34.1052V34.1052V34.1053V34.1053V34.1054V34.1054V34.1055V34.1056V34.1056V34.1057V34.1057V34.1058V34.1059V34.1059V34.106V34.1061V34.1061V34.1062V34.1063V34.1063V34.1064V34.1065V34.1066V34.1066V34.1067V34.1068V34.1069V34.107V34.1071V34.1071V34.1072V34.1073V34.1074V34.1075V34.1076V34.1077V34.1077V34.1078V34.1079V34.108V34.1081V34.1082V34.1083V34.1084V34.1085V34.1086V34.1087V34.1088V34.1089V34.109V34.1091V34.1092V34.1094V34.1095V34.1096V34.1097V34.1098V34.1099V34.11V34.1101V34.1103V34.1104V34.1105V34.1106V34.1107V34.1109V34.111V34.1111V34.1112V34.1114V34.1115V34.1116V34.1117V34.1119V34.112V34.1121V34.1123V34.1124V34.1125V34.1127V34.1128V34.1129V34.1131V34.1132V34.1134V34.1135V34.1136V34.1138V34.1139V34.1141V34.1142V34.1144V34.1145V34.1147V34.1148V34.115V34.1151V34.1153V34.1154V34.1156V34.1157V34.1159V34.116V34.1162V34.1164V34.1165V34.1167V34.1168V34.117V34.1172V34.1173V34.1175V34.1177V34.1178V34.118V34.1182V34.1183V34.1185V34.1187V34.1188V34.119V34.1192V34.1194V34.1195V34.1197V34.1199V34.1201V34.1203V34.1204V34.1206V34.1208V34.121V34.1212V34.1213V34.1215V34.1217V34.1219V34.1221V34.1223V34.1225V34.1227V34.1229V34.123V34.1232V34.1234V34.1236V34.1238V34.124V34.1242V34.1244V34.1246V34.1248V34.125V34.1252V34.1254V34.1256V34.1258V34.126V34.1262V34.1264V34.1266V34.1268V34.127V34.1273V34.1275V34.1277V34.1279V34.1281V34.1283V34.1285V34.1287V34.1289V34.1292V34.1294V34.1296V34.1298V34.13V34.1303V34.1305V34.1307V34.1309V34.1311V34.1314V34.1316V34.1318V34.132V34.1323V34.1325V34.1327V34.1329V34.1332V34.1334V34.1336V34.1338V34.1341V34.1343V34.1345V34.1348V34.135V34.1352V34.1355V34.1357V34.136V34.1362V34.1364V34.1367V34.1369V34.1371V34.1374V34.1376V34.1379V34.1381V34.1383V34.1386V34.1388V34.1391V34.1393V34.1396V34.1398V34.1401V34.1403V34.1406V34.1408V34.1411V34.1413V34.1416V34.1418V34.1421V34.1423V34.1426V34.1428V34.1431V34.1433V34.1436V34.1439V34.1441V34.1444V34.1446V34.1449V34.1451V34.1454V34.1457V34.1459V34.1462V34.1464V34.1467V34.147V34.1472V34.1475V34.1478V34.148V34.1483V34.1486V34.1488V34.1491V34.1494V34.1496V34.1499V34.1502V34.1504V34.1507V34.151V34.1513V34.1515V34.1518V34.1521V34.1523V34.1526V34.1529V34.1532V34.1535V34.1537V34.154V34.1543V34.1546V34.1548V34.1551V34.1554V34.1557V34.156V34.1562V34.1565V34.1568V34.1571V34.1574V34.1576V34.1579V34.1582V34.1585V34.1588V34.1591V34.1594V34.1596V34.1599V34.1602V34.1605V34.1608V34.1611V34.1614V34.1617V34.1619V34.1622V34.1625V34.1628V34.1631V34.1634V34.1637V34.164V34.1643V34.1646V34.1649V34.1652V34.1655V34.1658V34.166V34.1663V34.1666V34.1669V34.1672V34.1675V34.1678V34.1681V34.1684V34.1687V34.169V34.1693V34.1696V34.1699V34.1702V34.1705V34.1708V34.1711V34.1714V34.1717V34.172V34.1723V34.1726V34.1729V34.1733V34.1736V34.1739V34.1742V34.1745V34.1748V34.1751V34.1754V34.1757V34.176V34.1763V34.1766V34.1769V34.1772V34.1775V34.1778V34.1782V34.1785V34.1788V34.1791V34.1794V34.1797V34.18V34.1803V34.1806V34.181V34.1813V34.1816V34.1819V34.1822V34.1825V34.1828V34.1831V34.1835V34.1838V34.1841V34.1844V34.1847V34.185V34.1853V34.1857V34.186V34.1863V34.1866V34.1869V34.1872V34.1876V34.1879V34.1882V34.1885V34.1888V34.1891V34.1895V34.1898V34.1901V34.1904V34.1907V34.191V34.1914V34.1917V34.192V34.1923V34.1926V34.193V34.1933V34.1936V34.1939V34.1942V34.1946V34.1949V34.1952V34.1955V34.1959V34.1962V34.1965V34.1968V34.1971V34.1975V34.1978V34.1981V34.1984V34.1987V34.1991V34.1994V34.1997V34.2V34.2004V34.2007V34.201V34.2013V34.2017V34.202V34.2023V34.2026V34.203V34.2033V34.2036V34.2039V34.2043V34.2046V34.2049V34.2052V34.2056V34.2059V34.2062V34.2065V34.2069V34.2072V34.2075V34.2078V34.2082V34.2085V34.2088V34.2091V34.2095V34.2098V34.2101V34.2104V34.2108V34.2111V34.2114V34.2117V34.2121V34.2124V34.2127V34.213V34.2134V34.2137V34.214V34.2143V34.2147V34.215V34.2153C10.6526 35.246 10.8806 36.3811 11.0481 37.1072C11.1509 37.5707 11.0216 37.8533 10.8464 37.9409L10.8228 37.9527L10.8021 37.9693C10.7751 37.9909 10.7432 38.0087 10.7076 38.0221V37.497V37.497V37.497V37.4969V37.4969V37.4968V37.4968V37.4968V37.4967V37.4967V37.4967V37.4966V37.4966V37.4965V37.4965V37.4964V37.4963V37.4963V37.4962V37.4962V37.4961V37.496V37.496V37.4959V37.4958V37.4957V37.4956V37.4956V37.4955V37.4954V37.4953V37.4952V37.4951V37.495V37.4949V37.4948V37.4947V37.4946V37.4945V37.4944V37.4942V37.4941V37.494V37.4939V37.4938V37.4936V37.4935V37.4934V37.4932V37.4931V37.493V37.4928V37.4927V37.4925V37.4924V37.4922V37.4921V37.4919V37.4918V37.4916V37.4914V37.4913V37.4911V37.4909V37.4907V37.4906V37.4904V37.4902V37.49V37.4898V37.4897V37.4895V37.4893V37.4891V37.4889V37.4887V37.4885V37.4883V37.4881V37.4879V37.4877V37.4874V37.4872V37.487V37.4868V37.4866V37.4863V37.4861V37.4859V37.4856V37.4854V37.4852V37.4849V37.4847V37.4845V37.4842V37.484V37.4837V37.4835V37.4832V37.4829V37.4827V37.4824V37.4822V37.4819V37.4816V37.4814V37.4811V37.4808V37.4805V37.4803V37.48V37.4797V37.4794V37.4791V37.4788V37.4785V37.4782V37.4779V37.4776V37.4773V37.477V37.4767V37.4764V37.4761V37.4758V37.4755V37.4752V37.4748V37.4745V37.4742V37.4739V37.4735V37.4732V37.4729V37.4725V37.4722V37.4719V37.4715V37.4712V37.4708V37.4705V37.4701V37.4698V37.4694V37.4691V37.4687V37.4683V37.468V37.4676V37.4672V37.4669V37.4665V37.4661V37.4657V37.4654V37.465V37.4646V37.4642V37.4638V37.4634V37.4631V37.4627V37.4623V37.4619V37.4615V37.4611V37.4607V37.4603V37.4598V37.4594V37.459V37.4586V37.4582V37.4578V37.4573V37.4569V37.4565V37.4561V37.4556V37.4552V37.4548V37.4543V37.4539V37.4535V37.453V37.4526V37.4521V37.4517V37.4512V37.4508V37.4503V37.4499V37.4494V37.4489V37.4485V37.448V37.4476V37.4471V37.4466V37.4461V37.4457V37.4452V37.4447V37.4442V37.4437V37.4433V37.4428V37.4423V37.4418V37.4413V37.4408V37.4403V37.4398V37.4393V37.4388V37.4383V37.4378V37.4373V37.4368V37.4363V37.4357V37.4352V37.4347V37.4342V37.4337V37.4331V37.4326V37.4321V37.4316V37.431V37.4305V37.43V37.4294V37.4289V37.4283V37.4278V37.4272V37.4267V37.4261V37.4256V37.425V37.4245V37.4239V37.4234V37.4228V37.4222V37.4217V37.4211V37.4205V37.42V37.4194V37.4188V37.4182V37.4177V37.4171V37.4165V37.4159V37.4153V37.4147V37.4141V37.4136V37.413V37.4124V37.4118V37.4112V37.4106V37.41V37.4094V37.4088V37.4081V37.4075V37.4069V37.4063V37.4057V37.4051V37.4044V37.4038V37.4032V37.4026V37.402V37.4013V37.4007V37.4001V37.3994V37.3988V37.3981V37.3975V37.3969V37.3962V37.3956V37.3949V37.3943V37.3936V37.393V37.3923V37.3917V37.391V37.3903V37.3897V37.389V37.3884V37.3877V37.387V37.3863V37.3857V37.385V37.3843V37.3836V37.383V37.3823V37.3816V37.3809V37.3802V37.3795V37.3789V37.3782V37.3775V37.3768V37.3761V37.3754V37.3747V37.374V37.3733V37.3726V37.3719V37.3711V37.3704V37.3697V37.369V37.3683V37.3676V37.3669V37.3661V37.3654V37.3647V37.364V37.3632V37.3625V37.3618V37.361V37.3603V37.3596V37.3588V37.3581V37.3573V37.3566V37.3559V37.3551V37.3544V37.3536V37.3529V37.3521V37.3514V37.3506V37.3498V37.3491V37.3483V37.3476V37.3468V37.346V37.3453V37.3445V37.3437V37.3429V37.3422V37.3414V37.3406V37.3398V37.3391V37.3383V37.3375V37.3367V37.3359V37.3351V37.3343V37.3336V37.3328V37.332V37.3312V37.3304V37.3296V37.3288V37.328V37.3272V37.3264V37.3255V37.3247V37.3239V37.3231V37.3223V37.3215V37.3207V37.3198V37.319V37.3182V37.3174V37.3166V37.3157V37.3149V37.3141V37.3132V37.3124V37.3116V37.3107V37.3099V37.3091V37.3082V37.3074V37.3065V37.3057V37.3048V37.304V37.3031V37.3023V37.3014V37.3006V37.2997V37.2989V37.298V37.2972V37.2963V37.2954V37.2946V37.2937V37.2928V37.292V37.2911V37.2902V37.2894V37.2885V37.2876V37.2867V37.2858V37.285V37.2841V37.2832V37.2823V37.2814V37.2805V37.2797V37.2788V37.2779V37.277V37.2761V37.2752V37.2743V37.2734V37.2725V37.2716V37.2707V37.2698V37.2689V37.268V37.2671V37.2662V37.2652V37.2643V37.2634V37.2625V37.2616V37.2607V37.2597V37.2588V37.2579V37.257V37.256V37.2551V37.2542V37.2533V37.2523V37.2514V37.2505V37.2495V37.2486V37.2477V37.2467V37.2458V37.2448V37.2439V37.2429V37.242V37.2411V37.2401V37.2392V37.2382V37.2373V37.2363V37.2353V37.2344V37.2334V37.2325V37.2315V37.2305V37.2296V37.2286V37.2277V37.2267V37.2257V37.2248V37.2238V37.2228V37.2218V37.2209V37.2199V37.2189V37.1924L10.7021 37.1665C10.5353 36.3885 10.3182 35.2989 10.3182 34.2153C10.3182 34.0883 10.3505 33.9596 10.4031 33.8543C10.453 33.7546 10.5114 33.6943 10.5576 33.6667C10.5948 33.654 10.6289 33.6416 10.6591 33.6305L10.6656 33.6282C10.6995 33.6158 10.7268 33.6058 10.7522 33.5973C10.807 33.579 10.8321 33.5754 10.847 33.5754C10.9553 33.5754 11.0747 33.6108 11.209 33.7003L11.2158 33.7048L11.2229 33.7089L20.3972 38.9907C20.3978 38.9911 20.3985 38.9915 20.3991 38.9918C21.2768 39.5178 22.1034 39.612 22.7682 39.2132C23.4331 38.8143 23.724 38.038 23.724 37.052V19.8092C23.724 18.6979 23.3309 17.4732 22.7105 16.3894C22.09 15.3054 21.2285 14.3384 20.266 13.7551L20.266 13.7551L20.2615 13.7525L3.79813 4.24213C2.92042 3.71609 2.09376 3.62185 1.42893 4.02072C0.764065 4.41962 0.473163 5.19592 0.473163 6.18187V23.4247C0.473163 24.5361 0.866236 25.7607 1.48659 26.8445C2.10711 27.9285 2.96866 28.8955 3.93112 29.4788L3.93104 29.4789L3.93874 29.4832L5.82442 30.5369C6.2026 30.7754 6.49677 31.2109 6.59605 31.7019C6.82452 33.069 7.56763 35.699 10.1429 37.5874L10.16 37.5999L10.1789 37.6094C10.2197 37.6297 10.2487 37.6493 10.2659 37.6622C10.2745 37.6687 10.28 37.6734 10.2826 37.6756C10.2828 37.6758 10.2831 37.6761 10.2833 37.6762C10.284 37.6769 10.2842 37.6771 10.284 37.6769L10.647 38.04C10.4834 38.0755 10.264 38.03 10.0614 37.8612L10.0616 37.861L10.052 37.8537C7.39482 35.8474 6.58219 33.1912 6.36592 31.7856L6.36617 31.7855L6.36397 31.7745C6.32917 31.6005 6.24635 31.4059 6.14366 31.2401C6.04591 31.0822 5.90647 30.9118 5.73576 30.8242L3.85033 29.7706C3.85009 29.7705 3.84984 29.7704 3.8496 29.7702C2.86999 29.214 1.96739 28.2233 1.30881 27.0691C0.65025 25.915 0.250031 24.6226 0.250031 23.4803V6.23749C0.250031 5.07487 0.669686 4.22413 1.35347 3.78148C2.0334 3.39616 2.99024 3.4271 3.99106 4.00648L3.99127 4.0066L20.4564 13.518L20.4581 13.5189C21.4379 14.075 22.3408 15.066 22.9996 16.2204C23.6581 17.3745 24.0583 18.6669 24.0583 19.8092V37.052C24.0583 38.2114 23.6411 39.0606 22.9607 39.5043C22.6575 39.6539 22.311 39.75 21.9721 39.75C21.4669 39.75 20.9011 39.5986 20.3263 39.2329ZM10.9582 38.1645C10.6801 38.387 10.2351 38.3313 9.90136 38.0532C7.17571 35.9952 6.34133 33.2697 6.11883 31.8236C6.0632 31.5455 5.8407 31.1561 5.6182 31.0449L10.9582 38.1645Z" fill="#171753" stroke="#171753" stroke-width="0.5"/>
<path d="M12.3129 24.4353L12.3129 24.4352L12.3068 24.4316C11.6316 24.0421 11.0064 23.3563 10.5494 22.5565C10.0924 21.7569 9.81747 20.8677 9.81747 20.0872C9.81747 19.3042 10.0901 18.8094 10.4591 18.5923C10.8243 18.3775 11.3747 18.3822 12.0509 18.7983L12.0508 18.7983L12.0533 18.7998C12.7032 19.1897 13.3297 19.8773 13.7943 20.6784C14.2589 21.4797 14.5463 22.3682 14.5463 23.1464C14.5463 23.9295 14.2737 24.4243 13.9047 24.6413C13.5394 24.8561 12.9891 24.8514 12.3129 24.4353Z" fill="#FFE850" stroke="#171753" stroke-width="0.5"/>
<path d="M17.5337 19.0208V22.0011L16.7388 21.5426C16.0984 21.1732 15.5905 20.9949 15.2151 21.0076C14.8397 21.0204 14.5637 21.256 14.387 21.7145C14.2104 22.1475 14.122 22.8225 14.122 23.7395V26.5669L13.1615 23.8732C13.3161 23.835 13.5369 23.8605 13.8239 23.9497C14.111 24.0133 14.4091 24.1343 14.7183 24.3126C15.447 24.7329 16.0542 25.3506 16.54 26.1657C17.0258 26.9553 17.2687 27.8086 17.2687 28.7256C17.2687 29.5917 17.0369 30.1966 16.5732 30.5405C16.1094 30.8589 15.447 30.7698 14.5858 30.2731C14.0337 29.9547 13.5148 29.5153 13.029 28.9549C12.5653 28.3818 12.1899 27.6558 11.9028 26.777C11.6157 25.8728 11.4722 24.7839 11.4722 23.5103V22.8607C11.4722 21.0522 11.682 19.7341 12.1015 18.9062C12.5432 18.0911 13.1725 17.6899 13.9896 17.7027C14.8066 17.6899 15.8003 18.0211 16.9706 18.6961L17.5337 19.0208ZM10.2135 14.7989V17.7791L9.41856 17.3206C8.77818 16.9512 8.27029 16.7729 7.89489 16.7857C7.5195 16.7984 7.24347 17.034 7.06682 17.4925C6.89016 17.9256 6.80183 18.6006 6.80183 19.5175V22.3449L5.84126 19.6513C5.99583 19.6131 6.21665 19.6385 6.50372 19.7277C6.79079 19.7914 7.0889 19.9124 7.39805 20.0907C8.12676 20.5109 8.73401 21.1286 9.21982 21.9437C9.70563 22.7334 9.94853 23.5867 9.94853 24.5037C9.94853 25.3697 9.71667 25.9747 9.25294 26.3185C8.78922 26.6369 8.12676 26.5478 7.26555 26.0511C6.7135 25.7327 6.19457 25.2933 5.70877 24.7329C5.24504 24.1598 4.86965 23.4338 4.58258 22.5551C4.29551 21.6508 4.15198 20.5619 4.15198 19.2883V18.6388C4.15198 16.8303 4.36176 15.5121 4.78132 14.6842C5.22296 13.8691 5.8523 13.468 6.66934 13.4807C7.48638 13.468 8.48007 13.7991 9.65042 14.4741L10.2135 14.7989Z" fill="#171753"/>
<path d="M17.5337 17.2818V20.262L16.7388 19.8035C16.0984 19.4342 15.5905 19.2559 15.2151 19.2686C14.8397 19.2814 14.5637 19.517 14.387 19.9755C14.2104 20.4085 14.122 21.0835 14.122 22.0005V24.8279L13.1615 22.1342C13.3161 22.096 13.5369 22.1215 13.8239 22.2106C14.111 22.2743 14.4091 22.3953 14.7183 22.5736C15.447 22.9939 16.0542 23.6116 16.54 24.4267C17.0258 25.2163 17.2687 26.0696 17.2687 26.9866C17.2687 27.8527 17.0369 28.4576 16.5732 28.8015C16.1094 29.1199 15.447 29.0307 14.5858 28.534C14.0337 28.2156 13.5148 27.7762 13.029 27.2159C12.5653 26.6427 12.1899 25.9168 11.9028 25.038C11.6157 24.1338 11.4722 23.0448 11.4722 21.7712V21.1217C11.4722 19.3132 11.682 17.995 12.1015 17.1672C12.5432 16.3521 13.1725 15.9509 13.9896 15.9637C14.8066 15.9509 15.8003 16.2821 16.9706 16.9571L17.5337 17.2818ZM10.2135 13.0599V16.0401L9.41856 15.5816C8.77818 15.2122 8.27029 15.0339 7.89489 15.0467C7.5195 15.0594 7.24347 15.295 7.06682 15.7535C6.89016 16.1865 6.80183 16.8615 6.80183 17.7785V20.6059L5.84126 17.9123C5.99583 17.874 6.21665 17.8995 6.50372 17.9887C6.79079 18.0523 7.0889 18.1733 7.39805 18.3516C8.12676 18.7719 8.73401 19.3896 9.21982 20.2047C9.70563 20.9944 9.94853 21.8477 9.94853 22.7647C9.94853 23.6307 9.71667 24.2357 9.25294 24.5795C8.78922 24.8979 8.12676 24.8088 7.26555 24.3121C6.7135 23.9937 6.19457 23.5543 5.70877 22.9939C5.24504 22.4208 4.86965 21.6948 4.58258 20.8161C4.29551 19.9118 4.15198 18.8229 4.15198 17.5493V16.8997C4.15198 15.0912 4.36176 13.7731 4.78132 12.9452C5.22296 12.1301 5.8523 11.729 6.66934 11.7417C7.48638 11.729 8.48007 12.0601 9.65042 12.7351L10.2135 13.0599Z" fill="#171753"/>
<path d="M16.6918 18.0232V17.5232L16.2587 17.2733L15.6956 16.9486C14.4767 16.2456 13.4128 15.8835 12.5209 15.8962C11.6063 15.8834 10.9128 16.3371 10.4355 17.2181L10.4354 17.218L10.4319 17.2249C9.97696 18.1226 9.76402 19.5184 9.76402 21.3634V22.013C9.76402 23.321 9.91025 24.491 10.2326 25.5063L10.2325 25.5063L10.2349 25.5137C10.5494 26.4763 10.9784 27.3246 11.5392 28.0177L11.5496 28.0306L11.5604 28.043C12.1073 28.6739 12.6926 29.1691 13.3107 29.5256C14.2606 30.0734 15.0522 30.2031 15.6179 29.8147L15.6179 29.8148L15.624 29.8103C16.1616 29.4116 16.4268 28.7065 16.4268 27.7279C16.4268 26.7044 16.1523 25.6875 15.5601 24.7225C14.9872 23.7632 14.271 23.0426 13.4432 22.5651C13.3895 22.5342 13.3361 22.5047 13.2828 22.4767C13.2986 21.7312 13.3821 21.2084 13.5167 20.8785L13.5167 20.8786L13.519 20.8727C13.6673 20.4879 13.8816 20.3278 14.1426 20.3189C14.4318 20.3091 14.861 20.4475 15.4637 20.7951L16.2587 21.2536L16.6918 21.5034V21.0034V18.0232ZM9.37159 13.8012V13.3012L8.93846 13.0514L8.37537 12.7266C7.15649 12.0236 6.09255 11.6615 5.2007 11.6742C4.28605 11.6614 3.59262 12.1151 3.11527 12.9961L3.11519 12.9961L3.11169 13.003C2.65674 13.9006 2.4438 15.2964 2.4438 17.1415V17.791C2.4438 19.0991 2.59003 20.269 2.91234 21.2843L2.91231 21.2843L2.91473 21.2917C3.22918 22.2543 3.65816 23.1027 4.21895 23.7958L4.22938 23.8087L4.24013 23.8211C4.78707 24.4519 5.3724 24.9471 5.9905 25.3036C6.94042 25.8515 7.732 25.9811 8.29763 25.5927L8.2977 25.5928L8.30374 25.5884C8.84141 25.1897 9.1066 24.4845 9.1066 23.506C9.1066 22.4824 8.83211 21.4656 8.23992 20.5005C7.66695 19.5413 6.95079 18.8206 6.12299 18.3432C6.0693 18.3122 6.01584 18.2827 5.96262 18.2547C5.97837 17.5092 6.06189 16.9864 6.19647 16.6566L6.19652 16.6566L6.19877 16.6508C6.34705 16.2659 6.56142 16.1058 6.82237 16.097C7.11163 16.0872 7.54083 16.2255 8.14351 16.5731L8.93846 17.0316L9.37159 17.2814V16.7814V13.8012Z" fill="white" stroke="#171753"/>
<path d="M17.1061 29.7534C17.7683 28.3883 17.4531 26.679 16.9937 25.4454C16.8563 25.0766 16.3697 25.1387 16.2878 25.5237C16.276 25.5791 16.2754 25.6364 16.286 25.6921L16.7639 28.2004C16.8274 28.5339 16.7585 28.879 16.5716 29.1625C16.2952 29.5819 15.8025 29.8054 15.3048 29.7371L13.3798 29.4728C13.1288 29.4132 12.6964 29.3449 12.975 29.548C13.1923 29.7064 14 30.0733 14.6249 30.3447C14.9328 30.4783 15.2668 30.5394 15.6022 30.529L15.7114 30.5256C16.2843 30.5079 16.8559 30.2691 17.1061 29.7534Z" fill="#171753"/>
</svg>
