<svg width="32" height="40" viewBox="0 0 32 40" fill="none" xmlns="http://www.w3.org/2000/svg">
<path d="M22.5867 1.64122L20.1906 0.271266C20.1336 0.214184 20.0765 0.214184 20.0195 0.271266L18.1369 1.46998C18.0799 1.46998 18.0799 1.52706 18.1369 1.58414L19.9624 3.52492C19.9624 3.52492 19.9624 3.52492 19.9624 3.582V4.20989C19.9624 4.38114 20.0765 4.60947 20.1906 4.66655L20.8182 3.92449L20.7041 4.95196C20.7041 5.00904 20.7611 5.00904 20.8182 4.95196L22.7008 3.75324C22.7008 3.75324 22.7578 3.63908 22.7578 3.52492V2.0408C22.8719 1.92663 22.7578 1.75538 22.5867 1.64122Z" fill="white"/>
<path d="M20.8179 5.29432H20.7609C20.7038 5.29432 20.5897 5.23724 20.5897 5.12308L20.5327 5.06599L20.5897 4.66642L20.3045 5.00891L20.1333 4.89475C19.9051 4.78059 19.734 4.49517 19.734 4.20977V3.63895L17.9085 1.69818C17.7944 1.52693 17.8514 1.35569 18.0225 1.24152L19.9051 0.0428112C20.0192 -0.0142704 20.1904 -0.0142704 20.3045 0.0428112L22.7005 1.41277C22.9287 1.52693 23.0998 1.81234 23.0998 2.09775V3.58187C23.0998 3.75311 22.9857 3.92436 22.9857 3.92436L22.9287 3.98144L21.0461 5.18016C20.932 5.23724 20.875 5.29432 20.8179 5.29432ZM20.7609 3.63895L20.932 3.75312C20.9891 3.75312 20.9891 3.8102 21.0461 3.86728L21.1032 3.92436L21.0461 4.66642L22.5864 3.69604C22.5864 3.69604 22.5864 3.69603 22.5864 3.63895V2.15483C22.5864 2.04067 22.5294 1.9265 22.4723 1.86942L20.0763 0.499462L18.3648 1.52693L20.0763 3.35354C20.1333 3.41062 20.1333 3.46771 20.1333 3.52479V4.15269C20.1333 4.20977 20.1333 4.20977 20.1333 4.26685L20.7609 3.63895Z" fill="#171753"/>
<path d="M19.4492 3.69605C19.4492 3.69605 19.4492 3.75313 19.4492 3.81021L20.7613 4.95185C20.8183 5.00893 20.8754 5.00893 20.9324 5.00893L22.815 3.8673C22.815 3.8673 22.8721 3.75313 22.8721 3.63897V2.21193C22.8721 2.15485 22.815 2.15485 22.815 2.15485L20.9324 3.35356L19.4492 3.69605Z" fill="#171753"/>
<path d="M20.8751 5.23744C20.818 5.23744 20.818 5.23744 20.761 5.23744C20.7039 5.23744 20.5899 5.18036 20.5328 5.12328L19.1066 3.92456L19.1636 3.52499L20.761 3.1825L22.6436 1.98379C22.7577 1.92671 22.8718 1.92671 22.9288 1.98379C23.0429 2.04087 23.1 2.15503 23.1 2.21211V3.63915C23.1 3.8104 22.9859 3.98165 22.9859 3.98165L22.9288 4.03873L21.0462 5.18036C20.9892 5.23744 20.9321 5.23744 20.8751 5.23744ZM19.8482 3.86748L20.8751 4.72371L22.6436 3.63915C22.6436 3.63915 22.6436 3.63915 22.6436 3.58207V2.49752L21.1033 3.46791L21.0462 3.52499L19.8482 3.86748Z" fill="#171753"/>
<path d="M20.6469 5.06571L18.2509 3.69576C18.1368 3.63868 18.0227 3.41035 18.0227 3.2391V1.75498C18.0227 1.58374 18.1368 1.46957 18.2509 1.58373L20.6469 2.95369C20.761 3.01078 20.8751 3.2391 20.8751 3.41035V4.89447C20.8751 5.06572 20.761 5.12279 20.6469 5.06571Z" fill="#FFE850"/>
<path d="M20.704 5.35109C20.6469 5.35109 20.5328 5.35109 20.4758 5.29401L18.0798 3.92405C17.8516 3.80988 17.6804 3.52448 17.6804 3.23907V1.75495C17.6804 1.5837 17.7375 1.41245 17.9086 1.35537C18.0227 1.29829 18.1939 1.29829 18.3079 1.35537L20.704 2.72533C20.9322 2.8395 21.1033 3.12491 21.1033 3.41031V4.89444C21.1033 5.06568 21.0463 5.23692 20.8751 5.29401C20.8751 5.29401 20.8181 5.35109 20.704 5.35109ZM20.761 4.83735L20.6469 5.06568L20.761 4.83735ZM18.1939 1.75495V3.18199C18.1939 3.29615 18.2509 3.41031 18.3079 3.4674L20.5899 4.78027V3.35323C20.5899 3.23907 20.5328 3.1249 20.4758 3.06782L18.1939 1.75495Z" fill="#171753"/>
<path d="M21.0994 0.702435L19.2111 1.87964L19.4525 2.2672L21.3407 1.09L21.0994 0.702435Z" fill="#171753"/>
<path d="M22.6472 3.09974L20.9858 4.10083L21.1917 4.443L22.8532 3.44191L22.6472 3.09974Z" fill="#FFE850"/>
<path d="M8.15764 35.3659L2.85215 32.3406C2.79511 32.2835 2.68101 32.2835 2.68101 32.3406L0.45613 33.7106C0.399082 33.7106 0.399078 33.7676 0.399078 33.8247L2.56691 36.108V36.1651V36.9071C2.56691 37.1355 2.68101 37.3638 2.85215 37.4779L3.59378 36.6217C3.59378 36.6217 3.59379 36.6217 3.65084 36.6788L5.98981 39.3616C5.98981 39.4187 6.04685 39.4187 6.1039 39.4187L8.32879 38.0488C8.32879 38.0488 8.44288 37.9346 8.44288 37.8204V36.0509C8.44288 35.7084 8.27174 35.4801 8.15764 35.3659Z" fill="white"/>
<path d="M6.04734 39.59H5.99029C5.93324 39.59 5.81914 39.5329 5.81914 39.4759L3.65132 37.0214L2.96673 37.8205L2.79559 37.7063C2.5674 37.5922 2.39625 37.2497 2.39625 36.9072V36.2222L0.285465 33.9389C0.171368 33.7677 0.228415 33.5964 0.39956 33.4823L2.62445 32.1123C2.73854 32.0552 2.90969 32.0552 3.08083 32.1123L8.38632 35.1377C8.61451 35.2518 8.78566 35.5943 8.78566 35.9368V37.7063C8.78566 37.8776 8.67156 38.0488 8.61451 38.1059L8.55746 38.163L6.33258 39.5329C6.16144 39.59 6.10439 39.59 6.04734 39.59ZM3.82245 36.5076L6.10439 39.0763L8.15813 37.7634V37.7063V35.9368C8.15813 35.8226 8.04403 35.6514 7.98698 35.5943L2.73854 32.569L0.684801 33.8248L2.73854 35.9939C2.79559 36.051 2.79559 36.108 2.79559 36.1651V36.9072C2.79559 36.9643 2.79559 37.0213 2.85264 37.0784L3.53721 36.2793L3.70836 36.3935C3.76541 36.3935 3.76541 36.4505 3.82245 36.5076Z" fill="#171753"/>
<path d="M4.45007 37.7632C4.45007 37.7632 4.45007 37.8203 4.45007 37.9344L5.99037 39.2473C6.04742 39.3044 6.10448 39.3615 6.21857 39.3044L8.3864 37.9344C8.3864 37.9344 8.5005 37.8203 8.5005 37.7061V36.0507C8.5005 35.9936 8.44345 35.9937 8.3864 35.9937L6.16152 37.3636L4.45007 37.7632Z" fill="#171753"/>
<path d="M6.10439 39.5328C6.04734 39.5328 6.04734 39.5328 5.99029 39.5328C5.87619 39.5328 5.81915 39.4757 5.7621 39.4186L4.1077 38.0487L4.16475 37.592L5.99029 37.1924L8.15813 35.8225C8.27222 35.7654 8.38632 35.7654 8.44337 35.8225C8.55746 35.8796 8.61451 35.9937 8.61451 36.1079V37.7632C8.61451 37.9345 8.50042 38.1057 8.44337 38.1628L8.38632 38.2199L6.21849 39.5899C6.21849 39.5328 6.16143 39.5328 6.10439 39.5328ZM4.79228 37.9345L6.10439 39.019L8.15813 37.7062V37.6491V36.3362L6.27553 37.5349L6.21849 37.592L4.79228 37.9345Z" fill="#171753"/>
<path d="M5.81875 39.3619L0.513269 36.3365C0.342124 36.2224 0.228027 35.9941 0.228027 35.7657V33.9962C0.228027 33.7679 0.342124 33.6537 0.513269 33.7679L5.81875 36.7932C5.98989 36.9074 6.10399 37.1357 6.10399 37.364V39.1335C6.10399 39.3619 5.98989 39.476 5.81875 39.3619Z" fill="#FFE850"/>
<path d="M5.93302 39.6471C5.87598 39.6471 5.76187 39.6471 5.70482 39.59L0.399336 36.5647C0.171143 36.4505 0 36.108 0 35.7655V33.996C0 33.7677 0.0570535 33.6535 0.228198 33.5393C0.342295 33.4823 0.513433 33.4823 0.684577 33.5393L5.99007 36.5647C6.21826 36.6788 6.3894 37.0213 6.3894 37.3638V39.1333C6.3894 39.3617 6.33236 39.4758 6.16121 39.59C6.10416 39.6471 5.99007 39.6471 5.93302 39.6471ZM0.513439 33.996V35.7084C0.513439 35.8226 0.627529 35.9938 0.684577 36.0509L5.87597 39.0762V37.3638C5.87597 37.2496 5.76187 37.0784 5.70482 37.0213L0.513439 33.996Z" fill="#171753"/>
<path d="M3.95257 32.8218L1.7254 34.2106L1.96679 34.5981L4.19396 33.2094L3.95257 32.8218Z" fill="#171753"/>
<path d="M8.18495 37.085L6.22934 38.2616L6.43512 38.604L8.39073 37.4275L8.18495 37.085Z" fill="#FFE850"/>
<path d="M27.0816 11.6185L27.0816 11.6185L27.0853 11.6205C28.0624 12.1637 28.9453 13.1242 29.5776 14.2435C30.2099 15.3627 30.578 16.617 30.5509 17.732L30.5508 17.732V17.7381V35.4334C30.5508 36.5202 30.1726 37.2235 29.6396 37.5629L29.6165 37.5776L29.5971 37.597L29.5589 37.6352L27.1937 39.1604L20.0338 31.1568L19.5365 30.6008L19.5984 31.3443C19.6496 31.9595 19.7017 32.541 19.7972 33.0792L16.585 34.9314L16.405 35.0352L16.4741 35.2311L16.8164 36.2015L16.8216 36.2162L16.8225 36.2181C16.822 36.22 16.8212 36.2224 16.82 36.2254C16.8127 36.2435 16.7923 36.2755 16.7461 36.3073L14.8317 37.4667L12.4436 31.7644L12.4399 31.7456L12.415 31.6166L12.3193 31.1218C12.2364 30.6928 12.1169 30.0739 11.9708 29.3141C11.6784 27.7944 11.2791 25.7112 10.8513 23.4567L10.8435 23.4157L10.8228 23.3794C10.1507 22.2026 9.71473 20.9331 9.71473 19.793V17.6239V17.5989L9.70975 17.5743C9.3092 15.5971 8.94615 13.7449 8.66149 12.2927C8.64221 12.1943 8.62329 12.0978 8.60475 12.0032C8.31544 10.5276 8.113 9.49876 8.05135 9.28067C7.98796 9.04425 7.79426 8.56645 7.5478 7.99575C7.29714 7.4153 6.98249 6.71768 6.66846 6.03213C6.2968 5.22076 5.92774 4.42994 5.66395 3.86468C5.53781 3.59439 5.43574 3.37568 5.36897 3.23096L7.93409 1.57334C8.51986 1.28581 9.27969 1.31859 10.1936 1.85652L10.1936 1.85653L10.1953 1.85751L27.0816 11.6185Z" fill="#FFE850" stroke="#171753" stroke-width="0.5"/>
<path d="M20.4336 31.8989L19.9936 31.4078C19.9924 31.3964 19.9913 31.3849 19.9901 31.3735L27.0784 39.254L27.2215 39.4131L27.4007 39.2963L29.8538 37.698L29.8539 37.6981L29.8608 37.6933C30.517 37.2337 30.8801 36.4022 30.8801 35.3765V17.6812C30.8801 16.5131 30.4629 15.2286 29.8126 14.1027C29.1624 12.977 28.2642 11.9838 27.275 11.4139L10.3908 1.65415C9.51277 1.12762 8.64572 1.03044 7.98233 1.33416H7.98196H7.90913L7.84769 1.37328L5.33757 2.97157L5.15111 3.09029L5.2461 3.28988C5.53105 3.88863 6.14361 5.18574 6.71322 6.43961C6.99808 7.06667 7.27162 7.68164 7.4879 8.1925C7.70294 8.70044 7.85432 9.08929 7.90866 9.28685C7.94278 9.48471 8.10086 10.2756 8.37566 11.6505C8.65311 13.0387 9.04954 15.0221 9.55751 17.5915V17.6241V19.7932C9.55751 20.9291 9.97214 22.2822 10.672 23.4525L10.7099 23.5282C11.5625 27.7952 12.243 31.4841 12.2992 31.8214L12.3041 31.8507L12.3157 31.8779L14.7117 37.529L14.8001 37.7374L14.7743 37.753L12.2158 31.707L12.2122 31.6887L12.1872 31.5597L12.0916 31.0649C12.0087 30.6359 11.8892 30.017 11.7431 29.2572C11.4507 27.7375 11.0514 25.6543 10.6236 23.3998L10.6155 23.3569L10.5933 23.3193C9.87043 22.0953 9.48702 20.7688 9.48702 19.622V17.5099V17.4858L9.48242 17.4622C8.22817 11.0161 7.88427 9.40901 7.82517 9.1725C7.77697 8.97956 7.63695 8.61548 7.44968 8.16648C7.25941 7.71027 7.01229 7.14772 6.74077 6.54717C6.20132 5.354 5.56302 4.00529 5.07757 3.03288C5.06293 2.97455 5.07801 2.91321 5.11951 2.86276L7.97964 1.06712C8.62779 0.826753 9.44916 0.919999 10.3025 1.45364L10.3024 1.45374L10.3092 1.45766L27.2525 11.3328L27.2525 11.3328L27.2549 11.3342C28.2613 11.9057 29.1737 12.9095 29.8352 14.073C30.4966 15.2364 30.8936 16.5355 30.8936 17.6812V35.3765C30.8936 36.505 30.5259 37.3073 29.9076 37.7094C29.8821 37.7174 29.8596 37.728 29.8401 37.7397C29.8333 37.7438 29.8269 37.748 29.8209 37.7522H29.8147L29.7528 37.7923L27.1939 39.4459L20.4336 31.8989ZM17.1628 35.983C17.1846 36.0375 17.1922 36.0921 17.1885 36.1433V36.1351L17.1757 36.0966L16.9761 35.4975L17.1616 35.9799L17.1628 35.983ZM29.7652 37.8003C29.7649 37.8006 29.7656 37.8 29.767 37.7987C29.766 37.7996 29.7654 37.8002 29.7652 37.8003Z" fill="#171753" stroke="#171753" stroke-width="0.5"/>
<path d="M23.2371 14.3011L6.19274 5.2723L10.8988 2.21933L27.0767 11.5582C27.7778 12.0102 28.4388 12.6495 29.0145 13.4376L26.6436 14.8508L23.2371 14.3011Z" fill="white" stroke="#171753" stroke-width="0.5"/>
<path d="M27.1958 11.3331L27.1969 11.3337C27.9534 11.7663 28.7269 12.5348 29.3986 13.487L29.3985 13.487L29.4029 13.4928L29.406 13.4969L26.7023 15.0792L23.9059 14.6129L26.5993 15.0171L26.6866 15.0302L26.7627 14.9856L29.1017 13.6157L29.3378 13.4774L29.1789 13.2547C28.5857 12.4237 27.8734 11.8299 27.1618 11.4145L27.1611 11.4141L11.0165 2.05276L10.8844 1.97618L10.756 2.05868L6.13506 5.02693L5.77612 5.2575L6.15271 5.45795L23.096 14.4769L23.0987 14.4783L23.0662 14.4729L5.62237 5.27183L10.8417 1.87727L27.1958 11.3331Z" fill="#171753" stroke="#171753" stroke-width="0.5"/>
<path d="M28.0631 17.9667L28.1199 18.2102L28.1569 18.2016L28.1897 18.1823L30.5183 16.8147C30.5788 17.1243 30.6084 17.4165 30.6084 17.7384V35.3766C30.6084 36.4635 30.2302 37.1668 29.6973 37.5061L29.6742 37.5208L29.6547 37.5403L29.6166 37.5784L27.2011 39.136L18.8233 34.2235L20.2615 33.3651L20.4131 33.2746L20.3785 33.1015C20.3334 32.8756 20.131 32.797 20.0021 32.7701C19.8625 32.7409 19.692 32.7434 19.5199 32.7577C19.1863 32.7855 18.7614 32.8663 18.3525 32.9442L18.2968 32.9548C17.8604 33.0378 17.4477 33.1144 17.1413 33.1337C17.0754 33.1379 17.019 33.139 16.9716 33.1377L16.7228 32.9919L16.3034 32.7459L16.3474 33.2302C16.3567 33.333 16.4028 33.4221 16.4755 33.4886C16.5427 33.55 16.6227 33.5835 16.6938 33.603C16.7329 33.6138 16.7745 33.6217 16.8179 33.6272L17.8413 34.2273L16.7535 34.8766L16.5778 34.9814L16.6459 35.1744L16.9881 36.1448L16.9933 36.1595L16.9943 36.1614C16.9937 36.1633 16.9929 36.1657 16.9918 36.1686C16.9846 36.1865 16.9647 36.2179 16.9199 36.2492L14.8919 37.416L12.5003 31.7055L12.4897 31.6553C12.4795 31.6071 12.4644 31.5355 12.4448 31.4421C12.4057 31.2552 12.3487 30.9809 12.2775 30.6317C12.14 29.9575 11.9493 29.004 11.7311 27.8613C12.8836 26.6159 15.0646 24.6972 17.0279 23.0532C18.0317 22.2126 18.9747 21.4471 19.6874 20.8851C20.0439 20.604 20.3417 20.3747 20.5602 20.2127C20.6697 20.1315 20.7574 20.0685 20.8219 20.0247C20.8543 20.0028 20.8788 19.987 20.8959 19.9767C20.902 19.9731 20.9062 19.9708 20.9087 19.9694L20.9165 19.966C20.9165 19.966 20.9172 19.9657 20.9188 19.9651L20.926 19.9624C20.9324 19.9602 20.9407 19.9573 20.9514 19.9538C20.9728 19.9468 21.0007 19.9383 21.0354 19.9281C21.1047 19.9078 21.1965 19.8825 21.3083 19.8526C21.5318 19.7931 21.8304 19.717 22.1789 19.6301C22.8757 19.4565 23.7679 19.2409 24.6484 19.0304C25.5287 18.82 26.3966 18.615 27.0445 18.4625C27.3684 18.3863 27.6373 18.3232 27.8252 18.2792L28.043 18.2282L28.1003 18.2148L28.115 18.2114L28.1187 18.2105L28.1196 18.2103L28.1198 18.2102L28.0631 17.9667ZM19.9349 33.2696C19.9348 33.2696 19.9346 33.2695 19.9341 33.2694C19.9335 33.2691 19.9326 33.2687 19.9313 33.268C19.9328 33.2685 19.9338 33.269 19.9344 33.2692C19.9347 33.2694 19.9349 33.2696 19.9349 33.2696ZM19.4505 33.2669L18.3312 33.9349L17.7066 33.5687C17.9277 33.5337 18.1618 33.4894 18.3902 33.446L18.4304 33.4383C18.8037 33.3673 19.1609 33.2994 19.4505 33.2669Z" fill="#171753" stroke="#171753" stroke-width="0.5"/>
<path d="M29.317 19.9077L29.2794 19.8481L30.1107 19.323L30.1483 19.3826L29.317 19.9077Z" fill="#FFE850" stroke="#171753" stroke-width="0.5"/>
<path d="M29.323 36.2274L29.2854 36.1678L30.1165 35.6424L30.1541 35.702L29.323 36.2274Z" fill="#FFE850" stroke="#171753" stroke-width="0.5"/>
<path d="M15.364 36.0258L15.3264 35.9662L16.1575 35.4408L16.1951 35.5004L15.364 36.0258Z" fill="#FFE850" stroke="#171753" stroke-width="0.5"/>
<path d="M9.77515 30.3166L9.76699 30.3112L9.75842 30.3064L7.82222 29.2238C6.86901 28.6505 5.98493 27.6871 5.33864 26.5745C4.69149 25.4605 4.29568 24.2193 4.29568 23.104V5.40868C4.29568 4.29211 4.68816 3.58237 5.24631 3.2641C5.80573 2.9451 6.61962 2.96891 7.57218 3.5134C7.57235 3.51349 7.57252 3.51359 7.57268 3.51368L24.4562 13.273C25.4099 13.8461 26.2946 14.81 26.9412 15.9231C27.5883 17.0371 27.9841 18.2784 27.9841 19.3937V37.089C27.9841 38.2055 27.5917 38.9153 27.0335 39.2336C26.4741 39.5526 25.6602 39.5287 24.7076 38.9843C24.7075 38.9842 24.7073 38.9841 24.7071 38.984L15.2949 33.5616L15.2942 33.5612C15.0499 33.4215 14.7701 33.3751 14.533 33.5C14.2898 33.628 14.1785 33.8897 14.1785 34.1778C14.1785 35.1803 14.3892 36.2309 14.5558 37.0611C14.5649 37.1064 14.5739 37.1511 14.5827 37.1951L14.5824 37.1951L14.5853 37.2067C14.6592 37.5026 14.5768 37.6345 14.5323 37.6689C14.5017 37.6926 14.3911 37.7389 14.1827 37.5767L14.1827 37.5766L14.1792 37.574C11.5182 35.5771 10.7927 32.8592 10.5683 31.5719C10.4993 31.0369 10.1684 30.5789 9.77515 30.3166Z" fill="#FFE850" stroke="#171753" stroke-width="0.5"/>
<path d="M15.181 33.8468L15.1746 33.8432L15.168 33.8399C15.0823 33.797 14.9996 33.7768 14.9404 33.7669C14.9102 33.7619 14.8845 33.7593 14.8654 33.7579C14.8558 33.7572 14.8477 33.7568 14.8414 33.7566L14.8333 33.7564L14.8303 33.7564L14.829 33.7564L14.8285 33.7564H14.8282H14.8281C14.828 33.7564 14.828 33.7564 14.828 33.964V33.7564C14.7106 33.7564 14.628 33.8234 14.5847 33.8909C14.5491 33.9462 14.5369 34.004 14.5315 34.0367C14.5208 34.1005 14.5209 34.176 14.5209 34.2259L14.5209 34.2347C14.5209 35.2922 14.7548 36.4571 14.9267 37.2021L14.9266 37.2021L14.9277 37.2065C15.0281 37.6084 14.9082 37.8678 14.7563 37.959C14.5876 38.0603 14.3558 38.0511 14.0585 37.8542C11.3405 35.8536 10.5626 33.1327 10.3401 31.6851L10.3401 31.6851L10.3396 31.682C10.3052 31.4759 10.2214 31.2605 10.1069 31.0723C9.99323 30.8855 9.83875 30.7081 9.65116 30.5955L9.65122 30.5954L9.64449 30.5916L7.7063 29.5079C7.70608 29.5077 7.70587 29.5076 7.70565 29.5075C6.69949 28.9359 5.7874 27.9323 5.12604 26.769C4.46463 25.6057 4.06766 24.3066 4.06766 23.1609V5.46557C4.06766 5.02833 4.12535 4.64187 4.23 4.30802C4.13144 4.63551 4.08109 5.00612 4.08109 5.40849V23.1038C4.08109 24.2719 4.49831 25.5564 5.14861 26.6823C5.7988 27.808 6.69705 28.8012 7.68623 29.3711L7.68903 29.3727L9.62659 30.456C9.62693 30.4562 9.62727 30.4564 9.62761 30.4566C9.95192 30.6426 10.2576 31.0856 10.3609 31.5427C10.5959 32.9472 11.3588 35.6407 14.0518 37.6323L14.0516 37.6325L14.0617 37.6393C14.287 37.7895 14.4547 37.7954 14.5427 37.7954H14.6463L14.7196 37.7222C14.8591 37.5825 14.9106 37.3681 14.845 37.0398L14.8442 37.0364C14.673 36.2371 14.4504 35.1187 14.4504 34.0635C14.4504 33.8434 14.5038 33.7225 14.5806 33.6524C14.6327 33.657 14.6759 33.6508 14.6968 33.6477L14.6993 33.6474C14.737 33.642 14.7598 33.6377 14.7764 33.6346C14.7977 33.6306 14.8088 33.6285 14.828 33.6285C14.917 33.6285 14.9702 33.6474 15.0787 33.6859C15.1082 33.6964 15.1417 33.7083 15.1811 33.7217L24.5686 39.1297C24.5693 39.1301 24.57 39.1305 24.5706 39.1309C25.4531 39.6601 26.4236 39.8322 27.1154 39.3535C27.7864 38.946 28.142 38.101 28.142 37.0317V19.3364C28.142 18.1683 27.7248 16.8838 27.0745 15.7579C26.4243 14.6322 25.5261 13.639 24.5369 13.0691L7.65267 3.30938C7.17335 3.02192 6.66805 2.8398 6.19553 2.8101C6.6604 2.82885 7.1778 2.98774 7.74728 3.28708L24.6292 13.0456L24.6309 13.0465C25.6373 13.618 26.5497 14.6218 27.2112 15.7853C27.8726 16.9487 28.2696 18.2478 28.2696 19.3935V37.0888C28.2696 38.2814 27.8404 39.0962 27.1997 39.4959C26.8844 39.652 26.528 39.75 26.2376 39.75C25.721 39.75 25.1925 39.5958 24.5914 39.2682L15.181 33.8468ZM4.88491 3.24755C4.96644 3.17512 5.05277 3.11085 5.1433 3.05483C5.18338 3.03203 5.22405 3.01081 5.26532 2.99117C5.21136 3.01953 5.15877 3.05132 5.1077 3.08665C5.02908 3.13439 4.9548 3.18814 4.88491 3.24755Z" fill="#171753" stroke="#171753" stroke-width="0.5"/>
<path d="M13.4997 18.4859L13.3091 18.7004L13.0621 18.1001L13.0621 18.1001L13.061 18.0975L12.1563 15.9675L14.0362 14.818L14.1408 14.7656C14.3196 14.6762 14.713 14.7277 15.1458 15.269L15.1457 15.269L15.148 15.2717L21.251 22.6909C21.5663 23.0858 21.746 23.5287 21.7965 23.9013C21.8483 24.2836 21.7593 24.5179 21.6452 24.6107L19.7214 25.787L18.636 24.9079L18.5672 24.8522H18.4787H18.4783H18.478H18.4777H18.4773H18.477H18.4767H18.4764H18.476H18.4757H18.4754H18.4751H18.4748H18.4744H18.4741H18.4738H18.4735H18.4732H18.4729H18.4726H18.4722H18.4719H18.4716H18.4713H18.471H18.4707H18.4704H18.4701H18.4698H18.4695H18.4692H18.4689H18.4686H18.4683H18.468H18.4678H18.4675H18.4672H18.4669H18.4666H18.4663H18.466H18.4658H18.4655H18.4652H18.4649H18.4646H18.4644H18.4641H18.4638H18.4635H18.4633H18.463H18.4627H18.4625H18.4622H18.4619H18.4617H18.4614H18.4611H18.4609H18.4606H18.4604H18.4601H18.4598H18.4596H18.4593H18.4591H18.4588H18.4586H18.4583H18.4581H18.4578H18.4576H18.4573H18.4571H18.4569H18.4566H18.4564H18.4561H18.4559H18.4557H18.4554H18.4552H18.455H18.4547H18.4545H18.4543H18.454H18.4538H18.4536H18.4533H18.4531H18.4529H18.4527H18.4524H18.4522H18.452H18.4518H18.4516H18.4514H18.4511H18.4509H18.4507H18.4505H18.4503H18.4501H18.4499H18.4497H18.4494H18.4492H18.449H18.4488H18.4486H18.4484H18.4482H18.448H18.4478H18.4476H18.4474H18.4472H18.447H18.4468H18.4466H18.4465H18.4463H18.4461H18.4459H18.4457H18.4455H18.4453H18.4451H18.445H18.4448H18.4446H18.4444H18.4442H18.444H18.4439H18.4437H18.4435H18.4433H18.4432H18.443H18.4428H18.4426H18.4425H18.4423H18.4421H18.442H18.4418H18.4416H18.4415H18.4413H18.4411H18.441H18.4408H18.4406H18.4405H18.4403H18.4402H18.44H18.4399H18.4397H18.4395H18.4394H18.4392H18.4391H18.4389H18.4388H18.4386H18.4385H18.4383H18.4382H18.438H18.4379H18.4378H18.4376H18.4375H18.4373H18.4372H18.437H18.4369H18.4368H18.4366H18.4365H18.4364H18.4362H18.4361H18.436H18.4358H18.4357H18.4356H18.4354H18.4353H18.4352H18.435H18.4349H18.4348H18.4347H18.4345H18.4344H18.4343H18.4342H18.434H18.4339H18.4338H18.4337H18.4336H18.4335H18.4333H18.4332H18.4331H18.433H18.4329H18.4328H18.4327H18.4325H18.4324H18.4323H18.4322H18.4321H18.432H18.4319H18.4318H18.4317H18.4316H18.4315H18.4314H18.4313H18.4312H18.4311H18.431H18.4309H18.4308H18.4307H18.4306H18.4305H18.4304H18.4303H18.4302H18.4301H18.43H18.4299H18.4298H18.4297H18.4296H18.4295H18.4294H18.4294H18.4293H18.4292H18.4291H18.429H18.4289H18.4288H18.4288H18.4287H18.4286H18.4285H18.4284H18.4283H18.4283H18.4282H18.4281H18.428H18.428H18.4279H18.4278H18.4277H18.4277H18.4276H18.4275H18.4274H18.4274H18.4273H18.4272H18.4271H18.4271H18.427H18.4269H18.4269H18.4268H18.4267H18.4267H18.4266H18.4265H18.4265H18.4264H18.4263H18.4263H18.4262H18.4262H18.4261H18.426H18.426H18.4259H18.4259H18.4258H18.4257H18.4257H18.4256H18.4256H18.4255H18.4255H18.4254H18.4253H18.4253H18.4252H18.4252H18.4251H18.4251H18.425H18.425H18.4249H18.4249H18.4248H18.4248H18.4247H18.4247H18.4246H18.4246H18.4245H18.4245H18.4245H18.4244H18.4244H18.4243H18.4243H18.4242H18.4242H18.4241H18.4241H18.4241H18.424H18.424H18.4239H18.4239H18.4239H18.4238H18.4238H18.4238H18.4237H18.4237H18.4236H18.4236H18.4236H18.4235H18.4235H18.4235H18.4234H18.4234H18.4234H18.4233H18.4233H18.4233H18.4232H18.4232H18.4232H18.4232H18.4231H18.4231H18.4231H18.423H18.423H18.423H18.423H18.4229H18.4229H18.4229H18.4228H18.4228H18.4228H18.4228H18.4227H18.4227H18.4227H18.4227H18.4227H18.4226H18.4226H18.4226H18.4226H18.4225H18.4225H18.4225H18.4225H18.4225H18.4224H18.4224H18.4224H18.4224H18.4224H18.4223H18.4223H18.4223H18.4223H18.4223H18.4223H18.4222H18.4222H18.4222H18.4222H18.4222H18.4222H18.4221H18.4221H18.4221H18.4221H18.4221H18.4221H18.4221H18.4221H18.422H18.422H18.422H18.422H18.422H18.422H18.422H18.422H18.4219H18.4219H18.4219H18.4219H18.4219H18.4219H18.4219H18.4219H18.4219H18.4219H18.4219H18.4218H18.4218H18.4218H18.4218H18.4218H18.4218H18.4218H18.4218H18.4218H18.4218H18.4218H18.4217H18.4217H18.4217H18.4217H18.4217H18.4217H18.4217H18.4217H18.4217H18.4217H18.4217H18.4216H18.4216L18.4216 24.8523L18.4216 25.1022L18.4075 24.8526L15.3839 25.0238L15.3839 25.0237L15.3789 25.0241C15.2636 25.033 15.1167 24.9937 14.949 24.8903C14.7832 24.788 14.6133 24.6327 14.4598 24.4398C14.1494 24.05 13.9366 23.5467 13.9366 23.1043V18.6519V17.9941L13.4997 18.4859Z" fill="#FFE850" stroke="#171753" stroke-width="0.5"/>
<path d="M18.3197 25.0667L18.3298 25.0752L18.2357 25.0808L18.0965 25.089L18.3194 25.0666L18.3197 25.0667ZM14.5366 24.9362C14.5482 24.9478 14.5599 24.9592 14.5718 24.9703C14.5209 24.9353 14.4705 24.8972 14.4208 24.8559C13.8999 24.3851 13.5943 23.7102 13.5943 23.1041V19.2797V18.8631L13.7218 18.7239V23.1612C13.7218 23.7549 14.044 24.4433 14.5366 24.9362ZM13.1522 19.1197L13.1377 19.137L12.7784 18.2182L12.7785 18.2182L12.7757 18.2116L11.8059 15.9283L11.8035 15.9228C11.8038 15.9203 11.8044 15.9166 11.8058 15.9124C11.8072 15.9083 11.8088 15.9051 11.8101 15.9029L11.8108 15.9026L11.8194 15.8974L13.9566 14.6031L13.9304 14.6292L12.0737 15.7552L11.8912 15.8658L11.9718 16.0634L13.1128 18.8604L13.1968 19.0662L13.1522 19.1197ZM21.6814 24.8065C21.7696 24.7595 21.8311 24.6884 21.8735 24.6253C21.8149 24.7171 21.7447 24.7868 21.6756 24.8213L21.6661 24.8261L21.657 24.8316L19.6633 26.0507H19.6632H19.6628H19.6625H19.6622H19.6618H19.6615H19.6612H19.6608H19.6605H19.6601H19.6598H19.6595H19.6591H19.6588H19.6585H19.6581H19.6578H19.6575H19.6571H19.6568H19.6565H19.6561H19.6558H19.6555H19.6551H19.6548H19.6545H19.6541H19.6538H19.6535H19.6531H19.6528H19.6525H19.6521H19.6518H19.6515H19.6511H19.6508H19.6505H19.6501H19.6498H19.6495H19.6491H19.6488H19.6484H19.6481H19.6478H19.6474H19.6471H19.6468H19.6464H19.6461H19.6458H19.6454H19.6451H19.6448H19.6444H19.6441H19.6438H19.6434H19.6431H19.6428H19.6424H19.6421H19.6418H19.6414H19.6411H19.6408H19.6404H19.6401H19.6398H19.6394H19.6391H19.6388H19.6384H19.6381H19.6378H19.6374H19.6371H19.6367H19.6364H19.6361H19.6357H19.6354H19.6351H19.6347H19.6344H19.6341H19.6337H19.6334H19.6331H19.6327H19.6324H19.6321H19.6317H19.6314H19.6311H19.6307H19.6304H19.6301H19.6297H19.6294H19.6291H19.6287H19.6284H19.6281H19.6277H19.6274H19.6271H19.6267H19.6264H19.6261H19.6257H19.6254H19.625H19.6247H19.6244H19.624H19.6237H19.6234H19.623H19.6227H19.6224H19.622H19.6217H19.6214H19.621H19.6207H19.6204H19.62H19.6197H19.6194H19.619H19.6187H19.6184H19.618H19.6177H19.6174H19.617H19.6167H19.6164H19.616H19.6157H19.6154H19.615H19.6147H19.6144H19.614H19.6137H19.6133H19.613H19.6127H19.6123H19.612H19.6117H19.6113H19.611H19.6107H19.6103H19.61H19.6097H19.6093H19.609H19.6089L19.6912 26.0013L21.6814 24.8065Z" fill="#171753" stroke="#171753" stroke-width="0.5"/>
<path d="M13.9366 22.9898V20.8226L14.0243 20.6471L14.2051 20.2853H13.9366V18.5946V17.9367L13.4997 18.4285L13.3091 18.6431L13.0621 18.0428L13.0621 18.0428L13.061 18.0402L12.1563 15.9101L14.0362 14.7606L14.1408 14.7083C14.1408 14.7083 14.1408 14.7083 14.1408 14.7083C14.3196 14.6188 14.713 14.6704 15.1458 15.2116L15.1457 15.2116L15.1474 15.2136L19.3008 20.2991L14.02 23.4904C13.9596 23.3261 13.9366 23.1603 13.9366 22.9898Z" fill="white" stroke="#171753" stroke-width="0.5"/>
<path d="M19.6157 20.4269L19.697 20.5254L14.3377 23.6854L19.4657 20.5195L19.6157 20.4269ZM13.7346 23.6965L13.8305 23.9844L13.7905 24.0081C13.6437 23.7093 13.5943 23.4106 13.5943 23.1608V19.3364V18.8057L13.7218 18.6665V20.3638V20.6138H13.7771L13.6529 20.7914L13.6077 20.8559V20.9347V23.1038C13.6077 23.3161 13.6759 23.5206 13.7295 23.6812C13.7312 23.6864 13.7329 23.6915 13.7346 23.6965ZM13.6323 24.1013L13.6323 24.1013L13.5752 24.1299L13.6323 24.1013ZM13.1128 18.8029L13.228 19.0853L13.1522 19.1764L13.1377 19.1937L12.7784 18.2749L12.7785 18.2749L12.7757 18.2683L11.8059 15.985L11.8035 15.9795C11.8038 15.977 11.8044 15.9733 11.8058 15.9691C11.8072 15.965 11.8088 15.9618 11.8101 15.9596L11.8108 15.9593L11.8194 15.9541L11.9247 15.8903L11.9718 16.0059L13.1128 18.8029Z" fill="#171753" stroke="#171753" stroke-width="0.5"/>
<path d="M18.3648 25.0593H18.3627L18.3523 24.8524L17.4257 24.8988C17.3931 24.7392 17.3527 24.5347 17.321 24.3351C17.2965 24.1812 17.2785 24.0381 17.273 23.9266C17.2705 23.8774 17.2708 23.8395 17.2727 23.8123C17.2794 23.8078 17.2878 23.8023 17.2981 23.7961C17.3401 23.7704 17.3978 23.7407 17.4694 23.7081C17.612 23.643 17.7912 23.5745 17.9703 23.5112C18.1484 23.4484 18.3218 23.3922 18.4511 23.3518C18.5156 23.3316 18.5689 23.3153 18.6059 23.3042L18.6486 23.2914L18.6596 23.2882L18.6623 23.2874L18.6629 23.2872L18.663 23.2872L18.663 23.2872L18.663 23.2872L18.6945 23.278L18.7225 23.261L20.7009 22.0629L21.1917 22.6879L21.1915 22.688L21.1994 22.6971C21.5379 23.0879 21.7154 23.5394 21.7529 23.914C21.7924 24.3091 21.6754 24.5297 21.5521 24.5982L21.552 24.598L21.5432 24.6034L19.6075 25.787L18.5221 24.9079L18.3995 25.0593H18.3648ZM17.2768 23.7808C17.2769 23.7808 17.2767 23.7813 17.2765 23.7822L17.2768 23.7808Z" fill="#171753" stroke="#171753" stroke-width="0.5"/>
<path d="M18.3198 25.0667L18.3311 25.0762L18.2387 25.0806L17.8839 25.0975L18.316 25.0666L18.3198 25.0667ZM17.2638 24.9227L17.3043 25.1251L17.2313 25.1286C17.0678 24.4683 17.0326 24.1165 17.0386 23.9254C17.0415 23.8316 17.0542 23.7826 17.063 23.7575C17.07 23.7375 17.0735 23.7312 17.081 23.7179C17.083 23.7144 17.0852 23.7105 17.0878 23.7057V23.7891C17.0878 23.8684 17.1054 24.0155 17.1335 24.1981C17.1627 24.388 17.2062 24.6344 17.2638 24.9227Z" fill="#171753" stroke="#171753" stroke-width="0.5"/>
<path d="M13.1569 26.3937L13.1569 26.3937L13.1541 26.3939C13.0388 26.4028 12.8919 26.3635 12.7242 26.26C12.5584 26.1578 12.3885 26.0024 12.235 25.8096C11.9246 25.4197 11.7118 24.9164 11.7118 24.474V16.5968C11.7118 16.3741 11.7616 16.2297 11.8213 16.145C11.8768 16.0662 11.949 16.0261 12.0397 16.0182C12.2415 16.0006 12.5962 16.1476 12.9759 16.636L12.9758 16.6361L12.9802 16.6414L19.0844 24.062L19.0844 24.0621C19.452 24.5087 19.6264 25.0247 19.6264 25.4159C19.6264 25.6116 19.5831 25.7571 19.5202 25.8493C19.463 25.9331 19.3826 25.9853 19.2603 25.9942C19.2601 25.9942 19.2598 25.9942 19.2596 25.9942L13.1569 26.3937Z" fill="white" stroke="#171753" stroke-width="0.5"/>
<path d="M11.4399 24.4741C11.4399 24.6654 11.4734 24.8665 11.5352 25.0678C11.464 24.8502 11.4265 24.6294 11.4265 24.417V16.5968C11.4265 16.3009 11.5137 16.0901 11.6494 15.947C11.583 16.0221 11.5401 16.1084 11.5129 16.1809C11.4569 16.3303 11.4399 16.4901 11.4399 16.5968V24.4741ZM11.9145 15.7835C11.8637 15.7962 11.8185 15.8155 11.7784 15.8393C11.8005 15.8247 11.8233 15.8114 11.8467 15.7992C11.9274 15.7713 12.0228 15.7625 12.1296 15.7769C12.116 15.7763 12.1026 15.776 12.0893 15.776H12.089H12.0886H12.0883H12.0879H12.0876H12.0873H12.0869H12.0866H12.0863H12.0859H12.0856H12.0853H12.0849H12.0846H12.0843H12.0839H12.0836H12.0833H12.0829H12.0826H12.0823H12.0819H12.0816H12.0813H12.0809H12.0806H12.0803H12.0799H12.0796H12.0793H12.0789H12.0786H12.0783H12.0779H12.0776H12.0773H12.0769H12.0766H12.0763H12.0759H12.0756H12.0753H12.0749H12.0746H12.0743H12.0739H12.0736H12.0733H12.073H12.0726H12.0723H12.072H12.0716H12.0713H12.071H12.0706H12.0703H12.07H12.0697H12.0693H12.069H12.0687H12.0683H12.068H12.0677H12.0673H12.067H12.0667H12.0664H12.066H12.0657H12.0654H12.065H12.0647H12.0644H12.0641H12.0637H12.0634H12.0631H12.0628H12.0624H12.0621H12.0618H12.0615H12.0611H12.0608H12.0605H12.0602H12.0598H12.0595H12.0592H12.0589H12.0585H12.0582H12.0579H12.0576H12.0572H12.0569H12.0566H12.0563H12.056H12.0556H12.0553H12.055H12.0547H12.0544H12.054H12.0537H12.0534H12.0531H12.0528H12.0524H12.0521H12.0518H12.0515H12.0512H12.0509H12.0505H12.0502H12.0499H12.0496H12.0493H12.049H12.0486H12.0483H12.048H12.0477H12.0474H12.0471H12.0468H12.0465H12.0461H12.0458H12.0455H12.0452H12.0449H12.0446H12.0443H12.044H12.0437H12.0433H12.043H12.0427H12.0424H12.0421H12.0418H12.0415H12.0412H12.0409H12.0406H12.0403H12.04H12.0397H12.0394H12.0391H12.0388H12.0385H12.0381H12.0378H12.0375H12.0372H12.0369H12.0366H12.0363H12.036H12.0357H12.0354H12.0351H12.0348H12.0345H12.0343H12.034H12.0337H12.0334H12.0331H12.0328H12.0325H12.0322H12.0319H12.0316H12.0313H12.031H12.0307H12.0304H12.0301H12.0298H12.0296H12.0293H12.029H12.0287H12.0284H12.0281H12.0278H12.0275H12.0273H12.027H12.0267H12.0264H12.0261H12.0258H12.0255H12.0253H12.025H12.0247H12.0244H12.0241H12.0239H12.0236H12.0233H12.023H12.0227H12.0225H12.0222H12.0219H12.0216H12.0214H12.0211H12.0208H12.0205H12.0203H12.02H12.0197H12.0195H12.0192H12.0189H12.0186H12.0184H12.0181H12.0178H12.0176H12.0173H12.017H12.0168H12.0165H12.0162H12.016H12.0157H12.0155H12.0152H12.0149H12.0147H12.0144H12.0142H12.0139H12.0136H12.0134H12.0131H12.0129H12.0126H12.0124H12.0121H12.0119H12.0116H12.0113H12.0111H12.0108H12.0106H12.0103H12.0101H12.0098H12.0096H12.0094H12.0091H12.0089H12.0086H12.0084H12.0081H12.0079H12.0076H12.0074H12.0072H12.0069H12.0067H12.0064H12.0062H12.006H12.0057H12.0055H12.0053H12.005H12.0048H12.0046H12.0043H12.0041H12.0039H12.0036H12.0034H12.0032H12.0029H12.0027H12.0025H12.0023H12.002H12.0018H12.0016H12.0014H12.0011H12.0009H12.0007H12.0005H12.0003H12H11.9998H11.9996H11.9994H11.9992H11.999H11.9988H11.9985H11.9983H11.9981H11.9979H11.9977H11.9975H11.9973H11.9971H11.9969H11.9967H11.9965H11.9962H11.996H11.9958H11.9956H11.9954H11.9952H11.995H11.9948H11.9946H11.9944H11.9943H11.9941H11.9939H11.9937H11.9935H11.9933H11.9931H11.9929H11.9927H11.9925H11.9923H11.9922H11.992H11.9918H11.9916H11.9914H11.9912H11.9911H11.9909H11.9907H11.9905H11.9903H11.9902H11.99H11.9898H11.9896H11.9895H11.9893H11.9891H11.989H11.9888H11.9886H11.9884H11.9883H11.9881H11.9879H11.9878H11.9876H11.9875H11.9873H11.9871H11.987H11.9868H11.9867H11.9865H11.9864H11.9862H11.986H11.9859H11.9857H11.9856H11.9854H11.9853H11.9851H11.985H11.9848H11.9847H11.9846H11.9844H11.9843H11.9841H11.984H11.9839H11.9837H11.9836H11.9834H11.9833H11.9832H11.983H11.9829H11.9828H11.9827H11.9825H11.9824H11.9823H11.9821H11.982H11.9819H11.9818H11.9817H11.9815H11.9814H11.9813H11.9812H11.9811H11.9809H11.9808H11.9807H11.9806H11.9805H11.9804H11.9803H11.9802H11.9801H11.98H11.9799H11.9797H11.9796H11.9795H11.9794H11.9793H11.9792H11.9792H11.9791H11.979H11.9789H11.9788H11.9787H11.9786H11.9785H11.9784H11.9783H11.9782H11.9782H11.9781H11.978H11.9779H11.9778H11.9778H11.9777H11.9776H11.9775H11.9774H11.9774H11.9773H11.9772H11.9772H11.9771H11.977H11.977H11.9769H11.9768H11.9768H11.9767H11.9766H11.9766H11.9765H11.9765H11.9764H11.9764H11.9763H11.9763H11.9762H11.9762H11.9761H11.9761H11.976H11.976H11.9759H11.9759H11.9758H11.9758H11.9758H11.9757H11.9757H11.9757H11.9756H11.9756H11.9756H11.9755H11.9755H11.9755H11.9754H11.9754H11.9754H11.9754H11.9754H11.9753H11.9753H11.9753H11.9753H11.9753H11.9753H11.9752H11.9752H11.9752H11.9752H11.9752H11.9752H11.9752H11.9752H11.9752H11.9444L11.9145 15.7835Z" fill="#171753" stroke="#171753" stroke-width="0.5"/>
<mask id="path-35-inside-1_92_5226" fill="white">
<path d="M15.2033 14.8817L13.0148 16.2244L13.2533 16.6137L15.4418 15.271L15.2033 14.8817Z"/>
</mask>
<path d="M15.2033 14.8817L13.0148 16.2244L13.2533 16.6137L15.4418 15.271L15.2033 14.8817Z" fill="#171753"/>
<path d="M13.0148 16.2244L12.7535 15.798L12.3273 16.0595L12.5886 16.4858L13.0148 16.2244ZM15.2033 14.8817L15.6295 14.6203L15.3682 14.1939L14.942 14.4554L15.2033 14.8817ZM15.4418 15.271L15.7031 15.6973L16.1293 15.4359L15.868 15.0096L15.4418 15.271ZM13.2533 16.6137L12.8271 16.8751L13.0884 17.3014L13.5146 17.04L13.2533 16.6137ZM13.276 16.6507L15.4645 15.308L14.942 14.4554L12.7535 15.798L13.276 16.6507ZM14.7771 15.1432L15.0157 15.5325L15.868 15.0096L15.6295 14.6203L14.7771 15.1432ZM15.1806 14.8447L12.9921 16.1873L13.5146 17.04L15.7031 15.6973L15.1806 14.8447ZM13.6795 16.3522L13.441 15.9629L12.5886 16.4858L12.8271 16.8751L13.6795 16.3522Z" fill="#171753" mask="url(#path-35-inside-1_92_5226)"/>
<mask id="path-37-inside-2_92_5226" fill="white">
<path d="M21.2485 23.1691L19.8763 23.9866L20.0805 24.3298L21.4528 23.5122L21.2485 23.1691Z"/>
</mask>
<path d="M21.2485 23.1691L19.8763 23.9866L20.0805 24.3298L21.4528 23.5122L21.2485 23.1691Z" fill="#FFE850"/>
<path d="M19.8763 23.9866L19.6206 23.557L19.1911 23.8129L19.4468 24.2425L19.8763 23.9866ZM21.2485 23.1691L21.6781 22.9132L21.4224 22.4835L20.9929 22.7394L21.2485 23.1691ZM21.4528 23.5122L21.7085 23.9419L22.138 23.686L21.8823 23.2563L21.4528 23.5122ZM20.0805 24.3298L19.651 24.5857L19.9067 25.0154L20.3362 24.7595L20.0805 24.3298ZM20.132 24.4163L21.5042 23.5987L20.9929 22.7394L19.6206 23.557L20.132 24.4163ZM20.819 23.425L21.0232 23.7682L21.8823 23.2563L21.6781 22.9132L20.819 23.425ZM21.1971 23.0826L19.8248 23.9001L20.3362 24.7595L21.7085 23.9419L21.1971 23.0826ZM20.5101 24.0739L20.3058 23.7307L19.4468 24.2425L19.651 24.5857L20.5101 24.0739Z" fill="#171753" mask="url(#path-37-inside-2_92_5226)"/>
</svg>
