<svg width="1550" height="600" viewBox="0 0 1550 600" fill="none" xmlns="http://www.w3.org/2000/svg">
<g clip-path="url(#clip0_1317_19264)">
<rect width="1550" height="600" fill="white"/>
<path d="M1317.49 254.225H1313.99V246.038H1317.49V254.225ZM1317.49 237.559H1313.99V229.373H1317.49V237.559ZM1317.49 221.186H1313.99V213H1317.49V221.186Z" fill="#171753"/>
<path d="M1336.48 235.22H1328.3V231.712H1336.48V235.22ZM1319.83 235.22H1311.65V231.712H1319.83V235.22ZM1303.18 235.22H1295V231.712H1303.18V235.22Z" fill="#171753"/>
<path d="M1362.77 260.95H1354.59V257.441H1362.77V260.95ZM1346.12 260.95H1337.94V257.441H1346.12V260.95Z" fill="#171753"/>
<path d="M209.491 347.225H205.986V339.038H209.491V347.225ZM209.491 330.559H205.986V322.373H209.491V330.559ZM209.491 314.186H205.986V306H209.491V314.186Z" fill="#171753"/>
<path d="M228.477 328.22H220.298V324.712H228.477V328.22ZM211.828 328.22H203.649V324.712H211.828V328.22ZM195.179 328.22H187V324.712H195.179V328.22Z" fill="#171753"/>
<path d="M254.765 353.95H246.586V350.441H254.765V353.95ZM238.116 353.95H229.937V350.441H238.116V353.95Z" fill="#171753"/>
<path d="M1055.16 112.611L1055.16 109.399L1062.67 109.399L1062.67 112.611L1055.16 112.611ZM1070.44 112.611L1070.44 109.399L1077.94 109.399L1077.94 112.611L1070.44 112.611ZM1085.44 112.611L1085.44 109.399L1092.94 109.399L1092.94 112.611L1085.44 112.611Z" fill="#171753"/>
<path d="M1072.58 130.011L1072.58 122.516L1075.79 122.516L1075.79 130.011L1072.58 130.011ZM1072.58 114.753L1072.58 107.258L1075.79 107.258L1075.79 114.753L1072.58 114.753ZM1072.58 99.4951L1072.58 92L1075.79 92L1075.79 99.4951L1072.58 99.4951Z" fill="#171753"/>
<path d="M1049 154.102L1049 146.607L1052.22 146.607L1052.22 154.102L1049 154.102ZM1049 138.844L1049 131.349L1052.22 131.349L1052.22 138.844L1049 138.844Z" fill="#171753"/>
<path d="M376.78 197.318L376.78 200.414L369.277 200.414L369.277 197.318L376.78 197.318ZM361.507 197.318L361.507 200.414L354.005 200.414L354.005 197.318L361.507 197.318ZM346.502 197.318L346.502 200.414L339 200.414L339 197.318L346.502 197.318Z" fill="#171753"/>
<path d="M359.363 180.546L359.363 187.771L356.148 187.771L356.148 180.546L359.363 180.546ZM359.363 195.253L359.363 202.478L356.148 202.478L356.148 195.253L359.363 195.253ZM359.363 209.961L359.363 217.185L356.148 217.185L356.148 209.961L359.363 209.961Z" fill="#171753"/>
<path d="M382.942 157.324L382.942 164.549L379.727 164.549L379.727 157.324L382.942 157.324ZM382.942 172.031L382.942 179.256L379.727 179.256L379.727 172.031L382.942 172.031Z" fill="#171753"/>
<path d="M603.686 377.35C510.211 431.352 510.211 519.5 603.686 573.26C697.161 627.262 850.208 627.262 943.683 573.26C1037.16 519.257 1037.16 431.11 943.683 377.35C850.208 323.59 697.161 323.59 603.686 377.35Z" stroke="#ECFFFE" stroke-width="1.89101" stroke-miterlimit="10"/>
<path d="M551.136 367.362C427.633 438.558 427.633 555.039 551.136 626.235C674.64 697.43 876.604 697.43 1000.11 626.235C1123.61 555.039 1123.61 438.558 1000.11 367.362C876.604 296.166 674.64 296.166 551.136 367.362Z" stroke="#ECFFFE" stroke-width="1.89101" stroke-miterlimit="10"/>
<path d="M486.963 356.728C328.346 448.266 328.346 597.923 486.963 689.218C645.579 780.756 905.421 780.756 1064.04 689.218C1222.65 597.681 1222.65 448.024 1064.04 356.728C905.421 265.19 645.822 265.19 486.963 356.728Z" stroke="#ECFFFE" stroke-width="1.89101" stroke-miterlimit="10"/>
<g style="mix-blend-mode:overlay" opacity="0.2">
<path opacity="0.0909091" d="M909.284 254.098C981.285 295.699 981.722 363.046 910.156 404.647C838.591 446.248 722.37 446.248 650.368 404.647C578.367 363.046 577.93 295.699 649.496 254.098C721.061 212.642 837.282 212.642 909.284 254.098Z" fill="#9BE7C4"/>
<path opacity="0.1818" d="M907.245 289.737C978.083 330.611 978.519 396.939 908.117 437.813C837.716 478.687 723.24 478.687 652.402 437.813C581.564 396.939 581.128 330.611 651.53 289.737C721.931 248.863 836.407 248.863 907.245 289.737Z" fill="#9BE7C4"/>
<path opacity="0.2727" d="M905.21 325.373C974.884 365.665 975.321 430.83 906.083 471.122C836.845 511.414 724.115 511.414 654.44 471.122C584.766 430.83 584.33 365.665 653.568 325.373C722.806 285.081 835.535 285.081 905.21 325.373Z" fill="#9BE7C4"/>
<path opacity="0.3636" d="M903.176 361.009C971.832 400.574 972.123 464.866 904.049 504.431C835.829 543.995 724.99 543.995 656.479 504.431C587.823 464.866 587.532 400.574 655.607 361.009C723.826 321.445 834.665 321.445 903.176 361.009Z" fill="#9BE7C4"/>
<path opacity="0.4545" d="M901.14 396.648C968.632 435.63 968.923 498.759 901.867 537.742C834.811 576.724 725.863 576.724 658.37 537.742C590.878 498.759 590.587 435.63 657.643 396.648C724.699 357.665 833.793 357.665 901.14 396.648Z" fill="#9BE7C4"/>
<path opacity="0.5455" d="M899.102 432.139C965.431 470.394 965.722 532.505 899.83 570.906C833.937 609.161 726.735 609.161 660.406 570.906C594.077 532.65 593.786 470.54 659.678 432.139C725.571 393.883 832.773 393.883 899.102 432.139Z" fill="#9BE7C4"/>
<path opacity="0.6364" d="M897.065 467.774C962.23 505.447 962.666 566.394 897.792 604.068C833.063 641.742 727.606 641.742 662.441 604.068C597.276 566.54 596.985 505.447 661.714 467.774C726.588 430.1 831.9 430.1 897.065 467.774Z" fill="#9BE7C4"/>
<path opacity="0.7273" d="M895.029 503.413C959.176 540.359 959.467 600.433 895.756 637.38C832.046 674.326 728.48 674.326 664.478 637.38C600.477 600.433 600.186 540.359 663.751 503.413C727.461 466.467 831.027 466.467 895.029 503.413Z" fill="#9BE7C4"/>
<path opacity="0.8182" d="M892.992 539.05C955.975 575.415 956.266 634.325 893.719 670.69C831.172 707.054 729.497 707.054 666.514 670.69C603.531 634.325 603.24 575.415 665.787 539.05C728.334 502.686 830.154 502.686 892.992 539.05Z" fill="#9BE7C4"/>
<path opacity="0.9091" d="M891.101 574.542C952.921 610.179 953.212 668.072 891.828 703.854C830.445 739.492 730.516 739.492 668.696 703.854C606.876 668.217 606.585 610.325 667.969 574.542C729.352 538.905 829.282 538.905 891.101 574.542Z" fill="#9BE7C4"/>
<path opacity="0.7" d="M889.064 610.18C949.72 645.236 950.011 701.964 889.791 737.02C829.426 772.075 731.387 772.075 670.731 737.02C610.075 701.964 609.785 645.236 670.004 610.18C730.224 575.125 828.262 575.125 889.064 610.18Z" fill="#9BE7C4"/>
</g>
<path d="M781.296 498.838C898.86 498.838 994.211 404.973 994.211 289.126C994.211 173.279 898.86 79.4129 781.296 79.4129C663.732 79.4129 568.381 173.279 568.381 289.126C568.381 404.973 663.732 498.838 781.296 498.838Z" fill="#BEF0ED" stroke="#171753" stroke-width="3.58779"/>
<path d="M787.701 81.4365C784.498 87.1548 780.153 91.7295 773.977 93.3306C760.024 96.9903 748.816 91.9582 741.954 84.8675C692.548 94.0168 648.859 120.321 618.209 157.147C628.502 155.546 639.939 156.232 650.461 162.866C650.461 162.866 631.476 164.695 632.162 179.106C633.077 193.516 649.546 179.334 657.323 190.771C665.328 202.208 679.052 187.34 669.445 179.334C659.839 171.1 670.818 159.663 679.51 165.153C687.973 170.643 689.574 181.393 684.542 192.372C679.51 203.58 698.495 201.064 703.069 211.357C707.873 221.65 695.232 228.753 702.612 231.714C709.36 234.422 717.48 220.506 717.48 220.506C721.368 217.533 726.629 217.99 730.06 221.421C730.06 221.421 732.971 223.364 733.72 225.31C735.558 230.088 724.799 227.597 724.113 234.23C723.427 240.864 738.98 238.576 739.438 247.497C739.895 256.646 753.391 257.79 754.763 245.667C756.136 233.316 762.769 231.943 762.769 231.943C762.769 231.943 760.71 219.592 748.359 219.363C735.778 219.134 742.822 211.568 739.667 206.325C736.781 201.53 729.145 204.266 732.805 193.745C736.464 183.223 715.878 171.329 741.497 162.408C767.115 153.488 757.965 142.508 757.965 142.508L745.614 139.077C745.614 139.077 765.056 133.816 764.827 122.151C764.827 110.486 786.1 103.624 790.674 122.609C795.249 141.593 784.041 147.312 784.041 147.312C784.041 147.312 798.223 146.397 797.994 154.402C797.765 162.408 786.328 167.212 786.328 167.212C786.328 167.212 787.701 182.994 780.153 184.367C772.604 185.739 773.519 177.276 773.519 177.276C773.519 177.276 760.024 176.59 763.226 185.968C766.657 195.346 759.566 203.726 762.769 214.331C765.152 222.222 775.349 221.193 773.291 232.629C771.232 244.066 767.115 256.189 781.982 263.508C796.85 270.599 789.859 275.862 795.706 283.179C801.115 289.948 807.079 291.72 810.574 299.648C812.645 304.347 805.771 309.255 813.548 312.457C821.553 315.888 823.154 303.766 843.512 311.314C863.869 318.862 870.502 316.117 873.476 312.229C873.476 312.229 889.945 317.49 897.264 297.361C897.264 297.361 911.446 286.611 902.754 267.854C902.754 267.854 912.361 257.333 906.185 245.21C900.238 233.087 908.015 221.421 914.877 221.193C914.877 221.193 912.132 208.612 922.425 209.299C932.718 209.985 930.202 220.735 930.202 220.735C930.202 220.735 944.612 205.639 961.081 215.932C961.081 215.932 959.708 235.145 970.916 234.002C975.948 233.544 981.667 235.832 986.47 238.348C963.826 150.057 883.998 84.1813 787.701 81.4365Z" fill="#5ED9D1" stroke="#171753" stroke-width="3.58779"/>
<path d="M835.229 454.586L835.227 454.585C830.739 454.054 827.307 454.295 824.502 455.075C821.682 455.86 819.59 457.163 817.763 458.606C816.804 459.364 815.94 460.13 815.096 460.879C812.663 463.038 810.393 465.052 806.448 466.313C801.206 467.988 795.629 468.125 790.207 468.258C788.922 468.289 787.645 468.321 786.383 468.372C780.058 468.631 773.795 469.404 770.223 474.419C767.35 478.311 762.71 480.14 758.58 480.966C756.535 481.375 754.676 481.525 753.328 481.573C752.656 481.597 752.114 481.595 751.745 481.588C751.561 481.584 751.42 481.579 751.328 481.575C751.318 481.574 751.31 481.574 751.301 481.574C751.288 481.571 751.273 481.568 751.258 481.565C751.154 481.543 751.005 481.513 750.821 481.478C750.453 481.408 749.94 481.315 749.357 481.225C748.226 481.052 746.713 480.872 745.5 480.938C744.937 480.969 744.191 481.061 743.583 481.412C743.248 481.604 742.861 481.93 742.644 482.453C742.421 482.99 742.465 483.523 742.607 483.954C742.856 484.713 743.478 485.389 744.161 485.99C744.896 486.637 745.928 487.388 747.301 488.264C751.585 491.05 752.32 493.37 752.32 494.986V496.311L753.631 496.498C761.719 497.654 769.79 498.113 778.05 498.343L778.06 498.343L778.069 498.343C822.062 499.034 863.299 486.596 897.626 464.709L898.685 464.034L898.228 462.865C896.631 458.784 899.05 452.356 909.309 447.895L909.321 447.89L909.334 447.884C920.106 442.966 923.879 437.428 924.618 432.722C924.981 430.415 924.585 428.455 924.1 427.075C923.858 426.385 923.591 425.834 923.38 425.448C923.274 425.254 923.182 425.101 923.112 424.991C923.097 424.967 923.082 424.944 923.069 424.924C923.053 424.899 923.038 424.877 923.026 424.859C923.019 424.848 923.012 424.839 923.007 424.831L922.997 424.817L922.987 424.803L922.983 424.797L922.982 424.795C922.981 424.794 922.98 424.793 921.737 425.68L922.98 424.793L922.555 424.198L921.827 424.156L921.827 424.156L921.827 424.156L921.826 424.156L921.822 424.155L921.797 424.154C921.773 424.152 921.735 424.149 921.684 424.145C921.581 424.137 921.427 424.123 921.229 424.102C920.833 424.06 920.267 423.988 919.598 423.872C918.247 423.637 916.537 423.228 914.978 422.539C913.397 421.841 912.143 420.931 911.475 419.792C910.855 418.738 910.603 417.258 911.49 415.039C913.618 409.719 913.41 406.384 912.109 404.311C911.467 403.289 910.635 402.706 909.958 402.383C909.622 402.222 909.322 402.125 909.096 402.065C908.982 402.036 908.886 402.015 908.811 402.001C908.774 401.995 908.741 401.989 908.715 401.985L908.679 401.98L908.665 401.978L908.659 401.977L908.656 401.977C908.654 401.977 908.653 401.977 908.471 403.493L908.653 401.977L907.57 401.847L907.096 402.829C906.407 404.257 905.598 405.061 904.774 405.519C903.938 405.984 902.95 406.168 901.785 406.124C899.763 406.046 897.56 405.319 895.225 404.549C894.74 404.389 894.249 404.227 893.753 404.068C892.38 403.63 890.957 403.221 889.63 403.072C888.307 402.923 886.881 403.008 885.641 403.766C884.364 404.546 883.563 405.867 883.147 407.599C882.738 409.307 882.669 411.537 882.933 414.385C883.428 419.714 882.604 423.299 881.066 425.881C879.524 428.47 877.149 430.244 874.158 431.738C872.015 432.807 869.681 433.679 867.187 434.61C866.134 435.003 865.053 435.407 863.946 435.841C860.291 437.273 856.487 438.989 853.094 441.63C851.046 443.225 849.911 445.115 849.083 446.898C848.784 447.54 848.512 448.198 848.261 448.808C848.173 449.021 848.087 449.228 848.004 449.426C847.671 450.22 847.355 450.919 846.983 451.544C846.275 452.737 845.368 453.665 843.74 454.238C842.032 454.839 839.416 455.088 835.229 454.586Z" fill="#5ED9D1" stroke="#171753" stroke-width="3.05418"/>
<path d="M571.626 287.509L568.647 287.972C568.186 359.875 604.83 423.932 661.275 461.716L663.204 459.367C663.207 459.37 663.207 459.37 663.203 459.366C663.193 459.354 663.156 459.314 663.094 459.237C663.018 459.145 662.919 459.018 662.809 458.865C662.585 458.557 662.326 458.159 662.101 457.725C661.595 456.75 661.476 456.013 661.619 455.613C661.685 455.426 662.033 454.726 664.369 454.539C666.673 454.355 670.443 454.737 676.397 456.211L678.996 456.855L678.226 454.29L676.764 454.729C678.226 454.29 678.226 454.29 678.226 454.289L678.225 454.287L678.224 454.283L678.221 454.272L678.21 454.238C678.206 454.224 678.2 454.207 678.194 454.187C678.188 454.167 678.181 454.146 678.173 454.121C678.14 454.022 678.092 453.881 678.028 453.703C677.899 453.345 677.703 452.835 677.429 452.201C676.881 450.932 676.018 449.162 674.743 447.116C672.194 443.026 667.994 437.824 661.381 433.337C655.07 429.055 650.673 424.538 648.782 420.913C647.833 419.093 647.622 417.707 647.854 416.756C648.06 415.914 648.692 415.1 650.281 414.539L653.946 413.246L650.383 411.699L650.383 411.699L650.382 411.699L650.381 411.699L650.381 411.699L650.364 411.691C650.356 411.688 650.346 411.683 650.333 411.677C650.319 411.671 650.303 411.663 650.283 411.654C650.209 411.619 650.096 411.565 649.95 411.492C649.659 411.345 649.242 411.123 648.756 410.828C647.774 410.234 646.551 409.37 645.503 408.272C644.452 407.17 643.645 405.902 643.356 404.494C643.113 403.308 643.214 401.901 644.029 400.244L650.642 400.444L651.464 400.469L651.937 399.796L650.688 398.918C651.937 399.796 651.938 399.795 651.938 399.794L651.94 399.793L651.942 399.789L651.95 399.778L651.97 399.748C651.978 399.736 651.988 399.722 651.998 399.706C652.009 399.69 652.021 399.671 652.035 399.651C652.087 399.57 652.158 399.456 652.242 399.313C652.41 399.028 652.631 398.62 652.862 398.111C653.321 397.097 653.83 395.649 654.008 393.929C654.375 390.391 653.313 385.924 648.197 381.931L646.969 380.974L646.037 382.216L646.037 382.216L646.037 382.217L646.036 382.218L646.035 382.219L646.032 382.223C646.026 382.231 646.014 382.246 645.998 382.266C645.966 382.307 645.914 382.371 645.844 382.453C645.704 382.619 645.491 382.858 645.216 383.134C644.661 383.693 643.876 384.38 642.934 384.938C641.084 386.033 638.777 386.58 636.22 384.845C633.595 383.064 631.885 378.816 632.224 374.83C632.389 372.887 633.035 371.163 634.151 369.921C635.24 368.708 636.883 367.834 639.314 367.735C644.522 367.522 646.865 369.208 647.964 370.631C648.544 371.381 648.847 372.145 649.004 372.722C649.082 373.009 649.122 373.243 649.142 373.396C649.153 373.473 649.158 373.528 649.16 373.559C649.161 373.571 649.162 373.58 649.162 373.584C649.162 373.585 649.162 373.585 649.162 373.585C649.162 373.586 649.162 373.586 649.162 373.587L649.162 373.587L649.228 375.843L651.305 374.925L650.688 373.529C651.305 374.925 651.306 374.925 651.307 374.924L651.309 374.923L651.315 374.921L651.328 374.915L651.365 374.898C651.394 374.884 651.432 374.866 651.479 374.843C651.572 374.796 651.698 374.73 651.851 374.643C652.155 374.47 652.567 374.211 653.029 373.858C653.948 373.153 655.093 372.046 655.951 370.448C657.731 367.132 658.027 362.198 653.819 355.346C651.664 351.836 649.069 349.763 646.325 348.717C643.601 347.679 640.863 347.703 638.481 348.154C636.103 348.605 634.022 349.492 632.55 350.253C631.809 350.635 631.212 350.991 630.796 351.255C630.683 351.326 630.583 351.391 630.498 351.448C630.447 351.45 630.39 351.452 630.329 351.454C629.962 351.466 629.42 351.467 628.748 351.422C627.401 351.333 625.555 351.061 623.562 350.335C619.631 348.903 615.032 345.677 612.566 338.278C611.902 336.287 611.354 334.833 610.9 333.827C610.674 333.327 610.455 332.901 610.238 332.562C610.06 332.284 609.747 331.838 609.26 331.578C608.972 331.424 608.538 331.291 608.035 331.409C607.542 331.524 607.222 331.825 607.042 332.061C606.73 332.469 606.626 332.955 606.578 333.221C606.466 333.847 606.452 334.679 606.474 335.513C606.519 337.227 606.733 339.42 606.93 341.153C607.029 342.026 607.126 342.795 607.198 343.346C607.215 343.48 607.231 343.601 607.246 343.708C607.135 343.804 606.971 343.867 606.743 343.867C606.366 343.867 606.027 343.679 605.858 343.355C605.121 341.766 604.047 340.038 602.622 338.745C601.17 337.428 599.253 336.484 596.962 336.79L596.956 336.791C594.868 337.079 593.309 338.135 592.637 339.954C592.024 341.611 592.27 343.598 592.909 345.578C594.204 349.584 597.448 354.573 601.737 359.442L601.743 359.448L601.749 359.455C605.592 363.714 605.888 368.113 605.243 371.498C605.071 372.396 604.833 373.222 604.574 373.953C604.336 373.403 604.052 372.808 603.713 372.177C601.94 368.876 598.687 364.629 592.762 360.6L592.762 360.6L592.751 360.592C587.446 357.056 584.508 349.824 584.481 343.758C584.468 340.734 585.182 338.258 586.425 336.747C587.573 335.351 589.318 334.59 592.016 335.216L594.865 335.878L593.779 333.162L590.26 324.364L599.375 332.145L600.111 332.774L600.993 332.377L600.367 330.984C600.993 332.377 600.994 332.376 600.996 332.376L600.998 332.374L601.005 332.371L601.019 332.365C601.03 332.36 601.043 332.353 601.059 332.346C601.089 332.331 601.128 332.312 601.175 332.287C601.268 332.238 601.391 332.17 601.536 332.08C601.826 331.901 602.209 331.632 602.613 331.26C603.422 330.514 604.342 329.323 604.693 327.601C605.404 324.121 603.675 319.319 596.606 312.713C582.821 299.832 583.916 292.336 585.245 289.844L586.443 287.599L583.898 287.599L583.898 289.126C583.898 287.599 583.896 287.599 583.895 287.599L583.891 287.599L583.884 287.599L583.869 287.599C583.858 287.599 583.846 287.599 583.832 287.6C583.804 287.601 583.771 287.602 583.733 287.605C583.656 287.61 583.559 287.619 583.443 287.636C583.211 287.669 582.904 287.732 582.544 287.849C581.821 288.086 580.899 288.539 579.955 289.396C578.232 290.96 576.572 293.734 575.745 298.599C574.563 296.049 573.083 291.984 571.626 287.509ZM609.606 333.665C609.606 333.665 609.605 333.672 609.6 333.683C609.604 333.67 609.606 333.665 609.606 333.665ZM607.585 334.095C607.585 334.095 607.588 334.098 607.595 334.107C607.588 334.1 607.585 334.095 607.585 334.095Z" fill="#5ED9D1" stroke="#171753" stroke-width="3.05418"/>
<path d="M585.27 272.979C584.693 274.076 584.963 275.435 585.924 276.225C588.426 278.283 597.733 286.712 604.443 303.198C608.414 312.955 614.568 316.985 620.421 316.46C626.155 315.945 630.797 311.083 631.705 304.82C631.846 303.847 631.4 303.031 630.819 302.536C630.252 302.053 629.474 301.789 628.677 301.877C627.369 302.021 625.262 301.883 623.337 300.014C621.368 298.103 619.34 294.147 618.818 286.055C617.527 266.044 606.949 249.468 605.284 246.968C604.905 246.398 604.341 246.053 603.742 245.92L593.139 243.564C591.469 243.193 589.928 244.527 590.009 246.208C590.214 250.457 590.328 263.367 585.27 272.979Z" fill="#5ED9D1" stroke="#171753" stroke-width="3.05418"/>
<path d="M584.712 252.588L584.713 252.58L584.714 252.573C586.383 243.351 589.346 238.754 592.082 236.486C594.79 234.24 597.483 234.104 599.036 234.273C599.889 234.366 600.69 234.051 601.252 233.544C601.82 233.03 602.254 232.211 602.133 231.248L600.804 220.615C600.701 219.79 600.202 219.068 599.467 218.68L592.851 215.189C593.759 212.327 595.792 204.891 595.336 196.774C595.267 195.549 594.399 194.688 593.368 194.492C592.351 194.3 591.244 194.763 590.7 195.828C579.331 218.092 571.67 242.766 569.055 269.087C568.863 271.026 570.941 272.601 572.79 271.486C578.073 268.302 582.778 262.686 584.712 252.588Z" fill="#5ED9D1" stroke="#171753" stroke-width="3.05418"/>
<path d="M670.283 227.343L670.295 227.336L670.308 227.328C673.318 225.493 675.921 225.688 678.075 226.61C680.316 227.569 682.127 229.347 683.271 230.72C683.928 231.509 684.914 231.79 685.781 231.639C686.669 231.484 687.553 230.845 687.813 229.743C688.438 227.104 689.291 222.332 688.589 217.846C688.236 215.587 687.475 213.312 686.013 211.416C684.529 209.494 682.39 208.049 679.46 207.38L679.451 207.378L679.442 207.376C676.315 206.702 673.895 206.864 671.889 207.698C669.904 208.525 668.517 209.934 667.338 211.352C666.93 211.843 666.543 212.335 666.161 212.82C664.283 215.207 662.531 217.434 658.986 218.621C656.11 219.496 654.296 222.09 654.479 225.017C654.501 225.373 654.602 225.692 654.736 225.96L654.777 226.042C655.51 230.069 659.63 232.337 663.422 230.883C665.39 230.144 667.556 228.934 670.283 227.343Z" fill="#5ED9D1" stroke="#171753" stroke-width="3.05418"/>
<path d="M616.607 252.3C617.293 260.306 629.644 259.162 629.187 251.157V250.928C628.272 241.321 618.665 242.236 617.064 248.869C616.607 250.242 616.607 251.385 616.607 252.3Z" fill="#5ED9D1" stroke="#171753" stroke-width="3.05418"/>
<path d="M713.817 472.799C713.817 472.799 717.934 465.022 703.067 465.251C694.375 465.251 689.114 469.825 680.193 471.655C682.481 472.799 684.539 473.943 686.827 475.086C686.827 474.857 703.296 468.682 713.817 472.799Z" fill="#5ED9D1" stroke="#171753" stroke-width="3.05418"/>
<path d="M831.713 332.912C831.713 330.006 829.447 327.23 826.26 327.23C823.072 327.23 820.806 330.007 820.806 332.912C820.806 335.818 823.072 338.594 826.26 338.594C829.447 338.594 831.713 335.818 831.713 332.912Z" fill="#5ED9D1" stroke="#171753" stroke-width="3.58779"/>
<path d="M760.115 173.322L760.143 173.317L760.17 173.311C762.023 172.914 764.111 172.032 765.774 170.228C767.456 168.403 768.551 165.797 768.678 162.243L768.71 161.354L768.021 160.79C764.781 158.139 759.58 158.589 757.344 162.62C756.048 164.545 754.699 165.646 753.161 165.646H749.993L751.623 168.363L752.241 169.393C753.574 172.517 756.972 173.893 760.115 173.322Z" fill="#5ED9D1" stroke="#171753" stroke-width="3.58779"/>
<path d="M662.445 383.757L662.473 383.752L662.5 383.746C664.353 383.349 666.441 382.467 668.104 380.663C669.786 378.838 670.881 376.232 671.008 372.678L671.04 371.789L670.351 371.225C667.111 368.574 661.91 369.023 659.674 373.055C658.378 374.98 657.029 376.081 655.491 376.081H652.589L653.887 378.677L654.556 380.016C655.887 382.952 659.302 384.328 662.445 383.757Z" fill="#5ED9D1" stroke="#171753" stroke-width="3.58779"/>
<path d="M978.578 272.332L978.449 272.422L978.338 272.533C977.803 273.068 977.328 273.806 977.202 274.692C977.065 275.651 977.367 276.615 978.109 277.357C981.993 281.241 984.867 288.335 986.808 294.87C988.366 300.118 989.203 304.521 989.57 306.448C989.662 306.93 989.724 307.257 989.76 307.403L993.287 307.138C993.749 302.283 993.98 297.428 993.981 292.573C994.211 278.961 993.056 265.822 990.985 252.931L990.889 252.336L990.453 251.919C984.826 246.536 979.151 245.133 974.156 245.745C969.263 246.345 965.238 248.849 962.699 250.904C960.257 252.863 961.649 256.788 964.68 256.839C968.532 257.06 974.149 258.346 978.503 263.108C980.973 265.891 981.181 267.889 980.889 269.17C980.569 270.569 979.53 271.666 978.578 272.332Z" fill="#5ED9D1" stroke="#171753" stroke-width="3.58779"/>
<path d="M602.546 175.12L605.082 177.584C609.96 174.036 615.425 171.604 620.691 172.19C621.327 172.298 621.975 172.207 622.546 171.89C623.128 171.566 623.523 171.068 623.745 170.549C624.163 169.575 624.062 168.287 623.186 167.367C621.378 165.315 618.16 162.871 614.002 161.403L612.749 160.961L611.96 162.031L611.951 162.043C608.755 166.381 605.537 170.748 602.546 175.12Z" fill="#5ED9D1" stroke="#171753" stroke-width="3.58779"/>
<path d="M766.154 457.408C764.846 458.117 763.894 458.659 763.453 459.017C763.382 459.074 763.283 459.16 763.183 459.268C763.113 459.344 762.894 459.585 762.766 459.962C762.695 460.173 762.625 460.504 762.701 460.898C762.783 461.32 763.003 461.668 763.278 461.913C763.734 462.318 764.241 462.364 764.355 462.375L764.357 462.375C764.676 462.404 764.967 462.349 765.076 462.328C765.238 462.297 765.412 462.255 765.582 462.209C766.329 462.008 767.659 461.564 769.317 461.01C770.432 460.638 771.695 460.216 773.031 459.785C776.44 458.685 780.488 457.464 784.346 456.617C788.26 455.758 791.759 455.336 794.161 455.686C795.615 455.898 796.878 455.928 797.872 455.686C798.875 455.441 800.109 454.743 800.264 453.234C800.387 452.048 799.714 451.033 799.162 450.386C798.537 449.654 797.671 448.936 796.67 448.271C792.706 445.639 785.505 443.133 778.114 444.365C774.673 444.938 772.41 445.715 771.118 446.997C769.613 448.49 769.775 450.274 769.896 451.382C769.905 451.466 769.914 451.548 769.923 451.628C770.043 452.709 770.117 453.381 769.821 454.136C769.524 454.894 768.702 456.028 766.154 457.408ZM764.378 458.808C764.378 458.808 764.387 458.806 764.403 458.804C764.385 458.808 764.377 458.809 764.378 458.808Z" fill="#5ED9D1" stroke="#171753" stroke-width="3.58779"/>
<path d="M716.869 128.011L716.859 128.015L716.857 128.016L716.857 128.016L716.857 128.016C716.856 128.016 716.856 128.016 716.856 128.016L713.518 129.243L716.493 131.198C720.713 133.971 726.123 136.021 731.08 136.598C735.912 137.162 741.006 136.378 743.656 132.55L743.665 132.537L743.674 132.524C744.912 130.667 745.329 128.843 745.087 127.135C744.851 125.468 744.017 124.119 743.127 123.109C742.236 122.098 741.217 121.344 740.447 120.851C740.347 120.787 740.251 120.727 740.158 120.67C740.236 117.081 738.812 114.321 736.601 112.417C734.223 110.37 731.061 109.412 728.195 109.238C725.394 109.067 722.436 109.626 720.591 111.138C719.613 111.94 718.873 113.085 718.834 114.53C718.796 115.928 719.424 117.269 720.446 118.496C721.961 120.313 722.303 121.684 722.249 122.651C722.194 123.638 721.71 124.543 720.92 125.379C720.126 126.22 719.118 126.886 718.263 127.352C717.844 127.581 717.48 127.751 717.225 127.863C717.098 127.919 717 127.959 716.936 127.985C716.905 127.998 716.882 128.006 716.869 128.011Z" fill="#BEF0ED" stroke="#171753" stroke-width="3.58779"/>
<path d="M849.516 90.4675L849.264 90.3918H849C848.749 90.3918 848.557 90.4462 848.503 90.4613C848.422 90.4843 848.358 90.5085 848.323 90.5226C848.25 90.5512 848.191 90.5797 848.16 90.5949C848.092 90.6277 848.024 90.6646 847.971 90.6938C847.878 90.7445 847.755 90.8136 847.62 90.8899C847.594 90.9047 847.567 90.9197 847.54 90.9349C847.195 91.1295 846.711 91.4008 846.104 91.7219C844.887 92.3646 843.177 93.2055 841.141 94.0037C837.034 95.613 831.755 96.9861 826.576 96.3525C823.774 96.0023 820.04 95.6956 816.32 95.6956C812.639 95.6956 808.806 95.9941 805.9 96.9419C804.448 97.4152 803.063 98.1018 802.064 99.1412C801.001 100.247 800.449 101.683 800.642 103.356C800.824 104.93 801.644 106.556 802.947 108.238C804.264 109.937 806.176 111.824 808.751 113.931L809.691 114.701L810.754 114.114L810.754 114.113L810.754 114.113L810.757 114.112L810.77 114.104L810.831 114.072C810.885 114.042 810.969 113.997 811.08 113.938C811.302 113.82 811.636 113.645 812.073 113.422C812.947 112.977 814.232 112.343 815.865 111.593C819.131 110.091 823.78 108.13 829.295 106.297C840.362 102.617 854.747 99.5092 868.412 101.509L869.4 98.0947C863.2 95.3392 856.486 92.5586 849.516 90.4675Z" fill="#BEF0ED" stroke="#171753" stroke-width="3.58779"/>
<path d="M599.467 393.796L598.914 393.55L598.675 394.107C586.424 422.617 579.762 447.108 578.756 466.592C577.751 486.068 582.396 500.653 592.9 509.174C599.437 514.542 607.816 517.085 617.981 517.085C630.965 517.085 646.535 512.904 663.876 505.091C681.225 497.275 700.381 485.808 720.547 471.195C760.879 441.969 805.289 400.132 847.402 349.665C886.769 302.517 918.819 254.158 940.373 210.936C961.913 167.741 973.016 129.586 970.368 102.877L970.368 102.873C968.985 89.7354 964.364 79.728 956.424 73.4212C946.97 65.7199 933.383 63.6183 916.595 66.8092C899.802 70.0011 879.719 78.5017 857.156 92.1313L856.662 92.4294L856.942 92.9335L858.086 94.9921L858.386 95.5329L858.916 95.2142C880.958 81.9665 900.448 73.6543 916.595 70.442C932.748 67.2283 945.459 69.1347 954.069 76.1796L954.071 76.1809C961.23 81.9977 965.528 91.205 966.661 103.449L966.662 103.451C969.161 129.58 958.191 167.193 936.758 210.059C915.338 252.899 883.514 300.894 844.425 347.755C794.819 407.192 741.969 454.665 696.716 483.358C674.087 497.707 653.386 507.341 635.96 511.441C618.521 515.543 604.481 514.079 595.027 506.415C585.525 498.702 581.241 484.819 582.352 465.857C583.461 446.911 589.953 423.022 601.832 395.495L602.066 394.952L601.526 394.711L599.467 393.796Z" fill="#171753" stroke="#171753" stroke-width="1.19593"/>
<path d="M757.171 382.351L757.172 382.351C807.525 391.506 855.366 395.856 897.721 395.856C941.786 395.856 979.653 391.164 1007.35 382.189C1035.01 373.229 1052.75 359.923 1056.13 342.535L1056.14 342.526C1058.24 330.846 1053.55 318.261 1042.77 305.466C1031.98 292.668 1015.05 279.589 992.482 266.875L991.958 266.58L991.666 267.105L990.522 269.164L990.233 269.684L990.752 269.976C1012.91 282.423 1029.42 295.077 1039.88 307.326C1050.34 319.579 1054.68 331.352 1052.67 342.081C1050.44 353.933 1040.64 363.963 1024.61 371.895C1008.59 379.82 986.446 385.591 959.747 388.975C906.356 395.742 834.883 392.946 758.073 378.887C697.152 367.686 641.157 351.057 596.66 331.779C552.134 312.488 519.217 290.585 504.335 268.887L504.331 268.881C497.306 258.91 494.859 249.463 496.425 240.74C498.547 229.126 508.458 218.953 525.232 210.836C541.989 202.728 565.475 196.735 594.488 193.423L595.074 193.356L595.016 192.769L594.787 190.482L594.727 189.881L594.126 189.947C564.013 193.267 539.976 199.34 522.848 207.789C505.727 216.235 495.413 227.107 492.962 240.065C491.094 249.872 493.909 260.325 501.291 270.938C516.488 293.156 549.903 315.398 594.725 334.877C639.578 354.37 695.948 371.136 757.171 382.351Z" fill="#171753" stroke="#171753" stroke-width="1.19593"/>
<path d="M787.57 497.252L787.063 497.632L787.472 498.116C803.047 516.555 818.011 530.664 831.908 540.168C845.798 549.667 858.668 554.597 870.044 554.597C874.683 554.597 878.875 553.9 883.07 552.269L883.078 552.266L883.087 552.262C892.412 548.299 900.058 540.156 905.135 527.693C915.495 502.829 916.213 463.119 908.518 415.634C900.818 368.118 884.678 312.72 861.218 256.415C831.35 184.665 794.551 123.477 759.246 82.6168C741.595 62.1894 724.296 46.8166 708.4 37.753C692.513 28.6947 677.928 25.886 665.789 30.7881C653.651 35.69 645.047 47.6771 640.105 65.6081C635.161 83.5444 633.849 107.526 636.368 136.612L636.421 137.215L637.024 137.155L639.311 136.926L639.9 136.867L639.847 136.278C637.334 108.182 638.596 84.814 643.289 67.3518C647.984 49.878 656.081 38.4294 667.151 33.9561C678.511 29.4239 692.387 32.129 707.839 41.1231C723.28 50.1114 740.192 65.3249 757.538 85.5981C792.227 126.139 828.566 186.81 858.284 258.019C881.6 314.023 897.654 368.989 905.336 416.054C913.023 463.149 912.312 502.237 902.201 526.55L902.2 526.552C897.438 538.117 890.444 545.743 881.947 549.097L881.943 549.099C870.865 553.575 857.173 551.208 841.579 542.216C825.994 533.228 808.604 517.674 790.214 495.971L789.85 495.542L789.399 495.88L787.57 497.252Z" fill="#171753" stroke="#171753" stroke-width="1.19593"/>
<path d="M742.509 348.448L499.829 208.643C497.731 207.423 495.633 207.249 494.234 207.946C485.317 211.955 479.198 216.662 479.198 216.662L490.912 227.993V401.965C490.912 408.589 494.934 416.434 500.004 419.397L735.69 555.019L727.473 559.028L733.417 568.267C733.417 568.267 740.76 566.35 748.978 559.202C750.726 557.982 751.775 555.542 751.775 552.055V365.706C751.601 359.082 747.579 351.238 742.509 348.448Z" fill="#171753"/>
<path d="M732.892 569.487L725.898 558.68L733.416 555.019L499.304 420.269C494.058 417.305 489.687 409.112 489.687 401.965V228.69L477.448 216.836L478.323 216.139C478.497 215.965 484.617 211.258 493.534 207.249C495.632 206.203 497.905 206.551 500.178 207.771L742.858 347.403C748.103 350.54 752.474 358.559 752.474 365.706V552.055C752.474 555.716 751.25 558.505 749.327 559.9C741.109 567.047 733.766 569.139 733.416 569.139L732.892 569.487ZM728.87 559.377L733.766 567.047C735.689 566.35 741.634 564.083 748.278 558.331C749.851 557.285 750.725 554.844 750.725 552.055V365.706C750.725 359.431 746.879 351.935 742.158 349.146L499.304 209.515C497.555 208.469 495.807 208.294 494.583 208.992H494.408C487.764 211.955 482.519 215.442 480.596 217.01L491.785 227.818V401.965C491.785 408.241 495.632 415.736 500.353 418.525L737.787 555.193L728.87 559.377Z" fill="#171753"/>
<path d="M487.939 221.02L490.911 309.226L645.82 398.478L736.913 345.136L504.549 211.432L487.939 221.02Z" fill="#171753"/>
<path d="M645.822 399.524L489.863 309.923L486.891 220.497L504.55 210.386L739.012 345.136L645.822 399.524ZM491.786 308.703L645.822 397.258L734.991 345.136L504.55 212.652L488.989 221.543L491.786 308.703Z" fill="#171753"/>
<path d="M679.569 557.982C679.045 555.716 677.471 553.798 675.548 552.578L666.106 547.174C656.49 541.596 648.622 527.999 648.622 517.017V454.61C648.622 454.61 648.622 454.435 648.447 454.435L639.006 449.031C638.831 448.857 638.656 449.032 638.656 449.206C639.356 451.646 639.88 454.087 639.88 456.527V501.676C639.88 504.466 639.356 506.732 638.307 508.475L637.258 501.153C637.258 500.979 637.083 500.979 637.083 500.979L617.326 503.245H617.151C612.955 497.841 610.157 490.868 610.157 484.767V439.618C610.157 437.178 610.682 435.086 611.381 433.517C611.381 433.343 611.381 433.343 611.381 433.168L601.765 427.59C601.59 427.59 601.415 427.59 601.415 427.764V489.648C601.415 500.805 593.372 505.511 583.756 499.759L573.965 494.181C572.916 493.658 572.217 493.483 571.517 493.832L571.342 494.006C571.342 494.006 562.425 497.493 552.984 504.64C552.809 504.64 552.809 504.814 552.984 504.988L560.327 511.613L651.07 561.817L659.987 572.276C659.987 572.276 660.162 572.451 660.162 572.276C661.56 571.753 672.401 567.57 678.87 561.294C679.569 560.771 679.919 559.551 679.569 557.982Z" fill="#ECFFFE"/>
<path d="M660.159 573.322C659.809 573.322 659.46 573.148 659.285 572.974L650.543 562.689L559.8 512.484L559.625 512.31L552.282 505.686C551.932 505.511 551.932 505.163 551.932 504.814C551.932 504.465 552.107 504.117 552.457 503.943C561.898 496.795 570.64 493.309 570.99 493.135H571.165C572.389 492.437 573.613 492.96 574.487 493.483L584.278 499.062C588.649 501.502 592.67 502.025 595.817 500.282C598.79 498.539 600.538 494.878 600.538 489.823V427.939C600.538 427.59 600.713 427.067 601.063 426.893C601.412 426.718 601.937 426.718 602.287 426.893L611.903 432.471C612.427 432.82 612.602 433.517 612.427 434.04C611.728 435.609 611.203 437.526 611.203 439.792V484.942C611.203 490.52 613.651 497.144 617.673 502.548L636.905 500.282C637.605 500.282 638.129 500.63 638.304 501.328L638.654 504.466C638.828 503.768 638.828 502.897 638.828 502.025V456.876C638.828 454.784 638.479 452.344 637.779 449.903C637.605 449.38 637.779 448.857 638.129 448.683C638.479 448.334 639.003 448.334 639.528 448.508L648.969 453.912C649.319 454.087 649.494 454.61 649.494 454.958V517.017C649.494 527.825 657.187 540.899 666.453 546.303L675.895 551.706C678.343 553.101 679.916 555.367 680.441 557.808C680.79 559.551 680.441 561.12 679.566 561.991C672.922 568.441 661.733 572.799 660.509 573.148C660.509 573.322 660.334 573.322 660.159 573.322ZM560.849 510.741L651.767 561.12L651.942 561.294L660.509 571.23C663.131 570.184 672.573 566.349 678.343 560.597C678.867 560.248 678.867 559.377 678.692 558.156C678.343 556.239 676.944 554.496 675.021 553.45L665.579 548.046C655.613 542.293 647.57 528.347 647.57 517.017V455.133L640.052 450.775C640.577 452.692 640.752 454.61 640.752 456.527V501.676C640.752 504.64 640.227 507.08 639.003 508.998L637.605 511.438L636.381 501.851L617.498 504.117C617.148 504.117 616.624 503.943 616.449 503.594C611.903 497.667 609.28 490.52 609.28 484.419V439.269C609.28 437.003 609.63 435.086 610.329 433.343L602.461 428.81V489.3C602.461 495.052 600.363 499.41 596.692 501.502C593.02 503.594 588.299 503.245 583.229 500.282L573.438 494.704C572.389 494.181 572.214 494.355 572.039 494.355L571.689 494.529C571.515 494.529 563.122 498.016 554.205 504.466L560.849 510.741Z" fill="#171753"/>
<path d="M660.157 573.497C659.808 573.497 659.458 573.322 659.283 573.148L653.513 566.349L659.808 565.478C661.031 564.955 671.697 560.423 678.166 555.193L679.04 554.496L679.739 555.367C680.439 556.239 680.439 556.587 680.614 557.285C680.614 557.459 680.614 557.633 680.788 557.982C681.138 559.725 680.788 561.294 679.914 562.166C673.27 568.616 662.08 572.974 660.857 573.322C660.507 573.497 660.332 573.497 660.157 573.497ZM657.36 567.744L660.507 571.405C663.13 570.359 672.571 566.524 678.341 560.771C678.865 560.423 678.865 559.551 678.69 558.331C678.69 557.982 678.516 557.808 678.516 557.459C671.347 562.689 660.857 567.047 660.507 567.221H660.332L657.36 567.744Z" fill="#171753"/>
<path d="M648.618 517.017V492.786C644.597 491.392 641.624 490.346 641.275 490.346C641.1 490.346 640.75 490.52 639.876 490.694V501.502C639.876 504.291 639.351 506.558 638.302 508.301L637.253 500.979C637.253 500.805 637.078 500.805 637.078 500.805L617.321 503.071H617.147C616.097 501.851 615.223 500.282 614.349 498.887C613.825 499.062 613.475 499.236 613.475 499.236L615.573 541.422L625.889 547.697L626.238 548.046L634.631 552.753L635.855 551.184C635.855 551.184 646.345 545.431 656.835 538.981C651.94 532.531 648.618 524.338 648.618 517.017Z" fill="#171753"/>
<path d="M657.534 563.735L647.393 557.808C637.777 552.23 630.084 538.807 630.084 527.825V465.244L619.943 459.491C620.817 462.106 621.342 464.721 621.342 467.336V512.485C621.342 521.898 614.698 525.733 606.48 521.026C598.263 516.32 591.619 504.815 591.619 495.401V450.252C591.619 447.812 592.143 445.72 593.017 443.977L582.877 438.224V500.805C582.877 511.787 575.184 516.32 565.567 510.741L555.427 504.815C553.503 503.594 551.755 504.64 551.755 506.906C551.755 509.173 553.329 511.962 555.427 513.182L657.709 572.102C659.632 573.323 661.38 572.277 661.38 570.011C661.206 567.744 659.632 564.955 657.534 563.735Z" fill="#5ED9D1"/>
<path d="M659.284 573.497C658.584 573.497 657.885 573.322 657.185 572.799L554.903 514.053C552.63 512.659 550.707 509.521 550.707 506.906C550.707 505.337 551.232 504.291 552.281 503.768C553.33 503.245 554.554 503.245 555.777 503.943L565.918 509.87C570.289 512.31 574.311 512.833 577.108 511.09C580.08 509.347 581.654 505.686 581.654 500.805V436.481L594.068 443.628L593.718 444.499C592.844 446.068 592.494 447.986 592.494 450.252V495.401C592.494 504.466 598.963 515.622 606.831 520.155C610.503 522.246 613.825 522.595 616.273 521.2C618.72 519.806 620.119 516.668 620.119 512.484V467.335C620.119 465.069 619.769 462.454 618.895 459.84L618.021 457.399L630.784 464.721V527.999C630.784 538.633 638.303 551.707 647.569 557.111L657.71 563.038C659.983 564.432 661.906 567.57 661.906 570.185C661.906 571.754 661.382 572.799 660.333 573.322C660.158 573.497 659.808 573.497 659.284 573.497ZM553.679 505.337C553.505 505.337 553.33 505.337 553.155 505.512C552.805 505.686 552.63 506.209 552.63 506.906C552.63 508.824 554.029 511.264 555.777 512.31L658.06 571.231C658.759 571.579 659.284 571.754 659.633 571.405C659.983 571.231 660.158 570.708 660.158 570.01C660.158 568.093 658.759 565.652 657.011 564.606L646.87 558.679C637.079 552.927 629.036 539.156 629.036 527.825V465.766L621.518 461.408C622.042 463.326 622.217 465.243 622.217 467.161V512.31C622.217 517.191 620.469 521.026 617.322 522.769C614.174 524.513 610.153 524.164 605.782 521.723C597.215 516.842 590.396 504.989 590.396 495.227V450.078C590.396 447.811 590.746 445.894 591.445 444.151L583.577 439.618V500.456C583.577 506.209 581.654 510.393 577.982 512.484C574.311 514.576 569.59 514.053 564.694 511.264L554.554 505.337C554.379 505.512 554.029 505.337 553.679 505.337Z" fill="#171753"/>
<path d="M591.618 450.252V495.401C591.618 504.814 598.262 516.32 606.48 521.026C614.697 525.733 621.341 521.898 621.341 512.484V467.335C621.341 464.895 620.817 462.106 619.942 459.491L625.188 462.454V445.197H592.318C591.793 446.765 591.618 448.334 591.618 450.252Z" fill="#ECFFFE"/>
<path d="M613.125 524.164C610.852 524.164 608.404 523.467 605.956 522.072C597.389 517.191 590.57 505.337 590.57 495.575V450.426C590.57 448.509 590.92 446.766 591.444 445.197L591.619 444.499H626.238V464.546L621.517 461.931C622.042 463.849 622.216 465.767 622.216 467.684V512.833C622.216 517.714 620.468 521.549 617.321 523.292C616.097 523.815 614.698 524.164 613.125 524.164ZM593.018 446.417C592.668 447.637 592.493 448.857 592.493 450.426V495.575C592.493 504.64 598.963 515.797 606.83 520.329C610.502 522.421 613.824 522.77 616.272 521.375C618.72 519.98 620.118 516.843 620.118 512.659V467.51C620.118 465.244 619.769 462.629 618.894 460.014L618.02 457.573L623.965 461.06V446.417H593.018Z" fill="#171753"/>
<path d="M613.473 445.371H592.317C591.793 446.766 591.618 448.509 591.618 450.252V495.401C591.618 502.374 595.29 510.567 600.535 516.32C605.78 516.668 609.626 512.833 609.626 505.686V460.537C609.626 458.096 609.102 455.307 608.228 452.692L613.473 455.656V445.371Z" fill="#171753"/>
<path d="M601.233 517.366C600.883 517.366 600.708 517.366 600.358 517.366H600.009L599.659 517.017C594.064 510.916 590.392 502.548 590.392 495.575V450.426C590.392 448.509 590.742 446.766 591.267 445.197L591.441 444.499H614.346V457.748L609.625 455.133C610.149 457.05 610.324 458.968 610.324 460.886V506.035C610.324 510.218 609.1 513.356 607.002 515.448C605.604 516.668 603.505 517.366 601.233 517.366ZM600.883 515.274C602.806 515.274 604.38 514.751 605.604 513.705C607.352 511.962 608.401 509.347 608.401 505.86V460.711C608.401 458.445 608.051 455.83 607.177 453.215L606.303 450.775L612.248 454.261V446.591H592.84C592.49 447.811 592.316 449.032 592.316 450.601V495.75C592.49 502.025 595.812 509.695 600.883 515.274Z" fill="#171753"/>
<path d="M596.514 447.812V492.961C596.514 502.374 603.158 513.879 611.376 518.586C613.998 520.155 616.446 520.678 618.719 520.503C620.292 518.76 621.341 515.971 621.341 512.31V467.161C621.341 464.721 620.817 461.932 619.943 459.317L625.188 462.28V457.573C625.188 457.225 625.013 457.051 625.013 456.702L625.188 456.876V444.848H596.864C596.689 446.068 596.514 446.94 596.514 447.812Z" fill="#ECFFFE"/>
<path d="M618.195 521.724C615.922 521.724 613.475 521.026 611.027 519.632C602.46 514.751 595.641 502.897 595.641 493.135V447.986C595.641 447.114 595.641 446.243 595.816 445.371L595.99 444.499H626.413V464.546L621.692 461.931C622.217 463.849 622.391 465.767 622.391 467.684V512.833C622.391 516.494 621.342 519.457 619.594 521.549L619.244 521.898H618.895C618.545 521.724 618.37 521.724 618.195 521.724ZM597.739 446.417C597.739 446.94 597.739 447.463 597.739 447.986V493.135C597.739 502.2 604.208 513.356 612.076 517.889C614.349 519.109 616.447 519.806 618.37 519.806C619.769 518.063 620.468 515.622 620.468 512.659V467.51C620.468 465.244 620.118 462.629 619.244 460.014L618.37 457.573L624.315 461.06V458.096C624.315 457.922 624.315 457.748 624.14 457.573L623.266 455.133L624.315 455.656V446.417H597.739Z" fill="#171753"/>
<path d="M683.756 390.111L680.959 524.163L734.285 554.844L751.595 544.908V366.403C751.595 362.045 749.846 357.338 747.398 353.852L717.5 371.11L683.756 390.111Z" fill="#171753"/>
<path d="M734.286 556.064L679.911 524.687V524.164L682.708 389.588L716.977 370.064L747.749 352.458L748.274 353.155C751.071 356.99 752.645 362.045 752.645 366.403V545.605L734.286 556.064ZM682.009 523.641L734.286 553.798L750.547 544.559V366.403C750.547 362.743 749.323 358.559 747.05 355.072L717.851 371.807L684.631 390.634L682.009 523.641Z" fill="#171753"/>
<path d="M727.819 567.57L485.14 427.939C480.069 424.975 476.048 417.305 476.048 410.507V224.158C476.048 217.534 480.069 214.396 485.14 217.359L727.819 356.99C732.89 359.954 736.911 367.624 736.911 374.422V560.771C736.911 567.396 732.89 570.533 727.819 567.57Z" fill="#5ED9D1"/>
<path d="M731.492 569.662C730.268 569.662 728.87 569.313 727.296 568.441L484.616 428.81C479.371 425.847 475 417.654 475 410.507V224.158C475 220.323 476.399 217.359 478.672 215.964C480.595 214.744 483.043 214.919 485.665 216.487L728.345 356.118C733.59 359.082 737.961 367.275 737.961 374.422V560.771C737.961 564.606 736.563 567.57 734.29 568.964C733.415 569.487 732.366 569.662 731.492 569.662ZM728.345 566.872C730.268 567.918 732.017 568.093 733.241 567.395C734.989 566.349 735.863 564.083 735.863 560.946V374.422C735.863 368.147 732.017 360.651 727.296 357.862L484.616 218.231C482.693 217.185 480.945 217.01 479.721 217.708C477.972 218.754 477.098 221.02 477.098 224.158V410.681C477.098 416.956 480.945 424.452 485.665 427.241L728.345 566.872Z" fill="#171753"/>
<path d="M726.946 547.872L486.015 409.112C484.616 408.241 483.392 406.149 483.392 404.231V228.167C483.392 226.25 484.616 225.378 486.015 226.25L727.121 365.009C728.52 365.881 729.744 367.973 729.744 369.89V545.954C729.569 547.872 728.345 548.743 726.946 547.872Z" fill="#ECFFFE"/>
<path d="M727.996 549.092C727.472 549.092 726.947 548.917 726.423 548.569L485.492 409.984C483.743 408.938 482.344 406.497 482.344 404.231V228.167C482.344 226.772 482.869 225.726 483.743 225.203C484.443 224.68 485.492 224.855 486.366 225.378L727.472 364.137C729.22 365.183 730.619 367.624 730.619 369.89V545.954C730.619 547.348 730.095 548.394 729.22 548.917C728.871 549.092 728.521 549.092 727.996 549.092ZM727.472 547C727.647 547 727.996 547.174 728.171 547.174C728.346 547 728.521 546.651 728.521 545.954V369.89C728.521 368.321 727.472 366.403 726.423 365.88L485.492 226.947C485.317 226.947 484.967 226.772 484.792 226.772C484.617 226.947 484.443 227.295 484.443 227.992V404.057C484.443 405.626 485.492 407.543 486.541 408.066L727.472 547Z" fill="#171753"/>
<path d="M729.219 546.478L488.288 407.718C486.889 406.847 485.665 404.755 485.665 402.837V226.773C485.665 226.599 485.665 226.25 485.665 226.076C484.441 225.553 483.392 226.425 483.392 228.168V404.232C483.392 406.149 484.616 408.416 486.015 409.113L727.121 547.872C728.345 548.57 729.394 548.047 729.744 546.652C729.394 546.478 729.394 546.478 729.219 546.478Z" fill="#171753"/>
<path d="M727.996 549.092C727.472 549.092 726.947 548.918 726.423 548.569L485.492 409.984C483.743 408.938 482.344 406.498 482.344 404.232V228.167C482.344 226.947 482.869 225.901 483.568 225.378C484.268 224.855 485.142 224.855 486.016 225.204L486.715 225.553V226.076C486.715 226.25 486.715 226.424 486.715 226.598V402.663C486.715 404.231 487.765 406.149 488.814 406.672L729.745 545.606L729.22 546.477L729.745 545.606L730.619 545.954V546.826C730.444 547.872 729.92 548.569 729.045 548.918C728.696 549.092 728.346 549.092 727.996 549.092ZM484.617 226.947C484.443 227.121 484.443 227.47 484.443 227.993V404.057C484.443 405.626 485.492 407.544 486.541 408.067L727.647 546.826C727.996 547 728.171 547 728.346 547C728.346 547 728.346 547 728.521 547L487.765 408.59C486.016 407.544 484.617 405.103 484.617 402.837V226.947Z" fill="#171753"/>
<path d="M615.223 494.704L597.738 484.594C597.039 484.071 596.34 483.025 596.34 481.979C596.34 480.933 597.039 480.41 597.738 480.933L615.223 491.044C615.922 491.567 616.621 492.612 616.621 493.658C616.621 494.704 615.922 495.227 615.223 494.704Z" fill="#171753"/>
<path d="M615.748 495.924C615.398 495.924 615.049 495.75 614.699 495.576L597.215 485.465C596.166 484.768 595.292 483.373 595.292 481.979C595.292 481.107 595.641 480.41 596.341 480.061C596.865 479.713 597.565 479.713 598.264 480.061L615.748 490.172C616.797 490.869 617.671 492.264 617.671 493.658C617.671 494.53 617.322 495.227 616.622 495.576C616.273 495.75 616.098 495.924 615.748 495.924ZM597.39 481.804C597.39 481.979 597.39 481.979 597.39 481.804C597.39 482.676 597.914 483.548 598.264 483.722L615.573 493.658V493.484C615.573 492.787 615.049 491.915 614.699 491.741L597.39 481.804Z" fill="#171753"/>
<path d="M599.55 507.43L596.064 509.429L597.023 511.091L600.509 509.092L599.55 507.43Z" fill="#ECFFFE"/>
<path d="M746.353 504.814L742.157 507.255C741.457 507.604 740.758 507.255 740.758 506.209V494.878C740.758 493.832 741.283 492.786 742.157 492.263L746.353 489.823C747.052 489.474 747.752 489.823 747.752 490.869V502.2C747.752 503.246 747.052 504.466 746.353 504.814Z" fill="#171753"/>
<path d="M746.353 482.676L742.157 485.116C741.457 485.465 740.758 485.116 740.758 484.07V472.739C740.758 471.693 741.283 470.647 742.157 470.124L746.353 467.684C747.052 467.335 747.752 467.684 747.752 468.73V480.061C747.752 480.932 747.052 482.153 746.353 482.676Z" fill="#171753"/>
<path d="M494.668 399.639L484.221 405.653L485.182 407.314L495.63 401.3L494.668 399.639Z" fill="#ECFFFE"/>
<path d="M525.732 230.512L524.771 232.172L699.046 332.494L700.008 330.833L525.732 230.512Z" fill="#171753"/>
<path d="M571.683 437.953L598.355 453.338V422.567L571.683 407.181V437.953Z" fill="#BEF0ED" stroke="#171753" stroke-width="2.12178" stroke-miterlimit="10" stroke-linejoin="round"/>
<path d="M535.783 417.192L562.456 432.578V401.806L535.783 386.42V417.192Z" fill="#BEF0ED" stroke="#171753" stroke-width="2.12178" stroke-miterlimit="10" stroke-linejoin="round"/>
<path d="M499.883 395.587L526.556 410.973V380.201L499.883 364.816V395.587Z" fill="#BEF0ED" stroke="#171753" stroke-width="2.12178" stroke-miterlimit="10" stroke-linejoin="round"/>
<path d="M571.683 393.641L598.355 409.027V378.255L571.683 362.869V393.641Z" fill="#BEF0ED" stroke="#171753" stroke-width="2.12178" stroke-miterlimit="10" stroke-linejoin="round"/>
<path d="M535.783 372.881L562.456 388.266V357.495L535.783 342.109V372.881Z" fill="#BEF0ED" stroke="#171753" stroke-width="2.12178" stroke-miterlimit="10" stroke-linejoin="round"/>
<path d="M499.883 351.276L526.556 366.662V335.89L499.883 320.504V351.276Z" fill="#BEF0ED" stroke="#171753" stroke-width="2.12178" stroke-miterlimit="10" stroke-linejoin="round"/>
<rect width="42.1258" height="1.88623" transform="matrix(0.866025 0.5 0 1 668.347 416.965)" fill="#171753"/>
<rect width="33.9522" height="1.88623" transform="matrix(0.866025 0.5 0 1 668.347 421.366)" fill="#171753"/>
<rect width="47.1558" height="1.88623" transform="matrix(0.866025 0.5 0 1 668.347 425.767)" fill="#171753"/>
<rect width="33.9522" height="1.88623" transform="matrix(0.866025 0.5 0 1 668.347 444)" fill="#171753"/>
<rect width="10.6886" height="1.88623" transform="matrix(0.866025 0.5 0 1 668.347 438.971)" fill="#171753"/>
<rect width="10.6886" height="1.88623" transform="matrix(0.866025 0.5 0 1 668.347 455.318)" fill="#171753"/>
<rect width="10.6886" height="1.88623" transform="matrix(0.866025 0.5 0 1 668.347 471.665)" fill="#171753"/>
<rect width="47.1558" height="6.28744" rx="3.14372" transform="matrix(0.866025 0.5 0 1 668.347 462.122)" stroke="#171753" stroke-width="1.51555"/>
<rect width="47.1558" height="6.28744" rx="3.14372" transform="matrix(0.866025 0.5 0 1 668.347 479.098)" stroke="#171753" stroke-width="1.51555"/>
<path d="M668.347 494.704C668.347 494.009 668.835 493.728 669.436 494.075L689.039 505.392C689.64 505.74 690.128 506.584 690.128 507.279V511.051C690.128 511.746 689.64 512.027 689.039 511.68L669.436 500.362C668.835 500.015 668.347 499.171 668.347 498.476V494.704Z" fill="#5ED9D1"/>
<rect x="0.918756" y="1.59133" width="46.9203" height="77.7083" rx="2.08283" transform="matrix(0.866025 0.5 0 1 613.91 386.194)" fill="#5ED9D1" stroke="#171753" stroke-width="2.12178"/>
<rect width="23.8923" height="1.88623" transform="matrix(0.866025 0.5 0 1 668.347 430.168)" fill="#171753"/>
<circle cx="2.2006" cy="2.2006" r="2.2006" transform="matrix(0.866025 0.5 0 1 668.347 442.743)" fill="#171753"/>
<circle cx="2.2006" cy="2.2006" r="2.2006" transform="matrix(0.866025 0.5 0 1 695.574 458.462)" fill="#171753"/>
<rect width="280.002" height="22.5965" transform="matrix(0.866025 0.501279 0 1 486.481 274.503)" fill="#5ED9D1" stroke="#171753" stroke-width="3.03111"/>
<rect width="280.002" height="47.2882" transform="matrix(0.866025 0.501279 0 1 486.481 227.446)" fill="#BEF0ED" stroke="#171753" stroke-width="3.03111"/>
<rect width="34.7639" height="8.69097" rx="1.25749" transform="matrix(0.866025 0.5 0 1 689.565 374.529)" fill="#171753"/>
<path d="M806.564 348.448L1049.24 208.643C1051.34 207.423 1053.44 207.249 1054.84 207.946C1063.76 211.955 1069.87 216.662 1069.87 216.662L1058.16 227.993V401.965C1058.16 408.589 1054.14 416.434 1049.07 419.397L813.382 555.019L821.6 559.028L815.655 568.267C815.655 568.267 808.312 566.35 800.095 559.202C798.346 557.982 797.297 555.542 797.297 552.055V365.706C797.472 359.082 801.493 351.238 806.564 348.448Z" fill="#171753"/>
<path d="M816.181 569.487L823.175 558.68L815.656 555.019L1049.77 420.269C1055.01 417.305 1059.39 409.112 1059.39 401.965V228.69L1071.62 216.836L1070.75 216.139C1070.57 215.965 1064.46 211.258 1055.54 207.249C1053.44 206.203 1051.17 206.551 1048.89 207.771L806.215 347.403C800.97 350.54 796.599 358.559 796.599 365.706V552.055C796.599 555.716 797.823 558.505 799.746 559.9C807.963 567.047 815.307 569.139 815.656 569.139L816.181 569.487ZM820.202 559.377L815.307 567.047C813.383 566.35 807.439 564.083 800.795 558.331C799.221 557.285 798.347 554.844 798.347 552.055V365.706C798.347 359.431 802.194 351.935 806.914 349.146L1049.77 209.515C1051.52 208.469 1053.27 208.294 1054.49 208.992H1054.66C1061.31 211.955 1066.55 215.442 1068.48 217.01L1057.29 227.818V401.965C1057.29 408.241 1053.44 415.736 1048.72 418.525L811.285 555.193L820.202 559.377Z" fill="#171753"/>
<path d="M1061.13 221.02L1058.16 309.226L903.252 398.478L812.16 345.136L1044.52 211.432L1061.13 221.02Z" fill="#171753"/>
<path d="M903.251 399.524L1059.21 309.923L1062.18 220.497L1044.52 210.386L810.06 345.136L903.251 399.524ZM1057.29 308.703L903.251 397.258L814.082 345.136L1044.52 212.652L1060.08 221.543L1057.29 308.703Z" fill="#171753"/>
<path d="M869.503 557.982C870.028 555.716 871.601 553.798 873.525 552.578L882.966 547.174C892.582 541.596 900.45 527.999 900.45 517.017V454.61C900.45 454.61 900.45 454.435 900.625 454.435L910.066 449.031C910.241 448.857 910.416 449.032 910.416 449.206C909.717 451.646 909.192 454.087 909.192 456.527V501.676C909.192 504.466 909.717 506.732 910.766 508.475L911.815 501.153C911.815 500.979 911.99 500.979 911.99 500.979L931.747 503.245H931.922C936.118 497.841 938.915 490.868 938.915 484.767V439.618C938.915 437.178 938.391 435.086 937.691 433.517C937.691 433.343 937.691 433.343 937.691 433.168L947.308 427.59C947.482 427.59 947.657 427.59 947.657 427.764V489.648C947.657 500.805 955.7 505.511 965.316 499.759L975.107 494.181C976.156 493.658 976.856 493.483 977.555 493.832L977.73 494.006C977.73 494.006 986.647 497.493 996.088 504.64C996.263 504.64 996.263 504.814 996.088 504.988L988.745 511.613L898.002 561.817L889.085 572.276C889.085 572.276 888.911 572.451 888.911 572.276C887.512 571.753 876.672 567.57 870.203 561.294C869.503 560.771 869.154 559.551 869.503 557.982Z" fill="#ECFFFE"/>
<path d="M888.913 573.322C889.263 573.322 889.613 573.148 889.787 572.974L898.529 562.689L989.272 512.484L989.447 512.31L996.79 505.686C997.14 505.511 997.14 505.163 997.14 504.814C997.14 504.465 996.965 504.117 996.615 503.943C987.174 496.795 978.432 493.309 978.082 493.135H977.907C976.684 492.437 975.46 492.96 974.585 493.483L964.794 499.062C960.423 501.502 956.402 502.025 953.255 500.282C950.282 498.539 948.534 494.878 948.534 489.823V427.939C948.534 427.59 948.359 427.067 948.01 426.893C947.66 426.718 947.135 426.718 946.786 426.893L937.169 432.471C936.645 432.82 936.47 433.517 936.645 434.04C937.344 435.609 937.869 437.526 937.869 439.792V484.942C937.869 490.52 935.421 497.144 931.4 502.548L912.167 500.282C911.468 500.282 910.943 500.63 910.768 501.328L910.419 504.466C910.244 503.768 910.244 502.897 910.244 502.025V456.876C910.244 454.784 910.594 452.344 911.293 449.903C911.468 449.38 911.293 448.857 910.943 448.683C910.594 448.334 910.069 448.334 909.544 448.508L900.103 453.912C899.753 454.087 899.579 454.61 899.579 454.958V517.017C899.579 527.825 891.886 540.899 882.619 546.303L873.178 551.706C870.73 553.101 869.156 555.367 868.632 557.808C868.282 559.551 868.632 561.12 869.506 561.991C876.15 568.441 887.34 572.799 888.564 573.148C888.564 573.322 888.738 573.322 888.913 573.322ZM988.223 510.741L897.306 561.12L897.131 561.294L888.564 571.23C885.941 570.184 876.499 566.349 870.73 560.597C870.205 560.248 870.205 559.377 870.38 558.156C870.73 556.239 872.128 554.496 874.052 553.45L883.493 548.046C893.459 542.293 901.502 528.347 901.502 517.017V455.133L909.02 450.775C908.495 452.692 908.321 454.61 908.321 456.527V501.676C908.321 504.64 908.845 507.08 910.069 508.998L911.468 511.438L912.692 501.851L931.574 504.117C931.924 504.117 932.449 503.943 932.624 503.594C937.169 497.667 939.792 490.52 939.792 484.419V439.269C939.792 437.003 939.442 435.086 938.743 433.343L946.611 428.81V489.3C946.611 495.052 948.709 499.41 952.381 501.502C956.052 503.594 960.773 503.245 965.843 500.282L975.634 494.704C976.684 494.181 976.858 494.355 977.033 494.355L977.383 494.529C977.558 494.529 985.95 498.016 994.867 504.466L988.223 510.741Z" fill="#171753"/>
<path d="M888.915 573.497C889.265 573.497 889.614 573.322 889.789 573.148L895.559 566.349L889.265 565.478C888.041 564.955 877.376 560.423 870.906 555.193L870.032 554.496L869.333 555.367C868.634 556.239 868.634 556.587 868.459 557.285C868.459 557.459 868.459 557.633 868.284 557.982C867.934 559.725 868.284 561.294 869.158 562.166C875.802 568.616 886.992 572.974 888.216 573.322C888.565 573.497 888.74 573.497 888.915 573.497ZM891.713 567.744L888.565 571.405C885.943 570.359 876.501 566.524 870.732 560.771C870.207 560.423 870.207 559.551 870.382 558.331C870.382 557.982 870.557 557.808 870.557 557.459C877.725 562.689 888.216 567.047 888.565 567.221H888.74L891.713 567.744Z" fill="#171753"/>
<path d="M900.454 517.017V492.786C904.476 491.392 907.448 490.346 907.798 490.346C907.973 490.346 908.322 490.52 909.196 490.694V501.502C909.196 504.291 909.721 506.558 910.77 508.301L911.819 500.979C911.819 500.805 911.994 500.805 911.994 500.805L931.751 503.071H931.926C932.975 501.851 933.849 500.282 934.723 498.887C935.248 499.062 935.597 499.236 935.597 499.236L933.499 541.422L923.184 547.697L922.834 548.046L914.442 552.753L913.218 551.184C913.218 551.184 902.727 545.431 892.237 538.981C897.132 532.531 900.454 524.338 900.454 517.017Z" fill="#171753"/>
<path d="M891.538 563.735L901.679 557.808C911.295 552.23 918.988 538.807 918.988 527.825V465.244L929.129 459.491C928.255 462.106 927.731 464.721 927.731 467.336V512.485C927.731 521.898 934.375 525.733 942.592 521.026C950.81 516.32 957.454 504.815 957.454 495.401V450.252C957.454 447.812 956.929 445.72 956.055 443.977L966.196 438.224V500.805C966.196 511.787 973.889 516.32 983.505 510.741L993.646 504.815C995.569 503.594 997.317 504.64 997.317 506.906C997.317 509.173 995.744 511.962 993.646 513.182L891.364 572.102C889.44 573.323 887.692 572.277 887.692 570.011C887.867 567.744 889.44 564.955 891.538 563.735Z" fill="#5ED9D1"/>
<path d="M889.789 573.497C890.488 573.497 891.188 573.322 891.887 572.799L994.169 514.053C996.442 512.659 998.365 509.521 998.365 506.906C998.365 505.337 997.841 504.291 996.792 503.768C995.743 503.245 994.519 503.245 993.295 503.943L983.154 509.87C978.783 512.31 974.762 512.833 971.964 511.09C968.992 509.347 967.418 505.686 967.418 500.805V436.481L955.005 443.628L955.354 444.499C956.228 446.068 956.578 447.986 956.578 450.252V495.401C956.578 504.466 950.109 515.622 942.241 520.155C938.57 522.246 935.248 522.595 932.8 521.2C930.352 519.806 928.953 516.668 928.953 512.484V467.335C928.953 465.069 929.303 462.454 930.177 459.84L931.051 457.399L918.288 464.721V527.999C918.288 538.633 910.77 551.707 901.503 557.111L891.362 563.038C889.089 564.432 887.166 567.57 887.166 570.185C887.166 571.754 887.691 572.799 888.74 573.322C888.915 573.497 889.264 573.497 889.789 573.497ZM995.393 505.337C995.568 505.337 995.743 505.337 995.917 505.512C996.267 505.686 996.442 506.209 996.442 506.906C996.442 508.824 995.043 511.264 993.295 512.31L891.013 571.231C890.313 571.579 889.789 571.754 889.439 571.405C889.089 571.231 888.915 570.708 888.915 570.01C888.915 568.093 890.313 565.652 892.062 564.606L902.203 558.679C911.994 552.927 920.036 539.156 920.036 527.825V465.766L927.555 461.408C927.03 463.326 926.855 465.243 926.855 467.161V512.31C926.855 517.191 928.604 521.026 931.751 522.769C934.898 524.513 938.919 524.164 943.29 521.723C951.857 516.842 958.676 504.989 958.676 495.227V450.078C958.676 447.811 958.327 445.894 957.627 444.151L965.495 439.618V500.456C965.495 506.209 967.418 510.393 971.09 512.484C974.762 514.576 979.482 514.053 984.378 511.264L994.519 505.337C994.694 505.512 995.043 505.337 995.393 505.337Z" fill="#171753"/>
<path d="M957.454 450.252V495.401C957.454 504.814 950.81 516.32 942.593 521.026C934.375 525.733 927.731 521.898 927.731 512.484V467.335C927.731 464.895 928.256 462.106 929.13 459.491L923.885 462.454V445.197H956.755C957.279 446.765 957.454 448.334 957.454 450.252Z" fill="#ECFFFE"/>
<path d="M935.948 524.164C938.221 524.164 940.668 523.467 943.116 522.072C951.683 517.191 958.502 505.337 958.502 495.575V450.426C958.502 448.509 958.152 446.766 957.628 445.197L957.453 444.499H922.835V464.546L927.555 461.931C927.031 463.849 926.856 465.767 926.856 467.684V512.833C926.856 517.714 928.604 521.549 931.751 523.292C932.975 523.815 934.374 524.164 935.948 524.164ZM956.054 446.417C956.404 447.637 956.579 448.857 956.579 450.426V495.575C956.579 504.64 950.11 515.797 942.242 520.329C938.57 522.421 935.248 522.77 932.8 521.375C930.353 519.98 928.954 516.843 928.954 512.659V467.51C928.954 465.244 929.304 462.629 930.178 460.014L931.052 457.573L925.107 461.06V446.417H956.054Z" fill="#171753"/>
<path d="M935.599 445.371H956.755C957.28 446.766 957.454 448.509 957.454 450.252V495.401C957.454 502.374 953.783 510.567 948.538 516.32C943.292 516.668 939.446 512.833 939.446 505.686V460.537C939.446 458.096 939.97 455.307 940.844 452.692L935.599 455.656V445.371Z" fill="#171753"/>
<path d="M947.84 517.366C948.189 517.366 948.364 517.366 948.714 517.366H949.064L949.413 517.017C955.008 510.916 958.68 502.548 958.68 495.575V450.426C958.68 448.509 958.33 446.766 957.806 445.197L957.631 444.499H934.727V457.748L939.447 455.133C938.923 457.05 938.748 458.968 938.748 460.886V506.035C938.748 510.218 939.972 513.356 942.07 515.448C943.469 516.668 945.567 517.366 947.84 517.366ZM948.189 515.274C946.266 515.274 944.693 514.751 943.469 513.705C941.72 511.962 940.671 509.347 940.671 505.86V460.711C940.671 458.445 941.021 455.83 941.895 453.215L942.769 450.775L936.825 454.261V446.591H956.232C956.582 447.811 956.757 449.032 956.757 450.601V495.75C956.582 502.025 953.26 509.695 948.189 515.274Z" fill="#171753"/>
<path d="M952.558 447.812V492.961C952.558 502.374 945.914 513.879 937.697 518.586C935.074 520.155 932.626 520.678 930.353 520.503C928.78 518.76 927.731 515.971 927.731 512.31V467.161C927.731 464.721 928.255 461.932 929.13 459.317L923.884 462.28V457.573C923.884 457.225 924.059 457.051 924.059 456.702L923.884 456.876V444.848H952.209C952.383 446.068 952.558 446.94 952.558 447.812Z" fill="#ECFFFE"/>
<path d="M930.877 521.724C933.15 521.724 935.598 521.026 938.046 519.632C946.613 514.751 953.432 502.897 953.432 493.135V447.986C953.432 447.114 953.432 446.243 953.257 445.371L953.082 444.499H922.66V464.546L927.38 461.931C926.856 463.849 926.681 465.767 926.681 467.684V512.833C926.681 516.494 927.73 519.457 929.478 521.549L929.828 521.898H930.178C930.527 521.724 930.702 521.724 930.877 521.724ZM951.333 446.417C951.333 446.94 951.333 447.463 951.333 447.986V493.135C951.333 502.2 944.864 513.356 936.997 517.889C934.724 519.109 932.625 519.806 930.702 519.806C929.304 518.063 928.604 515.622 928.604 512.659V467.51C928.604 465.244 928.954 462.629 929.828 460.014L930.702 457.573L924.758 461.06V458.096C924.758 457.922 924.758 457.748 924.932 457.573L925.807 455.133L924.758 455.656V446.417H951.333Z" fill="#171753"/>
<path d="M865.316 390.111L868.114 524.163L814.787 554.844L797.478 544.908V366.403C797.478 362.045 799.226 357.338 801.674 353.852L831.572 371.11L865.316 390.111Z" fill="#171753"/>
<path d="M814.786 556.064L869.162 524.687V524.164L866.364 389.588L832.095 370.064L801.323 352.458L800.799 353.155C798.001 356.99 796.428 362.045 796.428 366.403V545.605L814.786 556.064ZM867.064 523.641L814.786 553.798L798.526 544.559V366.403C798.526 362.743 799.75 358.559 802.023 355.072L831.221 371.807L864.441 390.634L867.064 523.641Z" fill="#171753"/>
<path d="M821.253 567.57L1063.93 427.939C1069 424.975 1073.02 417.305 1073.02 410.507V224.158C1073.02 217.534 1069 214.396 1063.93 217.359L821.253 356.99C816.183 359.954 812.161 367.624 812.161 374.422V560.771C812.161 567.396 816.183 570.533 821.253 567.57Z" fill="#5ED9D1"/>
<path d="M817.58 569.662C818.804 569.662 820.203 569.313 821.776 568.441L1064.46 428.81C1069.7 425.847 1074.07 417.654 1074.07 410.507V224.158C1074.07 220.323 1072.67 217.359 1070.4 215.964C1068.48 214.744 1066.03 214.919 1063.41 216.487L820.727 356.118C815.482 359.082 811.111 367.275 811.111 374.422V560.771C811.111 564.606 812.51 567.57 814.783 568.964C815.657 569.487 816.706 569.662 817.58 569.662ZM820.727 566.872C818.804 567.918 817.056 568.093 815.832 567.395C814.083 566.349 813.209 564.083 813.209 560.946V374.422C813.209 368.147 817.056 360.651 821.776 357.862L1064.46 218.231C1066.38 217.185 1068.13 217.01 1069.35 217.708C1071.1 218.754 1071.97 221.02 1071.97 224.158V410.681C1071.97 416.956 1068.13 424.452 1063.41 427.241L820.727 566.872Z" fill="#171753"/>
<path d="M822.126 547.872L1063.06 409.112C1064.46 408.241 1065.68 406.149 1065.68 404.231V228.167C1065.68 226.25 1064.46 225.378 1063.06 226.25L821.951 365.009C820.553 365.881 819.329 367.973 819.329 369.89V545.954C819.504 547.872 820.727 548.743 822.126 547.872Z" fill="#ECFFFE"/>
<path d="M821.076 549.092C821.6 549.092 822.125 548.917 822.65 548.569L1063.58 409.984C1065.33 408.938 1066.73 406.497 1066.73 404.231V228.167C1066.73 226.772 1066.2 225.726 1065.33 225.203C1064.63 224.68 1063.58 224.855 1062.71 225.378L821.6 364.137C819.852 365.183 818.453 367.624 818.453 369.89V545.954C818.453 547.348 818.978 548.394 819.852 548.917C820.202 549.092 820.551 549.092 821.076 549.092ZM821.6 547C821.426 547 821.076 547.174 820.901 547.174C820.726 547 820.551 546.651 820.551 545.954V369.89C820.551 368.321 821.6 366.403 822.65 365.88L1063.58 226.947C1063.76 226.947 1064.11 226.772 1064.28 226.772C1064.45 226.947 1064.63 227.295 1064.63 227.992V404.057C1064.63 405.626 1063.58 407.543 1062.53 408.066L821.6 547Z" fill="#171753"/>
<path d="M819.853 546.478L1060.78 407.718C1062.18 406.847 1063.41 404.755 1063.41 402.837V226.773C1063.41 226.599 1063.41 226.25 1063.41 226.076C1064.63 225.553 1065.68 226.425 1065.68 228.168V404.232C1065.68 406.149 1064.46 408.416 1063.06 409.113L821.951 547.872C820.727 548.57 819.678 548.047 819.329 546.652C819.678 546.478 819.678 546.478 819.853 546.478Z" fill="#171753"/>
<path d="M821.076 549.092C821.6 549.092 822.125 548.918 822.65 548.569L1063.58 409.984C1065.33 408.938 1066.73 406.498 1066.73 404.232V228.167C1066.73 226.947 1066.2 225.901 1065.5 225.378C1064.8 224.855 1063.93 224.855 1063.06 225.204L1062.36 225.553V226.076C1062.36 226.25 1062.36 226.424 1062.36 226.598V402.663C1062.36 404.231 1061.31 406.149 1060.26 406.672L819.328 545.606L819.852 546.477L819.328 545.606L818.453 545.954V546.826C818.628 547.872 819.153 548.569 820.027 548.918C820.377 549.092 820.726 549.092 821.076 549.092ZM1064.45 226.947C1064.63 227.121 1064.63 227.47 1064.63 227.993V404.057C1064.63 405.626 1063.58 407.544 1062.53 408.067L821.426 546.826C821.076 547 820.901 547 820.726 547C820.726 547 820.726 547 820.551 547L1061.31 408.59C1063.06 407.544 1064.45 405.103 1064.45 402.837V226.947Z" fill="#171753"/>
<path d="M933.85 494.704L951.334 484.594C952.033 484.071 952.733 483.025 952.733 481.979C952.733 480.933 952.033 480.41 951.334 480.933L933.85 491.044C933.151 491.567 932.451 492.612 932.451 493.658C932.451 494.704 933.151 495.227 933.85 494.704Z" fill="#171753"/>
<path d="M933.324 495.924C933.674 495.924 934.024 495.75 934.373 495.576L951.857 485.465C952.906 484.768 953.781 483.373 953.781 481.979C953.781 481.107 953.431 480.41 952.732 480.061C952.207 479.713 951.508 479.713 950.808 480.061L933.324 490.172C932.275 490.869 931.401 492.264 931.401 493.658C931.401 494.53 931.751 495.227 932.45 495.576C932.8 495.75 932.974 495.924 933.324 495.924ZM951.682 481.804C951.682 481.979 951.682 481.979 951.682 481.804C951.682 482.676 951.158 483.548 950.808 483.722L933.499 493.658V493.484C933.499 492.787 934.024 491.915 934.373 491.741L951.682 481.804Z" fill="#171753"/>
<path d="M949.522 507.43L953.008 509.429L952.049 511.091L948.563 509.092L949.522 507.43Z" fill="#ECFFFE"/>
<path d="M802.719 504.814L806.916 507.255C807.615 507.604 808.314 507.255 808.314 506.209V494.878C808.314 493.832 807.79 492.786 806.916 492.263L802.719 489.823C802.02 489.474 801.321 489.823 801.321 490.869V502.2C801.321 503.246 802.02 504.466 802.719 504.814Z" fill="#171753"/>
<path d="M802.719 482.676L806.916 485.116C807.615 485.465 808.314 485.116 808.314 484.07V472.739C808.314 471.693 807.79 470.647 806.916 470.124L802.719 467.684C802.02 467.335 801.321 467.684 801.321 468.73V480.061C801.321 480.932 802.02 482.153 802.719 482.676Z" fill="#171753"/>
<path d="M1054.4 399.639L1064.85 405.653L1063.89 407.314L1053.44 401.3L1054.4 399.639Z" fill="#ECFFFE"/>
<path d="M1023.34 230.512L1024.3 232.172L850.026 332.494L849.064 330.833L1023.34 230.512Z" fill="#171753"/>
<ellipse cx="3.60945" cy="3.6166" rx="3.60945" ry="3.6166" transform="matrix(0.866025 -0.5 -0.00462529 0.999989 841.31 378.63)" stroke="#171753" stroke-width="1.8487"/>
<ellipse cx="3.60945" cy="3.6166" rx="3.60945" ry="3.6166" transform="matrix(0.866025 -0.5 -0.00462529 0.999989 841.242 393.098)" fill="#171753"/>
<ellipse cx="3.60945" cy="3.6166" rx="3.60945" ry="3.6166" transform="matrix(0.866025 -0.5 -0.00462529 0.999989 841.175 407.563)" stroke="#171753" stroke-width="1.8487"/>
<ellipse cx="3.60945" cy="3.6166" rx="3.60945" ry="3.6166" transform="matrix(0.866025 -0.5 -0.00462529 0.999989 841.11 422.031)" stroke="#171753" stroke-width="1.8487"/>
<ellipse cx="3.60945" cy="3.6166" rx="3.60945" ry="3.6166" transform="matrix(0.866025 -0.5 -0.00462529 0.999989 841.043 436.496)" stroke="#171753" stroke-width="1.8487"/>
<ellipse cx="3.60945" cy="3.6166" rx="3.60945" ry="3.6166" transform="matrix(0.866025 -0.5 -0.00462529 0.999989 840.975 450.964)" fill="#171753"/>
<ellipse cx="3.60945" cy="3.6166" rx="3.60945" ry="3.6166" transform="matrix(0.866025 -0.5 -0.00462529 0.999989 840.907 465.43)" stroke="#171753" stroke-width="1.8487"/>
<ellipse cx="3.60945" cy="3.6166" rx="3.60945" ry="3.6166" transform="matrix(0.866025 -0.5 -0.00462529 0.999989 840.843 479.898)" fill="#171753"/>
<ellipse cx="3.60945" cy="3.6166" rx="3.60945" ry="3.6166" transform="matrix(0.866025 -0.5 -0.00462529 0.999989 840.775 494.366)" stroke="#171753" stroke-width="1.8487"/>
<ellipse cx="3.60945" cy="3.6166" rx="3.60945" ry="3.6166" transform="matrix(0.866025 -0.5 -0.00462529 0.999989 840.708 508.831)" stroke="#171753" stroke-width="1.8487"/>
<rect width="55.5879" height="5.06345" rx="2.53173" transform="matrix(0.866025 -0.5 -0.00462529 0.999989 851.936 373.216)" stroke="#171753" stroke-width="1.8487"/>
<rect width="55.5879" height="5.06345" rx="2.53173" transform="matrix(0.866025 -0.5 -0.00462529 0.999989 904.451 342.897)" stroke="#171753" stroke-width="1.8487"/>
<rect width="55.5879" height="5.06345" rx="2.53173" transform="matrix(0.866025 -0.5 -0.00462529 0.999989 956.969 312.576)" stroke="#171753" stroke-width="1.8487"/>
<rect width="38.9837" height="5.06345" rx="2.53173" transform="matrix(0.866025 -0.5 -0.00462529 0.999989 851.869 387.684)" fill="#5ED9D1"/>
<rect width="93.1277" height="5.06345" rx="2.53173" transform="matrix(0.866025 -0.5 -0.00462529 0.999989 894.383 363.137)" fill="#5ED9D1"/>
<rect width="91.4673" height="5.06345" rx="2.53173" transform="matrix(0.866025 -0.5 -0.00462529 0.999989 851.801 402.152)" stroke="#171753" stroke-width="1.8487"/>
<rect width="91.4673" height="5.06345" rx="2.53173" transform="matrix(0.866025 -0.5 -0.00462529 0.999989 851.734 416.617)" fill="#171753"/>
<rect width="38.9837" height="5.06345" rx="2.53173" transform="matrix(0.866025 -0.5 -0.00462529 0.999989 851.666 431.085)" stroke="#171753" stroke-width="1.8487"/>
<rect width="93.1277" height="5.06345" rx="2.53173" transform="matrix(0.866025 -0.5 -0.00462529 0.999989 894.18 406.538)" stroke="#171753" stroke-width="1.8487"/>
<rect width="91.4673" height="5.06345" rx="2.53173" transform="matrix(0.866025 -0.5 -0.00462529 0.999989 851.601 445.55)" fill="#5ED9D1"/>
<rect width="55.5879" height="5.06345" rx="2.53173" transform="matrix(0.866025 -0.5 -0.00462529 0.999989 851.534 460.018)" fill="#171753"/>
<rect width="55.5879" height="5.06345" rx="2.53173" transform="matrix(0.866025 -0.5 -0.00462529 0.999989 904.052 429.697)" fill="#171753"/>
<rect width="55.5879" height="5.06345" rx="2.53173" transform="matrix(0.866025 -0.5 -0.00462529 0.999989 956.567 399.376)" fill="#171753"/>
<rect width="38.9837" height="5.06345" rx="2.53173" transform="matrix(0.866025 -0.5 -0.00462529 0.999989 851.466 474.484)" stroke="#5ED9D1" stroke-width="3.08116"/>
<rect width="93.1277" height="5.06345" rx="2.53173" transform="matrix(0.866025 -0.5 -0.00462529 0.999989 893.981 449.94)" stroke="#5ED9D1" stroke-width="3.08116"/>
<rect width="91.4673" height="5.06345" rx="2.53173" transform="matrix(0.866025 -0.5 -0.00462529 0.999989 851.399 488.952)" fill="#171753"/>
<rect width="38.9837" height="5.06345" rx="2.53173" transform="matrix(0.866025 -0.5 -0.00462529 0.999989 851.334 503.42)" stroke="#171753" stroke-width="1.8487"/>
<rect width="93.1277" height="5.06345" rx="2.53173" transform="matrix(0.866025 -0.5 -0.00462529 0.999989 893.846 478.873)" stroke="#171753" stroke-width="1.8487"/>
</g>
<defs>
<clipPath id="clip0_1317_19264">
<rect width="1550" height="600" fill="white"/>
</clipPath>
</defs>
</svg>
