<svg viewBox="0 0 16 16" fill="none" preserveAspectRatio="xMidYMid meet" data-rnwibasecard--40nmj2-hover="true" data-rnwi-handle="nearest" class="r-1rasi3h" style="vertical-align: middle; width: 32px; height: 32px;"><path fill-rule="evenodd" clip-rule="evenodd" d="M4 .4A2.6 2.6 0 001.4 3v10A2.6 2.6 0 004 15.6h8a2.6 2.6 0 002.6-2.6V6.328a2.6 2.6 0 00-.761-1.838L10.51 1.162A2.6 2.6 0 008.672.4H4zM2.6 3A1.4 1.4 0 014 1.6h3.9v2.9a2.6 2.6 0 002.6 2.6h2.9V13a1.4 1.4 0 01-1.4 1.4H4A1.4 1.4 0 012.6 13V3zm10.733 2.9a1.399 1.399 0 00-.343-.562L9.662 2.01a1.4 1.4 0 00-.562-.343V4.5a1.4 1.4 0 001.4 1.4h2.833z" fill="currentColor"></path></svg>