<svg width="1900" height="600" viewBox="0 0 1900 600" fill="none" xmlns="http://www.w3.org/2000/svg">
<g clip-path="url(#clip0_1203_6094)">
<rect width="1900" height="600" fill="url(#paint0_linear_1203_6094)"/>
<path d="M638 233H424V369H638V233Z" fill="#171753"/>
<path d="M638 220H424V232H638V220Z" fill="#9BE7C4"/>
<path fill-rule="evenodd" clip-rule="evenodd" d="M424 229L635 229L635 233L424 233L424 229Z" fill="#171753"/>
<path fill-rule="evenodd" clip-rule="evenodd" d="M458 365L666 365L666 369L458 369L458 365Z" fill="#49CE8B"/>
<path fill-rule="evenodd" clip-rule="evenodd" d="M634.019 220.974H426.981L426.981 368.026H634.019V220.974ZM426.981 217C424.783 217 423 218.779 423 220.974V368.026C423 370.221 424.783 372 426.981 372H634.019C636.217 372 638 370.221 638 368.026V220.974C638 218.779 636.217 217 634.019 217H426.981Z" fill="#9BE7C4"/>
<path d="M652 253H440V393H652V253Z" fill="#171753"/>
<path d="M652 239H437V251H652V239Z" fill="#9BE7C4"/>
<path fill-rule="evenodd" clip-rule="evenodd" d="M440 249L649 249L649 253L440 253L440 249Z" fill="#171753"/>
<path fill-rule="evenodd" clip-rule="evenodd" d="M648.019 241H440.981L440.981 389H648.019V241ZM440.981 237C438.783 237 437 238.791 437 241V389C437 391.209 438.783 393 440.981 393H648.019C650.217 393 652 391.209 652 389V241C652 238.791 650.217 237 648.019 237H440.981Z" fill="#9BE7C4"/>
<path d="M456 243C456 244.105 455.105 245 454 245C452.895 245 452 244.105 452 243C452 241.895 452.895 241 454 241C455.105 241 456 241.895 456 243Z" fill="#171753"/>
<path d="M442 223C442 224.105 441.105 225 440 225C438.895 225 438 224.105 438 223C438 221.895 438.895 221 440 221C441.105 221 442 221.895 442 223Z" fill="#171753"/>
<path d="M465 243C465 244.105 464.105 245 463 245C461.895 245 461 244.105 461 243C461 241.895 461.895 241 463 241C464.105 241 465 241.895 465 243Z" fill="#171753"/>
<path d="M450 223C450 224.105 449.105 225 448 225C446.895 225 446 224.105 446 223C446 221.895 446.895 221 448 221C449.105 221 450 221.895 450 223Z" fill="#171753"/>
<path d="M472 243C472 244.105 471.105 245 470 245C468.895 245 468 244.105 468 243C468 241.895 468.895 241 470 241C471.105 241 472 241.895 472 243Z" fill="#171753"/>
<path d="M458 223C458 224.105 457.105 225 456 225C454.895 225 454 224.105 454 223C454 221.895 454.895 221 456 221C457.105 221 458 221.895 458 223Z" fill="#171753"/>
<path d="M662 269H455V413H662V269Z" fill="#171753"/>
<path d="M664 275H612V413H664V275Z" fill="#49CE8B"/>
<path d="M466 275H454V413H466V275Z" fill="#49CE8B"/>
<path d="M666 263H450V275H666V263Z" fill="#9BE7C4"/>
<path d="M466 290H454V293H466V290Z" fill="#171753"/>
<path d="M466 302H454V305H466V302Z" fill="#171753"/>
<path d="M466 314H454V317H466V314Z" fill="#171753"/>
<path d="M466 326H454V329H466V326Z" fill="#171753"/>
<path d="M466 338H454V341H466V338Z" fill="#171753"/>
<path d="M466 350H454V353H466V350Z" fill="#171753"/>
<path d="M466 362H454V366H466V362Z" fill="#171753"/>
<path d="M466 374H454V378H466V374Z" fill="#171753"/>
<path d="M664 350H613V353H664V350Z" fill="#171753"/>
<path d="M664 362H613V366H664V362Z" fill="#171753"/>
<path d="M664 374H613V378H664V374Z" fill="#171753"/>
<path d="M651 326H621V329H651V326Z" fill="#171753"/>
<path d="M651 338H621V341H651V338Z" fill="#171753"/>
<path d="M664 386H613V390H664V386Z" fill="#171753"/>
<path d="M664 398H613V402H664V398Z" fill="#171753"/>
<path d="M656 308H651V311H656V308Z" fill="#171753"/>
<path d="M638 308H634V311H638V308Z" fill="#171753"/>
<path d="M656 296H651V299H656V296Z" fill="#171753"/>
<path d="M638 296H634V299H638V296Z" fill="#171753"/>
<path d="M621 308H617V311H621V308Z" fill="#171753"/>
<path d="M621 296H617V299H621V296Z" fill="#171753"/>
<path d="M656 284H651V287H656V284Z" fill="#171753"/>
<path d="M638 284H634V287H638V284Z" fill="#171753"/>
<path d="M621 284H617V287H621V284Z" fill="#171753"/>
<path d="M530 402H527V404H530V402Z" fill="#171753"/>
<path d="M517 402H515V404H517V402Z" fill="#171753"/>
<path d="M505 402H502V404H505V402Z" fill="#171753"/>
<path fill-rule="evenodd" clip-rule="evenodd" d="M464 417V275H468V417H464ZM608 417V275H612V417H608Z" fill="#171753"/>
<path d="M481 289H479V294H481V289Z" fill="#49CE8B"/>
<path d="M481 296H479V302H481V296Z" fill="#49CE8B"/>
<path d="M481 304H479V310H481V304Z" fill="#49CE8B"/>
<path fill-rule="evenodd" clip-rule="evenodd" d="M507 300H486V298H507V300Z" fill="#9BE7C4"/>
<path fill-rule="evenodd" clip-rule="evenodd" d="M583 300H511V298H583V300Z" fill="#9BE7C4"/>
<path fill-rule="evenodd" clip-rule="evenodd" d="M505 293H486V290H505V293Z" fill="#FFC78F"/>
<path fill-rule="evenodd" clip-rule="evenodd" d="M551 293H510V290H551V293Z" fill="#FFA6A6"/>
<path d="M481 311H479V317H481V311Z" fill="#49CE8B"/>
<path d="M481 319H479V324H481V319Z" fill="#49CE8B"/>
<path d="M481 327H479V332H481V327Z" fill="#49CE8B"/>
<path d="M481 335H479V340H481V335Z" fill="#49CE8B"/>
<path d="M481 342H479V348H481V342Z" fill="#49CE8B"/>
<path d="M481 349H479V355H481V349Z" fill="#49CE8B"/>
<path d="M481 357H479V362H481V357Z" fill="#49CE8B"/>
<path fill-rule="evenodd" clip-rule="evenodd" d="M507 316H486V313H507V316Z" fill="#FFA6A6"/>
<path fill-rule="evenodd" clip-rule="evenodd" d="M525 316H511V313H525V316Z" fill="#9BE7C4"/>
<path fill-rule="evenodd" clip-rule="evenodd" d="M550 316H529V313H550V316Z" fill="#FFC78F"/>
<path fill-rule="evenodd" clip-rule="evenodd" d="M592 316H554V313H592V316Z" fill="#9BE7C4"/>
<path fill-rule="evenodd" clip-rule="evenodd" d="M507 361H486V359H507V361Z" fill="#9BE7C4"/>
<path fill-rule="evenodd" clip-rule="evenodd" d="M551 361H511V359H551V361Z" fill="#9BE7C4"/>
<path fill-rule="evenodd" clip-rule="evenodd" d="M493 324H486V321H493V324Z" fill="#FFA6A6"/>
<path fill-rule="evenodd" clip-rule="evenodd" d="M516 324H498V321H516V324Z" fill="#FFA6A6"/>
<path fill-rule="evenodd" clip-rule="evenodd" d="M530 324H519V321H530V324Z" fill="#FFA6A6"/>
<path fill-rule="evenodd" clip-rule="evenodd" d="M501 340H486V337H501V340Z" fill="#9BE7C4"/>
<path fill-rule="evenodd" clip-rule="evenodd" d="M516 340H505V337H516V340Z" fill="#9BE7C4"/>
<path fill-rule="evenodd" clip-rule="evenodd" d="M537 340H519V337H537V340Z" fill="#9BE7C4"/>
<path fill-rule="evenodd" clip-rule="evenodd" d="M494 346H486V343H494V346Z" fill="#FFA6A6"/>
<path fill-rule="evenodd" clip-rule="evenodd" d="M507 346H498V343H507V346Z" fill="#9BE7C4"/>
<path fill-rule="evenodd" clip-rule="evenodd" d="M524 346H510V343H524V346Z" fill="#FFC78F"/>
<path fill-rule="evenodd" clip-rule="evenodd" d="M505 354H486V351H505V354Z" fill="#FFA6A6"/>
<path fill-rule="evenodd" clip-rule="evenodd" d="M572 354H510V351H572V354Z" fill="#FFC78F"/>
<path d="M481 366H479V371H481V366Z" fill="#49CE8B"/>
<path d="M481 372H479V378H481V372Z" fill="#49CE8B"/>
<path d="M481 380H479V385H481V380Z" fill="#49CE8B"/>
<path d="M481 388H479V393H481V388Z" fill="#49CE8B"/>
<path d="M481 396H479V401H481V396Z" fill="#49CE8B"/>
<path fill-rule="evenodd" clip-rule="evenodd" d="M507 369H486V366H507V369Z" fill="#FFA6A6"/>
<path fill-rule="evenodd" clip-rule="evenodd" d="M585 369H511V366H585V369Z" fill="#FFC78F"/>
<path fill-rule="evenodd" clip-rule="evenodd" d="M493 377H486V374H493V377Z" fill="#9BE7C4"/>
<path fill-rule="evenodd" clip-rule="evenodd" d="M516 377H498V374H516V377Z" fill="#9BE7C4"/>
<path fill-rule="evenodd" clip-rule="evenodd" d="M530 377H519V374H530V377Z" fill="#9BE7C4"/>
<path fill-rule="evenodd" clip-rule="evenodd" d="M501 393H486V390H501V393Z" fill="#FFA6A6"/>
<path fill-rule="evenodd" clip-rule="evenodd" d="M516 393H505V390H516V393Z" fill="#9BE7C4"/>
<path fill-rule="evenodd" clip-rule="evenodd" d="M537 393H519V390H537V393Z" fill="#9BE7C4"/>
<path fill-rule="evenodd" clip-rule="evenodd" d="M494 399H486V396H494V399Z" fill="#FFA6A6"/>
<path fill-rule="evenodd" clip-rule="evenodd" d="M507 399H498V396H507V399Z" fill="#9BE7C4"/>
<path fill-rule="evenodd" clip-rule="evenodd" d="M524 399H510V396H524V399Z" fill="#9BE7C4"/>
<path fill-rule="evenodd" clip-rule="evenodd" d="M455 273L662 273L662 277L455 277L455 273Z" fill="#171753"/>
<path fill-rule="evenodd" clip-rule="evenodd" d="M455 408L662 408L662 417L455 417L455 408Z" fill="#171753"/>
<path d="M471 267C471 268.105 470.105 269 469 269C467.895 269 467 268.105 467 267C467 265.895 467.895 265 469 265C470.105 265 471 265.895 471 267Z" fill="#171753"/>
<path d="M478 267C478 268.105 477.105 269 476 269C474.895 269 474 268.105 474 267C474 265.895 474.895 265 476 265C477.105 265 478 265.895 478 267Z" fill="#171753"/>
<path d="M486 267C486 268.105 485.105 269 484 269C482.895 269 482 268.105 482 267C482 265.895 482.895 265 484 265C485.105 265 486 265.895 486 267Z" fill="#171753"/>
<path fill-rule="evenodd" clip-rule="evenodd" d="M662 265H454L454 413H662V265ZM454 261C451.791 261 450 262.791 450 265V413C450 415.209 451.791 417 454 417H662C664.209 417 666 415.209 666 413V265C666 262.791 664.209 261 662 261H454Z" fill="#9BE7C4"/>
<path d="M1475 233H1261V369H1475V233Z" fill="#171753"/>
<path d="M1475 220H1261V232H1475V220Z" fill="#9BE7C4"/>
<path fill-rule="evenodd" clip-rule="evenodd" d="M1261 229L1472 229L1472 233L1261 233L1261 229Z" fill="#171753"/>
<path fill-rule="evenodd" clip-rule="evenodd" d="M1264 365L1472 365L1472 369L1264 369L1264 365Z" fill="#171753"/>
<path fill-rule="evenodd" clip-rule="evenodd" d="M1471.02 220.974H1263.98L1263.98 368.026H1471.02V220.974ZM1263.98 217C1261.78 217 1260 218.779 1260 220.974V368.026C1260 370.221 1261.78 372 1263.98 372H1471.02C1473.22 372 1475 370.221 1475 368.026V220.974C1475 218.779 1473.22 217 1471.02 217H1263.98Z" fill="#9BE7C4"/>
<path d="M1460 253H1248V389H1460V253Z" fill="#171753"/>
<path d="M1460 239H1244V251H1460V239Z" fill="#9BE7C4"/>
<path fill-rule="evenodd" clip-rule="evenodd" d="M1248 249L1455 249L1455 253L1248 253L1248 249Z" fill="#171753"/>
<path fill-rule="evenodd" clip-rule="evenodd" d="M1248 384L1455 384L1455 389L1248 389L1248 384Z" fill="#171753"/>
<path fill-rule="evenodd" clip-rule="evenodd" d="M1456 241H1248L1248 389H1456V241ZM1248 237C1245.79 237 1244 238.791 1244 241V389C1244 391.209 1245.79 393 1248 393H1456C1458.21 393 1460 391.209 1460 389V241C1460 238.791 1458.21 237 1456 237H1248Z" fill="#9BE7C4"/>
<path d="M1264 243C1264 244.105 1263.1 245 1262 245C1260.9 245 1260 244.105 1260 243C1260 241.895 1260.9 241 1262 241C1263.1 241 1264 241.895 1264 243Z" fill="#171753"/>
<path d="M1278 223C1278 224.105 1277.1 225 1276 225C1274.9 225 1274 224.105 1274 223C1274 221.895 1274.9 221 1276 221C1277.1 221 1278 221.895 1278 223Z" fill="#171753"/>
<path d="M1272 243C1272 244.105 1271.1 245 1270 245C1268.9 245 1268 244.105 1268 243C1268 241.895 1268.9 241 1270 241C1271.1 241 1272 241.895 1272 243Z" fill="#171753"/>
<path d="M1287 223C1287 224.105 1286.1 225 1285 225C1283.9 225 1283 224.105 1283 223C1283 221.895 1283.9 221 1285 221C1286.1 221 1287 221.895 1287 223Z" fill="#171753"/>
<path d="M1280 243C1280 244.105 1279.1 245 1278 245C1276.9 245 1276 244.105 1276 243C1276 241.895 1276.9 241 1278 241C1279.1 241 1280 241.895 1280 243Z" fill="#171753"/>
<path d="M1295 223C1295 224.105 1294.1 225 1293 225C1291.9 225 1291 224.105 1291 223C1291 221.895 1291.9 221 1293 221C1294.1 221 1295 221.895 1295 223Z" fill="#171753"/>
<path d="M1440 269H1232V413H1440V269Z" fill="#171753"/>
<path d="M1442 275H1389V413H1442V275Z" fill="#49CE8B"/>
<path d="M1243 275H1231V413H1243V275Z" fill="#49CE8B"/>
<path d="M1443 263H1228V275H1443V263Z" fill="#9BE7C4"/>
<path d="M1243 290H1231V293H1243V290Z" fill="#171753"/>
<path d="M1243 302H1231V305H1243V302Z" fill="#171753"/>
<path d="M1243 314H1231V317H1243V314Z" fill="#171753"/>
<path d="M1243 326H1231V329H1243V326Z" fill="#171753"/>
<path d="M1243 338H1231V341H1243V338Z" fill="#171753"/>
<path d="M1243 350H1231V353H1243V350Z" fill="#171753"/>
<path d="M1243 362H1231V366H1243V362Z" fill="#171753"/>
<path d="M1243 374H1231V378H1243V374Z" fill="#171753"/>
<path d="M1442 350H1390V353H1442V350Z" fill="#171753"/>
<path d="M1442 362H1390V366H1442V362Z" fill="#171753"/>
<path d="M1442 374H1390V378H1442V374Z" fill="#171753"/>
<path d="M1429 326H1399V329H1429V326Z" fill="#171753"/>
<path d="M1429 338H1399V341H1429V338Z" fill="#171753"/>
<path d="M1442 386H1390V390H1442V386Z" fill="#171753"/>
<path d="M1442 398H1390V402H1442V398Z" fill="#171753"/>
<path d="M1434 308H1429V311H1434V308Z" fill="#171753"/>
<path d="M1416 308H1412V311H1416V308Z" fill="#171753"/>
<path d="M1434 296H1429V299H1434V296Z" fill="#171753"/>
<path d="M1416 296H1412V299H1416V296Z" fill="#171753"/>
<path d="M1399 308H1394V311H1399V308Z" fill="#171753"/>
<path d="M1399 296H1394V299H1399V296Z" fill="#171753"/>
<path d="M1434 284H1429V287H1434V284Z" fill="#171753"/>
<path d="M1416 284H1412V287H1416V284Z" fill="#171753"/>
<path d="M1399 284H1394V287H1399V284Z" fill="#171753"/>
<path d="M1308 402H1304V404H1308V402Z" fill="#171753"/>
<path d="M1295 402H1292V404H1295V402Z" fill="#171753"/>
<path d="M1283 402H1279V404H1283V402Z" fill="#171753"/>
<path d="M1259 289H1256V294H1259V289Z" fill="#49CE8B"/>
<path d="M1259 296H1256V302H1259V296Z" fill="#49CE8B"/>
<path d="M1259 304H1256V310H1259V304Z" fill="#49CE8B"/>
<path fill-rule="evenodd" clip-rule="evenodd" d="M1285 300H1263V298H1285V300Z" fill="#9BE7C4"/>
<path fill-rule="evenodd" clip-rule="evenodd" d="M1360 300H1289V298H1360V300Z" fill="#9BE7C4"/>
<path fill-rule="evenodd" clip-rule="evenodd" d="M1283 293H1263V290H1283V293Z" fill="#FFC78F"/>
<path fill-rule="evenodd" clip-rule="evenodd" d="M1328 293H1288V290H1328V293Z" fill="#FFA6A6"/>
<path d="M1259 311H1256V317H1259V311Z" fill="#49CE8B"/>
<path d="M1259 319H1256V324H1259V319Z" fill="#49CE8B"/>
<path d="M1259 327H1256V332H1259V327Z" fill="#49CE8B"/>
<path d="M1259 335H1256V340H1259V335Z" fill="#49CE8B"/>
<path d="M1259 342H1256V348H1259V342Z" fill="#49CE8B"/>
<path d="M1259 349H1256V355H1259V349Z" fill="#49CE8B"/>
<path d="M1259 357H1256V362H1259V357Z" fill="#49CE8B"/>
<path fill-rule="evenodd" clip-rule="evenodd" d="M1285 316H1263V313H1285V316Z" fill="#FFA6A6"/>
<path fill-rule="evenodd" clip-rule="evenodd" d="M1303 316H1289V313H1303V316Z" fill="#9BE7C4"/>
<path fill-rule="evenodd" clip-rule="evenodd" d="M1327 316H1306V313H1327V316Z" fill="#FFC78F"/>
<path fill-rule="evenodd" clip-rule="evenodd" d="M1369 316H1332V313H1369V316Z" fill="#9BE7C4"/>
<path fill-rule="evenodd" clip-rule="evenodd" d="M1285 361H1263V359H1285V361Z" fill="#9BE7C4"/>
<path fill-rule="evenodd" clip-rule="evenodd" d="M1328 361H1289V359H1328V361Z" fill="#9BE7C4"/>
<path fill-rule="evenodd" clip-rule="evenodd" d="M1271 324H1263V321H1271V324Z" fill="#FFA6A6"/>
<path fill-rule="evenodd" clip-rule="evenodd" d="M1293 324H1275V321H1293V324Z" fill="#FFA6A6"/>
<path fill-rule="evenodd" clip-rule="evenodd" d="M1308 324H1297V321H1308V324Z" fill="#FFA6A6"/>
<path fill-rule="evenodd" clip-rule="evenodd" d="M1279 340H1263V337H1279V340Z" fill="#9BE7C4"/>
<path fill-rule="evenodd" clip-rule="evenodd" d="M1293 340H1283V337H1293V340Z" fill="#9BE7C4"/>
<path fill-rule="evenodd" clip-rule="evenodd" d="M1315 340H1297V337H1315V340Z" fill="#9BE7C4"/>
<path fill-rule="evenodd" clip-rule="evenodd" d="M1272 346H1263V343H1272V346Z" fill="#FFA6A6"/>
<path fill-rule="evenodd" clip-rule="evenodd" d="M1285 346H1275V343H1285V346Z" fill="#9BE7C4"/>
<path fill-rule="evenodd" clip-rule="evenodd" d="M1302 346H1288V343H1302V346Z" fill="#FFC78F"/>
<path fill-rule="evenodd" clip-rule="evenodd" d="M1283 354H1263V351H1283V354Z" fill="#FFA6A6"/>
<path fill-rule="evenodd" clip-rule="evenodd" d="M1350 354H1288V351H1350V354Z" fill="#FFC78F"/>
<path d="M1259 366H1256V371H1259V366Z" fill="#49CE8B"/>
<path d="M1259 372H1256V378H1259V372Z" fill="#49CE8B"/>
<path d="M1259 380H1256V385H1259V380Z" fill="#49CE8B"/>
<path d="M1259 388H1256V393H1259V388Z" fill="#49CE8B"/>
<path d="M1259 396H1256V401H1259V396Z" fill="#49CE8B"/>
<path fill-rule="evenodd" clip-rule="evenodd" d="M1285 369H1263V366H1285V369Z" fill="#FFA6A6"/>
<path fill-rule="evenodd" clip-rule="evenodd" d="M1363 369H1289V366H1363V369Z" fill="#FFC78F"/>
<path fill-rule="evenodd" clip-rule="evenodd" d="M1271 377H1263V374H1271V377Z" fill="#9BE7C4"/>
<path fill-rule="evenodd" clip-rule="evenodd" d="M1293 377H1275V374H1293V377Z" fill="#9BE7C4"/>
<path fill-rule="evenodd" clip-rule="evenodd" d="M1308 377H1297V374H1308V377Z" fill="#9BE7C4"/>
<path fill-rule="evenodd" clip-rule="evenodd" d="M1279 393H1263V390H1279V393Z" fill="#FFA6A6"/>
<path fill-rule="evenodd" clip-rule="evenodd" d="M1293 393H1283V390H1293V393Z" fill="#9BE7C4"/>
<path fill-rule="evenodd" clip-rule="evenodd" d="M1315 393H1297V390H1315V393Z" fill="#9BE7C4"/>
<path fill-rule="evenodd" clip-rule="evenodd" d="M1272 399H1263V396H1272V399Z" fill="#FFA6A6"/>
<path fill-rule="evenodd" clip-rule="evenodd" d="M1285 399H1275V396H1285V399Z" fill="#9BE7C4"/>
<path fill-rule="evenodd" clip-rule="evenodd" d="M1302 399H1288V396H1302V399Z" fill="#9BE7C4"/>
<path fill-rule="evenodd" clip-rule="evenodd" d="M1232 273L1440 273L1440 277L1232 277L1232 273Z" fill="#171753"/>
<path fill-rule="evenodd" clip-rule="evenodd" d="M1232 408L1440 408L1440 413L1232 413L1232 408Z" fill="#171753"/>
<path d="M1248 267C1248 268.105 1247.1 269 1246 269C1244.9 269 1244 268.105 1244 267C1244 265.895 1244.9 265 1246 265C1247.1 265 1248 265.895 1248 267Z" fill="#171753"/>
<path d="M1256 267C1256 268.105 1255.1 269 1254 269C1252.9 269 1252 268.105 1252 267C1252 265.895 1252.9 265 1254 265C1255.1 265 1256 265.895 1256 267Z" fill="#171753"/>
<path d="M1264 267C1264 268.105 1263.1 269 1262 269C1260.9 269 1260 268.105 1260 267C1260 265.895 1260.9 265 1262 265C1263.1 265 1264 265.895 1264 267Z" fill="#171753"/>
<path fill-rule="evenodd" clip-rule="evenodd" d="M1439.02 265H1231.98L1231.98 413H1439.02V265ZM1231.98 261C1229.78 261 1228 262.791 1228 265V413C1228 415.209 1229.78 417 1231.98 417H1439.02C1441.22 417 1443 415.209 1443 413V265C1443 262.791 1441.22 261 1439.02 261H1231.98Z" fill="#9BE7C4"/>
<g clip-path="url(#clip1_1203_6094)">
<path d="M1096.69 150.488C1111.67 155.067 1123.16 164.84 1134.05 175.733C1144.51 186.195 1154.88 197.218 1168.53 203.583C1196.61 216.707 1229.59 210.041 1257.1 198.803C1287.83 186.231 1316.73 167.316 1349.94 161.798C1366.23 159.092 1383.7 160.362 1397.86 169.483C1409.62 177.01 1416 188.944 1418.65 202.348C1420.16 209.969 1420.68 218.139 1421.09 225.882L1424.64 225.882C1424.53 223.686 1424.41 221.07 1424.25 218.882C1423.32 206.166 1421.6 193.013 1414.89 181.911C1407.31 169.303 1393.87 161.302 1379.65 158.389C1362.29 154.837 1344.28 158.224 1327.71 163.728C1311.74 169.024 1296.63 176.508 1281.49 183.784C1252.61 197.67 1220.61 211.77 1187.75 205.908C1180.05 204.584 1172.63 201.974 1165.79 198.186C1159.08 194.405 1153.16 189.432 1147.58 184.143C1136.7 173.796 1126.82 162.027 1113.8 154.198C1100.17 146.068 1084.28 142.559 1068.49 144.195L1068.42 144.195L1068.42 147.826C1077.92 146.786 1087.55 147.691 1096.69 150.488Z" fill="#FFC78F"/>
<path d="M1115.79 204.666C1150.15 217.49 1188 205.384 1213.7 192.955C1226.92 186.569 1239.8 178.984 1252.26 171.65C1268.39 162.157 1285.07 152.347 1302.61 145.042C1319.73 137.916 1363.18 123.744 1396.72 145.918C1416 158.676 1429.4 182.213 1436.56 215.875C1437.23 219.04 1437.84 222.689 1438.43 225.896L1439.15 225.896C1438.55 222.638 1437.93 218.946 1437.25 215.724C1430.07 181.876 1416.55 158.188 1397.1 145.322C1363.28 122.955 1319.56 137.213 1302.34 144.382C1284.75 151.701 1268.05 161.525 1251.91 171.033C1239.46 178.36 1226.59 185.93 1213.39 192.31C1187.82 204.674 1150.18 216.708 1116.05 203.999C1103.88 199.457 1092.78 191.965 1082.06 184.717C1077.59 181.696 1073.06 178.647 1068.41 175.784L1068.41 176.623C1072.91 179.415 1077.3 182.364 1081.64 185.313C1092.41 192.582 1103.54 200.103 1115.79 204.666Z" fill="#5ED9D1"/>
</g>
<g clip-path="url(#clip2_1203_6094)">
<path d="M794.686 150.488C779.708 155.067 768.214 164.84 757.33 175.733C746.871 186.195 736.497 197.218 722.848 203.583C694.766 216.707 661.785 210.041 634.278 198.803C603.546 186.231 574.652 167.316 541.442 161.798C525.149 159.092 507.678 160.362 493.518 169.483C481.758 177.01 475.379 188.944 472.728 202.348C471.22 209.969 470.702 218.139 470.293 225.882L466.737 225.882C466.852 223.686 466.967 221.07 467.125 218.882C468.059 206.166 469.783 193.013 476.485 181.911C484.064 169.303 497.505 161.302 511.729 158.389C529.093 154.837 547.095 158.224 563.668 163.728C579.638 169.024 594.753 176.508 609.889 183.784C638.768 197.67 670.772 211.77 703.624 205.908C711.326 204.584 718.751 201.974 725.585 198.186C732.302 194.405 738.221 189.432 743.796 184.143C754.68 173.796 764.557 162.027 777.574 154.198C791.204 146.068 807.1 142.559 822.89 144.195L822.962 144.195L822.962 147.826C813.454 146.786 803.833 147.691 794.686 150.488Z" fill="#FFC78F"/>
<path d="M775.591 204.666C741.224 217.49 703.379 205.384 677.683 192.955C664.457 186.569 651.577 178.984 639.12 171.65C622.992 162.157 606.311 152.347 588.768 145.042C571.649 137.916 528.201 123.744 494.66 145.918C475.379 158.676 461.974 182.213 454.818 215.875C454.15 219.04 453.54 222.689 452.951 225.896L452.232 225.896C452.828 222.638 453.446 218.946 454.129 215.724C461.313 181.876 474.833 158.188 494.279 145.322C528.094 122.955 571.814 137.213 589.041 144.382C606.627 151.701 623.33 161.525 639.472 171.033C651.921 178.36 664.788 185.93 677.984 192.31C703.559 204.674 741.202 216.708 775.333 203.999C787.495 199.457 798.594 191.965 809.319 184.717C813.788 181.696 818.321 178.647 822.969 175.784L822.969 176.623C818.472 179.415 814.082 182.364 809.736 185.313C798.968 192.582 787.84 200.103 775.591 204.666Z" fill="#5ED9D1"/>
</g>
<g clip-path="url(#clip3_1203_6094)">
<path d="M948.512 415C948.901 414.561 949.232 414.075 949.498 413.552C949.718 413.083 949.754 412.55 949.601 412.055C949.447 411.561 949.114 411.142 948.668 410.88C948.321 410.626 947.903 410.49 947.474 410.49C947.045 410.49 946.627 410.626 946.281 410.88C945.833 411.142 945.499 411.562 945.346 412.057C945.192 412.553 945.229 413.088 945.451 413.557C945.716 414.08 946.048 414.566 946.437 415.005L948.512 415Z" fill="white"/>
<path d="M1134 227.439C1133.56 227.052 1133.07 226.721 1132.55 226.453C1132.08 226.232 1131.55 226.194 1131.05 226.348C1130.56 226.502 1130.14 226.835 1129.87 227.283C1129.62 227.629 1129.48 228.047 1129.48 228.477C1129.48 228.906 1129.62 229.324 1129.87 229.67C1130.14 230.117 1130.56 230.45 1131.05 230.602C1131.55 230.755 1132.08 230.717 1132.55 230.495C1133.07 230.228 1133.56 229.896 1134 229.509L1134 227.439Z" fill="white"/>
<path d="M947.739 380.16C1034.43 379.377 1099.5 309.427 1099.09 228.088C1098.66 142.282 1029.18 76.4877 947.204 76.882C860.37 77.3022 795.452 147.688 795.856 228.871C796.277 314.465 865.558 380.15 947.739 380.16ZM1095.06 228.456C1095.06 309.753 1028.87 376.009 947.562 376.056C866.259 376.103 799.992 309.961 799.888 228.638C799.784 147.315 866.119 80.8771 947.511 80.8978C1028.79 80.9289 1095.05 147.169 1095.06 228.456Z" fill="white"/>
<path d="M1117.79 221.088C1115.52 180.956 1101.37 145.711 1074.87 115.468C1074.72 115.252 1074.55 115.058 1074.35 114.892C1073.78 114.539 1073.48 113.159 1072.65 113.963C1071.81 114.768 1073.05 115.286 1073.49 115.774C1083.76 127.236 1092.41 140.051 1099.2 153.862C1110.26 176.227 1116.16 200.792 1116.46 225.742C1116.45 225.915 1116.45 226.089 1116.46 226.261C1116.63 227.034 1116.04 228.425 1117.17 228.404C1118.3 228.383 1117.69 227.019 1117.75 226.266C1117.85 224.544 1117.79 222.811 1117.79 221.088Z" fill="#9BE7C4"/>
<path d="M940.221 58.1564C899.999 60.4029 864.681 74.5725 834.376 101.153C833.919 101.552 833.468 101.952 833.021 102.362C832.772 102.595 832.503 102.88 832.767 103.228C833.094 103.69 833.478 103.596 833.852 103.27C834.308 102.875 834.765 102.481 835.216 102.081C862.087 78.5157 893.208 64.5278 928.764 60.4808C934.338 59.834 939.943 59.4877 945.554 59.4431C946.265 59.4431 947.479 59.7855 947.5 58.779C947.5 57.622 946.302 58.1927 945.643 58.1616C943.842 58.0993 942.031 58.1564 940.221 58.1564Z" fill="#9BE7C4"/>
<path d="M954.707 398.583C994.933 396.575 1030.26 382.411 1060.55 355.805C1061.18 355.25 1062.89 354.726 1061.95 353.657C1061.26 352.858 1060.43 354.331 1059.79 354.887C1028.32 382.328 991.753 396.633 949.959 397.468C949.356 397.45 948.753 397.476 948.154 397.546C947.879 397.592 947.469 397.893 947.433 398.127C947.35 398.646 947.785 398.812 948.258 398.807C949.383 398.807 950.504 398.807 951.625 398.755C952.631 398.718 953.669 398.64 954.707 398.583Z" fill="#9BE7C4"/>
<path d="M777.152 235.761C779.383 275.857 793.49 311.087 819.931 341.335C820.184 341.685 820.477 342.006 820.802 342.29C821.269 342.627 821.503 343.815 822.359 343.011C822.997 342.404 822.141 341.973 821.799 341.553C820.584 340.095 819.287 338.705 818.078 337.242C792.567 306.438 779.284 271.069 778.495 231.045C778.495 230.526 778.495 230.007 778.464 229.489C778.433 228.97 778.345 228.389 777.624 228.508C777.037 228.601 777.178 229.151 777.178 229.546C777.146 231.626 777.152 233.696 777.152 235.761Z" fill="#9BE7C4"/>
<path d="M778.355 221.727C778.781 217.192 779.071 213.352 779.512 209.534C783.949 171.357 799.644 138.494 826.167 110.746C826.422 110.513 826.661 110.263 826.883 109.999C827.252 109.506 828.284 109.065 827.485 108.36C826.686 107.654 826.37 108.801 825.991 109.19C797.145 138.422 779.915 177.148 777.515 218.147C777.458 219.086 777.095 220.139 778.355 221.727Z" fill="#9BE7C4"/>
<path d="M1116.99 235.684C1116.07 236.638 1116.33 237.629 1116.28 238.496C1113.88 274.628 1101.36 306.815 1078.71 335.057C1075.41 339.161 1071.87 343.068 1068.21 346.856C1067.76 347.318 1066.6 347.857 1067.56 348.651C1068.32 349.284 1068.66 348.132 1069.05 347.712C1093.81 322.232 1109.34 292.019 1115.4 256.982C1116.47 250.86 1117.17 244.678 1117.47 238.47C1117.49 237.619 1117.78 236.753 1116.99 235.684Z" fill="#9BE7C4"/>
<path d="M954.37 59.3557C958.728 59.776 962.547 60.0873 966.35 60.5231C1001.52 64.5234 1032.37 78.3193 1059.06 101.511C1061.34 103.493 1063.47 105.662 1065.72 107.655C1066.24 108.106 1066.76 109.31 1067.54 108.516C1068.42 107.618 1067.02 107.26 1066.6 106.85C1037.33 78.0474 998.593 60.8669 957.597 58.51C956.72 58.4633 955.745 58.069 954.37 59.3557Z" fill="#9BE7C4"/>
<path d="M940.599 397.577C936.376 397.183 932.713 396.908 929.071 396.498C890.494 392.14 857.324 376.31 829.374 349.434C829.187 349.252 829.016 349.06 828.819 348.915C828.388 348.547 827.968 347.805 827.34 348.458C826.593 349.237 827.646 349.465 827.968 349.787C832.478 354.315 837.271 358.552 842.319 362.472C870.226 384.174 901.828 396.166 937.123 398.449C938.073 398.49 939.141 398.911 940.599 397.577Z" fill="#9BE7C4"/>
<path d="M1077.67 356.505C1076.37 356.775 1075.45 357.507 1075.56 358.908C1075.6 359.482 1075.86 360.019 1076.29 360.405C1076.71 360.791 1077.27 360.995 1077.85 360.975C1078.43 360.955 1078.97 360.712 1079.37 360.297C1079.77 359.882 1079.99 359.328 1079.99 358.752C1079.96 357.382 1079.06 356.651 1077.67 356.505Z" fill="white"/>
<path d="M819.448 358.898C819.324 357.523 818.613 356.6 817.238 356.558C816.667 356.551 816.115 356.766 815.698 357.156C815.281 357.547 815.031 358.083 815 358.654C814.969 359.225 815.16 359.785 815.532 360.218C815.905 360.651 816.431 360.924 816.999 360.979C818.4 361.103 819.153 360.211 819.448 358.898Z" fill="white"/>
<path d="M819.448 98.1641C819.22 96.8152 818.468 95.9072 817.088 95.9747C816.519 96.0081 815.985 96.2592 815.597 96.6758C815.208 97.0925 814.995 97.6427 815.002 98.2122C815.009 98.7818 815.235 99.3269 815.633 99.7343C816.031 100.142 816.57 100.38 817.139 100.4C818.525 100.406 819.251 99.5079 819.448 98.1641Z" fill="white"/>
<path d="M1077.82 100.442C1079.16 100.199 1080.05 99.4566 1079.98 98.0609C1079.94 97.489 1079.69 96.954 1079.26 96.5678C1078.84 96.1816 1078.28 95.9742 1077.71 95.9889C1077.14 96.0037 1076.59 96.2394 1076.19 96.6469C1075.79 97.0543 1075.56 97.6019 1075.55 98.1751C1075.54 99.5604 1076.46 100.276 1077.82 100.442Z" fill="white"/>
<path d="M1017.92 400.991C1019.22 400.872 1020.07 400.244 1020.16 398.916C1020.26 397.473 1019.44 396.581 1018.05 396.529C1017.77 396.498 1017.49 396.526 1017.22 396.613C1016.95 396.7 1016.7 396.844 1016.49 397.034C1016.28 397.224 1016.11 397.457 1015.99 397.717C1015.88 397.977 1015.82 398.259 1015.83 398.542C1015.72 400.016 1016.56 400.747 1017.92 400.991Z" fill="white"/>
<path d="M1117.86 301.192C1119.14 301.021 1119.96 300.316 1119.93 299.008C1119.93 297.586 1119.05 296.782 1117.61 296.824C1117.33 296.815 1117.05 296.866 1116.79 296.972C1116.53 297.079 1116.29 297.239 1116.1 297.442C1115.9 297.646 1115.75 297.888 1115.66 298.153C1115.56 298.418 1115.52 298.701 1115.54 298.982C1115.55 300.399 1116.43 301.135 1117.86 301.192Z" fill="white"/>
<path d="M779.476 299.143C779.326 297.888 778.792 296.954 777.453 296.834C776.011 296.71 775.113 297.467 775.004 298.879C774.963 299.16 774.983 299.446 775.062 299.719C775.141 299.992 775.278 300.244 775.463 300.46C775.647 300.676 775.876 300.85 776.133 300.97C776.391 301.09 776.671 301.153 776.955 301.156C778.408 301.317 779.16 300.466 779.476 299.143Z" fill="white"/>
<path d="M1117.84 155.751C1116.48 155.797 1115.61 156.519 1115.53 157.769C1115.51 158.066 1115.55 158.364 1115.65 158.646C1115.75 158.927 1115.9 159.185 1116.1 159.406C1116.3 159.626 1116.54 159.803 1116.82 159.927C1117.09 160.051 1117.38 160.119 1117.68 160.126C1117.97 160.134 1118.27 160.081 1118.55 159.972C1118.83 159.862 1119.08 159.697 1119.29 159.488C1119.5 159.278 1119.67 159.028 1119.78 158.752C1119.89 158.477 1119.95 158.181 1119.94 157.883C1119.93 156.576 1119.08 155.896 1117.84 155.751Z" fill="white"/>
<path d="M879.157 58.2185C879.054 56.8384 878.296 55.9772 876.874 56.0031C876.59 55.9892 876.306 56.0357 876.041 56.1396C875.776 56.2436 875.536 56.4025 875.337 56.606C875.138 56.8095 874.984 57.0529 874.886 57.3201C874.788 57.5873 874.748 57.8723 874.768 58.1563C874.733 58.4606 874.768 58.7688 874.869 59.0581C874.969 59.3473 875.134 59.6101 875.35 59.8269C875.567 60.0437 875.829 60.209 876.118 60.3105C876.407 60.4121 876.715 60.4472 877.02 60.4132C878.275 60.3821 879.048 59.5831 879.157 58.2185Z" fill="white"/>
<path d="M877.056 400.996C878.41 400.731 879.24 399.984 879.131 398.526C879.131 398.243 879.07 397.962 878.953 397.704C878.836 397.445 878.665 397.215 878.452 397.027C878.239 396.839 877.989 396.698 877.718 396.614C877.447 396.53 877.161 396.505 876.88 396.539C876.574 396.528 876.269 396.587 875.989 396.709C875.709 396.832 875.46 397.017 875.26 397.249C875.061 397.481 874.917 397.755 874.838 398.051C874.759 398.347 874.747 398.656 874.804 398.957C874.903 400.27 875.764 400.892 877.056 400.996Z" fill="white"/>
<path d="M765.488 228.56C765.275 227.237 764.673 226.35 763.33 226.318C761.986 226.287 761 227.034 761 228.482C761 229.93 761.924 230.677 763.34 230.646C764.756 230.614 765.255 229.691 765.488 228.56Z" fill="white"/>
<path d="M777.26 160.161C778.62 160.021 779.403 159.227 779.393 157.972C779.393 156.581 778.511 155.73 777.068 155.792C776.786 155.781 776.505 155.83 776.243 155.936C775.981 156.041 775.744 156.201 775.548 156.404C775.352 156.607 775.201 156.85 775.106 157.115C775.01 157.381 774.972 157.664 774.993 157.946C775.009 159.378 775.891 160.099 777.26 160.161Z" fill="white"/>
<path d="M1018.01 60.4658C1019.4 60.2323 1020.27 59.5163 1020.17 58.0584C1020.18 57.7746 1020.13 57.4919 1020.02 57.2295C1019.91 56.9671 1019.75 56.7309 1019.54 56.5369C1019.33 56.3428 1019.09 56.1953 1018.82 56.1043C1018.55 56.0132 1018.26 55.9807 1017.98 56.009C1016.57 56.0505 1015.77 56.9118 1015.83 58.3593C1015.88 59.7083 1016.78 60.2738 1018.01 60.4658Z" fill="white"/>
<path d="M1079.3 228.243C1079.01 155.273 1019.96 96.4 947.303 96.6439C874.244 96.893 815.235 156.16 815.656 228.839C816.076 301.877 875.219 360.729 947.775 360.303C1020.85 359.873 1079.59 300.917 1079.3 228.243ZM1068.54 228.367C1068.66 294.961 1014.46 349.319 947.718 349.543C881.056 349.766 826.51 295.386 826.401 228.596C826.297 162.008 880.512 107.633 947.225 107.389C1013.86 107.176 1068.43 161.598 1068.54 228.367Z" fill="#5ED9D1"/>
<path d="M951.905 330.554C997.616 329.241 1038.46 294.541 1047.48 249.334C1048.72 243.247 1049.42 237.063 1049.59 230.853C1049.62 229.297 1049.63 228.005 1047.51 228.394C1045.88 228.695 1043.56 227.19 1043.45 230.817C1042.49 260.064 1030.66 284.169 1008.2 302.827C991.457 316.737 971.959 323.814 950.172 324.546C949.249 324.577 947.775 323.985 947.495 325.319C947.163 326.875 947.002 328.707 947.495 330.18C947.811 331.14 949.529 330.429 950.608 330.543C951.04 330.57 951.473 330.574 951.905 330.554Z" fill="white"/>
<path d="M943.204 126.374C897.431 127.666 856.52 162.345 847.476 207.568C846.226 213.659 845.52 219.848 845.365 226.064C845.334 227.538 845.219 228.97 847.383 228.56C848.997 228.249 851.368 229.816 851.482 226.173C852.348 198.312 863.218 174.964 884.009 156.462C900.918 141.415 920.888 133.477 943.562 132.512C947.521 132.341 948.486 131.023 947.614 127.147C947.448 126.411 947.095 126.385 946.576 126.379C945.451 126.359 944.33 126.374 943.204 126.374Z" fill="white"/>
<path d="M998.954 228.389C995.089 228.389 995.089 228.389 994.762 232.295C993.867 243.533 988.994 254.083 981.019 262.05C973.044 270.017 962.49 274.88 951.251 275.764C947.381 276.091 947.334 276.091 947.396 279.998C947.469 284.491 946.447 284.19 951.5 283.931C976.509 282.649 998.845 262.181 1002.38 237.339C1002.67 235.294 1002.7 233.188 1003.03 231.175C1003.42 228.819 1002.51 228.01 1000.25 228.378C999.817 228.418 999.385 228.422 998.954 228.389Z" fill="white"/>
<path d="M947.568 176.977C947.438 172.437 948.491 172.764 943.474 173.018C918.476 174.284 896.119 194.752 892.57 219.594C892.217 222.064 892.129 224.57 891.905 227.055C891.802 228.16 892.258 228.679 893.379 228.565C893.465 228.56 893.552 228.56 893.638 228.565C899.756 228.913 899.756 228.913 900.326 222.858C902.324 201.731 920.951 183.208 942.125 181.288C942.644 181.242 943.163 181.205 943.681 181.164C947.568 180.858 947.568 180.858 947.568 176.977Z" fill="white"/>
<path d="M946.924 165.738C950.037 165.67 953.15 165.639 956.18 166.231C957.633 166.511 957.945 166.013 957.737 164.607C957.088 159.766 957.13 159.761 952.294 159.294C947.625 158.842 943.012 159.216 938.384 159.688C936.781 159.849 936.376 160.326 937.16 161.93C939.09 165.904 939.007 165.93 943.292 165.748C944.501 165.696 945.71 165.738 946.924 165.738Z" fill="#9BE7C4"/>
<path d="M948.227 297.944L956.938 297.176C958.168 297.067 958.681 296.575 957.888 295.386C957.847 295.31 957.814 295.23 957.789 295.148C955.973 290.997 955.973 290.997 951.511 291.215C947.293 291.402 943.074 291.454 938.903 290.727C937.346 290.452 936.988 290.95 937.222 292.476C937.943 297.145 937.886 297.202 942.524 297.628C944.237 297.804 945.959 297.804 948.227 297.944Z" fill="#9BE7C4"/>
<path d="M878.265 232.783C878.642 238.45 879.687 244.052 881.378 249.474C881.798 250.849 882.161 251.285 883.578 250.299C887.36 247.653 887.412 247.705 886.359 243.243C885.338 239.152 884.781 234.959 884.699 230.744C884.699 229.354 884.346 228.814 882.909 229.468C881.883 229.911 880.827 230.278 879.749 230.568C878.561 230.874 877.917 231.486 878.265 232.783Z" fill="white"/>
<path d="M884.268 207.277C881.736 206.421 881.041 208.185 880.449 210.582C879.282 215.448 878.509 220.399 878.135 225.389C877.979 227.242 878.467 227.548 880.242 227.029C884.351 225.836 884.361 225.929 884.911 221.602C885.357 217.916 886.099 214.272 887.132 210.706C888.175 207.303 888.159 207.297 884.268 207.277Z" fill="#9BE7C4"/>
<path d="M999.873 273.855C994.373 270.804 994.373 270.804 990.061 274.757C987.223 277.405 984.122 279.756 980.805 281.772C979.554 282.514 979.44 283.007 980.618 283.936C985.428 287.723 983.363 287.962 988.551 284.314C992.756 281.326 996.561 277.81 999.873 273.855Z" fill="white"/>
<path d="M1010.91 249.666C1013.03 250.34 1013.83 249.043 1014.38 246.843C1015.61 241.904 1016.41 236.871 1016.79 231.797C1016.93 230.095 1016.85 229.25 1014.69 229.934C1010.61 231.221 1010.58 231.086 1010.02 235.387C1009.5 239.325 1008.88 243.263 1007.53 246.999C1006.72 249.23 1007.2 250.008 1009.52 249.676C1009.99 249.648 1010.45 249.644 1010.91 249.666Z" fill="white"/>
<path d="M1016.66 224.062C1016.29 218.489 1015.28 212.978 1013.64 207.64C1013.23 206.265 1012.95 205.529 1011.32 206.706C1007.63 209.394 1007.57 209.301 1008.63 213.804C1009.53 217.659 1010.28 221.561 1010.21 225.53C1010.17 227.901 1011.05 228.098 1012.88 227.232C1013.58 226.896 1014.31 226.635 1015.06 226.453C1016.52 226.106 1017.15 225.322 1016.66 224.062Z" fill="#9BE7C4"/>
<path d="M899.631 269.356C895.268 276.536 895.07 273.994 900.425 279.375C903.284 282.254 906.651 284.563 909.972 286.867C911.445 287.904 912.161 287.987 912.644 285.938C913.64 281.72 913.733 281.746 910.221 279.157C906.353 276.274 902.804 272.989 899.631 269.356Z" fill="#9BE7C4"/>
<path d="M981.168 289.046C981.059 288.837 980.936 288.636 980.8 288.444C976.934 284.294 976.934 284.294 971.715 286.52C967.559 288.208 963.255 289.502 958.857 290.385C959.848 292.165 960.756 293.804 961.675 295.438C961.806 295.709 962.035 295.919 962.315 296.026C962.596 296.133 962.907 296.129 963.185 296.014C969.488 294.584 975.547 292.237 981.168 289.046Z" fill="white"/>
<path d="M916.675 283.38C916.525 283.562 916.442 283.619 916.416 283.697C914.465 289.565 914.605 289.861 920.183 292.237C924.161 293.888 928.264 295.22 932.453 296.222C934.01 296.606 934.622 296.362 934.415 294.53C933.896 290.099 934.005 290.063 929.693 288.823C925.187 287.436 920.827 285.613 916.675 283.38Z" fill="#9BE7C4"/>
<path d="M981.448 174.73C981.194 175.482 981.869 175.809 982.434 176.188C986.811 179.115 990.795 182.59 994.29 186.528C995.172 187.566 995.613 187.493 996.261 186.305C999.317 180.676 999.805 182.875 995.224 178.253C992.074 175.056 988.427 172.431 984.686 169.951C983.327 169.043 982.647 169.048 982.372 170.833C982.206 172.094 981.796 173.329 981.448 174.73Z" fill="white"/>
<path d="M895.039 183.14C900.606 186.118 900.606 186.118 904.933 182.154C907.78 179.515 910.884 177.168 914.2 175.15C915.274 174.501 915.57 174.055 914.434 173.152C909.396 169.142 911.538 169.069 906.521 172.556C902.243 175.561 898.382 179.12 895.039 183.14Z" fill="#9BE7C4"/>
<path d="M961.815 160.628C961.182 160.555 960.528 160.483 960.549 160.976C960.618 162.783 960.791 164.585 961.068 166.372C961.27 167.627 962.567 167.373 963.397 167.607C968.066 168.838 972.573 170.616 976.825 172.904C978.169 173.646 978.776 173.506 978.989 171.923C979.746 166.216 980.986 167.622 975.616 165.116C971.2 163.104 966.57 161.598 961.815 160.628Z" fill="#9BE7C4"/>
<path d="M913.718 167.949C917.983 172.618 917.988 172.66 923.379 170.398C926.954 168.893 930.667 167.74 934.466 166.958C935.707 166.704 936.127 166.439 935.369 165.199C932.033 159.741 934.015 160.343 927.877 161.998C922.919 163.358 918.159 165.359 913.718 167.949Z" fill="white"/>
<path d="M893.607 272.132C893.819 272.003 894.017 271.853 894.199 271.686C897.644 267.275 897.644 267.275 894.655 262.621C892.495 259.311 890.673 255.791 889.218 252.115C888.735 250.859 888.341 250.408 887.142 251.482C882.473 255.633 882.748 253.557 885.347 259.192C887.539 263.839 890.315 268.187 893.607 272.132Z" fill="#9BE7C4"/>
<path d="M1008.3 252.753C1006.38 252.083 1005.22 253.059 1004.29 255.29C1002.44 259.562 999.992 263.552 997.029 267.145C996.194 268.183 995.992 268.754 997.548 269.252C1003.49 271.198 1001.55 272.017 1005.15 266.948C1007.7 263.363 1009.6 259.404 1011.43 255.404C1012.36 253.375 1011.99 252.633 1009.77 252.81C1009.28 252.82 1008.79 252.801 1008.3 252.753Z" fill="white"/>
<path d="M1001.24 184.785C1000.92 185.115 1000.63 185.461 1000.35 185.823C999.706 186.731 999.151 187.717 998.44 188.573C997.512 189.678 997.574 190.555 998.44 191.733C1001.43 195.73 1003.86 200.114 1005.66 204.766C1006.18 206.151 1006.66 206.54 1007.93 205.409C1012.44 201.383 1012.2 203.427 1009.66 197.891C1007.72 193.753 1005.31 189.848 1002.49 186.254C1002.13 185.813 1001.74 185.372 1001.24 184.785Z" fill="#9BE7C4"/>
<path d="M886.888 204.205C888.673 204.817 889.679 203.909 890.489 202.005C892.414 197.583 894.937 193.445 897.986 189.709C898.79 188.713 898.858 188.209 897.509 187.768C891.428 185.771 893.472 184.847 889.726 190.124C887.236 193.636 885.404 197.533 883.567 201.429C882.53 203.624 883.007 204.335 885.316 204.132C885.841 204.126 886.366 204.15 886.888 204.205Z" fill="white"/>
<path d="M970.537 341.812C971.16 341.672 971.725 341.382 971.746 340.687C971.753 340.535 971.727 340.383 971.67 340.242C971.612 340.102 971.524 339.976 971.412 339.873C971.3 339.77 971.167 339.693 971.022 339.647C970.877 339.601 970.724 339.587 970.573 339.607C970.422 339.596 970.269 339.616 970.125 339.664C969.981 339.713 969.848 339.79 969.734 339.892C969.62 339.993 969.528 340.116 969.463 340.253C969.398 340.391 969.361 340.54 969.354 340.692C969.354 341.387 969.878 341.714 970.537 341.812Z" fill="white"/>
</g>
<path d="M959.242 228.346C959.242 226.424 960.779 224.887 962.701 224.887C964.623 224.887 966.161 226.424 966.161 228.346C966.161 230.268 964.623 231.806 962.701 231.806C960.779 231.806 959.242 230.204 959.242 228.346Z" fill="white"/>
<path d="M979.892 236.418C979.765 237.499 979.638 238.581 979.32 239.599C978.366 243.225 976.267 246.533 972.833 248.377C968.126 250.795 962.529 249.904 957.823 248.059C953.943 250.795 953.943 250.795 953.943 250.795C953.053 251.367 951.908 250.413 952.417 249.459C951.336 249.65 951.018 248.632 951.336 247.805C950.445 248.505 949.682 247.232 950.191 246.469C950.509 245.96 951.018 245.388 951.399 244.942C945.93 241.825 940.969 238.008 935.945 234.255C938.807 236.036 950.255 241.889 953.053 243.097C955.979 244.37 958.904 245.642 961.957 246.342C964.501 246.914 967.745 247.232 970.098 245.769C972.26 244.497 973.087 241.889 973.405 239.535C974.168 234.446 972.387 228.72 969.716 224.394C966.918 219.878 962.339 215.806 957.123 214.47C955.215 213.961 953.307 213.961 951.527 214.279C947.393 214.979 943.64 217.524 940.778 220.705C936.644 225.285 933.782 230.947 931.174 236.545C929.394 240.298 926.913 249.459 921.062 245.833C918.454 244.179 916.801 241.316 915.656 238.517C914.384 235.527 913.494 231.519 914.32 228.275C916.101 221.468 925.641 227.512 928.885 229.674C928.694 229.611 921.062 226.112 918.264 228.847C916.992 230.12 917.055 232.41 917.246 234.064C917.628 237.054 919.09 241.507 921.889 243.161C925.514 245.26 927.358 238.708 928.312 236.418C929.902 232.537 931.429 228.657 933.21 224.84C935.181 220.641 937.535 216.506 940.778 213.134C940.079 212.307 939.061 211.29 938.997 210.208C938.87 208.999 940.079 207.663 941.351 208.3C939.888 206.646 941.859 204.165 943.767 205.119C942.877 203.719 944.276 201.938 945.739 202.002C946.566 202.002 947.393 202.701 948.029 203.147C949.682 204.228 951.336 205.373 953.053 206.455C968.889 203.974 981.291 221.977 979.892 236.418Z" fill="white"/>
<g opacity="0.7" clip-path="url(#clip4_1203_6094)">
<path d="M330.646 183.105C330.646 183.472 330.536 183.832 330.332 184.138C330.128 184.443 329.837 184.682 329.497 184.822C329.157 184.963 328.783 185 328.422 184.928C328.061 184.857 327.73 184.679 327.47 184.419C327.21 184.159 327.032 183.828 326.961 183.467C326.889 183.107 326.926 182.733 327.066 182.393C327.207 182.053 327.446 181.763 327.752 181.558C328.058 181.354 328.417 181.245 328.785 181.245C329.279 181.245 329.752 181.441 330.101 181.79C330.45 182.138 330.646 182.611 330.646 183.105Z" fill="#5ED9D1"/>
<path d="M687.24 518.341C687.24 518.709 687.131 519.068 686.927 519.374C686.722 519.68 686.432 519.918 686.092 520.059C685.752 520.2 685.378 520.236 685.017 520.165C684.656 520.093 684.325 519.916 684.064 519.656C683.804 519.396 683.627 519.064 683.555 518.704C683.484 518.343 683.52 517.969 683.661 517.629C683.802 517.29 684.04 516.999 684.346 516.795C684.652 516.591 685.012 516.481 685.38 516.481C685.624 516.481 685.866 516.53 686.092 516.623C686.317 516.716 686.523 516.853 686.695 517.026C686.868 517.199 687.005 517.404 687.099 517.629C687.192 517.855 687.24 518.097 687.24 518.341Z" fill="#5ED9D1"/>
<path d="M36.2056 374.05C37.233 374.05 38.0659 373.217 38.0659 372.191C38.0659 371.164 37.233 370.331 36.2056 370.331C35.1781 370.331 34.3452 371.164 34.3452 372.191C34.3452 373.217 35.1781 374.05 36.2056 374.05Z" fill="#5ED9D1"/>
<path d="M876.283 34.3311C876.283 34.6989 876.174 35.0584 875.97 35.3642C875.765 35.67 875.475 35.9083 875.135 36.0491C874.795 36.1898 874.421 36.2266 874.06 36.1549C873.699 36.0831 873.368 35.906 873.107 35.646C872.847 35.3859 872.67 35.0546 872.598 34.6939C872.526 34.3332 872.563 33.9593 872.704 33.6196C872.845 33.2798 873.083 32.9894 873.389 32.7851C873.695 32.5807 874.055 32.4717 874.423 32.4717C874.916 32.4717 875.389 32.6676 875.738 33.0163C876.087 33.365 876.283 33.838 876.283 34.3311Z" fill="white"/>
<path d="M533.721 111.359C533.721 111.727 533.612 112.087 533.407 112.393C533.203 112.698 532.912 112.937 532.572 113.077C532.232 113.218 531.858 113.255 531.497 113.183C531.136 113.111 530.805 112.934 530.545 112.674C530.285 112.414 530.108 112.083 530.036 111.722C529.964 111.362 530.001 110.988 530.142 110.648C530.282 110.308 530.521 110.018 530.827 109.813C531.133 109.609 531.492 109.5 531.86 109.5C532.354 109.5 532.827 109.696 533.176 110.045C533.525 110.393 533.721 110.866 533.721 111.359Z" fill="white"/>
<path d="M135.721 147.359C135.721 147.727 135.612 148.087 135.407 148.393C135.203 148.698 134.912 148.937 134.572 149.077C134.232 149.218 133.858 149.255 133.497 149.183C133.136 149.111 132.805 148.934 132.545 148.674C132.285 148.414 132.108 148.083 132.036 147.722C131.964 147.362 132.001 146.988 132.142 146.648C132.282 146.308 132.521 146.018 132.827 145.813C133.133 145.609 133.492 145.5 133.86 145.5C134.354 145.5 134.827 145.696 135.176 146.045C135.525 146.393 135.721 146.866 135.721 147.359Z" fill="white"/>
<path d="M409.543 485.054C410.57 485.054 411.403 484.221 411.403 483.194C411.403 482.167 410.57 481.335 409.543 481.335C408.516 481.335 407.683 482.167 407.683 483.194C407.683 484.221 408.516 485.054 409.543 485.054Z" fill="white"/>
<path d="M623.79 358.991C624.817 358.991 625.65 358.159 625.65 357.132C625.65 356.105 624.817 355.272 623.79 355.272C622.762 355.272 621.929 356.105 621.929 357.132C621.929 358.159 622.762 358.991 623.79 358.991Z" fill="white"/>
<path d="M847.047 534.5C848.074 534.5 848.907 533.668 848.907 532.641C848.907 531.614 848.074 530.781 847.047 530.781C846.019 530.781 845.187 531.614 845.187 532.641C845.187 533.668 846.019 534.5 847.047 534.5Z" fill="white"/>
<path d="M662.721 77.3595C662.721 77.7272 662.612 78.0867 662.407 78.3925C662.203 78.6983 661.912 78.9366 661.572 79.0774C661.232 79.2181 660.858 79.2549 660.497 79.1832C660.137 79.1114 659.805 78.9343 659.545 78.6743C659.285 78.4142 659.108 78.0829 659.036 77.7222C658.964 77.3615 659.001 76.9876 659.142 76.6479C659.282 76.3081 659.521 76.0177 659.827 75.8134C660.133 75.6091 660.492 75.5 660.86 75.5C661.354 75.5 661.827 75.6959 662.176 76.0446C662.525 76.3933 662.721 76.8663 662.721 77.3595Z" fill="white"/>
<path d="M326.721 21.3595C326.721 21.7272 326.612 22.0867 326.407 22.3925C326.203 22.6983 325.912 22.9366 325.572 23.0774C325.232 23.2181 324.858 23.2549 324.497 23.1832C324.137 23.1114 323.805 22.9343 323.545 22.6743C323.285 22.4142 323.108 22.0829 323.036 21.7222C322.964 21.3615 323.001 20.9876 323.142 20.6479C323.282 20.3081 323.521 20.0177 323.827 19.8134C324.133 19.6091 324.492 19.5 324.86 19.5C325.354 19.5 325.827 19.6959 326.176 20.0446C326.525 20.3933 326.721 20.8663 326.721 21.3595Z" fill="white"/>
</g>
<g opacity="0.7" clip-path="url(#clip5_1203_6094)">
<path d="M1654.17 518.341C1654.17 518.709 1654.06 519.068 1653.86 519.374C1653.65 519.68 1653.36 519.918 1653.02 520.059C1652.68 520.2 1652.31 520.236 1651.95 520.165C1651.59 520.093 1651.26 519.916 1651 519.656C1650.73 519.396 1650.56 519.064 1650.49 518.704C1650.41 518.343 1650.45 517.969 1650.59 517.629C1650.73 517.29 1650.97 516.999 1651.28 516.795C1651.58 516.591 1651.94 516.481 1652.31 516.481C1652.55 516.481 1652.8 516.53 1653.02 516.623C1653.25 516.716 1653.45 516.853 1653.63 517.026C1653.8 517.199 1653.94 517.404 1654.03 517.629C1654.12 517.855 1654.17 518.097 1654.17 518.341Z" fill="#5ED9D1"/>
<path d="M1003.14 374.05C1004.16 374.05 1005 373.217 1005 372.191C1005 371.164 1004.16 370.331 1003.14 370.331C1002.11 370.331 1001.28 371.164 1001.28 372.191C1001.28 373.217 1002.11 374.05 1003.14 374.05Z" fill="#5ED9D1"/>
<path d="M1777.21 175.331C1777.21 175.699 1777.1 176.058 1776.9 176.364C1776.7 176.67 1776.41 176.908 1776.07 177.049C1775.73 177.19 1775.35 177.227 1774.99 177.155C1774.63 177.083 1774.3 176.906 1774.04 176.646C1773.78 176.386 1773.6 176.055 1773.53 175.694C1773.46 175.333 1773.49 174.959 1773.63 174.62C1773.78 174.28 1774.01 173.989 1774.32 173.785C1774.63 173.581 1774.99 173.472 1775.35 173.472C1775.85 173.472 1776.32 173.668 1776.67 174.016C1777.02 174.365 1777.21 174.838 1777.21 175.331Z" fill="white"/>
<path d="M1530.65 223.359C1530.65 223.727 1530.54 224.087 1530.34 224.393C1530.13 224.698 1529.84 224.937 1529.5 225.077C1529.16 225.218 1528.79 225.255 1528.43 225.183C1528.07 225.111 1527.74 224.934 1527.48 224.674C1527.22 224.414 1527.04 224.083 1526.97 223.722C1526.89 223.362 1526.93 222.988 1527.07 222.648C1527.21 222.308 1527.45 222.018 1527.76 221.813C1528.06 221.609 1528.42 221.5 1528.79 221.5C1529.28 221.5 1529.76 221.696 1530.11 222.045C1530.46 222.393 1530.65 222.866 1530.65 223.359Z" fill="white"/>
<path d="M1102.65 147.359C1102.65 147.727 1102.54 148.087 1102.34 148.393C1102.13 148.698 1101.84 148.937 1101.5 149.077C1101.16 149.218 1100.79 149.255 1100.43 149.183C1100.07 149.111 1099.74 148.934 1099.48 148.674C1099.22 148.414 1099.04 148.083 1098.97 147.722C1098.89 147.362 1098.93 146.988 1099.07 146.648C1099.21 146.308 1099.45 146.018 1099.76 145.813C1100.06 145.609 1100.42 145.5 1100.79 145.5C1101.28 145.5 1101.76 145.696 1102.11 146.045C1102.46 146.393 1102.65 146.866 1102.65 147.359Z" fill="white"/>
<path d="M1253.47 507.053C1254.5 507.053 1255.33 506.22 1255.33 505.193C1255.33 504.166 1254.5 503.334 1253.47 503.334C1252.45 503.334 1251.61 504.166 1251.61 505.193C1251.61 506.22 1252.45 507.053 1253.47 507.053Z" fill="white"/>
<path d="M1865.98 487.5C1867.01 487.5 1867.84 486.668 1867.84 485.641C1867.84 484.614 1867.01 483.781 1865.98 483.781C1864.95 483.781 1864.12 484.614 1864.12 485.641C1864.12 486.668 1864.95 487.5 1865.98 487.5Z" fill="white"/>
<path d="M1293.65 21.3595C1293.65 21.7272 1293.54 22.0867 1293.34 22.3925C1293.13 22.6983 1292.84 22.9366 1292.5 23.0774C1292.16 23.2181 1291.79 23.2549 1291.43 23.1832C1291.07 23.1114 1290.74 22.9343 1290.48 22.6743C1290.22 22.4142 1290.04 22.0829 1289.97 21.7222C1289.89 21.3615 1289.93 20.9876 1290.07 20.6479C1290.21 20.3081 1290.45 20.0177 1290.76 19.8134C1291.06 19.6091 1291.42 19.5 1291.79 19.5C1292.28 19.5 1292.76 19.6959 1293.11 20.0446C1293.46 20.3933 1293.65 20.8663 1293.65 21.3595Z" fill="white"/>
<circle cx="1567.08" cy="51.8653" r="6" transform="rotate(-30 1567.08 51.8653)" stroke="#5ED9D1" stroke-width="3"/>
</g>
<path fill-rule="evenodd" clip-rule="evenodd" d="M1521 284L1548.45 300L1521 316L1521 284Z" fill="#FFC78F"/>
<path opacity="0.9" fill-rule="evenodd" clip-rule="evenodd" d="M1564.53 284L1591.96 300L1564.53 316L1564.53 284Z" fill="#FFC78F"/>
<path opacity="0.8" fill-rule="evenodd" clip-rule="evenodd" d="M1608.04 284L1635.49 300L1608.04 316L1608.04 284Z" fill="#FFC78F"/>
<path opacity="0.7" fill-rule="evenodd" clip-rule="evenodd" d="M1651.57 316L1651.57 284L1679 300L1651.57 316Z" fill="#FFC78F"/>
<path fill-rule="evenodd" clip-rule="evenodd" d="M377 316L349.552 300L377 284L377 316Z" fill="#FFC78F"/>
<path opacity="0.9" fill-rule="evenodd" clip-rule="evenodd" d="M333.47 316L306.04 300L333.47 284L333.47 316Z" fill="#FFC78F"/>
<path opacity="0.8" fill-rule="evenodd" clip-rule="evenodd" d="M289.958 316L262.511 300L289.958 284L289.958 316Z" fill="#FFC78F"/>
<path opacity="0.7" fill-rule="evenodd" clip-rule="evenodd" d="M246.43 284L246.43 316L219 300L246.43 284Z" fill="#FFC78F"/>
<path d="M1040.32 319.129L856.76 319.129C851.868 319.129 847.176 321.072 843.717 324.532C840.257 327.991 838.314 332.683 838.314 337.575L838.314 486.511L927.855 486.511L927.855 493.363L969.174 493.363L969.174 486.511L1058.53 486.511L1058.53 337.469C1058.5 332.636 1056.58 328.007 1053.18 324.577C1049.77 321.147 1045.15 319.191 1040.32 319.129Z" fill="#5ED9D1"/>
<path fill-rule="evenodd" clip-rule="evenodd" d="M842.694 323.512C846.425 319.781 851.484 317.686 856.76 317.686L1040.32 317.686L1040.32 319.132L1040.34 317.686C1045.55 317.753 1050.53 319.862 1054.2 323.561C1057.87 327.26 1059.95 332.252 1059.98 337.464L1059.98 337.472L1059.98 487.96L970.62 487.96L970.62 494.812L926.409 494.812L926.409 487.96L836.868 487.96L836.868 337.577C836.868 332.302 838.964 327.242 842.694 323.512ZM1040.31 320.578L856.76 320.578C852.251 320.578 847.928 322.369 844.739 325.557C841.551 328.745 839.76 333.069 839.76 337.577L839.76 485.068L929.302 485.068L929.302 491.919L967.728 491.919L967.728 485.068L1057.08 485.068L1057.08 337.48C1057.08 337.479 1057.08 337.477 1057.08 337.476C1057.06 333.023 1055.29 328.759 1052.15 325.599C1049.01 322.44 1044.76 320.637 1040.31 320.578Z" fill="#171753"/>
<path fill-rule="evenodd" clip-rule="evenodd" d="M1041 317.027L1041 317.009L1040.32 317.009L1039.67 317L1039.67 317.009L856.76 317.009C851.305 317.009 846.073 319.175 842.216 323.033C838.359 326.89 836.192 332.122 836.192 337.577L836.192 488.635L925.733 488.635L925.733 495.487L971.296 495.487L971.296 488.635L1060.65 488.635L1060.65 337.471L1060.65 337.461C1060.62 332.072 1058.48 326.908 1054.68 323.084C1051.04 319.413 1046.15 317.256 1041 317.027ZM1039.65 318.361L1039.65 319.131L1041 319.139L1041 319.131L1041.01 318.381C1045.8 318.611 1050.33 320.624 1053.72 324.036C1057.27 327.609 1059.27 332.432 1059.3 337.467L1059.3 337.471L1059.3 487.283L969.944 487.283L969.944 494.135L927.085 494.135L927.085 487.283L837.544 487.283L837.544 337.577C837.544 332.48 839.569 327.593 843.172 323.989C846.776 320.385 851.664 318.361 856.76 318.361L1039.65 318.361ZM856.76 321.253C852.431 321.253 848.279 322.973 845.217 326.034C842.156 329.095 840.436 333.247 840.436 337.577L840.436 484.391L929.978 484.391L929.978 491.242L967.052 491.242L967.052 484.391L1056.41 484.391L1056.41 337.483L1056.41 337.479C1056.38 333.204 1054.68 329.108 1051.67 326.074C1048.66 323.042 1044.58 321.311 1040.31 321.253L856.76 321.253ZM844.261 325.078C847.576 321.763 852.072 319.901 856.76 319.901L1040.32 319.901C1044.95 319.963 1049.37 321.837 1052.63 325.121C1055.89 328.407 1057.73 332.841 1057.76 337.471L1057.76 337.475L1057.76 485.743L968.404 485.743L968.404 492.595L928.625 492.595L928.625 485.743L839.084 485.743L839.084 337.577C839.084 332.889 840.946 328.393 844.261 325.078Z" fill="#171753"/>
<path d="M1040.32 335.259L856.76 335.259C856.459 335.262 856.162 335.325 855.885 335.443C855.608 335.562 855.358 335.734 855.147 335.949C854.937 336.164 854.771 336.419 854.659 336.698C854.547 336.978 854.491 337.277 854.494 337.578L854.494 468.174C854.491 468.474 854.547 468.771 854.659 469.049C854.772 469.327 854.938 469.58 855.149 469.794C855.359 470.007 855.61 470.176 855.887 470.292C856.164 470.407 856.461 470.467 856.76 470.467L1040.32 470.467C1040.93 470.467 1041.52 470.226 1041.95 469.797C1042.39 469.368 1042.63 468.784 1042.64 468.174L1042.64 337.499C1042.61 336.9 1042.36 336.334 1041.93 335.917C1041.5 335.5 1040.92 335.265 1040.32 335.259ZM1038.03 465.96L859.079 465.96L859.079 339.765L1037.9 339.765L1038.03 465.96Z" fill="#171753"/>
<path fill-rule="evenodd" clip-rule="evenodd" d="M1037.9 339.765L859.079 339.765L859.079 465.96L1038.03 465.96L1037.9 339.765ZM856.76 335.259L1040.32 335.259C1040.92 335.265 1041.5 335.5 1041.93 335.917C1042.36 336.334 1042.61 336.9 1042.64 337.499L1042.64 468.174C1042.63 468.784 1042.39 469.368 1041.95 469.797C1041.52 470.226 1040.93 470.467 1040.32 470.467L856.76 470.467C856.461 470.467 856.164 470.407 855.887 470.292C855.61 470.176 855.359 470.007 855.149 469.794C854.938 469.58 854.772 469.327 854.659 469.049C854.547 468.771 854.491 468.474 854.494 468.174L854.494 337.578C854.491 337.277 854.547 336.978 854.659 336.698C854.771 336.419 854.937 336.164 855.147 335.949C855.358 335.734 855.608 335.562 855.885 335.443C856.162 335.325 856.459 335.262 856.76 335.259Z" fill="#171753"/>
<path d="M1076.87 486.513L969.174 486.513L969.174 493.364L927.855 493.364L927.855 486.513L820.079 486.513C820.079 491.405 822.022 496.097 825.482 499.556C828.941 503.015 833.633 504.959 838.525 504.959L1058.53 504.959C1063.42 504.959 1068.11 503.015 1071.57 499.556C1075.03 496.097 1076.98 491.405 1076.98 486.513L1076.87 486.513Z" fill="#388B9A"/>
<path fill-rule="evenodd" clip-rule="evenodd" d="M818.714 485.148L929.222 485.148L929.222 492L967.809 492L967.809 485.148L1078.34 485.148L1078.34 486.514C1078.34 491.769 1076.26 496.808 1072.54 500.523C1068.83 504.239 1063.79 506.326 1058.53 506.326L838.526 506.326C833.272 506.326 828.232 504.239 824.517 500.523C820.802 496.808 818.714 491.769 818.714 486.514L818.714 485.148ZM821.501 487.88C821.824 491.91 823.569 495.712 826.449 498.592C829.652 501.795 833.996 503.594 838.526 503.594L1058.53 503.594C1063.06 503.594 1067.41 501.795 1070.61 498.592C1073.49 495.712 1075.23 491.91 1075.56 487.88L970.541 487.88L970.541 494.731L926.491 494.731L926.491 487.88L821.501 487.88Z" fill="#171753"/>
<path fill-rule="evenodd" clip-rule="evenodd" d="M818.038 484.471L929.898 484.471L929.898 491.322L967.132 491.322L967.132 484.471L1079.02 484.471L1079.02 486.513C1079.02 491.946 1076.86 497.157 1073.02 501C1069.18 504.842 1063.96 507 1058.53 507L838.525 507C833.092 507 827.88 504.842 824.038 501C820.196 497.157 818.038 491.946 818.038 486.513L818.038 484.471ZM819.39 485.823L819.39 486.513C819.39 491.588 821.406 496.455 824.994 500.043C828.583 503.632 833.45 505.648 838.525 505.648L1058.53 505.648C1063.61 505.648 1068.47 503.632 1072.06 500.043C1075.65 496.455 1077.67 491.588 1077.67 486.513L1077.67 485.823L968.485 485.823L968.485 492.674L928.545 492.674L928.545 485.823L819.39 485.823ZM820.767 487.202L927.166 487.202L927.166 494.054L969.864 494.054L969.864 487.202L1076.29 487.202L1076.23 487.932C1075.89 492.122 1074.08 496.074 1071.09 499.068C1067.76 502.398 1063.24 504.269 1058.53 504.269L838.525 504.269C833.816 504.269 829.3 502.398 825.97 499.068C822.976 496.074 821.162 492.122 820.826 487.932L820.767 487.202ZM822.249 488.554C822.7 492.152 824.335 495.521 826.926 498.112C830.002 501.188 834.175 502.917 838.525 502.917L1058.53 502.917C1062.88 502.917 1067.05 501.188 1070.13 498.112C1072.72 495.521 1074.36 492.152 1074.81 488.554L971.216 488.554L971.216 495.406L925.814 495.406L925.814 488.554L822.249 488.554Z" fill="#171753"/>
<path d="M1038.29 348.367L993.839 348.367L993.839 465.097L1038.29 465.097L1038.29 348.367Z" fill="#9BE7C4"/>
<path d="M869.567 347.504L858.974 347.504L858.974 465.124L869.567 465.124L869.567 347.504Z" fill="#9BE7C4"/>
<path d="M1039.77 338.078L856.312 338.078L856.312 348.369L1039.77 348.369L1039.77 338.078Z" fill="#171753"/>
<path d="M869.567 360.309L858.974 360.309L858.974 362.875L869.567 362.875L869.567 360.309Z" fill="#171753"/>
<path d="M869.567 370.6L858.974 370.6L858.974 373.166L869.567 373.166L869.567 370.6Z" fill="#171753"/>
<path d="M869.567 380.916L858.974 380.916L858.974 383.482L869.567 383.482L869.567 380.916Z" fill="#171753"/>
<path d="M869.567 391.208L858.974 391.208L858.974 393.774L869.567 393.774L869.567 391.208Z" fill="#171753"/>
<path d="M869.567 401.497L858.974 401.497L858.974 404.063L869.567 404.063L869.567 401.497Z" fill="#171753"/>
<path d="M869.567 411.787L858.974 411.787L858.974 414.353L869.567 414.353L869.567 411.787Z" fill="#171753"/>
<path d="M869.567 422.076L858.974 422.076L858.974 424.642L869.567 424.642L869.567 422.076Z" fill="#171753"/>
<path d="M869.567 432.369L858.974 432.369L858.974 434.935L869.567 434.935L869.567 432.369Z" fill="#171753"/>
<path d="M1038.29 411.787L993.917 411.787L993.917 414.353L1038.29 414.353L1038.29 411.787Z" fill="#171753"/>
<path d="M1038.29 422.076L993.917 422.076L993.917 424.642L1038.29 424.642L1038.29 422.076Z" fill="#171753"/>
<path d="M1038.29 432.369L993.917 432.369L993.917 434.935L1038.29 434.935L1038.29 432.369Z" fill="#171753"/>
<path d="M1027.54 391.208L1001.61 391.208L1001.61 393.774L1027.54 393.774L1027.54 391.208Z" fill="#171753"/>
<path d="M1027.54 401.497L1001.61 401.497L1001.61 404.063L1027.54 404.063L1027.54 401.497Z" fill="#171753"/>
<path d="M1038.29 442.658L993.917 442.658L993.917 445.224L1038.29 445.224L1038.29 442.658Z" fill="#171753"/>
<path d="M1038.29 452.95L993.917 452.95L993.917 455.516L1038.29 455.516L1038.29 452.95Z" fill="#171753"/>
<path d="M892.887 341.952L866.51 341.952L866.51 344.518L892.887 344.518L892.887 341.952Z" fill="#FFC78F"/>
<path d="M1031.26 375.757L1027.54 375.757L1027.54 378.323L1031.26 378.323L1031.26 375.757Z" fill="#FFC78F"/>
<path d="M1016.45 375.757L1012.73 375.757L1012.73 378.323L1016.45 378.323L1016.45 375.757Z" fill="#FFC78F"/>
<path d="M1031.26 365.467L1027.54 365.467L1027.54 368.033L1031.26 368.033L1031.26 365.467Z" fill="#FFC78F"/>
<path d="M1016.45 365.467L1012.73 365.467L1012.73 368.033L1016.45 368.033L1016.45 365.467Z" fill="#FFC78F"/>
<path d="M1001.64 375.757L997.924 375.757L997.924 378.323L1001.64 378.323L1001.64 375.757Z" fill="#FFC78F"/>
<path d="M1001.64 365.467L997.924 365.467L997.924 368.033L1001.64 368.033L1001.64 365.467Z" fill="#FFC78F"/>
<path d="M1031.26 355.178L1027.54 355.178L1027.54 357.744L1031.26 357.744L1031.26 355.178Z" fill="#FFC78F"/>
<path d="M1016.45 355.178L1012.73 355.178L1012.73 357.744L1016.45 357.744L1016.45 355.178Z" fill="#FFC78F"/>
<path d="M1001.64 355.178L997.924 355.178L997.924 357.744L1001.64 357.744L1001.64 355.178Z" fill="#FFC78F"/>
<path d="M923.93 455.517L921.268 455.517L921.268 458.083L923.93 458.083L923.93 455.517Z" fill="#171753"/>
<path d="M913.336 455.517L910.675 455.517L910.675 458.083L913.336 458.083L913.336 455.517Z" fill="#171753"/>
<path d="M902.716 455.517L900.055 455.517L900.055 458.083L902.716 458.083L902.716 455.517Z" fill="#171753"/>
<path fill-rule="evenodd" clip-rule="evenodd" d="M868.377 468.528L868.377 347.792L871.081 347.792L871.081 468.528L868.377 468.528ZM990.813 468.528L990.813 347.792L993.518 347.792L993.518 468.528L990.813 468.528Z" fill="#171753"/>
<path d="M1800.19 258.979L1715.8 258.979C1713.55 258.979 1711.4 259.872 1709.81 261.462C1708.21 263.053 1707.32 265.21 1707.32 267.459L1707.32 335.929L1748.49 335.929L1748.49 339.079L1767.48 339.079L1767.48 335.929L1808.56 335.929L1808.56 267.41C1808.55 265.188 1807.67 263.06 1806.1 261.483C1804.53 259.906 1802.41 259.007 1800.19 258.979Z" fill="#5ED9D1"/>
<path fill-rule="evenodd" clip-rule="evenodd" d="M1709.34 260.994C1711.05 259.279 1713.38 258.315 1715.8 258.315L1800.19 258.315L1800.19 258.98L1800.2 258.315C1802.6 258.346 1804.88 259.316 1806.57 261.017C1808.26 262.717 1809.21 265.012 1809.23 267.408L1809.23 267.412L1809.23 336.596L1768.15 336.596L1768.15 339.746L1747.82 339.746L1747.82 336.596L1706.66 336.596L1706.66 267.46C1706.66 265.035 1707.62 262.709 1709.34 260.994ZM1800.19 259.645L1715.8 259.645C1713.73 259.645 1711.74 260.468 1710.28 261.934C1708.81 263.4 1707.99 265.388 1707.99 267.46L1707.99 335.266L1749.15 335.266L1749.15 338.416L1766.82 338.416L1766.82 335.266L1807.9 335.266L1807.9 267.416C1807.9 267.415 1807.9 267.414 1807.9 267.414C1807.89 265.367 1807.07 263.406 1805.63 261.953C1804.19 260.501 1802.23 259.672 1800.19 259.645Z" fill="#171753"/>
<path fill-rule="evenodd" clip-rule="evenodd" d="M1800.5 258.013L1800.5 258.004L1800.19 258.004L1799.89 258L1799.89 258.004L1715.8 258.004C1713.29 258.004 1710.89 259 1709.12 260.773C1707.34 262.547 1706.35 264.952 1706.35 267.46L1706.35 336.906L1747.51 336.906L1747.51 340.056L1768.46 340.056L1768.46 336.906L1809.54 336.906L1809.54 267.411L1809.54 267.407C1809.52 264.929 1808.54 262.555 1806.79 260.797C1805.12 259.109 1802.87 258.118 1800.5 258.013ZM1799.88 258.626L1799.88 258.98L1800.5 258.984L1800.5 258.98L1800.51 258.635C1802.71 258.741 1804.79 259.666 1806.35 261.235C1807.98 262.878 1808.9 265.095 1808.92 267.409L1808.92 267.411L1808.92 336.285L1767.84 336.285L1767.84 339.434L1748.13 339.434L1748.13 336.285L1706.97 336.285L1706.97 267.46C1706.97 265.117 1707.9 262.87 1709.55 261.213C1711.21 259.556 1713.46 258.626 1715.8 258.626L1799.88 258.626ZM1715.8 259.955C1713.81 259.955 1711.9 260.746 1710.5 262.153C1709.09 263.561 1708.3 265.469 1708.3 267.46L1708.3 334.955L1749.46 334.955L1749.46 338.105L1766.51 338.105L1766.51 334.955L1807.59 334.955L1807.59 267.417L1807.59 267.415C1807.57 265.449 1806.79 263.567 1805.41 262.172C1804.02 260.778 1802.15 259.982 1800.18 259.955L1715.8 259.955ZM1710.06 261.714C1711.58 260.19 1713.65 259.334 1715.8 259.334L1800.19 259.334C1802.32 259.362 1804.35 260.224 1805.85 261.734C1807.35 263.244 1808.2 265.283 1808.21 267.411L1808.21 267.413L1808.21 335.577L1767.13 335.577L1767.13 338.726L1748.84 338.726L1748.84 335.577L1707.68 335.577L1707.68 267.46C1707.68 265.304 1708.53 263.238 1710.06 261.714Z" fill="#171753"/>
<path d="M1800.19 266.395L1715.8 266.395C1715.66 266.396 1715.53 266.425 1715.4 266.479C1715.27 266.534 1715.16 266.613 1715.06 266.712C1714.96 266.811 1714.89 266.928 1714.84 267.056C1714.78 267.185 1714.76 267.322 1714.76 267.461L1714.76 327.5C1714.76 327.638 1714.78 327.774 1714.84 327.902C1714.89 328.03 1714.96 328.146 1715.06 328.244C1715.16 328.342 1715.27 328.42 1715.4 328.473C1715.53 328.526 1715.66 328.554 1715.8 328.554L1800.19 328.554C1800.47 328.554 1800.74 328.443 1800.94 328.246C1801.14 328.048 1801.25 327.78 1801.26 327.5L1801.26 267.424C1801.25 267.149 1801.13 266.889 1800.93 266.697C1800.73 266.506 1800.47 266.397 1800.19 266.395ZM1799.14 326.482L1716.87 326.482L1716.87 268.466L1799.08 268.466L1799.14 326.482Z" fill="#171753"/>
<path fill-rule="evenodd" clip-rule="evenodd" d="M1799.08 268.466L1716.87 268.466L1716.87 326.482L1799.14 326.482L1799.08 268.466ZM1715.8 266.395L1800.19 266.395C1800.47 266.397 1800.73 266.506 1800.93 266.697C1801.13 266.889 1801.25 267.149 1801.26 267.424L1801.26 327.5C1801.25 327.78 1801.14 328.048 1800.94 328.246C1800.74 328.443 1800.47 328.554 1800.19 328.554L1715.8 328.554C1715.66 328.554 1715.53 328.526 1715.4 328.473C1715.27 328.42 1715.16 328.342 1715.06 328.244C1714.96 328.146 1714.89 328.03 1714.84 327.902C1714.78 327.774 1714.76 327.638 1714.76 327.5L1714.76 267.461C1714.76 267.322 1714.78 267.185 1714.84 267.056C1714.89 266.928 1714.96 266.811 1715.06 266.712C1715.16 266.613 1715.27 266.534 1715.4 266.479C1715.53 266.425 1715.66 266.396 1715.8 266.395Z" fill="#171753"/>
<path d="M1816.99 335.931L1767.48 335.931L1767.48 339.08L1748.49 339.08L1748.49 335.931L1698.94 335.931C1698.94 338.18 1699.83 340.337 1701.42 341.927C1703.01 343.517 1705.17 344.411 1707.42 344.411L1808.56 344.411C1810.81 344.411 1812.97 343.517 1814.56 341.927C1816.15 340.337 1817.04 338.18 1817.04 335.931L1816.99 335.931Z" fill="#388B9A"/>
<path fill-rule="evenodd" clip-rule="evenodd" d="M1698.31 335.303L1749.12 335.303L1749.12 338.452L1766.86 338.452L1766.86 335.303L1817.67 335.303L1817.67 335.931C1817.67 338.346 1816.71 340.663 1815 342.371C1813.3 344.079 1810.98 345.039 1808.56 345.039L1707.42 345.039C1705 345.039 1702.69 344.079 1700.98 342.371C1699.27 340.663 1698.31 338.346 1698.31 335.931L1698.31 335.303ZM1699.59 336.559C1699.74 338.411 1700.54 340.159 1701.87 341.483C1703.34 342.956 1705.34 343.783 1707.42 343.783L1808.56 343.783C1810.65 343.783 1812.64 342.956 1814.12 341.483C1815.44 340.159 1816.24 338.411 1816.39 336.559L1768.11 336.559L1768.11 339.708L1747.86 339.708L1747.86 336.559L1699.59 336.559Z" fill="#171753"/>
<path fill-rule="evenodd" clip-rule="evenodd" d="M1698 334.991L1749.43 334.991L1749.43 338.141L1766.54 338.141L1766.54 334.991L1817.98 334.991L1817.98 335.93C1817.98 338.428 1816.99 340.824 1815.22 342.59C1813.46 344.356 1811.06 345.349 1808.56 345.349L1707.42 345.349C1704.92 345.349 1702.53 344.356 1700.76 342.59C1698.99 340.824 1698 338.428 1698 335.93L1698 334.991ZM1698.62 335.613L1698.62 335.93C1698.62 338.263 1699.55 340.501 1701.2 342.15C1702.85 343.8 1705.09 344.727 1707.42 344.727L1808.56 344.727C1810.9 344.727 1813.13 343.8 1814.78 342.15C1816.43 340.501 1817.36 338.263 1817.36 335.93L1817.36 335.613L1767.17 335.613L1767.17 338.763L1748.8 338.763L1748.8 335.613L1698.62 335.613ZM1699.25 336.247L1748.17 336.247L1748.17 339.397L1767.8 339.397L1767.8 336.247L1816.73 336.247L1816.7 336.583C1816.54 338.509 1815.71 340.326 1814.33 341.702C1812.8 343.233 1810.73 344.093 1808.56 344.093L1707.42 344.093C1705.25 344.093 1703.18 343.233 1701.65 341.702C1700.27 340.326 1699.44 338.509 1699.28 336.583L1699.25 336.247ZM1699.94 336.869C1700.14 338.523 1700.9 340.071 1702.09 341.263C1703.5 342.677 1705.42 343.471 1707.42 343.471L1808.56 343.471C1810.56 343.471 1812.48 342.677 1813.89 341.263C1815.09 340.071 1815.84 338.523 1816.05 336.869L1768.42 336.869L1768.42 340.018L1747.55 340.018L1747.55 336.869L1699.94 336.869Z" fill="#171753"/>
<path d="M1798.38 269.811L1717.07 269.811L1717.07 326.098L1798.38 326.098L1798.38 269.811Z" fill="#5ED9D1"/>
<path d="M1799.26 272.421L1778.82 272.421L1778.82 326.085L1799.26 326.085L1799.26 272.421Z" fill="#9BE7C4"/>
<path d="M1721.69 272.023L1716.82 272.023L1716.82 326.097L1721.69 326.097L1721.69 272.023Z" fill="#9BE7C4"/>
<path d="M1799.94 267.69L1715.6 267.69L1715.6 272.421L1799.94 272.421L1799.94 267.69Z" fill="#171753"/>
<path d="M1721.69 277.91L1716.82 277.91L1716.82 279.09L1721.69 279.09L1721.69 277.91Z" fill="#171753"/>
<path d="M1721.69 282.642L1716.82 282.642L1716.82 283.821L1721.69 283.821L1721.69 282.642Z" fill="#171753"/>
<path d="M1721.69 287.385L1716.82 287.385L1716.82 288.564L1721.69 288.564L1721.69 287.385Z" fill="#171753"/>
<path d="M1721.69 292.116L1716.82 292.116L1716.82 293.296L1721.69 293.296L1721.69 292.116Z" fill="#171753"/>
<path d="M1721.69 296.846L1716.82 296.846L1716.82 298.025L1721.69 298.025L1721.69 296.846Z" fill="#171753"/>
<path d="M1721.69 301.577L1716.82 301.577L1716.82 302.757L1721.69 302.757L1721.69 301.577Z" fill="#171753"/>
<path d="M1721.69 306.307L1716.82 306.307L1716.82 307.486L1721.69 307.486L1721.69 306.307Z" fill="#171753"/>
<path d="M1721.69 311.039L1716.82 311.039L1716.82 312.219L1721.69 312.219L1721.69 311.039Z" fill="#171753"/>
<path d="M1799.26 301.577L1778.86 301.577L1778.86 302.757L1799.26 302.757L1799.26 301.577Z" fill="#171753"/>
<path d="M1799.26 306.307L1778.86 306.307L1778.86 307.486L1799.26 307.486L1799.26 306.307Z" fill="#171753"/>
<path d="M1799.26 311.039L1778.86 311.039L1778.86 312.219L1799.26 312.219L1799.26 311.039Z" fill="#171753"/>
<path d="M1794.32 292.116L1782.39 292.116L1782.39 293.296L1794.32 293.296L1794.32 292.116Z" fill="#171753"/>
<path d="M1794.32 296.846L1782.39 296.846L1782.39 298.025L1794.32 298.025L1794.32 296.846Z" fill="#171753"/>
<path d="M1799.26 315.77L1778.86 315.77L1778.86 316.949L1799.26 316.949L1799.26 315.77Z" fill="#171753"/>
<path d="M1799.26 320.501L1778.86 320.501L1778.86 321.681L1799.26 321.681L1799.26 320.501Z" fill="#171753"/>
<path d="M1732.41 269.472L1720.28 269.472L1720.28 270.651L1732.41 270.651L1732.41 269.472Z" fill="#FFC78F"/>
<path d="M1796.02 285.013L1794.32 285.013L1794.32 286.192L1796.02 286.192L1796.02 285.013Z" fill="#FFC78F"/>
<path d="M1789.21 285.013L1787.51 285.013L1787.51 286.192L1789.21 286.192L1789.21 285.013Z" fill="#FFC78F"/>
<path d="M1796.02 280.282L1794.32 280.282L1794.32 281.462L1796.02 281.462L1796.02 280.282Z" fill="#FFC78F"/>
<path d="M1789.21 280.282L1787.51 280.282L1787.51 281.462L1789.21 281.462L1789.21 280.282Z" fill="#FFC78F"/>
<path d="M1782.41 285.013L1780.7 285.013L1780.7 286.192L1782.41 286.192L1782.41 285.013Z" fill="#FFC78F"/>
<path d="M1782.41 280.282L1780.7 280.282L1780.7 281.462L1782.41 281.462L1782.41 280.282Z" fill="#FFC78F"/>
<path d="M1796.02 275.552L1794.32 275.552L1794.32 276.731L1796.02 276.731L1796.02 275.552Z" fill="#FFC78F"/>
<path d="M1789.21 275.552L1787.51 275.552L1787.51 276.731L1789.21 276.731L1789.21 275.552Z" fill="#FFC78F"/>
<path d="M1782.41 275.552L1780.7 275.552L1780.7 276.731L1782.41 276.731L1782.41 275.552Z" fill="#FFC78F"/>
<path d="M1746.68 321.681L1745.46 321.681L1745.46 322.86L1746.68 322.86L1746.68 321.681Z" fill="#171753"/>
<path d="M1741.81 321.681L1740.59 321.681L1740.59 322.86L1741.81 322.86L1741.81 321.681Z" fill="#171753"/>
<path d="M1736.93 321.681L1735.71 321.681L1735.71 322.86L1736.93 322.86L1736.93 321.681Z" fill="#171753"/>
<path fill-rule="evenodd" clip-rule="evenodd" d="M1721.14 327.661L1721.14 272.155L1722.39 272.155L1722.39 327.661L1721.14 327.661ZM1777.43 327.661L1777.43 272.155L1778.67 272.155L1778.67 327.661L1777.43 327.661Z" fill="#171753"/>
<path d="M182.191 258.979L97.8019 258.979C95.5528 258.979 93.3959 259.872 91.8055 261.462C90.2152 263.053 89.3218 265.21 89.3218 267.459L89.3218 335.929L130.487 335.929L130.487 339.079L149.482 339.079L149.482 335.929L190.562 335.929L190.562 267.41C190.55 265.188 189.666 263.06 188.1 261.483C186.535 259.906 184.413 259.007 182.191 258.979Z" fill="#5ED9D1"/>
<path fill-rule="evenodd" clip-rule="evenodd" d="M91.3352 260.994C93.0502 259.279 95.3763 258.315 97.8017 258.315L182.191 258.315L182.191 258.98L182.199 258.315C184.595 258.346 186.883 259.316 188.572 261.017C190.26 262.717 191.213 265.012 191.227 267.408L191.227 267.412L191.227 336.596L150.147 336.596L150.147 339.746L129.822 339.746L129.822 336.596L88.6567 336.596L88.6567 267.46C88.6567 265.035 89.6202 262.709 91.3352 260.994ZM182.187 259.645L97.8017 259.645C95.7289 259.645 93.7411 260.468 92.2754 261.934C90.8098 263.4 89.9864 265.388 89.9864 267.46L89.9864 335.266L131.151 335.266L131.151 338.416L148.817 338.416L148.817 335.266L189.897 335.266L189.897 267.416C189.897 267.415 189.897 267.414 189.897 267.414C189.885 265.367 189.07 263.406 187.628 261.953C186.186 260.501 184.233 259.672 182.187 259.645Z" fill="#171753"/>
<path fill-rule="evenodd" clip-rule="evenodd" d="M182.502 258.013L182.502 258.004L182.191 258.004L181.893 258L181.893 258.004L97.8019 258.004C95.2941 258.004 92.889 259 91.1157 260.773C89.3424 262.547 88.3462 264.952 88.3462 267.46L88.3462 336.906L129.511 336.906L129.511 340.056L150.458 340.056L150.458 336.906L191.538 336.906L191.538 267.411L191.538 267.407C191.524 264.929 190.538 262.555 188.793 260.797C187.117 259.109 184.87 258.118 182.502 258.013ZM181.88 258.626L181.88 258.98L182.502 258.984L182.502 258.98L182.506 258.635C184.707 258.741 186.794 259.666 188.351 261.235C189.982 262.878 190.903 265.095 190.916 267.409L190.916 267.411L190.916 336.285L149.836 336.285L149.836 339.434L130.133 339.434L130.133 336.285L88.9679 336.285L88.9679 267.46C88.9679 265.117 89.8986 262.87 91.5553 261.213C93.212 259.556 95.459 258.626 97.8019 258.626L181.88 258.626ZM97.8019 259.955C95.8116 259.955 93.9029 260.746 92.4955 262.153C91.0881 263.561 90.2975 265.469 90.2975 267.46L90.2975 334.955L131.462 334.955L131.462 338.105L148.507 338.105L148.507 334.955L189.587 334.955L189.587 267.417L189.587 267.415C189.575 265.449 188.793 263.567 187.408 262.172C186.024 260.778 184.149 259.982 182.185 259.955L97.8019 259.955ZM92.0559 261.714C93.5799 260.19 95.6468 259.334 97.8019 259.334L182.191 259.334C184.318 259.362 186.35 260.224 187.849 261.734C189.349 263.244 190.196 265.283 190.208 267.411L190.208 267.413L190.208 335.577L149.128 335.577L149.128 338.726L130.841 338.726L130.841 335.577L89.6758 335.577L89.6758 267.46C89.6758 265.304 90.532 263.238 92.0559 261.714Z" fill="#171753"/>
<path d="M182.191 266.395L97.8022 266.395C97.6638 266.396 97.527 266.425 97.3997 266.479C97.2725 266.534 97.1572 266.613 97.0604 266.712C96.9637 266.811 96.8874 266.928 96.8359 267.056C96.7844 267.185 96.7587 267.322 96.7603 267.461L96.7603 327.5C96.7587 327.638 96.7845 327.774 96.8361 327.902C96.8878 328.03 96.9643 328.146 97.0612 328.244C97.1581 328.342 97.2735 328.42 97.4007 328.473C97.5279 328.526 97.6643 328.554 97.8022 328.554L182.191 328.554C182.472 328.554 182.741 328.443 182.941 328.246C183.141 328.048 183.254 327.78 183.257 327.5L183.257 267.424C183.245 267.149 183.128 266.889 182.929 266.697C182.731 266.506 182.467 266.397 182.191 266.395ZM181.137 326.482L98.8682 326.482L98.8682 268.466L181.077 268.466L181.137 326.482Z" fill="#171753"/>
<path fill-rule="evenodd" clip-rule="evenodd" d="M181.077 268.466L98.8682 268.466L98.8682 326.482L181.137 326.482L181.077 268.466ZM97.8022 266.395L182.191 266.395C182.467 266.397 182.731 266.506 182.929 266.697C183.128 266.889 183.245 267.149 183.257 267.424L183.257 327.5C183.254 327.78 183.141 328.048 182.941 328.246C182.741 328.443 182.472 328.554 182.191 328.554L97.8022 328.554C97.6643 328.554 97.5279 328.526 97.4007 328.473C97.2735 328.42 97.1581 328.342 97.0612 328.244C96.9643 328.146 96.8878 328.03 96.8361 327.902C96.7845 327.774 96.7587 327.638 96.7603 327.5L96.7603 267.461C96.7587 267.322 96.7844 267.185 96.8359 267.056C96.8874 266.928 96.9637 266.811 97.0604 266.712C97.1572 266.613 97.2725 266.534 97.3997 266.479C97.527 266.425 97.6638 266.396 97.8022 266.395Z" fill="#171753"/>
<path d="M198.994 335.931L149.482 335.931L149.482 339.08L130.487 339.08L130.487 335.931L80.9385 335.931C80.9385 338.18 81.8319 340.337 83.4222 341.927C85.0126 343.517 87.1695 344.411 89.4186 344.411L190.562 344.411C192.811 344.411 194.968 343.517 196.558 341.927C198.149 340.337 199.042 338.18 199.042 335.931L198.994 335.931Z" fill="#388B9A"/>
<path fill-rule="evenodd" clip-rule="evenodd" d="M80.311 335.303L131.115 335.303L131.115 338.452L148.855 338.452L148.855 335.303L199.671 335.303L199.671 335.931C199.671 338.346 198.711 340.663 197.003 342.371C195.295 344.079 192.978 345.039 190.563 345.039L89.419 345.039C87.0034 345.039 84.6868 344.079 82.9787 342.371C81.2706 340.663 80.311 338.346 80.311 335.931L80.311 335.303ZM81.5919 336.559C81.7405 338.411 82.5428 340.159 83.8667 341.483C85.3392 342.956 87.3365 343.783 89.419 343.783L190.563 343.783C192.645 343.783 194.642 342.956 196.115 341.483C197.439 340.159 198.241 338.411 198.39 336.559L150.11 336.559L150.11 339.708L129.859 339.708L129.859 336.559L81.5919 336.559Z" fill="#171753"/>
<path fill-rule="evenodd" clip-rule="evenodd" d="M80 334.991L131.426 334.991L131.426 338.141L148.544 338.141L148.544 334.991L199.981 334.991L199.981 335.93C199.981 338.428 198.989 340.824 197.222 342.59C195.456 344.356 193.06 345.349 190.562 345.349L89.4188 345.349C86.9208 345.349 84.5251 344.356 82.7587 342.59C80.9923 340.824 80 338.428 80 335.93L80 334.991ZM80.6217 335.613L80.6217 335.93C80.6217 338.263 81.5485 340.501 83.1983 342.15C84.8481 343.8 87.0857 344.727 89.4188 344.727L190.562 344.727C192.895 344.727 195.133 343.8 196.783 342.15C198.433 340.501 199.359 338.263 199.359 335.93L199.359 335.613L149.165 335.613L149.165 338.763L130.804 338.763L130.804 335.613L80.6217 335.613ZM81.255 336.247L130.17 336.247L130.17 339.397L149.799 339.397L149.799 336.247L198.726 336.247L198.699 336.583C198.545 338.509 197.711 340.326 196.334 341.702C194.804 343.233 192.727 344.093 190.562 344.093L89.4188 344.093C87.2538 344.093 85.1775 343.233 83.6467 341.702C82.2704 340.326 81.4363 338.509 81.2819 336.583L81.255 336.247ZM81.9361 336.869C82.1435 338.523 82.8951 340.071 84.0863 341.263C85.5005 342.677 87.4187 343.471 89.4188 343.471L190.562 343.471C192.562 343.471 194.481 342.677 195.895 341.263C197.086 340.071 197.838 338.523 198.045 336.869L150.421 336.869L150.421 340.018L129.548 340.018L129.548 336.869L81.9361 336.869Z" fill="#171753"/>
<path d="M180.378 269.811L99.0737 269.811L99.0737 326.098L180.378 326.098L180.378 269.811Z" fill="#5ED9D1"/>
<path d="M181.259 272.421L160.822 272.421L160.822 326.085L181.259 326.085L181.259 272.421Z" fill="#9BE7C4"/>
<path d="M103.69 272.023L98.8198 272.023L98.8198 326.097L103.69 326.097L103.69 272.023Z" fill="#9BE7C4"/>
<path d="M181.937 267.69L97.5962 267.69L97.5962 272.421L181.937 272.421L181.937 267.69Z" fill="#171753"/>
<path d="M103.69 277.91L98.8198 277.91L98.8198 279.09L103.69 279.09L103.69 277.91Z" fill="#171753"/>
<path d="M103.69 282.642L98.8198 282.642L98.8198 283.821L103.69 283.821L103.69 282.642Z" fill="#171753"/>
<path d="M103.69 287.385L98.8198 287.385L98.8198 288.564L103.69 288.564L103.69 287.385Z" fill="#171753"/>
<path d="M103.69 292.116L98.8198 292.116L98.8198 293.296L103.69 293.296L103.69 292.116Z" fill="#171753"/>
<path d="M103.69 296.846L98.8198 296.846L98.8198 298.025L103.69 298.025L103.69 296.846Z" fill="#171753"/>
<path d="M103.69 301.577L98.8198 301.577L98.8198 302.757L103.69 302.757L103.69 301.577Z" fill="#171753"/>
<path d="M103.69 306.307L98.8198 306.307L98.8198 307.486L103.69 307.486L103.69 306.307Z" fill="#171753"/>
<path d="M103.69 311.039L98.8198 311.039L98.8198 312.219L103.69 312.219L103.69 311.039Z" fill="#171753"/>
<path d="M181.259 301.577L160.858 301.577L160.858 302.757L181.259 302.757L181.259 301.577Z" fill="#171753"/>
<path d="M181.259 306.307L160.858 306.307L160.858 307.486L181.259 307.486L181.259 306.307Z" fill="#171753"/>
<path d="M181.259 311.039L160.858 311.039L160.858 312.219L181.259 312.219L181.259 311.039Z" fill="#171753"/>
<path d="M176.316 292.116L164.396 292.116L164.396 293.296L176.316 293.296L176.316 292.116Z" fill="#171753"/>
<path d="M176.316 296.846L164.396 296.846L164.396 298.025L176.316 298.025L176.316 296.846Z" fill="#171753"/>
<path d="M181.259 315.77L160.858 315.77L160.858 316.949L181.259 316.949L181.259 315.77Z" fill="#171753"/>
<path d="M181.259 320.501L160.858 320.501L160.858 321.681L181.259 321.681L181.259 320.501Z" fill="#171753"/>
<path d="M114.411 269.472L102.285 269.472L102.285 270.651L114.411 270.651L114.411 269.472Z" fill="#FFC78F"/>
<path d="M178.024 285.013L176.316 285.013L176.316 286.192L178.024 286.192L178.024 285.013Z" fill="#FFC78F"/>
<path d="M171.216 285.013L169.508 285.013L169.508 286.192L171.216 286.192L171.216 285.013Z" fill="#FFC78F"/>
<path d="M178.024 280.282L176.316 280.282L176.316 281.462L178.024 281.462L178.024 280.282Z" fill="#FFC78F"/>
<path d="M171.216 280.282L169.508 280.282L169.508 281.462L171.216 281.462L171.216 280.282Z" fill="#FFC78F"/>
<path d="M164.407 285.013L162.699 285.013L162.699 286.192L164.407 286.192L164.407 285.013Z" fill="#FFC78F"/>
<path d="M164.407 280.282L162.699 280.282L162.699 281.462L164.407 281.462L164.407 280.282Z" fill="#FFC78F"/>
<path d="M178.024 275.552L176.316 275.552L176.316 276.731L178.024 276.731L178.024 275.552Z" fill="#FFC78F"/>
<path d="M171.216 275.552L169.508 275.552L169.508 276.731L171.216 276.731L171.216 275.552Z" fill="#FFC78F"/>
<path d="M164.407 275.552L162.699 275.552L162.699 276.731L164.407 276.731L164.407 275.552Z" fill="#FFC78F"/>
<path d="M128.682 321.681L127.458 321.681L127.458 322.86L128.682 322.86L128.682 321.681Z" fill="#171753"/>
<path d="M123.812 321.681L122.588 321.681L122.588 322.86L123.812 322.86L123.812 321.681Z" fill="#171753"/>
<path d="M118.93 321.681L117.706 321.681L117.706 322.86L118.93 322.86L118.93 321.681Z" fill="#171753"/>
<path fill-rule="evenodd" clip-rule="evenodd" d="M103.143 327.661L103.143 272.155L104.386 272.155L104.386 327.661L103.143 327.661ZM159.43 327.661L159.43 272.155L160.674 272.155L160.674 327.661L159.43 327.661Z" fill="#171753"/>
</g>
<defs>
<linearGradient id="paint0_linear_1203_6094" x1="-7.07805e-06" y1="300" x2="1900" y2="300" gradientUnits="userSpaceOnUse">
<stop stop-color="#030332"/>
<stop offset="1" stop-color="#171753"/>
</linearGradient>
<clipPath id="clip0_1203_6094">
<rect width="1900" height="600" fill="white"/>
</clipPath>
<clipPath id="clip1_1203_6094">
<rect width="373" height="93" fill="white" transform="translate(1068.68 133.268)"/>
</clipPath>
<clipPath id="clip2_1203_6094">
<rect width="373" height="93" fill="white" transform="matrix(-1 8.14215e-08 8.14215e-08 1 822.7 133.268)"/>
</clipPath>
<clipPath id="clip3_1203_6094">
<rect width="373" height="373" fill="white" transform="matrix(1 -8.74228e-08 -8.74228e-08 -1 761 415)"/>
</clipPath>
<clipPath id="clip4_1203_6094">
<rect width="947" height="657" fill="white" transform="translate(23 -65.5)"/>
</clipPath>
<clipPath id="clip5_1203_6094">
<rect width="947" height="657" fill="white" transform="translate(989.931 -65.5)"/>
</clipPath>
</defs>
</svg>
