<svg width="1900" height="600" viewBox="0 0 1900 600" fill="none" xmlns="http://www.w3.org/2000/svg">
<g clip-path="url(#clip0_1203_4574)">
<rect width="1900" height="600" fill="url(#paint0_linear_1203_4574)"/>
<g clip-path="url(#clip1_1203_4574)">
<path d="M491.844 396.444C491.844 396.076 491.953 395.717 492.158 395.411C492.362 395.105 492.653 394.867 492.993 394.726C493.333 394.586 493.707 394.549 494.068 394.621C494.428 394.692 494.76 394.869 495.02 395.129C495.28 395.389 495.457 395.721 495.529 396.081C495.601 396.442 495.564 396.816 495.423 397.156C495.283 397.496 495.044 397.786 494.738 397.99C494.432 398.195 494.073 398.304 493.705 398.304C493.211 398.304 492.738 398.108 492.389 397.759C492.04 397.41 491.844 396.937 491.844 396.444Z" fill="#5ED9D1"/>
<path d="M103.76 47.9589C103.76 47.5911 103.869 47.2316 104.073 46.9258C104.278 46.62 104.568 46.3817 104.908 46.2409C105.248 46.1002 105.622 46.0633 105.983 46.1351C106.344 46.2068 106.675 46.384 106.936 46.644C107.196 46.9041 107.373 47.2353 107.445 47.5961C107.516 47.9568 107.48 48.3307 107.339 48.6704C107.198 49.0102 106.96 49.3006 106.654 49.5049C106.348 49.7093 105.988 49.8184 105.62 49.8184C105.376 49.8184 105.134 49.7702 104.908 49.6768C104.683 49.5833 104.477 49.4464 104.305 49.2737C104.132 49.1011 103.995 48.896 103.901 48.6704C103.808 48.4448 103.76 48.2031 103.76 47.9589Z" fill="#5ED9D1"/>
<path d="M631.609 253.656C631.606 253.287 631.713 252.926 631.916 252.619C632.118 252.311 632.408 252.07 632.747 251.927C633.087 251.784 633.461 251.745 633.823 251.815C634.185 251.885 634.518 252.061 634.78 252.32C635.041 252.58 635.22 252.911 635.293 253.272C635.366 253.633 635.33 254.008 635.19 254.349C635.05 254.689 634.811 254.981 634.505 255.186C634.199 255.391 633.838 255.5 633.47 255.5C632.979 255.5 632.508 255.306 632.16 254.961C631.811 254.615 631.613 254.146 631.609 253.656Z" fill="#5ED9D1"/>
<path d="M885.214 65.9383C884.186 65.9383 883.353 66.7708 883.353 67.7978C883.353 68.8247 884.186 69.6572 885.214 69.6572C886.241 69.6572 887.074 68.8247 887.074 67.7978C887.074 66.7708 886.241 65.9383 885.214 65.9383Z" fill="#5ED9D1"/>
<path d="M453.766 156.64C452.738 156.64 451.905 157.473 451.905 158.5C451.905 159.527 452.738 160.359 453.766 160.359C454.793 160.359 455.626 159.527 455.626 158.5C455.626 157.473 454.793 156.64 453.766 156.64Z" fill="#5ED9D1"/>
<path d="M1.86037 290.247C0.832908 290.247 -6.12875e-05 291.079 -6.11977e-05 292.106C-6.11079e-05 293.133 0.832908 293.966 1.86037 293.966C2.88783 293.966 3.7207 293.133 3.7207 292.106C3.7207 291.079 2.88783 290.247 1.86037 290.247Z" fill="#5ED9D1"/>
<path d="M169.433 362.702C169.433 362.334 169.542 361.975 169.747 361.669C169.951 361.363 170.242 361.125 170.582 360.984C170.922 360.843 171.296 360.807 171.656 360.878C172.017 360.95 172.349 361.127 172.609 361.387C172.869 361.647 173.046 361.979 173.118 362.339C173.19 362.7 173.153 363.074 173.012 363.414C172.871 363.753 172.633 364.044 172.327 364.248C172.021 364.452 171.661 364.562 171.293 364.562C170.8 364.562 170.327 364.366 169.978 364.017C169.629 363.668 169.433 363.195 169.433 362.702Z" fill="white"/>
<path d="M450.045 42.3807C449.017 42.3807 448.185 43.2132 448.185 44.2402C448.185 45.2671 449.017 46.0996 450.045 46.0996C451.072 46.0996 451.905 45.2671 451.905 44.2402C451.905 43.2132 451.072 42.3807 450.045 42.3807Z" fill="white"/>
<path d="M360.343 181.692C359.315 181.692 358.482 182.525 358.482 183.552C358.482 184.579 359.315 185.411 360.343 185.411C361.37 185.411 362.203 184.579 362.203 183.552C362.203 182.525 361.37 181.692 360.343 181.692Z" fill="white"/>
<path d="M72.2808 409.902C72.2808 409.534 72.3899 409.175 72.5943 408.869C72.7987 408.563 73.0892 408.325 73.4292 408.184C73.7691 408.044 74.1432 408.007 74.504 408.079C74.8649 408.15 75.1964 408.327 75.4566 408.587C75.7167 408.847 75.8939 409.179 75.9657 409.539C76.0375 409.9 76.0007 410.274 75.8599 410.614C75.719 410.954 75.4806 411.244 75.1747 411.448C74.8687 411.653 74.5091 411.762 74.1411 411.762C73.6477 411.762 73.1745 411.566 72.8256 411.217C72.4768 410.868 72.2808 410.395 72.2808 409.902Z" fill="white"/>
</g>
<path d="M1283.65 191.604C1283.65 191.971 1283.54 192.331 1283.33 192.637C1283.13 192.942 1282.84 193.181 1282.5 193.322C1282.16 193.462 1281.78 193.499 1281.42 193.427C1281.06 193.356 1280.73 193.179 1280.47 192.918C1280.21 192.658 1280.03 192.327 1279.96 191.966C1279.89 191.606 1279.93 191.232 1280.07 190.892C1280.21 190.552 1280.45 190.262 1280.75 190.058C1281.06 189.853 1281.42 189.744 1281.79 189.744C1282.28 189.744 1282.75 189.94 1283.1 190.289C1283.45 190.637 1283.65 191.11 1283.65 191.604Z" fill="#5ED9D1"/>
<path d="M1644.66 437.628C1644.66 437.996 1644.55 438.355 1644.34 438.661C1644.14 438.967 1643.85 439.205 1643.51 439.346C1643.17 439.487 1642.79 439.524 1642.43 439.452C1642.07 439.38 1641.74 439.203 1641.48 438.943C1641.22 438.683 1641.04 438.352 1640.97 437.991C1640.9 437.63 1640.94 437.256 1641.08 436.916C1641.22 436.577 1641.46 436.286 1641.76 436.082C1642.07 435.878 1642.43 435.769 1642.8 435.769C1643.04 435.769 1643.28 435.817 1643.51 435.91C1643.73 436.004 1643.94 436.141 1644.11 436.313C1644.28 436.486 1644.42 436.691 1644.51 436.916C1644.61 437.142 1644.66 437.384 1644.66 437.628Z" fill="#5ED9D1"/>
<path d="M1109.43 83.5366C1109.43 83.905 1109.33 84.266 1109.13 84.5738C1108.92 84.8816 1108.63 85.1223 1108.29 85.2654C1107.95 85.4084 1107.58 85.4474 1107.22 85.3774C1106.86 85.3074 1106.52 85.1315 1106.26 84.8721C1106 84.6126 1105.82 84.2814 1105.75 83.9203C1105.67 83.5591 1105.71 83.1845 1105.85 82.8438C1105.99 82.5032 1106.23 82.2119 1106.54 82.0068C1106.84 81.8018 1107.2 81.6924 1107.57 81.6924C1108.06 81.6924 1108.53 81.8862 1108.88 82.2316C1109.23 82.577 1109.43 83.0461 1109.43 83.5366Z" fill="#5ED9D1"/>
<path d="M1155.21 462.549C1156.23 462.549 1157.07 461.716 1157.07 460.69C1157.07 459.663 1156.23 458.83 1155.21 458.83C1154.18 458.83 1153.34 459.663 1153.34 460.69C1153.34 461.716 1154.18 462.549 1155.21 462.549Z" fill="#5ED9D1"/>
<path d="M1805.43 364.932C1806.46 364.932 1807.29 364.099 1807.29 363.072C1807.29 362.045 1806.46 361.213 1805.43 361.213C1804.4 361.213 1803.57 362.045 1803.57 363.072C1803.57 364.099 1804.4 364.932 1805.43 364.932Z" fill="#5ED9D1"/>
<path d="M1528.33 137.9C1528.33 138.267 1528.22 138.627 1528.01 138.933C1527.81 139.238 1527.52 139.477 1527.18 139.617C1526.84 139.758 1526.46 139.795 1526.1 139.723C1525.74 139.651 1525.41 139.474 1525.15 139.214C1524.89 138.954 1524.71 138.623 1524.64 138.262C1524.57 137.902 1524.61 137.528 1524.75 137.188C1524.89 136.848 1525.13 136.558 1525.43 136.353C1525.74 136.149 1526.1 136.04 1526.47 136.04C1526.96 136.04 1527.43 136.236 1527.78 136.585C1528.13 136.933 1528.33 137.406 1528.33 137.9Z" fill="white"/>
<path d="M1362.54 493.553C1363.57 493.553 1364.4 492.72 1364.4 491.693C1364.4 490.666 1363.57 489.834 1362.54 489.834C1361.52 489.834 1360.68 490.666 1360.68 491.693C1360.68 492.72 1361.52 493.553 1362.54 493.553Z" fill="white"/>
<path d="M1470.79 510.585C1471.82 510.585 1472.65 509.753 1472.65 508.726C1472.65 507.699 1471.82 506.866 1470.79 506.866C1469.77 506.866 1468.93 507.699 1468.93 508.726C1468.93 509.753 1469.77 510.585 1470.79 510.585Z" fill="white"/>
<path d="M1769.05 600C1770.08 600 1770.91 599.168 1770.91 598.141C1770.91 597.114 1770.08 596.281 1769.05 596.281C1768.02 596.281 1767.19 597.114 1767.19 598.141C1767.19 599.168 1768.02 600 1769.05 600Z" fill="white"/>
<path d="M1389.64 141.618C1389.64 141.986 1389.53 142.346 1389.33 142.651C1389.12 142.957 1388.83 143.195 1388.49 143.336C1388.15 143.477 1387.78 143.514 1387.42 143.442C1387.06 143.37 1386.72 143.193 1386.46 142.933C1386.2 142.673 1386.03 142.342 1385.95 141.981C1385.88 141.62 1385.92 141.246 1386.06 140.907C1386.2 140.567 1386.44 140.276 1386.75 140.072C1387.05 139.868 1387.41 139.759 1387.78 139.759C1388.27 139.759 1388.75 139.955 1389.09 140.303C1389.44 140.652 1389.64 141.125 1389.64 141.618Z" fill="white"/>
<path d="M1741.08 252.16C1741.08 252.528 1740.97 252.888 1740.77 253.193C1740.56 253.499 1740.27 253.737 1739.93 253.878C1739.59 254.019 1739.22 254.056 1738.86 253.984C1738.5 253.912 1738.16 253.735 1737.9 253.475C1737.64 253.215 1737.47 252.884 1737.4 252.523C1737.32 252.162 1737.36 251.788 1737.5 251.449C1737.64 251.109 1737.88 250.818 1738.19 250.614C1738.49 250.41 1738.85 250.301 1739.22 250.301C1739.71 250.301 1740.19 250.497 1740.54 250.845C1740.88 251.194 1741.08 251.667 1741.08 252.16Z" fill="#5ED9D1"/>
<path opacity="0.5" d="M1626.19 430.298C1594.39 405.414 1527.16 372.395 1465.22 372.395C1387.81 372.395 1330.36 420.554 1176.46 370.1" stroke="#FFEE81" stroke-width="3" stroke-linecap="round"/>
<path opacity="0.5" d="M274.014 428.71C305.81 403.825 389.637 371.687 451.57 371.687C528.988 371.686 587.806 421.894 739.121 371.687" stroke="#FFEE81" stroke-width="3" stroke-linecap="round"/>
<path opacity="0.5" d="M1190.28 199.932C1226.22 225.277 1282.43 291.107 1224.92 341.981C1153.03 405.574 1050.71 364.799 1042.57 364.799" stroke="#FFEE81" stroke-width="3" stroke-linecap="round"/>
<path opacity="0.5" d="M434.445 200.795C453.799 245.033 527.329 327.327 653.408 296.36" stroke="#FFEE81" stroke-width="3" stroke-linecap="round"/>
<path opacity="0.5" d="M1479.57 200.277C1460.21 244.516 1375.75 326.63 1249.67 295.663" stroke="#FFEE81" stroke-width="3" stroke-linecap="round"/>
<path opacity="0.5" d="M714.582 200.277C678.639 225.622 622.165 291.108 679.675 341.982C751.562 405.574 853.88 364.799 862.02 364.799" stroke="#FFEE81" stroke-width="3" stroke-linecap="round"/>
<path opacity="0.5" d="M600.689 429.948C634.838 419.398 714.164 425.072 786.895 444.662C892.037 472.981 923.939 439.664 950 421.34" stroke="#FFEE81" stroke-width="3" stroke-linecap="round"/>
<path opacity="0.5" d="M1316.28 432.027C1280.37 421.476 1196.82 425.073 1120.34 444.663C1009.77 472.982 977.405 440.398 950 422.074V407.219" stroke="#FFEE81" stroke-width="3" stroke-linecap="square"/>
<circle cx="655" cy="295.369" r="5" fill="#B3D6D3"/>
<circle cx="736" cy="372.369" r="5" fill="#B3D6D3"/>
<circle cx="1250" cy="296.369" r="5" fill="#B3D6D3"/>
<circle cx="1177" cy="369.369" r="5" fill="#B3D6D3"/>
<ellipse cx="1479.97" cy="200.076" rx="4.0112" ry="3.13392" transform="rotate(41.5927 1479.97 200.076)" fill="#CCFBF7"/>
<ellipse rx="4.0112" ry="3.13392" transform="matrix(-0.747882 0.663831 0.663831 0.747882 1189.95 200.277)" fill="#FBD4CC"/>
<ellipse rx="4.0112" ry="3.13392" transform="matrix(-0.747882 0.663831 0.663831 0.747882 434.176 200.652)" fill="#CCFBF7"/>
<ellipse cx="714.765" cy="200.395" rx="4.0112" ry="3.13392" transform="rotate(41.5927 714.765 200.395)" fill="#FBD4CC"/>
<circle cx="950" cy="422.369" r="5" fill="#B3D6D3"/>
<path d="M380.365 81.6904C380.708 81.7247 381.052 81.7659 381.381 81.814C381.045 81.7728 380.708 81.7247 380.365 81.6904Z" fill="#BEF0ED"/>
<path d="M401.628 88.5472L399.768 87.5451L399.61 87.4559L399.02 87.1676L399.411 87.353L398.526 86.8931L397.222 86.296L397.565 86.4676C395.973 85.7263 394.346 85.0949 392.671 84.4703C385.533 82.7888 378.169 82.0887 365.485 81.876C388.979 83.0359 397.057 86.3852 399.754 87.5383C400.393 87.8677 401.01 88.1972 401.628 88.5472Z" fill="#BEF0ED"/>
<path d="M382.959 81.0861L380.331 80.4683L379.837 80.3723C377.126 79.9467 371.751 80.7909 365.526 81.8548C366.069 81.7793 366.604 81.7175 367.132 81.6557C377.421 80.5095 380.399 80.7017 382.959 81.0861Z" fill="#BEF0ED"/>
<path d="M375.314 79.6448L372.705 79.3359C372.554 79.3359 372.534 79.3771 365.526 81.8823C373.666 79.7203 374.449 79.6997 375.554 79.6722L375.314 79.6448Z" fill="#BEF0ED"/>
<path d="M340.571 221.703L341.12 221.896C342.424 222.335 344.037 222.836 345.286 223.227C346.536 223.618 348.313 224.003 349.61 224.312C332.658 220.194 318.197 210.88 306.625 196.7L309.878 200.715C310.283 201.175 310.647 201.58 310.983 201.951C312.184 203.2 313.612 204.655 315.101 206.069C316 206.892 317.119 207.881 318.663 209.246C319.46 209.885 320.393 210.619 321.347 211.305C327.2 215.712 333.68 219.216 340.571 221.703Z" fill="#BEF0ED"/>
<path d="M369.178 79.1784L368.821 79.048L367.544 79H366.117C366.975 79 367.002 79.0618 367.386 79.5697C367.139 80.455 367.139 80.455 365.513 81.9101C368.951 79.9609 369.054 79.5971 369.178 79.1784Z" fill="#BEF0ED"/>
<path d="M296.941 179.418C310.42 211.237 344.168 223.413 356.082 225.403H356.254C356.886 225.478 357.675 225.561 358.279 225.623L359.535 225.732H359.624C352.589 225.08 304.223 210.811 293.337 166.899C293.461 167.551 293.578 168.19 293.694 168.78C294.504 171.841 295.753 175.842 296.79 178.897L296.941 179.418Z" fill="#BEF0ED"/>
<path d="M363.44 79.542C365.108 80.1734 365.19 80.5372 365.499 81.8824C366.72 79.1371 364.188 79.0959 361.95 79.0479C361.168 79.089 360.125 79.1577 359.342 79.2194L358.601 79.2812C359.74 79.2057 362.122 79.0273 363.44 79.542Z" fill="#BEF0ED"/>
<path d="M363.838 226H364.682H366.7C361.12 225.904 281.251 195.637 294.161 134.141C293.722 135.87 293.289 138.204 292.919 139.954C292.562 142.185 292.267 145.198 292.02 147.449C290.695 202.637 356.529 225.286 363.838 226Z" fill="#BEF0ED"/>
<path d="M351.793 80.2565L351.333 80.3525C360.324 78.8083 364.071 81.0389 365.492 81.8831C362.953 79.0828 358.526 79.1309 351.793 80.2565Z" fill="#BEF0ED"/>
<path d="M301.333 116.371C268.89 178.917 359.768 223.083 370.653 225.828H370.88L371.353 225.794H371.58L373.364 225.622H373.577C360.701 215.835 345.039 210.523 332.63 199.981C326.556 194.833 312.335 182.767 304.017 166.638C287.387 134.38 302.191 113.79 309.452 104.93L308.704 105.808L307.462 107.201C305.54 109.844 303.124 113.468 301.395 116.261L301.333 116.371Z" fill="#BEF0ED"/>
<path d="M348.478 80.9563H348.608L348.258 81.0386C347.455 81.2171 346.385 81.5053 345.588 81.725C343.941 82.1848 341.766 82.8574 340.166 83.4614C339.192 83.832 337.881 84.3193 336.92 84.7311C335.767 85.2253 334.25 85.9322 333.118 86.4607C331.985 86.9892 330.434 87.8334 329.329 88.458C328.025 89.2198 326.419 90.2081 324.985 91.1278C310.297 101.231 298.698 117.449 300.276 135.74C304.065 178.869 352.905 208.451 371.292 219.583C377.654 223.44 377.654 223.44 378.025 224.95H378.148C379.157 224.765 380.427 224.497 381.429 224.264H381.532C381.896 224.14 382.157 223.625 382.397 223.337C381.566 221.731 379.926 220.592 371.079 214.779C348.334 199.878 325.444 182.74 312.054 158.451C281.903 103.633 340.386 75.2734 365.437 81.9515C360.633 80.0091 354.73 79.7964 348.478 80.9563Z" fill="#BEF0ED"/>
<path d="M373.907 208.581C387.744 218.361 391.066 220.688 386.666 222.85L386.81 222.809L389 222.122L390.523 221.58C396.7 218.704 391.319 214.717 378.416 205.225C364.14 194.717 346.371 181.635 331.292 162.5C286.79 106.014 334.292 78.0805 365.493 81.9103C330.036 74.2233 253.743 123.674 373.907 208.581Z" fill="#BEF0ED"/>
<path d="M382.047 197.585C398.183 209.939 404.236 214.599 396.226 219.212L396.412 219.129C397.784 218.484 399.425 217.606 400.708 216.947C406.961 213.295 404.463 209.054 400.832 205.018C385.65 188.134 365.485 176.947 349.933 160.489C299.878 107.489 333.461 81.1478 365.492 81.8822C332.857 78.9035 274.518 115.149 382.047 197.585Z" fill="#BEF0ED"/>
<path d="M394.518 187.345C409.899 199.699 415.376 206.295 407.174 212.953C408.546 211.964 410.358 210.571 411.752 209.521C412.438 208.938 413.193 208.313 413.9 207.695C420.283 201.848 416.7 198.691 373.77 160.88C311.539 106.069 339.583 86.7144 359.864 82.6719C341.464 86.0761 290.181 103.736 394.518 187.345Z" fill="#BEF0ED"/>
<path d="M364.675 81.9512C363.062 82.0904 361.459 82.3196 359.871 82.6375C362.019 82.2463 363.742 82.0404 364.675 81.9512Z" fill="#BEF0ED"/>
<path d="M365.492 81.8828C365.444 81.8828 365.156 81.8828 364.675 81.9514L365.492 81.8828Z" fill="#BEF0ED"/>
<path d="M391.649 163.214C417.16 183.742 426.741 193.138 418.416 203.337L418.581 203.166C419.885 201.793 421.456 199.906 422.699 198.492L422.774 198.396C430.036 188.869 423.097 178.856 393.145 155.582C315.012 94.8752 356.405 83.5163 365.492 81.8828C358.869 82.7201 303.344 92.123 391.649 163.214Z" fill="#BEF0ED"/>
<path d="M396.926 146.79C425.794 168.355 433.741 179.377 428.34 190.407C428.56 190.043 428.772 189.72 428.978 189.329L429.184 188.979C429.328 188.725 429.466 188.485 429.596 188.245L431.25 185.074C431.449 184.662 431.648 184.257 431.833 183.866C438.285 169.089 413.865 151.313 397.654 139.515C344.847 101.08 350.983 86.9687 365.492 81.8623C353.138 85.1087 331.484 97.8883 396.926 146.79Z" fill="#BEF0ED"/>
<path d="M398.34 130.05C423.543 147.806 438.642 159.679 435.499 174.497C435.65 173.996 435.801 173.495 435.945 173.001C436.453 171.155 436.954 169.075 437.359 167.421C439.521 152.651 424.318 141.395 399.233 124.257C382.685 112.94 351.875 91.869 365.492 81.8828C344.154 91.8759 384.936 120.606 398.34 130.05Z" fill="#BEF0ED"/>
<path d="M400.187 116.989C428.587 135.417 438.237 143.756 438.745 156.46C438.745 156.213 438.745 155.959 438.793 155.712L438.883 152.61L438.814 149.611C438.814 149.261 438.78 148.924 438.766 148.581C437.675 135.273 419.926 124.292 397.489 110.428C381.704 100.675 363.818 89.6178 365.492 81.8828C358.107 89.7002 383.426 106.124 400.187 116.989Z" fill="#BEF0ED"/>
<path d="M398.354 105.232C424.511 120.084 434.359 127.291 437.475 138.176C437.084 136.296 436.446 133.907 435.911 131.889C435.787 131.471 435.67 131.059 435.54 130.64C431.291 119.583 417.009 111.642 392.301 98.6226C374.799 89.4188 369.041 85.8155 365.479 81.8828C367.531 87.7304 380.461 95.0742 398.354 105.232Z" fill="#BEF0ED"/>
<path d="M431.82 121.052C431.71 120.833 431.607 120.613 431.497 120.366L430.008 117.428L429.006 115.671L428.443 114.711C425.066 109.474 418.972 105.569 410.241 100.984C395.828 93.4341 380.351 88.3551 365.492 81.8418C370.132 84.7931 378.649 88.7052 389.432 93.6537C418.031 106.838 426.885 112.521 431.82 121.052Z" fill="#BEF0ED"/>
<path d="M422.898 106.749C422.767 106.577 422.637 106.419 422.493 106.248L422.225 105.925C422.115 105.795 422.005 105.657 421.889 105.527C420.811 104.264 419.589 102.912 418.615 101.814C412.218 95.2663 394.346 88.5539 365.492 81.9102C409.26 94.9986 417.729 101.148 422.898 106.749Z" fill="#BEF0ED"/>
<path d="M410.9 94.8134C409.83 93.9898 408.656 93.1319 407.654 92.3838L407.029 91.9651C400.09 87.5794 386.124 84.1889 365.492 81.8828C378.327 83.784 401.278 88.0599 411.806 95.5547L410.9 94.8134Z" fill="#BEF0ED"/>
<path d="M381.779 81.8687C383.488 82.1021 385.211 82.4041 386.837 82.7884C388.726 83.0325 390.583 83.4789 392.376 84.1199L392.184 84.0376C391.058 83.5983 389.541 83.0767 388.395 82.6649C385.705 81.8001 382.541 81.6766 378.876 81.5393L379.384 81.5942C377.51 81.4157 375.609 81.3197 373.68 81.3265C370.708 81.4706 370.317 81.505 365.52 81.8893C370.935 81.5995 376.362 81.5927 381.779 81.8687ZM380.365 81.6903C380.708 81.7246 381.051 81.7658 381.381 81.8138C381.044 81.7726 380.708 81.7246 380.365 81.6903Z" fill="#BEF0ED"/>
<path d="M1708.37 397.69C1708.71 397.725 1709.05 397.766 1709.38 397.814C1709.04 397.773 1708.71 397.725 1708.37 397.69Z" fill="#BEF0ED"/>
<path d="M1729.63 404.547L1727.77 403.545L1727.61 403.456L1727.02 403.168L1727.41 403.353L1726.53 402.893L1725.22 402.296L1725.56 402.468C1723.97 401.726 1722.35 401.095 1720.67 400.47C1713.53 398.789 1706.17 398.089 1693.49 397.876C1716.98 399.036 1725.06 402.385 1727.75 403.538C1728.39 403.868 1729.01 404.197 1729.63 404.547Z" fill="#BEF0ED"/>
<path d="M1710.96 397.086L1708.33 396.468L1707.84 396.372C1705.13 395.947 1699.75 396.791 1693.53 397.855C1694.07 397.779 1694.6 397.717 1695.13 397.656C1705.42 396.51 1708.4 396.702 1710.96 397.086Z" fill="#BEF0ED"/>
<path d="M1703.31 395.645L1700.71 395.336C1700.55 395.336 1700.53 395.377 1693.53 397.882C1701.67 395.72 1702.45 395.7 1703.55 395.672L1703.31 395.645Z" fill="#BEF0ED"/>
<path d="M1668.57 537.703L1669.12 537.896C1670.42 538.335 1672.04 538.836 1673.29 539.227C1674.54 539.618 1676.31 540.003 1677.61 540.312C1660.66 536.194 1646.2 526.88 1634.62 512.7L1637.88 516.715C1638.28 517.175 1638.65 517.58 1638.98 517.951C1640.18 519.2 1641.61 520.655 1643.1 522.069C1644 522.892 1645.12 523.881 1646.66 525.246C1647.46 525.885 1648.39 526.619 1649.35 527.305C1655.2 531.712 1661.68 535.216 1668.57 537.703Z" fill="#BEF0ED"/>
<path d="M1697.18 395.178L1696.82 395.048L1695.54 395H1694.12C1694.97 395 1695 395.062 1695.39 395.57C1695.14 396.455 1695.14 396.455 1693.51 397.91C1696.95 395.961 1697.05 395.597 1697.18 395.178Z" fill="#BEF0ED"/>
<path d="M1624.94 495.418C1638.42 527.237 1672.17 539.413 1684.08 541.403H1684.25C1684.89 541.478 1685.68 541.561 1686.28 541.623L1687.54 541.732H1687.62C1680.59 541.08 1632.22 526.811 1621.34 482.899C1621.46 483.551 1621.58 484.19 1621.69 484.78C1622.5 487.841 1623.75 491.842 1624.79 494.897L1624.94 495.418Z" fill="#BEF0ED"/>
<path d="M1691.44 395.542C1693.11 396.173 1693.19 396.537 1693.5 397.882C1694.72 395.137 1692.19 395.096 1689.95 395.048C1689.17 395.089 1688.13 395.158 1687.34 395.219L1686.6 395.281C1687.74 395.206 1690.12 395.027 1691.44 395.542Z" fill="#BEF0ED"/>
<path d="M1691.84 542H1692.68H1694.7C1689.12 541.904 1609.25 511.637 1622.16 450.141C1621.72 451.87 1621.29 454.204 1620.92 455.954C1620.56 458.185 1620.27 461.198 1620.02 463.449C1618.7 518.637 1684.53 541.286 1691.84 542Z" fill="#BEF0ED"/>
<path d="M1679.79 396.256L1679.33 396.353C1688.32 394.808 1692.07 397.039 1693.49 397.883C1690.95 395.083 1686.53 395.131 1679.79 396.256Z" fill="#BEF0ED"/>
<path d="M1629.33 432.371C1596.89 494.917 1687.77 539.083 1698.65 541.828H1698.88L1699.35 541.794H1699.58L1701.36 541.622H1701.58C1688.7 531.835 1673.04 526.523 1660.63 515.981C1654.56 510.833 1640.34 498.767 1632.02 482.638C1615.39 450.38 1630.19 429.79 1637.45 420.93L1636.7 421.808L1635.46 423.201C1633.54 425.844 1631.12 429.468 1629.4 432.261L1629.33 432.371Z" fill="#BEF0ED"/>
<path d="M1676.48 396.956H1676.61L1676.26 397.039C1675.46 397.217 1674.39 397.505 1673.59 397.725C1671.94 398.185 1669.77 398.857 1668.17 399.461C1667.19 399.832 1665.88 400.319 1664.92 400.731C1663.77 401.225 1662.25 401.932 1661.12 402.461C1659.99 402.989 1658.43 403.833 1657.33 404.458C1656.03 405.22 1654.42 406.208 1652.99 407.128C1638.3 417.231 1626.7 433.449 1628.28 451.74C1632.07 494.869 1680.91 524.451 1699.29 535.583C1705.65 539.44 1705.65 539.44 1706.03 540.95H1706.15C1707.16 540.765 1708.43 540.497 1709.43 540.264H1709.53C1709.9 540.14 1710.16 539.625 1710.4 539.337C1709.57 537.731 1707.93 536.592 1699.08 530.779C1676.33 515.878 1653.44 498.74 1640.05 474.451C1609.9 419.633 1668.39 391.273 1693.44 397.951C1688.63 396.009 1682.73 395.796 1676.48 396.956Z" fill="#BEF0ED"/>
<path d="M1701.91 524.581C1715.74 534.361 1719.07 536.688 1714.67 538.85L1714.81 538.809L1717 538.122L1718.52 537.58C1724.7 534.704 1719.32 530.717 1706.42 521.225C1692.14 510.717 1674.37 497.635 1659.29 478.5C1614.79 422.014 1662.29 394.081 1693.49 397.91C1658.04 390.223 1581.74 439.674 1701.91 524.581Z" fill="#BEF0ED"/>
<path d="M1710.05 513.585C1726.18 525.939 1732.24 530.599 1724.23 535.212L1724.41 535.129C1725.78 534.484 1727.42 533.606 1728.71 532.947C1734.96 529.295 1732.46 525.054 1728.83 521.018C1713.65 504.134 1693.49 492.947 1677.93 476.489C1627.88 423.489 1661.46 397.148 1693.49 397.882C1660.86 394.903 1602.52 431.149 1710.05 513.585Z" fill="#BEF0ED"/>
<path d="M1722.52 503.345C1737.9 515.699 1743.38 522.295 1735.17 528.953C1736.55 527.964 1738.36 526.571 1739.75 525.521C1740.44 524.938 1741.19 524.313 1741.9 523.695C1748.28 517.848 1744.7 514.691 1701.77 476.88C1639.54 422.069 1667.58 402.714 1687.86 398.672C1669.46 402.076 1618.18 419.736 1722.52 503.345Z" fill="#BEF0ED"/>
<path d="M1692.68 397.951C1691.06 398.09 1689.46 398.32 1687.87 398.638C1690.02 398.246 1691.74 398.04 1692.68 397.951Z" fill="#BEF0ED"/>
<path d="M1693.49 397.883C1693.44 397.883 1693.16 397.883 1692.68 397.951L1693.49 397.883Z" fill="#BEF0ED"/>
<path d="M1719.65 479.214C1745.16 499.742 1754.74 509.138 1746.42 519.337L1746.58 519.166C1747.89 517.793 1749.46 515.906 1750.7 514.492L1750.77 514.396C1758.04 504.869 1751.1 494.856 1721.15 471.582C1643.01 410.875 1684.41 399.516 1693.49 397.883C1686.87 398.72 1631.34 408.123 1719.65 479.214Z" fill="#BEF0ED"/>
<path d="M1724.93 462.79C1753.79 484.355 1761.74 495.377 1756.34 506.407C1756.56 506.043 1756.77 505.72 1756.98 505.329L1757.18 504.979C1757.33 504.725 1757.47 504.485 1757.6 504.245L1759.25 501.074C1759.45 500.662 1759.65 500.257 1759.83 499.866C1766.29 485.089 1741.87 467.313 1725.65 455.515C1672.85 417.08 1678.98 402.969 1693.49 397.862C1681.14 401.109 1659.48 413.888 1724.93 462.79Z" fill="#BEF0ED"/>
<path d="M1726.34 446.05C1751.54 463.806 1766.64 475.679 1763.5 490.497C1763.65 489.996 1763.8 489.495 1763.94 489.001C1764.45 487.155 1764.95 485.075 1765.36 483.421C1767.52 468.651 1752.32 457.395 1727.23 440.257C1710.69 428.94 1679.88 407.869 1693.49 397.883C1672.15 407.876 1712.94 436.606 1726.34 446.05Z" fill="#BEF0ED"/>
<path d="M1728.19 432.989C1756.59 451.417 1766.24 459.756 1766.75 472.46C1766.75 472.213 1766.75 471.959 1766.79 471.712L1766.88 468.61L1766.81 465.611C1766.81 465.261 1766.78 464.924 1766.77 464.581C1765.67 451.273 1747.93 440.292 1725.49 426.428C1709.7 416.675 1691.82 405.618 1693.49 397.883C1686.11 405.7 1711.43 422.124 1728.19 432.989Z" fill="#BEF0ED"/>
<path d="M1726.35 421.232C1752.51 436.084 1762.36 443.291 1765.48 454.176C1765.08 452.296 1764.45 449.907 1763.91 447.889C1763.79 447.471 1763.67 447.059 1763.54 446.64C1759.29 435.583 1745.01 427.642 1720.3 414.623C1702.8 405.419 1697.04 401.816 1693.48 397.883C1695.53 403.73 1708.46 411.074 1726.35 421.232Z" fill="#BEF0ED"/>
<path d="M1759.82 437.052C1759.71 436.833 1759.61 436.613 1759.5 436.366L1758.01 433.428L1757.01 431.671L1756.44 430.711C1753.07 425.474 1746.97 421.569 1738.24 416.984C1723.83 409.434 1708.35 404.355 1693.49 397.842C1698.13 400.793 1706.65 404.705 1717.43 409.654C1746.03 422.838 1754.89 428.521 1759.82 437.052Z" fill="#BEF0ED"/>
<path d="M1750.9 422.749C1750.77 422.577 1750.64 422.419 1750.49 422.248L1750.22 421.925C1750.12 421.795 1750.01 421.657 1749.89 421.527C1748.81 420.264 1747.59 418.912 1746.61 417.814C1740.22 411.266 1722.35 404.554 1693.49 397.91C1737.26 410.999 1745.73 417.148 1750.9 422.749Z" fill="#BEF0ED"/>
<path d="M1738.9 410.813C1737.83 409.99 1736.66 409.132 1735.65 408.384L1735.03 407.965C1728.09 403.579 1714.12 400.189 1693.49 397.883C1706.33 399.784 1729.28 404.06 1739.81 411.555L1738.9 410.813Z" fill="#BEF0ED"/>
<path d="M1709.78 397.869C1711.49 398.102 1713.21 398.404 1714.84 398.788C1716.73 399.032 1718.58 399.479 1720.38 400.12L1720.18 400.038C1719.06 399.598 1717.54 399.077 1716.4 398.665C1713.7 397.8 1710.54 397.677 1706.88 397.539L1707.38 397.594C1705.51 397.416 1703.61 397.32 1701.68 397.327C1698.71 397.471 1698.32 397.505 1693.52 397.889C1698.94 397.6 1704.36 397.593 1709.78 397.869ZM1708.36 397.69C1708.71 397.725 1709.05 397.766 1709.38 397.814C1709.04 397.773 1708.71 397.725 1708.36 397.69Z" fill="#BEF0ED"/>
<path d="M1067.63 395.886L833.11 395.886C831.945 395.886 831 397.028 831 398.437C831 399.846 831.945 400.988 833.11 400.988H1067.63C1068.8 400.988 1069.74 399.846 1069.74 398.437C1069.74 397.028 1068.8 395.886 1067.63 395.886Z" fill="#BEF0ED"/>
<path d="M949.306 362.821C948.073 362.821 947.074 364.62 947.074 366.839V398.983C947.074 401.202 948.073 403.001 949.306 403.001C950.539 403.001 951.538 401.201 951.538 398.983V366.839C951.538 364.62 950.539 362.821 949.306 362.821Z" fill="#BEF0ED"/>
<path d="M1024.56 342.412C1023.33 342.412 1022.33 344.22 1022.33 346.451V398.961C1022.33 401.192 1023.33 403 1024.56 403C1025.8 403 1026.79 401.191 1026.79 398.961V346.451C1026.8 344.22 1025.8 342.412 1024.56 342.412Z" fill="#BEF0ED"/>
<path d="M874.049 342.412C872.816 342.412 871.817 344.22 871.817 346.451V398.961C871.817 401.192 872.816 403 874.049 403C875.282 403 876.281 401.191 876.281 398.961V346.451C876.281 344.22 875.282 342.412 874.049 342.412Z" fill="#BEF0ED"/>
<path d="M864.643 390.884H882.819C884.492 390.884 885.848 392.24 885.848 393.913V399.972C885.848 401.645 884.492 403.001 882.819 403.001H864.643C862.969 403.001 861.613 401.645 861.613 399.972V393.913C861.613 392.24 862.969 390.884 864.643 390.884Z" fill="#BEF0ED"/>
<path d="M1015.16 390.884H1033.33C1035 390.884 1036.36 392.24 1036.36 393.913V399.972C1036.36 401.645 1035 403.001 1033.33 403.001H1015.16C1013.48 403.001 1012.13 401.645 1012.13 399.972V393.913C1012.13 392.24 1013.48 390.884 1015.16 390.884Z" fill="#BEF0ED"/>
<path d="M940.536 390.884H958.713C960.386 390.884 961.742 392.24 961.742 393.913V399.972C961.742 401.645 960.385 403.001 958.713 403.001H940.536C938.863 403.001 937.507 401.645 937.507 399.972V393.913C937.507 392.24 938.863 390.884 940.536 390.884Z" fill="#BEF0ED"/>
<path d="M839.884 217.318H908.757V363.063H839.884C835.415 363.05 831.795 359.432 831.782 354.966V225.415C831.795 220.949 835.415 217.332 839.884 217.318Z" fill="#171753"/>
<path fill-rule="evenodd" clip-rule="evenodd" d="M839.893 222.081C838.049 222.09 836.556 223.581 836.548 225.424V354.957C836.556 356.8 838.05 358.292 839.894 358.3H903.99V222.081H839.893ZM839.884 363.063C835.415 363.05 831.795 359.432 831.782 354.966V225.415C831.795 220.949 835.415 217.332 839.884 217.318H908.757V363.063H839.884Z" fill="#BEF0ED"/>
<path d="M831.782 225.368V257.564H908.757V217.318H839.885C835.415 217.332 831.795 220.927 831.782 225.368Z" fill="#4E4E8D"/>
<path d="M831.782 225.368V257.564H908.757V217.318H839.885C835.415 217.332 831.795 220.927 831.782 225.368Z" fill="black" fill-opacity="0.2"/>
<path fill-rule="evenodd" clip-rule="evenodd" d="M831.782 257.564V225.368C831.795 220.927 835.415 217.332 839.885 217.318H908.757V257.564H831.782ZM903.99 252.829V222.053H839.893C838.049 222.062 836.556 223.544 836.548 225.376V252.829H903.99Z" fill="#BEF0ED"/>
<path d="M884.384 277.882H860.06C857.821 277.882 856.006 276.132 856.006 273.975C856.006 271.817 857.822 270.067 860.06 270.067H884.384C886.623 270.067 888.437 271.817 888.437 273.975C888.437 276.133 886.622 277.882 884.384 277.882Z" fill="#BEF0ED"/>
<path d="M860.06 286.088H884.384C886.623 286.088 888.437 287.925 888.437 290.191C888.437 292.457 886.622 294.293 884.384 294.293H860.06C857.821 294.293 856.006 292.456 856.006 290.191C856.006 287.925 857.821 286.088 860.06 286.088Z" fill="#BEF0ED"/>
<path d="M876.542 233.339H847.975C845.721 233.339 843.894 235.176 843.894 237.442C843.894 239.707 845.721 241.544 847.975 241.544H876.542C878.796 241.544 880.623 239.707 880.623 237.442C880.623 235.176 878.796 233.339 876.542 233.339Z" fill="#BEF0ED"/>
<path d="M896.513 233.339H892.476C890.246 233.339 888.438 235.176 888.438 237.442C888.438 239.707 890.246 241.544 892.476 241.544H896.513C898.743 241.544 900.551 239.707 900.551 237.442C900.551 235.176 898.743 233.339 896.513 233.339Z" fill="#BEF0ED"/>
<path d="M872.418 338.838C879.108 338.838 884.531 333.415 884.531 326.725C884.531 320.035 879.108 314.612 872.418 314.612C865.728 314.612 860.305 320.035 860.305 326.725C860.305 333.415 865.728 338.838 872.418 338.838Z" fill="#BEF0ED"/>
<path d="M1058.51 217.318H989.639V363.063H1058.51C1062.98 363.05 1066.6 359.432 1066.61 354.966V225.415C1066.6 220.949 1062.98 217.332 1058.51 217.318Z" fill="#171753"/>
<path fill-rule="evenodd" clip-rule="evenodd" d="M989.639 217.318H1058.51C1062.98 217.332 1066.6 220.949 1066.61 225.415V354.966C1066.6 359.432 1062.98 363.05 1058.51 363.063H989.639V217.318ZM994.405 358.3H1058.5C1060.35 358.292 1061.84 356.8 1061.85 354.957V225.424C1061.84 223.581 1060.35 222.09 1058.5 222.081H994.405V358.3Z" fill="#BEF0ED"/>
<path d="M1066.61 225.368V257.564H989.639V217.318H1058.51C1062.98 217.332 1066.6 220.927 1066.61 225.368Z" fill="#4E4E8D"/>
<path d="M1066.61 225.368V257.564H989.639V217.318H1058.51C1062.98 217.332 1066.6 220.927 1066.61 225.368Z" fill="black" fill-opacity="0.2"/>
<path fill-rule="evenodd" clip-rule="evenodd" d="M1061.85 252.829V225.376C1061.84 223.544 1060.35 222.062 1058.5 222.053H994.405V252.829H1061.85ZM1058.51 217.318C1062.98 217.332 1066.6 220.927 1066.61 225.368V257.564H989.639V217.318H1058.51Z" fill="#BEF0ED"/>
<path d="M1014.01 277.882H1038.33C1040.57 277.882 1042.39 276.132 1042.39 273.975C1042.39 271.817 1040.57 270.067 1038.33 270.067H1014.01C1011.77 270.067 1009.96 271.817 1009.96 273.975C1009.96 276.133 1011.77 277.882 1014.01 277.882Z" fill="#BEF0ED"/>
<path d="M1038.33 286.088H1014.01C1011.77 286.088 1009.96 287.925 1009.96 290.191C1009.96 292.457 1011.77 294.293 1014.01 294.293H1038.33C1040.57 294.293 1042.39 292.456 1042.39 290.191C1042.39 287.925 1040.57 286.088 1038.33 286.088Z" fill="#BEF0ED"/>
<path d="M1026.17 338.838C1032.97 338.838 1038.48 333.415 1038.48 326.725C1038.48 320.035 1032.97 314.612 1026.17 314.612C1019.38 314.612 1013.86 320.035 1013.86 326.725C1013.86 333.415 1019.38 338.838 1026.17 338.838Z" fill="#BEF0ED"/>
<path d="M1030.15 233.339H1001.88C999.652 233.339 997.844 235.176 997.844 237.442C997.844 239.707 999.652 241.544 1001.88 241.544H1030.15C1032.38 241.544 1034.18 239.707 1034.18 237.442C1034.18 235.176 1032.38 233.339 1030.15 233.339Z" fill="#BEF0ED"/>
<path d="M1050.46 233.339H1046.43C1044.2 233.339 1042.39 235.176 1042.39 237.442C1042.39 239.707 1044.2 241.544 1046.43 241.544H1050.46C1052.69 241.544 1054.5 239.707 1054.5 237.442C1054.5 235.176 1052.69 233.339 1050.46 233.339Z" fill="#BEF0ED"/>
<path d="M900.551 242.999L900.551 375.277C900.565 379.747 904.186 383.368 908.659 383.381H989.737C994.209 383.368 997.831 379.748 997.844 375.277V205.104C997.831 200.634 994.209 197.013 989.737 197H908.659C904.187 197.013 900.565 200.633 900.551 205.104V217.259" fill="#171753"/>
<path fill-rule="evenodd" clip-rule="evenodd" d="M900.551 242.999V375.277C900.565 379.747 904.186 383.368 908.659 383.381H989.737C994.209 383.368 997.831 379.748 997.844 375.277V205.104C997.831 200.634 994.209 197.013 989.737 197H908.659C904.187 197.013 900.565 200.633 900.551 205.104V217.259H905.321V205.112C905.329 203.268 906.823 201.775 908.668 201.767H989.728C991.573 201.775 993.067 203.268 993.075 205.113V375.268C993.067 377.113 991.573 378.606 989.727 378.614C989.726 378.614 989.724 378.614 989.722 378.614H908.673C908.672 378.614 908.67 378.614 908.668 378.614C906.823 378.606 905.329 377.113 905.321 375.269V242.999H900.551Z" fill="#BEF0ED"/>
<path d="M997.844 205.075V245.451H900.551V205.075C900.565 200.621 904.186 197.013 908.659 197H989.737C994.209 197.013 997.831 200.621 997.844 205.075Z" fill="#4E4E8D"/>
<path d="M997.844 205.075V245.451H900.551V205.075C900.565 200.621 904.186 197.013 908.659 197H989.737C994.209 197.013 997.831 200.621 997.844 205.075Z" fill="black" fill-opacity="0.2"/>
<path fill-rule="evenodd" clip-rule="evenodd" d="M993.075 240.701V205.083C993.066 203.245 991.573 201.759 989.728 201.75H908.668C906.823 201.759 905.329 203.246 905.321 205.084V240.701H993.075ZM908.659 197C904.186 197.013 900.565 200.621 900.551 205.075V245.451H997.844V205.075C997.831 200.621 994.209 197.013 989.737 197H908.659Z" fill="#BEF0ED"/>
<path d="M949.394 358.765C956.083 358.765 961.506 353.342 961.506 346.652C961.506 339.962 956.083 334.539 949.394 334.539C942.704 334.539 937.281 339.962 937.281 346.652C937.281 353.342 942.704 358.765 949.394 358.765Z" fill="#BEF0ED"/>
<path d="M961.357 217.318H916.723C914.481 217.318 912.665 219.156 912.665 221.421C912.665 223.687 914.482 225.524 916.723 225.524H961.357C963.598 225.524 965.414 223.687 965.414 221.421C965.414 219.156 963.598 217.318 961.357 217.318Z" fill="#BEF0ED"/>
<path d="M981.694 217.318H977.656C975.426 217.318 973.619 219.156 973.619 221.421C973.619 223.687 975.427 225.524 977.656 225.524H981.694C983.924 225.524 985.731 223.687 985.731 221.421C985.731 219.156 983.924 217.318 981.694 217.318Z" fill="#BEF0ED"/>
<path d="M929.206 265.769H969.582C971.812 265.769 973.62 263.932 973.62 261.666C973.62 259.4 971.812 257.563 969.582 257.563H929.206C926.976 257.563 925.168 259.401 925.168 261.666C925.168 263.932 926.976 265.769 929.206 265.769Z" fill="#BEF0ED"/>
<path d="M969.582 273.976H929.206C926.976 273.976 925.168 275.813 925.168 278.078C925.168 280.344 926.976 282.181 929.206 282.181H969.582C971.812 282.181 973.62 280.344 973.62 278.078C973.62 275.812 971.812 273.976 969.582 273.976Z" fill="#BEF0ED"/>
<path d="M969.582 289.996H929.206C926.976 289.996 925.168 291.833 925.168 294.099C925.168 296.365 926.976 298.202 929.206 298.202H969.582C971.812 298.202 973.62 296.364 973.62 294.099C973.62 291.833 971.812 289.996 969.582 289.996Z" fill="#BEF0ED"/>
<path fill-rule="evenodd" clip-rule="evenodd" d="M1137.38 157.057C1139.43 157.057 1141.03 158.658 1141.03 160.737V187.492C1141.03 189.571 1139.43 191.172 1137.38 191.172H1135.91L1102.88 191.373C1102.88 191.373 1102.88 191.373 1102.88 191.373C1101.31 191.374 1099.75 191.864 1098.55 193.06L1089.87 201.188C1089.87 201.189 1089.87 201.189 1089.86 201.19C1089.66 201.375 1089.41 201.406 1089.16 201.289C1088.89 201.166 1088.73 200.93 1088.73 200.669V160.737C1088.73 158.658 1090.34 157.057 1092.38 157.057H1137.38ZM1143.73 160.737C1143.73 157.182 1140.94 154.357 1137.38 154.357H1092.38C1088.83 154.357 1086.03 157.182 1086.03 160.737V200.669C1086.03 203.478 1089.48 205.23 1091.7 203.167L1091.71 203.163L1100.43 194.999L1100.44 194.982C1101.04 194.382 1101.87 194.073 1102.88 194.073L1102.89 194.073L1135.92 193.872H1137.38C1140.94 193.872 1143.73 191.047 1143.73 187.492V160.737Z" fill="#ECFFFE"/>
<path d="M1112.8 183.151C1112.8 184.118 1113.58 184.901 1114.55 184.901C1115.51 184.901 1116.3 184.118 1116.3 183.151C1116.3 182.185 1115.51 181.401 1114.55 181.401C1113.58 181.401 1112.8 182.185 1112.8 183.151Z" fill="#ECFFFE"/>
<path d="M1121.04 165.957C1120.54 165.051 1119.74 164.246 1118.73 163.743C1117.73 163.139 1116.62 162.938 1115.21 162.938C1113.7 162.938 1112.4 163.239 1111.39 163.843C1110.38 164.447 1109.58 165.252 1109.08 166.259C1108.77 166.868 1108.54 167.477 1108.41 168.131C1108.26 168.865 1108.88 169.48 1109.63 169.48C1110.38 169.48 1110.97 168.859 1111.18 168.141C1111.26 167.867 1111.37 167.608 1111.49 167.366C1111.79 166.762 1112.29 166.259 1113 165.856C1113.6 165.454 1114.41 165.353 1115.21 165.353C1116.02 165.353 1116.62 165.554 1117.22 165.856C1117.83 166.158 1118.23 166.561 1118.63 167.165C1118.93 167.769 1119.13 168.473 1119.13 169.178C1119.13 170.285 1118.83 171.191 1118.13 171.895C1117.42 172.6 1116.42 173.002 1115.01 173.002C1113.9 173.002 1113 173.903 1113 175.014V177.03C1113 177.807 1113.63 178.438 1114.41 178.438C1115.18 178.438 1115.81 177.807 1115.81 177.03V176.807C1115.81 175.963 1116.46 175.284 1117.29 175.09C1117.77 174.976 1118.21 174.821 1118.63 174.613C1119.64 174.11 1120.44 173.304 1120.94 172.399C1121.45 171.493 1121.75 170.486 1121.75 169.379V169.077C1121.85 167.869 1121.65 166.863 1121.04 165.957Z" fill="#ECFFFE"/>
<path fill-rule="evenodd" clip-rule="evenodd" d="M746.615 157.057C744.568 157.057 742.965 158.658 742.965 160.737V187.492C742.965 189.571 744.568 191.172 746.615 191.172H748.089L781.115 191.373C781.117 191.373 781.118 191.373 781.12 191.373C782.692 191.374 784.254 191.864 785.454 193.06L794.134 201.188C794.134 201.189 794.135 201.189 794.135 201.19C794.336 201.375 794.586 201.406 794.841 201.289C795.111 201.166 795.265 200.93 795.265 200.669V160.737C795.265 158.658 793.662 157.057 791.615 157.057H746.615ZM740.265 160.737C740.265 157.182 743.062 154.357 746.615 154.357H791.615C795.168 154.357 797.965 157.182 797.965 160.737V200.669C797.965 203.478 794.518 205.23 792.297 203.167L792.292 203.163L783.575 194.999L783.558 194.982C782.961 194.382 782.134 194.073 781.115 194.073L781.107 194.073L748.081 193.872H746.615C743.062 193.872 740.265 191.047 740.265 187.492V160.737Z" fill="#ECFFFE"/>
<path d="M766.641 183.151C766.641 184.118 767.425 184.901 768.391 184.901C769.358 184.901 770.141 184.118 770.141 183.151C770.141 182.185 769.358 181.401 768.391 181.401C767.425 181.401 766.641 182.185 766.641 183.151Z" fill="#ECFFFE"/>
<path d="M774.887 165.957C774.385 165.051 773.58 164.246 772.574 163.743C771.569 163.139 770.463 162.938 769.055 162.938C767.546 162.938 766.239 163.239 765.233 163.843C764.228 164.447 763.423 165.252 762.92 166.259C762.616 166.868 762.385 167.477 762.251 168.131C762.1 168.865 762.724 169.48 763.474 169.48C764.223 169.48 764.811 168.859 765.026 168.141C765.108 167.867 765.213 167.608 765.334 167.366C765.636 166.762 766.138 166.259 766.842 165.856C767.446 165.454 768.25 165.353 769.055 165.353C769.859 165.353 770.463 165.554 771.066 165.856C771.669 166.158 772.072 166.561 772.474 167.165C772.776 167.769 772.977 168.473 772.977 169.178C772.977 170.285 772.675 171.191 771.971 171.895C771.267 172.6 770.261 173.002 768.854 173.002C767.743 173.002 766.842 173.903 766.842 175.014V177.03C766.842 177.807 767.473 178.438 768.25 178.438C769.028 178.438 769.658 177.807 769.658 177.03V176.807C769.658 175.963 770.308 175.284 771.129 175.09C771.613 174.976 772.057 174.821 772.474 174.613C773.479 174.11 774.284 173.304 774.787 172.399C775.29 171.493 775.591 170.486 775.591 169.379V169.077C775.692 167.869 775.491 166.863 774.887 165.957Z" fill="#ECFFFE"/>
<path fill-rule="evenodd" clip-rule="evenodd" d="M1044.38 122.057C1046.43 122.057 1048.03 123.658 1048.03 125.737V152.492C1048.03 154.571 1046.43 156.172 1044.38 156.172H1042.91L1009.88 156.373C1009.88 156.373 1009.88 156.373 1009.88 156.373C1008.31 156.374 1006.75 156.864 1005.55 158.06L996.866 166.188C996.866 166.189 996.865 166.189 996.865 166.19C996.664 166.375 996.414 166.406 996.159 166.289C995.889 166.166 995.735 165.93 995.735 165.669V125.737C995.735 123.658 997.338 122.057 999.385 122.057H1044.38ZM1050.73 125.737C1050.73 122.182 1047.94 119.357 1044.38 119.357H999.385C995.832 119.357 993.035 122.182 993.035 125.737V165.669C993.035 168.478 996.482 170.23 998.703 168.167L998.708 168.163L1007.43 159.999L1007.44 159.982C1008.04 159.382 1008.87 159.073 1009.88 159.073L1009.89 159.073L1042.92 158.872H1044.38C1047.94 158.872 1050.73 156.047 1050.73 152.492V125.737Z" fill="#ECFFFE"/>
<path d="M1019.8 148.151C1019.8 149.118 1020.58 149.901 1021.55 149.901C1022.51 149.901 1023.3 149.118 1023.3 148.151C1023.3 147.185 1022.51 146.401 1021.55 146.401C1020.58 146.401 1019.8 147.185 1019.8 148.151Z" fill="#ECFFFE"/>
<path d="M1028.04 130.957C1027.54 130.051 1026.74 129.246 1025.73 128.743C1024.73 128.139 1023.62 127.938 1022.21 127.938C1020.7 127.938 1019.4 128.239 1018.39 128.843C1017.38 129.447 1016.58 130.252 1016.08 131.259C1015.77 131.868 1015.54 132.477 1015.41 133.131C1015.26 133.865 1015.88 134.48 1016.63 134.48C1017.38 134.48 1017.97 133.859 1018.18 133.141C1018.26 132.867 1018.37 132.608 1018.49 132.366C1018.79 131.762 1019.29 131.259 1020 130.856C1020.6 130.454 1021.41 130.353 1022.21 130.353C1023.02 130.353 1023.62 130.554 1024.22 130.856C1024.83 131.158 1025.23 131.561 1025.63 132.165C1025.93 132.769 1026.13 133.473 1026.13 134.178C1026.13 135.285 1025.83 136.191 1025.13 136.895C1024.42 137.6 1023.42 138.002 1022.01 138.002C1020.9 138.002 1020 138.903 1020 140.014V142.03C1020 142.807 1020.63 143.438 1021.41 143.438C1022.18 143.438 1022.81 142.807 1022.81 142.03V141.807C1022.81 140.963 1023.46 140.284 1024.29 140.09C1024.77 139.976 1025.21 139.821 1025.63 139.613C1026.64 139.11 1027.44 138.304 1027.94 137.399C1028.45 136.493 1028.75 135.486 1028.75 134.379V134.077C1028.85 132.869 1028.65 131.863 1028.04 130.957Z" fill="#ECFFFE"/>
<path fill-rule="evenodd" clip-rule="evenodd" d="M839.615 122.057C837.568 122.057 835.965 123.658 835.965 125.737V152.492C835.965 154.571 837.568 156.172 839.615 156.172H841.089L874.115 156.373C874.117 156.373 874.118 156.373 874.12 156.373C875.692 156.374 877.254 156.864 878.454 158.06L887.134 166.188C887.134 166.189 887.135 166.189 887.135 166.19C887.336 166.375 887.586 166.406 887.841 166.289C888.111 166.166 888.265 165.93 888.265 165.669V125.737C888.265 123.658 886.662 122.057 884.615 122.057H839.615ZM833.265 125.737C833.265 122.182 836.062 119.357 839.615 119.357H884.615C888.168 119.357 890.965 122.182 890.965 125.737V165.669C890.965 168.478 887.518 170.23 885.297 168.167L885.292 168.163L876.575 159.999L876.558 159.982C875.961 159.382 875.134 159.073 874.115 159.073L874.107 159.073L841.081 158.872H839.615C836.062 158.872 833.265 156.047 833.265 152.492V125.737Z" fill="#ECFFFE"/>
<path d="M859.641 148.151C859.641 149.118 860.425 149.901 861.391 149.901C862.358 149.901 863.141 149.118 863.141 148.151C863.141 147.185 862.358 146.401 861.391 146.401C860.425 146.401 859.641 147.185 859.641 148.151Z" fill="#ECFFFE"/>
<path d="M867.887 130.957C867.385 130.051 866.58 129.246 865.574 128.743C864.569 128.139 863.463 127.938 862.055 127.938C860.546 127.938 859.239 128.239 858.233 128.843C857.228 129.447 856.423 130.252 855.92 131.259C855.616 131.868 855.385 132.477 855.251 133.131C855.1 133.865 855.724 134.48 856.474 134.48C857.223 134.48 857.811 133.859 858.026 133.141C858.108 132.867 858.213 132.608 858.334 132.366C858.636 131.762 859.138 131.259 859.842 130.856C860.446 130.454 861.25 130.353 862.055 130.353C862.859 130.353 863.463 130.554 864.066 130.856C864.669 131.158 865.072 131.561 865.474 132.165C865.776 132.769 865.977 133.473 865.977 134.178C865.977 135.285 865.675 136.191 864.971 136.895C864.267 137.6 863.261 138.002 861.854 138.002C860.743 138.002 859.842 138.903 859.842 140.014V142.03C859.842 142.807 860.473 143.438 861.25 143.438C862.028 143.438 862.658 142.807 862.658 142.03V141.807C862.658 140.963 863.308 140.284 864.129 140.09C864.613 139.976 865.057 139.821 865.474 139.613C866.479 139.11 867.284 138.304 867.787 137.399C868.29 136.493 868.591 135.486 868.591 134.379V134.077C868.692 132.869 868.491 131.863 867.887 130.957Z" fill="#ECFFFE"/>
<g clip-path="url(#clip2_1203_4574)">
<path d="M1522.29 176.713C1521.34 176.713 1520.71 176.713 1520.55 176.686C1519.47 176.594 1506.89 172.522 1503.08 171.279C1502.56 171.107 1502.27 170.552 1502.44 170.036C1502.61 169.52 1503.17 169.229 1503.68 169.401C1509.78 171.385 1519.77 174.571 1520.74 174.716C1521.78 174.782 1539.49 174.584 1543.47 174.518C1543.89 174.505 1544.3 174.425 1544.68 174.28L1560.85 166.241C1560.88 166.228 1560.92 166.215 1560.94 166.202C1561.75 165.898 1562.19 165.012 1561.93 164.232C1561.8 163.822 1561.51 163.504 1561.13 163.319C1560.75 163.134 1560.32 163.121 1559.93 163.253L1544.11 169.719C1544.09 169.732 1544.07 169.732 1544.05 169.745C1543.69 169.864 1543.33 169.864 1543.2 169.864C1543.05 169.864 1542.83 169.851 1542.61 169.798L1527.81 166.493C1526.33 166.149 1525.41 164.681 1525.74 163.2C1526.08 161.72 1527.54 160.794 1529.02 161.138L1534.12 162.314L1538.73 163.359C1539.28 163.478 1539.83 163.385 1540.31 163.068C1540.78 162.764 1541.1 162.275 1541.2 161.72C1541.4 160.635 1540.67 159.564 1539.56 159.313L1527.12 156.497C1526.9 156.444 1526.66 156.431 1526.41 156.457C1526.37 156.457 1526.32 156.471 1526.28 156.471C1526.27 156.471 1526.25 156.471 1526.25 156.471C1523.71 156.471 1517.57 158.626 1515.42 159.472C1515.27 159.525 1515.13 159.551 1514.98 159.538L1503.29 158.56C1502.75 158.52 1502.34 158.031 1502.39 157.489C1502.43 156.947 1502.92 156.537 1503.46 156.59L1514.93 157.555C1516.24 157.052 1523.08 154.514 1526.24 154.514C1526.69 154.461 1527.14 154.487 1527.56 154.593L1539.99 157.409C1542.12 157.898 1543.53 160.014 1543.14 162.129C1542.93 163.227 1542.31 164.152 1541.39 164.76C1540.46 165.369 1539.36 165.567 1538.28 165.329L1533.67 164.285L1528.57 163.108C1528.16 163.015 1527.76 163.266 1527.66 163.69C1527.57 164.099 1527.82 164.509 1528.24 164.602L1543.05 167.907C1543.1 167.92 1543.18 167.92 1543.23 167.92C1543.24 167.92 1543.26 167.92 1543.28 167.92C1543.32 167.92 1543.39 167.92 1543.43 167.907L1559.2 161.402C1559.22 161.402 1559.22 161.389 1559.23 161.389C1560.14 161.045 1561.11 161.098 1561.98 161.521C1562.85 161.944 1563.5 162.685 1563.81 163.597C1564.41 165.395 1563.47 167.339 1561.69 168.039L1545.53 176.065C1545.51 176.078 1545.49 176.091 1545.47 176.091C1544.84 176.343 1544.18 176.488 1543.51 176.501C1541.1 176.541 1527.27 176.713 1522.29 176.713Z" fill="#BEF0ED"/>
<path d="M1546.31 126.365C1544.49 123.668 1541.61 122.121 1538.61 121.922C1536.43 121.777 1534.21 122.319 1532.27 123.641C1532.1 123.76 1531.93 123.879 1531.77 123.998C1530.7 124.818 1529.84 125.823 1529.19 126.947C1528.93 127.396 1528.72 127.846 1528.53 128.322C1528.53 128.335 1528.52 128.335 1528.52 128.348C1528.36 128.758 1528.22 129.194 1528.11 129.617C1528.56 129.631 1528.99 129.67 1529.43 129.75C1529.55 129.326 1529.69 128.903 1529.86 128.494C1529.44 128.414 1529.02 128.348 1528.6 128.322C1529.06 128.256 1529.52 128.216 1529.98 128.216C1530.19 127.766 1530.44 127.343 1530.73 126.933C1531.32 126.087 1532.09 125.32 1533 124.712C1534.51 123.694 1536.22 123.205 1537.92 123.205C1539.34 123.205 1540.74 123.549 1542 124.196C1543.27 124.858 1544.39 125.823 1545.24 127.092C1547.96 131.111 1546.9 136.598 1542.93 139.335L1542.73 139.467C1541.7 140.142 1540.57 140.578 1539.38 140.776C1538.9 140.856 1538.41 140.895 1537.91 140.895C1537.8 141.133 1537.67 141.358 1537.54 141.583C1537.62 141.358 1537.68 141.133 1537.74 140.895C1537.3 140.882 1536.86 140.842 1536.42 140.763C1536.3 141.186 1536.16 141.609 1535.99 142.006C1536.37 142.085 1536.76 142.138 1537.16 142.165C1537.21 142.165 1537.26 142.178 1537.33 142.178C1537.54 142.191 1537.74 142.191 1537.95 142.191C1538.2 142.191 1538.46 142.178 1538.71 142.165C1540.21 142.046 1541.71 141.596 1543.07 140.79C1543.24 140.684 1543.41 140.578 1543.58 140.459C1545.53 139.137 1546.88 137.259 1547.54 135.17C1547.86 134.152 1548.02 133.095 1548.02 132.037C1548.04 130.08 1547.48 128.097 1546.31 126.365Z" fill="#BEF0ED"/>
<path d="M1542.85 140.842C1542.64 140.842 1542.43 140.737 1542.31 140.551C1542.11 140.247 1542.19 139.837 1542.48 139.639L1544.9 138C1548.93 135.263 1549.99 129.763 1547.27 125.717C1545.96 123.76 1543.95 122.438 1541.65 121.988C1539.34 121.539 1536.99 122.015 1535.04 123.337L1532.61 124.976C1532.31 125.175 1531.9 125.095 1531.71 124.805C1531.51 124.5 1531.59 124.091 1531.88 123.892L1534.3 122.253C1536.54 120.732 1539.24 120.177 1541.89 120.693C1544.53 121.208 1546.84 122.729 1548.35 124.976C1551.47 129.617 1550.26 135.95 1545.63 139.084L1543.22 140.723C1543.1 140.803 1542.97 140.842 1542.85 140.842Z" fill="#BEF0ED"/>
<path d="M1536.3 132.778C1534.75 130.464 1532.39 128.996 1529.86 128.507C1529.68 128.917 1529.53 129.327 1529.43 129.763C1530.32 129.922 1531.18 130.213 1532 130.623C1533.26 131.284 1534.38 132.249 1535.24 133.518C1536.72 135.726 1537.08 138.384 1536.43 140.777C1536.87 140.856 1537.32 140.896 1537.75 140.909C1537.95 140.103 1538.05 139.283 1538.05 138.463C1538.03 136.493 1537.47 134.51 1536.3 132.778ZM1536.3 132.778C1534.75 130.464 1532.39 128.996 1529.86 128.507C1529.44 128.428 1529.02 128.362 1528.6 128.335C1528.57 128.335 1528.55 128.335 1528.52 128.322C1526.39 128.19 1524.19 128.732 1522.29 130.014L1522.24 130.054C1522.08 130.16 1521.92 130.279 1521.76 130.398C1517.55 133.637 1516.53 139.666 1519.54 144.148C1521.49 147.044 1524.69 148.617 1527.94 148.617C1529.7 148.617 1531.47 148.154 1533.08 147.203C1533.23 147.11 1533.39 147.004 1533.54 146.912L1533.62 146.859C1535.35 145.669 1536.62 144.029 1537.33 142.192C1537.41 141.993 1537.47 141.795 1537.54 141.583C1537.62 141.359 1537.69 141.134 1537.74 140.896C1537.94 140.089 1538.04 139.27 1538.04 138.45C1538.03 136.493 1537.47 134.51 1536.3 132.778ZM1535.99 142.006C1535.34 143.474 1534.3 144.796 1532.88 145.761L1532.71 145.867C1530.78 147.123 1528.49 147.573 1526.24 147.123C1523.94 146.674 1521.93 145.352 1520.62 143.395C1517.9 139.349 1518.96 133.849 1522.99 131.112C1524.49 130.094 1526.21 129.591 1527.91 129.591C1527.98 129.591 1528.04 129.591 1528.11 129.591C1528.56 129.605 1528.99 129.644 1529.43 129.724C1530.32 129.882 1531.18 130.173 1532 130.583C1533.26 131.244 1534.38 132.209 1535.24 133.479C1536.72 135.687 1537.08 138.344 1536.43 140.737C1536.3 141.187 1536.16 141.61 1535.99 142.006ZM1536.3 132.778C1534.75 130.464 1532.39 128.996 1529.86 128.507C1529.68 128.917 1529.53 129.327 1529.43 129.763C1530.32 129.922 1531.18 130.213 1532 130.623C1533.26 131.284 1534.38 132.249 1535.24 133.518C1536.72 135.726 1537.08 138.384 1536.43 140.777C1536.87 140.856 1537.32 140.896 1537.75 140.909C1537.95 140.103 1538.05 139.283 1538.05 138.463C1538.03 136.493 1537.47 134.51 1536.3 132.778Z" fill="#BEF0ED"/>
<path d="M1539.37 140.777C1539.19 141.253 1538.96 141.729 1538.7 142.165C1537.96 143.447 1536.92 144.598 1535.62 145.483L1533.62 146.859L1533.54 146.911L1533.21 147.136C1533.17 147.163 1533.13 147.189 1533.08 147.202C1533 147.229 1532.92 147.242 1532.84 147.242C1532.63 147.242 1532.42 147.136 1532.3 146.951C1532.1 146.647 1532.18 146.237 1532.47 146.039L1532.71 145.88L1532.88 145.774L1534.89 144.413C1535.8 143.791 1536.57 143.037 1537.16 142.178C1537.29 141.98 1537.42 141.781 1537.54 141.583C1537.67 141.358 1537.79 141.134 1537.91 140.896C1539.21 138.159 1539.08 134.814 1537.26 132.116C1535.95 130.16 1533.95 128.838 1531.64 128.388C1531.09 128.282 1530.53 128.229 1529.99 128.229C1529.53 128.229 1529.07 128.269 1528.61 128.335C1528.59 128.335 1528.55 128.348 1528.52 128.348C1527.28 128.56 1526.11 129.023 1525.04 129.75L1522.99 131.125L1522.61 131.376C1522.3 131.574 1521.9 131.495 1521.7 131.204C1521.53 130.953 1521.55 130.609 1521.75 130.398C1521.79 130.358 1521.83 130.332 1521.87 130.292L1522.22 130.041L1522.28 130.001L1524.29 128.639C1525.77 127.634 1527.45 127.053 1529.18 126.92C1529.69 126.881 1530.21 126.881 1530.73 126.92C1531.11 126.947 1531.5 127 1531.89 127.079C1534.54 127.621 1536.83 129.142 1538.34 131.389C1540.28 134.258 1540.54 137.775 1539.37 140.777Z" fill="#BEF0ED"/>
<path d="M1558.15 119.556C1557.61 119.556 1557.16 119.106 1557.16 118.564V118.234C1557.16 117.692 1557.61 117.242 1558.15 117.242C1558.69 117.242 1559.14 117.692 1559.14 118.234V118.564C1559.14 119.106 1558.69 119.556 1558.15 119.556Z" fill="#BEF0ED"/>
<path d="M1558.15 124.991C1557.61 124.991 1557.16 124.541 1557.16 123.999V123.668C1557.16 123.126 1557.61 122.677 1558.15 122.677C1558.69 122.677 1559.14 123.126 1559.14 123.668V123.999C1559.14 124.554 1558.69 124.991 1558.15 124.991Z" fill="#BEF0ED"/>
<path d="M1555.6 122.107H1555.27C1554.73 122.107 1554.28 121.658 1554.28 121.116C1554.28 120.574 1554.73 120.124 1555.27 120.124H1555.6C1556.14 120.124 1556.58 120.574 1556.58 121.116C1556.58 121.658 1556.15 122.107 1555.6 122.107Z" fill="#BEF0ED"/>
<path d="M1561.02 122.107H1560.69C1560.15 122.107 1559.71 121.658 1559.71 121.116C1559.71 120.574 1560.15 120.124 1560.69 120.124H1561.02C1561.56 120.124 1562.01 120.574 1562.01 121.116C1562.01 121.658 1561.56 122.107 1561.02 122.107Z" fill="#BEF0ED"/>
<path d="M1508.63 139.547C1508.09 139.547 1507.64 139.098 1507.64 138.556V138.225C1507.64 137.683 1508.09 137.233 1508.63 137.233C1509.17 137.233 1509.62 137.683 1509.62 138.225V138.556C1509.62 139.111 1509.17 139.547 1508.63 139.547Z" fill="#BEF0ED"/>
<path d="M1508.63 144.994C1508.09 144.994 1507.64 144.545 1507.64 144.003V143.672C1507.64 143.13 1508.09 142.681 1508.63 142.681C1509.17 142.681 1509.62 143.13 1509.62 143.672V144.003C1509.62 144.545 1509.17 144.994 1508.63 144.994Z" fill="#BEF0ED"/>
<path d="M1506.08 142.112H1505.75C1505.21 142.112 1504.76 141.663 1504.76 141.121C1504.76 140.578 1505.21 140.129 1505.75 140.129H1506.08C1506.62 140.129 1507.07 140.578 1507.07 141.121C1507.07 141.663 1506.63 142.112 1506.08 142.112Z" fill="#BEF0ED"/>
<path d="M1511.5 142.112H1511.17C1510.63 142.112 1510.19 141.663 1510.19 141.121C1510.19 140.578 1510.63 140.129 1511.17 140.129H1511.5C1512.04 140.129 1512.49 140.578 1512.49 141.121C1512.49 141.663 1512.04 142.112 1511.5 142.112Z" fill="#BEF0ED"/>
</g>
<rect x="1477.5" y="93.5" width="111.737" height="111.737" rx="14.5" stroke="#BEF0ED" stroke-width="3"/>
<g clip-path="url(#clip3_1203_4574)">
<path d="M237.654 503.703H203.621C203.039 503.703 202.556 503.268 202.556 502.745V465.76C202.556 465.237 203.039 464.803 203.621 464.803H237.654C238.236 464.803 238.719 465.237 238.719 465.76V502.745C238.719 503.268 238.236 503.703 237.654 503.703ZM204.686 501.788H236.589V466.718H204.686V501.788Z" fill="#BEF0ED"/>
<path d="M237.653 503.702C237.298 503.702 236.958 503.549 236.759 503.268C236.432 502.821 236.574 502.234 237.071 501.94L244.753 497.434V488.561C244.753 488.038 245.235 487.604 245.817 487.604C246.4 487.604 246.882 488.038 246.882 488.561V497.957C246.882 498.276 246.698 498.583 246.4 498.762L238.235 503.549C238.051 503.651 237.852 503.702 237.653 503.702Z" fill="#BEF0ED"/>
<path d="M245.819 480.441C245.237 480.441 244.754 480.007 244.754 479.484V461.93H227.304C226.722 461.93 226.239 461.496 226.239 460.972C226.239 460.449 226.722 460.015 227.304 460.015H245.819C246.401 460.015 246.884 460.449 246.884 460.972V479.496C246.884 480.02 246.401 480.441 245.819 480.441Z" fill="#BEF0ED"/>
<path d="M203.621 466.72C203.266 466.72 202.925 466.567 202.727 466.286C202.4 465.839 202.542 465.252 203.039 464.958L211.203 460.171C211.373 460.069 211.572 460.018 211.785 460.018H217.805C218.387 460.018 218.87 460.452 218.87 460.975C218.87 461.499 218.387 461.933 217.805 461.933H212.097L204.203 466.567C204.019 466.669 203.82 466.72 203.621 466.72Z" fill="#BEF0ED"/>
<path d="M237.653 466.717C237.313 466.717 236.972 466.564 236.759 466.283C236.432 465.836 236.574 465.249 237.071 464.955L245.278 460.142C245.775 459.849 246.428 459.977 246.754 460.423C247.081 460.87 246.939 461.457 246.442 461.751L238.235 466.564C238.051 466.666 237.852 466.717 237.653 466.717Z" fill="#BEF0ED"/>
<path d="M198.098 485.764C199.031 485.764 199.788 485.084 199.788 484.245C199.788 483.406 199.031 482.726 198.098 482.726C197.165 482.726 196.409 483.406 196.409 484.245C196.409 485.084 197.165 485.764 198.098 485.764Z" fill="#BEF0ED"/>
<path d="M194.126 484.594C194.341 483.777 193.778 482.959 192.87 482.766C191.962 482.573 191.052 483.079 190.837 483.896C190.623 484.712 191.185 485.53 192.094 485.723C193.002 485.916 193.912 485.41 194.126 484.594Z" fill="#BEF0ED"/>
<path d="M255.659 485.764C256.592 485.764 257.348 485.084 257.348 484.245C257.348 483.406 256.592 482.726 255.659 482.726C254.726 482.726 253.969 483.406 253.969 484.245C253.969 485.084 254.726 485.764 255.659 485.764Z" fill="#BEF0ED"/>
<path d="M251.241 485.317C251.901 484.724 251.901 483.762 251.241 483.169C250.582 482.576 249.512 482.576 248.852 483.169C248.192 483.762 248.192 484.724 248.852 485.317C249.512 485.911 250.582 485.911 251.241 485.317Z" fill="#BEF0ED"/>
<path d="M244.428 485.764C245.361 485.764 246.117 485.084 246.117 484.245C246.117 483.406 245.361 482.726 244.428 482.726C243.495 482.726 242.738 483.406 242.738 484.245C242.738 485.084 243.495 485.764 244.428 485.764Z" fill="#BEF0ED"/>
<path d="M222.704 453.133C223.637 453.133 224.394 452.453 224.394 451.614C224.394 450.775 223.637 450.095 222.704 450.095C221.771 450.095 221.015 450.775 221.015 451.614C221.015 452.453 221.771 453.133 222.704 453.133Z" fill="#BEF0ED"/>
<path d="M224.347 457.01C224.562 456.193 223.999 455.375 223.091 455.182C222.183 454.989 221.273 455.495 221.059 456.312C220.844 457.128 221.407 457.946 222.315 458.139C223.223 458.332 224.133 457.826 224.347 457.01Z" fill="#BEF0ED"/>
<path d="M222.704 463.232C223.637 463.232 224.394 462.552 224.394 461.713C224.394 460.874 223.637 460.193 222.704 460.193C221.771 460.193 221.015 460.874 221.015 461.713C221.015 462.552 221.771 463.232 222.704 463.232Z" fill="#BEF0ED"/>
<path d="M222.704 508.158C223.637 508.158 224.394 507.477 224.394 506.638C224.394 505.799 223.637 505.119 222.704 505.119C221.771 505.119 221.015 505.799 221.015 506.638C221.015 507.477 221.771 508.158 222.704 508.158Z" fill="#BEF0ED"/>
<path d="M224.343 512.038C224.558 511.222 223.995 510.403 223.087 510.21C222.179 510.018 221.269 510.523 221.055 511.34C220.84 512.156 221.403 512.975 222.311 513.167C223.219 513.36 224.129 512.855 224.343 512.038Z" fill="#BEF0ED"/>
<path d="M221.554 494.867C220.83 494.867 220.106 494.689 219.453 494.331L212.907 490.68C211.729 490.016 211.019 488.88 211.019 487.641V480.007C211.019 478.756 211.729 477.62 212.907 476.969L219.453 473.317C220.745 472.59 222.349 472.59 223.656 473.317L230.201 476.969C231.379 477.632 232.089 478.769 232.089 480.007V487.641C232.089 488.892 231.379 490.029 230.201 490.68L223.656 494.331C223.002 494.689 222.278 494.867 221.554 494.867ZM221.554 474.53C221.185 474.53 220.816 474.619 220.489 474.811L213.944 478.449C213.348 478.781 212.993 479.356 212.993 479.994V487.629C212.993 488.267 213.348 488.841 213.944 489.173L220.489 492.825C221.142 493.195 221.966 493.195 222.619 492.825L229.164 489.173C229.761 488.841 230.116 488.267 230.116 487.629V479.994C230.116 479.356 229.761 478.781 229.164 478.449L222.619 474.798C222.292 474.619 221.923 474.53 221.554 474.53Z" fill="#BEF0ED"/>
<path d="M221.554 488.701C218.544 488.701 216.102 486.505 216.102 483.799C216.102 481.092 218.544 478.896 221.554 478.896C224.564 478.896 227.006 481.092 227.006 483.799C227.006 486.505 224.564 488.701 221.554 488.701ZM221.554 480.658C219.623 480.658 218.061 482.063 218.061 483.799C218.061 485.535 219.623 486.939 221.554 486.939C223.485 486.939 225.047 485.535 225.047 483.799C225.047 482.063 223.485 480.658 221.554 480.658Z" fill="#BEF0ED"/>
</g>
<rect x="170.5" y="427.5" width="111.737" height="111.737" rx="14.5" stroke="#BEF0ED" stroke-width="3"/>
<path d="M590.345 463.526C602.614 463.526 612.569 473.548 612.569 485.9V489.746C612.569 491.61 611.527 493.242 609.791 494.057C605.161 496.038 595.322 499.767 583.169 500H583.4C571.362 499.767 561.408 496.038 556.778 494.057C555.157 493.358 554 491.61 554 489.746V485.9C554 473.548 563.954 463.526 576.224 463.526H582.127H590.345V463.526Z" stroke="#5ED9D1" stroke-width="4" stroke-miterlimit="10" stroke-linecap="round"/>
<path d="M583.635 461.422C573.848 461.422 565.924 453.499 565.924 443.711C565.924 433.923 573.848 426 583.635 426C593.423 426 601.346 433.923 601.346 443.711C601.346 453.499 593.423 461.422 583.635 461.422Z" stroke="#5ED9D1" stroke-width="4" stroke-miterlimit="10" stroke-linecap="round"/>
<path d="M1338.35 463.526C1350.61 463.526 1360.57 473.548 1360.57 485.9V489.746C1360.57 491.61 1359.53 493.242 1357.79 494.057C1353.16 496.038 1343.32 499.767 1331.17 500H1331.4C1319.36 499.767 1309.41 496.038 1304.78 494.057C1303.16 493.358 1302 491.61 1302 489.746V485.9C1302 473.548 1311.95 463.526 1324.22 463.526H1330.13H1338.35V463.526Z" stroke="#5ED9D1" stroke-width="4" stroke-miterlimit="10" stroke-linecap="round"/>
<path d="M1331.64 461.422C1321.85 461.422 1313.92 453.499 1313.92 443.711C1313.92 433.923 1321.85 426 1331.64 426C1341.42 426 1349.35 433.923 1349.35 443.711C1349.35 453.499 1341.42 461.422 1331.64 461.422Z" stroke="#5ED9D1" stroke-width="4" stroke-miterlimit="10" stroke-linecap="round"/>
<g clip-path="url(#clip4_1203_4574)">
<rect width="1900" height="600" transform="translate(-61 401)" fill="url(#paint1_linear_1203_4574)"/>
<circle cx="1503.1" cy="403.104" r="2.10373" fill="#FFC78F"/>
<circle cx="1503.1" cy="439.569" r="2.10373" fill="#FFC78F"/>
<circle cx="1503.1" cy="476.033" r="2.10373" fill="#FFC78F"/>
<circle cx="1503.1" cy="512.498" r="2.10373" fill="#FFC78F"/>
<circle cx="1503.1" cy="548.963" r="2.10373" fill="#FFC78F"/>
<circle cx="1503.1" cy="585.428" r="2.10373" fill="#FFC78F"/>
<circle cx="1550.79" cy="403.104" r="2.10373" fill="#FFC78F"/>
<circle cx="1550.79" cy="439.569" r="2.10373" fill="#FFC78F"/>
<circle cx="1550.79" cy="476.033" r="2.10373" fill="#FFC78F"/>
<circle cx="1550.79" cy="512.498" r="2.10373" fill="#FFC78F"/>
<circle cx="1550.79" cy="548.963" r="2.10373" fill="#FFC78F"/>
<circle cx="1550.79" cy="585.428" r="2.10373" fill="#FFC78F"/>
<circle cx="1598.47" cy="403.104" r="2.10373" fill="#FFC78F"/>
<circle cx="1598.47" cy="439.569" r="2.10373" fill="#FFC78F"/>
<circle cx="1598.47" cy="476.033" r="2.10373" fill="#FFC78F"/>
<circle cx="1598.47" cy="512.498" r="2.10373" fill="#FFC78F"/>
<circle cx="1598.47" cy="548.963" r="2.10373" fill="#FFC78F"/>
<circle cx="1598.47" cy="585.428" r="2.10373" fill="#FFC78F"/>
<circle cx="1646.16" cy="403.104" r="2.10373" fill="#FFC78F"/>
<circle cx="1646.16" cy="439.569" r="2.10373" fill="#FFC78F"/>
<circle cx="1646.16" cy="476.033" r="2.10373" fill="#FFC78F"/>
<circle cx="1646.16" cy="512.498" r="2.10373" fill="#FFC78F"/>
<circle cx="1646.16" cy="548.963" r="2.10373" fill="#FFC78F"/>
<circle cx="1646.16" cy="585.428" r="2.10373" fill="#FFC78F"/>
<circle cx="1693.84" cy="403.104" r="2.10373" fill="#FFC78F"/>
<circle cx="1693.84" cy="439.569" r="2.10373" fill="#FFC78F"/>
<circle cx="1693.84" cy="476.033" r="2.10373" fill="#FFC78F"/>
<circle cx="1693.84" cy="512.498" r="2.10373" fill="#FFC78F"/>
<circle cx="1693.84" cy="548.963" r="2.10373" fill="#FFC78F"/>
<circle cx="1693.84" cy="585.428" r="2.10373" fill="#FFC78F"/>
<circle cx="1741.53" cy="403.104" r="2.10373" fill="#FFC78F"/>
<circle cx="1741.53" cy="439.569" r="2.10373" fill="#FFC78F"/>
<circle cx="1741.53" cy="476.033" r="2.10373" fill="#FFC78F"/>
<circle cx="1741.53" cy="512.498" r="2.10373" fill="#FFC78F"/>
<circle cx="1741.53" cy="548.963" r="2.10373" fill="#FFC78F"/>
<circle cx="1741.53" cy="585.428" r="2.10373" fill="#FFC78F"/>
<circle cx="1789.21" cy="403.104" r="2.10373" fill="#FFC78F"/>
<circle cx="1789.21" cy="439.569" r="2.10373" fill="#FFC78F"/>
<circle cx="1789.21" cy="476.033" r="2.10373" fill="#FFC78F"/>
<circle cx="1789.21" cy="512.498" r="2.10373" fill="#FFC78F"/>
<circle cx="1789.21" cy="548.963" r="2.10373" fill="#FFC78F"/>
<circle cx="1789.21" cy="585.428" r="2.10373" fill="#FFC78F"/>
<circle cx="1836.9" cy="403.104" r="2.10373" fill="#FFC78F"/>
<circle cx="1836.9" cy="439.569" r="2.10373" fill="#FFC78F"/>
<circle cx="1836.9" cy="476.033" r="2.10373" fill="#FFC78F"/>
<circle cx="1836.9" cy="512.498" r="2.10373" fill="#FFC78F"/>
<circle cx="1836.9" cy="548.963" r="2.10373" fill="#FFC78F"/>
<circle cx="1836.9" cy="585.428" r="2.10373" fill="#FFC78F"/>
<g opacity="0.6">
<g opacity="0.3">
<path opacity="0.3" d="M731.618 497.659L779.933 469.579L828.565 497.657L780.249 525.736L731.618 497.659Z" fill="#015A85"/>
</g>
<path opacity="0.6" d="M726.602 468.127L781.376 436.503L835.796 468.129L781.021 499.754L726.602 468.127Z" fill="#015A85"/>
<path opacity="0.6" d="M726.602 480.368L781.38 448.743L835.8 480.369L781.021 511.994L726.602 480.368ZM832.162 480.368L781.364 450.849L730.234 480.369L781.037 509.89L832.167 480.369" fill="#00E2FA"/>
<g opacity="0.3">
<path opacity="0.3" d="M1050.79 510.375L1099.1 482.297L1147.74 510.375L1099.42 538.452L1050.79 510.375Z" fill="#015A85"/>
</g>
<g opacity="0.3">
<path opacity="0.3" d="M934.458 442.453L982.774 414.373L1031.41 442.453L983.092 470.53L934.458 442.453Z" fill="#015A85"/>
</g>
<path opacity="0.6" d="M659.69 607.226L714.465 575.602L768.883 607.226L714.109 638.851L659.69 607.226Z" fill="#015A85"/>
<path opacity="0.6" d="M659.691 619.465L714.466 587.841L768.884 619.465L714.109 651.09L659.691 619.465ZM765.25 619.465L714.454 589.947L663.323 619.465L714.119 648.985L765.258 619.465" fill="#00E2FA"/>
<path opacity="0.6" d="M932.609 483.016L987.384 451.392L1041.8 483.016L987.029 514.641L932.609 483.016Z" fill="#015A85"/>
<path opacity="0.6" d="M932.609 472.458L987.384 440.833L1041.8 472.458L987.029 504.082L932.609 472.458ZM1038.17 472.458L987.372 442.937L936.242 472.458L987.039 501.978L1038.17 472.458Z" fill="#00E2FA"/>
<g opacity="0.3">
<path opacity="0.3" d="M603 516.974L651.316 488.896L699.947 516.974L651.631 545.052L603 516.974Z" fill="#015A85"/>
</g>
<g opacity="0.3">
<path opacity="0.3" d="M1054.57 614.911L1102.88 586.833L1151.51 614.911L1103.2 642.988L1054.57 614.911Z" fill="#015A85"/>
</g>
<g opacity="0.3">
<path opacity="0.3" d="M968.397 554.958L1007.31 532.347L1046.47 554.958L1007.56 577.57L968.397 554.958Z" fill="#015A85"/>
</g>
<g opacity="0.1">
<path opacity="0.1" d="M619.917 485.192L651.37 466.914L683.027 485.192L651.576 503.471L619.917 485.192Z" fill="#015A85"/>
</g>
<g opacity="0.1">
<path opacity="0.1" d="M750.299 533.886L781.752 515.608L813.409 533.886L781.958 552.164L750.299 533.886Z" fill="#015A85"/>
</g>
<g opacity="0.1">
<path opacity="0.1" d="M740.41 445.96L771.863 427.681L803.522 445.958L772.069 464.238L740.41 445.96Z" fill="#015A85"/>
</g>
<g opacity="0.1">
<path opacity="0.1" d="M949.121 419.279L980.574 401L1012.23 419.279L980.778 437.557L949.121 419.279Z" fill="#015A85"/>
</g>
<g opacity="0.1">
<path opacity="0.1" d="M1112.14 502.013L1143.59 483.733L1175.25 502.011L1143.8 520.291L1112.14 502.013Z" fill="#015A85"/>
</g>
<g opacity="0.1">
<path opacity="0.1" d="M1078.26 580.563L1109.71 562.285L1141.37 580.563L1109.91 598.841L1078.26 580.563Z" fill="#015A85"/>
</g>
<g opacity="0.1">
<path opacity="0.1" d="M673.499 586.834L704.952 568.557L736.609 586.834L705.158 605.112L673.499 586.834Z" fill="#015A85"/>
</g>
<g opacity="0.1">
<path opacity="0.1" d="M641.943 585.404L673.396 567.126L705.055 585.404L673.602 603.681L641.943 585.404Z" fill="#015A85"/>
</g>
<path opacity="0.6" d="M649.966 524.207L704.741 492.582L759.16 524.207L704.386 555.831L649.966 524.207Z" fill="#015A85"/>
<path opacity="0.6" d="M649.966 511.967L704.741 480.343L759.16 511.967L704.386 543.592L649.966 511.967ZM755.526 511.967L704.729 482.447L653.605 511.967L704.396 541.482L755.526 511.967Z" fill="#00E2FA"/>
<path opacity="0.6" d="M1009.41 527.844L1064.18 496.22L1118.6 527.844L1063.83 559.469L1009.41 527.844Z" fill="#015A85"/>
<path opacity="0.6" d="M1009.41 517.285L1064.18 485.66L1118.6 517.285L1063.83 548.909L1009.41 517.285ZM1114.97 517.285L1064.17 487.765L1013.04 517.285L1063.84 546.805L1114.96 517.285" fill="#00E2FA"/>
<path opacity="0.6" d="M1009.41 630.511L1064.18 598.887L1118.6 630.511L1063.83 662.136L1009.41 630.511Z" fill="#015A85"/>
<path opacity="0.6" d="M1009.41 619.953L1064.18 588.328L1118.6 619.953L1063.83 651.577L1009.41 619.953ZM1114.97 619.953L1064.17 590.426L1013.04 619.946L1063.84 649.466L1114.96 619.953" fill="#00E2FA"/>
</g>
<g opacity="0.6">
<g opacity="0.3">
<path opacity="0.3" d="M81.2061 510.375L129.522 482.297L178.155 510.375L129.837 538.452L81.2061 510.375Z" fill="#015A85"/>
</g>
<g opacity="0.3">
<path opacity="0.3" d="M-35.1235 442.453L13.1923 414.373L61.8254 442.453L13.5096 470.53L-35.1235 442.453Z" fill="#015A85"/>
</g>
<path opacity="0.6" d="M-36.9727 483.016L17.8022 451.392L72.222 483.016L17.4472 514.641L-36.9727 483.016Z" fill="#015A85"/>
<path opacity="0.6" d="M-36.9727 472.458L17.8022 440.833L72.222 472.458L17.4472 504.082L-36.9727 472.458ZM68.5877 472.458L17.7902 442.937L-33.3401 472.458L17.4575 501.978L68.5877 472.458Z" fill="#00E2FA"/>
<g opacity="0.3">
<path opacity="0.3" d="M84.9844 614.911L133.3 586.833L181.932 614.911L133.616 642.988L84.9844 614.911Z" fill="#015A85"/>
</g>
<g opacity="0.3">
<path opacity="0.3" d="M-1.18506 554.958L37.7252 532.347L76.891 554.958L37.9808 577.57L-1.18506 554.958Z" fill="#015A85"/>
</g>
<g opacity="0.1">
<path opacity="0.1" d="M-20.4609 419.279L10.9921 401L42.6492 419.279L11.1962 437.557L-20.4609 419.279Z" fill="#015A85"/>
</g>
<g opacity="0.1">
<path opacity="0.1" d="M142.555 502.013L174.008 483.733L205.667 502.011L174.214 520.291L142.555 502.013Z" fill="#015A85"/>
</g>
<g opacity="0.1">
<path opacity="0.1" d="M108.675 580.562L140.128 562.284L171.785 580.562L140.332 598.84L108.675 580.562Z" fill="#015A85"/>
</g>
<path opacity="0.6" d="M39.8276 527.844L94.6024 496.22L149.022 527.844L94.2475 559.469L39.8276 527.844Z" fill="#015A85"/>
<path opacity="0.6" d="M39.8276 517.285L94.6024 485.66L149.022 517.285L94.2475 548.909L39.8276 517.285ZM145.388 517.285L94.5905 487.765L43.4602 517.285L94.2577 546.805L145.383 517.285" fill="#00E2FA"/>
<path opacity="0.6" d="M39.8276 630.511L94.6024 598.887L149.022 630.511L94.2475 662.136L39.8276 630.511Z" fill="#015A85"/>
<path opacity="0.6" d="M39.8276 619.953L94.6024 588.328L149.022 619.953L94.2475 651.577L39.8276 619.953ZM145.388 619.953L94.5905 590.426L43.4602 619.946L94.2577 649.466L145.383 619.953" fill="#00E2FA"/>
</g>
<g opacity="0.6">
<g opacity="0.3">
<path opacity="0.3" d="M1637.33 497.659L1685.64 469.579L1734.28 497.657L1685.96 525.736L1637.33 497.659Z" fill="#015A85"/>
</g>
<path opacity="0.6" d="M1632.31 468.127L1687.09 436.503L1741.51 468.129L1686.73 499.754L1632.31 468.127Z" fill="#015A85"/>
<path opacity="0.6" d="M1632.31 480.368L1687.09 448.743L1741.51 480.369L1686.73 511.994L1632.31 480.368ZM1737.87 480.368L1687.08 450.849L1635.95 480.369L1686.75 509.89L1737.88 480.369" fill="#00E2FA"/>
<path opacity="0.6" d="M1565.4 607.226L1620.18 575.602L1674.6 607.226L1619.82 638.851L1565.4 607.226Z" fill="#015A85"/>
<path opacity="0.6" d="M1565.4 619.465L1620.18 587.841L1674.6 619.465L1619.82 651.09L1565.4 619.465ZM1670.96 619.465L1620.17 589.947L1569.04 619.465L1619.83 648.985L1670.97 619.465" fill="#00E2FA"/>
<path opacity="0.6" d="M1838.32 483.016L1893.1 451.392L1947.52 483.016L1892.74 514.641L1838.32 483.016Z" fill="#015A85"/>
<path opacity="0.6" d="M1838.32 472.458L1893.1 440.833L1947.52 472.458L1892.74 504.082L1838.32 472.458ZM1943.88 472.458L1893.08 442.937L1841.95 472.458L1892.75 501.978L1943.88 472.458Z" fill="#00E2FA"/>
<g opacity="0.3">
<path opacity="0.3" d="M1508.71 516.974L1557.03 488.896L1605.66 516.974L1557.34 545.052L1508.71 516.974Z" fill="#015A85"/>
</g>
<g opacity="0.1">
<path opacity="0.1" d="M1525.63 485.192L1557.08 466.914L1588.74 485.192L1557.29 503.471L1525.63 485.192Z" fill="#015A85"/>
</g>
<g opacity="0.1">
<path opacity="0.1" d="M1656.01 533.886L1687.47 515.608L1719.12 533.886L1687.67 552.164L1656.01 533.886Z" fill="#015A85"/>
</g>
<g opacity="0.1">
<path opacity="0.1" d="M1646.12 445.96L1677.58 427.681L1709.23 445.958L1677.78 464.238L1646.12 445.96Z" fill="#015A85"/>
</g>
<g opacity="0.1">
<path opacity="0.1" d="M1579.21 586.834L1610.66 568.557L1642.32 586.834L1610.87 605.112L1579.21 586.834Z" fill="#015A85"/>
</g>
<g opacity="0.1">
<path opacity="0.1" d="M1547.66 585.404L1579.11 567.126L1610.77 585.404L1579.31 603.681L1547.66 585.404Z" fill="#015A85"/>
</g>
<path opacity="0.6" d="M1555.68 524.207L1610.45 492.582L1664.87 524.207L1610.1 555.831L1555.68 524.207Z" fill="#015A85"/>
<path opacity="0.6" d="M1555.68 511.967L1610.45 480.343L1664.87 511.967L1610.1 543.592L1555.68 511.967ZM1661.24 511.967L1610.44 482.447L1559.32 511.967L1610.11 541.482L1661.24 511.967Z" fill="#00E2FA"/>
</g>
<g clip-path="url(#clip5_1203_4574)">
<path fill-rule="evenodd" clip-rule="evenodd" d="M323 578L353.922 560L323 542L323 578Z" fill="#FFA6A6"/>
<path opacity="0.9" fill-rule="evenodd" clip-rule="evenodd" d="M372.039 578L402.942 560L372.039 542L372.039 578Z" fill="#FFA6A6"/>
<path opacity="0.8" fill-rule="evenodd" clip-rule="evenodd" d="M421.059 578L451.98 560L421.059 542L421.059 578Z" fill="#FFA6A6"/>
<path opacity="0.7" fill-rule="evenodd" clip-rule="evenodd" d="M470.098 542L470.098 578L501 560L470.098 542Z" fill="#FFA6A6"/>
</g>
<g clip-path="url(#clip6_1203_4574)">
<path fill-rule="evenodd" clip-rule="evenodd" d="M1245 578L1275.92 560L1245 542L1245 578Z" fill="#49CE8B"/>
<path opacity="0.9" fill-rule="evenodd" clip-rule="evenodd" d="M1294.04 578L1324.94 560L1294.04 542L1294.04 578Z" fill="#49CE8B"/>
<path opacity="0.8" fill-rule="evenodd" clip-rule="evenodd" d="M1343.06 578L1373.98 560L1343.06 542L1343.06 578Z" fill="#49CE8B"/>
<path opacity="0.7" fill-rule="evenodd" clip-rule="evenodd" d="M1392.1 542L1392.1 578L1423 560L1392.1 542Z" fill="#49CE8B"/>
</g>
<path d="M938.951 517.068L839.896 517.068C837.256 517.068 834.724 518.117 832.857 519.984C830.991 521.851 829.942 524.382 829.942 527.022L829.942 607.393L878.261 607.393L878.261 611.09L900.558 611.09L900.558 607.393L948.777 607.393L948.777 526.965C948.762 524.357 947.725 521.859 945.887 520.008C944.05 518.158 941.559 517.102 938.951 517.068Z" fill="#5ED9D1"/>
<path fill-rule="evenodd" clip-rule="evenodd" d="M832.306 519.433C834.319 517.42 837.049 516.289 839.896 516.289L938.951 516.289L938.951 517.069L938.961 516.289C941.774 516.325 944.46 517.464 946.441 519.46C948.423 521.456 949.542 524.15 949.558 526.962L949.558 526.966L949.558 608.174L901.338 608.174L901.338 611.871L877.481 611.871L877.481 608.174L829.162 608.174L829.162 527.023C829.162 524.176 830.293 521.446 832.306 519.433ZM938.946 517.85L839.896 517.85C837.463 517.85 835.13 518.816 833.409 520.537C831.689 522.257 830.722 524.59 830.722 527.023L830.722 606.614L879.041 606.614L879.041 610.311L899.777 610.311L899.777 606.614L947.997 606.614L947.997 526.971C947.997 526.97 947.997 526.969 947.997 526.969C947.983 524.566 947.027 522.264 945.334 520.559C943.641 518.855 941.348 517.882 938.946 517.85Z" fill="#171753"/>
<path fill-rule="evenodd" clip-rule="evenodd" d="M939.317 515.935L939.317 515.925L938.952 515.925L938.602 515.92L938.602 515.925L839.896 515.925C836.953 515.925 834.13 517.094 832.048 519.175C829.967 521.257 828.797 524.08 828.797 527.024L828.797 608.539L877.116 608.539L877.116 612.237L901.704 612.237L901.704 608.539L949.923 608.539L949.923 526.967L949.923 526.961C949.907 524.053 948.75 521.267 946.701 519.203C944.734 517.222 942.097 516.058 939.317 515.935ZM938.587 516.654L938.587 517.07L939.317 517.074L939.317 517.07L939.322 516.665C941.905 516.789 944.354 517.875 946.183 519.717C948.097 521.645 949.178 524.247 949.193 526.964L949.193 526.967L949.193 607.81L900.974 607.81L900.974 611.507L877.846 611.507L877.846 607.81L829.527 607.81L829.527 527.024C829.527 524.273 830.62 521.636 832.564 519.691C834.509 517.747 837.146 516.654 839.896 516.654L938.587 516.654ZM839.896 518.215C837.56 518.215 835.32 519.143 833.668 520.795C832.016 522.447 831.088 524.687 831.088 527.024L831.088 606.249L879.407 606.249L879.407 609.946L899.413 609.946L899.413 606.249L947.633 606.249L947.633 526.973L947.633 526.971C947.619 524.664 946.701 522.454 945.075 520.817C943.451 519.18 941.25 518.246 938.944 518.215L839.896 518.215ZM833.152 520.279C834.941 518.49 837.367 517.485 839.896 517.485L938.952 517.485C941.449 517.519 943.833 518.53 945.593 520.302C947.353 522.076 948.348 524.468 948.362 526.967L948.362 526.969L948.362 606.979L900.143 606.979L900.143 610.676L878.677 610.676L878.677 606.979L830.358 606.979L830.358 527.024C830.358 524.494 831.363 522.068 833.152 520.279Z" fill="#171753"/>
<path d="M938.951 525.773L839.896 525.773C839.733 525.775 839.573 525.809 839.423 525.873C839.274 525.937 839.139 526.03 839.025 526.146C838.912 526.262 838.822 526.399 838.762 526.55C838.701 526.701 838.671 526.862 838.673 527.025L838.673 597.498C838.671 597.66 838.701 597.821 838.762 597.971C838.823 598.121 838.912 598.257 839.026 598.372C839.14 598.487 839.275 598.579 839.425 598.641C839.574 598.703 839.734 598.736 839.896 598.735L938.951 598.735C939.281 598.736 939.597 598.606 939.831 598.374C940.065 598.142 940.199 597.828 940.203 597.498L940.203 526.982C940.188 526.659 940.05 526.353 939.818 526.129C939.585 525.904 939.275 525.777 938.951 525.773ZM937.714 596.304L841.147 596.304L841.147 528.205L937.643 528.205L937.714 596.304Z" fill="#171753"/>
<path fill-rule="evenodd" clip-rule="evenodd" d="M937.643 528.205L841.147 528.205L841.147 596.304L937.714 596.304L937.643 528.205ZM839.896 525.773L938.951 525.773C939.275 525.777 939.585 525.904 939.818 526.129C940.05 526.353 940.188 526.659 940.203 526.982L940.203 597.498C940.199 597.828 940.065 598.142 939.831 598.374C939.597 598.606 939.281 598.736 938.951 598.735L839.896 598.735C839.734 598.736 839.574 598.703 839.425 598.641C839.275 598.579 839.14 598.487 839.026 598.372C838.912 598.257 838.823 598.121 838.762 597.971C838.701 597.821 838.671 597.66 838.673 597.498L838.673 527.025C838.671 526.862 838.701 526.701 838.762 526.55C838.822 526.399 838.912 526.262 839.025 526.146C839.139 526.03 839.274 525.937 839.423 525.873C839.573 525.809 839.733 525.775 839.896 525.773Z" fill="#171753"/>
<path d="M937.856 532.847L913.867 532.847L913.867 595.838L937.856 595.838L937.856 532.847Z" fill="#9BE7C4"/>
<path d="M846.807 532.382L841.09 532.382L841.09 595.853L846.807 595.853L846.807 532.382Z" fill="#9BE7C4"/>
<path d="M938.653 527.295L839.654 527.295L839.654 532.848L938.653 532.848L938.653 527.295Z" fill="#171753"/>
<path d="M846.807 539.291L841.09 539.291L841.09 540.676L846.807 540.676L846.807 539.291Z" fill="#171753"/>
<path d="M846.807 544.844L841.09 544.844L841.09 546.228L846.807 546.228L846.807 544.844Z" fill="#171753"/>
<path d="M846.807 550.412L841.09 550.412L841.09 551.797L846.807 551.797L846.807 550.412Z" fill="#171753"/>
<path d="M846.807 555.966L841.09 555.966L841.09 557.351L846.807 557.351L846.807 555.966Z" fill="#171753"/>
<path d="M846.807 561.518L841.09 561.518L841.09 562.902L846.807 562.902L846.807 561.518Z" fill="#171753"/>
<path d="M846.807 567.071L841.09 567.071L841.09 568.456L846.807 568.456L846.807 567.071Z" fill="#171753"/>
<path d="M846.807 572.623L841.09 572.623L841.09 574.008L846.807 574.008L846.807 572.623Z" fill="#171753"/>
<path d="M846.807 578.178L841.09 578.178L841.09 579.562L846.807 579.562L846.807 578.178Z" fill="#171753"/>
<path d="M937.856 567.071L913.91 567.071L913.91 568.456L937.856 568.456L937.856 567.071Z" fill="#171753"/>
<path d="M937.856 572.623L913.91 572.623L913.91 574.008L937.856 574.008L937.856 572.623Z" fill="#171753"/>
<path d="M937.856 578.178L913.91 578.178L913.91 579.562L937.856 579.562L937.856 578.178Z" fill="#171753"/>
<path d="M932.055 555.966L918.063 555.966L918.063 557.351L932.055 557.351L932.055 555.966Z" fill="#171753"/>
<path d="M932.055 561.518L918.063 561.518L918.063 562.902L932.055 562.902L932.055 561.518Z" fill="#171753"/>
<path d="M937.856 583.729L913.91 583.729L913.91 585.114L937.856 585.114L937.856 583.729Z" fill="#171753"/>
<path d="M937.856 589.283L913.91 589.283L913.91 590.668L937.856 590.668L937.856 589.283Z" fill="#171753"/>
<path d="M859.391 529.386L845.157 529.386L845.157 530.77L859.391 530.77L859.391 529.386Z" fill="#FFC78F"/>
<path d="M934.059 547.628L932.054 547.628L932.054 549.013L934.059 549.013L934.059 547.628Z" fill="#FFC78F"/>
<path d="M926.068 547.628L924.063 547.628L924.063 549.013L926.068 549.013L926.068 547.628Z" fill="#FFC78F"/>
<path d="M934.059 542.074L932.054 542.074L932.054 543.459L934.059 543.459L934.059 542.074Z" fill="#FFC78F"/>
<path d="M926.068 542.074L924.063 542.074L924.063 543.459L926.068 543.459L926.068 542.074Z" fill="#FFC78F"/>
<path d="M918.077 547.628L916.072 547.628L916.072 549.013L918.077 549.013L918.077 547.628Z" fill="#FFC78F"/>
<path d="M918.077 542.074L916.072 542.074L916.072 543.459L918.077 543.459L918.077 542.074Z" fill="#FFC78F"/>
<path d="M934.059 536.522L932.054 536.522L932.054 537.907L934.059 537.907L934.059 536.522Z" fill="#FFC78F"/>
<path d="M926.068 536.522L924.063 536.522L924.063 537.907L926.068 537.907L926.068 536.522Z" fill="#FFC78F"/>
<path d="M918.077 536.522L916.072 536.522L916.072 537.907L918.077 537.907L918.077 536.522Z" fill="#FFC78F"/>
<path d="M876.143 590.669L874.707 590.669L874.707 592.054L876.143 592.054L876.143 590.669Z" fill="#171753"/>
<path d="M870.426 590.669L868.99 590.669L868.99 592.054L870.426 592.054L870.426 590.669Z" fill="#171753"/>
<path d="M864.695 590.669L863.259 590.669L863.259 592.054L864.695 592.054L864.695 590.669Z" fill="#171753"/>
<path fill-rule="evenodd" clip-rule="evenodd" d="M846.165 597.689L846.165 532.536L847.624 532.536L847.624 597.689L846.165 597.689ZM912.235 597.689L912.235 532.536L913.695 532.536L913.695 597.689L912.235 597.689Z" fill="#171753"/>
<path d="M1841.08 514.815L1742.02 514.815C1739.38 514.815 1736.85 515.864 1734.98 517.731C1733.12 519.598 1732.07 522.129 1732.07 524.769L1732.07 605.14L1780.39 605.14L1780.39 608.837L1802.69 608.837L1802.69 605.14L1850.9 605.14L1850.9 524.712C1850.89 522.104 1849.85 519.606 1848.01 517.755C1846.18 515.905 1843.69 514.849 1841.08 514.815Z" fill="#5ED9D1"/>
<path fill-rule="evenodd" clip-rule="evenodd" d="M1734.43 517.181C1736.45 515.168 1739.18 514.037 1742.02 514.037L1841.08 514.037L1841.08 514.817L1841.09 514.037C1843.9 514.073 1846.59 515.212 1848.57 517.208C1850.55 519.204 1851.67 521.898 1851.68 524.71L1851.68 524.714L1851.68 605.922L1803.46 605.922L1803.46 609.619L1779.61 609.619L1779.61 605.922L1731.29 605.922L1731.29 524.771C1731.29 521.924 1732.42 519.194 1734.43 517.181ZM1841.07 515.598L1742.02 515.598C1739.59 515.598 1737.26 516.564 1735.54 518.285C1733.82 520.005 1732.85 522.338 1732.85 524.771L1732.85 604.362L1781.17 604.362L1781.17 608.059L1801.9 608.059L1801.9 604.362L1850.12 604.362L1850.12 524.719C1850.12 524.718 1850.12 524.717 1850.12 524.717C1850.11 522.314 1849.15 520.012 1847.46 518.307C1845.77 516.603 1843.47 515.63 1841.07 515.598Z" fill="#171753"/>
<path fill-rule="evenodd" clip-rule="evenodd" d="M1841.44 513.682L1841.44 513.672L1841.08 513.672L1840.73 513.667L1840.73 513.672L1742.02 513.672C1739.08 513.672 1736.26 514.841 1734.17 516.922C1732.09 519.004 1730.92 521.827 1730.92 524.771L1730.92 606.287L1779.24 606.287L1779.24 609.984L1803.83 609.984L1803.83 606.287L1852.05 606.287L1852.05 524.714L1852.05 524.708C1852.03 521.8 1850.88 519.014 1848.83 516.95C1846.86 514.969 1844.22 513.805 1841.44 513.682ZM1840.71 514.401L1840.71 514.817L1841.44 514.821L1841.44 514.817L1841.45 514.412C1844.03 514.537 1846.48 515.622 1848.31 517.464C1850.22 519.392 1851.3 521.995 1851.32 524.711L1851.32 524.714L1851.32 605.557L1803.1 605.557L1803.1 609.254L1779.97 609.254L1779.97 605.557L1731.65 605.557L1731.65 524.771C1731.65 522.021 1732.75 519.383 1734.69 517.438C1736.64 515.494 1739.27 514.401 1742.02 514.401L1840.71 514.401ZM1742.02 515.962C1739.69 515.962 1737.45 516.89 1735.79 518.542C1734.14 520.194 1733.21 522.434 1733.21 524.771L1733.21 603.996L1781.53 603.996L1781.53 607.693L1801.54 607.693L1801.54 603.996L1849.76 603.996L1849.76 524.72L1849.76 524.718C1849.75 522.411 1848.83 520.201 1847.2 518.564C1845.58 516.927 1843.38 515.993 1841.07 515.962L1742.02 515.962ZM1735.28 518.026C1737.07 516.237 1739.49 515.232 1742.02 515.232L1841.08 515.232C1843.58 515.266 1845.96 516.277 1847.72 518.05C1849.48 519.823 1850.47 522.215 1850.49 524.714L1850.49 524.716L1850.49 604.726L1802.27 604.726L1802.27 608.423L1780.8 608.423L1780.8 604.726L1732.48 604.726L1732.48 524.771C1732.48 522.241 1733.49 519.815 1735.28 518.026Z" fill="#171753"/>
<path d="M1841.08 523.521L1742.02 523.521C1741.86 523.522 1741.7 523.556 1741.55 523.62C1741.4 523.684 1741.27 523.777 1741.15 523.893C1741.04 524.009 1740.95 524.147 1740.89 524.297C1740.83 524.448 1740.8 524.609 1740.8 524.772L1740.8 595.245C1740.8 595.407 1740.83 595.568 1740.89 595.718C1740.95 595.868 1741.04 596.004 1741.15 596.119C1741.27 596.234 1741.4 596.326 1741.55 596.388C1741.7 596.45 1741.86 596.483 1742.02 596.483L1841.08 596.483C1841.41 596.483 1841.72 596.353 1841.96 596.121C1842.19 595.89 1842.33 595.575 1842.33 595.245L1842.33 524.729C1842.32 524.406 1842.18 524.101 1841.94 523.876C1841.71 523.651 1841.4 523.524 1841.08 523.521ZM1839.84 594.051L1743.27 594.051L1743.27 525.952L1839.77 525.952L1839.84 594.051Z" fill="#171753"/>
<path fill-rule="evenodd" clip-rule="evenodd" d="M1839.77 525.952L1743.27 525.952L1743.27 594.051L1839.84 594.051L1839.77 525.952ZM1742.02 523.521L1841.08 523.521C1841.4 523.524 1841.71 523.651 1841.94 523.876C1842.18 524.101 1842.32 524.406 1842.33 524.729L1842.33 595.245C1842.33 595.575 1842.19 595.89 1841.96 596.121C1841.72 596.353 1841.41 596.483 1841.08 596.483L1742.02 596.483C1741.86 596.483 1741.7 596.45 1741.55 596.388C1741.4 596.326 1741.27 596.234 1741.15 596.119C1741.04 596.004 1740.95 595.868 1740.89 595.718C1740.83 595.568 1740.8 595.407 1740.8 595.245L1740.8 524.772C1740.8 524.609 1740.83 524.448 1740.89 524.297C1740.95 524.147 1741.04 524.009 1741.15 523.893C1741.27 523.777 1741.4 523.684 1741.55 523.62C1741.7 523.556 1741.86 523.522 1742.02 523.521Z" fill="#171753"/>
<path d="M1839.98 530.593L1816 530.593L1816 593.584L1839.98 593.584L1839.98 530.593Z" fill="#9BE7C4"/>
<path d="M1748.93 530.128L1743.22 530.128L1743.22 593.599L1748.93 593.599L1748.93 530.128Z" fill="#9BE7C4"/>
<path d="M1840.78 525.041L1741.78 525.041L1741.78 530.594L1840.78 530.594L1840.78 525.041Z" fill="#171753"/>
<path d="M1748.93 537.037L1743.22 537.037L1743.22 538.422L1748.93 538.422L1748.93 537.037Z" fill="#171753"/>
<path d="M1748.93 542.59L1743.22 542.59L1743.22 543.975L1748.93 543.975L1748.93 542.59Z" fill="#171753"/>
<path d="M1748.93 548.158L1743.22 548.158L1743.22 549.543L1748.93 549.543L1748.93 548.158Z" fill="#171753"/>
<path d="M1748.93 553.712L1743.22 553.712L1743.22 555.097L1748.93 555.097L1748.93 553.712Z" fill="#171753"/>
<path d="M1748.93 559.264L1743.22 559.264L1743.22 560.648L1748.93 560.648L1748.93 559.264Z" fill="#171753"/>
<path d="M1748.93 564.817L1743.22 564.817L1743.22 566.202L1748.93 566.202L1748.93 564.817Z" fill="#171753"/>
<path d="M1748.93 570.369L1743.22 570.369L1743.22 571.754L1748.93 571.754L1748.93 570.369Z" fill="#171753"/>
<path d="M1748.93 575.924L1743.22 575.924L1743.22 577.309L1748.93 577.309L1748.93 575.924Z" fill="#171753"/>
<path d="M1839.98 564.817L1816.04 564.817L1816.04 566.202L1839.98 566.202L1839.98 564.817Z" fill="#171753"/>
<path d="M1839.98 570.369L1816.04 570.369L1816.04 571.754L1839.98 571.754L1839.98 570.369Z" fill="#171753"/>
<path d="M1839.98 575.924L1816.04 575.924L1816.04 577.309L1839.98 577.309L1839.98 575.924Z" fill="#171753"/>
<path d="M1834.18 553.712L1820.19 553.712L1820.19 555.097L1834.18 555.097L1834.18 553.712Z" fill="#171753"/>
<path d="M1834.18 559.264L1820.19 559.264L1820.19 560.648L1834.18 560.648L1834.18 559.264Z" fill="#171753"/>
<path d="M1839.98 581.476L1816.04 581.476L1816.04 582.86L1839.98 582.86L1839.98 581.476Z" fill="#171753"/>
<path d="M1839.98 587.029L1816.04 587.029L1816.04 588.414L1839.98 588.414L1839.98 587.029Z" fill="#171753"/>
<path d="M1761.52 527.132L1747.28 527.132L1747.28 528.517L1761.52 528.517L1761.52 527.132Z" fill="#FFC78F"/>
<path d="M1836.19 545.374L1834.18 545.374L1834.18 546.759L1836.19 546.759L1836.19 545.374Z" fill="#FFC78F"/>
<path d="M1828.19 545.374L1826.19 545.374L1826.19 546.759L1828.19 546.759L1828.19 545.374Z" fill="#FFC78F"/>
<path d="M1836.19 539.82L1834.18 539.82L1834.18 541.205L1836.19 541.205L1836.19 539.82Z" fill="#FFC78F"/>
<path d="M1828.19 539.82L1826.19 539.82L1826.19 541.205L1828.19 541.205L1828.19 539.82Z" fill="#FFC78F"/>
<path d="M1820.2 545.374L1818.2 545.374L1818.2 546.759L1820.2 546.759L1820.2 545.374Z" fill="#FFC78F"/>
<path d="M1820.2 539.82L1818.2 539.82L1818.2 541.205L1820.2 541.205L1820.2 539.82Z" fill="#FFC78F"/>
<path d="M1836.19 534.269L1834.18 534.269L1834.18 535.653L1836.19 535.653L1836.19 534.269Z" fill="#FFC78F"/>
<path d="M1828.19 534.269L1826.19 534.269L1826.19 535.653L1828.19 535.653L1828.19 534.269Z" fill="#FFC78F"/>
<path d="M1820.2 534.269L1818.2 534.269L1818.2 535.653L1820.2 535.653L1820.2 534.269Z" fill="#FFC78F"/>
<path d="M1778.27 588.415L1776.83 588.415L1776.83 589.8L1778.27 589.8L1778.27 588.415Z" fill="#171753"/>
<path d="M1772.55 588.415L1771.12 588.415L1771.12 589.8L1772.55 589.8L1772.55 588.415Z" fill="#171753"/>
<path d="M1766.82 588.415L1765.39 588.415L1765.39 589.8L1766.82 589.8L1766.82 588.415Z" fill="#171753"/>
<path fill-rule="evenodd" clip-rule="evenodd" d="M1748.29 595.435L1748.29 530.282L1749.75 530.282L1749.75 595.435L1748.29 595.435ZM1814.36 595.435L1814.36 530.282L1815.82 530.282L1815.82 595.435L1814.36 595.435Z" fill="#171753"/>
</g>
</g>
<defs>
<linearGradient id="paint0_linear_1203_4574" x1="-7.07805e-06" y1="300" x2="1900" y2="300" gradientUnits="userSpaceOnUse">
<stop stop-color="#030332"/>
<stop offset="1" stop-color="#171753"/>
</linearGradient>
<linearGradient id="paint1_linear_1203_4574" x1="-7.07805e-06" y1="300" x2="1900" y2="300" gradientUnits="userSpaceOnUse">
<stop stop-color="#030332"/>
<stop offset="1" stop-color="#171753"/>
</linearGradient>
<clipPath id="clip0_1203_4574">
<rect width="1900" height="600" fill="white"/>
</clipPath>
<clipPath id="clip1_1203_4574">
<rect width="947" height="657" fill="white" transform="translate(947 600) rotate(180)"/>
</clipPath>
<clipPath id="clip2_1203_4574">
<rect width="61.5947" height="59.4707" fill="white" transform="translate(1502.39 117.242)"/>
</clipPath>
<clipPath id="clip3_1203_4574">
<rect width="66.5474" height="63.1053" fill="white" transform="translate(190.8 450.095)"/>
</clipPath>
<clipPath id="clip4_1203_4574">
<rect width="1900" height="600" fill="white" transform="translate(-61 401)"/>
</clipPath>
<clipPath id="clip5_1203_4574">
<rect width="178" height="36" fill="white" transform="translate(323 542)"/>
</clipPath>
<clipPath id="clip6_1203_4574">
<rect width="178" height="36" fill="white" transform="translate(1245 542)"/>
</clipPath>
</defs>
</svg>
