<svg width="1900" height="600" viewBox="0 0 1900 600" fill="none" xmlns="http://www.w3.org/2000/svg">
<g clip-path="url(#clip0_1206_3780)">
<rect width="1900" height="600" fill="url(#paint0_linear_1206_3780)"/>
<g clip-path="url(#clip1_1206_3780)">
<path d="M290.029 219.441C290.029 219.808 289.92 220.168 289.715 220.474C289.511 220.779 289.22 221.018 288.88 221.158C288.54 221.299 288.166 221.336 287.806 221.264C287.445 221.192 287.113 221.015 286.853 220.755C286.593 220.495 286.416 220.164 286.344 219.803C286.272 219.443 286.309 219.069 286.45 218.729C286.591 218.389 286.829 218.099 287.135 217.894C287.441 217.69 287.801 217.581 288.168 217.581C288.662 217.581 289.135 217.777 289.484 218.126C289.833 218.474 290.029 218.947 290.029 219.441Z" fill="#5ED9D1"/>
<path d="M646.624 554.677C646.624 555.045 646.514 555.404 646.31 555.71C646.106 556.016 645.815 556.254 645.475 556.395C645.135 556.536 644.761 556.572 644.4 556.501C644.039 556.429 643.708 556.252 643.448 555.992C643.188 555.732 643.01 555.4 642.939 555.04C642.867 554.679 642.904 554.305 643.044 553.965C643.185 553.626 643.424 553.335 643.73 553.131C644.036 552.926 644.395 552.817 644.763 552.817C645.007 552.817 645.249 552.866 645.475 552.959C645.701 553.052 645.906 553.189 646.079 553.362C646.251 553.535 646.388 553.74 646.482 553.965C646.575 554.191 646.624 554.433 646.624 554.677Z" fill="#5ED9D1"/>
<path d="M927.523 280.589C928.55 280.589 929.383 279.757 929.383 278.73C929.383 277.703 928.55 276.87 927.523 276.87C926.495 276.87 925.663 277.703 925.663 278.73C925.663 279.757 926.495 280.589 927.523 280.589Z" fill="#5ED9D1"/>
<path d="M769.666 211.667C769.666 212.035 769.557 212.394 769.353 212.7C769.149 213.006 768.858 213.244 768.518 213.385C768.178 213.526 767.804 213.563 767.443 213.491C767.082 213.419 766.751 213.242 766.491 212.982C766.23 212.722 766.053 212.391 765.982 212.03C765.91 211.669 765.947 211.295 766.087 210.955C766.228 210.616 766.467 210.325 766.773 210.121C767.079 209.917 767.438 209.808 767.806 209.808C768.3 209.808 768.773 210.004 769.122 210.352C769.47 210.701 769.666 211.174 769.666 211.667Z" fill="white"/>
<path d="M493.104 147.695C493.104 148.063 492.995 148.423 492.79 148.728C492.586 149.034 492.295 149.273 491.956 149.413C491.616 149.554 491.242 149.591 490.881 149.519C490.52 149.447 490.188 149.27 489.928 149.01C489.668 148.75 489.491 148.419 489.419 148.058C489.347 147.697 489.384 147.324 489.525 146.984C489.666 146.644 489.904 146.354 490.21 146.149C490.516 145.945 490.876 145.836 491.244 145.836C491.737 145.836 492.21 146.032 492.559 146.381C492.908 146.729 493.104 147.202 493.104 147.695Z" fill="white"/>
<path d="M95.1039 183.695C95.1039 184.063 94.9949 184.423 94.7905 184.728C94.5861 185.034 94.2955 185.273 93.9555 185.413C93.6156 185.554 93.2415 185.591 92.8807 185.519C92.5198 185.447 92.1883 185.27 91.9282 185.01C91.668 184.75 91.4908 184.419 91.4191 184.058C91.3473 183.697 91.3841 183.324 91.5249 182.984C91.6657 182.644 91.9041 182.354 92.2101 182.149C92.516 181.945 92.8757 181.836 93.2436 181.836C93.737 181.836 94.2102 182.032 94.5591 182.381C94.908 182.729 95.1039 183.202 95.1039 183.695Z" fill="white"/>
<path d="M368.926 521.39C369.954 521.39 370.787 520.557 370.787 519.53C370.787 518.503 369.954 517.671 368.926 517.671C367.899 517.671 367.066 518.503 367.066 519.53C367.066 520.557 367.899 521.39 368.926 521.39Z" fill="white"/>
<path d="M583.173 395.327C584.2 395.327 585.033 394.495 585.033 393.468C585.033 392.441 584.2 391.608 583.173 391.608C582.145 391.608 581.312 392.441 581.312 393.468C581.312 394.495 582.145 395.327 583.173 395.327Z" fill="white"/>
<path d="M622.104 113.695C622.104 114.063 621.995 114.423 621.79 114.728C621.586 115.034 621.296 115.273 620.956 115.413C620.616 115.554 620.242 115.591 619.881 115.519C619.52 115.447 619.188 115.27 618.928 115.01C618.668 114.75 618.491 114.419 618.419 114.058C618.347 113.697 618.384 113.324 618.525 112.984C618.666 112.644 618.904 112.354 619.21 112.149C619.516 111.945 619.876 111.836 620.244 111.836C620.737 111.836 621.21 112.032 621.559 112.381C621.908 112.729 622.104 113.202 622.104 113.695Z" fill="white"/>
<path d="M286.104 57.6954C286.104 58.0632 285.995 58.4227 285.79 58.7285C285.586 59.0343 285.296 59.2726 284.956 59.4133C284.616 59.5541 284.242 59.5909 283.881 59.5191C283.52 59.4474 283.188 59.2703 282.928 59.0102C282.668 58.7502 282.491 58.4189 282.419 58.0582C282.347 57.6975 282.384 57.3236 282.525 56.9838C282.666 56.644 282.904 56.3536 283.21 56.1493C283.516 55.945 283.876 55.8359 284.244 55.8359C284.737 55.8359 285.21 56.0318 285.559 56.3806C285.908 56.7293 286.104 57.2022 286.104 57.6954Z" fill="white"/>
</g>
<g clip-path="url(#clip2_1206_3780)">
<path d="M1256.96 219.441C1256.96 219.808 1256.85 220.168 1256.65 220.474C1256.44 220.779 1256.15 221.018 1255.81 221.158C1255.47 221.299 1255.1 221.336 1254.74 221.264C1254.38 221.192 1254.04 221.015 1253.78 220.755C1253.52 220.495 1253.35 220.164 1253.27 219.803C1253.2 219.443 1253.24 219.069 1253.38 218.729C1253.52 218.389 1253.76 218.099 1254.07 217.894C1254.37 217.69 1254.73 217.581 1255.1 217.581C1255.59 217.581 1256.07 217.777 1256.41 218.126C1256.76 218.474 1256.96 218.947 1256.96 219.441Z" fill="#5ED9D1"/>
<path d="M1613.55 554.677C1613.55 555.045 1613.45 555.404 1613.24 555.71C1613.04 556.016 1612.75 556.254 1612.41 556.395C1612.07 556.536 1611.69 556.572 1611.33 556.501C1610.97 556.429 1610.64 556.252 1610.38 555.992C1610.12 555.732 1609.94 555.4 1609.87 555.04C1609.8 554.679 1609.83 554.305 1609.98 553.965C1610.12 553.626 1610.35 553.335 1610.66 553.131C1610.97 552.926 1611.33 552.817 1611.69 552.817C1611.94 552.817 1612.18 552.866 1612.41 552.959C1612.63 553.052 1612.84 553.189 1613.01 553.362C1613.18 553.535 1613.32 553.74 1613.41 553.965C1613.51 554.191 1613.55 554.433 1613.55 554.677Z" fill="#5ED9D1"/>
<path d="M962.52 410.386C963.547 410.386 964.38 409.553 964.38 408.526C964.38 407.5 963.547 406.667 962.52 406.667C961.492 406.667 960.659 407.5 960.659 408.526C960.659 409.553 961.492 410.386 962.52 410.386Z" fill="#5ED9D1"/>
<path d="M1894.45 280.589C1895.48 280.589 1896.31 279.757 1896.31 278.73C1896.31 277.703 1895.48 276.87 1894.45 276.87C1893.43 276.87 1892.59 277.703 1892.59 278.73C1892.59 279.757 1893.43 280.589 1894.45 280.589Z" fill="#5ED9D1"/>
<path d="M1736.6 211.667C1736.6 212.035 1736.49 212.394 1736.28 212.7C1736.08 213.006 1735.79 213.244 1735.45 213.385C1735.11 213.526 1734.74 213.563 1734.37 213.491C1734.01 213.419 1733.68 213.242 1733.42 212.982C1733.16 212.722 1732.98 212.391 1732.91 212.03C1732.84 211.669 1732.88 211.295 1733.02 210.955C1733.16 210.616 1733.4 210.325 1733.7 210.121C1734.01 209.917 1734.37 209.808 1734.74 209.808C1735.23 209.808 1735.7 210.004 1736.05 210.352C1736.4 210.701 1736.6 211.174 1736.6 211.667Z" fill="white"/>
<path d="M1460.03 147.695C1460.03 148.063 1459.93 148.423 1459.72 148.728C1459.52 149.034 1459.23 149.273 1458.89 149.413C1458.55 149.554 1458.17 149.591 1457.81 149.519C1457.45 149.447 1457.12 149.27 1456.86 149.01C1456.6 148.75 1456.42 148.419 1456.35 148.058C1456.28 147.697 1456.31 147.324 1456.46 146.984C1456.6 146.644 1456.83 146.354 1457.14 146.149C1457.45 145.945 1457.81 145.836 1458.17 145.836C1458.67 145.836 1459.14 146.032 1459.49 146.381C1459.84 146.729 1460.03 147.202 1460.03 147.695Z" fill="white"/>
<path d="M1062.03 183.695C1062.03 184.063 1061.93 184.423 1061.72 184.728C1061.52 185.034 1061.23 185.273 1060.89 185.413C1060.55 185.554 1060.17 185.591 1059.81 185.519C1059.45 185.447 1059.12 185.27 1058.86 185.01C1058.6 184.75 1058.42 184.419 1058.35 184.058C1058.28 183.697 1058.31 183.324 1058.46 182.984C1058.6 182.644 1058.83 182.354 1059.14 182.149C1059.45 181.945 1059.81 181.836 1060.17 181.836C1060.67 181.836 1061.14 182.032 1061.49 182.381C1061.84 182.729 1062.03 183.202 1062.03 183.695Z" fill="white"/>
<path d="M1335.86 521.39C1336.88 521.39 1337.72 520.557 1337.72 519.53C1337.72 518.503 1336.88 517.671 1335.86 517.671C1334.83 517.671 1334 518.503 1334 519.53C1334 520.557 1334.83 521.39 1335.86 521.39Z" fill="white"/>
<path d="M1550.1 395.327C1551.13 395.327 1551.96 394.495 1551.96 393.468C1551.96 392.441 1551.13 391.608 1550.1 391.608C1549.08 391.608 1548.24 392.441 1548.24 393.468C1548.24 394.495 1549.08 395.327 1550.1 395.327Z" fill="white"/>
<path d="M1589.03 113.695C1589.03 114.063 1588.93 114.423 1588.72 114.728C1588.52 115.034 1588.23 115.273 1587.89 115.413C1587.55 115.554 1587.17 115.591 1586.81 115.519C1586.45 115.447 1586.12 115.27 1585.86 115.01C1585.6 114.75 1585.42 114.419 1585.35 114.058C1585.28 113.697 1585.31 113.324 1585.46 112.984C1585.6 112.644 1585.83 112.354 1586.14 112.149C1586.45 111.945 1586.81 111.836 1587.17 111.836C1587.67 111.836 1588.14 112.032 1588.49 112.381C1588.84 112.729 1589.03 113.202 1589.03 113.695Z" fill="white"/>
<path d="M1253.03 57.6954C1253.03 58.0632 1252.93 58.4227 1252.72 58.7285C1252.52 59.0343 1252.23 59.2726 1251.89 59.4133C1251.55 59.5541 1251.17 59.5909 1250.81 59.5191C1250.45 59.4474 1250.12 59.2703 1249.86 59.0102C1249.6 58.7502 1249.42 58.4189 1249.35 58.0582C1249.28 57.6975 1249.31 57.3236 1249.46 56.9838C1249.6 56.644 1249.83 56.3536 1250.14 56.1493C1250.45 55.945 1250.81 55.8359 1251.17 55.8359C1251.67 55.8359 1252.14 56.0318 1252.49 56.3806C1252.84 56.7293 1253.03 57.2022 1253.03 57.6954Z" fill="white"/>
</g>
<path d="M309.83 532.008C309.586 532.014 309.343 531.967 309.119 531.87C308.895 531.773 308.695 531.629 308.533 531.447L244.502 468.071C244.331 467.911 244.197 467.716 244.107 467.5C244.018 467.284 243.976 467.051 243.983 466.818V136.199C243.98 135.959 244.024 135.722 244.113 135.499C244.202 135.277 244.334 135.074 244.502 134.903L308.446 71.5268C308.793 71.189 309.259 71 309.743 71C310.228 71 310.693 71.189 311.04 71.5268C311.378 71.8737 311.567 72.3387 311.567 72.8228C311.567 73.307 311.378 73.772 311.04 74.1189L247.702 136.977V466.04L311.083 528.898C311.255 529.063 311.391 529.261 311.484 529.48C311.577 529.699 311.625 529.934 311.625 530.172C311.625 530.41 311.577 530.646 311.484 530.865C311.391 531.084 311.255 531.282 311.083 531.447C310.753 531.787 310.304 531.988 309.83 532.008Z" fill="white"/>
<path d="M250.728 187.133H241V134.169L265.644 110.062L272.432 117.018L250.728 138.23V187.133Z" fill="white"/>
<path d="M265.644 492.911L241 468.847V415.883H250.728V464.743L272.432 485.955L265.644 492.911Z" fill="white"/>
<path d="M1590.84 528.008C1590.35 527.999 1589.88 527.797 1589.54 527.447C1589.37 527.282 1589.23 527.084 1589.14 526.865C1589.05 526.646 1589 526.41 1589 526.172C1589 525.934 1589.05 525.699 1589.14 525.48C1589.23 525.261 1589.37 525.063 1589.54 524.898L1652.92 462.04V132.977L1589.58 70.1189C1589.25 69.772 1589.06 69.307 1589.06 68.8228C1589.06 68.3387 1589.25 67.8737 1589.58 67.5268C1589.93 67.189 1590.4 67 1590.88 67C1591.37 67 1591.83 67.189 1592.18 67.5268L1656.17 130.903C1656.33 131.074 1656.47 131.277 1656.56 131.499C1656.64 131.722 1656.69 131.959 1656.68 132.199V462.818C1656.69 463.051 1656.65 463.284 1656.56 463.5C1656.47 463.716 1656.34 463.911 1656.17 464.071L1592.22 527.447C1592.05 527.64 1591.84 527.792 1591.6 527.889C1591.36 527.986 1591.1 528.027 1590.84 528.008Z" fill="white"/>
<path d="M1659.62 183.133H1649.9V134.23L1628.19 113.018L1634.98 106.062L1659.62 130.169V183.133Z" fill="white"/>
<path d="M1634.98 488.911L1628.19 481.955L1649.9 460.743V411.883H1659.62V464.847L1634.98 488.911Z" fill="white"/>
<path d="M1273.38 469.816H1262.82V487.24H1273.38V469.816Z" fill="#BEF0ED"/>
<path d="M1292.97 476.242H1282.4V487.196H1292.97V476.242Z" fill="#BEF0ED"/>
<g opacity="0.7" clip-path="url(#clip3_1206_3780)">
<g opacity="0.9">
<g style="mix-blend-mode:multiply" opacity="0.1">
<g style="mix-blend-mode:multiply" opacity="0.1">
<path d="M2256.1 116.443L2177.51 194.745L2099.27 273.448L1943.45 431.452L1788.48 590.282L1711.33 670.009L1634.57 750.161L1713.2 671.833L1791.38 593.131L1947.2 435.126L2102.15 276.272L2179.34 196.545L2256.1 116.443Z" fill="#BEF0ED"/>
</g>
<g style="mix-blend-mode:multiply" opacity="0.1">
<path d="M2263.62 138.501L2185.01 209.322L2106.76 280.544L1950.82 423.589L1795.74 567.533L1718.49 639.831L1641.59 712.529L1720.22 641.733L1798.47 570.511L1954.39 427.441L2109.46 283.497L2186.72 211.199L2263.62 138.501Z" fill="#BEF0ED"/>
</g>
<g style="mix-blend-mode:multiply" opacity="0.1">
<path d="M2271.16 160.58L2192.51 223.896L2114.22 287.612L1958.2 415.746L1802.95 544.782L1725.61 609.625L1648.62 674.919L1727.24 611.629L1805.51 547.887L1961.52 419.753L2116.77 290.718L2194.14 225.849L2271.16 160.58Z" fill="#BEF0ED"/>
</g>
<g style="mix-blend-mode:multiply" opacity="0.1">
<path d="M2278.65 182.664L2200.01 238.474L2121.74 294.734L1965.62 407.882L1810.22 522.034L1732.76 579.448L1655.64 637.288L1734.25 581.504L1812.57 525.243L1968.66 412.07L2124.06 297.918L2201.52 240.504L2278.65 182.664Z" fill="#BEF0ED"/>
</g>
<g style="mix-blend-mode:multiply" opacity="0.1">
<path d="M2286.19 204.744L2207.56 253.047L2129.25 301.802L1973.06 400.04L1817.48 499.282L1739.91 549.267L1662.65 599.704L1741.27 551.401L1819.61 502.62L1975.8 404.382L2131.35 305.166L2208.9 255.156L2286.19 204.744Z" fill="#BEF0ED"/>
</g>
<g style="mix-blend-mode:multiply" opacity="0.1">
<path d="M2293.7 226.801L2215.12 267.623L2136.77 308.922L1980.47 392.175L1824.75 476.533L1747.09 519.063L1669.66 562.071L1748.27 521.274L1826.62 480.025L1982.89 396.697L2138.64 312.364L2216.3 269.834L2293.7 226.801Z" fill="#BEF0ED"/>
</g>
<g style="mix-blend-mode:multiply" opacity="0.1">
<path d="M2301.22 248.907L2222.67 282.198L2144.31 316.017L1987.94 384.358L1832.06 453.782L1754.27 488.858L1676.7 524.463L1755.27 491.147L1833.63 457.378L1989.98 389.012L2145.88 319.563L2223.65 284.461L2301.22 248.907Z" fill="#BEF0ED"/>
</g>
<g style="mix-blend-mode:multiply" opacity="0.1">
<path d="M2308.73 270.963L2230.2 296.798L2151.85 323.111L1995.43 376.517L1839.35 431.056L1761.44 458.704L1683.74 486.854L1762.24 461.045L1840.62 434.707L1997.06 381.326L2153.12 326.761L2231.03 299.114L2308.73 270.963Z" fill="#BEF0ED"/>
</g>
<g style="mix-blend-mode:multiply" opacity="0.1">
<path d="M2316.27 293.046L2237.78 311.399L2159.41 330.232L2002.9 368.702L1846.67 408.307L1768.64 428.526L1690.75 449.223L1769.24 430.92L1847.58 412.063L2004.1 373.592L2160.35 333.962L2238.35 313.769L2316.27 293.046Z" fill="#BEF0ED"/>
</g>
<g style="mix-blend-mode:multiply" opacity="0.1">
<path d="M2323.76 315.129L2245.36 326L2166.98 337.352L2010.39 360.912L1853.98 385.608L1775.85 398.347L1697.79 411.615L1776.22 400.769L1854.57 389.392L2011.14 365.857L2167.57 341.136L2245.7 328.397L2323.76 315.129Z" fill="#BEF0ED"/>
</g>
<g style="mix-blend-mode:multiply" opacity="0.1">
<path d="M2331.3 337.21L2252.93 340.6L2174.57 344.496L2017.93 353.12L1861.32 362.882L1783.05 368.167L1704.83 374.007L1783.19 370.617L1861.56 366.721L2018.2 358.096L2174.78 348.31L2253.06 343.025L2331.3 337.21Z" fill="#BEF0ED"/>
</g>
<g style="mix-blend-mode:multiply" opacity="0.1">
<path d="M2338.84 359.291L2260.49 355.226L2182.14 351.666L2025.42 345.38L1868.66 340.207L1790.25 338.038L1711.81 336.399L1790.17 340.465L1868.52 344.025L2025.23 350.31L2182.02 355.458L2260.38 357.628L2338.84 359.291Z" fill="#BEF0ED"/>
</g>
<g style="mix-blend-mode:multiply" opacity="0.1">
<path d="M2346.33 381.372L2268.06 369.875L2189.73 358.86L2032.91 337.639L1875.98 317.556L1797.45 307.907L1718.85 298.79L1797.12 310.287L1875.45 321.302L2032.27 342.523L2189.23 362.58L2267.75 372.229L2346.33 381.372Z" fill="#BEF0ED"/>
</g>
<g style="mix-blend-mode:multiply" opacity="0.1">
<path d="M2353.87 403.455L2275.62 384.502L2197.27 366.056L2040.43 329.925L1883.29 294.908L1804.65 277.78L1725.87 261.158L1804.12 280.111L1882.46 298.556L2039.31 334.688L2196.44 369.705L2275.11 386.808L2353.87 403.455Z" fill="#BEF0ED"/>
</g>
<g style="mix-blend-mode:multiply" opacity="0.1">
<path d="M2361.38 425.512L2283.2 399.154L2204.84 373.278L2047.87 322.236L1890.61 272.259L1811.83 247.677L1732.9 223.551L1811.09 249.909L1889.45 275.835L2046.39 326.852L2203.68 376.803L2282.46 401.386L2361.38 425.512Z" fill="#BEF0ED"/>
</g>
<g style="mix-blend-mode:multiply" opacity="0.1">
<path d="M2368.9 447.617L2290.72 413.803L2212.38 380.472L2055.34 314.57L1897.87 249.659L1819.01 217.572L1739.94 185.941L1818.09 219.73L1896.46 253.087L2053.48 319.014L2210.97 383.899L2289.83 415.987L2368.9 447.617Z" fill="#BEF0ED"/>
</g>
<g style="mix-blend-mode:multiply" opacity="0.1">
<path d="M2376.41 469.674L2298.28 428.48L2219.89 387.693L2062.78 306.881L1905.16 227.036L1826.16 187.443L1746.93 148.334L1825.09 189.553L1903.47 230.289L2060.59 311.151L2218.23 390.972L2297.21 430.539L2376.41 469.674Z" fill="#BEF0ED"/>
</g>
<g style="mix-blend-mode:multiply" opacity="0.1">
<path d="M2383.95 491.757L2305.81 443.133L2227.39 394.941L2070.19 299.219L1912.41 204.414L1833.34 157.342L1753.97 110.728L1832.11 159.352L1910.54 207.543L2067.73 303.265L2225.52 398.07L2304.61 445.117L2383.95 491.757Z" fill="#BEF0ED"/>
</g>
<g style="mix-blend-mode:multiply" opacity="0.1">
<path d="M2391.49 513.837L2313.31 457.808L2234.88 402.186L2077.58 291.529L1919.64 181.789L1840.46 127.237L1760.98 73.0928L1839.14 129.147L1917.57 184.769L2074.89 295.4L2232.83 405.141L2312.01 459.692L2391.49 513.837Z" fill="#BEF0ED"/>
</g>
<g style="mix-blend-mode:multiply" opacity="0.1">
<path d="M2398.98 535.92L2320.84 472.461L2242.37 409.384L2084.95 283.868L1926.88 159.167L1847.59 97.1356L1768.02 35.4863L1846.16 98.9457L1924.63 162.022L2082.05 287.539L2240.14 412.214L2319.41 474.271L2398.98 535.92Z" fill="#BEF0ED"/>
</g>
<g style="mix-blend-mode:multiply" opacity="0.1">
<path d="M2406.52 558.001L2328.34 487.137L2249.81 416.631L2092.32 276.204L1934.1 136.569L1854.72 67.0324L1775.06 -2.12207L1853.21 68.7675L1931.72 139.249L2089.21 279.676L2247.45 419.285L2326.84 488.822L2406.52 558.001Z" fill="#BEF0ED"/>
</g>
<g style="mix-blend-mode:multiply" opacity="0.1">
<path d="M2414.01 580.082L2335.82 501.788L2257.27 423.851L2099.66 268.515L1941.29 113.945L1861.84 36.9282L1782.04 -39.7308L1860.26 38.5378L1938.81 116.474L2096.42 271.811L2254.79 426.381L2334.24 503.397L2414.01 580.082Z" fill="#BEF0ED"/>
</g>
</g>
<path opacity="0.9" d="M2247.39 114.771L2168.77 193.099L2090.59 271.801L1934.74 429.781L1779.8 588.635L1702.63 668.387L1625.87 748.489L1704.46 670.187L1782.7 591.484L1938.52 433.479L2093.47 274.625L2170.61 194.898L2247.39 114.771Z" fill="#BEF0ED"/>
<path opacity="0.9" d="M2254.94 136.853L2176.3 207.65L2098.05 278.872L1942.14 421.941L1787.01 565.886L1709.75 638.184L1632.91 710.882L1711.51 640.06L1789.79 568.863L1945.71 425.794L2100.78 281.849L2178.04 209.551L2254.94 136.853Z" fill="#BEF0ED"/>
<path opacity="0.9" d="M2262.43 158.934L2183.83 222.25L2105.54 285.966L1949.52 414.1L1794.27 543.136L1716.93 607.979L1639.92 673.248L1718.54 609.958L1796.83 546.241L1952.84 418.107L2108.09 289.072L2185.44 224.229L2262.43 158.934Z" fill="#BEF0ED"/>
<path opacity="0.9" d="M2269.96 181.015L2191.33 236.825L2113.03 293.061L1956.94 406.234L1801.54 520.385L1724.08 577.799L1646.96 635.64L1725.56 579.856L1803.86 523.62L1959.98 410.421L2115.38 296.27L2192.84 238.856L2269.96 181.015Z" fill="#BEF0ED"/>
<path opacity="0.9" d="M2277.48 203.071L2198.88 251.4L2120.57 300.155L1964.33 398.393L1808.8 497.635L1731.23 547.62L1653.97 598.057L1732.59 549.753L1810.9 500.998L1967.12 402.735L2122.64 303.493L2200.21 253.508L2277.48 203.071Z" fill="#BEF0ED"/>
<path opacity="0.9" d="M2284.99 225.179L2206.41 266.001L2128.06 307.25L1971.79 390.527L1816.07 474.885L1738.41 517.416L1660.98 560.424L1739.59 519.627L1817.91 478.352L1974.21 395.05L2129.91 310.717L2207.59 268.161L2284.99 225.179Z" fill="#BEF0ED"/>
<path opacity="0.9" d="M2292.53 247.26L2213.96 280.576L2135.6 314.344L1979.26 382.711L1823.35 452.109L1745.58 487.211L1668.02 522.815L1746.59 489.5L1824.93 455.706L1981.29 387.364L2137.17 317.941L2214.94 282.839L2292.53 247.26Z" fill="#BEF0ED"/>
<path opacity="0.9" d="M2300.05 269.316L2221.52 295.151L2143.16 321.463L1986.72 374.844L1830.64 429.384L1752.76 457.056L1675.06 485.207L1753.56 459.398L1831.91 433.085L1988.35 379.654L2144.43 325.114L2222.32 297.492L2300.05 269.316Z" fill="#BEF0ED"/>
<path opacity="0.9" d="M2307.56 291.424L2229.09 309.752L2150.73 328.584L1994.21 367.055L1837.98 406.66L1759.96 426.878L1682.07 447.575L1760.54 429.247L1838.9 410.415L1995.42 371.945L2151.65 332.34L2229.67 312.121L2307.56 291.424Z" fill="#BEF0ED"/>
<path opacity="0.9" d="M2315.08 313.481L2236.65 324.328L2158.3 335.704L2001.71 359.264L1845.3 383.96L1767.16 396.699L1689.08 409.993L1767.54 399.121L1845.89 387.745L2002.46 364.21L2158.86 339.514L2237.02 326.75L2315.08 313.481Z" fill="#BEF0ED"/>
<path opacity="0.9" d="M2322.62 335.561L2244.23 338.977L2165.89 342.847L2009.22 351.497L1852.61 361.258L1774.34 366.543L1696.09 372.358L1774.49 368.993L1852.82 365.072L2009.52 356.447L2166.1 346.661L2244.37 341.376L2322.62 335.561Z" fill="#BEF0ED"/>
<path opacity="0.9" d="M2330.13 357.618L2251.8 353.577L2173.45 350.018L2016.74 343.732L1859.96 338.584L1781.54 336.415L1703.13 334.751L1781.44 338.817L1859.81 342.351L2016.55 348.662L2173.28 353.81L2251.7 355.98L2330.13 357.618Z" fill="#BEF0ED"/>
<path opacity="0.9" d="M2337.65 379.723L2259.36 368.202L2181.05 357.211L2024.23 335.99L1867.29 315.908L1788.77 306.259L1710.17 297.142L1788.43 308.638L1866.77 319.654L2023.56 340.85L2180.52 360.957L2259.07 370.581L2337.65 379.723Z" fill="#BEF0ED"/>
<path opacity="0.9" d="M2345.16 401.782L2266.94 382.855L2188.59 364.409L2031.72 328.303L1874.61 293.26L1795.95 276.158L1717.18 259.511L1795.41 278.489L1873.76 296.934L2030.62 333.041L2187.76 368.057L2266.4 385.186L2345.16 401.782Z" fill="#BEF0ED"/>
<path opacity="0.9" d="M2352.68 423.89L2274.52 397.506L2196.16 371.63L2039.19 320.589L1881.9 270.637L1803.15 246.029L1724.22 221.903L1802.38 248.287L1880.74 274.163L2037.71 325.204L2195 375.156L2273.75 399.764L2352.68 423.89Z" fill="#BEF0ED"/>
<path opacity="0.9" d="M2360.22 445.969L2282.04 412.155L2203.67 378.849L2046.65 312.923L1889.19 248.011L1810.3 215.899L1731.21 184.294L1809.41 218.082L1887.75 251.414L2044.8 317.366L2202.26 382.226L2281.15 414.339L2360.22 445.969Z" fill="#BEF0ED"/>
<path opacity="0.9" d="M2367.73 468.025L2289.6 426.831L2211.19 386.07L2054.1 305.233L1896.46 225.362L1817.48 185.795L1738.25 146.686L1816.41 187.905L1894.77 228.666L2051.91 309.503L2209.52 389.349L2288.53 428.89L2367.73 468.025Z" fill="#BEF0ED"/>
<path opacity="0.9" d="M2375.27 490.107L2297.12 441.483L2218.7 393.292L2061.49 297.545L1903.72 202.764L1824.63 155.718L1745.29 109.078L1823.41 157.677L1901.8 205.894L2059.04 301.616L2216.81 396.396L2295.93 443.468L2375.27 490.107Z" fill="#BEF0ED"/>
<path opacity="0.9" d="M2382.76 512.19L2304.63 456.16L2226.19 400.539L2068.9 289.882L1910.96 180.141L1831.78 125.59L1752.3 71.4453L1830.46 127.5L1908.86 183.147L2066.18 293.778L2224.1 403.494L2303.3 458.02L2382.76 512.19Z" fill="#BEF0ED"/>
<path opacity="0.9" d="M2390.3 534.272L2312.13 470.838L2233.66 407.761L2076.27 282.219L1918.18 157.544L1838.91 95.4872L1759.33 33.8379L1837.48 97.2973L1915.95 160.374L2073.37 285.89L2231.43 410.591L2310.7 472.598L2390.3 534.272Z" fill="#BEF0ED"/>
<path opacity="0.9" d="M2397.81 556.326L2319.66 485.487L2241.12 414.981L2083.63 274.554L1925.42 134.919L1846.03 65.3824L1766.32 -3.77148L1844.5 67.0925L1923.04 137.599L2080.53 278.026L2238.77 417.635L2318.13 487.197L2397.81 556.326Z" fill="#BEF0ED"/>
<path opacity="0.9" d="M2405.33 578.434L2327.14 500.14L2248.59 422.204L2090.97 266.867L1932.61 112.297L1853.16 35.2807L1773.36 -41.3783L1851.58 36.8903L1930.1 114.852L2087.74 270.163L2246.11 424.733L2325.56 501.75L2405.33 578.434Z" fill="#BEF0ED"/>
</g>
</g>
<g opacity="0.7" clip-path="url(#clip4_1206_3780)">
<g opacity="0.9">
<g style="mix-blend-mode:multiply" opacity="0.1">
<g style="mix-blend-mode:multiply" opacity="0.1">
<path d="M-356.102 116.443L-277.506 194.745L-199.267 273.448L-43.4522 431.452L111.522 590.282L188.666 670.009L265.426 750.161L186.805 671.833L108.617 593.131L-47.1982 435.126L-202.147 276.272L-279.341 196.545L-356.102 116.443Z" fill="#BEF0ED"/>
</g>
<g style="mix-blend-mode:multiply" opacity="0.1">
<path d="M-363.618 138.501L-285.01 209.322L-206.759 280.544L-50.8177 423.589L104.257 567.533L181.513 639.831L258.412 712.529L179.778 641.733L101.527 570.511L-54.3883 427.441L-209.463 283.497L-286.719 211.199L-363.618 138.501Z" fill="#BEF0ED"/>
</g>
<g style="mix-blend-mode:multiply" opacity="0.1">
<path d="M-371.156 160.58L-292.51 223.896L-214.221 287.612L-58.2049 415.746L97.0453 544.782L174.39 609.625L251.376 674.919L172.755 611.629L94.492 547.887L-61.524 419.753L-216.774 290.718L-294.144 225.849L-371.156 160.58Z" fill="#BEF0ED"/>
</g>
<g style="mix-blend-mode:multiply" opacity="0.1">
<path d="M-378.647 182.664L-300.014 238.474L-221.738 294.734L-65.621 407.882L89.7796 522.034L167.237 579.448L244.362 637.288L165.754 581.504L87.4276 525.243L-68.6637 412.07L-224.064 297.918L-301.522 240.504L-378.647 182.664Z" fill="#BEF0ED"/>
</g>
<g style="mix-blend-mode:multiply" opacity="0.1">
<path d="M-386.186 204.744L-307.565 253.047L-229.251 301.802L-73.0597 400.04L82.5169 499.282L160.087 549.267L237.351 599.704L158.73 551.401L80.3912 502.62L-75.8004 404.382L-231.352 305.166L-308.897 255.156L-386.186 204.744Z" fill="#BEF0ED"/>
</g>
<g style="mix-blend-mode:multiply" opacity="0.1">
<path d="M-393.701 226.801L-315.118 267.623L-236.767 308.922L-80.4749 392.175L75.2521 476.533L152.91 519.063L230.337 562.071L151.729 521.274L73.3779 480.025L-82.8885 396.697L-238.641 312.364L-316.299 269.834L-393.701 226.801Z" fill="#BEF0ED"/>
</g>
<g style="mix-blend-mode:multiply" opacity="0.1">
<path d="M-401.215 248.907L-322.67 282.198L-244.307 316.017L-87.9399 384.358L67.938 453.782L145.735 488.858L223.3 524.463L144.73 491.147L66.3661 457.378L-89.9755 389.012L-245.878 319.563L-323.65 284.461L-401.215 248.907Z" fill="#BEF0ED"/>
</g>
<g style="mix-blend-mode:multiply" opacity="0.1">
<path d="M-408.73 270.963L-330.198 296.798L-251.847 323.111L-95.4305 376.517L60.6484 431.056L138.558 458.704L216.262 486.854L137.755 461.045L59.3793 434.707L-97.0631 381.326L-253.116 326.761L-331.026 299.114L-408.73 270.963Z" fill="#BEF0ED"/>
</g>
<g style="mix-blend-mode:multiply" opacity="0.1">
<path d="M-416.271 293.046L-337.777 311.399L-259.414 330.232L-102.897 368.702L53.3331 408.307L131.356 428.526L209.249 449.223L130.755 430.92L52.4169 412.063L-104.1 373.592L-260.355 333.962L-338.353 313.769L-416.271 293.046Z" fill="#BEF0ED"/>
</g>
<g style="mix-blend-mode:multiply" opacity="0.1">
<path d="M-423.761 315.129L-345.356 326L-266.98 337.352L-110.388 360.912L46.0175 385.608L124.154 398.347L202.21 411.615L123.78 400.769L45.4297 389.392L-111.137 365.857L-267.568 341.136L-345.704 328.397L-423.761 315.129Z" fill="#BEF0ED"/>
</g>
<g style="mix-blend-mode:multiply" opacity="0.1">
<path d="M-431.3 337.21L-352.934 340.6L-274.572 344.496L-117.93 353.12L38.6774 362.882L116.952 368.167L195.172 374.007L116.805 370.617L38.4429 366.721L-118.199 358.096L-274.781 348.31L-353.055 343.025L-431.3 337.21Z" fill="#BEF0ED"/>
</g>
<g style="mix-blend-mode:multiply" opacity="0.1">
<path d="M-438.84 359.291L-360.486 355.226L-282.137 351.666L-125.42 345.38L31.3375 340.207L109.751 338.038L188.185 336.399L109.832 340.465L31.4823 344.025L-125.234 350.31L-282.017 355.458L-360.38 357.628L-438.84 359.291Z" fill="#BEF0ED"/>
</g>
<g style="mix-blend-mode:multiply" opacity="0.1">
<path d="M-446.327 381.372L-368.063 369.875L-289.727 358.86L-132.91 337.639L24.024 317.556L102.551 307.907L181.149 298.79L102.885 310.287L24.5485 321.302L-132.269 342.523L-289.227 362.58L-367.754 372.229L-446.327 381.372Z" fill="#BEF0ED"/>
</g>
<g style="mix-blend-mode:multiply" opacity="0.1">
<path d="M-453.87 403.455L-375.618 384.502L-297.27 366.056L-140.429 329.925L16.7064 294.908L95.3466 277.78L174.134 261.158L95.883 280.111L17.5349 298.556L-139.306 334.688L-296.442 369.705L-375.107 386.808L-453.87 403.455Z" fill="#BEF0ED"/>
</g>
<g style="mix-blend-mode:multiply" opacity="0.1">
<path d="M-461.385 425.512L-383.198 399.154L-304.838 373.278L-147.871 322.236L9.38985 272.259L88.1686 247.677L167.095 223.551L88.908 249.909L10.5476 275.835L-146.394 326.852L-303.68 376.803L-382.459 401.386L-461.385 425.512Z" fill="#BEF0ED"/>
</g>
<g style="mix-blend-mode:multiply" opacity="0.1">
<path d="M-468.899 447.617L-390.725 413.803L-312.378 380.472L-155.337 314.57L2.12596 249.659L80.9931 217.572L160.059 185.941L81.91 219.73L3.53768 253.087L-153.478 319.014L-310.966 383.899L-389.833 415.987L-468.899 447.617Z" fill="#BEF0ED"/>
</g>
<g style="mix-blend-mode:multiply" opacity="0.1">
<path d="M-476.413 469.674L-398.278 428.48L-319.893 387.693L-162.777 306.881L-5.16375 227.036L73.8423 187.443L153.072 148.334L74.9113 189.553L-3.4726 230.289L-160.589 311.151L-318.227 390.972L-397.208 430.539L-476.413 469.674Z" fill="#BEF0ED"/>
</g>
<g style="mix-blend-mode:multiply" opacity="0.1">
<path d="M-483.954 491.757L-405.807 443.133L-327.386 394.941L-170.195 299.219L-12.4052 204.414L66.6638 157.342L146.032 110.728L67.8853 159.352L-10.536 207.543L-167.727 303.265L-325.517 398.07L-404.611 445.117L-483.954 491.757Z" fill="#BEF0ED"/>
</g>
<g style="mix-blend-mode:multiply" opacity="0.1">
<path d="M-491.493 513.837L-413.309 457.808L-334.875 402.186L-177.584 291.529L-19.6437 181.789L59.5387 127.237L139.021 73.0928L60.8621 129.147L-17.5711 184.769L-174.887 295.4L-332.828 405.141L-412.01 459.692L-491.493 513.837Z" fill="#BEF0ED"/>
</g>
<g style="mix-blend-mode:multiply" opacity="0.1">
<path d="M-498.983 535.92L-420.837 472.461L-342.367 409.384L-184.95 283.868L-26.8841 159.167L52.4118 97.1356L131.982 35.4863L53.8371 98.9457L-24.6336 162.022L-182.05 287.539L-340.141 412.214L-419.412 474.271L-498.983 535.92Z" fill="#BEF0ED"/>
</g>
<g style="mix-blend-mode:multiply" opacity="0.1">
<path d="M-506.524 558.001L-428.342 487.137L-349.809 416.631L-192.318 276.204L-34.1004 136.569L45.2838 67.0324L124.943 -2.12207L46.7856 68.7675L-31.7221 139.249L-189.213 279.676L-347.455 419.285L-426.84 488.822L-506.524 558.001Z" fill="#BEF0ED"/>
</g>
<g style="mix-blend-mode:multiply" opacity="0.1">
<path d="M-514.012 580.082L-435.817 501.788L-357.272 423.851L-199.656 268.515L-41.2877 113.945L38.1594 36.9282L117.957 -39.7308L39.738 38.5378L-38.8071 116.474L-196.423 271.811L-354.792 426.381L-434.239 503.397L-514.012 580.082Z" fill="#BEF0ED"/>
</g>
</g>
<path opacity="0.9" d="M-347.395 114.771L-268.774 193.099L-190.586 271.801L-34.7452 429.781L120.204 588.635L197.372 668.387L274.133 748.489L195.537 670.187L117.299 591.484L-38.5166 433.479L-193.466 274.625L-270.609 194.898L-347.395 114.771Z" fill="#BEF0ED"/>
<path opacity="0.9" d="M-354.936 136.853L-276.302 207.65L-198.051 278.872L-42.1356 421.941L112.989 565.886L190.246 638.184L267.094 710.882L188.486 640.06L110.209 568.863L-45.7062 425.794L-200.78 281.849L-278.037 209.551L-354.936 136.853Z" fill="#BEF0ED"/>
<path opacity="0.9" d="M-362.425 158.934L-283.83 222.25L-205.541 285.966L-49.5247 414.1L105.725 543.136L183.07 607.979L260.082 673.248L181.461 609.958L103.172 546.241L-52.8439 418.107L-208.094 289.072L-285.438 224.229L-362.425 158.934Z" fill="#BEF0ED"/>
<path opacity="0.9" d="M-369.965 181.015L-291.331 236.825L-213.03 293.061L-56.9389 406.234L98.4618 520.385L175.919 577.799L253.044 635.64L174.436 579.856L96.1347 523.62L-59.9816 410.421L-215.382 296.27L-292.84 238.856L-369.965 181.015Z" fill="#BEF0ED"/>
<path opacity="0.9" d="M-377.477 203.071L-298.882 251.4L-220.569 300.155L-64.3266 398.393L91.1995 497.635L168.77 547.62L246.033 598.057L167.412 549.753L89.0988 500.998L-67.1178 402.735L-222.644 303.493L-300.214 253.508L-377.477 203.071Z" fill="#BEF0ED"/>
<path opacity="0.9" d="M-384.993 225.179L-306.411 266.001L-228.059 307.25L-71.7922 390.527L83.9348 474.885L161.593 517.416L239.02 560.424L160.412 519.627L82.086 478.352L-74.2059 395.05L-229.908 310.717L-307.591 268.161L-384.993 225.179Z" fill="#BEF0ED"/>
<path opacity="0.9" d="M-392.533 247.26L-313.963 280.576L-235.6 314.344L-79.2578 382.711L76.6456 452.109L154.417 487.211L231.982 522.815L153.412 489.5L75.0737 455.706L-81.2934 387.364L-237.171 317.941L-314.943 282.839L-392.533 247.26Z" fill="#BEF0ED"/>
<path opacity="0.9" d="M-400.048 269.316L-321.516 295.151L-243.165 321.463L-86.7228 374.844L69.356 429.384L147.24 457.056L224.944 485.207L146.437 459.398L68.0865 433.085L-88.3554 379.654L-244.434 325.114L-322.319 297.492L-400.048 269.316Z" fill="#BEF0ED"/>
<path opacity="0.9" d="M-407.563 291.424L-329.094 309.752L-250.731 328.584L-94.214 367.055L62.0158 406.66L140.039 426.878L217.931 447.575L139.463 429.247L61.0996 410.415L-95.4176 371.945L-251.647 332.34L-329.67 312.121L-407.563 291.424Z" fill="#BEF0ED"/>
<path opacity="0.9" d="M-415.078 313.481L-336.648 324.328L-258.298 335.704L-101.706 359.264L54.7 383.96L132.836 396.699L210.917 409.993L132.462 399.121L54.1122 387.745L-102.455 364.21L-258.861 339.514L-337.022 326.75L-415.078 313.481Z" fill="#BEF0ED"/>
<path opacity="0.9" d="M-422.616 335.561L-344.225 338.977L-265.887 342.847L-109.22 351.497L47.3867 361.258L125.662 366.543L203.907 372.358L125.515 368.993L47.1778 365.072L-109.515 356.447L-266.096 346.661L-344.371 341.376L-422.616 335.561Z" fill="#BEF0ED"/>
<path opacity="0.9" d="M-430.132 357.618L-351.804 353.577L-273.455 350.018L-116.738 343.732L40.0448 338.584L118.458 336.415L196.867 334.751L118.564 338.817L40.19 342.351L-116.552 348.662L-273.285 353.81L-351.698 355.98L-430.132 357.618Z" fill="#BEF0ED"/>
<path opacity="0.9" d="M-437.646 379.723L-359.356 368.202L-281.045 357.211L-124.228 335.99L32.7057 315.908L111.232 306.259L189.831 297.142L111.566 308.638L33.2301 319.654L-123.561 340.85L-280.521 360.957L-359.072 370.581L-437.646 379.723Z" fill="#BEF0ED"/>
<path opacity="0.9" d="M-445.161 401.782L-366.936 382.855L-288.588 364.409L-131.721 328.303L25.389 293.26L104.054 276.158L182.817 259.511L104.591 278.489L26.2427 296.934L-130.624 333.041L-287.759 368.057L-366.399 385.186L-445.161 401.782Z" fill="#BEF0ED"/>
<path opacity="0.9" d="M-452.678 423.89L-374.516 397.506L-296.156 371.63L-139.189 320.589L18.0971 270.637L96.8508 246.029L175.777 221.903L97.6153 248.287L19.2553 274.163L-137.711 325.204L-294.998 375.156L-373.751 399.764L-452.678 423.89Z" fill="#BEF0ED"/>
<path opacity="0.9" d="M-460.216 445.969L-382.042 412.155L-303.67 378.849L-146.654 312.923L10.8089 248.011L89.7015 215.899L168.792 184.294L90.5929 218.082L12.246 251.414L-144.796 317.366L-302.258 382.226L-381.15 414.339L-460.216 445.969Z" fill="#BEF0ED"/>
<path opacity="0.9" d="M-467.73 468.025L-389.595 426.831L-311.186 386.07L-154.095 305.233L3.54385 225.362L82.5244 185.795L161.754 146.686L83.5934 187.905L5.23455 228.666L-151.907 309.503L-309.52 389.349L-388.526 428.89L-467.73 468.025Z" fill="#BEF0ED"/>
<path opacity="0.9" d="M-475.271 490.107L-397.124 441.483L-318.703 393.292L-161.486 297.545L-3.72207 202.764L75.372 155.718L154.715 109.078L76.5938 157.677L-1.80241 205.894L-159.044 301.616L-316.808 396.396L-395.928 443.468L-475.271 490.107Z" fill="#BEF0ED"/>
<path opacity="0.9" d="M-482.76 512.19L-404.627 456.16L-326.193 400.539L-168.902 289.882L-10.9616 180.141L68.2209 125.59L147.703 71.4453L69.5442 127.5L-8.86397 183.147L-166.18 293.778L-324.095 403.494L-403.303 458.02L-482.76 512.19Z" fill="#BEF0ED"/>
<path opacity="0.9" d="M-490.301 534.272L-412.13 470.838L-333.66 407.761L-176.268 282.219L-18.1769 157.544L61.0939 95.4872L140.665 33.8379L62.5192 97.2973L-15.9515 160.374L-173.368 285.89L-331.434 410.591L-410.705 472.598L-490.301 534.272Z" fill="#BEF0ED"/>
<path opacity="0.9" d="M-497.814 556.326L-419.657 485.487L-341.124 414.981L-183.633 274.554L-25.4156 134.919L53.9687 65.3824L133.678 -3.77148L55.4959 67.0925L-23.0373 137.599L-180.528 278.026L-338.77 417.635L-418.13 487.197L-497.814 556.326Z" fill="#BEF0ED"/>
<path opacity="0.9" d="M-505.329 578.434L-427.135 500.14L-348.59 422.204L-190.974 266.867L-32.6056 112.297L46.8415 35.2807L126.639 -41.3783L48.4201 36.8903L-30.0999 114.852L-187.741 270.163L-346.109 424.733L-425.557 501.75L-505.329 578.434Z" fill="#BEF0ED"/>
</g>
</g>
<g filter="url(#filter0_di_1206_3780)">
<path fill-rule="evenodd" clip-rule="evenodd" d="M1013.14 295.268V301.302C1013.14 305.612 1009.7 309.06 1005.39 309.06H1004.74C1001.51 309.06 998.489 310.999 997.412 314.231C996.765 316.386 995.903 318.541 994.826 320.696C993.317 323.713 993.964 327.161 996.334 329.532L996.765 329.963C999.782 332.98 999.782 337.936 996.765 340.953L992.455 345.263C989.438 348.28 984.482 348.28 981.465 345.263L981.249 345.048C979.095 342.677 975.431 342.031 972.414 343.539C970.259 344.617 968.104 345.478 965.734 346.34C962.501 347.418 960.562 350.435 960.562 353.667V354.314C960.562 358.624 957.114 362.072 952.804 362.072H946.77C942.46 362.072 939.012 358.624 939.012 354.314V354.098C939.012 350.866 937.073 347.849 933.84 346.771C931.47 345.91 929.099 345.047 926.944 343.97C923.927 342.462 920.479 343.108 918.109 345.478L917.893 345.694C914.877 348.711 909.92 348.711 906.903 345.694L902.593 341.384C899.576 338.367 899.576 333.411 902.593 330.394C904.964 328.239 905.61 324.575 904.102 321.558C903.024 319.403 902.162 317.033 901.3 314.663C900.223 311.43 897.206 309.491 893.973 309.491H893.758C889.448 309.491 886 306.043 886 301.733V295.699C886 291.389 889.448 287.941 893.758 287.941C896.99 287.941 900.007 286.001 901.085 282.769C901.731 280.399 902.809 278.028 903.886 275.873C905.395 272.856 904.748 269.408 902.378 267.038L902.162 266.822C899.145 263.805 899.145 258.849 902.162 255.832L906.472 251.522C909.489 248.505 914.446 248.505 917.462 251.522L917.678 251.737C920.048 254.108 923.496 254.754 926.513 253.246C928.884 252.168 931.039 251.306 933.409 250.444C936.642 249.367 938.581 246.35 938.581 243.118V242.687C938.581 238.377 942.029 234.929 946.339 234.929H952.373C956.683 234.929 960.131 238.377 960.131 242.687V243.118C960.131 246.35 962.07 249.367 965.303 250.444C967.673 251.306 969.828 252.168 971.983 253.246C975 254.754 978.448 254.108 980.818 251.737L981.249 251.307C984.266 248.29 989.223 248.29 992.24 251.307L996.55 255.616C999.567 258.633 999.567 263.59 996.55 266.607L996.119 267.038C993.748 269.408 993.102 272.856 994.61 275.873C995.493 277.463 996.232 279.342 996.944 281.155C997.101 281.554 997.256 281.949 997.412 282.338C998.489 285.57 1001.51 287.51 1004.74 287.51H1005.39C1009.7 287.51 1013.14 290.958 1013.14 295.268ZM988.056 299.3C988.056 320.348 970.993 337.412 949.944 337.412C928.896 337.412 911.832 320.348 911.832 299.3C911.832 278.251 928.896 261.188 949.944 261.188C970.993 261.188 988.056 278.251 988.056 299.3Z" fill="#5ED9D1"/>
<path fill-rule="evenodd" clip-rule="evenodd" d="M1013.14 295.268V301.302C1013.14 305.612 1009.7 309.06 1005.39 309.06H1004.74C1001.51 309.06 998.489 310.999 997.412 314.231C996.765 316.386 995.903 318.541 994.826 320.696C993.317 323.713 993.964 327.161 996.334 329.532L996.765 329.963C999.782 332.98 999.782 337.936 996.765 340.953L992.455 345.263C989.438 348.28 984.482 348.28 981.465 345.263L981.249 345.048C979.095 342.677 975.431 342.031 972.414 343.539C970.259 344.617 968.104 345.478 965.734 346.34C962.501 347.418 960.562 350.435 960.562 353.667V354.314C960.562 358.624 957.114 362.072 952.804 362.072H946.77C942.46 362.072 939.012 358.624 939.012 354.314V354.098C939.012 350.866 937.073 347.849 933.84 346.771C931.47 345.91 929.099 345.047 926.944 343.97C923.927 342.462 920.479 343.108 918.109 345.478L917.893 345.694C914.877 348.711 909.92 348.711 906.903 345.694L902.593 341.384C899.576 338.367 899.576 333.411 902.593 330.394C904.964 328.239 905.61 324.575 904.102 321.558C903.024 319.403 902.162 317.033 901.3 314.663C900.223 311.43 897.206 309.491 893.973 309.491H893.758C889.448 309.491 886 306.043 886 301.733V295.699C886 291.389 889.448 287.941 893.758 287.941C896.99 287.941 900.007 286.001 901.085 282.769C901.731 280.399 902.809 278.028 903.886 275.873C905.395 272.856 904.748 269.408 902.378 267.038L902.162 266.822C899.145 263.805 899.145 258.849 902.162 255.832L906.472 251.522C909.489 248.505 914.446 248.505 917.462 251.522L917.678 251.737C920.048 254.108 923.496 254.754 926.513 253.246C928.884 252.168 931.039 251.306 933.409 250.444C936.642 249.367 938.581 246.35 938.581 243.118V242.687C938.581 238.377 942.029 234.929 946.339 234.929H952.373C956.683 234.929 960.131 238.377 960.131 242.687V243.118C960.131 246.35 962.07 249.367 965.303 250.444C967.673 251.306 969.828 252.168 971.983 253.246C975 254.754 978.448 254.108 980.818 251.737L981.249 251.307C984.266 248.29 989.223 248.29 992.24 251.307L996.55 255.616C999.567 258.633 999.567 263.59 996.55 266.607L996.119 267.038C993.748 269.408 993.102 272.856 994.61 275.873C995.493 277.463 996.232 279.342 996.944 281.155C997.101 281.554 997.256 281.949 997.412 282.338C998.489 285.57 1001.51 287.51 1004.74 287.51H1005.39C1009.7 287.51 1013.14 290.958 1013.14 295.268ZM988.056 299.3C988.056 320.348 970.993 337.412 949.944 337.412C928.896 337.412 911.832 320.348 911.832 299.3C911.832 278.251 928.896 261.188 949.944 261.188C970.993 261.188 988.056 278.251 988.056 299.3Z" stroke="white" stroke-width="2" stroke-miterlimit="10" stroke-linecap="round"/>
</g>
<line x1="588.881" y1="192.999" x2="563.881" y2="164.999" stroke="#BEF0ED" stroke-width="3"/>
<line y1="-1.5" x2="37.5366" y2="-1.5" transform="matrix(0.666016 -0.745938 -0.745938 -0.666016 1309 192)" stroke="#BEF0ED" stroke-width="3"/>
<line y1="-1.5" x2="37.5366" y2="-1.5" transform="matrix(-0.666016 0.745938 0.745938 0.666016 590 408)" stroke="#BEF0ED" stroke-width="3"/>
<line x1="1310.12" y1="407.001" x2="1335.12" y2="435.001" stroke="#BEF0ED" stroke-width="3"/>
<path d="M612.326 384.95H785.915L805.788 408.788H588.596" stroke="#BEF0ED" stroke-width="3" stroke-miterlimit="10" stroke-linecap="round" stroke-linejoin="round"/>
<path d="M608.469 214.68H783.565L805.788 191.596H588.596L608.469 214.68Z" stroke="#BEF0ED" stroke-width="3" stroke-miterlimit="10" stroke-linecap="round" stroke-linejoin="round"/>
<path d="M805.788 191.65H805.733L791.82 205.563L784.896 213.505V384.843L805.788 408.788V191.65Z" stroke="#BEF0ED" stroke-width="3" stroke-miterlimit="10" stroke-linecap="round" stroke-linejoin="round"/>
<path d="M588.596 191.65H588.65L608.523 215.541L610.302 385.25L600.795 395.62L588.596 408.788V191.65Z" stroke="#BEF0ED" stroke-width="3" stroke-miterlimit="10" stroke-linecap="round" stroke-linejoin="round"/>
<path d="M860.374 384.95H1033.96L1053.84 408.788H836.644" stroke="#BEF0ED" stroke-width="3" stroke-miterlimit="10" stroke-linecap="round" stroke-linejoin="round"/>
<path d="M856.517 214.68H1031.61L1053.84 191.596H836.644L856.517 214.68Z" stroke="#BEF0ED" stroke-width="3" stroke-miterlimit="10" stroke-linecap="round" stroke-linejoin="round"/>
<path d="M1053.84 191.65H1053.78L1039.87 205.563L1032.94 213.505V384.843L1053.84 408.788V191.65Z" stroke="#BEF0ED" stroke-width="3" stroke-miterlimit="10" stroke-linecap="round" stroke-linejoin="round"/>
<path d="M836.644 191.65H836.699L856.572 215.541L858.35 385.25L848.843 395.62L836.644 408.788V191.65Z" stroke="#BEF0ED" stroke-width="3" stroke-miterlimit="10" stroke-linecap="round" stroke-linejoin="round"/>
<path d="M1117.5 384.95H1291.09L1310.96 408.788H1093.77" stroke="#BEF0ED" stroke-width="3" stroke-miterlimit="10" stroke-linecap="round" stroke-linejoin="round"/>
<path d="M1113.64 214.68H1288.74L1310.96 191.596H1093.77L1113.64 214.68Z" stroke="#BEF0ED" stroke-width="3" stroke-miterlimit="10" stroke-linecap="round" stroke-linejoin="round"/>
<path d="M1310.96 191.65H1310.91L1297 205.563L1290.07 213.505V384.843L1310.96 408.788V191.65Z" stroke="#BEF0ED" stroke-width="3" stroke-miterlimit="10" stroke-linecap="round" stroke-linejoin="round"/>
<path d="M1093.77 191.65H1093.83L1113.7 215.541L1115.48 385.25L1105.97 395.62L1093.77 408.788V191.65Z" stroke="#BEF0ED" stroke-width="3" stroke-miterlimit="10" stroke-linecap="round" stroke-linejoin="round"/>
<g clip-path="url(#clip5_1206_3780)">
<path d="M1400.65 503.44H1366.62C1366.04 503.44 1365.56 503.006 1365.56 502.482V465.498C1365.56 464.974 1366.04 464.54 1366.62 464.54H1400.65C1401.24 464.54 1401.72 464.974 1401.72 465.498V502.482C1401.72 503.006 1401.24 503.44 1400.65 503.44ZM1367.69 501.525H1399.59V466.455H1367.69V501.525Z" fill="#BEF0ED"/>
<path d="M1400.65 503.439C1400.3 503.439 1399.96 503.286 1399.76 503.005C1399.43 502.559 1399.57 501.971 1400.07 501.678L1407.75 497.171V488.298C1407.75 487.775 1408.24 487.341 1408.82 487.341C1409.4 487.341 1409.88 487.775 1409.88 488.298V497.695C1409.88 498.014 1409.7 498.32 1409.4 498.499L1401.24 503.286C1401.05 503.388 1400.85 503.439 1400.65 503.439Z" fill="#BEF0ED"/>
<path d="M1408.82 480.179C1408.24 480.179 1407.75 479.744 1407.75 479.221V461.667H1390.3C1389.72 461.667 1389.24 461.233 1389.24 460.709C1389.24 460.186 1389.72 459.752 1390.3 459.752H1408.82C1409.4 459.752 1409.88 460.186 1409.88 460.709V479.234C1409.88 479.757 1409.4 480.179 1408.82 480.179Z" fill="#BEF0ED"/>
<path d="M1366.62 466.457C1366.27 466.457 1365.93 466.304 1365.73 466.023C1365.4 465.576 1365.54 464.989 1366.04 464.696L1374.2 459.908C1374.37 459.806 1374.57 459.755 1374.79 459.755H1380.81C1381.39 459.755 1381.87 460.189 1381.87 460.712C1381.87 461.236 1381.39 461.67 1380.81 461.67H1375.1L1367.2 466.304C1367.02 466.406 1366.82 466.457 1366.62 466.457Z" fill="#BEF0ED"/>
<path d="M1400.65 466.455C1400.31 466.455 1399.97 466.301 1399.76 466.021C1399.43 465.574 1399.57 464.986 1400.07 464.693L1408.28 459.88C1408.77 459.586 1409.43 459.714 1409.75 460.161C1410.08 460.607 1409.94 461.195 1409.44 461.488L1401.24 466.301C1401.05 466.404 1400.85 466.455 1400.65 466.455Z" fill="#BEF0ED"/>
<path d="M1361.1 485.501C1362.03 485.501 1362.79 484.821 1362.79 483.982C1362.79 483.143 1362.03 482.463 1361.1 482.463C1360.17 482.463 1359.41 483.143 1359.41 483.982C1359.41 484.821 1360.17 485.501 1361.1 485.501Z" fill="#BEF0ED"/>
<path d="M1357.13 484.331C1357.34 483.515 1356.78 482.696 1355.87 482.503C1354.96 482.311 1354.05 482.816 1353.84 483.633C1353.62 484.449 1354.19 485.268 1355.09 485.46C1356 485.653 1356.91 485.148 1357.13 484.331Z" fill="#BEF0ED"/>
<path d="M1418.66 485.501C1419.59 485.501 1420.35 484.821 1420.35 483.982C1420.35 483.143 1419.59 482.463 1418.66 482.463C1417.73 482.463 1416.97 483.143 1416.97 483.982C1416.97 484.821 1417.73 485.501 1418.66 485.501Z" fill="#BEF0ED"/>
<path d="M1414.24 485.055C1414.9 484.461 1414.9 483.5 1414.24 482.906C1413.58 482.313 1412.51 482.313 1411.85 482.906C1411.19 483.5 1411.19 484.461 1411.85 485.055C1412.51 485.648 1413.58 485.648 1414.24 485.055Z" fill="#BEF0ED"/>
<path d="M1407.43 485.501C1408.36 485.501 1409.12 484.821 1409.12 483.982C1409.12 483.143 1408.36 482.463 1407.43 482.463C1406.49 482.463 1405.74 483.143 1405.74 483.982C1405.74 484.821 1406.49 485.501 1407.43 485.501Z" fill="#BEF0ED"/>
<path d="M1385.7 452.87C1386.64 452.87 1387.39 452.19 1387.39 451.351C1387.39 450.512 1386.64 449.832 1385.7 449.832C1384.77 449.832 1384.01 450.512 1384.01 451.351C1384.01 452.19 1384.77 452.87 1385.7 452.87Z" fill="#BEF0ED"/>
<path d="M1387.35 456.747C1387.56 455.931 1387 455.112 1386.09 454.919C1385.18 454.727 1384.27 455.232 1384.06 456.049C1383.84 456.865 1384.41 457.684 1385.31 457.876C1386.22 458.069 1387.13 457.564 1387.35 456.747Z" fill="#BEF0ED"/>
<path d="M1385.7 462.969C1386.64 462.969 1387.39 462.289 1387.39 461.45C1387.39 460.611 1386.64 459.931 1385.7 459.931C1384.77 459.931 1384.01 460.611 1384.01 461.45C1384.01 462.289 1384.77 462.969 1385.7 462.969Z" fill="#BEF0ED"/>
<path d="M1385.7 507.895C1386.64 507.895 1387.39 507.215 1387.39 506.376C1387.39 505.537 1386.64 504.856 1385.7 504.856C1384.77 504.856 1384.01 505.537 1384.01 506.376C1384.01 507.215 1384.77 507.895 1385.7 507.895Z" fill="#BEF0ED"/>
<path d="M1387.34 511.775C1387.56 510.959 1387 510.141 1386.09 509.948C1385.18 509.755 1384.27 510.261 1384.05 511.077C1383.84 511.894 1384.4 512.712 1385.31 512.905C1386.22 513.098 1387.13 512.592 1387.34 511.775Z" fill="#BEF0ED"/>
<path d="M1384.55 494.605C1383.83 494.605 1383.11 494.426 1382.45 494.068L1375.91 490.417C1374.73 489.753 1374.02 488.617 1374.02 487.379V479.744C1374.02 478.493 1374.73 477.357 1375.91 476.706L1382.45 473.055C1383.74 472.327 1385.35 472.327 1386.66 473.055L1393.2 476.706C1394.38 477.37 1395.09 478.506 1395.09 479.744V487.379C1395.09 488.63 1394.38 489.766 1393.2 490.417L1386.66 494.068C1386 494.426 1385.28 494.605 1384.55 494.605ZM1384.55 474.267C1384.19 474.267 1383.82 474.357 1383.49 474.548L1376.94 478.187C1376.35 478.519 1375.99 479.093 1375.99 479.731V487.366C1375.99 488.004 1376.35 488.579 1376.94 488.911L1383.49 492.562C1384.14 492.932 1384.97 492.932 1385.62 492.562L1392.16 488.911C1392.76 488.579 1393.12 488.004 1393.12 487.366V479.731C1393.12 479.093 1392.76 478.519 1392.16 478.187L1385.62 474.535C1385.29 474.357 1384.92 474.267 1384.55 474.267Z" fill="#BEF0ED"/>
<path d="M1384.55 488.439C1381.54 488.439 1379.1 486.243 1379.1 483.536C1379.1 480.83 1381.54 478.634 1384.55 478.634C1387.56 478.634 1390.01 480.83 1390.01 483.536C1390.01 486.243 1387.56 488.439 1384.55 488.439ZM1384.55 480.396C1382.62 480.396 1381.06 481.8 1381.06 483.536C1381.06 485.272 1382.62 486.677 1384.55 486.677C1386.49 486.677 1388.05 485.272 1388.05 483.536C1388.05 481.8 1386.49 480.396 1384.55 480.396Z" fill="#BEF0ED"/>
</g>
<rect x="1333.5" y="427.237" width="111.737" height="111.737" rx="14.5" stroke="#BEF0ED" stroke-width="3"/>
<g clip-path="url(#clip6_1206_3780)">
<path d="M1386.81 126.986C1386.65 126.986 1386.52 126.958 1386.38 126.89L1368.85 118.951C1368.47 118.786 1368.24 118.416 1368.24 118.004C1368.24 117.605 1368.49 117.234 1368.85 117.07L1374.45 114.584C1374.97 114.35 1375.58 114.584 1375.82 115.106C1376.05 115.628 1375.82 116.232 1375.29 116.465L1371.78 118.017L1386.79 124.802L1401.83 118.004L1398.61 116.548C1398.09 116.314 1397.87 115.696 1398.1 115.188C1398.34 114.666 1398.96 114.446 1399.47 114.68L1404.77 117.07C1405.14 117.234 1405.38 117.605 1405.38 118.004C1405.38 118.402 1405.14 118.773 1404.77 118.938L1387.24 126.903C1387.1 126.958 1386.96 126.986 1386.81 126.986Z" fill="#BEF0ED"/>
<path d="M1386.81 147.642C1386.65 147.642 1386.52 147.615 1386.38 147.546L1368.85 139.621C1368.47 139.457 1368.24 139.086 1368.24 138.688V118.031C1368.24 117.468 1368.71 117.001 1369.28 117.001C1369.84 117.001 1370.32 117.468 1370.32 118.031V138.028L1386.81 145.486L1403.3 138.028V118.031C1403.3 117.468 1403.77 117.001 1404.34 117.001C1404.91 117.001 1405.38 117.468 1405.38 118.031V138.688C1405.38 139.086 1405.14 139.457 1404.77 139.621L1387.24 147.56C1387.1 147.615 1386.96 147.642 1386.81 147.642Z" fill="#BEF0ED"/>
<path d="M1386.81 147.642C1386.24 147.642 1385.77 147.175 1385.77 146.612V125.956C1385.77 125.393 1386.24 124.926 1386.81 124.926C1387.38 124.926 1387.85 125.393 1387.85 125.956V146.612C1387.85 147.189 1387.38 147.642 1386.81 147.642Z" fill="#BEF0ED"/>
<path d="M1386.81 110.971C1386.03 110.971 1385.27 110.765 1384.58 110.34L1377.63 106.082C1376.39 105.313 1375.64 103.981 1375.64 102.525V93.5975C1375.64 92.1417 1376.39 90.8094 1377.63 90.0403L1384.58 85.7826C1385.95 84.9448 1387.65 84.9448 1389.02 85.7826L1395.97 90.0403C1397.21 90.8094 1397.96 92.1417 1397.96 93.5975V102.525C1397.96 103.981 1397.21 105.313 1395.97 106.082L1389.02 110.34C1388.35 110.765 1387.57 110.971 1386.81 110.971ZM1386.81 87.1973C1386.42 87.1973 1386.03 87.3072 1385.67 87.5132L1378.73 91.7708C1378.09 92.1554 1377.72 92.8421 1377.72 93.5838V102.511C1377.72 103.253 1378.09 103.926 1378.73 104.324L1385.67 108.582C1386.36 109.007 1387.24 109.007 1387.93 108.582L1394.87 104.324C1395.51 103.939 1395.88 103.253 1395.88 102.511V93.5838C1395.88 92.8421 1395.51 92.1691 1394.87 91.7708L1387.93 87.5132C1387.58 87.3072 1387.2 87.1973 1386.81 87.1973Z" fill="#BEF0ED"/>
<path d="M1386.81 103.775C1383.62 103.775 1381.01 101.207 1381.01 98.0339C1381.01 94.875 1383.61 92.293 1386.81 92.293C1389.99 92.293 1392.6 94.8613 1392.6 98.0339C1392.6 101.193 1389.99 103.775 1386.81 103.775ZM1386.81 94.3531C1384.76 94.3531 1383.09 96.0012 1383.09 98.0339C1383.09 100.067 1384.76 101.715 1386.81 101.715C1388.86 101.715 1390.52 100.067 1390.52 98.0339C1390.52 96.0012 1388.86 94.3531 1386.81 94.3531Z" fill="#BEF0ED"/>
<path d="M1376.87 119.061C1376.54 119.061 1376.22 118.91 1376.03 118.621L1359.56 95.4651C1359.23 94.9982 1359.34 94.3526 1359.81 94.023C1360.28 93.6934 1360.93 93.8033 1361.27 94.2702L1377.72 117.426C1378.05 117.893 1377.94 118.539 1377.47 118.868C1377.29 118.992 1377.08 119.061 1376.87 119.061Z" fill="#BEF0ED"/>
<path d="M1357.87 92.3344C1357.54 92.3344 1357.22 92.1834 1357.03 91.8949L1355.78 90.1507C1355.45 89.6837 1355.56 89.0382 1356.03 88.7086C1356.5 88.3789 1357.15 88.4888 1357.48 88.9558L1358.72 90.7C1359.05 91.167 1358.94 91.8125 1358.47 92.1422C1358.29 92.2658 1358.08 92.3344 1357.87 92.3344Z" fill="#BEF0ED"/>
<path d="M1416.16 92.0185C1415.95 92.0185 1415.74 91.9636 1415.56 91.8263C1415.09 91.4966 1414.98 90.8511 1415.31 90.3842L1416.32 88.9558C1416.66 88.4888 1417.31 88.3789 1417.78 88.7086C1418.25 89.0382 1418.36 89.6837 1418.03 90.1507L1417.02 91.579C1416.8 91.8675 1416.48 92.0185 1416.16 92.0185Z" fill="#BEF0ED"/>
<path d="M1396.92 119.061C1396.72 119.061 1396.51 119.006 1396.33 118.869C1395.86 118.539 1395.75 117.894 1396.08 117.427L1412 95.0261C1412.33 94.5591 1412.98 94.4492 1413.46 94.7789C1413.93 95.1085 1414.04 95.754 1413.71 96.221L1397.78 118.622C1397.57 118.91 1397.26 119.061 1396.92 119.061Z" fill="#BEF0ED"/>
<path d="M1359.01 111.727C1358.44 111.727 1357.97 111.26 1357.97 110.697V110.353C1357.97 109.79 1358.44 109.323 1359.01 109.323C1359.58 109.323 1360.05 109.79 1360.05 110.353V110.697C1360.05 111.274 1359.59 111.727 1359.01 111.727Z" fill="#BEF0ED"/>
<path d="M1359.01 117.385C1358.44 117.385 1357.97 116.918 1357.97 116.355V116.012C1357.97 115.448 1358.44 114.981 1359.01 114.981C1359.58 114.981 1360.05 115.448 1360.05 116.012V116.355C1360.05 116.918 1359.59 117.385 1359.01 117.385Z" fill="#BEF0ED"/>
<path d="M1356.33 114.378H1355.99C1355.42 114.378 1354.95 113.911 1354.95 113.347C1354.95 112.784 1355.42 112.317 1355.99 112.317H1356.33C1356.9 112.317 1357.37 112.784 1357.37 113.347C1357.37 113.924 1356.9 114.378 1356.33 114.378Z" fill="#BEF0ED"/>
<path d="M1362.03 114.378H1361.68C1361.11 114.378 1360.64 113.911 1360.64 113.347C1360.64 112.784 1361.11 112.317 1361.68 112.317H1362.03C1362.6 112.317 1363.07 112.784 1363.07 113.347C1363.07 113.924 1362.61 114.378 1362.03 114.378Z" fill="#BEF0ED"/>
<path d="M1414.61 139.539C1414.04 139.539 1413.57 139.072 1413.57 138.509V138.166C1413.57 137.603 1414.04 137.136 1414.61 137.136C1415.17 137.136 1415.65 137.603 1415.65 138.166V138.509C1415.65 139.086 1415.17 139.539 1414.61 139.539Z" fill="#BEF0ED"/>
<path d="M1414.61 145.197C1414.04 145.197 1413.57 144.73 1413.57 144.167V143.824C1413.57 143.261 1414.04 142.794 1414.61 142.794C1415.17 142.794 1415.65 143.261 1415.65 143.824V144.167C1415.65 144.73 1415.17 145.197 1414.61 145.197Z" fill="#BEF0ED"/>
<path d="M1411.92 142.19H1411.57C1411 142.19 1410.53 141.723 1410.53 141.16C1410.53 140.597 1411 140.13 1411.57 140.13H1411.92C1412.49 140.13 1412.96 140.597 1412.96 141.16C1412.96 141.737 1412.5 142.19 1411.92 142.19Z" fill="#BEF0ED"/>
<path d="M1417.63 142.19H1417.28C1416.71 142.19 1416.24 141.723 1416.24 141.16C1416.24 140.597 1416.71 140.13 1417.28 140.13H1417.63C1418.2 140.13 1418.67 140.597 1418.67 141.16C1418.67 141.737 1418.2 142.19 1417.63 142.19Z" fill="#BEF0ED"/>
<path d="M1402.87 84.2033C1402.3 84.2033 1401.83 83.7364 1401.83 83.1732V82.8299C1401.83 82.2668 1402.3 81.7998 1402.87 81.7998C1403.44 81.7998 1403.91 82.2668 1403.91 82.8299V83.1732C1403.91 83.7364 1403.44 84.2033 1402.87 84.2033Z" fill="#BEF0ED"/>
<path d="M1402.87 89.8479C1402.3 89.8479 1401.83 89.3809 1401.83 88.8178V88.4744C1401.83 87.9113 1402.3 87.4443 1402.87 87.4443C1403.44 87.4443 1403.91 87.9113 1403.91 88.4744V88.8178C1403.91 89.3946 1403.44 89.8479 1402.87 89.8479Z" fill="#BEF0ED"/>
<path d="M1400.19 86.8541H1399.85C1399.28 86.8541 1398.81 86.3871 1398.81 85.824C1398.81 85.2609 1399.28 84.7939 1399.85 84.7939H1400.19C1400.76 84.7939 1401.23 85.2609 1401.23 85.824C1401.23 86.3871 1400.76 86.8541 1400.19 86.8541Z" fill="#BEF0ED"/>
<path d="M1405.89 86.8541H1405.54C1404.98 86.8541 1404.5 86.3871 1404.5 85.824C1404.5 85.2609 1404.98 84.7939 1405.54 84.7939H1405.89C1406.46 84.7939 1406.93 85.2609 1406.93 85.824C1406.93 86.3871 1406.46 86.8541 1405.89 86.8541Z" fill="#BEF0ED"/>
<path d="M1382.76 141.297C1382.61 141.297 1382.47 141.269 1382.33 141.201L1372.91 136.888C1372.38 136.655 1372.16 136.037 1372.39 135.515C1372.63 134.993 1373.25 134.773 1373.78 135.006L1381.73 138.646V129.224L1372.91 125.131C1372.38 124.884 1372.16 124.28 1372.41 123.758C1372.66 123.236 1373.27 123.016 1373.79 123.264L1383.22 127.631C1383.58 127.796 1383.81 128.167 1383.81 128.565V140.253C1383.81 140.61 1383.63 140.926 1383.33 141.118C1383.16 141.242 1382.97 141.297 1382.76 141.297Z" fill="#BEF0ED"/>
<path d="M1390.84 141.297C1390.65 141.297 1390.45 141.242 1390.29 141.133C1389.98 140.94 1389.8 140.611 1389.8 140.267V128.579C1389.8 128.181 1390.04 127.81 1390.4 127.645L1399.82 123.278C1400.35 123.031 1400.96 123.264 1401.21 123.772C1401.45 124.294 1401.22 124.899 1400.71 125.146L1391.88 129.239V138.66L1399.83 135.021C1400.36 134.787 1400.97 135.007 1401.22 135.529C1401.45 136.051 1401.23 136.655 1400.71 136.902L1391.28 141.215C1391.13 141.27 1390.98 141.297 1390.84 141.297Z" fill="#BEF0ED"/>
</g>
<rect x="1333.5" y="61.5" width="111.737" height="111.737" rx="14.5" stroke="#BEF0ED" stroke-width="3"/>
<g clip-path="url(#clip7_1206_3780)">
<path d="M535.228 512.031H492.03C486.955 512.031 482.832 507.958 482.832 502.946V460.675C482.832 457.366 485.547 454.685 488.896 454.685H521.247C524.597 454.685 527.312 457.366 527.312 460.675V502.958C527.312 506.931 530.585 510.164 534.607 510.164H535.228C535.748 510.164 536.18 510.59 536.18 511.104C536.18 511.618 535.761 512.031 535.228 512.031ZM488.896 456.564C486.6 456.564 484.735 458.407 484.735 460.675V502.958C484.735 506.931 488.008 510.164 492.03 510.164H529.012C526.83 508.497 525.409 505.891 525.409 502.958V460.675C525.409 458.407 523.544 456.564 521.247 456.564H488.896Z" fill="#BEF0ED"/>
<path d="M535.228 512.032C534.708 512.032 534.276 511.606 534.276 511.092C534.276 510.578 534.708 510.152 535.228 510.152C539.25 510.152 542.523 506.919 542.523 502.946V491.216C542.523 488.948 540.658 487.105 538.361 487.105H526.36C525.84 487.105 525.408 486.679 525.408 486.165C525.408 485.652 525.84 485.226 526.36 485.226H538.361C541.711 485.226 544.426 487.907 544.426 491.216V502.946C544.426 507.959 540.303 512.032 535.228 512.032Z" fill="#BEF0ED"/>
<path d="M504.869 482.092C504.158 482.092 503.46 481.904 502.826 481.516L497.802 478.433C496.66 477.731 495.975 476.516 495.975 475.187V468.658C495.975 467.329 496.66 466.114 497.802 465.412L502.826 462.329C504.082 461.565 505.642 461.565 506.898 462.329L511.935 465.412C513.077 466.114 513.762 467.329 513.762 468.658V475.187C513.762 476.516 513.077 477.731 511.935 478.433L506.898 481.516C506.277 481.904 505.579 482.092 504.869 482.092ZM504.869 463.633C504.513 463.633 504.158 463.733 503.828 463.921L498.792 467.004C498.208 467.355 497.865 467.981 497.865 468.658V475.187C497.865 475.864 498.208 476.478 498.792 476.841L503.828 479.924C504.463 480.313 505.262 480.313 505.896 479.924L510.933 476.841C511.516 476.49 511.859 475.864 511.859 475.187V468.658C511.859 467.981 511.516 467.367 510.933 467.004L505.896 463.921C505.579 463.733 505.224 463.633 504.869 463.633Z" fill="#BEF0ED"/>
<path d="M504.869 476.528C502.294 476.528 500.188 474.46 500.188 471.904C500.188 469.347 502.281 467.279 504.869 467.279C507.444 467.279 509.55 469.347 509.55 471.904C509.55 474.46 507.444 476.528 504.869 476.528ZM504.869 469.159C503.334 469.159 502.091 470.387 502.091 471.904C502.091 473.42 503.334 474.648 504.869 474.648C506.404 474.648 507.647 473.42 507.647 471.904C507.647 470.387 506.404 469.159 504.869 469.159Z" fill="#BEF0ED"/>
<path d="M517.01 491.065H492.727C492.207 491.065 491.775 490.639 491.775 490.125C491.775 489.612 492.207 489.186 492.727 489.186H516.997C517.517 489.186 517.948 489.612 517.948 490.125C517.948 490.639 517.53 491.065 517.01 491.065Z" fill="#BEF0ED"/>
<path d="M517.01 497.444H492.727C492.207 497.444 491.775 497.018 491.775 496.504C491.775 495.991 492.207 495.564 492.727 495.564H516.997C517.517 495.564 517.948 495.991 517.948 496.504C517.961 497.018 517.53 497.444 517.01 497.444Z" fill="#BEF0ED"/>
<path d="M505.135 503.823H492.727C492.207 503.823 491.775 503.397 491.775 502.883C491.775 502.369 492.207 501.943 492.727 501.943H505.135C505.655 501.943 506.086 502.369 506.086 502.883C506.086 503.397 505.667 503.823 505.135 503.823Z" fill="#BEF0ED"/>
</g>
<rect x="454.5" y="427.5" width="111.737" height="111.737" rx="14.5" stroke="#BEF0ED" stroke-width="3"/>
<g clip-path="url(#clip8_1206_3780)">
<path d="M499.289 144.713C498.341 144.713 497.709 144.713 497.551 144.686C496.471 144.594 483.894 140.522 480.075 139.279C479.561 139.107 479.271 138.552 479.443 138.036C479.614 137.52 480.167 137.229 480.68 137.401C486.778 139.385 496.774 142.571 497.735 142.716C498.776 142.782 516.489 142.584 520.466 142.518C520.888 142.505 521.296 142.425 521.678 142.28L537.85 134.241C537.876 134.228 537.916 134.215 537.942 134.202C538.746 133.898 539.193 133.012 538.93 132.232C538.798 131.822 538.509 131.504 538.127 131.319C537.745 131.134 537.323 131.121 536.928 131.253L521.111 137.719C521.085 137.732 521.072 137.732 521.046 137.745C520.69 137.864 520.334 137.864 520.203 137.864C520.045 137.864 519.834 137.851 519.61 137.798L504.807 134.493C503.332 134.149 502.41 132.681 502.74 131.2C503.082 129.72 504.544 128.794 506.019 129.138L511.116 130.314L515.725 131.359C516.278 131.478 516.831 131.385 517.305 131.068C517.78 130.764 518.096 130.275 518.201 129.72C518.398 128.635 517.674 127.564 516.555 127.313L504.123 124.497C503.899 124.444 503.662 124.431 503.411 124.457C503.372 124.457 503.319 124.471 503.28 124.471C503.266 124.471 503.253 124.471 503.253 124.471C500.712 124.471 494.574 126.626 492.415 127.472C492.27 127.525 492.125 127.551 491.98 127.538L480.285 126.56C479.745 126.52 479.337 126.031 479.39 125.489C479.429 124.947 479.917 124.537 480.457 124.59L491.927 125.555C493.244 125.052 500.079 122.514 503.24 122.514C503.688 122.461 504.136 122.487 504.557 122.593L516.989 125.409C519.123 125.898 520.532 128.014 520.137 130.129C519.926 131.227 519.307 132.152 518.385 132.76C517.463 133.369 516.357 133.567 515.277 133.329L510.668 132.285L505.571 131.108C505.163 131.015 504.755 131.266 504.662 131.69C504.57 132.099 504.821 132.509 505.242 132.602L520.045 135.907C520.097 135.92 520.176 135.92 520.229 135.92C520.242 135.92 520.255 135.92 520.282 135.92C520.321 135.92 520.387 135.92 520.427 135.907L536.204 129.402C536.217 129.402 536.217 129.389 536.23 129.389C537.139 129.045 538.114 129.098 538.983 129.521C539.852 129.944 540.497 130.685 540.813 131.597C541.406 133.395 540.471 135.339 538.693 136.039L522.534 144.065C522.507 144.078 522.494 144.091 522.468 144.091C521.836 144.343 521.177 144.488 520.506 144.501C518.096 144.541 504.267 144.713 499.289 144.713Z" fill="#BEF0ED"/>
<path d="M523.31 94.3648C521.492 91.6676 518.608 90.1207 515.606 89.9224C513.433 89.7769 511.207 90.319 509.271 91.6412C509.1 91.7602 508.929 91.8792 508.771 91.9982C507.704 92.8179 506.835 93.8228 506.189 94.9466C505.926 95.3961 505.715 95.8457 505.531 96.3216C505.531 96.3349 505.518 96.3349 505.518 96.3481C505.36 96.7579 505.215 97.1943 505.109 97.6173C505.557 97.6306 505.992 97.6702 506.426 97.7496C506.545 97.3265 506.69 96.9034 506.861 96.4935C506.44 96.4142 506.018 96.3481 505.597 96.3216C506.058 96.2555 506.519 96.2159 506.979 96.2159C507.19 95.7663 507.44 95.3432 507.73 94.9334C508.323 94.0872 509.087 93.3203 509.995 92.7121C511.51 91.6941 513.222 91.2049 514.921 91.2049C516.343 91.2049 517.739 91.5486 519.003 92.1965C520.268 92.8576 521.387 93.8228 522.243 95.092C524.956 99.1114 523.903 104.598 519.925 107.335L519.728 107.467C518.7 108.142 517.568 108.578 516.383 108.776C515.895 108.856 515.408 108.895 514.908 108.895C514.802 109.133 514.671 109.358 514.539 109.583C514.618 109.358 514.684 109.133 514.736 108.895C514.302 108.882 513.854 108.842 513.419 108.763C513.301 109.186 513.156 109.609 512.985 110.006C513.367 110.085 513.762 110.138 514.157 110.165C514.21 110.165 514.262 110.178 514.328 110.178C514.539 110.191 514.736 110.191 514.947 110.191C515.197 110.191 515.461 110.178 515.711 110.165C517.212 110.046 518.714 109.596 520.07 108.79C520.241 108.684 520.413 108.578 520.584 108.459C522.533 107.137 523.876 105.259 524.535 103.17C524.864 102.152 525.022 101.095 525.022 100.037C525.035 98.0801 524.482 96.0969 523.31 94.3648Z" fill="#BEF0ED"/>
<path d="M519.846 108.842C519.636 108.842 519.425 108.737 519.306 108.551C519.109 108.247 519.188 107.837 519.478 107.639L521.901 106C525.931 103.263 526.984 97.7626 524.271 93.7168C522.954 91.76 520.953 90.4378 518.648 89.9883C516.343 89.5388 513.986 90.0147 512.037 91.3369L509.613 92.9764C509.311 93.1747 508.902 93.0954 508.705 92.8045C508.507 92.5004 508.586 92.0905 508.876 91.8922L511.299 90.2527C513.538 88.7323 516.238 88.1769 518.885 88.6926C521.532 89.2082 523.837 90.7287 525.351 92.9764C528.472 97.6172 527.261 103.95 522.625 107.084L520.215 108.723C520.097 108.803 519.965 108.842 519.846 108.842Z" fill="#BEF0ED"/>
<path d="M513.302 100.778C511.748 98.464 509.39 96.9964 506.862 96.5072C506.678 96.9171 506.533 97.327 506.427 97.7633C507.323 97.9219 508.179 98.2128 508.995 98.6227C510.26 99.2838 511.379 100.249 512.235 101.518C513.723 103.726 514.079 106.384 513.434 108.777C513.868 108.856 514.316 108.896 514.751 108.909C514.948 108.103 515.053 107.283 515.053 106.463C515.027 104.493 514.474 102.51 513.302 100.778ZM513.302 100.778C511.748 98.464 509.39 96.9964 506.862 96.5072C506.44 96.4279 506.019 96.3618 505.598 96.3353C505.571 96.3353 505.545 96.3353 505.519 96.3221C503.385 96.1899 501.186 96.732 499.289 98.0145L499.237 98.0541C499.079 98.1599 498.921 98.2789 498.763 98.3979C494.548 101.637 493.534 107.666 496.537 112.148C498.486 115.044 501.686 116.617 504.939 116.617C506.704 116.617 508.469 116.154 510.075 115.203C510.233 115.11 510.391 115.004 510.536 114.912L510.615 114.859C512.354 113.669 513.618 112.029 514.329 110.192C514.408 109.993 514.474 109.795 514.54 109.583C514.619 109.359 514.685 109.134 514.737 108.896C514.935 108.089 515.04 107.27 515.04 106.45C515.027 104.493 514.474 102.51 513.302 100.778ZM512.986 110.006C512.34 111.474 511.3 112.796 509.878 113.761L509.707 113.867C507.784 115.123 505.492 115.573 503.24 115.123C500.936 114.674 498.934 113.352 497.617 111.395C494.904 107.349 495.957 101.849 499.987 99.1119C501.489 98.0938 503.214 97.5914 504.913 97.5914C504.979 97.5914 505.044 97.5914 505.11 97.5914C505.558 97.6046 505.993 97.6443 506.427 97.7236C507.323 97.8823 508.179 98.1731 508.995 98.583C510.26 99.2441 511.379 100.209 512.235 101.479C513.723 103.687 514.079 106.344 513.434 108.737C513.302 109.187 513.157 109.61 512.986 110.006ZM513.302 100.778C511.748 98.464 509.39 96.9964 506.862 96.5072C506.678 96.9171 506.533 97.327 506.427 97.7633C507.323 97.9219 508.179 98.2128 508.995 98.6227C510.26 99.2838 511.379 100.249 512.235 101.518C513.723 103.726 514.079 106.384 513.434 108.777C513.868 108.856 514.316 108.896 514.751 108.909C514.948 108.103 515.053 107.283 515.053 106.463C515.027 104.493 514.474 102.51 513.302 100.778Z" fill="#BEF0ED"/>
<path d="M516.37 108.777C516.186 109.253 515.962 109.729 515.699 110.165C514.961 111.447 513.921 112.598 512.617 113.483L510.615 114.859L510.536 114.911L510.207 115.136C510.167 115.163 510.128 115.189 510.075 115.202C509.996 115.229 509.917 115.242 509.838 115.242C509.627 115.242 509.417 115.136 509.298 114.951C509.101 114.647 509.18 114.237 509.469 114.039L509.706 113.88L509.878 113.774L511.893 112.413C512.801 111.791 513.565 111.037 514.158 110.178C514.289 109.98 514.421 109.781 514.54 109.583C514.671 109.358 514.79 109.134 514.908 108.896C516.212 106.159 516.081 102.814 514.263 100.116C512.946 98.1597 510.944 96.8375 508.64 96.388C508.087 96.2822 507.533 96.2293 506.993 96.2293C506.533 96.2293 506.072 96.269 505.611 96.3351C505.584 96.3351 505.545 96.3483 505.518 96.3483C504.28 96.5599 503.108 97.0226 502.042 97.7498L499.987 99.1248L499.605 99.3761C499.302 99.5744 498.894 99.495 498.697 99.2042C498.525 98.953 498.552 98.6092 498.749 98.3977C498.789 98.358 498.828 98.3315 498.868 98.2919L499.223 98.0407L499.276 98.001L501.291 96.6392C502.766 95.6343 504.452 95.0526 506.177 94.9204C506.691 94.8807 507.204 94.8807 507.731 94.9204C508.113 94.9468 508.495 94.9997 508.89 95.079C511.537 95.6211 513.829 97.1416 515.343 99.3893C517.279 102.258 517.542 105.775 516.37 108.777Z" fill="#BEF0ED"/>
<path d="M535.15 87.556C534.61 87.556 534.163 87.1064 534.163 86.5643V86.2338C534.163 85.6917 534.61 85.2422 535.15 85.2422C535.69 85.2422 536.138 85.6917 536.138 86.2338V86.5643C536.138 87.1064 535.69 87.556 535.15 87.556Z" fill="#BEF0ED"/>
<path d="M535.15 92.9905C534.61 92.9905 534.163 92.541 534.163 91.9989V91.6684C534.163 91.1263 534.61 90.6768 535.15 90.6768C535.69 90.6768 536.138 91.1263 536.138 91.6684V91.9989C536.138 92.5542 535.69 92.9905 535.15 92.9905Z" fill="#BEF0ED"/>
<path d="M532.596 90.1073H532.267C531.727 90.1073 531.279 89.6577 531.279 89.1156C531.279 88.5736 531.727 88.124 532.267 88.124H532.596C533.136 88.124 533.583 88.5736 533.583 89.1156C533.583 89.6577 533.149 90.1073 532.596 90.1073Z" fill="#BEF0ED"/>
<path d="M538.022 90.1073H537.692C537.152 90.1073 536.705 89.6577 536.705 89.1156C536.705 88.5736 537.152 88.124 537.692 88.124H538.022C538.562 88.124 539.009 88.5736 539.009 89.1156C539.009 89.6577 538.562 90.1073 538.022 90.1073Z" fill="#BEF0ED"/>
<path d="M485.632 107.547C485.092 107.547 484.644 107.098 484.644 106.556V106.225C484.644 105.683 485.092 105.233 485.632 105.233C486.172 105.233 486.619 105.683 486.619 106.225V106.556C486.619 107.111 486.172 107.547 485.632 107.547Z" fill="#BEF0ED"/>
<path d="M485.632 112.994C485.092 112.994 484.644 112.545 484.644 112.003V111.672C484.644 111.13 485.092 110.681 485.632 110.681C486.172 110.681 486.619 111.13 486.619 111.672V112.003C486.619 112.545 486.172 112.994 485.632 112.994Z" fill="#BEF0ED"/>
<path d="M483.077 110.112H482.748C482.208 110.112 481.76 109.663 481.76 109.121C481.76 108.578 482.208 108.129 482.748 108.129H483.077C483.617 108.129 484.065 108.578 484.065 109.121C484.065 109.663 483.63 110.112 483.077 110.112Z" fill="#BEF0ED"/>
<path d="M488.503 110.112H488.174C487.634 110.112 487.186 109.663 487.186 109.121C487.186 108.578 487.634 108.129 488.174 108.129H488.503C489.043 108.129 489.491 108.578 489.491 109.121C489.491 109.663 489.043 110.112 488.503 110.112Z" fill="#BEF0ED"/>
</g>
<rect x="454.5" y="61.5" width="111.737" height="111.737" rx="14.5" stroke="#BEF0ED" stroke-width="3"/>
<g clip-path="url(#clip9_1206_3780)">
<path d="M1244.56 281.252V299.665C1244.56 300.42 1243.95 301.037 1243.19 301.037C1242.44 301.037 1241.82 300.42 1241.82 299.665V281.252C1241.82 279.065 1240.06 277.276 1237.86 277.276H1155.74V338.259C1155.74 340.446 1157.5 342.236 1159.7 342.236H1237.86C1240.04 342.236 1241.82 340.466 1241.82 338.259V319.847C1241.82 319.091 1242.44 318.475 1243.19 318.475C1243.95 318.475 1244.56 319.091 1244.56 319.847V338.259C1244.56 341.978 1241.55 344.98 1237.86 344.98H1159.7C1155.99 345 1153 341.978 1153 338.279V275.904C1153 275.864 1153 275.804 1153 275.764C1153 275.725 1153 275.705 1153.02 275.665C1153.02 275.645 1153.02 275.625 1153.02 275.605C1153.02 275.585 1153.02 275.546 1153.04 275.526C1153.04 275.506 1153.06 275.486 1153.06 275.466C1153.08 275.426 1153.08 275.387 1153.1 275.367C1153.12 275.327 1153.14 275.287 1153.16 275.247C1153.16 275.247 1153.16 275.247 1153.16 275.228C1153.18 275.188 1153.2 275.168 1153.22 275.128C1153.24 275.088 1153.28 275.049 1153.3 275.029C1153.34 274.989 1153.36 274.949 1153.4 274.929C1153.42 274.909 1153.46 274.87 1153.48 274.85C1153.52 274.83 1153.54 274.79 1153.57 274.77C1153.59 274.75 1153.63 274.73 1153.67 274.711C1153.69 274.711 1153.69 274.691 1153.71 274.691C1153.75 274.671 1153.79 274.651 1153.81 274.631C1153.83 274.631 1153.85 274.611 1153.87 274.611C1153.87 274.611 1153.89 274.611 1153.89 274.591L1153.93 274.571C1154.05 274.532 1154.19 274.512 1154.35 274.512H1237.84C1241.57 274.532 1244.56 277.534 1244.56 281.252Z" fill="#171753"/>
<path d="M1245.33 298.293H1229.28C1222.95 298.293 1217.84 303.423 1217.84 309.766C1217.84 316.109 1222.95 321.239 1229.28 321.239H1245.33C1247.35 321.239 1249 319.589 1249 317.56V301.971C1249 299.943 1247.35 298.293 1245.33 298.293ZM1246.26 317.56C1246.26 318.077 1245.85 318.495 1245.33 318.495H1229.28C1224.48 318.495 1220.57 314.598 1220.57 309.766C1220.57 304.934 1224.46 301.037 1229.28 301.037H1245.33C1245.85 301.037 1246.26 301.454 1246.26 301.971V317.56Z" fill="#171753"/>
<path d="M1245.33 301.036H1229.28C1224.48 301.036 1220.57 304.933 1220.57 309.765C1220.57 314.597 1224.46 318.494 1229.28 318.494H1245.33C1245.85 318.494 1246.26 318.077 1246.26 317.56V301.971C1246.26 301.454 1245.85 301.036 1245.33 301.036ZM1229.81 314.696C1227.1 314.696 1224.9 312.489 1224.9 309.745C1224.9 307.021 1227.1 304.814 1229.83 304.814C1232.55 304.814 1234.75 307.021 1234.75 309.745C1234.73 312.489 1232.53 314.696 1229.81 314.696Z" fill="#5ED9D1"/>
<path d="M1217.84 309.766C1217.84 316.108 1222.95 321.239 1229.28 321.239H1241.82V338.279C1241.82 340.466 1240.04 342.256 1237.86 342.256H1159.7C1157.52 342.256 1155.74 340.486 1155.74 338.279V277.275H1237.86C1240.04 277.275 1241.82 279.045 1241.82 281.252V298.293H1229.28C1222.95 298.293 1217.84 303.423 1217.84 309.766Z" fill="#BEF0ED"/>
<path d="M1216.95 266.002V274.532H1162.59L1207.37 259.142C1208.13 258.883 1208.92 258.744 1209.71 258.744C1213.72 258.764 1216.95 262.005 1216.95 266.002Z" fill="#5ED9D1"/>
<path d="M1219.7 266.001V275.903C1219.7 276.659 1219.09 277.275 1218.34 277.275C1217.58 277.275 1216.97 276.659 1216.97 275.903V266.001C1216.97 261.985 1213.74 258.744 1209.73 258.744C1208.94 258.744 1208.15 258.883 1207.39 259.141L1162.59 274.531L1154.82 277.216C1154.69 277.275 1154.53 277.295 1154.39 277.295C1153.64 277.295 1153.02 276.679 1153.02 275.923C1153.02 275.883 1153.02 275.824 1153.02 275.784C1153.02 275.744 1153.02 275.724 1153.04 275.685C1153.04 275.665 1153.04 275.645 1153.04 275.625C1153.04 275.605 1153.04 275.565 1153.06 275.545C1153.06 275.526 1153.08 275.506 1153.08 275.486C1153.1 275.446 1153.1 275.406 1153.12 275.386C1153.14 275.347 1153.16 275.307 1153.18 275.267C1153.18 275.267 1153.18 275.267 1153.18 275.247C1153.2 275.207 1153.22 275.187 1153.24 275.148C1153.26 275.108 1153.3 275.068 1153.32 275.048C1153.36 275.009 1153.38 274.969 1153.42 274.949C1153.44 274.929 1153.48 274.889 1153.5 274.869C1153.54 274.849 1153.56 274.81 1153.6 274.79C1153.62 274.77 1153.65 274.75 1153.69 274.73C1153.71 274.73 1153.71 274.71 1153.73 274.71C1153.77 274.69 1153.81 274.671 1153.83 274.651C1153.85 274.631 1153.89 274.631 1153.93 274.611L1153.97 274.591L1206.5 256.536C1211.71 254.747 1217.38 257.531 1219.17 262.76C1219.5 263.814 1219.7 264.908 1219.7 266.001Z" fill="#171753"/>
<path d="M1229.81 304.814C1227.1 304.814 1224.9 307.022 1224.88 309.746C1224.88 312.47 1227.08 314.697 1229.79 314.697C1232.51 314.697 1234.71 312.49 1234.73 309.766C1234.75 307.041 1232.55 304.814 1229.81 304.814ZM1229.81 311.953C1228.6 311.953 1227.63 310.978 1227.63 309.766C1227.63 308.553 1228.6 307.578 1229.81 307.578C1230.41 307.578 1230.96 307.817 1231.36 308.215C1231.75 308.612 1231.99 309.169 1231.99 309.766C1231.99 310.978 1231.02 311.953 1229.81 311.953Z" fill="#171753"/>
<path d="M1231.99 309.765C1231.99 310.978 1231.02 311.953 1229.81 311.953C1228.6 311.953 1227.63 310.978 1227.63 309.765C1227.63 308.552 1228.6 307.578 1229.81 307.578C1230.41 307.578 1230.96 307.817 1231.36 308.214C1231.75 308.612 1231.99 309.169 1231.99 309.765Z" fill="#65AFA9"/>
</g>
<path d="M743.465 254.19L655.546 254.19C653.203 254.19 650.956 255.121 649.299 256.778C647.642 258.435 646.711 260.682 646.711 263.025L646.711 334.36L689.598 334.36L689.598 337.642L709.388 337.642L709.388 334.36L752.187 334.36L752.187 262.975C752.174 260.66 751.253 258.443 749.622 256.8C747.991 255.157 745.78 254.22 743.465 254.19Z" fill="#5ED9D1"/>
<path fill-rule="evenodd" clip-rule="evenodd" d="M648.81 256.29C650.596 254.503 653.02 253.499 655.547 253.499L743.466 253.499L743.466 254.192L743.475 253.499C745.971 253.531 748.355 254.542 750.113 256.313C751.872 258.085 752.866 260.476 752.88 262.972L752.88 262.976L752.88 335.054L710.081 335.054L710.081 338.336L688.906 338.336L688.906 335.054L646.019 335.054L646.019 263.026C646.019 260.5 647.023 258.076 648.81 256.29ZM743.461 254.884L655.547 254.884C653.387 254.884 651.316 255.742 649.789 257.269C648.262 258.796 647.404 260.867 647.404 263.026L647.404 333.669L690.291 333.669L690.291 336.95L708.696 336.95L708.696 333.669L751.494 333.669L751.494 262.98C751.494 262.979 751.494 262.979 751.494 262.978C751.482 260.845 750.633 258.803 749.13 257.289C747.628 255.776 745.593 254.913 743.461 254.884Z" fill="#171753"/>
<path fill-rule="evenodd" clip-rule="evenodd" d="M743.79 253.184L743.79 253.175L743.466 253.175L743.156 253.171L743.156 253.175L655.547 253.175C652.934 253.175 650.429 254.213 648.581 256.06C646.734 257.908 645.696 260.414 645.696 263.026L645.696 335.378L688.583 335.378L688.583 338.659L710.406 338.659L710.406 335.378L753.204 335.378L753.204 262.976L753.204 262.971C753.189 260.39 752.162 257.917 750.344 256.085C748.598 254.327 746.258 253.294 743.79 253.184ZM743.142 253.823L743.142 254.191L743.79 254.196L743.79 254.191L743.795 253.833C746.088 253.943 748.261 254.907 749.884 256.541C751.583 258.252 752.543 260.562 752.556 262.974L752.556 262.976L752.556 334.73L709.758 334.73L709.758 338.012L689.23 338.012L689.23 334.73L646.343 334.73L646.343 263.026C646.343 260.585 647.313 258.244 649.039 256.518C650.765 254.792 653.106 253.823 655.547 253.823L743.142 253.823ZM655.547 255.208C653.474 255.208 651.485 256.032 650.019 257.498C648.552 258.964 647.729 260.953 647.729 263.026L647.729 333.345L690.616 333.345L690.616 336.626L708.373 336.626L708.373 333.345L751.171 333.345L751.171 262.981L751.171 262.98C751.159 260.932 750.344 258.97 748.901 257.517C747.459 256.065 745.506 255.236 743.46 255.208L655.547 255.208ZM649.561 257.04C651.148 255.452 653.302 254.56 655.547 254.56L743.466 254.56C745.683 254.59 747.799 255.488 749.361 257.061C750.923 258.634 751.806 260.758 751.819 262.976L751.819 262.978L751.819 333.992L709.02 333.992L709.02 337.274L689.968 337.274L689.968 333.992L647.081 333.992L647.081 263.026C647.081 260.781 647.973 258.628 649.561 257.04Z" fill="#171753"/>
<path d="M743.466 261.917L655.546 261.917C655.402 261.919 655.26 261.949 655.127 262.005C654.995 262.062 654.874 262.144 654.774 262.248C654.673 262.351 654.593 262.473 654.54 262.606C654.486 262.74 654.459 262.883 654.461 263.028L654.461 325.578C654.459 325.722 654.486 325.864 654.54 325.998C654.594 326.131 654.673 326.252 654.774 326.354C654.875 326.456 654.996 326.537 655.128 326.593C655.261 326.648 655.403 326.676 655.546 326.676L743.466 326.676C743.758 326.676 744.039 326.561 744.247 326.356C744.455 326.15 744.573 325.871 744.576 325.578L744.576 262.99C744.563 262.703 744.441 262.432 744.235 262.232C744.028 262.033 743.753 261.92 743.466 261.917ZM742.368 324.518L656.657 324.518L656.657 264.075L742.305 264.075L742.368 324.518Z" fill="#171753"/>
<path fill-rule="evenodd" clip-rule="evenodd" d="M742.305 264.075L656.657 264.075L656.657 324.518L742.368 324.518L742.305 264.075ZM655.546 261.917L743.466 261.917C743.753 261.92 744.028 262.033 744.235 262.232C744.441 262.432 744.563 262.703 744.576 262.99L744.576 325.578C744.573 325.871 744.455 326.15 744.247 326.356C744.039 326.561 743.758 326.676 743.466 326.676L655.546 326.676C655.403 326.676 655.261 326.648 655.128 326.593C654.996 326.537 654.875 326.456 654.774 326.354C654.673 326.252 654.594 326.131 654.54 325.998C654.486 325.864 654.459 325.722 654.461 325.578L654.461 263.028C654.459 262.883 654.486 262.74 654.54 262.606C654.593 262.473 654.673 262.351 654.774 262.248C654.874 262.144 654.995 262.062 655.127 262.005C655.26 261.949 655.402 261.919 655.546 261.917Z" fill="#171753"/>
<path d="M760.971 334.361L709.388 334.361L709.388 337.643L689.598 337.643L689.598 334.361L637.978 334.361C637.978 336.704 638.908 338.952 640.565 340.609C642.222 342.265 644.469 343.196 646.812 343.196L752.187 343.196C754.53 343.196 756.777 342.265 758.434 340.609C760.091 338.952 761.022 336.704 761.022 334.361L760.971 334.361Z" fill="#388B9A"/>
<path fill-rule="evenodd" clip-rule="evenodd" d="M637.324 333.707L690.253 333.707L690.253 336.989L708.735 336.989L708.735 333.707L761.677 333.707L761.677 334.361C761.677 336.878 760.677 339.291 758.897 341.071C757.118 342.85 754.704 343.85 752.188 343.85L646.813 343.85C644.297 343.85 641.883 342.85 640.103 341.071C638.324 339.291 637.324 336.878 637.324 334.361L637.324 333.707ZM638.659 335.015C638.813 336.946 639.649 338.767 641.029 340.146C642.563 341.68 644.644 342.542 646.813 342.542L752.188 342.542C754.357 342.542 756.438 341.68 757.972 340.146C759.351 338.767 760.187 336.946 760.342 335.015L710.043 335.015L710.043 338.297L688.945 338.297L688.945 335.015L638.659 335.015Z" fill="#171753"/>
<path fill-rule="evenodd" clip-rule="evenodd" d="M637 333.383L690.577 333.383L690.577 336.664L708.411 336.664L708.411 333.383L762 333.383L762 334.361C762 336.963 760.966 339.459 759.126 341.3C757.286 343.14 754.79 344.174 752.187 344.174L646.813 344.174C644.21 344.174 641.714 343.14 639.874 341.3C638.034 339.459 637 336.963 637 334.361L637 333.383ZM637.648 334.03L637.648 334.361C637.648 336.792 638.613 339.123 640.332 340.842C642.051 342.56 644.382 343.526 646.813 343.526L752.187 343.526C754.618 343.526 756.949 342.56 758.668 340.842C760.387 339.123 761.352 336.792 761.352 334.361L761.352 334.03L709.058 334.03L709.058 337.312L689.929 337.312L689.929 334.03L637.648 334.03ZM638.307 334.691L689.268 334.691L689.268 337.973L709.719 337.973L709.719 334.691L760.693 334.691L760.664 335.041C760.504 337.047 759.635 338.941 758.201 340.374C756.606 341.969 754.443 342.865 752.187 342.865L646.813 342.865C644.557 342.865 642.394 341.969 640.799 340.374C639.365 338.941 638.496 337.047 638.336 335.041L638.307 334.691ZM639.017 335.339C639.233 337.062 640.016 338.675 641.257 339.916C642.731 341.39 644.729 342.218 646.813 342.218L752.187 342.218C754.271 342.218 756.269 341.39 757.743 339.916C758.984 338.675 759.767 337.062 759.983 335.339L710.367 335.339L710.367 338.62L688.621 338.62L688.621 335.339L639.017 335.339Z" fill="#171753"/>
<path d="M742.494 268.194L721.202 268.194L721.202 324.104L742.494 324.104L742.494 268.194Z" fill="#9BE7C4"/>
<path d="M661.68 267.781L656.606 267.781L656.606 324.117L661.68 324.117L661.68 267.781Z" fill="#9BE7C4"/>
<path d="M743.201 263.267L655.332 263.267L655.332 268.195L743.201 268.195L743.201 263.267Z" fill="#171753"/>
<path d="M661.68 273.914L656.606 273.914L656.606 275.143L661.68 275.143L661.68 273.914Z" fill="#171753"/>
<path d="M661.68 278.843L656.606 278.843L656.606 280.072L661.68 280.072L661.68 278.843Z" fill="#171753"/>
<path d="M661.68 283.785L656.606 283.785L656.606 285.014L661.68 285.014L661.68 283.785Z" fill="#171753"/>
<path d="M661.68 288.714L656.606 288.714L656.606 289.943L661.68 289.943L661.68 288.714Z" fill="#171753"/>
<path d="M661.68 293.642L656.606 293.642L656.606 294.871L661.68 294.871L661.68 293.642Z" fill="#171753"/>
<path d="M661.68 298.571L656.606 298.571L656.606 299.8L661.68 299.8L661.68 298.571Z" fill="#171753"/>
<path d="M661.68 303.499L656.606 303.499L656.606 304.728L661.68 304.728L661.68 303.499Z" fill="#171753"/>
<path d="M661.68 308.429L656.606 308.429L656.606 309.658L661.68 309.658L661.68 308.429Z" fill="#171753"/>
<path d="M742.494 298.571L721.24 298.571L721.24 299.8L742.494 299.8L742.494 298.571Z" fill="#171753"/>
<path d="M742.494 303.499L721.24 303.499L721.24 304.728L742.494 304.728L742.494 303.499Z" fill="#171753"/>
<path d="M742.494 308.429L721.24 308.429L721.24 309.658L742.494 309.658L742.494 308.429Z" fill="#171753"/>
<path d="M737.345 288.714L724.926 288.714L724.926 289.943L737.345 289.943L737.345 288.714Z" fill="#171753"/>
<path d="M737.345 293.642L724.926 293.642L724.926 294.871L737.345 294.871L737.345 293.642Z" fill="#171753"/>
<path d="M742.494 313.356L721.24 313.356L721.24 314.585L742.494 314.585L742.494 313.356Z" fill="#171753"/>
<path d="M742.494 318.286L721.24 318.286L721.24 319.515L742.494 319.515L742.494 318.286Z" fill="#171753"/>
<path d="M672.85 265.122L660.216 265.122L660.216 266.351L672.85 266.351L672.85 265.122Z" fill="#FFC78F"/>
<path d="M739.123 281.313L737.344 281.313L737.344 282.543L739.123 282.543L739.123 281.313Z" fill="#FFC78F"/>
<path d="M732.031 281.313L730.251 281.313L730.251 282.543L732.031 282.543L732.031 281.313Z" fill="#FFC78F"/>
<path d="M739.123 276.385L737.344 276.385L737.344 277.614L739.123 277.614L739.123 276.385Z" fill="#FFC78F"/>
<path d="M732.031 276.385L730.251 276.385L730.251 277.614L732.031 277.614L732.031 276.385Z" fill="#FFC78F"/>
<path d="M724.938 281.313L723.159 281.313L723.159 282.543L724.938 282.543L724.938 281.313Z" fill="#FFC78F"/>
<path d="M724.938 276.385L723.159 276.385L723.159 277.614L724.938 277.614L724.938 276.385Z" fill="#FFC78F"/>
<path d="M739.123 271.457L737.344 271.457L737.344 272.686L739.123 272.686L739.123 271.457Z" fill="#FFC78F"/>
<path d="M732.031 271.457L730.251 271.457L730.251 272.686L732.031 272.686L732.031 271.457Z" fill="#FFC78F"/>
<path d="M724.938 271.457L723.159 271.457L723.159 272.686L724.938 272.686L724.938 271.457Z" fill="#FFC78F"/>
<path d="M687.718 319.516L686.443 319.516L686.443 320.745L687.718 320.745L687.718 319.516Z" fill="#171753"/>
<path d="M682.644 319.516L681.37 319.516L681.37 320.745L682.644 320.745L682.644 319.516Z" fill="#171753"/>
<path d="M677.557 319.516L676.283 319.516L676.283 320.745L677.557 320.745L677.557 319.516Z" fill="#171753"/>
<path fill-rule="evenodd" clip-rule="evenodd" d="M661.111 325.747L661.111 267.919L662.406 267.919L662.406 325.747L661.111 325.747ZM719.753 325.747L719.753 267.919L721.048 267.919L721.048 325.747L719.753 325.747Z" fill="#171753"/>
<path d="M958.161 301.564C958.161 300.283 959.186 299.258 960.468 299.258C961.749 299.258 962.774 300.283 962.774 301.564C962.774 302.846 961.749 303.871 960.468 303.871C959.186 303.871 958.161 302.803 958.161 301.564Z" fill="white"/>
<path d="M971.928 306.945C971.843 307.666 971.759 308.387 971.547 309.066C970.911 311.483 969.511 313.688 967.222 314.918C964.084 316.53 960.353 315.936 957.215 314.706C954.629 316.53 954.629 316.53 954.629 316.53C954.035 316.912 953.272 316.275 953.611 315.639C952.89 315.767 952.678 315.088 952.89 314.537C952.297 315.003 951.788 314.155 952.127 313.646C952.339 313.307 952.678 312.925 952.933 312.628C949.286 310.55 945.979 308.005 942.63 305.503C944.538 306.691 952.17 310.592 954.035 311.398C955.986 312.246 957.936 313.095 959.971 313.561C961.667 313.943 963.83 314.155 965.399 313.179C966.84 312.331 967.391 310.592 967.603 309.023C968.112 305.63 966.925 301.813 965.144 298.93C963.279 295.918 960.226 293.204 956.749 292.314C955.477 291.974 954.205 291.974 953.018 292.186C950.262 292.653 947.76 294.349 945.852 296.47C943.096 299.523 941.188 303.298 939.45 307.03C938.262 309.532 936.609 315.639 932.708 313.222C930.97 312.119 929.867 310.211 929.104 308.345C928.256 306.351 927.662 303.68 928.214 301.517C929.401 296.979 935.761 301.008 937.923 302.45C937.796 302.407 932.708 300.075 930.842 301.898C929.994 302.747 930.037 304.273 930.164 305.376C930.418 307.369 931.394 310.338 933.259 311.441C935.676 312.84 936.906 308.472 937.542 306.945C938.602 304.358 939.619 301.771 940.806 299.226C942.121 296.427 943.69 293.671 945.852 291.423C945.386 290.872 944.707 290.193 944.665 289.472C944.58 288.666 945.386 287.776 946.234 288.2C945.258 287.097 946.573 285.443 947.845 286.079C947.251 285.146 948.184 283.959 949.159 284.001C949.71 284.001 950.262 284.468 950.686 284.764C951.788 285.485 952.89 286.249 954.035 286.97C964.593 285.316 972.861 297.318 971.928 306.945Z" fill="white"/>
</g>
<defs>
<filter id="filter0_di_1206_3780" x="881" y="233.929" width="137.143" height="137.143" filterUnits="userSpaceOnUse" color-interpolation-filters="sRGB">
<feFlood flood-opacity="0" result="BackgroundImageFix"/>
<feColorMatrix in="SourceAlpha" type="matrix" values="0 0 0 0 0 0 0 0 0 0 0 0 0 0 0 0 0 0 127 0" result="hardAlpha"/>
<feOffset dy="4"/>
<feGaussianBlur stdDeviation="2"/>
<feComposite in2="hardAlpha" operator="out"/>
<feColorMatrix type="matrix" values="0 0 0 0 0 0 0 0 0 0 0 0 0 0 0 0 0 0 0.25 0"/>
<feBlend mode="normal" in2="BackgroundImageFix" result="effect1_dropShadow_1206_3780"/>
<feBlend mode="normal" in="SourceGraphic" in2="effect1_dropShadow_1206_3780" result="shape"/>
<feColorMatrix in="SourceAlpha" type="matrix" values="0 0 0 0 0 0 0 0 0 0 0 0 0 0 0 0 0 0 127 0" result="hardAlpha"/>
<feOffset dx="1" dy="5"/>
<feGaussianBlur stdDeviation="3"/>
<feComposite in2="hardAlpha" operator="arithmetic" k2="-1" k3="1"/>
<feColorMatrix type="matrix" values="0 0 0 0 0.0436805 0 0 0 0 0.0436805 0 0 0 0 0.308333 0 0 0 1 0"/>
<feBlend mode="normal" in2="shape" result="effect2_innerShadow_1206_3780"/>
</filter>
<linearGradient id="paint0_linear_1206_3780" x1="-7.07805e-06" y1="300" x2="1900" y2="300" gradientUnits="userSpaceOnUse">
<stop stop-color="#030332"/>
<stop offset="1" stop-color="#171753"/>
</linearGradient>
<clipPath id="clip0_1206_3780">
<rect width="1900" height="600" fill="white"/>
</clipPath>
<clipPath id="clip1_1206_3780">
<rect width="947" height="657" fill="white" transform="translate(-17.6167 -29.1641)"/>
</clipPath>
<clipPath id="clip2_1206_3780">
<rect width="947" height="657" fill="white" transform="translate(949.314 -29.1641)"/>
</clipPath>
<clipPath id="clip3_1206_3780">
<rect width="955.23" height="955.23" fill="white" transform="matrix(0.481399 0.876502 0.876502 -0.481399 1138.19 222.586)"/>
</clipPath>
<clipPath id="clip4_1206_3780">
<rect width="955.23" height="955.23" fill="white" transform="translate(761.813 222.586) rotate(118.777)"/>
</clipPath>
<clipPath id="clip5_1206_3780">
<rect width="66.5474" height="63.1053" fill="white" transform="translate(1353.8 449.832)"/>
</clipPath>
<clipPath id="clip6_1206_3780">
<rect width="63.7186" height="65.8426" fill="white" transform="translate(1354.95 81.7998)"/>
</clipPath>
<clipPath id="clip7_1206_3780">
<rect width="61.5947" height="57.3468" fill="white" transform="translate(482.832 454.685)"/>
</clipPath>
<clipPath id="clip8_1206_3780">
<rect width="61.5947" height="59.4707" fill="white" transform="translate(479.39 85.2422)"/>
</clipPath>
<clipPath id="clip9_1206_3780">
<rect width="96" height="89" fill="white" transform="translate(1153 256)"/>
</clipPath>
</defs>
</svg>
