<svg width="180" height="250" viewBox="0 0 180 250" fill="none" xmlns="http://www.w3.org/2000/svg">
<g clip-path="url(#clip0_2520_870)">
<rect width="250" height="180" transform="translate(180 1.52588e-05) rotate(90)" fill="#5ED9D1"/>
<path d="M116.178 100.919C111.274 98.6212 106.03 96.951 100.548 96C99.8746 97.2192 99.088 98.8589 98.5456 100.163C92.7178 99.2856 86.9435 99.2856 81.2228 100.163C80.6806 98.8589 79.8762 97.2192 79.1968 96C73.7086 96.951 68.4587 98.6273 63.5544 100.931C53.6625 115.902 50.981 130.501 52.3217 144.893C58.8826 149.8 65.2408 152.781 71.4918 154.731C73.0352 152.604 74.4117 150.343 75.5975 147.959C73.3391 147.1 71.176 146.039 69.1321 144.808C69.6743 144.405 70.2047 143.985 70.7171 143.552C83.1833 149.392 96.7282 149.392 109.045 143.552C109.564 143.985 110.094 144.405 110.63 144.808C108.581 146.045 106.412 147.106 104.153 147.965C105.339 150.343 106.709 152.61 108.259 154.737C114.516 152.787 120.88 149.806 127.441 144.893C129.014 128.209 124.753 113.744 116.178 100.919ZM77.2959 136.042C73.5536 136.042 70.4847 132.543 70.4847 128.282C70.4847 124.022 73.4881 120.517 77.2959 120.517C81.1037 120.517 84.1726 124.016 84.107 128.282C84.1129 132.543 81.1037 136.042 77.2959 136.042ZM102.467 136.042C98.7245 136.042 95.6555 132.543 95.6555 128.282C95.6555 124.022 98.6588 120.517 102.467 120.517C106.274 120.517 109.343 124.016 109.278 128.282C109.278 132.543 106.274 136.042 102.467 136.042Z" fill="white"/>
<g opacity="0.7">
<path d="M27.1265 98.6106L27.1265 99.8966L24.1227 99.8966L24.1227 98.6106L27.1265 98.6106ZM21.0115 98.6106L21.0115 99.8966L18.0077 99.8966L18.0077 98.6106L21.0115 98.6106ZM15.0038 98.6106L15.0038 99.8966L12 99.8966L12 98.6106L15.0038 98.6106Z" fill="#171753"/>
<path d="M20.1533 91.6449L20.1533 94.6456L18.866 94.6456L18.866 91.6449L20.1533 91.6449ZM20.1533 97.7535L20.1533 100.754L18.866 100.754L18.866 97.7535L20.1533 97.7535ZM20.1533 103.862L20.1533 106.863L18.866 106.863L18.866 103.862L20.1533 103.862Z" fill="#171753"/>
<path d="M29.594 82L29.594 85.0007L28.3066 85.0007L28.3066 82L29.594 82ZM29.594 88.1086L29.594 91.1093L28.3066 91.1093L28.3066 88.1086L29.594 88.1086Z" fill="#171753"/>
</g>
<g opacity="0.7">
<path d="M21.2686 178.118L19.98 178.118L19.98 175.116L21.2686 175.116L21.2686 178.118ZM21.2686 172.007L19.98 172.007L19.98 169.004L21.2686 169.004L21.2686 172.007ZM21.2686 166.002L19.98 166.002L19.98 163L21.2686 163L21.2686 166.002Z" fill="#171753"/>
<path d="M28.2486 171.149L25.2418 171.149L25.2418 169.862L28.2486 169.862L28.2486 171.149ZM22.1277 171.149L19.1209 171.149L19.1209 169.862L22.1277 169.862L22.1277 171.149ZM16.0068 171.149L13 171.149L13 169.862L16.0068 169.862L16.0068 171.149Z" fill="#171753"/>
<path d="M34.1277 179.287L31.1209 179.287L31.1209 178L34.1277 178L34.1277 179.287ZM28.0068 179.287L25 179.287L25 178L28.0068 178L28.0068 179.287Z" fill="#171753"/>
</g>
<g opacity="0.7">
<path d="M137.252 42.1265L135.966 42.1265V39.1227L137.252 39.1227V42.1265ZM137.252 36.0115L135.966 36.0115V33.0077L137.252 33.0077V36.0115ZM137.252 30.0039L135.966 30.0039V27L137.252 27V30.0039Z" fill="#171753"/>
<path d="M144.218 35.1533L141.217 35.1533V33.8659L144.218 33.8659V35.1533ZM138.109 35.1533L135.109 35.1533V33.8659L138.109 33.8659V35.1533ZM132.001 35.1533L129 35.1533V33.8659L132.001 33.8659V35.1533Z" fill="#171753"/>
<path d="M153.863 44.594L150.862 44.594V43.3066L153.863 43.3066V44.594ZM147.754 44.594L144.754 44.594V43.3066L147.754 43.3066V44.594Z" fill="#171753"/>
</g>
<path d="M133.637 78.7243L136.412 78.7243L136.412 79.9119L133.637 79.9119L133.637 78.7243ZM139.287 78.7243L142.062 78.7243L142.062 79.9119L139.287 79.9119L139.287 78.7243Z" fill="#171753"/>
<path d="M142.557 87.4329L145.333 87.4329L145.333 88.6205L142.557 88.6205L142.557 87.4329ZM148.207 87.4329L150.982 87.4329L150.982 88.6205L148.207 88.6205L148.207 87.4329ZM153.857 87.4329L156.632 87.4329L156.632 88.6205L153.857 88.6205L153.857 87.4329Z" fill="#171753"/>
<circle cx="90" cy="125" r="52.2" stroke="white" stroke-width="1.6"/>
<g clip-path="url(#clip1_2520_870)">
<path d="M53.3314 50.8731V29.4292C53.3314 28.4731 52.7471 28.0302 52.0204 28.4227L35.5855 37.8337C35.1859 38.1177 34.8591 38.4906 34.6314 38.9223C34.4037 39.3541 34.2814 39.8327 34.2743 40.3198V61.7585L53.3314 50.8731Z" fill="white"/>
<path d="M33.9998 62.2618L53.6262 51.0391V29.4292C53.6505 29.1797 53.6078 28.9282 53.5025 28.7002C53.3972 28.4722 53.2331 28.2758 53.0266 28.1308C52.8462 28.0377 52.6436 27.9946 52.4406 28.0062C52.2375 28.0177 52.0414 28.0834 51.873 28.1962L35.4584 37.587C35.0129 37.8944 34.6481 38.3028 34.3944 38.7781C34.1407 39.2535 34.0053 39.7821 33.9998 40.3197V62.2618ZM53.0418 50.6868L34.5792 61.2553V40.3197C34.5875 39.8834 34.6972 39.4547 34.9 39.0672C35.1027 38.6797 35.3929 38.3437 35.7481 38.0853L52.1676 28.6945C52.2485 28.6374 52.3426 28.6015 52.4412 28.59C52.5398 28.5786 52.6398 28.592 52.7318 28.629C52.8461 28.7267 52.9342 28.8509 52.9883 28.9905C53.0424 29.1302 53.0609 29.2809 53.0418 29.4292V50.6868Z" fill="#171753"/>
<path d="M36.2309 57.5312L51.3902 48.8651C51.548 48.7479 51.6761 48.5959 51.7643 48.4212C51.8525 48.2465 51.8984 48.0539 51.8984 47.8586V30.8183C51.8984 30.4308 51.6596 30.2546 51.3902 30.4207L36.2309 39.0868C36.0728 39.2037 35.9446 39.3556 35.8563 39.5304C35.7681 39.7051 35.7223 39.8979 35.7227 40.0933V57.1387C35.7075 57.5161 35.9412 57.6973 36.2309 57.5312Z" fill="#5ED9D1"/>
<path d="M37.3947 51.0744L40.4438 44.4415C40.5048 44.3157 40.6217 44.2351 40.6928 44.2754L44.9108 46.8873C45.1344 47.0282 45.5104 46.4948 45.3529 46.2633L43.9401 44.2049C43.9129 44.1519 43.8987 44.0933 43.8987 44.0338C43.8987 43.9744 43.9129 43.9157 43.9401 43.8627L45.79 39.6555C45.9526 39.278 46.2981 39.0566 46.4963 39.2227C47.3247 39.9826 49.3371 41.8195 50.1858 42.5844C50.3235 42.7289 50.4293 42.9001 50.4967 43.0873C50.5641 43.2744 50.5915 43.4733 50.5771 43.6715V47.1339C50.567 47.3349 50.5093 47.5307 50.4086 47.7056C50.308 47.8804 50.1673 48.0294 49.9978 48.1404L37.6488 55.186C37.3235 55.3672 37.0643 55.2162 37.0643 54.8488V52.4986C37.0743 52.0064 37.1868 51.5216 37.3947 51.0744Z" fill="white"/>
<path d="M37.3742 55.5584C37.5179 55.5573 37.6585 55.5172 37.7808 55.4427L50.1298 48.3971C50.3449 48.2634 50.5238 48.0799 50.6513 47.8625C50.7788 47.6451 50.851 47.4002 50.8616 47.149V43.6866C50.8755 43.4468 50.8373 43.2068 50.7497 42.9828C50.662 42.7588 50.5269 42.556 50.3534 42.3882C49.4996 41.6182 47.4923 39.7863 46.6639 39.0264C46.6012 38.9695 46.525 38.929 46.4425 38.9088C46.3599 38.8886 46.2736 38.8892 46.1914 38.9106C46.033 38.9586 45.8875 39.0415 45.766 39.1531C45.6446 39.2647 45.5502 39.402 45.49 39.5548L43.6402 43.7671C43.5895 43.8616 43.5629 43.967 43.5629 44.0741C43.5629 44.1811 43.5895 44.2865 43.6402 44.3811L45.0479 46.4394C45.0219 46.5044 44.9839 46.5641 44.936 46.6155L40.7842 44.0489C40.7369 44.0196 40.6836 44.0012 40.6282 43.9951C40.5728 43.989 40.5167 43.9953 40.4641 44.0137C40.3869 44.0404 40.3163 44.0829 40.2567 44.1384C40.1972 44.1939 40.15 44.2611 40.1184 44.3358L37.0947 50.9737C36.8612 51.4584 36.7348 51.9869 36.7237 52.5238V54.874C36.7154 54.9969 36.7408 55.1198 36.7972 55.2296C36.8535 55.3394 36.9388 55.4322 37.0439 55.498C37.1456 55.55 37.2605 55.571 37.3742 55.5584ZM46.3184 39.4542C47.162 40.2241 49.1388 42.0308 49.9824 42.7857C50.0881 42.9048 50.1685 43.0436 50.2192 43.194C50.2698 43.3444 50.2895 43.5033 50.2771 43.6614V47.1238C50.2652 47.2731 50.2198 47.4179 50.1442 47.5477C50.0686 47.6774 49.9647 47.7888 49.8401 47.8737L37.4911 54.9193C37.4548 54.9433 37.4127 54.9571 37.3691 54.9595C37.348 54.9211 37.3391 54.8772 37.3437 54.8337V52.4835C37.3568 52.0289 37.4641 51.5819 37.6588 51.17L40.6673 44.6125L44.7328 47.1288C44.8406 47.1901 44.9674 47.2102 45.0891 47.1851C45.2109 47.1601 45.3192 47.0917 45.3935 46.993C45.517 46.8828 45.6007 46.7355 45.6319 46.5738C45.6631 46.4121 45.64 46.2447 45.5662 46.0972L44.1586 44.0388C44.1586 44.0388 44.1585 44.0389 44.1941 43.9734L46.044 39.7662C46.0952 39.6357 46.1928 39.5284 46.3184 39.4642V39.4542Z" fill="#171753"/>
<path d="M41.2163 40.7274C41.2163 41.6433 41.8667 42.0157 42.6697 41.5578C43.0912 41.2851 43.442 40.9179 43.6936 40.486C43.9452 40.0541 44.0907 39.5696 44.118 39.0717C44.118 38.1557 43.4675 37.7833 42.6697 38.2413C42.2469 38.5131 41.8949 38.88 41.6424 39.312C41.3898 39.744 41.2438 40.229 41.2163 40.7274Z" fill="white"/>
<path d="M42.0192 42.0409C42.3001 42.0342 42.5741 41.9525 42.812 41.8044C43.2791 41.5082 43.6677 41.1056 43.9454 40.6302C44.223 40.1547 44.3816 39.6203 44.4078 39.0717C44.4441 38.8411 44.4092 38.6051 44.3077 38.3946C44.2062 38.184 44.0428 38.0087 43.8389 37.8918C43.6351 37.7748 43.4003 37.7215 43.1654 37.739C42.9304 37.7565 42.7062 37.8439 42.5223 37.9897C42.0554 38.2872 41.6671 38.6908 41.3895 39.167C41.112 39.6432 40.9533 40.1782 40.9266 40.7274C40.9053 40.9563 40.947 41.1866 41.0472 41.3939C41.1474 41.6013 41.3024 41.7779 41.4957 41.905C41.6546 41.9963 41.8355 42.0433 42.0192 42.0409ZM43.3151 38.3319C43.3971 38.3304 43.478 38.3513 43.5489 38.3923C43.6503 38.4723 43.7293 38.5768 43.7783 38.6958C43.8272 38.8148 43.8445 38.9442 43.8284 39.0717C43.7994 39.5186 43.6665 39.9529 43.4399 40.3406C43.2134 40.7282 42.8993 41.0587 42.5223 41.3061C42.4198 41.3848 42.2983 41.4354 42.1699 41.4531C42.0416 41.4707 41.9108 41.4548 41.7905 41.4068C41.6891 41.3267 41.6101 41.2222 41.5611 41.1032C41.5122 40.9843 41.4949 40.8549 41.511 40.7274C41.539 40.2808 41.671 39.8466 41.8967 39.459C42.1224 39.0713 42.4357 38.7407 42.812 38.4929C42.9624 38.3962 43.136 38.3407 43.3151 38.3319Z" fill="#171753"/>
</g>
<g clip-path="url(#clip2_2520_870)">
<path d="M59.0168 58.6904V37.2466C59.0168 36.2904 58.4325 35.8475 57.7058 36.2401L41.2709 45.651C40.8713 45.935 40.5445 46.3079 40.3168 46.7396C40.0891 47.1714 39.9668 47.65 39.9597 48.1371V69.5759L59.0168 58.6904Z" fill="white"/>
<path d="M39.6853 70.0791L59.3116 58.8565V37.2466C59.3359 36.997 59.2932 36.7455 59.1879 36.5176C59.0826 36.2896 58.9185 36.0931 58.712 35.9481C58.5316 35.855 58.3291 35.812 58.126 35.8235C57.9229 35.835 57.7268 35.9007 57.5584 36.0136L41.1438 45.4044C40.6983 45.7117 40.3335 46.1201 40.0798 46.5955C39.8261 47.0708 39.6907 47.5994 39.6853 48.1371V70.0791ZM58.7272 58.5042L40.2647 69.0726V48.1371C40.2729 47.7007 40.3827 47.2721 40.5854 46.8845C40.7881 46.497 41.0783 46.161 41.4335 45.9026L57.853 36.5118C57.9339 36.4547 58.028 36.4188 58.1266 36.4074C58.2252 36.3959 58.3252 36.4093 58.4172 36.4464C58.5315 36.544 58.6197 36.6682 58.6738 36.8079C58.7279 36.9475 58.7463 37.0982 58.7272 37.2466V58.5042Z" fill="#171753"/>
<path d="M41.9163 65.3485L57.0757 56.6824C57.2335 56.5652 57.3615 56.4133 57.4497 56.2386C57.5379 56.0639 57.5839 55.8712 57.5839 55.6759V38.6356C57.5839 38.2481 57.345 38.0719 57.0757 38.238L41.9163 46.9041C41.7583 47.021 41.63 47.1729 41.5418 47.3477C41.4535 47.5225 41.4078 47.7152 41.4081 47.9106V64.956C41.3929 65.3334 41.6267 65.5146 41.9163 65.3485Z" fill="#BEF0ED"/>
<path d="M43.0801 58.8917L46.1293 52.2588C46.1902 52.133 46.3071 52.0525 46.3783 52.0927L50.5963 54.7046C50.8199 54.8455 51.1959 54.3121 51.0383 54.0806L49.6255 52.0222C49.5983 51.9692 49.5841 51.9106 49.5841 51.8512C49.5841 51.7917 49.5983 51.733 49.6255 51.68L51.4754 47.4728C51.638 47.0954 51.9836 46.8739 52.1817 47.04C53.0101 47.7999 55.0225 49.6368 55.8712 50.4018C56.0089 50.5462 56.1148 50.7175 56.1821 50.9046C56.2495 51.0917 56.2769 51.2906 56.2625 51.4888V54.9512C56.2524 55.1522 56.1947 55.3481 56.094 55.5229C55.9934 55.6978 55.8527 55.8467 55.6832 55.9577L43.3342 63.0033C43.009 63.1845 42.7497 63.0336 42.7497 62.6662V60.3159C42.7597 59.8237 42.8722 59.3389 43.0801 58.8917Z" fill="white"/>
<path d="M43.0596 63.3757C43.2033 63.3746 43.3439 63.3346 43.4662 63.26L55.8153 56.2144C56.0303 56.0807 56.2092 55.8973 56.3367 55.6798C56.4642 55.4624 56.5364 55.2175 56.547 54.9663V51.5039C56.5609 51.2641 56.5228 51.0241 56.4351 50.8001C56.3474 50.5761 56.2123 50.3734 56.0388 50.2055C55.1851 49.4355 53.1777 47.6036 52.3494 46.8437C52.2867 46.7868 52.2105 46.7464 52.1279 46.7261C52.0453 46.7059 51.959 46.7065 51.8768 46.728C51.7184 46.776 51.5729 46.8589 51.4515 46.9704C51.33 47.082 51.2357 47.2193 51.1754 47.3721L49.3257 51.5844C49.2749 51.6789 49.2484 51.7843 49.2484 51.8914C49.2484 51.9984 49.2749 52.1039 49.3257 52.1984L50.7334 54.2567C50.7073 54.3217 50.6693 54.3815 50.6214 54.4329L46.4696 51.8662C46.4223 51.8369 46.3691 51.8185 46.3136 51.8124C46.2582 51.8063 46.2021 51.8127 46.1495 51.831C46.0723 51.8578 46.0017 51.9003 45.9422 51.9557C45.8826 52.0112 45.8355 52.0785 45.8038 52.1531L42.7801 58.7911C42.5467 59.2758 42.4202 59.8042 42.4091 60.3411V62.6913C42.4009 62.8142 42.4262 62.9371 42.4826 63.0469C42.5389 63.1567 42.6242 63.2495 42.7294 63.3153C42.831 63.3673 42.9459 63.3883 43.0596 63.3757ZM52.0038 47.2715C52.8474 48.0415 54.8243 49.8482 55.6679 50.603C55.7735 50.7221 55.854 50.861 55.9046 51.0114C55.9552 51.1617 55.9749 51.3207 55.9625 51.4787V54.9411C55.9506 55.0904 55.9053 55.2353 55.8296 55.365C55.754 55.4947 55.6501 55.6061 55.5255 55.691L43.1765 62.7366C43.1402 62.7606 43.0981 62.7745 43.0546 62.7769C43.0334 62.7384 43.0246 62.6946 43.0291 62.651V60.3008C43.0422 59.8463 43.1495 59.3992 43.3443 58.9873L46.3527 52.4299L50.4182 54.9462C50.5261 55.0075 50.6528 55.0275 50.7745 55.0025C50.8963 54.9774 51.0046 54.9091 51.0789 54.8103C51.2024 54.7001 51.2862 54.5529 51.3174 54.3911C51.3485 54.2294 51.3254 54.062 51.2516 53.9145L49.844 51.8562C49.844 51.8562 49.8439 51.8562 49.8795 51.7908L51.7294 47.5835C51.7806 47.4531 51.8782 47.3457 52.0038 47.2816V47.2715Z" fill="#171753"/>
<path d="M46.9017 48.5447C46.9017 49.4607 47.5521 49.8331 48.3551 49.3751C48.7766 49.1024 49.1274 48.7352 49.379 48.3033C49.6306 47.8714 49.7761 47.3869 49.8035 46.889C49.8035 45.9731 49.1529 45.6007 48.3551 46.0586C47.9323 46.3305 47.5803 46.6973 47.3278 47.1293C47.0752 47.5613 46.9292 48.0463 46.9017 48.5447Z" fill="white"/>
<path d="M47.7046 49.8582C47.9856 49.8515 48.2595 49.7698 48.4974 49.6217C48.9645 49.3256 49.3532 48.9229 49.6308 48.4475C49.9084 47.972 50.067 47.4376 50.0932 46.889C50.1295 46.6585 50.0946 46.4225 49.9931 46.2119C49.8916 46.0014 49.7282 45.8261 49.5244 45.7091C49.3205 45.5921 49.0857 45.5389 48.8508 45.5563C48.6158 45.5738 48.3916 45.6612 48.2077 45.807C47.7408 46.1045 47.3525 46.5082 47.075 46.9844C46.7974 47.4606 46.6387 47.9955 46.6121 48.5447C46.5908 48.7736 46.6325 49.0039 46.7327 49.2113C46.8329 49.4186 46.9878 49.5952 47.1812 49.7223C47.34 49.8136 47.521 49.8606 47.7046 49.8582ZM49.0005 46.1492C49.0826 46.1477 49.1634 46.1686 49.2343 46.2096C49.3357 46.2897 49.4147 46.3942 49.4637 46.5131C49.5126 46.6321 49.5299 46.7615 49.5138 46.889C49.4849 47.336 49.3519 47.7703 49.1253 48.1579C48.8988 48.5455 48.5847 48.876 48.2077 49.1235C48.1053 49.2021 47.9838 49.2527 47.8554 49.2704C47.727 49.2881 47.5962 49.2721 47.476 49.2241C47.3745 49.1441 47.2955 49.0395 47.2466 48.9206C47.1976 48.8016 47.1804 48.6722 47.1964 48.5447C47.2244 48.0981 47.3565 47.664 47.5822 47.2763C47.8079 46.8886 48.1211 46.558 48.4974 46.3103C48.6478 46.2136 48.8214 46.158 49.0005 46.1492Z" fill="#171753"/>
</g>
<path d="M149 81L150.189 81L150.189 83.7711L149 83.7711L149 81ZM149 86.6411L150.189 86.6411L150.189 89.4122L149 89.4122L149 86.6411ZM149 92.1832L150.189 92.1832L150.189 94.9543L149 94.9543L149 92.1832Z" fill="#171753"/>
<path d="M42.2809 62.2579L60.342 51.8138C61.3793 51.203 62.2945 51.1419 63.0267 51.5084L63.7589 51.9359L68.9454 55.1119C68.9454 55.1119 69.0064 55.173 68.9454 55.173C68.7013 55.7227 66.2607 60.8531 66.0166 61.7693C65.8946 62.1968 65.1623 66.1057 64.2471 70.6254V72.8852C64.2471 74.1678 63.7589 75.5726 63.0267 76.8552C62.1115 81.6191 61.3182 85.6502 61.3182 85.7723L58.6335 92.0632C58.6335 92.1243 58.5725 92.1243 58.5115 92.1243L52.4097 88.5819C52.4097 88.5819 52.3487 88.5208 52.4097 88.5208L52.8368 87.2382C52.9589 86.6274 53.0199 85.9556 53.0809 85.2227L45.2707 93.8955H45.2097L39.5351 90.3531L39.4741 90.292C38.8029 89.8645 38.3757 89.0094 38.3757 87.7879V69.0984C38.3757 66.5943 40.1452 63.5405 42.2809 62.2579Z" fill="#5ED9D1"/>
<path d="M45.2708 94.5064C45.3928 94.5064 45.5148 94.4453 45.6369 94.3232L52.5318 86.6275C52.4708 86.8108 52.4708 87.0551 52.4098 87.2383L51.9827 88.4598C51.9217 88.7041 51.9827 88.9484 52.2267 89.0706L58.5115 92.7352L58.7556 92.6741C58.8776 92.613 58.9997 92.552 59.0607 92.3687L61.7454 85.9557C61.7454 85.8335 62.5387 81.8025 63.4539 77.0385C64.2472 75.6338 64.6743 74.229 64.6743 72.9464V70.6866C66.0167 63.7849 66.3828 62.0748 66.3828 61.8915C66.5658 61.1586 68.2743 57.4329 69.3116 55.3563C69.4336 55.112 69.3116 54.8677 69.1285 54.7456L63.2099 51.142C62.2946 50.7145 61.2573 50.8367 60.098 51.4474L42.0368 61.8915C39.7792 63.2352 37.8877 66.4112 37.8877 69.0986V88.0323C37.8877 89.376 38.3148 90.3532 39.169 90.9029C39.2301 90.964 39.23 90.964 39.2911 90.964L44.9657 94.4453C45.0877 94.5064 45.1487 94.5064 45.2708 94.5064ZM53.5691 84.1845L45.1487 93.5292L39.7182 90.17L39.4131 90.4754L39.6572 90.1089C39.047 89.7424 38.7419 89.0095 38.7419 87.9712V69.0986C38.7419 66.7777 40.4504 63.846 42.464 62.6855L60.5251 52.2414C61.3793 51.7528 62.1726 51.6307 62.7827 51.936L63.4539 52.3636L68.3353 55.4174C67.6641 56.8222 65.7116 60.9143 65.5285 61.8304C65.4675 62.1969 64.8573 65.1897 63.759 70.7476V70.8698V73.1296C63.759 74.2901 63.3319 75.6338 62.5997 76.8553L62.5387 76.9164V77.0385C61.6844 81.5582 60.8912 85.4671 60.8302 85.8946L58.3285 91.758L52.8369 88.582L53.203 87.4826C53.3251 86.8108 53.4471 86.0779 53.4471 85.4671L53.5691 84.1845Z" fill="#171753"/>
<path d="M42.3419 62.2581L59.2437 52.547L67.7251 57.8606L49.603 67.3886L45.8199 67.9993L39.9622 64.518C40.6334 63.6018 41.4266 62.8078 42.3419 62.2581Z" fill="white"/>
<path d="M45.759 68.4879L49.8472 67.816L68.6405 57.9216L59.3049 52.0583L42.159 61.9527C41.2437 62.5024 40.3895 63.2964 39.6573 64.3347L39.4132 64.7011L45.759 68.4879ZM49.4811 67.022L45.881 67.5717L40.5725 64.3958C41.1827 63.6628 41.7929 63.0521 42.5251 62.6245L59.1828 53.0355L66.871 57.8606L49.4811 67.022Z" fill="#171753"/>
<path d="M44.3555 71.114C44.3555 71.114 51.6776 72.8241 52.1047 73.0074C52.4708 73.1295 59.6709 78.9318 62.1116 81.6192C61.6234 84.1233 61.3184 85.8335 61.2573 85.8945L58.5726 92.1854C58.5726 92.2465 58.5115 92.2465 58.4505 92.2465L52.3488 88.7041C52.3488 88.7041 52.2878 88.643 52.3488 88.643L52.7759 87.3604C52.898 86.7496 52.959 86.0778 53.02 85.3448L45.2098 94.0177H45.1488L39.4741 90.4753L39.4131 90.4142C38.7419 89.9867 38.3148 89.1316 38.3148 87.9101V69.0985C38.3148 68.6099 38.3758 68.1823 38.4979 67.6937L44.3555 71.114Z" fill="#171753"/>
<path d="M39.0678 70.4391L43.4009 73.0635L43.1166 73.5338L38.7835 70.9094L39.0678 70.4391Z" fill="#5ED9D1"/>
<path d="M39.2092 87.3527L43.5424 89.9771L43.2581 90.4474L38.9249 87.823L39.2092 87.3527Z" fill="#5ED9D1"/>
<path d="M48.0776 65.8614L66.1387 55.4173C68.2743 54.1958 70.0438 55.173 70.0438 57.6772V76.6109C70.0438 79.1151 68.2743 82.1078 66.1387 83.3904L64.0641 84.5509C63.698 84.7952 63.3929 85.2227 63.2709 85.7113C63.0268 87.1161 62.2336 90.1088 59.3048 92.3076C58.7556 92.7351 58.2675 92.3687 58.4505 91.6357C58.6336 90.7196 58.8776 89.5591 58.8776 88.4598C58.8776 87.9711 58.5116 87.7879 58.0844 88.0322L48.0166 93.8345C45.881 95.056 44.1115 94.0788 44.1115 91.5747V72.6409C44.1725 70.1368 45.881 67.144 48.0776 65.8614Z" fill="#5ED9D1"/>
<path d="M46.3079 94.8117C46.9181 94.8117 47.5893 94.6284 48.2605 94.2009L58.3284 88.3986C58.3894 88.3375 58.4504 88.3375 58.4504 88.3375C58.4504 88.3375 58.4504 88.3986 58.4504 88.4597C58.4504 89.5591 58.2063 90.7806 58.0233 91.5746C57.9012 92.1243 58.0233 92.6129 58.3894 92.7961C58.6945 93.0404 59.1826 92.9794 59.5487 92.674C62.5386 90.4141 63.4538 87.4214 63.6979 85.8334C63.7589 85.528 64.003 85.1005 64.247 84.9783L66.3216 83.8179C68.5793 82.5353 70.4098 79.2982 70.4098 76.6719V57.7382C70.4098 56.3945 69.9217 55.3562 69.0674 54.8065C68.2132 54.3179 67.0538 54.379 65.8945 55.0508L47.8334 65.4949C45.5757 66.7775 43.7452 70.0146 43.7452 72.6409V91.5746C43.7452 92.9183 44.2333 93.9566 45.0876 94.5063C45.4537 94.6895 45.8808 94.8117 46.3079 94.8117ZM58.5114 87.4825C58.3284 87.4825 58.1453 87.5435 57.9622 87.6657L47.8944 93.468C46.9791 94.0177 46.1859 94.0787 45.5757 93.7123C44.9656 93.3458 44.6605 92.6129 44.6605 91.5746V72.6409C44.6605 70.32 46.3079 67.4494 48.3215 66.2278L66.3826 55.7837C67.2979 55.234 68.0911 55.173 68.7013 55.5394C69.3115 55.9059 69.6166 56.6388 69.6166 57.6771V76.6108C69.6166 78.9318 67.9691 81.8023 65.9555 83.0239L63.8809 84.1843C63.3928 84.4897 63.0267 85.0394 62.9047 85.6502C62.6606 87.116 61.8674 89.9255 59.1216 91.941C58.9995 92.0021 58.9385 92.0632 58.9385 92.0632C58.9385 92.0632 58.9385 91.9411 58.9385 91.7578C59.1216 90.9028 59.3657 89.6812 59.3657 88.4597C59.3657 88.0932 59.1826 87.7268 58.9385 87.6046C58.7555 87.5435 58.6334 87.4825 58.5114 87.4825Z" fill="#171753"/>
<path d="M54.1793 76.3057C54.1793 78.138 55.4606 78.932 57.0471 77.9548C58.6335 77.0386 59.9149 74.7788 59.9149 72.9465C59.9149 71.1142 58.6335 70.3202 57.0471 71.2974C55.5217 72.2136 54.1793 74.4734 54.1793 76.3057Z" fill="#5ED9D1"/>
<path d="M52.5971 71.4841C55.2507 67.7494 58.1009 69.2236 58.7888 70.1081C59.4768 68.4373 62.4252 63.6216 64.9805 64.3095C67.7324 65.0958 67.1427 68.3391 65.8651 72.172C64.784 75.317 59.9682 83.5726 58.8871 85.3417C58.7888 85.5382 58.5923 85.6365 58.494 85.5382C57.2163 84.8503 52.7937 82.295 51.7126 80.3294C50.4349 78.0689 49.8452 75.4153 52.5971 71.4841Z" fill="white"/>
<path d="M58.5925 86.3242C58.8874 86.3242 59.2805 86.1276 59.477 85.7345C60.853 83.3758 65.3739 75.5133 66.455 72.4666C67.6344 68.9284 67.9292 66.668 67.143 65.292C66.7498 64.5058 66.0619 64.0144 65.0791 63.7195C62.3272 62.9333 59.5753 66.7663 58.4942 69.0267C57.9045 68.6336 57.2166 68.437 56.3321 68.437C55.251 68.437 53.5802 68.9284 52.0077 71.1889C48.8627 75.7098 49.8455 78.6583 51.1232 80.8205C52.3025 82.8844 56.4303 85.3414 58.1994 86.3242C58.396 86.3242 58.4942 86.3242 58.5925 86.3242ZM64.4894 64.8989C64.5877 64.8989 64.6859 64.8989 64.8825 64.8989C65.4722 65.0955 65.8653 65.3903 66.0619 65.7834C66.7498 67.1594 65.9636 69.9113 65.2756 71.8769C64.2928 74.8253 59.7719 82.5895 58.4942 84.6534C55.9389 83.1792 53.0888 81.2136 52.3025 79.9359C51.2214 78.0686 50.4352 75.6116 53.1871 71.7786C54.1699 70.4027 55.251 69.6164 56.4303 69.6164C57.4131 69.6164 58.1011 70.1078 58.2977 70.4027L58.4942 70.6975L59.2805 70.5992L59.477 70.2061C60.165 68.6336 62.622 64.8989 64.4894 64.8989Z" fill="#171753"/>
<path d="M132.588 133.981C132.833 133.84 133.078 133.698 133.369 133.639C133.743 133.532 134.176 133.718 134.412 134.126L135.827 136.578C135.969 136.823 136.226 136.892 136.471 136.751C136.715 136.61 136.784 136.352 136.643 136.107L135.275 133.737L134.944 133.165C134.048 131.613 134.435 129.646 135.855 128.717C136.182 128.529 136.508 128.341 136.928 128.316C137.302 128.209 137.653 128.442 137.842 128.769L140.673 133.671C140.814 133.916 141.071 133.986 141.316 133.844C141.561 133.703 141.629 133.446 141.488 133.2L137.856 126.909C137.088 125.391 137.522 123.506 138.779 122.671C139.106 122.483 139.432 122.295 139.852 122.27C140.226 122.163 140.577 122.396 140.766 122.723L145.483 130.894C145.625 131.139 145.882 131.208 146.127 131.067C146.372 130.926 146.44 130.668 146.299 130.423L140.779 120.863L140.732 120.781L137.383 114.98C136.487 113.428 136.873 111.461 138.294 110.532C138.981 110.027 139.903 109.93 140.757 110.09C141.611 110.251 142.362 110.798 142.786 111.534L151.466 126.568L156.467 135.229C156.608 135.474 156.866 135.543 157.11 135.402C157.355 135.261 157.424 135.003 157.282 134.758L152.187 125.934C151.999 125.607 152.055 125.139 152.286 124.787C152.565 124.517 152.763 124.294 153.136 124.187C154.651 123.422 156.5 123.988 157.444 125.622L162.539 134.447C164.143 137.225 164.708 140.276 164.364 143.634C163.779 147.894 161.134 151.599 157.22 153.859C156.405 154.33 155.542 154.719 154.633 155.026C149.874 156.576 144.811 155.904 141.091 153.039C139.894 152.096 138.813 150.977 137.977 149.717L131.291 138.325C130.524 136.807 131.039 134.875 132.588 133.981ZM152.26 128.507C152.212 128.425 152.212 128.425 152.26 128.507V128.507ZM143.121 123.978C143.074 123.896 142.993 123.943 143.121 123.978V123.978ZM140.116 130.071C140.069 129.989 139.987 130.036 140.116 130.071V130.071ZM136.639 135.347C136.591 135.265 136.51 135.312 136.639 135.347V135.347Z" fill="white"/>
<path d="M71.0605 204.38C70.0072 204.38 69.0805 204.173 68.2805 203.76C67.4805 203.347 66.8605 202.74 66.4205 201.94C65.9805 201.14 65.7605 200.16 65.7605 199V198.36H68.5805V199.24C68.5805 200.013 68.8072 200.627 69.2605 201.08C69.7139 201.52 70.3072 201.74 71.0405 201.74C71.7872 201.74 72.3805 201.52 72.8205 201.08C73.2739 200.627 73.5005 200.013 73.5005 199.24V191.5H76.3405V199C76.3405 200.16 76.1205 201.14 75.6805 201.94C75.2405 202.74 74.6272 203.347 73.8405 203.76C73.0539 204.173 72.1272 204.38 71.0605 204.38ZM67.5405 191.9V189.4H76.3405V191.9H67.5405ZM84.6926 204.38C83.7326 204.38 82.8859 204.227 82.1526 203.92C81.4192 203.613 80.7992 203.2 80.2926 202.68C79.7859 202.147 79.3992 201.547 79.1326 200.88C78.8792 200.213 78.7526 199.52 78.7526 198.8V198.38C78.7526 197.633 78.8859 196.927 79.1526 196.26C79.4326 195.58 79.8259 194.98 80.3326 194.46C80.8526 193.927 81.4792 193.513 82.2126 193.22C82.9459 192.913 83.7726 192.76 84.6926 192.76C85.6126 192.76 86.4392 192.913 87.1726 193.22C87.9059 193.513 88.5259 193.927 89.0326 194.46C89.5526 194.98 89.9459 195.58 90.2126 196.26C90.4792 196.927 90.6126 197.633 90.6126 198.38V198.8C90.6126 199.52 90.4792 200.213 90.2126 200.88C89.9592 201.547 89.5792 202.147 89.0726 202.68C88.5659 203.2 87.9459 203.613 87.2126 203.92C86.4792 204.227 85.6392 204.38 84.6926 204.38ZM84.6926 202C85.3726 202 85.9459 201.853 86.4126 201.56C86.8792 201.253 87.2326 200.847 87.4726 200.34C87.7126 199.82 87.8326 199.233 87.8326 198.58C87.8326 197.913 87.7059 197.327 87.4526 196.82C87.2126 196.3 86.8526 195.893 86.3726 195.6C85.9059 195.293 85.3459 195.14 84.6926 195.14C84.0392 195.14 83.4726 195.293 82.9926 195.6C82.5259 195.893 82.1659 196.3 81.9126 196.82C81.6592 197.327 81.5326 197.913 81.5326 198.58C81.5326 199.233 81.6526 199.82 81.8926 200.34C82.1459 200.847 82.5059 201.253 82.9726 201.56C83.4392 201.853 84.0126 202 84.6926 202ZM93.5668 204V193.14H96.3468V204H93.5668ZM92.0468 195.22V193.14H96.3468V195.22H92.0468ZM94.5868 191.84C94.0401 191.84 93.6335 191.7 93.3668 191.42C93.1135 191.127 92.9868 190.767 92.9868 190.34C92.9868 189.887 93.1135 189.52 93.3668 189.24C93.6335 188.96 94.0401 188.82 94.5868 188.82C95.1335 188.82 95.5335 188.96 95.7868 189.24C96.0401 189.52 96.1668 189.887 96.1668 190.34C96.1668 190.767 96.0401 191.127 95.7868 191.42C95.5335 191.7 95.1335 191.84 94.5868 191.84ZM99.5507 204V193.14H101.751V197.8H101.551C101.551 196.693 101.697 195.773 101.991 195.04C102.284 194.293 102.717 193.733 103.291 193.36C103.877 192.987 104.604 192.8 105.471 192.8H105.591C106.884 192.8 107.864 193.22 108.531 194.06C109.197 194.887 109.531 196.127 109.531 197.78V204H106.751V197.54C106.751 196.873 106.557 196.333 106.171 195.92C105.797 195.507 105.277 195.3 104.611 195.3C103.931 195.3 103.377 195.513 102.951 195.94C102.537 196.353 102.331 196.913 102.331 197.62V204H99.5507ZM34.5441 228.14C33.5441 228.14 32.7175 228.013 32.0641 227.76C31.4241 227.493 30.9441 227.053 30.6241 226.44C30.3041 225.813 30.1441 224.973 30.1441 223.92L30.1641 214.08H32.7641L32.7441 224.1C32.7441 224.633 32.8841 225.047 33.1641 225.34C33.4575 225.62 33.8708 225.76 34.4041 225.76H36.1041V228.14H34.5441ZM28.4241 219.18V217.14H36.1041V219.18H28.4241ZM38.4374 228V213.4H41.2174V221.92H40.7374C40.7374 220.827 40.8774 219.9 41.1574 219.14C41.4374 218.38 41.8508 217.8 42.3974 217.4C42.9574 217 43.6641 216.8 44.5174 216.8H44.6374C45.8774 216.8 46.8174 217.227 47.4574 218.08C48.0974 218.933 48.4174 220.173 48.4174 221.8V228H45.6374V221.54C45.6374 220.847 45.4374 220.3 45.0374 219.9C44.6508 219.5 44.1374 219.3 43.4974 219.3C42.8174 219.3 42.2641 219.527 41.8374 219.98C41.4241 220.42 41.2174 221 41.2174 221.72V228H38.4374ZM56.2662 228.38C55.3328 228.38 54.5128 228.22 53.8062 227.9C53.1128 227.58 52.5328 227.153 52.0662 226.62C51.6128 226.073 51.2662 225.467 51.0262 224.8C50.7995 224.133 50.6862 223.453 50.6862 222.76V222.38C50.6862 221.66 50.7995 220.967 51.0262 220.3C51.2662 219.62 51.6128 219.02 52.0662 218.5C52.5328 217.967 53.1062 217.547 53.7862 217.24C54.4662 216.92 55.2528 216.76 56.1462 216.76C57.3195 216.76 58.2995 217.02 59.0862 217.54C59.8862 218.047 60.4862 218.72 60.8862 219.56C61.2862 220.387 61.4862 221.28 61.4862 222.24V223.24H51.8662V221.54H59.7462L58.8862 222.38C58.8862 221.687 58.7862 221.093 58.5862 220.6C58.3862 220.107 58.0795 219.727 57.6662 219.46C57.2662 219.193 56.7595 219.06 56.1462 219.06C55.5328 219.06 55.0128 219.2 54.5862 219.48C54.1595 219.76 53.8328 220.167 53.6062 220.7C53.3928 221.22 53.2862 221.847 53.2862 222.58C53.2862 223.26 53.3928 223.867 53.6062 224.4C53.8195 224.92 54.1462 225.333 54.5862 225.64C55.0262 225.933 55.5862 226.08 56.2662 226.08C56.9462 226.08 57.4995 225.947 57.9262 225.68C58.3528 225.4 58.6262 225.06 58.7462 224.66H61.3062C61.1462 225.407 60.8395 226.06 60.3862 226.62C59.9328 227.18 59.3528 227.613 58.6462 227.92C57.9528 228.227 57.1595 228.38 56.2662 228.38ZM70.7849 228.08V225.44H73.8049C74.5649 225.44 75.2383 225.327 75.8249 225.1C76.4249 224.86 76.9316 224.527 77.3449 224.1C77.7583 223.673 78.0716 223.173 78.2849 222.6C78.5116 222.013 78.6249 221.367 78.6249 220.66C78.6249 219.927 78.5116 219.273 78.2849 218.7C78.0716 218.113 77.7583 217.613 77.3449 217.2C76.9316 216.787 76.4249 216.473 75.8249 216.26C75.2383 216.047 74.5649 215.94 73.8049 215.94H70.7849V213.3H73.6249C74.9449 213.3 76.0983 213.493 77.0849 213.88C78.0716 214.267 78.8916 214.8 79.5449 215.48C80.1983 216.147 80.6849 216.913 81.0049 217.78C81.3383 218.633 81.5049 219.52 81.5049 220.44V220.88C81.5049 221.76 81.3383 222.627 81.0049 223.48C80.6849 224.333 80.1983 225.107 79.5449 225.8C78.8916 226.493 78.0716 227.047 77.0849 227.46C76.0983 227.873 74.9449 228.08 73.6249 228.08H70.7849ZM68.3449 228.08V213.3H71.1849V228.08H68.3449ZM84.348 228V217.14H87.128V228H84.348ZM82.828 219.22V217.14H87.128V219.22H82.828ZM85.368 215.84C84.8214 215.84 84.4147 215.7 84.148 215.42C83.8947 215.127 83.768 214.767 83.768 214.34C83.768 213.887 83.8947 213.52 84.148 213.24C84.4147 212.96 84.8214 212.82 85.368 212.82C85.9147 212.82 86.3147 212.96 86.568 213.24C86.8214 213.52 86.948 213.887 86.948 214.34C86.948 214.767 86.8214 215.127 86.568 215.42C86.3147 215.7 85.9147 215.84 85.368 215.84ZM94.272 228.34C92.7786 228.34 91.6053 228.027 90.752 227.4C89.912 226.76 89.472 225.88 89.432 224.76H91.932C91.972 225.133 92.1786 225.473 92.552 225.78C92.9253 226.087 93.512 226.24 94.312 226.24C94.9786 226.24 95.5053 226.12 95.892 225.88C96.292 225.64 96.492 225.313 96.492 224.9C96.492 224.54 96.3386 224.253 96.032 224.04C95.7386 223.827 95.232 223.687 94.512 223.62L93.552 223.52C92.3386 223.387 91.4053 223.04 90.752 222.48C90.0986 221.92 89.772 221.173 89.772 220.24C89.772 219.493 89.9586 218.867 90.332 218.36C90.7053 217.853 91.2186 217.473 91.872 217.22C92.5386 216.953 93.2986 216.82 94.152 216.82C95.4853 216.82 96.5653 217.113 97.392 217.7C98.2186 218.287 98.652 219.147 98.692 220.28H96.192C96.1653 219.907 95.9786 219.587 95.632 219.32C95.2853 219.053 94.7853 218.92 94.132 218.92C93.5453 218.92 93.092 219.033 92.772 219.26C92.452 219.487 92.292 219.78 92.292 220.14C92.292 220.487 92.4186 220.753 92.672 220.94C92.9386 221.127 93.3653 221.253 93.952 221.32L94.912 221.42C96.192 221.553 97.192 221.907 97.912 222.48C98.6453 223.053 99.012 223.827 99.012 224.8C99.012 225.52 98.812 226.147 98.412 226.68C98.0253 227.2 97.4786 227.607 96.772 227.9C96.0653 228.193 95.232 228.34 94.272 228.34ZM106.129 228.38C105.182 228.38 104.362 228.22 103.669 227.9C102.989 227.58 102.415 227.153 101.949 226.62C101.495 226.087 101.155 225.487 100.929 224.82C100.702 224.153 100.589 223.473 100.589 222.78V222.4C100.589 221.667 100.702 220.967 100.929 220.3C101.169 219.62 101.522 219.02 101.989 218.5C102.455 217.967 103.029 217.547 103.709 217.24C104.402 216.92 105.202 216.76 106.109 216.76C107.055 216.76 107.902 216.947 108.649 217.32C109.395 217.68 109.989 218.187 110.429 218.84C110.882 219.493 111.135 220.253 111.189 221.12H108.489C108.422 220.56 108.182 220.093 107.769 219.72C107.369 219.347 106.815 219.16 106.109 219.16C105.495 219.16 104.982 219.307 104.569 219.6C104.169 219.893 103.869 220.3 103.669 220.82C103.469 221.327 103.369 221.913 103.369 222.58C103.369 223.22 103.462 223.8 103.649 224.32C103.849 224.84 104.149 225.247 104.549 225.54C104.962 225.833 105.489 225.98 106.129 225.98C106.609 225.98 107.022 225.893 107.369 225.72C107.715 225.547 107.989 225.307 108.189 225C108.402 224.693 108.535 224.347 108.589 223.96H111.289C111.235 224.84 110.975 225.613 110.509 226.28C110.055 226.933 109.449 227.447 108.689 227.82C107.942 228.193 107.089 228.38 106.129 228.38ZM118.736 228.38C117.776 228.38 116.929 228.227 116.196 227.92C115.462 227.613 114.842 227.2 114.336 226.68C113.829 226.147 113.442 225.547 113.176 224.88C112.922 224.213 112.796 223.52 112.796 222.8V222.38C112.796 221.633 112.929 220.927 113.196 220.26C113.476 219.58 113.869 218.98 114.376 218.46C114.896 217.927 115.522 217.513 116.256 217.22C116.989 216.913 117.816 216.76 118.736 216.76C119.656 216.76 120.482 216.913 121.216 217.22C121.949 217.513 122.569 217.927 123.076 218.46C123.596 218.98 123.989 219.58 124.256 220.26C124.522 220.927 124.656 221.633 124.656 222.38V222.8C124.656 223.52 124.522 224.213 124.256 224.88C124.002 225.547 123.622 226.147 123.116 226.68C122.609 227.2 121.989 227.613 121.256 227.92C120.522 228.227 119.682 228.38 118.736 228.38ZM118.736 226C119.416 226 119.989 225.853 120.456 225.56C120.922 225.253 121.276 224.847 121.516 224.34C121.756 223.82 121.876 223.233 121.876 222.58C121.876 221.913 121.749 221.327 121.496 220.82C121.256 220.3 120.896 219.893 120.416 219.6C119.949 219.293 119.389 219.14 118.736 219.14C118.082 219.14 117.516 219.293 117.036 219.6C116.569 219.893 116.209 220.3 115.956 220.82C115.702 221.327 115.576 221.913 115.576 222.58C115.576 223.233 115.696 223.82 115.936 224.34C116.189 224.847 116.549 225.253 117.016 225.56C117.482 225.853 118.056 226 118.736 226ZM127.09 228V217.14H129.29V221.74H129.23C129.23 220.18 129.563 219 130.23 218.2C130.896 217.4 131.876 217 133.17 217H133.57V219.42H132.81C131.876 219.42 131.15 219.673 130.63 220.18C130.123 220.673 129.87 221.393 129.87 222.34V228H127.09ZM139.851 228.36C139.091 228.36 138.391 228.22 137.751 227.94C137.111 227.66 136.558 227.267 136.091 226.76C135.625 226.253 135.265 225.667 135.011 225C134.758 224.32 134.631 223.587 134.631 222.8V222.38C134.631 221.607 134.751 220.88 134.991 220.2C135.245 219.52 135.591 218.927 136.031 218.42C136.485 217.913 137.025 217.52 137.651 217.24C138.291 216.947 138.998 216.8 139.771 216.8C140.625 216.8 141.371 216.987 142.011 217.36C142.665 217.72 143.185 218.267 143.571 219C143.958 219.733 144.171 220.653 144.211 221.76L143.391 220.8V213.4H146.171V228H143.971V223.38H144.451C144.411 224.487 144.185 225.413 143.771 226.16C143.358 226.893 142.811 227.447 142.131 227.82C141.465 228.18 140.705 228.36 139.851 228.36ZM140.471 226.02C141.018 226.02 141.518 225.9 141.971 225.66C142.425 225.407 142.785 225.047 143.051 224.58C143.331 224.1 143.471 223.54 143.471 222.9V222.1C143.471 221.46 143.331 220.927 143.051 220.5C142.771 220.06 142.405 219.727 141.951 219.5C141.498 219.26 141.005 219.14 140.471 219.14C139.871 219.14 139.338 219.287 138.871 219.58C138.418 219.86 138.058 220.26 137.791 220.78C137.538 221.3 137.411 221.907 137.411 222.6C137.411 223.293 137.545 223.9 137.811 224.42C138.078 224.927 138.438 225.32 138.891 225.6C139.358 225.88 139.885 226.02 140.471 226.02Z" fill="#171753"/>
</g>
<defs>
<clipPath id="clip0_2520_870">
<rect width="250" height="180" fill="white" transform="translate(180 1.52588e-05) rotate(90)"/>
</clipPath>
<clipPath id="clip1_2520_870">
<rect width="19.6263" height="34.2568" fill="white" transform="matrix(-1 0 0 1 53.6262 28)"/>
</clipPath>
<clipPath id="clip2_2520_870">
<rect width="19.6263" height="34.2568" fill="white" transform="matrix(-1 0 0 1 59.3116 35.8173)"/>
</clipPath>
</defs>
</svg>
