<svg width="300" height="180" viewBox="0 0 300 180" fill="none" xmlns="http://www.w3.org/2000/svg">
<rect width="300" height="180" fill="#5ED9D1"/>
<path d="M270.099 85.6618L212.871 52.7265C212.539 52.5196 212.249 52.0231 212.249 51.568V9.77825C212.249 9.32312 212.539 9.11624 212.871 9.32312L270.099 42.2584C270.431 42.4653 270.721 42.9618 270.721 43.4169V85.2066C270.721 85.6618 270.431 85.8686 270.099 85.6618Z" fill="#DCF7F5"/>
<path d="M270.348 85.9514C270.224 85.9514 270.099 85.9101 269.975 85.8273L212.747 52.9334C212.332 52.6852 212 52.1059 212 51.568V9.77834C212 9.44733 212.124 9.19908 212.332 9.07495C212.498 8.95082 212.747 8.9922 212.954 9.11632L270.182 42.0516C270.597 42.2998 270.929 42.8791 270.929 43.417V85.2067C270.929 85.5377 270.805 85.7859 270.597 85.9101C270.514 85.9514 270.431 85.9514 270.348 85.9514ZM270.224 85.4549C270.265 85.4549 270.348 85.4963 270.39 85.4963C270.431 85.4549 270.473 85.3722 270.473 85.2067V43.417C270.473 43.0446 270.224 42.5895 269.975 42.4653L212.747 9.48871C212.705 9.48871 212.622 9.44733 212.581 9.44733C212.539 9.48871 212.498 9.57146 212.498 9.73696V51.5267C212.498 51.899 212.747 52.3542 212.996 52.4783L270.224 85.4549Z" fill="#171753"/>
<path d="M261.099 94.6621L203.871 61.7268C203.539 61.5199 203.249 61.0234 203.249 60.5683V18.7786C203.249 18.3234 203.539 18.1165 203.871 18.3234L261.099 51.2587C261.431 51.4656 261.721 51.9621 261.721 52.4172V94.2069C261.721 94.6621 261.431 94.8689 261.099 94.6621Z" fill="#BEF0ED"/>
<path d="M261.348 94.9928C261.224 94.9928 261.099 94.9515 260.975 94.8687L203.747 61.9335C203.332 61.6852 203 61.1059 203 60.5681V18.7783C203 18.4473 203.124 18.1991 203.332 18.0749C203.498 17.9508 203.747 17.9922 203.954 18.1163L261.182 51.0516C261.597 51.2998 261.929 51.8791 261.929 52.417V94.2067C261.929 94.5377 261.805 94.786 261.597 94.9101C261.556 94.9515 261.431 94.9928 261.348 94.9928ZM261.224 94.455C261.265 94.455 261.348 94.4963 261.39 94.4963C261.431 94.455 261.473 94.3722 261.473 94.2067V52.417C261.473 52.0446 261.224 51.5895 260.975 51.4653L203.747 18.4887C203.705 18.4887 203.622 18.4473 203.581 18.4473C203.539 18.4887 203.498 18.5715 203.498 18.737V60.5267C203.498 60.8991 203.747 61.3542 203.996 61.4783L261.224 94.455Z" fill="#171753"/>
<path d="M225.191 54.5843L231.521 58.2362V50.9324L225.191 47.2805V54.5843Z" fill="#BEF0ED" stroke="#171753" stroke-width="0.794009" stroke-miterlimit="10" stroke-linejoin="round"/>
<path d="M216.67 49.6568L223 53.3087V46.0049L216.67 42.353V49.6568Z" fill="#BEF0ED" stroke="#171753" stroke-width="0.794009" stroke-miterlimit="10" stroke-linejoin="round"/>
<path d="M208.149 44.5288L214.479 48.1807V40.8769L208.149 37.225V44.5288Z" fill="#BEF0ED" stroke="#171753" stroke-width="0.794009" stroke-miterlimit="10" stroke-linejoin="round"/>
<path d="M225.191 44.0669L231.521 47.7187V40.415L225.191 36.7631V44.0669Z" fill="#BEF0ED" stroke="#171753" stroke-width="0.794009" stroke-miterlimit="10" stroke-linejoin="round"/>
<path d="M216.67 39.1392L223 42.7911V35.4873L216.67 31.8354V39.1392Z" fill="#BEF0ED" stroke="#171753" stroke-width="0.794009" stroke-miterlimit="10" stroke-linejoin="round"/>
<path d="M208.149 34.0112L214.479 37.6631V30.3593L208.149 26.7074V34.0112Z" fill="#BEF0ED" stroke="#171753" stroke-width="0.794009" stroke-miterlimit="10" stroke-linejoin="round"/>
<rect width="9.99878" height="0.447707" transform="matrix(0.866025 0.5 0 1 248.133 49.6029)" fill="#171753"/>
<rect width="8.05872" height="0.447707" transform="matrix(0.866025 0.5 0 1 248.133 50.6475)" fill="#171753"/>
<rect width="11.1927" height="0.447707" transform="matrix(0.866025 0.5 0 1 248.133 51.6923)" fill="#171753"/>
<rect width="8.05872" height="0.447707" transform="matrix(0.866025 0.5 0 1 248.133 56.02)" fill="#171753"/>
<rect width="2.537" height="0.447707" transform="matrix(0.866025 0.5 0 1 248.133 54.8261)" fill="#171753"/>
<rect width="2.537" height="0.447707" transform="matrix(0.866025 0.5 0 1 248.133 58.7064)" fill="#171753"/>
<rect width="2.537" height="0.447707" transform="matrix(0.866025 0.5 0 1 248.133 62.5864)" fill="#171753"/>
<rect width="11.1927" height="1.49236" rx="0.746178" transform="matrix(0.866025 0.5 0 1 248.133 60.321)" stroke="#171753" stroke-width="0.56715"/>
<rect width="11.1927" height="1.49236" rx="0.746178" transform="matrix(0.866025 0.5 0 1 248.133 64.3506)" stroke="#171753" stroke-width="0.56715"/>
<path d="M248.133 68.2267C248.133 67.9668 248.316 67.8615 248.541 67.9915L252.896 70.5056C253.121 70.6355 253.303 70.9516 253.303 71.2115V71.7627C253.303 72.0225 253.121 72.1279 252.896 71.9979L248.541 69.4838C248.316 69.3539 248.133 69.0378 248.133 68.7779V68.2267Z" fill="#5ED9D1"/>
<rect x="0.343816" y="0.595507" width="10.8464" height="18.1541" rx="0.779436" transform="matrix(0.866025 0.5 0 1 235.229 42.2365)" fill="#5ED9D1" stroke="#171753" stroke-width="0.794009"/>
<rect width="5.67095" height="0.447707" transform="matrix(0.866025 0.5 0 1 248.133 52.7368)" fill="#171753"/>
<circle cx="0.522324" cy="0.522324" r="0.522324" transform="matrix(0.866025 0.5 0 1 248.133 55.7216)" fill="#171753"/>
<circle cx="0.522324" cy="0.522324" r="0.522324" transform="matrix(0.866025 0.5 0 1 254.596 59.4525)" fill="#171753"/>
<path d="M250.042 60.9992L250.039 60.9973L194.52 28.7341C193.817 28.3258 193.233 28.3143 192.843 28.5303C192.457 28.7447 192.166 29.237 192.166 30.0503L192.166 30.0516L191.972 69.9906C191.972 69.991 191.972 69.9915 191.972 69.9919C191.972 70.8071 192.257 71.7315 192.731 72.5628C193.205 73.3946 193.854 74.1068 194.554 74.5137L194.554 74.5138L250.073 106.777C250.776 107.185 251.36 107.197 251.75 106.981C252.137 106.766 252.427 106.274 252.427 105.461L252.427 105.459L252.67 65.5204C252.67 65.5201 252.67 65.5199 252.67 65.5196C252.67 64.7044 252.385 63.7802 251.906 62.9495C251.426 62.1186 250.766 61.4065 250.042 60.9992Z" fill="#E8EAEA" stroke="#171753" stroke-width="0.551929"/>
<path d="M199.348 79.7672H197.745V77.5807H199.348V79.7672Z" fill="#E8EAEA"/>
<path d="M193.748 77.8753L193.784 77.8137L193.748 77.8753C193.009 77.4459 192.027 77.229 191.04 77.229C190.053 77.229 189.071 77.4459 188.331 77.8753L188.331 77.8754L188.328 77.8771L149.071 98.0218V101.522C149.118 102.027 149.44 102.542 150.153 102.97C150.153 102.97 150.154 102.97 150.154 102.97L205.72 135.233C206.46 135.663 207.442 135.88 208.429 135.886C209.416 135.892 210.399 135.687 211.138 135.281C211.139 135.281 211.139 135.281 211.139 135.281L249.266 113.271C249.267 113.271 249.267 113.271 249.267 113.271C249.98 112.843 250.302 112.328 250.349 111.823V108.35H249.083V109.883V110.006L248.976 109.944L193.748 77.8753Z" fill="#171753" stroke="#171753" stroke-width="0.142481"/>
<path d="M198.809 77.6105L198.17 77.9593L197.738 78.1946L198.164 78.4405L238.528 101.763L238.666 101.843L238.804 101.763L239.588 101.309L249.213 106.913L249.219 106.917L249.219 106.917C249.916 107.299 250.205 107.792 250.205 108.236C250.205 108.682 249.913 109.188 249.214 109.594C249.213 109.594 249.213 109.594 249.213 109.594L211.084 131.605L211.084 131.605C210.383 132.012 209.439 132.224 208.479 132.218C207.52 132.212 206.577 131.989 205.878 131.56L205.872 131.557L205.872 131.557L150.305 99.2936C149.604 98.8869 149.313 98.3812 149.313 97.9348C149.313 97.4906 149.602 96.9981 150.299 96.6159L150.304 96.613L150.304 96.6129L188.434 74.602L188.434 74.6016C189.135 74.1948 190.08 73.983 191.04 73.983C192 73.983 192.945 74.1947 193.645 74.6014L198.809 77.6105ZM198.809 77.6105L193.646 74.6016L198.809 77.6105Z" fill="#E8EAEA" stroke="#171753" stroke-width="0.551929"/>
<path d="M193.833 27.6211C194.076 27.4753 194.367 27.3295 194.61 27.1838C195.096 26.8922 195.824 26.9408 196.553 27.3781L252.12 59.6413C253.626 60.5159 254.841 62.6539 254.841 64.4031L254.646 104.295C254.646 105.169 254.355 105.753 253.821 106.044C253.141 106.433 252.509 106.821 251.878 107.162C252.363 106.87 252.655 106.287 252.655 105.412L252.898 65.5692C252.898 63.82 251.683 61.6821 250.178 60.8075L194.61 28.4957C193.833 28.0584 193.153 28.0098 192.667 28.3013C192.716 28.2527 193.542 27.7668 193.833 27.6211Z" fill="#171753"/>
<path d="M193.104 85.2488L189.219 87.4839L193.202 89.8162L197.087 87.5811L193.104 85.2488Z" fill="#171753"/>
<path d="M186.936 87.1429L183.098 89.3295L187.081 91.6617L190.919 89.4752L186.936 87.1429Z" fill="#171753"/>
<path d="M181.398 84.1801L176.93 86.7553L174.355 88.213L173.044 88.9904L179.795 92.8776L183.633 90.6911L181.593 89.4763L186.013 86.9011L181.398 84.1801Z" fill="#171753"/>
<path d="M191.404 89.7664L187.567 91.9529L191.55 94.2851L195.387 92.0986L191.404 89.7664Z" fill="#171753"/>
<path d="M172.169 89.4763L168.332 91.7114L176.541 96.5217L180.378 94.2866L172.169 89.4763Z" fill="#171753"/>
<path d="M180.767 94.5298L176.93 96.7163L183.147 100.36L187.033 98.1254L180.767 94.5298Z" fill="#171753"/>
<path d="M193.056 96.1811L189.219 98.4162L193.201 100.748L197.039 98.5134L193.056 96.1811Z" fill="#171753"/>
<path d="M191.064 78.5922L187.227 80.8273L191.21 83.1595L195.096 80.9244L191.064 78.5922Z" fill="#171753"/>
<path d="M195.824 81.3613L191.987 83.5964L195.97 85.9287L199.807 83.6936L195.824 81.3613Z" fill="#171753"/>
<path d="M186.353 81.3129L182.516 83.548L188.684 87.1436L192.522 84.9571L186.353 81.3129Z" fill="#171753"/>
<path d="M200.585 84.1319L196.699 86.367L200.682 88.6993L204.568 86.4642L200.585 84.1319Z" fill="#171753"/>
<path d="M205.296 86.95L201.459 89.1365L205.442 91.4687L209.279 89.2822L205.296 86.95Z" fill="#171753"/>
<path d="M197.621 87.9207L193.784 90.1072L197.767 92.4394L201.604 90.2043L197.621 87.9207Z" fill="#171753"/>
<path d="M210.057 89.7181L206.171 91.9047L210.202 94.2369L214.039 92.0018L210.057 89.7181Z" fill="#171753"/>
<path d="M202.139 90.5443L198.302 92.7794L202.285 95.1116L206.122 92.8765L202.139 90.5443Z" fill="#171753"/>
<path d="M184.167 90.9813L180.281 93.2164L184.264 95.5487L188.15 93.3136L184.167 90.9813Z" fill="#171753"/>
<path d="M214.817 92.4406L210.931 94.6757L214.914 97.0079L218.8 94.8214L214.817 92.4406Z" fill="#171753"/>
<path d="M195.921 92.3915L192.036 94.578L196.019 96.9103L199.856 94.6752L195.921 92.3915Z" fill="#171753"/>
<path d="M206.705 93.2176L202.819 95.4041L206.802 97.7364L210.688 95.5499L206.705 93.2176Z" fill="#171753"/>
<path d="M188.636 93.6065L184.799 95.8416L188.733 98.1253L192.619 95.9388L188.636 93.6065Z" fill="#171753"/>
<path d="M200.39 94.9661L196.504 97.2012L200.487 99.5335L204.373 97.2984L200.39 94.9661Z" fill="#171753"/>
<path d="M219.528 95.2578L215.691 97.4443L219.674 99.7766L223.511 97.59L219.528 95.2578Z" fill="#171753"/>
<path d="M211.222 95.8412L207.385 98.0763L211.368 100.409L215.205 98.1735L211.222 95.8412Z" fill="#171753"/>
<path d="M204.859 97.5898L201.022 99.8249L205.005 102.157L208.842 99.9221L204.859 97.5898Z" fill="#171753"/>
<path d="M224.288 98.0276L220.451 100.214L224.434 102.546L228.271 100.36L224.288 98.0276Z" fill="#171753"/>
<path d="M215.739 98.5129L211.902 100.699L215.885 103.032L219.771 100.845L215.739 98.5129Z" fill="#171753"/>
<path d="M197.719 98.9019L193.833 101.088L197.816 103.421L201.702 101.234L197.719 98.9019Z" fill="#171753"/>
<path d="M209.328 100.214L205.491 102.449L209.474 104.782L213.359 102.546L209.328 100.214Z" fill="#171753"/>
<path d="M229.048 100.797L225.163 102.984L229.146 105.316L233.031 103.13L229.048 100.797Z" fill="#171753"/>
<path d="M220.305 101.137L216.419 103.372L220.402 105.704L224.288 103.469L220.305 101.137Z" fill="#171753"/>
<path d="M202.139 101.477L198.253 103.712L202.236 106.045L206.122 103.809L202.139 101.477Z" fill="#171753"/>
<path d="M213.845 102.838L209.959 105.073L213.942 107.405L217.828 105.17L213.845 102.838Z" fill="#171753"/>
<path d="M206.608 104.101L202.77 106.336L206.753 108.62L210.591 106.433L206.608 104.101Z" fill="#171753"/>
<path d="M235.557 104.586L231.72 106.821L235.703 109.154L239.54 106.918L235.557 104.586Z" fill="#171753"/>
<path d="M218.314 105.461L214.428 107.696L218.411 110.029L222.297 107.794L218.314 105.461Z" fill="#171753"/>
<path d="M187.421 98.3683L183.536 100.603L201.07 110.807L204.908 108.621L187.421 98.3683Z" fill="#171753"/>
<path d="M211.028 106.677L207.19 108.912L211.173 111.244L215.059 109.009L211.028 106.677Z" fill="#171753"/>
<path d="M225.017 103.906L221.18 106.141L230.991 111.874L234.829 109.639L225.017 103.906Z" fill="#171753"/>
<path d="M222.783 108.086L218.945 110.321L226.231 114.597L230.117 112.362L222.783 108.086Z" fill="#171753"/>
<path d="M205.49 108.96L201.605 111.146L207.87 114.79L211.708 112.555L205.49 108.96Z" fill="#171753"/>
<path d="M215.594 109.349L211.708 111.535L221.52 117.269L225.405 115.082L215.594 109.349Z" fill="#171753"/>
<path d="M212.194 112.896L208.356 115.083L216.808 120.039L220.645 117.804L212.194 112.896Z" fill="#171753"/>
<path d="M193.202 112.749C193.007 113.138 192.667 113.478 192.133 113.818L188.684 115.859C187.179 116.734 184.896 116.831 183.584 116.053L174.598 110.854C174.258 110.66 174.015 110.417 173.87 110.174C173.481 109.445 173.87 108.571 174.938 107.939L178.387 105.898C179.893 105.024 182.176 104.926 183.487 105.704L192.473 110.854C193.347 111.34 193.542 112.069 193.202 112.749Z" fill="#171753"/>
<path d="M193.202 112.749C193.007 113.138 192.667 113.478 192.133 113.818L188.684 115.859C187.179 116.734 184.896 116.831 183.584 116.053L174.598 110.854C174.258 110.66 174.015 110.417 173.87 110.174C174.064 109.785 174.404 109.445 174.938 109.105L178.387 107.064C179.893 106.19 182.176 106.093 183.487 106.87L192.473 112.021C192.813 112.264 193.056 112.506 193.202 112.749Z" fill="#5ED9D1"/>
<path d="M194.61 71.3517L249.158 103.421V66.2498L194.61 34.1809V71.3517Z" fill="white"/>
<g style="mix-blend-mode:multiply">
<path d="M195.533 34.7154V70.8172L249.158 102.352V103.421L194.61 71.3517V34.1809L195.533 34.7154Z" fill="#353570"/>
</g>
<path d="M231.785 78.2426C231.815 77.9141 231.83 77.5712 231.832 77.2187C231.832 70.9983 227.659 61.4855 222.163 58.2482C221.78 58.0233 221.383 57.8261 220.973 57.6583C220.282 56.7495 219.612 55.8022 218.947 54.8934C218.69 54.5313 218.356 54.0038 218.023 53.8071C217.411 53.4474 216.868 53.9558 217.221 54.8143C217.121 54.6923 217.002 54.5886 216.868 54.5073C216.238 54.1333 215.74 54.7879 216.238 55.7471C216.163 55.6523 216.072 55.5713 215.97 55.5073C215.568 55.2675 215.244 55.5912 215.286 56.0876C215.328 56.584 215.719 57.3394 215.991 57.8981C214.677 58.723 213.718 60.121 212.916 61.6413C212.192 63.025 211.569 64.4973 210.92 65.9577C210.584 66.7011 209.98 68.7945 208.87 68.1447C208.656 68.0075 208.468 67.8311 208.316 67.6243C207.187 66.1855 206.602 63.7156 206.449 62.2073C206.376 61.38 206.353 60.2889 206.867 59.9795C207.187 59.8045 207.657 59.9508 208.175 60.2529C209.496 61.0323 211.106 62.8451 211.163 62.8907C210.3 61.7061 208.33 59.0683 206.879 58.2146C206.132 57.7734 205.523 57.8094 205.276 58.7614C205.184 59.1541 205.139 59.5566 205.142 59.9604C205.18 61.3136 205.406 62.6546 205.812 63.9434C206.282 65.5429 206.936 67.3006 207.986 68.6962C208.266 69.095 208.617 69.4359 209.021 69.701C210.667 70.6602 211.478 67.8425 212.089 66.7059C213.149 64.6748 214.313 62.6725 215.991 61.4879C216.619 61.0403 217.347 60.7617 218.108 60.6778C218.869 60.594 219.639 60.7077 220.345 61.0083C220.686 61.1387 221.015 61.2992 221.328 61.4879C221.785 61.7594 222.214 62.0767 222.609 62.4351C224.713 64.3103 226.561 67.3294 227.687 70.1374C228.762 72.8208 229.474 75.9573 229.157 78.185C229.027 79.2258 228.686 80.2641 227.812 80.3432C227.306 80.4152 226.698 80.1874 226.086 79.8277C225.534 79.4897 225.01 79.1046 224.521 78.6766C223.25 77.5315 222.048 76.3095 220.921 75.0173C219.793 73.7775 215.173 68.279 214.017 66.7538C216.043 69.7274 218.044 72.7176 220.251 75.4969C220.072 75.6226 219.908 75.769 219.762 75.9333C219.598 76.1228 219.762 76.6527 220.014 76.811C220.045 76.8305 220.08 76.8429 220.117 76.8475C220.153 76.852 220.19 76.8486 220.225 76.8374C220.164 77.0168 220.163 77.2122 220.223 77.3922C220.283 77.5722 220.401 77.7265 220.557 77.8301C220.59 77.85 220.624 77.8661 220.66 77.8781C220.496 78.1395 220.75 78.6479 221.041 78.8181C221.111 78.8647 221.194 78.8843 221.276 78.8733L222.849 78.504C223.871 79.615 225.033 80.5827 226.305 81.3816C227.203 81.9115 228.094 82.2328 228.917 82.2209C230.309 82.1657 231.16 81.0986 231.552 79.6095C231.673 79.1609 231.752 78.7016 231.787 78.2378L231.785 78.2426ZM223.416 69.3653C223.443 69.8549 223.583 70.3311 223.824 70.7558C224.064 71.1805 224.398 71.5419 224.8 71.8112C225.571 72.2644 226.19 71.9047 226.192 71.0007C226.168 70.5104 226.03 70.033 225.79 69.6078C225.55 69.1825 225.214 68.8216 224.81 68.5547C224.036 68.1015 223.418 68.4612 223.416 69.3653Z" fill="#171753"/>
<path d="M205.508 143.1C204.712 142.117 203.87 142.304 201.67 141.836C199.798 141.414 197.832 141.414 196.007 141.929C194.181 142.398 193.058 142.726 192.262 143.569L191.279 144.084V146.146V146.193C191.326 147.551 192.449 148.863 194.696 149.8C196.943 150.737 199.377 150.878 201.717 150.316C205.04 149.519 206.678 147.879 206.725 146.193V146.099V144.131L205.508 143.1Z" fill="#171753"/>
<path d="M198.955 150.878C197.457 150.878 195.96 150.597 194.602 150.034C192.356 149.097 191.092 147.739 191.045 146.193V146.146V143.897L192.122 143.335C192.964 142.398 194.228 142.07 195.96 141.648C197.832 141.18 199.845 141.133 201.764 141.554C202.372 141.695 202.887 141.789 203.308 141.835C204.432 142.023 205.087 142.117 205.742 142.913L207.099 143.944V146.146C207.053 148.114 205.087 149.753 201.857 150.55C200.874 150.784 199.891 150.878 198.955 150.878ZM191.56 144.272V146.146C191.607 147.458 192.73 148.676 194.79 149.519C196.896 150.409 199.33 150.55 201.67 149.988C204.572 149.285 206.397 147.786 206.444 146.146V146.052V144.272L205.274 143.335C204.759 142.726 204.244 142.632 203.168 142.445C202.7 142.351 202.232 142.304 201.576 142.163C199.751 141.742 197.832 141.789 196.006 142.257C194.134 142.726 193.105 143.054 192.402 143.803L192.309 143.85L191.56 144.272Z" fill="#171753"/>
<path d="M204.478 140.898C207.521 142.632 207.521 145.49 204.478 147.223C201.436 148.957 196.568 148.957 193.526 147.223C190.483 145.49 190.483 142.632 193.526 140.898C196.568 139.165 201.483 139.165 204.478 140.898Z" fill="white"/>
<path d="M199.049 148.816C197.036 148.816 194.977 148.348 193.432 147.458C191.888 146.567 191.045 145.349 191.045 144.037C191.045 142.726 191.888 141.507 193.432 140.617C196.521 138.837 201.576 138.837 204.666 140.617C206.21 141.507 207.053 142.726 207.053 144.037C207.053 145.349 206.21 146.567 204.666 147.458C203.074 148.395 201.062 148.816 199.049 148.816ZM199.049 139.915C197.13 139.915 195.211 140.336 193.713 141.18C192.356 141.976 191.607 143.007 191.607 144.084C191.607 145.162 192.356 146.193 193.713 146.989C196.662 148.676 201.436 148.676 204.385 146.989C205.742 146.193 206.491 145.162 206.491 144.084C206.491 143.007 205.742 141.976 204.385 141.18C202.887 140.336 200.968 139.915 199.049 139.915Z" fill="#171753"/>
<path d="M202.84 142.163C200.734 141.086 197.317 141.086 195.211 142.163C193.105 143.241 193.105 144.975 195.211 146.005C197.317 147.083 200.734 147.083 202.84 146.005C204.946 144.928 204.946 143.194 202.84 142.163Z" fill="#171753"/>
<path d="M199.049 147.083C197.598 147.083 196.194 146.802 195.117 146.24C193.994 145.677 193.385 144.881 193.385 144.037C193.385 143.194 193.994 142.398 195.117 141.835C197.317 140.758 200.828 140.758 203.027 141.835C204.151 142.398 204.759 143.194 204.759 144.037C204.759 144.881 204.151 145.677 203.027 146.24C201.904 146.802 200.453 147.083 199.049 147.083ZM199.049 141.648C197.692 141.648 196.381 141.882 195.351 142.398C194.415 142.866 193.947 143.475 193.947 144.084C193.947 144.693 194.462 145.302 195.351 145.771C197.364 146.802 200.687 146.802 202.747 145.771C203.683 145.302 204.151 144.693 204.151 144.084C204.151 143.475 203.636 142.866 202.747 142.398C201.717 141.882 200.359 141.648 199.049 141.648Z" fill="#171753"/>
<path d="M202.84 143.288C200.734 142.21 197.317 142.21 195.211 143.288C194.462 143.663 193.947 144.131 193.76 144.647C193.994 145.162 194.462 145.63 195.211 146.005C197.317 147.083 200.734 147.083 202.84 146.005C203.589 145.63 204.104 145.162 204.291 144.647C204.104 144.178 203.589 143.71 202.84 143.288Z" fill="#9BE7C4"/>
<path d="M199.049 147.083C197.598 147.083 196.194 146.802 195.117 146.24C194.321 145.818 193.76 145.302 193.526 144.74L193.479 144.647L193.526 144.553C193.76 143.991 194.321 143.475 195.117 143.054C197.317 141.976 200.827 141.976 203.027 143.054C203.823 143.475 204.385 143.991 204.619 144.553L204.666 144.647L204.619 144.74C204.385 145.302 203.823 145.818 203.027 146.24C201.904 146.802 200.453 147.083 199.049 147.083ZM194.087 144.647C194.321 145.068 194.743 145.443 195.351 145.724C197.364 146.755 200.687 146.755 202.746 145.724C203.355 145.396 203.776 145.021 204.01 144.647C203.776 144.225 203.355 143.85 202.746 143.569C200.734 142.538 197.411 142.538 195.351 143.569C194.743 143.85 194.275 144.272 194.087 144.647Z" fill="#171753"/>
<path d="M204.525 147.458H204.104V149.144H204.525V147.458Z" fill="#9BE7C4"/>
<path d="M192.636 146.521H192.215V148.207H192.636V146.521Z" fill="#9BE7C4"/>
<path d="M199.938 141.414H199.517V142.491H199.938V141.414Z" fill="#9BE7C4"/>
<path d="M202.606 148.207H202.185V149.894H202.606V148.207Z" fill="#9BE7C4"/>
<path d="M202.138 137.385C201.342 136.401 200.5 136.588 198.3 136.12C196.428 135.698 194.462 135.698 192.636 136.213C190.811 136.682 189.688 137.01 188.892 137.853L187.909 138.368V140.43V140.477C187.956 141.835 189.079 143.147 191.326 144.084C193.573 145.021 196.006 145.162 198.347 144.6C201.67 143.803 203.308 142.163 203.355 140.477V140.383V138.415L202.138 137.385Z" fill="#171753"/>
<path d="M195.585 145.115C194.087 145.115 192.59 144.834 191.232 144.272C188.986 143.335 187.722 141.976 187.675 140.43V140.383V138.134L188.752 137.572C189.594 136.635 190.858 136.307 192.59 135.885C194.462 135.417 196.475 135.37 198.394 135.792C199.002 135.932 199.517 136.026 199.938 136.073C201.061 136.26 201.717 136.354 202.372 137.15L203.729 138.181V140.383C203.683 142.351 201.717 143.991 198.487 144.787C197.504 145.021 196.521 145.115 195.585 145.115ZM188.19 138.509V140.383C188.237 141.695 189.36 142.913 191.419 143.756C193.526 144.647 195.96 144.787 198.3 144.225C201.202 143.522 203.027 142.023 203.074 140.383V140.289V138.509L201.904 137.572C201.389 136.963 200.874 136.869 199.798 136.682C199.33 136.588 198.862 136.541 198.206 136.401C196.381 135.979 194.462 136.026 192.636 136.494C190.764 136.963 189.734 137.291 189.032 138.041L188.939 138.087L188.19 138.509Z" fill="#171753"/>
<path d="M195.632 142.772C199.897 142.772 203.355 140.78 203.355 138.322C203.355 135.863 199.897 133.871 195.632 133.871C191.367 133.871 187.909 135.863 187.909 138.322C187.909 140.78 191.367 142.772 195.632 142.772Z" fill="white"/>
<path d="M195.632 143.1C193.619 143.1 191.56 142.632 190.015 141.742C188.471 140.852 187.628 139.633 187.628 138.322C187.628 137.01 188.471 135.792 190.015 134.901C193.105 133.121 198.16 133.121 201.249 134.901C202.793 135.792 203.636 137.01 203.636 138.322C203.636 139.633 202.793 140.852 201.249 141.742C199.704 142.632 197.692 143.1 195.632 143.1ZM195.632 134.152C193.713 134.152 191.794 134.574 190.296 135.417C188.939 136.213 188.19 137.244 188.19 138.322C188.19 139.399 188.939 140.43 190.296 141.226C193.245 142.913 198.019 142.913 200.968 141.226C202.325 140.43 203.074 139.399 203.074 138.322C203.074 137.244 202.325 136.213 200.968 135.417C199.517 134.574 197.598 134.152 195.632 134.152Z" fill="#171753"/>
<path d="M199.47 136.401C197.364 135.323 193.947 135.323 191.841 136.401C189.735 137.478 189.735 139.212 191.841 140.243C193.947 141.32 197.364 141.32 199.47 140.243C201.576 139.212 201.576 137.478 199.47 136.401Z" fill="#171753"/>
<path d="M195.632 141.367C194.181 141.367 192.777 141.086 191.7 140.524C190.577 139.961 189.969 139.165 189.969 138.322C189.969 137.478 190.577 136.682 191.7 136.12C193.9 135.042 197.411 135.042 199.611 136.12C200.734 136.682 201.342 137.478 201.342 138.322C201.342 139.165 200.734 139.961 199.611 140.524C198.534 141.086 197.083 141.367 195.632 141.367ZM195.632 135.885C194.275 135.885 192.964 136.12 191.934 136.635C190.998 137.103 190.53 137.713 190.53 138.322C190.53 138.931 191.045 139.54 191.934 140.008C193.947 141.039 197.27 141.039 199.33 140.008C200.266 139.54 200.734 138.931 200.734 138.322C200.734 137.713 200.219 137.103 199.33 136.635C198.347 136.166 196.989 135.885 195.632 135.885Z" fill="#171753"/>
<path d="M199.47 137.572C197.364 136.494 193.947 136.494 191.841 137.572C191.092 137.947 190.577 138.415 190.39 138.931C190.624 139.446 191.092 139.915 191.841 140.289C193.947 141.367 197.364 141.367 199.47 140.289C200.219 139.915 200.734 139.446 200.921 138.931C200.734 138.415 200.219 137.947 199.47 137.572Z" fill="#9BE7C4"/>
<path d="M195.632 141.367C194.181 141.367 192.777 141.086 191.7 140.524C190.905 140.102 190.343 139.587 190.109 139.024L190.062 138.931L190.109 138.837C190.343 138.275 190.905 137.759 191.7 137.338C193.9 136.26 197.411 136.26 199.611 137.338C200.406 137.759 200.968 138.275 201.202 138.837L201.249 138.931L201.202 139.024C200.968 139.587 200.406 140.102 199.611 140.524C198.534 141.086 197.083 141.367 195.632 141.367ZM190.717 138.931C190.951 139.352 191.373 139.727 191.981 140.008C193.994 141.039 197.317 141.039 199.377 140.008C199.985 139.68 200.406 139.305 200.64 138.931C200.406 138.509 199.985 138.134 199.377 137.853C197.364 136.822 194.041 136.822 191.981 137.853C191.326 138.134 190.905 138.509 190.717 138.931Z" fill="#171753"/>
<path d="M201.108 141.695H200.687V143.382H201.108V141.695Z" fill="#9BE7C4"/>
<path d="M189.266 140.758H188.845V142.445H189.266V140.758Z" fill="#9BE7C4"/>
<path d="M196.568 135.651H196.147V136.729H196.568V135.651Z" fill="#9BE7C4"/>
<path d="M199.236 142.491H198.815V144.178H199.236V142.491Z" fill="#9BE7C4"/>
<path d="M231.589 150.27C230.794 149.286 229.951 149.473 227.751 149.005C225.879 148.583 223.913 148.583 222.088 149.098C220.262 149.567 219.139 149.895 218.343 150.738L217.36 151.253V153.315V153.362C217.407 154.72 218.531 156.032 220.777 156.969C223.024 157.906 225.458 158.047 227.798 157.485C231.121 156.688 232.76 155.048 232.806 153.362V153.268V151.3L231.589 150.27Z" fill="#171753"/>
<path d="M225.037 158C223.539 158 222.041 157.719 220.684 157.157C218.437 156.22 217.173 154.861 217.126 153.315V153.268V151.019L218.203 150.457C219.045 149.52 220.309 149.192 222.041 148.77C223.913 148.302 225.926 148.255 227.845 148.677C228.453 148.817 228.968 148.911 229.39 148.958C230.513 149.145 231.168 149.239 231.823 150.035L233.181 151.066V153.268C233.134 155.236 231.168 156.876 227.939 157.672C226.956 157.906 225.973 158 225.037 158ZM217.641 151.394V153.268C217.688 154.58 218.811 155.798 220.871 156.641C222.977 157.532 225.411 157.672 227.751 157.11C230.653 156.407 232.479 154.908 232.526 153.268V153.174V151.394L231.355 150.457C230.84 149.848 230.326 149.754 229.249 149.567C228.781 149.473 228.313 149.426 227.658 149.286C225.832 148.864 223.913 148.911 222.088 149.379C220.216 149.848 219.186 150.176 218.484 150.925L218.39 150.972L217.641 151.394Z" fill="#171753"/>
<path d="M225.083 155.657C229.349 155.657 232.806 153.665 232.806 151.207C232.806 148.748 229.349 146.756 225.083 146.756C220.818 146.756 217.36 148.748 217.36 151.207C217.36 153.665 220.818 155.657 225.083 155.657Z" fill="white"/>
<path d="M225.083 155.985C223.071 155.985 221.011 155.517 219.467 154.627C217.922 153.737 217.08 152.518 217.08 151.207C217.08 149.895 217.922 148.677 219.467 147.786C222.556 146.006 227.611 146.006 230.7 147.786C232.245 148.677 233.087 149.895 233.087 151.207C233.087 152.518 232.245 153.737 230.7 154.627C229.156 155.517 227.143 155.985 225.083 155.985ZM225.083 147.037C223.164 147.037 221.245 147.458 219.748 148.302C218.39 149.098 217.641 150.129 217.641 151.207C217.641 152.284 218.39 153.315 219.748 154.111C222.696 155.798 227.471 155.798 230.419 154.111C231.777 153.315 232.526 152.284 232.526 151.207C232.526 150.129 231.777 149.098 230.419 148.302C228.968 147.458 227.049 147.037 225.083 147.037Z" fill="#171753"/>
<path d="M228.922 149.286C226.815 148.208 223.398 148.208 221.292 149.286C219.186 150.363 219.186 152.097 221.292 153.127C223.398 154.205 226.815 154.205 228.922 153.127C231.028 152.097 231.028 150.363 228.922 149.286Z" fill="#171753"/>
<path d="M225.083 154.252C223.632 154.252 222.228 153.971 221.152 153.409C220.028 152.846 219.42 152.05 219.42 151.207C219.42 150.363 220.028 149.567 221.152 149.005C223.352 147.927 226.862 147.927 229.062 149.005C230.185 149.567 230.794 150.363 230.794 151.207C230.794 152.05 230.185 152.846 229.062 153.409C227.985 153.971 226.534 154.252 225.083 154.252ZM225.083 148.77C223.726 148.77 222.415 149.005 221.386 149.52C220.45 149.988 219.982 150.597 219.982 151.207C219.982 151.816 220.496 152.425 221.386 152.893C223.398 153.924 226.722 153.924 228.781 152.893C229.717 152.425 230.185 151.816 230.185 151.207C230.185 150.597 229.67 149.988 228.781 149.52C227.798 149.051 226.441 148.77 225.083 148.77Z" fill="#171753"/>
<path d="M228.921 150.457C226.815 149.379 223.398 149.379 221.292 150.457C220.543 150.832 220.028 151.3 219.841 151.816C220.075 152.331 220.543 152.799 221.292 153.174C223.398 154.252 226.815 154.252 228.921 153.174C229.67 152.799 230.185 152.331 230.372 151.816C230.185 151.3 229.67 150.832 228.921 150.457Z" fill="#9BE7C4"/>
<path d="M225.083 154.252C223.632 154.252 222.228 153.971 221.152 153.409C220.356 152.987 219.794 152.472 219.56 151.909L219.513 151.816L219.56 151.722C219.794 151.16 220.356 150.644 221.152 150.223C223.352 149.145 226.862 149.145 229.062 150.223C229.858 150.644 230.419 151.16 230.653 151.722L230.7 151.816L230.653 151.909C230.419 152.472 229.858 152.987 229.062 153.409C227.985 153.971 226.534 154.252 225.083 154.252ZM220.169 151.816C220.403 152.237 220.824 152.612 221.433 152.893C223.445 153.924 226.768 153.924 228.828 152.893C229.436 152.565 229.858 152.19 230.092 151.816C229.858 151.394 229.436 151.019 228.828 150.738C226.815 149.707 223.492 149.707 221.433 150.738C220.777 151.019 220.356 151.394 220.169 151.816Z" fill="#171753"/>
<path d="M231.589 147.509C230.794 146.525 229.951 146.712 227.751 146.244C225.879 145.822 223.913 145.822 222.088 146.337C220.262 146.806 219.139 147.134 218.343 147.977L217.36 148.492V150.554V150.601C217.407 151.959 218.531 153.271 220.777 154.208C223.024 155.145 225.458 155.286 227.798 154.724C231.121 153.927 232.76 152.287 232.806 150.601V150.507V148.539L231.589 147.509Z" fill="#171753"/>
<path d="M225.037 155.239C223.539 155.239 222.041 154.958 220.684 154.396C218.437 153.459 217.173 152.1 217.126 150.554V150.507V148.258L218.203 147.696C219.045 146.759 220.309 146.431 222.041 146.009C223.913 145.541 225.926 145.494 227.845 145.916C228.453 146.056 228.968 146.15 229.39 146.197C230.513 146.384 231.168 146.478 231.823 147.274L233.181 148.305V150.507C233.134 152.475 231.168 154.115 227.939 154.911C226.956 155.145 225.973 155.239 225.037 155.239ZM217.641 148.633V150.507C217.688 151.819 218.811 153.037 220.871 153.88C222.977 154.77 225.411 154.911 227.751 154.349C230.653 153.646 232.479 152.147 232.526 150.507V150.413V148.633L231.355 147.696C230.84 147.087 230.326 146.993 229.249 146.806C228.781 146.712 228.313 146.665 227.658 146.525C225.832 146.103 223.913 146.15 222.088 146.618C220.216 147.087 219.186 147.415 218.484 148.164L218.39 148.211L217.641 148.633Z" fill="#171753"/>
<path d="M225.083 152.896C229.349 152.896 232.806 150.904 232.806 148.446C232.806 145.987 229.349 143.995 225.083 143.995C220.818 143.995 217.36 145.987 217.36 148.446C217.36 150.904 220.818 152.896 225.083 152.896Z" fill="white"/>
<path d="M225.083 153.224C223.071 153.224 221.011 152.756 219.467 151.866C217.922 150.975 217.08 149.757 217.08 148.445C217.08 147.134 217.922 145.916 219.467 145.025C222.556 143.245 227.611 143.245 230.7 145.025C232.245 145.916 233.087 147.134 233.087 148.445C233.087 149.757 232.245 150.975 230.7 151.866C229.156 152.756 227.143 153.224 225.083 153.224ZM225.083 144.276C223.164 144.276 221.245 144.697 219.748 145.541C218.39 146.337 217.641 147.368 217.641 148.445C217.641 149.523 218.39 150.554 219.748 151.35C222.696 153.037 227.471 153.037 230.419 151.35C231.777 150.554 232.526 149.523 232.526 148.445C232.526 147.368 231.777 146.337 230.419 145.541C228.968 144.697 227.049 144.276 225.083 144.276Z" fill="#171753"/>
<path d="M228.922 146.525C226.815 145.447 223.398 145.447 221.292 146.525C219.186 147.602 219.186 149.336 221.292 150.366C223.398 151.444 226.815 151.444 228.922 150.366C231.028 149.336 231.028 147.602 228.922 146.525Z" fill="#171753"/>
<path d="M225.083 151.491C223.632 151.491 222.228 151.21 221.152 150.648C220.028 150.085 219.42 149.289 219.42 148.446C219.42 147.602 220.028 146.806 221.152 146.243C223.352 145.166 226.862 145.166 229.062 146.243C230.185 146.806 230.794 147.602 230.794 148.446C230.794 149.289 230.185 150.085 229.062 150.648C227.985 151.21 226.534 151.491 225.083 151.491ZM225.083 146.009C223.726 146.009 222.415 146.243 221.386 146.759C220.45 147.227 219.982 147.836 219.982 148.446C219.982 149.055 220.496 149.664 221.386 150.132C223.398 151.163 226.722 151.163 228.781 150.132C229.717 149.664 230.185 149.055 230.185 148.446C230.185 147.836 229.67 147.227 228.781 146.759C227.798 146.29 226.441 146.009 225.083 146.009Z" fill="#171753"/>
<path d="M228.921 147.696C226.815 146.618 223.398 146.618 221.292 147.696C220.543 148.071 220.028 148.539 219.841 149.055C220.075 149.57 220.543 150.038 221.292 150.413C223.398 151.491 226.815 151.491 228.921 150.413C229.67 150.038 230.185 149.57 230.372 149.055C230.185 148.539 229.67 148.071 228.921 147.696Z" fill="#9BE7C4"/>
<path d="M225.083 151.491C223.632 151.491 222.228 151.21 221.152 150.648C220.356 150.226 219.794 149.71 219.56 149.148L219.513 149.055L219.56 148.961C219.794 148.399 220.356 147.883 221.152 147.462C223.352 146.384 226.862 146.384 229.062 147.462C229.858 147.883 230.419 148.399 230.653 148.961L230.7 149.055L230.653 149.148C230.419 149.71 229.858 150.226 229.062 150.648C227.985 151.21 226.534 151.491 225.083 151.491ZM220.169 149.055C220.403 149.476 220.824 149.851 221.433 150.132C223.445 151.163 226.768 151.163 228.828 150.132C229.436 149.804 229.858 149.429 230.092 149.055C229.858 148.633 229.436 148.258 228.828 147.977C226.815 146.946 223.492 146.946 221.433 147.977C220.777 148.258 220.356 148.633 220.169 149.055Z" fill="#171753"/>
<path d="M228.828 142.907C228.033 141.923 227.19 142.11 224.99 141.642C223.118 141.22 221.152 141.22 219.327 141.735C217.501 142.204 216.378 142.532 215.582 143.375L214.599 143.891V145.952V145.999C214.646 147.358 215.769 148.669 218.016 149.607C220.263 150.544 222.697 150.684 225.037 150.122C228.36 149.325 229.998 147.686 230.045 145.999V145.905V143.938L228.828 142.907Z" fill="#171753"/>
<path d="M222.276 150.637C220.778 150.637 219.28 150.356 217.923 149.794C215.676 148.857 214.412 147.498 214.365 145.952V145.905V143.656L215.442 143.094C216.284 142.157 217.548 141.829 219.28 141.407C221.152 140.939 223.165 140.892 225.084 141.314C225.692 141.454 226.207 141.548 226.628 141.595C227.752 141.782 228.407 141.876 229.062 142.672L230.42 143.703V145.905C230.373 147.873 228.407 149.513 225.177 150.309C224.195 150.543 223.212 150.637 222.276 150.637ZM214.88 144.031V145.905C214.927 147.217 216.05 148.435 218.11 149.278C220.216 150.169 222.65 150.309 224.99 149.747C227.892 149.044 229.718 147.545 229.764 145.905V145.811V144.031L228.594 143.094C228.079 142.485 227.565 142.391 226.488 142.204C226.02 142.11 225.552 142.063 224.897 141.923C223.071 141.501 221.152 141.548 219.327 142.017C217.454 142.485 216.425 142.813 215.723 143.563L215.629 143.609L214.88 144.031Z" fill="#171753"/>
<path d="M222.322 148.295C226.588 148.295 230.045 146.302 230.045 143.844C230.045 141.386 226.588 139.393 222.322 139.393C218.057 139.393 214.599 141.386 214.599 143.844C214.599 146.302 218.057 148.295 222.322 148.295Z" fill="white"/>
<path d="M222.322 148.623C220.31 148.623 218.25 148.154 216.706 147.264C215.161 146.374 214.318 145.156 214.318 143.844C214.318 142.532 215.161 141.314 216.706 140.424C219.795 138.643 224.85 138.643 227.939 140.424C229.484 141.314 230.326 142.532 230.326 143.844C230.326 145.156 229.484 146.374 227.939 147.264C226.394 148.154 224.382 148.623 222.322 148.623ZM222.322 139.674C220.403 139.674 218.484 140.096 216.986 140.939C215.629 141.735 214.88 142.766 214.88 143.844C214.88 144.921 215.629 145.952 216.986 146.749C219.935 148.435 224.709 148.435 227.658 146.749C229.016 145.952 229.764 144.921 229.764 143.844C229.764 142.766 229.016 141.735 227.658 140.939C226.207 140.096 224.288 139.674 222.322 139.674Z" fill="#171753"/>
<path d="M226.16 141.923C224.054 140.845 220.637 140.845 218.531 141.923C216.425 143 216.425 144.734 218.531 145.765C220.637 146.842 224.054 146.842 226.16 145.765C228.267 144.734 228.267 143 226.16 141.923Z" fill="#171753"/>
<path d="M222.322 146.889C220.871 146.889 219.467 146.608 218.391 146.046C217.267 145.484 216.659 144.687 216.659 143.844C216.659 143 217.267 142.204 218.391 141.642C220.591 140.564 224.101 140.564 226.301 141.642C227.424 142.204 228.033 143 228.033 143.844C228.033 144.687 227.424 145.484 226.301 146.046C225.224 146.608 223.773 146.889 222.322 146.889ZM222.322 141.407C220.965 141.407 219.654 141.642 218.625 142.157C217.689 142.626 217.22 143.235 217.22 143.844C217.22 144.453 217.735 145.062 218.625 145.53C220.637 146.561 223.961 146.561 226.02 145.53C226.956 145.062 227.424 144.453 227.424 143.844C227.424 143.235 226.909 142.626 226.02 142.157C225.037 141.689 223.68 141.407 222.322 141.407Z" fill="#171753"/>
<path d="M226.16 143.094C224.054 142.016 220.637 142.016 218.531 143.094C217.782 143.469 217.267 143.937 217.08 144.453C217.314 144.968 217.782 145.437 218.531 145.811C220.637 146.889 224.054 146.889 226.16 145.811C226.909 145.437 227.424 144.968 227.611 144.453C227.424 143.937 226.909 143.469 226.16 143.094Z" fill="#9BE7C4"/>
<path d="M222.322 146.889C220.871 146.889 219.467 146.608 218.391 146.046C217.595 145.624 217.033 145.109 216.799 144.546L216.752 144.453L216.799 144.359C217.033 143.797 217.595 143.281 218.391 142.86C220.59 141.782 224.101 141.782 226.301 142.86C227.096 143.281 227.658 143.797 227.892 144.359L227.939 144.453L227.892 144.546C227.658 145.109 227.096 145.624 226.301 146.046C225.224 146.608 223.773 146.889 222.322 146.889ZM217.408 144.453C217.642 144.874 218.063 145.249 218.671 145.53C220.684 146.561 224.007 146.561 226.067 145.53C226.675 145.202 227.096 144.828 227.331 144.453C227.096 144.031 226.675 143.656 226.067 143.375C224.054 142.344 220.731 142.344 218.671 143.375C218.016 143.656 217.595 144.031 217.408 144.453Z" fill="#171753"/>
<path d="M267.483 112.535C266.687 111.551 265.845 111.739 263.645 111.27C261.773 110.848 259.807 110.848 257.982 111.364C256.156 111.832 255.033 112.16 254.237 113.004L253.254 113.519V115.58V115.627C253.301 116.986 254.424 118.298 256.671 119.235C258.918 120.172 261.352 120.312 263.692 119.75C267.015 118.954 268.653 117.314 268.7 115.627V115.534V113.566L267.483 112.535Z" fill="#171753"/>
<path d="M260.93 120.266C259.433 120.266 257.935 119.984 256.577 119.422C254.331 118.485 253.067 117.127 253.02 115.58V115.534V113.285L254.097 112.723C254.939 111.786 256.203 111.458 257.935 111.036C259.807 110.567 261.82 110.521 263.739 110.942C264.347 111.083 264.862 111.176 265.283 111.223C266.407 111.411 267.062 111.504 267.717 112.301L269.075 113.332V115.534C269.028 117.501 267.062 119.141 263.832 119.938C262.849 120.172 261.866 120.266 260.93 120.266ZM253.535 113.66V115.534C253.582 116.845 254.705 118.064 256.765 118.907C258.871 119.797 261.305 119.938 263.645 119.375C266.547 118.673 268.372 117.173 268.419 115.534V115.44V113.66L267.249 112.723C266.734 112.113 266.219 112.02 265.143 111.832C264.675 111.739 264.207 111.692 263.551 111.551C261.726 111.13 259.807 111.176 257.982 111.645C256.109 112.113 255.08 112.441 254.378 113.191L254.284 113.238L253.535 113.66Z" fill="#171753"/>
<path d="M260.977 117.923C265.242 117.923 268.7 115.93 268.7 113.472C268.7 111.014 265.242 109.021 260.977 109.021C256.712 109.021 253.254 111.014 253.254 113.472C253.254 115.93 256.712 117.923 260.977 117.923Z" fill="white"/>
<path d="M260.977 118.251C258.964 118.251 256.905 117.782 255.36 116.892C253.816 116.002 252.973 114.784 252.973 113.472C252.973 112.16 253.816 110.942 255.36 110.052C258.45 108.272 263.505 108.272 266.594 110.052C268.138 110.942 268.981 112.16 268.981 113.472C268.981 114.784 268.138 116.002 266.594 116.892C265.049 117.782 263.037 118.251 260.977 118.251ZM260.977 109.302C259.058 109.302 257.139 109.724 255.641 110.567C254.284 111.364 253.535 112.395 253.535 113.472C253.535 114.55 254.284 115.58 255.641 116.377C258.59 118.064 263.364 118.064 266.313 116.377C267.67 115.58 268.419 114.55 268.419 113.472C268.419 112.395 267.67 111.364 266.313 110.567C264.862 109.724 262.943 109.302 260.977 109.302Z" fill="#171753"/>
<path d="M264.815 111.551C262.709 110.474 259.292 110.474 257.186 111.551C255.08 112.629 255.08 114.362 257.186 115.393C259.292 116.471 262.709 116.471 264.815 115.393C266.921 114.362 266.921 112.629 264.815 111.551Z" fill="#171753"/>
<path d="M260.977 116.517C259.526 116.517 258.122 116.236 257.045 115.674C255.922 115.112 255.314 114.315 255.314 113.472C255.314 112.629 255.922 111.832 257.045 111.27C259.245 110.193 262.756 110.193 264.956 111.27C266.079 111.832 266.687 112.629 266.687 113.472C266.687 114.315 266.079 115.112 264.956 115.674C263.879 116.236 262.428 116.517 260.977 116.517ZM260.977 111.036C259.62 111.036 258.309 111.27 257.279 111.785C256.343 112.254 255.875 112.863 255.875 113.472C255.875 114.081 256.39 114.69 257.279 115.159C259.292 116.189 262.615 116.189 264.675 115.159C265.611 114.69 266.079 114.081 266.079 113.472C266.079 112.863 265.564 112.254 264.675 111.785C263.692 111.317 262.334 111.036 260.977 111.036Z" fill="#171753"/>
<path d="M264.815 112.722C262.709 111.645 259.292 111.645 257.186 112.722C256.437 113.097 255.922 113.566 255.735 114.081C255.969 114.596 256.437 115.065 257.186 115.44C259.292 116.517 262.709 116.517 264.815 115.44C265.564 115.065 266.079 114.596 266.266 114.081C266.079 113.566 265.564 113.097 264.815 112.722Z" fill="#9BE7C4"/>
<path d="M260.977 116.517C259.526 116.517 258.122 116.236 257.045 115.674C256.25 115.252 255.688 114.737 255.454 114.175L255.407 114.081L255.454 113.987C255.688 113.425 256.25 112.91 257.045 112.488C259.245 111.411 262.756 111.411 264.956 112.488C265.751 112.91 266.313 113.425 266.547 113.987L266.594 114.081L266.547 114.175C266.313 114.737 265.751 115.252 264.956 115.674C263.879 116.236 262.428 116.517 260.977 116.517ZM256.062 114.081C256.296 114.503 256.718 114.878 257.326 115.159C259.339 116.189 262.662 116.189 264.721 115.159C265.33 114.831 265.751 114.456 265.985 114.081C265.751 113.659 265.33 113.285 264.721 113.004C262.709 111.973 259.386 111.973 257.326 113.004C256.671 113.285 256.25 113.659 256.062 114.081Z" fill="#171753"/>
<path d="M230.56 154.58H230.138V156.267H230.56V154.58Z" fill="#9BE7C4"/>
<path d="M218.718 153.643H218.297V155.33H218.718V153.643Z" fill="#9BE7C4"/>
<path d="M226.02 148.536H225.598V149.614H226.02V148.536Z" fill="#9BE7C4"/>
<path d="M228.687 155.376H228.266V157.063H228.687V155.376Z" fill="#9BE7C4"/>
<path d="M203.979 131.863C203.183 130.879 202.341 131.066 200.141 130.598C198.268 130.176 196.303 130.176 194.477 130.691C192.652 131.16 191.528 131.488 190.733 132.331L189.75 132.846V134.908V134.955C189.797 136.313 190.92 137.625 193.167 138.562C195.413 139.499 197.847 139.64 200.187 139.078C203.511 138.281 205.149 136.641 205.196 134.955V134.861V132.893L203.979 131.863Z" fill="#171753"/>
<path d="M197.426 139.593C195.928 139.593 194.43 139.312 193.073 138.75C190.826 137.813 189.562 136.454 189.516 134.908V134.861V132.612L190.592 132.05C191.435 131.113 192.698 130.785 194.43 130.363C196.303 129.895 198.315 129.848 200.234 130.27C200.843 130.41 201.358 130.504 201.779 130.551C202.902 130.738 203.557 130.832 204.213 131.628L205.57 132.659V134.861C205.523 136.829 203.557 138.469 200.328 139.265C199.345 139.499 198.362 139.593 197.426 139.593ZM190.031 132.987V134.861C190.077 136.173 191.201 137.391 193.26 138.234C195.366 139.124 197.8 139.265 200.141 138.703C203.043 138 204.868 136.501 204.915 134.861V134.767V132.987L203.745 132.05C203.23 131.441 202.715 131.347 201.638 131.16C201.17 131.066 200.702 131.019 200.047 130.879C198.222 130.457 196.303 130.504 194.477 130.972C192.605 131.441 191.575 131.769 190.873 132.518L190.779 132.565L190.031 132.987Z" fill="#171753"/>
<path d="M197.473 137.25C201.738 137.25 205.196 135.258 205.196 132.8C205.196 130.341 201.738 128.349 197.473 128.349C193.208 128.349 189.75 130.341 189.75 132.8C189.75 135.258 193.208 137.25 197.473 137.25Z" fill="white"/>
<path d="M197.473 137.578C195.46 137.578 193.401 137.11 191.856 136.22C190.311 135.329 189.469 134.111 189.469 132.799C189.469 131.488 190.311 130.27 191.856 129.379C194.945 127.599 200 127.599 203.089 129.379C204.634 130.27 205.477 131.488 205.477 132.799C205.477 134.111 204.634 135.329 203.089 136.22C201.545 137.11 199.532 137.578 197.473 137.578ZM197.473 128.63C195.554 128.63 193.635 129.051 192.137 129.895C190.779 130.691 190.031 131.722 190.031 132.799C190.031 133.877 190.779 134.908 192.137 135.704C195.086 137.391 199.86 137.391 202.809 135.704C204.166 134.908 204.915 133.877 204.915 132.799C204.915 131.722 204.166 130.691 202.809 129.895C201.358 129.051 199.439 128.63 197.473 128.63Z" fill="#171753"/>
<path d="M201.311 130.879C199.205 129.801 195.788 129.801 193.682 130.879C191.575 131.956 191.575 133.69 193.682 134.72C195.788 135.798 199.205 135.798 201.311 134.72C203.417 133.69 203.417 131.956 201.311 130.879Z" fill="#171753"/>
<path d="M197.473 135.845C196.022 135.845 194.618 135.564 193.541 135.002C192.418 134.439 191.809 133.643 191.809 132.8C191.809 131.956 192.418 131.16 193.541 130.597C195.741 129.52 199.251 129.52 201.451 130.597C202.575 131.16 203.183 131.956 203.183 132.8C203.183 133.643 202.575 134.439 201.451 135.002C200.375 135.564 198.924 135.845 197.473 135.845ZM197.473 130.363C196.115 130.363 194.805 130.597 193.775 131.113C192.839 131.581 192.371 132.19 192.371 132.8C192.371 133.409 192.886 134.018 193.775 134.486C195.788 135.517 199.111 135.517 201.17 134.486C202.107 134.018 202.575 133.409 202.575 132.8C202.575 132.19 202.06 131.581 201.17 131.113C200.188 130.644 198.83 130.363 197.473 130.363Z" fill="#171753"/>
<path d="M201.311 132.05C199.204 130.972 195.788 130.972 193.681 132.05C192.932 132.425 192.418 132.893 192.23 133.409C192.464 133.924 192.932 134.392 193.681 134.767C195.788 135.845 199.204 135.845 201.311 134.767C202.06 134.392 202.575 133.924 202.762 133.409C202.575 132.893 202.06 132.425 201.311 132.05Z" fill="#9BE7C4"/>
<path d="M197.473 135.845C196.022 135.845 194.618 135.564 193.541 135.002C192.745 134.58 192.184 134.064 191.95 133.502L191.903 133.409L191.95 133.315C192.184 132.753 192.745 132.237 193.541 131.816C195.741 130.738 199.251 130.738 201.451 131.816C202.247 132.237 202.809 132.753 203.043 133.315L203.089 133.409L203.043 133.502C202.809 134.064 202.247 134.58 201.451 135.002C200.375 135.564 198.924 135.845 197.473 135.845ZM192.558 133.409C192.792 133.83 193.213 134.205 193.822 134.486C195.835 135.517 199.158 135.517 201.217 134.486C201.826 134.158 202.247 133.783 202.481 133.409C202.247 132.987 201.826 132.612 201.217 132.331C199.205 131.3 195.881 131.3 193.822 132.331C193.167 132.612 192.745 132.987 192.558 133.409Z" fill="#171753"/>
<path d="M202.949 136.173H202.528V137.859H202.949V136.173Z" fill="#9BE7C4"/>
<path d="M191.107 135.236H190.686V136.922H191.107V135.236Z" fill="#9BE7C4"/>
<path d="M198.409 130.129H197.988V131.207H198.409V130.129Z" fill="#9BE7C4"/>
<path d="M201.077 136.969H200.656V138.656H201.077V136.969Z" fill="#9BE7C4"/>
<path d="M169.879 73.8803C169.083 72.8964 168.241 73.0838 166.041 72.6153C164.169 72.1936 162.203 72.1936 160.377 72.709C158.552 73.1775 157.429 73.5055 156.633 74.3488L155.65 74.8173V76.8788V76.9256C155.697 78.2843 156.82 79.5961 159.067 80.5332C161.313 81.4702 163.747 81.6108 166.088 81.0485C169.411 80.2521 171.049 78.6123 171.096 76.9256V76.8319V74.8173L169.879 73.8803Z" fill="#171753"/>
<path d="M163.326 81.6108C161.828 81.6108 160.331 81.3296 158.973 80.7674C156.727 79.8304 155.463 78.4717 155.416 76.9256V76.8788V74.6299L156.492 74.0677C157.335 73.1307 158.599 72.8027 160.331 72.381C162.203 71.9125 164.215 71.8657 166.135 72.2873C166.743 72.4279 167.258 72.5216 167.679 72.5684C168.802 72.7558 169.458 72.8495 170.113 73.646L171.47 74.6767V76.8788C171.424 78.8465 169.458 80.4863 166.228 81.2828C165.245 81.5171 164.309 81.6108 163.326 81.6108ZM155.978 75.0047V76.8788C156.024 78.2375 157.148 79.4087 159.207 80.2521C161.314 81.1422 163.747 81.2828 166.088 80.7206C168.99 80.0178 170.815 78.5186 170.862 76.8788V76.7851V75.0047L169.692 74.0677C169.177 73.4586 168.662 73.3649 167.586 73.1775C167.117 73.0838 166.649 73.037 165.994 72.8964C164.169 72.4747 162.25 72.5216 160.424 72.9901C158.552 73.4586 157.522 73.7866 156.82 74.5362L156.727 74.583L155.978 75.0047Z" fill="#171753"/>
<path d="M168.896 71.6782C171.938 73.4117 171.938 76.2697 168.896 78.0032C165.854 79.7367 160.986 79.7367 157.943 78.0032C154.901 76.2697 154.901 73.4117 157.943 71.6782C160.939 69.8979 165.854 69.8979 168.896 71.6782Z" fill="white"/>
<path d="M163.42 79.5961C161.407 79.5961 159.348 79.1276 157.803 78.2375C156.258 77.3473 155.416 76.1291 155.416 74.8173C155.416 73.5055 156.258 72.2873 157.803 71.3972C160.892 69.6168 165.947 69.6168 169.036 71.3972C170.581 72.2873 171.424 73.5055 171.424 74.8173C171.424 76.1291 170.581 77.3473 169.036 78.2375C167.492 79.1276 165.432 79.5961 163.42 79.5961ZM163.42 70.6475C161.501 70.6475 159.582 71.0692 158.084 71.9125C156.726 72.709 155.978 73.7397 155.978 74.8173C155.978 75.8949 156.726 76.9256 158.084 77.7221C161.033 79.4087 165.807 79.4087 168.756 77.7221C170.113 76.9256 170.862 75.8949 170.862 74.8173C170.862 73.7397 170.113 72.709 168.756 71.9125C167.258 71.0692 165.339 70.6475 163.42 70.6475Z" fill="#171753"/>
<path d="M167.211 72.8964C165.105 71.8189 161.688 71.8189 159.582 72.8964C157.475 73.974 157.475 75.7075 159.582 76.7383C161.688 77.8158 165.105 77.8158 167.211 76.7383C169.317 75.7075 169.317 73.974 167.211 72.8964Z" fill="#171753"/>
<path d="M163.42 77.8158C161.969 77.8158 160.565 77.5347 159.488 76.9725C158.365 76.4103 157.756 75.6138 157.756 74.7705C157.756 73.9271 158.365 73.1307 159.488 72.5684C161.688 71.4909 165.198 71.4909 167.398 72.5684C168.522 73.1307 169.13 73.9271 169.13 74.7705C169.13 75.6138 168.522 76.4103 167.398 76.9725C166.275 77.5347 164.824 77.8158 163.42 77.8158ZM163.42 72.381C162.062 72.381 160.752 72.6153 159.722 73.1307C158.786 73.5992 158.318 74.2082 158.318 74.8173C158.318 75.4264 158.833 76.0354 159.722 76.504C161.735 77.5347 165.058 77.5347 167.117 76.504C168.053 76.0354 168.522 75.4264 168.522 74.8173C168.522 74.2082 168.007 73.5992 167.117 73.1307C166.088 72.6153 164.73 72.381 163.42 72.381Z" fill="#171753"/>
<path d="M167.211 74.0676C165.105 72.9901 161.688 72.9901 159.582 74.0676C158.833 74.4425 158.318 74.911 158.131 75.4263C158.365 75.9417 158.833 76.4102 159.582 76.785C161.688 77.8626 165.105 77.8626 167.211 76.785C167.96 76.4102 168.475 75.9417 168.662 75.4263C168.475 74.911 168.007 74.4425 167.211 74.0676Z" fill="#9BE7C4"/>
<path d="M163.42 77.8157C161.969 77.8157 160.565 77.5346 159.488 76.9724C158.692 76.5508 158.131 76.0354 157.897 75.4732L157.85 75.3795L157.897 75.2858C158.131 74.7235 158.692 74.2082 159.488 73.7865C161.688 72.7089 165.198 72.7089 167.398 73.7865C168.194 74.2082 168.756 74.7235 168.99 75.2858L169.036 75.3795L168.99 75.4732C168.756 76.0354 168.194 76.5508 167.398 76.9724C166.275 77.5346 164.824 77.8157 163.42 77.8157ZM158.458 75.3795C158.692 75.8011 159.114 76.1759 159.722 76.457C161.735 77.4878 165.058 77.4878 167.117 76.457C167.726 76.1291 168.147 75.7543 168.381 75.3795C168.147 74.9578 167.726 74.583 167.117 74.3019C165.105 73.2711 161.782 73.2711 159.722 74.3019C159.114 74.6298 158.646 75.0047 158.458 75.3795Z" fill="#171753"/>
<path d="M168.896 78.1906H168.475V79.8772H168.896V78.1906Z" fill="#9BE7C4"/>
<path d="M157.007 77.2535H156.586V78.9402H157.007V77.2535Z" fill="#9BE7C4"/>
<path d="M164.309 72.1468H163.888V73.2244H164.309V72.1468Z" fill="#9BE7C4"/>
<path d="M166.977 78.9401H166.556V80.6268H166.977V78.9401Z" fill="#9BE7C4"/>
<path d="M172.64 70.1989C171.844 69.215 171.002 69.4024 168.802 68.9339C166.93 68.5122 164.964 68.5122 163.138 69.0276C161.313 69.4961 160.19 69.8241 159.394 70.6674L158.411 71.1359V73.1974V73.2442C158.458 74.6029 159.581 75.9147 161.828 76.8518C164.075 77.7888 166.508 77.9294 168.849 77.3671C172.172 76.5707 173.81 74.9309 173.857 73.2442V73.1505V71.1359L172.64 70.1989Z" fill="#171753"/>
<path d="M166.087 77.9294C164.589 77.9294 163.092 77.6482 161.734 77.086C159.488 76.149 158.224 74.7903 158.177 73.2442V73.1974V70.9485L159.254 70.3863C160.096 69.4493 161.36 69.1213 163.092 68.6996C164.964 68.2311 166.977 68.1843 168.896 68.6059C169.504 68.7465 170.019 68.8402 170.44 68.887C171.564 69.0744 172.219 69.1682 172.874 69.9646L174.231 70.9954V73.1974C174.185 75.1651 172.219 76.8049 168.989 77.6014C168.006 77.8357 167.07 77.9294 166.087 77.9294ZM158.739 71.3233V73.1974C158.785 74.5561 159.909 75.7273 161.968 76.5707C164.075 77.4608 166.508 77.6014 168.849 77.0392C171.751 76.3364 173.576 74.8372 173.623 73.1974V73.1037V71.3233L172.453 70.3863C171.938 69.7772 171.423 69.6835 170.347 69.4961C169.878 69.4024 169.41 69.3556 168.755 69.215C166.93 68.7933 165.011 68.8402 163.185 69.3087C161.313 69.7772 160.283 70.1052 159.581 70.8548L159.488 70.9017L158.739 71.3233Z" fill="#171753"/>
<path d="M171.657 67.9968C174.699 69.7303 174.699 72.5883 171.657 74.3218C168.615 76.0553 163.747 76.0553 160.705 74.3218C157.662 72.5883 157.662 69.7303 160.705 67.9968C163.7 66.2165 168.615 66.2165 171.657 67.9968Z" fill="white"/>
<path d="M166.181 75.9147C164.168 75.9147 162.109 75.4462 160.564 74.556C159.019 73.6658 158.177 72.4477 158.177 71.1358C158.177 69.824 159.019 68.6059 160.564 67.7157C163.653 65.9353 168.708 65.9353 171.797 67.7157C173.342 68.6059 174.185 69.824 174.185 71.1358C174.185 72.4477 173.342 73.6658 171.797 74.556C170.253 75.4462 168.193 75.9147 166.181 75.9147ZM166.181 66.9661C164.262 66.9661 162.343 67.3877 160.845 68.2311C159.488 69.0275 158.739 70.0583 158.739 71.1358C158.739 72.2134 159.488 73.2442 160.845 74.0406C163.794 75.7273 168.568 75.7273 171.517 74.0406C172.874 73.2442 173.623 72.2134 173.623 71.1358C173.623 70.0583 172.874 69.0275 171.517 68.2311C170.019 67.3877 168.1 66.9661 166.181 66.9661Z" fill="#171753"/>
<path d="M169.972 69.215C167.866 68.1374 164.449 68.1374 162.343 69.215C160.236 70.2926 160.236 72.0261 162.343 73.0568C164.449 74.1344 167.866 74.1344 169.972 73.0568C172.078 72.0261 172.078 70.2926 169.972 69.215Z" fill="#171753"/>
<path d="M166.181 74.1343C164.73 74.1343 163.326 73.8532 162.249 73.291C161.126 72.7288 160.517 71.9323 160.517 71.089C160.517 70.2457 161.126 69.4492 162.249 68.887C164.449 67.8094 167.959 67.8094 170.159 68.887C171.283 69.4492 171.891 70.2457 171.891 71.089C171.891 71.9323 171.283 72.7288 170.159 73.291C169.036 73.8532 167.585 74.1343 166.181 74.1343ZM166.181 68.6996C164.823 68.6996 163.513 68.9338 162.483 69.4492C161.547 69.9177 161.079 70.5268 161.079 71.1359C161.079 71.7449 161.594 72.354 162.483 72.8225C164.496 73.8532 167.819 73.8532 169.878 72.8225C170.815 72.354 171.283 71.7449 171.283 71.1359C171.283 70.5268 170.768 69.9177 169.878 69.4492C168.849 68.9338 167.491 68.6996 166.181 68.6996Z" fill="#171753"/>
<path d="M169.972 70.3863C167.866 69.3087 164.449 69.3087 162.343 70.3863C161.594 70.7611 161.079 71.2296 160.892 71.7449C161.126 72.2603 161.594 72.7288 162.343 73.1036C164.449 74.1812 167.866 74.1812 169.972 73.1036C170.721 72.7288 171.236 72.2603 171.423 71.7449C171.236 71.2296 170.768 70.7611 169.972 70.3863Z" fill="#9BE7C4"/>
<path d="M166.181 74.1343C164.73 74.1343 163.326 73.8532 162.249 73.291C161.453 72.8694 160.892 72.354 160.658 71.7918L160.611 71.6981L160.658 71.6044C160.892 71.0421 161.453 70.5268 162.249 70.1051C164.449 69.0275 167.959 69.0275 170.159 70.1051C170.955 70.5268 171.517 71.0421 171.751 71.6044L171.798 71.6981L171.751 71.7918C171.517 72.354 170.955 72.8694 170.159 73.291C169.036 73.8532 167.585 74.1343 166.181 74.1343ZM161.219 71.6981C161.453 72.1197 161.875 72.4945 162.483 72.7756C164.496 73.8064 167.819 73.8064 169.878 72.7756C170.487 72.4477 170.908 72.0729 171.142 71.6981C170.908 71.2764 170.487 70.9016 169.878 70.6205C167.866 69.5898 164.543 69.5898 162.483 70.6205C161.875 70.9484 161.407 71.3233 161.219 71.6981Z" fill="#171753"/>
<path d="M171.657 74.5092H171.236V76.1958H171.657V74.5092Z" fill="#9BE7C4"/>
<path d="M159.768 73.5721H159.347V75.2588H159.768V73.5721Z" fill="#9BE7C4"/>
<path d="M167.07 68.4653H166.649V69.5429H167.07V68.4653Z" fill="#9BE7C4"/>
<path d="M169.738 75.2587H169.317V76.9454H169.738V75.2587Z" fill="#9BE7C4"/>
<path d="M168.959 65.5971C168.163 64.6133 167.32 64.8007 165.121 64.3321C163.248 63.9105 161.282 63.9105 159.457 64.4258C157.632 64.8944 156.508 65.2223 155.713 66.0656L154.73 66.5342V68.5956V68.6425C154.776 70.0012 155.9 71.313 158.146 72.25C160.393 73.1871 162.827 73.3276 165.167 72.7654C168.491 71.9689 170.129 70.3291 170.176 68.6425V68.5488V66.5342L168.959 65.5971Z" fill="#171753"/>
<path d="M162.406 73.3276C160.908 73.3276 159.41 73.0465 158.053 72.4843C155.806 71.5473 154.542 70.1886 154.496 68.6425V68.5956V66.3468L155.572 65.7845C156.415 64.8475 157.678 64.5196 159.41 64.0979C161.282 63.6294 163.295 63.5825 165.214 64.0042C165.823 64.1447 166.338 64.2384 166.759 64.2853C167.882 64.4727 168.537 64.5664 169.193 65.3629L170.55 66.3936V68.5956C170.503 70.5634 168.537 72.2032 165.308 72.9997C164.325 73.2339 163.389 73.3276 162.406 73.3276ZM155.057 66.7216V68.5956C155.104 69.9543 156.227 71.1256 158.287 71.9689C160.393 72.8591 162.827 72.9997 165.167 72.4374C168.069 71.7347 169.895 70.2354 169.942 68.5956V68.5019V66.7216L168.771 65.7845C168.257 65.1755 167.742 65.0818 166.665 64.8944C166.197 64.8007 165.729 64.7538 165.074 64.6133C163.248 64.1916 161.329 64.2384 159.504 64.707C157.632 65.1755 156.602 65.5034 155.9 66.2531L155.806 66.2999L155.057 66.7216Z" fill="#171753"/>
<path d="M167.976 63.3951C171.018 65.1286 171.018 67.9865 167.976 69.72C164.933 71.4535 160.066 71.4535 157.023 69.72C153.981 67.9865 153.981 65.1286 157.023 63.3951C160.019 61.6147 164.933 61.6147 167.976 63.3951Z" fill="white"/>
<path d="M162.499 71.3129C160.487 71.3129 158.427 70.8444 156.883 69.9543C155.338 69.0641 154.496 67.8459 154.496 66.5341C154.496 65.2223 155.338 64.0041 156.883 63.114C159.972 61.3336 165.027 61.3336 168.116 63.114C169.661 64.0041 170.503 65.2223 170.503 66.5341C170.503 67.8459 169.661 69.0641 168.116 69.9543C166.571 70.8444 164.512 71.3129 162.499 71.3129ZM162.499 62.3643C160.58 62.3643 158.661 62.786 157.163 63.6293C155.806 64.4258 155.057 65.4565 155.057 66.5341C155.057 67.6117 155.806 68.6424 157.163 69.4389C160.112 71.1255 164.886 71.1255 167.835 69.4389C169.193 68.6424 169.942 67.6117 169.942 66.5341C169.942 65.4565 169.193 64.4258 167.835 63.6293C166.337 62.786 164.418 62.3643 162.499 62.3643Z" fill="#171753"/>
<path d="M166.291 64.6132C164.184 63.5357 160.768 63.5357 158.661 64.6132C156.555 65.6908 156.555 67.4243 158.661 68.4551C160.768 69.5326 164.184 69.5326 166.291 68.4551C168.397 67.4243 168.397 65.6908 166.291 64.6132Z" fill="#171753"/>
<path d="M162.499 69.5326C161.048 69.5326 159.644 69.2515 158.568 68.6893C157.444 68.1271 156.836 67.3306 156.836 66.4873C156.836 65.6439 157.444 64.8475 158.568 64.2852C160.768 63.2077 164.278 63.2077 166.478 64.2852C167.601 64.8475 168.21 65.6439 168.21 66.4873C168.21 67.3306 167.601 68.1271 166.478 68.6893C165.354 69.2515 163.904 69.5326 162.499 69.5326ZM162.499 64.0978C161.142 64.0978 159.831 64.3321 158.802 64.8475C157.866 65.316 157.397 65.925 157.397 66.5341C157.397 67.1432 157.912 67.7522 158.802 68.2208C160.814 69.2515 164.138 69.2515 166.197 68.2208C167.133 67.7522 167.601 67.1432 167.601 66.5341C167.601 65.925 167.086 65.316 166.197 64.8475C165.167 64.3321 163.81 64.0978 162.499 64.0978Z" fill="#171753"/>
<path d="M166.291 65.7844C164.184 64.7069 160.768 64.7069 158.661 65.7844C157.912 66.1593 157.398 66.6278 157.21 67.1431C157.444 67.6585 157.912 68.127 158.661 68.5018C160.768 69.5794 164.184 69.5794 166.291 68.5018C167.04 68.127 167.554 67.6585 167.742 67.1431C167.554 66.6278 167.086 66.1593 166.291 65.7844Z" fill="#9BE7C4"/>
<path d="M162.499 69.5326C161.048 69.5326 159.644 69.2515 158.568 68.6893C157.772 68.2676 157.21 67.7522 156.976 67.19L156.93 67.0963L156.976 67.0026C157.21 66.4404 157.772 65.925 158.568 65.5034C160.768 64.4258 164.278 64.4258 166.478 65.5034C167.274 65.925 167.835 66.4404 168.069 67.0026L168.116 67.0963L168.069 67.19C167.835 67.7522 167.274 68.2676 166.478 68.6893C165.355 69.2515 163.904 69.5326 162.499 69.5326ZM157.538 67.0963C157.772 67.518 158.193 67.8928 158.802 68.1739C160.814 69.2046 164.138 69.2046 166.197 68.1739C166.806 67.8459 167.227 67.4711 167.461 67.0963C167.227 66.6747 166.806 66.2998 166.197 66.0187C164.184 64.988 160.861 64.988 158.802 66.0187C158.193 66.3467 157.725 66.7215 157.538 67.0963Z" fill="#171753"/>
<path d="M167.976 69.9074H167.554V71.5941H167.976V69.9074Z" fill="#9BE7C4"/>
<path d="M156.087 68.9703H155.666V70.657H156.087V68.9703Z" fill="#9BE7C4"/>
<path d="M163.389 63.8636H162.967V64.9412H163.389V63.8636Z" fill="#9BE7C4"/>
<path d="M166.057 70.657H165.635V72.3436H166.057V70.657Z" fill="#9BE7C4"/>
<path d="M156.994 80.3228C156.198 79.3389 155.356 79.5263 153.156 79.0578C151.284 78.6361 149.318 78.6361 147.492 79.1515C145.667 79.62 144.544 79.948 143.748 80.7913L142.765 81.2598V83.3213V83.3681C142.812 84.7268 143.935 86.0386 146.182 86.9757C148.429 87.9127 150.862 88.0533 153.203 87.491C156.526 86.6946 158.164 85.0548 158.211 83.3681V83.2744V81.2598L156.994 80.3228Z" fill="#171753"/>
<path d="M150.441 88.0532C148.943 88.0532 147.446 87.7721 146.088 87.2099C143.842 86.2728 142.578 84.9142 142.531 83.3681V83.3212V81.0723L143.608 80.5101C144.45 79.5731 145.714 79.2451 147.446 78.8235C149.318 78.355 151.331 78.3081 153.25 78.7298C153.858 78.8703 154.373 78.964 154.794 79.0109C155.918 79.1983 156.573 79.292 157.228 80.0885L158.585 81.1192V83.3212C158.539 85.289 156.573 86.9288 153.343 87.7252C152.36 87.9595 151.424 88.0532 150.441 88.0532ZM143.093 81.4472V83.3212C143.139 84.6799 144.263 85.8512 146.322 86.6945C148.429 87.5847 150.862 87.7252 153.203 87.163C156.105 86.4603 157.93 84.961 157.977 83.3212V83.2275V81.4472L156.807 80.5101C156.292 79.9011 155.777 79.8074 154.701 79.62C154.232 79.5262 153.764 79.4794 153.109 79.3388C151.284 78.9172 149.365 78.964 147.539 79.4325C145.667 79.9011 144.637 80.229 143.935 80.9786L143.842 81.0255L143.093 81.4472Z" fill="#171753"/>
<path d="M156.011 78.1207C159.054 79.8542 159.054 82.7122 156.011 84.4457C152.969 86.1792 148.101 86.1792 145.059 84.4457C142.016 82.7122 142.016 79.8542 145.059 78.1207C148.054 76.3404 152.969 76.3404 156.011 78.1207Z" fill="white"/>
<path d="M150.535 86.0386C148.522 86.0386 146.463 85.5701 144.918 84.6799C143.373 83.7897 142.531 82.5716 142.531 81.2597C142.531 79.9479 143.373 78.7298 144.918 77.8396C148.007 76.0592 153.062 76.0592 156.151 77.8396C157.696 78.7298 158.539 79.9479 158.539 81.2597C158.539 82.5716 157.696 83.7897 156.151 84.6799C154.607 85.5701 152.547 86.0386 150.535 86.0386ZM150.535 77.09C148.616 77.09 146.697 77.5116 145.199 78.355C143.842 79.1514 143.093 80.1822 143.093 81.2597C143.093 82.3373 143.842 83.3681 145.199 84.1645C148.148 85.8512 152.922 85.8512 155.871 84.1645C157.228 83.3681 157.977 82.3373 157.977 81.2597C157.977 80.1822 157.228 79.1514 155.871 78.355C154.373 77.5116 152.454 77.09 150.535 77.09Z" fill="#171753"/>
<path d="M154.326 79.3389C152.22 78.2613 148.803 78.2613 146.697 79.3389C144.59 80.4165 144.59 82.15 146.697 83.1807C148.803 84.2583 152.22 84.2583 154.326 83.1807C156.432 82.15 156.432 80.4165 154.326 79.3389Z" fill="#171753"/>
<path d="M150.535 84.2582C149.084 84.2582 147.68 83.9771 146.603 83.4149C145.48 82.8527 144.871 82.0562 144.871 81.2129C144.871 80.3696 145.48 79.5731 146.603 79.0109C148.803 77.9333 152.313 77.9333 154.513 79.0109C155.637 79.5731 156.245 80.3696 156.245 81.2129C156.245 82.0562 155.637 82.8527 154.513 83.4149C153.39 83.9771 151.939 84.2582 150.535 84.2582ZM150.535 78.8235C149.177 78.8235 147.867 79.0577 146.837 79.5731C145.901 80.0416 145.433 80.6507 145.433 81.2598C145.433 81.8688 145.948 82.4779 146.837 82.9464C148.85 83.9771 152.173 83.9771 154.232 82.9464C155.169 82.4779 155.637 81.8688 155.637 81.2598C155.637 80.6507 155.122 80.0416 154.232 79.5731C153.203 79.0577 151.845 78.8235 150.535 78.8235Z" fill="#171753"/>
<path d="M154.326 80.5101C152.22 79.4325 148.803 79.4325 146.697 80.5101C145.948 80.8849 145.433 81.3534 145.246 81.8688C145.48 82.3841 145.948 82.8527 146.697 83.2275C148.803 84.3051 152.22 84.3051 154.326 83.2275C155.075 82.8527 155.59 82.3841 155.777 81.8688C155.59 81.3534 155.122 80.8849 154.326 80.5101Z" fill="#9BE7C4"/>
<path d="M150.535 84.2582C149.084 84.2582 147.68 83.9771 146.603 83.4149C145.807 82.9933 145.246 82.4779 145.012 81.9157L144.965 81.822L145.012 81.7283C145.246 81.166 145.807 80.6507 146.603 80.229C148.803 79.1514 152.313 79.1514 154.513 80.229C155.309 80.6507 155.871 81.166 156.105 81.7283L156.152 81.822L156.105 81.9157C155.871 82.4779 155.309 82.9933 154.513 83.4149C153.39 83.9771 151.939 84.2582 150.535 84.2582ZM145.573 81.822C145.807 82.2436 146.229 82.6184 146.837 82.8996C148.85 83.9303 152.173 83.9303 154.232 82.8996C154.841 82.5716 155.262 82.1968 155.496 81.822C155.262 81.4003 154.841 81.0255 154.232 80.7444C152.22 79.7137 148.897 79.7137 146.837 80.7444C146.229 81.0723 145.761 81.4472 145.573 81.822Z" fill="#171753"/>
<path d="M156.011 84.6331H155.59V86.3197H156.011V84.6331Z" fill="#9BE7C4"/>
<path d="M144.122 83.696H143.701V85.3826H144.122V83.696Z" fill="#9BE7C4"/>
<path d="M151.424 78.5892H151.003V79.6668H151.424V78.5892Z" fill="#9BE7C4"/>
<path d="M154.092 85.3826H153.671V87.0693H154.092V85.3826Z" fill="#9BE7C4"/>
<g opacity="0.7">
<path d="M84.6105 26.4682L85.8965 26.4682L85.8965 29.4721L84.6105 29.4721L84.6105 26.4682ZM84.6105 32.5832L85.8965 32.5832L85.8965 35.587L84.6105 35.587L84.6105 32.5832ZM84.6105 38.5909L85.8965 38.5909L85.8965 41.5947L84.6105 41.5947L84.6105 38.5909Z" fill="#171753"/>
<path d="M77.6449 33.4414L80.6456 33.4414L80.6456 34.7288L77.6449 34.7288L77.6449 33.4414ZM83.7535 33.4414L86.7542 33.4414L86.7542 34.7288L83.7535 34.7288L83.7535 33.4414ZM89.862 33.4414L92.8627 33.4414L92.8627 34.7288L89.862 34.7288L89.862 33.4414Z" fill="#171753"/>
<path d="M68 24.0007L71.0007 24.0007L71.0007 25.2881L68 25.2881L68 24.0007ZM74.1086 24.0007L77.1093 24.0007L77.1093 25.2881L74.1086 25.2881L74.1086 24.0007Z" fill="#171753"/>
</g>
<g opacity="0.7">
<path d="M83.1182 99.6446L83.1182 100.933L80.116 100.933L80.116 99.6446L83.1182 99.6446ZM77.0066 99.6446L77.0066 100.933L74.0044 100.933L74.0044 99.6446L77.0066 99.6446ZM71.0022 99.6446L71.0022 100.933L68 100.933L68 99.6446L71.0022 99.6446Z" fill="#171753"/>
<path d="M76.1488 92.6646L76.1488 95.6713L74.8621 95.6713L74.8621 92.6646L76.1488 92.6646ZM76.1488 98.7855L76.1488 101.792L74.8621 101.792L74.8621 98.7855L76.1488 98.7855ZM76.1488 104.906L76.1488 107.913L74.8621 107.913L74.8621 104.906L76.1488 104.906Z" fill="#171753"/>
<path d="M85.5838 83L85.5838 86.0068L84.2972 86.0068L84.2972 83L85.5838 83ZM85.5838 89.1209L85.5838 92.1277L84.2972 92.1277L84.2972 89.1209L85.5838 89.1209Z" fill="#171753"/>
</g>
<g opacity="0.7">
<path d="M22.7609 55.9769L22.7609 57.2629L19.7571 57.2629L19.7571 55.9769L22.7609 55.9769ZM16.6459 55.9769L16.6459 57.2629L13.6421 57.2629L13.6421 55.9769L16.6459 55.9769ZM10.6382 55.9769L10.6382 57.2629L7.6344 57.2629L7.6344 55.9769L10.6382 55.9769Z" fill="#171753"/>
<path d="M15.7877 49.0113L15.7877 52.012L14.5004 52.012L14.5004 49.0113L15.7877 49.0113ZM15.7877 55.1199L15.7877 58.1206L14.5004 58.1206L14.5004 55.1199L15.7877 55.1199ZM15.7877 61.2284L15.7877 64.2291L14.5004 64.2291L14.5004 61.2284L15.7877 61.2284Z" fill="#171753"/>
<path d="M25.2283 39.3664L25.2283 42.3671L23.941 42.3671L23.941 39.3664L25.2283 39.3664ZM25.2283 45.4749L25.2283 48.4756L23.941 48.4756L23.941 45.4749L25.2283 45.4749Z" fill="#171753"/>
</g>
<g opacity="0.7">
<path d="M277.276 92.632L277.276 91.4426L280.047 91.4426L280.047 92.632L277.276 92.632ZM282.917 92.632L282.917 91.4426L285.688 91.4426L285.688 92.632L282.917 92.632ZM288.459 92.632L288.459 91.4426L291.23 91.4426L291.23 92.632L288.459 92.632Z" fill="#171753"/>
<path d="M283.709 99.0746L283.709 96.2993L284.896 96.2993L284.896 99.0746L283.709 99.0746ZM283.709 93.4249L283.709 90.6497L284.896 90.6497L284.896 93.4249L283.709 93.4249ZM283.709 87.7753L283.709 85L284.896 85L284.896 87.7753L283.709 87.7753Z" fill="#171753"/>
<path d="M275 107.995L275 105.22L276.188 105.22L276.188 107.995L275 107.995ZM275 102.345L275 99.5702L276.188 99.5702L276.188 102.345L275 102.345Z" fill="#171753"/>
</g>
<path d="M27.78 136.38C26.4867 136.38 25.3933 136.173 24.5 135.76C23.62 135.347 22.9467 134.78 22.48 134.06C22.0133 133.327 21.78 132.5 21.78 131.58H24.56C24.56 131.967 24.6667 132.347 24.88 132.72C25.0933 133.08 25.4333 133.373 25.9 133.6C26.38 133.827 27.0067 133.94 27.78 133.94C28.4733 133.94 29.0533 133.84 29.52 133.64C29.9867 133.44 30.3333 133.18 30.56 132.86C30.7867 132.527 30.9 132.153 30.9 131.74C30.9 131.22 30.68 130.807 30.24 130.5C29.8 130.18 29.12 129.98 28.2 129.9L26.92 129.8C25.52 129.68 24.4 129.247 23.56 128.5C22.7333 127.74 22.32 126.74 22.32 125.5C22.32 124.567 22.54 123.767 22.98 123.1C23.42 122.42 24.0333 121.9 24.82 121.54C25.62 121.167 26.5533 120.98 27.62 120.98C28.7267 120.98 29.68 121.173 30.48 121.56C31.28 121.947 31.9 122.493 32.34 123.2C32.78 123.893 33 124.713 33 125.66H30.22C30.22 125.26 30.12 124.893 29.92 124.56C29.7333 124.213 29.4467 123.94 29.06 123.74C28.6867 123.527 28.2067 123.42 27.62 123.42C27.06 123.42 26.5933 123.513 26.22 123.7C25.8467 123.887 25.5667 124.14 25.38 124.46C25.1933 124.78 25.1 125.127 25.1 125.5C25.1 125.953 25.2667 126.353 25.6 126.7C25.9333 127.033 26.46 127.227 27.18 127.28L28.46 127.4C29.5 127.48 30.4133 127.7 31.2 128.06C31.9867 128.42 32.5933 128.907 33.02 129.52C33.46 130.133 33.68 130.873 33.68 131.74C33.68 132.66 33.44 133.473 32.96 134.18C32.48 134.873 31.7933 135.413 30.9 135.8C30.02 136.187 28.98 136.38 27.78 136.38ZM40.7766 136.14C39.7766 136.14 38.9499 136.013 38.2966 135.76C37.6566 135.493 37.1766 135.053 36.8566 134.44C36.5366 133.813 36.3766 132.973 36.3766 131.92L36.3966 122.08H38.9966L38.9766 132.1C38.9766 132.633 39.1166 133.047 39.3966 133.34C39.6899 133.62 40.1032 133.76 40.6366 133.76H42.3366V136.14H40.7766ZM34.6566 127.18V125.14H42.3366V127.18H34.6566ZM51.2108 136V132.78H50.7508V129.2C50.7508 128.573 50.5974 128.107 50.2908 127.8C49.9841 127.493 49.5108 127.34 48.8708 127.34C48.5374 127.34 48.1374 127.347 47.6708 127.36C47.2041 127.373 46.7308 127.393 46.2508 127.42C45.7841 127.433 45.3641 127.453 44.9908 127.48V125.12C45.2974 125.093 45.6441 125.067 46.0308 125.04C46.4174 125.013 46.8108 125 47.2108 125C47.6241 124.987 48.0108 124.98 48.3708 124.98C49.4908 124.98 50.4174 125.127 51.1508 125.42C51.8974 125.713 52.4574 126.173 52.8308 126.8C53.2174 127.427 53.4108 128.247 53.4108 129.26V136H51.2108ZM47.7108 136.28C46.9241 136.28 46.2308 136.14 45.6308 135.86C45.0441 135.58 44.5841 135.18 44.2508 134.66C43.9308 134.14 43.7708 133.513 43.7708 132.78C43.7708 131.98 43.9641 131.327 44.3508 130.82C44.7508 130.313 45.3041 129.933 46.0108 129.68C46.7308 129.427 47.5708 129.3 48.5308 129.3H51.0508V130.96H48.4908C47.8508 130.96 47.3574 131.12 47.0108 131.44C46.6774 131.747 46.5108 132.147 46.5108 132.64C46.5108 133.133 46.6774 133.533 47.0108 133.84C47.3574 134.147 47.8508 134.3 48.4908 134.3C48.8774 134.3 49.2308 134.233 49.5508 134.1C49.8841 133.953 50.1574 133.713 50.3708 133.38C50.5974 133.033 50.7241 132.567 50.7508 131.98L51.4308 132.76C51.3641 133.52 51.1774 134.16 50.8708 134.68C50.5774 135.2 50.1641 135.6 49.6308 135.88C49.1108 136.147 48.4708 136.28 47.7108 136.28ZM56.3886 136V125.14H58.5886V129.74H58.5286C58.5286 128.18 58.8619 127 59.5286 126.2C60.1953 125.4 61.1753 125 62.4686 125H62.8686V127.42H62.1086C61.1753 127.42 60.4486 127.673 59.9286 128.18C59.4219 128.673 59.1686 129.393 59.1686 130.34V136H56.3886ZM69.6828 136.14C68.6828 136.14 67.8561 136.013 67.2028 135.76C66.5628 135.493 66.0828 135.053 65.7628 134.44C65.4428 133.813 65.2828 132.973 65.2828 131.92L65.3028 122.08H67.9028L67.8828 132.1C67.8828 132.633 68.0228 133.047 68.3028 133.34C68.5961 133.62 69.0095 133.76 69.5428 133.76H71.2428V136.14H69.6828ZM63.5628 127.18V125.14H71.2428V127.18H63.5628ZM77.8925 136V125.14H80.0925V129.74H80.0325C80.0325 128.18 80.3658 127 81.0325 126.2C81.6992 125.4 82.6792 125 83.9725 125H84.3725V127.42H83.6125C82.6792 127.42 81.9525 127.673 81.4325 128.18C80.9258 128.673 80.6725 129.393 80.6725 130.34V136H77.8925ZM89.9323 136.34C88.679 136.34 87.7057 135.927 87.0123 135.1C86.3323 134.273 85.9923 133.047 85.9923 131.42V125.12H88.7723V131.66C88.7723 132.327 88.959 132.86 89.3323 133.26C89.7057 133.647 90.2123 133.84 90.8523 133.84C91.4923 133.84 92.0123 133.633 92.4123 133.22C92.8257 132.807 93.0323 132.247 93.0323 131.54V125.12H95.8123V136H93.6123V131.38H93.8323C93.8323 132.473 93.6923 133.387 93.4123 134.12C93.1323 134.853 92.7123 135.407 92.1523 135.78C91.5923 136.153 90.8923 136.34 90.0523 136.34H89.9323ZM99.0058 136V125.14H101.206V129.8H101.006C101.006 128.693 101.152 127.773 101.446 127.04C101.739 126.293 102.172 125.733 102.746 125.36C103.332 124.987 104.059 124.8 104.926 124.8H105.046C106.339 124.8 107.319 125.22 107.986 126.06C108.652 126.887 108.986 128.127 108.986 129.78V136H106.206V129.54C106.206 128.873 106.012 128.333 105.626 127.92C105.252 127.507 104.732 127.3 104.066 127.3C103.386 127.3 102.832 127.513 102.406 127.94C101.992 128.353 101.786 128.913 101.786 129.62V136H99.0058ZM111.975 136V125.14H114.175V129.8H113.975C113.975 128.693 114.121 127.773 114.415 127.04C114.708 126.293 115.141 125.733 115.715 125.36C116.301 124.987 117.028 124.8 117.895 124.8H118.015C119.308 124.8 120.288 125.22 120.955 126.06C121.621 126.887 121.955 128.127 121.955 129.78V136H119.175V129.54C119.175 128.873 118.981 128.333 118.595 127.92C118.221 127.507 117.701 127.3 117.035 127.3C116.355 127.3 115.801 127.513 115.375 127.94C114.961 128.353 114.755 128.913 114.755 129.62V136H111.975ZM125.463 136V125.14H128.243V136H125.463ZM123.943 127.22V125.14H128.243V127.22H123.943ZM126.483 123.84C125.937 123.84 125.53 123.7 125.263 123.42C125.01 123.127 124.883 122.767 124.883 122.34C124.883 121.887 125.01 121.52 125.263 121.24C125.53 120.96 125.937 120.82 126.483 120.82C127.03 120.82 127.43 120.96 127.683 121.24C127.937 121.52 128.063 121.887 128.063 122.34C128.063 122.767 127.937 123.127 127.683 123.42C127.43 123.7 127.03 123.84 126.483 123.84ZM131.447 136V125.14H133.647V129.8H133.447C133.447 128.693 133.594 127.773 133.887 127.04C134.181 126.293 134.614 125.733 135.187 125.36C135.774 124.987 136.501 124.8 137.367 124.8H137.487C138.781 124.8 139.761 125.22 140.427 126.06C141.094 126.887 141.427 128.127 141.427 129.78V136H138.647V129.54C138.647 128.873 138.454 128.333 138.067 127.92C137.694 127.507 137.174 127.3 136.507 127.3C135.827 127.3 135.274 127.513 134.847 127.94C134.434 128.353 134.227 128.913 134.227 129.62V136H131.447ZM148.656 140.28C148.136 140.28 147.603 140.26 147.056 140.22C146.523 140.18 146.023 140.127 145.556 140.06V137.74C146.036 137.793 146.549 137.84 147.096 137.88C147.643 137.933 148.156 137.96 148.636 137.96C149.529 137.96 150.249 137.853 150.796 137.64C151.356 137.427 151.763 137.087 152.016 136.62C152.283 136.167 152.416 135.587 152.416 134.88V132.74L153.016 131.38C152.976 132.38 152.769 133.233 152.396 133.94C152.023 134.633 151.516 135.167 150.876 135.54C150.236 135.9 149.496 136.08 148.656 136.08C147.909 136.08 147.229 135.94 146.616 135.66C146.016 135.38 145.496 134.993 145.056 134.5C144.629 134.007 144.296 133.427 144.056 132.76C143.816 132.093 143.696 131.38 143.696 130.62V130.2C143.696 129.44 143.816 128.733 144.056 128.08C144.309 127.413 144.663 126.833 145.116 126.34C145.569 125.847 146.109 125.467 146.736 125.2C147.363 124.933 148.056 124.8 148.816 124.8C149.709 124.8 150.483 124.993 151.136 125.38C151.803 125.767 152.323 126.327 152.696 127.06C153.069 127.793 153.276 128.693 153.316 129.76L152.836 129.84V125.14H155.036V134.72C155.036 136.04 154.809 137.107 154.356 137.92C153.903 138.733 153.203 139.327 152.256 139.7C151.323 140.087 150.123 140.28 148.656 140.28ZM149.456 133.7C149.989 133.7 150.476 133.58 150.916 133.34C151.356 133.1 151.709 132.753 151.976 132.3C152.243 131.847 152.376 131.3 152.376 130.66V129.96C152.376 129.347 152.236 128.827 151.956 128.4C151.689 127.973 151.336 127.653 150.896 127.44C150.456 127.213 149.976 127.1 149.456 127.1C148.869 127.1 148.349 127.24 147.896 127.52C147.456 127.787 147.109 128.167 146.856 128.66C146.603 129.153 146.476 129.74 146.476 130.42C146.476 131.087 146.603 131.667 146.856 132.16C147.109 132.653 147.456 133.033 147.896 133.3C148.349 133.567 148.869 133.7 149.456 133.7ZM29.16 160V156.78H28.7V153.2C28.7 152.573 28.5467 152.107 28.24 151.8C27.9333 151.493 27.46 151.34 26.82 151.34C26.4867 151.34 26.0867 151.347 25.62 151.36C25.1533 151.373 24.68 151.393 24.2 151.42C23.7333 151.433 23.3133 151.453 22.94 151.48V149.12C23.2467 149.093 23.5933 149.067 23.98 149.04C24.3667 149.013 24.76 149 25.16 149C25.5733 148.987 25.96 148.98 26.32 148.98C27.44 148.98 28.3667 149.127 29.1 149.42C29.8467 149.713 30.4067 150.173 30.78 150.8C31.1667 151.427 31.36 152.247 31.36 153.26V160H29.16ZM25.66 160.28C24.8733 160.28 24.18 160.14 23.58 159.86C22.9933 159.58 22.5333 159.18 22.2 158.66C21.88 158.14 21.72 157.513 21.72 156.78C21.72 155.98 21.9133 155.327 22.3 154.82C22.7 154.313 23.2533 153.933 23.96 153.68C24.68 153.427 25.52 153.3 26.48 153.3H29V154.96H26.44C25.8 154.96 25.3067 155.12 24.96 155.44C24.6267 155.747 24.46 156.147 24.46 156.64C24.46 157.133 24.6267 157.533 24.96 157.84C25.3067 158.147 25.8 158.3 26.44 158.3C26.8267 158.3 27.18 158.233 27.5 158.1C27.8333 157.953 28.1067 157.713 28.32 157.38C28.5467 157.033 28.6733 156.567 28.7 155.98L29.38 156.76C29.3133 157.52 29.1267 158.16 28.82 158.68C28.5267 159.2 28.1133 159.6 27.58 159.88C27.06 160.147 26.42 160.28 25.66 160.28ZM48.3342 160L42.9942 153.18H40.9342L47.2742 145.4H50.5342L44.8142 152.4L44.7342 151L51.7942 160H48.3342ZM38.8742 160V145.4H41.7142V160H38.8742ZM59.367 160.38C58.047 160.38 56.9004 160.147 55.927 159.68C54.967 159.213 54.167 158.607 53.527 157.86C52.9004 157.1 52.427 156.287 52.107 155.42C51.8004 154.54 51.647 153.693 51.647 152.88V152.44C51.647 151.547 51.807 150.66 52.127 149.78C52.447 148.887 52.927 148.08 53.567 147.36C54.2204 146.64 55.027 146.067 55.987 145.64C56.947 145.2 58.0737 144.98 59.367 144.98C60.647 144.98 61.767 145.2 62.727 145.64C63.687 146.067 64.487 146.64 65.127 147.36C65.7804 148.08 66.267 148.887 66.587 149.78C66.907 150.66 67.067 151.547 67.067 152.44V152.88C67.067 153.693 66.907 154.54 66.587 155.42C66.2804 156.287 65.807 157.1 65.167 157.86C64.5404 158.607 63.7404 159.213 62.767 159.68C61.807 160.147 60.6737 160.38 59.367 160.38ZM59.367 157.74C60.1137 157.74 60.7804 157.607 61.367 157.34C61.967 157.073 62.4737 156.707 62.887 156.24C63.3137 155.76 63.6337 155.22 63.847 154.62C64.0737 154.007 64.187 153.36 64.187 152.68C64.187 151.947 64.0737 151.273 63.847 150.66C63.6337 150.047 63.3137 149.513 62.887 149.06C62.4737 148.607 61.967 148.253 61.367 148C60.767 147.747 60.1004 147.62 59.367 147.62C58.6204 147.62 57.947 147.747 57.347 148C56.747 148.253 56.2337 148.607 55.807 149.06C55.3937 149.513 55.0737 150.047 54.847 150.66C54.6337 151.273 54.527 151.947 54.527 152.68C54.527 153.36 54.6337 154.007 54.847 154.62C55.0737 155.22 55.3937 155.76 55.807 156.24C56.2337 156.707 56.747 157.073 57.347 157.34C57.947 157.607 58.6204 157.74 59.367 157.74ZM70.1117 160V149.14H72.8917V160H70.1117ZM68.5917 151.22V149.14H72.8917V151.22H68.5917ZM71.1317 147.84C70.5851 147.84 70.1784 147.7 69.9117 147.42C69.6584 147.127 69.5317 146.767 69.5317 146.34C69.5317 145.887 69.6584 145.52 69.9117 145.24C70.1784 144.96 70.5851 144.82 71.1317 144.82C71.6784 144.82 72.0784 144.96 72.3317 145.24C72.5851 145.52 72.7117 145.887 72.7117 146.34C72.7117 146.767 72.5851 147.127 72.3317 147.42C72.0784 147.7 71.6784 147.84 71.1317 147.84ZM76.6156 160V149.14H79.3956V160H76.6156ZM75.0956 151.22V149.14H79.3956V151.22H75.0956ZM77.6356 147.84C77.089 147.84 76.6823 147.7 76.4156 147.42C76.1623 147.127 76.0356 146.767 76.0356 146.34C76.0356 145.887 76.1623 145.52 76.4156 145.24C76.6823 144.96 77.089 144.82 77.6356 144.82C78.1823 144.82 78.5823 144.96 78.8356 145.24C79.089 145.52 79.2156 145.887 79.2156 146.34C79.2156 146.767 79.089 147.127 78.8356 147.42C78.5823 147.7 78.1823 147.84 77.6356 147.84ZM86.9159 160V149.14H89.1159V153.8H88.9159C88.9159 152.693 89.0626 151.773 89.3559 151.04C89.6493 150.293 90.0826 149.733 90.6559 149.36C91.2426 148.987 91.9693 148.8 92.8359 148.8H92.9559C94.2493 148.8 95.2293 149.22 95.8959 150.06C96.5626 150.887 96.8959 152.127 96.8959 153.78V160H94.1159V153.54C94.1159 152.873 93.9226 152.333 93.5359 151.92C93.1626 151.507 92.6426 151.3 91.9759 151.3C91.2959 151.3 90.7426 151.513 90.3159 151.94C89.9026 152.353 89.6959 152.913 89.6959 153.62V160H86.9159ZM105.105 160.38C104.145 160.38 103.298 160.227 102.565 159.92C101.831 159.613 101.211 159.2 100.705 158.68C100.198 158.147 99.8114 157.547 99.5447 156.88C99.2914 156.213 99.1647 155.52 99.1647 154.8V154.38C99.1647 153.633 99.298 152.927 99.5647 152.26C99.8447 151.58 100.238 150.98 100.745 150.46C101.265 149.927 101.891 149.513 102.625 149.22C103.358 148.913 104.185 148.76 105.105 148.76C106.025 148.76 106.851 148.913 107.585 149.22C108.318 149.513 108.938 149.927 109.445 150.46C109.965 150.98 110.358 151.58 110.625 152.26C110.891 152.927 111.025 153.633 111.025 154.38V154.8C111.025 155.52 110.891 156.213 110.625 156.88C110.371 157.547 109.991 158.147 109.485 158.68C108.978 159.2 108.358 159.613 107.625 159.92C106.891 160.227 106.051 160.38 105.105 160.38ZM105.105 158C105.785 158 106.358 157.853 106.825 157.56C107.291 157.253 107.645 156.847 107.885 156.34C108.125 155.82 108.245 155.233 108.245 154.58C108.245 153.913 108.118 153.327 107.865 152.82C107.625 152.3 107.265 151.893 106.785 151.6C106.318 151.293 105.758 151.14 105.105 151.14C104.451 151.14 103.885 151.293 103.405 151.6C102.938 151.893 102.578 152.3 102.325 152.82C102.071 153.327 101.945 153.913 101.945 154.58C101.945 155.233 102.065 155.82 102.305 156.34C102.558 156.847 102.918 157.253 103.385 157.56C103.851 157.853 104.425 158 105.105 158ZM117.959 160.36C117.199 160.36 116.499 160.22 115.859 159.94C115.219 159.66 114.666 159.267 114.199 158.76C113.732 158.253 113.372 157.667 113.119 157C112.866 156.32 112.739 155.587 112.739 154.8V154.38C112.739 153.607 112.859 152.88 113.099 152.2C113.352 151.52 113.699 150.927 114.139 150.42C114.592 149.913 115.132 149.52 115.759 149.24C116.399 148.947 117.106 148.8 117.879 148.8C118.732 148.8 119.479 148.987 120.119 149.36C120.772 149.72 121.292 150.267 121.679 151C122.066 151.733 122.279 152.653 122.319 153.76L121.499 152.8V145.4H124.279V160H122.079V155.38H122.559C122.519 156.487 122.292 157.413 121.879 158.16C121.466 158.893 120.919 159.447 120.239 159.82C119.572 160.18 118.812 160.36 117.959 160.36ZM118.579 158.02C119.126 158.02 119.626 157.9 120.079 157.66C120.532 157.407 120.892 157.047 121.159 156.58C121.439 156.1 121.579 155.54 121.579 154.9V154.1C121.579 153.46 121.439 152.927 121.159 152.5C120.879 152.06 120.512 151.727 120.059 151.5C119.606 151.26 119.112 151.14 118.579 151.14C117.979 151.14 117.446 151.287 116.979 151.58C116.526 151.86 116.166 152.26 115.899 152.78C115.646 153.3 115.519 153.907 115.519 154.6C115.519 155.293 115.652 155.9 115.919 156.42C116.186 156.927 116.546 157.32 116.999 157.6C117.466 157.88 117.992 158.02 118.579 158.02ZM132.303 160.38C131.37 160.38 130.55 160.22 129.843 159.9C129.15 159.58 128.57 159.153 128.103 158.62C127.65 158.073 127.303 157.467 127.063 156.8C126.837 156.133 126.723 155.453 126.723 154.76V154.38C126.723 153.66 126.837 152.967 127.063 152.3C127.303 151.62 127.65 151.02 128.103 150.5C128.57 149.967 129.143 149.547 129.823 149.24C130.503 148.92 131.29 148.76 132.183 148.76C133.357 148.76 134.337 149.02 135.123 149.54C135.923 150.047 136.523 150.72 136.923 151.56C137.323 152.387 137.523 153.28 137.523 154.24V155.24H127.903V153.54H135.783L134.923 154.38C134.923 153.687 134.823 153.093 134.623 152.6C134.423 152.107 134.117 151.727 133.703 151.46C133.303 151.193 132.797 151.06 132.183 151.06C131.57 151.06 131.05 151.2 130.623 151.48C130.197 151.76 129.87 152.167 129.643 152.7C129.43 153.22 129.323 153.847 129.323 154.58C129.323 155.26 129.43 155.867 129.643 156.4C129.857 156.92 130.183 157.333 130.623 157.64C131.063 157.933 131.623 158.08 132.303 158.08C132.983 158.08 133.537 157.947 133.963 157.68C134.39 157.4 134.663 157.06 134.783 156.66H137.343C137.183 157.407 136.877 158.06 136.423 158.62C135.97 159.18 135.39 159.613 134.683 159.92C133.99 160.227 133.197 160.38 132.303 160.38Z" fill="#171753"/>
<path opacity="0.4" d="M238.276 149.214L250.26 142.296L238.276 135.378L226.283 142.296L238.276 149.214Z" fill="#DCF7F5"/>
<path d="M238.276 138.734L250.26 131.816V117.981L238.276 124.898V138.734Z" fill="#DCF7F5" stroke="#171753" stroke-width="1.41658" stroke-miterlimit="10" stroke-linejoin="round"/>
<path d="M226.283 131.816L238.276 138.734V124.898L226.283 117.981V131.816Z" fill="#171753" stroke="#171753" stroke-width="1.41658" stroke-miterlimit="10" stroke-linejoin="round"/>
<path d="M238.276 124.899L250.26 117.981L238.276 111.063L226.283 117.981L238.276 124.899Z" fill="white" stroke="#171753" stroke-width="1.41658" stroke-miterlimit="10" stroke-linejoin="round"/>
<path d="M238.276 123.197L247.316 117.981L238.276 112.765L229.228 117.981L238.276 123.197Z" fill="#BEF0ED"/>
<path d="M238.276 117.981L250.26 111.063V97.2277L238.276 104.145V117.981Z" fill="#DCF7F5" stroke="#171753" stroke-width="1.41658" stroke-miterlimit="10" stroke-linejoin="round"/>
<path d="M226.283 111.063L238.276 117.981V104.145L226.283 97.2277V111.063Z" fill="#171753" stroke="#171753" stroke-width="1.41658" stroke-miterlimit="10" stroke-linejoin="round"/>
<path d="M238.276 104.145L250.26 97.2274L238.276 90.3096L226.283 97.2274L238.276 104.145Z" fill="white" stroke="#171753" stroke-width="1.41658" stroke-miterlimit="10" stroke-linejoin="round"/>
<path d="M125.993 83.928L137.977 77.0102V63.1747L125.993 70.0924V83.928Z" fill="#DCF7F5" stroke="#171753" stroke-width="1.41658" stroke-miterlimit="10" stroke-linejoin="round"/>
<path d="M114 77.0102L125.993 83.928V70.0924L114 63.1747V77.0102Z" fill="#171753" stroke="#171753" stroke-width="1.41658" stroke-miterlimit="10" stroke-linejoin="round"/>
<path d="M125.993 70.0921L137.977 63.1744L125.993 56.2566L114 63.1744L125.993 70.0921Z" fill="white" stroke="#171753" stroke-width="1.41658" stroke-miterlimit="10" stroke-linejoin="round"/>
<path d="M132.191 58.2343C131.395 57.2504 130.553 57.4378 128.353 56.9693C126.481 56.5476 124.515 56.5476 122.69 57.063C120.864 57.5315 119.741 57.8595 118.945 58.7028L117.962 59.2182V61.2796V61.3265C118.009 62.6852 119.132 63.997 121.379 64.934C123.626 65.8711 126.06 66.0116 128.4 65.4494C131.723 64.6529 133.361 63.0131 133.408 61.3265V61.2328V59.265L132.191 58.2343Z" fill="#171753"/>
<path d="M125.638 65.9648C124.141 65.9648 122.643 65.6837 121.285 65.1214C119.039 64.1844 117.775 62.8257 117.728 61.2796V61.2328V58.9839L118.805 58.4217C119.647 57.4847 120.911 57.1567 122.643 56.735C124.515 56.2665 126.528 56.2197 128.447 56.6413C129.055 56.7819 129.57 56.8756 129.991 56.9224C131.115 57.1099 131.77 57.2036 132.425 58L133.783 59.0308V61.2328C133.736 63.2005 131.77 64.8403 128.54 65.6368C127.557 65.8711 126.575 65.9648 125.638 65.9648ZM118.243 59.3587V61.2328C118.29 62.5446 119.413 63.7627 121.473 64.6061C123.579 65.4962 126.013 65.6368 128.353 65.0746C131.255 64.3718 133.081 62.8726 133.127 61.2328V61.1391V59.3587L131.957 58.4217C131.442 57.8126 130.927 57.7189 129.851 57.5315C129.383 57.4378 128.915 57.391 128.26 57.2504C126.434 56.8287 124.515 56.8756 122.69 57.3441C120.817 57.8126 119.788 58.1406 119.086 58.8902L118.992 58.9371L118.243 59.3587Z" fill="#171753"/>
<path d="M125.685 63.6222C129.951 63.6222 133.408 61.6294 133.408 59.1713C133.408 56.7131 129.951 54.7204 125.685 54.7204C121.42 54.7204 117.962 56.7131 117.962 59.1713C117.962 61.6294 121.42 63.6222 125.685 63.6222Z" fill="white"/>
<path d="M125.685 63.9501C123.673 63.9501 121.613 63.4816 120.068 62.5915C118.524 61.7013 117.681 60.4831 117.681 59.1713C117.681 57.8595 118.524 56.6413 120.068 55.7512C123.158 53.9708 128.213 53.9708 131.302 55.7512C132.847 56.6413 133.689 57.8595 133.689 59.1713C133.689 60.4831 132.847 61.7013 131.302 62.5915C129.757 63.4816 127.745 63.9501 125.685 63.9501ZM125.685 55.0015C123.766 55.0015 121.847 55.4232 120.349 56.2665C118.992 57.063 118.243 58.0937 118.243 59.1713C118.243 60.2489 118.992 61.2796 120.349 62.0761C123.298 63.7627 128.072 63.7627 131.021 62.0761C132.378 61.2796 133.127 60.2489 133.127 59.1713C133.127 58.0937 132.378 57.063 131.021 56.2665C129.57 55.4232 127.651 55.0015 125.685 55.0015Z" fill="#171753"/>
<path d="M129.523 57.2504C127.417 56.1729 124 56.1729 121.894 57.2504C119.788 58.328 119.788 60.0615 121.894 61.0923C124 62.1698 127.417 62.1698 129.523 61.0923C131.63 60.0615 131.63 58.328 129.523 57.2504Z" fill="#171753"/>
<path d="M125.685 62.2167C124.234 62.2167 122.83 61.9356 121.754 61.3734C120.63 60.8111 120.022 60.0147 120.022 59.1713C120.022 58.328 120.63 57.5315 121.754 56.9693C123.953 55.8917 127.464 55.8917 129.664 56.9693C130.787 57.5315 131.396 58.328 131.396 59.1713C131.396 60.0147 130.787 60.8111 129.664 61.3734C128.587 61.9356 127.136 62.2167 125.685 62.2167ZM125.685 56.7351C124.328 56.7351 123.017 56.9693 121.988 57.4847C121.051 57.9532 120.583 58.5623 120.583 59.1713C120.583 59.7804 121.098 60.3895 121.988 60.858C124 61.8887 127.323 61.8887 129.383 60.858C130.319 60.3895 130.787 59.7804 130.787 59.1713C130.787 58.5623 130.272 57.9532 129.383 57.4847C128.4 57.0162 127.043 56.7351 125.685 56.7351Z" fill="#171753"/>
<path d="M129.523 58.4217C127.417 57.3441 124 57.3441 121.894 58.4217C121.145 58.7965 120.63 59.265 120.443 59.7803C120.677 60.2957 121.145 60.7642 121.894 61.139C124 62.2166 127.417 62.2166 129.523 61.139C130.272 60.7642 130.787 60.2957 130.974 59.7803C130.787 59.265 130.272 58.7965 129.523 58.4217Z" fill="#9BE7C4"/>
<path d="M125.685 62.2166C124.234 62.2166 122.83 61.9355 121.754 61.3733C120.958 60.9516 120.396 60.4363 120.162 59.874L120.115 59.7803L120.162 59.6866C120.396 59.1244 120.958 58.6091 121.754 58.1874C123.953 57.1098 127.464 57.1098 129.664 58.1874C130.459 58.6091 131.021 59.1244 131.255 59.6866L131.302 59.7803L131.255 59.874C131.021 60.4363 130.459 60.9516 129.664 61.3733C128.587 61.9355 127.136 62.2166 125.685 62.2166ZM120.771 59.7803C121.005 60.202 121.426 60.5768 122.034 60.8579C124.047 61.8887 127.37 61.8887 129.43 60.8579C130.038 60.53 130.459 60.1552 130.693 59.7803C130.459 59.3587 130.038 58.9839 129.43 58.7028C127.417 57.672 124.094 57.672 122.034 58.7028C121.379 58.9839 120.958 59.3587 120.771 59.7803Z" fill="#171753"/>
<path d="M132.191 55.4732C131.395 54.4893 130.553 54.6767 128.353 54.2082C126.481 53.7865 124.515 53.7865 122.69 54.3019C120.864 54.7704 119.741 55.0984 118.945 55.9417L117.962 56.4571V58.5185V58.5654C118.009 59.9241 119.132 61.2359 121.379 62.1729C123.626 63.1099 126.06 63.2505 128.4 62.6883C131.723 61.8918 133.361 60.252 133.408 58.5654V58.4717V56.5039L132.191 55.4732Z" fill="#171753"/>
<path d="M125.638 63.2036C124.141 63.2036 122.643 62.9225 121.285 62.3603C119.039 61.4233 117.775 60.0646 117.728 58.5185V58.4717V56.2228L118.805 55.6606C119.647 54.7236 120.911 54.3956 122.643 53.9739C124.515 53.5054 126.528 53.4586 128.447 53.8802C129.055 54.0208 129.57 54.1145 129.991 54.1613C131.115 54.3487 131.77 54.4424 132.425 55.2389L133.783 56.2697V58.4717C133.736 60.4394 131.77 62.0792 128.54 62.8757C127.557 63.1099 126.575 63.2036 125.638 63.2036ZM118.243 56.5976V58.4717C118.29 59.7835 119.413 61.0016 121.473 61.845C123.579 62.7351 126.013 62.8757 128.353 62.3135C131.255 61.6107 133.081 60.1115 133.127 58.4717V58.378V56.5976L131.957 55.6606C131.442 55.0515 130.927 54.9578 129.851 54.7704C129.383 54.6767 128.915 54.6299 128.26 54.4893C126.434 54.0676 124.515 54.1145 122.69 54.583C120.817 55.0515 119.788 55.3795 119.086 56.1291L118.992 56.1759L118.243 56.5976Z" fill="#171753"/>
<path d="M125.685 60.8611C129.951 60.8611 133.408 58.8684 133.408 56.4102C133.408 53.9521 129.951 51.9594 125.685 51.9594C121.42 51.9594 117.962 53.9521 117.962 56.4102C117.962 58.8684 121.42 60.8611 125.685 60.8611Z" fill="white"/>
<path d="M125.685 61.189C123.673 61.189 121.613 60.7205 120.068 59.8303C118.524 58.9402 117.681 57.722 117.681 56.4102C117.681 55.0984 118.524 53.8802 120.068 52.99C123.158 51.2097 128.213 51.2097 131.302 52.99C132.847 53.8802 133.689 55.0984 133.689 56.4102C133.689 57.722 132.847 58.9402 131.302 59.8303C129.757 60.7205 127.745 61.189 125.685 61.189ZM125.685 52.2404C123.766 52.2404 121.847 52.6621 120.349 53.5054C118.992 54.3019 118.243 55.3326 118.243 56.4102C118.243 57.4878 118.992 58.5185 120.349 59.315C123.298 61.0016 128.072 61.0016 131.021 59.315C132.378 58.5185 133.127 57.4878 133.127 56.4102C133.127 55.3326 132.378 54.3019 131.021 53.5054C129.57 52.6621 127.651 52.2404 125.685 52.2404Z" fill="#171753"/>
<path d="M129.523 54.4893C127.417 53.4117 124 53.4117 121.894 54.4893C119.788 55.5669 119.788 57.3004 121.894 58.3311C124 59.4087 127.417 59.4087 129.523 58.3311C131.63 57.3004 131.63 55.5669 129.523 54.4893Z" fill="#171753"/>
<path d="M125.685 59.4556C124.234 59.4556 122.83 59.1745 121.754 58.6122C120.63 58.05 120.022 57.2535 120.022 56.4102C120.022 55.5669 120.63 54.7704 121.754 54.2082C123.953 53.1306 127.464 53.1306 129.664 54.2082C130.787 54.7704 131.396 55.5669 131.396 56.4102C131.396 57.2535 130.787 58.05 129.664 58.6122C128.587 59.1745 127.136 59.4556 125.685 59.4556ZM125.685 53.974C124.328 53.974 123.017 54.2082 121.988 54.7236C121.051 55.1921 120.583 55.8012 120.583 56.4102C120.583 57.0193 121.098 57.6284 121.988 58.0969C124 59.1276 127.323 59.1276 129.383 58.0969C130.319 57.6284 130.787 57.0193 130.787 56.4102C130.787 55.8012 130.272 55.1921 129.383 54.7236C128.4 54.2551 127.043 53.974 125.685 53.974Z" fill="#171753"/>
<path d="M129.523 55.6605C127.417 54.583 124 54.583 121.894 55.6605C121.145 56.0354 120.63 56.5039 120.443 57.0192C120.677 57.5346 121.145 58.0031 121.894 58.3779C124 59.4555 127.417 59.4555 129.523 58.3779C130.272 58.0031 130.787 57.5346 130.974 57.0192C130.787 56.5039 130.272 56.0354 129.523 55.6605Z" fill="#9BE7C4"/>
<path d="M125.685 59.4555C124.234 59.4555 122.83 59.1744 121.754 58.6122C120.958 58.1905 120.396 57.6752 120.162 57.1129L120.115 57.0192L120.162 56.9255C120.396 56.3633 120.958 55.848 121.754 55.4263C123.953 54.3487 127.464 54.3487 129.664 55.4263C130.459 55.848 131.021 56.3633 131.255 56.9255L131.302 57.0192L131.255 57.1129C131.021 57.6752 130.459 58.1905 129.664 58.6122C128.587 59.1744 127.136 59.4555 125.685 59.4555ZM120.771 57.0192C121.005 57.4409 121.426 57.8157 122.034 58.0968C124.047 59.1275 127.37 59.1275 129.43 58.0968C130.038 57.7689 130.459 57.394 130.693 57.0192C130.459 56.5976 130.038 56.2228 129.43 55.9416C127.417 54.9109 124.094 54.9109 122.034 55.9416C121.379 56.2228 120.958 56.5976 120.771 57.0192Z" fill="#171753"/>
<path d="M133.112 51.7918C132.316 50.8079 131.473 50.9953 129.273 50.5268C127.401 50.1051 125.435 50.1051 123.61 50.6205C121.784 51.089 120.661 51.417 119.865 52.2603L118.883 52.7757V54.8371V54.884C118.929 56.2427 120.053 57.5545 122.299 58.4915C124.546 59.4285 126.98 59.5691 129.32 59.0069C132.643 58.2104 134.282 56.5706 134.328 54.884V54.7903V52.8225L133.112 51.7918Z" fill="#171753"/>
<path d="M126.559 59.5223C125.061 59.5223 123.563 59.2412 122.206 58.6789C119.959 57.7419 118.695 56.3832 118.649 54.8371V54.7903V52.5414L119.725 51.9792C120.568 51.0422 121.831 50.7142 123.563 50.2925C125.435 49.824 127.448 49.7772 129.367 50.1988C129.976 50.3394 130.49 50.4331 130.912 50.4799C132.035 50.6673 132.69 50.761 133.346 51.5575L134.703 52.5883V54.7903C134.656 56.758 132.69 58.3978 129.461 59.1943C128.478 59.4286 127.495 59.5223 126.559 59.5223ZM119.163 52.9162V54.7903C119.21 56.1021 120.334 57.3202 122.393 58.1636C124.499 59.0537 126.933 59.1943 129.274 58.6321C132.175 57.9293 134.001 56.4301 134.048 54.7903V54.6966V52.9162L132.878 51.9792C132.363 51.3701 131.848 51.2764 130.771 51.089C130.303 50.9953 129.835 50.9485 129.18 50.8079C127.354 50.3862 125.435 50.4331 123.61 50.9016C121.738 51.3701 120.708 51.6981 120.006 52.4477L119.912 52.4945L119.163 52.9162Z" fill="#171753"/>
<path d="M126.606 57.1797C130.871 57.1797 134.329 55.1869 134.329 52.7288C134.329 50.2706 130.871 48.2779 126.606 48.2779C122.34 48.2779 118.883 50.2706 118.883 52.7288C118.883 55.1869 122.34 57.1797 126.606 57.1797Z" fill="white"/>
<path d="M126.606 57.5076C124.593 57.5076 122.533 57.0391 120.989 56.1489C119.444 55.2588 118.602 54.0406 118.602 52.7288C118.602 51.417 119.444 50.1988 120.989 49.3087C124.078 47.5283 129.133 47.5283 132.222 49.3087C133.767 50.1988 134.609 51.417 134.609 52.7288C134.609 54.0406 133.767 55.2588 132.222 56.1489C130.678 57.0391 128.665 57.5076 126.606 57.5076ZM126.606 48.559C124.687 48.559 122.767 48.9807 121.27 49.824C119.912 50.6205 119.163 51.6512 119.163 52.7288C119.163 53.8064 119.912 54.8371 121.27 55.6336C124.218 57.3202 128.993 57.3202 131.941 55.6336C133.299 54.8371 134.048 53.8064 134.048 52.7288C134.048 51.6512 133.299 50.6205 131.941 49.824C130.49 48.9807 128.571 48.559 126.606 48.559Z" fill="#171753"/>
<path d="M130.444 50.8079C128.337 49.7303 124.921 49.7303 122.814 50.8079C120.708 51.8855 120.708 53.619 122.814 54.6497C124.921 55.7273 128.337 55.7273 130.444 54.6497C132.55 53.619 132.55 51.8855 130.444 50.8079Z" fill="#171753"/>
<path d="M126.606 55.7742C125.155 55.7742 123.75 55.4931 122.674 54.9308C121.551 54.3686 120.942 53.5722 120.942 52.7288C120.942 51.8855 121.551 51.089 122.674 50.5268C124.874 49.4492 128.384 49.4492 130.584 50.5268C131.707 51.089 132.316 51.8855 132.316 52.7288C132.316 53.5722 131.707 54.3686 130.584 54.9308C129.508 55.4931 128.057 55.7742 126.606 55.7742ZM126.606 50.2926C125.248 50.2926 123.938 50.5268 122.908 51.0422C121.972 51.5107 121.504 52.1198 121.504 52.7288C121.504 53.3379 122.019 53.947 122.908 54.4155C124.921 55.4462 128.244 55.4462 130.303 54.4155C131.239 53.947 131.707 53.3379 131.707 52.7288C131.707 52.1198 131.193 51.5107 130.303 51.0422C129.32 50.5737 127.963 50.2926 126.606 50.2926Z" fill="#171753"/>
<path d="M130.444 51.9791C128.337 50.9015 124.921 50.9015 122.814 51.9791C122.065 52.3539 121.551 52.8224 121.363 53.3378C121.597 53.8531 122.065 54.3217 122.814 54.6965C124.921 55.774 128.337 55.774 130.444 54.6965C131.193 54.3217 131.707 53.8531 131.895 53.3378C131.707 52.8224 131.193 52.3539 130.444 51.9791Z" fill="#9BE7C4"/>
<path d="M126.606 55.7741C125.155 55.7741 123.75 55.493 122.674 54.9308C121.878 54.5091 121.316 53.9938 121.082 53.4315L121.036 53.3378L121.082 53.2441C121.316 52.6819 121.878 52.1666 122.674 51.7449C124.874 50.6673 128.384 50.6673 130.584 51.7449C131.38 52.1666 131.941 52.6819 132.175 53.2441L132.222 53.3378L132.175 53.4315C131.941 53.9938 131.38 54.5091 130.584 54.9308C129.508 55.493 128.057 55.7741 126.606 55.7741ZM121.691 53.3378C121.925 53.7595 122.346 54.1343 122.955 54.4154C124.967 55.4461 128.291 55.4461 130.35 54.4154C130.959 54.0875 131.38 53.7126 131.614 53.3378C131.38 52.9162 130.959 52.5414 130.35 52.2603C128.337 51.2295 125.014 51.2295 122.955 52.2603C122.299 52.5414 121.878 52.9162 121.691 53.3378Z" fill="#171753"/>
</svg>
