<svg width="180" height="250" viewBox="0 0 180 250" fill="none" xmlns="http://www.w3.org/2000/svg">
<g clip-path="url(#clip0_2520_958)">
<rect width="250" height="180" transform="translate(180) rotate(90)" fill="#5ED9D1"/>
<g opacity="0.7">
<path d="M163.127 40.6105L163.127 41.8966L160.123 41.8966L160.123 40.6105L163.127 40.6105ZM157.012 40.6105L157.012 41.8966L154.008 41.8966L154.008 40.6105L157.012 40.6105ZM151.004 40.6105L151.004 41.8966L148 41.8966L148 40.6105L151.004 40.6105Z" fill="#171753"/>
<path d="M156.153 33.6449L156.153 36.6456L154.866 36.6456L154.866 33.6449L156.153 33.6449ZM156.153 39.7535L156.153 42.7542L154.866 42.7542L154.866 39.7535L156.153 39.7535ZM156.153 45.862L156.153 48.8627L154.866 48.8627L154.866 45.862L156.153 45.862Z" fill="#171753"/>
<path d="M165.594 24L165.594 27.0007L164.307 27.0007L164.307 24L165.594 24ZM165.594 30.1086L165.594 33.1093L164.307 33.1093L164.307 30.1086L165.594 30.1086Z" fill="#171753"/>
</g>
<path d="M83.5176 155.274C84.9882 155.274 85.8286 154.434 86.879 153.593L96.3331 144.559L84.568 137.416" fill="white"/>
<path d="M84.5651 137.418L112.927 158.217C115.869 160.108 118.39 159.057 119.23 155.276L130.785 101.072C131.836 96.45 128.894 94.3491 125.743 95.8197L58.3036 121.871C53.8917 123.552 53.8917 126.283 57.4633 127.333L74.9009 132.796L114.818 107.375C116.709 106.324 118.39 106.744 117.129 108.215" fill="white"/>
<circle cx="98" cy="125" r="52.2" stroke="white" stroke-width="1.6"/>
<path d="M69.8122 56.2898C72.6266 51.5417 75.8854 54.0641 76.4779 54.5092C76.4779 54.5092 76.6261 54.5092 76.6261 54.3608C77.2186 53.1738 80.3293 47.0903 83.2918 48.4257L88.0319 51.0965V51.2449L84.6249 57.0316L80.1811 69.347L81.3661 69.6438V72.1662C81.3661 72.3146 81.218 72.3146 81.218 72.3146L76.4779 69.6438L70.5529 64.8957C70.5529 65.0441 66.1091 62.3733 69.8122 56.2898Z" fill="white"/>
<path d="M81.2181 73.0564C81.3662 73.0564 81.5143 73.0564 81.5143 72.908C81.6625 72.7596 81.8106 72.6112 81.8106 72.3145V69.3469L80.7737 69.0502L85.0694 57.3283L88.4763 51.3932V51.0964C88.4763 50.948 88.3282 50.7997 88.1801 50.6513L83.44 47.9805C82.4031 47.387 80.6256 47.387 78.5518 50.0578C77.5149 51.2448 76.7743 52.7286 76.3299 53.6189C75.5893 53.1737 74.5524 52.5802 73.2192 52.877C71.738 53.0253 70.4048 54.2124 69.3679 55.9929C65.5166 62.3732 70.2567 65.4891 70.2567 65.4891L76.1818 70.2372L80.9218 72.908C81.07 73.0564 81.07 73.0564 81.2181 73.0564ZM80.7737 70.2372V71.4242L76.7743 69.1986L70.9973 64.5988C70.8492 64.4505 67.146 62.0764 70.4048 56.5864C71.2936 55.1026 72.3305 54.2124 73.3674 54.064C74.7005 53.9156 75.7374 54.6575 76.0336 54.9543L76.3299 55.251H76.6262C76.9224 55.251 77.0705 55.1026 77.2187 54.8059C77.5149 54.2124 78.4037 52.4318 79.5887 50.948C80.4775 49.761 81.8106 48.574 82.9956 49.1675L87.2913 51.5416L84.1806 57.0315L79.4406 70.0888L80.7737 70.2372Z" fill="#171753"/>
<path d="M74.5526 59.554C74.5526 59.554 76.6264 59.4056 77.0708 59.554C77.5151 59.554 81.9589 61.6313 81.9589 61.6313L82.6996 63.2634L80.3296 69.6437L81.5146 69.9404V72.4629C81.5146 72.6112 81.3664 72.6112 81.3664 72.6112L76.6264 69.9404L70.7013 65.1923C70.7013 65.1923 66.5537 62.6699 69.6644 57.0315L74.5526 59.554Z" fill="#BEF0ED"/>
<path d="M81.3663 73.0565C81.5144 73.0565 81.6625 73.0565 81.6625 72.9081C81.8107 72.7597 81.9588 72.6114 81.9588 72.3146V69.347L80.9219 69.0503L83.1438 62.9668L82.255 60.8895L81.9588 60.7411C80.1813 59.9992 77.2187 58.8122 76.9225 58.6638C76.6262 58.6638 75.1449 58.6638 74.4043 58.6638L69.0717 55.8446L68.7755 56.4381C65.5167 62.5217 69.9605 65.3408 70.1086 65.4892L76.0337 70.2373L80.7738 72.9081C81.07 73.0565 81.2182 73.0565 81.3663 73.0565ZM80.9219 70.2373V71.4243L76.9225 69.1987L71.1455 64.5989C70.9974 64.4506 67.7386 62.3733 69.9605 57.7735L74.4043 60.1476H74.5524C75.5893 60.1476 76.6262 59.9992 76.9225 60.1476C77.2187 60.296 79.7369 61.1862 81.5144 62.0765L81.9588 63.2635L79.4406 70.0889L80.9219 70.2373Z" fill="#171753"/>
<path d="M80.4777 56.7343L76.6264 54.657V54.5087C76.9227 53.9151 77.8114 52.1346 78.9964 50.6508L83.7365 53.47L85.2178 56.2892L84.6253 57.1795L83.8846 59.1084L82.2552 60.4438L80.4777 56.7343Z" fill="#BEF0ED"/>
<path d="M82.1067 61.3341L84.4767 59.5536L85.2174 57.4763L85.958 56.2892L84.3286 53.0249L78.8479 49.909L78.5517 50.3541C77.3666 51.9863 76.3298 53.7668 76.0335 54.3603C75.8854 54.5087 76.0335 54.8055 76.0335 54.9539V55.2506L79.8848 57.3279L82.1067 61.3341ZM83.4398 58.8117L82.5511 59.5536L80.9217 56.4376L77.3666 54.5087C77.6629 53.9152 78.4035 52.7282 79.1442 51.5412L83.2917 53.9152L84.4767 56.2892L84.0324 57.0311L83.4398 58.8117Z" fill="#171753"/>
<path d="M74.7005 59.1082C77.5149 54.3601 80.7737 56.8826 81.3662 57.3277C81.3662 57.3277 81.5143 57.3277 81.5143 57.1793C82.1068 55.9923 85.2175 49.9088 88.18 51.2442C91.7351 53.0247 87.4394 60.8888 87.4394 60.8888L81.6624 72.4623C81.6624 72.6106 81.5143 72.6106 81.5143 72.6106L75.5892 67.8625C75.4411 67.8625 70.9973 65.0433 74.7005 59.1082Z" fill="white"/>
<path d="M81.2181 73.2045H81.5143C81.6625 73.2045 81.9587 73.0562 82.1069 72.7594L87.8838 61.1859C88.0319 61.0375 90.8463 55.6959 89.9576 52.58C89.6613 51.6897 89.2169 51.0962 88.3282 50.6511C87.2913 50.2059 85.6619 50.0576 83.44 52.7284C82.4031 53.9154 81.6625 55.3992 81.2181 56.2894C80.4774 55.8443 79.4406 55.2508 78.1074 55.5475C76.6261 55.6959 75.293 56.883 74.2561 58.6635C70.4048 65.0437 75.1449 68.1597 75.1449 68.1597L81.2181 73.2045ZM87.2913 51.6897C87.4394 51.6897 87.7357 51.6897 87.8838 51.8381C88.3282 52.1348 88.6244 52.4316 88.7726 53.0251C89.5132 55.2508 87.5875 59.257 86.8469 60.5924L81.2181 71.5724L75.8855 67.2694C75.7374 67.121 72.0342 64.747 75.293 59.257C76.1818 57.7732 77.2187 56.8829 78.2555 56.7346C79.5887 56.5862 80.6256 57.3281 80.9218 57.6248L81.2181 57.7732H81.5143C81.8106 57.7732 81.9587 57.6248 82.1069 57.3281C82.4031 56.7346 83.2919 54.954 84.4769 53.4703C85.2175 52.7284 86.2544 51.6897 87.2913 51.6897Z" fill="#171753"/>
<path d="M82.5505 55.251L77.6623 52.5802L76.6255 54.6575L81.5136 57.1799L82.5505 55.251Z" fill="#171753"/>
<path d="M74.4034 67.2695L72.0334 66.2309L69.3671 64.302L68.4784 61.9279V59.7022L68.7746 58.9604L73.2184 61.3344L73.0703 63.1149L73.5147 65.1922L74.4034 67.2695Z" fill="#171753"/>
<g opacity="0.7">
<path d="M34.6106 28.4674L35.8966 28.4674L35.8966 31.4713L34.6106 31.4713L34.6106 28.4674ZM34.6106 34.5824L35.8966 34.5824L35.8966 37.5863L34.6106 37.5863L34.6106 34.5824ZM34.6106 40.5901L35.8966 40.5901L35.8966 43.594L34.6106 43.594L34.6106 40.5901Z" fill="#171753"/>
<path d="M27.645 35.4407L30.6457 35.4407L30.6457 36.728L27.645 36.728L27.645 35.4407ZM33.7535 35.4407L36.7542 35.4407L36.7542 36.728L33.7535 36.728L33.7535 35.4407ZM39.8621 35.4407L42.8628 35.4407L42.8628 36.728L39.8621 36.728L39.8621 35.4407Z" fill="#171753"/>
<path d="M18 26L21.0007 26L21.0007 27.2874L18 27.2874L18 26ZM24.1086 26L27.1093 26L27.1093 27.2874L24.1086 27.2874L24.1086 26Z" fill="#171753"/>
</g>
<g opacity="0.7">
<path d="M109.118 79.6446L109.118 80.9332L106.116 80.9332L106.116 79.6446L109.118 79.6446ZM103.007 79.6446L103.007 80.9332L100.004 80.9332L100.004 79.6446L103.007 79.6446ZM97.0022 79.6446L97.0022 80.9332L94 80.9332L94 79.6446L97.0022 79.6446Z" fill="#171753"/>
<path d="M102.149 72.6646L102.149 75.6713L100.862 75.6713L100.862 72.6646L102.149 72.6646ZM102.149 78.7855L102.149 81.7923L100.862 81.7923L100.862 78.7855L102.149 78.7855ZM102.149 84.9064L102.149 87.9132L100.862 87.9132L100.862 84.9064L102.149 84.9064Z" fill="#171753"/>
<path d="M111.584 63L111.584 66.0068L110.297 66.0068L110.297 63L111.584 63ZM111.584 69.1209L111.584 72.1277L110.297 72.1277L110.297 69.1209L111.584 69.1209Z" fill="#171753"/>
</g>
<g opacity="0.7">
<path d="M19.2757 167.632L19.2757 166.443L22.0468 166.443L22.0468 167.632L19.2757 167.632ZM24.9168 167.632L24.9168 166.443L27.6878 166.443L27.6878 167.632L24.9168 167.632ZM30.4589 167.632L30.4589 166.443L33.23 166.443L33.23 167.632L30.4589 167.632Z" fill="#171753"/>
<path d="M25.7086 174.075L25.7086 171.299L26.8962 171.299L26.8962 174.075L25.7086 174.075ZM25.7086 168.425L25.7086 165.65L26.8962 165.65L26.8962 168.425L25.7086 168.425ZM25.7086 162.775L25.7086 160L26.8962 160L26.8962 162.775L25.7086 162.775Z" fill="#171753"/>
<path d="M17 182.995L17 180.22L18.1876 180.22L18.1876 182.995L17 182.995ZM17 177.345L17 174.57L18.1876 174.57L18.1876 177.345L17 177.345Z" fill="#171753"/>
</g>
<path d="M45.3394 63.6749L65.7485 51.8852C66.9207 51.1957 67.9549 51.1268 68.7823 51.5405L69.6097 52.0231L75.4705 55.6083C75.4705 55.6083 75.5394 55.6772 75.4705 55.6772C75.1947 56.2977 72.4367 62.0891 72.1609 63.1233C72.023 63.6059 71.1956 68.0184 70.1613 73.1204V75.6714C70.1613 77.1193 69.6097 78.705 68.7823 80.1529C67.7481 85.5306 66.8517 90.081 66.8517 90.2189L63.8179 97.3203C63.8179 97.3892 63.749 97.3892 63.68 97.3892L56.785 93.3904C56.785 93.3904 56.7161 93.3215 56.785 93.3215L57.2677 91.8736C57.4056 91.1841 57.4745 90.4257 57.5435 89.5984L48.7179 99.3887H48.649L42.2366 95.3898L42.1677 95.3209C41.4092 94.8383 40.9266 93.873 40.9266 92.4941V71.3968C40.9266 68.57 42.9261 65.1227 45.3394 63.6749Z" fill="#BEF0ED"/>
<path d="M48.7177 100.078C48.8556 100.078 48.9935 100.009 49.1314 99.8716L56.9227 91.1844C56.8538 91.3913 56.8538 91.6671 56.7848 91.8739L56.3022 93.2528C56.2332 93.5286 56.3022 93.8044 56.578 93.9423L63.6798 98.079L63.9556 98.0101C64.0935 97.9411 64.2314 97.8722 64.3004 97.6653L67.3342 90.426C67.3342 90.2882 68.2305 85.7378 69.2648 80.36C70.1611 78.7743 70.6438 77.1885 70.6438 75.7407V73.1897C72.1606 65.3988 72.5743 63.4683 72.5743 63.2615C72.7812 62.4342 74.7118 58.2285 75.8839 55.8843C76.0218 55.6086 75.8839 55.3328 75.6771 55.1949L68.989 51.1271C67.9547 50.6445 66.7826 50.7824 65.4725 51.4718L45.0633 63.2615C42.5122 64.7783 40.3748 68.3635 40.3748 71.3971V92.7702C40.3748 94.287 40.8574 95.3901 41.8227 96.0106C41.8917 96.0796 41.8917 96.0796 41.9606 96.0796L48.373 100.009C48.5109 100.078 48.5798 100.078 48.7177 100.078ZM58.0949 88.4266L48.5798 98.9753L42.4433 95.1833L42.0985 95.528L42.3743 95.1143C41.6848 94.7007 41.3401 93.8733 41.3401 92.7013V71.3971C41.3401 68.7771 43.2707 65.4678 45.546 64.1578L65.9552 52.3681C66.9205 51.8165 67.8168 51.6787 68.5063 52.0234L69.2648 52.506L74.7807 55.9533C74.0223 57.539 71.8159 62.1584 71.6091 63.1926C71.5401 63.6062 70.8506 66.9846 69.6095 73.2586V73.3965V75.9475C69.6095 77.2575 69.1269 78.7743 68.2995 80.1532L68.2305 80.2221V80.36C67.2652 85.462 66.3689 89.8745 66.2999 90.3571L63.473 96.9759L57.2675 93.3907L57.6812 92.1497C57.8191 91.3913 57.957 90.5639 57.957 89.8745L58.0949 88.4266Z" fill="#171753"/>
<path d="M45.4082 63.6757L64.5073 52.7133L74.0913 58.7116L53.6132 69.4671L49.3383 70.1566L42.7191 66.2267C43.4776 65.1925 44.3739 64.2962 45.4082 63.6757Z" fill="white"/>
<path d="M49.2693 70.7082L53.8889 69.9498L75.1255 58.7806L64.5762 52.1618L45.2012 63.331C44.167 63.9515 43.2017 64.8478 42.3743 66.0199L42.0985 66.4336L49.2693 70.7082ZM53.4752 69.0535L49.4072 69.674L43.4085 66.0888C44.098 65.2615 44.7876 64.572 45.615 64.0894L64.4383 53.265L73.1259 58.7117L53.4752 69.0535Z" fill="#171753"/>
<path d="M47.6834 73.6724C47.6834 73.6724 55.9574 75.6029 56.44 75.8097C56.8537 75.9476 64.9898 82.4974 67.7478 85.531C67.1962 88.3578 66.8515 90.2883 66.7825 90.3572L63.7487 97.4586C63.7487 97.5276 63.6798 97.5276 63.6108 97.5276L56.7158 93.5287C56.7158 93.5287 56.6469 93.4598 56.7158 93.4598L57.1985 92.0119C57.3364 91.3225 57.4053 90.5641 57.4743 89.7367L48.6487 99.527H48.5797L42.1674 95.5282L42.0985 95.4592C41.34 94.9766 40.8574 94.0114 40.8574 92.6324V71.3972C40.8574 70.8456 40.9263 70.363 41.0642 69.8115L47.6834 73.6724Z" fill="#171753"/>
<path d="M41.7082 72.9102L46.6046 75.8728L46.2834 76.4037L41.3869 73.4412L41.7082 72.9102Z" fill="#BEF0ED"/>
<path d="M41.8681 92.0033L46.7645 94.9658L46.4433 95.4967L41.5468 92.5342L41.8681 92.0033Z" fill="#BEF0ED"/>
<path d="M51.8895 67.7424L72.2986 55.9527C74.7119 54.5738 76.7114 55.6769 76.7114 58.5037V79.8768C76.7114 82.7036 74.7119 86.0819 72.2986 87.5298L69.9543 88.8397C69.5406 89.1155 69.1959 89.5981 69.058 90.1497C68.7822 91.7355 67.8858 95.1138 64.5763 97.5958C63.9557 98.0784 63.4041 97.6648 63.611 96.8374C63.8178 95.8032 64.0936 94.4933 64.0936 93.2523C64.0936 92.7007 63.6799 92.4939 63.1973 92.7696L51.8205 99.3195C49.4073 100.698 47.4077 99.5953 47.4077 96.7685V75.3954C47.4767 72.5686 49.4073 69.1903 51.8895 67.7424Z" fill="#BEF0ED"/>
<path d="M49.8899 100.423C50.5794 100.423 51.3379 100.216 52.0963 99.7333L63.473 93.1835C63.542 93.1145 63.6109 93.1145 63.6109 93.1145C63.6109 93.1145 63.6109 93.1835 63.6109 93.2524C63.6109 94.4934 63.3351 95.8723 63.1283 96.7686C62.9904 97.3891 63.1283 97.9407 63.542 98.1475C63.8867 98.4233 64.4383 98.3544 64.852 98.0097C68.2306 95.4587 69.2648 92.0803 69.5406 90.2877C69.6096 89.943 69.8854 89.4604 70.1612 89.3225L72.5055 88.0125C75.0566 86.5647 77.1251 82.9106 77.1251 79.9459V58.5728C77.1251 57.056 76.5735 55.8839 75.6082 55.2634C74.6429 54.7118 73.3329 54.7808 72.0228 55.5392L51.6137 67.3289C49.0625 68.7767 46.994 72.4309 46.994 75.3955V96.7686C46.994 98.2854 47.5456 99.4575 48.5109 100.078C48.9246 100.285 49.4073 100.423 49.8899 100.423ZM63.6799 92.1493C63.473 92.1493 63.2662 92.2182 63.0593 92.3561L51.6826 98.9059C50.6484 99.5264 49.752 99.5954 49.0625 99.1817C48.373 98.7681 48.0283 97.9407 48.0283 96.7686V75.3955C48.0283 72.7756 49.8899 69.5351 52.1653 68.1562L72.5744 56.3665C73.6087 55.746 74.505 55.6771 75.1945 56.0908C75.884 56.5044 76.2288 57.3318 76.2288 58.5038V79.877C76.2288 82.4969 74.3671 85.7373 72.0918 87.1163L69.7475 88.4262C69.1959 88.7709 68.7822 89.3915 68.6443 90.0809C68.3685 91.7356 67.4721 94.9071 64.3694 97.1823C64.2315 97.2512 64.1625 97.3202 64.1625 97.3202C64.1625 97.3202 64.1625 97.1823 64.1625 96.9755C64.3694 96.0102 64.6452 94.6313 64.6452 93.2524C64.6452 92.8387 64.4383 92.4251 64.1625 92.2872C63.9557 92.2182 63.8178 92.1493 63.6799 92.1493Z" fill="#171753"/>
<path d="M58.7843 79.5321C58.7843 81.6004 60.2323 82.4967 62.025 81.3936C63.8177 80.3594 65.2656 77.8084 65.2656 75.7401C65.2656 73.6717 63.8177 72.7754 62.025 73.8785C60.3012 74.9127 58.7843 77.4637 58.7843 79.5321Z" fill="#BEF0ED"/>
<path d="M55.4034 75.5493V74.9493L55.9232 74.6495L56.6211 74.2469C58.1301 73.3767 59.4461 72.929 60.5486 72.9448C61.6785 72.9289 62.5355 73.4893 63.1258 74.5787L63.1259 74.5786L63.1301 74.5869C63.6926 75.6968 63.9564 77.4239 63.9564 79.7094V80.5145C63.9564 82.1346 63.7753 83.5816 63.3772 84.8357L63.3772 84.8357L63.3743 84.8446C62.9856 86.0344 62.456 87.0812 61.7647 87.9355L61.7522 87.951L61.7393 87.9659C61.0637 88.7451 60.3408 89.3567 59.5773 89.797C58.4033 90.4741 57.4272 90.6332 56.7301 90.1546L56.7301 90.1547L56.7228 90.1494C56.0593 89.6573 55.7319 88.7872 55.7319 87.5787C55.7319 86.3142 56.0709 85.0602 56.8007 83.8709C57.5075 82.6876 58.3909 81.7984 59.4131 81.2089C59.4855 81.1671 59.5576 81.1275 59.6294 81.0901C59.611 80.1536 59.507 79.4965 59.338 79.0822L59.3379 79.0823L59.3352 79.0753C59.1503 78.5953 58.8821 78.3939 58.5542 78.3828C58.1922 78.3705 57.6571 78.5435 56.9086 78.9753L55.9232 79.5436L55.4034 79.8434V79.2434V75.5493ZM64.4771 70.316V69.716L64.9969 69.4162L65.6948 69.0136C67.2038 68.1434 68.5198 67.6957 69.6223 67.7115C70.7522 67.6956 71.6092 68.256 72.1995 69.3454L72.1996 69.3453L72.2038 69.3536C72.7663 70.4635 73.0301 72.1906 73.0301 74.4761V75.2812C73.0301 76.9013 72.849 78.3483 72.4508 79.6024L72.4509 79.6024L72.448 79.6113C72.0593 80.8012 71.5297 81.8479 70.8384 82.7022L70.8259 82.7177L70.813 82.7326C70.1374 83.5118 69.4145 84.1234 68.651 84.5638C67.477 85.2408 66.5009 85.3999 65.8038 84.9213L65.8038 84.9214L65.7965 84.9161C65.133 84.424 64.8056 83.554 64.8056 82.3454C64.8056 81.0809 65.1446 79.8269 65.8744 78.6376C66.5812 77.4543 67.4646 76.5651 68.4867 75.9756C68.5592 75.9338 68.6313 75.8942 68.7031 75.8568C68.6847 74.9203 68.5807 74.2632 68.4117 73.8489L68.4116 73.849L68.4089 73.842C68.224 73.362 67.9558 73.1606 67.6278 73.1495C67.2659 73.1372 66.7308 73.3103 65.9822 73.742L64.9969 74.3103L64.4771 74.6101V74.0101V70.316Z" fill="white" stroke="#171753" stroke-width="1.2"/>
<path d="M60.8029 105.518C60.2727 100.914 59.0357 99.5859 59.0357 99.5859L57.3569 101.091L55.5897 102.331C55.5897 102.331 56.4733 103.836 60.8029 105.518Z" fill="white"/>
<path d="M61.2447 106.049L60.7145 105.872C56.2966 104.19 55.3246 102.596 55.2363 102.508L55.0596 102.242L57.1802 100.825L59.0357 99.1432L59.3008 99.4088C59.3891 99.4973 60.6261 100.825 61.1563 105.518L61.2447 106.049ZM56.1199 102.419C56.5617 102.862 57.7103 103.924 60.4494 104.987C60.096 102.065 59.3891 100.737 59.0357 100.206L57.7103 101.445L56.1199 102.419Z" fill="#171753"/>
<path d="M60.8029 105.518C60.7145 105.43 60.6262 105.341 60.5378 105.253C59.0357 104.101 57.7103 102.065 57.7103 102.065C57.7103 102.065 57.1802 101.799 56.65 101.534L55.5897 102.331C55.5897 102.331 56.4733 103.836 60.8029 105.518Z" fill="#171753"/>
<path d="M61.2447 106.049L60.7145 105.872C56.2966 104.19 55.3246 102.596 55.2363 102.508L55.0596 102.242L56.65 101.18L56.8267 101.268C57.4452 101.534 57.9754 101.799 57.9754 101.799L58.0638 101.888L58.1521 101.976C58.1521 101.976 59.3891 104.013 60.8912 105.075C60.9796 105.164 61.1563 105.253 61.2447 105.43L61.333 105.518V106.049H61.2447ZM56.1199 102.419C56.4733 102.773 57.3569 103.57 59.1241 104.367C58.3288 103.482 57.7103 102.596 57.5336 102.331C57.3569 102.242 57.0918 102.154 56.7384 101.976L56.1199 102.419Z" fill="#171753"/>
<path d="M61.001 105.073L60.4421 105.507L61.2538 106.557L61.8126 106.123L61.001 105.073Z" fill="#171753"/>
<path d="M57.7103 98.1693C58.6822 97.9922 59.3891 99.6745 59.0356 100.56C58.6822 101.445 57.5335 102.331 56.5616 102.508C55.5896 102.685 54.0876 101.711 54.5293 100.737C54.8828 99.8515 56.7383 98.3463 57.7103 98.1693Z" fill="#171753"/>
<path d="M56.385 102.95C55.6781 102.95 54.8829 102.596 54.4411 101.977C54.0876 101.534 53.9993 101.091 54.176 100.648C54.6178 99.5859 56.65 97.9922 57.7103 97.8151C58.1521 97.7265 58.6823 97.9922 58.9474 98.4349C59.4775 99.0547 59.6542 100.117 59.3008 100.737C58.859 101.799 57.622 102.773 56.5617 102.862C56.5617 102.862 56.4733 102.95 56.385 102.95ZM57.7987 98.5234C56.9151 98.612 55.1479 100.029 54.7945 100.914C54.7062 101.091 54.7945 101.268 54.9712 101.534C55.3247 101.977 56.0315 102.242 56.5617 102.242C57.4453 102.154 58.4172 101.357 58.7706 100.56C58.9474 100.117 58.859 99.4088 58.5056 98.9661C58.2405 98.7005 58.0638 98.5234 57.7987 98.5234Z" fill="#171753"/>
<path d="M58.0636 101.799C58.152 101.799 58.152 101.799 58.0636 101.799C58.5054 101.445 58.8588 101.003 59.0355 100.56C59.389 99.6744 58.7705 98.1692 57.8869 98.1692C57.0917 98.7005 56.3848 99.4974 56.1197 100.029C55.7663 100.914 57.0917 101.888 58.0636 101.799Z" fill="#DCF7F5"/>
<path d="M57.9753 102.154C57.2685 102.154 56.3849 101.711 55.9431 101.091C55.678 100.648 55.5897 100.206 55.7664 99.8515C56.0315 99.1432 57.0034 98.3463 57.6219 97.815L57.7103 97.7265H57.7986C58.2404 97.7265 58.6822 97.9921 59.0356 98.4348C59.4774 99.0546 59.5658 100.029 59.3891 100.648C59.2124 101.091 58.8589 101.622 58.3288 101.976C58.2404 102.065 58.1521 102.065 58.0637 102.065C58.0637 102.154 58.0637 102.154 57.9753 102.154ZM57.9753 98.5234C57.2685 99.0546 56.65 99.763 56.4732 100.117C56.3849 100.294 56.4732 100.471 56.5616 100.648C56.8267 101.091 57.4452 101.357 57.9753 101.357C58.3288 101.091 58.5938 100.737 58.6822 100.383C58.8589 99.94 58.7706 99.3202 58.4171 98.8775C58.4171 98.789 58.2404 98.6119 57.9753 98.5234Z" fill="#171753"/>
<path d="M58.7705 101.091C58.8589 100.914 58.9473 100.737 59.0356 100.648C59.3891 99.763 58.7705 98.2578 57.887 98.2578C57.7986 98.3464 57.7102 98.4349 57.6219 98.4349C57.3568 99.2318 57.3568 99.9401 57.3568 100.117C57.3568 100.294 57.7986 100.206 57.7986 100.206C57.7986 100.206 58.2404 100.826 58.7705 101.091Z" fill="white"/>
<path d="M58.9473 101.534L58.6822 101.445C58.2404 101.268 57.7986 100.825 57.6219 100.56C57.4452 100.56 57.2685 100.56 57.0918 100.471C57.0034 100.383 56.915 100.206 56.915 100.117V100.029C56.915 99.763 57.0034 99.0547 57.1801 98.3463V98.2578L57.2685 98.1693C57.3568 98.0807 57.4452 97.9922 57.5335 97.9036L57.6219 97.8151H57.7103C58.1521 97.8151 58.5938 98.0807 58.9473 98.5234C59.3891 99.1432 59.4774 100.117 59.3007 100.737C59.2124 100.914 59.124 101.091 59.0356 101.268L58.9473 101.534ZM57.887 99.763L58.0637 99.9401C58.1521 100.029 58.4171 100.383 58.6822 100.56C58.6822 100.56 58.6822 100.471 58.7706 100.471C58.9473 100.029 58.8589 99.4088 58.5055 98.9661C58.4171 98.789 58.2404 98.612 57.9753 98.612C57.9753 98.612 57.887 98.612 57.887 98.7005C57.7986 99.1432 57.7103 99.5859 57.7103 99.9401L57.887 99.763Z" fill="#171753"/>
<path d="M37.9181 75.8568L35.7975 77.5391L54.3527 101.091C54.6178 101.357 54.9713 101.534 55.5014 101.445C56.5617 101.268 57.7987 100.294 58.2405 99.3202C58.4172 98.789 58.4172 98.3463 58.1522 98.0806L40.0387 74.1745L37.9181 75.8568Z" fill="#171753"/>
<path d="M55.2363 101.888C54.7062 101.888 54.2644 101.711 54.0877 101.357L35.2673 77.4505L40.127 73.6432L58.5056 97.815C58.859 98.2577 58.859 98.789 58.594 99.4088C58.1522 100.56 56.8268 101.622 55.5898 101.799C55.413 101.888 55.3247 101.888 55.2363 101.888ZM36.3276 77.6276L54.6178 100.914C54.7945 101.091 55.0596 101.18 55.5014 101.091C56.4734 101.003 57.622 100.117 57.9754 99.1431C58.1522 98.789 58.1522 98.4348 57.9754 98.2577L40.0387 74.7057L36.3276 77.6276Z" fill="#171753"/>
<path d="M58.2405 99.3202C58.4172 98.789 58.4172 98.3463 58.1521 98.0807L40.3037 74.5287L39.3318 75.237L37.2112 76.9193L55.7665 100.471C55.9432 100.737 56.385 100.914 56.9151 100.825C57.5336 100.471 58.0638 99.94 58.2405 99.3202Z" fill="#DCF7F5"/>
<path d="M56.7384 101.268C56.2083 101.268 55.7665 101.091 55.5898 100.737L36.7694 76.9193L40.3921 74.086L58.5056 97.9036C58.859 98.3463 58.859 98.8775 58.5939 99.4973C58.3289 100.117 57.7987 100.737 57.0918 101.18L57.0035 101.268H56.9151C56.9151 101.268 56.8268 101.268 56.7384 101.268ZM37.7414 77.0078L56.1199 100.294C56.2083 100.471 56.4733 100.56 56.8268 100.56C57.3569 100.206 57.7987 99.6744 57.9754 99.2317C58.1521 98.8776 58.1521 98.5234 57.9754 98.3463L40.3037 75.1485L37.7414 77.0078Z" fill="#171753"/>
<path d="M58.2401 99.3203C58.4168 98.7891 58.4168 98.3464 58.1518 98.0807L44.5446 80.0183H44.4562C44.2795 80.1954 43.4843 80.8152 42.6007 80.461C42.5123 80.461 42.5123 80.461 42.5123 80.5496C44.1028 82.6746 55.2359 97.5495 57.5333 99.9401C57.6216 99.9401 57.71 99.9401 57.8867 99.9401C58.0634 99.763 58.1518 99.4974 58.2401 99.3203Z" fill="white"/>
<path d="M57.4451 100.294L57.3567 100.206C54.971 97.8151 43.5728 82.4974 42.2474 80.8151C42.1591 80.6381 42.1591 80.461 42.2474 80.2839C42.3358 80.1068 42.6009 80.1068 42.7776 80.1953C43.3961 80.461 44.0146 79.9297 44.1913 79.8412L44.2797 79.7526H44.4564C44.5447 79.7526 44.7215 79.8412 44.7215 79.9297L58.417 97.9036C58.7704 98.3463 58.7704 98.8776 58.5054 99.4974C58.417 99.763 58.2403 100.029 58.0636 100.206V100.294H57.4451ZM43.2194 80.9037C45.6934 84.1797 55.3245 97.0182 57.7101 99.5859C57.7985 99.4088 57.8869 99.3203 57.9752 99.1432C58.1519 98.789 58.1519 98.4349 57.9752 98.2578L44.4564 80.461C44.1913 80.6381 43.7495 80.9037 43.2194 80.9037Z" fill="#171753"/>
<path d="M28.8169 59.0339C28.1984 58.2371 27.3148 57.4402 26.4313 56.9975C25.371 56.3777 24.1339 56.0235 23.162 56.8204C22.1901 57.5287 22.2784 58.8568 22.5435 59.9193C22.8086 60.9818 23.3387 61.9558 23.9572 62.8412C29.4355 70.2787 35.2671 77.2734 35.2671 77.2734C35.5322 77.6276 36.0623 77.8047 36.6808 77.7161C38.0062 77.5391 39.5083 76.388 39.9501 75.1484C40.2152 74.5287 40.1268 73.9974 39.8617 73.6432C39.9501 73.6432 34.6486 66.2058 28.8169 59.0339Z" fill="#171753"/>
<path d="M36.3275 78.0703C35.709 78.0703 35.2672 77.8932 35.0022 77.4505C34.9138 77.4505 29.0822 70.3672 23.6039 63.1068C22.8971 62.1329 22.4553 61.0704 22.1902 60.0079C21.7484 58.4142 22.1018 57.1746 22.9854 56.4662C23.869 55.7579 25.106 55.7579 26.6081 56.5548C27.5801 57.086 28.3753 57.7944 29.1705 58.6798C34.9138 65.7631 40.2153 73.2006 40.3037 73.2891C40.6571 73.7318 40.6571 74.4401 40.392 75.1485C39.8619 76.4766 38.2714 77.7162 36.7693 77.8932C36.5926 78.0703 36.5043 78.0703 36.3275 78.0703ZM24.4875 56.7319C24.0457 56.7319 23.6923 56.9089 23.4272 57.086C22.7203 57.6173 22.5436 58.5027 22.8971 59.8308C23.1621 60.8048 23.6039 61.6902 24.2224 62.5756C29.6123 69.9245 35.5323 76.9193 35.5323 77.0078C35.709 77.2735 36.1508 77.362 36.5926 77.2735C37.7413 77.0964 39.155 76.0339 39.5968 74.9714C39.7735 74.5287 39.7735 74.086 39.5968 73.8203C39.5084 73.7318 34.2069 66.2943 28.4636 59.211C27.8451 58.4142 27.0499 57.7944 26.2547 57.2631C25.5478 56.9089 24.9293 56.7319 24.4875 56.7319Z" fill="#171753"/>
<path d="M39.9504 75.1485C40.2155 74.5287 40.1271 73.9974 39.862 73.6433C39.862 73.6433 34.5605 66.2058 28.7289 59.034C28.1987 58.2371 27.3151 57.5288 26.4315 56.9975C25.6363 56.6433 24.8411 56.2892 24.0459 56.4663C23.6041 57.1746 23.6924 58.1485 23.8692 59.1225C24.1342 60.0965 24.6644 61.0704 25.2829 61.9558C30.7611 69.3933 36.5928 76.3881 36.5928 76.3881C36.8578 76.7422 37.388 76.9193 38.0065 76.8308C38.3599 76.7422 38.7134 76.6537 39.0668 76.4766C39.4202 76.1224 39.7737 75.6797 39.9504 75.1485Z" fill="#DCF7F5"/>
<path d="M37.6529 77.1849C37.0344 77.1849 36.5926 77.0078 36.3275 76.5651C36.2392 76.4766 30.4075 69.4818 25.0177 62.1329C24.3108 61.2475 23.7806 60.185 23.5156 59.211C23.2505 57.9715 23.3388 56.9975 23.7806 56.2892L23.869 56.1121H24.0457C24.7526 55.935 25.6362 56.2006 26.6081 56.7319C27.58 57.2631 28.3753 57.9715 29.1705 58.8569C34.9138 65.9402 40.2153 73.3776 40.3037 73.4662C40.6571 73.9089 40.6571 74.6172 40.392 75.3256C40.2153 75.8568 39.8619 76.2995 39.3317 76.7422L39.2434 76.8308C38.8899 77.0078 38.4481 77.0964 38.0947 77.1849C37.918 77.1849 37.8296 77.1849 37.6529 77.1849ZM24.3108 56.8204C23.9574 57.4402 24.0457 58.3256 24.2224 59.0339C24.4875 59.9194 24.9293 60.8933 25.5478 61.7787C30.9377 69.1277 36.8577 76.1224 36.8577 76.211C37.0344 76.4766 37.4762 76.5651 37.918 76.4766C38.1831 76.4766 38.4481 76.3881 38.8016 76.211C39.155 75.8568 39.4201 75.4141 39.5968 75.0599C39.7735 74.6172 39.7735 74.1745 39.5968 73.9089C39.5084 73.8204 34.2069 66.3829 28.4636 59.2996C27.8451 58.5027 27.0499 57.7944 26.2547 57.3517C25.4594 56.909 24.8409 56.7319 24.3108 56.8204Z" fill="#171753"/>
<path d="M23.6923 57.7058C24.3108 58.3256 25.3711 59.3881 26.6964 61.0704L28.1102 62.8412C28.1102 62.8412 29.3472 63.9923 30.1424 61.1589C30.1424 61.0704 30.2308 60.9818 30.2308 60.8933C29.789 60.2735 29.2588 59.6537 28.817 59.0339C28.1102 58.2371 27.315 57.4402 26.343 56.9975C25.6361 56.5548 24.7526 56.2892 23.9573 56.4662C23.7806 56.8204 23.6923 57.2631 23.6923 57.7058Z" fill="white"/>
<path d="M28.7287 63.3725C28.3753 63.3725 28.0218 63.1954 27.8451 63.0183L26.4314 61.2475C25.106 59.6537 24.0457 58.5912 23.4272 57.9715L23.2505 57.7944V57.6173C23.2505 57.086 23.4272 56.5548 23.6039 56.2006L23.7806 56.1121H23.9574C24.6642 55.935 25.5478 56.1121 26.5197 56.6433C27.4917 57.1746 28.2869 57.8829 29.0821 58.7683C29.6123 59.3881 30.0541 60.0079 30.5842 60.6277L30.6726 60.8048L30.5842 61.0704C30.5842 61.1589 30.5842 61.1589 30.4959 61.2475C30.1424 62.4871 29.6123 63.1954 28.9938 63.3725C28.9054 63.3725 28.8171 63.3725 28.7287 63.3725ZM28.3753 62.5756C28.4636 62.5756 28.6404 62.7527 28.8171 62.6642C28.9938 62.5756 29.4356 62.31 29.789 61.0704V60.9819C29.3472 60.4506 28.9054 59.8308 28.4636 59.2996C27.8451 58.4142 27.0499 57.7944 26.1663 57.2631C25.4594 56.909 24.7526 56.7319 24.2224 56.7319C24.1341 56.9975 24.0457 57.2631 24.0457 57.5288C24.6642 58.1485 25.7245 59.211 26.9615 60.8048L28.3753 62.5756Z" fill="#171753"/>
<path d="M24.4876 62.8412C23.8691 62.8412 23.4273 62.5756 23.0739 62.2214L23.604 61.7787C23.7807 62.0443 24.2225 62.1329 24.7527 62.0443C25.9897 61.8673 27.4034 60.8048 27.8452 59.6537C28.0219 59.1225 28.0219 58.7683 27.8452 58.5027L28.3754 58.06C28.7288 58.5027 28.8171 59.211 28.4637 60.0079C28.0219 61.336 26.3431 62.5756 24.841 62.7527C24.7527 62.8412 24.5759 62.8412 24.4876 62.8412Z" fill="#171753"/>
<path d="M35.0904 76.4766C34.4719 76.4766 34.0301 76.2995 33.6766 75.8568L34.2068 75.4141C34.3835 75.6797 34.8253 75.7683 35.3554 75.6797C36.5925 75.5027 38.0062 74.4402 38.448 73.2891C38.6247 72.8464 38.6247 72.4037 38.448 72.1381L38.9781 71.6954C39.3316 72.1381 39.4199 72.8464 39.0665 73.5547C38.5363 74.9714 36.8575 76.211 35.4438 76.3881C35.3554 76.4766 35.1787 76.4766 35.0904 76.4766Z" fill="#171753"/>
<path d="M23.9574 56.4663C24.4875 56.3777 24.7526 56.7319 24.5759 57.2631C24.3992 57.7944 23.7807 58.2371 23.2505 58.3256C22.7204 58.4142 22.3669 58.06 22.632 57.5288C22.8087 56.9975 23.4272 56.5548 23.9574 56.4663Z" fill="#DCF7F5"/>
<path d="M23.0738 58.6798C22.8087 58.6798 22.5437 58.5913 22.3669 58.3256C22.1902 58.1485 22.1019 57.7944 22.2786 57.3517C22.5437 56.7319 23.2505 56.2006 23.869 56.1121C24.3108 56.0236 24.6643 56.2006 24.841 56.4663C25.0177 56.7319 25.0177 57.0861 24.9293 57.4402C24.6643 58.06 23.9574 58.5913 23.2505 58.6798C23.1622 58.6798 23.1622 58.6798 23.0738 58.6798ZM24.1341 56.8204H24.0457C23.604 56.909 23.0738 57.2631 22.9854 57.7058C22.8971 57.7944 22.8971 57.8829 22.8971 57.8829C22.8971 57.8829 22.9854 57.9715 23.1622 57.8829C23.604 57.7944 24.0457 57.4402 24.2225 57.0861C24.3108 56.909 24.2225 56.8204 24.2225 56.8204C24.2225 56.8204 24.2225 56.8204 24.1341 56.8204Z" fill="#171753"/>
<path d="M41.8941 78.336L31.291 64.6121C30.9376 64.1694 30.8493 63.284 31.1143 62.5756C31.3794 61.9558 32.5281 61.6017 32.8815 62.0444L42.7776 75.9454C43.1311 76.3881 43.8379 77.4506 43.5729 78.0704C43.3078 78.7787 42.2475 78.7787 41.8941 78.336Z" fill="#171753"/>
<path d="M42.6894 79.0443C42.2477 79.0443 41.8059 78.8673 41.5408 78.5131L30.9378 64.7892C30.5843 64.2579 30.496 63.1954 30.7611 62.4871C31.0261 61.9559 31.6446 61.6017 32.0864 61.6017C32.5282 61.5131 32.8817 61.6902 33.1467 61.9559L43.0429 75.8568C43.308 76.211 44.1915 77.4506 43.8381 78.336C43.6614 78.6902 43.308 78.9558 42.8662 79.0443C42.8662 79.0443 42.7778 79.0443 42.6894 79.0443ZM32.3515 62.2215H32.2632C31.9097 62.31 31.5563 62.4871 31.4679 62.6642C31.2912 63.1954 31.2912 63.9038 31.6446 64.2579L42.2477 77.9818C42.336 78.1589 42.6894 78.2475 42.9545 78.1589C43.0429 78.1589 43.308 78.0704 43.308 77.8933C43.4847 77.5391 43.0429 76.7423 42.6011 76.1225L32.6166 62.31C32.5282 62.2215 32.4399 62.2215 32.3515 62.2215Z" fill="#171753"/>
<path d="M42.6012 78.1589L31.9982 64.435C31.6448 63.9923 31.5564 63.1069 31.8215 62.4871C32.0866 61.8673 32.6167 61.6902 32.9701 62.2215L43.5732 75.9454C43.9266 76.3881 44.0149 77.2735 43.7499 77.9819C43.4848 78.5131 42.9546 78.6902 42.6012 78.1589Z" fill="white"/>
<path d="M43.0428 78.8672C42.7777 78.8672 42.5126 78.6901 42.2476 78.4245L31.7329 64.7006C31.2911 64.1694 31.2028 63.1069 31.4678 62.31C31.6445 61.8673 31.998 61.6017 32.3514 61.5131C32.7048 61.5131 32.9699 61.6017 33.235 61.9558L43.838 75.6797C44.2798 76.211 44.3682 77.2735 44.1031 78.0704C43.9264 78.5131 43.5729 78.7787 43.2195 78.8672C43.1311 78.8672 43.1311 78.8672 43.0428 78.8672ZM42.8661 77.9818C42.8661 78.0704 42.9544 78.1589 43.0428 78.1589C43.1311 78.1589 43.2195 78.0704 43.3079 77.8047C43.4846 77.2735 43.4846 76.5652 43.1311 76.211L32.5281 62.4871C32.5281 62.3985 32.3514 62.31 32.3514 62.31C32.2631 62.31 32.1747 62.3985 32.0863 62.6642C31.9096 63.1954 31.9096 63.9037 32.2631 64.2579L42.8661 77.9818Z" fill="#171753"/>
<path d="M24.4874 62.7527C24.3107 62.7527 24.134 62.7527 23.9573 62.6641L24.134 62.1329C24.5758 62.31 25.1943 62.1329 25.4594 62.0443L25.5477 62.5756C25.5477 62.5756 25.0176 62.7527 24.4874 62.7527Z" fill="#DCF7F5"/>
<path d="M35.0019 76.388C34.9135 76.388 34.7368 76.388 34.6484 76.388L34.7368 75.8568C35.1786 75.9453 35.8855 75.7682 36.1505 75.6797L36.3272 76.2109C36.2389 76.2109 35.6204 76.388 35.0019 76.388Z" fill="#DCF7F5"/>
<path d="M36.3276 78.0703C36.2392 78.0703 36.0625 78.0703 35.9741 78.0703L36.0625 77.5391C36.5043 77.6276 37.2111 77.4506 37.4762 77.362L37.6529 77.8933C37.6529 77.8047 36.9461 78.0703 36.3276 78.0703Z" fill="#DCF7F5"/>
<path d="M55.1479 101.799C55.0595 101.799 54.9712 101.799 54.8828 101.799L54.9712 101.268C55.413 101.357 56.1198 101.091 56.2965 101.003L56.5616 101.534C56.4733 101.445 55.7664 101.799 55.1479 101.799Z" fill="#DCF7F5"/>
<path d="M56.385 102.862C56.2966 102.862 56.2082 102.862 56.1199 102.862L56.2082 102.331C56.65 102.419 57.3569 102.154 57.5336 102.065L57.7987 102.596C57.7103 102.508 57.0035 102.862 56.385 102.862Z" fill="#DCF7F5"/>
<path d="M31.6818 63.5874L30.9834 63.6967L31.0652 64.2216L31.7636 64.1123L31.6818 63.5874Z" fill="#DCF7F5"/>
<path d="M39.1926 73.5924L38.4943 73.7017L38.5761 74.2266L39.2744 74.1173L39.1926 73.5924Z" fill="#DCF7F5"/>
<path d="M40.5259 75.3624L39.8275 75.4716L39.9093 75.9965L40.6077 75.8872L40.5259 75.3624Z" fill="#DCF7F5"/>
<path d="M130.773 149.981C131.017 149.84 131.262 149.698 131.554 149.639C131.927 149.532 132.361 149.718 132.596 150.126L134.012 152.578C134.153 152.823 134.411 152.892 134.655 152.751C134.9 152.609 134.969 152.352 134.827 152.107L133.459 149.737L133.129 149.165C132.232 147.613 132.619 145.646 134.04 144.717C134.366 144.529 134.692 144.341 135.113 144.316C135.486 144.209 135.838 144.442 136.027 144.769L138.857 149.671C138.998 149.916 139.256 149.986 139.501 149.844C139.745 149.703 139.814 149.446 139.672 149.2L136.04 142.909C135.272 141.391 135.706 139.506 136.964 138.671C137.29 138.483 137.616 138.295 138.037 138.27C138.41 138.163 138.762 138.396 138.95 138.723L143.668 146.894C143.809 147.139 144.067 147.208 144.311 147.067C144.556 146.926 144.625 146.668 144.483 146.423L138.964 136.863L138.917 136.781L135.567 130.98C134.671 129.428 135.058 127.461 136.478 126.532C137.165 126.027 138.088 125.93 138.942 126.09C139.795 126.251 140.546 126.798 140.971 127.534L149.651 142.568L154.651 151.229C154.793 151.474 155.05 151.543 155.295 151.402C155.539 151.261 155.608 151.003 155.467 150.758L150.372 141.934C150.183 141.607 150.239 141.139 150.471 140.787C150.75 140.517 150.947 140.294 151.321 140.187C152.836 139.422 154.685 139.988 155.628 141.622L160.723 150.447C162.327 153.225 162.892 156.276 162.548 159.634C161.963 163.894 159.319 167.599 155.405 169.859C154.589 170.33 153.727 170.719 152.817 171.026C148.058 172.576 142.995 171.903 139.276 169.039C138.079 168.096 136.998 166.977 136.162 165.717L129.476 154.325C128.708 152.807 129.224 150.875 130.773 149.981ZM150.444 144.507C150.397 144.425 150.397 144.425 150.444 144.507V144.507ZM141.306 139.978C141.259 139.896 141.177 139.943 141.306 139.978V139.978ZM138.3 146.071C138.253 145.989 138.172 146.036 138.3 146.071V146.071ZM134.823 151.347C134.776 151.265 134.694 151.312 134.823 151.347V151.347Z" fill="white"/>
<path d="M59.2114 44.7324C62.0258 39.9843 65.2846 42.5067 65.8771 42.9519C65.8771 42.9519 66.0252 42.9519 66.0252 42.8035C66.6178 41.6165 69.7284 35.533 72.691 36.8684L77.431 39.5392V39.6876L74.0241 45.4743L69.5803 57.7897L70.7653 58.0865V60.6089C70.7653 60.7573 70.6172 60.7573 70.6172 60.7573L65.8771 58.0865L59.952 53.3383C59.952 53.4867 55.5082 50.6675 59.2114 44.7324Z" fill="white"/>
<path d="M70.6173 61.3511C70.7654 61.3511 70.9135 61.3511 70.9135 61.2027C71.0616 61.0543 71.2098 60.9059 71.2098 60.6092V57.6416L70.1729 57.3449L74.4686 45.623L77.8755 39.6879V39.3911C77.8755 39.2428 77.7274 39.0944 77.5792 38.946L72.8392 36.2752C69.7285 34.7914 66.766 39.6879 65.5809 41.9136C64.8403 41.4684 63.8034 40.8749 62.4703 41.1717C60.989 41.32 59.6559 42.5071 58.619 44.2876C54.7677 50.6679 59.5077 53.7838 59.5077 53.7838L65.4328 58.5319L70.1729 61.2027C70.321 61.3511 70.4691 61.3511 70.6173 61.3511ZM70.1729 58.6803V59.8673L66.1735 57.6416L60.2484 52.8935C60.1002 52.7452 56.3971 50.3711 59.6559 44.8811C60.5446 43.3973 61.5815 42.5071 62.6184 42.3587C63.9515 42.2103 64.9884 42.9522 65.2847 43.249L65.5809 43.3973H65.8772C66.1735 43.3973 66.3216 43.249 66.4697 42.9522C67.6547 40.4298 70.321 36.4236 72.2467 37.3138L76.5423 39.6879L73.4317 45.1779L68.6916 58.0868L70.1729 58.6803Z" fill="#171753"/>
<path d="M63.8042 47.8488C63.8042 47.8488 65.878 47.7005 66.3223 47.8488C66.7667 47.8488 71.2105 49.9261 71.2105 49.9261L71.9512 51.5583L69.5811 57.9386L70.7662 58.2353V60.7577C70.7662 60.9061 70.618 60.9061 70.618 60.9061L65.878 58.2353L59.9529 53.4872C59.9529 53.4872 55.8053 50.9648 58.916 45.3264L63.8042 47.8488Z" fill="#BEF0ED"/>
<path d="M70.7656 61.3509C70.9137 61.3509 71.0618 61.3509 71.0618 61.2026C71.2099 61.0542 71.3581 60.9058 71.3581 60.609V57.6415L70.3212 57.3447L72.5431 51.2612L71.6543 49.1839L71.3581 49.0356C69.5806 48.2937 66.618 47.1066 66.3218 46.9583C66.0255 46.9583 64.5442 46.9583 63.8036 46.9583L58.471 44.1391L58.1748 44.7326C54.916 50.8161 59.3598 53.6353 59.5079 53.7836L65.433 58.5317L70.1731 61.2026C70.4693 61.3509 70.6174 61.3509 70.7656 61.3509ZM70.3212 58.6801V59.8671L66.3218 57.6415L60.3967 52.8934C60.2485 52.745 56.9898 50.6677 59.2117 46.068L63.6555 48.442H63.8036C64.8405 48.442 66.0255 48.2937 66.1736 48.442C66.4699 48.5904 68.988 49.4807 70.7656 50.3709L71.2099 51.558L68.6918 58.3834L70.3212 58.6801Z" fill="#171753"/>
<path d="M69.8768 45.1776L66.0255 43.1004V42.952C66.3217 42.3585 67.2105 40.5779 68.3955 39.0941L73.1356 41.9133L74.6168 44.7325L74.0243 45.6228L73.2837 47.5517L71.6543 48.8871L69.8768 45.1776Z" fill="#BEF0ED"/>
<path d="M71.5058 49.629L73.8758 47.8484L74.6164 45.7711L75.3571 44.5841L73.7277 41.3198L68.247 38.2038L67.9507 38.649C66.7657 40.1328 65.8769 41.9133 65.4325 42.6552C65.2844 42.9519 65.4325 43.1003 65.4325 43.2487V43.5455L69.2838 45.6227L71.5058 49.629ZM72.8389 47.1065L71.9501 47.8484L70.3207 44.7325L66.7657 42.6552C67.0619 42.0617 67.8026 40.8746 68.5432 39.6876L72.6908 42.0617L73.8758 44.4357L73.4314 45.1776L72.8389 47.1065Z" fill="#171753"/>
<path d="M63.9516 47.4034C66.766 42.6553 70.0248 45.1778 70.6173 45.6229C70.6173 45.6229 70.7654 45.6229 70.7654 45.4745C71.3579 44.2875 74.4686 38.204 77.4311 39.5394C80.9862 41.32 76.6905 49.184 76.6905 49.184L70.9135 60.7575C70.9135 60.9059 70.7654 60.9059 70.7654 60.9059L64.8403 56.1578C64.8403 56.1578 60.3965 53.3386 63.9516 47.4034Z" fill="#BEF0ED"/>
<path d="M70.4692 61.4993H70.7654C70.9136 61.4993 71.2098 61.3509 71.3579 61.0542L77.1349 49.4807C77.283 49.3323 80.0974 43.9907 79.2087 40.8748C78.9124 39.9845 78.468 39.391 77.5793 38.9458C74.6167 37.4621 71.5061 42.3585 70.3211 44.5842C69.5804 44.1391 68.5435 43.5456 67.2104 43.8423C65.7291 43.9907 64.396 45.1777 63.3591 46.9583C59.5078 53.3385 64.2478 56.4545 64.2478 56.4545L70.4692 61.4993ZM76.5424 39.9845C76.6905 39.9845 76.9868 39.9845 77.1349 40.1329C77.5793 40.4296 77.8755 40.7264 78.0237 41.3199C78.7643 43.5456 76.8386 47.5518 76.098 48.8872L70.4692 59.8672L65.1366 55.5642C64.9885 55.4158 61.2853 53.0418 64.5441 47.5518C65.4329 46.068 66.4698 45.1777 67.5066 45.0293C68.8398 44.881 69.8767 45.6228 70.1729 45.9196L70.4692 46.068H70.7654C71.0617 46.068 71.2098 45.9196 71.3579 45.6229C72.543 43.5456 74.7649 39.9845 76.5424 39.9845Z" fill="#171753"/>
<path d="M71.9508 43.5457L67.0626 40.8749L66.0257 42.9521L70.7658 45.623L71.9508 43.5457Z" fill="#171753"/>
<path d="M63.8041 55.5643L61.434 54.674L58.7678 52.5967L57.879 50.3711V47.997L58.1753 47.2551L62.6191 49.6292L62.3228 51.4097L62.9153 53.487L63.8041 55.5643Z" fill="#171753"/>
<path d="M70.0494 205V193.24H72.3214V205H70.0494ZM77.1854 205L73.6014 199.912H76.1454L79.8414 205H77.1854ZM71.6494 201.096V199.256H74.6254C75.0414 199.256 75.3987 199.171 75.6974 199C76.0067 198.829 76.2467 198.589 76.4174 198.28C76.588 197.971 76.6734 197.619 76.6734 197.224C76.6734 196.819 76.588 196.461 76.4174 196.152C76.2467 195.843 76.0067 195.603 75.6974 195.432C75.3987 195.261 75.0414 195.176 74.6254 195.176H71.6494V193.24H74.3854C75.324 193.24 76.1347 193.379 76.8174 193.656C77.5107 193.933 78.044 194.355 78.4174 194.92C78.7907 195.485 78.9774 196.195 78.9774 197.048V197.304C78.9774 198.168 78.7854 198.877 78.4014 199.432C78.028 199.987 77.5 200.403 76.8174 200.68C76.1347 200.957 75.324 201.096 74.3854 201.096H71.6494ZM85.1208 205.304C84.3741 205.304 83.7181 205.176 83.1528 204.92C82.5981 204.664 82.1341 204.323 81.7608 203.896C81.3981 203.459 81.1208 202.973 80.9288 202.44C80.7474 201.907 80.6568 201.363 80.6568 200.808V200.504C80.6568 199.928 80.7474 199.373 80.9288 198.84C81.1208 198.296 81.3981 197.816 81.7608 197.4C82.1341 196.973 82.5928 196.637 83.1368 196.392C83.6808 196.136 84.3101 196.008 85.0248 196.008C85.9634 196.008 86.7474 196.216 87.3768 196.632C88.0168 197.037 88.4968 197.576 88.8168 198.248C89.1368 198.909 89.2968 199.624 89.2968 200.392V201.192H81.6008V199.832H87.9048L87.2168 200.504C87.2168 199.949 87.1368 199.475 86.9768 199.08C86.8168 198.685 86.5714 198.381 86.2408 198.168C85.9208 197.955 85.5154 197.848 85.0248 197.848C84.5341 197.848 84.1181 197.96 83.7768 198.184C83.4354 198.408 83.1741 198.733 82.9928 199.16C82.8221 199.576 82.7368 200.077 82.7368 200.664C82.7368 201.208 82.8221 201.693 82.9928 202.12C83.1634 202.536 83.4248 202.867 83.7768 203.112C84.1288 203.347 84.5768 203.464 85.1208 203.464C85.6648 203.464 86.1074 203.357 86.4488 203.144C86.7901 202.92 87.0088 202.648 87.1048 202.328H89.1528C89.0248 202.925 88.7794 203.448 88.4167 203.896C88.0541 204.344 87.5901 204.691 87.0248 204.936C86.4701 205.181 85.8354 205.304 85.1208 205.304ZM96.4186 205V202.424H96.0506V199.56C96.0506 199.059 95.928 198.685 95.6826 198.44C95.4373 198.195 95.0586 198.072 94.5466 198.072C94.28 198.072 93.96 198.077 93.5866 198.088C93.2133 198.099 92.8346 198.115 92.4506 198.136C92.0773 198.147 91.7413 198.163 91.4426 198.184V196.296C91.688 196.275 91.9653 196.253 92.2746 196.232C92.584 196.211 92.8986 196.2 93.2186 196.2C93.5493 196.189 93.8586 196.184 94.1466 196.184C95.0426 196.184 95.784 196.301 96.3706 196.536C96.968 196.771 97.416 197.139 97.7146 197.64C98.024 198.141 98.1786 198.797 98.1786 199.608V205H96.4186ZM93.6186 205.224C92.9893 205.224 92.4346 205.112 91.9546 204.888C91.4853 204.664 91.1173 204.344 90.8506 203.928C90.5946 203.512 90.4666 203.011 90.4666 202.424C90.4666 201.784 90.6213 201.261 90.9306 200.856C91.2506 200.451 91.6933 200.147 92.2586 199.944C92.8346 199.741 93.5066 199.64 94.2746 199.64H96.2906V200.968H94.2426C93.7306 200.968 93.336 201.096 93.0586 201.352C92.792 201.597 92.6586 201.917 92.6586 202.312C92.6586 202.707 92.792 203.027 93.0586 203.272C93.336 203.517 93.7306 203.64 94.2426 203.64C94.552 203.64 94.8346 203.587 95.0906 203.48C95.3573 203.363 95.576 203.171 95.7466 202.904C95.928 202.627 96.0293 202.253 96.0506 201.784L96.5946 202.408C96.5413 203.016 96.392 203.528 96.1466 203.944C95.912 204.36 95.5813 204.68 95.1546 204.904C94.7386 205.117 94.2266 205.224 93.6186 205.224ZM104.161 205.288C103.553 205.288 102.993 205.176 102.481 204.952C101.969 204.728 101.526 204.413 101.153 204.008C100.78 203.603 100.492 203.133 100.289 202.6C100.086 202.056 99.9849 201.469 99.9849 200.84V200.504C99.9849 199.885 100.081 199.304 100.273 198.76C100.476 198.216 100.753 197.741 101.105 197.336C101.468 196.931 101.9 196.616 102.401 196.392C102.913 196.157 103.478 196.04 104.097 196.04C104.78 196.04 105.377 196.189 105.889 196.488C106.412 196.776 106.828 197.213 107.137 197.8C107.446 198.387 107.617 199.123 107.649 200.008L106.993 199.24V193.32H109.217V205H107.457V201.304H107.841C107.809 202.189 107.628 202.931 107.297 203.528C106.966 204.115 106.529 204.557 105.985 204.856C105.452 205.144 104.844 205.288 104.161 205.288ZM104.657 203.416C105.094 203.416 105.494 203.32 105.857 203.128C106.22 202.925 106.508 202.637 106.721 202.264C106.945 201.88 107.057 201.432 107.057 200.92V200.28C107.057 199.768 106.945 199.341 106.721 199C106.497 198.648 106.204 198.381 105.841 198.2C105.478 198.008 105.084 197.912 104.657 197.912C104.177 197.912 103.75 198.029 103.377 198.264C103.014 198.488 102.726 198.808 102.513 199.224C102.31 199.64 102.209 200.125 102.209 200.68C102.209 201.235 102.316 201.72 102.529 202.136C102.742 202.541 103.03 202.856 103.393 203.08C103.766 203.304 104.188 203.416 104.657 203.416ZM26.8524 227.304C25.7964 227.304 24.8898 227.117 24.1324 226.744C23.3751 226.371 22.7564 225.885 22.2764 225.288C21.8071 224.691 21.4604 224.04 21.2364 223.336C21.0124 222.632 20.9004 221.955 20.9004 221.304V220.952C20.9004 220.227 21.0124 219.512 21.2364 218.808C21.4711 218.104 21.8284 217.464 22.3084 216.888C22.7884 216.312 23.3964 215.853 24.1324 215.512C24.8791 215.16 25.7591 214.984 26.7724 214.984C27.8284 214.984 28.7458 215.176 29.5244 215.56C30.3138 215.933 30.9431 216.467 31.4124 217.16C31.8818 217.843 32.1644 218.643 32.2604 219.56H29.9724C29.8871 219.027 29.6951 218.579 29.3964 218.216C29.1084 217.843 28.7404 217.565 28.2924 217.384C27.8444 217.192 27.3378 217.096 26.7724 217.096C26.1964 217.096 25.6844 217.197 25.2364 217.4C24.7884 217.592 24.4151 217.869 24.1164 218.232C23.8178 218.595 23.5884 219.021 23.4284 219.512C23.2791 220.003 23.2044 220.547 23.2044 221.144C23.2044 221.72 23.2791 222.253 23.4284 222.744C23.5884 223.235 23.8231 223.667 24.1324 224.04C24.4418 224.403 24.8204 224.685 25.2684 224.888C25.7271 225.091 26.2551 225.192 26.8524 225.192C27.7271 225.192 28.4631 224.979 29.0604 224.552C29.6684 224.115 30.0364 223.507 30.1644 222.728H32.4524C32.3458 223.56 32.0631 224.323 31.6044 225.016C31.1458 225.709 30.5164 226.264 29.7164 226.68C28.9164 227.096 27.9618 227.304 26.8524 227.304ZM38.3697 227.304C37.6017 227.304 36.9244 227.181 36.3377 226.936C35.751 226.691 35.255 226.36 34.8497 225.944C34.4444 225.517 34.135 225.037 33.9217 224.504C33.719 223.971 33.6177 223.416 33.6177 222.84V222.504C33.6177 221.907 33.7244 221.341 33.9377 220.808C34.1617 220.264 34.4764 219.784 34.8817 219.368C35.2977 218.941 35.799 218.611 36.3857 218.376C36.9724 218.131 37.6337 218.008 38.3697 218.008C39.1057 218.008 39.767 218.131 40.3537 218.376C40.9404 218.611 41.4364 218.941 41.8417 219.368C42.2577 219.784 42.5724 220.264 42.7857 220.808C42.999 221.341 43.1057 221.907 43.1057 222.504V222.84C43.1057 223.416 42.999 223.971 42.7857 224.504C42.583 225.037 42.279 225.517 41.8737 225.944C41.4684 226.36 40.9724 226.691 40.3857 226.936C39.799 227.181 39.127 227.304 38.3697 227.304ZM38.3697 225.4C38.9137 225.4 39.3724 225.283 39.7457 225.048C40.119 224.803 40.4017 224.477 40.5937 224.072C40.7857 223.656 40.8817 223.187 40.8817 222.664C40.8817 222.131 40.7804 221.661 40.5777 221.256C40.3857 220.84 40.0977 220.515 39.7137 220.28C39.3404 220.035 38.8924 219.912 38.3697 219.912C37.847 219.912 37.3937 220.035 37.0097 220.28C36.6364 220.515 36.3484 220.84 36.1457 221.256C35.943 221.661 35.8417 222.131 35.8417 222.664C35.8417 223.187 35.9377 223.656 36.1297 224.072C36.3324 224.477 36.6204 224.803 36.9937 225.048C37.367 225.283 37.8257 225.4 38.3697 225.4ZM45.0531 227V218.312H46.8131V222.04H46.6531C46.6531 221.165 46.7651 220.435 46.9891 219.848C47.2131 219.251 47.5437 218.803 47.9811 218.504C48.4291 218.195 48.9837 218.04 49.6451 218.04H49.7411C50.4131 218.04 50.9677 218.195 51.4051 218.504C51.8531 218.803 52.1837 219.251 52.3971 219.848C52.6211 220.435 52.7331 221.165 52.7331 222.04H52.1731C52.1731 221.165 52.2851 220.435 52.5091 219.848C52.7437 219.251 53.0797 218.803 53.5171 218.504C53.9651 218.195 54.5197 218.04 55.1811 218.04H55.2771C55.9491 218.04 56.5091 218.195 56.9571 218.504C57.4051 218.803 57.7411 219.251 57.9651 219.848C58.1997 220.435 58.3171 221.165 58.3171 222.04V227H56.0931V221.832C56.0931 221.288 55.9544 220.856 55.6771 220.536C55.3997 220.205 55.0051 220.04 54.4931 220.04C53.9811 220.04 53.5704 220.211 53.2611 220.552C52.9517 220.883 52.7971 221.331 52.7971 221.896V227H50.5731V221.832C50.5731 221.288 50.4344 220.856 50.1571 220.536C49.8797 220.205 49.4851 220.04 48.9731 220.04C48.4611 220.04 48.0504 220.211 47.7411 220.552C47.4317 220.883 47.2771 221.331 47.2771 221.896V227H45.0531ZM60.6937 227V218.312H62.4537V222.04H62.2937C62.2937 221.165 62.4057 220.435 62.6297 219.848C62.8537 219.251 63.1844 218.803 63.6217 218.504C64.0697 218.195 64.6244 218.04 65.2857 218.04H65.3817C66.0537 218.04 66.6084 218.195 67.0457 218.504C67.4937 218.803 67.8244 219.251 68.0377 219.848C68.2617 220.435 68.3737 221.165 68.3737 222.04H67.8137C67.8137 221.165 67.9257 220.435 68.1497 219.848C68.3844 219.251 68.7204 218.803 69.1577 218.504C69.6057 218.195 70.1604 218.04 70.8217 218.04H70.9177C71.5897 218.04 72.1497 218.195 72.5977 218.504C73.0457 218.803 73.3817 219.251 73.6057 219.848C73.8404 220.435 73.9577 221.165 73.9577 222.04V227H71.7337V221.832C71.7337 221.288 71.595 220.856 71.3177 220.536C71.0404 220.205 70.6457 220.04 70.1337 220.04C69.6217 220.04 69.211 220.211 68.9017 220.552C68.5924 220.883 68.4377 221.331 68.4377 221.896V227H66.2137V221.832C66.2137 221.288 66.075 220.856 65.7977 220.536C65.5204 220.205 65.1257 220.04 64.6137 220.04C64.1017 220.04 63.691 220.211 63.3817 220.552C63.0724 220.883 62.9177 221.331 62.9177 221.896V227H60.6937ZM79.2943 227.272C78.2916 227.272 77.513 226.941 76.9583 226.28C76.4143 225.619 76.1423 224.637 76.1423 223.336V218.296H78.3663V223.528C78.3663 224.061 78.5156 224.488 78.8143 224.808C79.113 225.117 79.5183 225.272 80.0303 225.272C80.5423 225.272 80.9583 225.107 81.2783 224.776C81.609 224.445 81.7743 223.997 81.7743 223.432V218.296H83.9983V227H82.2383V223.304H82.4143C82.4143 224.179 82.3023 224.909 82.0783 225.496C81.8543 226.083 81.5183 226.525 81.0703 226.824C80.6223 227.123 80.0623 227.272 79.3903 227.272H79.2943ZM86.5531 227V218.312H88.3131V222.04H88.1531C88.1531 221.155 88.2704 220.419 88.5051 219.832C88.7397 219.235 89.0864 218.787 89.5451 218.488C90.0144 218.189 90.5957 218.04 91.2891 218.04H91.3851C92.4197 218.04 93.2037 218.376 93.7371 219.048C94.2704 219.709 94.5371 220.701 94.5371 222.024V227H92.3131V221.832C92.3131 221.299 92.1584 220.867 91.8491 220.536C91.5504 220.205 91.1344 220.04 90.6011 220.04C90.0571 220.04 89.6144 220.211 89.2731 220.552C88.9424 220.883 88.7771 221.331 88.7771 221.896V227H86.5531ZM97.3441 227V218.312H99.5681V227H97.3441ZM96.1281 219.976V218.312H99.5681V219.976H96.1281ZM98.1601 217.272C97.7227 217.272 97.3974 217.16 97.1841 216.936C96.9814 216.701 96.8801 216.413 96.8801 216.072C96.8801 215.709 96.9814 215.416 97.1841 215.192C97.3974 214.968 97.7227 214.856 98.1601 214.856C98.5974 214.856 98.9174 214.968 99.1201 215.192C99.3227 215.416 99.4241 215.709 99.4241 216.072C99.4241 216.413 99.3227 216.701 99.1201 216.936C98.9174 217.16 98.5974 217.272 98.1601 217.272ZM105.907 227.112C105.107 227.112 104.446 227.011 103.923 226.808C103.411 226.595 103.027 226.243 102.771 225.752C102.515 225.251 102.387 224.579 102.387 223.736L102.403 215.864H104.483L104.467 223.88C104.467 224.307 104.579 224.637 104.803 224.872C105.038 225.096 105.369 225.208 105.795 225.208H107.155V227.112H105.907ZM101.011 219.944V218.312H107.155V219.944H101.011ZM108.766 230.424V228.52H110.398C110.707 228.52 110.963 228.477 111.166 228.392C111.379 228.317 111.555 228.189 111.694 228.008C111.832 227.837 111.939 227.597 112.014 227.288L114.35 218.312H116.478L113.902 227.768C113.731 228.419 113.491 228.936 113.182 229.32C112.872 229.715 112.472 229.997 111.982 230.168C111.502 230.339 110.904 230.424 110.19 230.424H108.766ZM111.47 226.808V225.048H113.326V226.808H111.47ZM110.718 226.808L107.902 218.312H110.142L112.814 226.808H110.718ZM123.587 223.416V221.448H125.859C126.318 221.448 126.702 221.357 127.011 221.176C127.331 220.995 127.571 220.744 127.731 220.424C127.902 220.104 127.987 219.736 127.987 219.32C127.987 218.904 127.902 218.536 127.731 218.216C127.571 217.896 127.331 217.651 127.011 217.48C126.702 217.299 126.318 217.208 125.859 217.208H123.587V215.24H125.667C126.649 215.24 127.481 215.4 128.163 215.72C128.857 216.04 129.385 216.499 129.747 217.096C130.11 217.683 130.291 218.381 130.291 219.192V219.448C130.291 220.259 130.11 220.963 129.747 221.56C129.385 222.147 128.857 222.605 128.163 222.936C127.481 223.256 126.649 223.416 125.667 223.416H123.587ZM121.635 227V215.24H123.907V227H121.635ZM136.042 227.304C135.274 227.304 134.596 227.181 134.01 226.936C133.423 226.691 132.927 226.36 132.522 225.944C132.116 225.517 131.807 225.037 131.594 224.504C131.391 223.971 131.29 223.416 131.29 222.84V222.504C131.29 221.907 131.396 221.341 131.61 220.808C131.834 220.264 132.148 219.784 132.554 219.368C132.97 218.941 133.471 218.611 134.058 218.376C134.644 218.131 135.306 218.008 136.042 218.008C136.778 218.008 137.439 218.131 138.026 218.376C138.612 218.611 139.108 218.941 139.514 219.368C139.93 219.784 140.244 220.264 140.458 220.808C140.671 221.341 140.778 221.907 140.778 222.504V222.84C140.778 223.416 140.671 223.971 140.458 224.504C140.255 225.037 139.951 225.517 139.546 225.944C139.14 226.36 138.644 226.691 138.058 226.936C137.471 227.181 136.799 227.304 136.042 227.304ZM136.042 225.4C136.586 225.4 137.044 225.283 137.418 225.048C137.791 224.803 138.074 224.477 138.266 224.072C138.458 223.656 138.554 223.187 138.554 222.664C138.554 222.131 138.452 221.661 138.25 221.256C138.058 220.84 137.77 220.515 137.386 220.28C137.012 220.035 136.564 219.912 136.042 219.912C135.519 219.912 135.066 220.035 134.682 220.28C134.308 220.515 134.02 220.84 133.818 221.256C133.615 221.661 133.514 222.131 133.514 222.664C133.514 223.187 133.61 223.656 133.802 224.072C134.004 224.477 134.292 224.803 134.666 225.048C135.039 225.283 135.498 225.4 136.042 225.4ZM145.877 227.272C144.682 227.272 143.744 227.021 143.061 226.52C142.389 226.008 142.037 225.304 142.005 224.408H144.005C144.037 224.707 144.202 224.979 144.501 225.224C144.8 225.469 145.269 225.592 145.909 225.592C146.442 225.592 146.864 225.496 147.173 225.304C147.493 225.112 147.653 224.851 147.653 224.52C147.653 224.232 147.53 224.003 147.285 223.832C147.05 223.661 146.645 223.549 146.069 223.496L145.301 223.416C144.33 223.309 143.584 223.032 143.061 222.584C142.538 222.136 142.277 221.539 142.277 220.792C142.277 220.195 142.426 219.693 142.725 219.288C143.024 218.883 143.434 218.579 143.957 218.376C144.49 218.163 145.098 218.056 145.781 218.056C146.848 218.056 147.712 218.291 148.373 218.76C149.034 219.229 149.381 219.917 149.413 220.824H147.413C147.392 220.525 147.242 220.269 146.965 220.056C146.688 219.843 146.288 219.736 145.765 219.736C145.296 219.736 144.933 219.827 144.677 220.008C144.421 220.189 144.293 220.424 144.293 220.712C144.293 220.989 144.394 221.203 144.597 221.352C144.81 221.501 145.152 221.603 145.621 221.656L146.389 221.736C147.413 221.843 148.213 222.125 148.789 222.584C149.376 223.043 149.669 223.661 149.669 224.44C149.669 225.016 149.509 225.517 149.189 225.944C148.88 226.36 148.442 226.685 147.877 226.92C147.312 227.155 146.645 227.272 145.877 227.272ZM155.282 227.112C154.482 227.112 153.821 227.011 153.298 226.808C152.786 226.595 152.402 226.243 152.146 225.752C151.89 225.251 151.762 224.579 151.762 223.736L151.778 215.864H153.858L153.842 223.88C153.842 224.307 153.954 224.637 154.178 224.872C154.413 225.096 154.744 225.208 155.17 225.208H156.53V227.112H155.282ZM150.386 219.944V218.312H156.53V219.944H150.386ZM161.486 227.272C160.292 227.272 159.353 227.021 158.67 226.52C157.998 226.008 157.646 225.304 157.614 224.408H159.614C159.646 224.707 159.812 224.979 160.11 225.224C160.409 225.469 160.878 225.592 161.518 225.592C162.052 225.592 162.473 225.496 162.782 225.304C163.102 225.112 163.262 224.851 163.262 224.52C163.262 224.232 163.14 224.003 162.894 223.832C162.66 223.661 162.254 223.549 161.678 223.496L160.91 223.416C159.94 223.309 159.193 223.032 158.67 222.584C158.148 222.136 157.886 221.539 157.886 220.792C157.886 220.195 158.036 219.693 158.334 219.288C158.633 218.883 159.044 218.579 159.566 218.376C160.1 218.163 160.708 218.056 161.39 218.056C162.457 218.056 163.321 218.291 163.982 218.76C164.644 219.229 164.99 219.917 165.022 220.824H163.022C163.001 220.525 162.852 220.269 162.574 220.056C162.297 219.843 161.897 219.736 161.374 219.736C160.905 219.736 160.542 219.827 160.286 220.008C160.03 220.189 159.902 220.424 159.902 220.712C159.902 220.989 160.004 221.203 160.206 221.352C160.42 221.501 160.761 221.603 161.23 221.656L161.998 221.736C163.022 221.843 163.822 222.125 164.398 222.584C164.985 223.043 165.278 223.661 165.278 224.44C165.278 225.016 165.118 225.517 164.798 225.944C164.489 226.36 164.052 226.685 163.486 226.92C162.921 227.155 162.254 227.272 161.486 227.272Z" fill="#171753"/>
</g>
<defs>
<clipPath id="clip0_2520_958">
<rect width="250" height="180" fill="white" transform="translate(180) rotate(90)"/>
</clipPath>
</defs>
</svg>
