<svg width="300" height="180" viewBox="0 0 300 180" fill="none" xmlns="http://www.w3.org/2000/svg">
<g clip-path="url(#clip0_2330_516)">
<rect width="300" height="180" fill="#9BE7C4"/>
<path d="M249.785 79.3809C263.726 79.3809 275.04 68.2494 275.04 54.502C275.04 40.7546 263.726 29.6231 249.785 29.6231C235.845 29.6231 224.531 40.7546 224.531 54.502C224.531 68.2494 235.845 79.3809 249.785 79.3809Z" fill="#9BE7C4" stroke="#171753" stroke-width="0.997208"/>
<path d="M250.536 30.1486C250.161 30.8191 249.651 31.3556 248.927 31.5433C247.291 31.9725 245.977 31.3824 245.172 30.5509C239.379 31.6238 234.256 34.7082 230.662 39.0264C231.869 38.8386 233.21 38.9191 234.444 39.6969C234.444 39.6969 232.217 39.9115 232.298 41.6012C232.405 43.2909 234.336 41.628 235.248 42.9691C236.187 44.3101 237.796 42.5668 236.67 41.628C235.543 40.6625 236.831 39.3214 237.85 39.9651C238.842 40.6088 239.03 41.8694 238.44 43.1568C237.85 44.471 240.076 44.176 240.612 45.383C241.176 46.5899 239.693 47.4228 240.559 47.77C241.35 48.0875 242.302 46.4558 242.302 46.4558C242.758 46.1071 243.375 46.1608 243.777 46.5631C243.777 46.5631 244.119 46.7908 244.206 47.019C244.422 47.5793 243.16 47.2873 243.08 48.0651C242.999 48.8429 244.823 48.5747 244.877 49.6207C244.931 50.6935 246.513 50.8276 246.674 49.4061C246.835 47.9578 247.613 47.7968 247.613 47.7968C247.613 47.7968 247.371 46.3485 245.923 46.3217C244.448 46.2949 245.274 45.4077 244.904 44.7929C244.565 44.2306 243.67 44.5515 244.099 43.3177C244.528 42.084 242.114 40.6893 245.118 39.6433C248.122 38.5972 247.049 37.3098 247.049 37.3098L245.601 36.9075C245.601 36.9075 247.881 36.2906 247.854 34.9228C247.854 33.5549 250.348 32.7503 250.885 34.9764C251.421 37.2025 250.107 37.8731 250.107 37.8731C250.107 37.8731 251.77 37.7658 251.743 38.7045C251.716 39.6433 250.375 40.2065 250.375 40.2065C250.375 40.2065 250.536 42.0572 249.651 42.2181C248.766 42.379 248.873 41.3866 248.873 41.3866C248.873 41.3866 247.291 41.3062 247.666 42.4058C248.069 43.5055 247.237 44.4881 247.613 45.7316C247.892 46.6569 249.088 46.5363 248.846 47.8773C248.605 49.2184 248.122 50.6399 249.866 51.4982C251.609 52.3296 250.789 52.9467 251.475 53.8048C252.109 54.5985 252.808 54.8062 253.218 55.7359C253.461 56.2869 252.655 56.8624 253.567 57.2379C254.506 57.6402 254.693 56.2187 257.08 57.1037C259.468 57.9888 260.245 57.667 260.594 57.211C260.594 57.211 262.525 57.8279 263.383 55.4677C263.383 55.4677 265.046 54.2071 264.027 52.0077C264.027 52.0077 265.154 50.774 264.429 49.3525C263.732 47.931 264.644 46.5631 265.449 46.5363C265.449 46.5363 265.127 45.0611 266.334 45.1416C267.541 45.222 267.246 46.4826 267.246 46.4826C267.246 46.4826 268.935 44.7124 270.866 45.9194C270.866 45.9194 270.706 48.1723 272.02 48.0382C272.61 47.9846 273.28 48.2528 273.844 48.5478C271.188 38.1949 261.828 30.4705 250.536 30.1486Z" fill="#49CE8B" stroke="#171753" stroke-width="0.997208"/>
<path d="M256.139 73.66L256.138 73.6599C255.589 73.5949 255.153 73.6225 254.786 73.7247C254.414 73.828 254.14 74 253.909 74.1825C253.776 74.2878 253.664 74.3869 253.56 74.479C253.288 74.7205 253.07 74.9139 252.66 75.045C252.082 75.2297 251.472 75.245 250.839 75.2609C250.685 75.2648 250.529 75.2687 250.372 75.2751C249.643 75.3049 248.785 75.3899 248.288 76.0851C248.004 76.4687 247.532 76.6646 247.073 76.7564C246.85 76.8011 246.645 76.8177 246.497 76.823C246.423 76.8256 246.364 76.8254 246.325 76.8246C246.314 76.8244 246.305 76.8241 246.298 76.8238C246.287 76.8216 246.273 76.819 246.258 76.816C246.213 76.8073 246.149 76.7959 246.077 76.7849C245.943 76.7642 245.744 76.7395 245.574 76.7487C245.502 76.7527 245.365 76.7651 245.241 76.8366C245.17 76.8773 245.078 76.9517 245.026 77.0773C244.973 77.2068 244.985 77.3317 245.015 77.4239C245.066 77.5795 245.184 77.6957 245.269 77.7702C245.368 77.8577 245.5 77.9532 245.666 78.0591C246.121 78.3554 246.142 78.5592 246.142 78.641V79.0091L246.507 79.0612C247.468 79.1986 248.425 79.2528 249.398 79.2799L249.398 79.2799L249.403 79.28C254.611 79.3618 259.493 77.8893 263.558 75.2976L263.852 75.11L263.725 74.785C263.612 74.496 263.733 73.8488 264.894 73.3442L264.894 73.3443L264.901 73.3411C266.204 72.746 266.729 72.0427 266.833 71.3781C266.884 71.0585 266.829 70.7869 266.762 70.5965C266.728 70.5012 266.691 70.4244 266.661 70.3693C266.646 70.3416 266.632 70.3191 266.622 70.3021C266.616 70.2936 266.612 70.2864 266.608 70.2807L266.602 70.273L266.6 70.27L266.599 70.2687L266.599 70.2681C266.599 70.2678 266.599 70.2675 266.253 70.5142L266.599 70.2675L266.481 70.1023L266.279 70.0906L266.279 70.0905L266.278 70.0905L266.278 70.0905L266.278 70.0905L266.277 70.0904L266.267 70.0897C266.257 70.0888 266.241 70.0874 266.22 70.0852C266.178 70.0807 266.117 70.0731 266.044 70.0605C265.897 70.0347 265.717 69.9911 265.56 69.9215C265.396 69.8492 265.303 69.7696 265.261 69.6996C265.234 69.6529 265.198 69.5607 265.279 69.3576C265.54 68.7059 265.547 68.2201 265.332 67.8781C265.227 67.7111 265.09 67.6146 264.978 67.561C264.922 67.5345 264.872 67.518 264.833 67.5078C264.813 67.5027 264.796 67.499 264.782 67.4964C264.775 67.4951 264.768 67.494 264.763 67.4932L264.755 67.492L264.751 67.4916L264.75 67.4914L264.749 67.4913C264.749 67.4912 264.748 67.4912 264.698 67.9126L264.748 67.4912L264.447 67.4551L264.315 67.7281C264.252 67.8584 264.19 67.9108 264.145 67.9357C264.097 67.9624 264.029 67.9799 263.923 67.9758C263.724 67.9682 263.506 67.8966 263.233 67.807C263.174 67.7875 263.112 67.7671 263.046 67.7463C262.884 67.6944 262.697 67.6398 262.516 67.6194C262.335 67.5991 262.104 67.6059 261.893 67.7353C261.671 67.8709 261.548 68.0921 261.49 68.3369C261.433 68.5746 261.427 68.8666 261.459 69.2124C261.514 69.8025 261.42 70.1667 261.273 70.4122C261.126 70.6595 260.894 70.8407 260.564 71.005C260.325 71.1244 260.07 71.2196 259.784 71.3264C259.658 71.3734 259.526 71.4227 259.387 71.4772C258.952 71.6476 258.48 71.8591 258.053 72.1909C257.771 72.4109 257.617 72.6708 257.511 72.8987C257.474 72.9795 257.439 73.0643 257.409 73.1368C257.399 73.1606 257.39 73.1831 257.381 73.2036C257.343 73.2947 257.311 73.3637 257.277 73.4218C257.217 73.5218 257.153 73.5868 257.026 73.6314C256.877 73.684 256.613 73.7169 256.139 73.66Z" fill="#49CE8B" stroke="#171753" stroke-width="0.848893"/>
<path d="M225.433 54.2365L224.605 54.3652C224.55 62.8827 228.891 70.4696 235.575 74.9437L236.111 74.2908C236.115 74.2943 236.114 74.2924 236.109 74.2861C236.096 74.2692 236.059 74.2207 236.026 74.1587C236.025 74.156 236.024 74.1535 236.022 74.1509C236.042 74.1479 236.066 74.1451 236.094 74.1428C236.324 74.1244 236.736 74.1616 237.426 74.3325L238.148 74.5113L237.934 73.7985L237.528 73.9204C237.934 73.7985 237.934 73.7983 237.934 73.7981L237.934 73.7978L237.934 73.7969L237.933 73.7949L237.932 73.7893L237.926 73.7725C237.922 73.7588 237.915 73.7401 237.907 73.7169C237.89 73.6706 237.866 73.606 237.831 73.5267C237.763 73.3681 237.656 73.1495 237.499 72.898C237.186 72.395 236.671 71.7579 235.862 71.209C235.137 70.7171 234.659 70.2151 234.464 69.8418C234.366 69.6529 234.369 69.5548 234.376 69.526C234.379 69.5167 234.382 69.5101 234.392 69.5002C234.404 69.488 234.436 69.4635 234.504 69.4393L235.523 69.0797L234.533 68.6503L234.533 68.6501L234.533 68.6501L234.533 68.6499L234.527 68.6471C234.52 68.6441 234.509 68.6388 234.494 68.6314C234.465 68.6166 234.422 68.5936 234.371 68.5628C234.267 68.4998 234.143 68.4115 234.04 68.3036C233.936 68.1949 233.873 68.086 233.851 67.9808C233.84 67.9278 233.837 67.8626 233.857 67.7822L234.457 67.8004L234.686 67.8073L234.818 67.6201L234.47 67.3761C234.818 67.6201 234.818 67.62 234.818 67.6197L234.818 67.6193L234.819 67.6184L234.82 67.6163L234.824 67.6108L234.834 67.5954C234.842 67.5831 234.852 67.5668 234.864 67.5467C234.888 67.5068 234.918 67.4514 234.949 67.3827C235.01 67.2468 235.079 67.051 235.104 66.8165C235.155 66.32 234.998 65.7126 234.329 65.1909L234.112 65.0214L234.642 64.7872L234.47 64.399C234.642 64.7872 234.642 64.7871 234.642 64.787L234.643 64.7867L234.644 64.7862L234.647 64.7849L234.654 64.7817L234.673 64.7726C234.687 64.7653 234.706 64.7555 234.728 64.7429C234.772 64.7179 234.83 64.6816 234.894 64.6323C235.021 64.5346 235.182 64.3796 235.304 64.1538C235.564 63.6687 235.573 62.9955 235.047 62.1385C234.769 61.6867 234.424 61.4046 234.046 61.2603C233.673 61.1182 233.304 61.1237 232.993 61.1825C232.684 61.2412 232.417 61.3556 232.231 61.4517C232.149 61.494 232.081 61.5339 232.029 61.566C231.997 61.5659 231.958 61.565 231.914 61.562C231.773 61.5527 231.58 61.5242 231.374 61.4488C230.974 61.3034 230.496 60.9765 230.233 60.188C230.154 59.9516 230.087 59.7719 230.028 59.6427C230 59.5788 229.968 59.5168 229.934 59.463C229.91 59.4259 229.845 59.3259 229.728 59.2636C229.657 59.2257 229.545 59.1903 229.413 59.2212C229.338 59.2387 229.279 59.2722 229.234 59.3086C229.27 59.2361 229.299 59.1543 229.317 59.0627C229.428 58.5228 229.14 57.8771 228.296 57.0886C226.707 55.6033 226.938 54.8431 227.013 54.7018L227.346 54.0776L226.639 54.0776L226.639 54.502C226.639 54.0776 226.638 54.0776 226.638 54.0776L226.637 54.0776L226.635 54.0776L226.631 54.0776L226.623 54.0778C226.617 54.078 226.61 54.0784 226.603 54.0789C226.588 54.0799 226.57 54.0816 226.55 54.0844C226.51 54.0902 226.461 54.1005 226.404 54.1191C226.289 54.1567 226.15 54.2264 226.011 54.352C225.875 54.4757 225.75 54.643 225.648 54.8656C225.578 54.6732 225.506 54.4604 225.433 54.2365ZM229.041 59.9477C229.043 60.0235 229.047 60.1062 229.053 60.1904C229.036 60.1727 229.018 60.1554 228.999 60.1385C228.88 60.0305 228.731 59.9341 228.557 59.8813L228.744 59.7973L228.57 59.4103C228.744 59.7973 228.744 59.7972 228.745 59.797L228.745 59.7967L228.747 59.796L228.75 59.7945L228.758 59.7908C228.764 59.788 228.771 59.7845 228.778 59.7804C228.794 59.7722 228.814 59.7613 228.836 59.7474C228.881 59.7198 228.939 59.6791 228.999 59.623C229.025 59.5996 229.051 59.573 229.077 59.5433C229.065 59.5815 229.059 59.6127 229.056 59.6294C229.039 59.7292 229.038 59.8482 229.041 59.9477ZM228.294 59.7331L228.434 59.8522C228.341 59.8367 228.242 59.8339 228.138 59.8478L228.138 59.8478L228.136 59.8481C228.136 59.8482 228.135 59.8482 228.135 59.8483L228.025 59.5745L227.982 59.4665L228.294 59.7331ZM227.535 60.1456L227.56 60.1515C227.508 60.2161 227.465 60.2912 227.433 60.377C227.333 60.6479 227.38 60.9453 227.462 61.197C227.629 61.7133 228.034 62.328 228.546 62.9094L228.546 62.9094L228.55 62.9132C228.799 63.19 228.9 63.4677 228.922 63.7209C228.679 63.3897 228.326 63.0268 227.816 62.6801L227.813 62.6779C227.276 62.3199 226.955 61.5594 226.952 60.907C226.951 60.5834 227.029 60.3581 227.124 60.2418C227.194 60.1576 227.3 60.091 227.535 60.1456ZM234.046 64.4193L234.063 64.983L233.988 64.9247L233.73 65.2686L233.73 65.2691L233.73 65.2691L233.728 65.2709C233.726 65.2737 233.722 65.2792 233.715 65.2867C233.702 65.302 233.682 65.3251 233.655 65.3524C233.599 65.4083 233.523 65.474 233.436 65.5257C233.271 65.6233 233.108 65.656 232.912 65.5229C232.697 65.377 232.515 64.9774 232.55 64.5724C232.566 64.3837 232.627 64.2365 232.714 64.1399C232.793 64.0515 232.921 63.974 233.147 63.9648C233.694 63.9425 233.885 64.117 233.957 64.2093C234.001 64.2662 234.024 64.3247 234.036 64.3688C234.042 64.3906 234.045 64.4072 234.046 64.4158C234.046 64.4172 234.046 64.4184 234.046 64.4193Z" fill="#49CE8B" stroke="#171753" stroke-width="0.848893"/>
<path d="M226.64 52.3787C226.498 52.6781 226.569 53.0417 226.819 53.2637C227.193 53.5946 228.127 54.5403 228.82 56.2445C229.277 57.3677 230.006 57.9522 230.794 57.9577C231.564 57.963 232.197 57.4082 232.42 56.6794C232.509 56.3872 232.379 56.1414 232.233 55.9987C232.093 55.8615 231.906 55.7772 231.725 55.7513C231.622 55.7365 231.477 55.6854 231.338 55.4891C231.188 55.2786 231.026 54.8764 230.978 54.1261C230.83 51.8316 229.674 49.9222 229.389 49.482C229.287 49.3241 229.129 49.2207 228.957 49.1824L227.994 48.9685C227.525 48.8642 227.109 49.241 227.117 49.6926C227.128 50.2975 227.078 51.4606 226.64 52.3787Z" fill="#49CE8B" stroke="#171753" stroke-width="0.848893"/>
<path d="M226.975 50.2638L226.975 50.2638L226.976 50.2596C227.133 49.3897 227.387 48.9125 227.617 48.653C227.839 48.402 228.058 48.332 228.214 48.3145C228.419 48.2914 228.612 48.1934 228.753 48.0546C228.894 47.9155 229.021 47.6924 228.987 47.4199L228.875 46.5227C228.846 46.2935 228.707 46.0927 228.503 45.9848L227.981 45.7092C228.075 45.3748 228.199 44.8284 228.227 44.2051C228.242 43.873 228.034 43.5939 227.723 43.5293C227.424 43.4671 227.128 43.6233 226.99 43.9085L227.371 44.0938L226.99 43.9085C225.81 46.339 225.002 49.0027 224.685 51.8311C224.655 52.103 224.782 52.3523 224.993 52.4874C225.211 52.6273 225.508 52.6338 225.745 52.4508C226.311 52.0143 226.771 51.3285 226.975 50.2638Z" fill="#49CE8B" stroke="#171753" stroke-width="0.848893"/>
<path d="M236.891 47.4694L236.892 47.4695L236.899 47.4652C237.121 47.3295 237.3 47.3198 237.447 47.3521C237.607 47.3875 237.763 47.4817 237.902 47.6036C238.101 47.7782 238.366 47.8316 238.596 47.7802C238.836 47.7266 239.086 47.5412 239.137 47.2152C239.196 46.8391 239.235 46.3102 239.095 45.8248C238.948 45.3118 238.592 44.8356 237.898 44.6774L237.898 44.6774L237.894 44.6763C237.493 44.59 237.156 44.6052 236.862 44.7274C236.574 44.8474 236.38 45.0496 236.234 45.2255C236.178 45.2924 236.128 45.3558 236.081 45.4156C235.865 45.6879 235.708 45.8866 235.368 46.0011C234.933 46.1353 234.648 46.5315 234.669 46.9829C234.672 47.0589 234.691 47.1258 234.715 47.1812C234.845 47.7864 235.475 48.1222 236.051 47.9019C236.304 47.8068 236.575 47.6542 236.891 47.4694Z" fill="#49CE8B" stroke="#171753" stroke-width="0.848893"/>
<path d="M230.474 50.1839C230.554 51.1226 232.003 50.9885 231.949 50.0498V50.0229C231.842 48.8965 230.715 49.0037 230.528 49.7816C230.474 49.9425 230.474 50.0766 230.474 50.1839Z" fill="#49CE8B" stroke="#171753" stroke-width="0.848893"/>
<path d="M241.873 76.0393C241.873 76.0393 242.356 75.1274 240.612 75.1542C239.593 75.1542 238.976 75.6906 237.93 75.9052C238.198 76.0393 238.44 76.1734 238.708 76.3075C238.708 76.2807 240.639 75.5565 241.873 76.0393Z" fill="#49CE8B" stroke="#171753" stroke-width="0.848893"/>
<path d="M255.985 59.6363C255.985 59.1595 255.613 58.6818 255.058 58.6818C254.502 58.6818 254.13 59.1595 254.13 59.6363C254.13 60.1131 254.502 60.5909 255.058 60.5909C255.613 60.5909 255.985 60.1131 255.985 59.6363Z" fill="#49CE8B" stroke="#171753" stroke-width="0.997208"/>
<path d="M247.353 41.2066L247.361 41.2052L247.368 41.2036C247.626 41.1484 247.931 41.0227 248.177 40.7556C248.429 40.4825 248.577 40.1074 248.594 39.6342L248.603 39.3871L248.411 39.2305C247.915 38.8246 247.096 38.8761 246.731 39.5163C246.671 39.6042 246.617 39.6633 246.571 39.6984C246.528 39.731 246.503 39.7347 246.486 39.7347H245.606L246.059 40.4898L246.122 40.5948C246.345 41.0926 246.884 41.292 247.353 41.2066Z" fill="#49CE8B" stroke="#171753" stroke-width="0.997208"/>
<path d="M235.9 65.882L235.908 65.8806L235.916 65.8789C236.173 65.8237 236.478 65.698 236.724 65.4309C236.976 65.1579 237.124 64.7827 237.141 64.3095L237.15 64.0624L236.958 63.9058C236.462 63.5 235.643 63.5514 235.279 64.1916C235.218 64.2796 235.164 64.3386 235.118 64.3737C235.075 64.4063 235.051 64.41 235.033 64.41H234.227L234.587 65.1316L234.664 65.284C234.886 65.7684 235.431 65.9673 235.9 65.882Z" fill="#49CE8B" stroke="#171753" stroke-width="0.997208"/>
<path d="M275.013 54.9087C275.04 53.2938 274.903 51.7367 274.658 50.2121L274.631 50.0467L274.51 49.9309C273.791 49.2433 273.041 49.0462 272.365 49.1292C271.717 49.2086 271.195 49.537 270.875 49.7957C270.381 50.1931 270.657 50.9889 271.277 51.0042C271.686 51.0285 272.256 51.1649 272.695 51.6442C272.94 51.9211 272.916 52.0631 272.908 52.0978C272.893 52.1651 272.834 52.2401 272.753 52.2966L272.717 52.3217L272.686 52.3526C272.593 52.4461 272.497 52.5868 272.471 52.7687C272.443 52.971 272.508 53.1747 272.659 53.3259C273.059 53.7254 273.38 54.4934 273.607 55.2576C273.782 55.8481 273.871 56.3124 273.918 56.5561C273.932 56.6307 273.942 56.6846 273.95 56.7151L274.93 56.6414C274.985 56.064 275.012 55.4864 275.013 54.9087Z" fill="#49CE8B" stroke="#171753" stroke-width="0.997208"/>
<path d="M228.587 40.971L229.292 41.6558C229.84 41.2574 230.405 41.0219 230.914 41.076C231.045 41.0962 231.184 41.077 231.31 41.007C231.441 40.9343 231.528 40.8236 231.576 40.7114C231.664 40.5052 231.646 40.2303 231.458 40.0301C231.214 39.7541 230.796 39.4413 230.264 39.2536L229.916 39.1307L229.697 39.428L229.694 39.4316C229.321 39.9387 228.941 40.4542 228.587 40.971Z" fill="#49CE8B" stroke="#171753" stroke-width="0.997208"/>
<path d="M247.872 73.9812C247.729 74.0587 247.589 74.1366 247.511 74.1995C247.497 74.2109 247.474 74.2306 247.449 74.2573C247.433 74.2749 247.374 74.3392 247.339 74.4414C247.32 74.4988 247.301 74.5898 247.322 74.6984C247.344 74.815 247.405 74.9107 247.481 74.9781C247.605 75.0889 247.743 75.1014 247.772 75.104L247.773 75.1041C247.851 75.1113 247.918 75.0984 247.936 75.095C247.936 75.0949 247.937 75.0948 247.937 75.0947C247.966 75.0892 247.994 75.0822 248.017 75.0759C248.112 75.0504 248.284 74.9931 248.488 74.925C248.618 74.8818 248.76 74.8343 248.905 74.7877C249.301 74.6596 249.766 74.5198 250.205 74.4234C250.659 74.3237 251.026 74.2849 251.252 74.318C251.436 74.3448 251.627 74.3542 251.797 74.3127C251.97 74.2706 252.26 74.1271 252.296 73.7747C252.323 73.5119 252.175 73.3131 252.099 73.2241C252.003 73.1114 251.879 73.0102 251.747 72.9231C251.234 72.5819 250.316 72.2622 249.365 72.4209C248.96 72.4884 248.611 72.5891 248.389 72.8092C248.11 73.0856 248.147 73.4208 248.161 73.5557C248.162 73.5569 248.162 73.5581 248.162 73.5592C248.18 73.7241 248.177 73.7301 248.171 73.7455L248.171 73.7458C248.171 73.7458 248.171 73.7458 248.171 73.7459C248.17 73.7485 248.137 73.8379 247.872 73.9812ZM251.35 73.8835C251.349 73.8835 251.347 73.8801 251.342 73.8734C251.348 73.8803 251.35 73.8836 251.35 73.8835Z" fill="#49CE8B" stroke="#171753" stroke-width="0.997208"/>
<path d="M245.246 34.5922C245.214 34.1613 245.022 33.812 244.732 33.563C244.394 33.2714 243.957 33.144 243.576 33.1209C243.213 33.0988 242.781 33.1655 242.484 33.4085C242.321 33.5425 242.18 33.7498 242.173 34.0214C242.166 34.2797 242.282 34.5033 242.429 34.6787C242.574 34.8531 242.575 34.9446 242.574 34.9655C242.572 34.9915 242.559 35.0364 242.496 35.1034C242.432 35.1717 242.342 35.2327 242.256 35.2796C242.215 35.3018 242.18 35.3183 242.156 35.3287C242.145 35.3338 242.136 35.3374 242.131 35.3392L242.128 35.3406L241.201 35.6811L242.028 36.2245C242.558 36.5726 243.235 36.8299 243.864 36.9032C244.458 36.9725 245.203 36.8926 245.609 36.3062L245.609 36.3063L245.614 36.299C245.792 36.031 245.864 35.7468 245.825 35.4668C245.787 35.1982 245.654 34.9897 245.526 34.8445C245.433 34.7396 245.333 34.6558 245.246 34.5922Z" fill="#9BE7C4" stroke="#171753" stroke-width="0.997208"/>
<path d="M257.867 30.9315L257.797 30.9105H257.724C257.654 30.9105 257.601 30.9255 257.587 30.9295C257.565 30.9358 257.548 30.9423 257.539 30.9459C257.52 30.9533 257.505 30.9604 257.499 30.9635C257.485 30.9704 257.472 30.9774 257.465 30.9812C257.452 30.9882 257.436 30.9975 257.42 31.0063C257.417 31.008 257.414 31.0097 257.411 31.0113C257.372 31.0337 257.318 31.064 257.25 31.0998C257.114 31.1716 256.923 31.2652 256.697 31.3538C256.236 31.5347 255.669 31.6774 255.13 31.6116C254.792 31.5694 254.342 31.5324 253.892 31.5324C253.453 31.5324 252.966 31.5671 252.581 31.6927C252.389 31.7553 252.176 31.8549 252.013 32.0249C251.831 32.2134 251.734 32.466 251.767 32.7519C251.797 33.0101 251.928 33.2502 252.096 33.4678C252.269 33.6904 252.51 33.9271 252.822 34.182L253.083 34.3958L253.379 34.2327L253.379 34.2327L253.379 34.2327L253.379 34.2326L253.38 34.2321L253.386 34.2288L253.413 34.2142C253.438 34.2011 253.475 34.1814 253.525 34.1561C253.624 34.1055 253.771 34.0328 253.959 33.9466C254.335 33.774 254.87 33.5482 255.504 33.3372C256.784 32.9118 258.421 32.5625 259.959 32.7875L260.233 31.8385C259.502 31.5137 258.702 31.1819 257.867 30.9315Z" fill="#9BE7C4" stroke="#171753" stroke-width="0.997208"/>
<path d="M270.381 29.1338C269.242 28.2063 267.615 27.9621 265.632 28.3391C263.648 28.7163 261.282 29.7191 258.631 31.3205L258.493 31.4033L258.571 31.5434L258.705 31.7848L258.789 31.9351L258.936 31.8466C261.516 30.2962 263.791 29.3274 265.669 28.9537C267.549 28.5796 269.005 28.8062 269.983 29.6066L269.984 29.6069C270.798 30.2681 271.294 31.3203 271.425 32.7386L271.425 32.7391C271.716 35.7748 270.44 40.1648 267.928 45.1878C265.421 50.2034 261.694 55.8251 257.114 61.3153C251.302 68.2791 245.112 73.8384 239.816 77.1964C237.167 78.8758 234.75 79.9995 232.721 80.4769C230.689 80.955 229.079 80.7778 228.004 79.9065C226.925 79.0306 226.424 77.4415 226.553 75.2309C226.682 73.0247 227.439 70.2351 228.83 67.0128L228.895 66.8618L228.745 66.795L228.503 66.6878L228.349 66.6194L228.283 66.774C226.844 70.1224 226.058 73.006 225.94 75.3065C225.821 77.6047 226.368 79.352 227.633 80.3787C228.421 81.0257 229.427 81.3283 230.635 81.3283C232.176 81.3283 234.016 80.8324 236.056 79.9135C238.098 78.9936 240.35 77.6453 242.718 75.9291C247.455 72.4967 252.668 67.5851 257.61 61.6624C262.23 56.1291 265.993 50.4525 268.524 45.3765C271.052 40.3081 272.364 35.8134 272.051 32.6533L272.051 32.6523C271.887 31.0955 271.338 29.8944 270.381 29.1338ZM270.381 29.1338C270.381 29.1341 270.381 29.1343 270.381 29.1345L270.276 29.2634L270.38 29.1332C270.38 29.1334 270.38 29.1336 270.381 29.1338Z" fill="#171753" stroke="#171753" stroke-width="0.332403"/>
<path d="M246.939 65.528L246.939 65.528C252.849 66.6025 258.464 67.1132 263.437 67.1132C268.609 67.1132 273.061 66.5626 276.322 65.5059C279.57 64.4536 281.699 62.8777 282.107 60.7831L282.107 60.7807C282.361 59.3719 281.792 57.868 280.518 56.3562C279.244 54.8434 277.247 53.3031 274.596 51.8092L274.45 51.7271L274.369 51.8733L274.235 52.1147L274.154 52.2593L274.299 52.3403C276.891 53.797 278.817 55.2742 280.034 56.6986C281.251 58.1241 281.74 59.4758 281.512 60.6937C281.258 62.04 280.142 63.1968 278.273 64.1213C276.408 65.0441 273.823 65.7188 270.698 66.1149C264.45 66.9068 256.079 66.5801 247.08 64.9328C239.942 63.6205 233.383 61.6725 228.173 59.4153C222.955 57.1547 219.117 54.5952 217.388 52.0746L217.388 52.0746L217.387 52.0728C216.574 50.9186 216.298 49.8365 216.476 48.8456C216.717 47.5285 217.845 46.355 219.801 45.4084C221.753 44.4641 224.495 43.7632 227.891 43.3755L228.054 43.3569L228.038 43.1938L228.011 42.9256L227.994 42.7585L227.827 42.7769C224.291 43.1669 221.46 43.8808 219.437 44.8784C217.417 45.8751 216.177 47.1696 215.881 48.7313C215.656 49.9133 215.997 51.1649 216.873 52.4239C218.671 55.0526 222.611 57.6695 227.87 59.9549C233.137 62.244 239.754 64.2119 246.939 65.528Z" fill="#171753" stroke="#171753" stroke-width="0.332403"/>
<path d="M250.463 78.8298L250.322 78.9355L250.436 79.07C252.266 81.2363 254.027 82.8974 255.666 84.0182C257.303 85.1378 258.831 85.7269 260.192 85.7269C260.746 85.7269 261.25 85.6435 261.754 85.4474L261.754 85.4475L261.759 85.4455C262.88 84.9688 263.793 83.9919 264.395 82.5128C265.621 79.5714 265.701 74.8927 264.798 69.3208C263.894 63.7406 261.999 57.2374 259.245 50.6295C255.74 42.2092 251.421 35.025 247.272 30.2242C245.199 27.8245 243.162 26.0131 241.285 24.9429C239.411 23.8741 237.668 23.5299 236.205 24.1206C234.743 24.7112 233.72 26.1501 233.137 28.2671C232.553 30.3856 232.4 33.2102 232.696 36.6267L232.71 36.7945L232.878 36.7777L233.146 36.7509L233.31 36.7346L233.295 36.5707C233.001 33.2824 233.149 30.5547 233.696 28.522C234.243 26.4862 235.179 25.1786 236.437 24.6703C237.729 24.1549 239.323 24.4565 241.123 25.5046C242.921 26.551 244.896 28.3262 246.927 30.6991C250.986 35.4434 255.242 42.5483 258.724 50.8914C261.456 57.4527 263.336 63.8907 264.235 69.401C265.136 74.9194 265.049 79.4801 263.874 82.3052L263.873 82.3057C263.322 83.6457 262.517 84.5156 261.552 84.8965L261.551 84.897C260.291 85.406 258.718 85.1433 256.902 84.0958C255.088 83.0496 253.057 81.2347 250.904 78.6944L250.803 78.5749L250.678 78.6689L250.463 78.8298Z" fill="#171753" stroke="#171753" stroke-width="0.332403"/>
<path d="M253.194 88.1204C253.194 88.1204 256.374 88.7015 256.374 92.9892V102.673H252.366L253.194 88.1204Z" fill="#171753" stroke="#171753" stroke-width="0.25" stroke-miterlimit="10"/>
<path d="M255.212 90.7779C254.844 90.3552 254.406 90.0002 253.916 89.7294L239.89 81.6214L240.899 79.8649L254.924 87.9795C255.623 88.3676 256.247 88.8763 256.768 89.4823L255.212 90.7779Z" fill="#9BE7C4"/>
<path d="M247.952 64.3442L195.691 34.163C192.966 32.7529 189.877 32.2054 186.835 32.5935C185.244 32.7412 183.691 33.1662 182.246 33.8491C180.724 34.6038 179.695 35.5922 179.361 36.6341C178.92 38.0166 179.822 39.5127 181.765 40.6414L234.06 70.8226C235.463 71.6381 236.628 72.8074 237.437 74.2137C238.247 75.62 238.674 77.2142 238.675 78.837V121.548L237.099 120.532L235.943 125.441L248.666 132.788L249.007 132.982C249.232 133.109 249.486 133.175 249.745 133.174C250.003 133.172 250.257 133.102 250.48 132.972C250.703 132.841 250.888 132.654 251.016 132.43C251.145 132.205 251.212 131.951 251.211 131.693V70.0144C251.211 68.8669 250.91 67.7395 250.338 66.7446C249.766 65.7497 248.943 64.922 247.952 64.3442Z" fill="#171753" stroke="#171753" stroke-width="0.25" stroke-miterlimit="10"/>
<path d="M244.405 131.104V69.2326L187.149 38.0363L185.679 39.018L239.323 130.136L242.709 132.086L244.405 131.104Z" fill="#171753" stroke="#171753" stroke-width="0.7" stroke-miterlimit="10"/>
<path d="M241.139 71.1167V132.995L239.436 133.977L183.749 101.825V38.5311L241.139 71.1167Z" fill="#171753" stroke="#171753" stroke-width="0.25" stroke-miterlimit="10"/>
<path d="M182.614 98.298C183.382 97.8726 184.211 97.5684 185.072 97.3964C185.345 97.8238 185.606 98.2646 185.84 98.7321C185.302 98.8386 184.783 99.0278 184.303 99.2931C183.402 99.8208 182.968 100.542 183.075 101.297C183.157 101.617 183.308 101.915 183.516 102.171C183.725 102.427 183.987 102.634 184.283 102.779L238.915 134.316L237.219 135.298L182.587 103.761C182.121 103.536 181.71 103.212 181.383 102.812C181.055 102.412 180.819 101.945 180.69 101.444C180.497 100.248 181.198 99.1195 182.614 98.298Z" fill="#087980" stroke="#171753" stroke-width="0.25" stroke-miterlimit="10"/>
<path d="M181.014 100.62V39.2724L185.343 42.8353L185.368 42.8553L185.395 42.8706L238.572 72.6043V134.075L237.224 134.852L181.014 100.62Z" fill="#087980" stroke="#171753" stroke-width="0.7" stroke-miterlimit="10"/>
<path d="M237.219 73.3802L238.915 72.3984L184.283 40.8548C183.987 40.7104 183.726 40.5038 183.518 40.249C183.309 39.9942 183.158 39.6974 183.075 39.3788C182.954 38.6441 183.402 37.9228 184.303 37.3751C185.356 36.8201 186.543 36.5724 187.73 36.6605C188.624 36.7009 189.498 36.9405 190.288 37.3618L244.92 68.9054L246.623 67.9237L191.991 36.38C190.756 35.7151 189.385 35.3406 187.983 35.2847C186.133 35.1469 184.281 35.5335 182.64 36.4C181.225 37.2148 180.523 38.3436 180.717 39.4923C180.846 39.9934 181.082 40.4604 181.409 40.8607C181.737 41.2609 182.148 41.5849 182.614 41.8098L237.219 73.3802Z" fill="#9BE7C4" stroke="#171753" stroke-width="0.7" stroke-miterlimit="10"/>
<path d="M239.436 72.0977L241.133 71.1159L186.467 39.5522C186.389 39.5162 186.319 39.4625 186.265 39.3953C186.21 39.3281 186.172 39.2492 186.153 39.1648C186.148 39.0566 186.175 38.9491 186.232 38.8571C186.29 38.7651 186.374 38.693 186.474 38.6506C186.748 38.5023 187.059 38.4373 187.369 38.4636C187.603 38.472 187.832 38.5361 188.037 38.6506L242.702 70.2076L244.405 69.2258L189.74 37.6688C189.085 37.317 188.359 37.1183 187.616 37.0877C186.635 37.0121 185.654 37.2159 184.784 37.6755C184.464 37.8073 184.194 38.036 184.011 38.3295C183.827 38.623 183.74 38.9665 183.762 39.3118C183.832 39.5755 183.957 39.8213 184.13 40.0322C184.303 40.2431 184.519 40.4143 184.764 40.534L239.436 72.0977Z" fill="#9BE7C4" stroke="#171753" stroke-width="0.7" stroke-miterlimit="10"/>
<path d="M253.922 70.0075V130.43C253.922 131.686 253.255 132.153 252.173 132.774C251.646 133.085 251.045 133.249 250.433 133.249C249.821 133.249 249.22 133.085 248.693 132.774L242.909 129.706L242.895 126.6L250.049 130.45C250.166 130.524 250.301 130.563 250.44 130.563C250.578 130.563 250.713 130.524 250.83 130.45C250.949 130.383 251.049 130.286 251.119 130.169C251.189 130.052 251.228 129.919 251.231 129.782V70.0075C251.229 68.8613 250.926 67.7357 250.353 66.743C249.78 65.7504 248.957 64.9255 247.965 64.3506L195.691 34.1628C192.965 32.7573 189.877 32.2124 186.835 32.5999C185.239 32.736 183.682 33.1615 182.24 33.8555H182.213C180.671 34.6357 179.674 35.5949 179.341 36.6339C178.9 38.0164 179.802 39.5124 181.746 40.6411L234.04 70.8223C235.442 71.6372 236.606 72.8055 237.416 74.2105C238.226 75.6156 238.653 77.2084 238.655 78.8301V138.551C238.655 140.618 238.128 140.907 237.22 141.405C237.122 141.459 237.019 141.515 236.912 141.577C236.381 141.887 235.777 142.051 235.162 142.051C234.547 142.051 233.943 141.887 233.412 141.577L208.18 127.01C208.314 126.042 208.427 125.067 208.534 124.092L234.768 139.239C234.887 139.313 235.025 139.352 235.165 139.352C235.306 139.352 235.443 139.313 235.563 139.239C235.682 139.173 235.781 139.076 235.85 138.959C235.919 138.841 235.956 138.708 235.957 138.571V78.8301C235.957 77.6818 235.654 76.5539 235.08 75.5596C234.505 74.5654 233.679 73.7401 232.684 73.1665L180.403 42.972C179.439 42.4361 178.582 41.7249 177.879 40.8749C177.276 40.1964 176.858 39.3744 176.665 38.4878C176.472 37.6012 176.511 36.6799 176.777 35.8124C177.34 34.0555 178.792 32.5553 180.982 31.4621L180.997 31.4378C182.73 30.6196 184.588 30.1003 186.494 29.9017C190.12 29.4625 193.794 30.1381 197.026 31.8385L249.328 62.0264C250.721 62.8431 251.877 64.0086 252.683 65.408C253.488 66.8075 253.916 68.3927 253.922 70.0075Z" fill="#9BE7C4" stroke="#171753" stroke-width="0.7" stroke-miterlimit="10"/>
<path d="M244.926 68.9323V130.811L246.623 129.829V67.9506L244.926 68.9323Z" fill="#087980" stroke="#171753" stroke-width="0.7" stroke-miterlimit="10"/>
<path d="M242.923 70.2686V132.147L244.619 131.165V69.2868L242.923 70.2686Z" fill="#087980" stroke="#171753" stroke-width="0.7" stroke-miterlimit="10"/>
<path d="M239.583 72.2252V134.15L241.28 133.169V71.2434L239.583 72.2252Z" fill="#087980" stroke="#171753" stroke-width="0.7" stroke-miterlimit="10"/>
<path d="M232.684 73.1665L180.403 42.972C179.967 42.722 179.552 42.4384 179.161 42.1237C178.967 41.9701 178.787 41.8099 178.613 41.6496L178.466 41.516C178.257 41.3052 178.061 41.0822 177.878 40.8481C177.098 39.9364 176.63 38.799 176.543 37.6023V37.5688V105.558C176.636 107.609 178.005 109.566 180.403 110.968L233.452 141.59C235.249 142.572 235.957 141.31 235.957 140.021V78.8301C235.956 77.6818 235.654 76.5538 235.079 75.5596C234.505 74.5654 233.679 73.74 232.684 73.1665Z" fill="#171753" stroke="#171753" stroke-width="0.7" stroke-miterlimit="10"/>
<path d="M234.033 141.209C233.796 141.183 233.567 141.103 233.365 140.975L180.329 110.36C178.259 109.158 177.023 107.468 176.943 105.725V105.391V42.0367L177.27 42.3774C177.624 42.7046 177.825 42.8849 178.039 43.0452C178.459 43.3885 178.906 43.6989 179.374 43.9736L231.656 74.1614C232.505 74.6533 233.21 75.3593 233.701 76.2089C234.192 77.0586 234.452 78.0222 234.454 79.0035V140.234C234.465 140.521 234.403 140.806 234.274 141.062C234.193 141.196 234.127 141.209 234.04 141.209H234.033Z" fill="#171753" stroke="#171753" stroke-width="0.25" stroke-miterlimit="10"/>
<path d="M256.791 93.2241L255.799 95.4981C255.539 95.6895 255.269 95.8672 254.991 96.0307L245.554 101.532C242.108 103.555 236.685 103.555 233.212 101.532L208.574 87.1787L207.145 86.3292C206.644 86.0326 206.063 85.9382 205.702 86.5787C205.702 86.6124 205.662 86.6663 205.642 86.7068C205.6 86.8102 205.565 86.916 205.535 87.0236C205.45 87.2894 205.405 87.5667 205.401 87.8461V88.2978V100.433C205.403 101.438 205.665 102.425 206.162 103.295C206.659 104.166 207.373 104.89 208.233 105.395L233.212 119.957C235.118 120.988 237.254 121.511 239.416 121.474C241.555 121.512 243.668 120.997 245.554 119.978L254.991 114.476C255.692 114.127 256.307 113.624 256.791 113.003C257.274 112.382 257.613 111.66 257.783 110.89C257.81 110.693 257.823 110.495 257.823 110.296V92.0935L256.791 93.2241ZM205.455 87.4282C205.455 87.5091 205.455 87.6034 205.455 87.6978C205.408 87.6236 205.415 87.5091 205.428 87.4282H205.455ZM205.535 86.9967C205.535 87.0911 205.488 87.1922 205.475 87.3001C205.462 87.1922 205.488 87.0911 205.508 86.9967H205.535Z" fill="#171753"/>
<path d="M205.401 88.2978V87.8461C205.405 87.5667 205.45 87.2894 205.535 87.0236C205.565 86.916 205.6 86.8102 205.642 86.7068C205.662 86.6663 205.702 86.6124 205.702 86.5787C206.063 85.9382 206.644 86.0326 207.145 86.3292L208.574 87.1787L233.212 101.532C236.685 103.555 242.108 103.555 245.554 101.532L254.991 96.0307C255.269 95.8672 255.539 95.6895 255.799 95.4981L256.791 93.2241L257.823 92.0935V110.296C257.823 110.495 257.81 110.693 257.783 110.89C257.613 111.66 257.274 112.382 256.791 113.003C256.307 113.624 255.692 114.127 254.991 114.476L245.554 119.978C243.668 120.997 241.555 121.512 239.416 121.474C237.254 121.511 235.118 120.988 233.212 119.957L208.233 105.395C207.373 104.89 206.659 104.166 206.162 103.295C205.665 102.425 205.403 101.438 205.401 100.433V88.2978ZM205.401 88.2978C205.401 88.1293 205.401 87.981 205.401 87.8326M205.455 87.4282C205.455 87.5091 205.455 87.6034 205.455 87.6978C205.408 87.6236 205.415 87.5091 205.428 87.4282H205.455ZM205.535 86.9967C205.535 87.0911 205.488 87.1922 205.475 87.3001C205.462 87.1922 205.488 87.0911 205.508 86.9967H205.535Z" stroke="#BEF0ED" stroke-width="0.7" stroke-miterlimit="10"/>
<path d="M257.803 92.3206C257.798 92.4795 257.782 92.6379 257.756 92.7948C257.49 93.9879 256.787 95.0384 255.786 95.7401C255.526 95.9297 255.256 96.1058 254.978 96.2677L245.541 101.718C242.094 103.721 236.671 103.721 233.198 101.718L208.561 87.4986L207.131 86.6571C206.63 86.3632 206.049 86.2697 205.689 86.9042C205.928 86.4167 206.31 86.0136 206.784 85.7487C207.207 85.4997 207.689 85.3684 208.18 85.3684C208.671 85.3684 209.153 85.4997 209.576 85.7487L234.2 99.9611C237.005 101.584 241.734 101.591 244.512 99.9611L253.949 94.5179C254.379 94.3188 254.761 94.0307 255.071 93.6726C255.381 93.3145 255.611 92.8946 255.746 92.4408C255.787 92.1403 255.76 91.8344 255.668 91.5456C255.575 91.2567 255.419 90.9921 255.212 90.7712L256.768 89.4822C257.46 90.2631 257.83 91.2775 257.803 92.3206Z" fill="#9BE7C4"/>
<path d="M216.228 100.676C216.152 99.4646 215.791 98.2882 215.174 97.2434C214.556 96.1986 213.7 95.315 212.674 94.6651C212.327 94.4209 211.921 94.2721 211.498 94.2334C211.075 94.1948 210.65 94.2676 210.264 94.4447H210.217L209.128 95.0725L209.188 95.166C208.782 95.7189 208.585 96.3983 208.634 97.0828C208.711 98.2938 209.072 99.4695 209.69 100.514C210.307 101.559 211.163 102.443 212.187 103.094C212.762 103.458 213.451 103.6 214.124 103.494L214.171 103.561L215.112 103.02C215.186 102.982 215.257 102.94 215.326 102.893C215.644 102.624 215.892 102.281 216.049 101.895C216.206 101.509 216.267 101.091 216.228 100.676Z" fill="#9BE7C4"/>
<path d="M215.206 101.257C215.206 103.501 213.69 104.443 211.753 103.368C210.729 102.717 209.873 101.833 209.256 100.788C208.638 99.7437 208.276 98.568 208.2 97.357C208.2 95.1129 209.716 94.1646 211.653 95.2465C212.678 95.8964 213.534 96.78 214.152 97.8248C214.769 98.8696 215.131 100.046 215.206 101.257Z" fill="#087980" stroke="#171753" stroke-width="0.7" stroke-miterlimit="10"/>
<path d="M218.184 135.446C217.056 134.051 215.861 134.316 212.741 133.652C210.086 133.054 207.298 133.054 204.71 133.785C202.121 134.449 200.528 134.914 199.4 136.11L198.006 136.841V139.764V139.831C198.072 141.758 199.665 143.618 202.851 144.947C206.037 146.276 209.489 146.475 212.808 145.678C217.52 144.548 219.843 142.223 219.91 139.831V139.698V136.908L218.184 135.446Z" fill="#171753"/>
<path d="M208.891 146.409C206.767 146.409 204.643 146.01 202.718 145.213C199.532 143.884 197.74 141.957 197.674 139.764V136.575L199.2 135.778C200.395 134.449 202.187 133.984 204.643 133.386C207.298 132.722 210.153 132.655 212.874 133.253C213.737 133.453 214.467 133.585 215.064 133.652C216.657 133.918 217.587 134.051 218.516 135.18L220.441 136.642V139.764C220.375 142.555 217.587 144.88 213.007 146.01C211.613 146.276 210.285 146.409 208.891 146.409ZM198.47 137.04V139.698C198.537 141.625 200.13 143.286 203.05 144.482C206.037 145.744 209.489 145.943 212.808 145.146C216.923 144.15 219.512 142.023 219.578 139.698V139.565V137.04L217.919 135.712C217.188 134.848 216.458 134.715 214.932 134.449C214.268 134.316 213.604 134.25 212.675 134.051C210.086 133.453 207.365 133.519 204.776 134.183C202.121 134.848 200.661 135.313 199.665 136.376L199.532 136.442L198.47 137.04Z" fill="#171753"/>
<path d="M216.79 132.323C221.105 134.781 221.105 138.834 216.79 141.293C212.476 143.751 205.573 143.751 201.258 141.293C196.944 138.834 196.944 134.781 201.258 132.323C205.506 129.798 212.476 129.798 216.79 132.323Z" fill="white"/>
<path d="M209.024 143.552C206.17 143.552 203.249 142.887 201.059 141.625C198.869 140.362 197.674 138.635 197.674 136.775C197.674 134.914 198.869 133.187 201.059 131.924C205.44 129.4 212.609 129.4 216.989 131.924C219.18 133.187 220.375 134.914 220.375 136.775C220.375 138.635 219.18 140.362 216.989 141.625C214.799 142.887 211.878 143.552 209.024 143.552ZM209.024 130.861C206.303 130.861 203.581 131.459 201.457 132.655C199.532 133.785 198.47 135.246 198.47 136.775C198.47 138.303 199.532 139.764 201.457 140.894C205.639 143.286 212.409 143.286 216.591 140.894C218.516 139.764 219.578 138.303 219.578 136.775C219.578 135.246 218.516 133.785 216.591 132.655C214.467 131.459 211.746 130.861 209.024 130.861Z" fill="#171753"/>
<path d="M214.401 134.051C211.414 132.522 206.568 132.522 203.581 134.051C200.594 135.579 200.594 138.037 203.581 139.499C206.568 141.027 211.414 141.027 214.401 139.499C217.387 137.971 217.387 135.579 214.401 134.051Z" fill="#171753"/>
<path d="M209.024 141.027C206.966 141.027 204.975 140.628 203.448 139.831C201.855 139.034 200.992 137.904 200.992 136.708C200.992 135.512 201.855 134.383 203.448 133.585C206.568 132.057 211.546 132.057 214.666 133.585C216.259 134.383 217.122 135.512 217.122 136.708C217.122 137.904 216.259 139.034 214.666 139.831C213.073 140.628 211.015 141.027 209.024 141.027ZM209.024 133.32C207.099 133.32 205.241 133.652 203.78 134.383C202.453 135.047 201.789 135.911 201.789 136.775C201.789 137.638 202.519 138.502 203.78 139.167C206.634 140.628 211.347 140.628 214.268 139.167C215.595 138.502 216.259 137.638 216.259 136.775C216.259 135.911 215.529 135.047 214.268 134.383C212.807 133.652 210.883 133.32 209.024 133.32Z" fill="#171753"/>
<path d="M214.4 135.712C211.414 134.183 206.568 134.183 203.581 135.712C202.519 136.243 201.789 136.908 201.523 137.638C201.855 138.369 202.519 139.034 203.581 139.565C206.568 141.093 211.414 141.093 214.4 139.565C215.462 139.034 216.193 138.369 216.458 137.638C216.193 136.908 215.529 136.243 214.4 135.712Z" fill="#49CE8B"/>
<path d="M209.024 141.027C206.966 141.027 204.975 140.628 203.449 139.831C202.32 139.233 201.524 138.502 201.192 137.705L201.125 137.572L201.192 137.439C201.524 136.642 202.32 135.911 203.449 135.313C206.568 133.785 211.546 133.785 214.666 135.313C215.795 135.911 216.591 136.642 216.923 137.439L216.989 137.572L216.923 137.705C216.591 138.502 215.795 139.233 214.666 139.831C213.073 140.628 211.015 141.027 209.024 141.027ZM201.988 137.572C202.32 138.17 202.918 138.701 203.78 139.1C206.635 140.562 211.347 140.562 214.268 139.1C215.131 138.635 215.728 138.103 216.06 137.572C215.728 136.974 215.131 136.442 214.268 136.044C211.414 134.582 206.701 134.582 203.78 136.044C202.918 136.509 202.254 137.04 201.988 137.572Z" fill="#171753"/>
<path d="M216.79 141.558H216.193V143.95H216.79V141.558Z" fill="#49CE8B"/>
<path d="M199.931 140.23H199.333V142.621H199.931V140.23Z" fill="#49CE8B"/>
<path d="M210.285 132.987H209.688V134.516H210.285V132.987Z" fill="#49CE8B"/>
<path d="M214.069 142.621H213.471V145.013H214.069V142.621Z" fill="#49CE8B"/>
<path d="M213.405 127.274C212.277 125.878 211.082 126.144 207.962 125.48C205.307 124.882 202.519 124.882 199.931 125.613C197.342 126.277 195.749 126.742 194.62 127.938L193.227 128.669V131.592V131.659C193.293 133.585 194.886 135.446 198.072 136.775C201.258 138.103 204.71 138.303 208.029 137.505C212.741 136.376 215.064 134.051 215.131 131.659V131.526V128.735L213.405 127.274Z" fill="#171753"/>
<path d="M204.112 138.303C201.988 138.303 199.864 137.904 197.939 137.107C194.753 135.778 192.961 133.851 192.895 131.659V128.469L194.421 127.672C195.616 126.343 197.408 125.878 199.864 125.28C202.519 124.616 205.373 124.549 208.095 125.147C208.958 125.347 209.688 125.48 210.285 125.546C211.878 125.812 212.808 125.945 213.737 127.074L215.662 128.536V131.659C215.595 134.449 212.808 136.775 208.228 137.904C206.834 138.103 205.44 138.303 204.112 138.303ZM193.625 128.868V131.526C193.691 133.453 195.284 135.114 198.205 136.309C201.192 137.572 204.643 137.771 207.962 136.974C212.077 135.977 214.666 133.851 214.732 131.526V131.393V128.868L213.073 127.539C212.343 126.676 211.613 126.543 210.086 126.277C209.422 126.144 208.759 126.078 207.829 125.878C205.241 125.28 202.519 125.347 199.931 126.011C197.275 126.676 195.815 127.141 194.82 128.204L194.687 128.27L193.625 128.868Z" fill="#171753"/>
<path d="M204.245 134.914C210.294 134.914 215.197 132.088 215.197 128.602C215.197 125.116 210.294 122.291 204.245 122.291C198.196 122.291 193.293 125.116 193.293 128.602C193.293 132.088 198.196 134.914 204.245 134.914Z" fill="white"/>
<path d="M204.245 135.379C201.391 135.379 198.47 134.715 196.28 133.453C194.089 132.19 192.895 130.463 192.895 128.602C192.895 126.742 194.089 125.015 196.28 123.752C200.661 121.227 207.829 121.227 212.21 123.752C214.401 125.015 215.595 126.742 215.595 128.602C215.595 130.463 214.401 132.19 212.21 133.453C209.953 134.715 207.099 135.379 204.245 135.379ZM204.245 122.689C201.524 122.689 198.802 123.287 196.678 124.483C194.753 125.613 193.691 127.074 193.691 128.602C193.691 130.131 194.753 131.592 196.678 132.722C200.86 135.114 207.63 135.114 211.812 132.722C213.737 131.592 214.799 130.131 214.799 128.602C214.799 127.074 213.737 125.613 211.812 124.483C209.688 123.287 206.966 122.689 204.245 122.689Z" fill="#171753"/>
<path d="M209.622 125.878C206.635 124.35 201.789 124.35 198.802 125.878C195.815 127.406 195.815 129.865 198.802 131.326C201.789 132.855 206.635 132.855 209.622 131.326C212.609 129.865 212.609 127.406 209.622 125.878Z" fill="#171753"/>
<path d="M204.245 132.921C202.187 132.921 200.196 132.522 198.669 131.725C197.076 130.928 196.213 129.798 196.213 128.602C196.213 127.406 197.076 126.277 198.669 125.48C201.789 123.952 206.767 123.952 209.887 125.48C211.48 126.277 212.343 127.406 212.343 128.602C212.343 129.798 211.48 130.928 209.887 131.725C208.294 132.522 206.236 132.921 204.245 132.921ZM204.245 125.147C202.32 125.147 200.461 125.48 199.001 126.211C197.674 126.875 197.01 127.739 197.01 128.602C197.01 129.466 197.74 130.33 199.001 130.994C201.855 132.456 206.568 132.456 209.489 130.994C210.816 130.33 211.48 129.466 211.48 128.602C211.48 127.739 210.75 126.875 209.489 126.211C208.028 125.546 206.103 125.147 204.245 125.147Z" fill="#171753"/>
<path d="M209.622 127.539C206.635 126.011 201.789 126.011 198.802 127.539C197.74 128.071 197.01 128.735 196.745 129.466C197.076 130.197 197.74 130.861 198.802 131.393C201.789 132.921 206.635 132.921 209.622 131.393C210.684 130.861 211.414 130.197 211.679 129.466C211.414 128.735 210.684 128.071 209.622 127.539Z" fill="#49CE8B"/>
<path d="M204.245 132.921C202.187 132.921 200.196 132.522 198.669 131.725C197.541 131.127 196.744 130.396 196.413 129.599L196.346 129.466L196.413 129.333C196.744 128.536 197.541 127.805 198.669 127.207C201.789 125.679 206.767 125.679 209.887 127.207C211.015 127.805 211.812 128.536 212.144 129.333L212.21 129.466L212.144 129.599C211.812 130.396 211.015 131.127 209.887 131.725C208.294 132.522 206.236 132.921 204.245 132.921ZM197.209 129.466C197.541 130.064 198.138 130.596 199.001 130.994C201.855 132.456 206.568 132.456 209.489 130.994C210.352 130.529 210.949 129.998 211.281 129.466C210.949 128.868 210.352 128.337 209.489 127.938C206.635 126.476 201.922 126.476 199.001 127.938C198.138 128.337 197.475 128.868 197.209 129.466Z" fill="#171753"/>
<path d="M212.011 133.386H211.414V135.778H212.011V133.386Z" fill="#49CE8B"/>
<path d="M195.151 132.124H194.554V134.516H195.151V132.124Z" fill="#49CE8B"/>
<path d="M205.506 124.882H204.909V126.41H205.506V124.882Z" fill="#49CE8B"/>
<path d="M209.29 134.516H208.692V136.908H209.29V134.516Z" fill="#49CE8B"/>
<path d="M217.388 119.832C216.259 118.437 215.064 118.703 211.945 118.038C209.29 117.44 206.502 117.44 203.913 118.171C201.324 118.836 199.731 119.301 198.603 120.497L197.209 121.227V124.151V124.217C197.275 126.144 198.869 128.004 202.055 129.333C205.241 130.662 208.692 130.861 212.011 130.064C216.724 128.935 219.047 126.609 219.113 124.217V124.084V121.294L217.388 119.832Z" fill="#171753"/>
<path d="M208.095 130.861C205.971 130.861 203.847 130.463 201.922 129.665C198.736 128.337 196.943 126.41 196.877 124.217V121.028L198.404 120.231C199.599 118.902 201.391 118.437 203.847 117.839C206.502 117.175 209.356 117.108 212.077 117.706C212.94 117.905 213.67 118.038 214.268 118.105C215.861 118.371 216.79 118.503 217.719 119.633L219.644 121.095V124.217C219.578 127.008 216.79 129.333 212.21 130.463C210.816 130.662 209.489 130.861 208.095 130.861ZM197.674 121.427V124.084C197.74 126.011 199.333 127.672 202.254 128.868C205.241 130.131 208.692 130.33 212.011 129.533C216.126 128.536 218.715 126.41 218.781 124.084V123.952V121.427L217.122 120.098C216.392 119.234 215.662 119.101 214.135 118.836C213.471 118.703 212.807 118.636 211.878 118.437C209.289 117.839 206.568 117.905 203.979 118.57C201.324 119.234 199.864 119.699 198.868 120.762L198.736 120.829L197.674 121.427Z" fill="#171753"/>
<path d="M208.228 127.539C214.276 127.539 219.18 124.713 219.18 121.227C219.18 117.742 214.276 114.916 208.228 114.916C202.179 114.916 197.276 117.742 197.276 121.227C197.276 124.713 202.179 127.539 208.228 127.539Z" fill="white"/>
<path d="M208.227 127.938C205.373 127.938 202.453 127.274 200.262 126.011C198.072 124.749 196.877 123.021 196.877 121.161C196.877 119.301 198.072 117.573 200.262 116.311C204.643 113.786 211.812 113.786 216.193 116.311C218.383 117.573 219.578 119.301 219.578 121.161C219.578 123.021 218.383 124.749 216.193 126.011C214.002 127.34 211.082 127.938 208.227 127.938ZM208.227 115.248C205.506 115.248 202.785 115.846 200.661 117.042C198.736 118.171 197.674 119.633 197.674 121.161C197.674 122.689 198.736 124.151 200.661 125.28C204.842 127.672 211.613 127.672 215.794 125.28C217.719 124.151 218.781 122.689 218.781 121.161C218.781 119.633 217.719 118.171 215.794 117.042C213.67 115.846 210.949 115.248 208.227 115.248Z" fill="#171753"/>
<path d="M208.228 125.081C212.443 125.081 215.861 123.356 215.861 121.227C215.861 119.099 212.443 117.374 208.228 117.374C204.012 117.374 200.594 119.099 200.594 121.227C200.594 123.356 204.012 125.081 208.228 125.081Z" fill="#171753"/>
<path d="M208.228 125.48C206.17 125.48 204.179 125.081 202.652 124.284C201.059 123.486 200.196 122.357 200.196 121.161C200.196 119.965 201.059 118.836 202.652 118.038C205.772 116.51 210.75 116.51 213.87 118.038C215.463 118.836 216.326 119.965 216.326 121.161C216.326 122.357 215.463 123.486 213.87 124.284C212.277 125.081 210.219 125.48 208.228 125.48ZM208.228 117.773C206.303 117.773 204.444 118.105 202.984 118.836C201.656 119.5 200.993 120.364 200.993 121.227C200.993 122.091 201.723 122.955 202.984 123.619C205.838 125.081 210.551 125.081 213.471 123.619C214.799 122.955 215.463 122.091 215.463 121.227C215.463 120.364 214.732 119.5 213.471 118.836C212.011 118.105 210.086 117.773 208.228 117.773Z" fill="#171753"/>
<path d="M213.604 120.098C210.617 118.57 205.772 118.57 202.785 120.098C201.723 120.629 200.993 121.294 200.727 122.025C201.059 122.756 201.723 123.42 202.785 123.952C205.772 125.48 210.617 125.48 213.604 123.952C214.666 123.42 215.396 122.756 215.662 122.025C215.396 121.294 214.733 120.629 213.604 120.098Z" fill="#49CE8B"/>
<path d="M208.228 125.48C206.17 125.48 204.179 125.081 202.652 124.284C201.524 123.686 200.727 122.955 200.395 122.158L200.329 122.025L200.395 121.892C200.727 121.095 201.524 120.364 202.652 119.766C205.772 118.238 210.75 118.238 213.87 119.766C214.998 120.364 215.795 121.095 216.126 121.892L216.193 122.025L216.126 122.158C215.795 122.955 214.998 123.686 213.87 124.284C212.277 125.081 210.219 125.48 208.228 125.48ZM201.192 122.025C201.524 122.623 202.121 123.154 202.984 123.553C205.838 125.015 210.551 125.015 213.471 123.553C214.334 123.088 214.932 122.556 215.264 122.025C214.932 121.427 214.334 120.895 213.471 120.497C210.617 119.035 205.904 119.035 202.984 120.497C202.121 120.895 201.457 121.427 201.192 122.025Z" fill="#171753"/>
<path d="M215.994 126.011H215.396V128.403H215.994V126.011Z" fill="#49CE8B"/>
<path d="M199.134 124.682H198.537V127.074H199.134V124.682Z" fill="#49CE8B"/>
<path d="M209.489 117.44H208.891V118.968H209.489V117.44Z" fill="#49CE8B"/>
<path d="M213.272 127.074H212.675V129.466H213.272V127.074Z" fill="#49CE8B"/>
<path d="M174 140H173V142H174V140Z" fill="#49CE8B"/>
<path d="M185.267 135.239C184.133 133.836 182.933 134.104 179.8 133.435C177.133 132.834 174.333 132.834 171.733 133.569C169.133 134.237 167.533 134.705 166.4 135.907L165 136.642V139.582V139.648C165.067 141.586 166.667 143.456 169.867 144.792C173.067 146.128 176.533 146.329 179.867 145.527C184.6 144.392 186.933 142.053 187 139.648V139.515V136.709L185.267 135.239Z" fill="#171753"/>
<path d="M274.267 145.239C273.133 143.836 271.933 144.104 268.8 143.435C266.133 142.834 263.333 142.834 260.733 143.569C258.133 144.237 256.533 144.705 255.4 145.907L254 146.642V149.582V149.648C254.067 151.586 255.667 153.456 258.867 154.792C262.067 156.128 265.533 156.329 268.867 155.527C273.6 154.392 275.933 152.053 276 149.648V149.515V146.709L274.267 145.239Z" fill="#171753"/>
<path d="M155.267 107.239C154.133 105.836 152.933 106.104 149.8 105.435C147.133 104.834 144.333 104.834 141.733 105.569C139.133 106.237 137.533 106.705 136.4 107.907L135 108.642V111.582V111.648C135.067 113.586 136.667 115.456 139.867 116.792C143.067 118.128 146.533 118.329 149.867 117.527C154.6 116.392 156.933 114.053 157 111.648V111.515V108.709L155.267 107.239Z" fill="#171753"/>
<path d="M176.332 146C174.187 146 172.041 145.618 170.096 144.854C166.878 143.58 165.067 141.734 165 139.633V136.576L166.542 135.812C167.749 134.539 169.56 134.093 172.041 133.52C174.723 132.883 177.606 132.82 180.356 133.393C181.227 133.584 181.965 133.711 182.569 133.775C184.178 134.03 185.117 134.157 186.055 135.239L188 136.64V139.633C187.933 142.307 185.117 144.536 180.49 145.618C179.082 145.809 177.741 146 176.332 146ZM165.805 136.958V139.505C165.872 141.352 167.481 142.944 170.431 144.09C173.449 145.3 176.936 145.491 180.289 144.727C184.446 143.771 187.061 141.734 187.128 139.505V139.378V136.958L185.452 135.685C184.714 134.857 183.977 134.73 182.434 134.475C181.764 134.348 181.093 134.284 180.155 134.093C177.539 133.52 174.79 133.584 172.175 134.221C169.493 134.857 168.017 135.303 167.012 136.322L166.878 136.385L165.805 136.958Z" fill="#171753"/>
<path d="M264.332 156C262.187 156 260.041 155.589 258.096 154.766C254.878 153.394 253.067 151.406 253 149.143V145.852L254.542 145.029C255.749 143.657 257.56 143.177 260.041 142.56C262.723 141.874 265.606 141.806 268.356 142.423C269.227 142.629 269.965 142.766 270.569 142.834C272.178 143.109 273.117 143.246 274.055 144.412L276 145.92V149.143C275.933 152.023 273.117 154.423 268.49 155.589C267.082 155.794 265.741 156 264.332 156ZM253.805 146.263V149.006C253.872 150.994 255.481 152.709 258.431 153.943C261.449 155.246 264.936 155.451 268.289 154.629C272.446 153.6 275.061 151.406 275.128 149.006V148.869V146.263L273.452 144.892C272.714 144 271.977 143.863 270.434 143.589C269.764 143.452 269.093 143.383 268.155 143.177C265.539 142.56 262.79 142.629 260.175 143.314C257.493 144 256.017 144.48 255.012 145.577L254.878 145.646L253.805 146.263Z" fill="#171753"/>
<path d="M145.332 118C143.187 118 141.041 117.589 139.096 116.766C135.878 115.394 134.067 113.406 134 111.143V107.852L135.542 107.029C136.749 105.657 138.56 105.177 141.041 104.56C143.723 103.874 146.606 103.806 149.356 104.423C150.227 104.629 150.965 104.766 151.569 104.834C153.178 105.109 154.117 105.246 155.055 106.412L157 107.92V111.143C156.933 114.023 154.117 116.423 149.49 117.589C148.082 117.794 146.741 118 145.332 118ZM134.805 108.263V111.006C134.872 112.994 136.481 114.709 139.431 115.943C142.449 117.246 145.936 117.451 149.289 116.629C153.446 115.6 156.061 113.406 156.128 111.006V110.869V108.263L154.452 106.892C153.714 106 152.977 105.863 151.434 105.589C150.764 105.452 150.093 105.383 149.155 105.177C146.539 104.56 143.79 104.629 141.175 105.314C138.493 106 137.017 106.48 136.012 107.577L135.878 107.646L134.805 108.263Z" fill="#171753"/>
<path d="M176 143C182.075 143 187 140.09 187 136.5C187 132.91 182.075 130 176 130C169.925 130 165 132.91 165 136.5C165 140.09 169.925 143 176 143Z" fill="white"/>
<path d="M265 153C271.075 153 276 150.09 276 146.5C276 142.91 271.075 140 265 140C258.925 140 254 142.91 254 146.5C254 150.09 258.925 153 265 153Z" fill="white"/>
<path d="M146 115C152.075 115 157 112.09 157 108.5C157 104.91 152.075 102 146 102C139.925 102 135 104.91 135 108.5C135 112.09 139.925 115 146 115Z" fill="white"/>
<path d="M176.5 143C173.608 143 170.649 142.361 168.43 141.147C166.211 139.934 165 138.273 165 136.484C165 134.695 166.211 133.034 168.43 131.821C172.868 129.393 180.132 129.393 184.57 131.821C186.789 133.034 188 134.695 188 136.484C188 138.273 186.789 139.934 184.57 141.147C182.351 142.425 179.392 143 176.5 143ZM176.5 130.799C173.743 130.799 170.985 131.373 168.833 132.523C166.883 133.609 165.807 135.015 165.807 136.484C165.807 137.953 166.883 139.359 168.833 140.445C173.07 142.744 179.93 142.744 184.167 140.445C186.117 139.359 187.193 137.953 187.193 136.484C187.193 135.015 186.117 133.609 184.167 132.523C182.015 131.373 179.257 130.799 176.5 130.799Z" fill="#171753"/>
<path d="M264.5 153C261.608 153 258.649 152.312 256.43 151.005C254.211 149.698 253 147.909 253 145.983C253 144.057 254.211 142.268 256.43 140.961C260.868 138.346 268.132 138.346 272.57 140.961C274.789 142.268 276 144.057 276 145.983C276 147.909 274.789 149.698 272.57 151.005C270.351 152.381 267.392 153 264.5 153ZM264.5 139.86C261.743 139.86 258.985 140.479 256.833 141.717C254.883 142.887 253.807 144.4 253.807 145.983C253.807 147.565 254.883 149.079 256.833 150.248C261.07 152.725 267.93 152.725 272.167 150.248C274.117 149.079 275.193 147.565 275.193 145.983C275.193 144.4 274.117 142.887 272.167 141.717C270.015 140.479 267.257 139.86 264.5 139.86Z" fill="#171753"/>
<path d="M145.5 115C142.608 115 139.649 114.312 137.43 113.005C135.211 111.698 134 109.909 134 107.983C134 106.057 135.211 104.268 137.43 102.961C141.868 100.346 149.132 100.346 153.57 102.961C155.789 104.268 157 106.057 157 107.983C157 109.909 155.789 111.698 153.57 113.005C151.351 114.381 148.392 115 145.5 115ZM145.5 101.86C142.743 101.86 139.985 102.479 137.833 103.717C135.883 104.887 134.807 106.4 134.807 107.983C134.807 109.565 135.883 111.079 137.833 112.248C142.07 114.725 148.93 114.725 153.167 112.248C155.117 111.079 156.193 109.565 156.193 107.983C156.193 106.4 155.117 104.887 153.167 103.717C151.015 102.479 148.257 101.86 145.5 101.86Z" fill="#171753"/>
<path d="M176.5 140C180.642 140 184 138.433 184 136.5C184 134.567 180.642 133 176.5 133C172.358 133 169 134.567 169 136.5C169 138.433 172.358 140 176.5 140Z" fill="#171753"/>
<path d="M264.5 150C268.642 150 272 148.209 272 146C272 143.791 268.642 142 264.5 142C260.358 142 257 143.791 257 146C257 148.209 260.358 150 264.5 150Z" fill="#171753"/>
<path d="M145.5 112C149.642 112 153 110.209 153 108C153 105.791 149.642 104 145.5 104C141.358 104 138 105.791 138 108C138 110.209 141.358 112 145.5 112Z" fill="#171753"/>
<path d="M175.967 141C173.926 141 171.951 140.582 170.436 139.747C168.856 138.911 168 137.727 168 136.474C168 135.221 168.856 134.037 170.436 133.201C173.531 131.6 178.469 131.6 181.564 133.201C183.144 134.037 184 135.221 184 136.474C184 137.727 183.144 138.911 181.564 139.747C179.984 140.582 177.942 141 175.967 141ZM175.967 132.923C174.058 132.923 172.214 133.271 170.765 134.037C169.449 134.733 168.79 135.638 168.79 136.544C168.79 137.449 169.514 138.354 170.765 139.05C173.597 140.582 178.272 140.582 181.169 139.05C182.486 138.354 183.144 137.449 183.144 136.544C183.144 135.638 182.42 134.733 181.169 134.037C179.72 133.271 177.811 132.923 175.967 132.923Z" fill="#171753"/>
<path d="M264.967 150C262.926 150 260.951 149.629 259.436 148.886C257.856 148.143 257 147.091 257 145.977C257 144.863 257.856 143.81 259.436 143.068C262.531 141.644 267.469 141.644 270.564 143.068C272.144 143.81 273 144.863 273 145.977C273 147.091 272.144 148.143 270.564 148.886C268.984 149.629 266.942 150 264.967 150ZM264.967 142.82C263.058 142.82 261.214 143.13 259.765 143.81C258.449 144.429 257.79 145.234 257.79 146.039C257.79 146.843 258.514 147.648 259.765 148.267C262.597 149.629 267.272 149.629 270.169 148.267C271.486 147.648 272.144 146.843 272.144 146.039C272.144 145.234 271.42 144.429 270.169 143.81C268.72 143.13 266.811 142.82 264.967 142.82Z" fill="#171753"/>
<path d="M145.967 112C143.926 112 141.951 111.629 140.436 110.886C138.856 110.143 138 109.091 138 107.977C138 106.863 138.856 105.81 140.436 105.068C143.531 103.644 148.469 103.644 151.564 105.068C153.144 105.81 154 106.863 154 107.977C154 109.091 153.144 110.143 151.564 110.886C149.984 111.629 147.942 112 145.967 112ZM145.967 104.82C144.058 104.82 142.214 105.13 140.765 105.81C139.449 106.429 138.79 107.234 138.79 108.039C138.79 108.843 139.514 109.648 140.765 110.267C143.597 111.629 148.272 111.629 151.169 110.267C152.486 109.648 153.144 108.843 153.144 108.039C153.144 107.234 152.42 106.429 151.169 105.81C149.72 105.13 147.811 104.82 145.967 104.82Z" fill="#171753"/>
<path d="M181.933 135.119C178.933 133.627 174.067 133.627 171.067 135.119C170 135.638 169.267 136.286 169 137C169.333 137.714 170 138.362 171.067 138.881C174.067 140.373 178.933 140.373 181.933 138.881C183 138.362 183.733 137.714 184 137C183.733 136.286 183.067 135.638 181.933 135.119Z" fill="#49CE8B"/>
<path d="M269.933 145.119C266.933 143.627 262.067 143.627 259.067 145.119C258 145.638 257.267 146.286 257 147C257.333 147.714 258 148.362 259.067 148.881C262.067 150.373 266.933 150.373 269.933 148.881C271 148.362 271.733 147.714 272 147C271.733 146.286 271.067 145.638 269.933 145.119Z" fill="#49CE8B"/>
<path d="M150.933 107.119C147.933 105.627 143.067 105.627 140.067 107.119C139 107.638 138.267 108.286 138 109C138.333 109.714 139 110.362 140.067 110.881C143.067 112.373 147.933 112.373 150.933 110.881C152 110.362 152.733 109.714 153 109C152.733 108.286 152.067 107.638 150.933 107.119Z" fill="#49CE8B"/>
<path d="M175.967 141C173.891 141 171.883 140.593 170.343 139.78C169.205 139.169 168.402 138.424 168.067 137.61L168 137.475L168.067 137.339C168.402 136.525 169.205 135.78 170.343 135.169C173.49 133.61 178.51 133.61 181.657 135.169C182.795 135.78 183.598 136.525 183.933 137.339L184 137.475L183.933 137.61C183.598 138.424 182.795 139.169 181.657 139.78C180.05 140.593 177.975 141 175.967 141ZM168.87 137.475C169.205 138.085 169.808 138.627 170.678 139.034C173.556 140.525 178.31 140.525 181.255 139.034C182.126 138.559 182.728 138.017 183.063 137.475C182.728 136.864 182.126 136.322 181.255 135.915C178.377 134.424 173.623 134.424 170.678 135.915C169.808 136.322 169.138 136.864 168.87 137.475Z" fill="#171753"/>
<path d="M264.967 150C262.891 150 260.883 149.651 259.343 148.954C258.205 148.431 257.402 147.792 257.067 147.094L257 146.978L257.067 146.862C257.402 146.165 258.205 145.525 259.343 145.002C262.49 143.666 267.51 143.666 270.657 145.002C271.795 145.525 272.598 146.165 272.933 146.862L273 146.978L272.933 147.094C272.598 147.792 271.795 148.431 270.657 148.954C269.05 149.651 266.975 150 264.967 150ZM257.87 146.978C258.205 147.501 258.808 147.966 259.678 148.315C262.556 149.593 267.31 149.593 270.255 148.315C271.126 147.908 271.728 147.443 272.063 146.978C271.728 146.455 271.126 145.99 270.255 145.642C267.377 144.363 262.623 144.363 259.678 145.642C258.808 145.99 258.138 146.455 257.87 146.978Z" fill="#171753"/>
<path d="M145.967 112C143.891 112 141.883 111.651 140.343 110.954C139.205 110.431 138.402 109.792 138.067 109.094L138 108.978L138.067 108.862C138.402 108.165 139.205 107.525 140.343 107.002C143.49 105.666 148.51 105.666 151.657 107.002C152.795 107.525 153.598 108.165 153.933 108.862L154 108.978L153.933 109.094C153.598 109.792 152.795 110.431 151.657 110.954C150.05 111.651 147.975 112 145.967 112ZM138.87 108.978C139.205 109.501 139.808 109.966 140.678 110.315C143.556 111.593 148.31 111.593 151.255 110.315C152.126 109.908 152.728 109.443 153.063 108.978C152.728 108.455 152.126 107.99 151.255 107.642C148.377 106.363 143.623 106.363 140.678 107.642C139.808 107.99 139.138 108.455 138.87 108.978Z" fill="#171753"/>
<path d="M178 133H177V134H178V133Z" fill="#49CE8B"/>
<path d="M29.6 136.38C28.3467 136.38 27.24 136.173 26.28 135.76C25.3333 135.333 24.5333 134.767 23.88 134.06C23.24 133.34 22.7533 132.533 22.42 131.64C22.1 130.733 21.94 129.793 21.94 128.82V128.38C21.94 127.46 22.1 126.56 22.42 125.68C22.74 124.8 23.2067 124.007 23.82 123.3C24.4467 122.593 25.2133 122.033 26.12 121.62C27.04 121.193 28.0933 120.98 29.28 120.98C30.56 120.98 31.6933 121.22 32.68 121.7C33.6667 122.167 34.46 122.827 35.06 123.68C35.66 124.52 36.0133 125.5 36.12 126.62H33.26C33.1667 125.993 32.9333 125.46 32.56 125.02C32.1867 124.567 31.7133 124.22 31.14 123.98C30.58 123.74 29.96 123.62 29.28 123.62C28.6 123.62 27.98 123.74 27.42 123.98C26.8733 124.22 26.4067 124.56 26.02 125C25.6333 125.44 25.3333 125.967 25.12 126.58C24.92 127.193 24.82 127.873 24.82 128.62C24.82 129.433 24.9333 130.16 25.16 130.8C25.3867 131.44 25.7067 131.987 26.12 132.44C26.5333 132.88 27.0333 133.22 27.62 133.46C28.2067 133.687 28.8667 133.8 29.6 133.8C30.5733 133.8 31.4267 133.6 32.16 133.2C32.8933 132.787 33.4267 132.253 33.76 131.6L33.26 133.9V130.14H35.88V133.38C35.2533 134.327 34.4 135.067 33.32 135.6C32.24 136.12 31 136.38 29.6 136.38ZM29.14 130.7V128.58H37.1V130.7H29.14ZM44.0806 136.38C43.1473 136.38 42.3273 136.22 41.6206 135.9C40.9273 135.58 40.3473 135.153 39.8806 134.62C39.4273 134.073 39.0806 133.467 38.8406 132.8C38.614 132.133 38.5006 131.453 38.5006 130.76V130.38C38.5006 129.66 38.614 128.967 38.8406 128.3C39.0806 127.62 39.4273 127.02 39.8806 126.5C40.3473 125.967 40.9206 125.547 41.6006 125.24C42.2806 124.92 43.0673 124.76 43.9606 124.76C45.134 124.76 46.114 125.02 46.9006 125.54C47.7006 126.047 48.3006 126.72 48.7006 127.56C49.1006 128.387 49.3006 129.28 49.3006 130.24V131.24H39.6806V129.54H47.5606L46.7006 130.38C46.7006 129.687 46.6006 129.093 46.4006 128.6C46.2006 128.107 45.894 127.727 45.4806 127.46C45.0806 127.193 44.574 127.06 43.9606 127.06C43.3473 127.06 42.8273 127.2 42.4006 127.48C41.974 127.76 41.6473 128.167 41.4206 128.7C41.2073 129.22 41.1006 129.847 41.1006 130.58C41.1006 131.26 41.2073 131.867 41.4206 132.4C41.634 132.92 41.9606 133.333 42.4006 133.64C42.8406 133.933 43.4006 134.08 44.0806 134.08C44.7606 134.08 45.314 133.947 45.7406 133.68C46.1673 133.4 46.4406 133.06 46.5606 132.66H49.1206C48.9606 133.407 48.654 134.06 48.2006 134.62C47.7473 135.18 47.1673 135.613 46.4606 135.92C45.7673 136.227 44.974 136.38 44.0806 136.38ZM56.343 136.14C55.343 136.14 54.5163 136.013 53.863 135.76C53.223 135.493 52.743 135.053 52.423 134.44C52.103 133.813 51.943 132.973 51.943 131.92L51.963 122.08H54.563L54.543 132.1C54.543 132.633 54.683 133.047 54.963 133.34C55.2563 133.62 55.6696 133.76 56.203 133.76H57.903V136.14H56.343ZM50.223 127.18V125.14H57.903V127.18H50.223ZM22.8 160V145.4H25.64V160H22.8ZM25.24 153.92V151.52L31.08 151.5V153.9L25.24 153.92ZM25.24 147.8V145.4H31.36V147.8H25.24ZM34.1547 160V149.14H36.9347V160H34.1547ZM32.6347 151.22V149.14H36.9347V151.22H32.6347ZM35.1747 147.84C34.628 147.84 34.2214 147.7 33.9547 147.42C33.7014 147.127 33.5747 146.767 33.5747 146.34C33.5747 145.887 33.7014 145.52 33.9547 145.24C34.2214 144.96 34.628 144.82 35.1747 144.82C35.7214 144.82 36.1214 144.96 36.3747 145.24C36.628 145.52 36.7547 145.887 36.7547 146.34C36.7547 146.767 36.628 147.127 36.3747 147.42C36.1214 147.7 35.7214 147.84 35.1747 147.84ZM40.1386 160V149.14H42.3386V153.8H42.1386C42.1386 152.693 42.2853 151.773 42.5786 151.04C42.8719 150.293 43.3053 149.733 43.8786 149.36C44.4653 148.987 45.1919 148.8 46.0586 148.8H46.1786C47.4719 148.8 48.4519 149.22 49.1186 150.06C49.7853 150.887 50.1186 152.127 50.1186 153.78V160H47.3386V153.54C47.3386 152.873 47.1453 152.333 46.7586 151.92C46.3853 151.507 45.8653 151.3 45.1986 151.3C44.5186 151.3 43.9653 151.513 43.5386 151.94C43.1253 152.353 42.9186 152.913 42.9186 153.62V160H40.1386ZM53.1073 160V149.14H55.3073V153.8H55.1073C55.1073 152.693 55.254 151.773 55.5473 151.04C55.8407 150.293 56.274 149.733 56.8473 149.36C57.434 148.987 58.1607 148.8 59.0273 148.8H59.1473C60.4407 148.8 61.4207 149.22 62.0873 150.06C62.754 150.887 63.0873 152.127 63.0873 153.78V160H60.3073V153.54C60.3073 152.873 60.114 152.333 59.7273 151.92C59.354 151.507 58.834 151.3 58.1673 151.3C57.4873 151.3 56.934 151.513 56.5073 151.94C56.094 152.353 55.8873 152.913 55.8873 153.62V160H53.1073ZM66.5961 160V149.14H69.3761V160H66.5961ZM65.0761 151.22V149.14H69.3761V151.22H65.0761ZM67.6161 147.84C67.0694 147.84 66.6628 147.7 66.3961 147.42C66.1428 147.127 66.0161 146.767 66.0161 146.34C66.0161 145.887 66.1428 145.52 66.3961 145.24C66.6628 144.96 67.0694 144.82 67.6161 144.82C68.1628 144.82 68.5628 144.96 68.8161 145.24C69.0694 145.52 69.1961 145.887 69.1961 146.34C69.1961 146.767 69.0694 147.127 68.8161 147.42C68.5628 147.7 68.1628 147.84 67.6161 147.84ZM77.44 160.38C76.5067 160.38 75.6867 160.22 74.98 159.9C74.2867 159.58 73.7067 159.153 73.24 158.62C72.7867 158.073 72.44 157.467 72.2 156.8C71.9733 156.133 71.86 155.453 71.86 154.76V154.38C71.86 153.66 71.9733 152.967 72.2 152.3C72.44 151.62 72.7867 151.02 73.24 150.5C73.7067 149.967 74.28 149.547 74.96 149.24C75.64 148.92 76.4267 148.76 77.32 148.76C78.4933 148.76 79.4733 149.02 80.26 149.54C81.06 150.047 81.66 150.72 82.06 151.56C82.46 152.387 82.66 153.28 82.66 154.24V155.24H73.04V153.54H80.92L80.06 154.38C80.06 153.687 79.96 153.093 79.76 152.6C79.56 152.107 79.2533 151.727 78.84 151.46C78.44 151.193 77.9333 151.06 77.32 151.06C76.7067 151.06 76.1867 151.2 75.76 151.48C75.3333 151.76 75.0067 152.167 74.78 152.7C74.5667 153.22 74.46 153.847 74.46 154.58C74.46 155.26 74.5667 155.867 74.78 156.4C74.9933 156.92 75.32 157.333 75.76 157.64C76.2 157.933 76.76 158.08 77.44 158.08C78.12 158.08 78.6733 157.947 79.1 157.68C79.5267 157.4 79.8 157.06 79.92 156.66H82.48C82.32 157.407 82.0133 158.06 81.56 158.62C81.1067 159.18 80.5267 159.613 79.82 159.92C79.1267 160.227 78.3333 160.38 77.44 160.38ZM91.9188 160L88.1988 145.4H91.1388L94.1588 158.1L93.3788 157.64H95.3788L94.4988 158.1L96.8788 145.96H99.3188L96.3588 160H91.9188ZM100.639 160L97.4188 145.96H99.9588L102.699 158.1L101.839 157.64H103.799L103.039 158.1L105.699 145.4H108.479L105.159 160H100.639ZM116.855 160V156.78H116.395V153.2C116.395 152.573 116.242 152.107 115.935 151.8C115.629 151.493 115.155 151.34 114.515 151.34C114.182 151.34 113.782 151.347 113.315 151.36C112.849 151.373 112.375 151.393 111.895 151.42C111.429 151.433 111.009 151.453 110.635 151.48V149.12C110.942 149.093 111.289 149.067 111.675 149.04C112.062 149.013 112.455 149 112.855 149C113.269 148.987 113.655 148.98 114.015 148.98C115.135 148.98 116.062 149.127 116.795 149.42C117.542 149.713 118.102 150.173 118.475 150.8C118.862 151.427 119.055 152.247 119.055 153.26V160H116.855ZM113.355 160.28C112.569 160.28 111.875 160.14 111.275 159.86C110.689 159.58 110.229 159.18 109.895 158.66C109.575 158.14 109.415 157.513 109.415 156.78C109.415 155.98 109.609 155.327 109.995 154.82C110.395 154.313 110.949 153.933 111.655 153.68C112.375 153.427 113.215 153.3 114.175 153.3H116.695V154.96H114.135C113.495 154.96 113.002 155.12 112.655 155.44C112.322 155.747 112.155 156.147 112.155 156.64C112.155 157.133 112.322 157.533 112.655 157.84C113.002 158.147 113.495 158.3 114.135 158.3C114.522 158.3 114.875 158.233 115.195 158.1C115.529 157.953 115.802 157.713 116.015 157.38C116.242 157.033 116.369 156.567 116.395 155.98L117.075 156.76C117.009 157.52 116.822 158.16 116.515 158.68C116.222 159.2 115.809 159.6 115.275 159.88C114.755 160.147 114.115 160.28 113.355 160.28ZM122.173 160V145.4H124.953V160H122.173ZM120.813 147.48V145.4H124.953V147.48H120.813ZM128.267 160V145.4H131.047V160H128.267ZM126.907 147.48V145.4H131.047V147.48H126.907ZM139.081 160.38C138.147 160.38 137.327 160.22 136.621 159.9C135.927 159.58 135.347 159.153 134.881 158.62C134.427 158.073 134.081 157.467 133.841 156.8C133.614 156.133 133.501 155.453 133.501 154.76V154.38C133.501 153.66 133.614 152.967 133.841 152.3C134.081 151.62 134.427 151.02 134.881 150.5C135.347 149.967 135.921 149.547 136.601 149.24C137.281 148.92 138.067 148.76 138.961 148.76C140.134 148.76 141.114 149.02 141.901 149.54C142.701 150.047 143.301 150.72 143.701 151.56C144.101 152.387 144.301 153.28 144.301 154.24V155.24H134.681V153.54H142.561L141.701 154.38C141.701 153.687 141.601 153.093 141.401 152.6C141.201 152.107 140.894 151.727 140.481 151.46C140.081 151.193 139.574 151.06 138.961 151.06C138.347 151.06 137.827 151.2 137.401 151.48C136.974 151.76 136.647 152.167 136.421 152.7C136.207 153.22 136.101 153.847 136.101 154.58C136.101 155.26 136.207 155.867 136.421 156.4C136.634 156.92 136.961 157.333 137.401 157.64C137.841 157.933 138.401 158.08 139.081 158.08C139.761 158.08 140.314 157.947 140.741 157.68C141.167 157.4 141.441 157.06 141.561 156.66H144.121C143.961 157.407 143.654 158.06 143.201 158.62C142.747 159.18 142.167 159.613 141.461 159.92C140.767 160.227 139.974 160.38 139.081 160.38ZM151.343 160.14C150.343 160.14 149.516 160.013 148.863 159.76C148.223 159.493 147.743 159.053 147.423 158.44C147.103 157.813 146.943 156.973 146.943 155.92L146.963 146.08H149.563L149.543 156.1C149.543 156.633 149.683 157.047 149.963 157.34C150.256 157.62 150.67 157.76 151.203 157.76H152.903V160.14H151.343ZM145.223 151.18V149.14H152.903V151.18H145.223Z" fill="#171753"/>
<g opacity="0.7">
<path d="M84.6106 26.4682L85.8966 26.4682L85.8966 29.4721L84.6106 29.4721L84.6106 26.4682ZM84.6106 32.5832L85.8966 32.5832L85.8966 35.587L84.6106 35.587L84.6106 32.5832ZM84.6106 38.5909L85.8966 38.5909L85.8966 41.5947L84.6106 41.5947L84.6106 38.5909Z" fill="#171753"/>
<path d="M77.645 33.4414L80.6457 33.4414L80.6457 34.7288L77.645 34.7288L77.645 33.4414ZM83.7535 33.4414L86.7542 33.4414L86.7542 34.7288L83.7535 34.7288L83.7535 33.4414ZM89.8621 33.4414L92.8628 33.4414L92.8628 34.7288L89.8621 34.7288L89.8621 33.4414Z" fill="#171753"/>
<path d="M68 24.0007L71.0007 24.0007L71.0007 25.2881L68 25.2881L68 24.0007ZM74.1086 24.0007L77.1093 24.0007L77.1093 25.2881L74.1086 25.2881L74.1086 24.0007Z" fill="#171753"/>
</g>
<g opacity="0.7">
<path d="M83.1182 99.6446L83.1182 100.933L80.116 100.933L80.116 99.6446L83.1182 99.6446ZM77.0066 99.6446L77.0066 100.933L74.0044 100.933L74.0044 99.6446L77.0066 99.6446ZM71.0022 99.6446L71.0022 100.933L68 100.933L68 99.6446L71.0022 99.6446Z" fill="#171753"/>
<path d="M76.1487 92.6646L76.1487 95.6713L74.8621 95.6713L74.8621 92.6646L76.1487 92.6646ZM76.1487 98.7855L76.1487 101.792L74.8621 101.792L74.8621 98.7855L76.1487 98.7855ZM76.1487 104.906L76.1487 107.913L74.8621 107.913L74.8621 104.906L76.1487 104.906Z" fill="#171753"/>
<path d="M85.5838 83L85.5838 86.0068L84.2971 86.0068L84.2971 83L85.5838 83ZM85.5838 89.1209L85.5838 92.1277L84.2971 92.1277L84.2971 89.1209L85.5838 89.1209Z" fill="#171753"/>
</g>
<g opacity="0.7">
<path d="M164.118 81.6446L164.118 82.9332L161.116 82.9332L161.116 81.6446L164.118 81.6446ZM158.007 81.6446L158.007 82.9332L155.004 82.9332L155.004 81.6446L158.007 81.6446ZM152.002 81.6446L152.002 82.9332L149 82.9332L149 81.6446L152.002 81.6446Z" fill="#171753"/>
<path d="M157.149 74.6646L157.149 77.6713L155.862 77.6713L155.862 74.6646L157.149 74.6646ZM157.149 80.7855L157.149 83.7922L155.862 83.7922L155.862 80.7855L157.149 80.7855ZM157.149 86.9064L157.149 89.9131L155.862 89.9131L155.862 86.9064L157.149 86.9064Z" fill="#171753"/>
<path d="M166.584 65L166.584 68.0068L165.297 68.0068L165.297 65L166.584 65ZM166.584 71.1209L166.584 74.1277L165.297 74.1277L165.297 71.1209L166.584 71.1209Z" fill="#171753"/>
</g>
<g opacity="0.7">
<path d="M22.7609 55.9769L22.7609 57.2629L19.7571 57.2629L19.7571 55.9769L22.7609 55.9769ZM16.6459 55.9769L16.6459 57.2629L13.6421 57.2629L13.6421 55.9769L16.6459 55.9769ZM10.6382 55.9769L10.6382 57.2629L7.6344 57.2629L7.6344 55.9769L10.6382 55.9769Z" fill="#171753"/>
<path d="M15.7877 49.0113L15.7877 52.012L14.5004 52.012L14.5004 49.0113L15.7877 49.0113ZM15.7877 55.1199L15.7877 58.1206L14.5004 58.1206L14.5004 55.1199L15.7877 55.1199ZM15.7877 61.2284L15.7877 64.2291L14.5004 64.2291L14.5004 61.2284L15.7877 61.2284Z" fill="#171753"/>
<path d="M25.2284 39.3664L25.2284 42.3671L23.941 42.3671L23.941 39.3664L25.2284 39.3664ZM25.2284 45.4749L25.2284 48.4756L23.941 48.4756L23.941 45.4749L25.2284 45.4749Z" fill="#171753"/>
</g>
<g opacity="0.7">
<path d="M277.276 92.632L277.276 91.4426L280.047 91.4426L280.047 92.632L277.276 92.632ZM282.917 92.632L282.917 91.4426L285.688 91.4426L285.688 92.632L282.917 92.632ZM288.459 92.632L288.459 91.4426L291.23 91.4426L291.23 92.632L288.459 92.632Z" fill="#171753"/>
<path d="M283.709 99.0746L283.709 96.2993L284.896 96.2993L284.896 99.0746L283.709 99.0746ZM283.709 93.4249L283.709 90.6497L284.896 90.6497L284.896 93.4249L283.709 93.4249ZM283.709 87.7753L283.709 85L284.896 85L284.896 87.7753L283.709 87.7753Z" fill="#171753"/>
<path d="M275 107.995L275 105.22L276.188 105.22L276.188 107.995L275 107.995ZM275 102.345L275 99.5702L276.188 99.5702L276.188 102.345L275 102.345Z" fill="#171753"/>
</g>
<path d="M141.237 66.5624L133.776 61.7268L141.237 61.4505L142.066 62.2795L142.757 64.7663L141.237 66.5624Z" fill="#171753"/>
<path d="M141.374 67.3913L141.789 66.9768L143.585 65.0426L143.447 64.6281L142.756 61.8649L142.618 61.7268L141.513 60.7596H141.236L133.361 61.036L133.085 62.0031L133.499 62.2794L141.374 67.3913ZM142.203 64.7663L141.236 65.8715L135.848 62.4176L141.098 62.1412L141.651 62.6939L142.203 64.7663Z" fill="#171753"/>
<path d="M128.802 24.7001L151.875 11.2987C153.256 10.4697 154.362 10.4697 155.329 10.8842L162.928 15.5816C162.928 15.5816 162.928 15.5816 162.928 15.7198C162.651 16.4106 159.474 23.0422 159.197 24.1475C159.059 24.7001 158.092 29.6739 156.987 35.4766V38.3779C156.987 40.0358 156.434 41.8319 155.467 43.4898C154.224 49.5688 153.256 54.8189 153.256 54.957L142.618 58.5492H141.927C141.927 58.5492 141.927 58.5492 141.927 58.411L142.48 56.7531C142.618 55.9241 142.756 55.0952 142.756 54.2662L132.809 65.319H132.671L125.348 60.7597C125.348 60.7597 125.21 60.7597 125.21 60.6216C124.381 60.0689 123.829 58.9636 123.829 57.4439V33.4042C123.69 30.2265 126.039 26.358 128.802 24.7001Z" fill="#49CE8B"/>
<path d="M132.533 66.1479C132.671 66.1479 132.947 66.0098 133.086 65.8716L141.79 56.2005C141.79 56.3386 141.79 56.615 141.651 56.7531L141.099 58.2729C140.961 58.5492 141.099 58.9637 141.375 59.1018L141.513 59.24H142.48L153.533 55.5097L153.671 55.2334L153.809 54.4044L155.882 43.7661C156.849 41.9701 157.54 40.174 157.54 38.5161V35.6147C158.921 28.7068 159.612 24.7002 159.75 24.2857C159.888 23.4567 161.823 19.4501 163.481 15.9961C163.619 15.7198 163.481 15.3053 163.204 15.029L155.606 10.3316C154.362 9.77895 152.98 9.9171 151.599 10.7461L128.388 24.1475C125.487 25.8054 123 30.0884 123 33.4042V57.5821C123 59.24 123.553 60.6216 124.658 61.3124C124.658 61.3124 124.796 61.3124 124.796 61.4505L132.118 66.0098C132.257 66.0098 132.395 66.1479 132.533 66.1479ZM143.309 52.4702L132.395 64.6282L125.487 60.3453L125.072 60.8979L125.349 60.3453C124.658 59.9308 124.243 58.9637 124.243 57.7202V33.4042C124.243 30.5028 126.454 26.6344 128.941 25.2528L152.152 11.8513C153.257 11.2987 154.224 11.1605 154.915 11.4369L161.961 15.858C161.132 17.654 158.645 22.9041 158.369 24.0093C158.231 24.562 157.125 30.5028 156.158 35.4766V35.6147V38.5161C156.158 40.0358 155.606 41.6937 154.638 43.2135V43.3517L152.428 54.5426L142.48 57.8584L142.757 56.8913C142.895 56.0623 143.033 55.0952 143.033 54.2662L143.309 52.4702Z" fill="#171753"/>
<path d="M128.801 24.7002L150.769 11.9896L161.683 18.8975L138.196 31.3319L133.361 32.0227L125.9 27.6016C126.591 26.3581 127.696 25.391 128.801 24.7002Z" fill="#9BE7C4"/>
<path d="M133.223 32.7135L138.473 31.8845L162.928 18.8975L150.77 11.2988L128.526 24.1476C127.421 24.8384 126.177 25.9437 125.348 27.1871L124.934 27.7397L133.223 32.7135ZM137.921 30.6411L133.362 31.3319L126.73 27.3252C127.421 26.3581 128.25 25.6673 129.079 25.1147L150.77 12.6804L160.441 18.7594L137.921 30.6411Z" fill="#171753"/>
<path d="M124.055 33.648L131.51 38.1411L130.868 39.2061L123.413 34.713L124.055 33.648Z" fill="#171753"/>
<path d="M124.234 51.0215L131.689 55.5136L131.047 56.5786L123.592 52.0864L124.234 51.0215Z" fill="#171753"/>
<path d="M159.335 15.996L136.125 29.2593C133.361 30.9172 131.151 34.7857 131.151 37.9634V62.2794C131.151 65.4571 133.361 66.7005 136.125 65.1808L138.75 63.661C139.164 63.3847 139.578 63.5228 139.717 64.0755C139.993 65.5952 141.098 68.2203 144.829 66.5624C145.519 66.286 146.21 65.1808 145.934 64.49C145.658 63.661 145.381 62.4176 145.381 61.036C145.381 60.3452 145.796 59.6544 146.348 59.2399L159.197 51.7793C161.96 50.1214 164.171 46.2529 164.171 43.0753V18.7592C164.309 15.5816 162.098 14.3381 159.335 15.996Z" fill="#49CE8B"/>
<path d="M142.756 67.6677C143.447 67.6677 144.276 67.5295 145.105 67.1151C146.21 66.7006 146.901 65.1808 146.625 64.2137C146.349 63.5229 146.072 62.2795 146.072 60.8979C146.072 60.4834 146.349 59.9308 146.763 59.7926L159.612 52.332C162.651 50.6741 165 46.5293 165 43.0753V18.7593C165 16.9632 164.309 15.5816 163.204 15.029C162.099 14.3382 160.579 14.4763 159.059 15.4435L135.849 28.8449C132.809 30.5028 130.46 34.6476 130.46 38.1016V62.4176C130.46 64.2137 131.151 65.5953 132.256 66.1479C133.362 66.8387 134.881 66.7006 136.401 65.7335L139.026 64.2137C139.302 65.319 139.717 66.7006 140.96 67.2532C141.651 67.5295 142.204 67.6677 142.756 67.6677ZM161.546 15.8579C161.961 15.8579 162.237 15.9961 162.513 16.1343C163.204 16.5487 163.619 17.5158 163.619 18.7593V43.0753C163.619 46.1148 161.546 49.707 158.921 51.2267L146.072 58.6873C145.381 59.1018 144.691 60.0689 144.691 61.036C144.691 62.5558 144.967 63.9374 145.243 64.6282C145.381 65.0427 144.967 65.7335 144.553 66.0098C143.309 66.5624 142.342 66.5624 141.651 66.1479C140.822 65.7335 140.408 64.49 140.27 63.9374C140.131 63.5229 139.993 63.2466 139.579 62.9703C139.164 62.8321 138.75 62.8321 138.335 63.1084L135.71 64.6282C134.605 65.319 133.5 65.4571 132.809 65.0427C132.118 64.6282 131.704 63.6611 131.704 62.4176V37.9634C131.704 34.9239 133.776 31.3318 136.401 29.812L159.612 16.4106C160.441 16.1342 160.994 15.8579 161.546 15.8579Z" fill="#171753"/>
<path d="M123.69 55.0952L131.151 59.6544V62.8321L131.565 64.9045L125.072 60.8979L123.828 59.2399L123.69 57.4439V55.0952Z" fill="#171753"/>
<path d="M153.856 36.5001C154.07 35.4288 154.82 34.304 155.516 33.9827C156.212 33.6613 156.587 34.304 156.319 35.3217C156.105 36.393 155.355 37.5178 154.659 37.8391C154.016 38.2141 153.642 37.5713 153.856 36.5001Z" fill="#171753"/>
<path d="M160.121 37.57C159.96 38.1592 159.799 38.7484 159.585 39.3376C158.835 41.4265 157.765 43.569 156.372 45.1759C154.445 47.4255 152.517 48.0682 150.964 48.0682C149.144 50.4785 149.144 50.4785 149.144 50.4785C148.716 51.0141 148.394 50.7463 148.716 50.05C148.287 50.4249 148.234 49.8893 148.501 49.3537C148.073 49.9429 147.912 49.4073 148.18 48.8181C148.394 48.4431 148.662 48.0147 148.823 47.6933C147.002 47.1041 145.396 45.9257 143.682 44.7474C144.7 45.2294 148.769 46.1935 149.733 46.3007C150.697 46.4078 151.661 46.5149 152.731 46.3007C153.588 46.0864 154.713 45.6044 155.73 44.3724C156.64 43.3012 157.229 41.6943 157.604 40.4088C158.461 37.5165 158.514 34.7313 158.139 32.7495C157.711 30.6605 156.587 29.0537 154.82 29.0537C154.177 29.0537 153.427 29.3215 152.678 29.8035C150.964 30.8748 149.09 33.0708 147.484 35.4811C145.128 39.0698 143.147 43.1941 141.273 47.2648C139.988 50.05 137.686 56.3703 135.276 55.674C134.152 55.3527 133.67 53.9065 133.456 52.4067C133.188 50.7463 133.241 48.336 134.098 45.9793C135.919 40.998 139.827 42.8191 141.112 43.5154C141.005 43.5154 137.846 42.9798 136.079 45.4437C135.276 46.5685 135.008 48.0682 134.901 49.1395C134.687 51.0141 134.901 53.478 136.079 53.7994C137.578 54.1743 139.292 49.568 140.041 47.9075C141.273 45.1223 142.451 42.3371 143.736 39.5518C145.128 36.5524 146.681 33.4993 148.501 30.8748C148.287 30.4999 148.02 30.0178 148.127 29.3751C148.234 28.6252 148.93 27.6075 149.358 27.8218C148.93 27.0183 150.108 25.1972 150.75 25.465C150.59 24.7152 151.393 23.4297 151.928 23.269C152.25 23.1619 152.517 23.4832 152.678 23.6439C153.213 24.0724 153.695 24.5545 154.231 24.9294C160.281 21.3943 162.262 29.6429 160.121 37.57Z" fill="#171753"/>
</g>
<defs>
<clipPath id="clip0_2330_516">
<rect width="300" height="180" fill="white"/>
</clipPath>
</defs>
</svg>
