<svg width="180" height="250" viewBox="0 0 180 250" fill="none" xmlns="http://www.w3.org/2000/svg">
<g clip-path="url(#clip0_2520_1186)">
<rect width="250" height="180" transform="translate(180) rotate(90)" fill="#5ED9D1"/>
<path d="M77.7075 150C102.63 150 116.257 130.374 116.257 113.365C116.257 112.805 116.257 112.244 116.229 111.71C118.87 109.894 121.174 107.625 123 105.035C120.584 106.049 117.971 106.743 115.217 107.064C118.027 105.462 120.162 102.952 121.174 99.9346C118.561 101.403 115.667 102.471 112.576 103.059C110.103 100.549 106.591 99 102.686 99C95.212 99 89.143 104.768 89.143 111.87C89.143 112.885 89.2554 113.873 89.5083 114.807C78.2414 114.273 68.2669 109.147 61.5798 101.35C60.4278 103.246 59.7535 105.462 59.7535 107.812C59.7535 112.271 62.1418 116.223 65.7944 118.519C63.5747 118.465 61.4955 117.878 59.6692 116.917C59.6692 116.97 59.6692 117.024 59.6692 117.077C59.6692 123.325 64.3333 128.505 70.5428 129.707C69.4189 130.001 68.2107 130.161 66.9745 130.161C66.1034 130.161 65.2605 130.081 64.4176 129.92C66.1315 135.047 71.1328 138.759 77.0613 138.865C72.4253 142.31 66.5811 144.366 60.2312 144.366C59.1354 144.366 58.0677 144.313 57 144.179C62.9285 147.864 70.0651 150 77.7075 150Z" fill="white"/>
<path d="M137.2 125C137.2 151.628 115.836 173.2 89.5 173.2C63.1637 173.2 41.8 151.628 41.8 125C41.8 98.3721 63.1637 76.8 89.5 76.8C115.836 76.8 137.2 98.3721 137.2 125Z" stroke="white" stroke-width="1.6"/>
<g opacity="0.7">
<path d="M130.127 28.6106L130.127 29.8966L127.123 29.8966L127.123 28.6106L130.127 28.6106ZM124.012 28.6106L124.012 29.8966L121.008 29.8966L121.008 28.6106L124.012 28.6106ZM118.004 28.6106L118.004 29.8966L115 29.8966L115 28.6106L118.004 28.6106Z" fill="#171753"/>
<path d="M123.153 21.6449L123.153 24.6456L121.866 24.6456L121.866 21.6449L123.153 21.6449ZM123.153 27.7535L123.153 30.7542L121.866 30.7542L121.866 27.7535L123.153 27.7535ZM123.153 33.862L123.153 36.8627L121.866 36.8627L121.866 33.862L123.153 33.862Z" fill="#171753"/>
<path d="M132.594 12L132.594 15.0007L131.307 15.0007L131.307 12L132.594 12ZM132.594 18.1086L132.594 21.1093L131.307 21.1093L131.307 18.1086L132.594 18.1086Z" fill="#171753"/>
</g>
<g opacity="0.7">
<path d="M164.118 72.6446L164.118 73.9332L161.116 73.9332L161.116 72.6446L164.118 72.6446ZM158.007 72.6446L158.007 73.9332L155.004 73.9332L155.004 72.6446L158.007 72.6446ZM152.002 72.6446L152.002 73.9332L149 73.9332L149 72.6446L152.002 72.6446Z" fill="#171753"/>
<path d="M157.149 65.6646L157.149 68.6714L155.862 68.6714L155.862 65.6646L157.149 65.6646ZM157.149 71.7855L157.149 74.7923L155.862 74.7923L155.862 71.7855L157.149 71.7855ZM157.149 77.9064L157.149 80.9132L155.862 80.9132L155.862 77.9064L157.149 77.9064Z" fill="#171753"/>
<path d="M166.584 56L166.584 59.0068L165.297 59.0068L165.297 56L166.584 56ZM166.584 62.1209L166.584 65.1277L165.297 65.1277L165.297 62.1209L166.584 62.1209Z" fill="#171753"/>
</g>
<g opacity="0.7">
<path d="M23.6106 158.467L24.8966 158.467L24.8966 161.471L23.6106 161.471L23.6106 158.467ZM23.6106 164.582L24.8966 164.582L24.8966 167.586L23.6106 167.586L23.6106 164.582ZM23.6106 170.59L24.8966 170.59L24.8966 173.594L23.6106 173.594L23.6106 170.59Z" fill="#171753"/>
<path d="M16.645 165.441L19.6457 165.441L19.6457 166.728L16.645 166.728L16.645 165.441ZM22.7535 165.441L25.7542 165.441L25.7542 166.728L22.7535 166.728L22.7535 165.441ZM28.8621 165.441L31.8628 165.441L31.8628 166.728L28.8621 166.728L28.8621 165.441Z" fill="#171753"/>
<path d="M6.99998 156L10.0007 156L10.0007 157.287L6.99998 157.287L6.99998 156ZM13.1086 156L16.1093 156L16.1093 157.287L13.1086 157.287L13.1086 156Z" fill="#171753"/>
</g>
<g opacity="0.7">
<path d="M19.2757 36.632L19.2757 35.4426L22.0468 35.4426L22.0468 36.632L19.2757 36.632ZM24.9168 36.632L24.9168 35.4426L27.6878 35.4426L27.6878 36.632L24.9168 36.632ZM30.4589 36.632L30.4589 35.4426L33.23 35.4426L33.23 36.632L30.4589 36.632Z" fill="#171753"/>
<path d="M25.7086 43.0746L25.7086 40.2993L26.8962 40.2993L26.8962 43.0746L25.7086 43.0746ZM25.7086 37.4249L25.7086 34.6497L26.8962 34.6497L26.8962 37.4249L25.7086 37.4249ZM25.7086 31.7753L25.7086 29L26.8962 29L26.8962 31.7753L25.7086 31.7753Z" fill="#171753"/>
<path d="M17 51.9951L17 49.2198L18.1876 49.2198L18.1876 51.9951L17 51.9951ZM17 46.3454L17 43.5702L18.1876 43.5702L18.1876 46.3454L17 46.3454Z" fill="#171753"/>
</g>
<path d="M117.96 149.981C118.205 149.84 118.449 149.698 118.741 149.639C119.114 149.532 119.548 149.718 119.784 150.126L121.199 152.578C121.34 152.823 121.598 152.892 121.842 152.751C122.087 152.61 122.156 152.352 122.014 152.107L120.646 149.737L120.316 149.165C119.42 147.613 119.806 145.646 121.227 144.717C121.553 144.529 121.879 144.341 122.3 144.316C122.673 144.209 123.025 144.442 123.214 144.769L126.044 149.671C126.186 149.916 126.443 149.986 126.688 149.844C126.932 149.703 127.001 149.446 126.86 149.2L123.227 142.909C122.46 141.391 122.893 139.506 124.151 138.671C124.477 138.483 124.803 138.295 125.224 138.27C125.597 138.163 125.949 138.396 126.138 138.723L130.855 146.894C130.997 147.139 131.254 147.208 131.499 147.067C131.743 146.926 131.812 146.668 131.67 146.423L126.151 136.863L126.104 136.781L122.755 130.98C121.858 129.428 122.245 127.461 123.666 126.532C124.352 126.027 125.275 125.93 126.129 126.09C126.983 126.251 127.733 126.798 128.158 127.534L136.838 142.568L141.838 151.229C141.98 151.474 142.237 151.543 142.482 151.402C142.727 151.261 142.795 151.003 142.654 150.758L137.559 141.934C137.37 141.607 137.426 141.139 137.658 140.787C137.937 140.517 138.134 140.294 138.508 140.187C140.023 139.422 141.872 139.988 142.815 141.622L147.91 150.447C149.514 153.225 150.08 156.276 149.735 159.634C149.15 163.894 146.506 167.599 142.592 169.859C141.777 170.33 140.914 170.719 140.004 171.026C135.245 172.576 130.182 171.904 126.463 169.039C125.266 168.096 124.185 166.977 123.349 165.717L116.663 154.325C115.895 152.807 116.411 150.875 117.96 149.981ZM137.631 144.507C137.584 144.425 137.584 144.425 137.631 144.507V144.507ZM128.493 139.978C128.446 139.896 128.364 139.943 128.493 139.978V139.978ZM125.487 146.071C125.44 145.989 125.359 146.036 125.487 146.071V146.071ZM122.01 151.347C121.963 151.265 121.881 151.312 122.01 151.347V151.347Z" fill="white"/>
<path d="M33.0207 60.614C35.574 56.3065 38.5304 58.5949 39.068 58.9987C39.068 58.9987 39.2023 58.9987 39.2023 58.8641C39.7399 57.7872 42.5619 52.2682 45.2496 53.4797L49.5498 55.9026V56.0373L46.459 61.2871L42.4275 72.4597L43.5026 72.8636V75.1519C43.5026 75.2866 43.3682 75.2866 43.3682 75.2866L39.068 72.8636L33.6926 68.556C33.6926 68.556 29.7955 65.9984 33.0207 60.614Z" fill="white"/>
<path d="M43.3681 75.825C43.5025 75.825 43.6369 75.825 43.6369 75.6904C43.7713 75.5558 43.9057 75.4212 43.9057 75.152V72.4598L42.965 72.1905L46.8621 61.5563L49.9529 56.1719V55.9027C49.9529 55.7681 49.8185 55.6334 49.6841 55.4988L45.3839 53.0758C44.4432 52.5374 42.8306 52.5374 40.9492 54.9604C40.0086 56.0373 39.3366 57.3834 38.9335 58.191C38.2616 57.7872 37.3209 57.2488 36.1115 57.518C34.7676 57.7872 33.5582 58.7295 32.6175 60.3448C29.1236 66.1331 33.4238 68.9599 33.4238 68.9599L38.7991 73.2674L43.0994 75.6904C43.2337 75.6904 43.3681 75.825 43.3681 75.825ZM42.965 73.2674V74.3443L39.3366 72.3251L34.0957 68.1522C33.9613 68.0176 30.6018 65.8638 33.5582 60.8833C34.3645 59.5372 35.3052 58.7295 36.2458 58.5949C37.4553 58.4603 38.396 59.1333 38.6647 59.4025L38.9335 59.5372H39.2023C39.471 59.5372 39.6054 59.4025 39.7398 59.1333C40.0086 58.5949 40.8149 56.9796 41.8899 55.6334C42.6962 54.5566 43.9057 53.4797 44.9807 54.0181L48.8778 56.3065L46.0558 61.2871L41.7555 73.1328L42.965 73.2674Z" fill="#171753"/>
<path d="M37.3216 63.5755C37.3216 63.5755 39.203 63.4409 39.6061 63.5755C40.0092 63.7101 44.0407 65.4601 44.0407 65.4601L44.7126 66.9408L42.5625 72.729L43.6376 72.9983V75.2866C43.6376 75.4212 43.5032 75.4212 43.5032 75.4212L39.203 72.9983L33.8276 68.6907C33.8276 68.6907 30.0649 66.4023 32.887 61.2871L37.3216 63.5755Z" fill="#BEF0ED"/>
<path d="M43.5033 75.8252C43.6376 75.8252 43.772 75.8252 43.772 75.6906C43.9064 75.556 44.0408 75.4213 44.0408 75.1521V72.4599L43.1001 72.1907L45.1158 66.6717L44.3095 64.7871L44.0408 64.6525C42.4282 63.9794 39.7405 62.9026 39.4718 62.768C39.203 62.768 37.8592 62.768 37.1873 62.768L32.3495 60.2104L32.0807 60.7488C29.1243 66.2678 33.1558 68.8254 33.2902 68.96L38.6655 73.2676L42.9657 75.6906C43.3689 75.6906 43.3689 75.8252 43.5033 75.8252ZM43.1001 73.2676V74.3445L39.4718 72.3253L34.2308 68.1524C34.0965 68.0178 31.14 66.1332 33.1558 61.9603L37.1873 64.1141H37.3216C38.2623 64.1141 39.3374 63.9795 39.4718 64.1141C39.7405 64.2487 42.025 65.0563 43.6376 65.864L44.0408 66.9409L41.7563 73.133L43.1001 73.2676Z" fill="#171753"/>
<path d="M42.6966 61.0175L39.2026 59.133V58.9984C39.4714 58.4599 40.2777 56.8446 41.3528 55.4985L45.653 58.0561L46.9968 60.6137L46.4593 61.4214L45.7874 63.1713L44.3092 64.3828L42.6966 61.0175Z" fill="#BEF0ED"/>
<path d="M44.1751 65.1906L46.3252 63.5752L46.9972 61.6907L47.6691 60.6138L46.1909 57.6524L41.2187 54.8256L40.9499 55.2294C39.8749 56.7101 38.9342 58.3254 38.6654 58.8639C38.531 58.9985 38.6654 59.2677 38.6654 59.4023V59.6715L42.1594 61.5561L44.1751 65.1906ZM45.5189 62.7676L44.7127 63.4406L43.2344 60.6138L40.0093 58.8639C40.278 58.3254 40.9499 57.2486 41.6218 56.1717L45.3846 58.3254L46.4596 60.4792L46.0565 61.1523L45.5189 62.7676Z" fill="#171753"/>
<path d="M37.4557 63.0366C40.0089 58.7291 42.9654 61.0175 43.5029 61.4213C43.5029 61.4213 43.6373 61.4213 43.6373 61.2867C44.1748 60.2098 46.9968 54.6908 49.6845 55.9023C52.9097 57.5176 49.0126 64.6519 49.0126 64.6519L43.7716 75.1516C43.7716 75.2862 43.6373 75.2862 43.6373 75.2862L38.262 70.9787C38.1276 70.9787 34.2305 68.5557 37.4557 63.0366Z" fill="#BEF0ED"/>
<path d="M43.3688 75.8249H43.6376C43.7719 75.8249 44.0407 75.6902 44.1751 75.421L49.416 64.9214C49.5504 64.7868 52.1037 59.9408 51.2974 57.114C51.0286 56.3063 50.6255 55.7679 49.8192 55.3641C47.1315 54.018 44.3095 58.4601 43.2344 60.4793C42.5625 60.0754 41.6218 59.537 40.4124 59.8062C39.0686 59.9408 37.8591 61.0177 36.9184 62.633C33.4245 68.4213 37.7247 71.2481 37.7247 71.2481L43.3688 75.8249ZM48.8785 56.4409C49.0129 56.4409 49.2816 56.4409 49.416 56.5755C49.8192 56.8448 50.0879 57.114 50.2223 57.6524C50.8942 59.6716 49.1473 63.3061 48.4753 64.5176L43.3688 74.4788L38.531 70.575C38.3966 70.4404 35.0371 68.2867 37.9935 63.3061C38.7998 61.96 39.7405 61.1523 40.6811 61.0177C41.8906 60.8831 42.8313 61.5561 43.1 61.8254L43.3688 61.96H43.6376C43.9063 61.96 44.0407 61.8254 44.1751 61.5561C45.1158 59.537 47.1315 56.4409 48.8785 56.4409Z" fill="#171753"/>
<path d="M44.5781 59.6718L40.2779 57.2488L39.3372 59.1333L43.6374 61.4217L44.5781 59.6718Z" fill="#171753"/>
<path d="M37.1871 70.5752L35.037 69.6329L32.6181 67.7484L31.9462 65.7292L31.8118 63.7101L32.0806 62.9024L36.1121 65.1908L35.9777 66.6715L36.5152 68.556L37.1871 70.5752Z" fill="#171753"/>
<path d="M79.7011 53.0054C82.2544 48.6979 85.2108 50.9862 85.7484 51.3901C85.7484 51.3901 85.8828 51.3901 85.8828 51.2555C86.4203 50.1786 89.2423 44.6596 91.93 45.871L96.2302 48.294V48.4286L93.1394 53.6785L89.1079 64.8511L90.183 65.1204V67.4087C90.183 67.5433 90.0486 67.5433 90.0486 67.5433L85.7484 65.1204L80.3731 60.8128C80.3731 60.9474 76.3416 58.3898 79.7011 53.0054Z" fill="white"/>
<path d="M90.0485 68.082C90.1829 68.082 90.3173 68.082 90.3173 67.9474C90.4517 67.8128 90.5861 67.6782 90.5861 67.409V64.7168L89.6454 64.4476L93.5425 53.8133L96.6333 48.4289V48.1597C96.6333 48.0251 96.4989 47.8905 96.3645 47.7559L92.0643 45.3329C89.2423 43.9868 86.5546 48.4289 85.4795 50.4481C84.8076 50.0442 83.8669 49.5058 82.6575 49.775C81.3137 49.9096 80.1042 50.9865 79.1635 52.6018C75.6696 58.3901 79.9698 61.2169 79.9698 61.2169L85.3452 65.5244L89.6454 67.9474C89.7798 68.082 89.9142 68.082 90.0485 68.082ZM89.6454 65.6591V66.7359L86.0171 64.7168L80.6418 60.4093C80.5074 60.2746 77.1478 58.1209 80.1042 53.1403C80.9105 51.7942 81.8512 50.9865 82.7919 50.8519C84.0013 50.7173 84.942 51.3904 85.2108 51.6596L85.4795 51.7942H85.7483C86.0171 51.7942 86.1514 51.6596 86.2858 51.3903C87.3609 49.102 89.7798 45.4675 91.5268 46.2752L95.4239 48.4289L92.6018 53.4095L88.3016 65.1206L89.6454 65.6591Z" fill="#171753"/>
<path d="M83.8677 55.8326C83.8677 55.8326 85.7491 55.698 86.1522 55.8326C86.5554 55.8326 90.5869 57.7172 90.5869 57.7172L91.2588 59.1979L89.1087 64.9861L90.1837 65.2554V67.5437C90.1837 67.6783 90.0493 67.6784 90.0493 67.6784L85.7491 65.2554L80.3738 60.9478C80.3738 60.9478 76.6111 58.6594 79.4331 53.5443L83.8677 55.8326Z" fill="#BEF0ED"/>
<path d="M90.1832 68.0819C90.3176 68.0819 90.4519 68.0819 90.4519 67.9473C90.5863 67.8127 90.7207 67.6781 90.7207 67.4089V64.7167L89.78 64.4474L91.7958 58.9284L90.9895 57.0439L90.7207 56.9093C89.1081 56.2362 86.4205 55.1593 86.1517 55.0247C85.8829 55.0247 84.5391 55.0247 83.8672 55.0247L79.0294 52.4671L78.7607 53.0055C75.8042 58.5246 79.8357 61.0822 79.9701 61.2168L85.3454 65.5243L89.6457 67.9473C89.9144 68.0819 90.0488 68.0819 90.1832 68.0819ZM89.78 65.6589V66.7358L86.1517 64.7167L80.7764 60.4091C80.642 60.2745 77.6856 58.39 79.7013 54.217L83.7328 56.3708H83.8672C84.8079 56.3708 85.8829 56.2362 86.0173 56.3708C86.2861 56.5054 88.5706 57.3131 90.1832 58.1207L90.5863 59.1976L88.3018 65.3897L89.78 65.6589Z" fill="#171753"/>
<path d="M89.3769 53.4093L85.8829 51.5247V51.3901C86.1517 50.8517 86.958 49.2364 88.0331 47.8903L92.3333 50.4479L93.6771 53.0055L93.1396 53.8131L92.4677 55.5631L90.9895 56.7745L89.3769 53.4093Z" fill="#BEF0ED"/>
<path d="M90.8547 57.4476L93.0048 55.8323L93.6767 53.9477L94.3486 52.8708L92.8704 49.9094L87.8983 47.0826L87.6295 47.4864C86.5544 48.8325 85.7481 50.4478 85.345 51.1209C85.2106 51.3901 85.345 51.5247 85.345 51.6593V51.9286L88.8389 53.8131L90.8547 57.4476ZM92.0641 55.1592L91.2578 55.8323L89.7796 53.0054L86.5544 51.1209C86.8232 50.5825 87.4951 49.5056 88.167 48.4287L91.9297 50.5825L93.0048 52.7362L92.6017 53.4093L92.0641 55.1592Z" fill="#171753"/>
<path d="M84.0014 55.4286C86.5547 51.121 89.5111 53.4094 90.0487 53.8132C90.0487 53.8132 90.183 53.8132 90.183 53.6786C90.7206 52.6017 93.5426 47.0827 96.2303 48.2942C99.4554 49.9095 95.5583 57.0439 95.5583 57.0439L90.3174 67.5435C90.3174 67.6781 90.183 67.6781 90.183 67.6781L84.8077 63.3706C84.8077 63.3706 80.7763 60.813 84.0014 55.4286Z" fill="#BEF0ED"/>
<path d="M89.9143 68.2165H90.1831C90.3175 68.2165 90.5862 68.0819 90.7206 67.8127L95.9616 57.3131C96.0959 57.1785 98.6492 52.3325 97.8429 49.5057C97.5741 48.698 97.171 48.1596 96.3647 47.7557C93.677 46.4096 90.855 50.8518 89.7799 52.8709C89.108 52.4671 88.1674 51.9287 86.9579 52.1979C85.6141 52.3325 84.4046 53.4094 83.464 55.0247C79.97 60.8129 84.2703 63.6398 84.2703 63.6398L89.9143 68.2165ZM95.424 48.698C95.5584 48.698 95.8272 48.698 95.9616 48.8326C96.3647 49.1018 96.6335 49.371 96.7679 49.9095C97.4398 51.9286 95.6928 55.5631 95.0209 56.7746L89.9143 66.7358L85.0766 62.8321C84.9422 62.6975 81.5826 60.5437 84.539 55.5631C85.3453 54.217 86.286 53.4094 87.2267 53.2748C88.4361 53.1401 89.3768 53.8132 89.6456 54.0824L89.9143 54.217H90.1831C90.4519 54.217 90.5862 54.0824 90.7206 53.8132C91.7957 51.9287 93.8114 48.698 95.424 48.698Z" fill="#171753"/>
<path d="M91.2584 51.9288L86.8238 49.5058L85.8831 51.3903L90.1834 53.8133L91.2584 51.9288Z" fill="#171753"/>
<path d="M83.8676 62.8322L81.7174 62.0245L79.2985 60.14L78.4922 58.1208V55.9671L78.761 55.294L82.7925 57.4478L82.5237 59.0631L83.0613 60.9477L83.8676 62.8322Z" fill="#171753"/>
<path d="M39.7236 45.8281C42.2769 41.5205 45.2333 43.8089 45.7708 44.2127C45.7708 44.2127 45.9052 44.2127 45.9052 44.0781C46.4427 43.0012 49.2648 37.4822 51.9524 38.6937L56.2527 41.1167V41.2513L53.1619 46.5011L49.1304 57.6738L50.2055 57.943V60.2314C50.2055 60.366 50.0711 60.366 50.0711 60.366L45.7708 57.943L40.3955 53.6355C40.3955 53.7701 36.364 51.3471 39.7236 45.8281Z" fill="white"/>
<path d="M50.0711 61.0389C50.2055 61.0389 50.3399 61.0389 50.3399 60.9043C50.4743 60.7697 50.6087 60.6351 50.6087 60.3659V57.6737L49.668 57.4045L53.5651 46.7702L56.6559 41.3858V41.1166C56.6559 40.982 56.5215 40.8474 56.3871 40.7128L52.0869 38.2898C51.1462 37.7513 49.5336 37.7513 47.6522 40.1743C46.7116 41.2512 46.0396 42.5973 45.6365 43.405C44.9646 43.0011 44.0239 42.4627 42.8145 42.7319C41.4706 42.8665 40.2612 43.9434 39.3205 45.5587C35.8266 51.347 40.1268 54.1738 40.1268 54.1738L45.5021 58.4813L49.8024 60.9043C49.9367 61.0389 49.9367 61.0389 50.0711 61.0389ZM49.668 58.4813V59.5582L46.0396 57.5391L40.7987 53.3662C40.6643 53.2315 37.3048 51.0778 40.2612 46.0972C41.0675 44.7511 42.0082 43.9434 42.9488 43.8088C44.1583 43.6742 45.099 44.3473 45.3677 44.6165L45.6365 44.8857H45.9053C46.174 44.8857 46.3084 44.7511 46.4428 44.4819C46.7116 43.9434 47.5179 42.3281 48.5929 40.982C49.3992 39.9051 50.6087 38.8282 51.6837 39.3667L55.5808 41.5204L52.7588 46.501L48.4585 58.3467L49.668 58.4813Z" fill="#171753"/>
<path d="M44.0241 48.7894C44.0241 48.7894 45.9055 48.6548 46.3086 48.7894C46.7118 48.7894 50.7432 50.6739 50.7432 50.6739L51.4152 52.1547L49.265 57.9429L50.3401 58.2121V60.5005C50.3401 60.6351 50.2057 60.6351 50.2057 60.6351L45.9055 58.2121L40.5302 53.9046C40.5302 53.9046 36.7674 51.6162 39.5895 46.501L44.0241 48.7894Z" fill="#BEF0ED"/>
<path d="M50.2056 61.0391C50.34 61.0391 50.4744 61.0391 50.4744 60.9045C50.6088 60.7699 50.7432 60.6352 50.7432 60.366V57.6738L49.8025 57.4046L51.8182 51.8856L51.0119 50.001L50.7432 49.8664C49.1306 49.1933 46.4429 48.1165 46.1742 47.9819C45.9054 47.9819 44.5616 47.9819 43.8897 47.9819L39.0519 45.4243L38.7831 45.9627C35.8267 51.4817 39.8582 54.0393 39.9926 54.1739L45.3679 58.4815L49.6681 60.9045C49.9369 61.0391 50.0713 61.0391 50.2056 61.0391ZM49.8025 58.4815V59.5584L46.1742 57.5392L40.9332 53.3663C40.7989 53.2317 37.8424 51.3471 39.8582 47.1742L43.8897 49.328H44.024C44.9647 49.328 45.9054 49.1934 46.1742 49.328C46.4429 49.4626 48.7274 50.2702 50.34 51.0779L50.7432 52.1548L48.4587 58.3469L49.8025 58.4815Z" fill="#171753"/>
<path d="M49.3995 46.2314L45.9055 44.3469V44.2122C46.1743 43.6738 46.9806 42.0585 48.0556 40.7124L52.3559 43.27L53.6997 45.8276L53.1622 46.6352L52.4903 48.3852L51.0121 49.5967L49.3995 46.2314Z" fill="#BEF0ED"/>
<path d="M50.8773 50.4044L53.0274 48.7891L53.6993 46.9045L54.3712 45.8276L52.893 42.8662L47.9208 40.0394L47.6521 40.4432C46.577 41.9239 45.6363 43.5392 45.3676 44.0777C45.2332 44.2123 45.3676 44.4815 45.3676 44.6161V44.8853L48.8615 46.7699L50.8773 50.4044ZM52.0867 48.116L51.2804 48.7891L49.8022 45.9622L46.577 44.2123C46.8458 43.6738 47.5177 42.597 48.1896 41.5201L51.9523 43.6738L53.0274 45.8276L52.6242 46.5007L52.0867 48.116Z" fill="#171753"/>
<path d="M44.1583 48.385C46.7116 44.0775 49.668 46.3659 50.2055 46.7697C50.2055 46.7697 50.3399 46.7697 50.3399 46.6351C50.8774 45.5582 53.6995 40.0392 56.3871 41.2507C59.6123 42.866 55.7152 50.0004 55.7152 50.0004L50.4743 60.5C50.4743 60.6346 50.3399 60.6346 50.3399 60.6346L44.9646 56.3271C44.8302 56.3271 40.7987 53.7695 44.1583 48.385Z" fill="white"/>
<path d="M50.0712 61.1734H50.34C50.4743 61.1734 50.7431 61.0388 50.8775 60.7696L56.1184 50.2699C56.2528 50.1353 58.8061 45.2893 57.9998 42.4625C57.731 41.6549 57.3279 41.1164 56.5216 40.7126C55.5809 40.3088 54.1027 40.1742 52.0869 42.5971C51.1463 43.674 50.4743 45.0201 50.0712 45.8278C49.3993 45.424 48.4586 44.8855 47.2492 45.1547C45.9053 45.2893 44.6959 46.3662 43.7552 47.9816C40.2612 53.7698 44.5615 56.5966 44.5615 56.5966L50.0712 61.1734ZM55.5809 41.6549C55.7153 41.6549 55.984 41.6549 56.1184 41.7895C56.5216 42.0587 56.7903 42.3279 56.9247 42.8664C57.5966 44.8855 55.8496 48.52 55.1777 49.7315L50.0712 59.6927L45.2334 55.789C45.099 55.6544 41.7395 53.5006 44.6959 48.52C45.5022 47.1739 46.4429 46.3662 47.3835 46.2316C48.593 46.097 49.5337 46.7701 49.8024 47.0393L50.0712 47.1739H50.34C50.6087 47.1739 50.7431 47.0393 50.8775 46.7701C51.1463 46.2316 51.9525 44.6163 53.0276 43.2702C53.6995 42.5971 54.6402 41.6549 55.5809 41.6549Z" fill="#171753"/>
<path d="M51.2799 44.8857L46.8453 42.4627L45.9046 44.3473L50.3392 46.6356L51.2799 44.8857Z" fill="#171753"/>
<path d="M43.8888 55.789L41.7387 54.8468L39.3198 53.0968L38.5135 50.9431V48.9239L38.7823 48.2509L42.8137 50.4046L42.6793 52.02L43.0825 53.9045L43.8888 55.789Z" fill="#171753"/>
<path d="M50.8082 54.8174L71.5044 42.8496C72.6931 42.1497 73.7419 42.0797 74.5809 42.4996L75.4199 42.9895L81.3631 46.6289C81.3631 46.6289 81.433 46.6989 81.3631 46.6989C81.0834 47.3287 78.2866 53.2077 78.007 54.2575C77.8671 54.7474 77.0281 59.2266 75.9793 64.4057V66.9952C75.9793 68.465 75.4199 70.0747 74.5809 71.5444C73.5321 77.0034 72.6231 81.6226 72.6231 81.7626L69.5467 88.9713C69.5467 89.0413 69.4768 89.0413 69.4068 89.0413L62.4149 84.982C62.4149 84.982 62.345 84.912 62.4149 84.912L62.9043 83.4423C63.0442 82.7424 63.1141 81.9725 63.184 81.1327L54.2343 91.0709H54.1644L47.6619 87.0116L47.5919 86.9416C46.8228 86.4517 46.3334 85.4719 46.3334 84.0722V62.656C46.3334 59.7865 48.3611 56.2871 50.8082 54.8174Z" fill="#5ED9D1"/>
<path d="M54.2344 91.7709C54.3742 91.7709 54.5141 91.7009 54.6539 91.5609L62.5548 82.7425C62.4849 82.9524 62.4849 83.2324 62.415 83.4424L61.9255 84.8421C61.8556 85.1221 61.9255 85.402 62.2052 85.542L69.4069 89.7412L69.6866 89.6713C69.8264 89.6013 69.9663 89.5313 70.0362 89.3213L73.1127 81.9726C73.1127 81.8326 74.0216 77.2135 75.0704 71.7545C75.9794 70.1447 76.4688 68.535 76.4688 67.0653V64.4758C78.007 56.5672 78.4266 54.6075 78.4266 54.3976C78.6363 53.5577 80.5941 49.2885 81.7827 46.9089C81.9225 46.629 81.7827 46.349 81.5729 46.209L74.7907 42.0798C73.7419 41.5899 72.5533 41.7298 71.2248 42.4297L50.5286 54.3976C47.9416 55.9373 45.7741 59.5766 45.7741 62.6561V84.3522C45.7741 85.8919 46.2635 87.0117 47.2424 87.6416C47.3123 87.7116 47.3123 87.7116 47.3822 87.7116L53.8848 91.7009C54.0246 91.7709 54.0945 91.7709 54.2344 91.7709ZM63.7435 79.943L54.0945 90.6511L47.8717 86.8018L47.5221 87.1517L47.8018 86.7318C47.1026 86.3118 46.753 85.472 46.753 84.2822V62.6561C46.753 59.9966 48.7107 56.6372 51.0181 55.3074L71.7143 43.3395C72.6932 42.7796 73.6021 42.6397 74.3013 42.9896L75.0704 43.4795L80.664 46.9789C79.8949 48.5886 77.6574 53.2778 77.4477 54.3276C77.3778 54.7475 76.6786 58.1769 75.42 64.5457V64.6857V67.2753C75.42 68.605 74.9306 70.1447 74.0915 71.5445L74.0216 71.6145V71.7545C73.0427 76.9335 72.1338 81.4127 72.0639 81.9026L69.1972 88.6214L62.9044 84.9821L63.3239 83.7223C63.4638 82.9524 63.6036 82.1126 63.6036 81.4127L63.7435 79.943Z" fill="#171753"/>
<path d="M50.878 54.8177L70.2458 43.6897L79.9646 49.7786L59.1985 60.6966L54.8635 61.3965L48.1512 57.4072C48.9203 56.3574 49.8292 55.4476 50.878 54.8177Z" fill="white"/>
<path d="M54.7938 61.9563L59.4784 61.1865L81.0137 49.8485L70.316 43.1297L50.6686 54.4677C49.6198 55.0976 48.6409 56.0074 47.8019 57.1972L47.5222 57.6171L54.7938 61.9563ZM59.0589 60.2766L54.9337 60.9065L48.8507 57.2672C49.5499 56.4273 50.2491 55.7274 51.0881 55.2375L70.1761 44.2495L78.986 49.7785L59.0589 60.2766Z" fill="#171753"/>
<path d="M53.1855 64.9656C53.1855 64.9656 61.5758 66.9253 62.0653 67.1352C62.4848 67.2752 70.7353 73.924 73.5321 77.0035C72.9727 79.873 72.6232 81.8326 72.5532 81.9026L69.4768 89.1113C69.4768 89.1813 69.4068 89.1813 69.3369 89.1813L62.345 85.122C62.345 85.122 62.2751 85.052 62.345 85.052L62.8344 83.5823C62.9742 82.8824 63.0442 82.1126 63.1141 81.2727L54.1644 91.2109H54.0945L47.5919 87.1516L47.522 87.0817C46.7529 86.5917 46.2635 85.6119 46.2635 84.2122V62.656C46.2635 62.0961 46.3334 61.6062 46.4732 61.0463L53.1855 64.9656Z" fill="#171753"/>
<path d="M47.1261 64.1922L52.0914 67.1995L51.7657 67.7385L46.8003 64.7312L47.1261 64.1922Z" fill="#5ED9D1"/>
<path d="M47.2886 83.5735L52.2539 86.5808L51.9281 87.1197L46.9628 84.1124L47.2886 83.5735Z" fill="#5ED9D1"/>
<path d="M57.4505 58.9467L78.1467 46.9789C80.5939 45.5791 82.6216 46.6989 82.6216 49.5684V71.2645C82.6216 74.134 80.5939 77.5634 78.1467 79.0331L75.7695 80.3629C75.3499 80.6428 75.0004 81.1327 74.8605 81.6926C74.5808 83.3024 73.6719 86.7317 70.3157 89.2513C69.6865 89.7412 69.1271 89.3213 69.3369 88.4814C69.5466 87.4316 69.8263 86.1019 69.8263 84.8421C69.8263 84.2822 69.4068 84.0722 68.9173 84.3522L57.3806 91.001C54.9334 92.4007 52.9058 91.2809 52.9058 88.4114V66.7153C52.9757 63.8458 54.9334 60.4165 57.4505 58.9467Z" fill="#5ED9D1"/>
<path d="M55.4229 92.1207C56.1221 92.1207 56.8912 91.9107 57.6603 91.4208L69.1971 84.772C69.267 84.702 69.3369 84.702 69.3369 84.702C69.3369 84.702 69.3369 84.772 69.3369 84.842C69.3369 86.1018 69.0572 87.5015 68.8475 88.4114C68.7076 89.0413 68.8475 89.6012 69.267 89.8111C69.6166 90.0911 70.1759 90.0211 70.5954 89.6711C74.0215 87.0816 75.0703 83.6522 75.35 81.8326C75.4199 81.4826 75.6996 80.9927 75.9793 80.8527L78.3565 79.523C80.9436 78.0532 83.0411 74.3439 83.0411 71.3344V49.6383C83.0411 48.0986 82.4818 46.9088 81.5029 46.2789C80.524 45.719 79.1956 45.789 77.8671 46.5589L57.1709 58.5267C54.5839 59.9965 52.4863 63.7058 52.4863 66.7153V88.4114C52.4863 89.9511 53.0456 91.1409 54.0245 91.7708C54.444 91.9807 54.9335 92.1207 55.4229 92.1207ZM69.4068 83.7222C69.1971 83.7222 68.9873 83.7922 68.7775 83.9322L57.2408 90.581C56.192 91.2109 55.2831 91.2809 54.5839 90.8609C53.8847 90.441 53.5351 89.6012 53.5351 88.4114V66.7153C53.5351 64.0557 55.4229 60.7663 57.7302 59.3666L78.4264 47.3987C79.4752 46.7688 80.3842 46.6989 81.0834 47.1188C81.7826 47.5387 82.1322 48.3786 82.1322 49.5683V71.2644C82.1322 73.924 80.2444 77.2134 77.937 78.6131L75.5597 79.9429C75.0004 80.2928 74.5809 80.9227 74.441 81.6226C74.1613 83.3023 73.2524 86.5217 70.106 88.8313C69.9662 88.9013 69.8963 88.9713 69.8963 88.9713C69.8963 88.9713 69.8963 88.8313 69.8963 88.6213C70.106 87.6415 70.3857 86.2418 70.3857 84.842C70.3857 84.4221 70.1759 84.0022 69.8963 83.8622C69.6865 83.7922 69.5467 83.7222 69.4068 83.7222Z" fill="#171753"/>
<path d="M64.4426 70.9147C64.4426 73.0144 65.9109 73.9242 67.7288 72.8044C69.5467 71.7546 71.015 69.165 71.015 67.0654C71.015 64.9658 69.5467 64.056 67.7288 65.1758C65.9808 66.2256 64.4426 68.8151 64.4426 70.9147Z" fill="#5ED9D1"/>
<path d="M77.475 63.8005L77.4749 63.8005L77.475 63.7985C77.4677 63.7928 77.4512 63.7826 77.4184 63.7744C77.3069 63.7464 77.1009 63.7625 76.7832 63.8559C76.1587 64.0397 75.2892 64.4639 74.3821 64.969C73.4831 65.4696 72.5781 66.0318 71.8957 66.4705C71.884 66.4781 71.8723 66.4855 71.8607 66.493C72.2207 66.6283 72.6497 66.7962 73.0832 66.9815C73.6296 67.2149 74.191 67.4791 74.6319 67.743C74.8517 67.8746 75.0501 68.0111 75.2037 68.1492C75.2212 68.1649 75.239 68.1814 75.2569 68.1987C75.2626 68.191 75.2685 68.1833 75.2744 68.1754C75.5197 67.848 75.8496 67.3754 76.1811 66.8408C76.5137 66.3043 76.8377 65.7219 77.0798 65.1715C77.3263 64.6112 77.462 64.1429 77.475 63.8005Z" fill="#353570" stroke="#171753" stroke-width="1.05062"/>
<path d="M62.1461 78.9709L62.2668 78.3899L62.267 78.3899L62.2678 78.3898L62.2709 78.3894L62.284 78.3879L62.3355 78.382C62.3808 78.3768 62.4477 78.3689 62.5334 78.3585C62.7047 78.3378 62.951 78.3071 63.2502 78.2673C63.849 78.1876 64.6582 78.0715 65.5018 77.926C66.3471 77.7802 67.2192 77.6061 67.9462 77.4112C68.3101 77.3136 68.6293 77.213 68.8861 77.1115C69.1583 77.004 69.3089 76.9148 69.3674 76.8657C69.824 76.4833 69.9323 76.1918 69.9652 76.0635C69.9858 75.9833 69.9893 75.9176 69.9877 75.8735C69.987 75.852 69.9851 75.8374 69.9841 75.8309L69.8336 75.2556L70.402 74.9669L70.4302 75.5013C70.402 74.9669 70.4021 74.9668 70.4023 74.9667L70.4026 74.9666L70.4032 74.9663L70.4044 74.9657L70.407 74.9644L70.4123 74.9618L70.4249 74.9558C70.4343 74.9514 70.4465 74.9458 70.4626 74.9386C70.4948 74.9244 70.5445 74.903 70.6211 74.8713C70.7708 74.8094 71.028 74.7063 71.4654 74.5379C71.5396 74.4955 71.5733 74.4512 71.5943 74.4173C71.6255 74.3668 71.6582 74.2882 71.6835 74.1772C71.7084 74.0681 71.7193 73.9582 71.7228 73.8706C71.7246 73.8282 71.7245 73.7946 71.724 73.7731C71.7238 73.7625 71.7235 73.7551 71.7233 73.7513C71.7233 73.7505 71.7233 73.7499 71.7232 73.7494C71.7232 73.749 71.7232 73.7487 71.7232 73.7486C71.7232 73.7486 71.7232 73.7486 71.7232 73.7486L71.6824 73.1593L72.1956 72.9555L72.196 72.9553L72.1963 72.9552L72.1964 72.9551L72.1966 72.955L72.1968 72.955L72.2036 72.9521C72.2111 72.949 72.2237 72.9435 72.241 72.9357C72.2756 72.9201 72.329 72.8951 72.3978 72.8598C72.5357 72.7891 72.734 72.6781 72.9676 72.5203C73.1526 72.3953 73.2354 72.2846 73.2739 72.2189C73.3138 72.1508 73.3385 72.0753 73.3502 71.9863C73.3626 71.8932 73.3582 71.8016 73.3478 71.7276C73.3428 71.6922 73.3369 71.6648 73.3329 71.648C73.3309 71.6398 73.3294 71.6343 73.3288 71.6321C73.3288 71.6321 73.3288 71.6321 73.3288 71.6321L73.0919 70.9024L73.8277 70.7009C74.469 70.5253 74.6072 70.2717 74.6364 70.21C74.7026 70.07 74.7228 69.8475 74.6917 69.5177C74.6768 69.3605 74.6085 69.1852 74.3104 68.9453C74.0073 68.7014 73.5234 68.4337 72.7643 68.0457C72.0423 67.6855 70.5523 67.2796 69.2123 66.96C68.5482 66.8015 67.9307 66.6665 67.4792 66.571C67.2534 66.5233 67.0693 66.4855 66.9417 66.4596L66.7947 66.4301L66.7565 66.4225L66.7469 66.4206L66.7445 66.4201L66.7439 66.42L66.7438 66.42L66.9593 65.8424L66.7437 66.42L66.2372 66.3209L66.6088 65.6399L66.6088 65.6399L66.6088 65.6398L66.609 65.6396L66.6099 65.6378L66.6141 65.6302L66.6311 65.5987C66.6461 65.5709 66.6683 65.5296 66.6963 65.4771C66.7524 65.3719 66.8317 65.2219 66.9236 65.0439C67.1085 64.6859 67.3401 64.2233 67.5373 63.7874C67.6268 63.5896 67.7018 63.413 67.7611 63.2625C67.5357 63.3698 67.2992 63.4553 67.0676 63.5259C66.6816 63.6435 66.2736 63.7301 65.8944 63.8002C65.6891 63.8381 65.4676 63.8752 65.266 63.909C65.1166 63.934 64.9781 63.9572 64.8652 63.9776C64.5497 64.0344 64.3786 64.0789 64.3197 64.1076C64.3212 64.1069 64.3201 64.1076 64.3163 64.1103C64.302 64.1201 64.2484 64.1572 64.1401 64.2478C64.0192 64.3489 63.8657 64.4864 63.6872 64.6522C63.3312 64.983 62.8988 65.4054 62.4733 65.8276C62.1359 66.1626 61.8068 66.4934 61.5272 66.7744C61.4549 66.8472 61.3858 66.9166 61.3208 66.9819C61.1738 67.1295 61.046 67.2575 60.9482 67.3539L58.7571 77.658C59.3229 78.3212 60.1337 78.5272 60.8491 78.5519C61.2288 78.5651 61.5717 78.5267 61.8187 78.4852C61.9419 78.4645 62.0404 78.4432 62.1066 78.4274C62.1397 78.4196 62.1647 78.4131 62.1806 78.4088L62.1976 78.4042L62.2002 78.4035L62.2004 78.4034L62.2007 78.4033L62.2007 78.4033L62.2009 78.4033L62.234 78.3935L62.2668 78.3899L62.1461 78.9709ZM67.9161 62.7725C67.9157 62.7731 67.9147 62.7793 67.9143 62.7895C67.9163 62.7771 67.9165 62.772 67.9161 62.7725ZM68.1983 63.0155C68.1985 63.0151 68.1954 63.0164 68.1884 63.0204C68.1946 63.0178 68.1981 63.0158 68.1983 63.0155Z" fill="white" stroke="#171753" stroke-width="1.05062"/>
<path d="M68.4173 66.6499C68.4193 66.6552 68.4215 66.6604 68.4237 66.6656L68.4207 66.6582C68.4196 66.6555 68.4185 66.6527 68.4173 66.6499ZM67.8021 66.6847C67.9485 66.5536 68.0797 66.4326 68.1919 66.3267C67.9976 66.1417 67.7128 66.0102 67.3495 65.9494C66.8056 65.8584 66.1419 65.9368 65.506 66.1631C64.8622 66.3921 64.3013 66.7525 63.9295 67.1696C63.591 67.5494 63.3932 67.9867 63.4209 68.5454C63.4368 68.8259 63.5112 68.9653 63.6008 69.0397C63.6956 69.1185 63.8439 69.154 64.0662 69.1204C64.5258 69.0508 65.1767 68.7055 65.887 68.2146C66.5836 67.7332 67.2802 67.1523 67.8021 66.6847Z" fill="#171753" stroke="#171753" stroke-width="1.05062"/>
<mask id="path-59-inside-1_2520_1186" fill="white">
<path d="M73.6972 66.5606C71.7732 67.9183 67.9061 65.5438 66.9516 66.1207C65.9808 66.7067 65.3435 67.9257 64.715 69.2374C64.0865 70.5492 62.2298 70.9895 62.1206 70.7384C62.0113 70.4873 63.2566 66.8346 63.5757 66.049C63.8948 65.2634 67.4205 62.3973 67.4205 62.3973C70.8786 61.3478 72.4146 60.2283 72.4146 60.2283C73.8031 59.7195 77.9593 63.8855 77.9593 63.8855"/>
</mask>
<path d="M73.6972 66.5606C71.7732 67.9183 67.9061 65.5438 66.9516 66.1207C65.9808 66.7067 65.3435 67.9257 64.715 69.2374C64.0865 70.5492 62.2298 70.9895 62.1206 70.7384C62.0113 70.4873 63.2566 66.8346 63.5757 66.049C63.8948 65.2634 67.4205 62.3973 67.4205 62.3973C70.8786 61.3478 72.4146 60.2283 72.4146 60.2283C73.8031 59.7195 77.9593 63.8855 77.9593 63.8855" fill="white"/>
<path d="M73.4929 65.5815C73.9887 65.2316 74.4821 65.3864 74.5949 65.9271C74.7077 66.4679 74.3972 67.1899 73.9014 67.5398L73.4929 65.5815ZM66.9516 66.1207L67.0814 67.1485L67.0809 67.1489L66.9516 66.1207ZM67.4205 62.3973L67.1418 61.4746L67.3277 61.3235L67.5216 61.2647L67.4205 62.3973ZM72.4146 60.2283L72.1938 59.261L72.3287 59.1626L72.4675 59.1118L72.4146 60.2283ZM78.6685 62.8786C78.9927 63.2036 78.938 63.9178 78.5463 64.4739C78.1546 65.03 77.5743 65.2173 77.2501 64.8924L78.6685 62.8786ZM73.9014 67.5398C73.1372 68.0791 72.314 68.1734 71.6275 68.1493C70.9095 68.1242 70.1649 67.9584 69.4939 67.7805C68.788 67.5933 68.2097 67.4074 67.6894 67.2886C67.4376 67.2311 67.2424 67.2005 67.0982 67.1954C66.9161 67.189 66.9458 67.2305 67.0814 67.1485L66.8217 65.0928C67.196 64.8666 67.5553 64.8561 67.7749 64.8638C68.0324 64.8729 68.311 64.9225 68.586 64.9853C69.1193 65.107 69.807 65.3217 70.4278 65.4864C71.0833 65.6602 71.7259 65.7975 72.304 65.8177C72.9135 65.839 73.2952 65.721 73.4929 65.5815L73.9014 67.5398ZM67.0809 67.1489C66.5523 67.4679 66.1248 68.1695 65.4621 69.5525L63.9679 68.9223C64.5623 67.6819 65.4093 65.9455 66.8223 65.0925L67.0809 67.1489ZM65.4621 69.5525C64.8746 70.7787 63.847 71.3972 63.224 71.6689C62.8748 71.8212 62.536 71.9174 62.257 71.9545C62.1201 71.9726 61.9701 71.9803 61.8308 71.9593C61.7615 71.9488 61.6731 71.9281 61.5849 71.8824C61.5054 71.8411 61.3664 71.7494 61.2764 71.5427L62.9647 69.9342C62.8884 69.7587 62.7767 69.6931 62.7367 69.6723C62.688 69.647 62.6514 69.6413 62.6444 69.6403C62.6301 69.6381 62.648 69.6424 62.7103 69.6341C62.8298 69.6183 63.0149 69.5695 63.2222 69.4791C63.4306 69.3882 63.6197 69.2733 63.7633 69.1527C63.9066 69.0324 63.9549 68.9496 63.9679 68.9223L65.4621 69.5525ZM61.2764 71.5427C61.1699 71.2978 61.1935 71.0164 61.199 70.9462C61.2084 70.8265 61.228 70.7102 61.2456 70.6191C61.2816 70.4327 61.3355 70.2185 61.393 70.0076C61.51 69.5785 61.6752 69.0433 61.8474 68.5116C62.1871 67.462 62.5952 66.2991 62.7817 65.84L64.3697 66.258C64.2371 66.5845 63.8629 67.6408 63.5276 68.6767C63.3622 69.1877 63.2166 69.6619 63.1209 70.0128C63.0721 70.192 63.0441 70.3104 63.0316 70.375C63.025 70.4093 63.0288 70.398 63.0318 70.3598C63.0333 70.3399 63.0363 70.2927 63.0327 70.2313C63.0296 70.177 63.0185 70.0578 62.9647 69.9342L61.2764 71.5427ZM62.7817 65.84C62.9394 65.4516 63.1939 65.132 63.3301 64.9672C63.5032 64.7578 63.7059 64.5417 63.9104 64.3351C64.3223 63.9191 64.8225 63.461 65.2925 63.0454C65.7665 62.6262 66.2279 62.2343 66.5696 61.9482C66.7409 61.8048 66.883 61.6872 66.9826 61.6051C67.0325 61.5641 67.0717 61.5319 67.0988 61.5097C67.1123 61.4987 67.1228 61.4901 67.1301 61.4842C67.1337 61.4813 67.1365 61.479 67.1384 61.4774C67.1394 61.4766 67.1402 61.4759 67.1408 61.4755C67.141 61.4753 67.1413 61.4751 67.1414 61.4749C67.1415 61.4749 67.1416 61.4748 67.1417 61.4748C67.1417 61.4747 67.1418 61.4746 67.4205 62.3973C67.6993 63.32 67.6993 63.3199 67.6993 63.3199C67.6993 63.3199 67.6993 63.3199 67.6993 63.3199C67.6993 63.32 67.6992 63.32 67.699 63.3202C67.6987 63.3204 67.6982 63.3208 67.6975 63.3214C67.6961 63.3225 67.6938 63.3244 67.6907 63.3269C67.6846 63.3319 67.6753 63.3395 67.6629 63.3496C67.6382 63.3699 67.6014 63.4 67.5542 63.4389C67.4598 63.5166 67.3239 63.6291 67.1596 63.7666C66.8303 64.0424 66.3904 64.4161 65.943 64.8117C65.4917 65.2108 65.0507 65.6165 64.7117 65.9588C64.5408 66.1314 64.4157 66.2681 64.3348 66.3659C64.2172 66.5082 64.2917 66.45 64.3697 66.258L62.7817 65.84ZM67.5216 61.2647C69.2027 60.7545 70.3996 60.2324 71.1613 59.8488C71.5422 59.657 71.8145 59.4997 71.9844 59.3956C72.0694 59.3435 72.1288 59.3047 72.1634 59.2815C72.1807 59.2699 72.1919 59.2622 72.1969 59.2587C72.1994 59.2569 72.2004 59.2562 72.1999 59.2566C72.1996 59.2568 72.199 59.2572 72.1979 59.258C72.1974 59.2583 72.1968 59.2588 72.1961 59.2593C72.1958 59.2595 72.1954 59.2598 72.195 59.2601C72.1948 59.2602 72.1945 59.2605 72.1944 59.2605C72.1941 59.2608 72.1938 59.261 72.4146 60.2283C72.6354 61.1956 72.635 61.1958 72.6347 61.1961C72.6346 61.1962 72.6342 61.1964 72.634 61.1966C72.6335 61.1969 72.633 61.1973 72.6324 61.1977C72.6314 61.1985 72.6302 61.1993 72.6289 61.2002C72.6264 61.2021 72.6235 61.2041 72.6202 61.2065C72.6137 61.2111 72.6056 61.2168 72.5961 61.2235C72.5769 61.2369 72.5516 61.2543 72.5202 61.2754C72.4573 61.3175 72.3697 61.3744 72.2566 61.4437C72.0305 61.5822 71.7027 61.7704 71.2673 61.9896C70.3965 62.4282 69.0964 62.9907 67.3194 63.5299L67.5216 61.2647ZM72.4675 59.1118C72.8656 58.9659 73.2379 59.0181 73.5181 59.0922C73.8224 59.1727 74.1402 59.315 74.4522 59.4852C75.0779 59.8264 75.7563 60.3224 76.3723 60.8191C76.9919 61.3188 77.565 61.8329 77.9822 62.221C78.1912 62.4154 78.3619 62.5789 78.4807 62.6942C78.5401 62.7518 78.5866 62.7975 78.6184 62.8289C78.6344 62.8447 78.6466 62.8568 78.655 62.8652C78.6593 62.8694 78.6625 62.8726 78.6647 62.8749C78.6659 62.876 78.6667 62.8769 78.6674 62.8775C78.6677 62.8778 78.6679 62.8781 78.6681 62.8783C78.6682 62.8783 78.6683 62.8784 78.6684 62.8785C78.6684 62.8786 78.6685 62.8786 77.9593 63.8855C77.2501 64.8924 77.2501 64.8924 77.2501 64.8924C77.2501 64.8924 77.2501 64.8924 77.2501 64.8924C77.25 64.8923 77.2499 64.8922 77.2497 64.892C77.2493 64.8916 77.2487 64.891 77.2478 64.8901C77.246 64.8883 77.2433 64.8856 77.2396 64.8819C77.2322 64.8746 77.221 64.8634 77.2061 64.8487C77.1764 64.8194 77.1322 64.7761 77.0753 64.7208C76.9614 64.6102 76.7965 64.4523 76.5941 64.264C76.1886 63.8869 75.636 63.3913 75.0429 62.9131C74.4463 62.432 73.8253 61.9818 73.2812 61.685C73.0083 61.5362 72.7736 61.4364 72.5848 61.3865C72.3719 61.3302 72.3106 61.3635 72.3616 61.3448L72.4675 59.1118Z" fill="#171753" mask="url(#path-59-inside-1_2520_1186)"/>
<path d="M59.9502 79.3476C59.9049 79.3511 59.8615 79.3561 59.8203 79.3621C59.7802 79.6613 59.7407 80.0386 59.7339 80.3948C59.7265 80.7749 59.7581 81.0689 59.8268 81.2334C59.8588 81.3101 59.8897 81.3361 59.9074 81.3448C59.9195 81.3507 59.9421 81.358 60.0001 81.3338L60.0001 81.3338L60.0072 81.331C60.2843 81.2205 60.4901 80.9001 60.6456 80.3294C60.7173 80.0662 60.7599 79.8072 60.7843 79.6092C60.7872 79.5849 60.7899 79.5618 60.7923 79.54C60.5203 79.361 60.2119 79.3277 59.9502 79.3476ZM60.8124 79.3033C60.8124 79.3033 60.8124 79.3033 60.8124 79.3035L60.8124 79.3033Z" fill="white" stroke="#171753" stroke-width="1.05062"/>
<path d="M63.1636 79.0802L63.1618 79.0827L63.1616 79.083L63.1615 79.0831L63.1614 79.0831L63.1613 79.0833L63.0255 79.2677L62.9468 79.2965C62.9778 79.4268 63.0169 79.561 63.0662 79.6844C63.1512 79.8972 63.2512 80.0386 63.3566 80.0993C63.4432 80.1491 63.5406 80.1528 63.6974 80.0492C64.2461 79.6868 64.6214 79.2756 64.8031 78.9227C64.9532 78.6312 65.0207 78.2869 64.8078 77.8819L64.8068 77.8801C64.7393 77.7499 64.662 77.7389 64.5606 77.7688C64.4255 77.8086 64.2348 77.9342 64.0065 78.141C63.7864 78.3403 63.5741 78.5759 63.4127 78.7682C63.3331 78.863 63.2685 78.9442 63.2245 79.0007C63.2025 79.0289 63.1858 79.0508 63.1751 79.065L63.1636 79.0802Z" fill="white" stroke="#171753" stroke-width="1.05062"/>
<path d="M68.5472 77.4781L68.5472 77.4782L68.536 77.4835C68.5124 77.4947 68.4306 77.5537 68.287 77.7379C68.1536 77.909 68.0118 78.13 67.8767 78.363C67.7435 78.5928 67.627 78.8168 67.5432 78.9847C67.525 79.0211 67.5086 79.0546 67.4939 79.0847C67.4969 79.0918 67.5014 79.0975 67.5104 79.1026C67.5225 79.1093 67.5637 79.1266 67.6676 79.1044C67.8797 79.059 68.2407 78.8363 68.5561 78.5139C68.9 78.1624 68.9682 77.9325 68.9677 77.8688C68.9647 77.5262 68.9018 77.4341 68.8728 77.4107C68.8544 77.3959 68.7877 77.3577 68.5472 77.4781Z" fill="white" stroke="#171753" stroke-width="1.05062"/>
<path d="M66.3537 77.7771C66.0932 78.2639 65.8149 78.5801 65.5465 78.7619L65.5452 78.8261C65.5513 78.8306 65.5577 78.8352 65.5642 78.8398C65.6547 78.904 65.7757 78.978 65.915 79.0267C66.2107 79.1299 66.4695 79.0857 66.6939 78.8473L66.6963 78.8448C67.1668 78.3492 67.6946 77.7765 68.0158 77.2547C68.1739 76.9979 68.2383 76.8222 68.254 76.7117C68.2653 76.6322 68.2628 76.5172 68.1345 76.3875L68.1345 76.3875L68.1333 76.3864C68.0033 76.2534 67.8757 76.2351 67.7591 76.2602C67.6329 76.2873 67.4791 76.3747 67.3001 76.5321C66.932 76.8558 66.5656 77.3812 66.3537 77.7771Z" fill="white" stroke="#171753" stroke-width="1.05062"/>
<path d="M78.5975 62.479C78.7905 62.1946 78.8088 61.8373 78.6382 61.684L74.8652 58.2955L75.2086 57.7814L74.8652 58.2955C74.692 58.1399 74.3926 58.2557 74.2043 58.551L74.0665 58.7671C73.9478 58.9531 73.8826 59.2055 73.9103 59.4708C73.9383 59.7378 74.0557 59.9481 74.2181 60.0324C75.52 60.7083 76.9963 62.0783 77.797 62.8724C77.9734 63.0473 78.2855 62.9387 78.4839 62.6465L78.5975 62.479Z" fill="#353570" stroke="#171753" stroke-width="1.05062"/>
<path d="M59.3645 71.6944C59.6458 70.1773 59.8722 68.7747 59.9993 67.9571C59.9502 68.0054 59.8987 68.0576 59.8457 68.113C59.6502 68.3178 59.4581 68.5418 59.313 68.7324C59.2401 68.8283 59.1868 68.9055 59.153 68.9605C59.1467 68.9707 59.1418 68.979 59.1379 68.9857L56.9321 77.0961C56.9047 77.1966 56.9387 77.2806 57.0104 77.2899L57.9262 77.4078C57.9601 77.4121 57.9859 77.399 57.9955 77.392C57.9956 77.3919 57.9957 77.3919 57.9958 77.3918C58.2204 76.8126 58.4619 75.9422 58.7011 74.9176C58.9382 73.9022 59.1647 72.7725 59.3645 71.6944Z" fill="#353570" stroke="#171753" stroke-width="1.05062"/>
<path d="M70.2759 75.2643C70.2759 75.2643 68.8322 75.2271 68.027 75.0244C67.2218 74.8217 66.3468 74.5201 66.3468 74.5201" stroke="#171753" stroke-width="1.05062" stroke-linecap="round"/>
<path d="M72.1372 73.2442C72.1372 73.2442 70.6935 73.207 69.8883 73.0043C69.0831 72.8016 68.2081 72.5 68.2081 72.5" stroke="#171753" stroke-width="1.05062" stroke-linecap="round"/>
<path d="M73.6084 71.0619C73.6084 71.0619 72.1647 71.0247 71.3595 70.822C70.5543 70.6193 69.6793 70.3177 69.6793 70.3177" stroke="#171753" stroke-width="1.05062" stroke-linecap="round"/>
<path d="M55.6477 201V186.4H58.4877V201H55.6477ZM58.0877 194.92V192.52L63.9277 192.5V194.9L58.0877 194.92ZM58.0877 188.8V186.4H64.2077V188.8H58.0877ZM71.5852 201.38C70.6252 201.38 69.7785 201.227 69.0452 200.92C68.3118 200.613 67.6918 200.2 67.1852 199.68C66.6785 199.147 66.2918 198.547 66.0252 197.88C65.7718 197.213 65.6452 196.52 65.6452 195.8V195.38C65.6452 194.633 65.7785 193.927 66.0452 193.26C66.3252 192.58 66.7185 191.98 67.2252 191.46C67.7452 190.927 68.3718 190.513 69.1052 190.22C69.8385 189.913 70.6652 189.76 71.5852 189.76C72.5052 189.76 73.3318 189.913 74.0652 190.22C74.7985 190.513 75.4185 190.927 75.9252 191.46C76.4452 191.98 76.8385 192.58 77.1052 193.26C77.3718 193.927 77.5052 194.633 77.5052 195.38V195.8C77.5052 196.52 77.3718 197.213 77.1052 197.88C76.8518 198.547 76.4718 199.147 75.9652 199.68C75.4585 200.2 74.8385 200.613 74.1052 200.92C73.3718 201.227 72.5318 201.38 71.5852 201.38ZM71.5852 199C72.2652 199 72.8385 198.853 73.3052 198.56C73.7718 198.253 74.1252 197.847 74.3652 197.34C74.6052 196.82 74.7252 196.233 74.7252 195.58C74.7252 194.913 74.5985 194.327 74.3452 193.82C74.1052 193.3 73.7452 192.893 73.2652 192.6C72.7985 192.293 72.2385 192.14 71.5852 192.14C70.9318 192.14 70.3652 192.293 69.8852 192.6C69.4185 192.893 69.0585 193.3 68.8052 193.82C68.5518 194.327 68.4252 194.913 68.4252 195.58C68.4252 196.233 68.5452 196.82 68.7852 197.34C69.0385 197.847 69.3985 198.253 69.8652 198.56C70.3318 198.853 70.9052 199 71.5852 199ZM80.0794 201V186.4H82.8594V201H80.0794ZM78.7194 188.48V186.4H82.8594V188.48H78.7194ZM86.1731 201V186.4H88.9531V201H86.1731ZM84.8131 188.48V186.4H88.9531V188.48H84.8131ZM97.3469 201.38C96.3869 201.38 95.5402 201.227 94.8069 200.92C94.0735 200.613 93.4535 200.2 92.9469 199.68C92.4402 199.147 92.0535 198.547 91.7869 197.88C91.5335 197.213 91.4069 196.52 91.4069 195.8V195.38C91.4069 194.633 91.5402 193.927 91.8069 193.26C92.0869 192.58 92.4802 191.98 92.9869 191.46C93.5069 190.927 94.1335 190.513 94.8669 190.22C95.6002 189.913 96.4269 189.76 97.3469 189.76C98.2669 189.76 99.0935 189.913 99.8269 190.22C100.56 190.513 101.18 190.927 101.687 191.46C102.207 191.98 102.6 192.58 102.867 193.26C103.134 193.927 103.267 194.633 103.267 195.38V195.8C103.267 196.52 103.134 197.213 102.867 197.88C102.614 198.547 102.234 199.147 101.727 199.68C101.22 200.2 100.6 200.613 99.8669 200.92C99.1335 201.227 98.2935 201.38 97.3469 201.38ZM97.3469 199C98.0269 199 98.6002 198.853 99.0669 198.56C99.5335 198.253 99.8869 197.847 100.127 197.34C100.367 196.82 100.487 196.233 100.487 195.58C100.487 194.913 100.36 194.327 100.107 193.82C99.8669 193.3 99.5069 192.893 99.0269 192.6C98.5602 192.293 98.0002 192.14 97.3469 192.14C96.6935 192.14 96.1269 192.293 95.6469 192.6C95.1802 192.893 94.8202 193.3 94.5669 193.82C94.3135 194.327 94.1869 194.913 94.1869 195.58C94.1869 196.233 94.3069 196.82 94.5469 197.34C94.8002 197.847 95.1602 198.253 95.6269 198.56C96.0935 198.853 96.6669 199 97.3469 199ZM109.187 201L111.247 190.5H114.447L116.827 201H114.627L112.207 190.56H113.367L111.227 201H109.187ZM108.367 201L108.347 198.72H110.567V201H108.367ZM107.247 201L104.287 190.14H106.987L109.807 201H107.247ZM115.327 201V198.72H117.547L117.527 201H115.327ZM116.207 201L118.707 190.14H121.227L118.607 201H116.207ZM26.4065 225L21.0665 218.18H19.0065L25.3465 210.4H28.6065L22.8865 217.4L22.8065 216L29.8665 225H26.4065ZM16.9465 225V210.4H19.7865V225H16.9465ZM36.1848 225.38C35.2248 225.38 34.3781 225.227 33.6448 224.92C32.9114 224.613 32.2914 224.2 31.7848 223.68C31.2781 223.147 30.8914 222.547 30.6248 221.88C30.3714 221.213 30.2448 220.52 30.2448 219.8V219.38C30.2448 218.633 30.3781 217.927 30.6448 217.26C30.9248 216.58 31.3181 215.98 31.8248 215.46C32.3448 214.927 32.9714 214.513 33.7048 214.22C34.4381 213.913 35.2648 213.76 36.1848 213.76C37.1048 213.76 37.9314 213.913 38.6648 214.22C39.3981 214.513 40.0181 214.927 40.5248 215.46C41.0448 215.98 41.4381 216.58 41.7048 217.26C41.9714 217.927 42.1048 218.633 42.1048 219.38V219.8C42.1048 220.52 41.9714 221.213 41.7048 221.88C41.4514 222.547 41.0714 223.147 40.5648 223.68C40.0581 224.2 39.4381 224.613 38.7048 224.92C37.9714 225.227 37.1314 225.38 36.1848 225.38ZM36.1848 223C36.8648 223 37.4381 222.853 37.9048 222.56C38.3714 222.253 38.7248 221.847 38.9648 221.34C39.2048 220.82 39.3248 220.233 39.3248 219.58C39.3248 218.913 39.1981 218.327 38.9448 217.82C38.7048 217.3 38.3448 216.893 37.8648 216.6C37.3981 216.293 36.8381 216.14 36.1848 216.14C35.5314 216.14 34.9648 216.293 34.4848 216.6C34.0181 216.893 33.6581 217.3 33.4048 217.82C33.1514 218.327 33.0248 218.913 33.0248 219.58C33.0248 220.233 33.1448 220.82 33.3848 221.34C33.6381 221.847 33.9981 222.253 34.4648 222.56C34.9314 222.853 35.5048 223 36.1848 223ZM45.059 225V214.14H47.839V225H45.059ZM43.539 216.22V214.14H47.839V216.22H43.539ZM46.079 212.84C45.5323 212.84 45.1257 212.7 44.859 212.42C44.6057 212.127 44.479 211.767 44.479 211.34C44.479 210.887 44.6057 210.52 44.859 210.24C45.1257 209.96 45.5323 209.82 46.079 209.82C46.6257 209.82 47.0257 209.96 47.279 210.24C47.5323 210.52 47.659 210.887 47.659 211.34C47.659 211.767 47.5323 212.127 47.279 212.42C47.0257 212.7 46.6257 212.84 46.079 212.84ZM51.5629 225V214.14H54.3429V225H51.5629ZM50.0429 216.22V214.14H54.3429V216.22H50.0429ZM52.5829 212.84C52.0362 212.84 51.6296 212.7 51.3629 212.42C51.1096 212.127 50.9829 211.767 50.9829 211.34C50.9829 210.887 51.1096 210.52 51.3629 210.24C51.6296 209.96 52.0362 209.82 52.5829 209.82C53.1296 209.82 53.5296 209.96 53.7829 210.24C54.0362 210.52 54.1629 210.887 54.1629 211.34C54.1629 211.767 54.0362 212.127 53.7829 212.42C53.5296 212.7 53.1296 212.84 52.5829 212.84ZM67.0832 225.38C66.1232 225.38 65.2765 225.227 64.5432 224.92C63.8099 224.613 63.1899 224.2 62.6832 223.68C62.1765 223.147 61.7899 222.547 61.5232 221.88C61.2699 221.213 61.1432 220.52 61.1432 219.8V219.38C61.1432 218.633 61.2765 217.927 61.5432 217.26C61.8232 216.58 62.2165 215.98 62.7232 215.46C63.2432 214.927 63.8699 214.513 64.6032 214.22C65.3365 213.913 66.1632 213.76 67.0832 213.76C68.0032 213.76 68.8299 213.913 69.5632 214.22C70.2965 214.513 70.9165 214.927 71.4232 215.46C71.9432 215.98 72.3365 216.58 72.6032 217.26C72.8699 217.927 73.0032 218.633 73.0032 219.38V219.8C73.0032 220.52 72.8699 221.213 72.6032 221.88C72.3499 222.547 71.9699 223.147 71.4632 223.68C70.9565 224.2 70.3365 224.613 69.6032 224.92C68.8699 225.227 68.0299 225.38 67.0832 225.38ZM67.0832 223C67.7632 223 68.3365 222.853 68.8032 222.56C69.2699 222.253 69.6232 221.847 69.8632 221.34C70.1032 220.82 70.2232 220.233 70.2232 219.58C70.2232 218.913 70.0965 218.327 69.8432 217.82C69.6032 217.3 69.2432 216.893 68.7632 216.6C68.2965 216.293 67.7365 216.14 67.0832 216.14C66.4299 216.14 65.8632 216.293 65.3832 216.6C64.9165 216.893 64.5565 217.3 64.3032 217.82C64.0499 218.327 63.9232 218.913 63.9232 219.58C63.9232 220.233 64.0432 220.82 64.2832 221.34C64.5365 221.847 64.8965 222.253 65.3632 222.56C65.8299 222.853 66.4032 223 67.0832 223ZM75.4374 225V214.14H77.6374V218.8H77.4374C77.4374 217.693 77.5841 216.773 77.8774 216.04C78.1708 215.293 78.6041 214.733 79.1774 214.36C79.7641 213.987 80.4908 213.8 81.3574 213.8H81.4774C82.7708 213.8 83.7508 214.22 84.4174 215.06C85.0841 215.887 85.4174 217.127 85.4174 218.78V225H82.6374V218.54C82.6374 217.873 82.4441 217.333 82.0574 216.92C81.6841 216.507 81.1641 216.3 80.4974 216.3C79.8174 216.3 79.2641 216.513 78.8374 216.94C78.4241 217.353 78.2174 217.913 78.2174 218.62V225H75.4374ZM95.8226 225V212.5H98.6626V225H95.8226ZM91.6026 212.9V210.4H102.883V212.9H91.6026ZM107.79 225L109.85 214.5H113.05L115.43 225H113.23L110.81 214.56H111.97L109.83 225H107.79ZM106.97 225L106.95 222.72H109.17V225H106.97ZM105.85 225L102.89 214.14H105.59L108.41 225H105.85ZM113.93 225V222.72H116.15L116.13 225H113.93ZM114.81 225L117.31 214.14H119.83L117.21 225H114.81ZM122.539 225V214.14H125.319V225H122.539ZM121.019 216.22V214.14H125.319V216.22H121.019ZM123.559 212.84C123.013 212.84 122.606 212.7 122.339 212.42C122.086 212.127 121.959 211.767 121.959 211.34C121.959 210.887 122.086 210.52 122.339 210.24C122.606 209.96 123.013 209.82 123.559 209.82C124.106 209.82 124.506 209.96 124.759 210.24C125.013 210.52 125.139 210.887 125.139 211.34C125.139 211.767 125.013 212.127 124.759 212.42C124.506 212.7 124.106 212.84 123.559 212.84ZM133.243 225.14C132.243 225.14 131.417 225.013 130.763 224.76C130.123 224.493 129.643 224.053 129.323 223.44C129.003 222.813 128.843 221.973 128.843 220.92L128.863 211.08H131.463L131.443 221.1C131.443 221.633 131.583 222.047 131.863 222.34C132.157 222.62 132.57 222.76 133.103 222.76H134.803V225.14H133.243ZM127.123 216.18V214.14H134.803V216.18H127.123ZM141.857 225.14C140.857 225.14 140.03 225.013 139.377 224.76C138.737 224.493 138.257 224.053 137.937 223.44C137.617 222.813 137.457 221.973 137.457 220.92L137.477 211.08H140.077L140.057 221.1C140.057 221.633 140.197 222.047 140.477 222.34C140.77 222.62 141.183 222.76 141.717 222.76H143.417V225.14H141.857ZM135.737 216.18V214.14H143.417V216.18H135.737ZM150.551 225.38C149.618 225.38 148.798 225.22 148.091 224.9C147.398 224.58 146.818 224.153 146.351 223.62C145.898 223.073 145.551 222.467 145.311 221.8C145.085 221.133 144.971 220.453 144.971 219.76V219.38C144.971 218.66 145.085 217.967 145.311 217.3C145.551 216.62 145.898 216.02 146.351 215.5C146.818 214.967 147.391 214.547 148.071 214.24C148.751 213.92 149.538 213.76 150.431 213.76C151.605 213.76 152.585 214.02 153.371 214.54C154.171 215.047 154.771 215.72 155.171 216.56C155.571 217.387 155.771 218.28 155.771 219.24V220.24H146.151V218.54H154.031L153.171 219.38C153.171 218.687 153.071 218.093 152.871 217.6C152.671 217.107 152.365 216.727 151.951 216.46C151.551 216.193 151.045 216.06 150.431 216.06C149.818 216.06 149.298 216.2 148.871 216.48C148.445 216.76 148.118 217.167 147.891 217.7C147.678 218.22 147.571 218.847 147.571 219.58C147.571 220.26 147.678 220.867 147.891 221.4C148.105 221.92 148.431 222.333 148.871 222.64C149.311 222.933 149.871 223.08 150.551 223.08C151.231 223.08 151.785 222.947 152.211 222.68C152.638 222.4 152.911 222.06 153.031 221.66H155.591C155.431 222.407 155.125 223.06 154.671 223.62C154.218 224.18 153.638 224.613 152.931 224.92C152.238 225.227 151.445 225.38 150.551 225.38ZM158.094 225V214.14H160.294V218.74H160.234C160.234 217.18 160.567 216 161.234 215.2C161.9 214.4 162.88 214 164.174 214H164.574V216.42H163.814C162.88 216.42 162.154 216.673 161.634 217.18C161.127 217.673 160.874 218.393 160.874 219.34V225H158.094Z" fill="#171753"/>
</g>
<defs>
<clipPath id="clip0_2520_1186">
<rect width="250" height="180" fill="white" transform="translate(180) rotate(90)"/>
</clipPath>
</defs>
</svg>
