<svg width="1900" height="600" viewBox="0 0 1900 600" fill="none" xmlns="http://www.w3.org/2000/svg">
<g clip-path="url(#clip0_1974_33937)">
<rect width="1900" height="600" fill="url(#paint0_linear_1974_33937)"/>
<circle cx="787.058" cy="13.0578" r="2.05777" fill="#49CE8B"/>
<circle cx="787.058" cy="48.7257" r="2.05777" fill="#49CE8B"/>
<circle cx="787.058" cy="84.3937" r="2.05777" fill="#49CE8B"/>
<circle cx="787.058" cy="120.062" r="2.05777" fill="#49CE8B"/>
<circle cx="787.058" cy="155.73" r="2.05777" fill="#49CE8B"/>
<circle cx="787.058" cy="191.398" r="2.05777" fill="#49CE8B"/>
<circle cx="833.7" cy="13.0578" r="2.05777" fill="#49CE8B"/>
<circle cx="833.7" cy="48.7257" r="2.05777" fill="#49CE8B"/>
<circle cx="833.7" cy="84.3937" r="2.05777" fill="#49CE8B"/>
<circle cx="833.7" cy="120.062" r="2.05777" fill="#49CE8B"/>
<circle cx="833.7" cy="155.73" r="2.05777" fill="#49CE8B"/>
<circle cx="833.7" cy="191.398" r="2.05777" fill="#49CE8B"/>
<circle cx="880.344" cy="13.0578" r="2.05777" fill="#49CE8B"/>
<circle cx="880.344" cy="48.7257" r="2.05777" fill="#49CE8B"/>
<circle cx="880.344" cy="84.3937" r="2.05777" fill="#49CE8B"/>
<circle cx="880.344" cy="120.062" r="2.05777" fill="#49CE8B"/>
<circle cx="880.344" cy="155.73" r="2.05777" fill="#49CE8B"/>
<circle cx="880.344" cy="191.398" r="2.05777" fill="#49CE8B"/>
<circle cx="926.985" cy="13.0578" r="2.05777" fill="#49CE8B"/>
<circle cx="926.985" cy="48.7257" r="2.05777" fill="#49CE8B"/>
<circle cx="926.985" cy="84.3937" r="2.05777" fill="#49CE8B"/>
<circle cx="926.985" cy="120.062" r="2.05777" fill="#49CE8B"/>
<circle cx="926.985" cy="155.73" r="2.05777" fill="#49CE8B"/>
<circle cx="926.985" cy="191.398" r="2.05777" fill="#49CE8B"/>
<circle cx="973.629" cy="13.0578" r="2.05777" fill="#49CE8B"/>
<circle cx="973.629" cy="48.7257" r="2.05777" fill="#49CE8B"/>
<circle cx="973.629" cy="84.3937" r="2.05777" fill="#49CE8B"/>
<circle cx="973.629" cy="120.062" r="2.05777" fill="#49CE8B"/>
<circle cx="973.629" cy="155.73" r="2.05777" fill="#49CE8B"/>
<circle cx="973.629" cy="191.398" r="2.05777" fill="#49CE8B"/>
<circle cx="1020.27" cy="13.0578" r="2.05777" fill="#49CE8B"/>
<circle cx="1020.27" cy="48.7257" r="2.05777" fill="#49CE8B"/>
<circle cx="1020.27" cy="84.3937" r="2.05777" fill="#49CE8B"/>
<circle cx="1020.27" cy="120.062" r="2.05777" fill="#49CE8B"/>
<circle cx="1020.27" cy="155.73" r="2.05777" fill="#49CE8B"/>
<circle cx="1020.27" cy="191.398" r="2.05777" fill="#49CE8B"/>
<circle cx="1066.92" cy="13.0578" r="2.05777" fill="#49CE8B"/>
<circle cx="1066.92" cy="48.7257" r="2.05777" fill="#49CE8B"/>
<circle cx="1066.92" cy="84.3937" r="2.05777" fill="#49CE8B"/>
<circle cx="1066.92" cy="120.062" r="2.05777" fill="#49CE8B"/>
<circle cx="1066.92" cy="155.73" r="2.05777" fill="#49CE8B"/>
<circle cx="1066.92" cy="191.398" r="2.05777" fill="#49CE8B"/>
<circle cx="1113.56" cy="13.0578" r="2.05777" fill="#49CE8B"/>
<circle cx="1113.56" cy="48.7257" r="2.05777" fill="#49CE8B"/>
<circle cx="1113.56" cy="84.3937" r="2.05777" fill="#49CE8B"/>
<circle cx="1113.56" cy="120.062" r="2.05777" fill="#49CE8B"/>
<circle cx="1113.56" cy="155.73" r="2.05777" fill="#49CE8B"/>
<circle cx="1113.56" cy="191.398" r="2.05777" fill="#49CE8B"/>
<g clip-path="url(#clip1_1974_33937)">
<path d="M1171.37 77.5875C1171.37 77.9553 1171.26 78.3148 1171.06 78.6206C1170.85 78.9263 1170.56 79.1647 1170.22 79.3054C1169.88 79.4461 1169.51 79.483 1169.15 79.4112C1168.79 79.3395 1168.46 79.1624 1168.2 78.9023C1167.94 78.6423 1167.76 78.311 1167.69 77.9503C1167.61 77.5896 1167.65 77.2157 1167.79 76.8759C1167.93 76.5361 1168.17 76.2457 1168.48 76.0414C1168.78 75.8371 1169.14 75.728 1169.51 75.728C1170 75.728 1170.48 75.9239 1170.83 76.2727C1171.18 76.6214 1171.37 77.0943 1171.37 77.5875Z" fill="#5ED9D1"/>
<path d="M1409.67 547.824C1409.67 548.192 1409.56 548.552 1409.36 548.857C1409.15 549.163 1408.86 549.402 1408.52 549.542C1408.18 549.683 1407.81 549.72 1407.45 549.648C1407.09 549.576 1406.76 549.399 1406.5 549.139C1406.24 548.879 1406.06 548.548 1405.99 548.187C1405.92 547.826 1405.95 547.453 1406.09 547.113C1406.23 546.773 1406.47 546.483 1406.78 546.278C1407.08 546.074 1407.44 545.965 1407.81 545.965C1408.06 545.965 1408.3 546.013 1408.52 546.106C1408.75 546.2 1408.96 546.337 1409.13 546.509C1409.3 546.682 1409.44 546.887 1409.53 547.113C1409.62 547.338 1409.67 547.58 1409.67 547.824Z" fill="#5ED9D1"/>
<path d="M949.378 397.533C950.405 397.533 951.238 396.7 951.238 395.673C951.238 394.646 950.405 393.814 949.378 393.814C948.35 393.814 947.518 394.646 947.518 395.673C947.518 396.7 948.35 397.533 949.378 397.533Z" fill="#5ED9D1"/>
<path d="M1881.31 267.737C1882.34 267.737 1883.17 266.904 1883.17 265.877C1883.17 264.85 1882.34 264.018 1881.31 264.018C1880.29 264.018 1879.45 264.85 1879.45 265.877C1879.45 266.904 1880.29 267.737 1881.31 267.737Z" fill="#5ED9D1"/>
<path d="M1284.72 286.484C1285.74 286.484 1286.58 285.651 1286.58 284.624C1286.58 283.597 1285.74 282.765 1284.72 282.765C1283.69 282.765 1282.86 283.597 1282.86 284.624C1282.86 285.651 1283.69 286.484 1284.72 286.484Z" fill="white"/>
<path d="M1481.27 271.455C1482.3 271.455 1483.13 270.623 1483.13 269.596C1483.13 268.569 1482.3 267.736 1481.27 267.736C1480.25 267.736 1479.41 268.569 1479.41 269.596C1479.41 270.623 1480.25 271.455 1481.27 271.455Z" fill="white"/>
<path d="M1688.96 320.474C1689.99 320.474 1690.82 319.642 1690.82 318.615C1690.82 317.588 1689.99 316.755 1688.96 316.755C1687.94 316.755 1687.1 317.588 1687.1 318.615C1687.1 319.642 1687.94 320.474 1688.96 320.474Z" fill="white"/>
<path d="M1443.44 41.2017C1443.44 41.5695 1443.33 41.929 1443.13 42.2348C1442.92 42.5406 1442.63 42.7789 1442.29 42.9197C1441.95 43.0604 1441.58 43.0972 1441.22 43.0255C1440.86 42.9537 1440.53 42.7766 1440.27 42.5166C1440.01 42.2565 1439.83 41.9252 1439.76 41.5645C1439.68 41.2038 1439.72 40.8299 1439.86 40.4902C1440 40.1504 1440.24 39.86 1440.55 39.6557C1440.85 39.4513 1441.21 39.3423 1441.58 39.3423C1442.07 39.3423 1442.55 39.5382 1442.9 39.8869C1443.25 40.2356 1443.44 40.7086 1443.44 41.2017Z" fill="white"/>
</g>
<g clip-path="url(#clip2_1974_33937)">
<path d="M185.13 284.624C185.13 284.992 185.021 285.351 184.816 285.657C184.612 285.963 184.321 286.201 183.982 286.342C183.642 286.483 183.267 286.52 182.907 286.448C182.546 286.376 182.214 286.199 181.954 285.939C181.694 285.679 181.517 285.348 181.445 284.987C181.373 284.626 181.41 284.252 181.551 283.913C181.692 283.573 181.93 283.282 182.236 283.078C182.542 282.874 182.902 282.765 183.27 282.765C183.763 282.765 184.236 282.961 184.585 283.309C184.934 283.658 185.13 284.131 185.13 284.624Z" fill="#5ED9D1"/>
<path d="M438.246 559.824C438.246 560.192 438.137 560.552 437.933 560.857C437.728 561.163 437.438 561.402 437.098 561.542C436.758 561.683 436.384 561.72 436.023 561.648C435.662 561.576 435.33 561.399 435.07 561.139C434.81 560.879 434.633 560.548 434.561 560.187C434.489 559.826 434.526 559.453 434.667 559.113C434.808 558.773 435.046 558.483 435.352 558.278C435.658 558.074 436.018 557.965 436.386 557.965C436.63 557.965 436.872 558.013 437.098 558.106C437.323 558.2 437.528 558.337 437.701 558.509C437.874 558.682 438.011 558.887 438.104 559.113C438.198 559.338 438.246 559.58 438.246 559.824Z" fill="#5ED9D1"/>
<path d="M883.145 44.9211C884.173 44.9211 885.006 44.0886 885.006 43.0616C885.006 42.0347 884.173 41.2021 883.145 41.2021C882.118 41.2021 881.285 42.0347 881.285 43.0616C881.285 44.0886 882.118 44.9211 883.145 44.9211Z" fill="#5ED9D1"/>
<path d="M179.549 474.537C180.576 474.537 181.409 473.704 181.409 472.677C181.409 471.65 180.576 470.818 179.549 470.818C178.521 470.818 177.688 471.65 177.688 472.677C177.688 473.704 178.521 474.537 179.549 474.537Z" fill="white"/>
<path d="M575.796 382.474C576.823 382.474 577.656 381.642 577.656 380.615C577.656 379.588 576.823 378.755 575.796 378.755C574.768 378.755 573.936 379.588 573.936 380.615C573.936 381.642 574.768 382.474 575.796 382.474Z" fill="white"/>
<path d="M482.274 41.2017C482.274 41.5695 482.165 41.929 481.961 42.2348C481.756 42.5406 481.466 42.7789 481.126 42.9197C480.786 43.0604 480.412 43.0972 480.051 43.0255C479.69 42.9537 479.359 42.7766 479.099 42.5166C478.838 42.2565 478.661 41.9252 478.589 41.5645C478.518 41.2038 478.555 40.8299 478.695 40.4902C478.836 40.1504 479.075 39.86 479.381 39.6557C479.686 39.4513 480.046 39.3423 480.414 39.3423C480.907 39.3423 481.381 39.5382 481.73 39.8869C482.078 40.2356 482.274 40.7086 482.274 41.2017Z" fill="white"/>
</g>
<path opacity="0.8" d="M592.635 568.207L579.537 540.527C529.284 433.948 477.321 323.766 378.375 263.551C319.341 227.626 249.656 214.217 182.268 201.266C126.557 190.568 68.928 179.49 16.9622 155.76C-86.9468 108.338 -162.019 12.366 -215.822 -65.945C-229.507 -85.8484 -243.009 -106.297 -256.108 -126.119C-301.934 -195.444 -349.257 -267.167 -410.131 -325.221C-412.877 -327.866 -415.646 -330.42 -418.437 -333.012L-422.238 -339.319C-417.734 -335.329 -413.176 -331.166 -408.604 -326.807C-347.579 -268.588 -300.169 -196.763 -254.275 -127.326C-241.188 -107.523 -227.674 -87.0555 -214.008 -67.1408C-160.352 10.9262 -85.5396 106.595 17.9667 153.901C69.6766 177.503 127.167 188.562 182.769 199.25C250.348 212.264 320.21 225.669 379.606 261.811C479.029 322.225 531.136 432.729 581.472 539.617C585.851 548.921 590.217 558.148 594.57 567.297C614.611 609.345 638.363 654.532 667.533 695.839L665.655 696.971C636.484 655.536 612.71 610.312 592.635 568.207Z" fill="#49CE8B"/>
<path opacity="0.8" d="M2143.16 -20.7005L2113.89 -11.7008C2001.21 22.7776 1884.73 58.4325 1810.97 147.738C1766.96 201.021 1743.71 268.07 1721.25 332.909C1702.68 386.514 1683.47 441.964 1652.55 489.998C1590.74 586.048 1485.01 646.608 1399.8 688.646C1378.14 699.341 1355.97 709.776 1334.48 719.902C1259.31 755.332 1181.55 791.9 1115.38 843.837C1112.37 846.176 1109.44 848.55 1106.48 850.941L1099.69 853.801C1104.29 849.914 1109.06 845.999 1114.03 842.098C1180.38 790.036 1258.25 753.396 1333.55 717.916C1355.02 707.798 1377.21 697.354 1398.88 686.679C1483.82 644.752 1589.21 584.406 1650.85 488.738C1681.61 440.939 1700.79 385.624 1719.32 332.125C1741.88 267.105 1765.15 199.881 1809.42 146.271C1883.44 56.5211 2000.27 20.7705 2113.26 -13.7461C2123.1 -16.7474 2132.85 -19.7475 2142.53 -22.7461C2187.02 -36.5618 2235.14 -53.5995 2280.2 -76.5565L2281.05 -74.5356C2235.86 -51.5967 2187.7 -34.5418 2143.16 -20.7005Z" fill="#49CE8B"/>
<path opacity="0.8" d="M1954.73 -242.247L1928.78 -225.979C1828.87 -163.512 1725.58 -98.9237 1677.45 6.42938C1648.73 69.2868 1643.63 140.067 1638.72 208.511C1634.66 265.095 1630.45 323.628 1613.01 378.029C1578.17 486.803 1491.72 572.665 1420.29 635.324C1402.14 651.26 1383.43 667.078 1365.29 682.422C1301.85 736.1 1236.2 791.547 1185.73 858.84C1183.43 861.879 1181.22 864.929 1178.97 868.006L1173.16 872.525C1176.59 867.581 1180.18 862.565 1183.97 857.51C1234.59 790.048 1300.33 734.502 1363.87 680.744C1381.99 665.413 1400.73 649.582 1418.89 633.663C1490.09 571.179 1576.27 485.611 1611.05 377.251C1628.39 323.119 1632.6 264.726 1636.65 208.252C1641.61 139.61 1646.69 68.6545 1675.58 5.41265C1723.85 -100.438 1827.44 -165.208 1927.65 -227.793C1936.38 -233.237 1945.02 -238.66 1953.6 -244.061C1992.99 -268.92 2035.06 -297.832 2072.64 -331.668L2073.99 -329.937C2036.28 -296.085 1994.17 -267.146 1954.73 -242.247Z" fill="#49CE8B"/>
<g clip-path="url(#clip3_1974_33937)">
<path d="M-85.2746 -137.909C-64.7241 -85.0208 -66.769 -30.4006 -73.3686 24.9916C-79.6931 78.2124 -87.8037 132.443 -75.3174 185.554C-49.7123 294.891 43.1969 373.802 136.842 426.887C241.517 486.16 360.12 525.977 450.277 608.116C494.502 648.417 530.055 700.983 535.844 761.724C540.786 812.065 521.128 856.972 488.925 894.566C470.62 915.944 449.745 934.774 428.629 953.297L436.601 963.417C442.592 958.167 448.563 952.933 454.437 947.577C488.529 916.413 522.095 882.019 538.66 838.058C557.548 788.225 550.185 732.038 526.588 685.029C497.77 627.654 447.772 584.016 394.955 549.192C344.083 515.618 288.899 489.384 234.259 462.622C130.003 411.569 18.1281 352.104 -38.8366 245.473C-52.3385 220.587 -61.5543 193.608 -66.097 165.668C-70.3935 138.075 -69.5124 110.082 -66.9598 82.3612C-61.9122 28.1917 -50.5666 -26.301 -57.4699 -80.8957C-64.8882 -137.908 -90.5394 -191.012 -130.594 -232.278L-130.755 -232.483L-141.088 -224.343C-116.811 -199.617 -97.8198 -170.207 -85.2746 -137.909Z" fill="#BEF0ED"/>
<path d="M-196.644 37.8885C-156.089 164.438 -36.7979 244.995 56.1786 290.258C104.002 313.577 154.464 333.227 203.26 352.235C266.432 376.847 331.743 402.326 391.86 435.872C450.516 468.614 588.251 560.484 600.345 705.644C607.263 789.117 570.335 880.03 490.582 975.857C483.074 984.853 475.315 993.781 467.507 1002.65L469.118 1004.69C477.052 995.693 484.918 986.647 492.557 977.482C572.776 881.155 609.876 789.577 602.894 705.392C590.739 559.021 452.147 466.567 393.127 433.615C332.873 399.978 267.472 374.471 204.227 349.85C155.467 330.847 105.079 311.204 57.34 287.951C-35.1789 242.891 -153.815 162.746 -194.165 37.1284C-208.504 -7.66554 -212.067 -56.0457 -215.487 -102.816C-216.908 -122.304 -218.391 -142.041 -220.663 -161.687L-223.052 -159.805C-220.914 -140.749 -219.467 -121.646 -218.116 -102.666C-214.661 -55.7252 -211.115 -7.19899 -196.644 37.8885Z" fill="#49CE8B"/>
<circle cx="113.49" cy="316.491" r="11" transform="rotate(150 113.49 316.491)" stroke="#FFA6A6" stroke-width="8"/>
</g>
<circle cx="1648.49" cy="96.4901" r="11" transform="rotate(150 1648.49 96.4901)" stroke="#FFA6A6" stroke-width="8"/>
<path d="M863.123 182.514H563.757V389.768H863.123V182.514Z" fill="#171753"/>
<path d="M867.441 173.879H558V191.15H867.441V173.879Z" fill="#BEF0ED"/>
<path d="M587.222 179.854C587.222 181.564 585.835 182.95 584.125 182.95C582.415 182.95 581.028 181.564 581.028 179.854C581.028 178.143 582.415 176.757 584.125 176.757C585.835 176.757 587.222 178.143 587.222 179.854Z" fill="#171753"/>
<path d="M598.735 179.854C598.735 181.564 597.349 182.95 595.639 182.95C593.928 182.95 592.542 181.564 592.542 179.854C592.542 178.143 593.928 176.757 595.639 176.757C597.349 176.757 598.735 178.143 598.735 179.854Z" fill="#171753"/>
<path d="M610.25 179.854C610.25 181.564 608.864 182.95 607.153 182.95C605.443 182.95 604.057 181.564 604.057 179.854C604.057 178.143 605.443 176.757 607.153 176.757C608.864 176.757 610.25 178.143 610.25 179.854Z" fill="#171753"/>
<path fill-rule="evenodd" clip-rule="evenodd" d="M861.711 176.757H563.73L563.73 389.768H861.711V176.757ZM563.73 171C560.566 171 558 173.578 558 176.757V389.768C558 392.947 560.566 395.525 563.73 395.525H861.711C864.876 395.525 867.441 392.947 867.441 389.768V176.757C867.441 173.578 864.876 171 861.711 171H563.73Z" fill="#BEF0ED"/>
<path d="M1338.12 182.514H1038.76V389.768H1338.12V182.514Z" fill="#171753"/>
<path d="M1342.44 173.879H1033V191.15H1342.44V173.879Z" fill="#BEF0ED"/>
<path d="M1062.22 179.854C1062.22 181.564 1060.84 182.95 1059.12 182.95C1057.41 182.95 1056.03 181.564 1056.03 179.854C1056.03 178.143 1057.41 176.757 1059.12 176.757C1060.84 176.757 1062.22 178.143 1062.22 179.854Z" fill="#171753"/>
<path d="M1073.74 179.854C1073.74 181.564 1072.35 182.95 1070.64 182.95C1068.93 182.95 1067.54 181.564 1067.54 179.854C1067.54 178.143 1068.93 176.757 1070.64 176.757C1072.35 176.757 1073.74 178.143 1073.74 179.854Z" fill="#171753"/>
<path d="M1085.25 179.854C1085.25 181.564 1083.86 182.95 1082.15 182.95C1080.44 182.95 1079.06 181.564 1079.06 179.854C1079.06 178.143 1080.44 176.757 1082.15 176.757C1083.86 176.757 1085.25 178.143 1085.25 179.854Z" fill="#171753"/>
<path fill-rule="evenodd" clip-rule="evenodd" d="M1336.71 176.757H1038.73L1038.73 389.768H1336.71V176.757ZM1038.73 171C1035.57 171 1033 173.578 1033 176.757V389.768C1033 392.947 1035.57 395.525 1038.73 395.525H1336.71C1339.88 395.525 1342.44 392.947 1342.44 389.768V176.757C1342.44 173.578 1339.88 171 1336.71 171H1038.73Z" fill="#BEF0ED"/>
<path d="M1100.12 275.514H800.757V482.768H1100.12V275.514Z" fill="#171753"/>
<path d="M1104.44 266.879H795V284.15H1104.44V266.879Z" fill="#BEF0ED"/>
<path d="M824.222 272.854C824.222 274.564 822.835 275.95 821.125 275.95C819.415 275.95 818.028 274.564 818.028 272.854C818.028 271.143 819.415 269.757 821.125 269.757C822.835 269.757 824.222 271.143 824.222 272.854Z" fill="#171753"/>
<path d="M835.735 272.854C835.735 274.564 834.349 275.95 832.639 275.95C830.928 275.95 829.542 274.564 829.542 272.854C829.542 271.143 830.928 269.757 832.639 269.757C834.349 269.757 835.735 271.143 835.735 272.854Z" fill="#171753"/>
<path d="M847.25 272.854C847.25 274.564 845.864 275.95 844.153 275.95C842.443 275.95 841.057 274.564 841.057 272.854C841.057 271.143 842.443 269.757 844.153 269.757C845.864 269.757 847.25 271.143 847.25 272.854Z" fill="#171753"/>
<path fill-rule="evenodd" clip-rule="evenodd" d="M1098.71 269.757H800.73L800.73 482.768H1098.71V269.757ZM800.73 264C797.566 264 795 266.578 795 269.757V482.768C795 485.947 797.566 488.525 800.73 488.525H1098.71C1101.88 488.525 1104.44 485.947 1104.44 482.768V269.757C1104.44 266.578 1101.88 264 1098.71 264H800.73Z" fill="#BEF0ED"/>
<g clip-path="url(#clip4_1974_33937)">
<path fill-rule="evenodd" clip-rule="evenodd" d="M558 451L585.447 435L558 419V451Z" fill="#49CE8B"/>
<path opacity="0.9" fill-rule="evenodd" clip-rule="evenodd" d="M601.529 451L628.96 435L601.529 419V451Z" fill="#49CE8B"/>
<path opacity="0.8" fill-rule="evenodd" clip-rule="evenodd" d="M645.041 451L672.488 435L645.041 419V451Z" fill="#49CE8B"/>
<path opacity="0.8" fill-rule="evenodd" clip-rule="evenodd" d="M687.874 451.39L715.321 435.39L687.874 419.39V451.39Z" fill="#49CE8B"/>
</g>
<g clip-path="url(#clip5_1974_33937)">
<path fill-rule="evenodd" clip-rule="evenodd" d="M1180 149L1207.45 133L1180 117L1180 149Z" fill="#49CE8B"/>
<path opacity="0.9" fill-rule="evenodd" clip-rule="evenodd" d="M1223.53 149L1250.96 133L1223.53 117L1223.53 149Z" fill="#49CE8B"/>
<path opacity="0.8" fill-rule="evenodd" clip-rule="evenodd" d="M1267.04 149L1294.49 133L1267.04 117L1267.04 149Z" fill="#49CE8B"/>
<path opacity="0.7" fill-rule="evenodd" clip-rule="evenodd" d="M1310.57 117L1310.57 149L1338 133L1310.57 117Z" fill="#49CE8B"/>
</g>
<rect opacity="0.8" x="578" y="236" width="61" height="58" fill="#5ED9D1"/>
<rect opacity="0.8" x="578" y="308" width="61" height="13" fill="#5ED9D1"/>
<rect opacity="0.8" x="578" y="334" width="61" height="13" fill="#5ED9D1"/>
<rect opacity="0.8" x="578" y="360" width="61" height="13" fill="#5ED9D1"/>
<rect opacity="0.8" x="652" y="236" width="60" height="58" fill="#5ED9D1"/>
<rect opacity="0.8" x="652" y="308" width="60" height="13" fill="#5ED9D1"/>
<rect opacity="0.8" x="652" y="334" width="60" height="13" fill="#5ED9D1"/>
<rect opacity="0.8" x="652" y="360" width="60" height="13" fill="#5ED9D1"/>
<rect opacity="0.8" x="726" y="236" width="60" height="58" fill="#5ED9D1"/>
<rect opacity="0.8" x="1131" y="243" width="60" height="58" fill="#5ED9D1"/>
<rect opacity="0.8" x="726" y="308" width="60" height="13" fill="#5ED9D1"/>
<rect opacity="0.8" x="726" y="334" width="60" height="13" fill="#5ED9D1"/>
<rect opacity="0.8" x="726" y="360" width="60" height="13" fill="#5ED9D1"/>
<rect opacity="0.8" x="1131" y="315" width="60" height="58" fill="#5ED9D1"/>
<path d="M789 226.631H577V207H789V226.631ZM578.855 224.766H787.145V208.718H578.855V224.766Z" fill="#5ED9D1"/>
<path d="M590.375 211.466H582.613V221.969H590.375V211.466Z" fill="#5ED9D1"/>
<path d="M599.943 211.466H592.182V221.969H599.943V211.466Z" fill="#5ED9D1"/>
<path d="M609.559 211.466H601.798V221.969H609.559V211.466Z" fill="#5ED9D1"/>
<path d="M619.127 211.466H611.365V221.969H619.127V211.466Z" fill="#5ED9D1"/>
<path d="M628.694 211.466H620.933V221.969H628.694V211.466Z" fill="#5ED9D1"/>
<path d="M638.31 211.466H630.549V221.969H638.31V211.466Z" fill="#5ED9D1"/>
<path d="M647.879 211.466H640.117V221.969H647.879V211.466Z" fill="#5ED9D1"/>
<path d="M657.495 211.466H649.733V221.969H657.495V211.466Z" fill="#5ED9D1"/>
<path d="M667.062 211.466H659.301V221.969H667.062V211.466Z" fill="#5ED9D1"/>
<g style="mix-blend-mode:screen" opacity="0.25">
<g style="mix-blend-mode:screen" opacity="0.25">
<path d="M1215.27 264H1203.99V373.493H1215.27V264Z" fill="#5ED9D1"/>
</g>
<g style="mix-blend-mode:screen" opacity="0.25">
<path d="M1236.11 264H1224.83V373.493H1236.11V264Z" fill="#5ED9D1"/>
</g>
<g style="mix-blend-mode:screen" opacity="0.25">
<path d="M1257 264H1245.73V373.493H1257V264Z" fill="#5ED9D1"/>
</g>
<g style="mix-blend-mode:screen" opacity="0.25">
<path d="M1277.85 264H1266.57V373.493H1277.85V264Z" fill="#5ED9D1"/>
</g>
<g style="mix-blend-mode:screen" opacity="0.25">
<path d="M1298.69 264H1287.42V373.493H1298.69V264Z" fill="#5ED9D1"/>
</g>
<g style="mix-blend-mode:screen" opacity="0.25">
<path d="M1319.53 264H1308.26V373.493H1319.53V264Z" fill="#5ED9D1"/>
</g>
</g>
<g style="mix-blend-mode:screen" opacity="0.5">
<g style="mix-blend-mode:screen" opacity="0.5">
<path d="M1215.27 300.956H1203.99V373.493H1215.27V300.956Z" fill="#BEF0ED"/>
</g>
<g style="mix-blend-mode:screen" opacity="0.5">
<path d="M1236.11 321.372H1224.83V373.493H1236.11V321.372Z" fill="#BEF0ED"/>
</g>
<g style="mix-blend-mode:screen" opacity="0.5">
<path d="M1257 307.09H1245.73V373.493H1257V307.09Z" fill="#BEF0ED"/>
</g>
<g style="mix-blend-mode:screen" opacity="0.5">
<path d="M1277.85 280.49H1266.57V373.444H1277.85V280.49Z" fill="#BEF0ED"/>
</g>
<g style="mix-blend-mode:screen" opacity="0.5">
<path d="M1298.69 290.748H1287.42V373.493H1298.69V290.748Z" fill="#BEF0ED"/>
</g>
<g style="mix-blend-mode:screen" opacity="0.5">
<path d="M1319.53 321.372H1308.26V373.493H1319.53V321.372Z" fill="#BEF0ED"/>
</g>
</g>
<path d="M1215.27 327.851H1203.99V373.493H1215.27V327.851Z" fill="#5ED9D1"/>
<path d="M1236.11 340.709H1224.83V373.493H1236.11V340.709Z" fill="#5ED9D1"/>
<path d="M1257 331.728H1245.73V373.493H1257V331.728Z" fill="#5ED9D1"/>
<path d="M1277.85 314.992H1266.57V373.493H1277.85V314.992Z" fill="#5ED9D1"/>
<path d="M1298.69 321.421H1287.42V373.493H1298.69V321.421Z" fill="#5ED9D1"/>
<path d="M1319.53 340.709H1308.26V373.493H1319.53V340.709Z" fill="#5ED9D1"/>
<path d="M826.769 302H818V308.843H826.769V302Z" fill="#BEF0ED"/>
<path d="M844.189 302H835.499V308.843H844.189V302Z" fill="#BEF0ED"/>
<path d="M861.727 302H852.958V308.843H861.727V302Z" fill="#BEF0ED"/>
<path d="M856.147 341.632H829.958V348.475H856.147V341.632Z" fill="#FFC78F"/>
<path d="M868.225 387.158H829.958V394.04H868.225V387.158Z" fill="#FFC78F"/>
<path d="M912.749 432.723H896.366V439.605H912.749V432.723Z" fill="#BEF0ED"/>
<path d="M877.313 455.506H829.958V462.388H877.313V455.506Z" fill="#FFC78F"/>
<path d="M847.178 364.375H829.958V371.257H847.178V364.375Z" fill="#BEF0ED"/>
<path d="M904.977 387.158H887.717V394.04H904.977V387.158Z" fill="#FFA6A6"/>
<path d="M873.884 364.375H866.789V371.257H873.884V364.375Z" fill="#BEF0ED"/>
<path d="M847.178 432.723H829.958V439.605H847.178V432.723Z" fill="#FFA6A6"/>
<path d="M875.28 432.723H868.225V439.605H875.28V432.723Z" fill="#FFC78F"/>
<path d="M903.422 455.506H896.366V462.388H903.422V455.506Z" fill="#FFA6A6"/>
<path d="M887.717 409.94H858.061V416.783H887.717V409.94Z" fill="#FFA6A6"/>
<path d="M837.013 409.94H829.958V416.783H837.013V409.94Z" fill="#BEF0ED"/>
<path d="M981.088 393.336L994.003 408.445L988.702 412.915L972 393.336L988.702 373.757L994.003 378.187L981.088 393.336Z" fill="#BEF0ED"/>
<path d="M1058.94 393.336L1042.24 412.915L1036.93 408.445L1049.85 393.336L1036.93 378.187L1042.24 373.757L1058.94 393.336Z" fill="#BEF0ED"/>
<path d="M1026.53 372.255L1010.98 416.673L1004.41 414.418L1019.95 370L1026.53 372.255Z" fill="#BEF0ED"/>
</g>
<defs>
<linearGradient id="paint0_linear_1974_33937" x1="-7.07805e-06" y1="300" x2="1900" y2="300" gradientUnits="userSpaceOnUse">
<stop stop-color="#030332"/>
<stop offset="1" stop-color="#171753"/>
</linearGradient>
<clipPath id="clip0_1974_33937">
<rect width="1900" height="600" fill="white"/>
</clipPath>
<clipPath id="clip1_1974_33937">
<rect width="947" height="657" fill="white" transform="translate(936.173 -42.0166)"/>
</clipPath>
<clipPath id="clip2_1974_33937">
<rect width="947" height="657" fill="white" transform="translate(-24.9941 -42.0166)"/>
</clipPath>
<clipPath id="clip3_1974_33937">
<rect width="1343" height="334" fill="white" transform="translate(-99.6338 -257) rotate(51.7695)"/>
</clipPath>
<clipPath id="clip4_1974_33937">
<rect width="158" height="32" fill="white" transform="translate(558 419)"/>
</clipPath>
<clipPath id="clip5_1974_33937">
<rect width="158" height="32" fill="white" transform="translate(1180 117)"/>
</clipPath>
</defs>
</svg>
